<?xml version="1.0" encoding="utf-8"?>
<!-- Generator: Adobe Illustrator 16.0.0, SVG Export Plug-In . SVG Version: 6.00 Build 0)  -->
<!DOCTYPE svg PUBLIC "-//W3C//DTD SVG 1.1//EN" "http://www.w3.org/Graphics/SVG/1.1/DTD/svg11.dtd">
<svg version="1.1" id="Layer_1" xmlns="http://www.w3.org/2000/svg" xmlns:xlink="http://www.w3.org/1999/xlink" x="0px" y="0px"
	 width="938.982px" height="497.831px" viewBox="0 0 938.982 497.831" enable-background="new 0 0 938.982 497.831"
	 xml:space="preserve">
<g id="g-root-cp_1_g-1_meugq51kdmf4f-fill" transform="translate(206.00399780273438, 248.175048828125)">
	<g id="cp_1_g-1_meugq51kdmf4f-fill">
		<g>
			<path fill="#0397FC" d="M62.268,93.437C35.263,66.432,20.092,29.805,20.092-8.386c0-38.19,15.171-74.818,42.177-101.823
				l50.97,50.97C99.751-45.752,92.174-27.459,92.174-8.386c0,19.074,7.577,37.366,21.064,50.854L62.268,93.437z"/>
		</g>
	</g>
</g>
<g id="g-root-cp_4_g-4_qunyul1kdmf41-fill" transform="translate(464.176025390625, 400.8590087890625)">
	<g id="cp_4_g-4_qunyul1kdmf41-fill">
		<g>
			<path fill="#1DED76" d="M223.739-59.239c-27.006,27.005-63.633,42.177-101.824,42.177c-38.19,0-74.817-15.172-101.823-42.177
				l50.97-50.97c13.487,13.487,31.78,21.063,50.854,21.063c19.074,0,37.366-7.576,50.854-21.063L223.739-59.239z"/>
		</g>
	</g>
</g>
<g id="g-root-cp_2_g-2_qunyul1kdmf43-fill" transform="translate(248.17999267578125, 205.998046875)">
	<g>
		<g id="cp_2_g-2_qunyul1kdmf43-fill_8_">
			<g>
				<path fill="#19BCF2" d="M20.092-68.032c27.005-27.005,63.632-42.177,101.823-42.177c38.191,0,74.818,15.171,101.824,42.177
					l-50.97,50.97c-13.487-13.487-31.78-21.064-50.854-21.064S84.549-30.55,71.062-17.063L20.092-68.032z"/>
			</g>
		</g>
	</g>
</g>
<g id="g-root-cp_5_g-5_hz0ylp1kdmfwt-fill" transform="translate(616.8519897460938, 248.18115234375)">
	<g id="cp_5_g-5_hz0ylp1kdmfwt-fill">
		<g>
			<path fill="#03FCA9" d="M71.062-110.209c13.371,13.372,23.979,29.246,31.215,46.717c7.236,17.471,10.962,36.195,10.962,55.106
				c0,18.91-3.726,37.635-10.962,55.106c-7.236,17.471-17.844,33.345-31.215,46.717l-50.971-50.97
				c6.679-6.679,11.976-14.606,15.59-23.332s5.475-18.077,5.475-27.521s-1.86-18.797-5.475-27.522
				c-3.614-8.725-8.911-16.653-15.59-23.331L71.062-110.209z"/>
		</g>
	</g>
</g>
<g id="g-root-cp_7_g-7_hz0ylp1kdmfwv-fill" transform="translate(248.17999267578125, 349.998046875)">
	<g id="cp_7_g-7_hz0ylp1kdmfwv-fill">
		<g>
			<path fill="#0879B7" d="M193.91-110.209h-0.077c0,14.224-4.218,28.129-12.12,39.955c-7.902,11.827-19.135,21.045-32.276,26.488
				s-27.601,6.867-41.552,4.093c-13.95-2.775-26.765-9.625-36.823-19.683l-50.97,50.97c20.139,20.139,45.797,33.854,73.73,39.41
				c27.934,5.556,56.887,2.704,83.2-8.194c20.356-8.432,38.423-21.387,52.887-37.784c-23.131-26.226-35.999-60.073-35.999-95.247
				C193.91-110.204,193.91-110.206,193.91-110.209z M265.914-109.599c-0.002-0.203-0.003-0.405-0.003-0.608v-0.002h0.004
				C265.915-110.006,265.915-109.802,265.914-109.599z"/>
		</g>
	</g>
</g>
<g id="g-root-cp_6_g-6_dj7gh91kdmgp5-fill" transform="translate(458.0040283203125, 206.0050048828125)">
	<g id="cp_6_g-6_dj7gh91kdmgp5-fill">
		<g>
			<path fill="#06CC8A" d="M20.092-61.462L20.092-61.462C30.58-49.57,39.046-36.011,45.13-21.323
				c7.237,17.472,10.958,36.198,10.958,55.108v0.006h0.08c0-14.224,4.218-28.128,12.12-39.955s19.135-21.045,32.276-26.488
				c13.141-5.443,27.602-6.868,41.552-4.093c13.951,2.775,26.766,9.625,36.823,19.682l50.97-50.97
				c-20.139-20.139-45.797-33.854-73.73-39.41s-56.887-2.705-83.199,8.194C52.623-90.816,34.556-77.86,20.092-61.462z"/>
		</g>
	</g>
</g>
<g id="g-root-cp_3_g-3_dj7gh91kdmgp7-fill" transform="translate(400.85699462890625, 248.175048828125)">
	<g id="cp_3_g-3_dj7gh91kdmgp7-fill">
		<g>
			<path fill="#1BEFDF" d="M76.49-104.474c-1.754-1.958-3.564-3.871-5.428-5.735l-50.97,50.97
				c6.678,6.679,11.976,14.606,15.589,23.332c3.614,8.726,5.552,18.084,5.552,27.528c0,35.174,12.869,69.022,35.999,95.248
				c1.984,2.249,4.044,4.443,6.178,6.576l50.97-50.97c-13.487-13.487-21.145-31.786-21.145-50.86
				c0-18.91-3.722-37.637-10.958-55.107c-6.084-14.688-14.55-28.248-25.038-40.14C76.991-103.914,76.741-104.195,76.49-104.474z"/>
		</g>
	</g>
</g>
<g id="g-root-tx_6_1d30fn11kdmewz-fill" transform="translate(554, 224)">
	<g id="tx_6_1d30fn11kdmewz-fill">
		<g>
			<g enable-background="new    ">
				<path fill="#FFFFFF" d="M25.122-83.994c0-7.5,3.076-11.719,8.057-11.719c3.721,0,6.328,2.285,6.885,5.625h-2.607
					c-0.498-1.875-1.904-3.281-4.277-3.281c-3.486,0-5.566,2.988-5.566,8.086h0.264c1.23-1.758,3.164-2.813,5.449-2.813
					c3.779,0,6.914,2.93,6.914,7.031c0,3.984-2.93,7.178-7.383,7.148C29.165-73.975,25.122-76.143,25.122-83.994z M37.69-81.035
					c-0.029-2.607-1.992-4.746-4.775-4.746s-4.922,2.256-4.951,4.775c0,2.49,2.051,4.775,4.893,4.775
					C35.61-76.23,37.661-78.398,37.69-81.035z"/>
			</g>
		</g>
	</g>
</g>
<g id="g-root-tx_2_1ly0yst1kdmgi7-fill" transform="translate(338, 224)">
	<g id="tx_2_1ly0yst1kdmgi7-fill">
		<g>
			<g enable-background="new    ">
				<path fill="#FFFFFF" d="M25.445-76.143l7.236-7.617c2.52-2.666,3.721-4.102,3.721-6.064c0-2.168-1.846-3.604-4.219-3.604
					c-2.52,0-4.131,1.611-4.131,3.984h-2.49c-0.029-3.75,2.871-6.27,6.709-6.27s6.592,2.578,6.592,5.889
					c0,2.373-1.113,4.219-4.863,8.086l-4.863,5.01v0.176h10.107v2.344h-13.77L25.445-76.143z"/>
			</g>
		</g>
	</g>
</g>
<g id="g-root-tx__1lpwsod1kdnuv4-fill" transform="translate(482, 146)">
	<g id="tx__1lpwsod1kdnuv4-fill">
		<g>
			<g enable-background="new    ">
				<path fill="#484848" d="M32.13-104.494h-1.465v8.086c0.645-0.029,1.27-0.088,1.836-0.156l0.117,1.152
					c-2.734,0.449-6.367,0.527-8.652,0.547l-0.195-1.328l1.836-0.02v-8.281h-1.465v-1.289h7.988V-104.494z M29.259-96.311v-8.184
					h-2.246v8.262C27.745-96.252,28.507-96.271,29.259-96.311z M35.528-91.545h-1.445v-6.543H31.72v-1.27h2.363v-2.402H31.72v-1.27
					h2.363v-4.531h1.445V-91.545z M38.907-90.627h-1.484v-17.363h1.484V-90.627z"/>
				<path fill="#484848" d="M42.306-93.889l-0.84-1.25c4.697-2.227,7.09-5.557,7.441-9.707h-6.641v-1.25h8.203
					C50.45-101.096,48.126-96.682,42.306-93.889z M55.606-90.627h-1.543v-17.363h1.543V-90.627z"/>
				<path fill="#484848" d="M74.356-99.396h-7.168v1.719h5.137v3.887H62.013v1.758h10.84v1.211H60.489v-4.121h10.332v-1.543H60.45
					v-1.191h5.215v-1.719h-7.129v-1.25h15.82V-99.396z M72.306-102.111H60.587v-5.293h11.719V-102.111z M62.11-103.342h8.672v-2.832
					H62.11V-103.342z"/>
				<path fill="#484848" d="M87.208-91.506h-1.465v-8.438h-2.227c-0.166,3.379-1.602,5.488-3.75,5.488
					c-2.266,0-3.73-2.344-3.73-6.035s1.465-6.035,3.73-6.035c2.109,0,3.535,2.041,3.73,5.313h2.246v-6.406h1.465V-91.506z
					 M77.481-100.49c-0.02,2.813,0.879,4.59,2.285,4.57c1.406,0.02,2.305-1.758,2.305-4.57c0-2.832-0.898-4.59-2.305-4.59
					S77.462-103.322,77.481-100.49z M90.704-90.627H89.22v-17.363h1.484V-90.627z"/>
				<path fill="#484848" d="M103.751-95.861l-0.918,1.25c-1.973-1.016-3.604-3.096-4.375-5.566
					c-0.771,2.598-2.402,4.824-4.375,5.879l-0.996-1.23c2.539-1.25,4.57-4.59,4.57-7.793v-3.164h1.563v3.164
					C99.22-100.178,101.231-97.014,103.751-95.861z M107.501-90.588h-1.523v-10.215h-4.121v-1.25h4.121v-5.938h1.523V-90.588z"/>
				<path fill="#484848" d="M126.798-91.506h-1.465v-8.438h-2.227c-0.166,3.379-1.602,5.488-3.75,5.488
					c-2.266,0-3.73-2.344-3.73-6.035s1.465-6.035,3.73-6.035c2.109,0,3.535,2.041,3.73,5.313h2.246v-6.406h1.465V-91.506z
					 M117.071-100.49c-0.02,2.813,0.879,4.59,2.285,4.57c1.406,0.02,2.305-1.758,2.305-4.57c0-2.832-0.898-4.59-2.305-4.59
					S117.052-103.322,117.071-100.49z M130.294-90.627h-1.484v-17.363h1.484V-90.627z"/>
				<path fill="#484848" d="M135.196-96.096c2.646-0.029,5.01-0.166,7.617-0.703l0.195,1.27c-2.773,0.566-5.215,0.723-8.027,0.723
					h-1.328v-11.23h1.543V-96.096z M147.11-90.588h-1.543v-10.391h-5.41v-1.27h5.41v-5.742h1.543V-90.588z"/>
				<path fill="#484848" d="M160.899-95.607l-0.859,1.211c-2.031-0.928-3.789-2.93-4.59-5.332c-0.82,2.549-2.568,4.766-4.551,5.762
					l-0.918-1.211c2.48-1.191,4.648-4.473,4.668-7.48v-2.266h-4.102v-1.27h9.785v1.27h-4.141v2.266
					C156.192-99.709,158.341-96.721,160.899-95.607z M164.298-90.627h-1.543v-17.363h1.543V-90.627z"/>
				<path fill="#484848" d="M183.146-98.713h-15.898v-1.211h15.898V-98.713z M181.153-93.635h-10.43v1.66h10.996v1.113h-12.539
					v-3.828h10.449v-1.484h-10.469v-1.152h11.992V-93.635z M181.095-103.869h-10.254v1.523h10.566v1.113h-12.09v-3.691h10.234
					v-1.426h-10.293v-1.113h11.836V-103.869z"/>
				<path fill="#484848" d="M63.561-71.334v-1.895c-2.08-0.225-3.438-1.406-3.418-3.145c-0.02-1.953,1.66-3.223,4.16-3.223
					s4.199,1.27,4.199,3.223c0,1.719-1.348,2.9-3.398,3.125v1.855c1.68-0.068,3.379-0.195,4.98-0.41l0.117,1.172
					c-3.867,0.625-8.125,0.684-11.348,0.684l-0.234-1.309C60.104-71.266,61.803-71.275,63.561-71.334z M69.635-80.592H58.99v-1.25
					h4.57v-2.129h1.543v2.129h4.531V-80.592z M61.568-76.373c0,1.211,1.133,1.992,2.734,1.973c1.621,0.02,2.734-0.762,2.734-1.973
					s-1.113-2.031-2.734-2.031C62.701-78.404,61.568-77.584,61.568-76.373z M72.76-66.627h-1.523V-83.99h1.523V-66.627z"/>
				<path fill="#484848" d="M91.627-72.916h-7.188v6.289h-1.504v-6.289h-7.129v-1.289h15.82V-72.916z M90.846-77.369l-0.625,1.25
					c-2.695-0.449-5.361-1.943-6.484-4.082c-1.113,2.148-3.789,3.633-6.484,4.082l-0.625-1.25c3.125-0.43,6.309-2.52,6.309-5v-0.996
					h1.582v0.996C84.518-79.928,87.721-77.799,90.846-77.369z"/>
				<path fill="#484848" d="M103.482-80.924H93.131v-1.27h4.414v-1.953h1.523v1.953h4.414V-80.924z M102.486-77.076
					c-0.02,1.855-1.68,3.047-4.18,3.047c-2.52,0-4.199-1.191-4.18-3.047c-0.02-1.855,1.66-3.047,4.18-3.047
					C100.807-80.123,102.467-78.932,102.486-77.076z M95.592-77.076c-0.02,1.133,1.074,1.875,2.715,1.875
					c1.621,0,2.715-0.742,2.734-1.875c-0.02-1.113-1.113-1.875-2.734-1.855C96.666-78.951,95.572-78.189,95.592-77.076z
					 M97.213-71.275h7.93v-1.855h1.523v6.27H95.689v-6.27h1.523V-71.275z M105.143-68.092v-1.973h-7.93v1.973H105.143z
					 M106.666-79.537h2.617v1.309h-2.617v4.336h-1.523V-83.99h1.523V-79.537z"/>
				<path fill="#484848" d="M113.014-72.428c2.646-0.01,5.391-0.225,8.301-0.84l0.215,1.309c-3.086,0.645-5.84,0.859-8.613,0.859
					h-1.406v-11.172h1.504V-72.428z M124.693-66.627h-1.523V-83.99h1.523V-66.627z"/>
				<path fill="#484848" d="M136.529-81.021h-6.582v8.789c3.145,0,5.371-0.146,7.949-0.625l0.195,1.328
					c-2.715,0.488-5,0.586-8.301,0.586h-1.367v-11.348h8.105V-81.021z M141.1-77.115h2.91v1.289h-2.91v9.238h-1.523V-83.99h1.523
					V-77.115z"/>
				<path fill="#484848" d="M145.533-69.361c-0.02-0.684,0.566-1.25,1.25-1.25s1.25,0.566,1.25,1.25c0,0.703-0.566,1.27-1.25,1.27
					S145.514-68.658,145.533-69.361z"/>
			</g>
		</g>
	</g>
</g>
<g id="g-root-tx__147dfe51kdmfpp-fill" transform="translate(26, 320)">
	<g id="tx__147dfe51kdmfpp-fill">
		<g>
			<g enable-background="new    ">
				<path fill="#0397FC" d="M22.198-91.141l-1.733,2.441c-2.478-1.135-4.248-3.406-5.225-6.079c-1.001,2.942-2.82,5.433-5.396,6.641
					l-1.807-2.466c3.711-1.733,5.566-5.859,5.591-9.521v-1.367H8.917v-2.539h12.305v2.539h-4.468v1.367
					C16.729-96.731,18.536-92.825,22.198-91.141z M26.08-97.708h3.271v2.612H26.08v11.133h-3.125v-22.217h3.125V-97.708z"/>
				<path fill="#0397FC" d="M49.469-84.354H32.916v-6.641h3.101v-2.954c-1.99,0.085-3.882,0.098-5.566,0.098l-0.366-2.466
					c4.077-0.024,9.57-0.073,14.258-0.659l0.171,2.222c-1.758,0.293-3.577,0.5-5.371,0.635v4.224h-3.125v3.052h13.452V-84.354z
					 M42.853-101.419c0,2.368-2.319,3.906-5.542,3.906c-3.296,0-5.591-1.538-5.591-3.906s2.271-4.004,5.591-3.979
					C40.533-105.423,42.853-103.787,42.853-101.419z M34.674-101.419c-0.024,1.074,1.05,1.66,2.637,1.66
					c1.489,0,2.563-0.586,2.588-1.66c-0.024-1.099-1.099-1.709-2.588-1.709C35.724-103.128,34.649-102.518,34.674-101.419z
					 M48.98-89.383h-3.125v-1.758h-4.248v-2.124h4.248v-12.891h3.125V-89.383z"/>
				<path fill="#0397FC" d="M54.449-83.548h-3.101l5.688-21.167h3.125L54.449-83.548z"/>
				<path fill="#0397FC" d="M75.665-84.988h-2.93v-10.498h-1.782c-0.293,4.37-2.148,7.007-4.883,7.007
					c-2.93,0-4.834-3.076-4.834-8.081c0-4.98,1.904-8.032,4.834-8.032c2.673,0,4.504,2.49,4.858,6.641h1.807v-7.91h2.93V-84.988z
					 M64.117-96.561c-0.024,3.418,0.708,5.103,1.953,5.078c1.27,0.024,2.026-1.66,2.026-5.078c0-3.394-0.757-5.103-2.026-5.103
					C64.825-101.663,64.093-99.954,64.117-96.561z M80.304-83.963h-2.979v-22.217h2.979V-83.963z"/>
				<path fill="#0397FC" d="M86.92-91.751c2.832-0.036,5.713-0.28,8.74-0.854l0.342,2.539c-3.589,0.757-7.007,0.928-10.327,0.928
					h-1.88v-14.673h3.125V-91.751z M101.422-83.914h-3.101V-96.78h-6.079v-2.539h6.079v-6.86h3.101V-83.914z"/>
				<path fill="#0397FC" d="M118.438-91.141l-1.685,2.441c-2.625-1.111-4.431-3.32-5.42-6.03c-1.013,2.942-2.856,5.384-5.469,6.592
					l-1.782-2.466c3.687-1.636,5.591-5.762,5.591-9.521v-1.367h-4.712v-2.539h12.549v2.539h-4.639v1.367
					C112.872-96.536,114.703-92.703,118.438-91.141z M122.857-83.963h-3.149v-22.217h3.149V-83.963z"/>
				<path fill="#0397FC" d="M151.886-90.335h-8.618v6.396h-3.076v-6.396h-8.569v-2.539h20.264V-90.335z M150.03-101.175h-6.665
					c0.354,1.953,2.856,4.15,7.446,4.663l-1.123,2.441c-3.76-0.428-6.482-1.965-7.935-4.004c-1.44,2.063-4.187,3.576-7.983,4.004
					l-1.123-2.441c4.59-0.513,7.117-2.697,7.495-4.663h-6.689v-2.441h6.738v-2.539h3.076v2.539h6.763V-101.175z"/>
				<path fill="#0397FC" d="M173.443-94.437h-8.545v1.392h6.128v5.42h-12.378v1.221h12.964v2.295h-16.016v-5.615h12.354v-1.099
					h-12.378v-2.222h6.226v-1.392h-8.521v-2.271h20.166V-94.437z M164.874-104.446h6.665v2.295h-6.274
					c0.61,1.294,2.881,2.356,7.373,2.539l-0.903,2.295c-4.126-0.195-6.982-1.245-8.398-2.93c-1.404,1.685-4.272,2.734-8.423,2.93
					l-0.854-2.295c4.456-0.183,6.714-1.245,7.349-2.539h-6.226v-2.295h6.616v-1.758h3.076V-104.446z"/>
			</g>
		</g>
	</g>
</g>
<g id="g-root-tx_1_1utnz1p1kdmfpi-fill" transform="translate(230, 332)">
	<g id="tx_1_1utnz1p1kdmfpi-fill">
		<g>
			<g enable-background="new    ">
				<path fill="#FFFFFF" d="M32.974-74.209h-2.666v-18.457h-0.117l-5.156,3.428v-2.666l5.273-3.516h2.666V-74.209z"/>
			</g>
		</g>
	</g>
</g>
<g id="g-root-tx_3_1qdugx91kdmghs-fill" transform="translate(446, 332)">
	<g id="tx_3_1qdugx91kdmghs-fill">
		<g>
			<g enable-background="new    ">
				<path fill="#FFFFFF" d="M25.416-79.541h2.666c0.146,2.021,2.167,3.281,4.687,3.281c2.783,0,4.834-1.523,4.834-3.721
					c0-2.314-1.846-3.955-5.156-3.955h-1.729v-2.314h1.729c2.578,0,4.365-1.436,4.365-3.633c0-2.109-1.553-3.545-3.955-3.545
					c-2.256,0-4.336,1.26-4.453,3.34h-2.548c0.146-3.369,3.251-5.625,7.031-5.625c4.043,0,6.504,2.637,6.475,5.684
					c0.029,2.402-1.377,4.189-3.604,4.805v0.146c2.754,0.439,4.453,2.402,4.424,5.098c0.029,3.486-3.164,6.064-7.383,6.064
					S25.562-76.172,25.416-79.541z"/>
			</g>
		</g>
	</g>
</g>
<g id="g-root-tx_5_1d30fn11kdmewy-fill" transform="translate(662, 332)">
	<g id="tx_5_1d30fn11kdmewy-fill">
		<g>
			<g enable-background="new    ">
				<path fill="#FFFFFF" d="M25.503-79.541h2.549c0.205,1.904,2.051,3.311,4.336,3.311c2.754,0,4.746-2.021,4.746-4.688
					c0-2.754-2.08-4.775-4.922-4.805c-1.787-0.029-3.164,0.527-3.955,1.904h-2.549l1.494-11.602h11.484v2.344h-9.287l-0.791,6.211
					h0.205c0.938-0.732,2.373-1.23,3.867-1.23c4.043,0,7.031,2.988,7.031,7.119c0,4.102-3.105,7.061-7.324,7.061
					C28.55-73.916,25.649-76.289,25.503-79.541z"/>
			</g>
		</g>
	</g>
</g>
<g id="g-root-tx__4pfvhp1kdmhad-fill" transform="translate(734, 332)">
	<g id="tx__4pfvhp1kdmhad-fill">
		<g>
			<g enable-background="new    ">
				<path fill="#03FCA9" d="M42.136-83.963h-2.979v-11.133h-1.88v10.107h-2.954v-6.372l-1.758,2.344
					c-2.063-1.087-3.394-2.93-4.175-5.225c-0.745,2.637-2.063,4.772-4.175,6.03l-1.929-2.393c3.369-1.904,4.517-5.835,4.517-10.083
					v-0.708h-3.76v-2.49h10.181v2.49h-3.394v0.708c0,3.87,1.147,7.556,4.492,9.277v-14.453h2.954v8.228h1.88v-8.545h2.979V-83.963z"
					/>
				<path fill="#03FCA9" d="M57.785-91.434l-1.88,2.49c-2.381-1.172-3.979-3.369-4.907-6.055c-0.964,2.881-2.686,5.236-5.2,6.47
					l-1.929-2.515c3.76-1.733,5.542-5.981,5.542-10.107v-3.32h3.125v3.32C52.512-97.171,54.221-93.143,57.785-91.434z M61.887-97.61
					h3.271v2.637h-3.271v11.011h-3.125v-22.217h3.125V-97.61z"/>
				<path fill="#03FCA9" d="M86.228-93.167H65.964v-2.49h4.565v-2.661c-1.624-0.721-2.539-1.818-2.539-3.247
					c0-2.686,3.149-4.297,8.105-4.297c4.907,0,8.057,1.611,8.081,4.297c-0.012,1.44-0.965,2.563-2.612,3.271v2.637h4.663V-93.167z
					 M83.811-88.016c-0.024,2.612-2.93,4.028-7.739,4.028c-4.883,0-7.788-1.416-7.788-4.028c0-2.563,2.905-3.979,7.788-3.979
					C80.881-91.995,83.786-90.579,83.811-88.016z M71.237-101.565c-0.024,1.221,1.709,1.831,4.858,1.831
					c3.101,0,4.858-0.61,4.858-1.831c0-1.245-1.758-1.904-4.858-1.904C72.946-103.47,71.213-102.811,71.237-101.565z M71.457-88.016
					c-0.024,1.147,1.538,1.709,4.614,1.709c3.003,0,4.59-0.562,4.614-1.709c-0.024-1.099-1.611-1.636-4.614-1.636
					C72.995-89.651,71.433-89.114,71.457-88.016z M78.464-95.657v-1.855c-0.732,0.085-1.525,0.122-2.368,0.122
					c-0.866,0-1.673-0.037-2.417-0.146v1.88H78.464z"/>
			</g>
		</g>
	</g>
</g>
<g id="g-root-tx__zrjx9p1kdmghy-fill" transform="translate(14, 356)">
	<g id="tx__zrjx9p1kdmghy-fill">
		<g>
			<g enable-background="new    ">
				<path fill="#484848" d="M-2.906-95.607l-0.879,1.211c-1.953-0.947-3.604-3.018-4.375-5.371
					c-0.801,2.559-2.549,4.805-4.492,5.801l-0.938-1.211c2.5-1.211,4.648-4.512,4.668-7.48v-2.266h-4.043v-1.27h9.453v1.27h-3.906
					v2.266C-7.438-99.865-5.426-96.799-2.906-95.607z M0.141-100.959h2.91v1.309h-2.91v9.023h-1.523v-17.363h1.523V-100.959z"/>
				<path fill="#484848" d="M15.199-100.432l0.098,1.113c-1.553,0.244-3.174,0.4-4.766,0.488v3.438H8.988v-3.359
					c-1.758,0.078-3.428,0.088-4.883,0.078l-0.215-1.25C7.133-99.943,11.469-99.963,15.199-100.432z M13.891-104.24
					c-0.02,1.855-1.758,3.008-4.297,3.008c-2.559,0-4.297-1.152-4.297-3.008c0-1.816,1.738-3.027,4.297-3.027
					C12.133-107.268,13.871-106.057,13.891-104.24z M18.734-90.998H6.391v-5.078h1.543v3.789h10.801V-90.998z M6.762-104.24
					c-0.02,1.133,1.133,1.875,2.832,1.875c1.641,0,2.813-0.742,2.832-1.875c-0.02-1.113-1.191-1.875-2.832-1.855
					C7.895-106.115,6.742-105.354,6.762-104.24z M18.305-94.787h-1.543v-1.797h-3.594v-1.113h3.594v-10.273h1.543V-94.787z"/>
				<path fill="#484848" d="M26.352-95.822c1.924-0.068,3.896-0.195,5.703-0.41l0.078,1.152c-3.652,0.566-7.734,0.645-10.84,0.625
					l-0.195-1.27c1.143-0.01,2.412-0.02,3.75-0.059v-5.313h1.504V-95.822z M30.902-105.158c-0.02,1.367-0.02,3.672-0.508,6.895
					L28.852-98.4c0.469-2.91,0.508-5.02,0.508-6.406h-7.285v-1.25h8.828V-105.158z M34.672-100.725h2.813v1.328h-2.813v8.77h-1.523
					v-17.363h1.523V-100.725z"/>
				<path fill="#484848" d="M54.965-91.506H53.5v-8.438h-2.227c-0.166,3.379-1.602,5.488-3.75,5.488c-2.266,0-3.73-2.344-3.73-6.035
					s1.465-6.035,3.73-6.035c2.109,0,3.535,2.041,3.73,5.313H53.5v-6.406h1.465V-91.506z M45.238-100.49
					c-0.02,2.813,0.879,4.59,2.285,4.57c1.406,0.02,2.305-1.758,2.305-4.57c0-2.832-0.898-4.59-2.305-4.59
					S45.219-103.322,45.238-100.49z M58.461-90.627h-1.484v-17.363h1.484V-90.627z"/>
				<path fill="#484848" d="M63.363-96.096c2.646-0.029,5.01-0.166,7.617-0.703l0.195,1.27c-2.773,0.566-5.215,0.723-8.027,0.723
					H61.82v-11.23h1.543V-96.096z M75.277-90.588h-1.543v-10.391h-5.41v-1.27h5.41v-5.742h1.543V-90.588z"/>
				<path fill="#484848" d="M89.066-95.607l-0.859,1.211c-2.031-0.928-3.789-2.93-4.59-5.332c-0.82,2.549-2.568,4.766-4.551,5.762
					l-0.918-1.211c2.48-1.191,4.648-4.473,4.668-7.48v-2.266h-4.102v-1.27H88.5v1.27h-4.141v2.266
					C84.359-99.709,86.508-96.721,89.066-95.607z M92.465-90.627h-1.543v-17.363h1.543V-90.627z"/>
				<path fill="#484848" d="M111.313-98.713H95.414v-1.211h15.898V-98.713z M109.32-93.635h-10.43v1.66h10.996v1.113H97.348v-3.828
					h10.449v-1.484H97.328v-1.152h11.992V-93.635z M109.262-103.869H99.008v1.523h10.566v1.113h-12.09v-3.691h10.234v-1.426H97.426
					v-1.113h11.836V-103.869z"/>
				<path fill="#484848" d="M133.559-96.916h-7.188v6.289h-1.504v-6.289h-7.129v-1.289h15.82V-96.916z M132.777-101.369l-0.625,1.25
					c-2.695-0.449-5.361-1.943-6.484-4.082c-1.113,2.148-3.789,3.633-6.484,4.082l-0.625-1.25c3.125-0.43,6.309-2.52,6.309-5v-0.996
					h1.582v0.996C126.449-103.928,129.652-101.799,132.777-101.369z"/>
				<path fill="#484848" d="M145.746-100.061l-0.781,1.211c-2.031-0.645-3.662-2.041-4.453-3.828
					c-0.762,1.914-2.402,3.408-4.473,4.121l-0.801-1.211c2.617-0.82,4.492-2.969,4.492-5.352v-0.449h-4.063v-1.25h9.609v1.25h-4.004
					v0.449C141.273-102.854,143.168-100.842,145.746-100.061z M139.633-95.627h8.203v-2.109h1.523v6.875h-11.25v-6.875h1.523
					V-95.627z M147.836-92.111v-2.285h-8.203v2.285H147.836z M149.359-98.596h-1.523v-9.395h1.523V-98.596z"/>
				<path fill="#484848" d="M162.543-103.928h-10.332v-1.27h4.473v-2.578h1.523v2.578h4.336V-103.928z M161.723-98.498
					c-0.02,2.344-1.797,3.984-4.258,3.984c-2.48,0-4.277-1.641-4.258-3.984c-0.02-2.344,1.777-3.984,4.258-3.984
					C159.926-102.482,161.703-100.842,161.723-98.498z M154.672-98.498c-0.02,1.582,1.172,2.695,2.793,2.676
					c1.602,0.02,2.773-1.094,2.793-2.676c-0.02-1.563-1.191-2.695-2.793-2.695C155.844-101.193,154.652-100.061,154.672-98.498z
					 M165.746-100.822h2.91v1.27h-2.91v8.926h-1.523v-17.363h1.523V-100.822z"/>
				<path fill="#484848" d="M185.414-93.088h-15.82v-1.27h6.211v-6.211h1.504v6.211h8.105V-93.088z M183.52-104.494
					c-0.02,2.129-0.02,4.512-0.645,8.008l-1.563-0.176c0.664-3.32,0.664-5.762,0.664-7.832v-0.469h-10.703v-1.27h12.246V-104.494z"
					/>
				<path fill="#484848" d="M111.225-72.193h-7.168v5.605h-1.504v-5.605h-7.148v-1.289h15.82V-72.193z M110.209-76.061l-0.566,1.23
					c-2.686-0.41-5.215-1.758-6.309-3.652c-1.113,1.914-3.682,3.242-6.367,3.652l-0.566-1.23c3.086-0.43,6.152-2.305,6.152-4.492
					v-0.02h-5.605v-1.25h5.605v-2.168h1.504v2.168h5.645v1.25h-5.625v0.02C104.076-78.385,107.104-76.49,110.209-76.061z"/>
				<path fill="#484848" d="M128.51-75.064h-7.168v1.621h5.137v3.75h-10.313v1.699h10.84v1.172h-12.363v-3.965h10.332v-1.504
					h-10.371v-1.152h5.234v-1.621h-7.129v-1.191h15.801V-75.064z M121.342-82.467h5.566v1.211h-5.449
					c0.283,1.729,2.998,2.822,6.191,3.027l-0.469,1.172c-2.9-0.244-5.518-1.143-6.582-2.793c-1.064,1.65-3.682,2.549-6.602,2.793
					l-0.449-1.172c3.174-0.205,5.889-1.299,6.191-3.027h-5.41v-1.211h5.508v-1.621h1.504V-82.467z"/>
				<path fill="#484848" d="M140.365-80.924h-10.352v-1.27h4.414v-1.953h1.523v1.953h4.414V-80.924z M139.369-77.076
					c-0.02,1.855-1.68,3.047-4.18,3.047c-2.52,0-4.199-1.191-4.18-3.047c-0.02-1.855,1.66-3.047,4.18-3.047
					C137.689-80.123,139.35-78.932,139.369-77.076z M132.475-77.076c-0.02,1.133,1.074,1.875,2.715,1.875
					c1.621,0,2.715-0.742,2.734-1.875c-0.02-1.113-1.113-1.875-2.734-1.855C133.549-78.951,132.455-78.189,132.475-77.076z
					 M134.096-71.275h7.93v-1.855h1.523v6.27h-10.977v-6.27h1.523V-71.275z M142.025-68.092v-1.973h-7.93v1.973H142.025z
					 M143.549-79.537h2.617v1.309h-2.617v4.336h-1.523V-83.99h1.523V-79.537z"/>
				<path fill="#484848" d="M149.896-72.428c2.646-0.01,5.391-0.225,8.301-0.84l0.215,1.309c-3.086,0.645-5.84,0.859-8.613,0.859
					h-1.406v-11.172h1.504V-72.428z M161.576-66.627h-1.523V-83.99h1.523V-66.627z"/>
				<path fill="#484848" d="M173.412-81.021h-6.582v8.789c3.145,0,5.371-0.146,7.949-0.625l0.195,1.328
					c-2.715,0.488-5,0.586-8.301,0.586h-1.367v-11.348h8.105V-81.021z M177.982-77.115h2.91v1.289h-2.91v9.238h-1.523V-83.99h1.523
					V-77.115z"/>
				<path fill="#484848" d="M182.416-69.361c-0.02-0.684,0.566-1.25,1.25-1.25s1.25,0.566,1.25,1.25c0,0.703-0.566,1.27-1.25,1.27
					S182.396-68.658,182.416-69.361z"/>
			</g>
		</g>
	</g>
</g>
<g id="g-root-tx__1q5qast1kdnu2v-fill" transform="translate(542, 110)">
	<g id="tx__1q5qast1kdnu2v-fill">
		<g>
			<g enable-background="new    ">
				<path fill="#06CC8A" d="M19.397-103.909h5.005v-2.271h3.101v11.133h-3.101v-1.929h-4.98c-1.05,1.062-2.624,1.685-4.443,1.685
					c-3.394,0-5.933-2.124-5.908-5.151c-0.024-3.003,2.515-5.103,5.908-5.103C16.772-105.545,18.335-104.935,19.397-103.909z
					 M12.024-100.442c-0.024,1.66,1.221,2.637,2.954,2.637c1.685,0,2.905-0.977,2.905-2.637c0-1.611-1.221-2.588-2.905-2.588
					C13.245-103.03,12-102.054,12.024-100.442z M27.503-88.089H15.857v1.44h12.305v2.441h-15.43v-6.177h11.67v-1.318H12.708v-2.393
					h14.795V-88.089z M20.838-100.442c0,0.366-0.036,0.72-0.098,1.05h3.662v-2.1H20.74
					C20.802-101.162,20.838-100.809,20.838-100.442z"/>
				<path fill="#06CC8A" d="M41.907-90.311v-1.88c-2.441-0.427-4.028-1.94-4.004-4.028c-0.024-2.49,2.246-4.175,5.518-4.175
					c3.296,0,5.591,1.685,5.591,4.175c0,2.075-1.587,3.589-4.028,4.028v1.782c1.855-0.086,3.735-0.232,5.518-0.464l0.22,2.295
					c-4.858,0.83-10.107,0.879-14.063,0.879l-0.415-2.539C37.94-90.25,39.881-90.25,41.907-90.311z M50.184-101.272H36.683v-2.441
					h5.225v-2.368h3.101v2.368h5.176V-101.272z M40.857-96.219c-0.024,1.172,1.05,1.807,2.563,1.807
					c1.563,0,2.612-0.635,2.612-1.807c0-1.147-1.05-1.807-2.612-1.807C41.907-98.025,40.833-97.366,40.857-96.219z M54.822-83.963
					h-3.101v-22.217h3.101V-83.963z"/>
				<path fill="#06CC8A" d="M78.016-91.556h-8.643v7.593h-3.076v-7.593h-8.545v-2.539h20.264V-91.556z M77.308-98.294l-1.221,2.515
					c-3.882-0.562-6.727-2.355-8.179-4.761c-1.465,2.405-4.284,4.199-8.13,4.761l-1.245-2.515c5.054-0.635,7.739-3.54,7.739-6.152
					v-1.074h3.271v1.074C69.544-101.834,72.205-98.929,77.308-98.294z"/>
			</g>
		</g>
	</g>
</g>
<g id="g-root-tx__mgpvzh1kdmex4-fill" transform="translate(254, 146)">
	<g id="tx__mgpvzh1kdmex4-fill">
		<g>
			<g enable-background="new    ">
				<path fill="#484848" d="M37.408-96.193H30.24v5.605h-1.504v-5.605h-7.148v-1.289h15.82V-96.193z M36.392-100.061l-0.566,1.23
					c-2.686-0.41-5.215-1.758-6.309-3.652c-1.113,1.914-3.682,3.242-6.367,3.652l-0.566-1.23c3.086-0.43,6.152-2.305,6.152-4.492
					v-0.02H23.13v-1.25h5.605v-2.168h1.504v2.168h5.645v1.25h-5.625v0.02C30.259-102.385,33.287-100.49,36.392-100.061z"/>
				<path fill="#484848" d="M54.693-99.064h-7.168v1.621h5.137v3.75H42.349v1.699h10.84v1.172H40.826v-3.965h10.332v-1.504H40.787
					v-1.152h5.234v-1.621h-7.129v-1.191h15.801V-99.064z M47.525-106.467h5.566v1.211h-5.449c0.283,1.729,2.998,2.822,6.191,3.027
					l-0.469,1.172c-2.9-0.244-5.518-1.143-6.582-2.793c-1.064,1.65-3.682,2.549-6.602,2.793l-0.449-1.172
					c3.174-0.205,5.889-1.299,6.191-3.027h-5.41v-1.211h5.508v-1.621h1.504V-106.467z"/>
				<path fill="#484848" d="M66.255-101.037H62.74v2.422c1.621-0.068,3.242-0.186,4.746-0.352l0.117,1.133
					c-3.73,0.508-7.871,0.625-11.133,0.625l-0.234-1.25c1.523-0.01,3.232-0.029,4.98-0.098v-2.48h-3.398v-5.82h8.301v1.27h-6.758
					v3.301h6.895V-101.037z M71.041-90.998H59.205v-4.883h1.523v3.594h10.313V-90.998z M70.474-94.982h-1.543v-12.988h1.543V-94.982
					z"/>
				<path fill="#484848" d="M88.853-95.607l-0.879,1.211c-1.953-0.947-3.604-3.018-4.375-5.371
					c-0.801,2.559-2.549,4.805-4.492,5.801l-0.938-1.211c2.5-1.211,4.648-4.512,4.668-7.48v-2.266h-4.043v-1.27h9.453v1.27h-3.906
					v2.266C84.322-99.865,86.333-96.799,88.853-95.607z M91.9-100.959h2.91v1.309H91.9v9.023h-1.523v-17.363H91.9V-100.959z"/>
				<path fill="#484848" d="M106.958-100.432l0.098,1.113c-1.553,0.244-3.174,0.4-4.766,0.488v3.438h-1.543v-3.359
					c-1.758,0.078-3.428,0.088-4.883,0.078l-0.215-1.25C98.892-99.943,103.228-99.963,106.958-100.432z M105.65-104.24
					c-0.02,1.855-1.758,3.008-4.297,3.008c-2.559,0-4.297-1.152-4.297-3.008c0-1.816,1.738-3.027,4.297-3.027
					C103.892-107.268,105.63-106.057,105.65-104.24z M110.494-90.998H98.15v-5.078h1.543v3.789h10.801V-90.998z M98.521-104.24
					c-0.02,1.133,1.133,1.875,2.832,1.875c1.641,0,2.813-0.742,2.832-1.875c-0.02-1.113-1.191-1.875-2.832-1.855
					C99.654-106.115,98.501-105.354,98.521-104.24z M110.064-94.787h-1.543v-1.797h-3.594v-1.113h3.594v-10.273h1.543V-94.787z"/>
				<path fill="#484848" d="M128.853-99.221h-15.82v-1.25h15.82V-99.221z M127.076-104.689c0,1.973-2.266,3.027-6.133,3.047
					c-3.867-0.02-6.152-1.074-6.152-3.047c0-1.934,2.285-2.988,6.152-2.988S127.076-106.623,127.076-104.689z M126.822-93.83
					h-10.313v1.797h10.84v1.211h-12.363v-4.141h10.332v-1.582h-10.371v-1.172h11.875V-93.83z M116.392-104.689
					c-0.02,1.211,1.66,1.875,4.551,1.875c2.871,0,4.57-0.664,4.57-1.875c0-1.133-1.699-1.836-4.57-1.836
					C118.052-106.525,116.373-105.822,116.392-104.689z"/>
				<path fill="#484848" d="M144.185-95.646l-0.938,1.133c-1.709-1.025-2.92-2.9-3.516-5.117c-0.635,2.393-1.895,4.434-3.633,5.527
					l-0.977-1.152c2.422-1.445,3.828-4.609,3.828-7.773v-1.641h-3.34v-1.27h8.008v1.27h-3.184v1.641
					C140.435-100.021,141.783-97.033,144.185-95.646z M146.666-91.525h-1.445v-8.945h-2.93v-1.25h2.93v-5.84h1.445V-91.525z
					 M150.181-90.627h-1.465v-17.363h1.465V-90.627z"/>
				<path fill="#484848" d="M168.443-98.322h-7.168v2.051h5.234v5.41h-11.953v-5.41h5.215v-2.051h-7.148v-1.27h15.82V-98.322z
					 M166.939-106.154h-2.676v3.652h2.617v1.27h-12.715v-1.27h2.617v-3.652h-2.676v-1.27h12.832V-106.154z M156.08-92.111h8.926
					v-2.949h-8.926V-92.111z M162.74-102.502v-3.652h-4.434v3.652H162.74z"/>
				<path fill="#484848" d="M185.806-92.932h-15.898v-1.289h15.898V-92.932z M184.166-102.092c0,2.891-2.715,4.785-6.348,4.766
					c-3.633,0.02-6.348-1.875-6.348-4.766c0-2.871,2.715-4.766,6.348-4.766S184.166-104.963,184.166-102.092z M172.935-102.092
					c-0.02,2.109,2.09,3.516,4.883,3.516c2.773,0,4.863-1.406,4.863-3.516c0-2.07-2.09-3.535-4.863-3.516
					C175.025-105.627,172.916-104.162,172.935-102.092z"/>
				<path fill="#484848" d="M203.091-92.775h-15.898v-1.289h7.148v-3.281h-5.156v-5.352h10.391v-2.734h-10.43v-1.27h11.934v5.254
					h-10.371v2.832h10.781v1.27h-5.645v3.281h7.246V-92.775z"/>
				<path fill="#484848" d="M84.2-71.119h-1.543v-4.668h-4.102v1.699h-7.871v-8.73h1.523v3.086h4.844v-3.086h1.504v2.031h4.102
					v-3.184H84.2V-71.119z M77.051-75.357v-3.164h-4.844v3.164H77.051z M84.59-66.998H72.969v-5.391h1.543v4.102H84.59V-66.998z
					 M82.657-77.057v-2.441h-4.102v2.441H82.657z"/>
				<path fill="#484848" d="M91.719-73.736v-1.328c-2.021-0.186-3.32-1.152-3.32-2.617c0-1.68,1.621-2.676,4.063-2.676
					c2.461,0,4.063,0.996,4.082,2.676c-0.02,1.455-1.289,2.422-3.301,2.617v1.25c1.631-0.078,3.271-0.234,4.785-0.469l0.137,1.094
					c-3.73,0.703-7.93,0.762-10.977,0.781l-0.176-1.25C88.389-73.658,90.02-73.668,91.719-73.736z M97.5-81.119H87.442v-1.152h4.277
					v-1.758h1.523v1.758H97.5V-81.119z M101.27-66.998H89.61v-4.316h1.543v3.027h10.117V-66.998z M89.864-77.682
					c0,0.957,0.996,1.563,2.598,1.563s2.617-0.605,2.617-1.563c0-0.977-1.016-1.582-2.617-1.582S89.864-78.658,89.864-77.682z
					 M100.645-77.896h2.598v1.289h-2.598v6.211h-1.543V-83.99h1.543V-77.896z"/>
				<path fill="#484848" d="M114.766-80.924h-10.352v-1.27h4.414v-1.953h1.523v1.953h4.414V-80.924z M113.77-77.076
					c-0.02,1.855-1.68,3.047-4.18,3.047c-2.52,0-4.199-1.191-4.18-3.047c-0.02-1.855,1.66-3.047,4.18-3.047
					C112.09-80.123,113.75-78.932,113.77-77.076z M106.875-77.076c-0.02,1.133,1.074,1.875,2.715,1.875
					c1.621,0,2.715-0.742,2.734-1.875c-0.02-1.113-1.113-1.875-2.734-1.855C107.95-78.951,106.856-78.189,106.875-77.076z
					 M108.497-71.275h7.93v-1.855h1.523v6.27h-10.977v-6.27h1.523V-71.275z M116.426-68.092v-1.973h-7.93v1.973H116.426z
					 M117.95-79.537h2.617v1.309h-2.617v4.336h-1.523V-83.99h1.523V-79.537z"/>
				<path fill="#484848" d="M124.297-72.428c2.646-0.01,5.391-0.225,8.301-0.84l0.215,1.309c-3.086,0.645-5.84,0.859-8.613,0.859
					h-1.406v-11.172h1.504V-72.428z M135.977-66.627h-1.523V-83.99h1.523V-66.627z"/>
				<path fill="#484848" d="M147.813-81.021h-6.582v8.789c3.145,0,5.371-0.146,7.949-0.625l0.195,1.328
					c-2.715,0.488-5,0.586-8.301,0.586h-1.367v-11.348h8.105V-81.021z M152.383-77.115h2.91v1.289h-2.91v9.238h-1.523V-83.99h1.523
					V-77.115z"/>
				<path fill="#484848" d="M156.817-69.361c-0.02-0.684,0.566-1.25,1.25-1.25s1.25,0.566,1.25,1.25c0,0.703-0.566,1.27-1.25,1.27
					S156.797-68.658,156.817-69.361z"/>
			</g>
		</g>
	</g>
</g>
<g id="g-root-tx__qvwx0t1kdmhan-fill" transform="translate(326, 110)">
	<g id="tx__qvwx0t1kdmhan-fill">
		<g>
			<g enable-background="new    ">
				<path fill="#19BCF2" d="M37.517-96.316l-1.66,2.368c-1.892-0.72-3.198-2.038-4.004-3.687c-0.806,1.929-2.197,3.54-4.272,4.395
					l-1.685-2.393c3.125-1.367,4.395-4.102,4.395-6.592v-2.612h3.027v2.612C33.318-99.832,34.563-97.439,37.517-96.316z
					 M45.427-88.113c-0.024,2.588-3.027,4.15-7.715,4.15c-4.712,0-7.69-1.563-7.69-4.15s2.979-4.15,7.69-4.15
					C42.4-92.264,45.403-90.701,45.427-88.113z M33.147-88.113c-0.024,1.196,1.66,1.807,4.565,1.807c2.881,0,4.565-0.61,4.565-1.807
					s-1.685-1.831-4.565-1.831C34.807-89.944,33.123-89.31,33.147-88.113z M45.305-92.581h-2.954v-5.64h-1.855v4.956H37.59v-12.5
					h2.905v5.029h1.855v-5.42h2.954V-92.581z"/>
				<path fill="#19BCF2" d="M61.223-95.608l-1.636,2.441c-2.429-0.817-4.102-2.417-5.054-4.443
					c-1.001,2.233-2.771,3.979-5.347,4.858l-1.733-2.466c3.784-1.172,5.42-4.15,5.444-7.178v-2.417h3.125v2.441
					C55.999-99.539,57.61-96.78,61.223-95.608z M66.277-84.354H51.018v-7.153h3.174v4.663h12.085V-84.354z M65.447-99.759h3.003
					v2.637h-3.003v7.227h-3.125v-16.284h3.125V-99.759z"/>
			</g>
		</g>
	</g>
</g>
<g id="g-root-tx__1uljsx91kdntam-fill" transform="translate(734, 368)">
	<g id="tx__1uljsx91kdntam-fill">
		<g>
			<g enable-background="new    ">
				<path fill="#484848" d="M30.959-104.494h-1.465v8.086c0.645-0.029,1.27-0.088,1.836-0.156l0.117,1.152
					c-2.734,0.449-6.367,0.527-8.652,0.547L22.6-96.193l1.836-0.02v-8.281h-1.465v-1.289h7.988V-104.494z M28.088-96.311v-8.184
					h-2.246v8.262C26.574-96.252,27.336-96.271,28.088-96.311z M34.357-91.545h-1.445v-6.543h-2.363v-1.27h2.363v-2.402h-2.363
					v-1.27h2.363v-4.531h1.445V-91.545z M37.736-90.627h-1.484v-17.363h1.484V-90.627z"/>
				<path fill="#484848" d="M41.135-93.889l-0.84-1.25c4.697-2.227,7.09-5.557,7.441-9.707h-6.641v-1.25h8.203
					C49.279-101.096,46.955-96.682,41.135-93.889z M54.436-90.627h-1.543v-17.363h1.543V-90.627z"/>
				<path fill="#484848" d="M73.186-99.396h-7.168v1.719h5.137v3.887H60.842v1.758h10.84v1.211H59.318v-4.121H69.65v-1.543H59.279
					v-1.191h5.215v-1.719h-7.129v-1.25h15.82V-99.396z M71.135-102.111H59.416v-5.293h11.719V-102.111z M60.939-103.342h8.672
					v-2.832h-8.672V-103.342z"/>
				<path fill="#484848" d="M90.471-99.221H74.65v-1.25h15.82V-99.221z M88.693-104.689c0,1.973-2.266,3.027-6.133,3.047
					c-3.867-0.02-6.152-1.074-6.152-3.047c0-1.934,2.285-2.988,6.152-2.988S88.693-106.623,88.693-104.689z M88.439-93.83H78.127
					v1.797h10.84v1.211H76.604v-4.141h10.332v-1.582H76.564v-1.172h11.875V-93.83z M78.01-104.689
					c-0.02,1.211,1.66,1.875,4.551,1.875c2.871,0,4.57-0.664,4.57-1.875c0-1.133-1.699-1.836-4.57-1.836
					C79.67-106.525,77.99-105.822,78.01-104.689z"/>
				<path fill="#484848" d="M105.881-95.998l-0.918,1.191c-1.758-0.957-2.959-2.676-3.574-4.805
					c-0.596,2.422-1.816,4.316-3.652,5.391l-0.957-1.172c2.5-1.367,3.828-4.336,3.828-7.852v-1.387h-3.418v-1.289h8.125v1.289
					h-3.223v1.387C102.092-100.061,103.4-97.268,105.881-95.998z M111.877-90.627h-1.484v-9.023h-2.363v8.145h-1.465v-16.113h1.465
					v6.66h2.363v-7.031h1.484V-90.627z"/>
				<path fill="#484848" d="M124.553-95.9l-0.938,1.23c-1.914-1.006-3.516-3.057-4.277-5.469c-0.781,2.568-2.422,4.756-4.375,5.801
					l-0.977-1.23c2.539-1.25,4.551-4.59,4.57-7.754v-3.164h1.504v3.164C120.061-100.256,122.092-97.111,124.553-95.9z
					 M127.678-100.939h2.91v1.328h-2.91v8.984h-1.523v-17.363h1.523V-100.939z"/>
				<path fill="#484848" d="M147.346-98.127h-15.82v-1.27h3.926v-2.441c-1.387-0.537-2.168-1.426-2.168-2.598
					c0-2.051,2.344-3.223,6.152-3.223c3.77,0,6.133,1.172,6.133,3.223c0,1.162-0.771,2.051-2.148,2.578v2.461h3.926V-98.127z
					 M145.412-93.732c-0.02,1.973-2.246,3.066-5.977,3.066c-3.77,0-5.996-1.094-5.996-3.066c0-1.992,2.227-3.066,5.996-3.066
					C143.166-96.799,145.393-95.725,145.412-93.732z M134.865-104.436c-0.02,1.27,1.738,2.012,4.57,2.012
					c2.813,0,4.57-0.742,4.57-2.012c0-1.25-1.758-2.012-4.57-2.012C136.604-106.447,134.846-105.686,134.865-104.436z
					 M135.002-93.732c-0.02,1.172,1.641,1.875,4.434,1.875c2.754,0,4.434-0.703,4.434-1.875c0-1.191-1.68-1.875-4.434-1.895
					C136.643-95.607,134.982-94.924,135.002-93.732z M141.896-99.396v-2.031c-0.732,0.127-1.553,0.195-2.461,0.195
					s-1.729-0.068-2.461-0.195v2.031H141.896z"/>
				<path fill="#484848" d="M159.045-103.928h-10.332v-1.27h4.473v-2.578h1.523v2.578h4.336V-103.928z M158.225-98.498
					c-0.02,2.344-1.797,3.984-4.258,3.984c-2.48,0-4.277-1.641-4.258-3.984c-0.02-2.344,1.777-3.984,4.258-3.984
					C156.428-102.482,158.205-100.842,158.225-98.498z M151.174-98.498c-0.02,1.582,1.172,2.695,2.793,2.676
					c1.602,0.02,2.773-1.094,2.793-2.676c-0.02-1.563-1.191-2.695-2.793-2.695C152.346-101.193,151.154-100.061,151.174-98.498z
					 M162.248-100.822h2.91v1.27h-2.91v8.926h-1.523v-17.363h1.523V-100.822z"/>
				<path fill="#484848" d="M166.955-93.928l-0.84-1.23c4.707-2.275,6.885-5.615,7.188-9.688h-6.426v-1.25h7.969
					C174.846-101.174,172.756-96.799,166.955-93.928z M180.471-90.627h-1.523v-9.102h-4.141v-1.27h4.141v-6.992h1.523V-90.627z"/>
				<path fill="#484848" d="M185.627-96.33c2.539-0.01,5.127-0.205,7.988-0.801l0.195,1.309c-2.988,0.605-5.684,0.781-8.32,0.781
					h-1.387v-11.23h1.523V-96.33z M199.631-99.768h-2.813v9.141h-1.523v-17.363h1.523v6.934h2.813V-99.768z"/>
				<path fill="#484848" d="M31.721-71.998l-0.918,1.191c-1.758-0.957-2.959-2.676-3.574-4.805
					c-0.596,2.422-1.816,4.316-3.652,5.391l-0.957-1.172c2.5-1.367,3.828-4.336,3.828-7.852v-1.387h-3.418v-1.289h8.125v1.289
					h-3.223v1.387C27.932-76.061,29.24-73.268,31.721-71.998z M37.717-66.627h-1.484v-9.023h-2.363v8.145h-1.465v-16.113h1.465v6.66
					h2.363v-7.031h1.484V-66.627z"/>
				<path fill="#484848" d="M44.709-75.357v-1.074c-2.031-0.146-3.32-0.957-3.32-2.285c0-1.426,1.602-2.246,4.063-2.246
					c2.48,0,4.063,0.82,4.082,2.246c-0.02,1.318-1.27,2.129-3.301,2.285v1.035c1.621-0.078,3.262-0.205,4.785-0.43l0.137,1.035
					c-3.75,0.605-7.93,0.645-10.977,0.645l-0.176-1.152C41.389-75.299,43.01-75.299,44.709-75.357z M50.49-81.549H40.432v-1.113
					h4.277v-1.484h1.523v1.484h4.258V-81.549z M53.635-69.459h-9.746v1.543h10.41v1.094H42.365v-3.672h9.746v-1.367h-9.785v-1.094
					h11.309V-69.459z M42.854-78.717c0,0.781,0.996,1.289,2.598,1.289s2.617-0.508,2.617-1.289c0-0.762-1.016-1.211-2.617-1.23
					C43.85-79.928,42.854-79.479,42.854-78.717z M53.635-79.537h2.598v1.309h-2.598v4.492h-1.543V-83.99h1.543V-79.537z"/>
				<path fill="#484848" d="M73.186-74.127h-15.82v-1.27h3.926v-2.441c-1.387-0.537-2.168-1.426-2.168-2.598
					c0-2.051,2.344-3.223,6.152-3.223c3.77,0,6.133,1.172,6.133,3.223c0,1.162-0.771,2.051-2.148,2.578v2.461h3.926V-74.127z
					 M71.252-69.732c-0.02,1.973-2.246,3.066-5.977,3.066c-3.77,0-5.996-1.094-5.996-3.066c0-1.992,2.227-3.066,5.996-3.066
					C69.006-72.799,71.232-71.725,71.252-69.732z M60.705-80.436c-0.02,1.27,1.738,2.012,4.57,2.012c2.813,0,4.57-0.742,4.57-2.012
					c0-1.25-1.758-2.012-4.57-2.012C62.443-82.447,60.686-81.686,60.705-80.436z M60.842-69.732
					c-0.02,1.172,1.641,1.875,4.434,1.875c2.754,0,4.434-0.703,4.434-1.875c0-1.191-1.68-1.875-4.434-1.895
					C62.482-71.607,60.822-70.924,60.842-69.732z M67.736-75.396v-2.031c-0.732,0.127-1.553,0.195-2.461,0.195
					s-1.729-0.068-2.461-0.195v2.031H67.736z"/>
				<path fill="#484848" d="M85.041-80.924H74.689v-1.27h4.414v-1.953h1.523v1.953h4.414V-80.924z M84.045-77.076
					c-0.02,1.855-1.68,3.047-4.18,3.047c-2.52,0-4.199-1.191-4.18-3.047c-0.02-1.855,1.66-3.047,4.18-3.047
					C82.365-80.123,84.025-78.932,84.045-77.076z M77.15-77.076c-0.02,1.133,1.074,1.875,2.715,1.875
					c1.621,0,2.715-0.742,2.734-1.875c-0.02-1.113-1.113-1.875-2.734-1.855C78.225-78.951,77.131-78.189,77.15-77.076z
					 M78.771-71.275h7.93v-1.855h1.523v6.27H77.248v-6.27h1.523V-71.275z M86.701-68.092v-1.973h-7.93v1.973H86.701z M88.225-79.537
					h2.617v1.309h-2.617v4.336h-1.523V-83.99h1.523V-79.537z"/>
				<path fill="#484848" d="M94.572-72.428c2.646-0.01,5.391-0.225,8.301-0.84l0.215,1.309c-3.086,0.645-5.84,0.859-8.613,0.859
					h-1.406v-11.172h1.504V-72.428z M106.252-66.627h-1.523V-83.99h1.523V-66.627z"/>
				<path fill="#484848" d="M118.088-81.021h-6.582v8.789c3.145,0,5.371-0.146,7.949-0.625l0.195,1.328
					c-2.715,0.488-5,0.586-8.301,0.586h-1.367v-11.348h8.105V-81.021z M122.658-77.115h2.91v1.289h-2.91v9.238h-1.523V-83.99h1.523
					V-77.115z"/>
				<path fill="#484848" d="M127.092-69.361c-0.02-0.684,0.566-1.25,1.25-1.25s1.25,0.566,1.25,1.25c0,0.703-0.566,1.27-1.25,1.27
					S127.072-68.658,127.092-69.361z"/>
			</g>
		</g>
	</g>
</g>
<g id="g-root-tx__4pfvhp1kdmhac-fill" transform="translate(578, 554)">
	<g id="tx__4pfvhp1kdmhac-fill">
		<g>
			<g enable-background="new    ">
				<path fill="#484848" d="M48.604-95.9l-0.938,1.23c-1.914-1.006-3.516-3.057-4.277-5.469c-0.781,2.568-2.422,4.756-4.375,5.801
					l-0.977-1.23c2.539-1.25,4.551-4.59,4.57-7.754v-3.164h1.504v3.164C44.112-100.256,46.144-97.111,48.604-95.9z M51.729-100.939
					h2.91v1.328h-2.91v8.984h-1.523v-17.363h1.523V-100.939z"/>
				<path fill="#484848" d="M71.397-98.127h-15.82v-1.27h3.926v-2.441c-1.387-0.537-2.168-1.426-2.168-2.598
					c0-2.051,2.344-3.223,6.152-3.223c3.77,0,6.133,1.172,6.133,3.223c0,1.162-0.771,2.051-2.148,2.578v2.461h3.926V-98.127z
					 M69.464-93.732c-0.02,1.973-2.246,3.066-5.977,3.066c-3.77,0-5.996-1.094-5.996-3.066c0-1.992,2.227-3.066,5.996-3.066
					C67.218-96.799,69.444-95.725,69.464-93.732z M58.917-104.436c-0.02,1.27,1.738,2.012,4.57,2.012c2.813,0,4.57-0.742,4.57-2.012
					c0-1.25-1.758-2.012-4.57-2.012C60.655-106.447,58.897-105.686,58.917-104.436z M59.054-93.732
					c-0.02,1.172,1.641,1.875,4.434,1.875c2.754,0,4.434-0.703,4.434-1.875c0-1.191-1.68-1.875-4.434-1.895
					C60.694-95.607,59.034-94.924,59.054-93.732z M65.948-99.396v-2.031c-0.732,0.127-1.553,0.195-2.461,0.195
					s-1.729-0.068-2.461-0.195v2.031H65.948z"/>
				<path fill="#484848" d="M93.78-95.471h-7.246v4.883H85.03v-4.883h-7.148v-1.27H93.78V-95.471z M92.784-104.729H78.702v-1.27
					h6.328v-2.09h1.504v2.09h6.25V-104.729z M91.456-100.822c0,1.836-2.129,2.871-5.664,2.891c-3.555-0.02-5.684-1.055-5.664-2.891
					c-0.02-1.875,2.109-2.91,5.664-2.91C89.327-103.732,91.456-102.697,91.456-100.822z M81.71-100.822
					c-0.02,1.074,1.484,1.699,4.082,1.699c2.559,0,4.063-0.625,4.082-1.699c-0.02-1.094-1.523-1.738-4.082-1.738
					C83.194-102.561,81.69-101.916,81.71-100.822z"/>
				<path fill="#484848" d="M108.351-104.494h-1.465v8.086c0.645-0.029,1.27-0.088,1.836-0.156l0.117,1.152
					c-2.734,0.449-6.367,0.527-8.652,0.547l-0.195-1.328l1.836-0.02v-8.281h-1.465v-1.289h7.988V-104.494z M105.479-96.311v-8.184
					h-2.246v8.262C103.966-96.252,104.728-96.271,105.479-96.311z M111.749-91.545h-1.445v-6.543h-2.363v-1.27h2.363v-2.402h-2.363
					v-1.27h2.363v-4.531h1.445V-91.545z M115.128-90.627h-1.484v-17.363h1.484V-90.627z"/>
				<path fill="#484848" d="M118.526-93.889l-0.84-1.25c4.697-2.227,7.09-5.557,7.441-9.707h-6.641v-1.25h8.203
					C126.671-101.096,124.347-96.682,118.526-93.889z M131.827-90.627h-1.543v-17.363h1.543V-90.627z"/>
				<path fill="#484848" d="M150.577-99.396h-7.168v1.719h5.137v3.887h-10.313v1.758h10.84v1.211H136.71v-4.121h10.332v-1.543
					h-10.371v-1.191h5.215v-1.719h-7.129v-1.25h15.82V-99.396z M148.526-102.111h-11.719v-5.293h11.719V-102.111z M138.331-103.342
					h8.672v-2.832h-8.672V-103.342z"/>
				<path fill="#484848" d="M167.862-99.221h-15.82v-1.25h15.82V-99.221z M166.085-104.689c0,1.973-2.266,3.027-6.133,3.047
					c-3.867-0.02-6.152-1.074-6.152-3.047c0-1.934,2.285-2.988,6.152-2.988S166.085-106.623,166.085-104.689z M165.831-93.83
					h-10.313v1.797h10.84v1.211h-12.363v-4.141h10.332v-1.582h-10.371v-1.172h11.875V-93.83z M155.401-104.689
					c-0.02,1.211,1.66,1.875,4.551,1.875c2.871,0,4.57-0.664,4.57-1.875c0-1.133-1.699-1.836-4.57-1.836
					C157.062-106.525,155.382-105.822,155.401-104.689z"/>
				<path fill="#484848" d="M66.823-75.826l-0.801,1.172c-1.67-0.645-2.871-1.885-3.496-3.379c-0.645,1.66-1.885,3.135-3.594,3.867
					l-0.84-1.191c2.285-0.996,3.691-3.242,3.691-5.176v-2.363h1.465v2.363C63.249-78.619,64.597-76.666,66.823-75.826z
					 M72.917-69.752c0,1.953-2.246,3.086-5.84,3.086c-3.613,0-5.84-1.133-5.82-3.086c-0.02-1.973,2.207-3.105,5.82-3.105
					C70.671-72.857,72.917-71.725,72.917-69.752z M62.78-69.752c-0.02,1.191,1.641,1.895,4.297,1.895
					c2.637,0,4.297-0.703,4.316-1.895c-0.02-1.211-1.68-1.934-4.316-1.934C64.421-71.686,62.761-70.963,62.78-69.752z
					 M72.819-73.248h-1.465v-4.785H69.05v4.238h-1.445v-9.844h1.445v4.336h2.305v-4.668h1.465V-73.248z"/>
				<path fill="#484848" d="M85.632-75.729l-0.859,1.191c-1.914-0.723-3.418-2.129-4.16-3.965c-0.752,2.08-2.344,3.701-4.434,4.492
					l-0.84-1.25c2.676-0.938,4.453-3.242,4.473-5.938v-1.797h1.523v1.738C81.315-78.775,83.073-76.588,85.632-75.729z
					 M89.812-69.908c0,2.07-2.207,3.242-5.82,3.242s-5.82-1.172-5.82-3.242c0-2.09,2.207-3.281,5.82-3.281
					S89.812-71.998,89.812-69.908z M79.694-69.908c-0.02,1.25,1.641,2.012,4.297,2.012s4.297-0.762,4.297-2.012
					c0-1.289-1.641-2.07-4.297-2.07S79.675-71.197,79.694-69.908z M89.753-73.697H88.21v-5.293h-3.867v-1.27h3.867v-3.73h1.543
					V-73.697z"/>
				<path fill="#484848" d="M103.034-80.924H92.683v-1.27h4.414v-1.953h1.523v1.953h4.414V-80.924z M102.038-77.076
					c-0.02,1.855-1.68,3.047-4.18,3.047c-2.52,0-4.199-1.191-4.18-3.047c-0.02-1.855,1.66-3.047,4.18-3.047
					C100.358-80.123,102.019-78.932,102.038-77.076z M95.144-77.076c-0.02,1.133,1.074,1.875,2.715,1.875
					c1.621,0,2.715-0.742,2.734-1.875c-0.02-1.113-1.113-1.875-2.734-1.855C96.218-78.951,95.124-78.189,95.144-77.076z
					 M96.765-71.275h7.93v-1.855h1.523v6.27H95.241v-6.27h1.523V-71.275z M104.694-68.092v-1.973h-7.93v1.973H104.694z
					 M106.218-79.537h2.617v1.309h-2.617v4.336h-1.523V-83.99h1.523V-79.537z"/>
				<path fill="#484848" d="M112.565-72.428c2.646-0.01,5.391-0.225,8.301-0.84l0.215,1.309c-3.086,0.645-5.84,0.859-8.613,0.859
					h-1.406v-11.172h1.504V-72.428z M124.245-66.627h-1.523V-83.99h1.523V-66.627z"/>
				<path fill="#484848" d="M136.081-81.021h-6.582v8.789c3.145,0,5.371-0.146,7.949-0.625l0.195,1.328
					c-2.715,0.488-5,0.586-8.301,0.586h-1.367v-11.348h8.105V-81.021z M140.651-77.115h2.91v1.289h-2.91v9.238h-1.523V-83.99h1.523
					V-77.115z"/>
				<path fill="#484848" d="M145.085-69.361c-0.02-0.684,0.566-1.25,1.25-1.25s1.25,0.566,1.25,1.25c0,0.703-0.566,1.27-1.25,1.27
					S145.065-68.658,145.085-69.361z"/>
			</g>
		</g>
	</g>
</g>
<g id="g-root-tx_4_1hi7god1kdmhah-fill" transform="translate(554, 440)">
	<g id="tx_4_1hi7god1kdmhah-fill">
		<g>
			<g enable-background="new    ">
				<path fill="#FFFFFF" d="M24.946-80.713l9.551-14.707h3.252v14.561h2.959v2.314h-2.959v4.336h-2.52v-4.336H24.946V-80.713z
					 M35.229-80.859V-92.08h-0.264l-7.178,11.045v0.176H35.229z"/>
			</g>
		</g>
	</g>
</g>
<g id="g-root-tx__1cu9sfh1kdnvnt-fill" transform="translate(212, 518)">
	<g id="tx__1cu9sfh1kdnvnt-fill">
		<g>
			<g enable-background="new    ">
				<path fill="#0879B7" d="M21.397-90.823c1.819-0.11,3.662-0.28,5.396-0.537l0.244,2.271c-4.932,0.952-10.205,1.001-14.087,1.001
					l-0.366-2.515c1.672-0.012,3.638-0.024,5.713-0.098v-3.467h3.101V-90.823z M25.987-101.053h-4.541
					c0.208,2.148,1.88,4.162,5.225,4.98l-1.416,2.417c-2.6-0.659-4.395-2.1-5.396-3.955c-0.989,1.94-2.759,3.454-5.371,4.126
					l-1.465-2.344c3.357-0.891,4.98-2.979,5.2-5.225h-4.492v-2.515h4.565v-2.417h3.101v2.417h4.59V-101.053z M31.163-83.914h-3.101
					v-22.266h3.101V-83.914z"/>
				<path fill="#0879B7" d="M45.738-95.56h8.618v2.515H34.092v-2.515h8.569v-2.661h3.076V-95.56z M52.525-102.786h-6.03
					c0.549,1.526,2.82,3.015,6.982,3.394l-1.099,2.441c-4.187-0.415-6.995-1.965-8.179-4.126c-1.184,2.148-3.955,3.711-8.13,4.126
					l-1.099-2.441c4.138-0.379,6.421-1.844,6.982-3.394h-6.006v-2.441h16.577V-102.786z M51.939-87.894
					c-0.024,2.539-2.905,3.931-7.739,3.931c-4.883,0-7.788-1.392-7.788-3.931s2.905-3.931,7.788-3.931
					C49.034-91.824,51.915-90.433,51.939-87.894z M39.585-87.894c-0.024,1.099,1.514,1.611,4.614,1.611
					c3.027,0,4.59-0.513,4.614-1.611c-0.024-1.05-1.587-1.563-4.614-1.563C41.099-89.456,39.561-88.943,39.585-87.894z"/>
				<path fill="#0879B7" d="M75.181-90.848l-1.66,2.393c-2.527-1.05-4.285-3.174-5.249-5.713c-0.977,2.697-2.722,4.969-5.273,6.055
					l-1.636-2.393c3.564-1.587,5.298-5.371,5.322-8.716v-0.854h-4.614v-2.49h4.614v-3.125h3.125v3.125h4.492v2.49h-4.517v0.854
					C69.786-95.999,71.543-92.41,75.181-90.848z M80.235-83.914H77.11v-11.23h-4.004v-2.49h4.004v-8.545h3.125V-83.914z"/>
				<path fill="#0879B7" d="M94.81-95.755h-7.324v4.077c3.381-0.012,6.262-0.207,9.521-0.732l0.269,2.515
					c-3.662,0.635-6.958,0.781-11.011,0.781h-2.002v-9.106h7.373v-3.589h-7.397v-2.515H94.81V-95.755z M101.695-83.914h-3.101
					v-22.266h3.101V-83.914z"/>
			</g>
		</g>
	</g>
</g>
<g id="g-root-tx__i0wdv11kdmfpd-fill" transform="translate(434, 518)">
	<g id="tx__i0wdv11kdmfpd-fill">
		<g>
			<g enable-background="new    ">
				<path fill="#1BEFDF" d="M46.678-86.624H26.341v-2.49h8.496v-5.029h3.101v5.029h8.74V-86.624z M45.97-96.023l-1.318,2.588
					c-3.906-0.708-6.812-2.795-8.276-5.566c-1.465,2.759-4.346,4.871-8.228,5.566l-1.318-2.588c5.029-0.781,7.861-4.15,7.886-7.3
					v-1.587h3.32v1.587C38.035-100.149,40.892-96.805,45.97-96.023z"/>
				<path fill="#1BEFDF" d="M52.171-99.002h4.785v-5.42h3.076v15.308H49.046v-15.308h3.125V-99.002z M56.956-91.629v-4.956h-4.785
					v4.956H56.956z M66.551-83.914h-3.149v-22.266h3.149V-83.914z"/>
			</g>
		</g>
	</g>
</g>
<g id="g-root-tx__959dm51kdmgi3-fill" transform="translate(608, 518)">
	<g id="tx__959dm51kdmgi3-fill">
		<g>
			<g enable-background="new    ">
				<path fill="#1DED76" d="M27.22-101.199h-1.416v9.424c0.611-0.049,1.197-0.109,1.734-0.171l0.219,2.319
					c-3.393,0.586-7.934,0.684-10.791,0.684l-0.342-2.563l1.855-0.024v-9.668H17.04v-2.515h10.18V-101.199z M22.997-91.629v-9.57
					h-1.758v9.644L22.997-91.629z M31.81-85.013h-2.904v-8.081h-2.174v-2.539h2.174v-1.88h-2.174v-2.539h2.174v-5.688h2.904V-85.013
					z M36.302-83.963H33.3v-22.217h3.002V-83.963z"/>
				<path fill="#1DED76" d="M40.185-87.771l-1.637-2.49c5.738-2.71,8.265-6.226,8.766-11.157h-7.568v-2.441h10.742
					C50.487-97.122,48.118-91.531,40.185-87.771z M57.151-83.963h-3.148v-22.217h3.148V-83.963z"/>
				<path fill="#1DED76" d="M80.345-94.9h-8.594v1.416h6.129v5.688H65.501v1.343h12.965v2.344H62.45v-5.884h12.354v-1.147H62.425
					v-2.344h6.201V-94.9h-8.545v-2.466h20.264V-94.9z M77.782-98.538H62.597v-7.007h15.186V-98.538z M65.647-100.931h9.033v-2.197
					h-9.033V-100.931z"/>
				<path fill="#1DED76" d="M91.21-102.542h4.541v-2.637h3.125v9.692H88.108v-9.692h3.102V-102.542z M105.077-88.016H93.431v1.44
					h12.281v2.466H90.38v-6.128h11.596v-1.392H90.331v-2.417h14.746V-88.016z M95.751-97.928v-2.271H91.21v2.271H95.751z
					 M105.077-101.858h3.002v2.515h-3.002v4.468h-3.125v-11.304h3.125V-101.858z"/>
				<path fill="#1DED76" d="M120.36-96.316l-1.66,2.368c-1.893-0.72-3.199-2.038-4.004-3.687c-0.807,1.929-2.197,3.54-4.273,4.395
					l-1.684-2.393c3.125-1.367,4.395-4.102,4.395-6.592v-2.612h3.027v2.612C116.161-99.832,117.405-97.439,120.36-96.316z
					 M128.271-88.113c-0.025,2.588-3.027,4.15-7.715,4.15c-4.713,0-7.691-1.563-7.691-4.15s2.979-4.15,7.691-4.15
					C125.243-92.264,128.245-90.701,128.271-88.113z M115.989-88.113c-0.023,1.196,1.66,1.807,4.566,1.807
					c2.881,0,4.564-0.61,4.564-1.807s-1.684-1.831-4.564-1.831C117.649-89.944,115.966-89.31,115.989-88.113z M128.147-92.581
					h-2.953v-5.64h-1.855v4.956h-2.906v-12.5h2.906v5.029h1.855v-5.42h2.953V-92.581z"/>
			</g>
		</g>
	</g>
</g>
<g id="g-root-tx__18f2re51kdntaa-fill" transform="translate(170, 554)">
	<g id="tx__18f2re51kdntaa-fill">
		<g>
			<g enable-background="new    ">
				<path fill="#484848" d="M11.561-100.783c2.471-0.01,5.02-0.205,7.832-0.781l0.195,1.289c-2.949,0.586-5.566,0.781-8.184,0.781
					h-1.387v-7.598h1.543V-100.783z M22.752-90.861H11.756v-6.348h10.996V-90.861z M13.26-92.111h8.008v-3.887H13.26V-92.111z
					 M22.752-103.986h2.637v1.289h-2.637v4.531h-1.523v-9.805h1.523V-103.986z"/>
				<path fill="#484848" d="M42.284-97.58h-15.82v-1.25h15.82V-97.58z M40.506-103.928c0,2.168-2.402,3.457-6.133,3.457
					c-3.77,0-6.152-1.289-6.152-3.457s2.383-3.457,6.152-3.438C38.104-107.385,40.506-106.096,40.506-103.928z M40.526-90.998
					H28.514v-5.059h1.543v3.77h10.469V-90.998z M29.803-103.928c-0.02,1.367,1.777,2.207,4.57,2.207c2.773,0,4.57-0.84,4.57-2.207
					s-1.797-2.207-4.57-2.207C31.581-106.135,29.784-105.295,29.803-103.928z"/>
				<path fill="#484848" d="M56.932-104.494h-1.465v8.086c0.645-0.029,1.27-0.088,1.836-0.156l0.117,1.152
					c-2.734,0.449-6.367,0.527-8.652,0.547l-0.195-1.328l1.836-0.02v-8.281h-1.465v-1.289h7.988V-104.494z M54.061-96.311v-8.184
					h-2.246v8.262C52.547-96.252,53.309-96.271,54.061-96.311z M60.331-91.545h-1.445v-6.543h-2.363v-1.27h2.363v-2.402h-2.363
					v-1.27h2.363v-4.531h1.445V-91.545z M63.709-90.627h-1.484v-17.363h1.484V-90.627z"/>
				<path fill="#484848" d="M67.108-93.889l-0.84-1.25c4.697-2.227,7.09-5.557,7.441-9.707h-6.641v-1.25h8.203
					C75.252-101.096,72.928-96.682,67.108-93.889z M80.409-90.627h-1.543v-17.363h1.543V-90.627z"/>
				<path fill="#484848" d="M99.159-99.396h-7.168v1.719h5.137v3.887H86.815v1.758h10.84v1.211H85.292v-4.121h10.332v-1.543H85.252
					v-1.191h5.215v-1.719h-7.129v-1.25h15.82V-99.396z M97.108-102.111H85.389v-5.293h11.719V-102.111z M86.913-103.342h8.672
					v-2.832h-8.672V-103.342z"/>
				<path fill="#484848" d="M116.444-99.221h-15.82v-1.25h15.82V-99.221z M114.667-104.689c0,1.973-2.266,3.027-6.133,3.047
					c-3.867-0.02-6.152-1.074-6.152-3.047c0-1.934,2.285-2.988,6.152-2.988S114.667-106.623,114.667-104.689z M114.413-93.83H104.1
					v1.797h10.84v1.211h-12.363v-4.141h10.332v-1.582h-10.371v-1.172h11.875V-93.83z M103.983-104.689
					c-0.02,1.211,1.66,1.875,4.551,1.875c2.871,0,4.57-0.664,4.57-1.875c0-1.133-1.699-1.836-4.57-1.836
					C105.643-106.525,103.963-105.822,103.983-104.689z"/>
				<path fill="#484848" d="M132.381-102.482c-0.02,2.52-1.973,4.277-4.57,4.277s-4.57-1.758-4.551-4.277
					c-0.02-2.52,1.953-4.277,4.551-4.277S132.362-105.002,132.381-102.482z M124.764-102.482c-0.02,1.719,1.328,2.93,3.047,2.93
					c1.758,0,3.066-1.211,3.066-2.93s-1.309-2.93-3.066-2.93C126.092-105.412,124.745-104.201,124.764-102.482z M137.303-90.998
					h-11.66v-5.508h1.504v4.219h10.156V-90.998z M136.502-102.697h2.617v1.289h-2.617v6.23h-1.523v-12.813h1.523V-102.697z"/>
				<path fill="#484848" d="M150.526-99.104l-0.801,1.23c-1.963-0.703-3.477-2.168-4.219-3.965
					c-0.752,2.002-2.354,3.604-4.414,4.375l-0.801-1.25c2.559-0.898,4.414-3.184,4.414-5.684v-0.898h-3.926v-1.27h9.355v1.27h-3.887
					v0.898C146.249-102.15,147.987-99.963,150.526-99.104z M155.096-90.998h-11.641v-5.391h1.543v4.102h10.098V-90.998z
					 M154.608-95.236h-1.543v-6.66h-3.574v-1.27h3.574v-4.805h1.543V-95.236z"/>
				<path fill="#484848" d="M167.733-103.928h-10.332v-1.27h4.473v-2.578h1.523v2.578h4.336V-103.928z M166.913-98.498
					c-0.02,2.344-1.797,3.984-4.258,3.984c-2.48,0-4.277-1.641-4.258-3.984c-0.02-2.344,1.777-3.984,4.258-3.984
					C165.116-102.482,166.893-100.842,166.913-98.498z M159.862-98.498c-0.02,1.582,1.172,2.695,2.793,2.676
					c1.602,0.02,2.773-1.094,2.793-2.676c-0.02-1.563-1.191-2.695-2.793-2.695C161.034-101.193,159.842-100.061,159.862-98.498z
					 M170.936-100.822h2.91v1.27h-2.91v8.926h-1.523v-17.363h1.523V-100.822z"/>
				<path fill="#484848" d="M185.995-91.506h-1.465v-8.105h-3.672c-1.064,2.021-2.734,3.809-5.156,5.234l-0.898-1.113
					c3.779-2.236,5.674-5.371,5.957-9.004h-5.215v-1.27h6.738c-0.01,1.709-0.283,3.359-0.859,4.902h3.105v-6.66h1.465V-91.506z
					 M189.647-90.627h-1.465v-17.363h1.465V-90.627z"/>
				<path fill="#484848" d="M65.414-71.49l-0.879,1.191c-1.973-0.908-3.613-2.803-4.375-5.098c-0.762,2.422-2.383,4.453-4.355,5.41
					l-0.879-1.191c2.539-1.191,4.453-4.16,4.453-7.148v-1.387h-3.984v-1.25h3.984v-2.695h1.523v2.695h3.926v1.25h-3.945v1.387
					C60.882-75.455,62.835-72.643,65.414-71.49z M69.281-66.588h-1.543v-9.141h-3.809v-1.27h3.809v-6.992h1.543V-66.588z"/>
				<path fill="#484848" d="M81.234-76.197H74.75v4.102c2.881,0,5.449-0.127,8.555-0.625l0.156,1.289
					c-3.203,0.508-5.84,0.625-8.828,0.625h-1.445v-6.641h6.504V-81.1h-6.543v-1.27h8.086V-76.197z M86.507-66.588h-1.523V-83.99
					h1.523V-66.588z"/>
				<path fill="#484848" d="M99.847-80.924H89.496v-1.27h4.414v-1.953h1.523v1.953h4.414V-80.924z M98.851-77.076
					c-0.02,1.855-1.68,3.047-4.18,3.047c-2.52,0-4.199-1.191-4.18-3.047c-0.02-1.855,1.66-3.047,4.18-3.047
					C97.171-80.123,98.832-78.932,98.851-77.076z M91.957-77.076c-0.02,1.133,1.074,1.875,2.715,1.875
					c1.621,0,2.715-0.742,2.734-1.875c-0.02-1.113-1.113-1.875-2.734-1.855C93.031-78.951,91.937-78.189,91.957-77.076z
					 M93.578-71.275h7.93v-1.855h1.523v6.27H92.054v-6.27h1.523V-71.275z M101.507-68.092v-1.973h-7.93v1.973H101.507z
					 M103.031-79.537h2.617v1.309h-2.617v4.336h-1.523V-83.99h1.523V-79.537z"/>
				<path fill="#484848" d="M109.378-72.428c2.646-0.01,5.391-0.225,8.301-0.84l0.215,1.309c-3.086,0.645-5.84,0.859-8.613,0.859
					h-1.406v-11.172h1.504V-72.428z M121.058-66.627h-1.523V-83.99h1.523V-66.627z"/>
				<path fill="#484848" d="M132.894-81.021h-6.582v8.789c3.145,0,5.371-0.146,7.949-0.625l0.195,1.328
					c-2.715,0.488-5,0.586-8.301,0.586h-1.367v-11.348h8.105V-81.021z M137.464-77.115h2.91v1.289h-2.91v9.238h-1.523V-83.99h1.523
					V-77.115z"/>
				<path fill="#484848" d="M141.898-69.361c-0.02-0.684,0.566-1.25,1.25-1.25s1.25,0.566,1.25,1.25c0,0.703-0.566,1.27-1.25,1.27
					S141.878-68.658,141.898-69.361z"/>
			</g>
		</g>
	</g>
</g>
<g id="g-root-tx__i0wdv11kdmfpe-fill" transform="translate(374, 554)">
	<g id="tx__i0wdv11kdmfpe-fill">
		<g>
			<g enable-background="new    ">
				<path fill="#484848" d="M49.134-95.646l-0.938,1.133c-1.709-1.025-2.92-2.9-3.516-5.117c-0.635,2.393-1.895,4.434-3.633,5.527
					l-0.977-1.152c2.422-1.445,3.828-4.609,3.828-7.773v-1.641h-3.34v-1.27h8.008v1.27h-3.184v1.641
					C45.384-100.021,46.731-97.033,49.134-95.646z M51.614-91.525h-1.445v-8.945h-2.93v-1.25h2.93v-5.84h1.445V-91.525z
					 M55.13-90.627h-1.465v-17.363h1.465V-90.627z"/>
				<path fill="#484848" d="M73.392-98.322h-7.168v2.051h5.234v5.41H59.505v-5.41h5.215v-2.051h-7.148v-1.27h15.82V-98.322z
					 M71.888-106.154h-2.676v3.652h2.617v1.27H59.114v-1.27h2.617v-3.652h-2.676v-1.27h12.832V-106.154z M61.028-92.111h8.926
					v-2.949h-8.926V-92.111z M67.688-102.502v-3.652h-4.434v3.652H67.688z"/>
				<path fill="#484848" d="M90.677-99.221h-15.82v-1.25h15.82V-99.221z M88.899-104.689c0,1.973-2.266,3.027-6.133,3.047
					c-3.867-0.02-6.152-1.074-6.152-3.047c0-1.934,2.285-2.988,6.152-2.988S88.899-106.623,88.899-104.689z M88.646-93.83H78.333
					v1.797h10.84v1.211H76.81v-4.141h10.332v-1.582H76.771v-1.172h11.875V-93.83z M78.216-104.689
					c-0.02,1.211,1.66,1.875,4.551,1.875c2.871,0,4.57-0.664,4.57-1.875c0-1.133-1.699-1.836-4.57-1.836
					C79.876-106.525,78.196-105.822,78.216-104.689z"/>
				<path fill="#484848" d="M107.474-95.9l-0.938,1.23c-1.914-1.006-3.516-3.057-4.277-5.469c-0.781,2.568-2.422,4.756-4.375,5.801
					l-0.977-1.23c2.539-1.25,4.551-4.59,4.57-7.754v-3.164h1.504v3.164C102.981-100.256,105.013-97.111,107.474-95.9z
					 M110.599-100.939h2.91v1.328h-2.91v8.984h-1.523v-17.363h1.523V-100.939z"/>
				<path fill="#484848" d="M130.267-98.127h-15.82v-1.27h3.926v-2.441c-1.387-0.537-2.168-1.426-2.168-2.598
					c0-2.051,2.344-3.223,6.152-3.223c3.77,0,6.133,1.172,6.133,3.223c0,1.162-0.771,2.051-2.148,2.578v2.461h3.926V-98.127z
					 M128.333-93.732c-0.02,1.973-2.246,3.066-5.977,3.066c-3.77,0-5.996-1.094-5.996-3.066c0-1.992,2.227-3.066,5.996-3.066
					C126.087-96.799,128.313-95.725,128.333-93.732z M117.786-104.436c-0.02,1.27,1.738,2.012,4.57,2.012
					c2.813,0,4.57-0.742,4.57-2.012c0-1.25-1.758-2.012-4.57-2.012C119.524-106.447,117.767-105.686,117.786-104.436z
					 M117.923-93.732c-0.02,1.172,1.641,1.875,4.434,1.875c2.754,0,4.434-0.703,4.434-1.875c0-1.191-1.68-1.875-4.434-1.895
					C119.563-95.607,117.903-94.924,117.923-93.732z M124.817-99.396v-2.031c-0.732,0.127-1.553,0.195-2.461,0.195
					s-1.729-0.068-2.461-0.195v2.031H124.817z"/>
				<path fill="#484848" d="M141.966-103.928h-10.332v-1.27h4.473v-2.578h1.523v2.578h4.336V-103.928z M141.146-98.498
					c-0.02,2.344-1.797,3.984-4.258,3.984c-2.48,0-4.277-1.641-4.258-3.984c-0.02-2.344,1.777-3.984,4.258-3.984
					C139.349-102.482,141.126-100.842,141.146-98.498z M134.095-98.498c-0.02,1.582,1.172,2.695,2.793,2.676
					c1.602,0.02,2.773-1.094,2.793-2.676c-0.02-1.563-1.191-2.695-2.793-2.695C135.267-101.193,134.075-100.061,134.095-98.498z
					 M145.169-100.822h2.91v1.27h-2.91v8.926h-1.523v-17.363h1.523V-100.822z"/>
				<path fill="#484848" d="M164.837-93.088h-15.82v-1.27h6.211v-6.211h1.504v6.211h8.105V-93.088z M162.942-104.494
					c-0.02,2.129-0.02,4.512-0.645,8.008l-1.563-0.176c0.664-3.32,0.664-5.762,0.664-7.832v-0.469h-10.703v-1.27h12.246V-104.494z"
					/>
				<path fill="#484848" d="M73.455-68.893H57.557v-1.27h7.109v-4.258h1.504v4.258h7.285V-68.893z M72.674-75.494l-0.684,1.27
					c-2.646-0.537-5.439-2.334-6.563-4.844c-1.143,2.5-3.916,4.307-6.563,4.844l-0.684-1.27c3.027-0.527,6.426-3.066,6.426-5.977
					v-1.328h1.602v1.328C66.209-78.561,69.646-76.021,72.674-75.494z"/>
				<path fill="#484848" d="M77.381-77.916h5.176v-4.59h1.504v11.719h-8.203v-11.719h1.523V-77.916z M82.557-72.076v-4.609h-5.176
					v4.609H82.557z M89.158-66.588h-1.543V-83.99h1.543V-66.588z"/>
				<path fill="#484848" d="M102.518-80.924H92.166v-1.27h4.414v-1.953h1.523v1.953h4.414V-80.924z M101.521-77.076
					c-0.02,1.855-1.68,3.047-4.18,3.047c-2.52,0-4.199-1.191-4.18-3.047c-0.02-1.855,1.66-3.047,4.18-3.047
					C99.842-80.123,101.502-78.932,101.521-77.076z M94.627-77.076c-0.02,1.133,1.074,1.875,2.715,1.875
					c1.621,0,2.715-0.742,2.734-1.875c-0.02-1.113-1.113-1.875-2.734-1.855C95.701-78.951,94.607-78.189,94.627-77.076z
					 M96.248-71.275h7.93v-1.855h1.523v6.27H94.725v-6.27h1.523V-71.275z M104.178-68.092v-1.973h-7.93v1.973H104.178z
					 M105.701-79.537h2.617v1.309h-2.617v4.336h-1.523V-83.99h1.523V-79.537z"/>
				<path fill="#484848" d="M112.049-72.428c2.646-0.01,5.391-0.225,8.301-0.84l0.215,1.309c-3.086,0.645-5.84,0.859-8.613,0.859
					h-1.406v-11.172h1.504V-72.428z M123.729-66.627h-1.523V-83.99h1.523V-66.627z"/>
				<path fill="#484848" d="M135.564-81.021h-6.582v8.789c3.145,0,5.371-0.146,7.949-0.625l0.195,1.328
					c-2.715,0.488-5,0.586-8.301,0.586h-1.367v-11.348h8.105V-81.021z M140.135-77.115h2.91v1.289h-2.91v9.238h-1.523V-83.99h1.523
					V-77.115z"/>
				<path fill="#484848" d="M144.568-69.361c-0.02-0.684,0.566-1.25,1.25-1.25s1.25,0.566,1.25,1.25c0,0.703-0.566,1.27-1.25,1.27
					S144.549-68.658,144.568-69.361z"/>
			</g>
		</g>
	</g>
</g>
<g id="g-root-tx_7_147dfe51kdmfpo-fill" transform="translate(338, 440)">
	<g id="tx_7_147dfe51kdmfpo-fill">
		<g>
			<g enable-background="new    ">
				<path fill="#FFFFFF" d="M35.875-92.93v-0.146H24.654v-2.344h13.945v2.461l-9.697,18.75h-2.754L35.875-92.93z"/>
			</g>
		</g>
	</g>
</g>
<g id="g-root-sy_0_arrow-left-stroke_v9uzvx1kdmhhh-stroke" transform="translate(193.99993896484375, 199.9410400390625)">
	<g id="sy_0_arrow-left-stroke_v9uzvx1kdmhhh-stroke">
		<g>
			<path fill="none" stroke="#44E095" stroke-width="2" stroke-linecap="round" stroke-linejoin="round" d="M20.092,40.85
				c0-34.591,11.5-68.2,32.69-95.55c20.78-26.82,49.73-46.12,82.45-55"/>
			<path fill="none" stroke="#44E095" stroke-width="2" stroke-linecap="round" stroke-linejoin="round" d="M131.292-101.7l4.4-8.1
				l-8.1-4.4"/>
		</g>
	</g>
</g>
<g id="g-root-sy_0_arrow-right-stroke_v9uzvx1kdmhhi-stroke" transform="translate(604.950927734375, 351)">
	<g id="sy_0_arrow-right-stroke_v9uzvx1kdmhhi-stroke">
		<g>
			<path fill="none" stroke="#44E095" stroke-width="2" stroke-linecap="round" stroke-linejoin="round" d="M137.13-108.229
				c-0.43,33.89-11.89,66.75-32.68,93.569c-21.18,27.34-50.859,46.87-84.359,55.51"/>
			<path fill="none" stroke="#44E095" stroke-width="2" stroke-linecap="round" stroke-linejoin="round" d="M143.29-101.929
				l-6.199-6.8l-6.7,6.3"/>
		</g>
	</g>
</g>
<g id="g-root-cp_1_g-1_meugq51kdmf4f-stroke" transform="translate(206.00399780273438, 248.175048828125)">
	<g id="cp_1_g-1_meugq51kdmf4f-stroke">
		<g>
			<path fill="none" stroke="#44E095" stroke-width="2" stroke-linecap="round" stroke-linejoin="round" d="M62.268,93.437
				C35.263,66.432,20.092,29.805,20.092-8.386c0-38.19,15.171-74.818,42.177-101.823l50.97,50.97
				C99.751-45.752,92.174-27.459,92.174-8.386c0,19.074,7.577,37.366,21.064,50.854L62.268,93.437z"/>
		</g>
	</g>
</g>
<g id="g-root-cp_4_g-4_qunyul1kdmf41-stroke" transform="translate(464.176025390625, 400.8590087890625)">
	<g id="cp_4_g-4_qunyul1kdmf41-stroke">
		<g>
			<path fill="none" stroke="#44E095" stroke-width="2" stroke-linecap="round" stroke-linejoin="round" d="M223.739-59.239
				c-27.006,27.005-63.633,42.177-101.824,42.177c-38.19,0-74.817-15.172-101.823-42.177l50.97-50.97
				c13.487,13.487,31.78,21.063,50.854,21.063c19.074,0,37.366-7.576,50.854-21.063L223.739-59.239z"/>
		</g>
	</g>
</g>
<g id="g-root-cp_2_g-2_qunyul1kdmf43-stroke" transform="translate(248.17999267578125, 205.998046875)">
	<g id="cp_2_g-2_qunyul1kdmf43-stroke">
		<g>
			<path fill="none" stroke="#44E095" stroke-width="2" stroke-linecap="round" stroke-linejoin="round" d="M20.092-68.032
				c27.005-27.005,63.632-42.177,101.823-42.177c38.191,0,74.818,15.171,101.824,42.177l-50.97,50.97
				c-13.487-13.487-31.78-21.064-50.854-21.064S84.549-30.55,71.062-17.063L20.092-68.032z"/>
		</g>
	</g>
</g>
<g id="g-root-cp_5_g-5_hz0ylp1kdmfwt-stroke" transform="translate(616.8519897460938, 248.18115234375)">
	<g id="cp_5_g-5_hz0ylp1kdmfwt-stroke">
		<g>
			<path fill="none" stroke="#44E095" stroke-width="2" stroke-linecap="round" stroke-linejoin="round" d="M71.062-110.209
				c13.371,13.372,23.979,29.246,31.215,46.717c7.236,17.471,10.962,36.195,10.962,55.106c0,18.91-3.726,37.635-10.962,55.106
				c-7.236,17.471-17.844,33.345-31.215,46.717l-50.971-50.97c6.679-6.679,11.976-14.606,15.59-23.332s5.475-18.077,5.475-27.521
				s-1.86-18.797-5.475-27.522c-3.614-8.725-8.911-16.653-15.59-23.331L71.062-110.209z"/>
		</g>
	</g>
</g>
<g id="g-root-cp_7_g-7_hz0ylp1kdmfwv-stroke" transform="translate(248.17999267578125, 349.998046875)">
	<g id="cp_7_g-7_hz0ylp1kdmfwv-stroke">
		<g>
			<path fill="none" stroke="#44E095" stroke-width="2" stroke-linecap="round" stroke-linejoin="round" d="M193.91-110.209h-0.077
				c0,14.224-4.218,28.129-12.12,39.955c-7.902,11.827-19.135,21.045-32.276,26.488s-27.601,6.867-41.552,4.093
				c-13.95-2.775-26.765-9.625-36.823-19.683l-50.97,50.97c20.139,20.139,45.797,33.854,73.73,39.41
				c27.934,5.556,56.887,2.704,83.2-8.194c20.356-8.432,38.423-21.387,52.887-37.784c-23.131-26.226-35.999-60.073-35.999-95.247
				C193.91-110.204,193.91-110.206,193.91-110.209z M265.914-109.599c-0.002-0.203-0.003-0.405-0.003-0.608v-0.002h0.004
				C265.915-110.006,265.915-109.802,265.914-109.599z"/>
		</g>
	</g>
</g>
<g id="g-root-cp_6_g-6_dj7gh91kdmgp5-stroke" transform="translate(458.0040283203125, 206.0050048828125)">
	<g id="cp_6_g-6_dj7gh91kdmgp5-stroke">
		<g>
			<path fill="none" stroke="#44E095" stroke-width="2" stroke-linecap="round" stroke-linejoin="round" d="M20.092-61.462
				L20.092-61.462C30.58-49.57,39.046-36.011,45.13-21.323c7.237,17.472,10.958,36.198,10.958,55.108v0.006h0.08
				c0-14.224,4.218-28.128,12.12-39.955s19.135-21.045,32.276-26.488c13.141-5.443,27.602-6.868,41.552-4.093
				c13.951,2.775,26.766,9.625,36.823,19.682l50.97-50.97c-20.139-20.139-45.797-33.854-73.73-39.41s-56.887-2.705-83.199,8.194
				C52.623-90.816,34.556-77.86,20.092-61.462z"/>
		</g>
	</g>
</g>
<g id="g-root-cp_3_g-3_dj7gh91kdmgp7-stroke" transform="translate(400.85699462890625, 248.175048828125)">
	<g id="cp_3_g-3_dj7gh91kdmgp7-stroke">
		<g>
			<path fill="none" stroke="#44E095" stroke-width="2" stroke-linecap="round" stroke-linejoin="round" d="M76.49-104.474
				c-1.754-1.958-3.564-3.871-5.428-5.735l-50.97,50.97c6.678,6.679,11.976,14.606,15.589,23.332
				c3.614,8.726,5.552,18.084,5.552,27.528c0,35.174,12.869,69.022,35.999,95.248c1.984,2.249,4.044,4.443,6.178,6.576l50.97-50.97
				c-13.487-13.487-21.145-31.786-21.145-50.86c0-18.91-3.722-37.637-10.958-55.107c-6.084-14.688-14.55-28.248-25.038-40.14
				C76.991-103.914,76.741-104.195,76.49-104.474z"/>
		</g>
	</g>
</g>
<g>
</g>
<g>
</g>
<g>
</g>
<g>
</g>
<g>
</g>
<g>
</g>
<g>
</g>
<g>
</g>
<g>
</g>
<g>
</g>
<g>
</g>
<g>
</g>
<g>
</g>
<g>
</g>
<g>
</g>
</svg>
