<?xml version="1.0" encoding="utf-8"?>
<!-- Generator: Adobe Illustrator 16.0.0, SVG Export Plug-In . SVG Version: 6.00 Build 0)  -->
<!DOCTYPE svg PUBLIC "-//W3C//DTD SVG 1.1//EN" "http://www.w3.org/Graphics/SVG/1.1/DTD/svg11.dtd">
<svg version="1.1" id="Layer_1" xmlns="http://www.w3.org/2000/svg" xmlns:xlink="http://www.w3.org/1999/xlink" x="0px" y="0px"
	 width="1000px" height="750.395px" viewBox="0 149.606 1000 750.395" enable-background="new 0 149.606 1000 750.395"
	 xml:space="preserve">
<path fill="#EA8B22" d="M607.203,255.811c-7.705-2.817-21.917-13.719-21.917-13.719s-15.695,10.9-23.401,13.719
	c-7.704,2.819-23.4,6.578-23.4,6.578v34.58c0,0-0.104,37.776,45,58.636c45.105-20.859,45-58.636,45-58.636v-34.58
	C628.482,262.389,614.906,258.63,607.203,255.811z M585.233,271.91c8.095,0,14.659,6.563,14.659,14.658
	c0,8.097-6.564,14.659-14.659,14.659c-8.098,0-14.658-6.563-14.658-14.659C570.575,278.473,577.136,271.91,585.233,271.91z
	 M585.171,335.684c-14.473,0-25.621-16.538-25.621-16.538s9.271-14.159,25.811-14.159s25.435,14.91,25.435,14.91
	S599.641,335.684,585.171,335.684z"/>
<g>
	<path fill="#EA8B22" d="M731.482,472.031c-2.491,0-4,2.021-4,4.511v23.054c0,1.597,0.617,3.068,1.988,3.883l18.934,11.276
		c0.72,0.427,1.456,0.63,2.237,0.63c1.541,0,3.015-0.792,3.854-2.216c1.271-2.142,0.262-4.909-1.883-6.179l-17.133-9.965v-20.483
		C735.482,474.051,733.974,472.031,731.482,472.031z"/>
	<path fill="#EA8B22" d="M765.348,501.318l4.51,20.336l19.243-7.976l-5.63-2.932c5.216-26.797-11.896-53.113-38.703-59.063
		c-13.198-2.929-26.749-0.542-38.153,6.721c-11.404,7.26-19.299,18.528-22.228,31.729c-2.931,13.196-0.543,26.747,6.719,38.149
		c7.261,11.405,18.529,19.3,31.729,22.229c3.681,0.814,7.387,1.22,11.064,1.22c9.521,0,18.862-2.701,27.087-7.938l4.438-2.827
		l-5.652-8.877l-4.438,2.826c-9.034,5.754-19.765,7.643-30.222,5.32c-10.455-2.32-19.379-8.572-25.131-17.604
		c-5.752-9.034-7.644-19.767-5.321-30.222c2.319-10.455,8.572-19.381,17.605-25.131c9.035-5.752,19.765-7.644,30.221-5.322
		c20.194,4.482,33.451,23.558,31.146,43.675L765.348,501.318z"/>
</g>
<g>
	<rect x="588.482" y="744.763" fill="#EA8B22" width="16" height="21"/>
	<rect x="617.482" y="729.763" fill="#EA8B22" width="16" height="36"/>
	<rect x="647.482" y="714.763" fill="#EA8B22" width="16" height="51"/>
	<polygon fill="#EA8B22" points="661.503,679.383 633.614,679.566 643.136,689.429 623.228,708.45 613.53,697.996 583.831,727.111 
		591.727,735.163 613.146,714.163 622.743,724.508 650.969,697.538 660.345,707.246 	"/>
</g>
<g>
	<path fill="#EA8B22" d="M437.296,737.763h-6.752c-1.079-4-2.801-8.939-5.057-12.601l4.627-4.946c1.467-1.469,1.467-4.009,0-5.479
		l-9.037-9.117c-1.468-1.47-3.847-1.509-5.314-0.039l-4.932,4.674c-3.708-2.237-8.35-3.94-12.35-4.979v-6.387
		c0-2.075-1.208-3.129-3.284-3.129h-12.779c-2.076,0-4.938,1.054-4.938,3.129v6.442c-3,1.076-7.89,2.814-11.62,5.113l-4.082-4.377
		c-1.468-1.469-3.7-1.468-5.169,0l-8.962,9.037c-1.468,1.469-1.432,3.849,0.037,5.314l4.461,5.209
		c-2.281,3.78-3.966,9.13-4.997,13.13h-6.078c-2.076,0-4.591,0.149-4.591,2.227v12.779c0,2.075,2.515,4.994,4.591,4.994h6.251
		c1.109,5,2.902,7.904,5.251,11.646l-4.322,4.016c-1.467,1.466-1.468,3.69,0,5.16l9.037,8.959c1.469,1.469,3.848,1.43,5.315-0.039
		l3.545-4.527c3.767,2.229,8.331,3.874,11.331,4.869v6.271c0,2.076,3.612,5.648,5.688,5.648h12.78c2.076,0,3.532-3.572,3.532-5.648
		v-6.562c4-1.113,8.458-2.887,12.127-5.191l4.628,4.572c1.468,1.469,3.875,1.469,5.343,0l9.052-9.037
		c1.469-1.468,1.477-3.849,0.008-5.313l-4.758-4.268c2.187-3.697,3.833-6.553,4.835-11.553h6.578c2.076,0,3.188-2.67,3.188-4.746
		v-12.779C440.482,738.16,439.373,737.763,437.296,737.763z M388.935,776.314c-16.188,0-29.312-13.122-29.312-29.311
		c0-16.189,13.122-29.313,29.312-29.313c16.188,0,29.311,13.122,29.311,29.313C418.246,763.192,405.123,776.314,388.935,776.314z"/>
	<g>
		<path fill="#EA8B22" d="M386.158,768.304v-4.824c-3.467-0.454-6.171-1.552-8.108-3.288c-2.015-1.791-3.021-4.098-3.021-6.913
			v-0.896h7.215v0.725c0,1.766,0.577,3.23,1.734,4.396c1.267,1.225,3.001,1.836,5.201,1.836c2.721,0,4.566-0.696,5.538-2.092
			c0.596-0.825,0.894-1.991,0.894-3.5v-0.171c0-1.054-0.298-1.893-0.894-2.521c-1.044-1.166-3.097-2.09-6.153-2.773
			c-4.177-0.938-7.327-2.161-9.452-3.672c-2.2-1.563-3.3-3.398-3.3-5.506c0-2.532,1.025-4.71,3.076-6.528
			c1.976-1.768,4.399-2.774,7.271-3.032v-3.841h5.146v3.884c3.244,0.343,5.815,1.322,7.718,2.944c1.938,1.65,2.945,3.828,3.02,6.53
			h-7.271c-0.188-2.077-0.747-3.483-1.677-4.227c-0.934-0.684-2.556-1.022-4.867-1.022c-1.863,0-3.206,0.44-4.026,1.323
			c-0.709,0.797-1.063,2.007-1.063,3.629c0,1.45,0.541,2.504,1.622,3.156c0.746,0.428,2.461,0.953,5.146,1.578l1.342,0.302
			c3.952,0.911,6.77,1.963,8.446,3.158c2.312,1.594,3.467,3.854,3.467,6.786c0,2.447-1.082,4.554-3.243,6.316
			c-2.164,1.708-5.033,2.788-8.613,3.244v4.994L386.158,768.304L386.158,768.304z"/>
	</g>
</g>
<g>
	<circle fill="#EA8B22" cx="240.278" cy="552.228" r="49.191"/>
	<path fill="#FFFFFF" d="M231.363,576.325c-1.538,0-3.081-0.532-4.326-1.614l-17.498-15.188c-2.754-2.39-3.049-6.561-0.658-9.313
		c2.391-2.756,6.562-3.051,9.314-0.658l12.829,11.133l29.323-29.612c2.565-2.588,6.747-2.609,9.338-0.045
		c2.591,2.567,2.611,6.748,0.045,9.338l-33.674,34.006C234.771,575.669,233.068,576.325,231.363,576.325z"/>
</g>
<g>
	<g enable-background="new    ">
		<path fill="#484848" d="M140.814,241.026v-1.189c-2.225-0.303-3.616-1.415-3.594-3.01c-0.022-2.021,1.977-3.213,5.009-3.189
			c3.01-0.021,4.985,1.168,5.009,3.189c-0.022,1.583-1.381,2.694-3.571,3.01v1.056c1.686-0.101,3.369-0.258,4.941-0.494l0.202,1.978
			c-4.313,0.831-9.143,0.876-12.668,0.921l-0.292-2.201C137.321,241.094,139.028,241.082,140.814,241.026z M148.091,233.053h-11.7
			v-2.044h4.425v-1.729h2.853v1.729h4.425L148.091,233.053L148.091,233.053z M153.123,249.427h-14.396v-5.188h2.875v2.897h11.521
			V249.427z M139.96,236.826c-0.021,0.764,0.81,1.189,2.27,1.189c1.438,0,2.246-0.427,2.269-1.189
			c-0.021-0.876-0.831-1.28-2.269-1.28C140.77,235.546,139.938,235.95,139.96,236.826z M152.426,236.062h2.605v2.358h-2.605v6.873
			h-2.875v-15.947h2.875V236.062z"/>
		<path fill="#484848" d="M173.181,241.138h-2.854v-1.999h-4.604v-2.291h4.604v-1.954h-4.402c-1.269,3.234-4.167,5.458-8.67,6.693
			l-1.123-2.27c4.706-1.234,7.009-3.48,7.412-6.289h-6.312v-2.291h9.434c0,0.663-0.045,1.304-0.135,1.909h3.796v-3.278h2.854
			V241.138L173.181,241.138z M173.337,245.518c-0.021,2.562-2.808,4.178-6.963,4.178c-4.2,0-7.008-1.616-6.984-4.178
			c-0.022-2.538,2.784-4.133,6.984-4.133C170.529,241.386,173.315,242.979,173.337,245.518z M162.241,245.518
			c0,1.258,1.55,1.909,4.133,1.909c2.538,0,4.088-0.651,4.088-1.909s-1.55-1.909-4.088-1.887
			C163.792,243.609,162.241,244.261,162.241,245.518z"/>
		<path fill="#484848" d="M187.623,232.761h-4.064c0.021,2.415,1.46,4.885,4.693,5.952l-1.415,2.201
			c-2.269-0.72-3.817-2.201-4.693-4.043c-0.921,2.044-2.549,3.694-4.964,4.47l-1.46-2.27c3.357-1.077,4.885-3.762,4.919-6.312h-4.11
			v-2.269h11.096L187.623,232.761L187.623,232.761z M193.059,249.786h-2.854v-5.076H179.02v-2.291h14.038L193.059,249.786
			L193.059,249.786z M193.059,241.52h-2.854v-4.919h-3.167v-2.336h3.167v-4.919h2.854V241.52z"/>
		<path fill="#484848" d="M210.757,232.042h4.627v-2.695h2.854v11.972h-2.854v-2.447h-4.648c-0.988,0.987-2.403,1.583-4.021,1.571
			c-3.1,0.022-5.458-2.11-5.436-4.985c-0.022-2.92,2.336-5.01,5.436-5.01C208.342,230.447,209.77,231.042,210.757,232.042z
			 M203.997,235.456c-0.021,1.571,1.123,2.583,2.718,2.561c1.551,0.022,2.674-0.988,2.674-2.561c0-1.617-1.123-2.562-2.674-2.562
			C205.12,232.895,203.975,233.839,203.997,235.456z M218.304,245.765c-0.022,2.538-2.719,4.021-7.054,4.021
			c-4.313,0-7.029-1.482-7.029-4.021s2.718-4.021,7.029-4.021C215.586,241.745,218.281,243.227,218.304,245.765z M207.028,245.765
			c0,1.19,1.505,1.797,4.223,1.797c2.764,0,4.245-0.605,4.245-1.797c0-1.235-1.481-1.842-4.245-1.842
			C208.533,243.924,207.028,244.53,207.028,245.765z M212.105,235.456c0,0.393-0.045,0.764-0.112,1.123h3.392v-2.27h-3.393
			C212.061,234.67,212.105,235.063,212.105,235.456z"/>
		<path fill="#484848" d="M233.017,233.523h-12.129V231.3h4.648v-2.066h2.854v2.066h4.627V233.523z M231.982,237.904
			c0,2.201-2.066,3.661-5.031,3.661c-3.01,0-5.076-1.46-5.076-3.661c0-2.179,2.066-3.684,5.076-3.684
			C229.917,234.221,231.982,235.725,231.982,237.904z M237.329,246.17c0,2.246-2.695,3.616-6.896,3.616
			c-4.29,0-6.94-1.37-6.918-3.616c-0.022-2.291,2.628-3.661,6.918-3.661C234.633,242.509,237.329,243.879,237.329,246.17z
			 M224.684,237.904c-0.022,1.012,0.897,1.551,2.269,1.527c1.37,0.022,2.313-0.517,2.313-1.527c0-1.032-0.943-1.595-2.313-1.595
			S224.661,236.871,224.684,237.904z M226.345,246.17c-0.022,0.966,1.414,1.481,4.088,1.481c2.604,0,4.021-0.517,4.021-1.481
			c0-1.011-1.415-1.482-4.021-1.482C227.76,244.687,226.322,245.159,226.345,246.17z M239.754,234.646h-2.649v2.089h2.649v2.336
			h-2.649v3.258h-2.875v-12.983h2.875v2.987h2.649V234.646z"/>
	</g>
</g>
<g>
	<g enable-background="new    ">
		<path fill="#484848" d="M772.736,232.828h-4.063c0.021,2.392,1.438,4.84,4.762,5.906l-1.46,2.225
			c-2.271-0.73-3.829-2.19-4.717-4.021c-0.909,1.999-2.538,3.583-4.919,4.357l-1.527-2.201c3.381-1.089,4.919-3.706,4.964-6.267
			h-4.178v-2.291h11.141L772.736,232.828L772.736,232.828z M777.342,249.786h-2.875v-4.965h-10.895v-2.269h13.771L777.342,249.786
			L777.342,249.786z M777.342,234.31h2.763v2.381h-2.763v4.986h-2.875v-12.331h2.875V234.31z"/>
		<path fill="#484848" d="M791.964,233.884h3.413v-4.537h2.854v10.983h-2.854v-4.155h-3.393c-0.539,2.246-2.639,3.772-5.278,3.772
			c-3.145,0-5.458-2.044-5.436-4.896c-0.022-2.808,2.291-4.852,5.436-4.829C789.323,230.2,791.401,231.694,791.964,233.884z
			 M783.989,235.052c-0.021,1.527,1.123,2.493,2.718,2.493c1.552,0,2.675-0.966,2.675-2.493s-1.123-2.471-2.675-2.448
			C785.112,232.581,783.968,233.523,783.989,235.052z M787.427,243.205h7.95v-1.978h2.854v8.333h-13.634v-8.333h2.83V243.205
			L787.427,243.205z M795.378,247.248v-1.843h-7.95v1.843H795.378z"/>
		<path fill="#484848" d="M813.436,243.182l-1.595,2.246c-2.279-1.044-3.908-3.133-4.809-5.593
			c-0.921,2.707-2.594,4.998-4.964,6.108l-1.662-2.269c3.414-1.595,5.121-5.391,5.146-8.76v-1.258h-4.335v-2.334h11.318v2.336
			h-4.108v1.258C808.404,238.039,810.066,241.633,813.436,243.182z M817.008,237.14h3.01v2.403h-3.01v10.242h-2.875v-20.439h2.875
			V237.14z"/>
		<path fill="#484848" d="M837.38,235.86c0,2.987-2.448,5.188-5.57,5.188c-3.146,0-5.615-2.201-5.615-5.188
			c0-3.031,2.472-5.188,5.615-5.188C834.931,230.672,837.38,232.828,837.38,235.86z M829.023,235.86
			c-0.021,1.662,1.235,2.695,2.785,2.695c1.572,0,2.763-1.033,2.785-2.695c-0.022-1.707-1.213-2.718-2.785-2.694
			C830.26,233.142,829.002,234.153,829.023,235.86z M843.017,249.427h-13.993v-6.761h2.854v4.47h11.141L843.017,249.427
			L843.017,249.427z M842.275,235.208h2.763v2.381h-2.763v6.647H839.4v-14.892h2.875V235.208z"/>
		<path fill="#484848" d="M858.357,239.319l-1.415,2.27c-2.269-0.73-3.817-2.225-4.717-4.088c-0.898,2.065-2.527,3.706-4.941,4.515
			l-1.46-2.336c3.369-1.056,4.896-3.729,4.919-6.334v-0.314h-4.108v-2.29h11.096v2.29h-4.064v0.338
			C853.663,235.725,855.101,238.263,858.357,239.319z M863.658,249.427h-14.061v-6.446h2.875v4.155h11.186V249.427z
			 M863.164,244.283h-2.853v-7.322h-3.347v-2.313h3.347v-5.277h2.853V244.283z"/>
	</g>
</g>
<g>
	<g enable-background="new    ">
		<path fill="#484848" d="M33.38,532.982h-4.064c0.066,2.381,1.505,4.784,4.693,5.84l-1.414,2.246
			c-2.258-0.729-3.808-2.212-4.694-4.063c-0.91,2.089-2.538,3.772-4.964,4.604l-1.482-2.269c3.358-1.123,4.863-3.796,4.941-6.356
			h-4.11v-2.291h11.096L33.38,532.982L33.38,532.982z M38.883,545.988c-0.021,2.472-2.694,3.932-7.053,3.932
			c-4.357,0-7.03-1.46-7.03-3.932c0-2.494,2.674-3.932,7.03-3.953C36.188,542.057,38.861,543.493,38.883,545.988z M27.653,545.988
			c0,1.168,1.46,1.752,4.178,1.752s4.2-0.584,4.2-1.752c0-1.189-1.482-1.752-4.2-1.752S27.653,544.797,27.653,545.988z
			 M38.816,541.585h-2.854v-4.829h-3.188v-2.313h3.188v-4.985h2.854V541.585z"/>
		<path fill="#484848" d="M52.496,539.092H42.5v-8.625h9.995L52.496,539.092L52.496,539.092z M58.56,546.166H47.733v1.325h11.365
			v2.27H44.88v-5.615h10.871v-1.258H44.88v-2.225H58.56V546.166z M45.331,536.891h4.313v-4.133h-4.313V536.891z M58.56,539.786
			h-2.854v-10.332h2.854V539.786z"/>
		<path fill="#484848" d="M85.333,542.191h-7.704v3.303h-2.83v-3.303h-8.176v-2.246h18.71V542.191L85.333,542.191z M83.267,549.534
			H68.824v-5.659h2.83v3.368h11.612L83.267,549.534L83.267,549.534z M71.856,532.241h8.198v-2.135h2.853v8.4H69.026v-8.4h2.83
			V532.241z M80.054,536.24v-1.864h-8.198v1.864H80.054z"/>
		<path fill="#484848" d="M105.211,543.697h-4.313v6.198h-2.897v-6.198h-4.268v6.198H90.88v-6.198H86.5v-2.246h18.71
			L105.211,543.697L105.211,543.697z M103.054,536.015H91.622v1.662h11.904v2.291H88.724v-6.042h11.388v-1.527H88.656v-2.336h14.397
			L103.054,536.015L103.054,536.015z"/>
	</g>
</g>
<g>
	<g enable-background="new    ">
		<path fill="#484848" d="M894.421,547.852h-18.712v-2.291h4.472v-3.369c-1.395-0.674-2.168-1.707-2.156-3.055
			c-0.021-2.493,2.673-3.953,6.985-3.953c4.29,0,6.963,1.46,6.963,3.953c0,1.337-0.774,2.381-2.156,3.031v3.393h4.604V547.852
			L894.421,547.852z M893.521,534.353h-17.003v-2.291h7.075v-2.381h2.83v2.381h7.098V534.353L893.521,534.353z M880.966,539.137
			c-0.022,1.146,1.393,1.707,4.043,1.707c2.583,0,4.021-0.563,4.021-1.707c0-1.168-1.438-1.752-4.021-1.752
			C882.357,537.385,880.942,537.969,880.966,539.137z M886.984,545.561v-2.605c-0.618,0.08-1.269,0.113-1.977,0.113
			c-0.696,0-1.35-0.033-1.954-0.113v2.605H886.984z"/>
		<path fill="#484848" d="M914.229,539.721h-4.672v1.438h2.403v5.211h-11.39v1.235h11.927v2.156h-14.732v-5.393h11.365v-1.123
			h-11.39v-2.088h2.538v-1.438h-4.692v-2.246h18.643V539.721L914.229,539.721z M912.344,533.14c-0.022,2.246-2.74,3.48-7.437,3.48
			c-4.717,0-7.457-1.234-7.457-3.48c0-2.27,2.74-3.504,7.457-3.504C909.603,529.636,912.32,530.87,912.344,533.14z M900.462,533.14
			c-0.021,0.988,1.438,1.394,4.446,1.394c3.032,0,4.472-0.403,4.472-1.394c0-0.942-1.438-1.395-4.472-1.395
			C901.898,531.745,900.438,532.197,900.462,533.14z M906.705,541.157v-1.438h-3.594v1.438H906.705z"/>
		<path fill="#484848" d="M927.863,538.508l-1.505,2.246c-2.201-0.765-3.695-2.181-4.537-4.021
			c-0.921,2.135-2.572,3.818-5.031,4.649l-1.505-2.291c3.504-1.123,4.986-3.863,5.01-6.717v-1.863h2.896v1.729
			C923.171,534.981,924.584,537.495,927.863,538.508z M932.76,545.943c-0.022,2.517-2.695,3.952-7.055,3.952
			c-4.356,0-7.028-1.438-7.028-3.952c0-2.516,2.673-3.977,7.028-3.977C930.063,541.967,932.737,543.427,932.76,545.943z
			 M921.529,545.943c0,1.122,1.46,1.729,4.178,1.729c2.72,0,4.2-0.606,4.2-1.729c0-1.169-1.48-1.753-4.2-1.753
			C922.989,544.19,921.529,544.774,921.529,545.943z M932.692,541.428h-2.853v-5.885h-3.843v-2.337h3.843v-3.752h2.853V541.428z"/>
		<path fill="#484848" d="M959.286,541.181h-18.643v-2.313h18.643V541.181z M957.602,532.69h-5.57
			c0.46,1.427,2.538,2.843,6.47,3.189l-1.012,2.246c-3.852-0.371-6.457-1.83-7.547-3.818c-1.078,1.988-3.639,3.447-7.523,3.818
			l-0.942-2.246c3.841-0.35,5.938-1.752,6.424-3.189h-5.548v-2.29h15.251L957.602,532.69L957.602,532.69z M957.063,546.12
			c-0.022,2.428-2.695,3.773-7.12,3.773c-4.47,0-7.165-1.348-7.165-3.773c0-2.401,2.695-3.795,7.165-3.795
			C954.367,542.325,957.04,543.719,957.063,546.12z M945.697,546.12c-0.021,1.058,1.415,1.552,4.245,1.552
			c2.763,0,4.224-0.494,4.245-1.552c-0.021-1.077-1.482-1.57-4.245-1.57C947.112,544.55,945.676,545.044,945.697,546.12z"/>
		<path fill="#484848" d="M961.914,546.323l-1.615-2.201c4.841-2.426,7.435-5.683,7.974-10.24h-6.806v-2.336h9.726
			C971.169,537.654,968.787,542.954,961.914,546.323z M976.648,537.295h2.896v2.356h-2.896v10.197h-2.875v-20.396h2.875V537.295z"/>
	</g>
</g>
<g>
	<g enable-background="new    ">
		<path fill="#484848" d="M115.251,802.195h4.402v-4.984h2.83v14.083h-10.107V797.21h2.875V802.195z M119.653,808.979v-4.56h-4.402
			v4.56H119.653z M128.48,816.075h-2.897v-20.483h2.897V816.075z"/>
		<path fill="#484848" d="M149.885,807.563h-18.643v-2.291h4.2v-2.448c-1.494-0.662-2.336-1.673-2.336-2.985
			c0-2.472,2.896-3.953,7.457-3.953c4.515,0,7.412,1.481,7.435,3.953c-0.011,1.324-0.887,2.356-2.402,3.01v2.426h4.289V807.563
			L149.885,807.563z M147.663,812.303c-0.021,2.402-2.695,3.706-7.12,3.706c-4.492,0-7.165-1.304-7.165-3.706
			c0-2.358,2.673-3.661,7.165-3.661C144.966,808.642,147.64,809.944,147.663,812.303z M136.094,799.837
			c-0.022,1.122,1.571,1.685,4.47,1.685c2.853,0,4.47-0.563,4.47-1.685c0-1.146-1.617-1.753-4.47-1.753
			C137.667,798.085,136.072,798.691,136.094,799.837z M136.296,812.303c-0.021,1.056,1.415,1.572,4.245,1.572
			c2.764,0,4.224-0.519,4.245-1.572c-0.021-1.012-1.481-1.505-4.245-1.505C137.711,810.798,136.274,811.291,136.296,812.303z
			 M142.744,805.272v-1.707c-0.674,0.078-1.404,0.112-2.179,0.112c-0.797,0-1.539-0.034-2.225-0.136v1.729L142.744,805.272
			L142.744,805.272z"/>
		<path fill="#484848" d="M168.102,798.669h-4.065c0.079,2.044,1.562,4.178,4.672,5.075l-1.325,2.27
			c-2.302-0.663-3.886-2.021-4.783-3.729c-0.933,1.888-2.595,3.438-4.964,4.154l-1.394-2.224c3.201-1.022,4.795-3.381,4.919-5.549
			h-4.133v-2.291h11.073V798.669z M173.649,812.303h-10.714v1.303h11.319v2.225H160.06v-5.614h10.735v-1.168h-10.759v-2.271h13.611
			L173.649,812.303L173.649,812.303z M173.649,805.991h-2.854v-3.932h-3.212v-2.269h3.212v-4.2h2.854V805.991z"/>
		<path fill="#484848" d="M177.22,807.474l-1.146-2.27c4.582-1.135,7.109-3.402,7.592-6.133h-6.581v-2.291h9.703
			C186.767,802.195,183.353,805.856,177.22,807.474z M192.517,815.782h-13.364v-7.995h13.364V815.782z M182.004,813.537h7.683V810.1
			h-7.683V813.537z M192.517,800.062h2.763v2.358h-2.763v4.604h-2.875v-11.433h2.875V800.062z"/>
	</g>
</g>
<g>
	<g enable-background="new    ">
		<path fill="#484848" d="M778.752,804.666l-1.526,2.179c-1.741-0.662-2.942-1.875-3.686-3.393
			c-0.739,1.773-2.021,3.258-3.931,4.043l-1.55-2.2c2.875-1.259,4.043-3.773,4.043-6.064v-2.402h2.785v2.402
			C774.888,801.432,776.033,803.633,778.752,804.666z M786.028,812.213c-0.021,2.381-2.785,3.816-7.098,3.816
			c-4.335,0-7.075-1.438-7.075-3.816s2.74-3.818,7.075-3.818C783.243,808.395,786.007,809.831,786.028,812.213z M774.73,812.213
			c-0.021,1.101,1.527,1.662,4.2,1.662c2.648,0,4.2-0.563,4.2-1.662c0-1.102-1.552-1.687-4.2-1.687
			C776.259,810.528,774.709,811.112,774.73,812.213z M785.916,808.103h-2.718v-5.188h-1.707v4.561h-2.673v-11.5h2.673v4.627h1.707
			v-4.986h2.718V808.103z"/>
		<path fill="#484848" d="M800.561,805.317l-1.505,2.246c-2.235-0.752-3.773-2.224-4.649-4.088c-0.921,2.055-2.549,3.661-4.919,4.47
			l-1.595-2.269c3.479-1.078,4.986-3.818,5.009-6.604v-2.224h2.875v2.246C795.755,801.7,797.236,804.239,800.561,805.317z
			 M805.212,815.672h-14.038v-6.581h2.92v4.29h11.117L805.212,815.672L805.212,815.672z M804.446,801.498h2.763v2.427h-2.763v6.646
			h-2.875v-14.979h2.875V801.498z"/>
		<path fill="#484848" d="M820.507,804.644L819,806.89c-2.199-0.764-3.692-2.179-4.535-4.021c-0.922,2.135-2.571,3.817-5.031,4.648
			l-1.505-2.291c3.504-1.123,4.984-3.863,5.009-6.716v-1.864h2.896v1.729C815.812,801.116,817.227,803.633,820.507,804.644z
			 M825.402,812.077c-0.021,2.517-2.695,3.952-7.053,3.952c-4.358,0-7.03-1.438-7.03-3.952c0-2.516,2.673-3.977,7.03-3.977
			C822.706,808.102,825.38,809.563,825.402,812.077z M814.173,812.077c0,1.123,1.46,1.729,4.178,1.729s4.2-0.605,4.2-1.729
			c0-1.168-1.482-1.752-4.2-1.752S814.173,810.909,814.173,812.077z M825.337,807.563h-2.854v-5.885h-3.841v-2.336h3.841v-3.751
			h2.854V807.563z"/>
		<path fill="#484848" d="M845.415,799.77h-12.129v-2.224h4.649v-2.066h2.853v2.066h4.627V799.77z M844.383,804.149
			c0,2.201-2.066,3.661-5.031,3.661c-3.01,0-5.076-1.46-5.076-3.661c0-2.179,2.066-3.684,5.076-3.684
			C842.315,800.466,844.383,801.971,844.383,804.149z M849.728,812.414c0,2.245-2.695,3.615-6.896,3.615
			c-4.289,0-6.938-1.369-6.918-3.615c-0.021-2.291,2.629-3.66,6.918-3.66C847.032,808.754,849.728,810.123,849.728,812.414z
			 M837.082,804.149c-0.021,1.012,0.898,1.55,2.271,1.527c1.37,0.021,2.313-0.518,2.313-1.527c0-1.032-0.941-1.595-2.313-1.595
			S837.06,803.116,837.082,804.149z M838.744,812.414c-0.021,0.967,1.415,1.481,4.088,1.481c2.605,0,4.021-0.517,4.021-1.481
			c0-1.012-1.415-1.481-4.021-1.481C840.159,810.933,838.722,811.404,838.744,812.414z M852.153,800.893h-2.648v2.089h2.648v2.336
			h-2.648v3.257h-2.875v-12.98h2.875v2.986h2.648V800.893z"/>
		<path fill="#484848" d="M865.294,804.666l-1.526,2.224c-2.168-0.719-3.686-2.111-4.561-3.908c-0.889,2.066-2.472,3.685-4.808,4.47
			l-1.55-2.245c3.414-1.146,4.874-3.862,4.896-6.671v-1.863h2.875v2.134C860.621,801.274,862.059,803.655,865.294,804.666z
			 M869.584,812.077c0,2.517-2.674,3.952-6.896,3.952c-4.313,0-7.008-1.438-7.008-3.952c0-2.492,2.693-3.952,7.008-3.952
			C866.91,808.125,869.584,809.585,869.584,812.077z M858.555,812.077c-0.022,1.168,1.438,1.707,4.133,1.707
			c2.65,0,4.064-0.539,4.064-1.707c0-1.123-1.414-1.707-4.064-1.707C859.992,810.37,858.532,810.954,858.555,812.077z
			 M869.382,800.375h2.763v2.382h-2.763v4.964h-2.875v-12.129h2.875V800.375z"/>
	</g>
</g>
<g>
	<path fill="#449A70" d="M488.231,675.05c-81.53,0-147.859-66.328-147.859-147.859c0-81.529,66.329-147.856,147.859-147.856
		s147.859,66.328,147.859,147.856C636.092,608.722,569.762,675.05,488.231,675.05z M488.231,382.051
		c-80.031,0-145.141,65.109-145.141,145.14c0,80.031,65.109,145.144,145.141,145.144s145.142-65.11,145.142-145.144
		C633.373,447.16,568.263,382.051,488.231,382.051z"/>
</g>
<g>
	<g>
		<path fill="#3CC583" d="M260.313,454.476L260.313,454.476c-5.353,0-10.645-1.422-15.305-4.112
			c-14.641-8.454-19.674-27.242-11.223-41.881c2.953-5.114,7.276-9.238,12.503-11.926c1.271-0.653,2.224-2.404,2.267-4.163
			c0.015-0.596-0.075-2.054-1.218-2.715l-61.103-35.276c-1.168-0.675-2-1.765-2.34-3.07c-0.341-1.302-0.15-2.654,0.536-3.811
			c31.45-52.932,76.332-96.913,129.789-127.187c51.997-29.446,110.896-45.381,170.327-46.08c2.808,0,5.043,2.243,5.043,5.002v70.56
			c0,3.582-3.686,5.8-7.1,5.8c-1.337,0-2.571-0.341-3.571-0.984c-4.502-2.9-9.727-4.433-15.106-4.433
			c-15.407,0-27.941,12.533-27.941,27.94s12.534,27.941,27.941,27.941c5.382,0,10.606-1.532,15.106-4.432
			c1-0.644,2.234-0.983,3.57-0.983c3.413,0,7.099,2.217,7.099,5.8v70.541c0,2.724-2.234,4.997-4.982,5.067
			c-49.519,1.284-94.461,27.237-120.218,69.421c-0.926,1.521-2.603,2.465-4.374,2.465c-0.878,0-1.746-0.233-2.509-0.674
			l-61.108-35.28c-1.133-0.657-2.818-0.113-4.072,1.204c-0.901,0.945-1.41,2.12-1.359,3.142c0.284,5.871-1.125,11.676-4.076,16.791
			C281.429,448.6,271.246,454.476,260.313,454.476z M484.605,176.972c-121.558,1.431-235.673,67.314-297.838,171.939
			c-0.313,0.524-0.399,1.141-0.244,1.734c0.156,0.598,0.536,1.096,1.069,1.403l61.104,35.277c1.692,0.978,2.631,2.85,2.576,5.135
			c-0.067,2.78-1.571,5.396-3.74,6.513c-4.762,2.448-8.701,6.206-11.392,10.869c-7.703,13.342-3.115,30.463,10.228,38.166
			c4.247,2.452,9.069,3.75,13.944,3.75c9.965,0,19.248-5.354,24.224-13.977c2.69-4.662,3.977-9.95,3.716-15.299
			c-0.086-1.775,0.682-3.651,2.107-5.146c2.134-2.243,5.185-2.96,7.399-1.686l61.107,35.281c1.069,0.618,2.556,0.211,3.202-0.853
			c26.241-42.976,72.024-69.414,122.469-70.724c1.288-0.032,2.335-1.087,2.335-2.35v-70.541c0-1.816-2.309-3.081-4.38-3.081
			c-0.813,0-1.54,0.19-2.1,0.551c-4.939,3.183-10.672,4.863-16.578,4.863c-16.905,0-30.659-13.753-30.659-30.659
			c0-16.905,13.754-30.659,30.659-30.659c5.904,0,11.636,1.683,16.578,4.865c0.56,0.361,1.286,0.552,2.1,0.552
			c2.072,0,4.38-1.266,4.38-3.082v-70.56C486.873,177.997,485.855,176.972,484.605,176.972z"/>
	</g>
	<g>
		<path fill="#3CC583" d="M284.781,703.528c-10.933,0-21.117-5.877-26.579-15.338c-2.952-5.11-4.361-10.916-4.075-16.787
			c0.051-1.02-0.459-2.193-1.36-3.143c-1.254-1.314-2.938-1.863-4.071-1.203l-61.103,35.275c-0.76,0.438-1.625,0.672-2.5,0.672
			c-1.807,0-3.478-0.979-4.358-2.55c-30.116-53.704-45.764-114.563-45.253-175.994c0.497-59.755,16.146-118.729,45.256-170.545
			c0.88-1.566,2.547-2.54,4.35-2.54c0.876,0,1.742,0.231,2.504,0.672l61.105,35.28c1.693,0.977,2.632,2.848,2.578,5.133
			c-0.067,2.781-1.571,5.398-3.741,6.515c-4.762,2.449-8.701,6.206-11.392,10.867c-7.703,13.342-3.115,30.463,10.228,38.166
			c4.248,2.455,9.07,3.75,13.944,3.75c9.966,0,19.249-5.356,24.224-13.977c2.691-4.656,3.977-9.946,3.716-15.297
			c-0.086-1.775,0.682-3.652,2.107-5.148c2.134-2.241,5.183-2.962,7.399-1.684l61.09,35.271c2.357,1.364,3.208,4.438,1.896,6.848
			c-23.646,43.526-23.642,95.426,0.014,138.826c1.318,2.416,0.471,5.49-1.892,6.852l-61.107,35.285
			c-1.144,0.658-1.233,2.117-1.22,2.713c0.042,1.761,0.996,3.514,2.268,4.164c5.226,2.688,9.548,6.813,12.502,11.922
			c8.452,14.643,3.418,33.432-11.222,41.884C295.424,702.104,290.132,703.528,284.781,703.528z M249.792,664.052
			c1.729,0,3.529,0.852,4.942,2.334c1.426,1.496,2.194,3.373,2.109,5.149c-0.263,5.351,1.022,10.64,3.713,15.297
			c4.978,8.619,14.259,13.978,24.225,13.978c4.875,0,9.697-1.297,13.944-3.75c13.342-7.701,17.93-24.826,10.228-38.168
			c-2.691-4.66-6.631-8.416-11.392-10.863c-2.171-1.116-3.674-3.734-3.74-6.518c-0.055-2.285,0.885-4.156,2.578-5.133l61.107-35.283
			c1.095-0.631,1.481-2.065,0.863-3.194c-24.099-44.218-24.104-97.087-0.016-141.428c0.615-1.13,0.226-2.564-0.868-3.197
			l-61.089-35.27c-1.133-0.654-2.818-0.112-4.072,1.205c-0.9,0.947-1.41,2.121-1.358,3.141c0.283,5.873-1.125,11.679-4.077,16.79
			c-5.459,9.458-15.645,15.333-26.577,15.335c-5.352,0.001-10.644-1.422-15.304-4.112c-14.641-8.454-19.675-27.241-11.224-41.881
			c2.953-5.113,7.276-9.236,12.503-11.924c1.271-0.654,2.225-2.405,2.267-4.165c0.015-0.596-0.076-2.053-1.219-2.712l-61.105-35.28
			c-1.069-0.619-2.531-0.213-3.125,0.846c-59.526,105.963-59.527,237.729-0.002,343.881c0.595,1.059,2.06,1.467,3.13,0.852
			l61.102-35.273C248.084,664.272,248.912,664.052,249.792,664.052z"/>
	</g>
	<g>
		<path fill="#3CC583" d="M484.592,880.123L484.592,880.123c-0.005,0-0.052,0-0.058,0c-61.567-0.771-122.098-17.647-175.044-48.808
			c-51.5-30.311-94.75-73.352-125.07-124.473c-0.683-1.15-0.873-2.496-0.532-3.793c0.341-1.306,1.173-2.396,2.343-3.072
			l61.104-35.281c2.214-1.28,5.265-0.557,7.399,1.688c1.425,1.496,2.192,3.373,2.105,5.146c-0.26,5.352,1.025,10.643,3.716,15.305
			c4.977,8.618,14.259,13.975,24.225,13.975c4.876-0.002,9.697-1.297,13.943-3.75c6.464-3.729,11.087-9.756,13.02-16.967
			c1.933-7.209,0.94-14.738-2.792-21.199c-2.691-4.662-6.631-8.422-11.392-10.869c-2.17-1.117-3.674-3.732-3.74-6.514
			c-0.056-2.285,0.884-4.156,2.577-5.133l61.089-35.271c0.764-0.439,1.633-0.674,2.512-0.674c1.768,0,3.44,0.939,4.368,2.455
			c25.872,42.244,70.817,68.188,120.23,69.397c2.754,0.073,4.993,2.347,4.993,5.067v70.563c0,0.998,0.685,1.698,1.26,2.11
			c1.475,1.058,3.897,1.271,5.221,0.42c4.941-3.184,10.676-4.866,16.579-4.866c16.906,0,30.659,13.756,30.659,30.659
			c0,16.906-13.753,30.66-30.659,30.66c-5.906,0-11.64-1.682-16.579-4.865c-0.561-0.359-1.285-0.551-2.1-0.551
			c-2.071,0-4.381,1.267-4.381,3.082v70.555c0,1.337-0.521,2.591-1.464,3.537C487.182,879.604,485.927,880.123,484.592,880.123z
			 M249.792,666.767c-0.397,0-0.768,0.096-1.097,0.285l-61.104,35.28c-0.535,0.31-0.917,0.81-1.072,1.403
			c-0.154,0.591-0.068,1.201,0.242,1.725c62.002,104.534,176.116,170.422,297.809,171.943l0.024,1.359v-1.359
			c0.606,0,1.179-0.234,1.609-0.668c0.433-0.434,0.67-1.008,0.67-1.617v-70.555c0-3.582,3.685-5.801,7.099-5.801
			c1.337,0,2.569,0.342,3.569,0.983c4.503,2.897,9.727,4.433,15.107,4.433c15.407,0,27.941-12.533,27.941-27.941
			c0-15.405-12.534-27.939-27.941-27.939c-5.381,0-10.604,1.532-15.107,4.434c-2.254,1.449-5.915,1.193-8.274-0.496
			c-1.543-1.105-2.394-2.641-2.394-4.318v-70.563c0-1.262-1.052-2.314-2.344-2.35c-50.336-1.234-96.124-27.662-122.479-70.697
			c-0.653-1.065-2.125-1.472-3.203-0.847l-61.089,35.271c-1.145,0.66-1.233,2.117-1.22,2.713c0.042,1.76,0.996,3.512,2.268,4.162
			c5.226,2.688,9.548,6.813,12.503,11.928c4.094,7.094,5.182,15.354,3.062,23.266c-2.119,7.91-7.192,14.521-14.284,18.617
			c-4.659,2.688-9.951,4.107-15.304,4.109c-10.934,0-21.118-5.875-26.579-15.334c-2.951-5.111-4.36-10.922-4.076-16.791
			c0.05-1.021-0.459-2.193-1.358-3.141C251.877,667.325,250.766,666.767,249.792,666.767z"/>
	</g>
	<g>
		<path fill="#3CC583" d="M491.857,880.134c-2.749,0-4.985-2.244-4.985-5.002V804.57c0-3.582,3.685-5.799,7.099-5.799
			c1.336,0,2.569,0.34,3.569,0.982c4.503,2.898,9.727,4.432,15.106,4.432c15.406,0,27.942-12.531,27.942-27.938
			c0-15.405-12.536-27.94-27.942-27.94c-5.379,0-10.604,1.533-15.106,4.432c-1,0.645-2.233,0.982-3.569,0.982
			c-3.414,0-7.099-2.217-7.099-5.799v-70.543c0-2.768,2.188-4.99,4.983-5.064c49.52-1.283,94.46-27.235,120.218-69.426
			c0.927-1.518,2.604-2.459,4.374-2.459c0.879,0,1.747,0.23,2.509,0.67l61.108,35.281c1.131,0.652,2.816,0.111,4.072-1.203
			c0.898-0.947,1.408-2.121,1.357-3.142c-0.283-5.876,1.125-11.681,4.075-16.79c5.462-9.461,15.646-15.336,26.581-15.336
			c5.352,0,10.643,1.423,15.302,4.113c14.644,8.451,19.677,27.24,11.225,41.881c-2.953,5.113-7.276,9.236-12.505,11.927
			c-1.271,0.651-2.224,2.401-2.268,4.159c-0.014,0.6,0.076,2.059,1.219,2.718l61.104,35.276c1.167,0.672,1.997,1.763,2.34,3.066
			c0.34,1.303,0.15,2.655-0.535,3.813c-31.452,52.936-76.333,96.914-129.789,127.189c-51.997,29.446-110.896,45.381-170.327,46.08
			C491.91,880.134,491.863,880.134,491.857,880.134z M493.969,801.489c-2.07,0-4.379,1.268-4.379,3.082v70.563
			c0,1.26,1.017,2.283,2.268,2.283v1.357l0.025-1.357c121.528-1.432,235.646-67.313,297.813-171.938
			c0.313-0.524,0.396-1.143,0.242-1.736c-0.156-0.598-0.536-1.094-1.069-1.4l-61.102-35.277c-1.694-0.977-2.632-2.85-2.576-5.137
			c0.067-2.779,1.569-5.396,3.739-6.513c4.762-2.448,8.702-6.205,11.393-10.866c7.704-13.343,3.116-30.466-10.228-38.168
			c-4.246-2.453-9.069-3.748-13.942-3.748c-9.967,0-19.25,5.354-24.227,13.977c-2.69,4.656-3.976,9.947-3.714,15.297
			c0.086,1.775-0.685,3.65-2.107,5.146c-2.134,2.242-5.187,2.963-7.4,1.686l-61.105-35.281c-1.067-0.615-2.555-0.213-3.203,0.854
			c-26.24,42.979-72.021,69.418-122.468,70.725c-1.288,0.033-2.337,1.089-2.337,2.35v70.543c0,1.814,2.31,3.082,4.381,3.082
			c0.813,0,1.54-0.189,2.1-0.552c4.942-3.185,10.676-4.862,16.578-4.862c16.904,0,30.66,13.752,30.66,30.658
			c0,16.904-13.756,30.656-30.66,30.656c-5.904,0-11.638-1.682-16.578-4.863C495.51,801.679,494.784,801.489,493.969,801.489z"/>
	</g>
	<g>
		<path fill="#3CC583" d="M791.377,703.011L791.377,703.011c-0.875,0-1.741-0.232-2.504-0.672l-61.104-35.281
			c-1.693-0.979-2.632-2.849-2.576-5.131c0.065-2.779,1.568-5.398,3.738-6.517c4.763-2.448,8.699-6.21,11.391-10.869
			c3.733-6.461,4.728-13.989,2.793-21.2c-1.931-7.207-6.554-13.231-13.018-16.966c-4.248-2.45-9.069-3.75-13.943-3.75
			c-9.966,0-19.249,5.354-24.226,13.976c-2.69,4.658-3.976,9.949-3.714,15.299c0.086,1.775-0.686,3.652-2.108,5.148
			c-2.135,2.241-5.181,2.963-7.398,1.686l-61.088-35.271c-2.396-1.384-3.23-4.392-1.898-6.851
			c23.648-43.526,23.646-95.424-0.008-138.819c-1.32-2.417-0.476-5.494,1.887-6.858l61.107-35.281
			c1.146-0.66,1.234-2.118,1.221-2.716c-0.044-1.758-0.997-3.508-2.268-4.161c-5.228-2.688-9.549-6.811-12.503-11.925
			c-4.094-7.093-5.182-15.354-3.061-23.265c2.118-7.91,7.19-14.521,14.283-18.615c4.661-2.69,9.951-4.113,15.304-4.113
			c10.932,0,21.115,5.875,26.576,15.333c2.95,5.114,4.359,10.92,4.075,16.791c-0.052,1.021,0.458,2.195,1.358,3.141
			c1.254,1.315,2.938,1.858,4.073,1.206l61.103-35.278c0.761-0.438,1.625-0.67,2.5-0.67c1.808,0,3.479,0.976,4.361,2.547
			c30.115,53.703,45.764,114.563,45.252,175.995c-0.497,59.756-16.146,118.729-45.258,170.551
			C794.848,702.035,793.18,703.011,791.377,703.011z M716.151,599.907c5.352,0,10.643,1.422,15.303,4.113
			c7.095,4.094,12.165,10.705,14.284,18.615c2.12,7.912,1.031,16.174-3.063,23.264c-2.951,5.113-7.274,9.238-12.503,11.927
			c-1.271,0.653-2.224,2.405-2.267,4.163c-0.014,0.598,0.076,2.052,1.219,2.714l61.106,35.28c1.063,0.615,2.529,0.213,3.123-0.844
			c59.528-105.965,59.531-237.734,0.005-343.884c-0.595-1.059-2.06-1.468-3.132-0.854l-61.104,35.278
			c-2.216,1.276-5.266,0.557-7.397-1.686c-1.425-1.496-2.193-3.373-2.106-5.147c0.261-5.348-1.023-10.638-3.716-15.299
			c-4.977-8.62-14.259-13.975-24.222-13.975c-4.875,0-9.696,1.297-13.943,3.748c-6.465,3.732-11.088,9.757-13.02,16.966
			c-1.934,7.209-0.941,14.738,2.791,21.201c2.689,4.662,6.629,8.42,11.39,10.868c2.17,1.115,3.674,3.732,3.742,6.512
			c0.056,2.286-0.886,4.158-2.577,5.137l-61.108,35.279c-1.094,0.634-1.479,2.069-0.859,3.203
			c24.098,44.211,24.103,97.078,0.012,141.418c-0.625,1.152-0.243,2.561,0.869,3.199l61.089,35.271
			c1.137,0.657,2.817,0.109,4.07-1.203c0.9-0.945,1.411-2.121,1.359-3.145c-0.283-5.873,1.125-11.68,4.075-16.789
			C695.034,605.782,705.219,599.907,716.151,599.907z"/>
	</g>
	<g>
		<path fill="#3CC583" d="M616.462,453.95c-1.768,0-3.44-0.941-4.366-2.459c-25.871-42.238-70.817-68.185-120.231-69.397
			c-2.752-0.068-4.991-2.341-4.991-5.065v-70.563c0-1.816-2.309-3.081-4.38-3.081c-0.813,0-1.54,0.189-2.1,0.551
			c-4.941,3.183-10.675,4.864-16.579,4.864c-16.905,0-30.658-13.754-30.658-30.659s13.753-30.658,30.658-30.658
			c5.905,0,11.638,1.683,16.579,4.864c0.56,0.361,1.286,0.551,2.1,0.551c2.071,0,4.38-1.266,4.38-3.082v-73.417
			c0-1.194,0.974-2.167,2.168-2.167c62.229,0.141,123.379,16.726,176.849,47.961c51.877,30.307,95.499,73.647,126.151,125.34
			c0.684,1.152,0.871,2.503,0.531,3.8c-0.342,1.304-1.172,2.395-2.342,3.068l-61.106,35.281c-0.747,0.431-1.572,0.65-2.456,0.65l0,0
			c-1.725,0-3.523-0.852-4.938-2.333c-1.428-1.497-2.196-3.374-2.111-5.149c0.262-5.35-1.022-10.639-3.713-15.301
			c-4.979-8.619-14.262-13.974-24.226-13.974c-4.875,0-9.695,1.296-13.942,3.747c-13.344,7.703-17.931,24.826-10.229,38.168
			c2.688,4.66,6.629,8.417,11.39,10.866c2.17,1.115,3.674,3.732,3.742,6.514c0.056,2.286-0.885,4.158-2.577,5.136l-61.089,35.271
			C618.214,453.718,617.344,453.95,616.462,453.95z M482.492,300.666c3.413,0,7.099,2.217,7.099,5.8v70.563
			c0,1.264,1.051,2.316,2.341,2.35c50.339,1.236,96.127,27.665,122.479,70.695c0.656,1.071,2.127,1.47,3.205,0.851l61.087-35.271
			c1.146-0.66,1.233-2.118,1.222-2.716c-0.045-1.759-0.997-3.51-2.268-4.163c-5.228-2.688-9.549-6.811-12.503-11.923
			c-8.451-14.641-3.417-33.429,11.226-41.882c4.659-2.689,9.948-4.111,15.302-4.111c10.931,0,21.116,5.875,26.579,15.334
			c2.95,5.115,4.357,10.92,4.073,16.79c-0.05,1.021,0.459,2.197,1.363,3.145c1.254,1.315,2.938,1.858,4.068,1.203l61.104-35.28
			c0.535-0.308,0.916-0.807,1.071-1.404c0.155-0.589,0.069-1.202-0.239-1.724c-62.638-105.638-177.601-171.493-300.11-171.97v72.864
			c0,3.582-3.685,5.8-7.099,5.8c-1.336,0-2.57-0.341-3.57-0.984c-4.501-2.899-9.727-4.432-15.107-4.432
			c-15.406,0-27.94,12.533-27.94,27.939s12.534,27.941,27.94,27.941c5.381,0,10.605-1.532,15.107-4.433
			C479.921,301.006,481.155,300.666,482.492,300.666z"/>
	</g>
	<g>
		<path fill="#3CC583" d="M568.807,610.579c-0.101,0-0.195-0.01-0.288-0.027h-69.414c-0.188,0.039-0.392,0.039-0.576,0h-31.982
			c-0.094,0.021-0.189,0.027-0.288,0.027h-58.602c-0.751,0-1.358-0.605-1.358-1.355v-40.287c0-11.045,5.867-20.741,14.649-26.141
			v-44.83c-4.508-4.257-7.326-10.285-7.326-16.961c0-12.865,10.468-23.334,23.334-23.334c5.922,0,11.333,2.217,15.452,5.861
			l56.79-9.129c0.314-0.052,0.619,0.01,0.874,0.153c3.732-6.42,10.687-10.745,18.63-10.745c11.874,0,21.533,9.659,21.533,21.531
			c0,7.658-4.017,14.393-10.055,18.213c0.069,0.146,0.116,0.309,0.132,0.479l1.646,20.013l6.779-0.488
			c0.737-0.045,1.402,0.51,1.453,1.258c0.057,0.748-0.508,1.399-1.256,1.453l-15.105,1.088l1.697,20.623
			c0.063,0.748-0.496,1.404-1.243,1.467c-0.763,0.05-1.405-0.496-1.468-1.244l-1.697-20.649l-6.907,0.497
			c-0.144,0.064-0.3,0.107-0.468,0.125c-0.178,0.015-0.348-0.007-0.508-0.057l-8.174,0.59c-0.745,0.042-1.398-0.512-1.452-1.26
			c-0.054-0.75,0.51-1.399,1.258-1.455l7.291-0.521l-1.634-19.843c-0.01-0.123-0.004-0.242,0.019-0.356
			c-7.841-3.223-13.373-10.94-13.373-19.931c0-2.87,0.563-5.61,1.588-8.117l-54.021,8.685c3.46,4.072,5.553,9.346,5.553,15.096
			c0,0.854-0.048,1.697-0.138,2.532l47.924-7.712c0.738-0.127,1.438,0.385,1.56,1.125c0.119,0.74-0.385,1.438-1.125,1.56
			l-48.842,7.856c-1.064,4.511-3.441,8.518-6.704,11.599v44.831c8.782,5.396,14.649,15.096,14.649,26.142v38.896h29.843v-14.102
			c0.058-4.191,3.473-7.551,7.633-7.551c0.035,0,0.066,0,0.102,0h5.515l21.891-43.205c0.462-0.912,1.961-0.912,2.424,0
			l21.897,43.205h5.524c2.065-0.012,3.949,0.738,5.412,2.162c1.461,1.422,2.282,3.33,2.312,5.369v15.479l0,0l0,0v0.031
			C570.165,609.974,569.558,610.579,568.807,610.579z M500.175,607.831h67.271v-14.1c-0.019-1.295-0.547-2.525-1.487-3.438
			c-0.94-0.919-2.184-1.387-3.495-1.396h-6.362c-0.006,0-0.012,0-0.02,0h-44.543c-0.004,0-0.005,0-0.007,0h-6.357
			c-2.758-0.029-4.963,2.144-5,4.853V607.831L500.175,607.831z M409.016,607.831h55.882v-33.904h-55.882V607.831z M513.753,586.183
			h40.117l-20.063-39.584L513.753,586.183z M409.016,571.209h55.882v-2.272c0-15.407-12.534-27.942-27.941-27.942
			c-15.406,0-27.94,12.535-27.94,27.942V571.209L409.016,571.209z M436.957,538.277c4.76,0,9.269,1.09,13.291,3.032v-41.135
			c-3.772,2.623-8.354,4.163-13.291,4.163c-4.936,0-9.517-1.539-13.291-4.163v41.135
			C427.688,539.366,432.197,538.277,436.957,538.277z M523.302,486.191l1.569,19.086l7.392-0.529
			c0.004-0.002,0.008-0.002,0.012-0.002l6.977-0.502l-1.592-19.316c-2.729,1.253-5.764,1.952-8.956,1.952
			C526.839,486.878,525.027,486.64,523.302,486.191z M436.957,460.388c-11.368,0-20.616,9.248-20.616,20.617
			c0,11.365,9.248,20.613,20.616,20.613s20.616-9.248,20.616-20.613C457.572,469.636,448.324,460.388,436.957,460.388z
			 M528.702,446.529c-10.374,0-18.813,8.441-18.813,18.814c0,10.376,8.438,18.814,18.813,18.814s18.815-8.438,18.815-18.814
			C547.518,454.97,539.076,446.529,528.702,446.529z M505.884,545.854c-0.3,0-0.604-0.098-0.854-0.301
			c-0.584-0.473-0.676-1.326-0.205-1.91l5.619-6.967c0.47-0.584,1.326-0.68,1.911-0.203c0.584,0.472,0.676,1.326,0.205,1.91
			l-5.619,6.967C506.675,545.683,506.279,545.854,505.884,545.854z M565.646,540.368c-0.288,0-0.577-0.09-0.825-0.277l-7.107-5.438
			c-0.598-0.455-0.711-1.309-0.255-1.903c0.456-0.597,1.309-0.71,1.904-0.255l7.109,5.438c0.596,0.453,0.71,1.308,0.254,1.902
			C566.461,540.188,566.056,540.368,565.646,540.368z M508.515,521.772c-0.151,0-0.309-0.024-0.458-0.079l-9.633-3.438
			c-0.707-0.255-1.073-1.031-0.822-1.738c0.254-0.705,1.031-1.074,1.736-0.822l9.634,3.441c0.706,0.252,1.075,1.028,0.821,1.735
			C509.596,521.426,509.072,521.772,508.515,521.772z M557.383,517.59c-0.442,0-0.874-0.215-1.138-0.61
			c-0.413-0.627-0.238-1.47,0.389-1.883l8.541-5.627c0.627-0.414,1.469-0.239,1.882,0.387c0.413,0.628,0.239,1.47-0.389,1.884
			l-8.54,5.627C557.898,517.519,557.638,517.59,557.383,517.59z M436.957,485.501c-2.769,0-5.021-2.254-5.021-5.021
			s2.253-5.021,5.021-5.021s5.021,2.252,5.021,5.021S439.725,485.501,436.957,485.501z M436.957,478.177
			c-1.27,0-2.304,1.033-2.304,2.303c0,1.271,1.034,2.304,2.304,2.304c1.271,0,2.305-1.032,2.305-2.304
			C439.26,479.21,438.227,478.177,436.957,478.177z"/>
	</g>
</g>
<path fill="#EA8B22" d="M291.487,377.054l5.502,0.881c0,0,0-20.249,13.206-34.555c12.975-14.054,32.956-22.373,39.081-30.383
	c0.11-0.144,0.216-0.288,0.316-0.431c5.722-8.144,1.76,5.062-5.724,10.784c-7.482,5.724-35.876,31.253-34.774,41.817
	c0,0,10.785,3.082,21.568,3.082c10.785,0,51.063-6.604,51.063-56.124c0-31.693-6.383-36.976-6.383-36.976
	s-3.522,6.603-34.775,14.306s-46,23.77-46,48.42C294.568,362.528,299.412,358.786,291.487,377.054z"/>
</svg>
