<?xml version="1.0" encoding="utf-8"?>
<!-- Generator: Adobe Illustrator 16.0.0, SVG Export Plug-In . SVG Version: 6.00 Build 0)  -->
<!DOCTYPE svg PUBLIC "-//W3C//DTD SVG 1.1//EN" "http://www.w3.org/Graphics/SVG/1.1/DTD/svg11.dtd">
<svg version="1.1" id="Layer_1" xmlns="http://www.w3.org/2000/svg" xmlns:xlink="http://www.w3.org/1999/xlink" x="0px" y="0px"
	 width="1100px" height="552.5px" viewBox="0 83.5 1100 552.5" enable-background="new 0 83.5 1100 552.5" xml:space="preserve">
<g id="g-root-cp_0f_g-0f_1ut0va91n5v1mp-fill" transform="translate(98, 388.9999694824219)">
</g>
<g id="g-root-cp_0e_g-0e_1ut0va91n5v1mv-fill" transform="translate(14, 388.9999694824219)">
</g>
<g id="g-root-cp_0d_g-0d_1qd7d5t1n5v2f8-fill" transform="translate(24, 566)">
</g>
<g id="g-root-cp_0c_g-0c_1ly0c4h1n5v01w-fill" transform="translate(14, 505.9999694824219)">
</g>
<g id="g-root-cp_0b_g-0b_1hi6u011n5v0u9-fill" transform="translate(112, 505.9999694824219)">
</g>
<g id="g-root-cp_0a_g-0a_1hi6u011n5v0ud-fill" transform="translate(50, 301.9999694824219)">
</g>
<g id="g-root-cp_5_g-5_1hi6u011n5v0ug-fill" transform="translate(724.4580078125, 325.9999694824219)">
</g>
<g id="g-root-cp_4_g-4_1d2dbvl1n5v1mq-fill" transform="translate(564.4600219726562, 361.9999694824219)">
</g>
<g id="g-root-cp_3_g-3_1d2dbvl1n5v1ms-fill" transform="translate(401.9209899902344, 397.9999694824219)">
</g>
<g id="g-root-cp_2_g-2_146qbmp1n5v2fi-fill" transform="translate(242, 433.9999694824219)">
</g>
<g id="g-root-cp_1_g-1_18mjtr51n5v2f4-fill" transform="translate(86.20999145507812, 469.9999694824219)">
</g>
<g id="g-root-ic_tras_vbpsgx1n5v0ub-fill" transform="translate(74, 301.9999694824219)">
</g>
<g id="g-root-tx__hyduu91n5xu6n-fill" transform="translate(242, 313.9999694824219)">
	<g id="tx__hyduu91n5xu6n-fill">
		<g>
			<g enable-background="new    ">
				<path fill="#484848" d="M41.784,23.86h-1.685v9.3c0.74-0.034,1.46-0.102,2.11-0.181l0.136,1.325
					c-3.146,0.517-7.322,0.606-9.95,0.629l-0.226-1.527l2.111-0.021V23.86h-1.685v-1.481h9.187L41.784,23.86L41.784,23.86z
					 M38.482,33.272V23.86h-2.583v9.501C36.741,33.339,37.617,33.316,38.482,33.272z M45.692,38.752H44.03v-7.524h-2.718v-1.46
					h2.718v-2.763h-2.718v-1.46h2.718v-5.211h1.662V38.752z M49.578,39.808h-1.707V19.84h1.707V39.808z"/>
				<path fill="#484848" d="M53.486,36.057l-0.966-1.438c5.402-2.562,8.153-6.392,8.558-11.163h-7.637v-1.438h9.434
					C62.852,27.769,60.179,32.845,53.486,36.057z M68.782,39.808h-1.773V19.84h1.773V39.808z"/>
				<path fill="#484848" d="M90.344,29.723h-8.243V31.7h5.907v4.47H76.149v2.021h12.466v1.394H74.397v-4.739h11.882v-1.774H74.352
					v-1.369h5.997v-1.978h-8.198v-1.438h18.193V29.723z M87.986,26.601H74.51v-6.087h13.477V26.601z M76.261,25.186h9.973v-3.257
					h-9.973V25.186z"/>
				<path fill="#484848" d="M108.066,33.631l-1.056,1.37c-2.021-1.102-3.403-3.077-4.11-5.525c-0.685,2.785-2.089,4.964-4.2,6.199
					l-1.101-1.348c2.875-1.572,4.402-4.986,4.402-9.029v-1.595H98.07v-1.482h9.344v1.482h-3.705v1.595
					C103.708,28.959,105.214,32.171,108.066,33.631z M114.962,39.808h-1.707V29.431h-2.719v9.366h-1.685v-18.53h1.685v7.659h2.719
					V19.84h1.707V39.808z"/>
				<path fill="#484848" d="M129.539,33.743l-1.077,1.415c-2.201-1.156-4.043-3.517-4.919-6.289
					c-0.898,2.952-2.785,5.469-5.031,6.671l-1.123-1.415c2.92-1.438,5.232-5.278,5.256-8.917v-3.64h1.729v3.64
					C124.373,28.734,126.708,32.351,129.539,33.743z M133.133,27.948h3.347v1.527h-3.347v10.332h-1.752V19.84h1.752V27.948z"/>
				<path fill="#484848" d="M155.75,31.183h-18.192v-1.46h4.515v-2.808c-1.595-0.618-2.493-1.641-2.493-2.987
					c0-2.358,2.695-3.706,7.075-3.706c4.335,0,7.053,1.348,7.053,3.706c0,1.336-0.887,2.358-2.471,2.965v2.83h4.516v1.46H155.75z
					 M153.527,36.236c-0.021,2.27-2.583,3.526-6.873,3.526c-4.335,0-6.896-1.258-6.896-3.526c0-2.291,2.561-3.525,6.896-3.525
					C150.944,32.71,153.505,33.945,153.527,36.236z M141.398,23.928c-0.021,1.46,1.999,2.313,5.256,2.313
					c3.234,0,5.256-0.854,5.256-2.313c0-1.438-2.021-2.313-5.256-2.313C143.397,21.614,141.375,22.49,141.398,23.928z
					 M141.555,36.236c-0.022,1.349,1.887,2.156,5.099,2.156c3.167,0,5.1-0.809,5.1-2.156c0-1.37-1.933-2.155-5.1-2.179
					C143.442,34.08,141.533,34.866,141.555,36.236z M149.484,29.723v-2.336c-0.842,0.146-1.786,0.225-2.83,0.225
					s-1.988-0.077-2.83-0.225v2.336H149.484z"/>
			</g>
		</g>
	</g>
</g>
<g id="g-root-tx__90vfc11n5za4r-fill" transform="translate(410, 301.9999694824219)">
	<g id="tx__90vfc11n5za4r-fill">
		<g>
			<g enable-background="new    ">
				<path fill="#484848" d="M66.541,17.931h-1.276v7.05c0.562-0.024,1.105-0.077,1.601-0.137l0.103,1.005
					c-2.385,0.392-5.552,0.46-7.543,0.478l-0.17-1.157l1.601-0.019v-7.22h-1.277v-1.124h6.966v1.124H66.541z M64.038,25.065V17.93
					H62.08v7.203C62.719,25.116,63.383,25.1,64.038,25.065z M69.505,29.221h-1.261v-5.705h-2.061V22.41h2.061v-2.096h-2.061v-1.105
					h2.061v-3.951h1.261V29.221z M72.45,30.021h-1.294V14.882h1.294V30.021z"/>
				<path fill="#484848" d="M75.407,27.177l-0.731-1.09c4.096-1.941,6.182-4.845,6.487-8.463h-5.79v-1.09h7.152
					C82.509,20.894,80.482,24.742,75.407,27.177z M87.005,30.021h-1.346V14.882h1.346V30.021z"/>
				<path fill="#484848" d="M103.346,22.375h-6.25v1.499h4.479v3.389h-8.99v1.532h9.45v1.056H91.256v-3.593h9.008v-1.346h-9.042
					v-1.038h4.547v-1.499h-6.216v-1.09h13.793L103.346,22.375L103.346,22.375z M101.558,20.008H91.341v-4.614h10.217L101.558,20.008
					L101.558,20.008z M92.67,18.936h7.561v-2.47H92.67V18.936z"/>
				<path fill="#484848" d="M114.546,29.255h-1.277v-7.356h-1.941c-0.145,2.945-1.396,4.785-3.27,4.785
					c-1.976,0-3.252-2.044-3.252-5.263c0-3.218,1.276-5.262,3.252-5.262c1.839,0,3.083,1.779,3.252,4.632h1.958v-5.585h1.277
					L114.546,29.255L114.546,29.255z M106.064,21.421c-0.017,2.453,0.766,4.002,1.992,3.984c1.226,0.018,2.009-1.531,2.009-3.984
					c0-2.469-0.783-4.001-2.009-4.001C106.83,17.42,106.048,18.952,106.064,21.421z M117.594,30.021H116.3V14.882h1.294V30.021z"/>
				<path fill="#484848" d="M128.963,25.457l-0.801,1.09c-1.72-0.886-3.142-2.699-3.813-4.854c-0.672,2.266-2.094,4.206-3.814,5.125
					l-0.868-1.071c2.214-1.091,3.984-4.002,3.984-6.795v-2.76h1.362v2.76C125.011,21.694,126.765,24.452,128.963,25.457z
					 M132.231,30.055h-1.328V21.15h-3.593v-1.09h3.593v-5.178h1.328V30.055z"/>
				<path fill="#484848" d="M148.18,25.679l-0.767,1.056c-1.702-0.825-3.143-2.631-3.813-4.683
					c-0.698,2.229-2.223,4.188-3.917,5.058l-0.817-1.056c2.181-1.057,4.054-3.935,4.07-6.522v-1.976h-3.525V16.45h8.242v1.105
					h-3.406v1.976C144.229,21.966,145.983,24.64,148.18,25.679z M150.837,21.013h2.537v1.141h-2.537v7.867h-1.328V14.882h1.328
					V21.013z"/>
				<path fill="#484848" d="M163.961,21.473l0.085,0.971c-1.354,0.213-2.769,0.35-4.154,0.427v2.997h-1.346v-2.931
					c-1.533,0.068-2.988,0.077-4.259,0.068l-0.188-1.09C156.927,21.898,160.707,21.881,163.961,21.473z M162.818,18.151
					c-0.017,1.618-1.532,2.623-3.746,2.623c-2.229,0-3.746-1.005-3.746-2.623c0-1.583,1.517-2.639,3.746-2.639
					C161.286,15.513,162.802,16.568,162.818,18.151z M167.043,29.697h-10.764V25.27h1.346v3.304h9.418V29.697z M156.604,18.151
					c-0.018,0.988,0.988,1.636,2.469,1.636c1.432,0,2.453-0.646,2.47-1.636c-0.017-0.97-1.038-1.635-2.47-1.616
					C157.593,16.517,156.587,17.182,156.604,18.151z M166.669,26.394h-1.347v-1.565h-3.133v-0.972h3.133V14.9h1.347V26.394z"/>
				<path fill="#484848" d="M173.678,25.491c1.678-0.06,3.396-0.17,4.973-0.356l0.068,1.005c-3.187,0.493-6.744,0.563-9.451,0.545
					l-0.17-1.106c0.996-0.009,2.103-0.018,3.27-0.052v-4.632h1.312L173.678,25.491L173.678,25.491z M177.646,17.352
					c-0.017,1.192-0.017,3.201-0.442,6.011l-1.346-0.118c0.408-2.537,0.443-4.376,0.443-5.585h-6.354v-1.091h7.697L177.646,17.352
					L177.646,17.352z M180.932,21.217h2.453v1.158h-2.453v7.646h-1.328V14.882h1.328V21.217z"/>
			</g>
			<g enable-background="new    ">
				<path fill="#484848" d="M69.351,50.172h-1.277v-7.356h-1.94c-0.146,2.945-1.396,4.785-3.271,4.785
					c-1.975,0-3.252-2.044-3.252-5.263c0-3.218,1.277-5.262,3.252-5.262c1.839,0,3.083,1.779,3.252,4.632h1.958v-5.585h1.277
					L69.351,50.172L69.351,50.172z M60.871,42.338c-0.017,2.453,0.767,4.002,1.992,3.984c1.227,0.018,2.01-1.531,2.01-3.984
					c0-2.469-0.783-4.001-2.01-4.001C61.637,38.337,60.854,39.869,60.871,42.338z M72.399,50.938h-1.294V35.799h1.294V50.938z"/>
				<path fill="#484848" d="M76.668,46.17c2.307-0.025,4.367-0.146,6.641-0.613l0.17,1.107c-2.418,0.492-4.547,0.63-6.999,0.63
					h-1.158v-9.792h1.347V46.17z M87.055,50.972h-1.345v-9.059h-4.718v-1.107h4.718v-5.007h1.345V50.972z"/>
				<path fill="#484848" d="M99.072,46.596l-0.75,1.056c-1.771-0.809-3.304-2.555-4.001-4.647c-0.715,2.222-2.24,4.154-3.968,5.022
					l-0.801-1.056c2.163-1.039,4.053-3.9,4.069-6.522v-1.976h-3.575v-1.105h8.53v1.105h-3.609v1.976
					C94.969,43.02,96.842,45.625,99.072,46.596z M102.035,50.938h-1.345V35.799h1.345V50.938z"/>
				<path fill="#484848" d="M118.462,43.888H104.6v-1.056h13.861V43.888z M116.725,48.315h-9.094v1.447h9.587v0.971h-10.934v-3.338
					h9.11v-1.294h-9.127v-1.005h10.456L116.725,48.315L116.725,48.315z M116.674,39.393h-8.94v1.328h9.212v0.971h-10.541v-3.219
					h8.923V37.23h-8.974v-0.971h10.319L116.674,39.393L116.674,39.393z"/>
				<path fill="#484848" d="M128.45,46.834v-1.651c-1.813-0.196-2.997-1.227-2.979-2.742c-0.018-1.703,1.448-2.81,3.627-2.81
					s3.661,1.105,3.661,2.81c0,1.499-1.175,2.529-2.963,2.726v1.618c1.465-0.061,2.945-0.172,4.342-0.357l0.103,1.021
					c-3.372,0.546-7.084,0.597-9.894,0.597l-0.204-1.142C125.436,46.894,126.918,46.885,128.45,46.834z M133.746,38.763h-9.279
					v-1.09h3.983v-1.856h1.346v1.856h3.95V38.763z M126.714,42.44c0,1.057,0.987,1.737,2.384,1.721
					c1.413,0.018,2.384-0.664,2.384-1.721c0-1.056-0.971-1.771-2.384-1.771C127.701,40.67,126.714,41.385,126.714,42.44z
					 M136.47,50.938h-1.328V35.799h1.328V50.938z"/>
				<path fill="#484848" d="M152.914,45.455h-6.267v5.481h-1.312v-5.481h-6.216v-1.124h13.793L152.914,45.455L152.914,45.455z
					 M152.232,41.572l-0.545,1.091c-2.35-0.393-4.674-1.694-5.652-3.561c-0.971,1.874-3.305,3.168-5.653,3.561l-0.545-1.091
					c2.725-0.375,5.5-2.196,5.5-4.358v-0.869h1.38v0.869C146.717,39.342,149.509,41.197,152.232,41.572z"/>
			</g>
		</g>
	</g>
</g>
<g id="g-root-tx__hwifkx1n5z9c2-fill" transform="translate(410, 265.9999694824219)">
	<g id="tx__hwifkx1n5z9c2-fill">
		<g>
			<g enable-background="new    ">
				<path fill="#484848" d="M69.008,16.082h-1.686v9.299c0.741-0.034,1.46-0.102,2.111-0.18l0.135,1.324
					c-3.145,0.518-7.322,0.606-9.95,0.629l-0.225-1.526l2.111-0.022v-9.522h-1.686V14.6h9.188L69.008,16.082L69.008,16.082z
					 M65.706,25.493v-9.411h-2.583v9.501C63.966,25.561,64.842,25.538,65.706,25.493z M72.916,30.974h-1.661V23.45h-2.719V21.99
					h2.719v-2.763h-2.719v-1.46h2.719v-5.211h1.661V30.974z M76.802,32.029h-1.707V12.062h1.707V32.029z"/>
				<path fill="#484848" d="M80.71,28.278l-0.967-1.438c5.402-2.562,8.153-6.392,8.559-11.163h-7.638V14.24h9.435
					C90.076,19.99,87.403,25.066,80.71,28.278z M96.006,32.029h-1.774V12.062h1.774V32.029z"/>
				<path fill="#484848" d="M117.568,21.944h-8.243v1.978h5.907v4.47h-11.859v2.021h12.467v1.393h-14.219v-4.739h11.883v-1.773
					h-11.928v-1.37h5.997v-1.978h-8.198v-1.438h18.193V21.944z M115.21,18.822h-13.478v-6.087h13.478V18.822z M103.485,17.407h9.974
					V14.15h-9.974V17.407z"/>
				<path fill="#484848" d="M130.82,26.616v-2.179c-2.392-0.259-3.953-1.617-3.931-3.616c-0.022-2.245,1.909-3.706,4.784-3.706
					s4.829,1.461,4.829,3.706c0,1.978-1.551,3.336-3.908,3.595v2.134c1.932-0.079,3.886-0.226,5.728-0.472l0.135,1.348
					c-4.446,0.719-9.344,0.786-13.05,0.786l-0.27-1.505C126.844,26.694,128.799,26.684,130.82,26.616z M137.805,15.97h-12.241
					v-1.438h5.256v-2.447h1.774v2.447h5.211V15.97z M128.529,20.821c0,1.394,1.303,2.291,3.146,2.27
					c1.863,0.021,3.145-0.876,3.145-2.27c0-1.393-1.28-2.336-3.145-2.336C129.832,18.485,128.529,19.429,128.529,20.821z
					 M141.398,32.029h-1.751V12.062h1.751V32.029z"/>
				<path fill="#484848" d="M163.096,24.797h-8.267v7.231h-1.729v-7.231h-8.199v-1.482h18.193L163.096,24.797L163.096,24.797z
					 M162.197,19.676l-0.719,1.438c-3.1-0.517-6.165-2.234-7.457-4.693c-1.279,2.471-4.357,4.178-7.457,4.693l-0.719-1.438
					c3.594-0.494,7.256-2.897,7.256-5.75V12.78h1.818v1.146C154.921,16.733,158.604,19.182,162.197,19.676z"/>
			</g>
		</g>
	</g>
</g>
<g id="g-root-tx__vbpsgx1n5we84-fill" transform="translate(74, 361.9999694824219)">
	<g id="tx__vbpsgx1n5we84-fill">
		<g>
			<g enable-background="new    ">
				<path fill="#484848" d="M14.56,31.639h-1.686v9.299c0.741-0.034,1.46-0.101,2.111-0.18l0.135,1.325
					c-3.145,0.517-7.322,0.605-9.95,0.629l-0.225-1.527l2.111-0.021V31.64H5.374v-1.481h9.188L14.56,31.639L14.56,31.639z
					 M11.258,41.05v-9.411H8.675v9.501C9.518,41.117,10.394,41.095,11.258,41.05z M18.468,46.53h-1.661v-7.523h-2.719v-1.46h2.719
					v-2.763h-2.719v-1.461h2.719v-5.211h1.661V46.53z M22.354,47.586h-1.707V27.618h1.707V47.586z"/>
				<path fill="#484848" d="M26.262,43.835l-0.967-1.438c5.402-2.561,8.153-6.391,8.559-11.163h-7.638v-1.438h9.435
					C35.628,35.547,32.956,40.623,26.262,43.835z M41.558,47.586h-1.774V27.618h1.774V47.586z"/>
				<path fill="#484848" d="M63.121,37.501h-8.243v1.977h5.907v4.47h-11.86v2.021h12.467v1.393H47.173v-4.738h11.883v-1.774H47.128
					v-1.37h5.997v-1.977h-8.197v-1.438H63.12L63.121,37.501L63.121,37.501z M60.762,34.379H47.286v-6.087h13.478L60.762,34.379
					L60.762,34.379z M49.038,32.964h9.974v-3.257h-9.974V32.964z"/>
				<path fill="#484848" d="M73.161,31.347h5.817v-2.875h1.752v8.692h-9.299v-8.692h1.729L73.161,31.347L73.161,31.347z
					 M78.978,35.727v-3.01h-5.817v3.01H78.978z M86.188,43.723H75.227v2.201h11.702v1.438H73.498v-4.985h10.938V40.31H73.453v-1.415
					h12.735V43.723z M86.188,31.953h3.01v1.481h-3.01v4.516h-1.752V27.618h1.752V31.953z"/>
				<path fill="#484848" d="M100.518,37.007l-0.921,1.348c-1.92-0.741-3.303-2.168-4.021-3.886
					c-0.741,1.909-2.167,3.604-4.133,4.447l-0.966-1.37c2.628-1.146,4.245-3.729,4.245-5.952v-2.718h1.685v2.718
					C96.408,33.795,97.958,36.041,100.518,37.007z M107.526,43.992c0,2.245-2.583,3.549-6.716,3.549
					c-4.155,0-6.716-1.304-6.693-3.549c-0.021-2.27,2.538-3.571,6.693-3.571C104.943,40.421,107.526,41.724,107.526,43.992z
					 M95.869,43.992c-0.021,1.369,1.887,2.179,4.941,2.179c3.031,0,4.94-0.81,4.964-2.179c-0.022-1.394-1.933-2.225-4.964-2.225
					C97.755,41.769,95.846,42.6,95.869,43.992z M107.414,39.972h-1.685v-5.503h-2.65v4.874h-1.662v-11.32h1.662v4.986h2.65v-5.368
					h1.685V39.972z"/>
				<path fill="#484848" d="M132.66,39.388h-1.773v-5.121h-4.155c-0.382,2.426-2.448,4.065-5.121,4.043
					c-2.987,0.022-5.188-1.954-5.188-4.784c0-2.784,2.201-4.762,5.188-4.762c2.673,0,4.739,1.628,5.121,4.021h4.155v-5.166h1.773
					V39.388z M118.105,33.525c0,1.954,1.505,3.303,3.504,3.303c1.954,0,3.459-1.349,3.459-3.303c0-1.887-1.505-3.257-3.459-3.257
					C119.61,30.269,118.105,31.639,118.105,33.525z M132.66,47.631h-1.773v-5.684h-11.657v-1.414h13.432L132.66,47.631
					L132.66,47.631z"/>
				<path fill="#484848" d="M146.159,41.814l-1.078,1.304c-1.965-1.181-3.357-3.337-4.043-5.886c-0.729,2.752-2.179,5.1-4.178,6.356
					l-1.123-1.325c2.785-1.662,4.402-5.301,4.402-8.939v-1.887h-3.842v-1.46h9.209v1.46h-3.66v1.887
					C141.846,36.782,143.396,40.219,146.159,41.814z M149.011,46.553h-1.662V36.266h-3.369v-1.438h3.369v-6.717h1.662V46.553z
					 M153.054,47.586h-1.686V27.618h1.686V47.586z"/>
			</g>
		</g>
	</g>
</g>
<g id="g-root-tx__dikcpt1n5xuyw-fill" transform="translate(242, 349.9999694824219)">
	<g id="tx__dikcpt1n5xuyw-fill">
		<g>
			<g enable-background="new    ">
				<path fill="#484848" d="M39.317,25.708H38.04v7.05c0.563-0.025,1.106-0.077,1.602-0.137l0.102,1.005
					c-2.384,0.392-5.551,0.46-7.543,0.477l-0.17-1.157l1.601-0.018v-7.22h-1.276v-1.124h6.965v1.124H39.317z M36.814,32.843v-7.135
					h-1.958v7.203C35.495,32.894,36.159,32.877,36.814,32.843z M42.281,36.998h-1.26v-5.705H38.96v-1.106h2.062v-2.095H38.96v-1.106
					h2.062v-3.95h1.26V36.998z M45.227,37.798h-1.294V22.659h1.294V37.798z"/>
				<path fill="#484848" d="M48.184,34.954l-0.732-1.091c4.096-1.94,6.182-4.845,6.488-8.463h-5.79v-1.09h7.151
					C55.285,28.671,53.258,32.52,48.184,34.954z M59.78,37.798h-1.345V22.659h1.345V37.798z"/>
				<path fill="#484848" d="M76.122,30.152h-6.25v1.499h4.479v3.39H65.36v1.531h9.451v1.057H64.032v-3.593h9.008v-1.347h-9.042
					v-1.038h4.548v-1.499h-6.217v-1.09h13.793V30.152z M74.335,27.785H64.117v-4.614h10.218V27.785z M65.445,26.713h7.562v-2.47
					h-7.562V26.713z"/>
				<path fill="#484848" d="M91.187,30.306H77.393v-1.09h13.793L91.187,30.306L91.187,30.306z M89.637,25.537
					c0,1.721-1.977,2.64-5.348,2.656c-3.371-0.018-5.363-0.937-5.363-2.656c0-1.687,1.993-2.604,5.363-2.604
					C87.661,22.933,89.637,23.852,89.637,25.537z M89.416,35.006h-8.99v1.565h9.451v1.057h-10.78v-3.61h9.008v-1.379h-9.042v-1.021
					h10.354V35.006z M80.322,25.537c-0.017,1.057,1.447,1.635,3.968,1.635c2.504,0,3.985-0.578,3.985-1.635
					c0-0.987-1.48-1.602-3.985-1.602C81.77,23.937,80.305,24.55,80.322,25.537z"/>
				<path fill="#484848" d="M104.615,33.115l-0.8,1.039c-1.533-0.835-2.58-2.333-3.116-4.188c-0.52,2.111-1.583,3.764-3.184,4.7
					l-0.834-1.021c2.18-1.191,3.337-3.78,3.337-6.846v-1.209h-2.98v-1.124h7.084v1.124h-2.81v1.209
					C101.312,29.573,102.452,32.009,104.615,33.115z M109.844,37.798h-1.294v-7.867h-2.061v7.103h-1.276V22.983h1.276v5.808h2.061
					v-6.131h1.294V37.798z"/>
				<path fill="#484848" d="M120.888,33.2l-0.817,1.072c-1.668-0.877-3.064-2.665-3.729-4.769c-0.682,2.239-2.112,4.146-3.814,5.058
					l-0.852-1.072c2.214-1.09,3.968-4.002,3.984-6.761V23.97h1.312v2.759C116.972,29.403,118.743,32.145,120.888,33.2z
					 M123.613,28.807h2.538v1.158h-2.538v7.833h-1.328V22.659h1.328V28.807z"/>
				<path fill="#484848" d="M140.756,31.259h-13.793v-1.106h3.423v-2.129c-1.209-0.468-1.891-1.243-1.891-2.265
					c0-1.788,2.043-2.811,5.364-2.811c3.287,0,5.347,1.021,5.347,2.811c0,1.014-0.673,1.788-1.874,2.248v2.146h3.424V31.259
					L140.756,31.259z M139.069,35.091c-0.017,1.72-1.958,2.674-5.211,2.674c-3.287,0-5.228-0.954-5.228-2.674
					c0-1.737,1.94-2.674,5.228-2.674C137.111,32.417,139.052,33.354,139.069,35.091z M129.874,25.759
					c-0.017,1.106,1.517,1.754,3.985,1.754c2.452,0,3.985-0.646,3.985-1.754c0-1.09-1.533-1.754-3.985-1.754
					C131.389,24.005,129.856,24.669,129.874,25.759z M129.993,35.091c-0.017,1.021,1.432,1.635,3.866,1.635
					c2.401,0,3.866-0.613,3.866-1.635c0-1.039-1.465-1.635-3.866-1.652C131.424,33.456,129.976,34.052,129.993,35.091z
					 M136.005,30.152v-1.771c-0.64,0.11-1.354,0.17-2.146,0.17s-1.507-0.06-2.146-0.17v1.771H136.005z"/>
				<path fill="#484848" d="M150.95,26.202h-9.008v-1.107h3.9v-2.248h1.328v2.248h3.779V26.202z M150.234,30.936
					c-0.017,2.044-1.565,3.475-3.712,3.475c-2.163,0-3.729-1.431-3.712-3.475c-0.017-2.043,1.549-3.474,3.712-3.474
					C148.669,27.462,150.218,28.893,150.234,30.936z M144.088,30.936c-0.018,1.38,1.021,2.352,2.435,2.333
					c1.396,0.019,2.418-0.953,2.437-2.333c-0.018-1.362-1.039-2.35-2.437-2.35C145.109,28.586,144.07,29.573,144.088,30.936z
					 M153.743,28.909h2.537v1.106h-2.537v7.781h-1.329V22.659h1.329V28.909z"/>
				<path fill="#484848" d="M164.328,26.049h3.985v-3.39h1.328v15.173h-1.328v-5.875h-3.882c-0.639,1.532-1.805,2.419-3.271,2.419
					c-2.23,0-3.797-2.044-3.797-5.264c0-3.218,1.566-5.262,3.797-5.277C162.55,23.843,163.674,24.652,164.328,26.049z
					 M158.641,29.113c0,2.471,1.021,4.07,2.521,4.07c1.481,0,2.521-1.601,2.521-4.07c0-2.469-1.039-4.068-2.521-4.087
					C159.663,25.044,158.641,26.645,158.641,29.113z M164.941,29.113c0,0.622-0.068,1.209-0.17,1.737h3.542v-3.679h-3.593
					C164.856,27.76,164.941,28.407,164.941,29.113z"/>
			</g>
			<g enable-background="new    ">
				<path fill="#484848" d="M45.993,53.232h-6.267v5.482h-1.312v-5.482H32.2v-1.124h13.793V53.232z M45.312,49.35l-0.545,1.09
					c-2.351-0.392-4.675-1.693-5.653-3.56c-0.971,1.874-3.304,3.168-5.654,3.56l-0.545-1.09c2.726-0.375,5.5-2.197,5.5-4.359v-0.868
					h1.379v0.868C39.794,47.119,42.587,48.975,45.312,49.35z"/>
				<path fill="#484848" d="M59.814,52.551h-1.345v-2.384h-3.543v1.294h-6.947v-6.728h6.947v1.313h3.543v-2.47h1.345V52.551z
					 M49.307,50.371h4.309v-4.548h-4.309V50.371z M59.865,55.855c0,1.806-1.924,2.827-5.075,2.827c-3.15,0-5.074-1.021-5.074-2.827
					c0-1.821,1.925-2.86,5.074-2.86C57.94,52.994,59.865,54.032,59.865,55.855z M51.044,55.855c-0.017,1.09,1.431,1.771,3.746,1.771
					c2.316,0,3.747-0.682,3.747-1.771c0-1.141-1.431-1.805-3.747-1.821C52.475,54.05,51.027,54.714,51.044,55.855z M58.469,49.043
					v-1.892h-3.542v1.892H58.469z"/>
				<path fill="#484848" d="M76.122,51.223H62.329v-1.09h13.793V51.223z M74.573,46.454c0,1.721-1.976,2.64-5.347,2.656
					c-3.372-0.018-5.364-0.937-5.364-2.656c0-1.687,1.993-2.604,5.364-2.604S74.573,44.769,74.573,46.454z M74.351,55.923H65.36
					v1.565h9.451v1.057H64.032v-3.61h9.008v-1.379h-9.042v-1.021h10.354L74.351,55.923L74.351,55.923z M65.259,46.454
					c-0.018,1.057,1.446,1.635,3.968,1.635c2.503,0,3.985-0.578,3.985-1.635c0-0.987-1.481-1.602-3.985-1.602
					C66.705,44.854,65.241,45.467,65.259,46.454z"/>
				<path fill="#484848" d="M94.318,54.781h-1.345v-4.087h-3.917c-0.698,0.896-1.822,1.432-3.116,1.432
					c-2.265,0-3.934-1.566-3.934-3.78s1.669-3.78,3.934-3.798c1.286,0.009,2.384,0.537,3.099,1.414h3.935v-2.367h1.345V54.781z
					 M83.283,48.345c0,1.516,1.107,2.589,2.657,2.589c1.481,0,2.623-1.073,2.623-2.589s-1.141-2.589-2.623-2.605
					C84.39,45.756,83.283,46.829,83.283,48.345z M94.744,58.392H84.595v-4.785h1.345v3.661h8.804V58.392z M89.856,48.345
					c0,0.442-0.077,0.86-0.204,1.243h3.32v-2.521h-3.32C89.78,47.459,89.856,47.885,89.856,48.345z"/>
				<path fill="#484848" d="M105.672,50.934l-0.631,1.056c-1.744-0.57-3.064-1.779-3.712-3.304
					c-0.655,1.736-2.052,3.091-3.865,3.746l-0.682-1.073c2.266-0.766,3.85-2.725,3.865-4.903v-0.646H97.19V44.7h8.174v1.106h-3.406
					v0.646C101.958,48.43,103.44,50.201,105.672,50.934z M108.804,55.889c0,1.771-1.874,2.793-4.99,2.793s-5.023-1.021-5.023-2.793
					c0-1.737,1.907-2.759,5.023-2.759S108.804,54.151,108.804,55.889z M100.136,55.889c-0.018,1.09,1.396,1.72,3.678,1.72
					c2.299,0,3.695-0.63,3.695-1.72c0-1.056-1.396-1.686-3.695-1.686C101.533,54.203,100.119,54.833,100.136,55.889z
					 M108.669,47.442h2.281v1.124h-2.281v4.154h-1.329v-9.145h1.329V47.442z"/>
			</g>
		</g>
	</g>
</g>
<g id="g-root-ic_1_i09a3l1n5wft2-fill" transform="translate(242, 253.99996948242188)">
</g>
<g id="g-root-tx__3zgwx1n60mx2-fill" transform="translate(578, 229.99996948242188)">
	<g id="tx__3zgwx1n60mx2-fill">
		<g>
			<g enable-background="new    ">
				<path fill="#484848" d="M90.682,15.653v-1.157c-1.762-0.161-2.896-1.005-2.896-2.281c0-1.465,1.414-2.333,3.542-2.333
					c2.146,0,3.542,0.868,3.561,2.333c-0.019,1.269-1.125,2.111-2.879,2.281v1.09c1.422-0.067,2.854-0.204,4.173-0.408l0.119,0.953
					c-3.253,0.613-6.914,0.665-9.57,0.682l-0.153-1.09C87.779,15.722,89.201,15.713,90.682,15.653z M95.723,9.217h-8.771V8.212
					h3.729V6.68h1.328v1.532h3.713V9.217L95.723,9.217z M99.01,21.528H88.844v-3.764h1.346v2.64h8.821V21.528z M89.064,12.214
					c0,0.834,0.868,1.362,2.265,1.362c1.397,0,2.282-0.528,2.282-1.362c0-0.853-0.886-1.38-2.282-1.38
					C89.933,10.834,89.064,11.362,89.064,12.214z M98.466,12.026h2.264v1.124h-2.264v5.415h-1.347V6.713h1.347V12.026z"/>
				<path fill="#484848" d="M114.261,15.824h-1.346V13.78h-4.02v-1.105h4.02V10.63h-3.864c-0.997,2.436-3.338,4.197-6.574,5.16
					l-0.563-1.057c3.661-1.09,5.936-3.134,6.217-5.756h-5.449V7.854h6.896c0,0.597-0.067,1.166-0.188,1.703h3.524V6.73h1.346
					L114.261,15.824L114.261,15.824z M114.346,18.872c0,1.821-1.976,2.912-5.04,2.912c-3.101,0-5.059-1.091-5.059-2.912
					c0-1.807,1.958-2.896,5.059-2.896C112.371,15.977,114.346,17.066,114.346,18.872z M105.559,18.872
					c0,1.141,1.465,1.821,3.747,1.821c2.247,0,3.695-0.682,3.712-1.821c-0.017-1.142-1.465-1.839-3.712-1.822
					C107.023,17.033,105.559,17.731,105.559,18.872z"/>
				<path fill="#484848" d="M126.703,21.086h-1.276V13.73h-1.941c-0.145,2.945-1.396,4.785-3.27,4.785
					c-1.976,0-3.252-2.044-3.252-5.263c0-3.218,1.276-5.263,3.252-5.263c1.84,0,3.083,1.78,3.253,4.633h1.958V7.037h1.276V21.086z
					 M118.223,13.252c-0.018,2.453,0.767,4.002,1.992,3.984c1.227,0.018,2.01-1.531,2.01-3.984c0-2.469-0.783-4.001-2.01-4.001
					S118.206,10.783,118.223,13.252z M129.753,21.852h-1.296V6.713h1.296V21.852z"/>
				<path fill="#484848" d="M144.1,18.055h-7V8.212h7V18.055z M138.411,16.965h4.376v-7.68h-4.376V16.965z M148.697,21.886h-1.346
					V6.713h1.346V21.886z"/>
				<path fill="#484848" d="M160.919,17.611l-0.75,1.039c-1.744-0.773-3.228-2.418-3.935-4.428c-0.681,2.129-2.154,3.874-3.897,4.7
					l-0.75-1.038c2.247-1.022,3.968-3.576,3.968-6.233v-1.209h-3.561v-1.09h3.543v-2.35h1.328v2.35h3.525v1.09h-3.525v1.209
					C156.865,14.189,158.636,16.642,160.919,17.611z M163.762,21.852h-1.347V6.713h1.347V21.852z"/>
				<path fill="#484848" d="M180.188,15.534h-13.861v-1.091h13.861V15.534z M178.674,21.478h-10.541v-4.394h1.329v3.286h9.212
					V21.478z M178.589,12.384h-10.371V7.275h1.328v4.036h9.043V12.384z"/>
				<path fill="#484848" d="M193.021,8.91h3.968V6.713h1.347v8.975h-1.347v-2.162h-3.951c-0.715,0.81-1.805,1.285-3.082,1.276
					c-2.265,0.018-3.934-1.464-3.934-3.576c0-2.128,1.669-3.608,3.934-3.593C191.232,7.624,192.322,8.102,193.021,8.91z
					 M187.3,11.226c0,1.414,1.106,2.437,2.655,2.437c1.499,0,2.623-1.021,2.623-2.437c0-1.43-1.124-2.452-2.623-2.435
					C188.406,8.773,187.3,9.796,187.3,11.226z M198.385,18.923c0,1.839-1.941,2.896-5.074,2.896c-3.15,0-5.075-1.057-5.075-2.896
					c0-1.822,1.925-2.878,5.075-2.878C196.443,16.045,198.385,17.101,198.385,18.923z M189.548,18.923
					c0,1.142,1.446,1.822,3.764,1.822c2.332,0,3.764-0.682,3.764-1.822c0-1.142-1.432-1.839-3.764-1.839
					C190.994,17.084,189.548,17.782,189.548,18.923z M193.872,11.226c0,0.426-0.076,0.826-0.203,1.192h3.319V10h-3.319
					C193.796,10.375,193.872,10.783,193.872,11.226z"/>
				<path fill="#484848" d="M209.907,9.506h-9.024V8.45h3.849V6.594h1.328V8.45h3.849L209.907,9.506L209.907,9.506z M209.039,12.963
					c-0.018,1.635-1.465,2.674-3.645,2.674c-2.197,0-3.661-1.039-3.646-2.674c-0.017-1.617,1.447-2.674,3.646-2.674
					C207.574,10.289,209.021,11.346,209.039,12.963z M212.854,19.213c0,1.65-1.873,2.604-4.955,2.604
					c-3.083,0-4.973-0.954-4.956-2.604c-0.017-1.652,1.873-2.623,4.956-2.623C210.98,16.59,212.854,17.561,212.854,19.213z
					 M203.027,12.963c-0.017,0.987,0.938,1.635,2.367,1.635c1.414,0,2.367-0.646,2.385-1.635c-0.018-0.987-0.971-1.651-2.385-1.669
					C203.966,11.312,203.011,11.976,203.027,12.963z M204.271,19.213c-0.017,0.987,1.362,1.565,3.628,1.565
					c2.264,0,3.627-0.578,3.627-1.565c0-1.005-1.363-1.567-3.627-1.567C205.634,17.646,204.255,18.208,204.271,19.213z
					 M214.931,10.477h-2.247v2.095h2.247v1.124h-2.247v2.793h-1.329V6.713h1.329V9.37h2.247V10.477z"/>
				<path fill="#484848" d="M229.705,14.359h-13.793v-1.09h13.793V14.359z M228.156,9.591c0,1.721-1.976,2.64-5.348,2.657
					c-3.371-0.019-5.363-0.938-5.363-2.657c0-1.687,1.992-2.604,5.363-2.604C226.181,6.986,228.156,7.905,228.156,9.591z
					 M227.935,19.06h-8.991v1.566h9.451v1.056h-10.779v-3.61h9.009v-1.379h-9.043v-1.021h10.354L227.935,19.06L227.935,19.06z
					 M218.843,9.591c-0.019,1.057,1.446,1.635,3.967,1.635c2.504,0,3.985-0.578,3.985-1.635c0-0.987-1.481-1.602-3.985-1.602
					C220.289,7.99,218.824,8.604,218.843,9.591z"/>
			</g>
			<g enable-background="new    ">
				<path fill="#484848" d="M92.385,38.393c1.456-0.06,2.945-0.188,4.343-0.392l0.103,0.986c-3.457,0.631-7.187,0.647-9.91,0.647
					l-0.188-1.107c1.27-0.008,2.767-0.017,4.343-0.066v-2.844h1.312L92.385,38.393L92.385,38.393z M95.943,30.729h-3.559
					c0.034,1.958,1.66,3.551,3.899,4.189l-0.631,1.056c-1.822-0.545-3.244-1.712-3.916-3.253c-0.664,1.627-2.078,2.836-3.899,3.389
					l-0.646-1.021c2.239-0.655,3.814-2.315,3.848-4.359h-3.473v-1.105h3.508V27.75h1.312v1.873h3.559L95.943,30.729L95.943,30.729z
					 M99.061,42.803h-1.328V27.63h1.328V42.803z"/>
				<path fill="#484848" d="M115.572,40.794h-13.86v-1.107h6.197v-3.712h1.313v3.712h6.352L115.572,40.794L115.572,40.794z
					 M114.891,35.038l-0.596,1.105c-2.308-0.468-4.742-2.035-5.723-4.223c-0.996,2.18-3.414,3.755-5.722,4.223l-0.596-1.105
					c2.639-0.46,5.602-2.675,5.602-5.211v-1.158h1.396v1.158C109.255,32.364,112.253,34.578,114.891,35.038z"/>
				<path fill="#484848" d="M120.76,38.682v-1.686c-1.763-0.195-2.911-1.227-2.896-2.726c-0.017-1.703,1.432-2.81,3.576-2.81
					c2.111,0,3.576,1.105,3.594,2.81c-0.018,1.499-1.184,2.529-2.93,2.742v1.617c1.414-0.068,2.836-0.179,4.155-0.374l0.085,1.021
					c-3.305,0.563-6.879,0.597-9.536,0.597l-0.222-1.142C117.822,38.733,119.262,38.733,120.76,38.682z M125.988,30.576h-9.127
					v-1.091h3.898v-1.821h1.346v1.821h3.883V30.576z M119.108,34.271c0,1.057,0.938,1.737,2.333,1.72
					c1.379,0.019,2.316-0.663,2.316-1.72c0-1.056-0.938-1.771-2.316-1.771C120.046,32.501,119.108,33.216,119.108,34.271z
					 M128.525,34.084h2.418v1.124h-2.418v7.561h-1.346V27.63h1.346V34.084z"/>
				<path fill="#484848" d="M140.764,31.173h-9.009v-1.107h3.898v-2.248h1.328v2.248h3.781L140.764,31.173L140.764,31.173z
					 M140.049,35.906c-0.018,2.045-1.566,3.475-3.712,3.475c-2.163,0-3.729-1.43-3.714-3.475c-0.017-2.043,1.551-3.474,3.714-3.474
					C138.481,32.433,140.031,33.863,140.049,35.906z M133.9,35.906c-0.017,1.381,1.021,2.352,2.437,2.333
					c1.396,0.019,2.418-0.952,2.436-2.333c-0.018-1.361-1.039-2.35-2.436-2.35C134.923,33.557,133.885,34.544,133.9,35.906z
					 M143.556,33.88h2.538v1.106h-2.538v7.781h-1.328V27.63h1.328V33.88z"/>
				<path fill="#484848" d="M154.142,31.02h3.985v-3.39h1.327v15.173h-1.327v-5.875h-3.884c-0.639,1.533-1.805,2.419-3.27,2.419
					c-2.23,0-3.798-2.044-3.798-5.263s1.566-5.263,3.798-5.278C152.362,28.813,153.486,29.623,154.142,31.02z M148.454,34.084
					c0,2.47,1.022,4.069,2.521,4.069c1.48,0,2.52-1.601,2.52-4.069c0-2.47-1.038-4.069-2.52-4.087
					C149.477,30.015,148.454,31.615,148.454,34.084z M154.756,34.084c0,0.622-0.068,1.209-0.172,1.736h3.544v-3.679h-3.595
					C154.671,32.73,154.756,33.378,154.756,34.084z"/>
				<path fill="#484848" d="M173.463,30.679h-1.276v7.05c0.562-0.024,1.106-0.077,1.6-0.137l0.104,1.005
					c-2.384,0.392-5.552,0.46-7.544,0.477l-0.17-1.156l1.601-0.019v-7.22H166.5v-1.124h6.965v1.124H173.463z M170.959,37.813v-7.135
					H169v7.203C169.639,37.864,170.303,37.848,170.959,37.813z M176.426,41.969h-1.261v-5.705h-2.061v-1.105h2.061v-2.096h-2.061
					v-1.105h2.061v-3.951h1.261V41.969z M179.371,42.769h-1.295V27.63h1.295V42.769z"/>
				<path fill="#484848" d="M182.328,39.925l-0.731-1.09c4.096-1.941,6.182-4.846,6.488-8.463h-5.79v-1.091h7.151
					C189.43,33.642,187.402,37.49,182.328,39.925z M193.926,42.769h-1.347V27.63h1.347V42.769z"/>
				<path fill="#484848" d="M210.267,35.123h-6.249v1.499h4.479v3.389h-8.991v1.532h9.45v1.056h-10.778v-3.593h9.009V37.66h-9.042
					v-1.038h4.547v-1.499h-6.216v-1.09h13.793L210.267,35.123L210.267,35.123z M208.479,32.756h-10.217v-4.614h10.217V32.756z
					 M199.591,31.684h7.561v-2.47h-7.561V31.684z"/>
			</g>
			<g enable-background="new    ">
				<path fill="#484848" d="M95.824,59.444l-0.766,1.039c-1.721-0.792-3.15-2.442-3.814-4.443c-0.664,2.11-2.078,3.883-3.797,4.717
					l-0.768-1.038c2.215-1.039,3.883-3.628,3.883-6.233v-1.209h-3.474v-1.09h3.474v-2.35h1.328v2.35h3.424v1.09h-3.439v1.209
					C91.874,55.988,93.577,58.44,95.824,59.444z M99.196,63.719h-1.345V55.75h-3.32v-1.107h3.32v-6.097h1.345V63.719z"/>
				<path fill="#484848" d="M109.612,55.341h-5.653v3.576c2.513,0,4.75-0.11,7.459-0.545l0.136,1.124
					c-2.792,0.441-5.091,0.545-7.696,0.545h-1.261v-5.79h5.671v-3.186h-5.704V49.96h7.05L109.612,55.341L109.612,55.341z
					 M114.211,63.719h-1.328V48.546h1.328V63.719z"/>
			</g>
		</g>
	</g>
</g>
<g id="g-root-tx__mg2s811n5wf0t-fill" transform="translate(74, 397.9999694824219)">
	<g id="tx__mg2s811n5wf0t-fill">
		<g>
			<g enable-background="new    ">
				<path fill="#484848" d="M12.094,33.486h-1.277v7.05c0.562-0.024,1.105-0.077,1.601-0.137l0.103,1.005
					c-2.384,0.393-5.551,0.46-7.543,0.478l-0.17-1.157l1.601-0.019v-7.22H5.129v-1.124h6.966V33.486z M9.591,40.62v-7.135H7.632
					v7.203C8.271,40.672,8.935,40.655,9.591,40.62z M15.057,44.776h-1.261v-5.705h-2.061v-1.105h2.061v-2.096h-2.061v-1.105h2.061
					v-3.951h1.261V44.776z M18.003,45.575h-1.294V30.438h1.294V45.575z"/>
				<path fill="#484848" d="M20.96,42.732l-0.731-1.09c4.096-1.941,6.182-4.845,6.487-8.463h-5.79v-1.09h7.152
					C28.061,36.449,26.035,40.298,20.96,42.732z M32.557,45.575h-1.346V30.438h1.346V45.575z"/>
				<path fill="#484848" d="M48.898,37.931h-6.25v1.499h4.479v3.389h-8.99v1.532h9.45v1.056H36.808v-3.593h9.008v-1.346h-9.042
					V39.43h4.547v-1.499h-6.216v-1.09h13.793V37.931z M47.11,35.564H36.893v-4.614H47.11V35.564z M38.222,34.491h7.561v-2.47h-7.561
					V34.491z"/>
				<path fill="#484848" d="M56.502,33.265h4.411v-2.18h1.328v6.59h-7.05v-6.59h1.311V33.265z M60.913,36.585v-2.281h-4.411v2.281
					H60.913z M66.379,42.647h-8.31v1.669h8.872v1.09H56.758v-3.78h8.293V40.06h-8.326v-1.073h9.654V42.647z M66.379,33.725h2.282
					v1.124h-2.282v3.423H65.05v-7.834h1.329V33.725z"/>
				<path fill="#484848" d="M77.238,37.556l-0.698,1.021c-1.456-0.563-2.503-1.644-3.048-2.945
					c-0.562,1.446-1.643,2.732-3.133,3.372l-0.732-1.039c1.993-0.868,3.22-2.827,3.22-4.514v-2.061h1.276v2.061
					C74.122,35.12,75.297,36.824,77.238,37.556z M82.551,42.852c0,1.703-1.958,2.691-5.092,2.691c-3.149,0-5.092-0.988-5.075-2.691
					c-0.017-1.72,1.925-2.707,5.075-2.707C80.593,40.145,82.551,41.132,82.551,42.852z M73.713,42.852
					c-0.017,1.039,1.432,1.652,3.747,1.652c2.299,0,3.746-0.613,3.764-1.652c-0.018-1.056-1.465-1.687-3.764-1.687
					C75.144,41.165,73.696,41.796,73.713,42.852z M82.466,39.804h-1.276v-4.172h-2.01v3.694h-1.261v-8.583h1.261v3.781h2.01v-4.07
					h1.276V39.804z"/>
				<path fill="#484848" d="M98.467,38.083H84.673v-1.09h13.793L98.467,38.083L98.467,38.083z M96.917,33.315
					c0,1.721-1.976,2.64-5.347,2.657c-3.372-0.019-5.364-0.938-5.364-2.657c0-1.686,1.993-2.604,5.364-2.604
					S96.917,31.63,96.917,33.315z M96.696,42.783h-8.991v1.566h9.451v1.056h-10.78v-3.609h9.008v-1.38h-9.042v-1.021h10.354V42.783z
					 M87.603,33.315c-0.018,1.057,1.446,1.635,3.968,1.635c2.503,0,3.985-0.578,3.985-1.635c0-0.987-1.481-1.601-3.985-1.601
					C89.05,31.715,87.585,32.327,87.603,33.315z"/>
				<path fill="#484848" d="M117.906,37.862h-6.25v1.533h4.479v3.438h-8.99v1.517h9.451v1.056h-10.779v-3.559h9.008v-1.432h-9.042
					v-1.021h4.564v-1.533h-6.233v-1.09h13.793V37.862z M116.68,32.038h-4.888c0.188,1.566,2.716,2.732,5.381,2.964l-0.442,1.021
					c-2.479-0.256-4.812-1.218-5.705-2.741c-0.92,1.523-3.244,2.485-5.722,2.741l-0.443-1.021c2.647-0.23,5.168-1.381,5.381-2.964
					h-4.871v-1.057h11.308v1.057H116.68z"/>
				<path fill="#484848" d="M127.471,36.892c0,3.219-1.618,5.263-3.866,5.263c-2.266,0-3.866-2.044-3.866-5.263
					c0-3.218,1.601-5.262,3.866-5.278C125.853,31.63,127.471,33.674,127.471,36.892z M121.034,36.892c0,2.47,1.056,4.07,2.571,4.07
					c1.515,0,2.57-1.602,2.57-4.07s-1.056-4.069-2.57-4.087C122.089,32.822,121.034,34.423,121.034,36.892z M131.66,45.61h-1.345
					V30.438h1.345V45.61z"/>
				<path fill="#484848" d="M135.162,42.732l-0.731-1.09c4.096-1.941,6.182-4.845,6.487-8.463h-5.79v-1.09h7.152
					C142.263,36.449,140.236,40.298,135.162,42.732z M146.758,45.575h-1.346V30.438h1.346V45.575z"/>
			</g>
			<g enable-background="new    ">
				<path fill="#484848" d="M15.04,59.034l0.085,1.005c-1.446,0.265-2.955,0.427-4.411,0.512v5.482H9.386v-5.397
					c-1.541,0.067-2.997,0.076-4.258,0.085l-0.187-1.142C7.786,59.579,11.668,59.528,15.04,59.034z M13.848,55.187
					c0,1.839-1.618,3.116-3.883,3.1c-2.265,0.018-3.883-1.261-3.883-3.1c0-1.856,1.618-3.1,3.883-3.082
					C12.23,52.087,13.848,53.329,13.848,55.187z M7.394,55.187c-0.018,1.192,1.056,2.01,2.57,1.992
					c1.533,0.018,2.605-0.8,2.605-1.992c0-1.175-1.073-2.01-2.605-1.992C8.45,53.177,7.377,54.012,7.394,55.187z M17.458,66.511
					h-1.311v-15.14h1.311V66.511z"/>
				<path fill="#484848" d="M29.1,54.318h-9.025v-1.09h3.849v-1.856h1.328v1.856H29.1V54.318z M28.231,57.98
					c-0.018,1.702-1.481,2.792-3.645,2.792c-2.18,0-3.661-1.09-3.644-2.792c-0.018-1.721,1.464-2.827,3.644-2.827
					C26.75,55.152,28.214,56.259,28.231,57.98z M22.22,57.98c-0.018,1.072,0.937,1.754,2.366,1.736
					c1.414,0.018,2.367-0.664,2.385-1.736c-0.018-1.073-0.972-1.771-2.385-1.771C23.157,56.207,22.203,56.906,22.22,57.98z
					 M32.574,66.17H22.407v-4.359h1.311v3.235h8.855L32.574,66.17L32.574,66.17z M31.875,56.361h2.282v1.124h-2.282v5.229h-1.329
					V51.371h1.329V56.361z"/>
				<path fill="#484848" d="M51.741,59.375h-4.7v4.035h6.301v1.107H39.48V63.41h6.231v-4.035h-4.529v-6.727h1.361v5.604h9.196
					L51.741,59.375L51.741,59.375z"/>
				<path fill="#484848" d="M61.73,56.532h-5.21v2.351c2.844,0,4.308-0.043,6.096-0.375l0.136,1.106
					c-1.89,0.308-3.423,0.357-6.487,0.357h-1.073V55.51h5.21v-2.146h-5.245v-1.072h6.573L61.73,56.532L61.73,56.532z M67.094,66.527
					h-1.346v-3.95h-8.854v-1.09h10.2V66.527z M67.094,60.67h-1.346V57.86h-3.014v-1.106h3.014V54.71h-3.014v-1.091h3.014v-2.248
					h1.346V60.67z"/>
			</g>
		</g>
	</g>
</g>
<g id="g-root-tx__1hckk811n620ax-fill" transform="translate(746, 205.99996948242188)">
	<g id="tx__1hckk811n620ax-fill">
		<g>
			<g enable-background="new    ">
				<path fill="#484848" d="M121.5,6.444l-0.698,1.022c-1.456-0.563-2.504-1.645-3.049-2.946c-0.563,1.447-1.644,2.733-3.134,3.372
					l-0.731-1.039c1.992-0.868,3.219-2.827,3.219-4.513V0.28h1.277v2.062C118.384,4.01,119.558,5.713,121.5,6.444z M126.812,11.74
					c0,1.703-1.958,2.691-5.091,2.691c-3.15,0-5.092-0.988-5.075-2.691c-0.017-1.72,1.925-2.706,5.075-2.706
					C124.854,9.033,126.812,10.021,126.812,11.74z M117.974,11.74c-0.018,1.039,1.431,1.652,3.747,1.652
					c2.299,0,3.746-0.613,3.763-1.652c-0.017-1.056-1.464-1.686-3.763-1.686C119.404,10.055,117.957,10.685,117.974,11.74z
					 M126.727,8.692h-1.277V4.521h-2.01v3.695h-1.26v-8.583h1.26v3.781h2.01v-4.07h1.277V8.692z"/>
				<path fill="#484848" d="M137.823,6.973l-0.681,1.072c-1.721-0.621-3.057-1.906-3.729-3.524c-0.639,1.813-2.01,3.21-3.798,3.899
					l-0.731-1.072c2.299-0.817,3.813-2.861,3.832-5.211V0.264h1.311v1.924C134.01,4.265,135.594,6.189,137.823,6.973z
					 M141.469,14.142h-10.149v-4.7h1.362v3.576h8.787V14.142z M140.77,3.976h2.281v1.142h-2.281v5.397h-1.328V-0.674h1.328V3.976z"
					/>
				<path fill="#484848" d="M145.157,16.577h-1.261l0.938-4.633h1.651L145.157,16.577z"/>
				<path fill="#484848" d="M166.703,12.49h-13.86v-1.106h6.198V7.671h1.312v3.712h6.352L166.703,12.49L166.703,12.49z
					 M166.022,6.734l-0.597,1.106c-2.308-0.468-4.742-2.035-5.722-4.223c-0.995,2.18-3.413,3.755-5.723,4.223l-0.596-1.106
					c2.64-0.46,5.603-2.674,5.603-5.211V0.365h1.396v1.158C160.386,4.061,163.384,6.274,166.022,6.734z"/>
				<path fill="#484848" d="M170.12,4.623h4.514V0.621h1.312v10.217h-7.152V0.621h1.328L170.12,4.623L170.12,4.623z M174.634,9.714
					v-4.02h-4.514v4.02H174.634z M180.389,14.499h-1.346V-0.674h1.346V14.499z"/>
				<path fill="#484848" d="M184.13,16.577h-1.261l0.938-4.633h1.65L184.13,16.577z"/>
				<path fill="#484848" d="M199.596,9.782l-0.8,1.039c-1.532-0.835-2.579-2.333-3.116-4.188c-0.521,2.111-1.584,3.764-3.186,4.7
					l-0.834-1.021c2.181-1.191,3.337-3.78,3.337-6.846V2.256h-2.979V1.132h7.084v1.124h-2.811v1.209
					C196.293,6.24,197.434,8.676,199.596,9.782z M204.824,14.465h-1.294V6.598h-2.061V13.7h-1.277V-0.35h1.277v5.808h2.061v-6.131
					h1.294V14.465z"/>
				<path fill="#484848" d="M210.914,6.854V5.917c-1.771-0.128-2.895-0.835-2.895-1.992c0-1.243,1.396-1.959,3.542-1.959
					c2.163,0,3.542,0.716,3.56,1.959c-0.018,1.148-1.106,1.854-2.879,1.992v0.901c1.414-0.067,2.845-0.179,4.174-0.375l0.118,0.903
					c-3.27,0.527-6.914,0.563-9.569,0.563l-0.153-1.006C208.02,6.904,209.434,6.904,210.914,6.854z M215.955,1.455h-8.77V0.484
					h3.729V-0.81h1.328v1.294h3.713V1.455z M218.697,11.996h-8.498v1.346h9.076v0.953h-10.404v-3.201h8.497V9.901h-8.53V8.948h9.859
					V11.996z M209.298,3.925c0,0.681,0.867,1.124,2.265,1.124c1.396,0,2.282-0.443,2.282-1.124c0-0.664-0.886-1.056-2.282-1.073
					C210.165,2.869,209.298,3.261,209.298,3.925z M218.697,3.209h2.265v1.142h-2.265v3.916h-1.346v-8.939h1.346V3.209z"/>
				<path fill="#484848" d="M235.736,7.926h-13.793V6.819h3.423V4.69c-1.209-0.468-1.89-1.243-1.89-2.265
					c0-1.788,2.043-2.811,5.363-2.811c3.287,0,5.348,1.021,5.348,2.811c0,1.014-0.673,1.788-1.873,2.248v2.146h3.422V7.926
					L235.736,7.926z M234.052,11.758c-0.018,1.72-1.958,2.674-5.211,2.674c-3.286,0-5.229-0.954-5.229-2.674
					c0-1.737,1.941-2.674,5.229-2.674C232.094,9.084,234.034,10.021,234.052,11.758z M224.855,2.426
					c-0.018,1.107,1.516,1.754,3.984,1.754c2.453,0,3.984-0.646,3.984-1.754c0-1.09-1.531-1.754-3.984-1.754
					C226.371,0.672,224.839,1.336,224.855,2.426z M224.975,11.758c-0.019,1.021,1.431,1.635,3.865,1.635
					c2.4,0,3.865-0.613,3.865-1.635c0-1.039-1.465-1.635-3.865-1.652C226.405,10.123,224.957,10.719,224.975,11.758z M230.986,6.819
					v-1.77c-0.639,0.11-1.354,0.17-2.146,0.17c-0.791,0-1.507-0.06-2.146-0.17V6.82L230.986,6.819L230.986,6.819z"/>
				<path fill="#484848" d="M238.166,16.577h-1.26l0.937-4.633h1.651L238.166,16.577z"/>
			</g>
			<g enable-background="new    ">
				<path fill="#484848" d="M121.192,22.1h3.882v-1.855h1.329v7.781h-1.329V26.29h-3.831c-0.706,0.852-1.848,1.361-3.2,1.361
					c-2.282,0-3.935-1.396-3.935-3.439c0-2.026,1.651-3.423,3.935-3.423C119.37,20.788,120.494,21.282,121.192,22.1z
					 M115.385,24.211c0,1.38,1.106,2.351,2.657,2.367c1.498-0.018,2.621-0.987,2.621-2.367c0-1.362-1.123-2.333-2.621-2.315
					C116.492,21.878,115.385,22.849,115.385,24.211z M126.403,32.419h-8.446v1.687h9.025v1.072h-10.354v-3.78h8.444v-1.532h-8.479
					v-1.072h9.809V32.419z M121.959,24.211c0,0.357-0.061,0.689-0.153,1.005h3.27v-2.043h-3.27
					C121.898,23.496,121.959,23.846,121.959,24.211z"/>
				<path fill="#484848" d="M133.328,31.278v-1.65c-1.813-0.196-2.998-1.228-2.979-2.742c-0.019-1.703,1.447-2.81,3.627-2.81
					s3.662,1.105,3.662,2.81c0,1.499-1.176,2.529-2.964,2.725v1.618c1.465-0.06,2.945-0.171,4.343-0.356l0.102,1.021
					c-3.371,0.545-7.084,0.596-9.894,0.596l-0.204-1.141C130.313,31.338,131.796,31.329,133.328,31.278z M138.623,23.207h-9.279
					v-1.09h3.984v-1.856h1.346v1.856h3.949V23.207z M131.592,26.885c0,1.056,0.986,1.737,2.384,1.72
					c1.414,0.019,2.385-0.664,2.385-1.72s-0.971-1.771-2.385-1.771C132.578,25.114,131.592,25.829,131.592,26.885z M141.348,35.382
					h-1.328V20.243h1.328V35.382z"/>
				<path fill="#484848" d="M157.793,29.899h-6.268v5.482h-1.311v-5.482h-6.217v-1.124h13.795V29.899L157.793,29.899z
					 M157.111,26.017l-0.545,1.09c-2.35-0.392-4.674-1.693-5.653-3.56c-0.971,1.874-3.304,3.168-5.652,3.56l-0.545-1.09
					c2.725-0.375,5.5-2.197,5.5-4.358v-0.869h1.379v0.869C151.594,23.786,154.387,25.642,157.111,26.017z"/>
				<path fill="#484848" d="M171.341,27.396h-7.103v-6.164h7.103V27.396z M176.841,34.292l-0.46,1.039
					c-2.282-0.308-4.359-1.379-5.245-2.793c-0.919,1.438-3.048,2.485-5.33,2.793l-0.478-1.039c2.605-0.289,5.109-1.754,5.109-3.271
					h-4.479v-1.038h4.494v-1.48h1.328v1.48h4.53v1.038h-4.496C171.816,32.505,174.234,33.969,176.841,34.292z M165.551,26.34h4.479
					v-4.02h-4.479V26.34z M175.921,28.945h-1.312v-8.701h1.312V28.945z"/>
				<path fill="#484848" d="M192.057,31.142l-0.767,1.039c-1.721-0.792-3.15-2.443-3.814-4.444
					c-0.664,2.111-2.077,3.884-3.798,4.718l-0.767-1.038c2.213-1.039,3.884-3.628,3.884-6.233v-1.209h-3.476v-1.09h3.476v-2.35
					h1.327v2.35h3.423v1.09h-3.439v1.209C188.105,27.686,189.809,30.138,192.057,31.142z M195.428,35.416h-1.347v-7.97h-3.319V26.34
					h3.319v-6.097h1.347V35.416z"/>
				<path fill="#484848" d="M205.844,27.038h-5.654v3.575c2.512,0,4.752-0.109,7.459-0.545l0.137,1.124
					c-2.793,0.442-5.092,0.545-7.696,0.545h-1.261v-5.79h5.67v-3.185h-5.704v-1.106h7.051L205.844,27.038L205.844,27.038z
					 M210.441,35.416h-1.328V20.243h1.328V35.416z"/>
				<path fill="#484848" d="M223.089,30.427l0.103,0.988c-3.457,0.646-7.187,0.664-9.911,0.664l-0.188-1.143
					C215.885,30.938,219.733,30.921,223.089,30.427z M222.032,24.909c0,2.111-1.686,3.56-4.068,3.56
					c-2.386,0-4.104-1.447-4.089-3.56c-0.017-2.111,1.703-3.56,4.089-3.56C220.347,21.351,222.032,22.798,222.032,24.909z
					 M215.187,24.909c-0.017,1.413,1.158,2.385,2.776,2.385c1.6,0,2.758-0.972,2.758-2.385s-1.158-2.385-2.758-2.385
					C216.345,22.525,215.171,23.496,215.187,24.909z M225.422,35.416h-1.328V20.243h1.328V35.416z"/>
				<path fill="#484848" d="M246.291,29.064h-6.164v3.101h-1.328v-3.101h-6.368v-1.105h13.86V29.064z M245.423,25.591l-0.527,1.056
					c-2.299-0.392-4.572-1.669-5.535-3.438c-0.953,1.805-3.252,3.063-5.551,3.456l-0.528-1.057c2.641-0.407,5.382-2.162,5.382-4.206
					v-0.766h1.38v0.766C240.041,23.377,242.801,25.182,245.423,25.591z M244.74,35.059H234.2v-4.376h1.346v3.252h9.194V35.059z"/>
				<path fill="#484848" d="M251.548,29.184v-1.158c-1.764-0.161-2.896-1.004-2.896-2.28c0-1.466,1.413-2.333,3.541-2.333
					c2.146,0,3.543,0.867,3.561,2.333c-0.018,1.269-1.124,2.11-2.879,2.28v1.09c1.423-0.066,2.854-0.203,4.173-0.407l0.118,0.953
					c-3.252,0.612-6.914,0.665-9.569,0.682l-0.152-1.09C248.644,29.252,250.065,29.243,251.548,29.184z M256.589,22.747h-8.771
					v-1.005h3.729V20.21h1.328v1.532h3.713L256.589,22.747L256.589,22.747z M259.875,35.059h-10.168v-3.764h1.347v2.64h8.821V35.059
					z M249.93,25.744c0,0.834,0.867,1.361,2.264,1.361c1.397,0,2.282-0.527,2.282-1.361c0-0.853-0.886-1.381-2.282-1.381
					C250.799,24.364,249.93,24.893,249.93,25.744z M259.329,25.557h2.266v1.124h-2.266v5.415h-1.345V20.243h1.345V25.557z"/>
			</g>
		</g>
	</g>
</g>
<g id="g-root-tx__4jsz1d1n60m4t-fill" transform="translate(578, 193.99996948242188)">
	<g id="tx__4jsz1d1n60m4t-fill">
		<g>
			<g enable-background="new    ">
				<path fill="#484848" d="M96.23,4.414h-1.685v9.299c0.74-0.034,1.46-0.102,2.11-0.18l0.135,1.324
					c-3.145,0.518-7.321,0.606-9.949,0.629l-0.226-1.526l2.111-0.022V4.414h-1.685V2.932h9.187L96.23,4.414L96.23,4.414z
					 M92.929,13.825V4.414h-2.583v9.501C91.188,13.893,92.064,13.87,92.929,13.825z M100.139,19.306h-1.662v-7.524H95.76v-1.46
					h2.718V7.559H95.76v-1.46h2.718V0.888h1.662V19.306z M104.024,20.361h-1.707V0.394h1.707V20.361z"/>
				<path fill="#484848" d="M107.933,16.61l-0.966-1.438c5.401-2.562,8.152-6.392,8.558-11.163h-7.637V2.572h9.434
					C117.3,8.322,114.627,13.398,107.933,16.61z M123.229,20.361h-1.774V0.394h1.774V20.361z"/>
				<path fill="#484848" d="M144.791,10.276h-8.242v1.978h5.906v4.47h-11.858v2.021h12.466v1.393h-14.218v-4.739h11.882v-1.773
					H128.8v-1.37h5.997v-1.978h-8.198V8.839h18.192V10.276z M142.433,7.154h-13.478V1.067h13.478V7.154z M130.709,5.739h9.973V2.482
					h-9.973V5.739z"/>
				<path fill="#484848" d="M164.354,14.769l-1.011,1.37c-2.27-1.044-4.155-3.224-5.031-5.862c-0.876,2.785-2.74,5.121-5.009,6.223
					l-1.011-1.37c2.92-1.37,5.12-4.784,5.12-8.221V5.313h-4.582V3.875h4.582V0.775h1.752v3.101h4.516v1.438h-4.537v1.596
					C159.144,10.209,161.39,13.443,164.354,14.769z M168.802,20.406h-1.774V9.895h-4.38v-1.46h4.38V0.394h1.774V20.406z"/>
				<path fill="#484848" d="M182.549,9.355h-7.457v4.717c3.313,0,6.267-0.146,9.838-0.719l0.18,1.482
					c-3.684,0.584-6.716,0.719-10.152,0.719h-1.661V7.918h7.479v-4.2h-7.524v-1.46h9.3L182.549,9.355L182.549,9.355z
					 M188.612,20.406h-1.752V0.394h1.752V20.406z"/>
			</g>
		</g>
	</g>
</g>
<g id="g-root-ic_recy_93dboh1n5xsld-fill" transform="translate(410, 205.99996948242188)">
</g>
<g id="g-root-tx__1q7l3dt1n622o0-fill" transform="translate(746, 169.99996948242188)">
	<g id="tx__1q7l3dt1n622o0-fill">
		<g>
			<g enable-background="new    ">
				<path fill="#484848" d="M132.326,8.14h-8.131v4.088h-1.752V8.14h-8.399V6.68h18.282V8.14z M131.181,3.558l-0.696,1.394
					c-3.032-0.518-6.031-2.201-7.3-4.537c-1.258,2.381-4.29,4.043-7.322,4.56l-0.695-1.393c3.48-0.539,7.098-2.854,7.098-5.549
					v-1.011h1.818v1.011C124.084,0.638,127.722,3.019,131.181,3.558z M130.282,16.046H116.38v-5.772h1.773v4.29h12.129V16.046z"/>
				<path fill="#484848" d="M139.267,8.297V6.77c-2.325-0.214-3.818-1.325-3.818-3.01c0-1.932,1.864-3.077,4.672-3.077
					c2.83,0,4.672,1.146,4.694,3.077c-0.022,1.673-1.481,2.785-3.796,3.01v1.438c1.876-0.09,3.763-0.271,5.503-0.539l0.157,1.258
					c-4.29,0.809-9.119,0.876-12.623,0.898l-0.202-1.438C135.438,8.387,137.313,8.376,139.267,8.297z M145.915-0.193h-11.566v-1.325
					h4.919V-3.54h1.752v2.021h4.896V-0.193z M150.25,16.046h-13.408v-4.964h1.773v3.48h11.635V16.046z M137.134,3.76
					c0,1.101,1.146,1.797,2.986,1.797c1.842,0,3.011-0.696,3.011-1.797c0-1.123-1.168-1.819-3.011-1.819
					C138.278,1.941,137.134,2.637,137.134,3.76z M149.531,3.513h2.987v1.482h-2.987v7.143h-1.773V-3.495h1.773V3.513z"/>
				<path fill="#484848" d="M165.142,0.188h-11.298V-1.25h4.852v-2.403h1.752v2.403h4.694V0.188z M164.108,4.905
					c0,2.246-1.887,3.706-4.56,3.706c-2.695,0-4.537-1.46-4.516-3.706c-0.021-2.224,1.819-3.684,4.516-3.684
					C162.222,1.222,164.108,2.682,164.108,4.905z M156.675,4.905c0,1.415,1.146,2.336,2.875,2.336c1.729,0,2.896-0.921,2.92-2.336
					c-0.022-1.393-1.19-2.336-2.92-2.357C157.819,2.569,156.675,3.513,156.675,4.905z M170.487,13.036
					c0,2.134-2.538,3.392-6.692,3.392c-4.2,0-6.717-1.258-6.717-3.392c0-2.18,2.517-3.414,6.717-3.414
					C167.949,9.622,170.487,10.857,170.487,13.036z M158.897,13.036c0,1.258,1.864,2.021,4.896,2.021
					c2.987,0,4.829-0.764,4.829-2.021c0-1.304-1.842-2.044-4.829-2.044C160.762,10.992,158.897,11.733,158.897,13.036z
					 M170.375,9.42h-1.773V6.657h-3.481v-1.46h3.481V2.771h-3.459v-1.46h3.459v-4.807h1.773V9.42z"/>
				<path fill="#484848" d="M197.756,14.024h-18.283v-1.46h18.283V14.024z M196.722,1.064H180.37v-1.46h7.322v-2.718h1.729v2.718
					h7.3L196.722,1.064L196.722,1.064z M195.128,6.32c0,2.448-2.538,3.932-6.56,3.932c-4.064,0-6.581-1.482-6.559-3.932
					c-0.022-2.471,2.492-3.952,6.559-3.931C192.59,2.367,195.128,3.85,195.128,6.32z M183.762,6.32
					c-0.022,1.551,1.842,2.493,4.807,2.493c2.92,0,4.762-0.942,4.762-2.493c0-1.55-1.842-2.516-4.762-2.492
					C185.604,3.805,183.739,4.771,183.762,6.32z"/>
				<path fill="#484848" d="M217.61,8.274h-18.283v-1.46h18.283V8.274z M215.253,1.716h-11.792v1.999h12.219v1.37h-13.971V0.391
					h11.77v-1.977h-11.837v-1.415h13.611V1.716z M215.253,16.203H201.82v-6.109h13.433V16.203z M203.551,14.766h9.973v-3.234h-9.973
					V14.766L203.551,14.766z"/>
			</g>
		</g>
	</g>
</g>
<g id="g-root-ic_reop_1q9gin51n60nin-fill" transform="translate(746, 110)">
</g>
<g id="g-root-ic_1_4loeap1n5z7r8-fill" transform="translate(578, 134)">
</g>
<g id="g-root-cp_0f_g-0f_1ut0va91n5v1mp-stroke" transform="translate(98, 388.9999694824219)">
	<g id="cp_0f_g-0f_1ut0va91n5v1mp-stroke">
		<g>
			<path fill="none" stroke="#92BD39" stroke-width="2" stroke-linecap="round" stroke-linejoin="round" d="M839.742,23.553
				l-11.088,4.928l-20.916-5.81L786.82,33.129v209.168h53.455v-10.458h-13.943l5.811-13.945l-3.486-3.484l5.813-10.459l-3.486-3.484
				l5.811-10.459l-3.483-3.485l5.81-10.458l-3.485-3.485l6.974-13.944l6.973,13.944l-3.485,3.485l5.811,10.458l-3.486,3.485
				l5.812,10.459l-3.485,3.484l5.812,10.459l-3.485,3.484l5.812,13.945H844.93v10.458h65.075v-6.973h-9.297l5.812-10.458
				l-3.486-3.485l5.812-10.459l-3.486-3.486l6.974-13.943l6.973,13.943l-3.484,3.486l5.812,10.459l-3.486,3.485l5.812,10.458h-9.297
				v6.973H996L839.742,23.553z"/>
		</g>
	</g>
	<g id="cp_0f_g-0f_1ut0va91n5v1mp-stroke_1_">
		<g>
			<path fill="none" stroke="#92BD39" stroke-width="2" stroke-linecap="round" stroke-linejoin="round" d="M674.726,106.396
				l-39.505-54.697l-8.763,4.673l-17.432-5.812l-17.431,10.458v161.758L674.726,106.396z"/>
		</g>
	</g>
	<g id="cp_0f_g-0f_1ut0va91n5v1mp-stroke_2_">
		<g>
			<path fill="none" stroke="#92BD39" stroke-width="2" stroke-linecap="round" stroke-linejoin="round" d="M479.509,146.494
				l-45.856-62.532l-19.846-5.514l-17.433,10.458v153.391h13.944L479.509,146.494z"/>
		</g>
	</g>
	<g id="cp_0f_g-0f_1ut0va91n5v1mp-stroke_3_">
		<g>
			<path fill="none" stroke="#92BD39" stroke-width="2" stroke-linecap="round" stroke-linejoin="round" d="M284.349,185.893
				l-55.31-73.743l-13.943-5.812l-13.945,10.459v125.5h41.834L284.349,185.893z"/>
		</g>
	</g>
	<g id="cp_0f_g-0f_1ut0va91n5v1mp-stroke_4_">
		<g>
			<path fill="none" stroke="#92BD39" stroke-width="2" stroke-linecap="round" stroke-linejoin="round" d="M89.34,224.043
				l-13.69,18.254h-39.51v-6.973h9.297l-5.812-10.458l3.486-3.485l-5.811-10.459l3.486-3.486l-6.972-13.943l-6.973,13.943
				l3.486,3.486l-5.81,10.459l3.485,3.485l-5.81,10.458h9.297v6.973H5.927v-97.611l13.699-10.273L89.34,224.043z"/>
		</g>
	</g>
</g>
<g id="g-root-cp_0e_g-0e_1ut0va91n5v1mv-stroke" transform="translate(14, 388.9999694824219)">
	<g id="cp_0e_g-0e_1ut0va91n5v1mv-stroke">
		<g>
			<path fill="none" stroke="#3CC583" stroke-width="2" stroke-linecap="round" stroke-linejoin="round" d="M849.904,22.671
				l20.916,10.458v209.168H650.033v-13.943h11.619l-5.81-10.46l3.484-3.484l-5.811-10.459l3.486-3.484l-5.813-10.459l3.486-3.485
				l-6.974-13.943l-6.973,13.943l3.486,3.485l-5.813,10.459l3.486,3.484l-5.811,10.459l3.484,3.484l-5.81,10.46h11.619v13.943
				H494.318L631.974,51.697l8.762,4.673l17.432-5.812l17.432,10.458v161.758l142.3-199.221l11.089,4.928L849.904,22.671z"/>
		</g>
	</g>
	<g id="cp_0e_g-0e_1ut0va91n5v1mv-stroke_1_">
		<g>
			<path fill="none" stroke="#3CC583" stroke-width="2" stroke-linecap="round" stroke-linejoin="round" d="M480.374,242.297V88.907
				l-17.431-10.458l-19.847,5.514L326.984,242.297h95.288v-6.973h-9.296l5.81-10.458l-3.484-3.485l5.811-10.459l-3.486-3.486
				l6.974-13.943l6.972,13.943l-3.485,3.486l5.811,10.459l-3.486,3.485l5.813,10.458h-9.297v6.973h30.213v-10.458H443.19
				l5.81-13.945l-3.484-3.484l5.811-10.459l-3.484-3.484l5.811-10.459l-3.486-3.485l5.812-10.457l-3.486-3.486l6.973-13.944
				l6.973,13.944l-3.486,3.486l5.813,10.457l-3.486,3.485l5.811,10.459l-3.485,3.484l5.811,10.459l-3.485,3.484l5.811,13.945
				h-13.944v10.458H480.374L480.374,242.297z"/>
		</g>
	</g>
	<g id="cp_0e_g-0e_1ut0va91n5v1mv-stroke_2_">
		<g>
			<path fill="none" stroke="#3CC583" stroke-width="2" stroke-linecap="round" stroke-linejoin="round" d="M257.261,112.148
				l-97.612,130.147h125.5v-125.5l-13.944-10.459L257.261,112.148z"/>
		</g>
	</g>
	<g id="cp_0e_g-0e_1ut0va91n5v1mv-stroke_3_">
		<g>
			<path fill="none" stroke="#3CC583" stroke-width="2" stroke-linecap="round" stroke-linejoin="round" d="M76.228,134.228
				l13.7,10.292v97.777H8.583v-13.969h11.621l-5.811-10.478l3.486-3.491l-1.613-2.909L76.228,134.228z M-7.685,242.297
				l10.846-13.969h0.775v13.969H-7.685z"/>
		</g>
	</g>
</g>
<g id="g-root-cp_0d_g-0d_1qd7d5t1n5v2f8-stroke" transform="translate(24, 566)">
	<g id="cp_0d_g-0d_1qd7d5t1n5v2f8-stroke">
		<g>
			<path fill="none" stroke="#DE8431" stroke-width="2" stroke-linecap="round" stroke-linejoin="round" d="M988.646,58.324h-4.648
				v6.973h4.648V58.324z"/>
		</g>
	</g>
	<g id="cp_0d_g-0d_1qd7d5t1n5v2f8-stroke_1_">
		<g>
			<path fill="none" stroke="#DE8431" stroke-width="2" stroke-linecap="round" stroke-linejoin="round" d="M918.925,54.839h-4.647
				v10.458h4.647V54.839z"/>
		</g>
	</g>
	<g id="cp_0d_g-0d_1qd7d5t1n5v2f8-stroke_2_">
		<g>
			<path fill="none" stroke="#DE8431" stroke-width="2" stroke-linecap="round" stroke-linejoin="round" d="M640.033,51.354h-4.647
				v13.942h4.647V51.354z"/>
		</g>
	</g>
	<g id="cp_0d_g-0d_1qd7d5t1n5v2f8-stroke_3_">
		<g>
			<path fill="none" stroke="#DE8431" stroke-width="2" stroke-linecap="round" stroke-linejoin="round" d="M451.781,54.839h-4.647
				v10.458h4.647V54.839z"/>
		</g>
	</g>
	<g id="cp_0d_g-0d_1qd7d5t1n5v2f8-stroke_4_">
		<g>
			<path fill="none" stroke="#DE8431" stroke-width="2" stroke-linecap="round" stroke-linejoin="round" d="M416.921,58.324h-4.647
				v6.973h4.647V58.324z"/>
		</g>
	</g>
	<g id="cp_0d_g-0d_1qd7d5t1n5v2f8-stroke_5_">
		<g>
			<path fill="none" stroke="#DE8431" stroke-width="2" stroke-linecap="round" stroke-linejoin="round" d="M110.14,58.324h-4.648
				v6.973h4.647L110.14,58.324z"/>
		</g>
	</g>
	<g id="cp_0d_g-0d_1qd7d5t1n5v2f8-stroke_6_">
		<g>
			<path fill="none" stroke="#DE8431" stroke-width="2" stroke-linecap="round" stroke-linejoin="round" d="M-1.416,51.354h-4.646
				v13.942h4.646V51.354z"/>
		</g>
	</g>
</g>
<g id="g-root-cp_0c_g-0c_1ly0c4h1n5v01w-stroke" transform="translate(14, 505.9999694824219)">
	<g id="cp_0c_g-0c_1ly0c4h1n5v01w-stroke">
		<g>
			<path fill="none" stroke="#92BD39" stroke-width="2" stroke-linecap="round" stroke-linejoin="round" d="M640.736,69.52
				l6.974-13.943l6.973,13.943l-3.486,3.485l5.812,10.459l-3.485,3.484l5.812,10.459l-3.485,3.484l5.81,10.46H633.77l5.81-10.46
				l-3.484-3.484l5.811-10.459l-3.485-3.484l5.812-10.459L640.736,69.52z"/>
		</g>
	</g>
	<g id="cp_0c_g-0c_1ly0c4h1n5v01w-stroke_1_">
		<g>
			<path fill="none" stroke="#92BD39" stroke-width="2" stroke-linecap="round" stroke-linejoin="round" d="M452.485,55.574
				l6.972-13.944l6.974,13.944l-3.486,3.485l5.812,10.458l-3.485,3.485l5.81,10.459l-3.484,3.484l5.811,10.459l-3.486,3.484
				l5.812,13.945H443.19L449,100.89l-3.484-3.484l5.811-10.459l-3.484-3.484l5.811-10.459l-3.486-3.485l5.812-10.458L452.485,55.574
				z"/>
		</g>
	</g>
	<g id="cp_0c_g-0c_1ly0c4h1n5v01w-stroke_2_">
		<g>
			<path fill="none" stroke="#92BD39" stroke-width="2" stroke-linecap="round" stroke-linejoin="round" d="M417.623,90.436
				l6.975-13.943l6.972,13.943l-3.486,3.486l5.812,10.459l-3.486,3.485l5.813,10.458h-23.241l5.81-10.458l-3.484-3.485l5.811-10.459
				L417.623,90.436z"/>
		</g>
	</g>
	<g id="cp_0c_g-0c_1ly0c4h1n5v01w-stroke_3_">
		<g>
			<path fill="none" stroke="#92BD39" stroke-width="2" stroke-linecap="round" stroke-linejoin="round" d="M-0.713,69.52
				l6.972-13.943l6.974,13.943l-3.486,3.485l5.811,10.459l-3.486,3.484l5.811,10.459l-3.486,3.484l5.811,10.46H-7.684l5.811-10.46
				l-3.486-3.484l5.811-10.459l-3.486-3.484l5.811-10.459L-0.713,69.52z"/>
		</g>
	</g>
</g>
<g id="g-root-cp_0b_g-0b_1hi6u011n5v0u9-stroke" transform="translate(112, 505.9999694824219)">
	<g id="cp_0b_g-0b_1hi6u011n5v0u9-stroke">
		<g>
			<path fill="none" stroke="#3CC583" stroke-width="2" stroke-linecap="round" stroke-linejoin="round" d="M891.35,90.436
				l6.973-13.943l6.974,13.943l-3.485,3.486l5.811,10.459l-3.484,3.485l5.811,10.458h-23.242l5.813-10.458l-3.486-3.485
				l5.812-10.459L891.35,90.436z"/>
		</g>
	</g>
	<g id="cp_0b_g-0b_1hi6u011n5v0u9-stroke_1_">
		<g>
			<path fill="none" stroke="#3CC583" stroke-width="2" stroke-linecap="round" stroke-linejoin="round" d="M821.628,55.574
				l6.974-13.944l6.973,13.944l-3.484,3.485l5.81,10.458l-3.486,3.485l5.813,10.459l-3.486,3.484l5.812,10.459l-3.485,3.484
				l5.812,13.945H812.34l5.811-13.945l-3.486-3.484l5.813-10.459l-3.486-3.484l5.812-10.459l-3.484-3.485l5.81-10.458
				L821.628,55.574z"/>
		</g>
	</g>
	<g id="cp_0b_g-0b_1hi6u011n5v0u9-stroke_2_">
		<g>
			<path fill="none" stroke="#3CC583" stroke-width="2" stroke-linecap="round" stroke-linejoin="round" d="M12.844,90.436
				l6.972-13.943l6.972,13.943l-3.485,3.486l5.81,10.459l-3.486,3.485l5.812,10.458H8.196l5.81-10.458l-3.485-3.485l5.81-10.459
				L12.844,90.436z"/>
		</g>
	</g>
</g>
<g id="g-root-cp_0a_g-0a_1hi6u011n5v0ud-stroke" transform="translate(50, 301.9999694824219)">
	<g id="cp_0a_g-0a_1hi6u011n5v0ud-stroke">
		<g>
			<path fill="none" stroke="#808080" stroke-width="2" stroke-linecap="round" stroke-linejoin="round" d="M-1.851,245.63
				l55.778-69.724l83.667,104.584L249.15,134.073l83.668,111.558L444.374,92.24l83.667,111.558L639.598,50.407l83.667,118.527
				L834.82,8.573l83.668,111.557l48.808-55.777"/>
		</g>
	</g>
	<g id="cp_0a_g-0a_1hi6u011n5v0ud-stroke_1_">
		<g>
			<path fill="none" stroke="#808080" stroke-width="2" stroke-linecap="round" stroke-linejoin="round" d="M974.83,55.76
				l-2.728,13.822l-10.607-9.271L974.83,55.76z"/>
		</g>
	</g>
</g>
<g id="g-root-cp_5_g-5_1hi6u011n5v0ug-stroke" transform="translate(724.4580078125, 325.9999694824219)">
	<g id="cp_5_g-5_1hi6u011n5v0ug-stroke">
		<g>
			<path fill="none" stroke="#7F64EA" stroke-width="2" stroke-linecap="round" stroke-linejoin="round" d="M107.441,86.552
				l11.089,4.929l20.916-5.81l20.916,10.458l20.918-10.458l20.916,5.81l11.088-4.929l-52.92-74.089l-0.002-0.001L107.441,86.552z"/>
		</g>
	</g>
</g>
<g id="g-root-cp_4_g-4_1d2dbvl1n5v1mq-stroke" transform="translate(564.4600219726562, 361.9999694824219)">
	<g id="cp_4_g-4_1d2dbvl1n5v1mq-stroke">
		<g>
			<path fill="none" stroke="#4E88E7" stroke-width="2" stroke-linecap="round" stroke-linejoin="round" d="M81.515,78.697
				l8.762,4.673l17.432-5.812l17.432,10.458l17.43-10.457l17.432,5.812l8.763-4.673L125.14,18.296L81.515,78.697z"/>
		</g>
	</g>
</g>
<g id="g-root-cp_3_g-3_1d2dbvl1n5v1ms-stroke" transform="translate(401.9209899902344, 397.9999694824219)">
	<g id="cp_3_g-3_1d2dbvl1n5v1ms-stroke">
		<g>
			<path fill="none" stroke="#1EABDA" stroke-width="2" stroke-linecap="round" stroke-linejoin="round" d="M55.176,74.962
				l19.847-5.514l17.431,10.458l17.433-10.458l19.846,5.514L92.453,24.129L55.176,74.962z"/>
		</g>
	</g>
</g>
<g id="g-root-cp_2_g-2_146qbmp1n5v2fi-stroke" transform="translate(242, 433.9999694824219)">
	<g id="cp_2_g-2_146qbmp1n5v2fi-stroke">
		<g>
			<path fill="none" stroke="#92BD39" stroke-width="2" stroke-linecap="round" stroke-linejoin="round" d="M29.261,67.148
				l13.943-5.812l13.944,10.459l13.945-10.459l13.943,5.812L57.15,29.963L29.261,67.148z"/>
		</g>
	</g>
</g>
<g id="g-root-cp_1_g-1_18mjtr51n5v2f4-stroke" transform="translate(86.20999145507812, 469.9999694824219)">
	<g id="cp_1_g-1_18mjtr51n5v2f4-stroke">
		<g>
			<path fill="none" stroke="#3CC583" stroke-width="2" stroke-linecap="round" stroke-linejoin="round" d="M31.416,53.41
				l-13.7-17.613L4.016,53.41l13.699,10.273L31.416,53.41z"/>
		</g>
	</g>
</g>
<g id="g-root-ic_tras_vbpsgx1n5v0ub-stroke" transform="translate(74, 301.9999694824219)">
	<g id="ic_tras_vbpsgx1n5v0ub-stroke">
		<g>
			<path fill="none" stroke="#3CC583" stroke-width="2" stroke-linecap="round" stroke-linejoin="round" d="M18.423,25.423
				l-3.95-3.95l3.95-8.135l9.064-3.021l6.042,3.951v8.134l2.092,2.093l-1.858,1.858c-1.859,1.858-4.648,2.322-6.973,0.929
				l-1.162-0.696L18.423,25.423z M25.396,26.354v-7.438 M43.291,14.964c0,0,5.811-4.647,12.783-4.647 M39.339,34.719l-6.507,25.799
				c-0.231,1.162-1.395,2.09-2.557,2.09H12.844c-1.162,0-2.324-0.928-2.557-2.09L3.781,34.719H39.339z M18.19,62.376l-3.486-27.657
				 M24.93,62.376l3.485-27.657 M6.105,44.016h30.91 M8.429,53.313h26.262"/>
		</g>
	</g>
</g>
<g id="g-root-tx__hyduu91n5xu6n-stroke" transform="translate(242, 313.9999694824219)">
</g>
<g id="g-root-tx__90vfc11n5za4r-stroke" transform="translate(410, 301.9999694824219)">
</g>
<g id="g-root-tx__hwifkx1n5z9c2-stroke" transform="translate(410, 265.9999694824219)">
</g>
<g id="g-root-tx__vbpsgx1n5we84-stroke" transform="translate(74, 361.9999694824219)">
</g>
<g id="g-root-tx__dikcpt1n5xuyw-stroke" transform="translate(242, 349.9999694824219)">
</g>
<g id="g-root-ic_1_i09a3l1n5wft2-stroke" transform="translate(242, 253.99996948242188)">
	<g id="ic_1_i09a3l1n5wft2-stroke">
		<g>
			<path fill="none" stroke="#92BD39" stroke-width="2" stroke-linecap="round" stroke-linejoin="round" d="M82.738,43.43
				c1.627,3.021-0.464,6.74-3.951,6.74H68.562 M66.007,27.859c1.858-3.021,6.273-3.021,7.9,0l6.043,10.458 M61.125,50.17
				c-3.485,0-5.811-3.719-3.95-6.74l5.578-9.993 M72.979,45.522l-4.417,4.648l4.417,4.647 M64.61,39.479l-1.857-6.042l-6.275,1.627
				 M73.676,36.69l6.274,1.627l1.627-6.275 M48.436,44.372H34.49c-1.859,0-3.486-1.627-3.486-3.486V16.482
				c0-1.858,1.627-3.485,3.486-3.485h34.862c1.859,0,3.486,1.626,3.486,3.485v4.648 M71.677,13.926L65.17,4.165
				c-0.698-0.931-1.627-1.627-2.789-1.627H41.696c-1.162,0-2.324,0.696-2.79,1.627l-6.739,9.761 M51.921,2.538v10.459"/>
		</g>
	</g>
</g>
<g id="g-root-tx__3zgwx1n60mx2-stroke" transform="translate(578, 229.99996948242188)">
</g>
<g id="g-root-tx__mg2s811n5wf0t-stroke" transform="translate(74, 397.9999694824219)">
</g>
<g id="g-root-tx__1hckk811n620ax-stroke" transform="translate(746, 205.99996948242188)">
</g>
<g id="g-root-tx__4jsz1d1n60m4t-stroke" transform="translate(578, 193.99996948242188)">
</g>
<g id="g-root-ic_recy_93dboh1n5xsld-stroke" transform="translate(410, 205.99996948242188)">
	<g id="ic_recy_93dboh1n5xsld-stroke">
		<g>
			<path fill="none" stroke="#1EABDA" stroke-width="2" stroke-linecap="round" stroke-linejoin="round" d="M105.291,10.944
				c-0.465-9.592-1.734-16.478-3.231-16.478 M102.05-5.533h-7.3c-1.049-0.002-1.967,0.709-2.228,1.727
				C91.897-1.249,91.16,4.81,90.771,8.279c-0.167,1.459-1.403,2.561-2.87,2.558H71.445c-0.81,0-1.583-0.341-2.129-0.938
				S68.498,8.5,68.57,7.693c0.297-3.234,0.772-8.135,1.142-10.591c0.101-0.659-0.094-1.328-0.524-1.834
				c-0.435-0.505-1.066-0.798-1.731-0.801h-4.792c-1.072-0.009-2.006,0.731-2.24,1.778c-2.686,12.53-2.43,28.473-1.147,45.612
				c0.06,0.922,0.672,1.718,1.55,2.007c3.94,1.131,7.993,1.823,12.084,2.069 M69.955,2.455H90.64 M86.76,29.272l-5.97,10.342
				c-0.395,0.684-0.395,1.524,0,2.208c0.396,0.684,1.124,1.104,1.914,1.104h9.51 M102.98,27.273l-5.578-9.742
				c-0.392-0.688-1.124-1.109-1.913-1.109c-0.791,0-1.521,0.423-1.915,1.109l-4.478,7.765 M96.88,42.927h11.314
				c0.789,0.001,1.52-0.42,1.914-1.104c0.396-0.683,0.396-1.524,0.001-2.209l-4.585-8.018 M104.644,20.843l-1.64,6.419l-6.42-1.639
				 M80.382,31.127l6.378-1.79l1.792,6.377 M101.326,47.344l-4.741-4.629l4.628-4.739 M101.403-5.533
				c-1.081,5.375-1.761,10.824-2.038,16.299"/>
		</g>
	</g>
</g>
<g id="g-root-tx__1q7l3dt1n622o0-stroke" transform="translate(746, 169.99996948242188)">
</g>
<g id="g-root-ic_reop_1q9gin51n60nin-stroke" transform="translate(746, 110)">
	<g id="ic_reop_1q9gin51n60nin-stroke">
		<g>
			<path fill="none" stroke="#7F64EA" stroke-width="2" stroke-linecap="round" stroke-linejoin="round" d="M133.012,5.35
				c0,3.208,2.601,5.812,5.809,5.812c3.21,0,5.812-2.603,5.812-5.812s-2.602-5.811-5.812-5.811
				C135.612-0.461,133.012,2.141,133.012,5.35 M154.409-8.599c-2.823-3.155-6.541-5.381-10.656-6.379
				c-4.116-0.999-8.438-0.723-12.396,0.788c-3.957,1.512-7.361,4.19-9.764,7.678c-2.401,3.488-3.688,7.625-3.688,11.86v1.75
				 M123.233,19.297c2.824,3.157,6.54,5.381,10.657,6.379c4.115,0.999,8.438,0.724,12.394-0.787
				c3.957-1.511,7.362-4.188,9.766-7.677c2.402-3.489,3.688-7.624,3.688-11.859V3.612 M154.51,8.834l5.229-5.229l5.229,5.229
				 M123.135,1.862l-5.229,5.229l-5.229-5.229"/>
		</g>
	</g>
</g>
<g id="g-root-tx__zrjald1n5v022-stroke" transform="translate(416, 38)">
</g>
<g id="g-root-ic_1_4loeap1n5z7r8-stroke" transform="translate(578, 134)">
	<g id="ic_1_4loeap1n5z7r8-stroke">
		<g>
			<path fill="none" stroke="#4E88E7" stroke-width="2" stroke-linecap="round" stroke-linejoin="round" d="M137.016,7.844V2.847
				c0-1.283-1.04-2.324-2.323-2.324H116.1c-0.94,0-1.787,0.563-2.147,1.432l-5.215,12.513H87.82c-1.283,0-2.325,1.04-2.325,2.324
				v18.592h20.918 M89.563,14.468l2.323-31.375h8.716l2.324,31.375 M101.721-1.801H90.768l0.515-6.974h9.922L101.721-1.801z
				 M117.55,29.142c0,0,2.832,5.811,7.602,5.364c9.663-0.884,9.018-13.729,12.549-18.267c-6.062-3.018-13.202-2.953-19.209,0.175
				C113.484,19.251,113.132,24.017,117.55,29.142z M124.382,23.25c0,0-6.275,0.777-10.744,11.692"/>
		</g>
	</g>
</g>
</svg>
