<?xml version="1.0" encoding="UTF-8"?>
<svg id="Layer_1" xmlns="http://www.w3.org/2000/svg" version="1.1" viewBox="0 0 93.3 93.4">
  <!-- Generator: Adobe Illustrator 29.3.1, SVG Export Plug-In . SVG Version: 2.1.0 Build 151)  -->
  <defs>
    <style>
      .st0 {
        fill: #231815;
      }

      .st1 {
        fill: #fff;
      }

      .st2 {
        fill: none;
      }

      .st3 {
        fill: #de0515;
      }

      .st4 {
        fill: #0f0a0a;
      }

      .st5 {
        fill: #86807c;
      }
    </style>
  </defs>
  <g>
    <path class="st0" d="M46.5,17l-31.8,49.7,63.9-.3L46.5,17ZM46.6,29.4l20,30.6H26.1l20.4-30.6h0Z"/>
    <polygon class="st4" points="25.8 60.1 46.4 29.3 46.5 18.1 15.8 66 25.8 60.1"/>
    <g>
      <rect class="st3" x=".4" y="33.3" width="24.3" height="1.5"/>
      <path class="st0" d="M25,35.2H0v-2.3h25v2.3ZM.8,34.3h23.5v-.7H.8v.7Z"/>
    </g>
    <g>
      <rect class="st3" x="6.5" y="37.4" width="12" height="1.5"/>
      <path class="st0" d="M18.9,39.3H6.1v-2.3h12.8v2.3ZM6.9,38.5h11.3v-.7H6.9v.7Z"/>
    </g>
    <g>
      <rect class="st5" x="74.6" y="18.3" width="1.5" height="23.9"/>
      <path class="st0" d="M76.5,42.5h-2.3v-24.7h2.3v24.6h0s0,.1,0,0h0ZM74.9,41.7h.8v-23h-.8v23Z"/>
    </g>
    <g>
      <rect class="st5" x="70.4" y="18.3" width="1.5" height="11.8"/>
      <path class="st0" d="M72.3,30.5h-2.3v-12.7h2.3v12.7ZM70.7,29.7h.8v-11h-.8v11.1h0Z"/>
    </g>
    <g>
      <polygon class="st1" points="44.8 72.6 59 91.9 57.8 92.8 43.5 73.4 44.8 72.6"/>
      <path class="st0" d="M57.7,93.4l-14.7-19.9,1.9-1.3,14.7,19.9-1.9,1.3h0ZM44.1,73.5l13.8,18.7.6-.4-13.8-18.7-.6.4Z"/>
    </g>
    <g>
      <polygon class="st1" points="48.2 70.2 55.2 79.8 54 80.7 46.9 71.1 48.2 70.2"/>
      <path class="st0" d="M53.9,81.2l-7.5-10.2,1.9-1.3,7.5,10.2-1.9,1.3ZM47.5,71.2l6.6,8.9.6-.4-6.6-8.9-.6.4h0Z"/>
    </g>
    <rect class="st3" x=".1" y="33" width="24.8" height="2.1"/>
    <rect class="st3" x="6.2" y="37.1" width="12.6" height="2.1"/>
    <rect class="st5" x="74.3" y="18" width="2.1" height="24.5"/>
    <rect class="st5" x="70.1" y="18" width="2.1" height="12.4"/>
    <polygon class="st4" points="44.8 72.6 59 91.9 57.8 92.8 43.5 73.4 44.8 72.6"/>
    <polygon class="st4" points="48.2 70.2 55.2 79.8 54 80.7 46.9 71.1 48.2 70.2"/>
    <polygon class="st3" points="66.9 60 46.6 29 46.6 17.6 78 66 66.9 60"/>
    <polygon class="st5" points="66.6 60.2 26 60.2 15.2 66.5 77.8 66.2 66.6 60.2"/>
  </g>
  <rect class="st2" x="78.6" y="50.2" width="14.7" height="20.9"/>
  <rect class="st2" x="39.2" y="2.7" width="14.7" height="14.2"/>
</svg>