<?xml version="1.0" encoding="utf-8"?>
<!-- Generator: Adobe Illustrator 16.0.0, SVG Export Plug-In . SVG Version: 6.00 Build 0)  -->
<!DOCTYPE svg PUBLIC "-//W3C//DTD SVG 1.1//EN" "http://www.w3.org/Graphics/SVG/1.1/DTD/svg11.dtd">
<svg version="1.1" id="Layer_1" xmlns="http://www.w3.org/2000/svg" xmlns:xlink="http://www.w3.org/1999/xlink" x="0px" y="0px"
	 width="147.401px" height="269.291px" viewBox="0 0 147.401 269.291" enable-background="new 0 0 147.401 269.291"
	 xml:space="preserve">
<rect x="-0.149" y="-0.122" fill="none" width="147" height="269"/>
<g>
	<g>
		<circle fill="#FFFFFF" cx="73.87" cy="72.499" r="47.647"/>
		<rect x="64.526" y="6.799" fill="#152F5F" width="17.391" height="18.729"/>
		
			<rect x="42.55" y="11.528" transform="matrix(-0.9205 0.3907 -0.3907 -0.9205 106.5816 20.1023)" fill="#152F5F" width="17.392" height="18.728"/>
		
			<rect x="24.18" y="24.449" transform="matrix(-0.6947 0.7193 -0.7193 -0.6947 80.0386 33.6556)" fill="#152F5F" width="17.394" height="18.729"/>
		
			<rect x="12.369" y="43.566" transform="matrix(-0.3583 0.9336 -0.9336 -0.3583 78.0287 52.2283)" fill="#152F5F" width="17.391" height="18.73"/>
		<rect x="65.823" y="119.468" fill="#152F5F" width="17.395" height="18.732"/>
		
			<rect x="87.774" y="114.76" transform="matrix(0.9205 -0.3908 0.3908 0.9205 -40.8335 47.5662)" fill="#152F5F" width="17.393" height="18.732"/>
		
			<rect x="106.176" y="101.838" transform="matrix(0.6946 -0.7194 0.7194 0.6946 -44.9174 116.5967)" fill="#152F5F" width="17.394" height="18.731"/>
		
			<rect x="118.018" y="82.718" transform="matrix(0.3583 -0.9336 0.9336 0.3583 -4.6628 177.3857)" fill="#152F5F" width="17.392" height="18.734"/>
		<rect x="8.173" y="64.455" fill="#152F5F" width="18.729" height="17.391"/>
		
			<rect x="13.559" y="85.758" transform="matrix(0.3907 0.9205 -0.9205 0.3907 101.1225 37.4729)" fill="#152F5F" width="17.392" height="18.729"/>
		
			<rect x="26.474" y="104.132" transform="matrix(0.7194 0.6946 -0.6946 0.7194 88.7065 7.42)" fill="#152F5F" width="17.392" height="18.73"/>
		
			<rect x="45.59" y="115.977" transform="matrix(0.9336 0.3583 -0.3583 0.9336 48.5178 -11.1283)" fill="#152F5F" width="17.389" height="18.73"/>
		<rect x="120.841" y="63.152" fill="#152F5F" width="18.73" height="17.394"/>
		
			<rect x="116.792" y="40.532" transform="matrix(-0.3909 -0.9204 0.9204 -0.3909 128.6112 184.9096)" fill="#F0EDEE" width="17.394" height="18.734"/>
		
			<rect x="103.824" y="22.174" transform="matrix(-0.7193 -0.6947 0.6947 -0.7193 171.5494 132.3919)" fill="#F0EDEE" width="17.394" height="18.731"/>
		
			<rect x="84.747" y="10.316" transform="matrix(-0.9336 -0.3583 0.3583 -0.9336 173.6332 71.5375)" fill="#F0EDEE" width="17.395" height="18.732"/>
		<g>
			<g>
				<path fill="#18305F" d="M57.173,53.837c-1.67,0-2.719,0.843-2.719,2.005c0,1.293,1.406,1.78,2.475,2.042l1.311,0.355
					c1.744,0.413,3.898,1.368,3.918,3.823c-0.02,2.286-1.838,3.972-5.041,3.972c-3.035,0-4.945-1.518-5.078-3.99h2.063
					c0.131,1.479,1.424,2.191,3.016,2.191c1.725,0,2.98-0.88,2.998-2.211c-0.018-1.18-1.123-1.667-2.564-2.042l-1.613-0.431
					c-2.172-0.6-3.541-1.705-3.541-3.598c0-2.343,2.1-3.897,4.834-3.897c2.756,0,4.686,1.574,4.742,3.766h-2.006
					C59.831,54.568,58.728,53.837,57.173,53.837z"/>
				<path fill="#18305F" d="M63.69,52.245h10.512v1.779h-4.215v11.787h-2.063V54.024H63.69V52.245z"/>
				<path fill="#18305F" d="M76.3,52.245h8.508v1.779H78.36v4.104h5.996v1.762H78.36v4.141h6.521v1.78H76.3V52.245L76.3,52.245z"/>
				<path fill="#18305F" d="M87.335,52.245h4.834c3.148,0,4.703,1.893,4.703,4.403c0,2.492-1.555,4.403-4.703,4.403h-2.773v4.76
					h-2.061V52.245z M91.964,59.291c2.004,0,2.828-1.125,2.828-2.643c0-1.537-0.824-2.642-2.828-2.642h-2.568v5.284H91.964z"/>
				<path fill="#18305F" d="M63.353,82.049c0-4.403,1.875-6.97,4.984-6.97s4.984,2.566,4.984,6.97c0,4.44-1.854,6.971-4.984,6.971
					C65.19,89.02,63.353,86.49,63.353,82.049z M71.261,82.049c0-3.373-1.105-5.229-2.924-5.229s-2.924,1.855-2.924,5.229
					c0,3.392,1.088,5.189,2.924,5.189C70.175,87.24,71.261,85.441,71.261,82.049z"/>
				<path fill="#18305F" d="M75.155,84.523l5.996-9.256H83.7v9.181h1.855v1.743H83.7v2.643h-1.949v-2.643h-6.596V84.523z
					 M81.751,84.448v-6.727h-0.148l-4.271,6.614v0.111L81.751,84.448L81.751,84.448z"/>
			</g>
		</g>
	</g>
	<g>
		<path fill="#070001" d="M17.038,156.297h9.311v1.949h-7.055v4.49h6.563v1.928h-6.563v4.531h7.137v1.949h-9.393V156.297z"/>
		<path fill="#070001" d="M34.142,158.041c-1.824,0-2.973,0.922-2.973,2.193c0,1.414,1.537,1.947,2.707,2.234l1.436,0.391
			c1.906,0.451,4.266,1.496,4.285,4.184c-0.02,2.502-2.01,4.348-5.516,4.348c-3.322,0-5.414-1.66-5.559-4.367h2.256
			c0.145,1.619,1.559,2.398,3.303,2.398c1.887,0,3.26-0.963,3.281-2.42c-0.021-1.291-1.23-1.824-2.811-2.234l-1.766-0.473
			c-2.379-0.656-3.875-1.865-3.875-3.938c0-2.563,2.297-4.266,5.291-4.266c3.016,0,5.127,1.723,5.189,4.121h-2.193
			C37.054,158.84,35.845,158.041,34.142,158.041z"/>
		<path fill="#070001" d="M48.19,158.164c-2.502,0-4.43,1.969-4.43,5.557c0,3.59,1.906,5.559,4.531,5.559
			c2.369,0,3.938-1.498,3.979-3.877h-3.65v-1.865h5.848v1.682c0,3.754-2.584,6.133-6.193,6.133c-4.02,0-6.748-2.934-6.748-7.629
			c0-4.738,2.811-7.629,6.645-7.629c3.221,0,5.682,2.01,6.193,4.9h-2.316C51.491,159.23,50.159,158.164,48.19,158.164z"/>
		<path fill="#070001" d="M76.675,165.402h-1.947v-2.234h-4.635v-1.602h4.635v-2.234h-4.451c-1.178,2.953-3.938,5.035-7.916,6.174
			l-0.779-1.52c4.35-1.25,6.893-3.578,7.24-6.541h-6.297v-1.6h8.408c0,0.676-0.07,1.332-0.184,1.947h3.979v-3.262h1.947V165.402z
			 M76.798,169.195c-0.02,2.236-2.461,3.609-6.172,3.609c-3.773,0-6.193-1.373-6.193-3.609c0-2.234,2.42-3.588,6.193-3.588
			C74.337,165.607,76.778,166.961,76.798,169.195z M66.36,169.195c0,1.293,1.641,2.053,4.266,2.053c2.584,0,4.203-0.76,4.225-2.053
			c-0.021-1.313-1.641-2.051-4.225-2.051C68.001,167.146,66.36,167.885,66.36,169.195z"/>
		<path fill="#070001" d="M88.282,157.098h4.594v-2.584h1.949v10.848h-1.949v-2.48h-4.613c-0.852,0.943-2.154,1.508-3.672,1.498
			c-2.768,0.02-4.818-1.826-4.818-4.391c0-2.584,2.051-4.43,4.818-4.408C86.118,155.568,87.421,156.143,88.282,157.098z
			 M81.638,159.988c0,1.6,1.23,2.748,2.953,2.729c1.682,0.02,2.912-1.129,2.912-2.729c0-1.641-1.23-2.748-2.912-2.729
			C82.868,157.24,81.638,158.348,81.638,159.988z M94.886,169.318c0,2.236-2.398,3.549-6.213,3.527
			c-3.836,0.021-6.234-1.291-6.215-3.527c-0.02-2.256,2.379-3.547,6.215-3.547C92.487,165.771,94.886,167.064,94.886,169.318z
			 M84.366,169.318c-0.021,1.271,1.619,1.99,4.307,1.99c2.707,0,4.307-0.719,4.307-1.99c0-1.313-1.6-2.051-4.307-2.051
			C85.985,167.27,84.345,168.008,84.366,169.318z M89.37,159.988c0,0.451-0.072,0.893-0.186,1.291h3.689v-2.625h-3.711
			C89.298,159.064,89.37,159.518,89.37,159.988z"/>
		<path fill="#070001" d="M103.991,169.545l-1.025-1.578c4.893-2.328,7.271-5.641,7.65-9.926h-6.768v-1.561h8.734
			C112.585,161.855,110.288,166.529,103.991,169.545z M118.06,172.889h-1.969v-18.375h1.969V172.889z"/>
		<path fill="#070001" d="M129.79,158.512h4.533v-3.998h1.928v18.416h-1.928v-7.055h-4.41c-0.789,1.846-2.234,2.912-3.998,2.912
			c-2.748,0-4.676-2.504-4.656-6.461c-0.02-3.938,1.908-6.439,4.656-6.439C127.587,155.887,128.97,156.852,129.79,158.512z
			 M123.104,162.326c0,2.912,1.148,4.717,2.811,4.717c1.66,0,2.811-1.805,2.811-4.717c0-2.893-1.148-4.695-2.811-4.695
			S123.104,159.436,123.104,162.326z M130.569,162.326c0,0.697-0.061,1.344-0.184,1.947h3.938v-4.162h-3.979
			C130.478,160.789,130.569,161.525,130.569,162.326z"/>
		<path fill="#070001" d="M11.491,196.064c0-0.879,0.721-1.6,1.617-1.6c0.879,0,1.6,0.721,1.6,1.6c0,0.896-0.721,1.617-1.6,1.617
			C12.212,197.682,11.491,196.961,11.491,196.064z"/>
		<path fill="#070001" d="M36.716,194.605h-6.521v1.705h4.658v3.305h-9.404v1.793h9.896v0.914H24.376v-3.551h9.404v-1.582h-9.457
			v-0.879h4.764v-1.705h-6.504v-0.914h14.133V194.605z M34.87,192.215H24.446v-4.676H34.87V192.215z M25.536,191.301h8.227v-2.848
			h-8.227V191.301z"/>
		<path fill="#070001" d="M52.308,197.207H48.44v5.309h-1.107v-5.309h-4.254v5.309h-1.105v-5.309h-3.852v-0.914H52.31v0.914H52.308z
			 M50.567,191.441h-9.563v2.162h9.896v0.932H39.897v-3.973h9.545v-1.969h-9.598v-0.949h10.723V191.441L50.567,191.441z"/>
		<path fill="#070001" d="M72.241,200.635H58.038v-0.932h3.867v-2.971c-1.188-0.475-1.846-1.283-1.846-2.355
			c0-1.811,1.916-2.883,5.045-2.865c3.111-0.018,5.045,1.055,5.045,2.865c0,1.072-0.668,1.881-1.846,2.355v2.971h3.938V200.635
			L72.241,200.635z M71.397,190.369H58.776v-0.932h5.783v-2.145h1.09v2.145h5.748V190.369z M61.167,194.377
			c0,1.213,1.529,1.986,3.938,1.986c2.391,0,3.92-0.773,3.92-1.986c0-1.23-1.529-1.986-3.92-1.986
			C62.696,192.391,61.167,193.146,61.167,194.377z M67.196,199.703v-2.654c-0.615,0.133-1.318,0.193-2.092,0.193
			c-0.775,0-1.477-0.053-2.092-0.176v2.637H67.196z"/>
		<path fill="#070001" d="M87.728,194.588h-4.078v1.67h2.215v3.322h-9.402v1.828h9.895v0.914H75.388v-3.604h9.404v-1.582h-9.457
			v-0.879h2.197v-1.67h-3.938v-0.934h14.133V194.588L87.728,194.588z M86.075,189.912c0,1.74-2.021,2.707-5.432,2.707
			c-3.412,0-5.432-0.967-5.432-2.707s2.02-2.707,5.432-2.707C84.054,187.205,86.075,188.172,86.075,189.912z M76.354,189.912
			c0,1.16,1.635,1.828,4.289,1.828c2.672,0,4.307-0.668,4.307-1.828c0-1.143-1.635-1.828-4.307-1.828
			C77.989,188.084,76.354,188.77,76.354,189.912z M82.542,196.258v-1.67H78.64v1.67H82.542z"/>
		<path fill="#070001" d="M93.388,198.385v-1.828c-1.873-0.158-3.094-1.221-3.076-2.813c-0.018-1.74,1.441-2.865,3.621-2.865
			c2.162,0,3.639,1.125,3.639,2.865c0,1.582-1.223,2.646-3.076,2.813v1.793c1.514-0.078,3.031-0.201,4.447-0.404l0.088,0.861
			c-3.41,0.58-7.119,0.615-9.859,0.615l-0.213-0.967C90.267,198.455,91.796,198.445,93.388,198.385z M98.626,189.877h-9.404v-0.932
			h4.166v-1.934h1.107v1.934h4.131V189.877z M91.349,193.744c0,1.16,1.037,1.951,2.584,1.934c1.547,0.018,2.566-0.773,2.584-1.934
			c-0.018-1.16-1.037-1.986-2.584-1.986S91.349,192.584,91.349,193.744z M101.052,193.709h2.637v0.949h-2.637v7.857h-1.09v-15.504
			h1.09V193.709z"/>
		<path fill="#070001" d="M11.491,226.064c0-0.879,0.721-1.6,1.617-1.6c0.879,0,1.6,0.721,1.6,1.6c0,0.896-0.721,1.617-1.6,1.617
			C12.212,227.682,11.491,226.961,11.491,226.064z"/>
		<path fill="#070001" d="M31.513,224.641l0.123,0.914c-2.162,0.404-3.92,0.475-7.137,0.475h-1.143v-7.77h7.066v0.932h-5.959v2.408
			h5.693v0.932h-5.693v2.566h0.033C27.698,225.098,29.403,225.027,31.513,224.641z M35.415,232.146H25.062v-4.691h1.09v3.762h9.264
			V232.146z M34.659,221.898h2.391v0.949h-2.391v5.643h-1.107v-11.494h1.107V221.898z"/>
		<path fill="#070001" d="M52.343,230.424H38.14v-0.949h6.486v-3.885h1.09v3.885h6.627V230.424L52.343,230.424z M51.587,224.746
			l-0.51,0.932c-2.225-0.492-4.922-2.127-5.906-4.465c-0.994,2.338-3.684,3.973-5.889,4.465l-0.51-0.932
			c2.443-0.439,5.801-2.672,5.818-5.414v-1.23h1.143v1.23C45.733,222.057,49.144,224.307,51.587,224.746z"/>
		<path fill="#070001" d="M58.53,225.941l-0.457-0.896c3.92-1.08,6.363-3.262,6.645-6.064h-5.977v-0.932h7.154
			C65.896,221.881,63.101,224.693,58.53,225.941z M70.114,232.287h-9.738v-5.678h9.738V232.287z M61.483,231.355h7.523v-3.797
			h-7.523V231.355z M70.114,220.932h2.391v0.932h-2.391v3.99h-1.107v-8.842h1.107V220.932z"/>
		<path fill="#070001" d="M87.798,230.424H73.595v-0.949h6.486v-3.885h1.09v3.885h6.627V230.424z M87.042,224.746l-0.51,0.932
			c-2.225-0.492-4.922-2.127-5.906-4.465c-0.994,2.338-3.684,3.973-5.889,4.465l-0.51-0.932c2.443-0.439,5.801-2.672,5.818-5.414
			v-1.23h1.143v1.23C81.188,222.057,84.599,224.307,87.042,224.746z"/>
		<path fill="#070001" d="M11.491,256.064c0-0.879,0.721-1.6,1.617-1.6c0.879,0,1.6,0.721,1.6,1.6c0,0.896-0.721,1.617-1.6,1.617
			C12.212,257.682,11.491,256.961,11.491,256.064z"/>
		<path fill="#070001" d="M32.146,255.379l-0.563,0.896c-1.82-0.633-3.35-1.941-4.025-3.656c-0.668,1.846-2.189,3.262-4.025,3.92
			l-0.563-0.861c2.232-0.773,4.025-2.76,4.025-5.063v-0.51h-3.709v-0.914h3.709v-2.109h1.107v2.109h3.674v0.914h-3.691v0.51
			C28.085,252.795,29.913,254.658,32.146,255.379z M35.837,262.146H25.431v-4.729h1.107v3.797h9.299V262.146z M35.327,258.525H34.22
			v-11.514h1.107V258.525z"/>
		<path fill="#070001" d="M42.446,256.24v-1.266c-1.855-0.141-3.041-1.012-3.041-2.355c0-1.494,1.424-2.391,3.586-2.373
			c2.162-0.018,3.568,0.879,3.586,2.373c-0.018,1.346-1.188,2.205-3.023,2.355v1.213c1.512-0.07,3.041-0.211,4.447-0.439
			l0.088,0.826c-3.34,0.615-7.119,0.668-9.844,0.686l-0.158-0.949C39.37,256.318,40.872,256.311,42.446,256.24z M47.509,249.49
			h-9.018v-0.861h3.955v-1.67h1.107v1.67h3.955V249.49L47.509,249.49z M40.46,252.619c0,0.932,0.984,1.547,2.531,1.547
			c1.529,0,2.514-0.615,2.531-1.547c-0.018-0.949-1.002-1.564-2.531-1.564C41.444,251.055,40.46,251.67,40.46,252.619z
			 M50.726,262.146H40.478v-3.832h1.107v2.9h9.141V262.146z M50.146,252.549h2.426v0.949h-2.426v5.643h-1.107v-12.129h1.107V252.549
			z"/>
		<path fill="#070001" d="M66.476,256.451h-1.107v-2.268h-4.342v-0.949h4.342v-2.303h-4.146c-1.037,2.521-3.508,4.377-6.82,5.379
			l-0.475-0.896c3.797-1.15,6.346-3.385,6.607-6.258h-5.816v-0.949h7.014c0,0.643-0.08,1.248-0.229,1.828h3.865v-3.023h1.107
			V256.451z M66.563,259.51c0,1.846-1.986,2.936-5.133,2.936c-3.164,0-5.15-1.09-5.15-2.936c0-1.828,1.986-2.918,5.15-2.918
			C64.577,256.592,66.563,257.682,66.563,259.51z M57.37,259.51c0,1.248,1.6,2.021,4.061,2.021c2.426,0,4.025-0.773,4.025-2.021
			s-1.6-2.004-4.025-2.004C58.97,257.506,57.37,258.262,57.37,259.51z"/>
		<path fill="#070001" d="M86.374,256.451h-1.107v-2.268h-4.342v-0.949h4.342v-2.303h-4.148c-1.037,2.521-3.508,4.377-6.818,5.379
			l-0.477-0.896c3.797-1.15,6.348-3.385,6.609-6.258h-5.818v-0.949h7.016c0,0.643-0.08,1.248-0.23,1.828h3.867v-3.023h1.107V256.451
			z M86.462,259.51c0,1.846-1.986,2.936-5.133,2.936c-3.164,0-5.15-1.09-5.15-2.936c0-1.828,1.986-2.918,5.15-2.918
			C84.476,256.592,86.462,257.682,86.462,259.51z M77.269,259.51c0,1.248,1.6,2.021,4.061,2.021c2.428,0,4.025-0.773,4.025-2.021
			s-1.6-2.004-4.025-2.004C78.868,257.506,77.269,258.262,77.269,259.51z"/>
		<path fill="#070001" d="M96.569,249.314h4.254v-2.303h1.107v9.211h-1.107v-2.338h-4.236c-0.713,0.854-1.846,1.363-3.182,1.354
			c-2.32,0.02-4.008-1.477-3.99-3.621c-0.018-2.16,1.67-3.654,3.99-3.639C94.731,247.971,95.856,248.471,96.569,249.314z
			 M90.47,251.617c0,1.529,1.23,2.672,2.936,2.654c1.652,0.018,2.9-1.125,2.9-2.654c0-1.547-1.248-2.689-2.9-2.689
			C91.7,248.928,90.47,250.07,90.47,251.617z M101.983,259.527c0,1.863-1.951,2.936-5.15,2.936c-3.197,0-5.148-1.072-5.133-2.936
			c-0.018-1.846,1.936-2.918,5.133-2.936C100.032,256.609,101.983,257.682,101.983,259.527z M92.772,259.527
			c0,1.248,1.582,2.039,4.061,2.039c2.48,0,4.078-0.791,4.078-2.039s-1.6-2.039-4.078-2.039
			C94.356,257.488,92.772,258.279,92.772,259.527z M97.378,251.617c0,0.482-0.088,0.932-0.246,1.336h3.691v-2.707h-3.709
			C97.28,250.658,97.378,251.125,97.378,251.617z"/>
	</g>
</g>
<g>
</g>
<g>
</g>
<g>
</g>
<g>
</g>
<g>
</g>
<g>
</g>
<g>
</g>
<g>
</g>
<g>
</g>
<g>
</g>
<g>
</g>
<g>
</g>
<g>
</g>
<g>
</g>
<g>
</g>
</svg>
