<?xml version="1.0" encoding="utf-8"?>
<!-- Generator: Adobe Illustrator 16.0.0, SVG Export Plug-In . SVG Version: 6.00 Build 0)  -->
<!DOCTYPE svg PUBLIC "-//W3C//DTD SVG 1.1//EN" "http://www.w3.org/Graphics/SVG/1.1/DTD/svg11.dtd">
<svg version="1.1" id="Layer_1" xmlns="http://www.w3.org/2000/svg" xmlns:xlink="http://www.w3.org/1999/xlink" x="0px" y="0px"
	 width="147.401px" height="269.291px" viewBox="0 0 147.401 269.291" enable-background="new 0 0 147.401 269.291"
	 xml:space="preserve">
<rect x="-0.149" y="-0.122" fill="none" width="147" height="269"/>
<g>
	<g>
		<circle fill="#FFFFFF" cx="73.909" cy="72.177" r="47.648"/>
		<rect x="64.564" y="6.478" fill="#152F5F" width="17.392" height="18.729"/>
		
			<rect x="42.6" y="11.225" transform="matrix(-0.9205 0.3907 -0.3907 -0.9205 106.5584 19.5011)" fill="#152F5F" width="17.39" height="18.73"/>
		
			<rect x="24.219" y="24.126" transform="matrix(-0.6946 0.7194 -0.7194 -0.6946 79.8718 33.0752)" fill="#152F5F" width="17.392" height="18.729"/>
		
			<rect x="12.393" y="43.222" transform="matrix(-0.3584 0.9336 -0.9336 -0.3584 77.7404 51.7469)" fill="#152F5F" width="17.393" height="18.728"/>
		<rect x="65.863" y="119.146" fill="#152F5F" width="17.392" height="18.731"/>
		
			<rect x="87.83" y="114.406" transform="matrix(0.9205 -0.3907 0.3907 0.9205 -40.6847 47.5491)" fill="#152F5F" width="17.392" height="18.731"/>
		
			<rect x="106.185" y="101.473" transform="matrix(0.6946 -0.7194 0.7194 0.6946 -44.6527 116.4977)" fill="#F0EDEE" width="17.392" height="18.732"/>
		
			<rect x="118.051" y="82.397" transform="matrix(0.3582 -0.9336 0.9336 0.3582 -4.3299 177.2263)" fill="#F0EDEE" width="17.393" height="18.732"/>
		<rect x="8.21" y="64.133" fill="#152F5F" width="18.73" height="17.391"/>
		
			<rect x="13.612" y="85.429" transform="matrix(0.3907 0.9205 -0.9205 0.3907 100.852 37.2234)" fill="#152F5F" width="17.392" height="18.729"/>
		
			<rect x="26.561" y="103.78" transform="matrix(0.7193 0.6947 -0.6947 0.7193 88.4991 7.2676)" fill="#152F5F" width="17.392" height="18.73"/>
		
			<rect x="45.631" y="115.647" transform="matrix(0.9336 0.3583 -0.3583 0.9336 48.3934 -11.1651)" fill="#152F5F" width="17.391" height="18.73"/>
		<rect x="120.878" y="62.83" fill="#F0EDEE" width="18.732" height="17.394"/>
		<polygon fill="#F0EDEE" points="120.29,61.231 113.493,45.222 130.737,37.902 137.528,53.91 		"/>
		
			<rect x="103.891" y="21.827" transform="matrix(-0.7194 -0.6946 0.6946 -0.7194 171.9179 131.8357)" fill="#F0EDEE" width="17.394" height="18.732"/>
		
			<rect x="84.789" y="9.992" transform="matrix(-0.9336 -0.3583 0.3583 -0.9336 173.8309 70.9237)" fill="#F0EDEE" width="17.395" height="18.731"/>
		<g>
			<g>
				<path fill="#18305F" d="M57.343,53.516c-1.668,0-2.717,0.843-2.717,2.005c0,1.293,1.404,1.78,2.475,2.042l1.311,0.355
					c1.744,0.413,3.898,1.368,3.916,3.823c-0.018,2.286-1.836,3.972-5.039,3.972c-3.037,0-4.947-1.518-5.078-3.99h2.061
					c0.131,1.479,1.424,2.191,3.018,2.191c1.725,0,2.979-0.88,2.998-2.211c-0.02-1.18-1.125-1.667-2.566-2.042l-1.611-0.431
					c-2.174-0.6-3.543-1.705-3.543-3.598c0-2.343,2.1-3.897,4.834-3.897c2.754,0,4.686,1.574,4.742,3.766h-2.006
					C60.003,54.246,58.898,53.516,57.343,53.516z"/>
				<path fill="#18305F" d="M63.863,51.923h10.511v1.779h-4.216v11.787h-2.061V53.702h-4.234V51.923z"/>
				<path fill="#18305F" d="M76.472,51.923h8.506v1.779h-6.445v4.104h5.996v1.762h-5.996v4.141h6.521v1.78h-8.582V51.923
					L76.472,51.923z"/>
				<path fill="#18305F" d="M87.505,51.923h4.836c3.146,0,4.701,1.893,4.701,4.403c0,2.492-1.555,4.403-4.701,4.403h-2.773v4.76
					h-2.063V51.923z M92.134,58.969c2.006,0,2.83-1.125,2.83-2.643c0-1.537-0.824-2.642-2.83-2.642h-2.566v5.284H92.134z"/>
				<path fill="#18305F" d="M63.628,81.728c0-4.403,1.873-6.97,4.984-6.97s4.984,2.566,4.984,6.97c0,4.44-1.855,6.971-4.984,6.971
					C65.464,88.698,63.628,86.168,63.628,81.728z M71.535,81.728c0-3.373-1.104-5.229-2.922-5.229s-2.924,1.855-2.924,5.229
					c0,3.392,1.088,5.189,2.924,5.189C70.449,86.918,71.535,85.119,71.535,81.728z"/>
				<path fill="#18305F" d="M75.655,84.97h2.1c0.074,1.198,1.256,1.948,2.773,1.948c1.629,0,2.828-0.898,2.828-2.211
					c0-1.331-1.123-2.305-3.053-2.305h-1.162v-1.687h1.162c1.535,0,2.623-0.862,2.623-2.155c0-1.237-0.918-2.08-2.361-2.08
					c-1.367,0-2.566,0.75-2.623,1.986h-1.986c0.057-2.211,2.1-3.71,4.629-3.71c2.66,0,4.348,1.687,4.328,3.69
					c0.02,1.536-0.938,2.661-2.398,3.018v0.094c1.854,0.262,2.924,1.499,2.924,3.223c0,2.269-2.08,3.917-4.891,3.917
					C77.735,88.698,75.731,87.181,75.655,84.97z"/>
			</g>
		</g>
	</g>
	<g>
		<path fill="#070001" d="M31.715,164.979h-7.28v3.567h-1.969v-3.567H14.9v-1.579h16.815V164.979z M29.807,158.354
			c0,2.297-2.563,3.712-6.521,3.712c-3.938,0-6.543-1.415-6.543-3.712s2.604-3.732,6.543-3.732
			C27.244,154.621,29.807,156.058,29.807,158.354z M29.848,172.177H17.01v-5.395h1.948v3.794h10.89V172.177z M18.835,158.354
			c-0.02,1.333,1.765,2.133,4.451,2.133c2.707,0,4.471-0.8,4.471-2.133c0-1.354-1.764-2.174-4.471-2.174
			C20.599,156.181,18.816,157,18.835,158.354z"/>
		<path fill="#070001" d="M41.846,156.775h4.595v-2.584h1.947v10.849h-1.947v-2.48h-4.615c-0.851,0.942-2.152,1.507-3.67,1.497
			c-2.77,0.021-4.82-1.825-4.82-4.39c0-2.584,2.052-4.43,4.82-4.408C39.682,155.246,40.984,155.821,41.846,156.775z M35.201,159.666
			c0,1.601,1.23,2.748,2.953,2.729c1.682,0.021,2.912-1.128,2.912-2.729c0-1.641-1.23-2.748-2.912-2.728
			C36.431,156.918,35.201,158.026,35.201,159.666z M48.449,168.997c0,2.235-2.398,3.548-6.213,3.527
			c-3.836,0.021-6.234-1.292-6.215-3.527c-0.021-2.256,2.379-3.548,6.215-3.548C46.05,165.45,48.449,166.742,48.449,168.997z
			 M37.929,168.997c-0.021,1.271,1.62,1.989,4.307,1.989c2.707,0,4.307-0.718,4.307-1.989c0-1.313-1.6-2.051-4.307-2.051
			C39.549,166.947,37.908,167.686,37.929,168.997z M42.933,159.666c0,0.451-0.072,0.894-0.186,1.292h3.691v-2.625h-3.713
			C42.861,158.743,42.933,159.195,42.933,159.666z"/>
		<path fill="#070001" d="M59.318,160.446h4.941v-4.717h1.93v12.469h-8.818v-12.469h1.947V160.446z M64.261,166.599v-4.614H59.32
			v4.614H64.261z M71.562,172.607h-1.949v-18.416h1.949V172.607z"/>
		<path fill="#070001" d="M91.249,164.732H74.493v-1.579h4.02v-2.48c-1.414-0.574-2.215-1.497-2.215-2.707
			c0-2.175,2.523-3.445,6.563-3.445c4.02,0,6.563,1.271,6.563,3.445c0,1.21-0.809,2.144-2.232,2.707v2.48h4.061v1.579H91.249z
			 M89.198,169.243c0,2.133-2.379,3.281-6.338,3.281c-3.998,0-6.377-1.148-6.377-3.281c0-2.092,2.379-3.261,6.377-3.261
			C86.819,165.983,89.198,167.152,89.198,169.243z M78.308,157.965c-0.02,1.229,1.703,1.928,4.553,1.928
			c2.852,0,4.553-0.697,4.553-1.928c0-1.231-1.701-1.948-4.553-1.948C80.011,156.017,78.288,156.734,78.308,157.965z
			 M78.452,169.243c0,1.148,1.6,1.806,4.408,1.784c2.77,0.021,4.389-0.636,4.389-1.784c0-1.128-1.619-1.764-4.389-1.764
			C80.052,167.48,78.452,168.116,78.452,169.243z M85.261,163.153v-1.969c-0.719,0.123-1.527,0.185-2.4,0.185
			c-0.861,0-1.66-0.062-2.379-0.164v1.948H85.261z"/>
		<path fill="#070001" d="M108.7,161.943l-0.922,1.538c-2.104-0.646-3.641-2.01-4.43-3.712c-0.842,1.896-2.461,3.435-4.615,4.143
			l-0.963-1.538c2.768-0.923,4.572-3.198,4.572-5.435v-0.287h-3.998v-1.579h9.904v1.579h-3.957v0.308
			C104.292,159.052,105.974,161.122,108.7,161.943z M113.069,169.079H103.04v1.743h10.686v1.538h-12.633v-4.758h10.049v-1.56h-10.09
			v-1.559h12.018V169.079z M113.069,163.646h-1.928v-3.876h-3.426v-1.579h3.426v-3.999h1.928V163.646z"/>
		<path fill="#070001" d="M116.616,164.834l-0.779-1.559c4.391-1.158,6.984-3.466,7.344-6.337h-6.48v-1.601h8.594
			C125.271,160.057,122.093,163.358,116.616,164.834z M130.356,172.32h-11.771v-6.973h11.771V172.32z M120.534,170.762h7.895v-3.794
			h-7.895V170.762z M130.356,158.519h2.666v1.62h-2.666v4.43h-1.947v-10.377h1.947V158.519z"/>
		<path fill="#070001" d="M2.305,195.743c0-0.879,0.722-1.6,1.616-1.6c0.88,0,1.602,0.721,1.602,1.6
			c0,0.896-0.722,1.617-1.602,1.617C3.027,197.36,2.305,196.64,2.305,195.743z"/>
		<path fill="#070001" d="M21.818,191.577c0,2.232-1.705,3.797-4.009,3.779c-2.304,0.018-4.024-1.547-4.008-3.779
			c-0.019-2.215,1.704-3.762,4.008-3.762S21.818,189.362,21.818,191.577z M14.873,191.577c0,1.617,1.248,2.795,2.937,2.795
			c1.671,0,2.937-1.178,2.937-2.795c0-1.6-1.266-2.795-2.937-2.795C16.121,188.782,14.873,189.978,14.873,191.577z M26.652,201.825
			H16.246v-4.904h1.106v3.974h9.3V201.825z M26.141,198.099h-1.106V186.69h1.106V198.099z"/>
		<path fill="#070001" d="M36.285,191.841H30.73v2.653c3.137,0,4.657-0.053,6.573-0.403l0.104,0.948
			c-1.951,0.316-3.516,0.369-6.697,0.369h-1.071v-4.447h5.537v-2.391h-5.571v-0.932h6.68V191.841z M41.734,202.229h-1.107v-4.201
			h-9.264v-0.932h10.371V202.229z M41.734,196.218h-1.107v-3.06h-3.27v-0.932h3.27v-2.25h-3.27v-0.914h3.27v-2.373h1.107V196.218z"
			/>
		<path fill="#070001" d="M63.056,200.313H48.853v-0.932h3.867v-2.972c-1.188-0.475-1.848-1.283-1.848-2.354
			c0-1.812,1.916-2.883,5.045-2.865c3.111-0.019,5.045,1.055,5.045,2.865c0,1.071-0.668,1.881-1.846,2.354v2.972h3.939V200.313z
			 M62.21,190.048H49.589v-0.933h5.783v-2.145h1.09v2.145h5.748V190.048z M51.982,194.056c0,1.213,1.527,1.985,3.938,1.985
			c2.391,0,3.92-0.772,3.92-1.985c0-1.23-1.529-1.986-3.92-1.986C53.509,192.069,51.982,192.825,51.982,194.056z M58.009,199.382
			v-2.654c-0.613,0.132-1.316,0.192-2.092,0.192c-0.773,0-1.477-0.053-2.092-0.176v2.638H58.009z"/>
		<path fill="#070001" d="M78.54,194.267h-4.078v1.67h2.217v3.322h-9.404v1.827h9.894V202H66.201v-3.604h9.404v-1.582h-9.457v-0.879
			h2.197v-1.67h-3.938v-0.933H78.54V194.267L78.54,194.267z M76.89,189.591c0,1.739-2.021,2.707-5.433,2.707
			c-3.41,0-5.432-0.968-5.432-2.707c0-1.74,2.021-2.707,5.432-2.707C74.868,186.884,76.89,187.851,76.89,189.591z M67.167,189.591
			c0,1.159,1.637,1.827,4.289,1.827c2.671,0,4.308-0.668,4.308-1.827c0-1.144-1.637-1.828-4.308-1.828
			C68.804,187.763,67.167,188.448,67.167,189.591z M73.357,195.937v-1.67h-3.902v1.67H73.357z"/>
		<path fill="#070001" d="M90.089,197.817c1.564-0.079,3.156-0.211,4.658-0.439l0.088,0.845c-3.586,0.633-7.453,0.649-10.266,0.649
			l-0.176-0.948c1.346,0,2.928,0,4.588-0.07v-3.076h1.107V197.817L90.089,197.817z M94.167,194.267l-0.525,0.896
			c-1.873-0.598-3.43-1.837-4.113-3.516c-0.66,1.767-2.207,3.066-4.063,3.674l-0.545-0.861c2.25-0.702,4.043-2.479,4.043-4.729
			h-3.689v-0.949h3.709v-1.986h1.105v1.986h3.779v0.949h-3.797C90.073,191.894,91.901,193.599,94.167,194.267z M96.929,202.211
			h-1.107V186.69h1.107V202.211z"/>
		<path fill="#070001" d="M109.003,194.425l-0.58,0.879c-1.758-0.65-3.189-1.986-3.85-3.656c-0.658,1.863-2.188,3.331-4.025,4.043
			l-0.578-0.879c2.215-0.81,4.023-2.883,4.023-5.15v-0.914h-3.639v-0.932h8.332v0.932h-3.586v0.896
			C105.103,191.718,106.808,193.651,109.003,194.425z M112.644,202.194h-1.107v-4.412h-9.246v-0.914h10.354V202.194L112.644,202.194
			z M112.644,195.989h-1.107v-4.201h-3.357v-0.932h3.357v-4.166h1.107V195.989z"/>
		<path fill="#070001" d="M119.657,198.063v-1.828c-1.873-0.158-3.094-1.222-3.076-2.813c-0.018-1.739,1.441-2.864,3.621-2.864
			c2.162,0,3.639,1.125,3.639,2.864c0,1.582-1.223,2.646-3.076,2.813v1.793c1.512-0.079,3.031-0.202,4.447-0.404l0.088,0.861
			c-3.41,0.58-7.119,0.615-9.861,0.615l-0.211-0.967C116.536,198.134,118.065,198.124,119.657,198.063z M124.896,189.556h-9.404
			v-0.933h4.166v-1.934h1.107v1.934h4.131V189.556z M117.618,193.423c0,1.159,1.037,1.95,2.584,1.934
			c1.547,0.018,2.566-0.773,2.584-1.934c-0.018-1.16-1.037-1.986-2.584-1.986S117.618,192.263,117.618,193.423z M127.321,193.388
			h2.637v0.948h-2.637v7.857h-1.09v-15.504h1.09V193.388z"/>
		<path fill="#070001" d="M2.305,225.743c0-0.879,0.722-1.6,1.616-1.6c0.88,0,1.602,0.721,1.602,1.6
			c0,0.896-0.722,1.617-1.602,1.617C3.027,227.36,2.305,226.64,2.305,225.743z"/>
		<path fill="#070001" d="M23.557,231.386h-1.071v-7.611h-2.232c-0.133,3.006-1.424,4.904-3.34,4.904
			c-2.004,0-3.305-2.074-3.305-5.31c0-3.252,1.301-5.309,3.305-5.309c1.89,0,3.172,1.828,3.322,4.764h2.25v-5.783h1.071V231.386z
			 M14.662,223.369c-0.018,2.549,0.879,4.271,2.25,4.271c1.39,0,2.285-1.724,2.285-4.271c0-2.565-0.896-4.271-2.285-4.271
			C15.541,219.099,14.645,220.804,14.662,223.369z M26.633,232.194h-1.072V216.69h1.072V232.194z"/>
		<path fill="#070001" d="M30.941,227.466h0.053c2.496-0.019,4.604-0.142,6.996-0.615l0.141,0.914
			c-2.461,0.51-4.588,0.649-7.137,0.649h-1.178v-9.967h1.125V227.466z M41.75,232.211h-1.106v-9.368h-5.045v-0.933h5.045v-5.221
			h1.106V232.211z"/>
		<path fill="#070001" d="M54.212,227.923l-0.633,0.879c-1.783-0.835-3.488-2.689-4.219-4.904c-0.721,2.329-2.416,4.386-4.148,5.291
			l-0.668-0.879c2.109-1.037,4.236-3.99,4.254-6.681v-2.372h-3.777v-0.949h8.719v0.949h-3.832v2.372
			C49.908,224.284,52.035,226.974,54.212,227.923z M57.238,232.194H56.13V216.69h1.107V232.194z"/>
		<path fill="#070001" d="M78.612,230.313H64.41v-0.932h3.867v-2.972c-1.188-0.475-1.846-1.283-1.846-2.354
			c0-1.812,1.916-2.883,5.045-2.865c3.109-0.019,5.044,1.055,5.044,2.865c0,1.071-0.668,1.881-1.848,2.354v2.972h3.939V230.313z
			 M77.769,220.048H65.148v-0.933h5.783v-2.145h1.09v2.145h5.748V220.048L77.769,220.048z M67.537,224.056
			c0,1.213,1.529,1.985,3.939,1.985c2.39,0,3.919-0.772,3.919-1.985c0-1.23-1.529-1.986-3.919-1.986
			C69.068,222.069,67.537,222.825,67.537,224.056z M73.568,229.382v-2.654c-0.615,0.132-1.318,0.192-2.092,0.192
			c-0.775,0-1.479-0.053-2.094-0.176v2.638H73.568z"/>
		<path fill="#070001" d="M94.099,224.267h-4.078v1.67h2.215v3.322h-9.404v1.827h9.896V232H81.757v-3.604h9.404v-1.582h-9.457
			v-0.879h2.197v-1.67h-3.938v-0.933h14.133v0.934H94.099z M92.446,219.591c0,1.739-2.021,2.707-5.432,2.707
			c-3.412,0-5.434-0.968-5.434-2.707c0-1.74,2.021-2.707,5.434-2.707C90.425,216.884,92.446,217.851,92.446,219.591z
			 M82.726,219.591c0,1.159,1.635,1.827,4.289,1.827c2.672,0,4.307-0.668,4.307-1.827c0-1.144-1.635-1.828-4.307-1.828
			C84.36,217.763,82.726,218.448,82.726,219.591z M88.911,225.937v-1.67h-3.902v1.67H88.911z"/>
		<path fill="#070001" d="M105.647,227.817c1.563-0.079,3.154-0.211,4.658-0.439l0.088,0.845c-3.586,0.633-7.453,0.649-10.268,0.649
			l-0.176-0.948c1.346,0,2.928,0,4.588-0.07v-3.076h1.107v3.04H105.647z M109.726,224.267l-0.527,0.896
			c-1.873-0.598-3.428-1.837-4.113-3.516c-0.66,1.767-2.207,3.066-4.061,3.674l-0.545-0.861c2.25-0.702,4.043-2.479,4.043-4.729
			h-3.691v-0.949h3.709v-1.986h1.107v1.986h3.777v0.949h-3.797C105.628,221.894,107.456,223.599,109.726,224.267z M112.485,232.211
			h-1.107V216.69h1.107V232.211z"/>
		<path fill="#070001" d="M124.562,224.425l-0.58,0.879c-1.758-0.65-3.191-1.986-3.852-3.656c-0.658,1.863-2.188,3.331-4.023,4.043
			l-0.58-0.879c2.215-0.81,4.023-2.883,4.023-5.15v-0.914h-3.639v-0.932h8.332v0.932h-3.586v0.896
			C120.659,221.718,122.364,223.651,124.562,224.425z M128.2,232.194h-1.107v-4.412h-9.246v-0.914H128.2V232.194L128.2,232.194z
			 M128.2,225.989h-1.107v-4.201h-3.357v-0.932h3.357v-4.166h1.107V225.989z"/>
		<path fill="#070001" d="M135.212,228.063v-1.828c-1.871-0.158-3.094-1.222-3.074-2.813c-0.02-1.739,1.439-2.864,3.619-2.864
			c2.162,0,3.641,1.125,3.641,2.864c0,1.582-1.223,2.646-3.076,2.813v1.793c1.512-0.079,3.031-0.202,4.447-0.404l0.088,0.861
			c-3.41,0.58-7.119,0.615-9.861,0.615l-0.211-0.967C132.093,228.134,133.622,228.124,135.212,228.063z M140.45,219.556h-9.404
			v-0.933h4.166v-1.934h1.107v1.934h4.131V219.556z M133.173,223.423c0,1.159,1.037,1.95,2.584,1.934
			c1.549,0.018,2.566-0.773,2.584-1.934c-0.018-1.16-1.035-1.986-2.584-1.986C134.21,221.437,133.173,222.263,133.173,223.423z
			 M142.876,223.388h2.639v0.948h-2.639v7.857h-1.09v-15.504h1.09V223.388z"/>
		<path fill="#070001" d="M2.305,255.743c0-0.879,0.722-1.6,1.616-1.6c0.88,0,1.602,0.721,1.602,1.6
			c0,0.896-0.722,1.617-1.602,1.617C3.027,257.36,2.305,256.64,2.305,255.743z"/>
		<path fill="#070001" d="M22.378,254.371l-0.545,0.861c-1.774-0.606-3.198-1.881-3.85-3.516c-0.658,1.846-2.18,3.27-4.025,3.954
			l-0.563-0.896c2.25-0.773,4.008-2.76,4.025-5.08V248.8h-3.656v-0.933h8.332v0.933h-3.604v0.879
			C18.494,251.787,20.164,253.616,22.378,254.371z M25.596,259.328c0,1.793-1.897,2.813-5.063,2.813
			c-3.164,0-5.098-1.021-5.08-2.813c-0.018-1.758,1.916-2.776,5.08-2.776S25.596,257.571,25.596,259.328z M16.542,259.328
			c-0.018,1.195,1.548,1.916,3.99,1.916c2.443,0,3.99-0.721,3.99-1.916c0-1.143-1.547-1.862-3.99-1.862
			C18.09,257.466,16.527,258.187,16.542,259.328z M25.473,250.769h2.392v0.932h-2.392v4.396h-1.106v-9.404h1.106V250.769z"/>
		<path fill="#070001" d="M29.816,259.188l-0.615-0.914c4.254-2.013,6.529-5.187,6.82-8.965h-6.136v-0.914h7.241
			C37.111,252.772,34.912,256.728,29.816,259.188z M41.699,262.194h-1.09V246.69h1.09V262.194z"/>
		<path fill="#070001" d="M53.652,254.425l-0.58,0.879c-1.758-0.65-3.191-1.986-3.85-3.656c-0.66,1.863-2.189,3.331-4.025,4.043
			l-0.58-0.879c2.215-0.81,4.025-2.883,4.025-5.15v-0.914h-3.641v-0.932h8.332v0.932h-3.586v0.896
			C49.748,251.718,51.453,253.651,53.652,254.425z M57.289,262.194h-1.105v-4.412h-9.246v-0.914h10.354v5.326H57.289z
			 M57.289,255.989h-1.105v-4.201h-3.357v-0.932h3.357v-4.166h1.105V255.989z"/>
		<path fill="#070001" d="M66.449,252.228h5.027v-4.201h1.105v10.389h-7.242v-10.389h1.107v4.201H66.449z M71.476,257.483v-4.342
			h-5.027v4.342H71.476z M77.134,262.211h-1.105V246.69h1.105V262.211z"/>
		<path fill="#070001" d="M94.099,255.392H79.964v-0.933h3.605v-2.303c-1.275-0.466-1.986-1.257-1.986-2.32
			c0-1.811,2.057-2.829,5.432-2.829s5.432,1.02,5.432,2.829c0,1.056-0.703,1.847-1.951,2.304v2.319h3.605v0.933H94.099z
			 M92.339,259.416c0,1.759-1.984,2.742-5.309,2.742c-3.357,0-5.344-0.983-5.344-2.742c0-1.758,1.986-2.725,5.344-2.707
			C90.354,256.692,92.339,257.659,92.339,259.416z M82.726,249.836c-0.02,1.214,1.65,1.951,4.289,1.951
			c2.637,0,4.307-0.737,4.307-1.951c0-1.194-1.67-1.95-4.307-1.95C84.376,247.886,82.706,248.642,82.726,249.836z M82.813,259.416
			c0,1.16,1.617,1.847,4.219,1.847c2.566,0,4.201-0.687,4.201-1.847c0-1.143-1.635-1.828-4.201-1.846
			C84.431,257.588,82.813,258.274,82.813,259.416z M89.405,254.459v-2.004c-0.695,0.142-1.494,0.211-2.391,0.211
			c-0.871,0-1.652-0.069-2.34-0.211v2.004H89.405z"/>
		<path fill="#070001" d="M108.987,253.599l-0.564,0.879c-1.766-0.599-3.217-1.872-3.865-3.445c-0.66,1.749-2.182,3.164-3.99,3.832
			l-0.58-0.896c2.197-0.757,4.008-2.726,4.008-4.834v-0.615h-3.621v-0.949h8.332v0.949h-3.604v0.633
			C105.103,251.067,106.808,252.896,108.987,253.599z M112.624,259.118H103.8v1.986h9.477v0.914h-10.564v-3.779h8.824v-1.74h-8.877
			v-0.932h9.967v3.551H112.624z M112.624,254.741h-1.09v-3.551h-3.355v-0.949h3.355v-3.551h1.09V254.741z"/>
		<path fill="#070001" d="M115.911,255.619l-0.457-0.896c3.92-1.081,6.363-3.262,6.646-6.064h-5.979v-0.932h7.154
			C123.278,251.56,120.483,254.371,115.911,255.619z M127.495,261.966h-9.738v-5.679h9.738V261.966z M118.866,261.034h7.523v-3.797
			h-7.523V261.034z M127.495,250.61h2.393v0.932h-2.393v3.99h-1.105v-8.842h1.105V250.61z"/>
	</g>
</g>
<g>
</g>
<g>
</g>
<g>
</g>
<g>
</g>
<g>
</g>
<g>
</g>
<g>
</g>
<g>
</g>
<g>
</g>
<g>
</g>
<g>
</g>
<g>
</g>
<g>
</g>
<g>
</g>
<g>
</g>
</svg>
