<?xml version="1.0" encoding="utf-8"?>
<!-- Generator: Adobe Illustrator 16.0.0, SVG Export Plug-In . SVG Version: 6.00 Build 0)  -->
<!DOCTYPE svg PUBLIC "-//W3C//DTD SVG 1.1//EN" "http://www.w3.org/Graphics/SVG/1.1/DTD/svg11.dtd">
<svg version="1.1" id="Layer_1" xmlns="http://www.w3.org/2000/svg" xmlns:xlink="http://www.w3.org/1999/xlink" x="0px" y="0px"
	 width="147.402px" height="269.291px" viewBox="-1.417 0 147.402 269.291" enable-background="new -1.417 0 147.402 269.291"
	 xml:space="preserve">
<rect x="-1.704" y="-0.122" fill="none" width="147.402" height="269"/>
<g>
	<g>
		<circle fill="#FFFFFF" cx="71.995" cy="72.473" r="47.648"/>
		<rect x="62.649" y="6.773" fill="#152F5F" width="17.392" height="18.729"/>
		
			<rect x="40.687" y="11.509" transform="matrix(0.9205 -0.3907 0.3907 0.9205 -4.2302 20.9519)" fill="#152F5F" width="17.391" height="18.729"/>
		
			<rect x="22.315" y="24.431" transform="matrix(0.6946 -0.7194 0.7194 0.6946 -14.8419 32.6308)" fill="#152F5F" width="17.392" height="18.729"/>
		
			<rect x="10.479" y="43.527" transform="matrix(0.3583 -0.9336 0.9336 0.3583 -37.0752 51.8405)" fill="#152F5F" width="17.392" height="18.729"/>
		<rect x="63.948" y="119.442" fill="#F0EDEE" width="17.393" height="18.731"/>
		
			<rect x="85.91" y="114.701" transform="matrix(-0.9205 0.3907 -0.3907 -0.9205 230.1644 201.3125)" fill="#F0EDEE" width="17.392" height="18.732"/>
		
			<rect x="104.284" y="101.802" transform="matrix(-0.6946 0.7194 -0.7194 -0.6946 271.4294 107.1059)" fill="#F0EDEE" width="17.392" height="18.733"/>
		
			<rect x="116.129" y="82.689" transform="matrix(-0.3583 0.9336 -0.9336 -0.3583 255.4917 8.4961)" fill="#F0EDEE" width="17.393" height="18.732"/>
		<rect x="6.296" y="64.429" fill="#152F5F" width="18.729" height="17.391"/>
		
			<rect x="11.691" y="85.721" transform="matrix(-0.3907 -0.9205 0.9205 -0.3907 -59.1735 151.0037)" fill="#152F5F" width="17.393" height="18.728"/>
		
			<rect x="24.642" y="104.081" transform="matrix(-0.7193 -0.6947 0.6947 -0.7193 -21.4936 218.2064)" fill="#152F5F" width="17.392" height="18.729"/>
		
			<rect x="43.718" y="115.934" transform="matrix(-0.9336 -0.3583 0.3583 -0.9336 56.4539 261.0578)" fill="#F0EDEE" width="17.391" height="18.73"/>
		<rect x="118.964" y="63.126" fill="#F0EDEE" width="18.732" height="17.394"/>
		
			<rect x="114.885" y="40.511" transform="matrix(0.3909 0.9204 -0.9204 0.3909 121.1831 -83.3689)" fill="#F0EDEE" width="17.393" height="18.732"/>
		
			<rect x="101.969" y="22.128" transform="matrix(0.7194 0.6946 -0.6946 0.7194 52.9292 -68.0321)" fill="#F0EDEE" width="17.395" height="18.731"/>
		
			<rect x="82.881" y="10.276" transform="matrix(0.9336 0.3583 -0.3583 0.9336 13.1188 -31.5095)" fill="#F0EDEE" width="17.392" height="18.731"/>
		<g>
			<g>
				<path fill="#18305F" d="M55.679,53.812c-1.668,0-2.717,0.843-2.717,2.005c0,1.293,1.404,1.78,2.475,2.042l1.312,0.355
					c1.744,0.413,3.897,1.368,3.916,3.823c-0.019,2.286-1.836,3.972-5.039,3.972c-3.036,0-4.947-1.518-5.078-3.99h2.061
					c0.132,1.479,1.425,2.191,3.019,2.191c1.725,0,2.979-0.88,2.998-2.211c-0.021-1.18-1.125-1.667-2.567-2.042l-1.609-0.431
					c-2.175-0.6-3.543-1.705-3.543-3.598c0-2.343,2.1-3.897,4.834-3.897c2.754,0,4.686,1.574,4.741,3.766h-2.006
					C58.34,54.542,57.236,53.812,55.679,53.812z"/>
				<path fill="#18305F" d="M62.198,52.219H72.71v1.779h-4.217v11.787h-2.062V53.998h-4.233V52.219z"/>
				<path fill="#18305F" d="M74.808,52.219h8.506v1.779h-6.444v4.104h5.996v1.762h-5.996v4.141h6.52v1.78h-8.58L74.808,52.219
					L74.808,52.219z"/>
				<path fill="#18305F" d="M85.841,52.219h4.834c3.148,0,4.703,1.893,4.703,4.403c0,2.492-1.555,4.403-4.703,4.403h-2.771v4.76
					h-2.063V52.219z M90.47,59.265c2.006,0,2.83-1.125,2.83-2.643c0-1.537-0.824-2.642-2.83-2.642h-2.565v5.284L90.47,59.265
					L90.47,59.265z"/>
				<path fill="#18305F" d="M62.245,82.023c0-4.403,1.873-6.97,4.983-6.97c3.109,0,4.983,2.566,4.983,6.97
					c0,4.44-1.854,6.971-4.983,6.971C64.081,88.994,62.245,86.464,62.245,82.023z M70.154,82.023c0-3.373-1.105-5.229-2.925-5.229
					c-1.818,0-2.922,1.855-2.922,5.229c0,3.392,1.086,5.189,2.922,5.189C69.065,87.214,70.154,85.415,70.154,82.023z"/>
				<path fill="#18305F" d="M74.349,87.309l4.701-4.741c1.48-1.555,2.23-2.417,2.23-3.598c0-1.33-1.086-2.192-2.511-2.192
					c-1.5,0-2.475,0.956-2.475,2.397h-1.948c-0.02-2.473,1.873-4.121,4.459-4.121c2.625,0,4.422,1.648,4.441,3.859
					c-0.021,1.519-0.73,2.717-3.279,5.229l-2.756,2.792v0.111h6.26v1.762h-9.125v-1.498H74.349z"/>
			</g>
		</g>
	</g>
	<g>
		<path fill="#070001" d="M15.436,163.306l-0.983,1.518c-2.082-0.717-3.609-2.152-4.408-3.957c-0.801,1.988-2.39,3.548-4.554,4.307
			l-1.046-1.518c2.87-0.984,4.594-3.344,4.612-5.887v-0.492H5.018v-1.578h9.945v1.578h-3.956v0.514
			C11.007,160.126,12.626,162.362,15.436,163.306z M19.024,172.862h-1.946v-4.819H6.884v-1.579h12.141L19.024,172.862
			L19.024,172.862z M19.024,159.204h2.666v1.643h-2.666v4.717h-1.946v-11.074h1.946V159.204z"/>
		<path fill="#070001" d="M32.518,158.772h3.59v-4.285h1.947v9.863h-1.947v-3.979H32.54c-0.4,2.111-2.275,3.527-4.717,3.527
			c-2.812,0-4.818-1.766-4.818-4.309c0-2.502,2.01-4.285,4.818-4.266C30.242,155.308,32.108,156.712,32.518,158.772z
			 M24.869,159.595c0,1.577,1.21,2.664,2.953,2.664c1.701,0,2.912-1.087,2.912-2.664c0-1.58-1.211-2.646-2.912-2.646
			C26.079,156.948,24.869,158.015,24.869,159.595z M28.007,167.366h8.103v-2.133h1.946v7.402H26.079v-7.402h1.928V167.366z
			 M36.108,171.037v-2.134h-8.101v2.134H36.108z"/>
		<path fill="#070001" d="M57.027,163.265l-1.007,1.539c-2.061-0.72-3.577-2.186-4.366-4c-0.812,2.063-2.421,3.713-4.614,4.512
			l-1.024-1.56c2.852-0.983,4.595-3.466,4.595-6.009v-0.41H46.63v-1.579h9.904v1.579h-3.938v0.391
			C52.597,160.065,54.257,162.321,57.027,163.265z M61.393,169.396c0,2.193-2.356,3.444-6.213,3.467
			c-3.854-0.021-6.233-1.271-6.215-3.467c-0.021-2.193,2.358-3.465,6.215-3.465S61.393,167.202,61.393,169.396z M50.893,169.396
			c0,1.229,1.602,1.949,4.287,1.928c2.688,0.021,4.285-0.696,4.285-1.928c0-1.25-1.6-1.947-4.285-1.947
			S50.893,168.146,50.893,169.396z M61.332,165.417h-1.948v-4.654H55.96v-1.601h3.424v-4.677h1.948V165.417z"/>
		<path fill="#070001" d="M68.839,164.763v-1.23c-2.093-0.215-3.426-1.199-3.404-2.688c-0.021-1.683,1.724-2.729,4.367-2.707
			c2.625-0.021,4.37,1.024,4.37,2.707c0,1.477-1.314,2.461-3.385,2.688v1.169c1.641-0.082,3.303-0.216,4.84-0.431l0.164,1.395
			c-3.958,0.697-8.306,0.718-11.546,0.718l-0.205-1.56C65.466,164.823,67.116,164.823,68.839,164.763z M75.115,157.522H64.511
			v-1.457h4.328v-1.723h1.947v1.723h4.327v1.457H75.115z M78.62,172.862h-1.947v-3.609H66.337v-1.518h12.284L78.62,172.862
			L78.62,172.862z M67.281,160.845c0,0.86,0.942,1.414,2.521,1.414c1.561,0,2.502-0.554,2.502-1.414
			c0-0.883-0.941-1.396-2.502-1.373C68.224,159.45,67.281,159.962,67.281,160.845z M78.62,159.962h2.625v1.602H78.62v5.312h-1.947
			v-12.366h1.947V159.962z"/>
		<path fill="#070001" d="M97.201,164.517h-5.56v4.489h7.486v1.601H82.312v-1.601h7.402v-4.489h-5.313v-8.613h12.633v1.578H86.351
			v5.477h10.849v1.559H97.201L97.201,164.517z"/>
		<path fill="#070001" d="M116.56,157.994h-10.95v-1.538h4.512v-2.111h1.949v2.111h4.489V157.994z M115.535,162.116
			c0,1.969-1.806,3.261-4.449,3.24c-2.688,0.021-4.473-1.271-4.473-3.24s1.784-3.281,4.473-3.281
			C113.73,158.834,115.535,160.147,115.535,162.116z M120.232,169.644c0,1.987-2.317,3.197-6.069,3.178
			c-3.795,0.021-6.111-1.188-6.092-3.178c-0.021-2.031,2.297-3.222,6.092-3.222C117.913,166.422,120.232,167.612,120.232,169.644z
			 M108.501,162.116c-0.021,1.087,1.022,1.764,2.584,1.764c1.559,0,2.604-0.677,2.625-1.764c-0.021-1.129-1.066-1.825-2.625-1.825
			C109.525,160.291,108.48,160.987,108.501,162.116z M109.997,169.644c-0.021,1.064,1.518,1.701,4.162,1.701
			c2.604,0,4.145-0.637,4.145-1.701c0-1.129-1.539-1.725-4.145-1.725C111.515,167.919,109.978,168.515,109.997,169.644z
			 M122.63,159.122h-2.604v2.316h2.604v1.601h-2.604v3.239h-1.949v-11.791h1.949v3.035h2.604V159.122z"/>
		<path fill="#070001" d="M134.505,162.978l-1.047,1.539c-2.01-0.707-3.519-2.145-4.307-3.959c-0.812,2.063-2.369,3.672-4.513,4.471
			l-1.047-1.559c2.871-1.025,4.533-3.467,4.553-6.215v-1.805h1.929v1.969C130.076,159.839,131.757,162.075,134.505,162.978z
			 M138.339,169.416c0,2.174-2.316,3.425-6.092,3.403c-3.813,0.021-6.172-1.229-6.172-3.403c0-2.151,2.356-3.403,6.172-3.403
			C136.023,166.013,138.339,167.265,138.339,169.416z M128.026,169.416c-0.021,1.21,1.559,1.866,4.225,1.888
			c2.646-0.021,4.184-0.678,4.184-1.888c0-1.169-1.537-1.866-4.184-1.866C129.583,167.55,128.003,168.248,128.026,169.416z
			 M138.175,159.103h2.666v1.641h-2.666v4.84h-1.947v-11.096h1.947V159.103z"/>
		<path fill="#070001" d="M3.152,196.039c0-0.879,0.721-1.601,1.616-1.601c0.879,0,1.601,0.722,1.601,1.601
			c0,0.896-0.722,1.616-1.601,1.616C3.872,197.655,3.152,196.937,3.152,196.039z"/>
		<path fill="#070001" d="M13.891,201.119l4.623-12.728h1.354l4.623,12.728h-1.318l-1.336-3.779h-5.291l-1.336,3.779H13.891z
			 M21.45,196.231l-2.215-6.224h-0.089l-2.196,6.224H21.45z"/>
		<path fill="#070001" d="M27.585,201.119h-1.248v-12.728h1.248V201.119z"/>
		<path fill="#070001" d="M36.163,192.522h5.026v-4.201h1.107v10.39h-7.242v-10.39h1.106L36.163,192.522L36.163,192.522z
			 M41.19,197.778v-4.342h-5.026v4.342H41.19z M46.85,202.507h-1.106v-15.521h1.106V202.507z"/>
		<path fill="#070001" d="M58.822,195.021l-0.58,0.896c-1.759-0.649-3.189-2.004-3.851-3.674c-0.66,1.872-2.188,3.349-4.024,4.062
			l-0.58-0.914c2.215-0.791,4.024-2.849,4.024-5.15v-0.967h-3.639v-0.949h8.332v0.949h-3.586v0.967
			C54.919,192.294,56.624,194.265,58.822,195.021z M62.917,202.121H52.616v-4.781h1.106v3.851h9.193L62.917,202.121L62.917,202.121z
			 M62.46,198.376h-1.107v-6.082h-3.408v-0.932h3.408v-4.377h1.107V198.376z"/>
		<path fill="#070001" d="M70.44,199.483l-0.614-0.914c4.254-2.012,6.529-5.187,6.82-8.965h-6.135v-0.914h7.243
			C77.737,193.067,75.538,197.022,70.44,199.483z M82.324,202.489h-1.09v-15.504h1.09V202.489z"/>
		<path fill="#070001" d="M99.269,194.509h-6.521v1.725h4.658v3.355h-9.404v1.793h9.896v0.914H86.929v-3.551h9.402v-1.6h-9.455
			v-0.914h4.764v-1.725h-6.504v-0.912h14.133V194.509z M98.478,191.591l-0.403,0.861c-2.338-0.325-4.914-1.434-5.871-3.217
			c-0.967,1.783-3.551,2.892-5.871,3.217l-0.387-0.861c2.549-0.314,5.694-1.793,5.694-3.85v-0.686h1.125v0.686
			C92.765,189.798,95.912,191.274,98.478,191.591z"/>
		<path fill="#070001" d="M3.152,226.039c0-0.879,0.721-1.601,1.616-1.601c0.879,0,1.601,0.722,1.601,1.601
			c0,0.896-0.722,1.616-1.601,1.616C3.872,227.655,3.152,226.937,3.152,226.039z"/>
		<path fill="#070001" d="M23.384,224.687l-0.58,0.896c-1.748-0.649-3.182-1.995-3.832-3.655c-0.668,1.891-2.197,3.393-4.043,4.112
			l-0.58-0.896c2.232-0.826,4.025-2.918,4.025-5.223v-0.809h-3.639v-0.932h8.332v0.932h-3.587v0.791
			C19.481,221.996,21.186,223.931,23.384,224.687z M27.075,229.606c0,1.812-1.951,2.849-5.15,2.865
			c-3.199-0.019-5.15-1.056-5.133-2.865c-0.019-1.812,1.934-2.849,5.133-2.849S27.075,227.796,27.075,229.606z M17.882,229.606
			c-0.018,1.213,1.564,1.951,4.043,1.951c2.479,0,4.063-0.738,4.063-1.951s-1.582-1.969-4.063-1.969
			C19.447,227.64,17.865,228.396,17.882,229.606z M27.022,226.231h-1.106v-4.185h-3.357v-0.933h3.357v-4.131h1.106V226.231z"/>
		<path fill="#070001" d="M37.798,224.123h-7.172v-6.259h7.172V224.123z M31.698,223.228h5.026v-4.432h-5.026V223.228z
			 M42.527,229.378h-8.859v1.986h9.457v0.932H32.577v-3.742h8.877v-1.813h-8.896v-0.914h9.968V229.378z M42.527,225.021h-1.091
			v-8.033h1.091V225.021z"/>
		<path fill="#070001" d="M57.573,228.112l-0.687,0.845c-1.563-0.949-2.732-2.707-3.271-4.799c-0.555,2.25-1.76,4.157-3.356,5.149
			l-0.703-0.826c2.108-1.267,3.517-4.112,3.517-7.015v-1.651h-3.146v-0.933h7.207v0.933h-2.988v1.651
			C54.128,224.21,55.481,226.899,57.573,228.112z M59.77,231.646h-1.055v-8.067H55.92v-0.933h2.795v-5.256h1.055V231.646z
			 M62.899,232.489h-1.071v-15.504h1.071V232.489z"/>
		<path fill="#070001" d="M73.201,223.017h3.744v-6.029h1.09v15.521h-1.09v-8.577h-3.728c-0.133,3.066-1.663,5.01-3.833,5.01
			c-2.269,0-3.851-2.092-3.832-5.36c-0.019-3.271,1.563-5.36,3.832-5.36C71.505,218.216,73.015,220.071,73.201,223.017z
			 M66.608,223.578c0,2.603,1.125,4.377,2.777,4.377c1.635,0,2.776-1.774,2.776-4.377c0-2.584-1.145-4.377-2.776-4.377
			C67.733,219.201,66.608,220.994,66.608,223.578z"/>
		<path fill="#070001" d="M86.015,229.483l-0.615-0.914c4.255-2.012,6.529-5.187,6.82-8.965h-6.135v-0.914h7.24
			C93.31,223.067,91.114,227.022,86.015,229.483z M97.898,232.489h-1.09v-15.504h1.09V232.489z"/>
		<path fill="#070001" d="M114.843,224.509h-6.521v1.725h4.657v3.355h-9.403v1.793h9.896v0.914h-10.969v-3.551h9.404v-1.6h-9.457
			v-0.914h4.764v-1.725h-6.504v-0.912h14.133V224.509z M114.052,221.591l-0.404,0.861c-2.338-0.325-4.911-1.434-5.87-3.217
			c-0.968,1.783-3.552,2.892-5.871,3.217l-0.388-0.861c2.55-0.314,5.695-1.793,5.695-3.85v-0.686h1.125v0.686
			C108.339,219.798,111.487,221.274,114.052,221.591z"/>
		<path fill="#070001" d="M3.152,256.039c0-0.879,0.721-1.601,1.616-1.601c0.879,0,1.601,0.722,1.601,1.601
			c0,0.896-0.722,1.616-1.601,1.616C3.872,257.655,3.152,256.937,3.152,256.039z"/>
		<path fill="#070001" d="M26.917,252.065c0,2.285-2.074,3.789-5.063,3.955v3.463h6.593v0.949H14.243v-0.949h6.504v-3.463
			c-2.979-0.158-5.063-1.67-5.063-3.955c0-2.408,2.338-3.989,5.606-3.989C24.579,248.076,26.917,249.658,26.917,252.065z
			 M16.74,252.065c0,1.828,1.934,3.076,4.553,3.076s4.57-1.248,4.57-3.076s-1.951-3.076-4.57-3.076S16.74,250.237,16.74,252.065z"/>
		<path fill="#070001" d="M38.782,254.737l-0.563,0.88c-1.768-0.649-3.189-1.96-3.851-3.621c-0.649,1.837-2.153,3.243-3.975,3.938
			l-0.598-0.861c2.25-0.826,4.008-2.813,4.025-5.115v-0.896h-3.654v-0.933h8.332v0.933h-3.604v0.879
			C34.897,252.083,36.568,253.964,38.782,254.737z M41.876,262.489h-1.107v-4.358h-8.965v-0.933h10.072V262.489z M41.876,251.188
			h2.391v0.967h-2.391v4.166h-1.107v-9.334h1.107V251.188z"/>
		<path fill="#070001" d="M53.548,250.783h3.48v-3.798h1.106v8.298h-1.106v-3.568h-3.464c-0.236,1.863-1.818,3.111-3.954,3.111
			c-2.355,0-4.009-1.44-3.99-3.552c-0.019-2.108,1.635-3.551,3.99-3.551C51.727,247.726,53.302,248.946,53.548,250.783z
			 M46.675,251.274c0,1.494,1.213,2.603,2.938,2.603c1.688,0,2.898-1.106,2.898-2.603c0-1.512-1.213-2.603-2.898-2.603
			C47.888,248.673,46.675,249.765,46.675,251.274z M49.382,258.235h7.646v-2.127h1.106v6.152h-9.861v-6.152h1.107L49.382,258.235
			L49.382,258.235z M57.029,261.349v-2.217h-7.646v2.217H57.029z"/>
		<path fill="#070001" d="M75.081,255.021h-3.938v1.563h2.146v3.184H63.76v1.688h10.055v0.844H62.671v-3.34h9.51v-1.512h-9.545
			v-0.861h2.215v-1.563h-3.955v-0.879h14.187L75.081,255.021L75.081,255.021z M73.237,250.556h-9.388v1.512h9.649v0.844H62.759
			v-3.146h9.369v-1.441h-9.423v-0.825h10.529v3.058H73.237L73.237,250.556z M70.054,256.583v-1.563h-4.113v1.563H70.054z"/>
		<path fill="#070001" d="M86.595,258.112c1.564-0.078,3.156-0.211,4.658-0.438l0.088,0.845c-3.586,0.633-7.453,0.649-10.266,0.649
			l-0.177-0.948c1.345,0,2.927,0,4.589-0.07v-3.076h1.106L86.595,258.112L86.595,258.112z M90.673,254.563l-0.527,0.896
			c-1.871-0.599-3.428-1.837-4.112-3.517c-0.658,1.768-2.205,3.066-4.062,3.675l-0.545-0.861c2.25-0.702,4.043-2.479,4.043-4.729
			h-3.69v-0.948h3.709v-1.986h1.106v1.986h3.779v0.948h-3.797C86.578,252.188,88.406,253.896,90.673,254.563z M93.433,262.507
			h-1.106v-15.521h1.106V262.507z"/>
		<path fill="#070001" d="M110.573,260.397H96.369v-0.949h6.485v-3.885h1.091v3.885h6.627V260.397L110.573,260.397z
			 M109.816,254.722l-0.51,0.932c-2.225-0.492-4.922-2.127-5.906-4.465c-0.993,2.338-3.684,3.973-5.889,4.465l-0.512-0.932
			c2.443-0.439,5.803-2.674,5.818-5.414v-1.23h1.145v1.23C103.962,252.03,107.372,254.28,109.816,254.722z"/>
		<path fill="#070001" d="M116.162,258.358v-1.828c-1.873-0.157-3.094-1.221-3.076-2.813c-0.018-1.738,1.441-2.863,3.621-2.863
			c2.162,0,3.639,1.125,3.639,2.863c0,1.582-1.221,2.646-3.076,2.813v1.793c1.513-0.078,3.033-0.201,4.447-0.403l0.088,0.86
			c-3.41,0.58-7.119,0.615-9.86,0.615l-0.212-0.967C113.042,258.431,114.571,258.42,116.162,258.358z M121.401,249.853h-9.404
			v-0.934h4.166v-1.934h1.106v1.934h4.132V249.853z M114.122,253.72c0,1.158,1.037,1.949,2.584,1.934
			c1.547,0.018,2.565-0.773,2.584-1.934c-0.019-1.16-1.037-1.986-2.584-1.986S114.122,252.56,114.122,253.72z M123.826,253.685
			h2.637v0.947h-2.637v7.857h-1.09v-15.504h1.09V253.685z"/>
	</g>
</g>
</svg>
