<?xml version="1.0" encoding="utf-8"?>
<!-- Generator: Adobe Illustrator 16.0.0, SVG Export Plug-In . SVG Version: 6.00 Build 0)  -->
<!DOCTYPE svg PUBLIC "-//W3C//DTD SVG 1.1//EN" "http://www.w3.org/Graphics/SVG/1.1/DTD/svg11.dtd">
<svg version="1.1" id="Layer_1" xmlns="http://www.w3.org/2000/svg" xmlns:xlink="http://www.w3.org/1999/xlink" x="0px" y="0px"
	 width="125.5px" height="175.129px" viewBox="0 0 125.5 175.129" enable-background="new 0 0 125.5 175.129" xml:space="preserve">
<circle fill="#84B4BB" cx="63.076" cy="62.628" r="60.5"/>
<path fill="#FFFFFF" d="M91.52,89.409L78.572,76.931c4.039-4.442,6.504-10.34,6.504-16.802c0-13.785-11.215-25-25-25
	s-25,11.215-25,25s11.215,25,25,25c6.604,0,12.615-2.579,17.088-6.777l12.969,12.497c0.193,0.188,0.443,0.28,0.693,0.28
	c0.262,0,0.523-0.103,0.721-0.306C91.93,90.424,91.918,89.792,91.52,89.409z M37.076,60.128c0-12.682,10.318-23,23-23
	s23,10.318,23,23s-10.318,23-23,23S37.076,72.811,37.076,60.128z"/>
<g>
	<path fill="#231815" d="M12.3,161.701c1.503-0.062,3.041-0.193,4.482-0.404l0.105,1.02c-3.568,0.65-7.418,0.668-10.23,0.668
		l-0.193-1.143c1.31-0.009,2.856-0.018,4.482-0.07v-2.936H12.3V161.701z M15.974,153.791H12.3c0.035,2.021,1.714,3.665,4.025,4.324
		l-0.65,1.09c-1.881-0.563-3.349-1.767-4.043-3.357c-0.686,1.679-2.145,2.927-4.025,3.498l-0.668-1.055
		c2.312-0.677,3.938-2.391,3.973-4.5H7.325v-1.143h3.621v-1.934H12.3v1.934h3.674V153.791z M19.19,166.253h-1.371v-15.662h1.371
		V166.253z"/>
	<path fill="#231815" d="M31.214,158.238l-0.721,1.09c-1.767-0.633-3.129-1.942-3.797-3.551c-0.677,1.802-2.118,3.243-3.973,3.92
		l-0.721-1.09c2.303-0.826,3.973-2.918,3.973-5.115v-0.686h-3.533v-1.125h8.42v1.125h-3.498v0.668
		C27.364,155.513,28.929,157.447,31.214,158.238z M34.888,166.218h-1.389v-4.289h-9.123v-1.143h10.512V166.218z M34.888,159.96
		h-1.389v-4.113H30.37v-1.16h3.129v-4.096h1.389V159.96z"/>
	<path fill="#231815" d="M47.896,161.103l0.105,1.02c-3.568,0.668-7.418,0.686-10.23,0.686l-0.193-1.178
		C40.46,161.63,44.433,161.613,47.896,161.103z M46.806,155.408c0,2.18-1.74,3.674-4.201,3.674s-4.236-1.494-4.219-3.674
		c-0.018-2.18,1.758-3.674,4.219-3.674S46.806,153.228,46.806,155.408z M39.739,155.408c-0.018,1.459,1.195,2.461,2.865,2.461
		c1.652,0,2.848-1.002,2.848-2.461s-1.195-2.461-2.848-2.461C40.935,152.947,39.722,153.949,39.739,155.408z M50.304,166.253h-1.371
		v-15.662h1.371V166.253z"/>
	<path fill="#231815" d="M66.704,158.273l-0.703,1.072c-1.784-0.633-3.146-1.916-3.814-3.533c-0.668,1.775-2.101,3.155-3.938,3.832
		l-0.738-1.072c2.338-0.826,3.973-2.848,3.99-5.08v-0.668h-3.568v-1.125h8.438v1.125h-3.516v0.668
		C62.854,155.566,64.384,157.464,66.704,158.273z M69.78,166.218h-1.371v-4.254H59.55v-1.125h10.23V166.218z M69.78,154.722h2.355
		v1.178H69.78v4.113h-1.371v-9.422h1.371V154.722z"/>
	<path fill="#231815" d="M81.417,154.335h3.27v-3.744h1.389v8.385h-1.389v-3.498h-3.252c-0.281,1.846-1.89,3.076-4.008,3.076
		c-2.373,0-4.061-1.477-4.061-3.621c0-2.127,1.688-3.621,4.061-3.604C79.527,151.312,81.118,152.534,81.417,154.335z
		 M74.685,154.933c0,1.424,1.143,2.461,2.742,2.461c1.582,0,2.707-1.037,2.707-2.461c0-1.441-1.125-2.443-2.707-2.426
		C75.827,152.49,74.685,153.492,74.685,154.933z M77.392,161.753h7.295v-1.986h1.389v6.24H76.003v-6.24h1.389V161.753z
		 M84.687,164.882v-2.021h-7.295v2.021H84.687z"/>
	<path fill="#231815" d="M97.36,159.82v-1.195c-1.819-0.167-2.988-1.037-2.988-2.355c0-1.512,1.459-2.408,3.656-2.408
		c2.215,0,3.656,0.896,3.674,2.408c-0.018,1.31-1.16,2.18-2.971,2.355v1.125c1.468-0.07,2.944-0.211,4.307-0.422l0.123,0.984
		c-3.357,0.633-7.137,0.686-9.879,0.703l-0.158-1.125C94.363,159.89,95.831,159.881,97.36,159.82z M102.563,153.175h-9.053v-1.037
		h3.85v-1.582h1.371v1.582h3.832V153.175z M105.956,165.884H95.462V162h1.389v2.725h9.105V165.884z M95.69,156.269
		c0,0.861,0.896,1.406,2.338,1.406s2.355-0.545,2.355-1.406c0-0.879-0.914-1.424-2.355-1.424S95.69,155.39,95.69,156.269z
		 M105.394,156.076h2.338v1.16h-2.338v5.59h-1.389v-12.234h1.389V156.076z"/>
	<path fill="#231815" d="M121.706,159.996h-1.389v-2.109h-4.148v-1.143h4.148v-2.109h-3.99c-1.028,2.514-3.445,4.333-6.785,5.326
		l-0.58-1.09c3.779-1.125,6.126-3.234,6.416-5.941h-5.625v-1.16h7.119c0,0.615-0.07,1.204-0.193,1.758h3.639v-2.918h1.389V159.996z
		 M121.794,163.142c0,1.881-2.039,3.006-5.203,3.006c-3.199,0-5.221-1.125-5.221-3.006c0-1.863,2.021-2.988,5.221-2.988
		C119.755,160.154,121.794,161.279,121.794,163.142z M112.724,163.142c0,1.178,1.512,1.881,3.867,1.881
		c2.32,0,3.814-0.703,3.832-1.881c-0.018-1.178-1.512-1.898-3.832-1.881C114.235,161.244,112.724,161.964,112.724,163.142z"/>
</g>
<g>
	<path fill="#FFFFFF" d="M78.958,56.136h-9.559c-0.45,0-0.814,0.364-0.814,0.813c0,0.449,0.364,0.813,0.814,0.813h7.467
		L66.159,68.009l-5.762-3.903c-0.317-0.216-0.745-0.179-1.022,0.089l-10.271,9.967c-0.322,0.313-0.33,0.827-0.018,1.149
		c0.313,0.323,0.828,0.331,1.15,0.018l9.797-9.505l5.757,3.901c0.315,0.214,0.742,0.18,1.02-0.085l11.336-10.848v6.65
		c0,0.449,0.362,0.814,0.813,0.814s0.813-0.365,0.813-0.814v-8.492C79.771,56.5,79.408,56.136,78.958,56.136z"/>
	<path fill="#FFFFFF" d="M55.793,60.403c0.106,0.048,0.222,0.072,0.335,0.072c0.115,0,0.229-0.024,0.335-0.072
		c0.746-0.337,1.361-0.819,1.831-1.434l5.85-7.647c0.777-1.014,1.11-2.27,0.941-3.535c-0.168-1.266-0.819-2.39-1.833-3.166
		c-0.843-0.643-1.845-0.983-2.901-0.983c-1.503,0-2.888,0.683-3.8,1.875l-0.423,0.552l-0.422-0.552
		c-0.913-1.192-2.298-1.875-3.799-1.875c-1.057,0-2.061,0.34-2.901,0.983c-2.094,1.601-2.493,4.606-0.894,6.701l5.851,7.647
		C54.432,59.584,55.048,60.066,55.793,60.403z M49.994,45.914c0.555-0.424,1.217-0.648,1.913-0.648c0.99,0,1.904,0.451,2.507,1.237
		l1.068,1.396c0.307,0.402,0.984,0.402,1.292,0l1.068-1.396c0.602-0.786,1.516-1.237,2.508-1.237c0.696,0,1.356,0.224,1.912,0.648
		c0.669,0.512,1.099,1.254,1.21,2.089s-0.109,1.663-0.62,2.332l-5.851,7.647c-0.233,0.304-0.525,0.561-0.874,0.766
		c-0.347-0.205-0.641-0.462-0.874-0.766l-5.849-7.647C48.35,48.953,48.613,46.97,49.994,45.914z"/>
</g>
</svg>
