<?xml version="1.0" encoding="utf-8"?>
<!-- Generator: Adobe Illustrator 16.0.0, SVG Export Plug-In . SVG Version: 6.00 Build 0)  -->
<!DOCTYPE svg PUBLIC "-//W3C//DTD SVG 1.1//EN" "http://www.w3.org/Graphics/SVG/1.1/DTD/svg11.dtd">
<svg version="1.1" id="Layer_1" xmlns="http://www.w3.org/2000/svg" xmlns:xlink="http://www.w3.org/1999/xlink" x="0px" y="0px"
	 width="125.5px" height="175.13px" viewBox="0 0 125.5 175.13" enable-background="new 0 0 125.5 175.13" xml:space="preserve">
<circle fill="#86B5BC" cx="63.076" cy="62.628" r="60.5"/>
<path fill="#FFFFFF" d="M91.52,89.408L78.572,76.931c4.039-4.442,6.504-10.34,6.504-16.802c0-13.785-11.215-25-25-25
	s-25,11.215-25,25s11.215,25,25,25c6.604,0,12.615-2.579,17.088-6.777l12.969,12.497c0.193,0.187,0.443,0.28,0.693,0.28
	c0.262,0,0.523-0.104,0.721-0.307C91.93,90.425,91.918,89.791,91.52,89.408z M37.076,60.128c0-12.682,10.318-23,23-23
	s23,10.318,23,23s-10.318,23-23,23S37.076,72.811,37.076,60.128z"/>
<g>
	<path d="M25.667,159.68h-6.346v3.199h-1.389v-3.199h-6.574v-1.143h14.309V159.68z M23.997,154.143c0,1.934-2.162,3.111-5.502,3.111
		s-5.52-1.178-5.52-3.111s2.18-3.129,5.52-3.146C21.835,151.014,23.997,152.209,23.997,154.143z M24.067,165.885H13.204v-4.57h1.389
		v3.393h9.475V165.885z M14.452,154.143c-0.018,1.213,1.617,1.986,4.043,1.986s4.043-0.773,4.043-1.986
		c0-1.248-1.617-2.021-4.043-2.021S14.435,152.895,14.452,154.143z"/>
	<path d="M34.403,152.859h4.096v-2.268h1.389v9.264h-1.389v-2.232h-4.078c-0.738,0.834-1.863,1.326-3.182,1.318
		c-2.338,0.018-4.061-1.512-4.061-3.691c0-2.197,1.723-3.727,4.061-3.709C32.558,151.531,33.683,152.023,34.403,152.859z
		 M28.497,155.25c0,1.459,1.143,2.514,2.742,2.514c1.547,0,2.707-1.055,2.707-2.514c0-1.477-1.16-2.531-2.707-2.514
		C29.64,152.719,28.497,153.773,28.497,155.25z M39.94,163.195c0,1.898-2.004,2.988-5.238,2.988c-3.252,0-5.238-1.09-5.238-2.988
		c0-1.881,1.986-2.971,5.238-2.971C37.937,160.225,39.94,161.314,39.94,163.195z M30.817,163.195c0,1.178,1.494,1.881,3.885,1.881
		c2.408,0,3.885-0.703,3.885-1.881s-1.477-1.898-3.885-1.898C32.312,161.297,30.817,162.018,30.817,163.195z M35.282,155.25
		c0,0.439-0.079,0.852-0.211,1.23h3.428v-2.496h-3.428C35.203,154.371,35.282,154.793,35.282,155.25z"/>
	<path d="M49.292,156.059h4.658v-4.131h1.354v10.547h-7.383v-10.547h1.371V156.059z M53.95,161.314v-4.148h-4.658v4.148H53.95z
		 M59.892,166.254h-1.389v-15.662h1.389V166.254z"/>
	<path d="M76.802,159.469H62.563v-1.143h3.533v-2.197c-1.248-0.484-1.951-1.283-1.951-2.338c0-1.846,2.109-2.9,5.537-2.9
		c3.393,0,5.52,1.055,5.52,2.9c0,1.045-0.694,1.846-1.934,2.32v2.215h3.533V159.469z M75.062,163.424
		c-0.018,1.775-2.021,2.76-5.379,2.76c-3.393,0-5.396-0.984-5.396-2.76c0-1.793,2.004-2.76,5.396-2.76
		C73.04,160.664,75.044,161.631,75.062,163.424z M65.569,153.791c-0.018,1.143,1.564,1.811,4.113,1.811
		c2.531,0,4.113-0.668,4.113-1.811c0-1.125-1.582-1.811-4.113-1.811C67.134,151.98,65.552,152.666,65.569,153.791z M65.692,163.424
		c-0.018,1.055,1.477,1.688,3.99,1.688c2.479,0,3.99-0.633,3.99-1.688c0-1.072-1.512-1.688-3.99-1.705
		C67.169,161.736,65.675,162.352,65.692,163.424z M71.897,158.326v-1.828c-0.659,0.113-1.397,0.176-2.215,0.176
		s-1.556-0.063-2.215-0.176v1.828H71.897z"/>
	<path d="M91.884,157.395l-0.686,1.09c-1.767-0.59-3.146-1.803-3.814-3.322c-0.703,1.678-2.153,3.059-3.99,3.691l-0.686-1.09
		c2.285-0.791,3.955-2.742,3.955-4.764v-0.439H83.13v-1.143h8.42v1.143h-3.498v0.457C88.052,154.881,89.634,156.674,91.884,157.395z
		 M95.575,163.195h-8.719v1.74h9.316v1.107H85.485v-3.902h8.719v-1.564H85.45v-1.125h10.125V163.195z M95.575,158.678h-1.371v-3.445
		h-3.146v-1.143h3.146v-3.498h1.371V158.678z"/>
	<path d="M98.739,159.627l-0.563-1.107c3.85-1.037,6.196-3.121,6.486-5.766H98.88v-1.143h7.26
		C106.122,155.549,103.362,158.361,98.739,159.627z M110.411,166.008h-9.896v-5.818h9.896V166.008z M101.886,164.883h7.154v-3.551
		h-7.154V164.883z M110.411,154.424h2.355v1.143h-2.355v3.902h-1.371v-8.877h1.371V154.424z"/>
</g>
<g>
	<path fill="#FFFFFF" d="M73.225,53.548c-0.393,0-0.713,0.318-0.713,0.712v5.818l-9.918-9.493c-0.243-0.232-0.616-0.262-0.894-0.075
		l-5.038,3.413l-8.571-8.318c-0.282-0.274-0.733-0.267-1.007,0.015c-0.274,0.282-0.268,0.732,0.016,1.007l8.987,8.721
		c0.242,0.235,0.618,0.268,0.896,0.079l5.04-3.416l9.37,8.967h-6.534c-0.395,0-0.713,0.317-0.713,0.711
		c0,0.394,0.318,0.712,0.713,0.712h8.365c0.393,0,0.712-0.319,0.712-0.712V54.26C73.937,53.866,73.617,53.548,73.225,53.548z"/>
	<path fill="#FFFFFF" d="M58.452,61.69h-0.89v-2.848c0-0.393-0.318-0.712-0.713-0.712H46.349c-0.393,0-0.711,0.319-0.711,0.712v3.56
		c0,0.394,0.318,0.711,0.711,0.711h0.89v2.136h-0.89c-0.393,0-0.711,0.318-0.711,0.712v3.559c0,0.394,0.318,0.713,0.711,0.713h0.89
		v2.848c0,0.394,0.318,0.711,0.713,0.711h10.501c0.393,0,0.712-0.318,0.712-0.711v-3.561c0-0.393-0.319-0.711-0.712-0.711h-0.89
		v-2.135h0.89c0.393,0,0.712-0.318,0.712-0.712v-3.56C59.164,62.009,58.845,61.69,58.452,61.69z M47.06,61.69v-2.136h9.078v2.136
		h-8.187H47.06z M47.06,68.81v-2.135h0.892h8.187v2.135h-8.187H47.06z M57.738,70.234v2.135h-9.075v-2.135h8.187H57.738z
		 M57.738,65.25H56.85h-8.187v-2.136h8.187h0.889V65.25z"/>
	<path fill="#FFFFFF" d="M72.512,65.25h-10.5c-0.395,0-0.713,0.318-0.713,0.712v2.847H60.41c-0.394,0-0.712,0.319-0.712,0.711v3.561
		c0,0.394,0.318,0.711,0.712,0.711h10.5c0.396,0,0.713-0.318,0.713-0.711v-2.848h0.889c0.395,0,0.713-0.319,0.713-0.713v-3.559
		C73.225,65.568,72.906,65.25,72.512,65.25z M70.198,72.369h-9.077v-2.135h0.891h8.187V72.369z M71.801,68.81H70.91h-8.186v-2.135
		h9.076V68.81z"/>
</g>
<g>
</g>
<g>
</g>
<g>
</g>
<g>
</g>
<g>
</g>
<g>
</g>
</svg>
