<?xml version="1.0" encoding="UTF-8"?>
<svg id="Layer_1" xmlns="http://www.w3.org/2000/svg" version="1.1" viewBox="0 0 402.8 76">
  <!-- Generator: Adobe Illustrator 29.3.1, SVG Export Plug-In . SVG Version: 2.1.0 Build 151)  -->
  <defs>
    <style>
      .st0 {
        fill: #231815;
      }

      .st1 {
        fill: #fff;
      }

      .st2 {
        fill: #de0515;
      }

      .st3 {
        fill: #0f0a0a;
      }

      .st4 {
        fill: #86807c;
      }
    </style>
  </defs>
  <path class="st0" d="M46.5,2.4L14.7,50.3l63.9-.3L46.5,2.4ZM46.6,14.3l20,29.5H26.1l20.4-29.5h0Z"/>
  <polygon class="st3" points="26.1 44 36.3 29.1 36.8 28.3 46.4 14.2 46.5 3.4 31.9 25.3 31.3 26.1 15.8 49.6 26.1 44"/>
  <g>
    <rect class="st2" x=".4" y="18.1" width="24.3" height="1.4"/>
    <path class="st0" d="M25,19.9H0v-2.2h25v2.2ZM.8,19.1h23.5v-.7H.8v.7Z"/>
  </g>
  <g>
    <rect class="st2" x="6.5" y="22" width="12" height="1.4"/>
    <path class="st0" d="M18.9,23.9H6.1v-2.2h12.8v2.2ZM6.9,23.1h11.3v-.7H6.9v.7Z"/>
  </g>
  <g>
    <rect class="st4" x="74.6" y="3.6" width="1.5" height="23"/>
    <path class="st0" d="M76.5,27h-2.3V3.2h2.3v23.7h0ZM74.9,26.2h.8V4h-.8v22.2Z"/>
  </g>
  <g>
    <rect class="st4" x="70.4" y="3.6" width="1.5" height="11.4"/>
    <path class="st0" d="M72.3,15.4h-2.3V3.2h2.3v12.2ZM70.7,14.6h.8V4h-.8v10.7h0Z"/>
  </g>
  <g>
    <polygon class="st1" points="44.8 56 59 74.6 57.8 75.5 43.5 56.8 44.8 56"/>
    <path class="st0" d="M57.7,76l-14.7-19.2,1.9-1.3,14.7,19.2-1.9,1.3h0ZM44.1,56.9l13.8,18,.6-.4-13.8-18-.6.4Z"/>
  </g>
  <g>
    <polygon class="st1" points="48.2 53.7 55.2 62.9 54 63.8 46.9 54.5 48.2 53.7"/>
    <path class="st0" d="M53.9,64.3l-7.5-9.8,1.9-1.3,7.5,9.8-1.9,1.3ZM47.5,54.6l6.6,8.6.6-.4-6.6-8.6-.6.4h0Z"/>
  </g>
  <rect class="st2" x=".2" y="17.8" width="24.7" height="2"/>
  <rect class="st2" x="6.2" y="21.8" width="12.5" height="2"/>
  <rect class="st4" x="74.4" y="3.4" width="2" height="23.5"/>
  <rect class="st4" x="70.2" y="3.4" width="2" height="11.9"/>
  <polygon class="st3" points="44.8 56 59 74.6 57.8 75.5 43.5 56.8 44.8 56"/>
  <polygon class="st3" points="48.2 53.7 55.2 62.9 54 63.8 46.9 54.5 48.2 53.7"/>
  <g>
    <g>
      <path d="M102,50.7c0-1.1,0-2.3,0-3.8V8.8c0-1.5,0-2.7,0-3.8,0-1.1-.2-2.4-.3-4h12.2c2.9,0,5.5.2,7.9.5s4.3.7,5.8,1.2c2.9.9,5.4,2.3,7.4,4s3.7,3.7,5,5.9c1.2,2.3,2.1,4.7,2.7,7.4.6,2.7.9,5.3.9,8s-.3,5.3-.8,7.9c-.5,2.6-1.4,4.9-2.5,7.1-1.2,2.3-2.7,4.2-4.5,6s-4,3.1-6.5,4.1c-1.4.5-3.2.9-5.4,1.2-2.2.3-4.7.4-7.6.4h-14.5c.2-1.5.3-2.7.3-3.8h0v-.2ZM133.6,19c-.7-2.7-1.7-5-3.1-6.8-1.4-1.7-3.1-3-5.2-3.9-2.1-.8-4.5-1.3-7.3-1.3h-7.3v41.2h7.6c2.8,0,5.2-.4,7.3-1.1,2-.8,3.8-1.9,5.2-3.5,1.3-1.5,2.4-3.6,3-6,.7-2.5,1-5.4,1-8.8s-.3-7.1-1.1-9.8h0Z"/>
      <path d="M116.2,54.7h-14.8v-.3c.2-1.5.3-2.7.4-3.8,0-1.1,0-2.3,0-3.8V8.8c0-1.4,0-2.7,0-3.8,0-1.1-.2-2.4-.3-4v-.3h12.5c2.9,0,5.6.2,8,.5,2.4.3,4.4.7,5.9,1.2,2.9.9,5.4,2.3,7.5,4,2,1.7,3.7,3.7,5,6,1.2,2.3,2.2,4.8,2.7,7.4.6,2.7.9,5.4.9,8s-.3,5.3-.8,7.9c-.5,2.6-1.4,5-2.6,7.2-1.2,2.3-2.7,4.3-4.6,6-1.8,1.8-4.1,3.1-6.6,4.1-1.4.5-3.3.9-5.5,1.2s-4.8.4-7.6.4h0ZM102,54.2h14.3c2.8,0,5.4,0,7.6-.4,2.2-.3,4-.6,5.3-1.1,2.5-1,4.7-2.3,6.4-4,1.8-1.7,3.3-3.7,4.5-5.9,1.1-2.2,2-4.6,2.5-7.1s.8-5.2.8-7.8-.3-5.3-.8-7.9c-.6-2.6-1.5-5.1-2.7-7.3-1.3-2.2-2.9-4.2-4.9-5.9s-4.4-3-7.3-3.9c-1.5-.5-3.4-.9-5.8-1.2s-5-.5-7.9-.5h-11.9c0,1.4.2,2.7.3,3.7,0,1.1,0,2.4,0,3.9v38.1c0,1.5,0,2.7,0,3.8,0,1-.2,2.2-.3,3.5h0ZM118.2,48.4h-7.9V6.8h7.6c2.8,0,5.3.4,7.4,1.3,2.1.9,3.9,2.2,5.3,3.9,1.4,1.9,2.5,4.2,3.2,6.9.7,2.7,1.1,6,1.1,9.8s-.3,6.4-1,8.8c-.7,2.5-1.7,4.5-3.1,6.1-1.4,1.6-3.2,2.8-5.3,3.6-2.1.8-4.5,1.1-7.4,1.1h.1ZM110.8,47.9h7.4c2.8,0,5.2-.4,7.2-1.1,2-.7,3.7-1.9,5.1-3.5,1.3-1.5,2.3-3.5,3-5.9s1-5.4,1-8.7-.4-7-1-9.7c-.7-2.7-1.7-4.9-3.1-6.7-1.4-1.7-3.1-3-5.1-3.8-2.1-.8-4.5-1.2-7.3-1.2h-7.1v40.7h0Z"/>
    </g>
    <g>
      <path d="M177.8,26.7c-.4-1.4-.9-2.5-1.7-3.5s-1.7-1.7-2.8-2.3c-1.1-.5-2.3-.8-3.7-.8s-2.8.2-3.9.7c-1.1.5-2,1.2-2.8,2-.8.9-1.4,2.1-1.7,3.5-.4,1.4-.6,3-.6,4.8h17.7c0-1.6-.2-3.1-.6-4.4h.1ZM160.5,37.8c0,2,.2,3.7.7,5.1.5,1.5,1.2,2.7,2.2,3.6.9,1,2.1,1.7,3.5,2.2s3.1.7,5.1.7,4.1-.3,5.8-.8c1.8-.6,3.4-1.4,5.1-2.6l3.3,4.6c-2.1,1.6-4.5,2.8-7.1,3.7-2.6.8-5.4,1.3-8.2,1.3s-6.1-.5-8.6-1.5-4.5-2.5-6.1-4.3c-1.7-1.8-3-4-3.8-6.5s-1.2-5.2-1.2-8.2.4-5.8,1.3-8.4c.9-2.5,2.1-4.7,3.8-6.5,1.6-1.8,3.5-3.2,5.8-4.2,2.3-1,4.8-1.5,7.5-1.5s5.4.4,7.5,1.3c2.2.9,4,2.2,5.5,3.9,1.4,1.8,2.6,4.1,3.3,6.7.8,2.6,1.1,5.7,1.1,9.2v1.4h-26.6v1h0v-.2Z"/>
      <path d="M171,55.7c-3.3,0-6.2-.5-8.7-1.6-2.5-1-4.6-2.5-6.2-4.4-1.7-1.8-3-4.1-3.9-6.6-.8-2.5-1.3-5.3-1.3-8.3s.4-5.9,1.3-8.5c.9-2.6,2.2-4.8,3.9-6.6,1.6-1.8,3.5-3.2,5.8-4.2,2.3-1,4.9-1.5,7.6-1.5s5.4.5,7.6,1.4c2.2.9,4.1,2.3,5.6,4,1.5,1.9,2.6,4.1,3.4,6.8.8,2.6,1.1,5.7,1.1,9.2v1.7h-26.6v.7c0,1.9.2,3.6.7,5.1.5,1.4,1.2,2.6,2.1,3.5.9,1,2.1,1.7,3.4,2.1,1.4.5,3.1.7,5,.7s4-.3,5.8-.8c1.7-.6,3.4-1.4,5-2.6h.2c0,0,3.6,4.8,3.6,4.8h-.2c-2.1,1.8-4.6,3-7.2,3.8-2.6.8-5.4,1.3-8.3,1.3h.3ZM169.6,14.5c-2.7,0-5.2.5-7.4,1.5s-4.1,2.4-5.7,4.1c-1.6,1.8-2.9,4-3.8,6.5-.9,2.5-1.3,5.3-1.3,8.3s.4,5.7,1.2,8.1c.8,2.5,2.1,4.6,3.8,6.4,1.6,1.8,3.6,3.2,6,4.2s5.3,1.5,8.5,1.5,5.5-.4,8.1-1.3c2.5-.8,4.8-2,6.8-3.5l-3-4.2c-1.6,1.1-3.2,1.9-4.9,2.5-1.8.6-3.8.9-5.9.9s-3.7-.2-5.2-.7-2.7-1.2-3.6-2.2c-1-1-1.8-2.2-2.2-3.7-.5-1.5-.7-3.2-.7-5.2v-1.2h26.6v-1.2c0-3.4-.4-6.5-1.1-9.1-.7-2.6-1.8-4.8-3.3-6.6-1.5-1.7-3.3-3-5.4-3.9-2.1-.9-4.6-1.3-7.4-1.3h-.1ZM178.6,31.4h-18.2v-.2c0-1.8.2-3.5.6-4.9.4-1.4,1-2.6,1.8-3.6.7-.9,1.7-1.6,2.9-2.1,1.1-.5,2.5-.7,4-.7s2.7.3,3.8.8c1.1.6,2,1.3,2.8,2.4.7,1,1.3,2.2,1.7,3.6s.6,2.9.6,4.5v.2h0ZM160.9,30.9h17.2c0-1.5-.2-2.9-.6-4.1-.4-1.3-.9-2.5-1.6-3.4-.7-.9-1.6-1.7-2.7-2.2-1-.5-2.2-.8-3.6-.8s-2.7.2-3.8.7-2,1.1-2.7,2c-.8.9-1.3,2.1-1.7,3.4s-.6,2.8-.6,4.5h.1Z"/>
    </g>
    <g>
      <path d="M196.3,3.8c0-1.1-.1-2.3-.2-3.6h9.2c-.2,1.3-.3,2.5-.3,3.6v37.9c0,2.3,0,3.9.2,4.9s.5,1.8,1,2.3c.3.4.8.7,1.6.7s1.3,0,1.9-.2l1.1,5.5c-.8,0-1.6.3-2.6.4-1,0-1.8,0-2.5,0-1.6,0-2.9-.2-4-.7-1.1-.4-2.1-1.1-2.8-2.1-.8-.9-1.4-2-1.7-3.4-.4-1.4-.6-3-.6-4.8V3.8h-.3Z"/>
      <path d="M205.5,55.6c-1.6,0-3-.2-4.1-.7s-2.1-1.2-2.9-2.2c-.8-.9-1.4-2.1-1.8-3.5-.4-1.4-.6-3-.6-4.9V3.9c0-1.1-.1-2.3-.2-3.5V.1h9.8v.3c-.2,1.3-.3,2.5-.3,3.5v37.8c0,2.2,0,3.8.2,4.8.1.9.5,1.7.9,2.2.3.4.7.6,1.4.7.7,0,1.3,0,1.8-.2h.3l1.2,5.9h-.2c-.8.2-1.7.3-2.6.4-1,0-1.8,0-2.6,0h-.3ZM196.3.5c0,1.2.2,2.3.2,3.3v40.6c0,1.8.2,3.4.6,4.8.4,1.3.9,2.5,1.7,3.3.8.9,1.7,1.6,2.7,2,1.1.4,2.4.7,3.9.7s1.5,0,2.5,0c.8,0,1.6-.2,2.3-.3l-1-5c-.5,0-1.1.2-1.7,0-.8,0-1.4-.4-1.7-.8-.5-.6-.9-1.4-1.1-2.4-.2-1-.2-2.6-.2-4.9V3.8c0-1,.1-2.1.3-3.3h-8.7.2Z"/>
    </g>
    <g>
      <path d="M232.5,15.2c1.3,0,3-.1,5.1-.3l-1.6,6.3c-1.7,0-3.1-.2-4.3-.2h-4.3v22.4c0,1.5,0,2.6.2,3.3.2.8.6,1.5,1.3,2.1.4.4.9.6,1.6.7.7,0,1.4.2,2.2,0,.8,0,1.6,0,2.4-.3.8,0,1.5-.3,2.1-.5l.9,5.1c-1.1.5-2.5.9-4,1.2s-2.9.4-4,.4c-1.9,0-3.5-.2-4.9-.6-1.4-.4-2.5-1-3.4-1.9-.9-.8-1.6-1.8-2.1-3.1-.5-1.2-.7-2.7-.7-4.4v-24.6h-4.9v-5.7h4.9v-2.9c0-.9,0-1.8-.1-2.6,0-.8-.1-1.7-.2-2.5,0-.8-.1-1.5-.2-2.3l9.5-1.3c-.3,2-.5,3.9-.6,5.7,0,1.8-.1,3.7-.1,5.8h5.2Z"/>
      <path d="M230.2,55.8c-1.9,0-3.5-.2-4.9-.6-1.4-.4-2.6-1.1-3.5-1.9-1-.8-1.7-1.9-2.2-3.2s-.7-2.8-.7-4.5v-24.4h-4.9v-6.2h4.9v-2.6c0-.9,0-1.8-.1-2.6l-.2-2.5c0-.8-.1-1.5-.2-2.2v-.2l10-1.3v.3c-.4,1.9-.6,3.8-.6,5.6s-.1,3.6-.1,5.5h4.8c1.3,0,3-.1,5-.3h.3l-1.8,6.8h-.2c-1.7-.1-3.1-.2-4.3-.2h-4v22.1c0,1.4,0,2.5.2,3.3.1.7.6,1.4,1.2,2,.3.3.8.6,1.5.7.7,0,1.4,0,2.2,0s1.6,0,2.4-.3c.8,0,1.5-.3,2-.5h.3l1,5.5h-.2c-1.2.6-2.5,1-4,1.3s-2.9.4-4.1.4h.2ZM214.5,20.7h4.9v24.9c0,1.7.2,3.1.7,4.3.4,1.2,1.1,2.2,2,3s2,1.4,3.3,1.8c1.3.4,3,.6,4.8.6s2.5,0,4-.4c1.4-.2,2.6-.6,3.7-1.1l-.8-4.6c-.5.2-1.1.3-1.8.4-.8,0-1.6.2-2.5.3-.8,0-1.6,0-2.3,0-.8,0-1.3-.4-1.7-.8-.8-.7-1.2-1.4-1.4-2.3-.2-.8-.2-1.9-.2-3.4v-22.6h4.5c1.1,0,2.5.1,4.1.2l1.5-5.8c-1.9.1-3.5.2-4.7.3h-5.3v-.2c0-2.1,0-4,.1-5.8,0-1.7.3-3.5.5-5.4l-8.9,1.2c0,.6,0,1.3.1,2l.2,2.5c0,.8,0,1.7.1,2.6v3.1h-4.9v5.2h0Z"/>
    </g>
    <g>
      <path d="M266.4,35.7h-1c-2.3,0-4.2.2-5.9.5-1.6.3-3,.8-4.1,1.4-1.1.7-1.9,1.5-2.4,2.5s-.8,2.2-.8,3.5.1,1.9.4,2.7c.3.8.7,1.5,1.3,2,.5.6,1.2,1,2,1.2.8.3,1.8.4,3,.4,1.8,0,3.4-.4,4.9-1.1,1.5-.7,2.9-1.8,4-3.2v-9.8h-1.5.1ZM275.3,55.9c-1.2-.4-2.3-1-3.2-1.8-1-.8-1.8-2-2.5-3.5-1.5,1.7-3.4,2.9-5.6,3.8-2.2.8-4.5,1.2-6.8,1.2s-4.1-.2-5.9-.7c-1.7-.5-3.2-1.2-4.4-2.2s-2.2-2.2-2.9-3.6c-.7-1.4-1-3.1-1-5.1s.4-4.2,1.3-5.9c.9-1.7,2.2-3.1,4-4.3,1.7-1.1,3.9-1.9,6.6-2.5,2.7-.6,5.8-.8,9.4-.8h3.7v-2.5c0-1.4-.1-2.6-.4-3.5s-.7-1.7-1.3-2.3c-.6-.6-1.4-1-2.3-1.2s-1.9-.4-3-.4c-2.2,0-4.3.4-6.3,1.1-2,.7-4.2,1.8-6.6,3.2l-3.7-5.4c1.4-.8,2.9-1.6,4.4-2.2,1.6-.6,3.1-1.2,4.7-1.7,1.5-.4,3-.8,4.5-1s3-.4,4.5-.4c2.5,0,4.7.3,6.5.8,1.8.6,3.2,1.5,4.4,2.7,1.1,1.3,1.9,2.9,2.4,4.9s.7,4.3.6,7.1l-.4,12v3.1c0,.8.1,1.5.4,2.2.3.9.7,1.6,1.2,2.1s1.2,1.1,2.2,1.8l-4.4,5h-.1Z"/>
      <path d="M275.4,56.2h-.2c-1.2-.4-2.3-1-3.3-1.9-.9-.8-1.7-1.9-2.4-3.3-1.5,1.6-3.3,2.8-5.4,3.6-2.2.8-4.5,1.2-6.9,1.2s-4.2-.3-5.9-.8c-1.8-.5-3.3-1.3-4.5-2.3-1.3-1-2.3-2.3-2.9-3.7-.7-1.5-1-3.2-1-5.2s.5-4.3,1.3-6.1c.9-1.7,2.3-3.2,4.1-4.4,1.7-1.1,4-1.9,6.7-2.5,2.7-.6,5.9-.9,9.5-.9h3.4v-2.2c0-1.4-.1-2.5-.4-3.4s-.7-1.6-1.2-2.2c-.6-.5-1.3-.9-2.1-1.1-.9-.2-1.9-.3-3-.3-2.1,0-4.2.4-6.3,1-2,.7-4.2,1.8-6.5,3.1h-.2c0,.1-4-5.7-4-5.7h.2c1.4-1,2.9-1.7,4.5-2.4,1.5-.6,3.1-1.2,4.7-1.7,1.5-.4,3.1-.8,4.6-1s3-.4,4.5-.4c2.6,0,4.8.3,6.6.9,1.8.6,3.3,1.5,4.5,2.7,1.1,1.3,1.9,3,2.4,5s.7,4.4.6,7.2l-.4,12v3.1c0,.8.1,1.5.3,2.1.3.9.7,1.5,1.1,2.1.5.5,1.2,1.1,2.1,1.8l.2.2-4.7,5.3h0v.2ZM269.6,50.2l.2.3c.7,1.5,1.5,2.7,2.5,3.4.9.7,1.9,1.3,3,1.7l4.1-4.7c-.9-.6-1.5-1.2-2-1.7-.5-.6-.9-1.3-1.2-2.2-.2-.7-.3-1.4-.4-2.3v-3.1l.4-12c.1-2.7,0-5.1-.6-7-.5-1.9-1.3-3.5-2.3-4.8-1.1-1.2-2.5-2.1-4.3-2.6-1.8-.6-3.9-.8-6.4-.8s-2.9.1-4.4.4c-1.5.2-3,.6-4.5,1-1.5.5-3.1,1-4.6,1.6-1.5.6-2.9,1.3-4.2,2.1l3.4,5c2.3-1.4,4.4-2.4,6.4-3.1,2.1-.7,4.2-1.1,6.4-1.1s2.2.1,3.1.4c.9.2,1.7.7,2.4,1.3.6.6,1.1,1.5,1.4,2.4.3,1,.4,2.2.4,3.6v2.7h-3.9c-3.5,0-6.7.3-9.4.8-2.6.6-4.8,1.4-6.5,2.4-1.8,1.1-3.1,2.5-4,4.2s-1.3,3.6-1.3,5.8.3,3.6,1,5,1.6,2.6,2.8,3.5c1.2,1,2.6,1.7,4.3,2.2s3.7.7,5.8.7,4.5-.4,6.7-1.2c2.1-.8,4-2,5.5-3.7l.3-.3h-.1ZM258.9,50.1c-1.2,0-2.2,0-3-.4-.9-.3-1.6-.7-2.1-1.3-.6-.5-1.1-1.2-1.4-2.1-.3-.8-.4-1.8-.4-2.8s.3-2.6.8-3.6,1.4-1.9,2.5-2.6c1.1-.6,2.5-1.1,4.2-1.4,1.6-.3,3.6-.5,5.9-.5s.6,0,1,0h1.7v10.1h0c-1.2,1.5-2.6,2.7-4.1,3.4s-3.2,1.1-5,1.1h-.1ZM265.4,35.8c-2.2,0-4.2.2-5.8.5-1.6.3-2.9.8-4,1.4-1,.6-1.8,1.4-2.3,2.4-.5.9-.7,2.1-.7,3.4s.1,1.9.4,2.7c.2.8.7,1.4,1.2,1.9.5.6,1.2.9,1.9,1.2.8.2,1.8.4,2.9.4,1.7,0,3.3-.3,4.8-1,1.4-.7,2.7-1.7,3.9-3.1v-9.4h-2.3v-.4Z"/>
    </g>
    <g>
      <path d="M317.1,11.4c-.6-1-1.4-1.9-2.4-2.6-1.1-.6-2.3-1.1-3.7-1.3-1.4-.3-2.9-.4-4.5-.4h-8.6v16.2h9.3c1.8,0,3.3-.2,4.6-.6,1.3-.4,2.5-1,3.4-1.7s1.6-1.5,2-2.5c.5-1,.7-2,.7-3.2s-.3-2.8-.9-3.8h.1ZM319.1,34.6c-.6-1.1-1.4-2.1-2.4-2.9-1.1-.7-2.4-1.2-3.9-1.6s-3.2-.6-5-.6h-9.8v18.5h10.1c1.9,0,3.5-.2,5-.6,1.5-.4,2.7-1.1,3.8-1.9,1-.8,1.8-1.8,2.3-3s.8-2.5.8-3.9-.3-2.9-.9-4h0ZM322.3,27.9c1.6.8,2.9,1.8,4,3,1,1.2,1.8,2.5,2.3,4s.8,3.1.8,4.8-.5,4.5-1.4,6.4-2.3,3.4-4.2,4.7c-1.9,1.3-4.3,2.2-7.2,2.9-2.9.7-6.2,1-10.1,1h-17.3c.2-1.5.3-2.7.3-3.8s.1-2.3.1-3.8V8.8c0-1.5,0-2.7-.1-3.8,0-1.1-.2-2.4-.3-4h16.2c3.1,0,6,.2,8.6.6s4.9,1.1,6.8,2.1c1.9,1,3.3,2.4,4.4,4,1.1,1.7,1.6,3.7,1.6,6.1s-.2,2.7-.6,4-1,2.4-1.9,3.5-2,2-3.3,2.8-2.8,1.4-4.5,1.8c2.2.4,4.1,1.1,5.6,1.9h.2Z"/>
      <path d="M306.5,54.7h-17.5v-.3c.2-1.5.3-2.7.4-3.8,0-1.1.1-2.3.1-3.8V8.8c0-1.5,0-2.7-.1-3.8,0-1.1-.2-2.4-.4-4v-.3h16.4c3.1,0,6,.2,8.7.6s5,1.1,6.9,2.1c1.9,1.1,3.4,2.4,4.5,4.1s1.6,3.8,1.6,6.2-.2,2.8-.6,4.1-1.1,2.5-1.9,3.5c-.9,1.1-2,2.1-3.3,2.9-1.1.6-2.3,1.2-3.6,1.6,1.8.4,3.4,1,4.7,1.7,1.6.9,3,1.9,4.1,3,1.1,1.2,1.9,2.6,2.4,4.1s.8,3.1.8,4.8-.5,4.6-1.4,6.5-2.4,3.5-4.3,4.8-4.4,2.3-7.3,2.9c-2.9.7-6.3,1-10.1,1h-.1ZM289.5,54.2h17c3.8,0,7.2-.3,10-1,2.8-.6,5.2-1.6,7.1-2.9,1.8-1.2,3.2-2.8,4.1-4.6s1.4-3.9,1.4-6.3-.3-3.2-.8-4.7c-.5-1.4-1.3-2.8-2.3-3.9-1.1-1.1-2.4-2.1-3.9-2.9-1.6-.8-3.4-1.5-5.6-1.9l-1.1-.2,1.1-.3c1.7-.4,3.2-1,4.4-1.8,1.3-.8,2.3-1.7,3.2-2.8.8-1,1.4-2.1,1.8-3.4.4-1.2.6-2.6.6-3.9,0-2.3-.5-4.3-1.6-6-1-1.6-2.5-3-4.3-4-1.9-1-4.2-1.7-6.8-2.1-2.6-.4-5.5-.6-8.6-.6h-15.9c.1,1.5.2,2.7.3,3.7,0,1.1.1,2.3.1,3.9v38.1c0,1.5,0,2.8-.1,3.8,0,1-.2,2.2-.3,3.5h0l.2.3ZM308.1,48.4h-10.4v-19h10c1.8,0,3.5.2,5,.6s2.9.9,4,1.7,1.9,1.8,2.5,2.9c.6,1.2.9,2.6.9,4.2s-.3,2.8-.8,4c-.6,1.2-1.4,2.2-2.4,3-1.1.9-2.4,1.5-3.9,1.9s-3.2.6-5.1.6h.2ZM298.2,47.9h9.9c1.8,0,3.5-.2,4.9-.6,1.4-.4,2.7-1,3.7-1.9,1-.8,1.7-1.7,2.2-2.9.5-1.1.8-2.4.8-3.8s-.3-2.8-.9-3.9c-.6-1.1-1.4-2-2.4-2.8-1.1-.7-2.3-1.2-3.8-1.6s-3.1-.6-4.9-.6h-9.5v18h0ZM307.3,23.5h-9.6V6.8h8.8c1.6,0,3.1,0,4.6.4,1.4.3,2.7.7,3.8,1.4,1,.7,1.9,1.6,2.5,2.7.6,1.1.9,2.4.9,3.9s-.2,2.3-.7,3.3-1.2,1.9-2.1,2.6c-1,.8-2.1,1.4-3.5,1.8-1.3.4-2.9.6-4.7.6h0ZM298.2,23h9.1c1.7,0,3.3-.2,4.6-.6,1.3-.4,2.4-1,3.3-1.7.8-.7,1.5-1.5,2-2.4.4-.9.7-2,.7-3.1s-.3-2.7-.9-3.7-1.4-1.8-2.3-2.5c-1-.6-2.3-1-3.6-1.3-1.4-.3-2.9-.4-4.5-.4h-8.3v15.7h-.1Z"/>
    </g>
    <g>
      <path d="M350.8,21.1c-1.2.6-2.2,1.5-2.9,2.7-.8,1.3-1.3,2.8-1.7,4.6-.4,1.8-.5,3.8-.5,6.1s.2,4.9.5,6.8,1,3.5,1.8,4.7c.8,1.3,1.8,2.2,3,2.8s2.6.9,4.4.9,3-.3,4.2-.9c1.2-.6,2.2-1.5,3-2.8.8-1.2,1.4-2.7,1.7-4.5.4-1.8.6-3.9.6-6.3s-.2-4.6-.6-6.5-1-3.5-1.7-4.8c-.8-1.3-1.9-2.2-3.1-2.9-1.2-.6-2.7-1-4.3-1s-3.1.3-4.3,1h-.1ZM363.2,15.8c2.4,1,4.4,2.4,6.1,4.3,1.6,1.8,2.9,4,3.7,6.5.9,2.5,1.3,5.3,1.3,8.4s-.4,6-1.3,8.5-2.1,4.7-3.7,6.4c-1.7,1.8-3.7,3.2-6,4.2-2.4.9-5.1,1.4-8.1,1.4s-5.4-.5-7.7-1.4c-2.3-.9-4.3-2.3-6-4s-3-3.9-4-6.4c-.9-2.6-1.4-5.5-1.4-8.7s.5-6.1,1.4-8.6,2.3-4.7,4-6.5c1.7-1.7,3.6-3.1,5.9-4,2.3-1,4.8-1.4,7.6-1.4s5.8.5,8.2,1.5v-.2Z"/>
      <path d="M355.2,55.7c-2.8,0-5.4-.5-7.8-1.4s-4.4-2.3-6.1-4.1c-1.7-1.7-3.1-3.9-4-6.5s-1.4-5.5-1.4-8.8.5-6.1,1.4-8.7,2.3-4.8,4-6.6c1.7-1.8,3.7-3.1,6-4.1s4.9-1.5,7.7-1.5,5.9.5,8.3,1.5,4.5,2.5,6.1,4.3c1.6,1.9,2.9,4.1,3.8,6.6.9,2.6,1.3,5.4,1.3,8.5s-.4,6-1.3,8.6-2.1,4.7-3.7,6.5c-1.7,1.8-3.7,3.3-6.1,4.2s-5.1,1.4-8.2,1.4h0ZM355,14.5c-2.7,0-5.2.5-7.5,1.4s-4.2,2.3-5.9,4c-1.7,1.8-3,4-3.9,6.5s-1.4,5.4-1.4,8.5.5,6.1,1.4,8.6,2.2,4.7,3.9,6.4c1.6,1.8,3.6,3.1,5.9,4s4.9,1.4,7.6,1.4,5.7-.5,8-1.4,4.3-2.3,5.9-4.1c1.6-1.7,2.8-3.8,3.6-6.3.8-2.5,1.3-5.3,1.3-8.4s-.4-5.8-1.3-8.3-2.1-4.7-3.7-6.5-3.6-3.2-6-4.2c-2.3-1-5.1-1.5-8.1-1.5h.2ZM355.3,49.9c-1.7,0-3.2-.3-4.5-.9-1.2-.6-2.3-1.6-3.1-2.9-.8-1.2-1.5-2.8-1.8-4.8-.4-1.9-.5-4.2-.5-6.9s.2-4.3.5-6.1c.4-1.8,1-3.4,1.7-4.7.7-1.2,1.7-2.2,3-2.8,1.2-.6,2.7-1,4.4-1s3.2.3,4.4,1c1.2.6,2.3,1.6,3.2,2.9.8,1.3,1.4,2.9,1.8,4.8.4,1.9.6,4.1.6,6.6s-.2,4.5-.6,6.4c-.4,1.8-1,3.4-1.8,4.6-.8,1.3-1.8,2.3-3,2.9-1.2.6-2.7.9-4.3.9h0ZM355.1,20.4c-1.6,0-3,.3-4.2.9-1.1.6-2.1,1.5-2.8,2.6-.8,1.2-1.3,2.7-1.7,4.5-.4,1.8-.5,3.8-.5,6s.2,4.9.5,6.8c.4,1.9.9,3.4,1.8,4.6.8,1.2,1.7,2.2,2.9,2.7,1.2.6,2.6.9,4.2.9s2.9-.3,4.1-.9c1.1-.6,2.1-1.5,2.9-2.7.8-1.1,1.3-2.6,1.7-4.4.4-1.8.6-3.9.6-6.2s-.2-4.6-.6-6.5-1-3.4-1.7-4.7c-.8-1.2-1.8-2.2-3-2.8-1.2-.6-2.6-.9-4.2-.9h0Z"/>
    </g>
    <path d="M397.1,15.2c1.3,0,3-.1,5.1-.3l-1.6,6.3c-1.7,0-3.1-.2-4.3-.2h-4.3v22.4c0,1.5,0,2.6.2,3.3.2.8.6,1.5,1.3,2.1.4.4.9.6,1.6.7.7,0,1.4.2,2.2,0,.8,0,1.6,0,2.4-.3.8,0,1.5-.3,2.1-.5l.9,5.1c-1.1.5-2.5.9-4,1.2s-2.9.4-4,.4c-1.9,0-3.5-.2-4.9-.6-1.4-.4-2.5-1-3.4-1.9-.9-.8-1.6-1.8-2.1-3.1-.5-1.2-.7-2.7-.7-4.4v-24.6h-4.9v-5.7h4.9v-2.9c0-.9,0-1.8-.1-2.6,0-.8-.1-1.7-.2-2.5,0-.8-.1-1.5-.2-2.3l9.5-1.3c-.3,2-.5,3.9-.6,5.7,0,1.8-.1,3.7-.1,5.8h5.2Z"/>
  </g>
  <g>
    <path class="st0" d="M16.4,49.6l-.5-.5,15.5-23.9L46.6,2.2v11.9l-10.1,15-10.4,14.6-9.7,5.8h0ZM45.9,4.7l-14.4,21.5-14.2,21.9,8.3-4.9,10.8-15.2,9.5-14V4.7h0Z"/>
    <path class="st0" d="M77.6,50H15.5l-.2-.7,10.7-5.6h40.5l11.2,5.6-.2.7h0ZM17,49.2h59l-9.7-4.8H26.2l-9.1,4.8h-.1Z"/>
    <path class="st0" d="M77.4,49.4l-10.9-5.7-10.6-15.5-9.4-14.3V2.2l15.6,23.6,15.8,23.1-.5.5h0ZM67.1,43.3l9.4,4.8-15.6-22.8-13.6-20.7v9.1l9.8,14.9,10,14.6h0Z"/>
  </g>
  <polygon class="st2" points="66.8 43.5 56.7 28.9 56.2 28 46.7 13.7 46.7 3.2 61.2 25 61.7 25.8 77.7 49.2 66.8 43.5"/>
  <polygon class="st4" points="66.6 44.1 48.1 44.1 47 44.1 26.1 44.1 15.5 49.8 47 49.8 48.1 49.8 77.8 49.8 66.6 44.1"/>
</svg>