<?xml version="1.0" encoding="utf-8"?>
<!-- Generator: Adobe Illustrator 16.0.0, SVG Export Plug-In . SVG Version: 6.00 Build 0)  -->
<!DOCTYPE svg PUBLIC "-//W3C//DTD SVG 1.1//EN" "http://www.w3.org/Graphics/SVG/1.1/DTD/svg11.dtd">
<svg version="1.1" id="Layer_1" xmlns="http://www.w3.org/2000/svg" xmlns:xlink="http://www.w3.org/1999/xlink" x="0px" y="0px"
	 width="264.383px" height="143.835px" viewBox="0 0 264.383 143.835" enable-background="new 0 0 264.383 143.835"
	 xml:space="preserve">
<g id="_x30_1" display="none">
	<path display="inline" fill="none" d="M56.01,138.314c0.4,0.051,0.806,0.084,1.22,0.084h193.368c5.278,0,9.571-4.188,9.571-9.339
		V14.438c0-5.148-4.293-9.338-9.571-9.338H57.23c-5.278,0-9.572,4.189-9.572,9.338v61.103h8.353v62.773H56.01z"/>
	<g display="inline">
		<path fill="#5193A5" d="M250.695,4.1H57.325c-5.829,0-10.571,4.638-10.571,10.338v61.103h1V14.438
			c0-5.148,4.294-9.338,9.571-9.338h193.368c5.277,0,9.57,4.189,9.57,9.338V129.06c0,5.148-4.293,9.339-9.57,9.339H57.325
			c-0.414,0-0.818-0.032-1.219-0.084v1.011c0.399,0.045,0.806,0.073,1.219,0.073h193.368c5.83,0,10.57-4.639,10.57-10.339V14.438
			C261.266,8.737,256.523,4.1,250.695,4.1z"/>
		<g>
			<path fill="#5193A5" d="M3.389,107.859c0-13.009,5.204-20.593,14.005-20.593c8.803,0,14.007,7.584,14.007,20.593
				c0,13.12-5.148,20.596-14.007,20.596C8.483,128.455,3.389,120.979,3.389,107.859z M26.53,107.859
				c0-10.352-3.377-16.273-9.135-16.273c-5.757,0-9.188,5.922-9.188,16.273c0,10.354,3.377,16.165,9.188,16.165
				C23.153,124.024,26.53,118.21,26.53,107.859z"/>
			<path fill="#5193A5" d="M52.218,127.899H47.18V93.023h-0.221L37.216,99.5v-5.037l9.964-6.646h5.038V127.899z"/>
		</g>
		<rect x="52.355" y="47.223" fill="#AAB5C5" width="203.311" height="0.709"/>
	</g>
	<g display="inline">
		<path fill="#070001" d="M74.403,32.273l-0.984,1.292c-2.01-1.056-3.691-3.209-4.491-5.741c-0.819,2.696-2.543,4.993-4.594,6.091
			l-1.025-1.292c2.666-1.313,4.778-4.819,4.8-8.143v-3.321h1.578v3.321C69.685,27.701,71.819,31.001,74.403,32.273z M77.683,26.982
			h3.057v1.396h-3.057v9.434h-1.6V19.58h1.6V26.982z"/>
		<path fill="#070001" d="M91.404,23.948h3.813V19.58h1.62v9.781h-1.62V25.28h-3.794c-0.328,2.153-2.205,3.59-4.676,3.59
			c-2.77,0-4.737-1.724-4.737-4.226c0-2.48,1.97-4.225,4.737-4.204C89.199,20.419,91.054,21.845,91.404,23.948z M83.548,24.644
			c0,1.661,1.333,2.871,3.199,2.871c1.846,0,3.158-1.21,3.158-2.871c0-1.682-1.313-2.851-3.158-2.83
			C84.881,21.793,83.548,22.962,83.548,24.644z M86.707,32.601h8.511v-2.316h1.62v7.279H85.086v-7.279h1.62L86.707,32.601
			L86.707,32.601z M95.217,36.251v-2.358h-8.511v2.358H95.217z"/>
		<path fill="#070001" d="M121.754,29.402h-16.591v-1.313h6.87v-3.527h1.579v3.527h8.142V29.402L121.754,29.402z M119.786,34.448
			c0,2.092-2.481,3.321-6.398,3.321c-3.896,0-6.378-1.229-6.378-3.321c0-2.112,2.481-3.344,6.378-3.344
			C117.304,31.104,119.786,32.334,119.786,34.448z M119.642,22.06c0,1.478,0,2.953-0.513,4.84l-1.579-0.185
			c0.492-1.887,0.492-3.22,0.492-4.655v-0.226h-10.91v-1.313h12.51V22.06z M108.61,34.448c-0.021,1.271,1.865,2.051,4.777,2.051
			c2.912,0,4.778-0.779,4.799-2.051c-0.021-1.292-1.887-2.093-4.799-2.112C110.475,32.355,108.588,33.156,108.61,34.448z"/>
		<path fill="#070001" d="M139.904,35.226h-16.61v-1.333h6.521v-6.521h1.578v6.521h8.511V35.226L139.904,35.226z M137.915,23.25
			c-0.021,2.234-0.021,4.736-0.677,8.408l-1.643-0.186c0.697-3.486,0.697-6.05,0.697-8.224v-0.492h-11.238v-1.332h12.858
			L137.915,23.25L137.915,23.25z"/>
		<path fill="#070001" d="M161.499,28.192h-8.552v-7.424h8.552V28.192z M168.123,36.498l-0.555,1.251
			c-2.748-0.369-5.25-1.661-6.315-3.363c-1.106,1.733-3.671,2.994-6.419,3.363l-0.574-1.251c3.139-0.35,6.152-2.112,6.152-3.938
			h-5.395v-1.251h5.414v-1.784h1.6v1.784h5.455v1.251h-5.414C162.074,34.344,164.986,36.108,168.123,36.498z M154.527,26.92h5.394
			v-4.84h-5.394V26.92z M167.016,30.058h-1.58V19.58h1.58V30.058z"/>
		<path fill="#070001" d="M186.457,28.706l-0.841,1.292c-2.112-0.811-3.753-2.451-4.554-4.554c-0.811,2.235-2.472,4.03-4.595,4.882
			l-0.882-1.251c2.77-1.066,4.635-3.754,4.635-6.624v-1.826h1.643v1.825C181.842,25.218,183.75,27.72,186.457,28.706z
			 M191.031,37.42h-12.348v-5.68h1.602v4.326h10.746V37.42L191.031,37.42z M190.456,32.97h-1.601V19.599h1.601V32.97z"/>
		<path fill="#070001" d="M204.421,28.602l-0.778,1.251c-2.111-0.625-3.805-2.01-4.613-3.813c-0.801,2-2.461,3.567-4.637,4.286
			l-0.777-1.23c2.687-0.902,4.572-3.117,4.572-5.599v-0.391h-4.121v-1.292h4.121v-2.316h1.619v2.316h4.082v1.292h-4.123v0.391
			C199.766,25.772,201.736,27.802,204.421,28.602z M208.729,34.448c0,2.111-2.316,3.321-6.11,3.321s-6.111-1.21-6.111-3.321
			c0-2.134,2.317-3.322,6.111-3.322S208.729,32.314,208.729,34.448z M198.105,34.448c-0.021,1.271,1.724,2.051,4.513,2.051
			c2.81,0,4.512-0.779,4.512-2.051c0-1.292-1.702-2.052-4.512-2.071C199.828,32.396,198.084,33.156,198.105,34.448z M208.667,30.632
			h-1.62v-4.491h-3.73v-1.333h3.73V19.58h1.62V30.632z"/>
		<path fill="#070001" d="M222.531,28.11l-0.842,1.251c-2.062-0.749-3.649-2.275-4.431-4.162c-0.79,2.111-2.471,3.804-4.635,4.594
			l-0.841-1.271c2.688-0.964,4.635-3.384,4.635-5.968V22.02h-4.122v-1.333h9.823v1.333h-4.081v0.533
			C218.039,24.89,219.865,27.187,222.531,28.11z M216.686,32.642h8.512v-2.275h1.6v7.197h-11.729v-7.197h1.619L216.686,32.642
			L216.686,32.642z M225.197,36.251v-2.317h-8.512v2.317H225.197z M226.795,29.484h-1.6v-4.122h-3.691v-1.354h3.691v-4.43h1.6
			V29.484z"/>
		<path fill="#070001" d="M246.462,31.207h-7.547v6.604h-1.579v-6.604h-7.484v-1.354h16.61V31.207z M245.643,26.532l-0.656,1.313
			c-2.829-0.472-5.629-2.041-6.809-4.286c-1.17,2.256-3.98,3.814-6.81,4.286l-0.656-1.313c3.281-0.451,6.624-2.646,6.624-5.25
			v-1.047h1.661v1.047C238.998,23.844,242.361,26.081,245.643,26.532z"/>
	</g>
	<g display="inline">
		<path fill="#070001" d="M79.556,79.401h-6.45v1.67c2.952,0.123,4.692,1.091,4.711,2.742c-0.019,1.74-2.021,2.726-5.379,2.726
			c-3.394,0-5.396-0.983-5.396-2.726c0-1.651,1.731-2.619,4.711-2.742v-1.67h-6.434v-1.144h14.237V79.401z M78.291,72.809h-4.957
			c0.088,1.758,2.672,3.12,5.432,3.41l-0.51,1.09c-2.558-0.308-4.957-1.45-5.818-3.199c-0.853,1.749-3.242,2.894-5.817,3.199
			l-0.492-1.09c2.707-0.29,5.309-1.652,5.414-3.41H66.62v-1.125h11.672L78.291,72.809L78.291,72.809z M68.448,83.813
			c-0.019,1.037,1.477,1.651,3.989,1.651c2.479,0,3.99-0.614,3.99-1.651c0-1.056-1.512-1.67-3.99-1.688
			C69.923,82.143,68.429,82.757,68.448,83.813z"/>
		<path fill="#070001" d="M95.183,84.535H80.875v-1.144h6.398v-3.832h1.354v3.832h6.557L95.183,84.535L95.183,84.535z
			 M94.481,78.591l-0.615,1.144c-2.382-0.481-4.896-2.101-5.906-4.358c-1.028,2.25-3.524,3.877-5.906,4.358l-0.614-1.144
			c2.725-0.475,5.782-2.76,5.782-5.379v-1.194h1.441v1.194C88.662,75.833,91.755,78.119,94.481,78.591z"/>
		<path fill="#070001" d="M106.714,82.354h-1.317v-5.713h-2.162v3.217h-6.082v-7.646h1.301v2.637h3.479v-2.637h1.302V75.5h2.162
			v-4.235h1.317V82.354z M101.933,78.714v-2.776h-3.479v2.776H101.933z M110.177,86.24H99.455v-5.011h1.371v3.851h9.352
			L110.177,86.24L110.177,86.24z M109.703,82.83h-1.318V70.946h1.318V82.83z"/>
		<path fill="#070001" d="M121.462,82.196l-0.791,1.072c-1.774-0.815-3.252-2.521-3.938-4.588c-0.687,2.18-2.146,4.008-3.92,4.868
			l-0.791-1.071c2.284-1.071,4.008-3.744,4.008-6.435v-1.248h-3.586v-1.125h3.586v-2.425h1.371v2.425h3.532v1.125h-3.551v1.248
			C117.384,78.626,119.142,81.16,121.462,82.196z M124.944,86.608h-1.39V78.38h-3.428v-1.143h3.428v-6.294h1.39V86.608z"/>
		<path fill="#070001" d="M128.494,83.637l-0.756-1.125c4.228-2.005,6.381-5.001,6.696-8.736h-5.977v-1.125h7.383
			C135.824,77.151,133.732,81.125,128.494,83.637z M140.464,86.574h-1.389V70.946h1.389V86.574z"/>
		<path fill="#070001" d="M151.398,74.69h3.271v-3.744h1.39v8.386h-1.39v-3.498h-3.252c-0.28,1.847-1.89,3.076-4.008,3.076
			c-2.373,0-4.062-1.478-4.062-3.621c0-2.127,1.688-3.621,4.062-3.604C149.508,71.667,151.1,72.888,151.398,74.69z M144.666,75.289
			c0,1.424,1.143,2.461,2.742,2.461c1.582,0,2.707-1.037,2.707-2.461c0-1.44-1.125-2.442-2.707-2.427
			C145.809,72.844,144.666,73.846,144.666,75.289z M147.373,82.108h7.295v-1.985h1.389v6.239h-10.07v-6.239h1.389L147.373,82.108
			L147.373,82.108z M154.667,85.237v-2.021h-7.295v2.021H154.667z"/>
		<path fill="#070001" d="M172.949,81.352h-6.521v5.222h-1.354v-5.222h-6.436v-1.125h14.311V81.352z M161.839,73.757h7.875v-2.161
			h1.39v6.731h-10.635v-6.731h1.37V73.757L161.839,73.757z M169.714,77.205v-2.319h-7.875v2.319H169.714z"/>
		<path fill="#070001" d="M192.971,79.367H178.75v-1.125h5.889v-3.022h1.354v3.022h6.979L192.971,79.367L192.971,79.367z
			 M191.283,83.69c0,1.793-2.127,2.849-5.484,2.849c-3.34,0-5.467-1.056-5.467-2.849c0-1.812,2.127-2.864,5.467-2.864
			C189.157,80.826,191.283,81.878,191.283,83.69z M191.16,73.074c0,1.266,0,2.53-0.439,4.147l-1.354-0.158
			c0.422-1.616,0.422-2.76,0.422-3.989V72.88h-9.354v-1.126h10.725V73.074L191.16,73.074z M181.703,83.69
			c-0.02,1.091,1.6,1.759,4.096,1.759s4.096-0.668,4.113-1.759c-0.02-1.106-1.617-1.793-4.113-1.812
			C183.303,81.897,181.686,82.583,181.703,83.69z"/>
		<path fill="#070001" d="M208.527,84.358H194.29v-1.144h5.59v-5.59h1.354v5.59h7.295L208.527,84.358L208.527,84.358z
			 M206.822,74.091c-0.018,1.916-0.018,4.062-0.579,7.207l-1.406-0.157c0.599-2.988,0.599-5.187,0.599-7.049v-0.423h-9.633v-1.144
			h11.02V74.091z"/>
		<path fill="#070001" d="M221.992,84.216l3.938-3.938h-10.143V78.89h10.143l-3.938-3.938l0.982-0.969l5.592,5.592l-5.592,5.59
			L221.992,84.216z"/>
		<path fill="#070001" d="M77.94,104.401h-4.834v4.043h6.521v1.16H65.319v-1.16h6.434v-4.043h-4.604v-7.172h10.635v1.125h-9.246
			v4.922h9.404L77.94,104.401L77.94,104.401z"/>
		<path fill="#070001" d="M89.435,100.305c0,2.127-1.723,3.586-4.096,3.586s-4.096-1.459-4.096-3.586
			c0-2.146,1.723-3.604,4.096-3.586C87.712,96.703,89.435,98.162,89.435,100.305z M82.597,100.305
			c-0.018,1.424,1.144,2.442,2.742,2.442c1.582,0,2.742-1.021,2.742-2.442c0-1.423-1.16-2.443-2.742-2.427
			C83.74,97.862,82.58,98.88,82.597,100.305z M85.024,107.02h7.383v-1.897h1.371v6.239H83.653v-6.239h1.371V107.02z M92.407,110.237
			v-2.108h-7.383v2.108H92.407z M93.778,104.332h-1.371v-8.386h1.371V104.332z"/>
		<path fill="#070001" d="M96.958,104.578c-0.018-0.615,0.51-1.125,1.125-1.125c0.615,0,1.125,0.51,1.125,1.125
			c0,0.633-0.51,1.144-1.125,1.144C97.468,105.721,96.942,105.208,96.958,104.578z"/>
		<path fill="#070001" d="M115.24,104.367h-14.222v-1.125h5.89v-3.022h1.354v3.022h6.979L115.24,104.367L115.24,104.367z
			 M113.552,108.69c0,1.793-2.127,2.849-5.483,2.849c-3.34,0-5.468-1.056-5.468-2.849c0-1.812,2.128-2.864,5.468-2.864
			C111.425,105.826,113.552,106.878,113.552,108.69z M113.429,98.074c0,1.266,0,2.53-0.438,4.147l-1.354-0.158
			c0.422-1.616,0.422-2.76,0.422-3.989V97.88h-9.352v-1.125h10.723L113.429,98.074L113.429,98.074z M103.972,108.69
			c-0.018,1.091,1.601,1.759,4.097,1.759s4.096-0.668,4.112-1.759c-0.018-1.106-1.616-1.793-4.112-1.812
			C105.573,106.897,103.955,107.583,103.972,108.69z"/>
		<path fill="#070001" d="M128.987,97.809c0,1.194,0,2.584-0.422,4.535h2.303v1.143h-14.31v-1.143h10.652
			c0.404-1.942,0.404-3.341,0.404-4.535h-9.246v-1.144h10.617L128.987,97.809L128.987,97.809z M119.792,106.966h7.822v-2.073h1.371
			v6.469h-10.564v-6.469h1.371V106.966L119.792,106.966z M127.615,110.237v-2.18h-7.822v2.18H127.615z"/>
		<path fill="#070001" d="M133.064,108.637l-0.756-1.125c4.229-2.005,6.381-5.001,6.697-8.736h-5.978v-1.125h7.384
			C140.395,102.151,138.303,106.125,133.064,108.637z M145.035,111.574h-1.391V95.946h1.391V111.574z"/>
		<path fill="#070001" d="M155.968,99.69h3.271v-3.744h1.39v8.386h-1.39v-3.498h-3.252c-0.28,1.847-1.891,3.076-4.008,3.076
			c-2.373,0-4.062-1.478-4.062-3.621c0-2.127,1.688-3.621,4.062-3.604C154.079,96.667,155.669,97.888,155.968,99.69z
			 M149.236,100.289c0,1.424,1.144,2.461,2.742,2.461c1.582,0,2.707-1.037,2.707-2.461c0-1.44-1.125-2.442-2.707-2.427
			C150.378,97.844,149.236,98.846,149.236,100.289z M151.943,107.108h7.295v-1.985h1.39v6.239h-10.071v-6.239h1.389L151.943,107.108
			L151.943,107.108z M159.238,110.237v-2.021h-7.295v2.021H159.238z"/>
		<path fill="#070001" d="M171.789,102.608c0,3.322-1.67,5.433-3.99,5.433c-2.338,0-3.99-2.108-3.99-5.433
			c0-3.321,1.652-5.433,3.99-5.448C170.119,97.175,171.789,99.287,171.789,102.608z M165.145,102.608c0,2.55,1.09,4.201,2.653,4.201
			s2.654-1.651,2.654-4.201c0-2.549-1.091-4.2-2.654-4.219C166.234,98.408,165.145,100.059,165.145,102.608z M176.113,111.608
			h-1.389V95.946h1.389V111.608z"/>
		<path fill="#070001" d="M192.777,103.768l-0.721,1.106c-1.812-0.693-3.218-2.102-3.902-3.901
			c-0.693,1.916-2.117,3.454-3.938,4.185l-0.756-1.072c2.373-0.914,3.973-3.217,3.973-5.678v-1.563h1.406v1.563
			C188.822,100.781,190.457,102.923,192.777,103.768z M196.697,111.24h-10.581v-4.869h1.37v3.709h9.211V111.24z M196.205,107.423
			h-1.371V95.962h1.371V107.423z"/>
		<path fill="#070001" d="M208.175,103.68l-0.668,1.071c-1.812-0.535-3.261-1.724-3.954-3.271c-0.687,1.714-2.109,3.06-3.974,3.675
			l-0.668-1.056c2.303-0.772,3.92-2.672,3.92-4.799v-0.335h-3.533V97.86h3.533v-1.985h1.39v1.985h3.497v1.106h-3.532v0.335
			C204.186,101.253,205.873,102.996,208.175,103.68z M211.867,108.69c0,1.812-1.986,2.849-5.238,2.849s-5.238-1.037-5.238-2.849
			c0-1.828,1.986-2.849,5.238-2.849S211.867,106.862,211.867,108.69z M202.762,108.69c-0.019,1.091,1.477,1.759,3.866,1.759
			c2.408,0,3.867-0.668,3.867-1.759c0-1.106-1.459-1.758-3.867-1.774C204.238,106.932,202.744,107.583,202.762,108.69z
			 M211.814,105.419h-1.39v-3.851h-3.198v-1.144h3.198v-4.481h1.39V105.419z"/>
		<path fill="#070001" d="M228.214,103.257l-0.721,1.072c-1.769-0.643-3.13-1.951-3.798-3.567c-0.678,1.812-2.117,3.261-3.973,3.938
			l-0.722-1.092c2.304-0.824,3.974-2.898,3.974-5.113v-0.457h-3.533v-1.145h8.42v1.145h-3.497v0.457
			C224.365,100.5,225.93,102.466,228.214,103.257z M223.205,107.143h7.295v-1.951h1.371v6.17h-10.055v-6.17h1.389V107.143
			L223.205,107.143z M230.5,110.237v-1.985h-7.295v1.985H230.5z M231.871,104.436H230.5v-3.533h-3.164v-1.159h3.164v-3.797h1.371
			V104.436z"/>
		<path fill="#070001" d="M248.729,105.914h-6.47v5.66h-1.354v-5.66h-6.416v-1.16h14.238L248.729,105.914L248.729,105.914z
			 M248.025,101.906l-0.563,1.125c-2.426-0.404-4.824-1.749-5.836-3.675c-1.002,1.935-3.41,3.271-5.836,3.675l-0.563-1.125
			c2.813-0.388,5.678-2.269,5.678-4.5V96.51h1.424v0.896C242.33,99.602,245.212,101.518,248.025,101.906z"/>
	</g>
</g>
<g>
	<path fill="#5098AC" d="M250.435,4.335H57.064c-5.829,0-10.571,4.638-10.571,10.338v61.102h1V14.673
		c0-5.148,4.294-9.338,9.571-9.338h193.369c5.278,0,9.571,4.188,9.571,9.338v114.624c0,5.146-4.294,9.338-9.571,9.338H57.064
		c-0.414,0-0.818-0.033-1.219-0.084v1.01c0.399,0.045,0.806,0.074,1.219,0.074h193.369c5.829,0,10.571-4.641,10.571-10.338V14.673
		C261.006,8.973,256.264,4.335,250.435,4.335z"/>
	<g>
		<path fill="#5098AC" d="M3.129,108.095c0-13.01,5.204-20.594,14.005-20.594c8.803,0,14.007,7.584,14.007,20.594
			c0,13.119-5.148,20.594-14.007,20.594C8.223,128.687,3.129,121.214,3.129,108.095z M26.27,108.095
			c0-10.354-3.377-16.275-9.134-16.275c-5.758,0-9.189,5.924-9.189,16.275s3.377,16.164,9.189,16.164
			C22.893,124.259,26.27,118.445,26.27,108.095z"/>
		<path fill="#5098AC" d="M37.842,118.06h4.816c0.387,3.598,3.875,6.254,8.193,6.254c5.204,0,8.968-3.818,8.968-8.855
			c0-5.205-3.931-9.023-9.3-9.08c-3.377-0.055-5.979,0.996-7.475,3.6h-4.815l2.823-21.924h21.7v4.43H45.204l-1.495,11.736h0.388
			c1.771-1.385,4.483-2.326,7.308-2.326c7.639,0,13.286,5.646,13.286,13.453c0,7.75-5.868,13.342-13.84,13.342
			C43.6,128.687,38.119,124.203,37.842,118.06z"/>
	</g>
	<rect x="52.095" y="47.458" fill="#ABB7C7" width="203.311" height="0.709"/>
</g>
<g>
	<path fill="#040000" d="M97.948,22.204c0,1.731,0,3.608-0.513,6.233h2.707v1.332h-7.526v7.916h-1.62V29.77h-7.465v-1.332h12.265
		c0.554-2.625,0.554-4.543,0.554-6.233v-0.269H85.623v-1.332h12.325V22.204z"/>
	<path fill="#040000" d="M118.293,29.915h-7.526v2.092h5.476v5.578h-1.62v-4.267h-11.095v-1.313h5.66v-2.092h-7.506v-1.313h16.611
		V29.915z M110.767,21.22h5.845v1.291h-5.742c0.113,2.072,2.994,3.497,6.439,3.836l-0.533,1.23
		c-3.004-0.328-5.691-1.427-6.788-3.281c-1.106,1.854-3.794,2.953-6.788,3.281l-0.533-1.23c3.426-0.339,6.307-1.764,6.439-3.836
		h-5.701V21.22h5.783v-1.887h1.579V21.22L110.767,21.22z"/>
	<path fill="#040000" d="M135.19,23.886c0,1.876-1.477,3.24-3.671,3.506v1.785c1.702-0.072,3.436-0.227,5.024-0.473l0.122,1.211
		c-3.854,0.696-8.224,0.737-11.382,0.737l-0.205-1.334c1.415,0.012,3.076,0,4.819-0.061v-1.846
		c-2.256-0.246-3.773-1.621-3.753-3.527c-0.021-2.174,1.846-3.609,4.512-3.609S135.19,21.712,135.19,23.886z M127.664,23.886
		c-0.021,1.373,1.23,2.316,2.994,2.338c1.784-0.021,2.994-0.965,3.016-2.338c-0.021-1.416-1.23-2.359-3.016-2.359
		C128.896,21.525,127.645,22.47,127.664,23.886z M139.989,37.234h-12.243v-5.063h1.62v3.711h10.623V37.234L139.989,37.234z
		 M139.334,25.607h2.728v1.373h-2.728v6.398h-1.62V19.434h1.62V25.607z"/>
	<path fill="#040000" d="M159.943,35.39H143.25v-1.354h4.696V30.57h-2.604v-5.618h10.91V22.1h-10.951v-1.332h12.529v5.517h-10.89
		v2.952h11.32v1.334h-2.852v3.466h4.532L159.943,35.39L159.943,35.39z M153.832,34.036V30.57h-4.307v3.466H153.832z"/>
	<path fill="#040000" d="M176.187,28.027h-8.552v-7.424h8.552V28.027z M182.811,36.333l-0.554,1.252
		c-2.748-0.369-5.25-1.662-6.316-3.363c-1.106,1.732-3.671,2.994-6.419,3.363l-0.574-1.252c3.139-0.349,6.152-2.111,6.152-3.938
		h-5.395v-1.25h5.414v-1.785h1.601v1.785h5.455v1.25h-5.414C176.761,34.181,179.673,35.943,182.811,36.333z M169.214,26.757h5.394
		v-4.84h-5.394V26.757z M181.702,29.894h-1.579V19.415h1.579V29.894z"/>
	<path fill="#040000" d="M200.323,22.142h-1.866v5.824c0.853-0.051,1.673-0.123,2.461-0.225L201,28.971
		c-3.548,0.553-7.711,0.594-10.664,0.594l-0.204-1.354l2.357-0.021V22.14h-1.846v-1.332h9.68V22.142L200.323,22.142z
		 M205.267,34.322c0,2.093-2.297,3.281-6.111,3.281c-3.813,0-6.11-1.188-6.11-3.281c0-2.069,2.297-3.26,6.11-3.26
		C202.97,31.063,205.267,32.253,205.267,34.322z M196.898,28.068v-5.928h-2.851v6.029C194.98,28.15,195.945,28.12,196.898,28.068z
		 M194.644,34.322c-0.021,1.271,1.702,2.011,4.512,2.011c2.811,0,4.513-0.738,4.513-2.011c0-1.25-1.702-2.01-4.513-2.01
		C196.346,32.313,194.622,33.072,194.644,34.322z M205.204,30.673h-1.62V27.29h-3.075v-1.334h3.075v-1.929h-3.075v-1.332h3.075
		v-3.28h1.62V30.673z"/>
	<path fill="#040000" d="M209.266,34.181l-0.902-1.271c4.717-2.35,7.28-5.855,7.649-10.173h-6.81v-1.354h8.43
		C217.633,26.552,215.213,31.247,209.266,34.181z M222.35,26.839h2.953v1.354h-2.953v9.453h-1.6V19.416h1.6V26.839z"/>
</g>
<g>
	<rect x="69.782" y="55.984" fill="none" width="179.404" height="72.824"/>
	<path fill="#040000" d="M82.772,61.302c0,1.486,0,3.094-0.439,5.344h2.32v1.144h-6.451v6.785h-1.389v-6.785h-6.398v-1.144h10.513
		c0.475-2.25,0.475-3.893,0.475-5.344v-0.229h-9.193V59.93h10.564L82.772,61.302L82.772,61.302z"/>
	<path fill="#040000" d="M100.211,67.911H93.76v1.793h4.692v4.78h-1.389v-3.655h-9.51v-1.125h4.852v-1.793h-6.434v-1.125h14.237
		v1.125H100.211z M93.76,60.458h5.01v1.106h-4.922c0.097,1.775,2.565,2.998,5.52,3.287l-0.457,1.055
		c-2.574-0.28-4.878-1.221-5.817-2.813c-0.949,1.592-3.252,2.531-5.818,2.813l-0.457-1.055c2.937-0.289,5.405-1.512,5.521-3.287
		H87.45v-1.106h4.957v-1.617h1.354v1.617H93.76z"/>
	<path fill="#040000" d="M114.694,62.743c0,1.608-1.266,2.776-3.146,3.006v1.528c1.459-0.061,2.943-0.192,4.307-0.403l0.105,1.037
		c-3.306,0.598-7.05,0.633-9.757,0.633l-0.176-1.144c1.213,0.011,2.637,0,4.131-0.053v-1.582c-1.934-0.211-3.233-1.389-3.217-3.022
		c-0.018-1.863,1.582-3.095,3.867-3.095S114.694,60.88,114.694,62.743z M108.243,62.743c-0.018,1.178,1.056,1.985,2.566,2.004
		c1.529-0.019,2.566-0.826,2.584-2.004c-0.018-1.214-1.055-2.021-2.584-2.021C109.299,60.722,108.227,61.529,108.243,62.743z
		 M118.809,74.187h-10.494v-4.342h1.389v3.182h9.105V74.187L118.809,74.187z M118.245,64.22h2.339v1.178h-2.339v5.484h-1.389V58.929
		h1.389V64.22z"/>
	<path fill="#040000" d="M135.911,72.603h-14.309v-1.16h4.025v-2.971h-2.232v-4.815h9.352v-2.443h-9.387V60.07h10.74V64.8h-9.334
		v2.531h9.703v1.143h-2.443v2.971h3.885V72.603z M130.674,71.443v-2.971h-3.691v2.971H130.674z"/>
	<path fill="#040000" d="M155.985,70.179h-6.521v4.395h-1.354v-4.395h-6.434v-1.143h14.309V70.179z M155.09,61.847h-12.675v-1.143
		h5.695v-1.882h1.354v1.882h5.625V61.847z M153.895,65.361c0,1.652-1.916,2.584-5.098,2.603c-3.199-0.019-5.115-0.949-5.099-2.603
		c-0.018-1.688,1.898-2.618,5.099-2.618C151.979,62.743,153.895,63.675,153.895,65.361z M145.122,65.361
		c-0.018,0.968,1.337,1.529,3.675,1.529c2.303,0,3.655-0.563,3.674-1.529c-0.019-0.983-1.371-1.563-3.674-1.563
		C146.459,63.798,145.104,64.378,145.122,65.361z"/>
	<path fill="#040000" d="M167.676,70.021c1.503-0.061,3.041-0.192,4.481-0.403l0.105,1.02c-3.568,0.65-7.418,0.668-10.23,0.668
		l-0.192-1.143c1.31-0.009,2.855-0.019,4.481-0.07v-2.937h1.354V70.021z M171.35,62.109h-3.674c0.035,2.021,1.714,3.666,4.024,4.324
		l-0.649,1.09c-1.881-0.563-3.35-1.766-4.043-3.356c-0.687,1.68-2.146,2.928-4.025,3.498l-0.668-1.056
		c2.313-0.676,3.938-2.391,3.973-4.5H162.7v-1.143h3.621v-1.934h1.354v1.934h3.674V62.109L171.35,62.109z M174.565,74.572h-1.371
		V58.911h1.371V74.572z"/>
	<path fill="#040000" d="M185.096,66.697h6.451v1.144h-14.238v-1.144h6.434v-2.231h1.354L185.096,66.697L185.096,66.697z
		 M190.28,60.773h-4.957c0.088,1.74,2.707,3.086,5.433,3.375l-0.511,1.09c-2.558-0.307-4.956-1.424-5.817-3.163
		c-0.854,1.739-3.243,2.856-5.818,3.163l-0.51-1.09c2.725-0.289,5.326-1.617,5.432-3.375h-4.922v-1.125h11.672L190.28,60.773
		L190.28,60.773z M189.807,71.813c-0.019,1.74-2.021,2.689-5.379,2.689c-3.394,0-5.396-0.949-5.396-2.689
		c0-1.74,2.004-2.688,5.396-2.688C187.784,69.124,189.788,70.072,189.807,71.813z M180.438,71.813
		c-0.018,1.021,1.459,1.617,3.99,1.617c2.496,0,3.99-0.598,3.99-1.617c0-1.019-1.494-1.6-3.99-1.6
		C181.896,70.214,180.42,70.794,180.438,71.813z"/>
	<path fill="#040000" d="M206.663,66.47l-0.721,1.09c-1.767-0.633-3.129-1.951-3.797-3.567c-0.677,1.803-2.118,3.243-3.973,3.92
		l-0.722-1.091c2.304-0.825,3.974-2.899,3.974-5.133v-0.614h-3.533v-1.144h8.42v1.144h-3.498v0.614
		C202.813,63.71,204.379,65.661,206.663,66.47z M210.338,74.328h-10.214v-5.485h10.214V74.328z M201.495,73.203h7.488V69.95h-7.488
		V73.203z M210.338,68.068h-1.39v-4.077h-3.164v-1.16h3.164v-3.92h1.39V68.068z"/>
	<path fill="#040000" d="M213.694,67.945l-0.58-1.09c3.735-1.055,6.117-3.129,6.416-5.783h-5.606V59.93h7.084
		C220.989,63.851,218.194,66.663,213.694,67.945z M225.895,74.328h-10.143v-5.819h10.143V74.328z M217.088,73.203h7.436v-3.586
		h-7.436V73.203z M225.895,67.841h-1.389v-3.728h-3.463v-1.159h3.463v-4.025h1.389V67.841z"/>
	<path fill="#040000" d="M78.432,84.843h1.336c-1.195,1.74-2.304,5.291-2.304,8.42s1.107,6.697,2.304,8.438h-1.336
		c-1.617-2.355-2.515-5.115-2.531-8.438C75.917,89.939,76.813,87.181,78.432,84.843z"/>
	<path fill="#040000" d="M95.307,93.878h-6.469v5.66h-1.354v-5.66h-6.416v-1.16h14.238L95.307,93.878L95.307,93.878z M94.604,89.871
		l-0.563,1.125c-2.426-0.404-4.824-1.748-5.836-3.676c-1.002,1.936-3.41,3.271-5.836,3.676l-0.563-1.125
		c2.813-0.389,5.678-2.27,5.678-4.5v-0.896h1.424v0.896C88.907,87.566,91.79,89.482,94.604,89.871z"/>
	<path fill="#040000" d="M110.915,93.103h-6.362v3.199h-1.371v-3.199h-6.574V91.96h14.309L110.915,93.103L110.915,93.103z
		 M110.02,89.728l-0.545,1.09c-2.522-0.357-4.878-1.625-5.73-3.463c-0.844,1.838-3.189,3.105-5.729,3.463l-0.51-1.09
		c2.76-0.387,5.344-1.951,5.344-3.867v-0.033h-4.922v-1.125h11.672v1.125h-4.957v0.033C104.622,87.777,107.26,89.343,110.02,89.728z
		 M109.315,99.205H98.435v-4.467h1.389v3.307h9.492V99.205z"/>
	<path fill="#040000" d="M130.938,92.929h-14.238v-1.125h14.238V92.929z M124.485,85.494h5.01v1.105h-4.922
		c0.098,1.775,2.566,2.998,5.521,3.252l-0.457,1.09c-2.575-0.279-4.878-1.229-5.818-2.813c-0.949,1.582-3.252,2.531-5.818,2.813
		l-0.456-1.09c2.936-0.254,5.404-1.477,5.52-3.252h-4.887v-1.105h4.957v-1.617h1.354v1.617H124.485z M129.18,99.539h-1.39v-3.797
		h-9.51v-1.125h10.898L129.18,99.539L129.18,99.539z"/>
	<path fill="#040000" d="M141.536,91.541l-0.721,1.105c-1.758-0.633-3.12-1.939-3.779-3.566c-0.686,1.838-2.136,3.305-3.989,4.008
		l-0.722-1.107c2.32-0.844,3.974-2.953,3.974-5.186v-0.58h-3.533v-1.16h8.42v1.16h-3.498v0.563
		C137.688,88.814,139.252,90.75,141.536,91.541z M145.264,96.621c0,1.846-1.986,2.898-5.238,2.918
		c-3.252-0.02-5.238-1.072-5.238-2.918c0-1.848,1.986-2.9,5.238-2.9S145.264,94.773,145.264,96.621z M136.157,96.621
		c-0.018,1.125,1.478,1.811,3.867,1.811s3.867-0.686,3.867-1.811c0-1.145-1.478-1.828-3.867-1.828S136.141,95.478,136.157,96.621z
		 M145.211,93.228h-1.39v-4.096h-3.146v-1.145h3.146v-4.076h1.39V93.228z"/>
	<path fill="#040000" d="M149.184,101.701h-1.336c1.195-1.74,2.303-5.311,2.303-8.439s-1.106-6.68-2.303-8.42h1.336
		c1.617,2.338,2.514,5.098,2.531,8.42C151.696,96.585,150.801,99.345,149.184,101.701z"/>
	<path fill="#040000" d="M166.62,91.294h-7.33v-6.363h7.33V91.294z M172.299,98.414l-0.476,1.07c-2.354-0.314-4.5-1.424-5.414-2.883
		c-0.948,1.486-3.146,2.566-5.502,2.883l-0.492-1.07c2.689-0.301,5.273-1.813,5.273-3.375h-4.623v-1.072h4.641v-1.529h1.371v1.529
		h4.677v1.072h-4.642C167.112,96.566,169.608,98.08,172.299,98.414z M160.645,90.205h4.623v-4.148h-4.623V90.205z M171.35,92.894
		h-1.354v-8.982h1.354V92.894z"/>
	<path fill="#040000" d="M187.784,91.347l-0.772,1.072c-1.724-0.65-3.076-1.916-3.744-3.568c-0.677,1.873-2.109,3.332-3.99,4.043
		l-0.756-1.125c2.408-0.844,4.008-2.918,4.025-5.344v-1.617h1.371v1.564C183.899,88.603,185.481,90.572,187.784,91.347z
		 M191.547,96.585c0,1.861-1.986,2.918-5.238,2.918s-5.238-1.057-5.238-2.918c0-1.881,1.986-2.953,5.238-2.953
		S191.547,94.705,191.547,96.585z M182.44,96.585c-0.018,1.125,1.478,1.811,3.867,1.811s3.867-0.686,3.867-1.811
		c0-1.16-1.478-1.863-3.867-1.863S182.424,95.425,182.44,96.585z M191.493,93.175h-1.389v-4.764h-3.479v-1.145h3.479v-3.355h1.389
		V93.175z"/>
	<path fill="#040000" d="M208.334,92.332h-14.222v-1.125h5.89v-3.023h1.354v3.023h6.979V92.332L208.334,92.332z M206.646,96.654
		c0,1.793-2.127,2.85-5.484,2.85c-3.34,0-5.467-1.057-5.467-2.85c0-1.811,2.127-2.863,5.467-2.863
		C204.52,93.791,206.646,94.845,206.646,96.654z M206.522,86.039c0,1.266,0,2.529-0.439,4.146l-1.354-0.158
		c0.422-1.615,0.422-2.76,0.422-3.988v-0.193h-9.351V84.72h10.723L206.522,86.039L206.522,86.039z M197.065,96.654
		c-0.018,1.092,1.6,1.76,4.096,1.76s4.097-0.668,4.113-1.76c-0.018-1.105-1.617-1.793-4.113-1.811
		C198.665,94.861,197.049,95.548,197.065,96.654z"/>
	<path fill="#040000" d="M210.653,100.029h-1.371l4.097-15.238h1.389L210.653,100.029z"/>
	<path fill="#040000" d="M225.19,90.484l-0.686,1.072c-1.828-0.623-3.287-1.934-3.99-3.621c-0.703,1.82-2.171,3.252-4.025,3.92
		l-0.721-1.09c2.354-0.826,4.025-2.898,4.025-5.203v-1.193h1.405v1.193C221.184,87.777,222.87,89.728,225.19,90.484z M228.565,96.55
		h-8.771v1.688h9.334v1.125H218.44v-3.885h8.754v-1.564h-8.789v-1.107h10.16V96.55z M228.549,92.015h-1.354v-8.104h1.354V92.015z"/>
	<path fill="#040000" d="M238.674,87.041h-1.354v7.242c0.589-0.035,1.151-0.09,1.67-0.158l0.07,1.02
		c-2.479,0.457-5.783,0.527-7.84,0.527l-0.177-1.178l1.705-0.02v-7.436h-1.371v-1.143h7.296L238.674,87.041L238.674,87.041z
		 M236.036,94.371v-7.33h-2.004v7.418C234.691,94.439,235.368,94.416,236.036,94.371z M244.614,99.539h-1.336v-8.156h-2.127v7.348
		h-1.317V84.263h1.317v5.959h2.127v-6.311h1.336V99.539z"/>
	<path fill="#040000" d="M79.346,111.529h-1.601v5.168c0.8-0.053,1.591-0.123,2.338-0.211l0.105,1.037
		c-3.164,0.492-6.855,0.564-9.563,0.564l-0.157-1.145l2.021-0.035v-5.379h-1.582v-1.125h8.438L79.346,111.529L79.346,111.529z
		 M83.354,124.203H72.859v-4.867h1.354v3.709h9.142L83.354,124.203L83.354,124.203z M76.393,116.785v-5.256h-2.55v5.361
		C74.679,116.865,75.539,116.839,76.393,116.785z M82.632,113.675h2.355v1.178h-2.355v5.572h-1.37v-11.496h1.37V113.675z"/>
	<path fill="#040000" d="M95.254,116.539l-0.722,1.107c-1.758-0.633-3.12-1.941-3.778-3.568c-0.687,1.84-2.137,3.307-3.99,4.01
		l-0.721-1.107c2.319-0.844,3.973-2.953,3.973-5.186v-0.58h-3.533v-1.16h8.42v1.16h-3.498v0.563
		C91.403,113.814,92.969,115.748,95.254,116.539z M98.979,121.619c0,1.848-1.986,2.9-5.238,2.918
		c-3.252-0.018-5.237-1.07-5.237-2.918c0-1.846,1.985-2.898,5.237-2.898S98.979,119.773,98.979,121.619z M89.874,121.619
		c-0.018,1.125,1.478,1.813,3.867,1.813c2.391,0,3.867-0.688,3.867-1.813c0-1.143-1.477-1.826-3.867-1.826
		C91.352,119.792,89.856,120.478,89.874,121.619z M98.928,118.228h-1.39v-4.096h-3.146v-1.145h3.146v-4.076h1.39V118.228z"/>
	<path fill="#040000" d="M115.768,116.804h-14.238v-1.125h14.238V116.804z M114.168,111.882c0,1.773-2.039,2.725-5.521,2.74
		c-3.479-0.018-5.537-0.967-5.537-2.74c0-1.74,2.058-2.689,5.537-2.689C112.128,109.193,114.168,110.142,114.168,111.882z
		 M113.938,121.654h-9.281v1.617h9.756v1.09h-11.127v-3.727h9.3v-1.424h-9.334v-1.055h10.688L113.938,121.654L113.938,121.654z
		 M104.553,111.882c-0.019,1.09,1.494,1.688,4.096,1.688c2.584,0,4.113-0.598,4.113-1.688c0-1.021-1.529-1.652-4.113-1.652
		C106.047,110.228,104.534,110.861,104.553,111.882z"/>
	<path fill="#040000" d="M131.991,116.839l0.088,1.037c-1.493,0.271-3.05,0.438-4.553,0.525v5.66h-1.371v-5.572
		c-1.591,0.07-3.094,0.08-4.395,0.088l-0.193-1.178C124.504,117.4,128.512,117.349,131.991,116.839z M130.762,112.865
		c0,1.898-1.67,3.219-4.008,3.199c-2.339,0.02-4.009-1.301-4.009-3.199c0-1.914,1.67-3.197,4.009-3.182
		C129.092,109.667,130.762,110.951,130.762,112.865z M124.1,112.865c-0.019,1.23,1.09,2.074,2.654,2.059
		c1.582,0.018,2.688-0.826,2.688-2.059c0-1.213-1.106-2.072-2.688-2.057C125.188,110.792,124.081,111.652,124.1,112.865z
		 M134.487,124.556h-1.354v-15.627h1.354V124.556z"/>
	<path fill="#040000" d="M146.512,111.97h-9.316v-1.125h3.973v-1.916h1.371v1.916h3.974L146.512,111.97L146.512,111.97z
		 M145.614,115.748c-0.018,1.76-1.528,2.885-3.762,2.885c-2.25,0-3.779-1.125-3.762-2.885c-0.019-1.773,1.512-2.918,3.762-2.918
		C144.086,112.83,145.598,113.974,145.614,115.748z M139.409,115.748c-0.018,1.107,0.968,1.813,2.443,1.795
		c1.459,0.018,2.443-0.688,2.461-1.795c-0.018-1.105-1.002-1.826-2.461-1.826C140.377,113.921,139.393,114.642,139.409,115.748z
		 M150.098,124.203h-10.494v-4.5h1.354v3.342h9.142L150.098,124.203L150.098,124.203z M149.377,114.078h2.354v1.16h-2.354v5.396
		h-1.371v-11.707h1.371V114.078z"/>
	<path fill="#040000" d="M163.157,120.021c1.503-0.061,3.041-0.193,4.482-0.404l0.104,1.02c-3.567,0.65-7.418,0.668-10.229,0.668
		l-0.193-1.143c1.311-0.008,2.856-0.018,4.482-0.07v-2.936h1.354V120.021z M166.831,112.109h-3.674
		c0.035,2.021,1.714,3.666,4.025,4.324l-0.65,1.09c-1.881-0.563-3.349-1.766-4.043-3.355c-0.686,1.68-2.145,2.928-4.024,3.496
		l-0.668-1.055c2.312-0.676,3.938-2.391,3.973-4.5h-3.586v-1.143h3.621v-1.934h1.354v1.934h3.674L166.831,112.109L166.831,112.109z
		 M170.049,124.572h-1.371v-15.66h1.371V124.572z"/>
	<path fill="#040000" d="M180.577,116.697h6.451v1.145h-14.237v-1.145h6.434v-2.23h1.354L180.577,116.697L180.577,116.697z
		 M185.764,110.773h-4.957c0.088,1.74,2.707,3.086,5.432,3.375l-0.51,1.09c-2.558-0.307-4.957-1.424-5.818-3.162
		c-0.853,1.738-3.242,2.855-5.817,3.162l-0.511-1.09c2.726-0.289,5.326-1.617,5.433-3.375h-4.922v-1.125h11.672L185.764,110.773
		L185.764,110.773z M185.288,121.812c-0.018,1.74-2.021,2.689-5.379,2.689c-3.393,0-5.396-0.949-5.396-2.689
		s2.004-2.689,5.396-2.689C183.268,119.123,185.271,120.072,185.288,121.812z M175.92,121.812c-0.019,1.02,1.459,1.617,3.989,1.617
		c2.496,0,3.99-0.598,3.99-1.617c0-1.018-1.494-1.6-3.99-1.6C177.379,120.214,175.901,120.794,175.92,121.812z"/>
	<path fill="#040000" d="M201.637,111.25h-1.601v4.99c0.729-0.043,1.434-0.104,2.109-0.191l0.07,1.055
		c-3.041,0.475-6.609,0.51-9.142,0.51l-0.176-1.16l2.021-0.018v-5.186h-1.582v-1.145h8.297v1.145H201.637z M205.872,121.689
		c0,1.793-1.969,2.814-5.237,2.814c-3.27,0-5.238-1.021-5.238-2.814c0-1.775,1.969-2.795,5.238-2.795
		C203.903,118.894,205.872,119.914,205.872,121.689z M198.7,116.328v-5.078h-2.442v5.168
		C197.058,116.398,197.884,116.373,198.7,116.328z M196.768,121.689c-0.018,1.09,1.459,1.723,3.867,1.723s3.867-0.633,3.867-1.723
		c0-1.072-1.459-1.723-3.867-1.723S196.75,120.617,196.768,121.689z M205.819,118.562h-1.389v-2.9h-2.638v-1.143h2.638v-1.652
		h-2.638v-1.143h2.638v-2.813h1.389V118.562z"/>
	<path fill="#040000" d="M209.301,121.566l-0.773-1.09c4.043-2.012,6.24-5.018,6.557-8.719h-5.836v-1.16h7.226
		C216.473,115.027,214.397,119.054,209.301,121.566z M220.516,115.273h2.531v1.16h-2.531v8.104h-1.371v-15.625h1.371V115.273z"/>
</g>
</svg>
