<?xml version="1.0" encoding="utf-8"?>
<!-- Generator: Adobe Illustrator 16.0.0, SVG Export Plug-In . SVG Version: 6.00 Build 0)  -->
<!DOCTYPE svg PUBLIC "-//W3C//DTD SVG 1.1//EN" "http://www.w3.org/Graphics/SVG/1.1/DTD/svg11.dtd">
<svg version="1.1" id="Layer_1" xmlns="http://www.w3.org/2000/svg" xmlns:xlink="http://www.w3.org/1999/xlink" x="0px" y="0px"
	 width="264.383px" height="143.835px" viewBox="0 0 264.383 143.835" enable-background="new 0 0 264.383 143.835"
	 xml:space="preserve">
<g id="_x30_1" display="none">
	<path display="inline" fill="none" d="M56.01,138.314c0.4,0.051,0.806,0.084,1.22,0.084h193.368c5.278,0,9.571-4.188,9.571-9.339
		V14.438c0-5.148-4.293-9.338-9.571-9.338H57.23c-5.278,0-9.572,4.189-9.572,9.338v61.103h8.353v62.773H56.01z"/>
	<g display="inline">
		<path fill="#5193A5" d="M250.695,4.1H57.325c-5.829,0-10.571,4.638-10.571,10.338v61.103h1V14.438
			c0-5.148,4.294-9.338,9.571-9.338h193.368c5.277,0,9.57,4.189,9.57,9.338V129.06c0,5.148-4.293,9.339-9.57,9.339H57.325
			c-0.414,0-0.818-0.032-1.219-0.084v1.011c0.399,0.045,0.806,0.073,1.219,0.073h193.368c5.83,0,10.57-4.639,10.57-10.339V14.438
			C261.266,8.737,256.523,4.1,250.695,4.1z"/>
		<g>
			<path fill="#5193A5" d="M3.389,107.859c0-13.009,5.204-20.593,14.005-20.593c8.803,0,14.007,7.584,14.007,20.593
				c0,13.12-5.148,20.596-14.007,20.596C8.483,128.455,3.389,120.979,3.389,107.859z M26.53,107.859
				c0-10.352-3.377-16.273-9.135-16.273c-5.757,0-9.188,5.922-9.188,16.273c0,10.354,3.377,16.165,9.188,16.165
				C23.153,124.024,26.53,118.21,26.53,107.859z"/>
			<path fill="#5193A5" d="M52.218,127.899H47.18V93.023h-0.221L37.216,99.5v-5.037l9.964-6.646h5.038V127.899z"/>
		</g>
		<rect x="52.355" y="47.223" fill="#AAB5C5" width="203.311" height="0.709"/>
	</g>
	<g display="inline">
		<path fill="#070001" d="M74.403,32.273l-0.984,1.292c-2.01-1.056-3.691-3.209-4.491-5.741c-0.819,2.696-2.543,4.993-4.594,6.091
			l-1.025-1.292c2.666-1.313,4.778-4.819,4.8-8.143v-3.321h1.578v3.321C69.685,27.701,71.819,31.001,74.403,32.273z M77.683,26.982
			h3.057v1.396h-3.057v9.434h-1.6V19.58h1.6V26.982z"/>
		<path fill="#070001" d="M91.404,23.948h3.813V19.58h1.62v9.781h-1.62V25.28h-3.794c-0.328,2.153-2.205,3.59-4.676,3.59
			c-2.77,0-4.737-1.724-4.737-4.226c0-2.48,1.97-4.225,4.737-4.204C89.199,20.419,91.054,21.845,91.404,23.948z M83.548,24.644
			c0,1.661,1.333,2.871,3.199,2.871c1.846,0,3.158-1.21,3.158-2.871c0-1.682-1.313-2.851-3.158-2.83
			C84.881,21.793,83.548,22.962,83.548,24.644z M86.707,32.601h8.511v-2.316h1.62v7.279H85.086v-7.279h1.62L86.707,32.601
			L86.707,32.601z M95.217,36.251v-2.358h-8.511v2.358H95.217z"/>
		<path fill="#070001" d="M121.754,29.402h-16.591v-1.313h6.87v-3.527h1.579v3.527h8.142V29.402L121.754,29.402z M119.786,34.448
			c0,2.092-2.481,3.321-6.398,3.321c-3.896,0-6.378-1.229-6.378-3.321c0-2.112,2.481-3.344,6.378-3.344
			C117.304,31.104,119.786,32.334,119.786,34.448z M119.642,22.06c0,1.478,0,2.953-0.513,4.84l-1.579-0.185
			c0.492-1.887,0.492-3.22,0.492-4.655v-0.226h-10.91v-1.313h12.51V22.06z M108.61,34.448c-0.021,1.271,1.865,2.051,4.777,2.051
			c2.912,0,4.778-0.779,4.799-2.051c-0.021-1.292-1.887-2.093-4.799-2.112C110.475,32.355,108.588,33.156,108.61,34.448z"/>
		<path fill="#070001" d="M139.904,35.226h-16.61v-1.333h6.521v-6.521h1.578v6.521h8.511V35.226L139.904,35.226z M137.915,23.25
			c-0.021,2.234-0.021,4.736-0.677,8.408l-1.643-0.186c0.697-3.486,0.697-6.05,0.697-8.224v-0.492h-11.238v-1.332h12.858
			L137.915,23.25L137.915,23.25z"/>
		<path fill="#070001" d="M161.499,28.192h-8.552v-7.424h8.552V28.192z M168.123,36.498l-0.555,1.251
			c-2.748-0.369-5.25-1.661-6.315-3.363c-1.106,1.733-3.671,2.994-6.419,3.363l-0.574-1.251c3.139-0.35,6.152-2.112,6.152-3.938
			h-5.395v-1.251h5.414v-1.784h1.6v1.784h5.455v1.251h-5.414C162.074,34.344,164.986,36.108,168.123,36.498z M154.527,26.92h5.394
			v-4.84h-5.394V26.92z M167.016,30.058h-1.58V19.58h1.58V30.058z"/>
		<path fill="#070001" d="M186.457,28.706l-0.841,1.292c-2.112-0.811-3.753-2.451-4.554-4.554c-0.811,2.235-2.472,4.03-4.595,4.882
			l-0.882-1.251c2.77-1.066,4.635-3.754,4.635-6.624v-1.826h1.643v1.825C181.842,25.218,183.75,27.72,186.457,28.706z
			 M191.031,37.42h-12.348v-5.68h1.602v4.326h10.746V37.42L191.031,37.42z M190.456,32.97h-1.601V19.599h1.601V32.97z"/>
		<path fill="#070001" d="M204.421,28.602l-0.778,1.251c-2.111-0.625-3.805-2.01-4.613-3.813c-0.801,2-2.461,3.567-4.637,4.286
			l-0.777-1.23c2.687-0.902,4.572-3.117,4.572-5.599v-0.391h-4.121v-1.292h4.121v-2.316h1.619v2.316h4.082v1.292h-4.123v0.391
			C199.766,25.772,201.736,27.802,204.421,28.602z M208.729,34.448c0,2.111-2.316,3.321-6.11,3.321s-6.111-1.21-6.111-3.321
			c0-2.134,2.317-3.322,6.111-3.322S208.729,32.314,208.729,34.448z M198.105,34.448c-0.021,1.271,1.724,2.051,4.513,2.051
			c2.81,0,4.512-0.779,4.512-2.051c0-1.292-1.702-2.052-4.512-2.071C199.828,32.396,198.084,33.156,198.105,34.448z M208.667,30.632
			h-1.62v-4.491h-3.73v-1.333h3.73V19.58h1.62V30.632z"/>
		<path fill="#070001" d="M222.531,28.11l-0.842,1.251c-2.062-0.749-3.649-2.275-4.431-4.162c-0.79,2.111-2.471,3.804-4.635,4.594
			l-0.841-1.271c2.688-0.964,4.635-3.384,4.635-5.968V22.02h-4.122v-1.333h9.823v1.333h-4.081v0.533
			C218.039,24.89,219.865,27.187,222.531,28.11z M216.686,32.642h8.512v-2.275h1.6v7.197h-11.729v-7.197h1.619L216.686,32.642
			L216.686,32.642z M225.197,36.251v-2.317h-8.512v2.317H225.197z M226.795,29.484h-1.6v-4.122h-3.691v-1.354h3.691v-4.43h1.6
			V29.484z"/>
		<path fill="#070001" d="M246.462,31.207h-7.547v6.604h-1.579v-6.604h-7.484v-1.354h16.61V31.207z M245.643,26.532l-0.656,1.313
			c-2.829-0.472-5.629-2.041-6.809-4.286c-1.17,2.256-3.98,3.814-6.81,4.286l-0.656-1.313c3.281-0.451,6.624-2.646,6.624-5.25
			v-1.047h1.661v1.047C238.998,23.844,242.361,26.081,245.643,26.532z"/>
	</g>
	<g display="inline">
		<path fill="#070001" d="M79.556,79.401h-6.45v1.67c2.952,0.123,4.692,1.091,4.711,2.742c-0.019,1.74-2.021,2.726-5.379,2.726
			c-3.394,0-5.396-0.983-5.396-2.726c0-1.651,1.731-2.619,4.711-2.742v-1.67h-6.434v-1.144h14.237V79.401z M78.291,72.809h-4.957
			c0.088,1.758,2.672,3.12,5.432,3.41l-0.51,1.09c-2.558-0.308-4.957-1.45-5.818-3.199c-0.853,1.749-3.242,2.894-5.817,3.199
			l-0.492-1.09c2.707-0.29,5.309-1.652,5.414-3.41H66.62v-1.125h11.672L78.291,72.809L78.291,72.809z M68.448,83.813
			c-0.019,1.037,1.477,1.651,3.989,1.651c2.479,0,3.99-0.614,3.99-1.651c0-1.056-1.512-1.67-3.99-1.688
			C69.923,82.143,68.429,82.757,68.448,83.813z"/>
		<path fill="#070001" d="M95.183,84.535H80.875v-1.144h6.398v-3.832h1.354v3.832h6.557L95.183,84.535L95.183,84.535z
			 M94.481,78.591l-0.615,1.144c-2.382-0.481-4.896-2.101-5.906-4.358c-1.028,2.25-3.524,3.877-5.906,4.358l-0.614-1.144
			c2.725-0.475,5.782-2.76,5.782-5.379v-1.194h1.441v1.194C88.662,75.833,91.755,78.119,94.481,78.591z"/>
		<path fill="#070001" d="M106.714,82.354h-1.317v-5.713h-2.162v3.217h-6.082v-7.646h1.301v2.637h3.479v-2.637h1.302V75.5h2.162
			v-4.235h1.317V82.354z M101.933,78.714v-2.776h-3.479v2.776H101.933z M110.177,86.24H99.455v-5.011h1.371v3.851h9.352
			L110.177,86.24L110.177,86.24z M109.703,82.83h-1.318V70.946h1.318V82.83z"/>
		<path fill="#070001" d="M121.462,82.196l-0.791,1.072c-1.774-0.815-3.252-2.521-3.938-4.588c-0.687,2.18-2.146,4.008-3.92,4.868
			l-0.791-1.071c2.284-1.071,4.008-3.744,4.008-6.435v-1.248h-3.586v-1.125h3.586v-2.425h1.371v2.425h3.532v1.125h-3.551v1.248
			C117.384,78.626,119.142,81.16,121.462,82.196z M124.944,86.608h-1.39V78.38h-3.428v-1.143h3.428v-6.294h1.39V86.608z"/>
		<path fill="#070001" d="M128.494,83.637l-0.756-1.125c4.228-2.005,6.381-5.001,6.696-8.736h-5.977v-1.125h7.383
			C135.824,77.151,133.732,81.125,128.494,83.637z M140.464,86.574h-1.389V70.946h1.389V86.574z"/>
		<path fill="#070001" d="M151.398,74.69h3.271v-3.744h1.39v8.386h-1.39v-3.498h-3.252c-0.28,1.847-1.89,3.076-4.008,3.076
			c-2.373,0-4.062-1.478-4.062-3.621c0-2.127,1.688-3.621,4.062-3.604C149.508,71.667,151.1,72.888,151.398,74.69z M144.666,75.289
			c0,1.424,1.143,2.461,2.742,2.461c1.582,0,2.707-1.037,2.707-2.461c0-1.44-1.125-2.442-2.707-2.427
			C145.809,72.844,144.666,73.846,144.666,75.289z M147.373,82.108h7.295v-1.985h1.389v6.239h-10.07v-6.239h1.389L147.373,82.108
			L147.373,82.108z M154.667,85.237v-2.021h-7.295v2.021H154.667z"/>
		<path fill="#070001" d="M172.949,81.352h-6.521v5.222h-1.354v-5.222h-6.436v-1.125h14.311V81.352z M161.839,73.757h7.875v-2.161
			h1.39v6.731h-10.635v-6.731h1.37V73.757L161.839,73.757z M169.714,77.205v-2.319h-7.875v2.319H169.714z"/>
		<path fill="#070001" d="M192.971,79.367H178.75v-1.125h5.889v-3.022h1.354v3.022h6.979L192.971,79.367L192.971,79.367z
			 M191.283,83.69c0,1.793-2.127,2.849-5.484,2.849c-3.34,0-5.467-1.056-5.467-2.849c0-1.812,2.127-2.864,5.467-2.864
			C189.157,80.826,191.283,81.878,191.283,83.69z M191.16,73.074c0,1.266,0,2.53-0.439,4.147l-1.354-0.158
			c0.422-1.616,0.422-2.76,0.422-3.989V72.88h-9.354v-1.126h10.725V73.074L191.16,73.074z M181.703,83.69
			c-0.02,1.091,1.6,1.759,4.096,1.759s4.096-0.668,4.113-1.759c-0.02-1.106-1.617-1.793-4.113-1.812
			C183.303,81.897,181.686,82.583,181.703,83.69z"/>
		<path fill="#070001" d="M208.527,84.358H194.29v-1.144h5.59v-5.59h1.354v5.59h7.295L208.527,84.358L208.527,84.358z
			 M206.822,74.091c-0.018,1.916-0.018,4.062-0.579,7.207l-1.406-0.157c0.599-2.988,0.599-5.187,0.599-7.049v-0.423h-9.633v-1.144
			h11.02V74.091z"/>
		<path fill="#070001" d="M221.992,84.216l3.938-3.938h-10.143V78.89h10.143l-3.938-3.938l0.982-0.969l5.592,5.592l-5.592,5.59
			L221.992,84.216z"/>
		<path fill="#070001" d="M77.94,104.401h-4.834v4.043h6.521v1.16H65.319v-1.16h6.434v-4.043h-4.604v-7.172h10.635v1.125h-9.246
			v4.922h9.404L77.94,104.401L77.94,104.401z"/>
		<path fill="#070001" d="M89.435,100.305c0,2.127-1.723,3.586-4.096,3.586s-4.096-1.459-4.096-3.586
			c0-2.146,1.723-3.604,4.096-3.586C87.712,96.703,89.435,98.162,89.435,100.305z M82.597,100.305
			c-0.018,1.424,1.144,2.442,2.742,2.442c1.582,0,2.742-1.021,2.742-2.442c0-1.423-1.16-2.443-2.742-2.427
			C83.74,97.862,82.58,98.88,82.597,100.305z M85.024,107.02h7.383v-1.897h1.371v6.239H83.653v-6.239h1.371V107.02z M92.407,110.237
			v-2.108h-7.383v2.108H92.407z M93.778,104.332h-1.371v-8.386h1.371V104.332z"/>
		<path fill="#070001" d="M96.958,104.578c-0.018-0.615,0.51-1.125,1.125-1.125c0.615,0,1.125,0.51,1.125,1.125
			c0,0.633-0.51,1.144-1.125,1.144C97.468,105.721,96.942,105.208,96.958,104.578z"/>
		<path fill="#070001" d="M115.24,104.367h-14.222v-1.125h5.89v-3.022h1.354v3.022h6.979L115.24,104.367L115.24,104.367z
			 M113.552,108.69c0,1.793-2.127,2.849-5.483,2.849c-3.34,0-5.468-1.056-5.468-2.849c0-1.812,2.128-2.864,5.468-2.864
			C111.425,105.826,113.552,106.878,113.552,108.69z M113.429,98.074c0,1.266,0,2.53-0.438,4.147l-1.354-0.158
			c0.422-1.616,0.422-2.76,0.422-3.989V97.88h-9.352v-1.125h10.723L113.429,98.074L113.429,98.074z M103.972,108.69
			c-0.018,1.091,1.601,1.759,4.097,1.759s4.096-0.668,4.112-1.759c-0.018-1.106-1.616-1.793-4.112-1.812
			C105.573,106.897,103.955,107.583,103.972,108.69z"/>
		<path fill="#070001" d="M128.987,97.809c0,1.194,0,2.584-0.422,4.535h2.303v1.143h-14.31v-1.143h10.652
			c0.404-1.942,0.404-3.341,0.404-4.535h-9.246v-1.144h10.617L128.987,97.809L128.987,97.809z M119.792,106.966h7.822v-2.073h1.371
			v6.469h-10.564v-6.469h1.371V106.966L119.792,106.966z M127.615,110.237v-2.18h-7.822v2.18H127.615z"/>
		<path fill="#070001" d="M133.064,108.637l-0.756-1.125c4.229-2.005,6.381-5.001,6.697-8.736h-5.978v-1.125h7.384
			C140.395,102.151,138.303,106.125,133.064,108.637z M145.035,111.574h-1.391V95.946h1.391V111.574z"/>
		<path fill="#070001" d="M155.968,99.69h3.271v-3.744h1.39v8.386h-1.39v-3.498h-3.252c-0.28,1.847-1.891,3.076-4.008,3.076
			c-2.373,0-4.062-1.478-4.062-3.621c0-2.127,1.688-3.621,4.062-3.604C154.079,96.667,155.669,97.888,155.968,99.69z
			 M149.236,100.289c0,1.424,1.144,2.461,2.742,2.461c1.582,0,2.707-1.037,2.707-2.461c0-1.44-1.125-2.442-2.707-2.427
			C150.378,97.844,149.236,98.846,149.236,100.289z M151.943,107.108h7.295v-1.985h1.39v6.239h-10.071v-6.239h1.389L151.943,107.108
			L151.943,107.108z M159.238,110.237v-2.021h-7.295v2.021H159.238z"/>
		<path fill="#070001" d="M171.789,102.608c0,3.322-1.67,5.433-3.99,5.433c-2.338,0-3.99-2.108-3.99-5.433
			c0-3.321,1.652-5.433,3.99-5.448C170.119,97.175,171.789,99.287,171.789,102.608z M165.145,102.608c0,2.55,1.09,4.201,2.653,4.201
			s2.654-1.651,2.654-4.201c0-2.549-1.091-4.2-2.654-4.219C166.234,98.408,165.145,100.059,165.145,102.608z M176.113,111.608
			h-1.389V95.946h1.389V111.608z"/>
		<path fill="#070001" d="M192.777,103.768l-0.721,1.106c-1.812-0.693-3.218-2.102-3.902-3.901
			c-0.693,1.916-2.117,3.454-3.938,4.185l-0.756-1.072c2.373-0.914,3.973-3.217,3.973-5.678v-1.563h1.406v1.563
			C188.822,100.781,190.457,102.923,192.777,103.768z M196.697,111.24h-10.581v-4.869h1.37v3.709h9.211V111.24z M196.205,107.423
			h-1.371V95.962h1.371V107.423z"/>
		<path fill="#070001" d="M208.175,103.68l-0.668,1.071c-1.812-0.535-3.261-1.724-3.954-3.271c-0.687,1.714-2.109,3.06-3.974,3.675
			l-0.668-1.056c2.303-0.772,3.92-2.672,3.92-4.799v-0.335h-3.533V97.86h3.533v-1.985h1.39v1.985h3.497v1.106h-3.532v0.335
			C204.186,101.253,205.873,102.996,208.175,103.68z M211.867,108.69c0,1.812-1.986,2.849-5.238,2.849s-5.238-1.037-5.238-2.849
			c0-1.828,1.986-2.849,5.238-2.849S211.867,106.862,211.867,108.69z M202.762,108.69c-0.019,1.091,1.477,1.759,3.866,1.759
			c2.408,0,3.867-0.668,3.867-1.759c0-1.106-1.459-1.758-3.867-1.774C204.238,106.932,202.744,107.583,202.762,108.69z
			 M211.814,105.419h-1.39v-3.851h-3.198v-1.144h3.198v-4.481h1.39V105.419z"/>
		<path fill="#070001" d="M228.214,103.257l-0.721,1.072c-1.769-0.643-3.13-1.951-3.798-3.567c-0.678,1.812-2.117,3.261-3.973,3.938
			l-0.722-1.092c2.304-0.824,3.974-2.898,3.974-5.113v-0.457h-3.533v-1.145h8.42v1.145h-3.497v0.457
			C224.365,100.5,225.93,102.466,228.214,103.257z M223.205,107.143h7.295v-1.951h1.371v6.17h-10.055v-6.17h1.389V107.143
			L223.205,107.143z M230.5,110.237v-1.985h-7.295v1.985H230.5z M231.871,104.436H230.5v-3.533h-3.164v-1.159h3.164v-3.797h1.371
			V104.436z"/>
		<path fill="#070001" d="M248.729,105.914h-6.47v5.66h-1.354v-5.66h-6.416v-1.16h14.238L248.729,105.914L248.729,105.914z
			 M248.025,101.906l-0.563,1.125c-2.426-0.404-4.824-1.749-5.836-3.675c-1.002,1.935-3.41,3.271-5.836,3.675l-0.563-1.125
			c2.813-0.388,5.678-2.269,5.678-4.5V96.51h1.424v0.896C242.33,99.602,245.212,101.518,248.025,101.906z"/>
	</g>
</g>
<g>
	<path fill="#5098AC" d="M250.435,4.936H57.064c-5.829,0-10.571,4.638-10.571,10.338v61.101h1V15.273
		c0-5.148,4.294-9.338,9.571-9.338h193.369c5.278,0,9.571,4.189,9.571,9.338v114.623c0,5.148-4.293,9.338-9.571,9.338H57.064
		c-0.414,0-0.818-0.033-1.219-0.084v1.012c0.399,0.045,0.806,0.072,1.219,0.072h193.369c5.829,0,10.571-4.639,10.571-10.338V15.273
		C261.006,9.572,256.264,4.936,250.435,4.936z"/>
	<g>
		<path fill="#5098AC" d="M3.13,108.695c0-13.01,5.202-20.594,14.006-20.594c8.802,0,14.006,7.584,14.006,20.594
			c0,13.119-5.148,20.594-14.006,20.594C8.223,129.289,3.13,121.814,3.13,108.695z M26.27,108.695
			c0-10.352-3.377-16.275-9.134-16.275c-5.758,0-9.189,5.924-9.189,16.275s3.377,16.164,9.189,16.164
			C22.893,124.859,26.27,119.046,26.27,108.695z"/>
		<path fill="#5098AC" d="M37.677,118.66h5.037c0.276,3.82,4.098,6.199,8.856,6.199c5.26,0,9.135-2.879,9.135-7.029
			c0-4.375-3.487-7.475-9.742-7.475h-3.268v-4.373h3.268c4.872,0,8.249-2.713,8.249-6.865c0-3.986-2.936-6.697-7.476-6.697
			c-4.262,0-8.191,2.379-8.414,6.311h-4.815c0.276-6.367,6.145-10.629,13.286-10.629c7.64,0,12.29,4.982,12.233,10.74
			c0.057,4.539-2.602,7.916-6.81,9.078v0.277c5.204,0.83,8.415,4.539,8.358,9.633c0.057,6.588-5.979,11.459-13.949,11.459
			C43.654,129.289,37.953,125.025,37.677,118.66z"/>
	</g>
	<rect x="52.095" y="48.059" fill="#ABB7C7" width="203.311" height="0.709"/>
</g>
<g>
	<path fill="#040000" d="M93.79,23.982H83.476V22.67h4.43v-2.256h1.601v2.256h4.285L93.79,23.982L93.79,23.982z M92.848,28.474
		c0,2.071-1.724,3.486-4.163,3.486c-2.44,0-4.144-1.415-4.122-3.486c-0.021-2.092,1.682-3.486,4.122-3.486
		C91.124,24.987,92.848,26.382,92.848,28.474z M86.06,28.474c0,1.313,1.065,2.194,2.625,2.194c1.559,0,2.625-0.882,2.646-2.194
		c-0.021-1.313-1.087-2.194-2.646-2.215C87.125,26.279,86.06,27.162,86.06,28.474z M98.979,38.256H86.777v-5.147h1.62v3.794h10.582
		V38.256L98.979,38.256z M98.568,34.339h-1.62v-3.917H93.79v-1.313h3.158v-2.48H93.79v-1.333h3.158v-4.86h1.62V34.339z"/>
	<path fill="#040000" d="M112.247,29.273l-0.759,1.271c-2.102-0.688-3.69-2.144-4.471-3.979c-0.789,2.093-2.471,3.723-4.655,4.513
		l-0.819-1.292c2.728-0.924,4.635-3.281,4.654-5.906v-0.779h-4.163v-1.333h9.845v1.333h-4.103v0.779
		C107.776,26.259,109.562,28.392,112.247,29.273z M116.021,35.242c0,2.133-2.256,3.362-6.009,3.362s-6.05-1.229-6.05-3.362
		c0-2.093,2.297-3.322,6.05-3.322S116.021,33.149,116.021,35.242z M105.582,35.242c-0.021,1.313,1.683,2.07,4.431,2.07
		c2.769,0,4.45-0.759,4.45-2.07c0-1.271-1.683-2.03-4.45-2.03C107.265,33.211,105.563,33.97,105.582,35.242z M115.856,25.069h2.748
		v1.354h-2.748v5.004h-1.6V20.415h1.6V25.069z"/>
	<path fill="#040000" d="M129.885,30.729v-1.333c-2.122-0.185-3.486-1.179-3.486-2.687c0-1.661,1.702-2.688,4.266-2.688
		c2.584,0,4.267,1.025,4.286,2.688c-0.021,1.497-1.354,2.492-3.466,2.687v1.271c1.702-0.082,3.425-0.215,5.024-0.451l0.144,1.169
		c-3.958,0.697-8.326,0.718-11.525,0.718l-0.185-1.313C126.397,30.792,128.101,30.792,129.885,30.729z M135.954,23.327h-10.562
		v-1.23h4.491v-1.825h1.6v1.825h4.471V23.327z M139.257,38.646h-1.62v-3.794h-10.459V33.56h12.079V38.646z M127.937,26.71
		c0,0.942,1.046,1.6,2.728,1.579c1.683,0.021,2.748-0.637,2.748-1.579c0-0.964-1.065-1.56-2.748-1.538
		C128.981,25.151,127.937,25.747,127.937,26.71z M139.257,25.952h2.728v1.354h-2.728v5.354h-1.62V20.435h1.62V25.952z"/>
	<path fill="#040000" d="M153.16,26.177c0,2.666-2.051,4.491-4.777,4.491c-2.728,0-4.778-1.825-4.778-4.491
		c0-2.625,2.051-4.471,4.778-4.471C151.109,21.706,153.16,23.552,153.16,26.177z M145.184,26.177
		c-0.021,1.825,1.354,3.076,3.199,3.076c1.805,0,3.198-1.251,3.198-3.076c0-1.784-1.395-3.056-3.198-3.056
		C146.536,23.122,145.162,24.393,145.184,26.177z M158.801,38.256h-12.347v-5.845h1.601v4.49h10.746V38.256z M158.227,33.765h-1.6
		v-13.33h1.6V33.765z"/>
	<path fill="#040000" d="M176.108,29.027h-8.552v-7.424h8.552V29.027z M182.732,37.333l-0.554,1.251
		c-2.748-0.369-5.25-1.661-6.316-3.363c-1.106,1.733-3.671,2.994-6.419,3.363l-0.574-1.251c3.139-0.35,6.152-2.112,6.152-3.938
		h-5.394v-1.251h5.413v-1.784h1.601v1.784h5.455v1.251h-5.414C176.684,35.18,179.596,36.943,182.732,37.333z M169.137,27.756h5.394
		v-4.84h-5.394V27.756z M181.625,30.894h-1.578V20.415h1.578V30.894z"/>
	<path fill="#040000" d="M194.873,30.729v-1.333c-2.123-0.185-3.485-1.179-3.485-2.687c0-1.661,1.702-2.688,4.266-2.688
		c2.584,0,4.267,1.025,4.286,2.688c-0.021,1.497-1.354,2.492-3.466,2.687v1.271c1.702-0.082,3.425-0.215,5.023-0.451l0.145,1.169
		c-3.958,0.697-8.326,0.718-11.525,0.718l-0.185-1.313C191.388,30.792,193.09,30.792,194.873,30.729z M200.943,23.327h-10.562v-1.23
		h4.49v-1.825h1.601v1.825h4.471V23.327z M204.245,38.646h-1.62v-3.794h-10.459V33.56h12.079V38.646z M192.926,26.71
		c0,0.942,1.046,1.6,2.728,1.579c1.683,0.021,2.748-0.637,2.748-1.579c0-0.964-1.065-1.56-2.748-1.538
		C193.972,25.151,192.926,25.747,192.926,26.71z M204.245,25.952h2.729v1.354h-2.729v5.354h-1.62V20.435h1.62V25.952z"/>
	<path fill="#040000" d="M218.99,29.314l-0.841,1.292c-2.051-0.737-3.64-2.266-4.409-4.163c-0.8,2.144-2.492,3.855-4.654,4.677
		l-0.842-1.292c2.707-0.984,4.636-3.445,4.636-6.051v-0.677h-4.122v-1.354h9.822v1.354h-4.081v0.656
		C214.5,26.136,216.324,28.392,218.99,29.314z M223.339,35.242c0,2.152-2.317,3.384-6.111,3.403
		c-3.794-0.021-6.111-1.251-6.111-3.403c0-2.153,2.317-3.385,6.111-3.385S223.339,33.088,223.339,35.242z M212.716,35.242
		c-0.021,1.313,1.723,2.111,4.512,2.111s4.512-0.8,4.512-2.111c0-1.333-1.723-2.134-4.512-2.134S212.694,33.909,212.716,35.242z
		 M223.276,31.284h-1.62v-4.778h-3.671v-1.333h3.671v-4.758h1.62V31.284z"/>
</g>
<g>
	<rect x="71.909" y="57.559" fill="none" width="181.591" height="72.25"/>
	<path fill="#040000" d="M81.401,63.544H72.56v-1.125h3.797v-1.935h1.371v1.935h3.674V63.544z M80.594,67.394
		c0,1.775-1.478,2.988-3.568,2.988s-3.551-1.213-3.533-2.988c-0.018-1.793,1.441-2.988,3.533-2.988S80.594,65.601,80.594,67.394z
		 M74.774,67.394c0,1.125,0.914,1.881,2.25,1.881s2.25-0.756,2.269-1.881c-0.019-1.125-0.933-1.881-2.269-1.897
		C75.688,65.513,74.774,66.269,74.774,67.394z M85.85,75.777H75.391v-4.412h1.389v3.253h9.07V75.777z M85.497,72.421h-1.389v-3.358
		h-2.707v-1.125h2.707v-2.127h-2.707v-1.143h2.707v-4.166h1.389V72.421z"/>
	<path fill="#040000" d="M97.223,68.079l-0.65,1.09c-1.802-0.589-3.164-1.837-3.832-3.41c-0.677,1.793-2.118,3.189-3.99,3.867
		l-0.702-1.107c2.338-0.791,3.973-2.813,3.989-5.063v-0.668H88.47v-1.144h8.438v1.144h-3.516v0.668
		C93.391,65.495,94.92,67.322,97.223,68.079z M100.456,73.193c0,1.828-1.934,2.885-5.149,2.885s-5.187-1.057-5.187-2.885
		c0-1.792,1.97-2.847,5.187-2.847S100.456,71.4,100.456,73.193z M91.51,73.193c-0.019,1.125,1.44,1.775,3.797,1.775
		c2.373,0,3.813-0.65,3.813-1.775c0-1.089-1.44-1.739-3.813-1.739C92.95,71.454,91.491,72.104,91.51,73.193z M100.315,64.476h2.355
		v1.16h-2.355v4.289h-1.371v-9.439h1.371V64.476z"/>
	<path fill="#040000" d="M112.34,69.327v-1.144c-1.819-0.158-2.988-1.011-2.988-2.303c0-1.424,1.459-2.303,3.656-2.303
		c2.215,0,3.655,0.879,3.674,2.303c-0.019,1.283-1.16,2.136-2.971,2.303v1.09c1.459-0.069,2.936-0.185,4.307-0.387l0.123,1.002
		c-3.394,0.598-7.137,0.615-9.879,0.615l-0.158-1.125C109.352,69.38,110.811,69.38,112.34,69.327z M117.543,62.98h-9.054v-1.055
		h3.851v-1.564h1.371v1.564h3.831L117.543,62.98L117.543,62.98z M120.372,76.111h-1.389v-3.252h-8.965v-1.106h10.354V76.111z
		 M110.67,65.882c0,0.809,0.896,1.371,2.338,1.354c1.44,0.019,2.354-0.545,2.354-1.354c0-0.826-0.914-1.336-2.354-1.318
		C111.565,64.546,110.67,65.056,110.67,65.882z M120.372,65.23h2.339v1.16h-2.339v4.588h-1.389V60.503h1.389V65.23z"/>
	<path fill="#040000" d="M132.29,65.425c0,2.285-1.758,3.85-4.096,3.85s-4.096-1.563-4.096-3.85c0-2.25,1.758-3.832,4.096-3.832
		S132.29,63.175,132.29,65.425z M125.452,65.425c-0.018,1.563,1.16,2.637,2.742,2.637c1.547,0,2.742-1.072,2.742-2.637
		c0-1.529-1.195-2.619-2.742-2.619C126.612,62.806,125.436,63.896,125.452,65.425z M137.125,75.777h-10.582v-5.009h1.37v3.851h9.212
		V75.777z M136.633,71.929h-1.371V60.503h1.371V71.929z"/>
	<path fill="#040000" d="M140.481,78.292h-1.301l0.967-4.781h1.705L140.481,78.292z"/>
	<path fill="#040000" d="M158.534,67.288l0.088,1.002c-1.396,0.22-2.855,0.359-4.288,0.438v3.094h-1.39V68.8
		c-1.582,0.07-3.085,0.079-4.395,0.07l-0.193-1.125C151.274,67.728,155.178,67.71,158.534,67.288z M157.356,63.859
		c-0.018,1.67-1.582,2.707-3.867,2.707c-2.303,0-3.867-1.037-3.867-2.707c0-1.635,1.564-2.725,3.867-2.725
		C155.774,61.136,157.34,62.226,157.356,63.859z M161.717,75.777h-11.109v-4.569h1.389v3.411h9.722L161.717,75.777L161.717,75.777z
		 M150.94,63.859c-0.018,1.021,1.021,1.688,2.549,1.688c1.478,0,2.531-0.668,2.549-1.688c-0.018-1.002-1.071-1.688-2.549-1.67
		C151.961,62.173,150.924,62.857,150.94,63.859z M161.329,72.368h-1.389v-1.617h-3.234v-1.002h3.234v-9.246h1.389V72.368z"/>
	<path fill="#040000" d="M164.881,73.142l-0.773-1.09c4.043-2.013,6.24-5.019,6.557-8.719h-5.836v-1.16h7.226
		C172.053,66.603,169.979,70.628,164.881,73.142z M176.096,66.849h2.531v1.16h-2.531v8.104h-1.371V60.484h1.371V66.849z"/>
	<path fill="#040000" d="M194.288,75.32h-1.317v-5.414h-2.9v-1.143h2.9v-2.777h-2.637c-0.766,2.646-2.479,4.983-5.433,6.75
		l-0.844-1.001c3.401-2.013,5.105-4.834,5.379-8.104h-4.676v-1.144h6.047c0,0.801-0.07,1.592-0.211,2.355h2.373v-3.938h1.317
		L194.288,75.32L194.288,75.32z M197.452,76.111h-1.317V60.484h1.317V76.111z"/>
	<path fill="#040000" d="M208.809,68.378l-0.703,1.106c-1.775-0.642-3.155-1.969-3.85-3.639c-0.659,1.872-2.074,3.313-3.92,4.025
		l-0.757-1.107c2.373-0.844,3.938-2.953,3.955-5.379v-1.934h1.354v1.985C204.87,65.583,206.506,67.568,208.809,68.378z
		 M212.569,75.777h-10.477v-4.851h1.405v3.691h9.07L212.569,75.777L212.569,75.777z M211.85,65.284h2.354v1.178h-2.354v5.572h-1.371
		v-11.55h1.371V65.284z"/>
	<path fill="#040000" d="M234.016,71.753h-6.521v4.395h-1.354v-4.395h-6.435v-1.144h14.31V71.753z M233.118,63.421h-12.674v-1.144
		h5.695v-1.881h1.354v1.881h5.625V63.421z M231.924,66.937c0,1.652-1.916,2.584-5.099,2.603c-3.198-0.019-5.114-0.949-5.098-2.603
		c-0.019-1.688,1.897-2.619,5.098-2.619C230.008,64.316,231.924,65.249,231.924,66.937z M223.151,66.937
		c-0.018,0.967,1.336,1.529,3.674,1.529c2.304,0,3.656-0.563,3.675-1.529c-0.019-0.983-1.371-1.563-3.675-1.563
		C224.487,65.372,223.135,65.952,223.151,66.937z"/>
	<path fill="#040000" d="M81.823,96.367l-0.844,1.105c-1.723-0.904-3.164-2.75-3.85-4.922c-0.703,2.313-2.181,4.281-3.938,5.221
		l-0.879-1.105c2.285-1.125,4.096-4.131,4.113-6.98v-2.848h1.354v2.848C77.78,92.445,79.608,95.275,81.823,96.367z M84.637,91.832
		h2.619v1.193h-2.619v8.086h-1.371V85.484h1.371V91.832z"/>
	<path fill="#040000" d="M96.396,89.228h3.27v-3.744h1.39v8.387h-1.39v-3.498h-3.252c-0.28,1.846-1.89,3.074-4.008,3.074
		c-2.373,0-4.061-1.477-4.061-3.619c0-2.127,1.688-3.621,4.061-3.605C94.507,86.207,96.098,87.427,96.396,89.228z M89.663,89.828
		c0,1.424,1.144,2.461,2.742,2.461c1.582,0,2.707-1.037,2.707-2.461c0-1.441-1.125-2.443-2.707-2.428
		C90.807,87.384,89.663,88.386,89.663,89.828z M92.37,96.646h7.295v-1.984h1.39v6.238H90.982v-6.238h1.389L92.37,96.646
		L92.37,96.646z M99.665,99.775v-2.02H92.37v2.02H99.665z"/>
	<path fill="#040000" d="M114.098,96.595c1.503-0.063,3.041-0.193,4.481-0.404l0.105,1.02c-3.568,0.65-7.418,0.668-10.23,0.668
		l-0.192-1.143c1.31-0.01,2.855-0.018,4.481-0.07V93.73h1.354V96.595z M117.771,88.685h-3.674c0.035,2.021,1.714,3.664,4.024,4.324
		l-0.649,1.09c-1.881-0.563-3.35-1.768-4.043-3.357c-0.687,1.68-2.146,2.928-4.025,3.498l-0.668-1.055
		c2.313-0.678,3.938-2.391,3.973-4.5h-3.586v-1.143h3.621v-1.936h1.354v1.936h3.674L117.771,88.685L117.771,88.685z
		 M120.987,101.146h-1.371V85.484h1.371V101.146z"/>
	<path fill="#040000" d="M131.518,93.271h6.451v1.145H123.73v-1.145h6.434v-2.23h1.354L131.518,93.271L131.518,93.271z
		 M136.702,87.349h-4.957c0.089,1.74,2.707,3.084,5.433,3.375l-0.51,1.09c-2.559-0.309-4.957-1.424-5.818-3.164
		c-0.854,1.74-3.243,2.855-5.818,3.164l-0.51-1.09c2.725-0.291,5.326-1.617,5.432-3.375h-4.922v-1.125h11.672L136.702,87.349
		L136.702,87.349z M136.229,98.388c-0.018,1.74-2.021,2.689-5.379,2.689c-3.394,0-5.396-0.949-5.396-2.689s2.004-2.689,5.396-2.689
		C134.206,95.697,136.211,96.646,136.229,98.388z M126.858,98.388c-0.018,1.02,1.459,1.617,3.99,1.617c2.496,0,3.99-0.6,3.99-1.617
		c0-1.02-1.494-1.6-3.99-1.6C128.317,96.789,126.842,97.369,126.858,98.388z"/>
	<path fill="#040000" d="M153.016,93.501l-0.773,1.07c-1.714-0.686-3.076-2.047-3.744-3.742c-0.668,1.889-2.092,3.393-3.938,4.131
		l-0.738-1.125c2.338-0.861,3.955-3.041,3.974-5.449v-1.934h1.354v1.984C149.147,90.619,150.729,92.675,153.016,93.501z
		 M157.11,100.777h-10.459v-4.902h1.389v3.744h9.07V100.777z M156.76,97.21h-1.39v-6.873h-3.479v-1.16h3.479v-3.674h1.39V97.21z"/>
	<path fill="#040000" d="M168.643,93.113l-0.721,1.107c-1.759-0.633-3.12-1.941-3.779-3.568c-0.686,1.838-2.136,3.307-3.99,4.01
		l-0.721-1.107c2.32-0.844,3.973-2.953,3.973-5.186v-0.58h-3.533v-1.16h8.42v1.16h-3.497v0.563
		C164.793,90.39,166.356,92.322,168.643,93.113z M172.368,98.193c0,1.848-1.985,2.9-5.237,2.918
		c-3.252-0.018-5.238-1.07-5.238-2.918c0-1.846,1.986-2.898,5.238-2.898S172.368,96.349,172.368,98.193z M163.264,98.193
		c-0.019,1.125,1.477,1.813,3.867,1.813c2.39,0,3.866-0.688,3.866-1.813c0-1.143-1.477-1.826-3.866-1.826
		C164.74,96.367,163.245,97.052,163.264,98.193z M172.315,94.802h-1.389v-4.096h-3.146v-1.145h3.146v-4.078h1.389V94.802z"/>
	<path fill="#040000" d="M187.592,92.869h-7.33v-6.363h7.33V92.869z M193.27,99.986l-0.475,1.072
		c-2.355-0.314-4.5-1.424-5.414-2.883c-0.949,1.486-3.146,2.566-5.502,2.883l-0.492-1.072c2.688-0.299,5.272-1.811,5.272-3.375
		h-4.623v-1.07h4.642v-1.529h1.371v1.529h4.676v1.07h-4.641C188.084,98.142,190.579,99.652,193.27,99.986z M181.614,91.777h4.623
		V87.63h-4.623V91.777z M192.319,94.468h-1.354v-8.982h1.354V94.468z"/>
	<path fill="#040000" d="M208.368,88.21h-8.842v-1.145h3.797v-1.723h1.371v1.723h3.674V88.21z M207.561,91.796
		c0,1.688-1.477,2.795-3.568,2.795c-2.108,0-3.551-1.107-3.533-2.795c-0.018-1.705,1.425-2.83,3.533-2.83
		C206.084,88.966,207.561,90.091,207.561,91.796z M201.741,91.796c0,1.037,0.896,1.758,2.25,1.758c1.354,0,2.269-0.721,2.285-1.758
		c-0.018-1.055-0.932-1.758-2.285-1.758C202.639,90.039,201.741,90.742,201.741,91.796z M203.657,97.035h7.437v-1.652h1.371v5.52
		h-10.179v-5.52h1.371V97.035L203.657,97.035z M211.094,99.794v-1.689h-7.437v1.689H211.094z M212.465,94.73h-1.39v-1.389h-2.725
		v-1.141h2.725v-1.916h-2.707V89.14h2.707v-3.656h1.39V94.73z"/>
	<path fill="#040000" d="M223.573,90.107c-0.018,2.197-1.739,3.709-4.112,3.709s-4.113-1.512-4.097-3.709
		c-0.018-2.162,1.724-3.689,4.097-3.674C221.834,86.417,223.557,87.945,223.573,90.107z M216.719,90.107
		c-0.019,1.494,1.16,2.531,2.742,2.516c1.6,0.018,2.76-1.021,2.76-2.516c0-1.477-1.16-2.496-2.76-2.496
		C217.879,87.611,216.7,88.632,216.719,90.107z M227.282,101.111h-1.371v-4.465h-8.858v-1.143h10.229V101.111z M229.604,89.037
		h-2.32v2.195h2.32v1.18h-2.32v2.373h-1.371v-9.301h1.371v2.428h2.32V89.037z"/>
	<path fill="#040000" d="M80.522,121.523l-0.791,1.037c-1.556-0.844-2.681-2.461-3.252-4.342c-0.563,2.004-1.679,3.744-3.234,4.693
		l-0.825-1.055c2.127-1.23,3.375-3.973,3.393-6.557v-0.773h-2.971v-1.143h2.971v-2.32h1.318v2.32h2.918v1.143h-2.937v0.773
		C77.112,117.814,78.396,120.382,80.522,121.523z M82.737,125.304h-1.301v-7.471h-2.461v-1.18h2.461v-5.781h1.301V125.304z
		 M85.901,126.111h-1.317v-15.627h1.317V126.111z"/>
	<path fill="#040000" d="M101.055,118.482h-1.389v-1.635H95.5v-1.09h4.166v-1.881h-3.938c-0.984,2.471-3.41,4.131-6.873,4.957
		l-0.492-1.143c3.832-0.889,6.064-2.76,6.328-5.273h-5.537v-1.143h7.049c0,0.52-0.053,1.02-0.141,1.494h3.604v-2.285h1.389V118.482
		L101.055,118.482z M101.055,123.001h-8.719v1.828h9.245v1.143H90.965v-4.025h8.7v-1.635H90.93v-1.125h10.125V123.001
		L101.055,123.001z"/>
</g>
</svg>
