<?xml version="1.0" encoding="utf-8"?>
<!-- Generator: Adobe Illustrator 16.0.0, SVG Export Plug-In . SVG Version: 6.00 Build 0)  -->
<!DOCTYPE svg PUBLIC "-//W3C//DTD SVG 1.1//EN" "http://www.w3.org/Graphics/SVG/1.1/DTD/svg11.dtd">
<svg version="1.1" id="Layer_1" xmlns="http://www.w3.org/2000/svg" xmlns:xlink="http://www.w3.org/1999/xlink" x="0px" y="0px"
	 width="264.383px" height="143.835px" viewBox="0 0 264.383 143.835" enable-background="new 0 0 264.383 143.835"
	 xml:space="preserve">
<g id="_x30_1" display="none">
	<path display="inline" fill="none" d="M56.01,138.314c0.4,0.051,0.806,0.084,1.22,0.084h193.368c5.278,0,9.571-4.188,9.571-9.339
		V14.438c0-5.148-4.293-9.338-9.571-9.338H57.23c-5.278,0-9.572,4.189-9.572,9.338v61.103h8.353v62.773H56.01z"/>
	<g display="inline">
		<path fill="#5193A5" d="M250.695,4.1H57.325c-5.829,0-10.571,4.638-10.571,10.338v61.103h1V14.438
			c0-5.148,4.294-9.338,9.571-9.338h193.368c5.277,0,9.57,4.189,9.57,9.338V129.06c0,5.148-4.293,9.339-9.57,9.339H57.325
			c-0.414,0-0.818-0.032-1.219-0.084v1.011c0.399,0.045,0.806,0.073,1.219,0.073h193.368c5.83,0,10.57-4.639,10.57-10.339V14.438
			C261.266,8.737,256.523,4.1,250.695,4.1z"/>
		<g>
			<path fill="#5193A5" d="M3.389,107.859c0-13.009,5.204-20.593,14.005-20.593c8.803,0,14.007,7.584,14.007,20.593
				c0,13.12-5.148,20.596-14.007,20.596C8.483,128.455,3.389,120.979,3.389,107.859z M26.53,107.859
				c0-10.352-3.377-16.273-9.135-16.273c-5.757,0-9.188,5.922-9.188,16.273c0,10.354,3.377,16.165,9.188,16.165
				C23.153,124.024,26.53,118.21,26.53,107.859z"/>
			<path fill="#5193A5" d="M52.218,127.899H47.18V93.023h-0.221L37.216,99.5v-5.037l9.964-6.646h5.038V127.899z"/>
		</g>
		<rect x="52.355" y="47.223" fill="#AAB5C5" width="203.311" height="0.709"/>
	</g>
	<g display="inline">
		<path fill="#070001" d="M74.403,32.273l-0.984,1.292c-2.01-1.056-3.691-3.209-4.491-5.741c-0.819,2.696-2.543,4.993-4.594,6.091
			l-1.025-1.292c2.666-1.313,4.778-4.819,4.8-8.143v-3.321h1.578v3.321C69.685,27.701,71.819,31.001,74.403,32.273z M77.683,26.982
			h3.057v1.396h-3.057v9.434h-1.6V19.58h1.6V26.982z"/>
		<path fill="#070001" d="M91.404,23.948h3.813V19.58h1.62v9.781h-1.62V25.28h-3.794c-0.328,2.153-2.205,3.59-4.676,3.59
			c-2.77,0-4.737-1.724-4.737-4.226c0-2.48,1.97-4.225,4.737-4.204C89.199,20.419,91.054,21.845,91.404,23.948z M83.548,24.644
			c0,1.661,1.333,2.871,3.199,2.871c1.846,0,3.158-1.21,3.158-2.871c0-1.682-1.313-2.851-3.158-2.83
			C84.881,21.793,83.548,22.962,83.548,24.644z M86.707,32.601h8.511v-2.316h1.62v7.279H85.086v-7.279h1.62L86.707,32.601
			L86.707,32.601z M95.217,36.251v-2.358h-8.511v2.358H95.217z"/>
		<path fill="#070001" d="M121.754,29.402h-16.591v-1.313h6.87v-3.527h1.579v3.527h8.142V29.402L121.754,29.402z M119.786,34.448
			c0,2.092-2.481,3.321-6.398,3.321c-3.896,0-6.378-1.229-6.378-3.321c0-2.112,2.481-3.344,6.378-3.344
			C117.304,31.104,119.786,32.334,119.786,34.448z M119.642,22.06c0,1.478,0,2.953-0.513,4.84l-1.579-0.185
			c0.492-1.887,0.492-3.22,0.492-4.655v-0.226h-10.91v-1.313h12.51V22.06z M108.61,34.448c-0.021,1.271,1.865,2.051,4.777,2.051
			c2.912,0,4.778-0.779,4.799-2.051c-0.021-1.292-1.887-2.093-4.799-2.112C110.475,32.355,108.588,33.156,108.61,34.448z"/>
		<path fill="#070001" d="M139.904,35.226h-16.61v-1.333h6.521v-6.521h1.578v6.521h8.511V35.226L139.904,35.226z M137.915,23.25
			c-0.021,2.234-0.021,4.736-0.677,8.408l-1.643-0.186c0.697-3.486,0.697-6.05,0.697-8.224v-0.492h-11.238v-1.332h12.858
			L137.915,23.25L137.915,23.25z"/>
		<path fill="#070001" d="M161.499,28.192h-8.552v-7.424h8.552V28.192z M168.123,36.498l-0.555,1.251
			c-2.748-0.369-5.25-1.661-6.315-3.363c-1.106,1.733-3.671,2.994-6.419,3.363l-0.574-1.251c3.139-0.35,6.152-2.112,6.152-3.938
			h-5.395v-1.251h5.414v-1.784h1.6v1.784h5.455v1.251h-5.414C162.074,34.344,164.986,36.108,168.123,36.498z M154.527,26.92h5.394
			v-4.84h-5.394V26.92z M167.016,30.058h-1.58V19.58h1.58V30.058z"/>
		<path fill="#070001" d="M186.457,28.706l-0.841,1.292c-2.112-0.811-3.753-2.451-4.554-4.554c-0.811,2.235-2.472,4.03-4.595,4.882
			l-0.882-1.251c2.77-1.066,4.635-3.754,4.635-6.624v-1.826h1.643v1.825C181.842,25.218,183.75,27.72,186.457,28.706z
			 M191.031,37.42h-12.348v-5.68h1.602v4.326h10.746V37.42L191.031,37.42z M190.456,32.97h-1.601V19.599h1.601V32.97z"/>
		<path fill="#070001" d="M204.421,28.602l-0.778,1.251c-2.111-0.625-3.805-2.01-4.613-3.813c-0.801,2-2.461,3.567-4.637,4.286
			l-0.777-1.23c2.687-0.902,4.572-3.117,4.572-5.599v-0.391h-4.121v-1.292h4.121v-2.316h1.619v2.316h4.082v1.292h-4.123v0.391
			C199.766,25.772,201.736,27.802,204.421,28.602z M208.729,34.448c0,2.111-2.316,3.321-6.11,3.321s-6.111-1.21-6.111-3.321
			c0-2.134,2.317-3.322,6.111-3.322S208.729,32.314,208.729,34.448z M198.105,34.448c-0.021,1.271,1.724,2.051,4.513,2.051
			c2.81,0,4.512-0.779,4.512-2.051c0-1.292-1.702-2.052-4.512-2.071C199.828,32.396,198.084,33.156,198.105,34.448z M208.667,30.632
			h-1.62v-4.491h-3.73v-1.333h3.73V19.58h1.62V30.632z"/>
		<path fill="#070001" d="M222.531,28.11l-0.842,1.251c-2.062-0.749-3.649-2.275-4.431-4.162c-0.79,2.111-2.471,3.804-4.635,4.594
			l-0.841-1.271c2.688-0.964,4.635-3.384,4.635-5.968V22.02h-4.122v-1.333h9.823v1.333h-4.081v0.533
			C218.039,24.89,219.865,27.187,222.531,28.11z M216.686,32.642h8.512v-2.275h1.6v7.197h-11.729v-7.197h1.619L216.686,32.642
			L216.686,32.642z M225.197,36.251v-2.317h-8.512v2.317H225.197z M226.795,29.484h-1.6v-4.122h-3.691v-1.354h3.691v-4.43h1.6
			V29.484z"/>
		<path fill="#070001" d="M246.462,31.207h-7.547v6.604h-1.579v-6.604h-7.484v-1.354h16.61V31.207z M245.643,26.532l-0.656,1.313
			c-2.829-0.472-5.629-2.041-6.809-4.286c-1.17,2.256-3.98,3.814-6.81,4.286l-0.656-1.313c3.281-0.451,6.624-2.646,6.624-5.25
			v-1.047h1.661v1.047C238.998,23.844,242.361,26.081,245.643,26.532z"/>
	</g>
	<g display="inline">
		<path fill="#070001" d="M79.556,79.401h-6.45v1.67c2.952,0.123,4.692,1.091,4.711,2.742c-0.019,1.74-2.021,2.726-5.379,2.726
			c-3.394,0-5.396-0.983-5.396-2.726c0-1.651,1.731-2.619,4.711-2.742v-1.67h-6.434v-1.144h14.237V79.401z M78.291,72.809h-4.957
			c0.088,1.758,2.672,3.12,5.432,3.41l-0.51,1.09c-2.558-0.308-4.957-1.45-5.818-3.199c-0.853,1.749-3.242,2.894-5.817,3.199
			l-0.492-1.09c2.707-0.29,5.309-1.652,5.414-3.41H66.62v-1.125h11.672L78.291,72.809L78.291,72.809z M68.448,83.813
			c-0.019,1.037,1.477,1.651,3.989,1.651c2.479,0,3.99-0.614,3.99-1.651c0-1.056-1.512-1.67-3.99-1.688
			C69.923,82.143,68.429,82.757,68.448,83.813z"/>
		<path fill="#070001" d="M95.183,84.535H80.875v-1.144h6.398v-3.832h1.354v3.832h6.557L95.183,84.535L95.183,84.535z
			 M94.481,78.591l-0.615,1.144c-2.382-0.481-4.896-2.101-5.906-4.358c-1.028,2.25-3.524,3.877-5.906,4.358l-0.614-1.144
			c2.725-0.475,5.782-2.76,5.782-5.379v-1.194h1.441v1.194C88.662,75.833,91.755,78.119,94.481,78.591z"/>
		<path fill="#070001" d="M106.714,82.354h-1.317v-5.713h-2.162v3.217h-6.082v-7.646h1.301v2.637h3.479v-2.637h1.302V75.5h2.162
			v-4.235h1.317V82.354z M101.933,78.714v-2.776h-3.479v2.776H101.933z M110.177,86.24H99.455v-5.011h1.371v3.851h9.352
			L110.177,86.24L110.177,86.24z M109.703,82.83h-1.318V70.946h1.318V82.83z"/>
		<path fill="#070001" d="M121.462,82.196l-0.791,1.072c-1.774-0.815-3.252-2.521-3.938-4.588c-0.687,2.18-2.146,4.008-3.92,4.868
			l-0.791-1.071c2.284-1.071,4.008-3.744,4.008-6.435v-1.248h-3.586v-1.125h3.586v-2.425h1.371v2.425h3.532v1.125h-3.551v1.248
			C117.384,78.626,119.142,81.16,121.462,82.196z M124.944,86.608h-1.39V78.38h-3.428v-1.143h3.428v-6.294h1.39V86.608z"/>
		<path fill="#070001" d="M128.494,83.637l-0.756-1.125c4.228-2.005,6.381-5.001,6.696-8.736h-5.977v-1.125h7.383
			C135.824,77.151,133.732,81.125,128.494,83.637z M140.464,86.574h-1.389V70.946h1.389V86.574z"/>
		<path fill="#070001" d="M151.398,74.69h3.271v-3.744h1.39v8.386h-1.39v-3.498h-3.252c-0.28,1.847-1.89,3.076-4.008,3.076
			c-2.373,0-4.062-1.478-4.062-3.621c0-2.127,1.688-3.621,4.062-3.604C149.508,71.667,151.1,72.888,151.398,74.69z M144.666,75.289
			c0,1.424,1.143,2.461,2.742,2.461c1.582,0,2.707-1.037,2.707-2.461c0-1.44-1.125-2.442-2.707-2.427
			C145.809,72.844,144.666,73.846,144.666,75.289z M147.373,82.108h7.295v-1.985h1.389v6.239h-10.07v-6.239h1.389L147.373,82.108
			L147.373,82.108z M154.667,85.237v-2.021h-7.295v2.021H154.667z"/>
		<path fill="#070001" d="M172.949,81.352h-6.521v5.222h-1.354v-5.222h-6.436v-1.125h14.311V81.352z M161.839,73.757h7.875v-2.161
			h1.39v6.731h-10.635v-6.731h1.37V73.757L161.839,73.757z M169.714,77.205v-2.319h-7.875v2.319H169.714z"/>
		<path fill="#070001" d="M192.971,79.367H178.75v-1.125h5.889v-3.022h1.354v3.022h6.979L192.971,79.367L192.971,79.367z
			 M191.283,83.69c0,1.793-2.127,2.849-5.484,2.849c-3.34,0-5.467-1.056-5.467-2.849c0-1.812,2.127-2.864,5.467-2.864
			C189.157,80.826,191.283,81.878,191.283,83.69z M191.16,73.074c0,1.266,0,2.53-0.439,4.147l-1.354-0.158
			c0.422-1.616,0.422-2.76,0.422-3.989V72.88h-9.354v-1.126h10.725V73.074L191.16,73.074z M181.703,83.69
			c-0.02,1.091,1.6,1.759,4.096,1.759s4.096-0.668,4.113-1.759c-0.02-1.106-1.617-1.793-4.113-1.812
			C183.303,81.897,181.686,82.583,181.703,83.69z"/>
		<path fill="#070001" d="M208.527,84.358H194.29v-1.144h5.59v-5.59h1.354v5.59h7.295L208.527,84.358L208.527,84.358z
			 M206.822,74.091c-0.018,1.916-0.018,4.062-0.579,7.207l-1.406-0.157c0.599-2.988,0.599-5.187,0.599-7.049v-0.423h-9.633v-1.144
			h11.02V74.091z"/>
		<path fill="#070001" d="M221.992,84.216l3.938-3.938h-10.143V78.89h10.143l-3.938-3.938l0.982-0.969l5.592,5.592l-5.592,5.59
			L221.992,84.216z"/>
		<path fill="#070001" d="M77.94,104.401h-4.834v4.043h6.521v1.16H65.319v-1.16h6.434v-4.043h-4.604v-7.172h10.635v1.125h-9.246
			v4.922h9.404L77.94,104.401L77.94,104.401z"/>
		<path fill="#070001" d="M89.435,100.305c0,2.127-1.723,3.586-4.096,3.586s-4.096-1.459-4.096-3.586
			c0-2.146,1.723-3.604,4.096-3.586C87.712,96.703,89.435,98.162,89.435,100.305z M82.597,100.305
			c-0.018,1.424,1.144,2.442,2.742,2.442c1.582,0,2.742-1.021,2.742-2.442c0-1.423-1.16-2.443-2.742-2.427
			C83.74,97.862,82.58,98.88,82.597,100.305z M85.024,107.02h7.383v-1.897h1.371v6.239H83.653v-6.239h1.371V107.02z M92.407,110.237
			v-2.108h-7.383v2.108H92.407z M93.778,104.332h-1.371v-8.386h1.371V104.332z"/>
		<path fill="#070001" d="M96.958,104.578c-0.018-0.615,0.51-1.125,1.125-1.125c0.615,0,1.125,0.51,1.125,1.125
			c0,0.633-0.51,1.144-1.125,1.144C97.468,105.721,96.942,105.208,96.958,104.578z"/>
		<path fill="#070001" d="M115.24,104.367h-14.222v-1.125h5.89v-3.022h1.354v3.022h6.979L115.24,104.367L115.24,104.367z
			 M113.552,108.69c0,1.793-2.127,2.849-5.483,2.849c-3.34,0-5.468-1.056-5.468-2.849c0-1.812,2.128-2.864,5.468-2.864
			C111.425,105.826,113.552,106.878,113.552,108.69z M113.429,98.074c0,1.266,0,2.53-0.438,4.147l-1.354-0.158
			c0.422-1.616,0.422-2.76,0.422-3.989V97.88h-9.352v-1.125h10.723L113.429,98.074L113.429,98.074z M103.972,108.69
			c-0.018,1.091,1.601,1.759,4.097,1.759s4.096-0.668,4.112-1.759c-0.018-1.106-1.616-1.793-4.112-1.812
			C105.573,106.897,103.955,107.583,103.972,108.69z"/>
		<path fill="#070001" d="M128.987,97.809c0,1.194,0,2.584-0.422,4.535h2.303v1.143h-14.31v-1.143h10.652
			c0.404-1.942,0.404-3.341,0.404-4.535h-9.246v-1.144h10.617L128.987,97.809L128.987,97.809z M119.792,106.966h7.822v-2.073h1.371
			v6.469h-10.564v-6.469h1.371V106.966L119.792,106.966z M127.615,110.237v-2.18h-7.822v2.18H127.615z"/>
		<path fill="#070001" d="M133.064,108.637l-0.756-1.125c4.229-2.005,6.381-5.001,6.697-8.736h-5.978v-1.125h7.384
			C140.395,102.151,138.303,106.125,133.064,108.637z M145.035,111.574h-1.391V95.946h1.391V111.574z"/>
		<path fill="#070001" d="M155.968,99.69h3.271v-3.744h1.39v8.386h-1.39v-3.498h-3.252c-0.28,1.847-1.891,3.076-4.008,3.076
			c-2.373,0-4.062-1.478-4.062-3.621c0-2.127,1.688-3.621,4.062-3.604C154.079,96.667,155.669,97.888,155.968,99.69z
			 M149.236,100.289c0,1.424,1.144,2.461,2.742,2.461c1.582,0,2.707-1.037,2.707-2.461c0-1.44-1.125-2.442-2.707-2.427
			C150.378,97.844,149.236,98.846,149.236,100.289z M151.943,107.108h7.295v-1.985h1.39v6.239h-10.071v-6.239h1.389L151.943,107.108
			L151.943,107.108z M159.238,110.237v-2.021h-7.295v2.021H159.238z"/>
		<path fill="#070001" d="M171.789,102.608c0,3.322-1.67,5.433-3.99,5.433c-2.338,0-3.99-2.108-3.99-5.433
			c0-3.321,1.652-5.433,3.99-5.448C170.119,97.175,171.789,99.287,171.789,102.608z M165.145,102.608c0,2.55,1.09,4.201,2.653,4.201
			s2.654-1.651,2.654-4.201c0-2.549-1.091-4.2-2.654-4.219C166.234,98.408,165.145,100.059,165.145,102.608z M176.113,111.608
			h-1.389V95.946h1.389V111.608z"/>
		<path fill="#070001" d="M192.777,103.768l-0.721,1.106c-1.812-0.693-3.218-2.102-3.902-3.901
			c-0.693,1.916-2.117,3.454-3.938,4.185l-0.756-1.072c2.373-0.914,3.973-3.217,3.973-5.678v-1.563h1.406v1.563
			C188.822,100.781,190.457,102.923,192.777,103.768z M196.697,111.24h-10.581v-4.869h1.37v3.709h9.211V111.24z M196.205,107.423
			h-1.371V95.962h1.371V107.423z"/>
		<path fill="#070001" d="M208.175,103.68l-0.668,1.071c-1.812-0.535-3.261-1.724-3.954-3.271c-0.687,1.714-2.109,3.06-3.974,3.675
			l-0.668-1.056c2.303-0.772,3.92-2.672,3.92-4.799v-0.335h-3.533V97.86h3.533v-1.985h1.39v1.985h3.497v1.106h-3.532v0.335
			C204.186,101.253,205.873,102.996,208.175,103.68z M211.867,108.69c0,1.812-1.986,2.849-5.238,2.849s-5.238-1.037-5.238-2.849
			c0-1.828,1.986-2.849,5.238-2.849S211.867,106.862,211.867,108.69z M202.762,108.69c-0.019,1.091,1.477,1.759,3.866,1.759
			c2.408,0,3.867-0.668,3.867-1.759c0-1.106-1.459-1.758-3.867-1.774C204.238,106.932,202.744,107.583,202.762,108.69z
			 M211.814,105.419h-1.39v-3.851h-3.198v-1.144h3.198v-4.481h1.39V105.419z"/>
		<path fill="#070001" d="M228.214,103.257l-0.721,1.072c-1.769-0.643-3.13-1.951-3.798-3.567c-0.678,1.812-2.117,3.261-3.973,3.938
			l-0.722-1.092c2.304-0.824,3.974-2.898,3.974-5.113v-0.457h-3.533v-1.145h8.42v1.145h-3.497v0.457
			C224.365,100.5,225.93,102.466,228.214,103.257z M223.205,107.143h7.295v-1.951h1.371v6.17h-10.055v-6.17h1.389V107.143
			L223.205,107.143z M230.5,110.237v-1.985h-7.295v1.985H230.5z M231.871,104.436H230.5v-3.533h-3.164v-1.159h3.164v-3.797h1.371
			V104.436z"/>
		<path fill="#070001" d="M248.729,105.914h-6.47v5.66h-1.354v-5.66h-6.416v-1.16h14.238L248.729,105.914L248.729,105.914z
			 M248.025,101.906l-0.563,1.125c-2.426-0.404-4.824-1.749-5.836-3.675c-1.002,1.935-3.41,3.271-5.836,3.675l-0.563-1.125
			c2.813-0.388,5.678-2.269,5.678-4.5V96.51h1.424v0.896C242.33,99.602,245.212,101.518,248.025,101.906z"/>
	</g>
</g>
<g>
	<path fill="#5098AC" d="M250.435,4.335H57.064c-5.829,0-10.571,4.638-10.571,10.338v61.102h1V14.673
		c0-5.148,4.294-9.338,9.571-9.338h193.369c5.278,0,9.571,4.188,9.571,9.338v114.624c0,5.146-4.293,9.338-9.571,9.338H57.064
		c-0.414,0-0.818-0.033-1.219-0.084v1.01c0.399,0.045,0.806,0.074,1.219,0.074h193.369c5.829,0,10.571-4.641,10.571-10.338V14.673
		C261.006,8.973,256.264,4.335,250.435,4.335z"/>
	<g>
		<path fill="#5098AC" d="M3.13,108.095c0-13.01,5.202-20.594,14.006-20.594c8.802,0,14.006,7.584,14.006,20.594
			c0,13.119-5.148,20.594-14.006,20.594C8.223,128.687,3.13,121.214,3.13,108.095z M26.27,108.095
			c0-10.354-3.377-16.275-9.134-16.275c-5.758,0-9.189,5.924-9.189,16.275s3.377,16.164,9.189,16.164
			C22.893,124.259,26.27,118.445,26.27,108.095z"/>
		<path fill="#5098AC" d="M36.79,115.845l18.048-27.791h6.146v27.514h5.591v4.373h-5.591v8.193h-4.762v-8.193H36.79V115.845z
			 M56.222,115.566V94.365h-0.498L42.16,115.234v0.332H56.222z"/>
	</g>
	<rect x="52.095" y="47.458" fill="#ABB7C7" width="203.311" height="0.709"/>
</g>
<g>
	<path fill="#040000" d="M95.869,32.107L94.886,33.4c-2.011-1.057-3.691-3.21-4.491-5.741c-0.82,2.695-2.543,4.992-4.594,6.09
		l-1.025-1.291c2.666-1.313,4.778-4.82,4.799-8.144v-3.321h1.579v3.321C91.152,27.536,93.285,30.837,95.869,32.107z M99.15,26.816
		h3.057v1.396H99.15v9.434h-1.6V19.416h1.6V26.816z"/>
	<path fill="#040000" d="M112.87,23.781h3.814v-4.366h1.62v9.78h-1.62v-4.079h-3.794c-0.328,2.151-2.205,3.588-4.676,3.588
		c-2.77,0-4.737-1.724-4.737-4.226c0-2.479,1.969-4.225,4.737-4.203C110.666,20.255,112.521,21.681,112.87,23.781z M105.017,24.479
		c0,1.662,1.333,2.871,3.199,2.871c1.846,0,3.157-1.209,3.157-2.871c0-1.682-1.313-2.85-3.157-2.83
		C106.35,21.63,105.017,22.798,105.017,24.479z M108.175,32.437h8.511v-2.315h1.62v7.278h-11.751v-7.278h1.62V32.437z
		 M116.686,36.087v-2.357h-8.511v2.357H116.686z"/>
	<path fill="#040000" d="M137.727,27.085l-0.8,1.25c-2.133-0.729-3.835-2.256-4.655-4.226c-0.82,2.123-2.532,3.795-4.696,4.574
		l-0.841-1.271c2.748-0.966,4.696-3.386,4.696-6.07v-1.396h1.641v1.396C133.051,23.927,135.02,26.202,137.727,27.085z
		 M141.663,34.159h-10.232v1.969h10.89v1.313h-12.469v-4.53h10.213v-1.826h-10.254v-1.291h11.854L141.663,34.159L141.663,34.159z
		 M141.644,28.868h-1.579v-9.453h1.579V28.868z"/>
	<path fill="#040000" d="M154.01,22.9h-9.353v-1.293h3.896v-2.051h1.6v2.051h3.855L154.01,22.9L154.01,22.9z M153.271,27.003
		c-0.021,1.865-1.6,3.096-3.917,3.096c-2.297,0-3.917-1.229-3.896-3.096c-0.021-1.908,1.6-3.117,3.896-3.117
		C151.672,23.886,153.25,25.095,153.271,27.003z M146.894,27.003c0,1.127,1.005,1.887,2.461,1.887s2.461-0.76,2.461-1.887
		c0-1.148-1.005-1.928-2.461-1.928S146.894,25.854,146.894,27.003z M160.347,34.468c0,1.988-2.297,3.137-6.132,3.137
		s-6.133-1.147-6.111-3.137c-0.021-2.051,2.276-3.199,6.111-3.199S160.347,32.417,160.347,34.468z M149.702,34.468
		c-0.021,1.188,1.683,1.887,4.513,1.887s4.512-0.696,4.531-1.887c-0.021-1.252-1.701-1.949-4.531-1.928
		C151.385,32.519,149.683,33.216,149.702,34.468z M160.243,30.96h-1.538V25.73h-2.439v4.572h-1.519v-10.52h1.519v4.612h2.439v-4.981
		h1.538V30.96z"/>
	<path fill="#040000" d="M177.695,28.027h-8.552v-7.424h8.552V28.027z M184.319,36.333l-0.554,1.252
		c-2.748-0.369-5.25-1.662-6.316-3.363c-1.106,1.732-3.671,2.994-6.419,3.363l-0.574-1.252c3.139-0.349,6.152-2.111,6.152-3.938
		h-5.394v-1.25h5.414v-1.785h1.6v1.785h5.455v1.25h-5.414C178.271,34.181,181.183,35.943,184.319,36.333z M170.724,26.757h5.394
		v-4.84h-5.394V26.757z M183.213,29.894h-1.579V19.415h1.579V29.894z"/>
	<path fill="#040000" d="M197.015,28.786c2.02-0.082,4.11-0.226,6.009-0.492l0.104,1.188c-3.814,0.656-8.225,0.738-11.465,0.738
		l-0.164-1.332c1.18-0.011,2.514-0.021,3.917-0.063v-3.957h1.601L197.015,28.786L197.015,28.786z M201.711,21.794
		c-0.021,1.188-0.021,3.014-0.473,5.393l-1.62-0.123c0.44-2.184,0.481-3.731,0.514-4.881h-7.506v-1.354h9.085V21.794L201.711,21.794
		z M206.488,37.257h-12.182v-5.354h1.62v4h10.562V37.257z M205.895,25.361h2.666v1.373h-2.666v6.398h-1.641V19.414h1.641V25.361z"/>
	<path fill="#040000" d="M219.266,27.597h-6.81v4.307c3.024,0,5.723-0.133,8.982-0.655l0.164,1.354
		c-3.363,0.533-6.132,0.656-9.271,0.656h-1.518v-6.973h6.829v-3.834h-6.87v-1.334h8.49v6.479H219.266z M224.803,37.687h-1.601
		V19.416h1.601V37.687z"/>
</g>
<g>
	<rect x="71.913" y="55.984" fill="none" width="173.5" height="76.5"/>
	<path fill="#040000" d="M81.827,69.792l-0.844,1.106c-1.723-0.903-3.164-2.75-3.85-4.922c-0.703,2.313-2.181,4.281-3.938,5.222
		l-0.879-1.107c2.285-1.125,4.096-4.131,4.113-6.979v-2.848h1.354v2.848C77.784,65.872,79.612,68.702,81.827,69.792z M84.641,65.257
		h2.619v1.195h-2.619v8.086H83.27V58.911h1.371V65.257z"/>
	<path fill="#040000" d="M96.399,62.654h3.271v-3.743h1.389v8.385H99.67v-3.498h-3.252c-0.281,1.846-1.891,3.076-4.009,3.076
		c-2.373,0-4.061-1.478-4.061-3.621c0-2.127,1.688-3.621,4.061-3.604C94.511,59.632,96.102,60.854,96.399,62.654z M89.668,63.253
		c0,1.424,1.143,2.461,2.741,2.461c1.582,0,2.707-1.037,2.707-2.461c0-1.441-1.125-2.443-2.707-2.426
		C90.811,60.81,89.668,61.812,89.668,63.253z M92.375,70.072h7.295v-1.985h1.389v6.241H90.986v-6.241h1.389V70.072L92.375,70.072z
		 M99.67,73.203v-2.022h-7.295v2.022H99.67z"/>
	<path fill="#040000" d="M117.389,66.732l-0.668,1.09c-1.793-0.563-3.19-1.766-3.867-3.305c-0.686,1.697-2.127,2.988-3.955,3.604
		l-0.703-1.09c2.338-0.722,3.955-2.603,3.955-4.712v-0.352h-3.533v-1.107h3.533v-2.004h1.389v2.004h3.498v1.107h-3.533v0.352
		C113.504,64.255,115.086,66.048,117.389,66.732z M120.395,74.572h-1.371v-4.165h-8.859v-1.144h10.23V74.572z M120.395,63.095h2.354
		v1.178h-2.354v4.185h-1.371v-9.545h1.371V63.095z"/>
	<path fill="#040000" d="M137.973,68.878h-6.469v5.661h-1.354v-5.661h-6.416v-1.16h14.238L137.973,68.878L137.973,68.878z
		 M137.27,64.87l-0.563,1.125c-2.426-0.404-4.824-1.748-5.836-3.675c-1.002,1.935-3.409,3.271-5.836,3.675l-0.563-1.125
		c2.813-0.388,5.678-2.269,5.678-4.5v-0.896h1.424v0.896C131.573,62.566,134.456,64.482,137.27,64.87z"/>
	<path fill="#040000" d="M149.504,73.748h-1.318v-5.415h-2.9v-1.144h2.9v-2.776h-2.637c-0.766,2.646-2.479,4.983-5.433,6.75
		l-0.844-1.002c3.401-2.013,5.106-4.834,5.379-8.104h-4.676v-1.143h6.047c0,0.801-0.07,1.592-0.211,2.354h2.373v-3.938h1.317v14.417
		H149.504z M152.668,74.539h-1.318V58.911h1.318V74.539z"/>
	<path fill="#040000" d="M167.327,70.021l-0.844,1.021c-1.538-0.922-2.628-2.609-3.164-4.605c-0.571,2.154-1.705,3.99-3.27,4.976
		l-0.879-1.037c2.18-1.302,3.444-4.148,3.444-6.996V61.9h-3.006v-1.143h7.207V61.9h-2.865v1.478
		C163.952,66.083,165.165,68.771,167.327,70.021z M169.561,73.728h-1.301v-8.05h-2.638v-1.125h2.638v-5.256h1.301V73.728z
		 M172.725,74.539h-1.318V58.911h1.318V74.539z"/>
	<path fill="#040000" d="M189.159,66.943h-6.45v1.459h4.622v3.375h-9.28v1.529h9.756v1.055H176.68v-3.567h9.299v-1.354h-9.334
		v-1.037h4.711v-1.459h-6.416v-1.071h14.221L189.159,66.943L189.159,66.943z M182.709,60.281h5.01v1.091h-4.904
		c0.255,1.557,2.698,2.541,5.572,2.725l-0.422,1.055c-2.61-0.219-4.967-1.026-5.924-2.514c-0.959,1.486-3.313,2.295-5.941,2.514
		l-0.404-1.055c2.856-0.184,5.3-1.168,5.572-2.725h-4.869v-1.09h4.957v-1.46h1.354L182.709,60.281L182.709,60.281z"/>
	<path fill="#040000" d="M209.305,70.179h-6.521v4.395h-1.354v-4.395h-6.435v-1.143h14.31V70.179z M208.407,61.847h-12.674v-1.143
		h5.695v-1.882h1.354v1.882h5.625V61.847z M207.213,65.361c0,1.652-1.916,2.584-5.099,2.603c-3.199-0.019-5.115-0.949-5.098-2.603
		c-0.019-1.688,1.897-2.618,5.098-2.618C205.297,62.743,207.213,63.675,207.213,65.361z M198.44,65.361
		c-0.018,0.968,1.336,1.529,3.674,1.529c2.304,0,3.656-0.563,3.674-1.529c-0.018-0.983-1.37-1.563-3.674-1.563
		C199.776,63.798,198.424,64.378,198.44,65.361z"/>
	<path fill="#040000" d="M86.854,97.412H72.546v-1.145h14.309V97.412z M86.116,91.787l-0.633,1.158
		c-2.354-0.545-4.843-2.223-5.854-4.533c-1.012,2.303-3.489,3.98-5.854,4.533l-0.633-1.158c2.707-0.527,5.748-2.885,5.748-5.572
		v-1.195h1.44v1.195C80.334,88.886,83.393,91.275,86.116,91.787z"/>
	<path fill="#040000" d="M95.961,95.564h-7.207v-10.07h7.207V95.564z M90.09,94.439h4.5v-7.84h-4.5V94.439z M100.196,90.15h2.619
		v1.195h-2.619v8.191h-1.371V83.91h1.371V90.15z"/>
	<path fill="#040000" d="M117.969,97.5h-14.31v-1.145h14.31V97.5z M116.315,93.492h-10.811v-8.229h10.635v1.16h-9.229v2.32h8.896
		v1.107h-8.896v2.514h9.404L116.315,93.492L116.315,93.492z"/>
	<path fill="#040000" d="M133.454,92.332h-14.221v-1.125h5.889v-3.023h1.354v3.023h6.979L133.454,92.332L133.454,92.332z
		 M131.768,96.654c0,1.793-2.127,2.85-5.484,2.85c-3.34,0-5.467-1.057-5.467-2.85c0-1.811,2.127-2.863,5.467-2.863
		C129.641,93.791,131.768,94.845,131.768,96.654z M131.645,86.039c0,1.266,0,2.529-0.439,4.146l-1.354-0.158
		c0.422-1.615,0.422-2.76,0.422-3.988v-0.193h-9.352V84.72h10.723V86.039z M122.188,96.654c-0.018,1.092,1.6,1.76,4.096,1.76
		s4.097-0.668,4.113-1.76c-0.018-1.105-1.617-1.793-4.113-1.811C123.786,94.861,122.17,95.548,122.188,96.654z"/>
	<path fill="#040000" d="M143.896,91.505l-0.65,1.09c-1.802-0.588-3.164-1.836-3.832-3.41c-0.677,1.793-2.117,3.191-3.989,3.867
		l-0.703-1.107c2.338-0.791,3.973-2.813,3.99-5.063v-0.668h-3.568V85.07h8.438v1.145h-3.516v0.668
		C140.063,88.921,141.594,90.75,143.896,91.505z M147.131,96.621c0,1.826-1.935,2.883-5.15,2.883s-5.186-1.057-5.186-2.883
		c0-1.793,1.969-2.85,5.186-2.85S147.131,94.828,147.131,96.621z M138.184,96.621c-0.019,1.125,1.44,1.773,3.797,1.773
		c2.373,0,3.814-0.648,3.814-1.773c0-1.092-1.441-1.74-3.814-1.74C139.625,94.88,138.165,95.529,138.184,96.621z M146.989,87.9
		h2.355v1.16h-2.355v4.289h-1.371v-9.438h1.371V87.9z"/>
	<path fill="#040000" d="M167.204,86.302c0,1.486,0,3.094-0.438,5.344h2.32v1.143h-6.451v6.785h-1.39v-6.785h-6.397v-1.143h10.512
		c0.475-2.25,0.475-3.893,0.475-5.344v-0.23h-9.192v-1.143h10.563L167.204,86.302L167.204,86.302z"/>
	<path fill="#040000" d="M184.643,92.912h-6.451v1.793h4.693v4.779h-1.39V95.83h-9.51v-1.125h4.853v-1.793h-6.435v-1.125h14.238
		L184.643,92.912L184.643,92.912z M178.19,85.458h5.01v1.105h-4.922c0.097,1.775,2.566,2.998,5.521,3.287l-0.457,1.055
		c-2.575-0.279-4.878-1.221-5.818-2.813c-0.949,1.592-3.252,2.531-5.818,2.813l-0.456-1.055c2.936-0.289,5.404-1.512,5.52-3.287
		h-4.887v-1.105h4.957v-1.617h1.354v1.617H178.19z"/>
	<path fill="#040000" d="M200.11,92.015l-0.703,1.107c-1.818-0.615-3.27-1.898-3.973-3.553c-0.687,1.785-2.153,3.191-4.008,3.867
		l-0.722-1.105c2.338-0.826,4.009-2.85,4.009-5.064v-0.914h-3.656v-1.125h8.647v1.125h-3.604v0.914
		C196.104,89.378,197.772,91.275,200.11,92.015z M203.872,99.205H193.29V94.3h1.371v3.744h9.211V99.205L203.872,99.205z
		 M203.381,95.39h-1.371V83.929h1.371V95.39z"/>
	<path fill="#040000" d="M213.963,86.898h-8.017v-1.105h3.34v-1.758h1.371v1.758h3.306V86.898z M213.329,90.416
		c-0.018,1.6-1.37,2.652-3.356,2.652c-1.969,0-3.357-1.055-3.34-2.652c-0.019-1.637,1.371-2.672,3.34-2.672
		C211.959,87.744,213.313,88.779,213.329,90.416z M207.862,90.416c0,0.967,0.861,1.617,2.109,1.617s2.108-0.65,2.108-1.617
		c0-0.984-0.86-1.652-2.108-1.652S207.862,89.431,207.862,90.416z M219.395,96.812c0,1.705-1.969,2.689-5.256,2.689
		s-5.256-0.984-5.238-2.689c-0.018-1.758,1.951-2.742,5.238-2.742S219.395,95.056,219.395,96.812z M210.271,96.812
		c-0.018,1.021,1.441,1.617,3.867,1.617s3.867-0.598,3.885-1.617c-0.018-1.07-1.459-1.67-3.885-1.65
		C211.713,95.144,210.254,95.742,210.271,96.812z M219.307,93.808h-1.318v-4.482h-2.092v3.92h-1.301v-9.018h1.301v3.955h2.092
		v-4.271h1.318V93.808z"/>
	<path fill="#040000" d="M234.266,91.294h-7.33v-6.363h7.33V91.294z M239.942,98.414l-0.475,1.07
		c-2.355-0.314-4.5-1.424-5.414-2.883c-0.949,1.486-3.146,2.566-5.502,2.883l-0.492-1.07c2.688-0.301,5.272-1.813,5.272-3.375
		h-4.622v-1.072h4.641v-1.529h1.371v1.529h4.676v1.072h-4.641C234.758,96.566,237.254,98.08,239.942,98.414z M228.288,90.205h4.623
		v-4.148h-4.623V90.205z M238.993,92.894h-1.354v-8.982h1.354V92.894z"/>
	<path fill="#040000" d="M86.784,117.365h-6.45v1.67c2.952,0.123,4.692,1.092,4.711,2.742c-0.019,1.74-2.021,2.727-5.38,2.727
		c-3.393,0-5.396-0.984-5.396-2.727c0-1.65,1.73-2.619,4.711-2.742v-1.67h-6.434v-1.143h14.237V117.365L86.784,117.365z
		 M85.52,110.773h-4.957c0.088,1.758,2.672,3.121,5.432,3.41l-0.51,1.09c-2.558-0.307-4.957-1.449-5.818-3.197
		c-0.853,1.748-3.242,2.893-5.817,3.197l-0.492-1.09c2.707-0.289,5.31-1.652,5.414-3.41h-4.922v-1.125h11.672L85.52,110.773
		L85.52,110.773z M75.676,121.777c-0.019,1.037,1.477,1.652,3.989,1.652c2.479,0,3.99-0.615,3.99-1.652
		c0-1.055-1.512-1.67-3.99-1.688C77.151,120.107,75.657,120.724,75.676,121.777z"/>
	<path fill="#040000" d="M88.719,118.544l-0.599-1.107c3.744-1.168,6.188-3.4,6.486-6.152h-5.836v-1.16h7.33
		C96.102,114.148,93.219,117.138,88.719,118.544z M101.04,124.203H90.528v-5.01h1.371v3.852h9.141V124.203L101.04,124.203z
		 M100.319,113.675h2.355v1.16h-2.355v5.52h-1.389v-11.443h1.389V113.675z"/>
	<path fill="#040000" d="M117.459,116.47l-0.722,1.09c-1.767-0.633-3.129-1.951-3.797-3.568c-0.677,1.803-2.118,3.244-3.973,3.92
		l-0.722-1.09c2.304-0.826,3.974-2.9,3.974-5.133v-0.615h-3.533v-1.143h8.42v1.143h-3.498v0.615
		C113.608,113.71,115.174,115.66,117.459,116.47z M121.133,124.326H110.92v-5.482h10.213V124.326z M112.29,123.201h7.488v-3.252
		h-7.488V123.201z M121.133,118.068h-1.39v-4.078h-3.164v-1.16h3.164v-3.918h1.39V118.068z"/>
	<path fill="#040000" d="M124.489,117.945l-0.58-1.09c3.735-1.055,6.117-3.129,6.416-5.781h-5.606v-1.145h7.084
		C131.784,113.851,128.989,116.662,124.489,117.945z M136.688,124.326h-10.143v-5.816h10.143V124.326z M127.883,123.201h7.436
		v-3.586h-7.436V123.201z M136.688,117.841h-1.388v-3.729h-3.463v-1.16h3.463v-4.023h1.389L136.688,117.841L136.688,117.841z"/>
</g>
</svg>
