<?xml version="1.0" encoding="utf-8"?>
<!-- Generator: Adobe Illustrator 16.0.0, SVG Export Plug-In . SVG Version: 6.00 Build 0)  -->
<!DOCTYPE svg PUBLIC "-//W3C//DTD SVG 1.1//EN" "http://www.w3.org/Graphics/SVG/1.1/DTD/svg11.dtd">
<svg version="1.1" id="Layer_1" xmlns="http://www.w3.org/2000/svg" xmlns:xlink="http://www.w3.org/1999/xlink" x="0px" y="0px"
	 width="264.383px" height="143.835px" viewBox="0 0 264.383 143.835" enable-background="new 0 0 264.383 143.835"
	 xml:space="preserve">
<g id="_x30_1" display="none">
	<path display="inline" fill="none" d="M56.01,138.314c0.4,0.051,0.806,0.084,1.22,0.084h193.368c5.278,0,9.571-4.188,9.571-9.339
		V14.438c0-5.148-4.293-9.338-9.571-9.338H57.23c-5.278,0-9.572,4.189-9.572,9.338v61.103h8.353v62.773H56.01z"/>
	<g display="inline">
		<path fill="#5193A5" d="M250.695,4.1H57.325c-5.829,0-10.571,4.638-10.571,10.338v61.103h1V14.438
			c0-5.148,4.294-9.338,9.571-9.338h193.368c5.277,0,9.57,4.189,9.57,9.338V129.06c0,5.148-4.293,9.339-9.57,9.339H57.325
			c-0.414,0-0.818-0.032-1.219-0.084v1.011c0.399,0.045,0.806,0.073,1.219,0.073h193.368c5.83,0,10.57-4.639,10.57-10.339V14.438
			C261.266,8.737,256.523,4.1,250.695,4.1z"/>
		<g>
			<path fill="#5193A5" d="M3.389,107.859c0-13.009,5.204-20.593,14.005-20.593c8.803,0,14.007,7.584,14.007,20.593
				c0,13.12-5.148,20.596-14.007,20.596C8.483,128.455,3.389,120.979,3.389,107.859z M26.53,107.859
				c0-10.352-3.377-16.273-9.135-16.273c-5.757,0-9.188,5.922-9.188,16.273c0,10.354,3.377,16.165,9.188,16.165
				C23.153,124.024,26.53,118.21,26.53,107.859z"/>
			<path fill="#5193A5" d="M52.218,127.899H47.18V93.023h-0.221L37.216,99.5v-5.037l9.964-6.646h5.038V127.899z"/>
		</g>
		<rect x="52.355" y="47.223" fill="#AAB5C5" width="203.311" height="0.709"/>
	</g>
	<g display="inline">
		<path fill="#070001" d="M74.403,32.273l-0.984,1.292c-2.01-1.056-3.691-3.209-4.491-5.741c-0.819,2.696-2.543,4.993-4.594,6.091
			l-1.025-1.292c2.666-1.313,4.778-4.819,4.8-8.143v-3.321h1.578v3.321C69.685,27.701,71.819,31.001,74.403,32.273z M77.683,26.982
			h3.057v1.396h-3.057v9.434h-1.6V19.58h1.6V26.982z"/>
		<path fill="#070001" d="M91.404,23.948h3.813V19.58h1.62v9.781h-1.62V25.28h-3.794c-0.328,2.153-2.205,3.59-4.676,3.59
			c-2.77,0-4.737-1.724-4.737-4.226c0-2.48,1.97-4.225,4.737-4.204C89.199,20.419,91.054,21.845,91.404,23.948z M83.548,24.644
			c0,1.661,1.333,2.871,3.199,2.871c1.846,0,3.158-1.21,3.158-2.871c0-1.682-1.313-2.851-3.158-2.83
			C84.881,21.793,83.548,22.962,83.548,24.644z M86.707,32.601h8.511v-2.316h1.62v7.279H85.086v-7.279h1.62L86.707,32.601
			L86.707,32.601z M95.217,36.251v-2.358h-8.511v2.358H95.217z"/>
		<path fill="#070001" d="M121.754,29.402h-16.591v-1.313h6.87v-3.527h1.579v3.527h8.142V29.402L121.754,29.402z M119.786,34.448
			c0,2.092-2.481,3.321-6.398,3.321c-3.896,0-6.378-1.229-6.378-3.321c0-2.112,2.481-3.344,6.378-3.344
			C117.304,31.104,119.786,32.334,119.786,34.448z M119.642,22.06c0,1.478,0,2.953-0.513,4.84l-1.579-0.185
			c0.492-1.887,0.492-3.22,0.492-4.655v-0.226h-10.91v-1.313h12.51V22.06z M108.61,34.448c-0.021,1.271,1.865,2.051,4.777,2.051
			c2.912,0,4.778-0.779,4.799-2.051c-0.021-1.292-1.887-2.093-4.799-2.112C110.475,32.355,108.588,33.156,108.61,34.448z"/>
		<path fill="#070001" d="M139.904,35.226h-16.61v-1.333h6.521v-6.521h1.578v6.521h8.511V35.226L139.904,35.226z M137.915,23.25
			c-0.021,2.234-0.021,4.736-0.677,8.408l-1.643-0.186c0.697-3.486,0.697-6.05,0.697-8.224v-0.492h-11.238v-1.332h12.858
			L137.915,23.25L137.915,23.25z"/>
		<path fill="#070001" d="M161.499,28.192h-8.552v-7.424h8.552V28.192z M168.123,36.498l-0.555,1.251
			c-2.748-0.369-5.25-1.661-6.315-3.363c-1.106,1.733-3.671,2.994-6.419,3.363l-0.574-1.251c3.139-0.35,6.152-2.112,6.152-3.938
			h-5.395v-1.251h5.414v-1.784h1.6v1.784h5.455v1.251h-5.414C162.074,34.344,164.986,36.108,168.123,36.498z M154.527,26.92h5.394
			v-4.84h-5.394V26.92z M167.016,30.058h-1.58V19.58h1.58V30.058z"/>
		<path fill="#070001" d="M186.457,28.706l-0.841,1.292c-2.112-0.811-3.753-2.451-4.554-4.554c-0.811,2.235-2.472,4.03-4.595,4.882
			l-0.882-1.251c2.77-1.066,4.635-3.754,4.635-6.624v-1.826h1.643v1.825C181.842,25.218,183.75,27.72,186.457,28.706z
			 M191.031,37.42h-12.348v-5.68h1.602v4.326h10.746V37.42L191.031,37.42z M190.456,32.97h-1.601V19.599h1.601V32.97z"/>
		<path fill="#070001" d="M204.421,28.602l-0.778,1.251c-2.111-0.625-3.805-2.01-4.613-3.813c-0.801,2-2.461,3.567-4.637,4.286
			l-0.777-1.23c2.687-0.902,4.572-3.117,4.572-5.599v-0.391h-4.121v-1.292h4.121v-2.316h1.619v2.316h4.082v1.292h-4.123v0.391
			C199.766,25.772,201.736,27.802,204.421,28.602z M208.729,34.448c0,2.111-2.316,3.321-6.11,3.321s-6.111-1.21-6.111-3.321
			c0-2.134,2.317-3.322,6.111-3.322S208.729,32.314,208.729,34.448z M198.105,34.448c-0.021,1.271,1.724,2.051,4.513,2.051
			c2.81,0,4.512-0.779,4.512-2.051c0-1.292-1.702-2.052-4.512-2.071C199.828,32.396,198.084,33.156,198.105,34.448z M208.667,30.632
			h-1.62v-4.491h-3.73v-1.333h3.73V19.58h1.62V30.632z"/>
		<path fill="#070001" d="M222.531,28.11l-0.842,1.251c-2.062-0.749-3.649-2.275-4.431-4.162c-0.79,2.111-2.471,3.804-4.635,4.594
			l-0.841-1.271c2.688-0.964,4.635-3.384,4.635-5.968V22.02h-4.122v-1.333h9.823v1.333h-4.081v0.533
			C218.039,24.89,219.865,27.187,222.531,28.11z M216.686,32.642h8.512v-2.275h1.6v7.197h-11.729v-7.197h1.619L216.686,32.642
			L216.686,32.642z M225.197,36.251v-2.317h-8.512v2.317H225.197z M226.795,29.484h-1.6v-4.122h-3.691v-1.354h3.691v-4.43h1.6
			V29.484z"/>
		<path fill="#070001" d="M246.462,31.207h-7.547v6.604h-1.579v-6.604h-7.484v-1.354h16.61V31.207z M245.643,26.532l-0.656,1.313
			c-2.829-0.472-5.629-2.041-6.809-4.286c-1.17,2.256-3.98,3.814-6.81,4.286l-0.656-1.313c3.281-0.451,6.624-2.646,6.624-5.25
			v-1.047h1.661v1.047C238.998,23.844,242.361,26.081,245.643,26.532z"/>
	</g>
	<g display="inline">
		<path fill="#070001" d="M79.556,79.401h-6.45v1.67c2.952,0.123,4.692,1.091,4.711,2.742c-0.019,1.74-2.021,2.726-5.379,2.726
			c-3.394,0-5.396-0.983-5.396-2.726c0-1.651,1.731-2.619,4.711-2.742v-1.67h-6.434v-1.144h14.237V79.401z M78.291,72.809h-4.957
			c0.088,1.758,2.672,3.12,5.432,3.41l-0.51,1.09c-2.558-0.308-4.957-1.45-5.818-3.199c-0.853,1.749-3.242,2.894-5.817,3.199
			l-0.492-1.09c2.707-0.29,5.309-1.652,5.414-3.41H66.62v-1.125h11.672L78.291,72.809L78.291,72.809z M68.448,83.813
			c-0.019,1.037,1.477,1.651,3.989,1.651c2.479,0,3.99-0.614,3.99-1.651c0-1.056-1.512-1.67-3.99-1.688
			C69.923,82.143,68.429,82.757,68.448,83.813z"/>
		<path fill="#070001" d="M95.183,84.535H80.875v-1.144h6.398v-3.832h1.354v3.832h6.557L95.183,84.535L95.183,84.535z
			 M94.481,78.591l-0.615,1.144c-2.382-0.481-4.896-2.101-5.906-4.358c-1.028,2.25-3.524,3.877-5.906,4.358l-0.614-1.144
			c2.725-0.475,5.782-2.76,5.782-5.379v-1.194h1.441v1.194C88.662,75.833,91.755,78.119,94.481,78.591z"/>
		<path fill="#070001" d="M106.714,82.354h-1.317v-5.713h-2.162v3.217h-6.082v-7.646h1.301v2.637h3.479v-2.637h1.302V75.5h2.162
			v-4.235h1.317V82.354z M101.933,78.714v-2.776h-3.479v2.776H101.933z M110.177,86.24H99.455v-5.011h1.371v3.851h9.352
			L110.177,86.24L110.177,86.24z M109.703,82.83h-1.318V70.946h1.318V82.83z"/>
		<path fill="#070001" d="M121.462,82.196l-0.791,1.072c-1.774-0.815-3.252-2.521-3.938-4.588c-0.687,2.18-2.146,4.008-3.92,4.868
			l-0.791-1.071c2.284-1.071,4.008-3.744,4.008-6.435v-1.248h-3.586v-1.125h3.586v-2.425h1.371v2.425h3.532v1.125h-3.551v1.248
			C117.384,78.626,119.142,81.16,121.462,82.196z M124.944,86.608h-1.39V78.38h-3.428v-1.143h3.428v-6.294h1.39V86.608z"/>
		<path fill="#070001" d="M128.494,83.637l-0.756-1.125c4.228-2.005,6.381-5.001,6.696-8.736h-5.977v-1.125h7.383
			C135.824,77.151,133.732,81.125,128.494,83.637z M140.464,86.574h-1.389V70.946h1.389V86.574z"/>
		<path fill="#070001" d="M151.398,74.69h3.271v-3.744h1.39v8.386h-1.39v-3.498h-3.252c-0.28,1.847-1.89,3.076-4.008,3.076
			c-2.373,0-4.062-1.478-4.062-3.621c0-2.127,1.688-3.621,4.062-3.604C149.508,71.667,151.1,72.888,151.398,74.69z M144.666,75.289
			c0,1.424,1.143,2.461,2.742,2.461c1.582,0,2.707-1.037,2.707-2.461c0-1.44-1.125-2.442-2.707-2.427
			C145.809,72.844,144.666,73.846,144.666,75.289z M147.373,82.108h7.295v-1.985h1.389v6.239h-10.07v-6.239h1.389L147.373,82.108
			L147.373,82.108z M154.667,85.237v-2.021h-7.295v2.021H154.667z"/>
		<path fill="#070001" d="M172.949,81.352h-6.521v5.222h-1.354v-5.222h-6.436v-1.125h14.311V81.352z M161.839,73.757h7.875v-2.161
			h1.39v6.731h-10.635v-6.731h1.37V73.757L161.839,73.757z M169.714,77.205v-2.319h-7.875v2.319H169.714z"/>
		<path fill="#070001" d="M192.971,79.367H178.75v-1.125h5.889v-3.022h1.354v3.022h6.979L192.971,79.367L192.971,79.367z
			 M191.283,83.69c0,1.793-2.127,2.849-5.484,2.849c-3.34,0-5.467-1.056-5.467-2.849c0-1.812,2.127-2.864,5.467-2.864
			C189.157,80.826,191.283,81.878,191.283,83.69z M191.16,73.074c0,1.266,0,2.53-0.439,4.147l-1.354-0.158
			c0.422-1.616,0.422-2.76,0.422-3.989V72.88h-9.354v-1.126h10.725V73.074L191.16,73.074z M181.703,83.69
			c-0.02,1.091,1.6,1.759,4.096,1.759s4.096-0.668,4.113-1.759c-0.02-1.106-1.617-1.793-4.113-1.812
			C183.303,81.897,181.686,82.583,181.703,83.69z"/>
		<path fill="#070001" d="M208.527,84.358H194.29v-1.144h5.59v-5.59h1.354v5.59h7.295L208.527,84.358L208.527,84.358z
			 M206.822,74.091c-0.018,1.916-0.018,4.062-0.579,7.207l-1.406-0.157c0.599-2.988,0.599-5.187,0.599-7.049v-0.423h-9.633v-1.144
			h11.02V74.091z"/>
		<path fill="#070001" d="M221.992,84.216l3.938-3.938h-10.143V78.89h10.143l-3.938-3.938l0.982-0.969l5.592,5.592l-5.592,5.59
			L221.992,84.216z"/>
		<path fill="#070001" d="M77.94,104.401h-4.834v4.043h6.521v1.16H65.319v-1.16h6.434v-4.043h-4.604v-7.172h10.635v1.125h-9.246
			v4.922h9.404L77.94,104.401L77.94,104.401z"/>
		<path fill="#070001" d="M89.435,100.305c0,2.127-1.723,3.586-4.096,3.586s-4.096-1.459-4.096-3.586
			c0-2.146,1.723-3.604,4.096-3.586C87.712,96.703,89.435,98.162,89.435,100.305z M82.597,100.305
			c-0.018,1.424,1.144,2.442,2.742,2.442c1.582,0,2.742-1.021,2.742-2.442c0-1.423-1.16-2.443-2.742-2.427
			C83.74,97.862,82.58,98.88,82.597,100.305z M85.024,107.02h7.383v-1.897h1.371v6.239H83.653v-6.239h1.371V107.02z M92.407,110.237
			v-2.108h-7.383v2.108H92.407z M93.778,104.332h-1.371v-8.386h1.371V104.332z"/>
		<path fill="#070001" d="M96.958,104.578c-0.018-0.615,0.51-1.125,1.125-1.125c0.615,0,1.125,0.51,1.125,1.125
			c0,0.633-0.51,1.144-1.125,1.144C97.468,105.721,96.942,105.208,96.958,104.578z"/>
		<path fill="#070001" d="M115.24,104.367h-14.222v-1.125h5.89v-3.022h1.354v3.022h6.979L115.24,104.367L115.24,104.367z
			 M113.552,108.69c0,1.793-2.127,2.849-5.483,2.849c-3.34,0-5.468-1.056-5.468-2.849c0-1.812,2.128-2.864,5.468-2.864
			C111.425,105.826,113.552,106.878,113.552,108.69z M113.429,98.074c0,1.266,0,2.53-0.438,4.147l-1.354-0.158
			c0.422-1.616,0.422-2.76,0.422-3.989V97.88h-9.352v-1.125h10.723L113.429,98.074L113.429,98.074z M103.972,108.69
			c-0.018,1.091,1.601,1.759,4.097,1.759s4.096-0.668,4.112-1.759c-0.018-1.106-1.616-1.793-4.112-1.812
			C105.573,106.897,103.955,107.583,103.972,108.69z"/>
		<path fill="#070001" d="M128.987,97.809c0,1.194,0,2.584-0.422,4.535h2.303v1.143h-14.31v-1.143h10.652
			c0.404-1.942,0.404-3.341,0.404-4.535h-9.246v-1.144h10.617L128.987,97.809L128.987,97.809z M119.792,106.966h7.822v-2.073h1.371
			v6.469h-10.564v-6.469h1.371V106.966L119.792,106.966z M127.615,110.237v-2.18h-7.822v2.18H127.615z"/>
		<path fill="#070001" d="M133.064,108.637l-0.756-1.125c4.229-2.005,6.381-5.001,6.697-8.736h-5.978v-1.125h7.384
			C140.395,102.151,138.303,106.125,133.064,108.637z M145.035,111.574h-1.391V95.946h1.391V111.574z"/>
		<path fill="#070001" d="M155.968,99.69h3.271v-3.744h1.39v8.386h-1.39v-3.498h-3.252c-0.28,1.847-1.891,3.076-4.008,3.076
			c-2.373,0-4.062-1.478-4.062-3.621c0-2.127,1.688-3.621,4.062-3.604C154.079,96.667,155.669,97.888,155.968,99.69z
			 M149.236,100.289c0,1.424,1.144,2.461,2.742,2.461c1.582,0,2.707-1.037,2.707-2.461c0-1.44-1.125-2.442-2.707-2.427
			C150.378,97.844,149.236,98.846,149.236,100.289z M151.943,107.108h7.295v-1.985h1.39v6.239h-10.071v-6.239h1.389L151.943,107.108
			L151.943,107.108z M159.238,110.237v-2.021h-7.295v2.021H159.238z"/>
		<path fill="#070001" d="M171.789,102.608c0,3.322-1.67,5.433-3.99,5.433c-2.338,0-3.99-2.108-3.99-5.433
			c0-3.321,1.652-5.433,3.99-5.448C170.119,97.175,171.789,99.287,171.789,102.608z M165.145,102.608c0,2.55,1.09,4.201,2.653,4.201
			s2.654-1.651,2.654-4.201c0-2.549-1.091-4.2-2.654-4.219C166.234,98.408,165.145,100.059,165.145,102.608z M176.113,111.608
			h-1.389V95.946h1.389V111.608z"/>
		<path fill="#070001" d="M192.777,103.768l-0.721,1.106c-1.812-0.693-3.218-2.102-3.902-3.901
			c-0.693,1.916-2.117,3.454-3.938,4.185l-0.756-1.072c2.373-0.914,3.973-3.217,3.973-5.678v-1.563h1.406v1.563
			C188.822,100.781,190.457,102.923,192.777,103.768z M196.697,111.24h-10.581v-4.869h1.37v3.709h9.211V111.24z M196.205,107.423
			h-1.371V95.962h1.371V107.423z"/>
		<path fill="#070001" d="M208.175,103.68l-0.668,1.071c-1.812-0.535-3.261-1.724-3.954-3.271c-0.687,1.714-2.109,3.06-3.974,3.675
			l-0.668-1.056c2.303-0.772,3.92-2.672,3.92-4.799v-0.335h-3.533V97.86h3.533v-1.985h1.39v1.985h3.497v1.106h-3.532v0.335
			C204.186,101.253,205.873,102.996,208.175,103.68z M211.867,108.69c0,1.812-1.986,2.849-5.238,2.849s-5.238-1.037-5.238-2.849
			c0-1.828,1.986-2.849,5.238-2.849S211.867,106.862,211.867,108.69z M202.762,108.69c-0.019,1.091,1.477,1.759,3.866,1.759
			c2.408,0,3.867-0.668,3.867-1.759c0-1.106-1.459-1.758-3.867-1.774C204.238,106.932,202.744,107.583,202.762,108.69z
			 M211.814,105.419h-1.39v-3.851h-3.198v-1.144h3.198v-4.481h1.39V105.419z"/>
		<path fill="#070001" d="M228.214,103.257l-0.721,1.072c-1.769-0.643-3.13-1.951-3.798-3.567c-0.678,1.812-2.117,3.261-3.973,3.938
			l-0.722-1.092c2.304-0.824,3.974-2.898,3.974-5.113v-0.457h-3.533v-1.145h8.42v1.145h-3.497v0.457
			C224.365,100.5,225.93,102.466,228.214,103.257z M223.205,107.143h7.295v-1.951h1.371v6.17h-10.055v-6.17h1.389V107.143
			L223.205,107.143z M230.5,110.237v-1.985h-7.295v1.985H230.5z M231.871,104.436H230.5v-3.533h-3.164v-1.159h3.164v-3.797h1.371
			V104.436z"/>
		<path fill="#070001" d="M248.729,105.914h-6.47v5.66h-1.354v-5.66h-6.416v-1.16h14.238L248.729,105.914L248.729,105.914z
			 M248.025,101.906l-0.563,1.125c-2.426-0.404-4.824-1.749-5.836-3.675c-1.002,1.935-3.41,3.271-5.836,3.675l-0.563-1.125
			c2.813-0.388,5.678-2.269,5.678-4.5V96.51h1.424v0.896C242.33,99.602,245.212,101.518,248.025,101.906z"/>
	</g>
</g>
<path fill="none" d="M55.75,139.15c0.4,0.051,0.806,0.084,1.22,0.084h193.368c5.278,0,9.571-4.189,9.571-9.34V15.273
	c0-5.148-4.293-9.338-9.571-9.338H56.97c-5.278,0-9.572,4.189-9.572,9.338v61.101h8.353V139.15z"/>
<g>
	<path fill="#5098AC" d="M250.435,4.936H57.064c-5.829,0-10.571,4.638-10.571,10.338v61.101h1V15.273
		c0-5.148,4.294-9.338,9.571-9.338h193.369c5.277,0,9.57,4.189,9.57,9.338v114.623c0,5.148-4.293,9.338-9.57,9.338H57.064
		c-0.414,0-0.818-0.033-1.219-0.084v1.012c0.399,0.045,0.806,0.072,1.219,0.072h193.369c5.829,0,10.57-4.639,10.57-10.338V15.273
		C261.005,9.572,256.264,4.936,250.435,4.936z"/>
	<g>
		<path fill="#5098AC" d="M3.129,108.695c0-13.01,5.204-20.594,14.005-20.594c8.803,0,14.007,7.584,14.007,20.594
			c0,13.119-5.148,20.594-14.007,20.594C8.223,129.289,3.129,121.814,3.129,108.695z M26.27,108.695
			c0-10.352-3.377-16.275-9.135-16.275c-5.757,0-9.188,5.924-9.188,16.275s3.377,16.164,9.188,16.164
			C22.893,124.859,26.27,119.046,26.27,108.695z"/>
		<path fill="#5098AC" d="M51.958,128.734H46.92V93.859h-0.221l-9.743,6.477v-5.037l9.964-6.645h5.038V128.734z"/>
	</g>
	<rect x="52.095" y="48.059" fill="#ABB7C7" width="203.311" height="0.709"/>
</g>
<g>
	<path fill="#040000" d="M74.143,33.108L73.158,34.4c-2.01-1.056-3.691-3.209-4.491-5.741c-0.819,2.696-2.543,4.993-4.594,6.091
		l-1.025-1.292c2.666-1.313,4.778-4.819,4.8-8.143v-3.321h1.578v3.321C69.425,28.536,71.559,31.837,74.143,33.108z M77.423,27.817
		h3.057v1.396h-3.057v9.434h-1.6V20.415h1.6V27.817z"/>
	<path fill="#040000" d="M91.144,24.783h3.813v-4.368h1.62v9.781h-1.62v-4.081h-3.794c-0.328,2.153-2.205,3.59-4.676,3.59
		c-2.77,0-4.737-1.724-4.737-4.226c0-2.48,1.97-4.225,4.737-4.204C88.938,21.255,90.794,22.681,91.144,24.783z M83.288,25.479
		c0,1.661,1.333,2.871,3.199,2.871c1.846,0,3.158-1.21,3.158-2.871c0-1.682-1.313-2.851-3.158-2.83
		C84.621,22.629,83.288,23.798,83.288,25.479z M86.446,33.437h8.511V31.12h1.62v7.279H84.826V31.12h1.62V33.437z M94.957,37.087
		v-2.358h-8.511v2.358H94.957z"/>
	<path fill="#040000" d="M121.494,30.237h-16.591v-1.313h6.87v-3.527h1.579v3.527h8.142V30.237L121.494,30.237z M119.525,35.283
		c0,2.092-2.481,3.321-6.398,3.321c-3.896,0-6.378-1.229-6.378-3.321c0-2.112,2.481-3.344,6.378-3.344
		C117.044,31.939,119.525,33.17,119.525,35.283z M119.382,22.896c0,1.478,0,2.953-0.513,4.84l-1.579-0.185
		c0.492-1.887,0.492-3.22,0.492-4.655V22.67h-10.91v-1.313h12.51V22.896z M108.35,35.283c-0.021,1.271,1.865,2.051,4.777,2.051
		s4.778-0.779,4.799-2.051c-0.021-1.292-1.887-2.093-4.799-2.112C110.215,33.19,108.328,33.991,108.35,35.283z"/>
	<path fill="#040000" d="M139.645,36.062h-16.611v-1.333h6.521v-6.521h1.578v6.521h8.512V36.062L139.645,36.062z M137.654,24.085
		c-0.021,2.234-0.021,4.736-0.677,8.408l-1.642-0.186c0.697-3.486,0.697-6.05,0.697-8.224v-0.492h-11.238V22.26h12.858
		L137.654,24.085L137.654,24.085z"/>
	<path fill="#040000" d="M161.238,29.027h-8.552v-7.424h8.552V29.027z M167.862,37.333l-0.554,1.251
		c-2.748-0.369-5.25-1.661-6.316-3.363c-1.106,1.733-3.671,2.994-6.419,3.363l-0.574-1.251c3.139-0.35,6.152-2.112,6.152-3.938
		h-5.395v-1.251h5.414v-1.784h1.601v1.784h5.455v1.251h-5.414C161.813,35.18,164.726,36.943,167.862,37.333z M154.267,27.756h5.394
		v-4.84h-5.394V27.756z M166.755,30.894h-1.579V20.415h1.579V30.894z"/>
	<path fill="#040000" d="M186.196,29.541l-0.841,1.292c-2.112-0.811-3.753-2.451-4.553-4.554c-0.811,2.235-2.472,4.03-4.595,4.882
		l-0.882-1.251c2.77-1.066,4.635-3.754,4.635-6.624V21.46h1.642v1.825C181.582,26.054,183.489,28.556,186.196,29.541z
		 M190.771,38.256h-12.347v-5.681h1.601v4.326h10.746V38.256L190.771,38.256z M190.195,33.806h-1.6V20.435h1.6V33.806z"/>
	<path fill="#040000" d="M204.161,29.438l-0.779,1.251c-2.111-0.625-3.804-2.01-4.613-3.813c-0.801,2-2.461,3.567-4.636,4.286
		l-0.778-1.23c2.687-0.902,4.572-3.117,4.572-5.599v-0.391h-4.121v-1.292h4.121v-2.316h1.62v2.316h4.081v1.292h-4.122v0.391
		C199.506,26.607,201.476,28.638,204.161,29.438z M208.468,35.283c0,2.111-2.316,3.321-6.11,3.321s-6.111-1.21-6.111-3.321
		c0-2.134,2.317-3.322,6.111-3.322S208.468,33.149,208.468,35.283z M197.846,35.283c-0.021,1.271,1.723,2.051,4.512,2.051
		c2.81,0,4.512-0.779,4.512-2.051c0-1.292-1.702-2.052-4.512-2.071C199.567,33.231,197.824,33.991,197.846,35.283z M208.406,31.468
		h-1.62v-4.491h-3.731v-1.333h3.731v-5.229h1.62V31.468z"/>
	<path fill="#040000" d="M222.271,28.945l-0.841,1.251c-2.062-0.749-3.65-2.275-4.431-4.162c-0.79,2.111-2.471,3.804-4.635,4.594
		l-0.841-1.271c2.687-0.964,4.635-3.384,4.635-5.968v-0.533h-4.122v-1.333h9.823v1.333h-4.081v0.533
		C217.778,25.726,219.604,28.022,222.271,28.945z M216.425,33.478h8.512v-2.275h1.6v7.197h-11.729v-7.197h1.619L216.425,33.478
		L216.425,33.478z M224.937,37.087V34.77h-8.512v2.317H224.937z M226.535,30.319h-1.6v-4.122h-3.691v-1.354h3.691v-4.43h1.6V30.319z
		"/>
	<path fill="#040000" d="M246.202,32.042h-7.547v6.604h-1.579v-6.604h-7.485v-1.354h16.611V32.042z M245.382,27.367l-0.655,1.313
		c-2.83-0.472-5.629-2.041-6.81-4.286c-1.169,2.256-3.979,3.814-6.809,4.286l-0.656-1.313c3.281-0.451,6.624-2.646,6.624-5.25V21.07
		h1.661v1.047C238.737,24.68,242.102,26.916,245.382,27.367z"/>
</g>
<g>
	<path fill="#040000" d="M79.296,80.236h-6.45v1.67c2.952,0.123,4.692,1.092,4.711,2.742c-0.019,1.74-2.021,2.727-5.379,2.727
		c-3.394,0-5.396-0.984-5.396-2.727c0-1.65,1.731-2.619,4.711-2.742v-1.67h-6.434v-1.143h14.237V80.236z M78.03,73.644h-4.957
		c0.088,1.758,2.672,3.121,5.432,3.41l-0.51,1.09c-2.558-0.307-4.957-1.449-5.818-3.199c-0.853,1.75-3.242,2.893-5.817,3.199
		l-0.492-1.09c2.707-0.289,5.309-1.652,5.414-3.41h-4.922v-1.125h11.672L78.03,73.644L78.03,73.644z M68.188,84.648
		c-0.019,1.037,1.477,1.652,3.989,1.652c2.479,0,3.99-0.615,3.99-1.652c0-1.055-1.512-1.67-3.99-1.688
		C69.663,82.978,68.169,83.593,68.188,84.648z"/>
	<path fill="#040000" d="M94.923,85.371H80.614v-1.145h6.398v-3.832h1.354v3.832h6.557V85.371z M94.221,79.427l-0.615,1.143
		c-2.382-0.482-4.896-2.1-5.906-4.357c-1.028,2.25-3.524,3.875-5.906,4.357l-0.614-1.143c2.725-0.475,5.782-2.76,5.782-5.379v-1.195
		h1.441v1.195C88.401,76.667,91.495,78.955,94.221,79.427z"/>
	<path fill="#040000" d="M106.454,83.189h-1.317v-5.713h-2.162v3.217h-6.082v-7.645h1.301v2.637h3.479v-2.637h1.302v3.287h2.162
		v-4.237h1.317V83.189z M101.673,79.55v-2.777h-3.479v2.777H101.673z M109.917,87.076H99.194v-5.012h1.371v3.852h9.352V87.076z
		 M109.442,83.666h-1.318V71.781h1.318V83.666z"/>
	<path fill="#040000" d="M121.202,83.031l-0.791,1.072c-1.774-0.816-3.252-2.521-3.938-4.588c-0.687,2.18-2.146,4.008-3.92,4.869
		l-0.791-1.072c2.284-1.07,4.008-3.744,4.008-6.434V75.63h-3.586v-1.125h3.586V72.08h1.371v2.425h3.532v1.125h-3.551v1.248
		C117.124,79.462,118.882,81.996,121.202,83.031z M124.684,87.443h-1.39v-8.227h-3.428v-1.143h3.428V71.78h1.39V87.443z"/>
	<path fill="#040000" d="M128.233,84.472l-0.756-1.125c4.228-2.004,6.381-5,6.696-8.736h-5.977v-1.125h7.383
		C135.563,77.986,133.473,81.958,128.233,84.472z M140.204,87.41h-1.389V71.781h1.389V87.41z"/>
	<path fill="#040000" d="M151.139,75.525h3.27v-3.744h1.389v8.386h-1.389v-3.498h-3.252c-0.281,1.846-1.89,3.076-4.008,3.076
		c-2.373,0-4.062-1.479-4.062-3.621c0-2.127,1.688-3.621,4.062-3.605C149.248,72.501,150.839,73.724,151.139,75.525z
		 M144.405,76.125c0,1.424,1.143,2.461,2.742,2.461c1.582,0,2.707-1.037,2.707-2.461c0-1.441-1.125-2.443-2.707-2.428
		C145.548,73.679,144.405,74.681,144.405,76.125z M147.112,82.943h7.295v-1.984h1.389v6.238h-10.071v-6.238h1.389L147.112,82.943
		L147.112,82.943z M154.407,86.072v-2.02h-7.295v2.02H154.407z"/>
	<path fill="#040000" d="M172.688,82.187h-6.521v5.223h-1.354v-5.223h-6.435v-1.125h14.31V82.187z M161.579,74.593h7.875v-2.162
		h1.389v6.732h-10.635v-6.732h1.371V74.593L161.579,74.593z M169.454,78.041v-2.32h-7.875v2.32H169.454z"/>
	<path fill="#040000" d="M192.71,80.203h-14.221v-1.125h5.889v-3.023h1.354v3.023h6.979L192.71,80.203L192.71,80.203z
		 M191.022,84.525c0,1.793-2.127,2.85-5.484,2.85c-3.34,0-5.467-1.057-5.467-2.85c0-1.811,2.127-2.863,5.467-2.863
		C188.896,81.662,191.022,82.714,191.022,84.525z M190.899,73.91c0,1.266,0,2.529-0.439,4.146l-1.354-0.158
		c0.422-1.615,0.422-2.76,0.422-3.988v-0.193h-9.353v-1.127h10.724V73.91L190.899,73.91z M181.442,84.525
		c-0.019,1.092,1.6,1.76,4.096,1.76s4.096-0.668,4.113-1.76c-0.019-1.105-1.617-1.793-4.113-1.811
		C183.042,82.732,181.425,83.417,181.442,84.525z"/>
	<path fill="#040000" d="M208.268,85.193h-14.238V84.05h5.59v-5.59h1.354v5.59h7.295L208.268,85.193L208.268,85.193z
		 M206.563,74.927c-0.019,1.916-0.019,4.061-0.58,7.207l-1.406-0.158c0.598-2.988,0.598-5.186,0.598-7.049v-0.422h-9.633v-1.143
		h11.021V74.927z"/>
	<path fill="#040000" d="M221.731,85.052l3.938-3.938h-10.143v-1.389h10.143l-3.938-3.938l0.983-0.969l5.591,5.592l-5.591,5.59
		L221.731,85.052z"/>
	<path fill="#040000" d="M77.68,105.236h-4.834v4.043h6.521v1.16H65.059v-1.16h6.434v-4.043h-4.604v-7.172h10.635v1.125h-9.246
		v4.922h9.404L77.68,105.236L77.68,105.236z"/>
	<path fill="#040000" d="M89.175,101.14c0,2.127-1.723,3.586-4.096,3.586s-4.096-1.459-4.096-3.586c0-2.145,1.723-3.604,4.096-3.586
		C87.452,97.539,89.175,98.998,89.175,101.14z M82.337,101.14c-0.018,1.424,1.144,2.443,2.742,2.443c1.582,0,2.742-1.02,2.742-2.443
		c0-1.422-1.16-2.443-2.742-2.426C83.479,98.697,82.319,99.716,82.337,101.14z M84.764,107.855h7.383v-1.896h1.371v6.238H83.393
		v-6.238h1.371V107.855z M92.146,111.072v-2.107h-7.383v2.107H92.146z M93.518,105.167h-1.371v-8.387h1.371V105.167z"/>
	<path fill="#040000" d="M96.698,105.414c-0.018-0.615,0.51-1.125,1.125-1.125s1.125,0.51,1.125,1.125
		c0,0.633-0.51,1.143-1.125,1.143S96.682,106.044,96.698,105.414z"/>
	<path fill="#040000" d="M114.979,105.203h-14.222v-1.125h5.89v-3.023h1.354v3.023h6.979L114.979,105.203L114.979,105.203z
		 M113.292,109.525c0,1.793-2.127,2.85-5.483,2.85c-3.34,0-5.468-1.057-5.468-2.85c0-1.811,2.128-2.863,5.468-2.863
		C111.165,106.662,113.292,107.714,113.292,109.525z M113.169,98.91c0,1.266,0,2.529-0.438,4.146l-1.354-0.158
		c0.422-1.615,0.422-2.76,0.422-3.988v-0.193h-9.352v-1.125h10.723V98.91z M103.712,109.525c-0.018,1.092,1.601,1.76,4.097,1.76
		s4.096-0.668,4.112-1.76c-0.018-1.105-1.616-1.793-4.112-1.811C105.313,107.732,103.694,108.417,103.712,109.525z"/>
	<path fill="#040000" d="M128.727,98.644c0,1.195,0,2.584-0.422,4.535h2.303v1.143h-14.31v-1.143h10.652
		c0.404-1.941,0.404-3.34,0.404-4.535h-9.246v-1.143h10.617L128.727,98.644L128.727,98.644z M119.532,107.802h7.822v-2.074h1.371
		v6.469h-10.564v-6.469h1.371V107.802L119.532,107.802z M127.354,111.072v-2.18h-7.822v2.18H127.354z"/>
	<path fill="#040000" d="M132.805,109.472l-0.757-1.125c4.229-2.004,6.382-5,6.697-8.736h-5.977v-1.125h7.383
		C140.134,102.986,138.042,106.958,132.805,109.472z M144.774,112.41h-1.39V96.781h1.39V112.41z"/>
	<path fill="#040000" d="M155.708,100.525h3.271v-3.744h1.389v8.387h-1.389v-3.498h-3.252c-0.281,1.846-1.891,3.076-4.009,3.076
		c-2.372,0-4.061-1.479-4.061-3.621c0-2.127,1.688-3.621,4.061-3.605C153.818,97.501,155.409,98.724,155.708,100.525z
		 M148.977,101.125c0,1.424,1.143,2.461,2.741,2.461c1.582,0,2.707-1.037,2.707-2.461c0-1.441-1.125-2.443-2.707-2.428
		C150.118,98.679,148.977,99.681,148.977,101.125z M151.684,107.943h7.295v-1.984h1.389v6.238h-10.072v-6.238h1.39L151.684,107.943
		L151.684,107.943z M158.979,111.072v-2.02h-7.295v2.02H158.979z"/>
	<path fill="#040000" d="M171.528,103.443c0,3.322-1.67,5.434-3.99,5.434c-2.338,0-3.99-2.109-3.99-5.434
		c0-3.322,1.652-5.432,3.99-5.447C169.858,98.011,171.528,100.123,171.528,103.443z M164.884,103.443
		c0,2.551,1.091,4.201,2.654,4.201c1.564,0,2.654-1.65,2.654-4.201c0-2.549-1.09-4.199-2.654-4.219
		C165.975,99.244,164.884,100.894,164.884,103.443z M175.854,112.443h-1.39V96.781h1.39V112.443z"/>
	<path fill="#040000" d="M192.518,104.603l-0.722,1.107c-1.811-0.693-3.217-2.102-3.901-3.902c-0.694,1.916-2.118,3.455-3.938,4.186
		l-0.756-1.072c2.373-0.914,3.973-3.217,3.973-5.678v-1.564h1.406v1.564C188.563,101.617,190.196,103.759,192.518,104.603z
		 M196.438,112.076h-10.582v-4.869h1.371v3.709h9.211V112.076z M195.944,108.259h-1.371V96.798h1.371V108.259z"/>
	<path fill="#040000" d="M207.915,104.515l-0.668,1.072c-1.811-0.535-3.261-1.723-3.955-3.27c-0.686,1.713-2.108,3.059-3.973,3.674
		l-0.668-1.055c2.303-0.773,3.92-2.672,3.92-4.799v-0.334h-3.533v-1.107h3.533V96.71h1.389v1.986h3.498v1.107h-3.533v0.334
		C203.925,102.089,205.612,103.832,207.915,104.515z M211.606,109.525c0,1.813-1.986,2.85-5.238,2.85s-5.238-1.037-5.238-2.85
		c0-1.828,1.986-2.848,5.238-2.848S211.606,107.697,211.606,109.525z M202.501,109.525c-0.018,1.092,1.478,1.76,3.867,1.76
		c2.408,0,3.867-0.668,3.867-1.76c0-1.105-1.459-1.758-3.867-1.773C203.979,107.767,202.483,108.417,202.501,109.525z
		 M211.555,106.255h-1.39v-3.85h-3.199v-1.143h3.199v-4.482h1.39V106.255z"/>
	<path fill="#040000" d="M227.954,104.093l-0.721,1.072c-1.768-0.643-3.129-1.951-3.797-3.568c-0.678,1.813-2.118,3.262-3.974,3.939
		l-0.721-1.092c2.303-0.824,3.973-2.898,3.973-5.113v-0.457h-3.532V97.73h8.42v1.145h-3.498v0.457
		C224.104,101.333,225.669,103.302,227.954,104.093z M222.944,107.978h7.295v-1.951h1.371v6.17h-10.055v-6.17h1.389V107.978
		L222.944,107.978z M230.239,111.072v-1.984h-7.295v1.984H230.239z M231.61,105.271h-1.371v-3.533h-3.164v-1.158h3.164v-3.797h1.371
		V105.271z"/>
	<path fill="#040000" d="M248.468,106.75h-6.469v5.66h-1.354v-5.66h-6.416v-1.16h14.237L248.468,106.75L248.468,106.75z
		 M247.766,102.742l-0.563,1.125c-2.426-0.404-4.825-1.75-5.836-3.676c-1.002,1.936-3.41,3.271-5.836,3.676l-0.563-1.125
		c2.813-0.389,5.678-2.27,5.678-4.5v-0.896h1.424v0.896C242.069,100.437,244.952,102.353,247.766,102.742z"/>
</g>
</svg>
