<?xml version="1.0" encoding="utf-8"?>
<!-- Generator: Adobe Illustrator 16.0.0, SVG Export Plug-In . SVG Version: 6.00 Build 0)  -->
<!DOCTYPE svg PUBLIC "-//W3C//DTD SVG 1.1//EN" "http://www.w3.org/Graphics/SVG/1.1/DTD/svg11.dtd">
<svg version="1.1" id="Layer_1" xmlns="http://www.w3.org/2000/svg" xmlns:xlink="http://www.w3.org/1999/xlink" x="0px" y="0px"
	 width="264.383px" height="143.835px" viewBox="0 0 264.383 143.835" enable-background="new 0 0 264.383 143.835"
	 xml:space="preserve">
<g id="_x30_1" display="none">
	<path display="inline" fill="none" d="M56.01,138.314c0.4,0.051,0.806,0.084,1.22,0.084h193.368c5.278,0,9.571-4.188,9.571-9.339
		V14.438c0-5.148-4.293-9.338-9.571-9.338H57.23c-5.278,0-9.572,4.189-9.572,9.338v61.103h8.353v62.773H56.01z"/>
	<g display="inline">
		<path fill="#5193A5" d="M250.695,4.1H57.325c-5.829,0-10.571,4.638-10.571,10.338v61.103h1V14.438
			c0-5.148,4.294-9.338,9.571-9.338h193.368c5.277,0,9.57,4.189,9.57,9.338V129.06c0,5.148-4.293,9.339-9.57,9.339H57.325
			c-0.414,0-0.818-0.032-1.219-0.084v1.011c0.399,0.045,0.806,0.073,1.219,0.073h193.368c5.83,0,10.57-4.639,10.57-10.339V14.438
			C261.266,8.737,256.523,4.1,250.695,4.1z"/>
		<g>
			<path fill="#5193A5" d="M3.389,107.859c0-13.009,5.204-20.593,14.005-20.593c8.803,0,14.007,7.584,14.007,20.593
				c0,13.12-5.148,20.596-14.007,20.596C8.483,128.455,3.389,120.979,3.389,107.859z M26.53,107.859
				c0-10.352-3.377-16.273-9.135-16.273c-5.757,0-9.188,5.922-9.188,16.273c0,10.354,3.377,16.165,9.188,16.165
				C23.153,124.024,26.53,118.21,26.53,107.859z"/>
			<path fill="#5193A5" d="M52.218,127.899H47.18V93.023h-0.221L37.216,99.5v-5.037l9.964-6.646h5.038V127.899z"/>
		</g>
		<rect x="52.355" y="47.223" fill="#AAB5C5" width="203.311" height="0.709"/>
	</g>
	<g display="inline">
		<path fill="#070001" d="M74.403,32.273l-0.984,1.292c-2.01-1.056-3.691-3.209-4.491-5.741c-0.819,2.696-2.543,4.993-4.594,6.091
			l-1.025-1.292c2.666-1.313,4.778-4.819,4.8-8.143v-3.321h1.578v3.321C69.685,27.701,71.819,31.001,74.403,32.273z M77.683,26.982
			h3.057v1.396h-3.057v9.434h-1.6V19.58h1.6V26.982z"/>
		<path fill="#070001" d="M91.404,23.948h3.813V19.58h1.62v9.781h-1.62V25.28h-3.794c-0.328,2.153-2.205,3.59-4.676,3.59
			c-2.77,0-4.737-1.724-4.737-4.226c0-2.48,1.97-4.225,4.737-4.204C89.199,20.419,91.054,21.845,91.404,23.948z M83.548,24.644
			c0,1.661,1.333,2.871,3.199,2.871c1.846,0,3.158-1.21,3.158-2.871c0-1.682-1.313-2.851-3.158-2.83
			C84.881,21.793,83.548,22.962,83.548,24.644z M86.707,32.601h8.511v-2.316h1.62v7.279H85.086v-7.279h1.62L86.707,32.601
			L86.707,32.601z M95.217,36.251v-2.358h-8.511v2.358H95.217z"/>
		<path fill="#070001" d="M121.754,29.402h-16.591v-1.313h6.87v-3.527h1.579v3.527h8.142V29.402L121.754,29.402z M119.786,34.448
			c0,2.092-2.481,3.321-6.398,3.321c-3.896,0-6.378-1.229-6.378-3.321c0-2.112,2.481-3.344,6.378-3.344
			C117.304,31.104,119.786,32.334,119.786,34.448z M119.642,22.06c0,1.478,0,2.953-0.513,4.84l-1.579-0.185
			c0.492-1.887,0.492-3.22,0.492-4.655v-0.226h-10.91v-1.313h12.51V22.06z M108.61,34.448c-0.021,1.271,1.865,2.051,4.777,2.051
			c2.912,0,4.778-0.779,4.799-2.051c-0.021-1.292-1.887-2.093-4.799-2.112C110.475,32.355,108.588,33.156,108.61,34.448z"/>
		<path fill="#070001" d="M139.904,35.226h-16.61v-1.333h6.521v-6.521h1.578v6.521h8.511V35.226L139.904,35.226z M137.915,23.25
			c-0.021,2.234-0.021,4.736-0.677,8.408l-1.643-0.186c0.697-3.486,0.697-6.05,0.697-8.224v-0.492h-11.238v-1.332h12.858
			L137.915,23.25L137.915,23.25z"/>
		<path fill="#070001" d="M161.499,28.192h-8.552v-7.424h8.552V28.192z M168.123,36.498l-0.555,1.251
			c-2.748-0.369-5.25-1.661-6.315-3.363c-1.106,1.733-3.671,2.994-6.419,3.363l-0.574-1.251c3.139-0.35,6.152-2.112,6.152-3.938
			h-5.395v-1.251h5.414v-1.784h1.6v1.784h5.455v1.251h-5.414C162.074,34.344,164.986,36.108,168.123,36.498z M154.527,26.92h5.394
			v-4.84h-5.394V26.92z M167.016,30.058h-1.58V19.58h1.58V30.058z"/>
		<path fill="#070001" d="M186.457,28.706l-0.841,1.292c-2.112-0.811-3.753-2.451-4.554-4.554c-0.811,2.235-2.472,4.03-4.595,4.882
			l-0.882-1.251c2.77-1.066,4.635-3.754,4.635-6.624v-1.826h1.643v1.825C181.842,25.218,183.75,27.72,186.457,28.706z
			 M191.031,37.42h-12.348v-5.68h1.602v4.326h10.746V37.42L191.031,37.42z M190.456,32.97h-1.601V19.599h1.601V32.97z"/>
		<path fill="#070001" d="M204.421,28.602l-0.778,1.251c-2.111-0.625-3.805-2.01-4.613-3.813c-0.801,2-2.461,3.567-4.637,4.286
			l-0.777-1.23c2.687-0.902,4.572-3.117,4.572-5.599v-0.391h-4.121v-1.292h4.121v-2.316h1.619v2.316h4.082v1.292h-4.123v0.391
			C199.766,25.772,201.736,27.802,204.421,28.602z M208.729,34.448c0,2.111-2.316,3.321-6.11,3.321s-6.111-1.21-6.111-3.321
			c0-2.134,2.317-3.322,6.111-3.322S208.729,32.314,208.729,34.448z M198.105,34.448c-0.021,1.271,1.724,2.051,4.513,2.051
			c2.81,0,4.512-0.779,4.512-2.051c0-1.292-1.702-2.052-4.512-2.071C199.828,32.396,198.084,33.156,198.105,34.448z M208.667,30.632
			h-1.62v-4.491h-3.73v-1.333h3.73V19.58h1.62V30.632z"/>
		<path fill="#070001" d="M222.531,28.11l-0.842,1.251c-2.062-0.749-3.649-2.275-4.431-4.162c-0.79,2.111-2.471,3.804-4.635,4.594
			l-0.841-1.271c2.688-0.964,4.635-3.384,4.635-5.968V22.02h-4.122v-1.333h9.823v1.333h-4.081v0.533
			C218.039,24.89,219.865,27.187,222.531,28.11z M216.686,32.642h8.512v-2.275h1.6v7.197h-11.729v-7.197h1.619L216.686,32.642
			L216.686,32.642z M225.197,36.251v-2.317h-8.512v2.317H225.197z M226.795,29.484h-1.6v-4.122h-3.691v-1.354h3.691v-4.43h1.6
			V29.484z"/>
		<path fill="#070001" d="M246.462,31.207h-7.547v6.604h-1.579v-6.604h-7.484v-1.354h16.61V31.207z M245.643,26.532l-0.656,1.313
			c-2.829-0.472-5.629-2.041-6.809-4.286c-1.17,2.256-3.98,3.814-6.81,4.286l-0.656-1.313c3.281-0.451,6.624-2.646,6.624-5.25
			v-1.047h1.661v1.047C238.998,23.844,242.361,26.081,245.643,26.532z"/>
	</g>
	<g display="inline">
		<path fill="#070001" d="M79.556,79.401h-6.45v1.67c2.952,0.123,4.692,1.091,4.711,2.742c-0.019,1.74-2.021,2.726-5.379,2.726
			c-3.394,0-5.396-0.983-5.396-2.726c0-1.651,1.731-2.619,4.711-2.742v-1.67h-6.434v-1.144h14.237V79.401z M78.291,72.809h-4.957
			c0.088,1.758,2.672,3.12,5.432,3.41l-0.51,1.09c-2.558-0.308-4.957-1.45-5.818-3.199c-0.853,1.749-3.242,2.894-5.817,3.199
			l-0.492-1.09c2.707-0.29,5.309-1.652,5.414-3.41H66.62v-1.125h11.672L78.291,72.809L78.291,72.809z M68.448,83.813
			c-0.019,1.037,1.477,1.651,3.989,1.651c2.479,0,3.99-0.614,3.99-1.651c0-1.056-1.512-1.67-3.99-1.688
			C69.923,82.143,68.429,82.757,68.448,83.813z"/>
		<path fill="#070001" d="M95.183,84.535H80.875v-1.144h6.398v-3.832h1.354v3.832h6.557L95.183,84.535L95.183,84.535z
			 M94.481,78.591l-0.615,1.144c-2.382-0.481-4.896-2.101-5.906-4.358c-1.028,2.25-3.524,3.877-5.906,4.358l-0.614-1.144
			c2.725-0.475,5.782-2.76,5.782-5.379v-1.194h1.441v1.194C88.662,75.833,91.755,78.119,94.481,78.591z"/>
		<path fill="#070001" d="M106.714,82.354h-1.317v-5.713h-2.162v3.217h-6.082v-7.646h1.301v2.637h3.479v-2.637h1.302V75.5h2.162
			v-4.235h1.317V82.354z M101.933,78.714v-2.776h-3.479v2.776H101.933z M110.177,86.24H99.455v-5.011h1.371v3.851h9.352
			L110.177,86.24L110.177,86.24z M109.703,82.83h-1.318V70.946h1.318V82.83z"/>
		<path fill="#070001" d="M121.462,82.196l-0.791,1.072c-1.774-0.815-3.252-2.521-3.938-4.588c-0.687,2.18-2.146,4.008-3.92,4.868
			l-0.791-1.071c2.284-1.071,4.008-3.744,4.008-6.435v-1.248h-3.586v-1.125h3.586v-2.425h1.371v2.425h3.532v1.125h-3.551v1.248
			C117.384,78.626,119.142,81.16,121.462,82.196z M124.944,86.608h-1.39V78.38h-3.428v-1.143h3.428v-6.294h1.39V86.608z"/>
		<path fill="#070001" d="M128.494,83.637l-0.756-1.125c4.228-2.005,6.381-5.001,6.696-8.736h-5.977v-1.125h7.383
			C135.824,77.151,133.732,81.125,128.494,83.637z M140.464,86.574h-1.389V70.946h1.389V86.574z"/>
		<path fill="#070001" d="M151.398,74.69h3.271v-3.744h1.39v8.386h-1.39v-3.498h-3.252c-0.28,1.847-1.89,3.076-4.008,3.076
			c-2.373,0-4.062-1.478-4.062-3.621c0-2.127,1.688-3.621,4.062-3.604C149.508,71.667,151.1,72.888,151.398,74.69z M144.666,75.289
			c0,1.424,1.143,2.461,2.742,2.461c1.582,0,2.707-1.037,2.707-2.461c0-1.44-1.125-2.442-2.707-2.427
			C145.809,72.844,144.666,73.846,144.666,75.289z M147.373,82.108h7.295v-1.985h1.389v6.239h-10.07v-6.239h1.389L147.373,82.108
			L147.373,82.108z M154.667,85.237v-2.021h-7.295v2.021H154.667z"/>
		<path fill="#070001" d="M172.949,81.352h-6.521v5.222h-1.354v-5.222h-6.436v-1.125h14.311V81.352z M161.839,73.757h7.875v-2.161
			h1.39v6.731h-10.635v-6.731h1.37V73.757L161.839,73.757z M169.714,77.205v-2.319h-7.875v2.319H169.714z"/>
		<path fill="#070001" d="M192.971,79.367H178.75v-1.125h5.889v-3.022h1.354v3.022h6.979L192.971,79.367L192.971,79.367z
			 M191.283,83.69c0,1.793-2.127,2.849-5.484,2.849c-3.34,0-5.467-1.056-5.467-2.849c0-1.812,2.127-2.864,5.467-2.864
			C189.157,80.826,191.283,81.878,191.283,83.69z M191.16,73.074c0,1.266,0,2.53-0.439,4.147l-1.354-0.158
			c0.422-1.616,0.422-2.76,0.422-3.989V72.88h-9.354v-1.126h10.725V73.074L191.16,73.074z M181.703,83.69
			c-0.02,1.091,1.6,1.759,4.096,1.759s4.096-0.668,4.113-1.759c-0.02-1.106-1.617-1.793-4.113-1.812
			C183.303,81.897,181.686,82.583,181.703,83.69z"/>
		<path fill="#070001" d="M208.527,84.358H194.29v-1.144h5.59v-5.59h1.354v5.59h7.295L208.527,84.358L208.527,84.358z
			 M206.822,74.091c-0.018,1.916-0.018,4.062-0.579,7.207l-1.406-0.157c0.599-2.988,0.599-5.187,0.599-7.049v-0.423h-9.633v-1.144
			h11.02V74.091z"/>
		<path fill="#070001" d="M221.992,84.216l3.938-3.938h-10.143V78.89h10.143l-3.938-3.938l0.982-0.969l5.592,5.592l-5.592,5.59
			L221.992,84.216z"/>
		<path fill="#070001" d="M77.94,104.401h-4.834v4.043h6.521v1.16H65.319v-1.16h6.434v-4.043h-4.604v-7.172h10.635v1.125h-9.246
			v4.922h9.404L77.94,104.401L77.94,104.401z"/>
		<path fill="#070001" d="M89.435,100.305c0,2.127-1.723,3.586-4.096,3.586s-4.096-1.459-4.096-3.586
			c0-2.146,1.723-3.604,4.096-3.586C87.712,96.703,89.435,98.162,89.435,100.305z M82.597,100.305
			c-0.018,1.424,1.144,2.442,2.742,2.442c1.582,0,2.742-1.021,2.742-2.442c0-1.423-1.16-2.443-2.742-2.427
			C83.74,97.862,82.58,98.88,82.597,100.305z M85.024,107.02h7.383v-1.897h1.371v6.239H83.653v-6.239h1.371V107.02z M92.407,110.237
			v-2.108h-7.383v2.108H92.407z M93.778,104.332h-1.371v-8.386h1.371V104.332z"/>
		<path fill="#070001" d="M96.958,104.578c-0.018-0.615,0.51-1.125,1.125-1.125c0.615,0,1.125,0.51,1.125,1.125
			c0,0.633-0.51,1.144-1.125,1.144C97.468,105.721,96.942,105.208,96.958,104.578z"/>
		<path fill="#070001" d="M115.24,104.367h-14.222v-1.125h5.89v-3.022h1.354v3.022h6.979L115.24,104.367L115.24,104.367z
			 M113.552,108.69c0,1.793-2.127,2.849-5.483,2.849c-3.34,0-5.468-1.056-5.468-2.849c0-1.812,2.128-2.864,5.468-2.864
			C111.425,105.826,113.552,106.878,113.552,108.69z M113.429,98.074c0,1.266,0,2.53-0.438,4.147l-1.354-0.158
			c0.422-1.616,0.422-2.76,0.422-3.989V97.88h-9.352v-1.125h10.723L113.429,98.074L113.429,98.074z M103.972,108.69
			c-0.018,1.091,1.601,1.759,4.097,1.759s4.096-0.668,4.112-1.759c-0.018-1.106-1.616-1.793-4.112-1.812
			C105.573,106.897,103.955,107.583,103.972,108.69z"/>
		<path fill="#070001" d="M128.987,97.809c0,1.194,0,2.584-0.422,4.535h2.303v1.143h-14.31v-1.143h10.652
			c0.404-1.942,0.404-3.341,0.404-4.535h-9.246v-1.144h10.617L128.987,97.809L128.987,97.809z M119.792,106.966h7.822v-2.073h1.371
			v6.469h-10.564v-6.469h1.371V106.966L119.792,106.966z M127.615,110.237v-2.18h-7.822v2.18H127.615z"/>
		<path fill="#070001" d="M133.064,108.637l-0.756-1.125c4.229-2.005,6.381-5.001,6.697-8.736h-5.978v-1.125h7.384
			C140.395,102.151,138.303,106.125,133.064,108.637z M145.035,111.574h-1.391V95.946h1.391V111.574z"/>
		<path fill="#070001" d="M155.968,99.69h3.271v-3.744h1.39v8.386h-1.39v-3.498h-3.252c-0.28,1.847-1.891,3.076-4.008,3.076
			c-2.373,0-4.062-1.478-4.062-3.621c0-2.127,1.688-3.621,4.062-3.604C154.079,96.667,155.669,97.888,155.968,99.69z
			 M149.236,100.289c0,1.424,1.144,2.461,2.742,2.461c1.582,0,2.707-1.037,2.707-2.461c0-1.44-1.125-2.442-2.707-2.427
			C150.378,97.844,149.236,98.846,149.236,100.289z M151.943,107.108h7.295v-1.985h1.39v6.239h-10.071v-6.239h1.389L151.943,107.108
			L151.943,107.108z M159.238,110.237v-2.021h-7.295v2.021H159.238z"/>
		<path fill="#070001" d="M171.789,102.608c0,3.322-1.67,5.433-3.99,5.433c-2.338,0-3.99-2.108-3.99-5.433
			c0-3.321,1.652-5.433,3.99-5.448C170.119,97.175,171.789,99.287,171.789,102.608z M165.145,102.608c0,2.55,1.09,4.201,2.653,4.201
			s2.654-1.651,2.654-4.201c0-2.549-1.091-4.2-2.654-4.219C166.234,98.408,165.145,100.059,165.145,102.608z M176.113,111.608
			h-1.389V95.946h1.389V111.608z"/>
		<path fill="#070001" d="M192.777,103.768l-0.721,1.106c-1.812-0.693-3.218-2.102-3.902-3.901
			c-0.693,1.916-2.117,3.454-3.938,4.185l-0.756-1.072c2.373-0.914,3.973-3.217,3.973-5.678v-1.563h1.406v1.563
			C188.822,100.781,190.457,102.923,192.777,103.768z M196.697,111.24h-10.581v-4.869h1.37v3.709h9.211V111.24z M196.205,107.423
			h-1.371V95.962h1.371V107.423z"/>
		<path fill="#070001" d="M208.175,103.68l-0.668,1.071c-1.812-0.535-3.261-1.724-3.954-3.271c-0.687,1.714-2.109,3.06-3.974,3.675
			l-0.668-1.056c2.303-0.772,3.92-2.672,3.92-4.799v-0.335h-3.533V97.86h3.533v-1.985h1.39v1.985h3.497v1.106h-3.532v0.335
			C204.186,101.253,205.873,102.996,208.175,103.68z M211.867,108.69c0,1.812-1.986,2.849-5.238,2.849s-5.238-1.037-5.238-2.849
			c0-1.828,1.986-2.849,5.238-2.849S211.867,106.862,211.867,108.69z M202.762,108.69c-0.019,1.091,1.477,1.759,3.866,1.759
			c2.408,0,3.867-0.668,3.867-1.759c0-1.106-1.459-1.758-3.867-1.774C204.238,106.932,202.744,107.583,202.762,108.69z
			 M211.814,105.419h-1.39v-3.851h-3.198v-1.144h3.198v-4.481h1.39V105.419z"/>
		<path fill="#070001" d="M228.214,103.257l-0.721,1.072c-1.769-0.643-3.13-1.951-3.798-3.567c-0.678,1.812-2.117,3.261-3.973,3.938
			l-0.722-1.092c2.304-0.824,3.974-2.898,3.974-5.113v-0.457h-3.533v-1.145h8.42v1.145h-3.497v0.457
			C224.365,100.5,225.93,102.466,228.214,103.257z M223.205,107.143h7.295v-1.951h1.371v6.17h-10.055v-6.17h1.389V107.143
			L223.205,107.143z M230.5,110.237v-1.985h-7.295v1.985H230.5z M231.871,104.436H230.5v-3.533h-3.164v-1.159h3.164v-3.797h1.371
			V104.436z"/>
		<path fill="#070001" d="M248.729,105.914h-6.47v5.66h-1.354v-5.66h-6.416v-1.16h14.238L248.729,105.914L248.729,105.914z
			 M248.025,101.906l-0.563,1.125c-2.426-0.404-4.824-1.749-5.836-3.675c-1.002,1.935-3.41,3.271-5.836,3.675l-0.563-1.125
			c2.813-0.388,5.678-2.269,5.678-4.5V96.51h1.424v0.896C242.33,99.602,245.212,101.518,248.025,101.906z"/>
	</g>
</g>
<g>
	<path fill="#5098AC" d="M250.435,4.335H57.064c-5.829,0-10.571,4.638-10.571,10.338v61.102h1V14.673
		c0-5.148,4.294-9.338,9.571-9.338h193.369c5.277,0,9.57,4.188,9.57,9.338v114.624c0,5.146-4.293,9.338-9.57,9.338H57.064
		c-0.414,0-0.818-0.033-1.219-0.084v1.01c0.399,0.045,0.806,0.074,1.219,0.074h193.369c5.829,0,10.57-4.641,10.57-10.338V14.673
		C261.005,8.973,256.264,4.335,250.435,4.335z"/>
	<g>
		<path fill="#5098AC" d="M3.129,108.095c0-13.01,5.204-20.594,14.005-20.594c8.803,0,14.007,7.584,14.007,20.594
			c0,13.119-5.148,20.594-14.007,20.594C8.223,128.687,3.129,121.214,3.129,108.095z M26.27,108.095
			c0-10.354-3.377-16.275-9.135-16.275c-5.757,0-9.188,5.924-9.188,16.275s3.377,16.164,9.188,16.164
			C22.893,124.259,26.27,118.445,26.27,108.095z"/>
		<path fill="#5098AC" d="M37.122,109.644c0-14.172,5.813-22.143,15.225-22.143c7.03,0,11.958,4.316,13.009,10.629h-4.927
			c-0.941-3.543-3.599-6.201-8.083-6.201c-6.589,0-10.519,5.646-10.519,15.279h0.498c2.325-3.32,5.979-5.314,10.297-5.314
			c7.142,0,13.065,5.537,13.065,13.287c0,7.527-5.536,13.563-13.951,13.508C44.763,128.576,37.122,124.48,37.122,109.644z
			 M60.871,115.234c-0.056-4.926-3.765-8.967-9.022-8.967c-5.26,0-9.301,4.262-9.356,9.021c0,4.707,3.875,9.023,9.245,9.023
			C56.94,124.314,60.815,120.218,60.871,115.234z"/>
	</g>
	<rect x="52.095" y="47.458" fill="#ABB7C7" width="203.311" height="0.709"/>
</g>
<g>
	<path fill="#040000" d="M86.229,32.107L85.244,33.4c-2.01-1.057-3.69-3.21-4.491-5.741c-0.819,2.695-2.543,4.992-4.594,6.09
		l-1.025-1.291c2.666-1.313,4.778-4.82,4.8-8.144v-3.321h1.579v3.321C81.512,27.536,83.645,30.837,86.229,32.107z M89.509,26.816
		h3.057v1.396h-3.057v9.434h-1.6V19.416h1.6V26.816z"/>
	<path fill="#040000" d="M110.242,32.56h-7.608v5.127h-1.578V32.56h-7.507v-1.332h16.693V32.56z M109.196,22.839H94.41v-1.332h6.646
		v-2.195h1.578v2.195h6.563L109.196,22.839L109.196,22.839z M107.803,26.939c0,1.929-2.235,3.017-5.947,3.035
		c-3.732-0.02-5.968-1.106-5.947-3.035c-0.021-1.969,2.215-3.055,5.947-3.055C105.566,23.886,107.803,24.972,107.803,26.939z
		 M97.568,26.939c-0.021,1.129,1.559,1.785,4.286,1.785c2.687,0,4.266-0.656,4.286-1.785c-0.021-1.147-1.601-1.823-4.286-1.823
		C99.127,25.116,97.548,25.792,97.568,26.939z"/>
	<path fill="#040000" d="M133.662,35.308H116.97v-1.354h7.525v-4.431h1.62v4.431h7.547V35.308L133.662,35.308z M132.862,28.808
		l-0.656,1.271c-2.789-0.544-5.731-2.318-6.891-4.861c-1.179,2.554-4.112,4.369-6.851,4.943l-0.677-1.293
		c3.076-0.533,6.665-3.076,6.665-5.988v-0.451h-6.111v-1.354h13.885v1.354h-6.111v0.451
		C126.115,25.792,129.726,28.294,132.862,28.808z"/>
	<path fill="#040000" d="M146.727,32.54l-0.902,1.25c-2.102-0.934-3.886-2.912-4.737-5.332c-0.819,2.563-2.594,4.666-4.695,5.66
		l-0.902-1.25c2.707-1.23,4.778-4.308,4.778-7.507v-1.457h-4.286v-1.313h4.266v-2.83h1.601v2.83h4.244v1.313h-4.244v1.457
		C141.846,28.417,143.979,31.37,146.727,32.54z M150.15,37.646h-1.62V19.416h1.62V37.646z"/>
	<path fill="#040000" d="M168.055,28.027h-8.553v-7.424h8.553V28.027z M174.679,36.333l-0.555,1.252
		c-2.748-0.369-5.25-1.662-6.315-3.363c-1.107,1.732-3.671,2.994-6.419,3.363l-0.574-1.252c3.138-0.349,6.151-2.111,6.151-3.938
		h-5.394v-1.25h5.414v-1.785h1.6v1.785h5.455v1.25h-5.414C168.628,34.181,171.54,35.943,174.679,36.333z M161.081,26.757h5.395
		v-4.84h-5.395V26.757z M173.57,29.894h-1.579V19.415h1.579V29.894z"/>
	<path fill="#040000" d="M191.33,32.007l-0.964,1.25c-1.846-1.004-3.107-2.81-3.753-5.045c-0.625,2.543-1.907,4.533-3.835,5.66
		l-1.005-1.23c2.625-1.436,4.02-4.553,4.02-8.244v-1.455h-3.589v-1.354h8.531v1.354h-3.384v1.455
		C187.353,27.741,188.727,30.673,191.33,32.007z M197.626,37.646h-1.559v-9.475h-2.481v8.553h-1.538v-16.92h1.538v6.994h2.481
		v-7.383h1.559V37.646z"/>
	<path fill="#040000" d="M210.341,22.142h-1.865v5.824c0.851-0.051,1.671-0.123,2.461-0.225l0.082,1.229
		c-3.548,0.553-7.711,0.594-10.664,0.594l-0.205-1.354l2.357-0.021V22.14h-1.846v-1.332h9.68V22.142z M215.283,34.322
		c0,2.093-2.297,3.281-6.111,3.281c-3.813,0-6.11-1.188-6.11-3.281c0-2.069,2.297-3.26,6.11-3.26
		C212.986,31.063,215.283,32.253,215.283,34.322z M206.916,28.068v-5.928h-2.851v6.029C204.999,28.15,205.962,28.12,206.916,28.068z
		 M204.66,34.322c-0.021,1.271,1.702,2.011,4.512,2.011c2.811,0,4.513-0.738,4.513-2.011c0-1.25-1.702-2.01-4.513-2.01
		C206.362,32.313,204.641,33.072,204.66,34.322z M215.223,30.673h-1.62V27.29h-3.076v-1.334h3.076v-1.929h-3.076v-1.332h3.076v-3.28
		h1.62V30.673z"/>
	<path fill="#040000" d="M219.282,34.181l-0.902-1.271c4.718-2.35,7.28-5.855,7.649-10.173h-6.809v-1.354h8.429
		C227.649,26.552,225.229,31.247,219.282,34.181z M232.366,26.839h2.953v1.354h-2.953v9.453h-1.6V19.416h1.6V26.839z"/>
</g>
<g>
	<rect x="74.414" y="65.984" fill="none" width="173.086" height="62.824"/>
	<path fill="#040000" d="M89.355,82.535h-14.31V81.39h6.435v-3.375h-4.746v-7.998h1.389v2.83h8.121v-2.83h1.354v7.998h-4.765v3.375
		h6.521V82.535z M86.244,76.892v-2.918h-8.121v2.918H86.244z"/>
	<path fill="#040000" d="M99.252,72.744c0,1.607-1.266,2.775-3.146,3.006v1.527c1.459-0.061,2.943-0.191,4.307-0.402l0.105,1.037
		c-3.306,0.598-7.049,0.633-9.756,0.633L90.586,77.4c1.213,0.012,2.638,0,4.131-0.053v-1.582c-1.934-0.211-3.233-1.389-3.217-3.021
		c-0.018-1.864,1.582-3.095,3.867-3.095S99.252,70.88,99.252,72.744z M92.801,72.744c-0.018,1.178,1.056,1.984,2.566,2.004
		c1.529-0.02,2.566-0.826,2.584-2.004c-0.018-1.214-1.055-2.022-2.584-2.022C93.855,70.722,92.783,71.529,92.801,72.744z
		 M103.365,84.187H92.871v-4.342h1.389v3.182h9.105V84.187z M102.804,74.22h2.338v1.178h-2.338v5.484h-1.39V68.929h1.39V74.22z"/>
	<path fill="#040000" d="M108.023,74.783h-1.39v-4.396h1.39V74.783z"/>
	<path fill="#040000" d="M123.229,71.529h-1.601v5.167c0.801-0.053,1.592-0.121,2.338-0.211l0.105,1.037
		c-3.164,0.492-6.855,0.564-9.563,0.564l-0.157-1.145l2.021-0.033v-5.38h-1.582v-1.125h8.438L123.229,71.529L123.229,71.529z
		 M127.236,84.205h-10.494v-4.869h1.354v3.709h9.141L127.236,84.205L127.236,84.205z M120.275,76.787v-5.257h-2.549v5.361
		C118.563,76.867,119.423,76.839,120.275,76.787z M126.517,73.675h2.354v1.178h-2.354v5.572h-1.371V68.929h1.371V73.675z"/>
	<path fill="#040000" d="M139.138,76.541l-0.722,1.105c-1.758-0.633-3.12-1.939-3.778-3.566c-0.687,1.838-2.137,3.305-3.99,4.008
		l-0.722-1.107c2.32-0.844,3.974-2.953,3.974-5.186v-0.58h-3.533v-1.16h8.42v1.16h-3.498v0.563
		C135.287,73.814,136.853,75.75,139.138,76.541z M142.863,81.621c0,1.846-1.986,2.898-5.238,2.918
		c-3.252-0.02-5.237-1.072-5.237-2.918c0-1.848,1.985-2.9,5.237-2.9S142.863,79.773,142.863,81.621z M133.758,81.621
		c-0.018,1.125,1.478,1.811,3.867,1.811c2.391,0,3.867-0.686,3.867-1.811c0-1.145-1.477-1.828-3.867-1.828
		C135.235,79.792,133.74,80.478,133.758,81.621z M142.812,78.228h-1.39v-4.096h-3.146v-1.145h3.146v-4.077h1.39V78.228z"/>
	<path fill="#040000" d="M159.722,79.88l-0.845,1.09c-1.774-0.869-3.313-2.707-4.061-4.939c-0.729,2.365-2.269,4.334-4.096,5.256
		l-0.88-1.16c2.32-1.072,4.255-4.043,4.271-7.014v-2.848h1.371v2.848C155.467,75.96,157.418,78.843,159.722,79.88z M162.814,84.572
		h-1.39V68.911h1.39V84.572z"/>
	<path fill="#040000" d="M179.654,76.048l-0.703,1.09c-1.828-0.58-3.296-1.836-4.008-3.445c-0.687,1.723-2.162,3.068-4.025,3.709
		l-0.721-1.09c2.355-0.738,4.043-2.672,4.043-4.816v-0.404h-3.656v-1.125h8.648v1.125h-3.604v0.404
		C175.629,73.535,177.334,75.345,179.654,76.048z M174.152,80.039h7.383V78.14h1.371v6.188h-10.125V78.14h1.371V80.039z
		 M181.535,83.203v-2.059h-7.383v2.059H181.535z M182.906,77.367h-1.371v-8.456h1.371V77.367z"/>
	<path fill="#040000" d="M199.799,77.367h-6.45v1.67c2.952,0.123,4.692,1.09,4.711,2.74c-0.019,1.74-2.021,2.727-5.379,2.727
		c-3.394,0-5.396-0.984-5.396-2.727c0-1.65,1.731-2.617,4.711-2.74v-1.67h-6.434v-1.145h14.237V77.367z M198.533,70.773h-4.957
		c0.088,1.757,2.672,3.121,5.432,3.41l-0.51,1.09c-2.558-0.307-4.957-1.447-5.817-3.198c-0.854,1.75-3.243,2.893-5.818,3.198
		l-0.492-1.09c2.707-0.289,5.31-1.652,5.414-3.41h-4.922v-1.125h11.672L198.533,70.773L198.533,70.773z M188.689,81.777
		c-0.019,1.037,1.477,1.652,3.99,1.652c2.479,0,3.989-0.615,3.989-1.652c0-1.055-1.512-1.67-3.989-1.688
		C190.166,80.107,188.672,80.724,188.689,81.777z"/>
	<path fill="#040000" d="M205.318,83.113l4.658-12.726h1.67l4.658,12.726h-1.671l-1.266-3.586h-5.115l-1.282,3.586H205.318z
		 M212.877,78.14l-2.021-5.695h-0.105l-2.021,5.695H212.877z"/>
	<path fill="#040000" d="M218.256,85.029h-1.371l4.097-15.239h1.389L218.256,85.029z"/>
	<path fill="#040000" d="M228.17,71.618c-1.688,0-2.795,0.879-2.795,2.092c0,1.336,1.494,1.828,2.461,2.074l1.267,0.352
		c1.371,0.352,3.604,1.143,3.604,3.516c0,2.074-1.67,3.691-4.623,3.691c-2.742,0-4.446-1.424-4.588-3.533h1.617
		c0.141,1.424,1.459,2.092,2.971,2.092c1.758,0,3.076-0.896,3.076-2.285c0-1.23-1.178-1.705-2.514-2.092l-1.564-0.422
		c-2.004-0.58-3.233-1.6-3.233-3.322c0-2.145,1.916-3.568,4.377-3.568s4.235,1.44,4.307,3.375h-1.547
		C230.842,72.339,229.699,71.618,228.17,71.618z"/>
	<path fill="#040000" d="M89.355,105.179h-6.521v4.395H81.48v-4.395h-6.435v-1.143h14.31V105.179z M88.459,96.847H75.785v-1.143
		h5.695v-1.883h1.354v1.883h5.625V96.847z M87.265,100.361c0,1.652-1.916,2.584-5.099,2.604c-3.199-0.02-5.115-0.949-5.098-2.604
		c-0.019-1.688,1.897-2.617,5.098-2.617C85.349,97.744,87.265,98.675,87.265,100.361z M78.492,100.361
		c-0.018,0.969,1.336,1.529,3.674,1.529c2.304,0,3.656-0.563,3.674-1.529c-0.018-0.982-1.37-1.563-3.674-1.563
		C79.828,98.798,78.476,99.378,78.492,100.361z"/>
	<path fill="#040000" d="M101.045,105.021c1.503-0.061,3.041-0.193,4.482-0.404l0.104,1.02c-3.567,0.65-7.418,0.668-10.229,0.668
		l-0.193-1.143c1.311-0.008,2.856-0.018,4.482-0.07v-2.936h1.354V105.021z M104.72,97.109h-3.675
		c0.035,2.021,1.714,3.666,4.025,4.324l-0.65,1.09c-1.881-0.563-3.349-1.766-4.043-3.355c-0.686,1.68-2.145,2.928-4.024,3.498
		l-0.668-1.057c2.312-0.676,3.938-2.391,3.973-4.5h-3.586v-1.143h3.621v-1.934h1.354v1.934h3.675L104.72,97.109L104.72,97.109z
		 M107.937,109.572h-1.371v-15.66h1.371V109.572z"/>
	<path fill="#040000" d="M118.465,101.697h6.451v1.145h-14.237v-1.145h6.434v-2.23h1.354L118.465,101.697L118.465,101.697z
		 M123.65,95.773h-4.957c0.088,1.74,2.707,3.086,5.432,3.375l-0.51,1.09c-2.558-0.307-4.957-1.424-5.818-3.162
		c-0.853,1.738-3.242,2.855-5.817,3.162l-0.51-1.09c2.725-0.289,5.325-1.617,5.432-3.375h-4.922v-1.125h11.672L123.65,95.773
		L123.65,95.773z M123.176,106.812c-0.018,1.74-2.021,2.689-5.379,2.689c-3.393,0-5.396-0.949-5.396-2.689s2.004-2.688,5.396-2.688
		C121.154,104.125,123.158,105.072,123.176,106.812z M113.808,106.812c-0.019,1.021,1.459,1.617,3.989,1.617
		c2.496,0,3.99-0.598,3.99-1.617c0-1.018-1.494-1.6-3.99-1.6C115.267,105.214,113.789,105.794,113.808,106.812z"/>
	<path fill="#040000" d="M138.785,104.705l-0.826,1.07c-1.582-0.859-2.663-2.406-3.217-4.322c-0.536,2.18-1.635,3.885-3.287,4.852
		l-0.86-1.055c2.25-1.23,3.444-3.902,3.444-7.066v-1.248h-3.076v-1.16h7.313v1.16h-2.9v1.248
		C135.375,101.048,136.554,103.562,138.785,104.705z M144.183,109.539h-1.336v-8.121h-2.127v7.33H139.4V94.246h1.317v5.992h2.128
		v-6.326h1.336L144.183,109.539L144.183,109.539z"/>
	<path fill="#040000" d="M155.08,96.25h-1.6v4.992c0.729-0.045,1.433-0.105,2.108-0.193l0.07,1.055
		c-3.041,0.475-6.609,0.51-9.141,0.51l-0.177-1.16l2.021-0.018V96.25h-1.582v-1.145h8.297v1.145H155.08z M159.316,106.689
		c0,1.793-1.969,2.814-5.238,2.814c-3.269,0-5.238-1.021-5.238-2.814c0-1.773,1.97-2.795,5.238-2.795
		C157.348,103.894,159.316,104.916,159.316,106.689z M152.146,101.33v-5.08h-2.443v5.168
		C150.501,101.398,151.327,101.375,152.146,101.33z M150.211,106.689c-0.018,1.09,1.459,1.725,3.867,1.725s3.867-0.635,3.867-1.725
		c0-1.07-1.459-1.723-3.867-1.723S150.193,105.619,150.211,106.689z M159.265,103.562h-1.39v-2.9h-2.637v-1.143h2.637v-1.652h-2.637
		v-1.143h2.637v-2.813h1.39V103.562z"/>
	<path fill="#040000" d="M162.744,106.566l-0.772-1.09c4.043-2.012,6.239-5.018,6.557-8.719h-5.836v-1.16h7.225
		C169.916,100.027,167.842,104.054,162.744,106.566z M173.959,100.273h2.531v1.16h-2.531v8.105h-1.371V93.912h1.371V100.273z"/>
	<path fill="#040000" d="M191.467,100.484l-0.686,1.072c-1.828-0.623-3.287-1.934-3.99-3.621c-0.703,1.82-2.171,3.252-4.024,3.92
		l-0.722-1.09c2.355-0.826,4.025-2.898,4.025-5.203v-1.193h1.406v1.193C187.459,97.777,189.146,99.728,191.467,100.484z
		 M194.842,106.55h-8.771v1.688h9.334v1.125h-10.688v-3.885h8.755v-1.564h-8.789v-1.107h10.159V106.55z M194.824,102.015h-1.354
		v-8.104h1.354V102.015z"/>
	<path fill="#040000" d="M207.287,104.88l-0.844,1.09c-1.775-0.869-3.313-2.707-4.062-4.939c-0.729,2.365-2.268,4.334-4.096,5.256
		l-0.879-1.16c2.32-1.072,4.254-4.043,4.271-7.014v-2.848h1.37v2.848C203.033,100.96,204.984,103.843,207.287,104.88z
		 M210.381,109.572h-1.389v-15.66h1.389V109.572z"/>
</g>
</svg>
