<?xml version="1.0" encoding="utf-8"?>
<!-- Generator: Adobe Illustrator 16.0.0, SVG Export Plug-In . SVG Version: 6.00 Build 0)  -->
<!DOCTYPE svg PUBLIC "-//W3C//DTD SVG 1.1//EN" "http://www.w3.org/Graphics/SVG/1.1/DTD/svg11.dtd">
<svg version="1.1" id="Layer_2" xmlns="http://www.w3.org/2000/svg" xmlns:xlink="http://www.w3.org/1999/xlink" x="0px" y="0px"
	 width="264.383px" height="143.835px" viewBox="0 0 264.383 143.835" enable-background="new 0 0 264.383 143.835"
	 xml:space="preserve">
<g>
	<path fill="#5193A5" d="M250.434,3.936H57.064c-5.829,0-10.571,4.638-10.571,10.338v61.102h1V14.273
		c0-5.148,4.294-9.338,9.571-9.338h193.37c5.277,0,9.57,4.189,9.57,9.338v114.622c0,5.15-4.293,9.34-9.57,9.34H57.064
		c-0.414,0-0.818-0.033-1.219-0.084v1.01c0.399,0.045,0.806,0.074,1.219,0.074h193.37c5.828,0,10.57-4.639,10.57-10.34V14.273
		C261.006,8.572,256.264,3.936,250.434,3.936z"/>
	<g>
		<path fill="#5193A5" d="M3.129,107.694c0-13.008,5.204-20.592,14.005-20.592c8.803,0,14.007,7.584,14.007,20.592
			c0,13.121-5.148,20.596-14.007,20.596C8.223,128.29,3.129,120.815,3.129,107.694z M26.27,107.694
			c0-10.352-3.377-16.273-9.134-16.273c-5.758,0-9.189,5.922-9.189,16.273c0,10.354,3.377,16.166,9.189,16.166
			C22.893,123.86,26.27,118.047,26.27,107.694z"/>
		<path fill="#5193A5" d="M37.731,124.081l13.674-14.393c4.761-5.039,7.03-7.75,7.03-11.459c0-4.098-3.487-6.809-7.973-6.809
			c-4.761,0-7.805,3.045-7.805,7.529h-4.706c-0.056-7.088,5.425-11.848,12.677-11.848s12.456,4.871,12.456,11.127
			c0,4.484-2.104,7.973-9.188,15.279l-9.19,9.465v0.332h19.1v4.43h-26.02L37.731,124.081z"/>
	</g>
	<rect x="52.095" y="47.059" fill="#AAB5C5" width="203.31" height="0.709"/>
</g>
<g>
	<path fill="#070001" d="M114.688,22.142h-1.866v5.824c0.852-0.051,1.671-0.123,2.461-0.227l0.082,1.23
		c-3.548,0.554-7.711,0.595-10.664,0.595l-0.205-1.354l2.358-0.021v-6.05h-1.846v-1.333h9.68V22.142z M119.631,34.323
		c0,2.093-2.297,3.281-6.111,3.281s-6.111-1.188-6.111-3.281c0-2.07,2.297-3.261,6.111-3.261S119.631,32.252,119.631,34.323z
		 M111.264,28.068v-5.927h-2.852v6.029C109.346,28.15,110.31,28.12,111.264,28.068z M109.008,34.323
		c-0.021,1.271,1.701,2.011,4.512,2.011c2.81,0,4.512-0.738,4.512-2.011c0-1.251-1.702-2.01-4.512-2.01
		C110.709,32.313,108.986,33.072,109.008,34.323z M119.568,30.673h-1.62V27.29h-3.076v-1.333h3.076v-1.929h-3.076v-1.333h3.076
		v-3.28h1.62V30.673z"/>
	<path fill="#070001" d="M123.63,34.18l-0.902-1.271c4.717-2.349,7.28-5.855,7.649-10.173h-6.81v-1.354h8.429
		C131.996,26.551,129.576,31.248,123.63,34.18z M136.713,26.838h2.953v1.354h-2.953v9.454h-1.6v-18.23h1.6V26.838z"/>
	<path fill="#070001" d="M155.54,28.027h-8.553v-7.424h8.553V28.027z M162.163,36.333l-0.553,1.251
		c-2.748-0.369-5.25-1.661-6.316-3.363c-1.107,1.733-3.672,2.994-6.42,3.363l-0.572-1.251c3.137-0.35,6.15-2.112,6.15-3.938h-5.393
		v-1.251h5.414v-1.784h1.6v1.784h5.455v1.251h-5.414C156.114,34.18,159.026,35.943,162.163,36.333z M148.567,26.756h5.395v-4.84
		h-5.395V26.756z M161.057,29.894h-1.58V19.415h1.58V29.894z"/>
	<path fill="#070001" d="M180.538,27.741l-0.818,1.229c-2.113-0.728-3.795-2.266-4.615-4.266c-0.811,2.133-2.512,3.813-4.695,4.613
		l-0.82-1.271c2.77-0.964,4.676-3.425,4.676-6.111v-1.784h1.641v1.784C175.883,24.521,177.852,26.797,180.538,27.741z
		 M184.497,37.399h-11.854v-6.563h11.854V37.399z M174.223,36.087h8.695v-3.938h-8.695V36.087z M184.497,29.792h-1.6V19.435h1.6
		V29.792z"/>
	<path fill="#070001" d="M198.422,32.108l-0.984,1.292c-2.01-1.056-3.691-3.209-4.492-5.741c-0.818,2.696-2.543,4.993-4.594,6.091
		l-1.025-1.292c2.666-1.313,4.779-4.819,4.801-8.143v-3.321h1.578v3.321C193.704,27.536,195.838,30.837,198.422,32.108z
		 M201.702,26.817h3.057v1.396h-3.057v9.434h-1.6V19.415h1.6V26.817z"/>
</g>
<g>
	<rect x="67.859" y="65.984" fill="none" width="183" height="66.5"/>
	<path fill="#070001" d="M77.967,76.733l-0.721,1.107c-1.811-0.693-3.217-2.102-3.901-3.902c-0.694,1.916-2.118,3.455-3.938,4.186
		l-0.756-1.072c2.373-0.914,3.973-3.217,3.973-5.678v-1.564h1.406v1.564C74.013,73.747,75.646,75.889,77.967,76.733z M81.888,84.206
		H71.306v-4.869h1.37v3.709h9.212V84.206z M81.396,80.389h-1.371v-11.46h1.371V80.389z"/>
	<path fill="#070001" d="M93.365,76.645l-0.668,1.072c-1.811-0.535-3.261-1.723-3.955-3.27c-0.686,1.715-2.108,3.059-3.973,3.674
		l-0.668-1.055c2.303-0.773,3.92-2.672,3.92-4.799v-0.334h-3.533v-1.106h3.533v-1.986h1.389v1.986h3.498v1.106h-3.532v0.334
		C89.375,74.219,91.063,75.959,93.365,76.645z M97.058,81.655c0,1.813-1.986,2.85-5.238,2.85s-5.238-1.037-5.238-2.85
		c0-1.826,1.986-2.848,5.238-2.848S97.058,79.829,97.058,81.655z M87.951,81.655c-0.018,1.092,1.478,1.76,3.867,1.76
		c2.408,0,3.867-0.668,3.867-1.76c0-1.105-1.459-1.758-3.867-1.773C89.429,79.897,87.935,80.547,87.951,81.655z M97.005,78.385
		h-1.39v-3.85h-3.199v-1.143h3.199v-4.482h1.39V78.385z"/>
	<path fill="#070001" d="M118.433,82.536h-14.31v-1.16h3.552v-4.221c-1.336-0.693-2.146-1.818-2.146-3.232
		c0-2.426,2.373-4.008,5.713-4.026c3.34,0.019,5.713,1.601,5.713,4.026c0,1.389-0.781,2.504-2.073,3.199v4.254h3.551V82.536
		L118.433,82.536z M106.865,73.92c0,1.74,1.812,2.918,4.377,2.918c2.549,0,4.377-1.178,4.377-2.918s-1.828-2.9-4.377-2.882
		C108.677,71.021,106.865,72.18,106.865,73.92z M113.492,81.375v-3.729c-0.677,0.186-1.433,0.281-2.25,0.281
		c-0.8,0-1.547-0.088-2.215-0.264v3.709h4.465V81.375z"/>
	<path fill="#070001" d="M120.523,78.649l-0.598-1.105c3.604-1.188,6.107-3.43,6.416-6.258h-5.625v-1.16h7.137
		C127.837,74.131,124.972,77.19,120.523,78.649z M133.04,84.206h-10.354v-4.906h1.406v3.744h8.946v1.162H133.04z M132.635,80.477
		h-1.389v-5.572h-3.463v-1.158h3.463V68.93h1.389V80.477z"/>
	<path fill="#070001" d="M140.51,77.946l-0.58-1.09c3.734-1.055,6.117-3.129,6.416-5.783h-5.607v-1.143h7.084
		C147.805,73.85,145.01,76.665,140.51,77.946z M152.709,84.329h-10.143V78.51h10.143V84.329z M143.903,83.204h7.436v-3.586h-7.436
		V83.204z M152.709,77.84h-1.389v-3.727h-3.463v-1.16h3.463v-4.025h1.389V77.84z"/>
	<path fill="#070001" d="M167.967,78.174h-4.852v3.27h6.504v1.145h-14.309v-1.145h6.434v-3.27h-4.588v-7.98h10.635v1.144h-9.229
		v2.231h8.895v1.125h-8.895v2.355h9.404V78.174L167.967,78.174z"/>
	<path fill="#070001" d="M183.542,76.293h-7.33v-6.363h7.33V76.293z M189.219,83.415l-0.475,1.07
		c-2.355-0.314-4.5-1.424-5.414-2.883c-0.949,1.486-3.146,2.566-5.502,2.883l-0.492-1.07c2.689-0.301,5.273-1.813,5.273-3.375
		h-4.623v-1.072h4.641v-1.529h1.371v1.529h4.676v1.072h-4.641C184.034,81.567,186.53,83.081,189.219,83.415z M177.565,75.206h4.623
		v-4.149h-4.623V75.206z M188.27,77.893h-1.354v-8.981h1.354V77.893z"/>
	<path fill="#070001" d="M205.04,79.829l-0.826,1.125c-1.775-0.914-3.242-2.787-3.938-5.012c-0.693,2.338-2.162,4.344-3.938,5.291
		l-0.896-1.105c2.285-1.125,4.113-4.131,4.113-7.016v-2.847h1.406v2.847C200.961,75.942,202.772,78.792,205.04,79.829z
		 M208.415,84.575h-1.371v-9.195h-3.709v-1.125h3.709v-5.343h1.371V84.575z"/>
	<path fill="#070001" d="M218.926,71.671h3.656v-2.742h1.389v11.408h-1.389V76.17h-3.656v1.406h-7.172v-7.295h7.172V71.671z
		 M213.125,76.469h4.447v-5.044h-4.447V76.469z M224.323,84.206h-10.459v-4.889h1.389v3.729h9.07V84.206z M222.583,75.028v-2.195
		h-3.656v2.195H222.583z"/>
	<path fill="#070001" d="M227.1,77.542c-0.018-0.615,0.51-1.125,1.125-1.125s1.125,0.51,1.125,1.125c0,0.633-0.51,1.143-1.125,1.143
		S227.083,78.174,227.1,77.542z"/>
	<path fill="#070001" d="M69.441,106.602l-0.756-1.125c4.228-2.004,6.381-5,6.696-8.734h-5.977v-1.125h7.383
		C76.771,100.118,74.681,104.088,69.441,106.602z M81.412,109.54h-1.389V93.913h1.389V109.54z"/>
	<path fill="#070001" d="M98.287,101.577h-6.45v1.563h4.622v3.551h-9.28v1.582h9.756v1.09H85.808v-3.709h9.299v-1.424h-9.334v-1.09
		h4.693v-1.563h-6.417v-1.125h14.238V101.577z M97.515,98.375l-0.492,1.055c-2.461-0.324-4.869-1.432-5.854-3.129
		c-1.003,1.697-3.42,2.805-5.854,3.129l-0.476-1.055c2.796-0.352,5.626-1.828,5.626-3.779V94h1.424v0.598
		C91.89,96.547,94.701,98.024,97.515,98.375z"/>
	<path fill="#070001" d="M108.853,101.346l-0.773,1.072c-1.723-0.65-3.075-1.916-3.743-3.568c-0.678,1.873-2.109,3.332-3.99,4.043
		l-0.756-1.125c2.407-0.844,4.008-2.918,4.024-5.344v-1.617h1.371v1.564C104.968,98.604,106.55,100.575,108.853,101.346z
		 M112.613,106.584c0,1.863-1.985,2.918-5.238,2.918c-3.252,0-5.237-1.055-5.237-2.918c0-1.881,1.985-2.953,5.237-2.953
		C110.628,103.631,112.613,104.706,112.613,106.584z M103.509,106.584c-0.019,1.125,1.477,1.811,3.866,1.811
		c2.391,0,3.867-0.686,3.867-1.811c0-1.16-1.477-1.863-3.867-1.863C104.985,104.721,103.49,105.424,103.509,106.584z
		 M112.562,103.174h-1.389v-4.764h-3.48v-1.143h3.48v-3.357h1.389V103.174z"/>
	<path fill="#070001" d="M118.66,94.842h1.336c-1.194,1.74-2.303,5.291-2.303,8.42s1.107,6.697,2.303,8.439h-1.336
		c-1.616-2.355-2.514-5.115-2.53-8.439C116.146,99.94,117.044,97.18,118.66,94.842z"/>
	<path fill="#070001" d="M127.73,96.969h-4.482v7.523c2.153-0.01,3.647-0.088,5.38-0.439l0.122,1.16
		c-1.881,0.387-3.479,0.457-5.87,0.457h-1.002v-9.844h5.854L127.73,96.969L127.73,96.969z M134.657,109.54h-1.318v-8.191h-2.303
		v7.383h-1.266V94.264h1.266v5.941h2.303v-6.293h1.318V109.54z"/>
	<path fill="#070001" d="M144.764,96.67h3.656v-2.742h1.389v11.408h-1.389v-4.166h-3.656v1.406h-7.172v-7.295h7.172V96.67z
		 M138.963,101.469h4.447v-5.045h-4.447V101.469z M150.161,109.206h-10.459v-4.889h1.389v3.729h9.07V109.206z M148.42,100.028
		v-2.195h-3.656v2.195H148.42z"/>
	<path fill="#070001" d="M153.782,111.702h-1.336c1.195-1.74,2.303-5.311,2.303-8.439s-1.107-6.68-2.303-8.42h1.336
		c1.617,2.338,2.514,5.098,2.531,8.42C156.295,106.584,155.399,109.344,153.782,111.702z"/>
	<path fill="#070001" d="M171.834,96.25h-1.6v4.992c0.729-0.045,1.434-0.105,2.109-0.193l0.068,1.055
		c-3.041,0.475-6.607,0.51-9.141,0.51l-0.176-1.16l2.021-0.018V96.25h-1.582v-1.145h8.297v1.145H171.834z M176.071,106.69
		c0,1.793-1.969,2.814-5.238,2.814s-5.238-1.021-5.238-2.814c0-1.773,1.969-2.795,5.238-2.795S176.071,104.917,176.071,106.69z
		 M168.899,101.331v-5.08h-2.443v5.168C167.256,101.399,168.081,101.374,168.899,101.331z M166.965,106.69
		c-0.018,1.09,1.459,1.725,3.867,1.725s3.867-0.635,3.867-1.725c0-1.07-1.459-1.723-3.867-1.723S166.948,105.62,166.965,106.69z
		 M176.018,103.561h-1.389v-2.898h-2.637v-1.145h2.637v-1.65h-2.637v-1.145h2.637v-2.813h1.389V103.561z"/>
	<path fill="#070001" d="M179.499,106.567l-0.773-1.09c4.043-2.012,6.24-5.018,6.557-8.719h-5.836v-1.16h7.227
		C186.67,100.028,184.596,104.053,179.499,106.567z M190.713,100.274h2.531v1.16h-2.531v8.105h-1.371V93.913h1.371V100.274z"/>
	<path fill="#070001" d="M208.327,102.014l-0.703,1.107c-1.818-0.615-3.27-1.898-3.973-3.551c-0.686,1.783-2.154,3.189-4.008,3.867
		l-0.721-1.107c2.338-0.826,4.008-2.848,4.008-5.063v-0.914h-3.656v-1.125h8.648v1.125h-3.605v0.914
		C204.319,99.377,205.989,101.276,208.327,102.014z M212.088,109.206h-10.582v-4.906h1.371v3.744h9.211V109.206z M211.596,105.389
		h-1.371V93.928h1.371V105.389z"/>
	<path fill="#070001" d="M222.178,96.899h-8.016v-1.105h3.34v-1.758h1.371v1.758h3.305V96.899z M221.545,100.417
		c-0.018,1.6-1.371,2.652-3.357,2.652c-1.969,0-3.357-1.055-3.34-2.652c-0.018-1.637,1.371-2.672,3.34-2.672
		C220.174,97.745,221.528,98.78,221.545,100.417z M216.079,100.417c0,0.967,0.861,1.617,2.109,1.617s2.109-0.65,2.109-1.617
		c0-0.984-0.861-1.652-2.109-1.652S216.079,99.43,216.079,100.417z M227.61,106.813c0,1.705-1.969,2.689-5.256,2.689
		s-5.256-0.984-5.238-2.689c-0.018-1.758,1.951-2.742,5.238-2.742S227.61,105.055,227.61,106.813z M218.487,106.813
		c-0.018,1.021,1.441,1.617,3.867,1.617s3.867-0.598,3.885-1.617c-0.018-1.07-1.459-1.67-3.885-1.65
		C219.928,105.143,218.469,105.743,218.487,106.813z M227.522,103.807h-1.318v-4.48h-2.092v3.92h-1.301v-9.02h1.301v3.955h2.092
		v-4.27h1.318V103.807z"/>
</g>
<g>
</g>
<g>
</g>
<g>
</g>
<g>
</g>
<g>
</g>
<g>
</g>
<g>
</g>
<g>
</g>
<g>
</g>
<g>
</g>
<g>
</g>
<g>
</g>
<g>
</g>
<g>
</g>
<g>
</g>
</svg>
