<?xml version="1.0" encoding="utf-8"?>
<!-- Generator: Adobe Illustrator 16.0.0, SVG Export Plug-In . SVG Version: 6.00 Build 0)  -->
<!DOCTYPE svg PUBLIC "-//W3C//DTD SVG 1.1//EN" "http://www.w3.org/Graphics/SVG/1.1/DTD/svg11.dtd">
<svg version="1.1" id="Layer_1" xmlns="http://www.w3.org/2000/svg" xmlns:xlink="http://www.w3.org/1999/xlink" x="0px" y="0px"
	 width="900px" height="300px" viewBox="0 49 900 300" enable-background="new 0 49 900 300" xml:space="preserve">
<g id="Layer_1_1_" display="none">
	<g id="g-root-tx__1umry4k1wbaknj-fill" transform="translate(362, 266)" display="inline">
		<g id="tx__1umry4k1wbaknj-fill">
			<g>
				<g enable-background="new    ">
					<path fill="#484848" d="M47.781,15.731l-0.777,1.132c-1.828-0.649-3.284-1.948-4.008-3.618
						c-0.705,1.884-2.199,3.321-4.156,4.026l-0.798-1.169c2.484-0.816,4.191-2.896,4.212-5.31V9.237h1.43v1.559
						C43.662,12.967,45.369,14.934,47.781,15.731z M51.733,22.003h-9.222v1.803h9.834v1.169H41.083V20.89h9.203v-1.651h-9.24V18.07
						h10.688L51.733,22.003L51.733,22.003z M51.733,17.234h-1.466v-4.286h-3.674v-1.206h3.674V8.699h1.466V17.234z"/>
					<path fill="#484848" d="M56.892,14.47h4.917v-4.36h1.429v11.133h-7.793V10.109h1.447V14.47z M61.809,20.018v-4.379h-4.917
						v4.379H61.809z M68.078,25.231h-1.466V8.699h1.466V25.231z"/>
					<path fill="#484848" d="M84.073,20.426l-0.891,1.076c-1.624-0.975-2.774-2.756-3.34-4.858
						c-0.604,2.271-1.801,4.212-3.451,5.251l-0.928-1.098c2.301-1.373,3.637-4.379,3.637-7.385v-1.559h-3.173v-1.206h7.604v1.206
						H80.51v1.559C80.512,16.27,81.793,19.108,84.073,20.426z M86.431,24.341h-1.373v-8.498h-2.783v-1.188h2.783V9.107h1.373V24.341
						z M89.771,25.194H88.38V8.699h1.392L89.771,25.194L89.771,25.194z"/>
					<path fill="#484848" d="M101.738,16.808l-0.742,1.132c-1.883-0.668-3.318-2.022-4.023-3.729
						c-0.705,1.874-2.217,3.331-4.156,4.045l-0.779-1.132c2.471-0.872,4.193-3.006,4.212-5.359v-0.705H92.48v-1.19h8.906v1.188
						h-3.711v0.705C97.676,13.95,99.287,15.954,101.738,16.808z M104.985,25.194h-1.447v-4.49h-9.352v-1.188h10.799V25.194z
						 M104.985,13.06h2.486v1.243h-2.486v4.342h-1.447V8.699h1.447V13.06z"/>
					<path fill="#484848" d="M121.889,16.492h-7.737V9.775h7.737V16.492z M127.883,24.007l-0.501,1.135
						c-2.486-0.334-4.75-1.503-5.716-3.043c-1.004,1.565-3.32,2.709-5.81,3.043l-0.52-1.135c2.839-0.313,5.563-1.908,5.563-3.563
						h-4.88v-1.132h4.898v-1.614h1.444v1.614h4.938v1.132h-4.898C122.406,22.059,125.044,23.654,127.883,24.007z M115.578,15.342
						h4.883v-4.379h-4.883V15.342L115.578,15.342z M126.881,18.181h-1.432V8.699h1.432V18.181z"/>
				</g>
				<g enable-background="new    ">
					<path fill="#484848" d="M47.93,40.924l-0.835,1.147c-1.855-0.896-3.424-2.866-4.156-5.103
						c-0.761,2.431-2.421,4.563-4.269,5.511l-0.893-1.15c2.375-1.147,4.416-4.283,4.437-7.104V32.07h-3.841v-1.206h8.979v1.206
						h-3.711v2.152C43.625,36.879,45.536,39.789,47.93,40.924z M50.824,35.84h2.765v1.24h-2.765v8.572h-1.447V29.157h1.447V35.84z"
						/>
					<path fill="#484848" d="M69.527,38.49H54.479v-1.169h6.81v-1.93h-4.896v-5.455h11.263v1.169H57.82v3.099h9.945v1.188h-5.065
						v1.93h6.828L69.527,38.49L69.527,38.49z M67.673,42.665c-0.021,1.911-2.137,2.972-5.681,2.987
						c-3.563-0.019-5.694-1.076-5.694-2.987c0-1.893,2.135-2.969,5.694-2.969C65.536,39.696,67.653,40.772,67.673,42.665z
						 M57.782,42.665c-0.021,1.15,1.559,1.818,4.21,1.818c2.616,0,4.212-0.668,4.212-1.818c0-1.132-1.596-1.815-4.212-1.815
						C59.341,40.847,57.764,41.533,57.782,42.665z"/>
					<path fill="#484848" d="M75.24,41.199v-1.837c-1.92-0.214-3.173-1.336-3.151-2.969c-0.021-1.855,1.559-3.063,3.896-3.063
						c2.301,0,3.896,1.206,3.915,3.063c-0.019,1.633-1.29,2.755-3.188,2.987v1.763c1.537-0.074,3.089-0.194,4.524-0.408l0.093,1.113
						c-3.6,0.612-7.496,0.646-10.391,0.646l-0.241-1.24C72.043,41.258,73.609,41.258,75.24,41.199z M80.938,32.367h-9.945V31.18
						h4.249v-1.985h1.469v1.985h4.229L80.938,32.367L80.938,32.367z M73.442,36.394c0,1.15,1.021,1.893,2.542,1.874
						c1.503,0.019,2.523-0.724,2.523-1.874s-1.021-1.93-2.523-1.93C74.464,34.467,73.442,35.243,73.442,36.394z M83.701,36.189
						h2.638v1.225h-2.638v8.238h-1.466V29.157h1.466V36.189z"/>
					<path fill="#484848" d="M100.493,40.885l-0.891,1.076c-1.624-0.977-2.774-2.758-3.34-4.861c-0.604,2.271-1.8,4.212-3.451,5.251
						l-0.928-1.095c2.301-1.373,3.637-4.379,3.637-7.388V32.31H92.35v-1.206h7.604v1.206h-3.021v1.559
						C96.933,36.728,98.214,39.566,100.493,40.885z M102.852,44.802h-1.373v-8.498h-2.783v-1.188h2.783v-5.548h1.373V44.802z
						 M106.191,45.652H104.8V29.157h1.392L106.191,45.652L106.191,45.652z"/>
					<path fill="#484848" d="M117.047,35.469h3.689v-6.312h1.447v16.532h-1.447v-9.018h-3.674c-0.176,3.229-1.818,5.251-4.119,5.251
						c-2.431,0-4.138-2.229-4.138-5.733s1.707-5.733,4.138-5.752C115.19,30.456,116.805,32.38,117.047,35.469z M110.198,36.189
						c0,2.69,1.113,4.435,2.746,4.435c1.614,0,2.746-1.741,2.746-4.435s-1.132-4.436-2.746-4.453
						C111.313,31.757,110.198,33.499,110.198,36.189z"/>
					<path fill="#484848" d="M139.424,36.189l-0.779,1.132c-1.828-0.646-3.284-1.948-4.008-3.618
						c-0.705,1.886-2.199,3.321-4.156,4.026l-0.798-1.169c2.485-0.816,4.192-2.896,4.212-5.31v-1.559h1.429v1.559
						C135.304,33.427,137.011,35.392,139.424,36.189z M143.375,42.464h-9.224v1.8h9.834v1.169h-11.263V41.35h9.203v-1.651h-9.24
						V38.53h10.688v3.934H143.375z M143.375,37.692h-1.468v-4.286h-3.674V32.2h3.674v-3.043h1.468V37.692z"/>
					<path fill="#484848" d="M156.621,41.032l-0.813,1.132c-1.902-0.844-3.517-2.635-4.286-4.821
						c-0.742,2.316-2.347,4.221-4.249,5.121l-0.815-1.135c2.448-1.11,4.322-3.896,4.322-6.791v-1.314h-3.88v-1.188h3.859v-2.561
						h1.444v2.561h3.844v1.188h-3.844v1.314C152.207,37.303,154.137,39.975,156.621,41.032z M159.722,45.652h-1.466V29.157h1.466
						V45.652z"/>
				</g>
			</g>
		</g>
	</g>
	<g id="g-root-sy_1_cu_958kn81wb95or-fill" transform="translate(14, 98)" display="inline">
		<g id="sy_1_cu_958kn81wb95or-fill">
			<g>
				<path fill="#40587E" d="M87.036,110.947V29.113h184.127l-40.917,20.458v61.376H87.036z"/>
			</g>
		</g>
	</g>
	<g id="g-root-sy_2_cu_1uuw4901wb972k-fill" transform="translate(182.00009155273438, 98)" display="inline">
		<g id="sy_2_cu_1uuw4901wb972k-fill">
			<g>
				<path fill="#4371BD" d="M62.246,131.406V49.571h184.128L205.456,70.03v61.376H62.246z M103.163,29.113v20.458H62.246
					L103.163,29.113z"/>
			</g>
		</g>
	</g>
	<g id="g-root-sy_3_cu_1uuw4901wb972l-fill" transform="translate(350.0000915527344, 122)" display="inline">
		<g id="sy_3_cu_1uuw4901wb972l-fill">
			<g>
				<path fill="#4F84DA" d="M37.456,127.865V46.03h184.128l-40.917,20.458v61.376L37.456,127.865L37.456,127.865z M78.374,25.571
					V46.03H37.456L78.374,25.571z"/>
			</g>
		</g>
	</g>
	<g id="g-root-sy_4_cu_1qf2m4k1wb97uu-fill" transform="translate(518.0001220703125, 146)" display="inline">
		<g id="sy_4_cu_1qf2m4k1wb97uu-fill">
			<g>
				<path fill="#4E8BEF" d="M12.667,42.489v81.834h143.21V62.947l40.917-20.458H12.667z M53.584,22.03v20.458H12.667L53.584,22.03z"
					/>
			</g>
		</g>
	</g>
	<g id="g-root-sy_5_cu_1hjflvo1wb98nj-fill" transform="translate(686, 170)" display="inline">
		<g id="sy_5_cu_1hjflvo1wb98nj-fill">
			<g>
				<path fill="#5B99FF" d="M-12.122,120.782V38.947h184.127l-40.918,20.459v61.376H-12.122z M28.795,18.489v20.458h-40.917
					L28.795,18.489z"/>
			</g>
		</g>
	</g>
	<g id="g-root-sy_6_cu_1lz94041wb98n4-fill" transform="translate(854, 194)" display="inline">
		<g id="sy_6_cu_1lz94041wb98n4-fill">
			<g>
				<path fill="#95BDFF" d="M-36.913,117.241V35.406H96.067V25.177l40.916,51.146l-40.916,51.999v-11.081H-36.913z M4.005,14.947
					v20.459h-40.918L4.005,14.947z"/>
			</g>
		</g>
	</g>
	<g id="g-root-tx__m7yft01wbakui-fill" transform="translate(56, 134)" display="inline">
		<g id="tx__m7yft01wbakui-fill">
			<g>
				<g enable-background="new    ">
					<path fill="#FFFFFF" d="M98.766,37.444H83.439v-1.911h5.752v-2.95h2.338v2.95h7.236L98.766,37.444L98.766,37.444z
						 M97.04,41.712c-0.021,1.985-2.338,3.176-6.029,3.176c-3.655,0-6.013-1.188-6.013-3.176c0-2.021,2.354-3.188,6.013-3.188
						C94.702,38.521,97.021,39.689,97.04,41.712z M96.947,30.134c0,1.339,0,2.783-0.48,4.527l-2.318-0.223
						c0.371-1.531,0.417-2.672,0.444-3.822h-9.426v-1.854h11.78V30.134z M87.354,41.712c0,0.909,1.336,1.373,3.654,1.373
						c2.319,0,3.675-0.464,3.675-1.373c0-0.943-1.354-1.429-3.675-1.429C88.689,40.283,87.354,40.766,87.354,41.712z"/>
					<path fill="#FFFFFF" d="M109.564,30.913h-3.356c0.057,1.967,1.243,3.952,3.878,4.824l-1.169,1.854
						c-1.865-0.603-3.146-1.825-3.878-3.355c-0.751,1.726-2.099,3.117-4.103,3.804l-1.226-1.874
						c2.772-0.928,4.018-3.136,4.082-5.251h-3.396V29.02h9.166L109.564,30.913L109.564,30.913z M114.11,41.656
						c-0.02,2.041-2.228,3.247-5.824,3.247c-3.6,0-5.81-1.206-5.81-3.247c0-2.06,2.208-3.247,5.81-3.266
						C111.884,38.409,114.092,39.597,114.11,41.656z M104.833,41.656c0,0.965,1.206,1.447,3.451,1.447
						c2.243,0,3.47-0.482,3.47-1.447c0-0.983-1.227-1.447-3.47-1.447C106.039,40.209,104.833,40.673,104.833,41.656z M114.055,38.02
						H111.7v-3.99h-2.637v-1.911h2.637V28h2.354V38.02z"/>
					<path fill="#FFFFFF" d="M136.061,38.521h-6.364v2.728h-2.338v-2.728h-6.754v-1.855h15.456V38.521z M134.354,44.588h-11.932
						v-4.676h2.339v2.783h9.593V44.588z M124.928,30.302h6.771v-1.765h2.354v6.939H122.59v-6.939h2.339L124.928,30.302
						L124.928,30.302z M131.7,33.604v-1.54h-6.771v1.54H131.7z"/>
					<path fill="#FFFFFF" d="M147.212,35.626L145.95,37.5c-1.818-0.609-3.054-1.828-3.769-3.355
						c-0.751,1.67-2.061,2.978-3.972,3.652l-1.279-1.893c2.819-0.909,4.025-3.117,4.045-5.418v-1.614h2.396v1.766
						C143.353,32.731,144.54,34.772,147.212,35.626z M151.275,44.885h-2.354v-4.193h-9.239v-1.874h11.597L151.275,44.885
						L151.275,44.885z M151.275,38.057h-2.354v-4.976h-3.173v-1.945h3.173V28h2.354V38.057z"/>
				</g>
			</g>
		</g>
	</g>
	<g id="g-root-tx__8whxfo1wbamfg-fill" transform="translate(212, 158)" display="inline">
		<g id="tx__8whxfo1wbamfg-fill">
			<g>
				<g enable-background="new    ">
					<path fill="#FFFFFF" d="M73.142,35.888l-1.315,1.854c-1.885-0.863-3.229-2.588-3.973-4.62
						c-0.762,2.236-2.144,4.128-4.102,5.047l-1.373-1.874c2.82-1.314,4.229-4.45,4.249-7.233v-1.039h-3.581V26.09H72.4v1.933h-3.396
						v1.039C68.986,31.639,70.359,34.608,73.142,35.888z M76.092,30.897h2.486v1.982h-2.486v8.464h-2.375V24.458h2.375V30.897z"/>
					<path fill="#FFFFFF" d="M94.628,34.292H79.191v-1.854h6.567V30.99h-4.693v-5.789h11.708v1.837H83.42v2.1h9.442v1.854h-4.785
						v1.447h6.55L94.628,34.292L94.628,34.292z M92.754,38.263c-0.021,1.967-2.229,3.099-5.882,3.099
						c-3.691,0-5.919-1.132-5.919-3.099c0-2.007,2.228-3.117,5.919-3.117C90.528,35.146,92.736,36.259,92.754,38.263z
						 M83.366,38.263c-0.021,0.891,1.169,1.299,3.507,1.299c2.28,0,3.486-0.408,3.507-1.299c-0.021-0.872-1.227-1.317-3.507-1.317
						C84.535,36.946,83.347,37.391,83.366,38.263z"/>
					<path fill="#FFFFFF" d="M99.583,36.538V35.09c-1.8-0.353-2.971-1.491-2.95-3.062c-0.021-1.893,1.688-3.173,4.156-3.173
						c2.412,0,4.139,1.28,4.154,3.173c-0.02,1.568-1.206,2.718-2.985,3.062v1.354c1.336-0.065,2.682-0.176,3.935-0.354l0.147,1.729
						c-3.602,0.668-7.459,0.687-10.315,0.687l-0.313-1.93C96.642,36.575,98.08,36.575,99.583,36.538z M105.761,28.188h-10.02v-1.855
						h3.841v-1.778h2.375v1.778h3.805L105.761,28.188L105.761,28.188z M98.877,32.029c-0.021,0.891,0.762,1.373,1.911,1.373
						c1.111,0,1.874-0.482,1.874-1.373c0-0.872-0.763-1.373-1.874-1.373C99.638,30.656,98.859,31.157,98.877,32.029z M109.12,31.324
						h2.208v1.967h-2.208v8.056h-2.396V24.458h2.396V31.324z"/>
					<path fill="#FFFFFF" d="M126.598,31.008l-1.243,1.818c-1.81-0.584-3.069-1.716-3.805-3.173
						c-0.732,1.624-2.068,2.904-4.045,3.525l-1.227-1.874c2.804-0.816,4.047-2.876,4.063-5.065v-1.225h2.394v1.225
						C122.72,28.262,123.908,30.21,126.598,31.008z M130.643,38.263h-8.869v1.039h9.354v1.854h-11.688v-4.62h8.869v-0.965h-8.889
						v-1.818h11.227L130.643,38.263L130.643,38.263z M130.643,33.049h-2.354v-4.19h-3.175v-1.874h3.175V24.46h2.354V33.049z"/>
					<path fill="#FFFFFF" d="M143.947,40.601h-2.243v-5.566h-2.396v-1.911h2.396v-2.301h-2.078c-0.789,2.783-2.496,5.14-5.659,7.014
						l-1.394-1.67c3.425-2.021,4.928-4.479,5.253-7.793h-4.27v-1.911h6.624c0,0.847-0.057,1.661-0.146,2.449h1.67V24.83h2.243
						V40.601L143.947,40.601z M147.472,41.343h-2.228V24.458h2.228V41.343z"/>
				</g>
			</g>
		</g>
	</g>
	<g id="g-root-tx__4gofb81wban7q-fill" transform="translate(380, 182)" display="inline">
		<g id="tx__4gofb81wban7q-fill">
			<g>
				<g enable-background="new    ">
					<path fill="#FFFFFF" d="M44.295,32.496l-1.395,1.744c-1.503-0.891-2.496-2.403-3.063-4.212
						c-0.584,1.967-1.604,3.637-3.153,4.583l-1.43-1.744c2.486-1.521,3.414-4.563,3.414-7.422v-0.909h-2.767v-1.893h7.607v1.893
						h-2.56v0.909C40.954,28.247,41.824,31.085,44.295,32.496z M46.762,37.023h-2.229v-8.405h-2.227v-1.911h2.227v-5.511h2.229
						V37.023z M50.214,37.802h-2.245V20.917h2.245V37.802z"/>
					<path fill="#FFFFFF" d="M61.622,23.793h-3.355c0.019,1.979,1.188,3.999,3.934,4.88l-1.206,1.84
						c-1.874-0.604-3.164-1.812-3.896-3.321c-0.751,1.648-2.097,2.959-4.063,3.6l-1.262-1.815c2.792-0.9,4.063-3.063,4.103-5.18
						h-3.45v-1.893h9.203v1.892L61.622,23.793L61.622,23.793z M65.428,37.802h-2.375V33.7h-8.999v-1.874h11.374V37.802z
						 M65.428,25.018h2.282v1.967h-2.282v4.119h-2.375V20.917h2.375V25.018z"/>
					<path fill="#FFFFFF" d="M81.941,29.044h-8.257V21.94h8.257V29.044z M87.246,33.182h-4.729c0.26,1.147,2.041,2.477,5.381,2.802
						L87.1,37.765c-2.813-0.263-4.806-1.28-5.826-2.616c-1.048,1.354-3.052,2.347-5.882,2.616l-0.816-1.781
						c3.389-0.271,5.167-1.624,5.418-2.802h-4.729v-1.766h4.806v-1.392h2.375v1.392h4.807v1.766H87.246z M76.022,27.189h3.563
						v-3.414h-3.563V27.189z M86.949,30.492h-2.354v-9.574h2.354V30.492z"/>
					<path fill="#FFFFFF" d="M103.817,27.467l-1.243,1.818c-1.809-0.584-3.068-1.716-3.804-3.173
						c-0.733,1.624-2.069,2.904-4.045,3.525L93.5,27.763c2.803-0.816,4.046-2.876,4.063-5.065v-1.225h2.394v1.225
						C99.939,24.721,101.128,26.669,103.817,27.467z M107.862,34.722h-8.869v1.039h9.354v1.854h-11.69v-4.62h8.869V32.03h-8.888
						v-1.818h11.226L107.862,34.722L107.862,34.722z M107.862,29.508h-2.354v-4.19h-3.173v-1.874h3.173V20.92h2.354V29.508z"/>
					<path fill="#FFFFFF" d="M120.851,32.57l-1.28,1.818c-1.92-0.789-3.293-2.403-4.063-4.345c-0.751,2.063-2.137,3.785-4.104,4.604
						l-1.262-1.818c2.783-1.206,4.156-4.045,4.156-6.624v-0.646h-3.603v-1.896h3.581v-2.375h2.356v2.375h3.522v1.896h-3.507v0.646
						C116.656,28.655,118.05,31.419,120.851,32.57z M124.173,37.802h-2.375V20.917h2.375V37.802z"/>
				</g>
			</g>
		</g>
	</g>
	<g id="g-root-tx__1q6yg041wbalfs-fill" transform="translate(542, 206)" display="inline">
		<g id="tx__1q6yg041wbalfs-fill">
			<g>
				<g enable-background="new    ">
					<path fill="#FFFFFF" d="M21.97,28.62l-1.395,1.896c-1.93-0.872-3.266-2.555-4.023-4.642c-0.771,2.272-2.152,4.11-4.212,5.047
						l-1.432-1.967c2.95-1.243,4.379-4.472,4.397-7.756v-2.523h2.394v2.523C17.7,24.297,19.112,27.414,21.97,28.62z M25.272,34.298
						h-2.394V17.376h2.394V34.298z"/>
					<path fill="#FFFFFF" d="M42.99,27.488h-6.398v2.932h-2.396v-2.932h-6.661v-1.893H42.99V27.488z M41.359,21.198
						c-0.019,2.152-2.449,3.488-6.104,3.488c-3.677,0-6.123-1.336-6.123-3.488c0-2.134,2.446-3.488,6.123-3.507
						C38.908,17.71,41.342,19.064,41.359,21.198z M41.283,33.964H29.371v-5.047h2.396v3.139h9.519L41.283,33.964L41.283,33.964z
						 M31.692,21.198c-0.019,1.039,1.373,1.596,3.563,1.596c2.171,0,3.563-0.557,3.563-1.596c0-1.076-1.392-1.633-3.563-1.633
						C33.065,19.565,31.675,20.122,31.692,21.198z"/>
					<path fill="#FFFFFF" d="M54.236,25.614l-1.169,1.874c-1.874-0.604-3.154-1.837-3.896-3.377
						c-0.742,1.707-2.089,3.062-4.082,3.729l-1.206-1.93c2.78-0.872,4.045-3.08,4.063-5.229v-0.263H44.55v-1.893h9.166v1.893h-3.358
						v0.278C50.358,22.646,51.547,24.742,54.236,25.614z M58.615,33.964H47V28.64h2.375v3.433h9.238L58.615,33.964L58.615,33.964z
						 M58.207,29.715h-2.355v-6.049h-2.765v-1.911h2.765v-4.357h2.355V29.715z"/>
					<path fill="#FFFFFF" d="M64.962,28.991c0-1.577,0.989-2.515,2.468-3.525c-0.727-0.896-1.299-1.884-1.299-3.077
						c0-1.948,1.444-3.451,3.652-3.451c2.152,0,3.473,1.444,3.473,3.151c0,1.28-0.649,2.282-1.781,3.102l-0.779,0.575l2.245,2.576
						c0.344-0.655,0.557-1.444,0.557-2.316h2.282c0,1.827-0.474,3.229-1.206,4.212l2.022,2.319H73.72l-0.816-0.931
						c-0.992,0.788-2.264,1.132-3.451,1.132C66.668,32.758,64.962,31.106,64.962,28.991z M69.579,30.531
						c0.622,0,1.255-0.195,1.839-0.557l-2.578-2.876l-0.096,0.071c-0.761,0.56-1.11,1.15-1.11,1.67
						C67.634,29.808,68.394,30.531,69.579,30.531z M69.358,24.186l0.705-0.464c0.668-0.43,0.983-0.894,0.983-1.484
						c0-0.521-0.445-1.076-1.243-1.076c-0.779,0-1.317,0.575-1.317,1.262C68.486,22.988,68.84,23.555,69.358,24.186z"/>
					<path fill="#FFFFFF" d="M96.91,29.288H93.35v4.976h-2.396v-4.976h-3.522v4.976h-2.356v-4.976h-3.617v-1.93h15.455L96.91,29.288
						L96.91,29.288z M95.261,26.171H83.404v-8.105h11.671v1.854h-9.352v1.243h8.999v1.837h-8.999v1.299h9.537L95.261,26.171
						L95.261,26.171z"/>
					<path fill="#FFFFFF" d="M101.235,24.26c2.319-0.027,4.604-0.216,7.016-0.727l0.276,1.911c-2.802,0.594-5.474,0.779-8.201,0.761
						H98.86v-7.771h2.375V24.26z M112.053,30.847c0,2.134-2.245,3.414-5.811,3.414c-3.581,0-5.845-1.28-5.823-3.414
						c-0.021-2.189,2.242-3.473,5.823-3.473C109.808,27.377,112.053,28.657,112.053,30.847z M102.775,30.847
						c0,1.002,1.226,1.54,3.47,1.54c2.229,0,3.414-0.538,3.436-1.54c-0.021-1.061-1.206-1.562-3.436-1.562
						C104,29.288,102.775,29.789,102.775,30.847z M111.979,27.173h-2.356v-9.797h2.356V27.173z"/>
				</g>
			</g>
		</g>
	</g>
	<g id="g-root-tx__hs4xok1wbalmr-fill" transform="translate(26, 218)" display="inline">
		<g id="tx__hs4xok1wbalmr-fill">
			<g>
				<g enable-background="new    ">
					<path fill="#484848" d="M96.989,19.01h-9.333v-1.188h4.01v-2.041h1.445v2.041h3.878V19.01z M96.136,23.073
						c0,1.874-1.56,3.154-3.768,3.154s-3.748-1.28-3.729-3.154c-0.02-1.893,1.521-3.154,3.729-3.154S96.136,21.181,96.136,23.073z
						 M89.994,23.073c0,1.188,0.965,1.985,2.375,1.985c1.408,0,2.375-0.798,2.395-1.985c-0.02-1.188-0.983-1.985-2.395-2.004
						C90.959,21.088,89.994,21.886,89.994,23.073z M101.684,31.924h-11.04v-4.654h1.466V30.7h9.574V31.924z M101.313,28.38h-1.466
						v-3.544H96.99v-1.188h2.857v-2.245H96.99v-1.206h2.857V15.8h1.466V28.38z"/>
					<path fill="#484848" d="M113.688,23.797L113,24.947c-1.901-0.621-3.34-1.939-4.045-3.6c-0.714,1.893-2.235,3.364-4.212,4.082
						l-0.742-1.169c2.469-0.838,4.191-2.972,4.212-5.347V18.21h-3.769v-1.206h8.906v1.206h-3.711v0.705
						C109.644,21.069,111.258,22.999,113.688,23.797z M117.103,29.196c0,1.93-2.041,3.043-5.438,3.043
						c-3.397,0-5.476-1.113-5.476-3.043c0-1.893,2.078-3.006,5.476-3.006C115.062,26.19,117.103,27.304,117.103,29.196z
						 M107.658,29.196c-0.021,1.188,1.521,1.874,4.008,1.874c2.505,0,4.024-0.688,4.024-1.874c0-1.15-1.521-1.837-4.024-1.837
						C109.18,27.359,107.64,28.046,107.658,29.196z M116.954,19.993h2.484v1.225h-2.484v4.527h-1.447v-9.964h1.447V19.993z"/>
					<path fill="#484848" d="M135.305,22.721l-0.725,1.132c-1.932-0.659-3.472-2.041-4.212-3.822
						c-0.742,1.921-2.292,3.433-4.249,4.138l-0.763-1.147c2.486-0.872,4.249-3.063,4.249-5.492v-1.262h1.483v1.262
						C131.074,19.863,132.855,21.923,135.305,22.721z M138.867,29.122h-9.261v1.781h9.854v1.188h-11.28V27.99h9.239v-1.651h-9.276
						V25.17h10.727L138.867,29.122L138.867,29.122z M138.849,24.335h-1.43v-8.554h1.43V24.335z"/>
					<path fill="#484848" d="M156.698,25.3H141.67v-1.188h15.027V25.3z M149.889,17.451h5.288v1.169h-5.195
						c0.104,1.874,2.709,3.163,5.826,3.436l-0.48,1.147c-2.72-0.297-5.148-1.299-6.144-2.969c-1.002,1.67-3.434,2.672-6.143,2.969
						l-0.481-1.147c3.101-0.271,5.706-1.562,5.826-3.436h-5.158v-1.169h5.231v-1.707h1.43V17.451L149.889,17.451z M154.843,32.276
						h-1.466v-4.008h-10.038V27.08h11.504V32.276z"/>
					<path fill="#484848" d="M171.468,23.574h-7.736v-6.717h7.736V23.574L171.468,23.574z M177.461,31.089l-0.501,1.135
						c-2.485-0.334-4.75-1.506-5.715-3.043c-1.002,1.565-3.321,2.709-5.81,3.043l-0.521-1.135c2.839-0.313,5.564-1.908,5.564-3.563
						h-4.88v-1.132h4.897V24.78h1.445v1.614h4.938v1.132h-4.897C171.987,29.141,174.622,30.736,177.461,31.089z M165.159,22.424
						h4.88v-4.379h-4.88V22.424z M176.459,25.263h-1.431v-9.481h1.431V25.263z"/>
				</g>
				<g enable-background="new    ">
					<path fill="#484848" d="M102.723,45.888h-6.718v3.377h-1.446v-3.377H87.62v-1.206h15.104L102.723,45.888L102.723,45.888z
						 M101.034,52.382H89.549v-4.75h1.467v3.525h10.021L101.034,52.382L101.034,52.382z M100.756,42.789h-11.17v-5.73h11.17V42.789z
						 M91.015,41.62h8.294v-3.414h-8.294V41.62z"/>
					<path fill="#484848" d="M112.464,47.966l-0.893,1.076c-1.622-0.974-2.772-2.755-3.34-4.858c-0.604,2.271-1.8,4.212-3.449,5.251
						l-0.93-1.098c2.301-1.373,3.639-4.379,3.639-7.385v-1.559h-3.175v-1.206h7.606v1.206H108.9v1.559
						C108.901,43.81,110.182,46.648,112.464,47.966z M114.82,51.881h-1.373v-8.498h-2.781v-1.188h2.781v-5.548h1.373V51.881z
						 M118.16,52.734h-1.394V36.239h1.394V52.734z"/>
					<path fill="#484848" d="M135.416,44.793l-0.742,1.169c-1.92-0.646-3.45-2.004-4.192-3.748
						c-0.725,1.887-2.271,3.368-4.229,4.082l-0.761-1.169c2.468-0.872,4.229-3.006,4.229-5.344v-0.965h-3.859V37.63h9.131v1.188
						h-3.806v0.965C131.186,42.01,132.948,44.014,135.416,44.793z M139.387,52.382h-11.171v-5.177h1.447v3.952h9.724V52.382z
						 M138.867,48.355h-1.447V36.258h1.447V48.355z"/>
					<path fill="#484848" d="M149.796,38.893h-5.899v5.14c3.313,0,5.194-0.083,7.402-0.538l0.187,1.206
						c-2.317,0.445-4.284,0.557-7.756,0.557h-1.278v-7.589h7.348L149.796,38.893L149.796,38.893z M155.325,52.382h-11.077v-5.396
						h1.43v4.175h9.647V52.382z M154.564,41.156h2.505v1.225h-2.505v5.811h-1.445V36.24h1.445V41.156z"/>
				</g>
			</g>
		</g>
	</g>
	<g id="g-root-tx__8whxfo1wbamfh-fill" transform="translate(194, 242)" display="inline">
		<g id="tx__8whxfo1wbamfh-fill">
			<g>
				<g enable-background="new    ">
					<path fill="#484848" d="M70.993,19.68H64.98v3.856c3.063,0,5.194-0.102,7.7-0.575l0.147,1.206
						c-2.6,0.482-4.808,0.597-7.979,0.612h-1.317v-6.309h6.014v-3.488h-6.049v-1.206h7.496L70.993,19.68L70.993,19.68z
						 M75.613,18.808h2.767v1.225h-2.767v8.739h-1.445V12.239h1.445V18.808z"/>
					<path fill="#484848" d="M88.305,17.453c0,2.412-1.854,4.063-4.323,4.063c-2.468,0-4.321-1.651-4.321-4.063
						c0-2.375,1.854-4.045,4.321-4.045C86.45,13.408,88.305,15.078,88.305,17.453z M81.087,17.453
						c-0.021,1.651,1.226,2.783,2.896,2.783c1.635,0,2.896-1.132,2.896-2.783c0-1.614-1.262-2.765-2.896-2.765
						C82.312,14.688,81.068,15.839,81.087,17.453z M93.406,28.382h-11.17v-5.285h1.447v4.063h9.723V28.382z M92.888,24.318H91.44
						V12.258h1.447L92.888,24.318L92.888,24.318z"/>
					<path fill="#484848" d="M110.181,19.271l-0.779,1.132c-1.826-0.649-3.282-1.948-4.008-3.618
						c-0.705,1.883-2.199,3.321-4.156,4.026l-0.798-1.169c2.485-0.816,4.192-2.896,4.212-5.31v-1.559h1.431v1.559
						C106.062,16.507,107.769,18.474,110.181,19.271z M114.133,25.543h-9.222v1.8h9.834v1.172h-11.265V24.43h9.203v-1.651h-9.24
						V21.61h10.688L114.133,25.543L114.133,25.543z M114.133,20.774h-1.466v-4.286h-3.674v-1.206h3.674v-3.043h1.466V20.774z"/>
					<path fill="#484848" d="M127.659,27.899h-1.394v-5.715h-3.063v-1.206h3.063v-2.935h-2.783
						c-0.807,2.793-2.614,5.263-5.731,7.125l-0.893-1.058c3.592-2.124,5.392-5.104,5.68-8.554h-4.938v-1.206h6.383
						c0,0.845-0.072,1.679-0.223,2.483h2.505v-4.153h1.394V27.899z M130.999,28.734h-1.394V12.239h1.394V28.734z"/>
					<path fill="#484848" d="M146.678,20.032h-7.737v-6.717h7.737V20.032z M152.671,27.547l-0.501,1.135
						c-2.485-0.334-4.75-1.506-5.715-3.043c-1.002,1.564-3.321,2.709-5.81,3.043l-0.521-1.135c2.839-0.313,5.564-1.908,5.564-3.563
						h-4.88v-1.132h4.897v-1.614h1.445v1.614h4.938v1.132h-4.898C147.197,25.599,149.832,27.194,152.671,27.547z M140.369,18.882
						h4.88v-4.379h-4.88V18.882z M151.669,21.721h-1.431V12.24h1.431V21.721z"/>
				</g>
				<g enable-background="new    ">
					<path fill="#484848" d="M72.478,40.715l-0.688,1.15c-1.901-0.621-3.34-1.939-4.045-3.6c-0.716,1.893-2.235,3.364-4.212,4.082
						l-0.742-1.169c2.469-0.835,4.191-2.972,4.212-5.347V35.13h-3.769v-1.206h8.906v1.206H68.43v0.705
						C68.433,37.987,70.047,39.917,72.478,40.715z M75.892,46.114c0,1.93-2.041,3.043-5.438,3.043c-3.397,0-5.476-1.113-5.476-3.043
						c0-1.893,2.078-3.006,5.476-3.006C73.851,43.108,75.892,44.222,75.892,46.114z M66.447,46.114
						c-0.019,1.188,1.521,1.874,4.01,1.874c2.505,0,4.024-0.688,4.024-1.874c0-1.15-1.521-1.837-4.024-1.837
						C67.969,44.277,66.429,44.964,66.447,46.114z M75.743,36.911h2.484v1.228h-2.484v4.524h-1.447v-9.964h1.447V36.911z"/>
					<path fill="#484848" d="M81.681,38.47h4.917v-4.36h1.429v11.133h-7.793V34.109h1.447V38.47z M86.598,44.018v-4.379h-4.917
						v4.379H86.598z M92.869,49.231h-1.468V32.699h1.468V49.231z"/>
					<path fill="#484848" d="M110.181,41.16l-0.816,1.132c-1.809-0.724-3.245-2.161-3.95-3.952c-0.705,1.994-2.208,3.581-4.156,4.36
						l-0.778-1.188c2.468-0.909,4.175-3.21,4.192-5.752v-2.04h1.43v2.097C106.099,38.117,107.769,40.288,110.181,41.16z
						 M114.504,48.842h-11.04v-5.177h1.467v3.952h9.573V48.842z M114.133,45.075h-1.466V37.82h-3.674v-1.225h3.674v-3.881h1.466
						V45.075z"/>
					<path fill="#484848" d="M126.676,40.752l-0.761,1.169c-1.854-0.668-3.293-2.05-3.989-3.767
						c-0.724,1.938-2.254,3.488-4.212,4.229l-0.761-1.169c2.447-0.891,4.191-3.114,4.191-5.474v-0.61h-3.729v-1.225h8.889v1.225
						h-3.692v0.597C122.612,37.876,124.264,39.917,126.676,40.752z M130.609,46.114c0,1.948-2.097,3.062-5.527,3.08
						c-3.435-0.021-5.529-1.132-5.529-3.08s2.098-3.062,5.529-3.062C128.512,43.052,130.609,44.166,130.609,46.114z M120.998,46.114
						c-0.021,1.188,1.56,1.911,4.082,1.911c2.521,0,4.082-0.727,4.082-1.911c0-1.206-1.561-1.93-4.082-1.93
						C122.557,44.184,120.979,44.908,120.998,46.114z M130.554,42.533h-1.467V38.21h-3.32v-1.206h3.32v-4.305h1.467V42.533z"/>
				</g>
			</g>
		</g>
	</g>
	<g id="g-root-tx__1lr4xvo1wbam82-fill" transform="translate(716, 230)" display="inline">
		<g id="tx__1lr4xvo1wbam82-fill">
			<g>
				<g enable-background="new    ">
					<path fill="#FFFFFF" d="M-1.395,25.041l-1.429,1.896c-1.813-0.894-3.024-2.563-3.729-4.604
						c-0.729,2.189-2.041,3.98-3.952,4.917l-1.466-1.911c2.857-1.314,4.212-4.546,4.212-7.682v-2.523h2.375v2.523
						C-5.402,20.681-4.104,23.742-1.395,25.041z M1.723,20.347h2.483v2.004H1.723v8.368h-2.375V13.834h2.375V20.347z"/>
					<path fill="#FFFFFF" d="M20.222,23.724h-15.4V21.83h3.473v-2.021c-1.234-0.547-1.933-1.386-1.933-2.471
						c0-2.041,2.396-3.266,6.16-3.266c3.729,0,6.123,1.225,6.142,3.266c-0.009,1.098-0.73,1.948-1.982,2.486v2.004h3.544
						L20.222,23.724L20.222,23.724z M18.385,27.639c-0.021,1.982-2.229,3.062-5.882,3.062c-3.712,0-5.922-1.076-5.922-3.062
						c0-1.948,2.21-3.024,5.922-3.024C16.156,24.614,18.365,25.69,18.385,27.639z M8.827,17.341
						c-0.019,0.931,1.302,1.395,3.692,1.395c2.355,0,3.692-0.464,3.692-1.395c0-0.943-1.337-1.444-3.692-1.444
						C10.129,15.894,8.811,16.395,8.827,17.341z M8.994,27.639c-0.019,0.872,1.169,1.299,3.51,1.299
						c2.279,0,3.485-0.427,3.507-1.299c-0.021-0.835-1.228-1.243-3.507-1.243C10.163,26.396,8.978,26.804,8.994,27.639z
						 M14.321,21.831v-1.41c-0.557,0.065-1.159,0.096-1.8,0.096c-0.658,0-1.271-0.027-1.837-0.111v1.429L14.321,21.831
						L14.321,21.831z"/>
					<path fill="#FFFFFF" d="M31.614,25.264l-1.314,1.854c-1.886-0.863-3.229-2.588-3.974-4.62
						c-0.761,2.235-2.143,4.128-4.101,5.047l-1.373-1.874c2.82-1.314,4.229-4.45,4.249-7.233v-1.039H21.52v-1.933h9.352v1.933
						h-3.396v1.039C27.459,21.015,28.829,23.983,31.614,25.264z M34.564,20.272h2.486v1.982h-2.486v8.461h-2.375V13.834h2.375
						V20.272z"/>
					<path fill="#FFFFFF" d="M57.442,28.659H42.043v-1.93h3.281v-5.31h2.356v5.31h1.854v-5.31h2.338v5.31h5.566L57.442,28.659
						L57.442,28.659z M56.052,16.951c-0.021,2.063-0.021,4.379-0.631,7.774l-2.319-0.204c0.557-3.09,0.575-5.394,0.575-7.351H43.563
						V15.3H56.05L56.052,16.951L56.052,16.951z"/>
					<path fill="#FFFFFF" d="M73.863,23.594h-3.711v1.574h1.837v5.551h-2.354v-3.692h-9.463v-1.855h1.93v-1.574h-3.637V21.72h15.397
						V23.594z M72.305,17.489c-0.021,2.06-2.433,3.34-6.145,3.34c-3.729,0-6.157-1.28-6.157-3.34s2.431-3.34,6.157-3.321
						C69.875,14.149,72.284,15.43,72.305,17.489z M62.471,17.489c-0.021,1.002,1.336,1.503,3.689,1.503
						c2.34,0,3.692-0.501,3.692-1.503c0-0.965-1.354-1.484-3.692-1.484C63.807,16.005,62.45,16.524,62.471,17.489z M67.814,25.171
						v-1.574h-3.321v1.574H67.814z"/>
				</g>
			</g>
		</g>
	</g>
	<g id="g-root-tx__18gawlg1wbakn8-fill" transform="translate(878, 254)" display="inline">
		<g id="tx__18gawlg1wbakn8-fill">
			<g>
				<g enable-background="new    ">
					<path fill="#FFFFFF" d="M-22.797,21.593h-3.615v5.588h-2.412v-5.585h-3.451v5.585h-2.432v-5.585h-3.543v-1.911h15.453V21.593z
						 M-24.408,14.672c0,2.282-2.542,3.711-6.16,3.711s-6.145-1.429-6.123-3.711c-0.021-2.316,2.505-3.819,6.123-3.819
						S-24.408,12.353-24.408,14.672z M-34.262,14.672c-0.019,1.188,1.432,1.855,3.692,1.855c2.282,0,3.711-0.668,3.711-1.855
						c0-1.24-1.429-1.93-3.711-1.93C-32.832,12.742-34.28,13.429-34.262,14.672z"/>
					<path fill="#FFFFFF" d="M-11.031,21.723l-1.28,1.854c-1.995-0.844-3.368-2.521-4.119-4.583
						c-0.771,2.235-2.171,4.091-4.156,5.01l-1.354-1.874c2.802-1.24,4.249-4.379,4.249-7.233v-1.039h-3.581v-1.933h9.537v1.933
						h-3.525v1.039C-15.262,17.622-13.869,20.535-11.031,21.723z M-7.675,27.178h-2.394V10.293h2.394V27.178z"/>
					<path fill="#FFFFFF" d="M10.065,25.211H-5.391v-1.93h6.513v-3.117h-4.88v-8.795h2.375v2.616h7.366v-2.616H8.34v8.795H3.479
						v3.117h6.587L10.065,25.211L10.065,25.211z M5.983,18.271v-2.396h-7.366v2.396H5.983z"/>
					<path fill="#FFFFFF" d="M26.431,21.407h-6.568v5.771h-2.338v-5.771H11.03v-1.93h15.4L26.431,21.407L26.431,21.407z
						 M25.893,16.286l-0.928,1.911c-2.95-0.427-5.111-1.791-6.218-3.618c-1.111,1.827-3.258,3.191-6.18,3.618l-0.945-1.911
						c3.843-0.479,5.884-2.688,5.884-4.676v-0.816h2.483v0.816C19.99,13.596,22.015,15.804,25.893,16.286z"/>
					<path fill="#FFFFFF" d="M42.61,21.723l-1.28,1.854c-1.991-0.844-3.364-2.521-4.116-4.583c-0.771,2.235-2.174,4.091-4.156,5.01
						L31.7,22.131c2.805-1.24,4.249-4.379,4.249-7.233v-1.039h-3.581v-1.933h9.537v1.933h-3.522v1.039
						C38.381,17.622,39.771,20.535,42.61,21.723z M45.969,27.178h-2.396V10.293h2.396V27.178z"/>
					<path fill="#FFFFFF" d="M62.928,26.881h-12.58v-5.047h2.354v-2.245c-1.513,0.065-2.947,0.074-4.229,0.074l-0.278-1.874
						c3.102-0.019,7.273-0.056,10.836-0.501l0.13,1.688c-1.336,0.223-2.718,0.381-4.082,0.479v3.21h-2.375v2.319H62.93
						L62.928,26.881L62.928,26.881z M57.899,13.911c0,1.8-1.763,2.969-4.212,2.969c-2.505,0-4.249-1.169-4.249-2.969
						s1.726-3.043,4.249-3.021C56.137,10.868,57.899,12.111,57.899,13.911z M51.684,13.911c-0.021,0.816,0.798,1.262,2.004,1.262
						c1.132,0,1.948-0.442,1.967-1.262c-0.019-0.835-0.835-1.299-1.967-1.299C52.481,12.612,51.663,13.076,51.684,13.911z
						 M62.557,23.059h-2.375v-1.336h-3.229v-1.614h3.229v-9.797h2.375V23.059z"/>
				</g>
			</g>
		</g>
	</g>
	<g id="g-root-tx__1q6yg041wbalft-fill" transform="translate(530, 290)" display="inline">
		<g id="tx__1q6yg041wbalft-fill">
			<g>
				<g enable-background="new    ">
					<path fill="#484848" d="M23.065,13.213l-0.761,1.169c-1.855-0.668-3.293-2.054-3.989-3.77c-0.724,1.938-2.254,3.488-4.212,4.23
						l-0.761-1.169c2.446-0.894,4.19-3.117,4.19-5.477V7.59h-3.729V6.363h8.888V7.59h-3.689v0.595
						C19.003,10.334,20.653,12.375,23.065,13.213z M27,18.572c0,1.948-2.1,3.063-5.529,3.08c-3.436-0.019-5.529-1.132-5.529-3.08
						s2.097-3.062,5.529-3.062C24.902,15.51,27,16.624,27,18.572z M17.388,18.572c-0.021,1.188,1.559,1.911,4.082,1.911
						c2.521,0,4.082-0.724,4.082-1.911c0-1.206-1.562-1.93-4.082-1.93C18.947,16.642,17.367,17.366,17.388,18.572z M26.943,14.991
						h-1.466v-4.32h-3.321V9.465h3.321V5.157h1.466V14.991z"/>
					<path fill="#484848" d="M38.3,12.802h-7.737V6.085H38.3V12.802z M31.99,11.651h4.88V7.272h-4.88V11.651z M43.288,18.427h-9.237
						v1.854h9.834v1.188H32.603v-4.119h9.259V15.66h-9.274v-1.17h10.702L43.288,18.427L43.288,18.427z M43.288,13.677H41.86v-8.52
						h1.429V13.677z"/>
					<path fill="#484848" d="M57.671,8.349h-4.75v3.266h3.986v1.169h-3.986v3.711c2.362-0.024,3.813-0.108,5.604-0.442l0.13,1.188
						c-1.911,0.393-3.47,0.428-6.086,0.445H51.53V7.18h6.145L57.671,8.349L57.671,8.349z M61.62,20.802H60.23v-8.164H57.8V11.43
						h2.431V5.565h1.392L61.62,20.802L61.62,20.802z M65,21.652h-1.41V5.157H65V21.652z"/>
					<path fill="#484848" d="M82.403,19.407H67.301v-1.206h15.104L82.403,19.407L82.403,19.407z M81.625,13.47l-0.671,1.225
						c-2.483-0.575-5.109-2.347-6.179-4.787c-1.063,2.434-3.684,4.202-6.179,4.787L67.93,13.47c2.854-0.56,6.064-3.043,6.064-5.883
						V6.326h1.521V7.59C75.52,10.408,78.746,12.932,81.625,13.47z"/>
					<path fill="#484848" d="M98.823,19.5H83.721v-1.203h15.104L98.823,19.5L98.823,19.5z M97.078,15.27H85.67V6.586h11.226v1.228
						h-9.741v2.449h9.391v1.169h-9.391v2.65h9.928L97.078,15.27L97.078,15.27z"/>
				</g>
				<g enable-background="new    ">
					<path fill="#484848" d="M21.879,33.409h-7.737v-6.717h7.737V33.409z M27.869,40.927l-0.501,1.132
						c-2.483-0.334-4.75-1.503-5.715-3.043c-1.002,1.564-3.319,2.709-5.808,3.043l-0.521-1.132c2.839-0.315,5.566-1.911,5.566-3.563
						h-4.88V36.23h4.896v-1.614h1.447v1.614h4.938v1.132h-4.897C22.397,38.976,25.031,40.571,27.869,40.927z M15.569,32.26h4.88
						v-4.379h-4.88V32.26L15.569,32.26z M26.867,35.098H25.44v-9.481h1.429L26.867,35.098L26.867,35.098z"/>
					<path fill="#484848" d="M40.712,37.344c1.586-0.065,3.21-0.204,4.729-0.43l0.111,1.076c-3.77,0.688-7.83,0.705-10.799,0.705
						l-0.204-1.206c1.383-0.009,3.016-0.019,4.729-0.071v-3.102h1.432L40.712,37.344L40.712,37.344z M44.59,28.993h-3.878
						c0.034,2.137,1.809,3.868,4.249,4.564l-0.688,1.147c-1.985-0.594-3.535-1.861-4.268-3.544
						c-0.727,1.771-2.267,3.093-4.249,3.692l-0.705-1.113c2.438-0.714,4.153-2.521,4.19-4.75H35.46v-1.206h3.819v-2.041h1.432v2.041
						h3.878L44.59,28.993L44.59,28.993z M47.984,42.148h-1.447V25.616h1.447V42.148z"/>
					<path fill="#484848" d="M60.677,33.688l-0.764,1.15c-1.861-0.668-3.303-2.054-4.008-3.748c-0.714,1.899-2.232,3.424-4.19,4.138
						l-0.764-1.15c2.434-0.872,4.193-3.08,4.193-5.396v-0.727h-3.729v-1.188h8.889v1.188h-3.692v0.705
						C56.612,30.812,58.264,32.853,60.677,33.688z M64.554,42.111h-1.466v-4.527h-9.631v-1.203h11.097V42.111z M64.554,35.509
						h-1.466v-4.345h-3.306v-1.225h3.306v-4.323h1.466V35.509z"/>
					<path fill="#484848" d="M71.642,37.658v-1.837c-1.921-0.214-3.173-1.336-3.154-2.969c-0.019-1.855,1.562-3.063,3.896-3.063
						c2.301,0,3.896,1.206,3.915,3.063c-0.021,1.633-1.289,2.755-3.191,2.987v1.763c1.54-0.074,3.09-0.194,4.527-0.408l0.093,1.113
						c-3.6,0.612-7.496,0.646-10.391,0.646l-0.241-1.24C68.441,37.717,70.01,37.717,71.642,37.658z M77.339,28.826h-9.945v-1.188
						h4.249v-1.985h1.466v1.985h4.23V28.826z M69.843,32.853c0,1.15,1.021,1.893,2.542,1.874c1.503,0.019,2.521-0.724,2.521-1.874
						s-1.021-1.93-2.521-1.93C70.862,30.926,69.843,31.702,69.843,32.853z M80.103,32.648h2.635v1.225h-2.635v8.238h-1.466V25.616
						h1.466V32.648z"/>
				</g>
			</g>
		</g>
	</g>
	<g id="g-root-tx__1cvhxms1wban0r-fill" transform="translate(698, 314)" display="inline">
		<g id="tx__1cvhxms1wban0r-fill">
			<g>
				<g enable-background="new    ">
					<path fill="#484848" d="M-1.872,9.725l-0.742,1.132c-1.883-0.668-3.321-2.021-4.026-3.729c-0.705,1.874-2.218,3.33-4.156,4.045
						l-0.776-1.135c2.468-0.869,4.19-3.006,4.212-5.359V3.973h-3.77V2.785h8.906v1.188h-3.711v0.705
						C-5.937,6.867-4.322,8.871-1.872,9.725z M1.375,18.111h-1.447v-4.49h-9.354v-1.188H1.375V18.111z M1.375,5.977H3.86V7.22H1.375
						v4.342h-1.447V1.616h1.447V5.977z"/>
					<path fill="#484848" d="M13.656,5.568h3.451V1.616h1.466v8.854h-1.466V6.774h-3.433c-0.297,1.948-1.994,3.247-4.23,3.247
						c-2.505,0-4.286-1.559-4.286-3.822c0-2.245,1.781-3.819,4.286-3.804C11.66,2.38,13.343,3.666,13.656,5.568z M6.552,6.199
						c0,1.503,1.206,2.601,2.895,2.601c1.67,0,2.857-1.098,2.857-2.601c0-1.521-1.188-2.579-2.857-2.561
						C7.758,3.62,6.552,4.678,6.552,6.199z M9.406,13.398h7.7v-2.097h1.466v6.587H7.942v-6.587h1.466L9.406,13.398L9.406,13.398z
						 M17.108,16.701v-2.134h-7.7v2.134H17.108z"/>
					<path fill="#484848" d="M31.191,13.383l-0.835,1.147c-1.854-0.896-3.423-2.866-4.156-5.103
						c-0.761,2.431-2.421,4.563-4.268,5.511l-0.894-1.15c2.375-1.147,4.416-4.283,4.438-7.104V4.529h-3.841V3.323h8.979v1.206
						h-3.711v2.152C26.887,9.338,28.799,12.248,31.191,13.383z M34.087,8.299h2.765v1.24h-2.765v8.572H32.64V1.616h1.447V8.299z"/>
					<path fill="#484848" d="M51.117,9.409h-7.734V2.692h7.734V9.409z M57.112,16.927l-0.501,1.132
						c-2.485-0.334-4.75-1.503-5.715-3.043c-1.002,1.564-3.321,2.709-5.808,3.043l-0.521-1.132c2.839-0.315,5.566-1.911,5.566-3.563
						h-4.88V12.23h4.896v-1.614h1.447v1.614h4.936v1.132h-4.896C51.639,14.976,54.273,16.571,57.112,16.927z M44.811,8.26h4.88
						V3.883h-4.88V8.26z M56.11,11.098h-1.429V1.616h1.429V11.098z"/>
				</g>
				<g enable-background="new    ">
					<path fill="#484848" d="M-6.622,30.554c1.825-0.074,3.721-0.204,5.437-0.445l0.093,1.076
						c-3.451,0.594-7.438,0.668-10.372,0.668l-0.146-1.206c1.064-0.01,2.271-0.019,3.544-0.056V27.01h1.447L-6.622,30.554
						L-6.622,30.554z M-2.373,24.227c-0.021,1.076-0.021,2.728-0.43,4.88l-1.466-0.111c0.399-1.976,0.438-3.377,0.464-4.416h-6.791
						v-1.225h8.223V24.227z M1.948,38.219h-11.02v-4.846h1.466v3.618h9.556L1.948,38.219L1.948,38.219z M1.409,27.455h2.412v1.243
						H1.409v5.789h-1.481V22.074h1.481V27.455z"/>
					<path fill="#484848" d="M13.51,29.478H7.35v3.896c2.737,0,5.177-0.117,8.127-0.594l0.148,1.228
						c-3.046,0.479-5.551,0.594-8.39,0.594H5.864V28.29h6.181v-3.47H5.825v-1.206h7.685V29.478z M18.519,38.606h-1.447V22.074h1.447
						V38.606z"/>
					<path fill="#484848" d="M31.191,33.841l-0.835,1.147c-1.854-0.897-3.423-2.867-4.156-5.103
						c-0.761,2.431-2.421,4.563-4.268,5.511l-0.894-1.15c2.375-1.147,4.416-4.283,4.438-7.104V24.99h-3.841v-1.206h8.979v1.206
						h-3.711v2.152C26.887,29.796,28.799,32.706,31.191,33.841z M34.087,28.757h2.765v1.24h-2.765v8.572H32.64V22.074h1.447V28.757z
						"/>
					<path fill="#484848" d="M57.537,36.231H42.51v-1.206h3.729v-5.437h1.447v5.437h2.672v-5.437h1.429v5.437h5.752L57.537,36.231
						L57.537,36.231z M55.759,25.581c0,2.115,0,4.249-0.597,7.313l-1.429-0.167c0.594-2.913,0.594-5.084,0.594-7.146V24.95H44.088
						v-1.206h11.671V25.581L55.759,25.581z"/>
					<path fill="#484848" d="M73.961,31.222H69.95v2.097h2.152v5.251h-1.466v-4.082H60.601v-1.169h2.319v-2.097h-3.989v-1.188H73.96
						L73.961,31.222L73.961,31.222z M72.271,25.618c0,1.985-2.245,3.173-5.826,3.154c-3.581,0.019-5.845-1.169-5.845-3.154
						c0-1.967,2.264-3.151,5.845-3.136C70.026,22.467,72.271,23.651,72.271,25.618z M62.104,25.618
						c-0.019,1.265,1.67,2.022,4.342,2.022c2.635,0,4.342-0.761,4.342-2.022c0-1.225-1.707-1.982-4.342-1.967
						C63.773,23.635,62.086,24.394,62.104,25.618z M68.523,33.318v-2.097h-4.138v2.097H68.523z"/>
				</g>
			</g>
		</g>
	</g>
	<g id="g-root-tx__zknwck1wbalfx-fill" transform="translate(866, 338)" display="inline">
		<g id="tx__zknwck1wbalfx-fill">
			<g>
				<g enable-background="new    ">
					<path fill="#484848" d="M-25.66,5.258l0.093,1.058c-1.476,0.232-3.017,0.381-4.527,0.464v3.269h-1.466V6.851
						c-1.67,0.074-3.257,0.083-4.639,0.074l-0.204-1.188C-33.323,5.719-29.204,5.7-25.66,5.258z M-26.904,1.637
						c-0.021,1.763-1.67,2.854-4.082,2.854c-2.432,0-4.082-1.095-4.082-2.854c0-1.729,1.65-2.876,4.082-2.876
						C-28.573-1.239-26.925-0.089-26.904,1.637z M-22.303,14.219H-34.03V9.393h1.466v3.6h10.261V14.219z M-33.677,1.637
						c-0.019,1.076,1.076,1.781,2.69,1.781c1.559,0,2.672-0.705,2.688-1.781c-0.019-1.061-1.132-1.781-2.688-1.766
						C-32.601-0.145-33.695,0.579-33.677,1.637z M-22.713,10.617h-1.466V8.91h-3.414V7.853h3.414v-9.76h1.466V10.617z"/>
					<path fill="#484848" d="M-11.393,1.046h3.711v-2.95h1.466v9.834h-1.466v-2.19h-4.379V4.531h4.379V2.249h-4.101
						c-1.122,2.601-3.702,4.475-7.273,5.455l-0.575-1.169c4.026-1.11,6.578-3.33,6.887-6.142h-6.052v-1.188h7.607
						C-11.188-0.154-11.263,0.462-11.393,1.046z M-6.218,14.552h-1.466V9.819h-9.63V8.65h11.096V14.552z"/>
					<path fill="#484848" d="M11.672,9.841l-0.816,1.147c-1.93-0.881-3.6-2.783-4.36-5.063c-0.776,2.421-2.438,4.524-4.32,5.474
						l-0.872-1.15c2.354-1.133,4.415-4.25,4.433-7.104V0.987H1.838v-1.206h9.296v1.206H7.198V3.14
						C7.198,5.941,9.24,8.78,11.672,9.841z M14.899,14.569h-1.466V-1.926h1.466V14.569z"/>
					<path fill="#484848" d="M28.368,5.258l0.096,1.058c-1.478,0.232-3.019,0.381-4.527,0.464v3.269H22.47V6.851
						c-1.67,0.074-3.257,0.083-4.642,0.074l-0.201-1.188C20.707,5.719,24.824,5.7,28.368,5.258z M27.128,1.637
						c-0.021,1.763-1.671,2.854-4.082,2.854c-2.434,0-4.082-1.095-4.082-2.854c0-1.729,1.648-2.876,4.082-2.876
						C25.457-1.239,27.108-0.089,27.128,1.637z M31.729,14.219H20.003V9.393h1.466v3.6H31.73L31.729,14.219L31.729,14.219z
						 M20.354,1.637c-0.019,1.076,1.076,1.781,2.69,1.781c1.559,0,2.672-0.705,2.688-1.781c-0.019-1.061-1.132-1.781-2.688-1.766
						C21.431-0.145,20.337,0.579,20.354,1.637z M31.32,10.617h-1.466V8.91H26.44V7.853h3.414v-9.76h1.466V10.617z"/>
					<path fill="#484848" d="M43.437,8.558h-3.581V7.055h3.581V3.474h1.503v3.581h3.6v1.503h-3.6v3.6h-1.503V8.558z"/>
				</g>
				<g enable-background="new    ">
					<path fill="#484848" d="M-26.515,26.588l-0.761,1.169c-1.855-0.668-3.293-2.054-3.989-3.77
						c-0.724,1.938-2.255,3.488-4.212,4.23l-0.761-1.169c2.449-0.894,4.19-3.117,4.19-5.477v-0.609h-3.729v-1.228h8.888v1.228
						h-3.689v0.594C-30.577,23.712-28.927,25.75-26.515,26.588z M-22.58,31.947c0,1.948-2.1,3.063-5.529,3.08
						c-3.434-0.019-5.529-1.132-5.529-3.08s2.1-3.062,5.529-3.062S-22.58,29.999-22.58,31.947z M-32.192,31.947
						c-0.021,1.188,1.559,1.911,4.082,1.911c2.521,0,4.082-0.724,4.082-1.911c0-1.206-1.562-1.93-4.082-1.93
						C-30.635,30.017-32.213,30.741-32.192,31.947z M-22.637,28.366h-1.466v-4.32h-3.321V22.84h3.321v-4.308h1.466V28.366z"/>
					<path fill="#484848" d="M-18.889,31.929l-0.798-1.188c4.462-2.112,6.735-5.275,7.069-9.222h-6.312v-1.188h7.793
						C-11.151,25.082-13.359,29.275-18.889,31.929z M-6.255,35.027H-7.72V18.532h1.466V35.027z"/>
					<path fill="#484848" d="M11.096,26.511l-0.761,1.147c-1.864-0.668-3.306-2.06-4.011-3.767c-0.714,1.902-2.232,3.424-4.19,4.138
						L1.37,26.883c2.434-0.872,4.193-3.063,4.193-5.418v-0.649H1.838v-1.206h8.888v1.206H7.031v0.649
						C7.031,23.598,8.684,25.657,11.096,26.511z M14.974,34.805H4.193v-5.789h10.78L14.974,34.805L14.974,34.805z M5.641,33.617
						h7.904v-3.433H5.641V33.617z M14.974,28.199h-1.466v-4.305h-3.34v-1.224h3.34V18.53h1.466V28.199z"/>
					<path fill="#484848" d="M18.518,28.069l-0.612-1.147c3.942-1.113,6.457-3.306,6.772-6.104H18.76V19.61h7.478
						C26.219,23.746,23.268,26.718,18.518,28.069z M31.395,34.805H20.688v-6.145h10.706L31.395,34.805L31.395,34.805z
						 M22.099,33.617h7.849v-3.785h-7.849V33.617z M31.395,27.959h-1.466v-3.935h-3.655v-1.224h3.655v-4.249h1.466V27.959z"/>
					<path fill="#484848" d="M49.689,34.192h-1.392v-5.715h-3.063v-1.206h3.063v-2.931h-2.783c-0.811,2.793-2.616,5.26-5.733,7.125
						l-0.891-1.061c3.59-2.124,5.391-5.103,5.678-8.554h-4.936v-1.206h6.383c0,0.845-0.074,1.679-0.224,2.486h2.506v-4.156h1.392
						V34.192z M53.029,35.027h-1.392V18.532h1.392V35.027z"/>
					<path fill="#484848" d="M64.311,23.412c-0.02,2.319-1.837,3.915-4.342,3.915s-4.342-1.596-4.323-3.915
						c-0.019-2.279,1.818-3.896,4.323-3.878C62.474,19.516,64.293,21.133,64.311,23.412z M57.073,23.412
						c-0.019,1.577,1.228,2.675,2.896,2.653c1.688,0.021,2.913-1.076,2.913-2.653c0-1.559-1.228-2.635-2.913-2.635
						C58.3,20.777,57.056,21.854,57.073,23.412z M68.226,35.027h-1.447v-4.713h-9.352v-1.206h10.799V35.027z M70.676,22.28h-2.449
						v2.32h2.449v1.243h-2.449v2.505H66.78v-9.815h1.447v2.563h2.449V22.28z"/>
				</g>
			</g>
		</g>
	</g>
	<g id="g-root-sy_1_cu_958kn81wb95or-stroke" transform="translate(14, 98)" display="inline">
		<g id="sy_1_cu_958kn81wb95or-stroke">
			<g>
				<path fill="none" stroke="#FFFFFF" d="M87.036,110.947V29.113h184.127l-40.917,20.458v61.376H87.036z"/>
			</g>
		</g>
	</g>
	<g id="g-root-sy_2_cu_1uuw4901wb972k-stroke" transform="translate(182.00009155273438, 98)" display="inline">
		<g id="sy_2_cu_1uuw4901wb972k-stroke">
			<g>
				<path fill="none" stroke="#FFFFFF" d="M62.246,131.406V49.571h184.128L205.456,70.03v61.376H62.246z M103.163,29.113v20.458
					H62.246L103.163,29.113z"/>
			</g>
		</g>
	</g>
	<g id="g-root-sy_3_cu_1uuw4901wb972l-stroke" transform="translate(350.0000915527344, 122)" display="inline">
		<g id="sy_3_cu_1uuw4901wb972l-stroke">
			<g>
				<path fill="none" stroke="#FFFFFF" d="M37.456,127.865V46.03h184.128l-40.917,20.458v61.376L37.456,127.865L37.456,127.865z
					 M78.374,25.571V46.03H37.456L78.374,25.571z"/>
			</g>
		</g>
	</g>
	<g id="g-root-sy_4_cu_1qf2m4k1wb97uu-stroke" transform="translate(518.0001220703125, 146)" display="inline">
		<g id="sy_4_cu_1qf2m4k1wb97uu-stroke">
			<g>
				<path fill="none" stroke="#FFFFFF" d="M12.667,42.489v81.834h143.21V62.947l40.917-20.458H12.667z M53.584,22.03v20.458H12.667
					L53.584,22.03z"/>
			</g>
		</g>
	</g>
	<g id="g-root-sy_5_cu_1hjflvo1wb98nj-stroke" transform="translate(686, 170)" display="inline">
		<g id="sy_5_cu_1hjflvo1wb98nj-stroke">
			<g>
				<path fill="none" stroke="#FFFFFF" d="M-12.122,120.782V38.947h184.127l-40.918,20.459v61.376H-12.122z M28.795,18.489v20.458
					h-40.917L28.795,18.489z"/>
			</g>
		</g>
	</g>
	<g id="g-root-sy_6_cu_1lz94041wb98n4-stroke" transform="translate(854, 194)" display="inline">
		<g id="sy_6_cu_1lz94041wb98n4-stroke">
			<g>
				<path fill="none" stroke="#FFFFFF" d="M-36.913,117.241V35.406H96.067V25.177l40.916,51.146l-40.916,51.999v-11.081H-36.913z
					 M4.005,14.947v20.459h-40.918L4.005,14.947z"/>
			</g>
		</g>
	</g>
	<g id="g-root-tx__1cu8zgk1wbakuh-stroke" transform="translate(380, 26)" display="inline">
	</g>
	<g id="g-root-tx__m7yft01wbakui-stroke" transform="translate(56, 134)" display="inline">
	</g>
	<g id="g-root-tx__8whxfo1wbamfg-stroke" transform="translate(212, 158)" display="inline">
	</g>
	<g id="g-root-tx__4gofb81wban7q-stroke" transform="translate(380, 182)" display="inline">
	</g>
	<g id="g-root-tx__1q6yg041wbalfs-stroke" transform="translate(542, 206)" display="inline">
	</g>
	<g id="g-root-tx__hs4xok1wbalmr-stroke" transform="translate(26, 218)" display="inline">
	</g>
	<g id="g-root-tx__8whxfo1wbamfh-stroke" transform="translate(194, 242)" display="inline">
	</g>
	<g id="g-root-tx__1lr4xvo1wbam82-stroke" transform="translate(716, 230)" display="inline">
	</g>
	<g id="g-root-tx__1umry4k1wbaknj-stroke" transform="translate(362, 266)" display="inline">
	</g>
	<g id="g-root-tx__18gawlg1wbakn8-stroke" transform="translate(878, 254)" display="inline">
	</g>
	<g id="g-root-tx__1q6yg041wbalft-stroke" transform="translate(530, 290)" display="inline">
	</g>
	<g id="g-root-tx__1cvhxms1wban0r-stroke" transform="translate(698, 314)" display="inline">
	</g>
	<g id="g-root-tx__zknwck1wbalfx-stroke" transform="translate(866, 338)" display="inline">
	</g>
	<g id="g-root-tx__1cu8zgk1wbakuh-fill_1_" transform="translate(380, 26)" display="inline">
		<g id="tx__1cu8zgk1wbakuh-fill_1_">
			<g>
				<g enable-background="new    ">
					<path fill="#484848" d="M-192.101,87.552h-3.244V75.068h-0.086l-3.564,2.234v-2.857l3.847-2.449h3.051L-192.101,87.552
						L-192.101,87.552z"/>
				</g>
			</g>
		</g>
	</g>
	<g display="inline" enable-background="new    ">
		<path fill="#484848" d="M338.024,129.621l5.586-5.135c1.461-1.396,2.234-2.256,2.234-3.48c0-1.375-1.054-2.231-2.472-2.231
			c-1.461,0-2.406,0.924-2.406,2.406h-3.071c-0.021-3.054,2.233-4.984,5.521-4.984c3.33,0,5.543,1.891,5.543,4.598
			c0,1.765-0.858,3.226-4.063,6.123l-2.361,2.299v0.088h6.639v2.662h-11.129L338.024,129.621z"/>
	</g>
	<g display="inline" enable-background="new    ">
		<path fill="#484848" d="M491.313,145.994h3.266c0.064,1.16,1.185,1.937,2.688,1.937c1.547,0,2.664-0.884,2.643-2.127
			c0.021-1.271-1.116-2.173-2.94-2.173h-1.439v-2.385h1.439c1.522,0,2.6-0.838,2.6-2.063c0-1.185-0.902-1.998-2.277-1.998
			s-2.514,0.771-2.557,1.955h-3.094c0.043-2.688,2.471-4.533,5.647-4.533c3.244,0,5.414,1.912,5.396,4.383
			c0.021,1.74-1.203,2.986-2.943,3.287v0.129c2.277,0.279,3.545,1.676,3.523,3.609c0.021,2.664-2.517,4.573-6.019,4.573
			C493.825,150.591,491.379,148.701,491.313,145.994z"/>
	</g>
	<g display="inline" enable-background="new    ">
		<path fill="#484848" d="M633.586,163.482l6.571-10.248h4.063v10.205h1.977v2.6h-1.977v2.75h-3.072v-2.75h-7.563V163.482
			L633.586,163.482z M641.19,163.439v-6.66h-0.15l-4.188,6.531v0.129H641.19z"/>
	</g>
	<g display="inline" enable-background="new    ">
		<path fill="#484848" d="M786.473,182.82h3.137c0.064,1.225,1.185,2.041,2.535,2.041c1.611,0,2.75-1.139,2.75-2.75
			c0-1.654-1.16-2.793-2.793-2.814c-1.16,0-1.979,0.433-2.449,1.313h-2.922l0.838-8.959h9.582v2.643h-6.918l-0.43,3.935h0.129
			c0.58-0.773,1.74-1.313,3.115-1.313c2.854,0,4.981,2.127,4.981,5.113c0,3.137-2.385,5.393-5.887,5.393
			C788.9,187.417,786.535,185.505,786.473,182.82z"/>
	</g>
	<g display="inline" enable-background="new    ">
		<path fill="#484848" d="M908.925,198.203c0-5.242,2.514-8.354,6.399-8.354c3.14,0,5.267,1.977,5.586,4.53h-3.18
			c-0.258-1.096-1.16-1.762-2.406-1.762c-2.104,0-3.223,1.912-3.244,4.963h0.15c0.709-1.375,2.256-2.188,3.975-2.188
			c2.795,0,4.879,2.104,4.879,5.024c0,3.158-2.387,5.438-5.889,5.414C911.975,205.808,908.925,203.896,908.925,198.203z
			 M917.947,200.501c0-1.547-1.139-2.771-2.729-2.771s-2.793,1.246-2.814,2.771c0.021,1.525,1.185,2.771,2.771,2.771
			S917.947,202.07,917.947,200.501z"/>
	</g>
</g>
<g id="Layer_2">
</g>
<g id="Layer_3">
	<g>
		<g>
			<g>
				<path d="M94.17,159.813h-9.732v-1.611h3.892v-2.063h2.02v2.063h3.824L94.17,159.813L94.17,159.813z M93.482,164.11
					c0,2.02-1.719,3.395-4.168,3.395c-2.403,0-4.125-1.375-4.125-3.395c0-2.063,1.722-3.438,4.125-3.459
					C91.763,160.673,93.482,162.048,93.482,164.11z M87.015,164.11c0,1.139,0.945,1.869,2.299,1.869c1.375,0,2.32-0.73,2.32-1.869
					c0-1.182-0.945-1.912-2.32-1.912C87.961,162.198,87.015,162.929,87.015,164.11z M100.96,175.282h-2.021v-4.555H87.876v-1.633
					h13.084V175.282z M100.96,168.042h-1.937v-5.024h-2.17v4.896H94.92v-11.559h1.934v4.981h2.17v-5.282h1.937V168.042z"/>
				<path d="M115.333,164.583l-1.013,1.568c-2.231-0.741-3.907-2.27-4.791-4.254c-0.856,2.116-2.564,3.803-4.877,4.619l-1.01-1.611
					c3.008-1.01,4.834-3.566,4.834-6.252v-1.869h2.084v1.869C110.542,161.253,112.411,163.595,115.333,164.583z M119.521,175.046
					h-12.651v-7.065h12.651V175.046z M108.886,173.392h8.637v-3.781h-8.637V173.392z M119.521,166.946h-2.041v-10.893h2.041V166.946
					z"/>
				<path d="M129.211,171.78l-1.074-1.654c5.124-2.438,7.616-5.906,8.014-10.396h-7.09v-1.633h9.152
					C138.213,163.724,135.806,168.622,129.211,171.78z M143.949,175.282h-2.063v-19.25h2.063V175.282z"/>
				<path d="M164.51,165.55h-7.777v1.722h5.564v4.555h-11.215v1.697h11.752v1.565h-13.75v-4.748h11.19v-1.504H149.06v-1.565h5.629
					v-1.722h-7.731v-1.633h17.553V165.55L164.51,165.55z M163.586,161.253l-0.709,1.547c-3.158-0.376-5.919-1.706-7.154-3.674
					c-1.246,1.968-4.007,3.298-7.133,3.674l-0.709-1.547c3.76-0.43,6.811-2.274,6.811-4.487v-0.646h2.084v0.646
					C156.775,158.976,159.827,160.823,163.586,161.253z"/>
			</g>
			<g>
				<rect x="56.216" y="198.167" fill="none" width="136.354" height="90.916"/>
				<path d="M58.958,210.217c0-0.879,0.721-1.6,1.617-1.6c0.879,0,1.6,0.721,1.6,1.6c0,0.896-0.721,1.617-1.6,1.617
					C59.678,211.834,58.958,211.113,58.958,210.217z"/>
				<path d="M84.253,214.488H70.05v-0.932h14.203V214.488z M83.462,209.109l-0.545,0.949c-2.188-0.545-4.854-2.241-5.836-4.623
					c-0.984,2.382-3.647,4.078-5.836,4.623l-0.527-0.949c2.443-0.478,5.766-2.795,5.783-5.59v-1.23h1.143v1.23
					C77.643,206.297,81.018,208.652,83.462,209.109z"/>
				<path d="M93.341,212.66h-7.049v-9.914h7.049V212.66z M87.363,211.746h4.89v-8.086h-4.89V211.746z M97.542,207.475h2.672v0.946
					h-2.672v8.244h-1.107v-15.504h1.107V207.475z"/>
				<path d="M115.365,214.576h-14.2v-0.949h14.201L115.365,214.576L115.365,214.576z M113.695,210.586h-10.649v-8.016h10.459v0.932
					h-9.334v2.531h9.018v0.914h-9.018v2.707h9.524V210.586L113.695,210.586z"/>
				<path d="M128.865,208.564l-0.6,0.879c-1.538-0.598-2.672-1.784-3.217-3.182c-0.563,1.521-1.74,2.897-3.287,3.586l-0.615-0.861
					c2.004-0.879,3.357-2.918,3.375-4.641v-2.218h1.058v2.218C125.579,206.068,126.88,207.844,128.865,208.564z M134.262,213.891
					c0,1.723-1.969,2.725-5.15,2.725c-3.217,0-5.168-1.002-5.168-2.725c0-1.726,1.951-2.728,5.168-2.728
					C132.294,211.166,134.262,212.168,134.262,213.891z M125.052,213.891c-0.018,1.143,1.563,1.846,4.061,1.846
					c2.463,0,4.043-0.703,4.063-1.846c-0.021-1.146-1.601-1.849-4.063-1.849C126.615,212.045,125.034,212.748,125.052,213.891z
					 M134.175,210.779h-1.055v-4.377h-2.32v3.885h-1.055v-8.824h1.055v4.011h2.32v-4.31h1.055V210.779z"/>
				<path d="M145.652,209.127l-0.58,0.896c-1.758-0.659-3.217-2.03-3.885-3.729c-0.647,1.942-2.127,3.419-3.955,4.148l-0.612-0.896
					c2.282-0.844,3.973-2.936,3.973-5.446v-2.004h1.09v2.071C141.663,206.35,143.438,208.336,145.652,209.127z M149.449,216.299
					h-10.338v-4.764h1.146v3.832h9.192V216.299z M148.693,205.998h2.394v0.949h-2.394v5.695h-1.104v-11.496h1.104V205.998z"/>
				<path d="M58.958,239.217c0-0.879,0.721-1.6,1.617-1.6c0.879,0,1.6,0.721,1.6,1.6c0,0.896-0.721,1.617-1.6,1.617
					C59.678,240.834,58.958,240.113,58.958,239.217z"/>
				<path d="M84.253,243.682H70.05v-0.949h6.504v-3.129h-4.676v-4.644h9.438v-2.672h-9.49v-0.932h10.58v4.535h-9.438v2.774h9.809
					v0.935h-5.112v3.129h6.592L84.253,243.682L84.253,243.682z"/>
				<path d="M88.611,232.432h8.156v-1.881h1.107v5.643h-4.644v1.934h6.504v0.914H85.604v-0.914h6.539v-1.934h-4.641v-5.643h1.104
					v1.881H88.611z M98.596,244.719l-0.438,0.879c-2.284-0.413-4.599-1.521-5.483-3.322c-0.905,1.802-3.217,2.909-5.484,3.322
					l-0.438-0.879c2.602-0.404,5.358-1.898,5.358-4.099v-0.475h1.107v0.475C93.218,242.82,95.96,244.314,98.596,244.719z
					 M96.768,235.297v-1.969h-8.156v1.969H96.768z"/>
				<path d="M114.574,236.949l-0.614,0.879c-1.714-0.633-3.185-1.916-3.853-3.565c-0.656,1.86-2.136,3.275-3.973,3.973l-0.615-0.896
					c2.25-0.791,4.008-2.76,4.025-5.112v-1.582h1.055v1.582C110.602,234.33,112.378,236.211,114.574,236.949z M118.284,242.592
					h-8.845v1.937h9.478v0.914H108.37v-3.729h8.821v-1.737h-8.877v-0.914h9.97V242.592L118.284,242.592z M118.284,238.215h-1.107
					v-4.096h-3.621v-0.932h3.621v-3.023h1.107V238.215z"/>
				<path d="M123.1,235.701h5.027V231.5h1.104v10.392h-7.239V231.5h1.104L123.1,235.701L123.1,235.701z M128.128,240.957v-4.342
					H123.1v4.342H128.128z M133.788,245.686h-1.107v-15.521h1.107V245.686z"/>
				<path d="M150.663,241.396l-0.636,0.879c-1.781-0.835-3.486-2.689-4.219-4.904c-0.721,2.329-2.417,4.386-4.146,5.291
					l-0.668-0.879c2.106-1.037,4.233-3.99,4.254-6.68v-2.373h-3.779v-0.949h8.719v0.949h-3.832v2.373
					C146.356,237.758,148.482,240.447,150.663,241.396z M153.686,245.668h-1.104v-15.504h1.104V245.668z"/>
				<path d="M170.648,238.479h-14.133v-0.935h14.133V238.479z M168.891,242.803c0,1.772-2.004,2.795-5.309,2.795
					c-3.34,0-5.347-1.021-5.347-2.795c0-1.793,2.007-2.813,5.347-2.813C166.887,239.99,168.891,241.01,168.891,242.803z
					 M169.014,235.578h-10.512v-5.098h1.09v4.166h9.422V235.578z M159.363,242.803c0,1.157,1.617,1.896,4.222,1.896
					c2.563,0,4.201-0.738,4.201-1.896c0-1.195-1.638-1.898-4.201-1.916C160.981,240.904,159.363,241.607,159.363,242.803z"/>
				<path d="M176.309,241.537v-1.828c-1.872-0.158-3.094-1.222-3.076-2.813c-0.018-1.74,1.441-2.865,3.621-2.865
					c2.162,0,3.642,1.125,3.642,2.865c0,1.582-1.225,2.646-3.076,2.813v1.793c1.512-0.079,3.032-0.202,4.444-0.401l0.091,0.858
					c-3.41,0.58-7.119,0.615-9.861,0.615l-0.211-0.967C173.189,241.607,174.719,241.599,176.309,241.537z M181.548,233.029h-9.404
					v-0.932h4.166v-1.937h1.107v1.937h4.131V233.029L181.548,233.029z M174.27,236.896c0,1.16,1.037,1.951,2.584,1.934
					c1.547,0.021,2.566-0.771,2.584-1.934c-0.018-1.16-1.037-1.986-2.584-1.986S174.27,235.736,174.27,236.896z M183.973,236.861
					h2.637v0.949h-2.637v7.854h-1.09v-15.504h1.09V236.861z"/>
				<path d="M58.958,268.217c0-0.879,0.721-1.6,1.617-1.6c0.879,0,1.6,0.721,1.6,1.6c0,0.896-0.721,1.617-1.6,1.617
					C59.678,269.834,58.958,269.113,58.958,268.217z"/>
				<path d="M69.697,273.297l4.623-12.727h1.354l4.623,12.727h-1.318l-1.336-3.776h-5.291l-1.336,3.776H69.697z M77.257,268.41
					l-2.215-6.223h-0.088l-2.197,6.223H77.257z"/>
				<path d="M83.391,273.297h-1.248V260.57h1.248V273.297z"/>
				<path d="M97.805,270.291l-0.686,0.844c-1.564-0.946-2.733-2.704-3.271-4.799c-0.554,2.25-1.758,4.157-3.354,5.15l-0.703-0.826
					c2.106-1.266,3.516-4.113,3.516-7.014v-1.652H90.16v-0.932h7.207v0.932h-2.988v1.652
					C94.359,266.389,95.714,269.078,97.805,270.291z M100.003,273.824h-1.058v-8.068h-2.795v-0.932h2.795v-5.256h1.058V273.824z
					 M103.132,274.668h-1.072v-15.504h1.072V274.668z"/>
				<path d="M119.689,272.611h-14.203v-0.949h6.539v-3.885h1.107v3.885h6.557V272.611z M118.969,267.338l-0.475,0.896
					c-2.218-0.466-4.939-2.039-5.906-4.271c-1.002,2.25-3.709,3.844-5.892,4.324l-0.475-0.896c2.373-0.422,5.766-2.604,5.766-5.168
					v-0.615h-5.323v-0.967h11.813v0.967h-5.344v0.615C113.134,264.789,116.561,266.934,118.969,267.338z"/>
				<path d="M134.227,261.783h-8.842v-0.932h3.92v-1.828h1.09v1.828h3.832V261.783z M133.331,265.615
					c0,1.723-1.441,2.883-3.48,2.883c-2.074,0-3.498-1.16-3.479-2.883c-0.021-1.74,1.403-2.865,3.479-2.865
					C131.889,262.75,133.331,263.875,133.331,265.615z M127.406,265.615c-0.018,1.16,0.984,1.986,2.443,1.969
					c1.441,0.021,2.443-0.809,2.443-1.969s-1.002-1.986-2.443-1.986C128.391,263.629,127.389,264.455,127.406,265.615z
					 M138.165,274.668h-1.107v-3.797h-9.246v-0.914h10.354L138.165,274.668L138.165,274.668z M138.165,268.99h-1.107v-2.074h-2.897
					v-0.949h2.897v-1.969h-2.897v-0.896h2.897v-3.938h1.107V268.99z"/>
				<path d="M150.294,267.092l-0.601,0.896c-1.793-0.729-3.275-2.206-3.953-4.113c-0.658,2.021-2.146,3.63-3.938,4.396l-0.633-0.879
					c2.25-0.914,3.99-3.22,4.008-5.783v-1.582h1.107v1.582C146.268,264.086,148.061,266.248,150.294,267.092z M154.195,274.299
					H143.79v-4.778h1.104v3.85h9.299L154.195,274.299L154.195,274.299z M153.686,270.555h-1.104v-11.394h1.104V270.555z"/>
			</g>
		</g>
		<circle fill="none" stroke="#367695" stroke-width="16" stroke-miterlimit="10" cx="124.392" cy="221.993" r="110.333"/>
	</g>
	<polygon fill="#367695" points="268.81,184.704 268.81,193.686 297.12,221.993 268.81,250.303 268.81,259.284 306.1,221.993 	"/>
	<polygon fill="#367695" points="594.939,184.704 594.939,193.686 623.246,221.993 594.939,250.303 594.939,259.284 
		632.228,221.993 	"/>
	<g>
		<circle fill="none" stroke="#367695" stroke-width="16" stroke-miterlimit="10" cx="776.648" cy="221.993" r="110.333"/>
		<g>
			<g>
				<path d="M754.197,168.536h-7.818v6.728h-1.998v-6.728h-7.734v-1.654h17.554L754.197,168.536L754.197,168.536z M752.543,158.804
					h-5.951c0.031,2.385,2.997,4.512,6.639,5.006l-0.752,1.608c-3.157-0.491-5.887-2.052-7.047-4.254
					c-1.191,2.202-3.91,3.763-7.024,4.254l-0.771-1.608c3.599-0.494,6.563-2.621,6.639-5.006h-5.993v-1.636h14.268v1.636H752.543z"
					/>
				<path d="M773.275,172.876h-17.617v-1.694h4.211v-5.027c-1.579-0.87-2.533-2.256-2.533-3.975c0-3.029,2.965-5.027,7.09-5.027
					c4.146,0,7.109,1.998,7.109,5.027c0,1.694-0.924,3.062-2.471,3.932v5.07h4.211V172.876L773.275,172.876z M759.309,162.177
					c0,2.063,2.084,3.416,5.113,3.416c3.008,0,5.135-1.354,5.135-3.416c0-2.084-2.127-3.396-5.135-3.396
					C761.393,158.782,759.309,160.094,759.309,162.177z M767.002,171.179v-4.3c-0.784,0.204-1.654,0.304-2.578,0.304
					c-0.902,0-1.764-0.1-2.535-0.279v4.275H767.002L767.002,171.179z"/>
				<path d="M795.361,163.423h-5.543v2.234h7.776v1.654h-17.553v-1.654h7.756v-2.234h-5.521v-6.596h13.084L795.361,163.423
					L795.361,163.423z M795.447,175.282h-2.063v-4.533h-11.389v-1.608h13.449L795.447,175.282L795.447,175.282z M784.275,161.79
					h9.065v-3.352h-9.065V161.79z"/>
				<path d="M816.673,173.005h-17.617v-1.676h4.728v-4.272h-3.181V165.4h2.88v-5.994h-2.923v-1.676h14.502v1.676h-2.942v5.994h2.879
					v1.654h-3.156v4.272h4.834L816.673,173.005L816.673,173.005z M810.119,165.399v-5.994h-4.617v5.994H810.119z M809.798,171.329
					v-4.272h-3.977v4.272H809.798z"/>
			</g>
			<g>
				<rect x="710.98" y="198.167" fill="none" width="131.334" height="87.666"/>
				<path d="M713.722,210.217c0-0.879,0.722-1.6,1.617-1.6c0.879,0,1.6,0.721,1.6,1.6c0,0.896-0.721,1.617-1.6,1.617
					C714.444,211.834,713.722,211.113,713.722,210.217z"/>
				<path d="M739.017,214.682h-14.203v-0.949h6.505v-3.129h-4.677v-4.644h9.438v-2.672h-9.49v-0.932h10.582v4.535h-9.439v2.774h9.81
					v0.935h-5.113v3.129h6.592L739.017,214.682L739.017,214.682z"/>
				<path d="M743.378,203.432h8.154v-1.881h1.106v5.643H748v1.934h6.504v0.914h-14.135v-0.914h6.539v-1.934h-4.642v-5.643h1.106
					v1.881H743.378z M753.362,215.719l-0.438,0.879c-2.285-0.413-4.599-1.521-5.484-3.322c-0.904,1.802-3.217,2.909-5.482,3.322
					l-0.438-0.879c2.603-0.404,5.361-1.898,5.361-4.099v-0.475h1.105v0.475C747.983,213.82,750.724,215.314,753.362,215.719z
					 M751.532,206.297v-1.969h-8.154v1.969H751.532z"/>
				<path d="M761.745,210.41h-5.344v-1.125h5.344V210.41z"/>
				<path d="M771.993,206.051c0,2.232-1.705,3.8-4.008,3.779c-2.304,0.021-4.023-1.547-4.009-3.779
					c-0.018-2.215,1.705-3.762,4.009-3.762C770.288,202.289,771.993,203.836,771.993,206.051z M765.051,206.051
					c0,1.617,1.248,2.798,2.937,2.798c1.67,0,2.938-1.181,2.938-2.798c0-1.6-1.268-2.795-2.938-2.795
					C766.299,203.256,765.051,204.451,765.051,206.051z M776.827,216.299h-10.404v-4.901h1.105v3.973h9.299V216.299z
					 M776.319,212.572h-1.105v-11.408h1.105V212.572z"/>
				<path d="M779.676,210.691l-0.477-0.896c3.779-1.213,6.348-3.551,6.627-6.483h-6.012v-0.935h7.207
					C787.023,206.297,784.088,209.268,779.676,210.691z M791.963,216.299h-10.371v-4.887h1.105v3.955h9.266V216.299L791.963,216.299
					z M791.206,205.998h2.393v0.949h-2.393v5.643h-1.125v-11.426h1.125V205.998z"/>
				<path d="M807.87,203.73h-8.842v-0.935h3.92v-1.793h1.09v1.793h3.832V203.73z M806.974,207.387c0,1.688-1.424,2.774-3.479,2.76
					c-2.092,0.018-3.498-1.072-3.479-2.76c-0.02-1.688,1.39-2.798,3.479-2.798C805.551,204.592,806.974,205.699,806.974,207.387z
					 M801.051,207.387c-0.02,1.125,0.967,1.916,2.441,1.896c1.44,0.021,2.442-0.771,2.442-1.896s-1.002-1.916-2.442-1.916
					C802.017,205.471,801.032,206.262,801.051,207.387z M802.931,212.766h7.787v-1.775h1.09v5.449h-9.967v-5.449h1.09V212.766
					L802.931,212.766z M810.719,215.543v-1.881h-7.787v1.881H810.719z M811.808,210.305h-1.106v-1.479h-2.898v-0.932h2.898v-2.074
					h-2.898v-0.932h2.898v-3.729h1.106V210.305z"/>
				<path d="M821.916,206.314h-5.556v2.654c3.14,0,4.657-0.056,6.573-0.404l0.104,0.949c-1.949,0.313-3.516,0.366-6.695,0.366
					h-1.072v-4.444h5.537v-2.394h-5.572v-0.932h6.682V206.314L821.916,206.314z M827.365,216.703h-1.105v-4.201h-9.266v-0.932
					h10.371V216.703L827.365,216.703z M827.365,210.691h-1.105v-3.062h-3.271v-0.93h3.271v-2.25h-3.271v-0.914h3.271v-2.373h1.105
					V210.691z"/>
				<path d="M713.722,239.217c0-0.879,0.722-1.6,1.617-1.6c0.879,0,1.6,0.721,1.6,1.6c0,0.896-0.721,1.617-1.6,1.617
					C714.444,240.834,713.722,240.113,713.722,239.217z"/>
				<path d="M734.517,241.396l-0.633,0.879c-1.784-0.835-3.489-2.689-4.22-4.904c-0.722,2.329-2.416,4.386-4.147,5.291l-0.668-0.879
					c2.108-1.037,4.236-3.99,4.254-6.68v-2.373h-3.778v-0.949h8.721v0.949h-3.832v2.373
					C730.211,237.758,732.338,240.447,734.517,241.396z M737.541,245.668h-1.106v-15.504h1.106V245.668z"/>
				<path d="M754.504,238.479h-14.135v-0.935h14.135V238.479L754.504,238.479z M752.745,242.803c0,1.772-2.004,2.795-5.31,2.795
					c-3.34,0-5.344-1.021-5.344-2.795c0-1.793,2.004-2.813,5.344-2.813C750.741,239.99,752.745,241.01,752.745,242.803z
					 M752.868,235.578h-10.513v-5.098h1.091v4.166h9.422V235.578z M743.219,242.803c0,1.157,1.617,1.896,4.219,1.896
					c2.566,0,4.201-0.738,4.201-1.896c0-1.195-1.635-1.898-4.201-1.916C744.836,240.904,743.219,241.607,743.219,242.803z"/>
				<path d="M764.769,232.906h-8.842v-0.914h3.92v-1.969h1.09v1.969h3.832V232.906z M763.872,236.668
					c0,1.726-1.424,2.851-3.479,2.851c-2.092,0-3.497-1.125-3.479-2.851c-0.018-1.737,1.391-2.862,3.479-2.862
					C762.448,233.803,763.872,234.928,763.872,236.668z M757.948,236.668c-0.019,1.181,0.967,1.986,2.442,1.986
					c1.439,0,2.443-0.809,2.443-1.986c0-1.177-1.004-2.004-2.443-2.004C758.916,234.664,757.931,235.49,757.948,236.668z
					 M768.795,242.996c0,1.67-1.936,2.619-5.135,2.619c-3.252,0-5.187-0.949-5.187-2.619s1.935-2.619,5.187-2.619
					C766.862,240.377,768.795,241.326,768.795,242.996z M759.618,242.996c0,1.09,1.563,1.74,4.043,1.74c2.442,0,3.99-0.65,3.99-1.74
					s-1.548-1.74-3.99-1.74C761.183,241.256,759.618,241.906,759.618,242.996z M768.706,240.236H767.6v-2.32h-2.9v-0.932h2.899
					v-2.06h-2.899v-0.932h2.899v-3.832h1.105L768.706,240.236L768.706,240.236z"/>
				<path d="M781.61,241.291c1.563-0.079,3.154-0.211,4.657-0.438l0.088,0.844c-3.586,0.633-7.452,0.65-10.266,0.65l-0.178-0.949
					c1.347,0,2.929,0,4.589-0.07v-3.076h1.106L781.61,241.291L781.61,241.291z M785.687,237.74l-0.526,0.896
					c-1.872-0.601-3.428-1.84-4.111-3.519c-0.659,1.77-2.206,3.067-4.063,3.674l-0.545-0.858c2.25-0.703,4.043-2.479,4.043-4.729
					h-3.689v-0.949h3.709v-1.983h1.105v1.983h3.778v0.949h-3.797C781.592,235.367,783.42,237.072,785.687,237.74z M788.448,245.686
					h-1.105v-15.521h1.105V245.686z"/>
				<path d="M800.523,237.898l-0.579,0.879c-1.759-0.65-3.188-1.986-3.851-3.656c-0.659,1.863-2.188,3.331-4.024,4.043l-0.58-0.879
					c2.215-0.809,4.024-2.883,4.024-5.147v-0.914h-3.641v-0.935h8.332v0.935h-3.586v0.896
					C796.62,235.191,798.325,237.125,800.523,237.898z M804.161,245.668h-1.105v-4.412h-9.246v-0.914h10.354L804.161,245.668
					L804.161,245.668z M804.161,239.463h-1.105v-4.198h-3.356v-0.935h3.356v-4.166h1.105V239.463z"/>
				<path d="M811.176,241.537v-1.828c-1.872-0.158-3.094-1.222-3.076-2.813c-0.018-1.74,1.441-2.865,3.621-2.865
					c2.162,0,3.64,1.125,3.64,2.865c0,1.582-1.223,2.646-3.076,2.813v1.793c1.514-0.079,3.032-0.202,4.446-0.401l0.089,0.858
					c-3.41,0.58-7.119,0.615-9.859,0.615l-0.212-0.967C808.055,241.607,809.586,241.599,811.176,241.537z M816.413,233.029h-9.402
					v-0.932h4.166v-1.937h1.105v1.937h4.131V233.029z M809.136,236.896c0,1.16,1.037,1.951,2.584,1.934
					c1.547,0.021,2.564-0.771,2.584-1.934c-0.02-1.16-1.037-1.986-2.584-1.986S809.136,235.736,809.136,236.896z M818.84,236.861
					h2.637v0.949h-2.637v7.854h-1.09v-15.504h1.09V236.861z"/>
				<path d="M713.722,268.217c0-0.879,0.722-1.6,1.617-1.6c0.879,0,1.6,0.721,1.6,1.6c0,0.896-0.721,1.617-1.6,1.617
					C714.444,269.834,713.722,269.113,713.722,268.217z"/>
				<path d="M739.017,272.787h-14.203v-0.932h3.867v-2.974c-1.188-0.475-1.846-1.28-1.846-2.354c0-1.813,1.916-2.883,5.045-2.865
					c3.109-0.018,5.045,1.057,5.045,2.865c0,1.072-0.668,1.881-1.848,2.354v2.974h3.938L739.017,272.787L739.017,272.787z
					 M738.174,262.521h-12.621v-0.935h5.783v-2.145h1.09v2.145h5.748V262.521L738.174,262.521z M727.944,266.529
					c0,1.213,1.528,1.986,3.938,1.986c2.392,0,3.92-0.773,3.92-1.986c0-1.23-1.528-1.986-3.92-1.986
					C729.472,264.543,727.944,265.299,727.944,266.529z M733.972,271.855v-2.654c-0.614,0.132-1.317,0.193-2.092,0.193
					c-0.773,0-1.479-0.056-2.094-0.176v2.637H733.972z"/>
				<path d="M754.504,266.74h-4.078v1.67h2.215v3.322h-9.403v1.828h9.896v0.914h-10.968v-3.604h9.402v-1.582h-9.457v-0.879h2.196
					v-1.67h-3.938v-0.932h14.135V266.74z M752.851,262.064c0,1.74-2.021,2.707-5.432,2.707c-3.411,0-5.434-0.967-5.434-2.707
					s2.021-2.707,5.434-2.707C750.828,259.357,752.851,260.324,752.851,262.064z M743.131,262.064c0,1.16,1.635,1.828,4.289,1.828
					c2.672,0,4.307-0.668,4.307-1.828c0-1.146-1.635-1.828-4.307-1.828C744.765,260.236,743.131,260.922,743.131,262.064z
					 M749.319,268.41v-1.67h-3.902v1.67H749.319z"/>
				<path d="M756.508,267.725c0-0.527,0.422-0.949,0.947-0.949c0.512,0,0.934,0.422,0.934,0.949c0,0.51-0.422,0.932-0.934,0.932
					C756.929,268.656,756.508,268.234,756.508,267.725z"/>
				<path d="M774.472,267.672h-6.521v1.986h4.766v4.781h-10.617v-4.781h4.765v-1.986h-6.521v-0.932h14.133v0.932H774.472z
					 M773.085,260.605h-2.496v3.565h2.461v0.949h-11.338v-0.949h2.479v-3.565h-2.496v-0.914h11.393L773.085,260.605L773.085,260.605
					z M763.187,273.525h8.455v-2.971h-8.455V273.525z M769.48,264.174v-3.565h-4.184v3.565H769.48z"/>
				<path d="M785.406,266.002l-0.563,0.879c-1.828-0.612-3.375-1.896-4.043-3.586c-0.659,1.828-2.226,3.252-4.113,3.92l-0.526-0.896
					c2.25-0.773,4.043-2.707,4.063-4.922v-0.354h-3.762v-0.946h8.596v0.946h-3.729v0.354
					C781.327,263.506,783.156,265.316,785.406,266.002z M788.64,271.574h-8.858v1.986h9.457v0.914H778.71v-3.744h8.842v-1.793
					h-8.896v-0.896h9.983L788.64,271.574L788.64,271.574z M788.622,267.25h-1.09v-8.086h1.09V267.25z"/>
				<path d="M808.081,260.992c0,1.195,0,2.698-0.422,4.781h2.338v0.932h-14.202v-0.932h10.738c0.438-2.104,0.438-3.595,0.438-4.781
					v-0.141h-9.354v-0.935h10.459v1.073L808.081,260.992L808.081,260.992z M808.204,274.721h-1.105v-4.623h-9.791v-0.914h10.896
					V274.721L808.204,274.721z"/>
				<path d="M817.784,262.012h-4.711v7.752c2.383,0,3.886-0.1,5.645-0.478l0.123,0.949c-1.863,0.404-3.41,0.475-5.906,0.492h-0.967
					v-9.65h5.816V262.012z M824.552,274.668h-1.072v-8.262h-2.514v7.436h-1.037v-14.309h1.037v5.941h2.514v-6.313h1.072V274.668z"/>
			</g>
		</g>
	</g>
	<g>
		<circle fill="none" stroke="#6DC7D3" stroke-width="16" stroke-miterlimit="10" cx="450.519" cy="221.993" r="110.334"/>
		<g>
			<g>
				<path d="M422.036,165.271l-1.029,1.59c-2.181-0.752-3.781-2.256-4.619-4.146c-0.838,2.084-2.503,3.72-4.77,4.515l-1.099-1.59
					c3.009-1.031,4.813-3.502,4.834-6.166v-0.519h-4.229V157.3h10.42v1.654h-4.146v0.537
					C417.396,161.94,419.094,164.282,422.036,165.271z M425.797,175.282h-2.041v-5.049h-10.678v-1.654h12.719V175.282z
					 M425.797,160.974h2.793v1.719h-2.793v4.938h-2.041V156.03h2.041V160.974z"/>
				<path d="M447.26,167.032h-17.574v-1.633h7.8v-2.041h-5.605v-6.445h13.213v1.611H433.9v3.201h11.321v1.633h-5.758v2.041h7.799
					L447.26,167.032L447.26,167.032z M445.09,171.78c0,2.234-2.492,3.48-6.641,3.502c-4.168-0.021-6.683-1.268-6.683-3.502
					s2.515-3.502,6.683-3.502C442.597,168.278,445.09,169.546,445.09,171.78z M433.831,171.78c0,1.225,1.678,1.912,4.619,1.891
					c2.899,0.021,4.6-0.666,4.6-1.891s-1.697-1.912-4.6-1.912C435.508,169.868,433.831,170.556,433.831,171.78z"/>
				<path d="M456.821,160.007h5.049v-2.771h2.021v8.938h-9.065v-8.938h1.998L456.821,160.007L456.821,160.007z M469.366,171.63
					c0,2.302-2.404,3.634-6.381,3.652c-4.019-0.021-6.468-1.354-6.468-3.652c0-2.274,2.449-3.606,6.468-3.606
					C466.961,168.021,469.366,169.353,469.366,171.63z M461.868,164.54v-2.922h-5.049v2.922H461.868z M458.56,171.63
					c-0.021,1.289,1.634,2.021,4.427,2.021c2.771,0,4.383-0.73,4.383-2.021s-1.609-1.998-4.383-1.998
					C460.194,169.632,458.538,170.341,458.56,171.63z M469.196,160.737h2.793v1.74h-2.793v5.049h-2.041v-11.494h2.041V160.737z"/>
				<path d="M484.858,164.885l-1.031,1.609c-2.225-0.784-3.897-2.353-4.771-4.359c-0.858,2.157-2.546,3.865-4.834,4.685l-1.03-1.59
					c3.008-1.074,4.813-3.674,4.813-6.424v-1.851h2.084v1.851C480.067,161.469,481.892,163.896,484.858,164.885z M489.047,175.282
					h-2.041v-5.113h-11v-1.651h13.041V175.282z M489.047,167.591h-2.041v-11.559h2.041V167.591z"/>
			</g>
			<g>
				<rect x="382.343" y="198.167" fill="none" width="136.354" height="90.916"/>
				<path d="M387.898,210.217c0-0.879,0.723-1.6,1.616-1.6c0.879,0,1.603,0.721,1.603,1.6c0,0.896-0.724,1.617-1.603,1.617
					C388.619,211.834,387.898,211.113,387.898,210.217z"/>
				<path d="M408.412,207.861l-0.58,0.879c-1.819-0.659-3.351-2.03-4.043-3.814c-0.668,1.907-2.215,3.41-4.043,4.113l-0.58-0.896
					c2.23-0.812,4.043-2.918,4.061-5.312v-1.192h1.107v1.192C404.316,205.119,406.178,207.088,408.412,207.861z M411.734,213.627
					h-8.857v1.916h9.457v0.935h-10.529v-3.729h8.842v-1.758h-8.895v-0.914h9.982V213.627L411.734,213.627z M411.716,209.268h-1.09
					v-8.104h1.09V209.268z"/>
				<path d="M424.178,212.221l-0.688,0.879c-1.749-0.879-3.419-2.807-4.146-5.101c-0.712,2.408-2.364,4.456-4.131,5.379
					l-0.721-0.932c2.18-1.037,4.287-3.99,4.287-6.908v-2.985h1.106v2.985C419.873,208.354,422,211.201,424.178,212.221z
					 M427.273,216.686h-1.105v-15.521h1.105V216.686z"/>
				<path d="M430.648,210.691l-0.476-0.896c3.777-1.213,6.346-3.551,6.627-6.483h-6.014v-0.935h7.207
					C437.994,206.297,435.059,209.268,430.648,210.691z M442.934,216.299h-10.37v-4.887h1.106v3.955h9.264V216.299z
					 M442.178,205.998h2.392v0.949h-2.392v5.643h-1.125v-11.426h1.125V205.998z"/>
				<path d="M464.134,208.863h-6.521v1.688h4.657v3.284h-9.403v1.726h9.896v0.914h-10.969v-3.498h9.402v-1.547h-9.457v-0.879h4.766
					v-1.688h-6.504v-0.949h14.133V208.863L464.134,208.863z M453.007,203.027h8.154v-1.617h1.106v5.08h-10.37v-5.08h1.106
					L453.007,203.027L453.007,203.027z M461.162,205.594v-1.688h-8.154v1.688H461.162z"/>
				<path d="M474.839,208.09l0.104,0.949c-2.584,0.422-4.677,0.527-7.472,0.51h-1.194v-4.254h5.87v-2.215h-5.905v-0.932h6.996v4.043
					h-5.854v2.426h0.088C470.216,208.617,472.289,208.512,474.839,208.09z M477.757,213.855c0,1.758-1.916,2.774-5.063,2.774
					c-3.183,0-5.099-1.02-5.099-2.774s1.916-2.777,5.099-2.777C475.841,211.078,477.757,212.098,477.757,213.855z M468.686,213.855
					c-0.018,1.16,1.529,1.881,4.009,1.881c2.442,0,3.989-0.721,3.989-1.881s-1.547-1.881-3.989-1.881
					C470.216,211.975,468.669,212.695,468.686,213.855z M480.043,204.662h-2.408v2.303h2.408v0.949h-2.408v2.654h-1.106v-9.404
					h1.106v2.531h2.408V204.662z"/>
				<path d="M495.634,215.859h-1.072v-5.203h-2.672c-0.554,1.573-1.582,2.496-2.918,2.496c-2.004,0-3.306-2.074-3.306-5.312
					c0-3.252,1.302-5.309,3.306-5.309c1.336,0,2.373,0.914,2.918,2.496h2.672v-3.516h1.072V215.859z M486.703,207.844
					c0,2.549,0.881,4.271,2.27,4.271c1.39,0,2.285-1.723,2.285-4.271c0-2.566-0.896-4.271-2.285-4.271
					S486.703,205.277,486.703,207.844z M492.311,207.844c0,0.677-0.063,1.301-0.176,1.86h2.426v-3.744h-2.426
					C492.25,206.534,492.311,207.158,492.311,207.844z M498.693,216.668h-1.072v-15.504h1.072V216.668z"/>
				<path d="M515.145,209.953h-14.133v-0.914h14.133V209.953z M508.625,202.764h5.045v0.914h-4.992
					c0.044,1.992,2.83,3.231,5.555,3.516l-0.387,0.896c-2.437-0.313-4.869-1.292-5.768-3.006c-0.914,1.714-3.355,2.689-5.781,3.006
					l-0.354-0.896c2.688-0.281,5.477-1.521,5.536-3.516h-4.975v-0.914h5.025v-1.67h1.09L508.625,202.764L508.625,202.764z
					 M513.369,216.668h-1.105v-3.955h-9.688v-0.932h10.793V216.668L513.369,216.668z"/>
				<path d="M387.898,239.217c0-0.879,0.723-1.6,1.616-1.6c0.879,0,1.603,0.721,1.603,1.6c0,0.896-0.724,1.617-1.603,1.617
					C388.619,240.834,387.898,240.113,387.898,239.217z"/>
				<path d="M408.182,241.396l-0.647,0.879c-1.726-0.87-3.298-2.771-3.99-4.922c-0.712,2.329-2.399,4.4-4.098,5.309l-0.687-0.879
					c2.109-1.055,4.219-4.008,4.236-6.68v-2.373h-3.691v-0.949h8.386v0.949h-3.621v2.373
					C404.07,237.617,406.039,240.359,408.182,241.396z M410.925,236.545h2.672v0.949h-2.672v8.174h-1.106v-15.504h1.106V236.545z"/>
				<path d="M428.678,238.848h-14.133v-0.914h6.521v-1.972h-4.712V230.9h10.548v0.896h-9.457v3.234h9.563v0.932h-4.869v1.972h6.539
					V238.848z M426.921,242.855c0,1.793-2.006,2.774-5.311,2.795c-3.341-0.021-5.345-1.002-5.345-2.795
					c0-1.758,2.004-2.76,5.345-2.76C424.918,240.096,426.921,241.098,426.921,242.855z M417.393,242.855
					c0,1.178,1.617,1.881,4.22,1.881c2.565,0,4.2-0.703,4.2-1.881c0-1.16-1.635-1.863-4.2-1.881
					C419.01,240.992,417.393,241.695,417.393,242.855z"/>
				<path d="M442.32,241.291l-0.687,0.847c-1.563-0.949-2.732-2.707-3.271-4.802c-0.555,2.25-1.759,4.157-3.355,5.15l-0.703-0.826
					c2.107-1.266,3.517-4.113,3.517-7.014v-1.652h-3.146v-0.932h7.207v0.932h-2.988v1.652
					C438.875,237.389,440.227,240.078,442.32,241.291z M444.516,244.824h-1.055v-8.068h-2.797v-0.932h2.797v-5.256h1.055V244.824z
					 M447.645,245.668h-1.071v-15.504h1.071V245.668z"/>
				<path d="M457.947,236.193h3.744v-6.029h1.09v15.521h-1.09v-8.578h-3.728c-0.134,3.064-1.661,5.01-3.832,5.01
					c-2.27,0-3.852-2.092-3.832-5.361c-0.02-3.27,1.563-5.358,3.832-5.358C456.251,231.395,457.761,233.249,457.947,236.193z
					 M451.354,236.756c0,2.604,1.125,4.377,2.777,4.377c1.635,0,2.775-1.772,2.775-4.377c0-2.584-1.144-4.377-2.775-4.377
					C452.479,232.379,451.354,234.172,451.354,236.756z"/>
				<path d="M479.531,241.221l-0.687,0.879c-1.749-0.879-3.419-2.807-4.147-5.101c-0.712,2.408-2.363,4.456-4.131,5.379
					l-0.722-0.932c2.181-1.037,4.289-3.99,4.289-6.908v-2.985h1.105v2.985C475.225,237.354,477.352,240.201,479.531,241.221z
					 M482.627,245.686h-1.107v-15.521h1.107V245.686z"/>
				<path d="M499.658,243.488h-14.201v-0.932h14.201V243.488z M498.867,238.109l-0.545,0.949c-2.188-0.545-4.853-2.241-5.836-4.623
					c-0.982,2.382-3.646,4.078-5.836,4.623l-0.525-0.949c2.441-0.478,5.766-2.795,5.781-5.59v-1.23h1.145v1.23
					C493.05,235.297,496.425,237.652,498.867,238.109z"/>
				<path d="M507.693,232.15h-4.853v2.127h4.201v0.896h-4.201v2.355c2.451,0,3.876-0.079,5.605-0.422l0.123,0.896
					c-1.812,0.369-3.271,0.439-5.854,0.439h-0.949v-7.242h5.925L507.693,232.15L507.693,232.15z M514.127,245.439h-10.125v-5.15
					h10.125V245.439z M505.091,244.525h7.963v-3.322h-7.963V244.525z M511.137,239.375h-1.071v-4.324h-2.269v-0.946h2.269v-3.656
					h1.071V239.375z M514.127,239.533h-1.057v-9.369h1.057V239.533z"/>
				<path d="M387.898,268.217c0-0.879,0.723-1.6,1.616-1.6c0.879,0,1.603,0.721,1.603,1.6c0,0.896-0.724,1.617-1.603,1.617
					C388.619,269.834,387.898,269.113,387.898,268.217z"/>
				<path d="M413.123,267.672h-6.521v1.986h4.767v4.781H400.75v-4.781h4.764v-1.986h-6.521v-0.932h14.133v0.932H413.123z
					 M411.734,260.605h-2.496v3.565h2.463v0.949h-11.34v-0.949h2.479v-3.565h-2.496v-0.914h11.392L411.734,260.605L411.734,260.605z
					 M401.837,273.525h8.455v-2.971h-8.455V273.525z M408.13,264.174v-3.565h-4.186v3.565H408.13z"/>
				<path d="M424.055,266.002l-0.563,0.879c-1.828-0.612-3.373-1.896-4.041-3.586c-0.659,1.828-2.227,3.252-4.113,3.92l-0.527-0.896
					c2.25-0.773,4.043-2.707,4.063-4.922v-0.354h-3.764v-0.946h8.596v0.946h-3.728v0.354
					C419.977,263.506,421.805,265.316,424.055,266.002z M427.289,271.574h-8.857v1.986h9.457v0.914H417.36v-3.744h8.842v-1.793
					h-8.896v-0.896h9.982L427.289,271.574L427.289,271.574z M427.273,267.25h-1.091v-8.086h1.091V267.25z"/>
				<path d="M442.828,264.051c-0.019,2.232-1.723,3.8-4.008,3.8c-2.304,0-4.023-1.564-4.023-3.8c0-2.215,1.723-3.762,4.023-3.762
					C441.107,260.289,442.811,261.836,442.828,264.051z M435.885,264.051c-0.02,1.617,1.267,2.813,2.937,2.813
					s2.918-1.195,2.938-2.813c-0.02-1.6-1.268-2.795-2.938-2.795S435.867,262.451,435.885,264.051z M447.277,274.299h-10.354v-4.852
					h1.09v3.92h9.265L447.277,274.299L447.277,274.299z M446.52,263.963h2.392v0.949h-2.392v5.73h-1.106v-11.496h1.106V263.963z"/>
				<path d="M459.141,266.863l-0.58,0.896c-1.749-0.647-3.182-1.992-3.831-3.653c-0.669,1.89-2.197,3.393-4.044,4.11l-0.579-0.896
					c2.231-0.826,4.024-2.918,4.024-5.221v-0.812h-3.641v-0.932h8.332v0.932h-3.586v0.791
					C455.24,264.174,456.945,266.107,459.141,266.863z M462.834,271.785c0,1.813-1.951,2.848-5.15,2.865
					c-3.198-0.021-5.149-1.055-5.133-2.865c-0.02-1.811,1.935-2.848,5.133-2.848C460.883,268.937,462.834,269.975,462.834,271.785z
					 M453.639,271.785c-0.02,1.213,1.563,1.951,4.043,1.951c2.479,0,4.062-0.738,4.062-1.951s-1.582-1.969-4.062-1.969
					S453.621,270.572,453.639,271.785z M462.781,268.41h-1.105v-4.184h-3.356v-0.935h3.356v-4.131h1.105V268.41z"/>
				<path d="M474.662,266.688l-0.633,0.858c-1.724-0.656-3.164-1.978-3.832-3.688c-0.643,1.939-2.146,3.428-4.008,4.166
					l-0.599-0.914c2.285-0.826,4.023-2.883,4.043-5.361v-1.688h1.07v1.649C470.709,263.963,472.448,265.914,474.662,266.688z
					 M478.389,271.75c0,1.828-1.95,2.865-5.149,2.865c-3.197,0-5.148-1.037-5.133-2.865c-0.019-1.846,1.936-2.897,5.133-2.918
					C476.439,268.85,478.389,269.904,478.389,271.75z M469.197,271.75c-0.019,1.213,1.563,1.972,4.043,1.972
					c2.48,0,4.063-0.759,4.063-1.972c0-1.248-1.582-2.004-4.063-2.004C470.76,269.746,469.178,270.502,469.197,271.75z
					 M478.337,268.375h-1.107v-4.813h-3.62v-0.935h3.62v-3.463h1.107V268.375z"/>
				<path d="M494.755,261.924h-9.246v-0.911h4.078v-1.986h1.09v1.986h4.078V261.924L494.755,261.924z M493.823,265.527
					c0,1.67-1.478,2.725-3.689,2.725c-2.25,0-3.709-1.055-3.709-2.725s1.459-2.725,3.709-2.725
					C492.346,262.803,493.823,263.857,493.823,265.527z M487.477,265.527c-0.018,1.104,1.056,1.846,2.654,1.828
					c1.582,0.018,2.637-0.724,2.652-1.828c-0.019-1.107-1.07-1.863-2.652-1.863C488.531,263.664,487.461,264.42,487.477,265.527z
					 M497.709,271.979c0,1.67-1.898,2.637-5.027,2.637c-3.146,0-5.045-0.967-5.026-2.637c-0.019-1.688,1.881-2.672,5.026-2.672
					C495.809,269.307,497.709,270.291,497.709,271.979z M488.742,271.979c0,1.09,1.514,1.758,3.938,1.74
					c2.408,0.018,3.938-0.65,3.938-1.74c0-1.125-1.527-1.775-3.938-1.775C490.255,270.203,488.742,270.854,488.742,271.979z
					 M499.906,262.943h-2.373v2.338h2.373v0.949h-2.373v2.988h-1.105v-10.058h1.105v2.851h2.373V262.943z"/>
				<path d="M509.994,266.617l-0.613,0.896c-1.725-0.659-3.175-2.03-3.832-3.729c-0.649,1.925-2.127,3.419-3.938,4.148l-0.599-0.896
					c2.25-0.858,3.938-2.936,3.955-5.414v-1.67h1.07v1.74C506.041,263.875,507.816,265.844,509.994,266.617z M513.212,271.855
					c0,1.758-1.898,2.76-5.063,2.76c-3.182,0-5.098-1.002-5.079-2.76c-0.019-1.74,1.897-2.76,5.079-2.76
					C511.314,269.096,513.212,270.115,513.212,271.855z M504.158,271.855c-0.019,1.16,1.549,1.863,3.99,1.881
					c2.442-0.018,3.989-0.721,3.989-1.881c0-1.146-1.547-1.849-3.989-1.849C505.707,270.009,504.141,270.713,504.158,271.855z
					 M513.089,263.33h2.391v0.949h-2.391v4.395h-1.106v-9.51h1.106V263.33z"/>
			</g>
		</g>
	</g>
</g>
</svg>
