<?xml version="1.0" encoding="utf-8"?>
<!-- Generator: Adobe Illustrator 16.0.0, SVG Export Plug-In . SVG Version: 6.00 Build 0)  -->
<!DOCTYPE svg PUBLIC "-//W3C//DTD SVG 1.1//EN" "http://www.w3.org/Graphics/SVG/1.1/DTD/svg11.dtd">
<svg version="1.1" id="Layer_1" xmlns="http://www.w3.org/2000/svg" xmlns:xlink="http://www.w3.org/1999/xlink" x="0px" y="0px"
	 width="900px" height="349px" viewBox="0 50.5 900 349" enable-background="new 0 50.5 900 349" xml:space="preserve">
<g id="Layer_1_1_" display="none">
	<g id="g-root-tx__1umry4k1wbaknj-fill" transform="translate(362, 266)" display="inline">
		<g id="tx__1umry4k1wbaknj-fill">
			<g>
				<g enable-background="new    ">
					<path fill="#484848" d="M47.781,15.731l-0.778,1.132c-1.828-0.649-3.284-1.948-4.008-3.618
						c-0.705,1.884-2.199,3.321-4.156,4.026l-0.798-1.169c2.485-0.816,4.192-2.896,4.212-5.309V9.237h1.43v1.559
						C43.662,12.967,45.369,14.934,47.781,15.731z M51.733,22.003h-9.222v1.802h9.834v1.169H41.083V20.89h9.203v-1.651h-9.24V18.07
						h10.688L51.733,22.003L51.733,22.003z M51.733,17.234h-1.466v-4.286h-3.674v-1.206h3.674V8.699h1.466V17.234z"/>
					<path fill="#484848" d="M56.892,14.47h4.917v-4.36h1.429v11.133h-7.793V10.109h1.447V14.47z M61.809,20.018v-4.379h-4.917
						v4.379H61.809z M68.079,25.231h-1.466V8.699h1.466V25.231z"/>
					<path fill="#484848" d="M84.073,20.426l-0.891,1.076c-1.624-0.975-2.774-2.756-3.34-4.859c-0.604,2.271-1.8,4.212-3.451,5.251
						l-0.928-1.097c2.301-1.373,3.637-4.379,3.637-7.385v-1.559h-3.173v-1.206h7.605v1.206h-3.022v1.559
						C80.512,16.27,81.793,19.108,84.073,20.426z M86.431,24.341h-1.373v-8.498h-2.783v-1.188h2.783V9.107h1.373V24.341z
						 M89.771,25.194H88.38V8.699h1.392L89.771,25.194L89.771,25.194z"/>
					<path fill="#484848" d="M101.738,16.808l-0.742,1.132c-1.883-0.668-3.319-2.022-4.024-3.729
						c-0.705,1.874-2.217,3.331-4.156,4.045l-0.779-1.132c2.47-0.872,4.193-3.006,4.212-5.36v-0.705H92.48v-1.19h8.906v1.188h-3.711
						v0.705C97.676,13.95,99.288,15.954,101.738,16.808z M104.985,25.194h-1.447v-4.49h-9.352v-1.188h10.799V25.194z M104.985,13.06
						h2.486v1.243h-2.486v4.342h-1.447V8.699h1.447V13.06z"/>
					<path fill="#484848" d="M121.889,16.492h-7.737V9.775h7.737V16.492z M127.883,24.007l-0.501,1.134
						c-2.486-0.334-4.75-1.503-5.716-3.043c-1.003,1.566-3.32,2.709-5.809,3.043l-0.52-1.134c2.839-0.313,5.564-1.909,5.564-3.563
						h-4.88v-1.132h4.898v-1.614h1.445v1.614h4.938v1.132h-4.898C122.407,22.059,125.044,23.654,127.883,24.007z M115.579,15.342
						h4.882v-4.379h-4.882V15.342z M126.881,18.181h-1.431V8.699h1.431V18.181z"/>
				</g>
				<g enable-background="new    ">
					<path fill="#484848" d="M47.93,40.923l-0.835,1.148c-1.855-0.897-3.424-2.866-4.156-5.103
						c-0.761,2.431-2.421,4.563-4.269,5.511l-0.892-1.15c2.375-1.148,4.416-4.284,4.436-7.104V32.07h-3.841v-1.206h8.979v1.206
						h-3.711v2.152C43.625,36.878,45.536,39.789,47.93,40.923z M50.824,35.839h2.765v1.241h-2.765v8.572h-1.447V29.157h1.447V35.839
						z"/>
					<path fill="#484848" d="M69.527,38.49H54.479v-1.169h6.81v-1.93h-4.896v-5.455h11.263v1.169H57.82v3.099h9.945v1.188h-5.065
						v1.93h6.828L69.527,38.49L69.527,38.49z M67.673,42.665c-0.021,1.911-2.136,2.971-5.68,2.987
						c-3.563-0.019-5.695-1.076-5.695-2.987c0-1.893,2.135-2.969,5.695-2.969C65.537,39.696,67.653,40.772,67.673,42.665z
						 M57.782,42.665c-0.02,1.15,1.559,1.818,4.211,1.818c2.616,0,4.212-0.668,4.212-1.818c0-1.132-1.596-1.816-4.212-1.816
						C59.341,40.847,57.764,41.533,57.782,42.665z"/>
					<path fill="#484848" d="M75.241,41.199v-1.837c-1.92-0.214-3.173-1.336-3.152-2.969c-0.021-1.855,1.559-3.063,3.896-3.063
						c2.301,0,3.896,1.206,3.915,3.063c-0.019,1.633-1.29,2.755-3.189,2.987v1.763c1.538-0.074,3.089-0.194,4.525-0.408l0.093,1.113
						c-3.6,0.612-7.496,0.647-10.391,0.647l-0.241-1.241C72.043,41.257,73.609,41.257,75.241,41.199z M80.938,32.367h-9.945V31.18
						h4.249v-1.985h1.468v1.985h4.229V32.367L80.938,32.367z M73.442,36.394c0,1.15,1.021,1.893,2.542,1.874
						c1.503,0.019,2.523-0.724,2.523-1.874s-1.021-1.93-2.523-1.93C74.464,34.466,73.442,35.243,73.442,36.394z M83.702,36.189
						h2.637v1.225h-2.637v8.238h-1.466V29.157h1.466V36.189z"/>
					<path fill="#484848" d="M100.494,40.885l-0.891,1.076c-1.624-0.976-2.774-2.757-3.34-4.861c-0.604,2.271-1.8,4.212-3.451,5.251
						l-0.928-1.095c2.301-1.373,3.637-4.379,3.637-7.387v-1.559H92.35v-1.206h7.605v1.206h-3.022v1.559
						C96.933,36.728,98.214,39.566,100.494,40.885z M102.852,44.801h-1.373v-8.498h-2.783v-1.188h2.783v-5.548h1.373V44.801z
						 M106.191,45.652H104.8V29.157h1.392L106.191,45.652L106.191,45.652z"/>
					<path fill="#484848" d="M117.047,35.468h3.69v-6.311h1.447v16.532h-1.447v-9.018h-3.674c-0.176,3.229-1.818,5.251-4.119,5.251
						c-2.431,0-4.138-2.229-4.138-5.733s1.707-5.733,4.138-5.752C115.19,30.456,116.805,32.379,117.047,35.468z M110.198,36.189
						c0,2.69,1.113,4.435,2.746,4.435c1.614,0,2.746-1.742,2.746-4.435s-1.132-4.436-2.746-4.453
						C111.313,31.756,110.198,33.499,110.198,36.189z"/>
					<path fill="#484848" d="M139.424,36.189l-0.779,1.132c-1.828-0.647-3.284-1.948-4.008-3.618
						c-0.705,1.885-2.199,3.321-4.156,4.026l-0.798-1.169c2.485-0.816,4.192-2.896,4.212-5.309v-1.559h1.429v1.559
						C135.304,33.427,137.011,35.392,139.424,36.189z M143.375,42.463h-9.223v1.8h9.834v1.169h-11.263v-4.082h9.203v-1.651h-9.24
						v-1.169h10.688V42.463z M143.375,37.692h-1.467v-4.286h-3.674V32.2h3.674v-3.043h1.467V37.692z"/>
					<path fill="#484848" d="M156.622,41.032l-0.814,1.132c-1.902-0.844-3.517-2.635-4.286-4.822
						c-0.742,2.317-2.347,4.221-4.249,5.121l-0.815-1.134c2.448-1.111,4.322-3.896,4.322-6.791v-1.315h-3.88v-1.188h3.859v-2.561
						h1.445v2.561h3.843v1.188h-3.843v1.315C152.207,37.303,154.137,39.975,156.622,41.032z M159.722,45.652h-1.466V29.157h1.466
						V45.652z"/>
				</g>
			</g>
		</g>
	</g>
	<g id="g-root-sy_1_cu_958kn81wb95or-fill" transform="translate(14, 98)" display="inline">
		<g id="sy_1_cu_958kn81wb95or-fill">
			<g>
				<path fill="#40587E" d="M87.036,110.947V29.113h184.127l-40.917,20.458v61.376H87.036z"/>
			</g>
		</g>
	</g>
	<g id="g-root-sy_2_cu_1uuw4901wb972k-fill" transform="translate(182.00009155273438, 98)" display="inline">
		<g id="sy_2_cu_1uuw4901wb972k-fill">
			<g>
				<path fill="#4371BD" d="M62.246,131.406V49.571h184.128L205.456,70.03v61.376H62.246z M103.163,29.113v20.458H62.246
					L103.163,29.113z"/>
			</g>
		</g>
	</g>
	<g id="g-root-sy_3_cu_1uuw4901wb972l-fill" transform="translate(350.0000915527344, 122)" display="inline">
		<g id="sy_3_cu_1uuw4901wb972l-fill">
			<g>
				<path fill="#4F84DA" d="M37.456,127.865V46.03h184.128l-40.917,20.458v61.376L37.456,127.865L37.456,127.865z M78.374,25.571
					V46.03H37.456L78.374,25.571z"/>
			</g>
		</g>
	</g>
	<g id="g-root-sy_4_cu_1qf2m4k1wb97uu-fill" transform="translate(518.0001220703125, 146)" display="inline">
		<g id="sy_4_cu_1qf2m4k1wb97uu-fill">
			<g>
				<path fill="#4E8BEF" d="M12.667,42.489v81.834h143.21V62.947l40.917-20.458H12.667z M53.584,22.03v20.458H12.667L53.584,22.03z"
					/>
			</g>
		</g>
	</g>
	<g id="g-root-sy_5_cu_1hjflvo1wb98nj-fill" transform="translate(686, 170)" display="inline">
		<g id="sy_5_cu_1hjflvo1wb98nj-fill">
			<g>
				<path fill="#5B99FF" d="M-12.122,120.782V38.947h184.127l-40.918,20.459v61.376H-12.122z M28.795,18.489v20.458h-40.917
					L28.795,18.489z"/>
			</g>
		</g>
	</g>
	<g id="g-root-sy_6_cu_1lz94041wb98n4-fill" transform="translate(854, 194)" display="inline">
		<g id="sy_6_cu_1lz94041wb98n4-fill">
			<g>
				<path fill="#95BDFF" d="M-36.913,117.241V35.406h132.98V25.177l40.916,51.146l-40.916,51.999v-11.081H-36.913z M4.005,14.947
					v20.459h-40.918L4.005,14.947z"/>
			</g>
		</g>
	</g>
	<g id="g-root-tx__m7yft01wbakui-fill" transform="translate(56, 134)" display="inline">
		<g id="tx__m7yft01wbakui-fill">
			<g>
				<g enable-background="new    ">
					<path fill="#FFFFFF" d="M98.766,37.444H83.439v-1.911h5.752v-2.95h2.338v2.95h7.236L98.766,37.444L98.766,37.444z
						 M97.04,41.712c-0.02,1.985-2.338,3.175-6.029,3.175c-3.655,0-6.013-1.188-6.013-3.175c0-2.021,2.355-3.189,6.013-3.189
						C94.702,38.521,97.021,39.689,97.04,41.712z M96.947,30.134c0,1.338,0,2.783-0.481,4.527l-2.318-0.223
						c0.371-1.531,0.417-2.672,0.444-3.822h-9.426v-1.854h11.781V30.134z M87.354,41.712c0,0.909,1.336,1.373,3.654,1.373
						c2.319,0,3.675-0.464,3.675-1.373c0-0.944-1.354-1.429-3.675-1.429C88.689,40.283,87.354,40.766,87.354,41.712z"/>
					<path fill="#FFFFFF" d="M109.564,30.913h-3.357c0.057,1.967,1.243,3.952,3.878,4.824l-1.169,1.854
						c-1.865-0.603-3.146-1.826-3.878-3.356c-0.751,1.726-2.098,3.117-4.102,3.804l-1.226-1.874
						c2.773-0.928,4.018-3.136,4.082-5.251h-3.396V29.02h9.166L109.564,30.913L109.564,30.913z M114.11,41.656
						c-0.02,2.041-2.228,3.247-5.825,3.247c-3.599,0-5.809-1.206-5.809-3.247c0-2.06,2.208-3.247,5.809-3.266
						C111.884,38.409,114.092,39.597,114.11,41.656z M104.833,41.656c0,0.965,1.206,1.447,3.451,1.447
						c2.244,0,3.47-0.482,3.47-1.447c0-0.983-1.226-1.447-3.47-1.447C106.039,40.209,104.833,40.673,104.833,41.656z M114.055,38.02
						h-2.355v-3.99h-2.636v-1.911h2.636V28h2.355V38.02z"/>
					<path fill="#FFFFFF" d="M136.061,38.521h-6.364v2.728h-2.338v-2.728h-6.754v-1.855h15.456V38.521z M134.354,44.588h-11.932
						v-4.676h2.339v2.783h9.593V44.588z M124.928,30.302h6.771v-1.764h2.355v6.939H122.59v-6.939h2.339L124.928,30.302
						L124.928,30.302z M131.7,33.604v-1.54h-6.771v1.54H131.7z"/>
					<path fill="#FFFFFF" d="M147.212,35.626L145.95,37.5c-1.818-0.61-3.053-1.828-3.768-3.356c-0.751,1.67-2.061,2.978-3.972,3.653
						l-1.279-1.893c2.819-0.909,4.025-3.117,4.045-5.418v-1.614h2.395v1.765C143.353,32.731,144.54,34.772,147.212,35.626z
						 M151.275,44.885h-2.355v-4.193h-9.239v-1.874h11.597L151.275,44.885L151.275,44.885z M151.275,38.057h-2.355v-4.975h-3.173
						v-1.946h3.173V28h2.355V38.057z"/>
				</g>
			</g>
		</g>
	</g>
	<g id="g-root-tx__8whxfo1wbamfg-fill" transform="translate(212, 158)" display="inline">
		<g id="tx__8whxfo1wbamfg-fill">
			<g>
				<g enable-background="new    ">
					<path fill="#FFFFFF" d="M73.142,35.888l-1.316,1.854c-1.884-0.863-3.229-2.588-3.972-4.62
						c-0.762,2.236-2.144,4.128-4.102,5.047l-1.373-1.874c2.82-1.315,4.229-4.451,4.249-7.234v-1.039h-3.581V26.09H72.4v1.932
						h-3.396v1.039C68.986,31.639,70.359,34.608,73.142,35.888z M76.092,30.897h2.486v1.983h-2.486v8.463h-2.375V24.458h2.375
						V30.897z"/>
					<path fill="#FFFFFF" d="M94.628,34.292H79.191v-1.854h6.567V30.99h-4.693v-5.789h11.708v1.837H83.42v2.099h9.443v1.854h-4.786
						v1.447h6.55L94.628,34.292L94.628,34.292z M92.754,38.263c-0.02,1.967-2.228,3.099-5.882,3.099
						c-3.691,0-5.919-1.132-5.919-3.099c0-2.006,2.228-3.117,5.919-3.117C90.528,35.146,92.736,36.259,92.754,38.263z
						 M83.366,38.263c-0.02,0.891,1.169,1.299,3.507,1.299c2.281,0,3.487-0.408,3.507-1.299c-0.02-0.872-1.226-1.317-3.507-1.317
						C84.535,36.946,83.347,37.391,83.366,38.263z"/>
					<path fill="#FFFFFF" d="M99.583,36.538V35.09c-1.8-0.353-2.97-1.492-2.95-3.062c-0.02-1.893,1.688-3.173,4.156-3.173
						c2.412,0,4.139,1.28,4.155,3.173c-0.02,1.568-1.206,2.718-2.986,3.062v1.354c1.336-0.065,2.682-0.176,3.935-0.354l0.147,1.728
						c-3.601,0.668-7.459,0.687-10.315,0.687l-0.314-1.93C96.642,36.575,98.08,36.575,99.583,36.538z M105.761,28.188h-10.02v-1.855
						h3.841v-1.779h2.375v1.779h3.805L105.761,28.188L105.761,28.188z M98.877,32.029c-0.02,0.891,0.762,1.373,1.911,1.373
						c1.112,0,1.874-0.482,1.874-1.373c0-0.872-0.762-1.373-1.874-1.373C99.638,30.656,98.859,31.157,98.877,32.029z M109.12,31.324
						h2.208v1.967h-2.208v8.055h-2.395V24.458h2.395V31.324z"/>
					<path fill="#FFFFFF" d="M126.598,31.008l-1.243,1.818c-1.81-0.584-3.07-1.716-3.805-3.173
						c-0.732,1.624-2.068,2.904-4.045,3.525l-1.226-1.874c2.803-0.816,4.046-2.876,4.063-5.065v-1.225h2.394v1.225
						C122.72,28.262,123.908,30.21,126.598,31.008z M130.643,38.263h-8.869v1.039h9.353v1.854h-11.688v-4.62h8.869v-0.965h-8.889
						v-1.818h11.227L130.643,38.263L130.643,38.263z M130.643,33.049h-2.355v-4.191h-3.174v-1.874h3.174V24.46h2.355V33.049z"/>
					<path fill="#FFFFFF" d="M143.947,40.601h-2.244v-5.566h-2.395v-1.911h2.395v-2.301h-2.078c-0.789,2.783-2.496,5.14-5.659,7.014
						l-1.393-1.67c3.424-2.021,4.927-4.479,5.252-7.793h-4.269v-1.911h6.624c0,0.846-0.057,1.661-0.147,2.449h1.67V24.83h2.244
						V40.601z M147.472,41.343h-2.228V24.458h2.228V41.343z"/>
				</g>
			</g>
		</g>
	</g>
	<g id="g-root-tx__4gofb81wban7q-fill" transform="translate(380, 182)" display="inline">
		<g id="tx__4gofb81wban7q-fill">
			<g>
				<g enable-background="new    ">
					<path fill="#FFFFFF" d="M44.295,32.496l-1.394,1.744c-1.503-0.891-2.496-2.403-3.063-4.212
						c-0.584,1.967-1.604,3.637-3.153,4.583l-1.43-1.744c2.486-1.521,3.414-4.563,3.414-7.422v-0.909h-2.766v-1.893h7.607v1.893
						H40.95v0.909C40.954,28.247,41.825,31.085,44.295,32.496z M46.762,37.023h-2.229v-8.405h-2.227v-1.911h2.227v-5.511h2.229
						V37.023z M50.214,37.802h-2.245V20.917h2.245V37.802z"/>
					<path fill="#FFFFFF" d="M61.623,23.793h-3.356c0.019,1.978,1.188,3.999,3.934,4.88l-1.206,1.839
						c-1.874-0.604-3.164-1.811-3.896-3.321c-0.751,1.649-2.097,2.959-4.063,3.6l-1.262-1.816c2.792-0.9,4.063-3.063,4.102-5.179
						h-3.45v-1.893h9.203v1.892L61.623,23.793L61.623,23.793z M65.428,37.802h-2.375V33.7h-8.999v-1.874h11.374V37.802z
						 M65.428,25.018h2.282v1.967h-2.282v4.119h-2.375V20.917h2.375V25.018z"/>
					<path fill="#FFFFFF" d="M81.941,29.044h-8.257v-7.104h8.257V29.044z M87.247,33.182h-4.729c0.26,1.148,2.041,2.477,5.381,2.802
						L87.1,37.765c-2.813-0.262-4.806-1.28-5.826-2.616c-1.048,1.354-3.052,2.347-5.882,2.616l-0.816-1.781
						c3.388-0.271,5.167-1.624,5.418-2.802h-4.729v-1.765h4.806v-1.392h2.375v1.392h4.806v1.765H87.247z M76.022,27.189h3.563
						v-3.414h-3.563V27.189z M86.95,30.492h-2.354v-9.574h2.354V30.492z"/>
					<path fill="#FFFFFF" d="M103.817,27.467l-1.243,1.818c-1.809-0.584-3.069-1.716-3.804-3.173
						c-0.733,1.624-2.069,2.904-4.045,3.525L93.5,27.763c2.803-0.816,4.046-2.876,4.063-5.065v-1.225h2.394v1.225
						C99.939,24.721,101.128,26.669,103.817,27.467z M107.862,34.722h-8.869v1.039h9.354v1.854h-11.69v-4.62h8.869V32.03h-8.888
						v-1.818h11.226L107.862,34.722L107.862,34.722z M107.862,29.508h-2.354v-4.191h-3.173v-1.874h3.173v-2.523h2.354V29.508z"/>
					<path fill="#FFFFFF" d="M120.851,32.57l-1.28,1.818c-1.92-0.789-3.293-2.403-4.063-4.344c-0.751,2.062-2.136,3.785-4.103,4.604
						l-1.262-1.818c2.783-1.206,4.156-4.045,4.156-6.624v-0.647h-3.602v-1.895h3.581v-2.375h2.356v2.375h3.523v1.895h-3.507v0.647
						C116.656,28.655,118.05,31.419,120.851,32.57z M124.173,37.802h-2.375V20.917h2.375V37.802z"/>
				</g>
			</g>
		</g>
	</g>
	<g id="g-root-tx__1q6yg041wbalfs-fill" transform="translate(542, 206)" display="inline">
		<g id="tx__1q6yg041wbalfs-fill">
			<g>
				<g enable-background="new    ">
					<path fill="#FFFFFF" d="M21.97,28.62l-1.394,1.895c-1.93-0.872-3.266-2.554-4.024-4.641c-0.771,2.272-2.152,4.11-4.212,5.047
						l-1.431-1.967c2.95-1.243,4.379-4.472,4.397-7.756v-2.523H17.7v2.523C17.701,24.297,19.112,27.414,21.97,28.62z M25.272,34.298
						h-2.394V17.376h2.394V34.298z"/>
					<path fill="#FFFFFF" d="M42.991,27.488h-6.399v2.932h-2.396v-2.932h-6.661v-1.893h15.456V27.488z M41.359,21.198
						c-0.019,2.152-2.449,3.488-6.104,3.488c-3.676,0-6.123-1.336-6.123-3.488c0-2.134,2.447-3.488,6.123-3.507
						C38.909,17.71,41.342,19.064,41.359,21.198z M41.284,33.964H29.372v-5.047h2.396v3.138h9.519L41.284,33.964L41.284,33.964z
						 M31.692,21.198c-0.019,1.039,1.373,1.596,3.563,1.596c2.171,0,3.563-0.557,3.563-1.596c0-1.076-1.392-1.633-3.563-1.633
						C33.065,19.565,31.675,20.122,31.692,21.198z"/>
					<path fill="#FFFFFF" d="M54.236,25.614l-1.169,1.874c-1.874-0.604-3.154-1.837-3.896-3.377
						c-0.742,1.707-2.089,3.062-4.082,3.729l-1.206-1.93c2.781-0.872,4.045-3.08,4.063-5.23v-0.262H44.55v-1.893h9.166v1.893h-3.358
						v0.278C50.358,22.646,51.547,24.742,54.236,25.614z M58.615,33.964H47V28.64h2.375v3.433h9.239V33.964z M58.207,29.715h-2.355
						v-6.049h-2.765v-1.911h2.765v-4.358h2.355V29.715z"/>
					<path fill="#FFFFFF" d="M64.962,28.991c0-1.577,0.99-2.515,2.468-3.525c-0.726-0.897-1.299-1.884-1.299-3.078
						c0-1.948,1.445-3.451,3.653-3.451c2.152,0,3.472,1.445,3.472,3.152c0,1.28-0.649,2.282-1.781,3.101l-0.779,0.575l2.245,2.577
						c0.344-0.656,0.557-1.445,0.557-2.317h2.282c0,1.827-0.474,3.229-1.206,4.212l2.022,2.319H73.72l-0.816-0.93
						c-0.992,0.788-2.264,1.132-3.451,1.132C66.668,32.758,64.962,31.106,64.962,28.991z M69.58,30.531
						c0.622,0,1.254-0.195,1.838-0.557l-2.578-2.876l-0.095,0.072c-0.761,0.559-1.111,1.15-1.111,1.67
						C67.634,29.808,68.394,30.531,69.58,30.531z M69.358,24.186l0.705-0.464c0.668-0.429,0.983-0.893,0.983-1.484
						c0-0.521-0.445-1.076-1.243-1.076c-0.779,0-1.317,0.575-1.317,1.262C68.486,22.988,68.84,23.555,69.358,24.186z"/>
					<path fill="#FFFFFF" d="M96.911,29.288H93.35v4.975h-2.396v-4.975h-3.523v4.975h-2.356v-4.975h-3.617v-1.93h15.455
						L96.911,29.288L96.911,29.288z M95.261,26.171H83.404v-8.106h11.671v1.854h-9.352v1.243h8.999v1.837h-8.999v1.299h9.537
						L95.261,26.171L95.261,26.171z"/>
					<path fill="#FFFFFF" d="M101.235,24.26c2.319-0.027,4.604-0.215,7.016-0.726l0.276,1.911c-2.802,0.594-5.474,0.779-8.201,0.761
						H98.86v-7.772h2.375V24.26z M112.053,30.847c0,2.134-2.245,3.414-5.81,3.414c-3.581,0-5.845-1.28-5.824-3.414
						c-0.021-2.189,2.243-3.472,5.824-3.472C109.808,27.377,112.053,28.657,112.053,30.847z M102.775,30.847
						c0,1.002,1.226,1.54,3.47,1.54c2.229,0,3.414-0.538,3.435-1.54c-0.021-1.06-1.206-1.561-3.435-1.561
						C104,29.288,102.775,29.789,102.775,30.847z M111.979,27.173h-2.356v-9.797h2.356V27.173z"/>
				</g>
			</g>
		</g>
	</g>
	<g id="g-root-tx__hs4xok1wbalmr-fill" transform="translate(26, 218)" display="inline">
		<g id="tx__hs4xok1wbalmr-fill">
			<g>
				<g enable-background="new    ">
					<path fill="#484848" d="M96.989,19.01h-9.333v-1.188h4.009v-2.041h1.446v2.041h3.878V19.01z M96.136,23.073
						c0,1.874-1.56,3.154-3.768,3.154s-3.748-1.28-3.729-3.154c-0.02-1.893,1.521-3.154,3.729-3.154S96.136,21.181,96.136,23.073z
						 M89.994,23.073c0,1.188,0.965,1.985,2.375,1.985c1.409,0,2.375-0.798,2.395-1.985c-0.02-1.188-0.983-1.985-2.395-2.004
						C90.959,21.088,89.994,21.886,89.994,23.073z M101.684,31.924h-11.04v-4.655h1.466V30.7h9.574V31.924z M101.313,28.38h-1.466
						v-3.544H96.99v-1.188h2.857v-2.245H96.99v-1.206h2.857V15.8h1.466V28.38z"/>
					<path fill="#484848" d="M113.688,23.797L113,24.947c-1.901-0.621-3.34-1.939-4.045-3.6c-0.714,1.893-2.235,3.365-4.212,4.082
						l-0.742-1.169c2.469-0.837,4.192-2.971,4.212-5.346V18.21h-3.768v-1.206h8.906v1.206h-3.711v0.705
						C109.644,21.069,111.258,22.999,113.688,23.797z M117.103,29.196c0,1.93-2.041,3.043-5.438,3.043s-5.475-1.113-5.475-3.043
						c0-1.893,2.078-3.006,5.475-3.006S117.103,27.304,117.103,29.196z M107.658,29.196c-0.02,1.188,1.521,1.874,4.008,1.874
						c2.505,0,4.025-0.688,4.025-1.874c0-1.15-1.521-1.837-4.025-1.837C109.18,27.359,107.64,28.046,107.658,29.196z
						 M116.954,19.993h2.485v1.225h-2.485v4.527h-1.447v-9.964h1.447V19.993z"/>
					<path fill="#484848" d="M135.305,22.721l-0.725,1.132c-1.931-0.659-3.471-2.041-4.212-3.822
						c-0.742,1.921-2.292,3.433-4.249,4.138l-0.762-1.148c2.486-0.872,4.249-3.063,4.249-5.492v-1.262h1.483v1.262
						C131.074,19.863,132.855,21.923,135.305,22.721z M138.867,29.122h-9.26v1.781h9.854v1.188h-11.28V27.99h9.239v-1.651h-9.276
						V25.17h10.726L138.867,29.122L138.867,29.122z M138.849,24.335h-1.43v-8.554h1.43V24.335z"/>
					<path fill="#484848" d="M156.698,25.3h-15.028v-1.188h15.028V25.3z M149.889,17.451h5.288v1.169h-5.195
						c0.103,1.874,2.709,3.163,5.826,3.435l-0.481,1.148c-2.719-0.297-5.148-1.299-6.143-2.969c-1.002,1.67-3.434,2.672-6.143,2.969
						l-0.481-1.148c3.1-0.271,5.706-1.561,5.826-3.435h-5.158v-1.169h5.231v-1.707h1.43V17.451L149.889,17.451z M154.843,32.276
						h-1.466v-4.008h-10.038V27.08h11.504V32.276z"/>
					<path fill="#484848" d="M171.468,23.574h-7.736v-6.717h7.736V23.574L171.468,23.574z M177.461,31.089l-0.501,1.134
						c-2.485-0.334-4.75-1.505-5.715-3.043c-1.002,1.566-3.321,2.709-5.809,3.043l-0.521-1.134c2.839-0.313,5.565-1.909,5.565-3.563
						h-4.88v-1.132h4.897V24.78h1.446v1.614h4.937v1.132h-4.897C171.987,29.141,174.622,30.736,177.461,31.089z M165.159,22.424
						h4.88v-4.379h-4.88V22.424z M176.459,25.263h-1.43v-9.481h1.43V25.263z"/>
				</g>
				<g enable-background="new    ">
					<path fill="#484848" d="M102.723,45.888h-6.718v3.377h-1.446v-3.377H87.62v-1.206h15.104L102.723,45.888L102.723,45.888z
						 M101.034,52.382H89.549v-4.75h1.467v3.525h10.021L101.034,52.382L101.034,52.382z M100.756,42.789h-11.17v-5.731h11.17V42.789
						z M91.015,41.62h8.294v-3.414h-8.294V41.62z"/>
					<path fill="#484848" d="M112.464,47.966l-0.892,1.076c-1.623-0.974-2.773-2.755-3.34-4.859c-0.604,2.271-1.8,4.212-3.45,5.251
						l-0.929-1.097c2.301-1.373,3.638-4.379,3.638-7.385v-1.559h-3.174v-1.206h7.606v1.206h-3.023v1.559
						C108.901,43.81,110.182,46.648,112.464,47.966z M114.82,51.881h-1.373v-8.498h-2.782v-1.188h2.782v-5.548h1.373V51.881z
						 M118.16,52.734h-1.393V36.239h1.393V52.734z"/>
					<path fill="#484848" d="M135.416,44.793l-0.742,1.169c-1.92-0.647-3.45-2.004-4.192-3.748
						c-0.725,1.886-2.272,3.368-4.229,4.082l-0.761-1.169c2.468-0.872,4.229-3.006,4.229-5.344v-0.965h-3.859V37.63h9.13v1.188
						h-3.805v0.965C131.186,42.01,132.948,44.014,135.416,44.793z M139.387,52.382h-11.171v-5.177h1.447v3.952h9.724V52.382z
						 M138.867,48.355h-1.447V36.258h1.447V48.355z"/>
					<path fill="#484848" d="M149.796,38.893h-5.899v5.14c3.313,0,5.194-0.083,7.402-0.538l0.187,1.206
						c-2.318,0.445-4.285,0.557-7.756,0.557h-1.279v-7.589h7.348L149.796,38.893L149.796,38.893z M155.325,52.382h-11.077v-5.397
						h1.43v4.175h9.647V52.382z M154.564,41.156h2.505v1.225h-2.505v5.81h-1.446V36.24h1.446V41.156z"/>
				</g>
			</g>
		</g>
	</g>
	<g id="g-root-tx__8whxfo1wbamfh-fill" transform="translate(194, 242)" display="inline">
		<g id="tx__8whxfo1wbamfh-fill">
			<g>
				<g enable-background="new    ">
					<path fill="#484848" d="M70.993,19.68h-6.013v3.857c3.063,0,5.194-0.102,7.7-0.575l0.147,1.206
						c-2.599,0.482-4.807,0.596-7.979,0.612h-1.317v-6.309h6.013v-3.488h-6.049v-1.206h7.496L70.993,19.68L70.993,19.68z
						 M75.613,18.808h2.766v1.225h-2.766v8.739h-1.446V12.239h1.446V18.808z"/>
					<path fill="#484848" d="M88.305,17.453c0,2.412-1.854,4.063-4.323,4.063c-2.468,0-4.322-1.651-4.322-4.063
						c0-2.375,1.854-4.045,4.322-4.045C86.45,13.408,88.305,15.078,88.305,17.453z M81.087,17.453
						c-0.02,1.651,1.226,2.783,2.896,2.783c1.634,0,2.896-1.132,2.896-2.783c0-1.614-1.262-2.765-2.896-2.765
						C82.312,14.688,81.068,15.839,81.087,17.453z M93.406,28.382h-11.17v-5.286h1.447v4.063h9.723V28.382z M92.888,24.318H91.44
						V12.258h1.447L92.888,24.318L92.888,24.318z"/>
					<path fill="#484848" d="M110.181,19.271l-0.779,1.132c-1.827-0.649-3.283-1.948-4.008-3.618
						c-0.705,1.883-2.199,3.321-4.156,4.026l-0.798-1.169c2.485-0.816,4.192-2.896,4.212-5.309v-1.559h1.43v1.559
						C106.062,16.507,107.769,18.474,110.181,19.271z M114.133,25.543h-9.222v1.8h9.834v1.171h-11.264V24.43h9.203v-1.651h-9.24
						V21.61h10.688V25.543z M114.133,20.774h-1.466v-4.286h-3.674v-1.206h3.674v-3.043h1.466V20.774z"/>
					<path fill="#484848" d="M127.659,27.899h-1.393v-5.715h-3.063v-1.206h3.063v-2.934h-2.783
						c-0.807,2.793-2.615,5.262-5.732,7.125l-0.892-1.058c3.591-2.124,5.391-5.104,5.679-8.554h-4.937v-1.206h6.383
						c0,0.845-0.073,1.679-0.223,2.484h2.505v-4.154h1.393V27.899z M130.999,28.734h-1.393V12.239h1.393V28.734z"/>
					<path fill="#484848" d="M146.678,20.032h-7.737v-6.717h7.737V20.032z M152.671,27.547l-0.501,1.134
						c-2.485-0.334-4.75-1.505-5.715-3.043c-1.002,1.565-3.321,2.709-5.809,3.043l-0.521-1.134c2.839-0.313,5.565-1.909,5.565-3.563
						h-4.88v-1.132h4.897v-1.614h1.446v1.614h4.938v1.132h-4.898C147.197,25.599,149.832,27.194,152.671,27.547z M140.369,18.882
						h4.88v-4.379h-4.88V18.882z M151.669,21.721h-1.43V12.24h1.43V21.721z"/>
				</g>
				<g enable-background="new    ">
					<path fill="#484848" d="M72.478,40.715l-0.688,1.15c-1.901-0.621-3.34-1.939-4.045-3.6c-0.715,1.893-2.235,3.365-4.212,4.082
						l-0.742-1.169c2.469-0.835,4.192-2.971,4.212-5.346V35.13h-3.768v-1.206h8.906v1.206h-3.711v0.705
						C68.433,37.987,70.047,39.917,72.478,40.715z M75.892,46.114c0,1.93-2.041,3.043-5.438,3.043s-5.475-1.113-5.475-3.043
						c0-1.893,2.078-3.006,5.475-3.006S75.892,44.222,75.892,46.114z M66.447,46.114c-0.019,1.188,1.521,1.874,4.009,1.874
						c2.505,0,4.025-0.688,4.025-1.874c0-1.15-1.521-1.837-4.025-1.837C67.969,44.277,66.429,44.964,66.447,46.114z M75.743,36.911
						h2.485v1.227h-2.485v4.525h-1.447v-9.964h1.447V36.911z"/>
					<path fill="#484848" d="M81.681,38.47h4.917v-4.36h1.429v11.133h-7.793V34.109h1.447V38.47z M86.598,44.018v-4.379h-4.917
						v4.379H86.598z M92.869,49.231h-1.467V32.699h1.467V49.231z"/>
					<path fill="#484848" d="M110.181,41.16l-0.816,1.132c-1.809-0.724-3.246-2.161-3.951-3.952
						c-0.705,1.994-2.208,3.581-4.156,4.36l-0.778-1.188c2.468-0.909,4.175-3.21,4.192-5.752v-2.04h1.43v2.097
						C106.099,38.117,107.769,40.288,110.181,41.16z M114.504,48.842h-11.04v-5.177h1.467v3.952h9.573V48.842z M114.133,45.075
						h-1.466V37.82h-3.674v-1.225h3.674v-3.88h1.466V45.075z"/>
					<path fill="#484848" d="M126.676,40.752l-0.761,1.169c-1.854-0.668-3.293-2.05-3.989-3.767
						c-0.724,1.938-2.254,3.488-4.212,4.229l-0.761-1.169c2.448-0.891,4.192-3.115,4.192-5.474v-0.61h-3.729v-1.225h8.889v1.225
						h-3.692v0.596C122.612,37.876,124.264,39.917,126.676,40.752z M130.609,46.114c0,1.948-2.097,3.062-5.528,3.08
						c-3.434-0.021-5.529-1.132-5.529-3.08s2.098-3.062,5.529-3.062S130.609,44.166,130.609,46.114z M120.998,46.114
						c-0.02,1.188,1.56,1.911,4.082,1.911s4.082-0.726,4.082-1.911c0-1.206-1.56-1.93-4.082-1.93
						C122.557,44.184,120.979,44.908,120.998,46.114z M130.554,42.533h-1.467V38.21h-3.32v-1.206h3.32v-4.305h1.467V42.533z"/>
				</g>
			</g>
		</g>
	</g>
	<g id="g-root-tx__1lr4xvo1wbam82-fill" transform="translate(716, 230)" display="inline">
		<g id="tx__1lr4xvo1wbam82-fill">
			<g>
				<g enable-background="new    ">
					<path fill="#FFFFFF" d="M-1.395,25.041l-1.429,1.895c-1.812-0.893-3.024-2.563-3.729-4.604c-0.73,2.189-2.041,3.98-3.952,4.917
						l-1.466-1.911c2.857-1.315,4.212-4.546,4.212-7.682v-2.523h2.375v2.523C-5.402,20.681-4.104,23.742-1.395,25.041z
						 M1.723,20.347h2.484v2.004H1.723v8.368h-2.375V13.834h2.375V20.347z"/>
					<path fill="#FFFFFF" d="M20.222,23.724h-15.4V21.83h3.472v-2.021c-1.234-0.547-1.932-1.385-1.932-2.47
						c0-2.041,2.396-3.266,6.16-3.266c3.729,0,6.123,1.225,6.142,3.266c-0.009,1.097-0.731,1.948-1.983,2.486v2.004h3.544
						L20.222,23.724L20.222,23.724z M18.385,27.639c-0.021,1.983-2.229,3.062-5.882,3.062c-3.712,0-5.921-1.076-5.921-3.062
						c0-1.948,2.209-3.024,5.921-3.024C16.157,24.614,18.365,25.69,18.385,27.639z M8.828,17.341
						c-0.019,0.93,1.301,1.394,3.692,1.394c2.356,0,3.692-0.464,3.692-1.394c0-0.944-1.336-1.445-3.692-1.445
						C10.129,15.894,8.811,16.395,8.828,17.341z M8.995,27.639c-0.019,0.872,1.169,1.299,3.509,1.299
						c2.28,0,3.486-0.427,3.507-1.299c-0.021-0.835-1.227-1.243-3.507-1.243C10.164,26.396,8.978,26.804,8.995,27.639z
						 M14.321,21.831v-1.41c-0.557,0.065-1.159,0.095-1.8,0.095c-0.658,0-1.271-0.027-1.837-0.111v1.429L14.321,21.831
						L14.321,21.831z"/>
					<path fill="#FFFFFF" d="M31.614,25.264l-1.315,1.854c-1.885-0.863-3.229-2.588-3.973-4.62
						c-0.761,2.235-2.143,4.128-4.101,5.047l-1.373-1.874c2.82-1.315,4.229-4.451,4.249-7.234v-1.039H21.52v-1.932h9.352v1.932
						h-3.396v1.039C27.459,21.015,28.83,23.983,31.614,25.264z M34.564,20.272h2.486v1.983h-2.486v8.461h-2.375V13.834h2.375V20.272
						z"/>
					<path fill="#FFFFFF" d="M57.442,28.659H42.043v-1.93h3.282v-5.309h2.356v5.309h1.854v-5.309h2.338v5.309h5.566L57.442,28.659
						L57.442,28.659z M56.052,16.951c-0.021,2.062-0.021,4.379-0.631,7.774l-2.319-0.204c0.557-3.09,0.575-5.393,0.575-7.35H43.563
						V15.3H56.05L56.052,16.951L56.052,16.951z"/>
					<path fill="#FFFFFF" d="M73.863,23.594h-3.711v1.575h1.837v5.55h-2.354v-3.692h-9.463v-1.855h1.93v-1.575h-3.637V21.72h15.398
						V23.594z M72.305,17.489c-0.021,2.06-2.432,3.34-6.144,3.34c-3.729,0-6.158-1.28-6.158-3.34s2.431-3.34,6.158-3.321
						C69.875,14.149,72.285,15.43,72.305,17.489z M62.471,17.489c-0.021,1.002,1.336,1.503,3.69,1.503
						c2.339,0,3.692-0.501,3.692-1.503c0-0.965-1.354-1.484-3.692-1.484C63.807,16.005,62.451,16.524,62.471,17.489z M67.814,25.171
						v-1.575h-3.321v1.575H67.814z"/>
				</g>
			</g>
		</g>
	</g>
	<g id="g-root-tx__18gawlg1wbakn8-fill" transform="translate(878, 254)" display="inline">
		<g id="tx__18gawlg1wbakn8-fill">
			<g>
				<g enable-background="new    ">
					<path fill="#FFFFFF" d="M-22.796,21.593h-3.616v5.587h-2.412v-5.585h-3.451v5.585h-2.432v-5.585h-3.543v-1.911h15.454V21.593z
						 M-24.408,14.672c0,2.282-2.542,3.711-6.16,3.711s-6.144-1.429-6.123-3.711c-0.021-2.317,2.505-3.82,6.123-3.82
						S-24.408,12.353-24.408,14.672z M-34.262,14.672c-0.019,1.188,1.431,1.855,3.692,1.855c2.282,0,3.711-0.668,3.711-1.855
						c0-1.241-1.429-1.93-3.711-1.93C-32.832,12.742-34.28,13.429-34.262,14.672z"/>
					<path fill="#FFFFFF" d="M-11.031,21.723l-1.28,1.854c-1.995-0.844-3.368-2.521-4.119-4.583
						c-0.771,2.235-2.171,4.091-4.156,5.01l-1.354-1.874c2.802-1.241,4.249-4.379,4.249-7.234v-1.039h-3.581v-1.932h9.537v1.932
						h-3.525v1.039C-15.262,17.622-13.869,20.535-11.031,21.723z M-7.674,27.178h-2.394V10.293h2.394V27.178z"/>
					<path fill="#FFFFFF" d="M10.065,25.211H-5.391v-1.93h6.513v-3.117h-4.88v-8.795h2.375v2.616h7.366v-2.616H8.34v8.795H3.479
						v3.117h6.587L10.065,25.211L10.065,25.211z M5.983,18.271v-2.396h-7.366v2.396H5.983z"/>
					<path fill="#FFFFFF" d="M26.431,21.407h-6.568v5.771h-2.338v-5.771H11.03v-1.93h15.4L26.431,21.407L26.431,21.407z
						 M25.893,16.286l-0.928,1.911c-2.95-0.427-5.111-1.791-6.217-3.618c-1.112,1.827-3.258,3.191-6.18,3.618l-0.945-1.911
						c3.842-0.48,5.883-2.688,5.883-4.676v-0.816h2.484v0.816C19.991,13.596,22.015,15.804,25.893,16.286z"/>
					<path fill="#FFFFFF" d="M42.61,21.723l-1.28,1.854c-1.992-0.844-3.365-2.521-4.117-4.583c-0.771,2.235-2.173,4.091-4.156,5.01
						l-1.356-1.873c2.804-1.241,4.249-4.379,4.249-7.234v-1.039h-3.581v-1.932h9.537v1.932h-3.523v1.039
						C38.381,17.622,39.771,20.535,42.61,21.723z M45.969,27.178h-2.396V10.293h2.396V27.178z"/>
					<path fill="#FFFFFF" d="M62.928,26.881h-12.58v-5.047h2.354v-2.245c-1.513,0.065-2.948,0.074-4.229,0.074l-0.278-1.874
						c3.101-0.019,7.273-0.056,10.836-0.501l0.13,1.688c-1.336,0.223-2.718,0.381-4.082,0.48v3.21h-2.375v2.319H62.93L62.928,26.881
						L62.928,26.881z M57.899,13.911c0,1.8-1.763,2.969-4.212,2.969c-2.505,0-4.249-1.169-4.249-2.969s1.726-3.043,4.249-3.022
						C56.137,10.868,57.899,12.111,57.899,13.911z M51.684,13.911c-0.021,0.816,0.798,1.262,2.004,1.262
						c1.132,0,1.948-0.443,1.967-1.262c-0.019-0.835-0.835-1.299-1.967-1.299C52.481,12.612,51.664,13.076,51.684,13.911z
						 M62.557,23.059h-2.375v-1.336h-3.229v-1.614h3.229v-9.797h2.375V23.059z"/>
				</g>
			</g>
		</g>
	</g>
	<g id="g-root-tx__1q6yg041wbalft-fill" transform="translate(530, 290)" display="inline">
		<g id="tx__1q6yg041wbalft-fill">
			<g>
				<g enable-background="new    ">
					<path fill="#484848" d="M23.065,13.212l-0.761,1.169c-1.855-0.668-3.293-2.053-3.989-3.769
						c-0.724,1.938-2.254,3.488-4.212,4.23l-0.761-1.169c2.447-0.893,4.191-3.117,4.191-5.476V7.589h-3.729V6.363h8.888v1.226h-3.69
						v0.595C19.003,10.334,20.653,12.375,23.065,13.212z M27,18.572c0,1.948-2.099,3.063-5.529,3.08
						c-3.435-0.019-5.529-1.132-5.529-3.08s2.097-3.062,5.529-3.062C24.902,15.51,27,16.624,27,18.572z M17.388,18.572
						c-0.021,1.188,1.559,1.911,4.082,1.911c2.521,0,4.082-0.724,4.082-1.911c0-1.206-1.561-1.93-4.082-1.93
						C18.947,16.642,17.368,17.366,17.388,18.572z M26.943,14.991h-1.466V10.67h-3.321V9.464h3.321V5.157h1.466V14.991z"/>
					<path fill="#484848" d="M38.3,12.802h-7.737V6.085H38.3V12.802z M31.99,11.651h4.88V7.272h-4.88V11.651z M43.289,18.426h-9.238
						v1.854h9.834v1.188H32.603v-4.119h9.259V15.66h-9.275v-1.17h10.703V18.426z M43.289,13.676h-1.429V5.157h1.429V13.676z"/>
					<path fill="#484848" d="M57.671,8.349h-4.75v3.266h3.987v1.169h-3.987v3.711c2.363-0.025,3.813-0.109,5.604-0.443l0.13,1.188
						c-1.911,0.392-3.47,0.427-6.086,0.445H51.53V7.18h6.144L57.671,8.349L57.671,8.349z M61.621,20.801H60.23v-8.164H57.8V11.43
						h2.431V5.565h1.392L61.621,20.801L61.621,20.801z M65,21.652h-1.41V5.157H65V21.652z"/>
					<path fill="#484848" d="M82.403,19.407H67.301v-1.206h15.104L82.403,19.407L82.403,19.407z M81.625,13.47l-0.67,1.225
						c-2.484-0.575-5.11-2.347-6.179-4.787c-1.064,2.433-3.684,4.202-6.179,4.787L67.93,13.47c2.855-0.559,6.065-3.043,6.065-5.883
						V6.326h1.521v1.263C75.52,10.408,78.747,12.932,81.625,13.47z"/>
					<path fill="#484848" d="M98.823,19.5H83.721v-1.204h15.104L98.823,19.5L98.823,19.5z M97.079,15.27H85.67V6.586h11.226v1.227
						h-9.741v2.449h9.39v1.169h-9.39v2.651h9.928L97.079,15.27L97.079,15.27z"/>
				</g>
				<g enable-background="new    ">
					<path fill="#484848" d="M21.879,33.409h-7.737v-6.717h7.737V33.409z M27.87,40.926l-0.501,1.132
						c-2.484-0.334-4.75-1.503-5.715-3.043c-1.002,1.565-3.32,2.709-5.808,3.043l-0.521-1.132c2.839-0.315,5.566-1.911,5.566-3.563
						h-4.88V36.23h4.896v-1.614h1.447v1.614h4.938v1.132h-4.898C22.397,38.976,25.031,40.571,27.87,40.926z M15.569,32.26h4.88
						v-4.379h-4.88V32.26L15.569,32.26z M26.868,35.098H25.44v-9.481h1.429V35.098z"/>
					<path fill="#484848" d="M40.712,37.344c1.586-0.065,3.21-0.204,4.729-0.429l0.111,1.076c-3.769,0.688-7.83,0.705-10.799,0.705
						l-0.204-1.206c1.383-0.009,3.016-0.019,4.729-0.072v-3.101h1.431L40.712,37.344L40.712,37.344z M44.59,28.993h-3.878
						c0.035,2.136,1.809,3.868,4.249,4.564l-0.688,1.148c-1.985-0.594-3.535-1.862-4.268-3.544
						c-0.726,1.771-2.266,3.092-4.249,3.692l-0.705-1.113c2.438-0.714,4.154-2.521,4.191-4.75H35.46v-1.206h3.82v-2.041h1.431v2.041
						h3.878L44.59,28.993L44.59,28.993z M47.984,42.148h-1.447V25.616h1.447V42.148z"/>
					<path fill="#484848" d="M60.677,33.688l-0.763,1.15c-1.862-0.668-3.303-2.053-4.008-3.748c-0.714,1.9-2.233,3.424-4.191,4.138
						l-0.763-1.15c2.433-0.872,4.193-3.08,4.193-5.397v-0.726h-3.729v-1.188h8.889v1.188h-3.692v0.705
						C56.612,30.812,58.264,32.853,60.677,33.688z M64.554,42.111h-1.466v-4.527h-9.631V36.38h11.097V42.111z M64.554,35.508h-1.466
						v-4.344h-3.305v-1.225h3.305v-4.323h1.466V35.508z"/>
					<path fill="#484848" d="M71.642,37.658v-1.837c-1.921-0.214-3.173-1.336-3.154-2.969c-0.019-1.855,1.561-3.063,3.896-3.063
						c2.301,0,3.896,1.206,3.915,3.063c-0.021,1.633-1.289,2.755-3.191,2.987v1.763c1.54-0.074,3.09-0.194,4.527-0.408l0.093,1.113
						c-3.6,0.612-7.496,0.647-10.391,0.647l-0.241-1.241C68.441,37.716,70.01,37.716,71.642,37.658z M77.339,28.826h-9.945v-1.188
						h4.249v-1.985h1.466v1.985h4.23V28.826z M69.843,32.853c0,1.15,1.021,1.893,2.542,1.874c1.503,0.019,2.521-0.724,2.521-1.874
						s-1.021-1.93-2.521-1.93C70.862,30.925,69.843,31.702,69.843,32.853z M80.103,32.648h2.635v1.225h-2.635v8.238h-1.466V25.616
						h1.466V32.648z"/>
				</g>
			</g>
		</g>
	</g>
	<g id="g-root-tx__1cvhxms1wban0r-fill" transform="translate(698, 314)" display="inline">
		<g id="tx__1cvhxms1wban0r-fill">
			<g>
				<g enable-background="new    ">
					<path fill="#484848" d="M-1.872,9.725l-0.742,1.132c-1.883-0.668-3.321-2.021-4.026-3.729c-0.705,1.874-2.218,3.33-4.156,4.045
						l-0.777-1.134c2.468-0.87,4.191-3.006,4.212-5.36V3.973h-3.769V2.785h8.906v1.188h-3.711v0.705
						C-5.937,6.867-4.322,8.871-1.872,9.725z M1.375,18.111h-1.447v-4.49h-9.354v-1.188H1.375V18.111z M1.375,5.977H3.86V7.22H1.375
						v4.342h-1.447V1.616h1.447V5.977z"/>
					<path fill="#484848" d="M13.656,5.568h3.451V1.616h1.466v8.853h-1.466V6.774h-3.433c-0.297,1.948-1.994,3.247-4.23,3.247
						c-2.505,0-4.286-1.559-4.286-3.822c0-2.245,1.781-3.82,4.286-3.804C11.661,2.379,13.343,3.666,13.656,5.568z M6.552,6.199
						c0,1.503,1.206,2.6,2.895,2.6c1.67,0,2.857-1.097,2.857-2.6c0-1.521-1.188-2.579-2.857-2.561
						C7.758,3.62,6.552,4.678,6.552,6.199z M9.407,13.398h7.7v-2.097h1.466v6.587H7.942v-6.587h1.466V13.398z M17.108,16.701v-2.134
						h-7.7v2.134H17.108z"/>
					<path fill="#484848" d="M31.191,13.382l-0.835,1.148c-1.854-0.897-3.423-2.866-4.156-5.103
						c-0.761,2.431-2.421,4.563-4.268,5.511l-0.893-1.15c2.375-1.148,4.416-4.284,4.437-7.104V4.529h-3.841V3.323h8.979v1.206
						h-3.711v2.152C26.887,9.337,28.799,12.248,31.191,13.382z M34.087,8.298h2.765v1.241h-2.765v8.572H32.64V1.616h1.447V8.298z"/>
					<path fill="#484848" d="M51.118,9.409h-7.735V2.692h7.735V9.409z M57.112,16.926l-0.501,1.132
						c-2.485-0.334-4.75-1.503-5.715-3.043c-1.002,1.565-3.321,2.709-5.808,3.043l-0.521-1.132c2.839-0.315,5.566-1.911,5.566-3.563
						h-4.88V12.23h4.896v-1.614h1.447v1.614h4.936v1.132h-4.896C51.639,14.976,54.273,16.571,57.112,16.926z M44.811,8.26h4.88
						V3.882h-4.88V8.26z M56.11,11.098h-1.429V1.616h1.429V11.098z"/>
				</g>
				<g enable-background="new    ">
					<path fill="#484848" d="M-6.622,30.554c1.826-0.074,3.721-0.204,5.437-0.445l0.093,1.076
						c-3.451,0.594-7.438,0.668-10.372,0.668l-0.146-1.206c1.065-0.01,2.271-0.019,3.544-0.056V27.01h1.447L-6.622,30.554
						L-6.622,30.554z M-2.373,24.227c-0.021,1.076-0.021,2.728-0.429,4.88l-1.466-0.111c0.399-1.976,0.438-3.377,0.464-4.416h-6.791
						v-1.225h8.222V24.227z M1.948,38.219H-9.072v-4.845h1.466v3.618h9.556L1.948,38.219L1.948,38.219z M1.41,27.455h2.412v1.243
						H1.41v5.789h-1.482V22.074H1.41V27.455z"/>
					<path fill="#484848" d="M13.51,29.478H7.35v3.896c2.737,0,5.177-0.118,8.127-0.594l0.148,1.227
						c-3.045,0.48-5.55,0.594-8.389,0.594H5.864V28.29h6.18v-3.47H5.826v-1.206h7.684V29.478z M18.519,38.606h-1.447V22.074h1.447
						V38.606z"/>
					<path fill="#484848" d="M31.191,33.84l-0.835,1.148c-1.854-0.898-3.423-2.867-4.156-5.103
						c-0.761,2.431-2.421,4.563-4.268,5.511l-0.893-1.15c2.375-1.148,4.416-4.284,4.437-7.104v-2.152h-3.841v-1.206h8.979v1.206
						h-3.711v2.152C26.887,29.795,28.799,32.706,31.191,33.84z M34.087,28.756h2.765v1.241h-2.765v8.572H32.64V22.074h1.447V28.756z
						"/>
					<path fill="#484848" d="M57.538,36.231H42.51v-1.206h3.729v-5.437h1.447v5.437h2.672v-5.437h1.429v5.437h5.752V36.231z
						 M55.759,25.581c0,2.115,0,4.249-0.596,7.313l-1.429-0.167c0.594-2.913,0.594-5.084,0.594-7.146V24.95h-10.24v-1.206h11.671
						V25.581L55.759,25.581z"/>
					<path fill="#484848" d="M73.961,31.222h-4.01v2.097h2.152v5.251h-1.466v-4.082H60.601v-1.169h2.319v-2.097h-3.989v-1.188H73.96
						L73.961,31.222L73.961,31.222z M72.271,25.618c0,1.985-2.245,3.173-5.826,3.154c-3.581,0.019-5.845-1.169-5.845-3.154
						c0-1.967,2.264-3.152,5.845-3.136C70.026,22.466,72.271,23.651,72.271,25.618z M62.104,25.618
						c-0.019,1.264,1.67,2.022,4.342,2.022c2.635,0,4.342-0.761,4.342-2.022c0-1.225-1.707-1.983-4.342-1.967
						C63.773,23.635,62.086,24.394,62.104,25.618z M68.523,33.318v-2.097h-4.138v2.097H68.523z"/>
				</g>
			</g>
		</g>
	</g>
	<g id="g-root-tx__zknwck1wbalfx-fill" transform="translate(866, 338)" display="inline">
		<g id="tx__zknwck1wbalfx-fill">
			<g>
				<g enable-background="new    ">
					<path fill="#484848" d="M-25.66,5.257l0.093,1.058c-1.476,0.232-3.017,0.381-4.527,0.464v3.268h-1.466V6.851
						c-1.67,0.074-3.257,0.083-4.639,0.074l-0.204-1.188C-33.323,5.719-29.204,5.7-25.66,5.257z M-26.904,1.637
						c-0.021,1.763-1.67,2.855-4.082,2.855c-2.432,0-4.082-1.095-4.082-2.855c0-1.728,1.65-2.876,4.082-2.876
						C-28.573-1.239-26.924-0.089-26.904,1.637z M-22.303,14.219H-34.03V9.393h1.466v3.6h10.261V14.219z M-33.677,1.637
						c-0.019,1.076,1.076,1.781,2.69,1.781c1.559,0,2.672-0.705,2.688-1.781c-0.019-1.06-1.132-1.781-2.688-1.765
						C-32.601-0.145-33.695,0.579-33.677,1.637z M-22.712,10.617h-1.466V8.91h-3.414V7.853h3.414v-9.76h1.466V10.617z"/>
					<path fill="#484848" d="M-11.393,1.045h3.711v-2.95h1.466v9.834h-1.466v-2.19h-4.379V4.531h4.379V2.249h-4.101
						c-1.122,2.6-3.702,4.474-7.273,5.455l-0.575-1.169c4.026-1.111,6.578-3.33,6.886-6.142h-6.051v-1.188h7.607
						C-11.188-0.154-11.263,0.461-11.393,1.045z M-6.217,14.552h-1.466V9.819h-9.63V8.65h11.096V14.552z"/>
					<path fill="#484848" d="M11.672,9.84l-0.816,1.148c-1.93-0.881-3.6-2.783-4.36-5.063c-0.777,2.421-2.438,4.525-4.321,5.474
						l-0.872-1.15c2.354-1.133,4.415-4.25,4.433-7.105V0.987H1.838v-1.206h9.296v1.206H7.198V3.14
						C7.198,5.941,9.24,8.78,11.672,9.84z M14.899,14.569h-1.466V-1.926h1.466V14.569z"/>
					<path fill="#484848" d="M28.369,5.257l0.095,1.058c-1.477,0.232-3.018,0.381-4.527,0.464v3.268H22.47V6.851
						c-1.67,0.074-3.257,0.083-4.641,0.074l-0.202-1.188C20.707,5.719,24.825,5.7,28.369,5.257z M27.128,1.637
						c-0.021,1.763-1.671,2.855-4.082,2.855c-2.433,0-4.082-1.095-4.082-2.855c0-1.728,1.649-2.876,4.082-2.876
						C25.457-1.239,27.108-0.089,27.128,1.637z M31.729,14.219H20.003V9.393h1.466v3.6H31.73L31.729,14.219L31.729,14.219z
						 M20.354,1.637c-0.019,1.076,1.076,1.781,2.69,1.781c1.559,0,2.672-0.705,2.688-1.781c-0.019-1.06-1.132-1.781-2.688-1.765
						C21.431-0.145,20.337,0.579,20.354,1.637z M31.32,10.617h-1.466V8.91H26.44V7.853h3.414v-9.76h1.466V10.617z"/>
					<path fill="#484848" d="M43.437,8.558h-3.581V7.055h3.581V3.474h1.503v3.581h3.6v1.503h-3.6v3.6h-1.503V8.558z"/>
				</g>
				<g enable-background="new    ">
					<path fill="#484848" d="M-26.515,26.587l-0.761,1.169c-1.855-0.668-3.293-2.053-3.989-3.769
						c-0.724,1.938-2.255,3.488-4.212,4.23l-0.761-1.169c2.449-0.893,4.191-3.117,4.191-5.476v-0.61h-3.729v-1.227h8.888v1.227
						h-3.69v0.594C-30.577,23.711-28.927,25.75-26.515,26.587z M-22.58,31.947c0,1.948-2.099,3.063-5.529,3.08
						c-3.434-0.019-5.529-1.132-5.529-3.08s2.099-3.062,5.529-3.062S-22.58,29.999-22.58,31.947z M-32.192,31.947
						c-0.021,1.188,1.559,1.911,4.082,1.911c2.521,0,4.082-0.724,4.082-1.911c0-1.206-1.561-1.93-4.082-1.93
						C-30.634,30.017-32.212,30.741-32.192,31.947z M-22.637,28.366h-1.466v-4.321h-3.321v-1.206h3.321v-4.307h1.466V28.366z"/>
					<path fill="#484848" d="M-18.889,31.929l-0.798-1.188c4.462-2.113,6.735-5.276,7.069-9.222h-6.311v-1.188h7.793
						C-11.151,25.082-13.359,29.275-18.889,31.929z M-6.254,35.027h-1.466V18.532h1.466V35.027z"/>
					<path fill="#484848" d="M11.096,26.511l-0.761,1.148c-1.864-0.668-3.305-2.06-4.01-3.767c-0.714,1.902-2.233,3.424-4.191,4.138
						l-0.763-1.148c2.433-0.872,4.193-3.063,4.193-5.418v-0.649H1.838v-1.206h8.888v1.206H7.031v0.649
						C7.031,23.598,8.684,25.657,11.096,26.511z M14.974,34.805H4.193v-5.789h10.78L14.974,34.805L14.974,34.805z M5.641,33.617
						h7.904v-3.433H5.641V33.617z M14.974,28.199h-1.466v-4.305h-3.34v-1.224h3.34v-4.14h1.466V28.199z"/>
					<path fill="#484848" d="M18.518,28.069l-0.612-1.148c3.942-1.113,6.457-3.305,6.772-6.104H18.76V19.61h7.478
						C26.219,23.746,23.268,26.717,18.518,28.069z M31.395,34.805H20.688v-6.144h10.706L31.395,34.805L31.395,34.805z
						 M22.099,33.617h7.849v-3.785h-7.849V33.617z M31.395,27.959h-1.466v-3.935h-3.655v-1.224h3.655v-4.249h1.466V27.959z"/>
					<path fill="#484848" d="M49.689,34.192h-1.392v-5.715h-3.063v-1.206h3.063v-2.931h-2.783c-0.81,2.793-2.616,5.26-5.733,7.125
						l-0.891-1.06c3.59-2.124,5.391-5.103,5.678-8.554h-4.936v-1.206h6.383c0,0.845-0.074,1.679-0.224,2.486h2.506v-4.156h1.392
						V34.192z M53.029,35.027h-1.392V18.532h1.392V35.027z"/>
					<path fill="#484848" d="M64.311,23.412c-0.02,2.319-1.837,3.915-4.342,3.915s-4.342-1.596-4.323-3.915
						c-0.019-2.28,1.818-3.896,4.323-3.878C62.474,19.516,64.293,21.132,64.311,23.412z M57.073,23.412
						c-0.019,1.577,1.227,2.674,2.896,2.653c1.688,0.021,2.913-1.076,2.913-2.653c0-1.559-1.227-2.635-2.913-2.635
						C58.3,20.777,57.056,21.854,57.073,23.412z M68.226,35.027h-1.447v-4.713h-9.352v-1.206h10.799V35.027z M70.676,22.28h-2.449
						v2.32h2.449v1.243h-2.449v2.505H66.78v-9.815h1.447v2.563h2.449V22.28z"/>
				</g>
			</g>
		</g>
	</g>
	<g id="g-root-sy_1_cu_958kn81wb95or-stroke" transform="translate(14, 98)" display="inline">
		<g id="sy_1_cu_958kn81wb95or-stroke">
			<g>
				<path fill="none" stroke="#FFFFFF" d="M87.036,110.947V29.113h184.127l-40.917,20.458v61.376H87.036z"/>
			</g>
		</g>
	</g>
	<g id="g-root-sy_2_cu_1uuw4901wb972k-stroke" transform="translate(182.00009155273438, 98)" display="inline">
		<g id="sy_2_cu_1uuw4901wb972k-stroke">
			<g>
				<path fill="none" stroke="#FFFFFF" d="M62.246,131.406V49.571h184.128L205.456,70.03v61.376H62.246z M103.163,29.113v20.458
					H62.246L103.163,29.113z"/>
			</g>
		</g>
	</g>
	<g id="g-root-sy_3_cu_1uuw4901wb972l-stroke" transform="translate(350.0000915527344, 122)" display="inline">
		<g id="sy_3_cu_1uuw4901wb972l-stroke">
			<g>
				<path fill="none" stroke="#FFFFFF" d="M37.456,127.865V46.03h184.128l-40.917,20.458v61.376L37.456,127.865L37.456,127.865z
					 M78.374,25.571V46.03H37.456L78.374,25.571z"/>
			</g>
		</g>
	</g>
	<g id="g-root-sy_4_cu_1qf2m4k1wb97uu-stroke" transform="translate(518.0001220703125, 146)" display="inline">
		<g id="sy_4_cu_1qf2m4k1wb97uu-stroke">
			<g>
				<path fill="none" stroke="#FFFFFF" d="M12.667,42.489v81.834h143.21V62.947l40.917-20.458H12.667z M53.584,22.03v20.458H12.667
					L53.584,22.03z"/>
			</g>
		</g>
	</g>
	<g id="g-root-sy_5_cu_1hjflvo1wb98nj-stroke" transform="translate(686, 170)" display="inline">
		<g id="sy_5_cu_1hjflvo1wb98nj-stroke">
			<g>
				<path fill="none" stroke="#FFFFFF" d="M-12.122,120.782V38.947h184.127l-40.918,20.459v61.376H-12.122z M28.795,18.489v20.458
					h-40.917L28.795,18.489z"/>
			</g>
		</g>
	</g>
	<g id="g-root-sy_6_cu_1lz94041wb98n4-stroke" transform="translate(854, 194)" display="inline">
		<g id="sy_6_cu_1lz94041wb98n4-stroke">
			<g>
				<path fill="none" stroke="#FFFFFF" d="M-36.913,117.241V35.406h132.98V25.177l40.916,51.146l-40.916,51.999v-11.081H-36.913z
					 M4.005,14.947v20.459h-40.918L4.005,14.947z"/>
			</g>
		</g>
	</g>
	<g id="g-root-tx__1cu8zgk1wbakuh-stroke" transform="translate(380, 26)" display="inline">
	</g>
	<g id="g-root-tx__m7yft01wbakui-stroke" transform="translate(56, 134)" display="inline">
	</g>
	<g id="g-root-tx__8whxfo1wbamfg-stroke" transform="translate(212, 158)" display="inline">
	</g>
	<g id="g-root-tx__4gofb81wban7q-stroke" transform="translate(380, 182)" display="inline">
	</g>
	<g id="g-root-tx__1q6yg041wbalfs-stroke" transform="translate(542, 206)" display="inline">
	</g>
	<g id="g-root-tx__hs4xok1wbalmr-stroke" transform="translate(26, 218)" display="inline">
	</g>
	<g id="g-root-tx__8whxfo1wbamfh-stroke" transform="translate(194, 242)" display="inline">
	</g>
	<g id="g-root-tx__1lr4xvo1wbam82-stroke" transform="translate(716, 230)" display="inline">
	</g>
	<g id="g-root-tx__1umry4k1wbaknj-stroke" transform="translate(362, 266)" display="inline">
	</g>
	<g id="g-root-tx__18gawlg1wbakn8-stroke" transform="translate(878, 254)" display="inline">
	</g>
	<g id="g-root-tx__1q6yg041wbalft-stroke" transform="translate(530, 290)" display="inline">
	</g>
	<g id="g-root-tx__1cvhxms1wban0r-stroke" transform="translate(698, 314)" display="inline">
	</g>
	<g id="g-root-tx__zknwck1wbalfx-stroke" transform="translate(866, 338)" display="inline">
	</g>
	<g id="g-root-tx__1cu8zgk1wbakuh-fill_1_" transform="translate(380, 26)" display="inline">
		<g id="tx__1cu8zgk1wbakuh-fill_1_">
			<g>
				<g enable-background="new    ">
					<path fill="#484848" d="M-192.101,87.552h-3.244V75.068h-0.086l-3.565,2.234v-2.857l3.847-2.449h3.051L-192.101,87.552
						L-192.101,87.552z"/>
				</g>
			</g>
		</g>
	</g>
	<g display="inline" enable-background="new    ">
		<path fill="#484848" d="M338.024,129.621l5.586-5.135c1.461-1.396,2.234-2.256,2.234-3.48c0-1.375-1.054-2.232-2.472-2.232
			c-1.461,0-2.406,0.924-2.406,2.406h-3.071c-0.021-3.053,2.233-4.984,5.521-4.984c3.33,0,5.543,1.891,5.543,4.598
			c0,1.764-0.858,3.225-4.062,6.123l-2.362,2.299v0.087h6.639v2.663h-11.129L338.024,129.621z"/>
	</g>
	<g display="inline" enable-background="new    ">
		<path fill="#484848" d="M491.313,145.994h3.266c0.064,1.16,1.184,1.936,2.688,1.936c1.547,0,2.664-0.883,2.643-2.127
			c0.021-1.27-1.117-2.172-2.941-2.172h-1.439v-2.385h1.439c1.523,0,2.6-0.838,2.6-2.063c0-1.184-0.902-1.998-2.277-1.998
			s-2.514,0.771-2.557,1.955h-3.094c0.043-2.688,2.471-4.533,5.648-4.533c3.244,0,5.414,1.912,5.395,4.383
			c0.021,1.74-1.203,2.986-2.943,3.287v0.129c2.277,0.279,3.545,1.676,3.523,3.609c0.021,2.664-2.516,4.574-6.018,4.574
			C493.826,150.591,491.379,148.701,491.313,145.994z"/>
	</g>
	<g display="inline" enable-background="new    ">
		<path fill="#484848" d="M633.586,163.482l6.572-10.248h4.063v10.205h1.977v2.6h-1.977v2.75h-3.072v-2.75h-7.563V163.482
			L633.586,163.482z M641.19,163.439v-6.66h-0.15l-4.188,6.531v0.129H641.19z"/>
	</g>
	<g display="inline" enable-background="new    ">
		<path fill="#484848" d="M786.473,182.82h3.137c0.064,1.225,1.184,2.041,2.535,2.041c1.611,0,2.75-1.139,2.75-2.75
			c0-1.654-1.16-2.793-2.793-2.814c-1.16,0-1.979,0.432-2.449,1.313h-2.922l0.838-8.959h9.582v2.643h-6.918l-0.43,3.934h0.129
			c0.58-0.773,1.74-1.313,3.115-1.313c2.855,0,4.982,2.127,4.982,5.113c0,3.137-2.385,5.393-5.887,5.393
			C788.9,187.417,786.536,185.505,786.473,182.82z"/>
	</g>
	<g display="inline" enable-background="new    ">
		<path fill="#484848" d="M908.925,198.203c0-5.242,2.514-8.355,6.4-8.355c3.139,0,5.266,1.977,5.586,4.531h-3.18
			c-0.258-1.096-1.16-1.762-2.406-1.762c-2.104,0-3.223,1.912-3.244,4.963h0.15c0.709-1.375,2.256-2.189,3.975-2.189
			c2.794,0,4.878,2.104,4.878,5.025c0,3.158-2.386,5.438-5.888,5.414C911.975,205.808,908.925,203.896,908.925,198.203z
			 M917.947,200.501c0-1.547-1.139-2.771-2.729-2.771s-2.793,1.246-2.814,2.771c0.021,1.525,1.184,2.771,2.771,2.771
			S917.947,202.07,917.947,200.501z"/>
	</g>
</g>
<g id="Layer_2">
</g>
<g id="Layer_3">
	<g>
		<g>
			<g>
				<path d="M94.17,159.813h-9.732v-1.611h3.891v-2.063h2.02v2.063h3.824L94.17,159.813L94.17,159.813z M93.482,164.11
					c0,2.02-1.719,3.395-4.168,3.395c-2.404,0-4.125-1.375-4.125-3.395c0-2.063,1.721-3.438,4.125-3.459
					C91.763,160.673,93.482,162.048,93.482,164.11z M87.015,164.11c0,1.139,0.945,1.869,2.299,1.869c1.375,0,2.32-0.73,2.32-1.869
					c0-1.182-0.945-1.912-2.32-1.912C87.961,162.198,87.015,162.929,87.015,164.11z M100.96,175.282h-2.021v-4.555H87.876v-1.633
					h13.084V175.282z M100.96,168.042h-1.936v-5.025h-2.17v4.896h-1.934v-11.559h1.934v4.982h2.17v-5.283h1.936V168.042z"/>
				<path d="M115.333,164.583l-1.012,1.568c-2.232-0.741-3.908-2.269-4.791-4.254c-0.857,2.116-2.565,3.803-4.877,4.619l-1.01-1.611
					c3.008-1.01,4.834-3.566,4.834-6.252v-1.869h2.084v1.869C110.542,161.253,112.411,163.595,115.333,164.583z M119.521,175.046
					h-12.652v-7.066h12.652V175.046z M108.886,173.392h8.637v-3.781h-8.637V173.392z M119.521,166.946h-2.041v-10.893h2.041V166.946
					z"/>
				<path d="M129.211,171.78l-1.074-1.654c5.124-2.438,7.616-5.907,8.014-10.396h-7.09v-1.633h9.152
					C138.213,163.724,135.806,168.622,129.211,171.78z M143.949,175.282h-2.063v-19.25h2.063V175.282z"/>
				<path d="M164.51,165.55h-7.777v1.721h5.564v4.555h-11.215v1.697h11.752v1.566h-13.75v-4.748h11.191v-1.504h-11.215v-1.566h5.629
					v-1.721h-7.732v-1.633h17.553V165.55L164.51,165.55z M163.586,161.253l-0.709,1.547c-3.158-0.376-5.919-1.707-7.154-3.674
					c-1.246,1.967-4.007,3.298-7.133,3.674l-0.709-1.547c3.76-0.43,6.811-2.275,6.811-4.488v-0.646h2.084v0.646
					C156.775,158.976,159.827,160.823,163.586,161.253z"/>
			</g>
			<g>
				<rect x="56.216" y="198.167" fill="none" width="136.354" height="90.916"/>
				<path d="M58.958,210.217c0-0.879,0.721-1.6,1.617-1.6c0.879,0,1.6,0.721,1.6,1.6c0,0.896-0.721,1.617-1.6,1.617
					C59.678,211.834,58.958,211.113,58.958,210.217z"/>
				<path d="M84.253,214.488H70.05v-0.932h14.203V214.488z M83.462,209.109l-0.545,0.949c-2.188-0.545-4.854-2.241-5.836-4.623
					c-0.984,2.382-3.647,4.078-5.836,4.623l-0.527-0.949c2.443-0.477,5.766-2.795,5.783-5.59v-1.23h1.143v1.23
					C77.643,206.297,81.018,208.652,83.462,209.109z"/>
				<path d="M93.341,212.66h-7.049v-9.914h7.049V212.66z M87.363,211.746h4.889v-8.086h-4.889V211.746z M97.542,207.475h2.672v0.947
					h-2.672v8.244h-1.107v-15.504h1.107V207.475z"/>
				<path d="M115.365,214.576h-14.201v-0.949h14.201V214.576z M113.695,210.586h-10.65v-8.016h10.459v0.932h-9.334v2.531h9.018
					v0.914h-9.018v2.707h9.525V210.586L113.695,210.586z"/>
				<path d="M128.865,208.564l-0.599,0.879c-1.538-0.598-2.672-1.784-3.217-3.182c-0.563,1.521-1.74,2.898-3.287,3.586l-0.615-0.861
					c2.004-0.879,3.357-2.918,3.375-4.641v-2.217h1.057v2.217C125.579,206.068,126.88,207.844,128.865,208.564z M134.262,213.891
					c0,1.723-1.969,2.725-5.15,2.725c-3.217,0-5.168-1.002-5.168-2.725c0-1.725,1.951-2.727,5.168-2.727
					C132.294,211.166,134.262,212.168,134.262,213.891z M125.052,213.891c-0.018,1.143,1.563,1.846,4.061,1.846
					c2.462,0,4.043-0.703,4.063-1.846c-0.02-1.145-1.601-1.848-4.063-1.848C126.615,212.045,125.034,212.748,125.052,213.891z
					 M134.175,210.779h-1.055v-4.377h-2.32v3.885h-1.055v-8.824h1.055v4.01h2.32v-4.309h1.055V210.779z"/>
				<path d="M145.652,209.127l-0.58,0.896c-1.758-0.659-3.217-2.03-3.885-3.729c-0.648,1.942-2.127,3.419-3.955,4.148l-0.613-0.896
					c2.283-0.844,3.973-2.936,3.973-5.447v-2.004h1.09v2.072C141.663,206.35,143.438,208.336,145.652,209.127z M149.449,216.299
					h-10.337v-4.764h1.145v3.832h9.192V216.299z M148.693,205.998h2.393v0.949h-2.393v5.695h-1.105v-11.496h1.105V205.998z"/>
				<path d="M58.958,239.217c0-0.879,0.721-1.6,1.617-1.6c0.879,0,1.6,0.721,1.6,1.6c0,0.896-0.721,1.617-1.6,1.617
					C59.678,240.834,58.958,240.113,58.958,239.217z"/>
				<path d="M84.253,243.682H70.05v-0.949h6.504v-3.129h-4.676v-4.643h9.438v-2.672h-9.491v-0.932h10.581v4.535h-9.438v2.775h9.809
					v0.934h-5.113v3.129h6.592L84.253,243.682L84.253,243.682z"/>
				<path d="M88.611,232.432h8.156v-1.881h1.107v5.643h-4.643v1.934h6.504v0.914H85.604v-0.914h6.539v-1.934h-4.641v-5.643h1.105
					v1.881H88.611z M98.596,244.719l-0.438,0.879c-2.284-0.413-4.598-1.521-5.483-3.322c-0.905,1.802-3.217,2.909-5.484,3.322
					l-0.438-0.879c2.602-0.404,5.359-1.898,5.359-4.098v-0.475h1.107v0.475C93.218,242.82,95.96,244.314,98.596,244.719z
					 M96.768,235.297v-1.969h-8.156v1.969H96.768z"/>
				<path d="M114.574,236.949l-0.614,0.879c-1.714-0.633-3.184-1.916-3.852-3.566c-0.657,1.861-2.136,3.276-3.973,3.973
					l-0.615-0.896c2.25-0.791,4.008-2.76,4.025-5.113v-1.582h1.055v1.582C110.602,234.33,112.378,236.211,114.574,236.949z
					 M118.284,242.592h-8.844v1.936h9.477v0.914H108.37v-3.729h8.822v-1.738h-8.877v-0.914h9.969V242.592L118.284,242.592z
					 M118.284,238.215h-1.107v-4.096h-3.621v-0.932h3.621v-3.023h1.107V238.215z"/>
				<path d="M123.1,235.701h5.027V231.5h1.105v10.391h-7.24V231.5h1.105L123.1,235.701L123.1,235.701z M128.128,240.957v-4.342
					H123.1v4.342H128.128z M133.788,245.686h-1.107v-15.521h1.107V245.686z"/>
				<path d="M150.663,241.396l-0.635,0.879c-1.782-0.835-3.487-2.689-4.219-4.904c-0.721,2.329-2.417,4.386-4.146,5.291
					l-0.668-0.879c2.107-1.037,4.234-3.99,4.254-6.68v-2.373h-3.779v-0.949h8.719v0.949h-3.832v2.373
					C146.356,237.758,148.482,240.447,150.663,241.396z M153.686,245.668h-1.105v-15.504h1.105V245.668z"/>
				<path d="M170.648,238.479h-14.133v-0.934h14.133V238.479z M168.891,242.803c0,1.773-2.004,2.795-5.309,2.795
					c-3.34,0-5.346-1.021-5.346-2.795c0-1.793,2.006-2.813,5.346-2.813C166.887,239.99,168.891,241.01,168.891,242.803z
					 M169.014,235.578h-10.512v-5.098h1.09v4.166h9.422V235.578z M159.363,242.803c0,1.158,1.617,1.896,4.221,1.896
					c2.564,0,4.201-0.738,4.201-1.896c0-1.195-1.637-1.898-4.201-1.916C160.981,240.904,159.363,241.607,159.363,242.803z"/>
				<path d="M176.309,241.537v-1.828c-1.872-0.158-3.094-1.222-3.076-2.813c-0.018-1.74,1.441-2.865,3.621-2.865
					c2.162,0,3.641,1.125,3.641,2.865c0,1.582-1.224,2.646-3.076,2.813v1.793c1.512-0.079,3.032-0.202,4.445-0.402l0.09,0.859
					c-3.41,0.58-7.119,0.615-9.861,0.615l-0.211-0.967C173.189,241.607,174.719,241.599,176.309,241.537z M181.548,233.029h-9.404
					v-0.932h4.166v-1.936h1.107v1.936h4.131V233.029L181.548,233.029z M174.27,236.896c0,1.16,1.037,1.951,2.584,1.934
					c1.547,0.02,2.566-0.771,2.584-1.934c-0.018-1.16-1.037-1.986-2.584-1.986S174.27,235.736,174.27,236.896z M183.973,236.861
					h2.637v0.949h-2.637v7.855h-1.09v-15.504h1.09V236.861z"/>
				<path d="M58.958,268.217c0-0.879,0.721-1.6,1.617-1.6c0.879,0,1.6,0.721,1.6,1.6c0,0.896-0.721,1.617-1.6,1.617
					C59.678,269.834,58.958,269.113,58.958,268.217z"/>
				<path d="M69.697,273.297l4.623-12.727h1.354l4.623,12.727h-1.318l-1.336-3.777h-5.291l-1.336,3.777H69.697z M77.257,268.41
					l-2.215-6.223h-0.088l-2.197,6.223H77.257z"/>
				<path d="M83.391,273.297h-1.248V260.57h1.248V273.297z"/>
				<path d="M97.805,270.291l-0.686,0.844c-1.564-0.947-2.733-2.705-3.271-4.799c-0.554,2.25-1.758,4.157-3.355,5.15l-0.703-0.826
					c2.107-1.266,3.516-4.113,3.516-7.014v-1.652H90.16v-0.932h7.207v0.932h-2.988v1.652
					C94.359,266.389,95.714,269.078,97.805,270.291z M100.003,273.824h-1.057v-8.068h-2.795v-0.932h2.795v-5.256h1.057V273.824z
					 M103.132,274.668h-1.072v-15.504h1.072V274.668z"/>
				<path d="M119.689,272.611h-14.203v-0.949h6.539v-3.885h1.107v3.885h6.557V272.611z M118.969,267.338l-0.475,0.896
					c-2.217-0.466-4.939-2.039-5.906-4.271c-1.002,2.25-3.709,3.843-5.891,4.324l-0.475-0.896c2.373-0.422,5.766-2.604,5.766-5.168
					v-0.615h-5.324v-0.967h11.813v0.967h-5.344v0.615C113.134,264.789,116.561,266.934,118.969,267.338z"/>
				<path d="M134.227,261.783h-8.842v-0.932h3.92v-1.828h1.09v1.828h3.832V261.783z M133.331,265.615
					c0,1.723-1.441,2.883-3.48,2.883c-2.074,0-3.498-1.16-3.479-2.883c-0.02-1.74,1.404-2.865,3.479-2.865
					C131.889,262.75,133.331,263.875,133.331,265.615z M127.406,265.615c-0.018,1.16,0.984,1.986,2.443,1.969
					c1.441,0.02,2.443-0.809,2.443-1.969s-1.002-1.986-2.443-1.986C128.391,263.629,127.389,264.455,127.406,265.615z
					 M138.165,274.668h-1.107v-3.797h-9.246v-0.914h10.354L138.165,274.668L138.165,274.668z M138.165,268.99h-1.107v-2.074h-2.898
					v-0.949h2.898v-1.969h-2.898v-0.896h2.898v-3.938h1.107V268.99z"/>
				<path d="M150.294,267.092l-0.6,0.896c-1.793-0.729-3.276-2.206-3.954-4.113c-0.658,2.021-2.146,3.63-3.938,4.396l-0.633-0.879
					c2.25-0.914,3.99-3.219,4.008-5.783v-1.582h1.107v1.582C146.268,264.086,148.061,266.248,150.294,267.092z M154.195,274.299
					H143.79v-4.779h1.105v3.85h9.299V274.299L154.195,274.299z M153.686,270.555h-1.105v-11.393h1.105V270.555z"/>
			</g>
		</g>
		<circle fill="none" stroke="#367695" stroke-width="16" stroke-miterlimit="10" cx="124.392" cy="221.993" r="110.333"/>
	</g>
	<polygon fill="#367695" points="268.81,184.704 268.81,193.686 297.12,221.993 268.81,250.303 268.81,259.284 306.1,221.993 	"/>
	<polygon fill="#367695" points="594.939,184.704 594.939,193.686 623.247,221.993 594.939,250.303 594.939,259.284 
		632.228,221.993 	"/>
	<g>
		<circle fill="none" stroke="#367695" stroke-width="16" stroke-miterlimit="10" cx="776.648" cy="221.993" r="110.333"/>
		<g>
			<g>
				<path d="M754.197,168.536h-7.819v6.727h-1.998v-6.727h-7.734v-1.654h17.554L754.197,168.536L754.197,168.536z M752.543,158.804
					h-5.951c0.031,2.385,2.997,4.512,6.639,5.006l-0.752,1.609c-3.157-0.492-5.887-2.052-7.047-4.254
					c-1.191,2.202-3.91,3.762-7.024,4.254l-0.772-1.609c3.599-0.494,6.563-2.621,6.639-5.006h-5.993v-1.635h14.267v1.635H752.543z"
					/>
				<path d="M773.275,172.876h-17.617v-1.695h4.211v-5.027c-1.579-0.87-2.534-2.256-2.534-3.975c0-3.029,2.965-5.027,7.09-5.027
					c4.146,0,7.11,1.998,7.11,5.027c0,1.695-0.924,3.062-2.471,3.932v5.07h4.211V172.876L773.275,172.876z M759.309,162.177
					c0,2.063,2.084,3.416,5.113,3.416c3.008,0,5.135-1.354,5.135-3.416c0-2.084-2.127-3.396-5.135-3.396
					C761.393,158.782,759.309,160.094,759.309,162.177z M767.002,171.179v-4.299c-0.784,0.204-1.654,0.303-2.578,0.303
					c-0.902,0-1.763-0.099-2.535-0.279v4.275H767.002L767.002,171.179z"/>
				<path d="M795.361,163.423h-5.543v2.234h7.776v1.654h-17.553v-1.654h7.756v-2.234h-5.521v-6.596h13.084L795.361,163.423
					L795.361,163.423z M795.447,175.282h-2.063v-4.533h-11.388v-1.609h13.449L795.447,175.282L795.447,175.282z M784.275,161.79
					h9.065v-3.352h-9.065V161.79z"/>
				<path d="M816.673,173.005h-17.617v-1.676h4.728v-4.273h-3.181V165.4h2.88v-5.994h-2.923v-1.676h14.502v1.676h-2.942v5.994h2.879
					v1.654h-3.157v4.273h4.834L816.673,173.005L816.673,173.005z M810.12,165.399v-5.994h-4.618v5.994H810.12z M809.798,171.329
					v-4.273h-3.976v4.273H809.798z"/>
			</g>
			<g>
				<rect x="710.98" y="198.167" fill="none" width="131.334" height="87.666"/>
				<path d="M713.722,210.217c0-0.879,0.722-1.6,1.617-1.6c0.879,0,1.6,0.721,1.6,1.6c0,0.896-0.721,1.617-1.6,1.617
					C714.444,211.834,713.722,211.113,713.722,210.217z"/>
				<path d="M739.017,214.682h-14.203v-0.949h6.505v-3.129h-4.677v-4.643h9.438v-2.672h-9.491v-0.932h10.582v4.535h-9.439v2.775
					h9.81v0.934h-5.114v3.129h6.592L739.017,214.682L739.017,214.682z"/>
				<path d="M743.378,203.432h8.155v-1.881h1.106v5.643H748v1.934h6.504v0.914H740.37v-0.914h6.539v-1.934h-4.642v-5.643h1.107
					v1.881H743.378z M753.362,215.719l-0.438,0.879c-2.285-0.413-4.598-1.521-5.484-3.322c-0.904,1.802-3.217,2.909-5.483,3.322
					l-0.438-0.879c2.603-0.404,5.361-1.898,5.361-4.098v-0.475h1.106v0.475C747.983,213.82,750.724,215.314,753.362,215.719z
					 M751.533,206.297v-1.969h-8.155v1.969H751.533z"/>
				<path d="M761.746,210.41h-5.344v-1.125h5.344V210.41z"/>
				<path d="M771.994,206.051c0,2.232-1.705,3.799-4.008,3.779c-2.304,0.02-4.024-1.547-4.009-3.779
					c-0.018-2.215,1.705-3.762,4.009-3.762C770.289,202.289,771.994,203.836,771.994,206.051z M765.051,206.051
					c0,1.617,1.248,2.797,2.937,2.797c1.67,0,2.937-1.18,2.937-2.797c0-1.6-1.267-2.795-2.937-2.795
					C766.299,203.256,765.051,204.451,765.051,206.051z M776.828,216.299h-10.405v-4.902h1.106v3.973h9.299V216.299z
					 M776.319,212.572h-1.106v-11.408h1.106V212.572z"/>
				<path d="M779.676,210.691l-0.476-0.896c3.779-1.213,6.347-3.551,6.627-6.484h-6.012v-0.934h7.207
					C787.023,206.297,784.088,209.268,779.676,210.691z M791.963,216.299h-10.371v-4.887h1.106v3.955h9.265V216.299z
					 M791.207,205.998h2.392v0.949h-2.392v5.643h-1.125v-11.426h1.125V205.998z"/>
				<path d="M807.871,203.73h-8.842v-0.934h3.92v-1.793h1.09v1.793h3.832V203.73z M806.974,207.387c0,1.688-1.424,2.775-3.479,2.76
					c-2.092,0.018-3.498-1.072-3.479-2.76c-0.019-1.688,1.39-2.797,3.479-2.797C805.551,204.592,806.974,205.699,806.974,207.387z
					 M801.051,207.387c-0.019,1.125,0.967,1.916,2.442,1.896c1.44,0.02,2.442-0.771,2.442-1.896s-1.002-1.916-2.442-1.916
					C802.017,205.471,801.033,206.262,801.051,207.387z M802.931,212.766h7.787v-1.775h1.09v5.449h-9.967v-5.449h1.09V212.766
					L802.931,212.766z M810.719,215.543v-1.881h-7.787v1.881H810.719z M811.808,210.305h-1.106v-1.479h-2.899v-0.932h2.899v-2.074
					h-2.899v-0.932h2.899v-3.729h1.106V210.305z"/>
				<path d="M821.916,206.314h-5.555v2.654c3.139,0,4.657-0.055,6.573-0.404l0.104,0.949c-1.95,0.314-3.516,0.367-6.696,0.367
					h-1.072v-4.445h5.537v-2.393h-5.572v-0.932h6.681V206.314L821.916,206.314z M827.365,216.703h-1.106v-4.201h-9.265v-0.932
					h10.371V216.703z M827.365,210.691h-1.106v-3.061h-3.271V206.7h3.271v-2.25h-3.271v-0.914h3.271v-2.373h1.106V210.691z"/>
				<path d="M713.722,239.217c0-0.879,0.722-1.6,1.617-1.6c0.879,0,1.6,0.721,1.6,1.6c0,0.896-0.721,1.617-1.6,1.617
					C714.444,240.834,713.722,240.113,713.722,239.217z"/>
				<path d="M734.517,241.396l-0.633,0.879c-1.784-0.835-3.489-2.689-4.22-4.904c-0.721,2.329-2.416,4.386-4.147,5.291l-0.668-0.879
					c2.108-1.037,4.236-3.99,4.254-6.68v-2.373h-3.778v-0.949h8.72v0.949h-3.832v2.373
					C730.211,237.758,732.338,240.447,734.517,241.396z M737.541,245.668h-1.106v-15.504h1.106V245.668z"/>
				<path d="M754.504,238.479H740.37v-0.934h14.134V238.479z M752.746,242.803c0,1.773-2.004,2.795-5.31,2.795
					c-3.34,0-5.344-1.021-5.344-2.795c0-1.793,2.004-2.813,5.344-2.813C750.742,239.99,752.746,241.01,752.746,242.803z
					 M752.869,235.578h-10.513v-5.098h1.091v4.166h9.422V235.578z M743.219,242.803c0,1.158,1.617,1.896,4.219,1.896
					c2.566,0,4.201-0.738,4.201-1.896c0-1.195-1.635-1.898-4.201-1.916C744.836,240.904,743.219,241.607,743.219,242.803z"/>
				<path d="M764.769,232.906h-8.842v-0.914h3.92v-1.969h1.09v1.969h3.832V232.906z M763.873,236.668c0,1.725-1.424,2.85-3.479,2.85
					c-2.092,0-3.497-1.125-3.479-2.85c-0.018-1.738,1.39-2.863,3.479-2.863C762.449,233.803,763.873,234.928,763.873,236.668z
					 M757.949,236.668c-0.019,1.18,0.967,1.986,2.442,1.986c1.44,0,2.443-0.809,2.443-1.986c0-1.177-1.003-2.004-2.443-2.004
					C758.916,234.664,757.931,235.49,757.949,236.668z M768.795,242.996c0,1.67-1.935,2.619-5.134,2.619
					c-3.252,0-5.187-0.949-5.187-2.619s1.935-2.619,5.187-2.619C766.862,240.377,768.795,241.326,768.795,242.996z M759.619,242.996
					c0,1.09,1.563,1.74,4.043,1.74c2.442,0,3.99-0.65,3.99-1.74s-1.548-1.74-3.99-1.74
					C761.183,241.256,759.619,241.906,759.619,242.996z M768.707,240.236H767.6v-2.32H764.7v-0.932h2.899v-2.059H764.7v-0.932h2.899
					v-3.832h1.106L768.707,240.236L768.707,240.236z"/>
				<path d="M781.61,241.291c1.563-0.079,3.154-0.211,4.657-0.438l0.088,0.844c-3.586,0.633-7.452,0.65-10.266,0.65l-0.177-0.949
					c1.346,0,2.928,0,4.588-0.07v-3.076h1.107L781.61,241.291L781.61,241.291z M785.687,237.74l-0.526,0.896
					c-1.872-0.6-3.428-1.839-4.112-3.518c-0.659,1.769-2.206,3.067-4.062,3.674l-0.545-0.859c2.25-0.703,4.043-2.479,4.043-4.729
					h-3.69v-0.949h3.709v-1.984h1.106v1.984h3.778v0.949h-3.797C781.592,235.367,783.42,237.072,785.687,237.74z M788.448,245.686
					h-1.106v-15.521h1.106V245.686z"/>
				<path d="M800.523,237.898l-0.579,0.879c-1.759-0.65-3.189-1.986-3.851-3.656c-0.659,1.863-2.188,3.331-4.024,4.043l-0.58-0.879
					c2.215-0.809,4.024-2.883,4.024-5.148v-0.914h-3.64v-0.934h8.332v0.934h-3.586v0.896
					C796.621,235.191,798.326,237.125,800.523,237.898z M804.162,245.668h-1.106v-4.412h-9.246v-0.914h10.354L804.162,245.668
					L804.162,245.668z M804.162,239.463h-1.106v-4.199h-3.356v-0.934h3.356v-4.166h1.106V239.463z"/>
				<path d="M811.176,241.537v-1.828c-1.872-0.158-3.094-1.222-3.076-2.813c-0.018-1.74,1.441-2.865,3.621-2.865
					c2.162,0,3.64,1.125,3.64,2.865c0,1.582-1.223,2.646-3.076,2.813v1.793c1.513-0.079,3.032-0.202,4.446-0.402l0.089,0.859
					c-3.41,0.58-7.119,0.615-9.86,0.615l-0.212-0.967C808.055,241.607,809.586,241.599,811.176,241.537z M816.414,233.029h-9.403
					v-0.932h4.166v-1.936h1.106v1.936h4.131V233.029z M809.136,236.896c0,1.16,1.037,1.951,2.584,1.934
					c1.547,0.02,2.565-0.771,2.584-1.934c-0.019-1.16-1.037-1.986-2.584-1.986S809.136,235.736,809.136,236.896z M818.84,236.861
					h2.637v0.949h-2.637v7.855h-1.09v-15.504h1.09V236.861z"/>
				<path d="M713.722,268.217c0-0.879,0.722-1.6,1.617-1.6c0.879,0,1.6,0.721,1.6,1.6c0,0.896-0.721,1.617-1.6,1.617
					C714.444,269.834,713.722,269.113,713.722,268.217z"/>
				<path d="M739.017,272.787h-14.203v-0.932h3.867v-2.973c-1.188-0.475-1.846-1.281-1.846-2.354c0-1.813,1.916-2.883,5.045-2.865
					c3.11-0.018,5.045,1.056,5.045,2.865c0,1.072-0.668,1.881-1.847,2.354v2.973h3.938V272.787L739.017,272.787z M738.174,262.521
					h-12.621v-0.934h5.783v-2.145h1.09v2.145h5.748V262.521L738.174,262.521z M727.944,266.529c0,1.213,1.528,1.986,3.938,1.986
					c2.392,0,3.92-0.773,3.92-1.986c0-1.23-1.528-1.986-3.92-1.986C729.472,264.543,727.944,265.299,727.944,266.529z
					 M733.972,271.855v-2.654c-0.614,0.132-1.317,0.193-2.092,0.193c-0.773,0-1.478-0.055-2.093-0.176v2.637H733.972z"/>
				<path d="M754.504,266.74h-4.078v1.67h2.215v3.322h-9.403v1.828h9.896v0.914h-10.968v-3.604h9.403v-1.582h-9.457v-0.879h2.196
					v-1.67h-3.938v-0.932h14.134V266.74z M752.851,262.064c0,1.74-2.021,2.707-5.432,2.707c-3.411,0-5.433-0.967-5.433-2.707
					s2.021-2.707,5.433-2.707C750.829,259.357,752.851,260.324,752.851,262.064z M743.131,262.064c0,1.16,1.635,1.828,4.289,1.828
					c2.672,0,4.307-0.668,4.307-1.828c0-1.145-1.635-1.828-4.307-1.828C744.765,260.236,743.131,260.922,743.131,262.064z
					 M749.319,268.41v-1.67h-3.902v1.67H749.319z"/>
				<path d="M756.508,267.725c0-0.527,0.422-0.949,0.948-0.949c0.511,0,0.933,0.422,0.933,0.949c0,0.51-0.422,0.932-0.933,0.932
					C756.929,268.656,756.508,268.234,756.508,267.725z"/>
				<path d="M774.472,267.672h-6.521v1.986h4.765v4.781h-10.617v-4.781h4.765v-1.986h-6.521v-0.932h14.133v0.932H774.472z
					 M773.085,260.605h-2.496v3.566h2.461v0.949h-11.338v-0.949h2.479v-3.566h-2.496v-0.914h11.392L773.085,260.605L773.085,260.605
					z M763.187,273.525h8.455v-2.971h-8.455V273.525z M769.48,264.174v-3.566h-4.184v3.566H769.48z"/>
				<path d="M785.406,266.002l-0.563,0.879c-1.828-0.613-3.375-1.896-4.043-3.586c-0.659,1.828-2.225,3.252-4.113,3.92l-0.526-0.896
					c2.25-0.773,4.043-2.707,4.062-4.922v-0.354h-3.762v-0.947h8.596v0.947h-3.728v0.354
					C781.328,263.506,783.156,265.316,785.406,266.002z M788.64,271.574h-8.858v1.986h9.457v0.914H778.71v-3.744h8.842v-1.793
					h-8.896v-0.896h9.983V271.574L788.64,271.574z M788.623,267.25h-1.09v-8.086h1.09V267.25z"/>
				<path d="M808.082,260.992c0,1.195,0,2.698-0.422,4.781h2.338v0.932h-14.203v-0.932h10.739c0.438-2.103,0.438-3.595,0.438-4.781
					v-0.141h-9.353v-0.934h10.459v1.073L808.082,260.992L808.082,260.992z M808.205,274.721h-1.106v-4.623h-9.791v-0.914h10.897
					V274.721z"/>
				<path d="M817.785,262.012h-4.711v7.752c2.383,0,3.886-0.099,5.644-0.477l0.123,0.949c-1.863,0.404-3.41,0.475-5.906,0.492
					h-0.967v-9.65h5.817V262.012z M824.552,274.668h-1.072v-8.262h-2.514v7.436h-1.037v-14.309h1.037v5.941h2.514v-6.313h1.072
					V274.668z"/>
			</g>
		</g>
	</g>
	<g>
		<circle fill="none" stroke="#6DC7D3" stroke-width="16" stroke-miterlimit="10" cx="450.519" cy="221.993" r="110.334"/>
		<g>
			<g>
				<path d="M422.037,165.271l-1.03,1.59c-2.181-0.752-3.781-2.256-4.619-4.146c-0.838,2.084-2.503,3.719-4.77,4.514l-1.098-1.59
					c3.009-1.031,4.813-3.502,4.834-6.166v-0.518h-4.23V157.3h10.42v1.654h-4.146v0.537
					C417.396,161.94,419.094,164.282,422.037,165.271z M425.797,175.282h-2.041v-5.049h-10.678v-1.654h12.719V175.282z
					 M425.797,160.974h2.793v1.719h-2.793v4.939h-2.041v-11.602h2.041V160.974z"/>
				<path d="M447.26,167.032h-17.574v-1.633h7.8v-2.041h-5.606v-6.445h13.213v1.611H433.9v3.201h11.321v1.633h-5.758v2.041h7.799
					L447.26,167.032L447.26,167.032z M445.09,171.78c0,2.234-2.492,3.48-6.64,3.502c-4.168-0.021-6.683-1.268-6.683-3.502
					s2.515-3.502,6.683-3.502C442.597,168.278,445.09,169.546,445.09,171.78z M433.832,171.78c0,1.225,1.677,1.912,4.619,1.891
					c2.899,0.021,4.599-0.666,4.599-1.891s-1.697-1.912-4.599-1.912C435.508,169.868,433.832,170.556,433.832,171.78z"/>
				<path d="M456.821,160.007h5.049v-2.771h2.021v8.938h-9.065v-8.938h1.998L456.821,160.007L456.821,160.007z M469.367,171.63
					c0,2.301-2.405,3.633-6.381,3.652c-4.019-0.021-6.468-1.354-6.468-3.652c0-2.275,2.449-3.607,6.468-3.607
					C466.961,168.021,469.367,169.353,469.367,171.63z M461.869,164.54v-2.922h-5.049v2.922H461.869z M458.56,171.63
					c-0.021,1.289,1.634,2.021,4.427,2.021c2.771,0,4.383-0.73,4.383-2.021s-1.61-1.998-4.383-1.998
					C460.194,169.632,458.539,170.341,458.56,171.63z M469.196,160.737h2.793v1.74h-2.793v5.049h-2.041v-11.494h2.041V160.737z"/>
				<path d="M484.858,164.885l-1.031,1.61c-2.225-0.784-3.898-2.353-4.771-4.36c-0.858,2.158-2.546,3.866-4.834,4.685l-1.03-1.59
					c3.008-1.074,4.813-3.674,4.813-6.424v-1.85h2.084v1.85C480.067,161.469,481.892,163.896,484.858,164.885z M489.047,175.282
					h-2.041v-5.113h-11v-1.652h13.041V175.282z M489.047,167.591h-2.041v-11.559h2.041V167.591z"/>
			</g>
			<g>
				<rect x="382.343" y="198.167" fill="none" width="136.354" height="90.916"/>
				<path d="M387.898,210.217c0-0.879,0.722-1.6,1.616-1.6c0.879,0,1.602,0.721,1.602,1.6c0,0.896-0.723,1.617-1.602,1.617
					C388.619,211.834,387.898,211.113,387.898,210.217z"/>
				<path d="M408.412,207.861l-0.58,0.879c-1.819-0.659-3.35-2.03-4.043-3.814c-0.668,1.907-2.215,3.41-4.043,4.113l-0.58-0.896
					c2.231-0.811,4.043-2.918,4.061-5.311v-1.193h1.107v1.193C404.316,205.119,406.178,207.088,408.412,207.861z M411.734,213.627
					h-8.858v1.916h9.457v0.934h-10.529v-3.729h8.842v-1.758h-8.895v-0.914h9.983V213.627L411.734,213.627z M411.716,209.268h-1.09
					v-8.104h1.09V209.268z"/>
				<path d="M424.178,212.221l-0.687,0.879c-1.749-0.879-3.419-2.806-4.147-5.1c-0.712,2.408-2.364,4.456-4.131,5.379l-0.721-0.932
					c2.18-1.037,4.288-3.99,4.288-6.908v-2.986h1.106v2.986C419.873,208.354,422,211.201,424.178,212.221z M427.273,216.686h-1.106
					v-15.521h1.106V216.686z"/>
				<path d="M430.648,210.691l-0.476-0.896c3.778-1.213,6.346-3.551,6.627-6.484h-6.013v-0.934h7.207
					C437.995,206.297,435.059,209.268,430.648,210.691z M442.934,216.299h-10.37v-4.887h1.106v3.955h9.264V216.299z
					 M442.178,205.998h2.392v0.949h-2.392v5.643h-1.125v-11.426h1.125V205.998z"/>
				<path d="M464.134,208.863h-6.521v1.688h4.657v3.285h-9.403v1.725h9.896v0.914h-10.969v-3.498h9.403v-1.547h-9.457v-0.879h4.765
					v-1.688h-6.504v-0.949h14.133V208.863z M453.007,203.027h8.155v-1.617h1.106v5.08h-10.37v-5.08h1.106L453.007,203.027
					L453.007,203.027z M461.163,205.594v-1.688h-8.155v1.688H461.163z"/>
				<path d="M474.839,208.09l0.104,0.949c-2.584,0.422-4.677,0.527-7.472,0.51h-1.194v-4.254h5.87v-2.215h-5.905v-0.932h6.996v4.043
					h-5.854v2.426h0.088C470.216,208.617,472.29,208.512,474.839,208.09z M477.757,213.855c0,1.758-1.916,2.775-5.063,2.775
					c-3.183,0-5.099-1.02-5.099-2.775s1.916-2.777,5.099-2.777C475.841,211.078,477.757,212.098,477.757,213.855z M468.686,213.855
					c-0.018,1.16,1.529,1.881,4.009,1.881c2.442,0,3.989-0.721,3.989-1.881s-1.547-1.881-3.989-1.881
					C470.216,211.975,468.669,212.695,468.686,213.855z M480.043,204.662h-2.408v2.303h2.408v0.949h-2.408v2.654h-1.106v-9.404
					h1.106v2.531h2.408V204.662z"/>
				<path d="M495.634,215.859h-1.072v-5.203h-2.672c-0.554,1.573-1.582,2.496-2.918,2.496c-2.004,0-3.306-2.074-3.306-5.311
					c0-3.252,1.302-5.309,3.306-5.309c1.336,0,2.373,0.914,2.918,2.496h2.672v-3.516h1.072V215.859z M486.704,207.844
					c0,2.549,0.88,4.271,2.269,4.271c1.39,0,2.285-1.723,2.285-4.271c0-2.566-0.896-4.271-2.285-4.271
					S486.704,205.277,486.704,207.844z M492.311,207.844c0,0.677-0.063,1.301-0.176,1.861h2.426v-3.744h-2.426
					C492.25,206.534,492.311,207.158,492.311,207.844z M498.693,216.668h-1.072v-15.504h1.072V216.668z"/>
				<path d="M515.145,209.953h-14.133v-0.914h14.133V209.953z M508.625,202.764h5.045v0.914h-4.992
					c0.044,1.993,2.83,3.232,5.555,3.516l-0.387,0.896c-2.436-0.314-4.869-1.292-5.767-3.006c-0.914,1.714-3.356,2.689-5.782,3.006
					l-0.353-0.896c2.688-0.281,5.477-1.521,5.536-3.516h-4.975v-0.914h5.026v-1.67h1.09L508.625,202.764L508.625,202.764z
					 M513.37,216.668h-1.106v-3.955h-9.687v-0.932h10.793V216.668L513.37,216.668z"/>
				<path d="M387.898,239.217c0-0.879,0.722-1.6,1.616-1.6c0.879,0,1.602,0.721,1.602,1.6c0,0.896-0.723,1.617-1.602,1.617
					C388.619,240.834,387.898,240.113,387.898,239.217z"/>
				<path d="M408.182,241.396l-0.648,0.879c-1.725-0.87-3.297-2.771-3.99-4.922c-0.712,2.329-2.399,4.401-4.097,5.309l-0.687-0.879
					c2.109-1.055,4.219-4.008,4.236-6.68v-2.373h-3.691v-0.949h8.386v0.949h-3.621v2.373
					C404.07,237.617,406.039,240.359,408.182,241.396z M410.925,236.545h2.672v0.949h-2.672v8.174h-1.106v-15.504h1.106V236.545z"/>
				<path d="M428.678,238.848h-14.133v-0.914h6.521v-1.971h-4.712v-5.063h10.548v0.896h-9.457v3.234h9.563v0.932h-4.869v1.971h6.539
					V238.848z M426.921,242.855c0,1.793-2.005,2.775-5.31,2.795c-3.341-0.02-5.345-1.002-5.345-2.795c0-1.758,2.004-2.76,5.345-2.76
					C424.918,240.096,426.921,241.098,426.921,242.855z M417.393,242.855c0,1.178,1.617,1.881,4.22,1.881
					c2.565,0,4.2-0.703,4.2-1.881c0-1.16-1.635-1.863-4.2-1.881C419.01,240.992,417.393,241.695,417.393,242.855z"/>
				<path d="M442.32,241.291l-0.687,0.846c-1.563-0.949-2.732-2.707-3.271-4.801c-0.555,2.25-1.759,4.157-3.356,5.15l-0.703-0.826
					c2.108-1.266,3.517-4.113,3.517-7.014v-1.652h-3.146v-0.932h7.207v0.932h-2.988v1.652
					C438.875,237.389,440.227,240.078,442.32,241.291z M444.516,244.824h-1.055v-8.068h-2.796v-0.932h2.796v-5.256h1.055V244.824z
					 M447.645,245.668h-1.071v-15.504h1.071V245.668z"/>
				<path d="M457.947,236.193h3.744v-6.029h1.09v15.521h-1.09v-8.578h-3.728c-0.133,3.065-1.661,5.01-3.832,5.01
					c-2.269,0-3.851-2.092-3.832-5.361c-0.019-3.27,1.563-5.359,3.832-5.359C456.251,231.395,457.761,233.249,457.947,236.193z
					 M451.354,236.756c0,2.604,1.125,4.377,2.777,4.377c1.635,0,2.776-1.773,2.776-4.377c0-2.584-1.144-4.377-2.776-4.377
					C452.479,232.379,451.354,234.172,451.354,236.756z"/>
				<path d="M479.532,241.221l-0.687,0.879c-1.749-0.879-3.419-2.806-4.147-5.1c-0.712,2.408-2.364,4.456-4.131,5.379l-0.722-0.932
					c2.181-1.037,4.289-3.99,4.289-6.908v-2.986h1.106v2.986C475.225,237.354,477.352,240.201,479.532,241.221z M482.627,245.686
					h-1.107v-15.521h1.107V245.686z"/>
				<path d="M499.659,243.488h-14.202v-0.932h14.202V243.488z M498.868,238.109l-0.545,0.949c-2.188-0.545-4.853-2.241-5.836-4.623
					c-0.983,2.382-3.646,4.078-5.836,4.623l-0.526-0.949c2.442-0.477,5.766-2.795,5.782-5.59v-1.23h1.144v1.23
					C493.05,235.297,496.425,237.652,498.868,238.109z"/>
				<path d="M507.693,232.15h-4.853v2.127h4.201v0.896h-4.201v2.355c2.451,0,3.876-0.079,5.606-0.422l0.123,0.896
					c-1.812,0.369-3.271,0.439-5.854,0.439h-0.949v-7.242h5.925L507.693,232.15L507.693,232.15z M514.127,245.439h-10.125v-5.15
					h10.125V245.439z M505.091,244.525h7.963v-3.322h-7.963V244.525z M511.137,239.375h-1.071v-4.324h-2.269v-0.947h2.269v-3.656
					h1.071V239.375z M514.127,239.533h-1.056v-9.369h1.056V239.533z"/>
				<path d="M387.898,268.217c0-0.879,0.722-1.6,1.616-1.6c0.879,0,1.602,0.721,1.602,1.6c0,0.896-0.723,1.617-1.602,1.617
					C388.619,269.834,387.898,269.113,387.898,268.217z"/>
				<path d="M413.123,267.672h-6.521v1.986h4.766v4.781H400.75v-4.781h4.764v-1.986h-6.521v-0.932h14.133v0.932H413.123z
					 M411.734,260.605h-2.496v3.566h2.462v0.949h-11.339v-0.949h2.479v-3.566h-2.496v-0.914h11.392L411.734,260.605L411.734,260.605
					z M401.837,273.525h8.455v-2.971h-8.455V273.525z M408.13,264.174v-3.566h-4.185v3.566H408.13z"/>
				<path d="M424.055,266.002l-0.563,0.879c-1.828-0.613-3.374-1.896-4.042-3.586c-0.659,1.828-2.226,3.252-4.113,3.92l-0.527-0.896
					c2.25-0.773,4.043-2.707,4.063-4.922v-0.354h-3.763v-0.947h8.596v0.947h-3.728v0.354
					C419.977,263.506,421.805,265.316,424.055,266.002z M427.29,271.574h-8.858v1.986h9.457v0.914H417.36v-3.744h8.842v-1.793
					h-8.896v-0.896h9.983L427.29,271.574L427.29,271.574z M427.273,267.25h-1.091v-8.086h1.091V267.25z"/>
				<path d="M442.829,264.051c-0.019,2.232-1.723,3.799-4.008,3.799c-2.304,0-4.024-1.564-4.024-3.799
					c0-2.215,1.723-3.762,4.024-3.762C441.107,260.289,442.811,261.836,442.829,264.051z M435.885,264.051
					c-0.019,1.617,1.267,2.813,2.937,2.813s2.918-1.195,2.937-2.813c-0.019-1.6-1.267-2.795-2.937-2.795
					S435.868,262.451,435.885,264.051z M447.277,274.299h-10.354v-4.852h1.09v3.92h9.265L447.277,274.299L447.277,274.299z
					 M446.52,263.963h2.392v0.949h-2.392v5.73h-1.106v-11.496h1.106V263.963z"/>
				<path d="M459.141,266.863l-0.58,0.896c-1.749-0.648-3.182-1.993-3.831-3.654c-0.669,1.89-2.197,3.393-4.044,4.111l-0.579-0.896
					c2.231-0.826,4.024-2.918,4.024-5.221v-0.811h-3.64v-0.932h8.332v0.932h-3.586v0.791
					C455.24,264.174,456.945,266.107,459.141,266.863z M462.834,271.785c0,1.813-1.951,2.848-5.15,2.865
					c-3.198-0.02-5.149-1.055-5.133-2.865c-0.019-1.811,1.935-2.848,5.133-2.848C460.883,268.937,462.834,269.975,462.834,271.785z
					 M453.639,271.785c-0.019,1.213,1.563,1.951,4.043,1.951c2.479,0,4.062-0.738,4.062-1.951s-1.582-1.969-4.062-1.969
					C455.203,269.816,453.622,270.572,453.639,271.785z M462.781,268.41h-1.106v-4.184h-3.356v-0.934h3.356v-4.131h1.106V268.41z"/>
				<path d="M474.663,266.688l-0.633,0.859c-1.724-0.657-3.164-1.978-3.832-3.689c-0.643,1.94-2.146,3.428-4.008,4.166l-0.599-0.914
					c2.285-0.826,4.024-2.883,4.043-5.361v-1.688h1.071v1.65C470.709,263.963,472.448,265.914,474.663,266.688z M478.389,271.75
					c0,1.828-1.95,2.865-5.149,2.865c-3.198,0-5.149-1.037-5.133-2.865c-0.019-1.846,1.935-2.898,5.133-2.918
					C476.439,268.85,478.389,269.904,478.389,271.75z M469.197,271.75c-0.019,1.213,1.563,1.971,4.043,1.971
					s4.062-0.758,4.062-1.971c0-1.248-1.582-2.004-4.062-2.004S469.178,270.502,469.197,271.75z M478.337,268.375h-1.107v-4.814
					h-3.62v-0.934h3.62v-3.463h1.107V268.375z"/>
				<path d="M494.755,261.924h-9.246v-0.912h4.078v-1.986h1.09v1.986h4.078V261.924L494.755,261.924z M493.823,265.527
					c0,1.67-1.478,2.725-3.69,2.725c-2.25,0-3.709-1.055-3.709-2.725s1.459-2.725,3.709-2.725
					C492.346,262.803,493.823,263.857,493.823,265.527z M487.477,265.527c-0.018,1.105,1.056,1.846,2.654,1.828
					c1.582,0.018,2.637-0.723,2.653-1.828c-0.019-1.107-1.071-1.863-2.653-1.863C488.532,263.664,487.461,264.42,487.477,265.527z
					 M497.709,271.979c0,1.67-1.898,2.637-5.027,2.637c-3.146,0-5.045-0.967-5.026-2.637c-0.019-1.688,1.881-2.672,5.026-2.672
					C495.809,269.307,497.709,270.291,497.709,271.979z M488.743,271.979c0,1.09,1.513,1.758,3.938,1.74
					c2.408,0.018,3.938-0.65,3.938-1.74c0-1.125-1.528-1.775-3.938-1.775C490.255,270.203,488.743,270.854,488.743,271.979z
					 M499.906,262.943h-2.373v2.338h2.373v0.949h-2.373v2.988h-1.106v-10.057h1.106v2.85h2.373V262.943z"/>
				<path d="M509.995,266.617l-0.614,0.896c-1.724-0.659-3.174-2.03-3.832-3.729c-0.649,1.925-2.127,3.419-3.938,4.148l-0.599-0.896
					c2.25-0.859,3.938-2.936,3.955-5.414v-1.67h1.071v1.74C506.041,263.875,507.816,265.844,509.995,266.617z M513.212,271.855
					c0,1.758-1.898,2.76-5.063,2.76c-3.182,0-5.098-1.002-5.079-2.76c-0.019-1.74,1.897-2.76,5.079-2.76
					C511.314,269.096,513.212,270.115,513.212,271.855z M504.159,271.855c-0.019,1.16,1.548,1.863,3.99,1.881
					c2.442-0.018,3.989-0.721,3.989-1.881c0-1.145-1.547-1.848-3.989-1.848C505.707,270.009,504.141,270.713,504.159,271.855z
					 M513.089,263.33h2.391v0.949h-2.391v4.395h-1.106v-9.51h1.106V263.33z"/>
			</g>
		</g>
	</g>
</g>
</svg>
