<?xml version="1.0" encoding="utf-8"?>
<!-- Generator: Adobe Illustrator 16.0.0, SVG Export Plug-In . SVG Version: 6.00 Build 0)  -->
<!DOCTYPE svg PUBLIC "-//W3C//DTD SVG 1.1//EN" "http://www.w3.org/Graphics/SVG/1.1/DTD/svg11.dtd">
<svg version="1.1" id="Layer_1" xmlns="http://www.w3.org/2000/svg" xmlns:xlink="http://www.w3.org/1999/xlink" x="0px" y="0px"
	 width="1092px" height="454px" viewBox="0 0 1092 454" enable-background="new 0 0 1092 454" xml:space="preserve">
<g id="g-root-tx__1umry4k1wbaknj-fill" transform="translate(362, 266)">
	<g id="tx__1umry4k1wbaknj-fill">
		<g>
			<g enable-background="new    ">
				<path fill="#484848" d="M22.938,24.341l-0.82,1.191c-1.924-0.684-3.457-2.051-4.219-3.809c-0.742,1.982-2.314,3.496-4.375,4.238
					l-0.84-1.23c2.617-0.859,4.414-3.047,4.434-5.586v-1.641h1.504v1.641C18.602,21.431,20.398,23.501,22.938,24.341z
					 M27.098,30.942h-9.707v1.895h10.352v1.23H15.887v-4.297h9.688v-1.738h-9.727v-1.23h11.25V30.942z M27.098,25.923h-1.543v-4.512
					h-3.867v-1.27h3.867v-3.203h1.543V25.923z"/>
				<path fill="#484848" d="M32.527,23.013h5.176v-4.59h1.504v11.719h-8.203V18.423h1.523V23.013z M37.703,28.853v-4.609h-5.176
					v4.609H37.703z M44.305,34.341h-1.543V16.938h1.543V34.341z"/>
				<path fill="#484848" d="M61.141,29.282l-0.938,1.133c-1.709-1.025-2.92-2.9-3.516-5.117c-0.635,2.393-1.895,4.434-3.633,5.527
					l-0.977-1.152c2.422-1.445,3.828-4.609,3.828-7.773v-1.641h-3.34v-1.27h8.008v1.27h-3.184v1.641
					C57.391,24.907,58.738,27.896,61.141,29.282z M63.621,33.403h-1.445v-8.945h-2.93v-1.25h2.93v-5.84h1.445V33.403z
					 M67.137,34.302h-1.465V16.938h1.465V34.302z"/>
				<path fill="#484848" d="M79.734,25.474l-0.781,1.191c-1.982-0.703-3.496-2.129-4.238-3.926
					c-0.742,1.973-2.334,3.506-4.375,4.258l-0.82-1.191c2.598-0.918,4.414-3.164,4.434-5.645v-0.742h-3.965v-1.25h9.375v1.25h-3.906
					v0.742C75.457,22.466,77.156,24.575,79.734,25.474z M83.152,34.302h-1.523v-4.727h-9.844v-1.25h11.367V34.302z M83.152,21.528
					h2.617v1.309h-2.617v4.57h-1.523V16.938h1.523V21.528z"/>
				<path fill="#484848" d="M100.945,25.142h-8.145v-7.07h8.145V25.142z M107.254,33.052l-0.527,1.191
					c-2.617-0.352-5-1.582-6.016-3.203c-1.055,1.65-3.496,2.852-6.113,3.203l-0.547-1.191c2.988-0.332,5.859-2.012,5.859-3.75
					h-5.137V28.11h5.156v-1.699h1.523v1.699h5.195v1.191h-5.156C101.492,31.001,104.266,32.681,107.254,33.052z M94.305,23.931
					h5.137v-4.609h-5.137V23.931z M106.199,26.919h-1.504v-9.98h1.504V26.919z"/>
			</g>
			<g enable-background="new    ">
				<path fill="#484848" d="M23.094,53.321l-0.879,1.211c-1.953-0.947-3.604-3.018-4.375-5.371
					c-0.801,2.559-2.549,4.805-4.492,5.801l-0.938-1.211c2.5-1.211,4.648-4.512,4.668-7.48v-2.266h-4.043v-1.27h9.453v1.27h-3.906
					v2.266C18.563,49.063,20.574,52.13,23.094,53.321z M26.141,47.97h2.91v1.309h-2.91v9.023h-1.523V40.938h1.523V47.97z"/>
				<path fill="#484848" d="M45.828,50.763h-15.84v-1.23h7.168v-2.031H32v-5.742h11.855v1.23H33.504v3.262h10.469v1.25h-5.332v2.031
					h7.188V50.763z M43.875,55.157c-0.02,2.012-2.246,3.125-5.977,3.145c-3.75-0.02-5.996-1.133-5.996-3.145
					c0-1.992,2.246-3.125,5.996-3.125C41.629,52.032,43.855,53.165,43.875,55.157z M33.465,55.157
					c-0.02,1.211,1.641,1.914,4.434,1.914c2.754,0,4.434-0.703,4.434-1.914c0-1.191-1.68-1.914-4.434-1.914
					C35.105,53.243,33.445,53.966,33.465,55.157z"/>
				<path fill="#484848" d="M51.844,53.614v-1.934c-2.021-0.225-3.34-1.406-3.32-3.125c-0.02-1.953,1.641-3.223,4.102-3.223
					c2.422,0,4.102,1.27,4.121,3.223c-0.02,1.719-1.357,2.9-3.359,3.145v1.855c1.621-0.078,3.252-0.205,4.766-0.43l0.098,1.172
					c-3.789,0.645-7.891,0.684-10.938,0.684l-0.254-1.309C48.475,53.673,50.125,53.673,51.844,53.614z M57.84,44.317H47.371v-1.25
					h4.473v-2.09h1.543v2.09h4.453V44.317z M49.949,48.556c0,1.211,1.074,1.992,2.676,1.973c1.582,0.02,2.656-0.762,2.656-1.973
					s-1.074-2.031-2.656-2.031C51.023,46.524,49.949,47.345,49.949,48.556z M60.75,48.341h2.773v1.289H60.75v8.672h-1.543V40.938
					h1.543V48.341z"/>
				<path fill="#484848" d="M78.426,53.282l-0.938,1.133c-1.709-1.025-2.92-2.9-3.516-5.117c-0.635,2.393-1.895,4.434-3.633,5.527
					l-0.977-1.152c2.422-1.445,3.828-4.609,3.828-7.773v-1.641h-3.34v-1.27h8.008v1.27h-3.184v1.641
					C74.676,48.907,76.023,51.896,78.426,53.282z M80.906,57.403h-1.445v-8.945h-2.93v-1.25h2.93v-5.84h1.445V57.403z
					 M84.422,58.302h-1.465V40.938h1.465V58.302z"/>
				<path fill="#484848" d="M95.848,47.579h3.887v-6.641h1.523v17.402h-1.523v-9.492h-3.867c-0.186,3.398-1.914,5.527-4.336,5.527
					c-2.559,0-4.355-2.344-4.355-6.035s1.797-6.035,4.355-6.055C93.895,42.306,95.594,44.327,95.848,47.579z M88.641,48.341
					c0,2.832,1.172,4.668,2.891,4.668c1.699,0,2.891-1.836,2.891-4.668s-1.191-4.668-2.891-4.688
					C89.813,43.673,88.641,45.509,88.641,48.341z"/>
				<path fill="#484848" d="M119.402,48.341l-0.82,1.191c-1.924-0.684-3.457-2.051-4.219-3.809
					c-0.742,1.982-2.314,3.496-4.375,4.238l-0.84-1.23c2.617-0.859,4.414-3.047,4.434-5.586v-1.641h1.504v1.641
					C115.066,45.431,116.863,47.501,119.402,48.341z M123.563,54.942h-9.707v1.895h10.352v1.23h-11.855v-4.297h9.688v-1.738h-9.727
					v-1.23h11.25V54.942z M123.563,49.923h-1.543v-4.512h-3.867v-1.27h3.867v-3.203h1.543V49.923z"/>
				<path fill="#484848" d="M137.508,53.438l-0.859,1.191c-2.002-0.889-3.701-2.773-4.512-5.078
					c-0.781,2.441-2.471,4.443-4.473,5.391l-0.859-1.191c2.578-1.172,4.551-4.102,4.551-7.148v-1.387h-4.082v-1.25h4.063v-2.695
					h1.523v2.695h4.043v1.25h-4.043v1.387C132.859,49.513,134.891,52.325,137.508,53.438z M140.77,58.302h-1.543V40.938h1.543
					V58.302z"/>
			</g>
		</g>
	</g>
</g>
<g id="g-root-sy_1_cu_958kn81wb95or-fill" transform="translate(14, 98)">
	<g id="sy_1_cu_958kn81wb95or-fill">
		<g>
			<path fill="#40587E" d="M10,106V10h216l-48,24v72H10z"/>
		</g>
	</g>
</g>
<g id="g-root-sy_2_cu_1uuw4901wb972k-fill" transform="translate(182.00009155273438, 98)">
	<g id="sy_2_cu_1uuw4901wb972k-fill">
		<g>
			<path fill="#4371BD" d="M10,130V34h216l-48,24v72H10z M58,10v24H10L58,10z"/>
		</g>
	</g>
</g>
<g id="g-root-sy_3_cu_1uuw4901wb972l-fill" transform="translate(350.0000915527344, 122)">
	<g id="sy_3_cu_1uuw4901wb972l-fill">
		<g>
			<path fill="#4F84DA" d="M10,130V34h216l-48,24v72H10z M58,10v24H10L58,10z"/>
		</g>
	</g>
</g>
<g id="g-root-sy_4_cu_1qf2m4k1wb97uu-fill" transform="translate(518.0001220703125, 146)">
	<g id="sy_4_cu_1qf2m4k1wb97uu-fill">
		<g>
			<path fill="#4E8BEF" d="M10,34v96h168V58l48-24H10z M58,10v24H10L58,10z"/>
		</g>
	</g>
</g>
<g id="g-root-sy_5_cu_1hjflvo1wb98nj-fill" transform="translate(686, 170)">
	<g id="sy_5_cu_1hjflvo1wb98nj-fill">
		<g>
			<path fill="#5B99FF" d="M10,130V34h216l-48,24v72H10z M58,10v24H10L58,10z"/>
		</g>
	</g>
</g>
<g id="g-root-sy_6_cu_1lz94041wb98n4-fill" transform="translate(854, 194)">
	<g id="sy_6_cu_1lz94041wb98n4-fill">
		<g>
			<path fill="#95BDFF" d="M10,130V34h156V22l48,60l-48,61v-13H10z M58,10v24H10L58,10z"/>
		</g>
	</g>
</g>
<g id="g-root-tx__m7yft01wbakui-fill" transform="translate(56, 134)">
	<g id="tx__m7yft01wbakui-fill">
		<g>
			<g enable-background="new    ">
				<path fill="#FFFFFF" d="M29.119,26.695H12.986v-2.012h6.055v-3.105h2.461v3.105h7.617V26.695z M27.303,31.188
					c-0.02,2.09-2.461,3.34-6.348,3.34c-3.848,0-6.328-1.25-6.328-3.34c0-2.129,2.48-3.359,6.328-3.359
					C24.842,27.828,27.283,29.059,27.303,31.188z M27.205,19c0,1.406,0,2.93-0.508,4.766l-2.441-0.234
					c0.391-1.611,0.439-2.813,0.469-4.023h-9.922v-1.953h12.402V19z M17.107,31.188c0,0.957,1.406,1.445,3.848,1.445
					s3.867-0.488,3.867-1.445c0-0.996-1.426-1.504-3.867-1.504S17.107,30.191,17.107,31.188z"/>
				<path fill="#FFFFFF" d="M40.486,19.82h-3.535c0.059,2.07,1.309,4.16,4.082,5.078l-1.23,1.953
					c-1.963-0.635-3.311-1.924-4.082-3.535c-0.791,1.816-2.207,3.281-4.316,4.004l-1.289-1.973c2.92-0.977,4.229-3.301,4.297-5.527
					h-3.574v-1.992h9.648V19.82z M45.271,31.129c-0.02,2.148-2.344,3.418-6.133,3.418s-6.113-1.27-6.113-3.418
					c0-2.168,2.324-3.418,6.113-3.438C42.928,27.711,45.252,28.961,45.271,31.129z M35.506,31.129c0,1.016,1.27,1.523,3.633,1.523
					s3.652-0.508,3.652-1.523c0-1.035-1.289-1.523-3.652-1.523S35.506,30.094,35.506,31.129z M45.213,27.301h-2.48v-4.199h-2.773
					V21.09h2.773v-4.336h2.48V27.301z"/>
				<path fill="#FFFFFF" d="M68.377,27.828h-6.699v2.871h-2.461v-2.871h-7.109v-1.953h16.27V27.828z M66.58,34.215H54.021v-4.922
					h2.461v2.93H66.58V34.215z M56.658,19.176h7.129V17.32h2.48v7.305h-12.07V17.32h2.461V19.176z M63.787,22.652v-1.621h-7.129
					v1.621H63.787z"/>
				<path fill="#FFFFFF" d="M80.115,24.781l-1.328,1.973c-1.914-0.645-3.213-1.924-3.965-3.535c-0.791,1.758-2.168,3.135-4.18,3.848
					l-1.348-1.992c2.969-0.957,4.238-3.281,4.258-5.703v-1.699h2.52v1.855C76.053,21.734,77.303,23.883,80.115,24.781z
					 M84.393,34.527h-2.48v-4.414h-9.727v-1.973h12.207V34.527z M84.393,27.34h-2.48v-5.234h-3.34v-2.051h3.34v-3.301h2.48V27.34z"
					/>
			</g>
		</g>
	</g>
</g>
<g id="g-root-tx__8whxfo1wbamfg-fill" transform="translate(212, 158)">
	<g id="tx__8whxfo1wbamfg-fill">
		<g>
			<g enable-background="new    ">
				<path fill="#FFFFFF" d="M26.666,28.785l-1.387,1.953c-1.982-0.908-3.398-2.725-4.18-4.863c-0.801,2.354-2.256,4.346-4.316,5.313
					l-1.445-1.973c2.969-1.387,4.453-4.688,4.473-7.617v-1.094h-3.77v-2.031h9.844v2.031H22.31v1.094
					C22.291,24.313,23.736,27.438,26.666,28.785z M29.771,23.531h2.617v2.09h-2.617v8.906h-2.5V16.754h2.5V23.531z"/>
				<path fill="#FFFFFF" d="M49.283,27.105h-16.25v-1.953h6.914v-1.523h-4.941v-6.094H47.33v1.934h-9.844v2.207h9.941v1.953h-5.039
					v1.523h6.895V27.105z M47.31,31.285c-0.02,2.07-2.344,3.262-6.191,3.262c-3.887,0-6.23-1.191-6.23-3.262
					c0-2.109,2.344-3.281,6.23-3.281C44.966,28.004,47.291,29.176,47.31,31.285z M37.427,31.285c-0.02,0.938,1.23,1.367,3.691,1.367
					c2.402,0,3.672-0.43,3.691-1.367c-0.02-0.918-1.289-1.387-3.691-1.387C38.658,29.898,37.408,30.367,37.427,31.285z"/>
				<path fill="#FFFFFF" d="M54.498,29.469v-1.523c-1.895-0.371-3.125-1.572-3.105-3.223c-0.02-1.992,1.777-3.34,4.375-3.34
					c2.539,0,4.355,1.348,4.375,3.34c-0.02,1.65-1.27,2.861-3.145,3.223v1.426c1.406-0.068,2.822-0.186,4.141-0.371l0.156,1.816
					c-3.789,0.703-7.852,0.723-10.859,0.723l-0.332-2.031C51.402,29.508,52.916,29.508,54.498,29.469z M61.001,20.68H50.455v-1.953
					h4.043v-1.875h2.5v1.875h4.004V20.68z M53.755,24.723c-0.02,0.938,0.801,1.445,2.012,1.445c1.172,0,1.973-0.508,1.973-1.445
					c0-0.918-0.801-1.445-1.973-1.445C54.556,23.277,53.736,23.805,53.755,24.723z M64.537,23.98h2.324v2.07h-2.324v8.477h-2.52
					V16.754h2.52V23.98z"/>
				<path fill="#FFFFFF" d="M82.935,23.648l-1.309,1.914c-1.904-0.615-3.232-1.807-4.004-3.34c-0.771,1.709-2.178,3.057-4.258,3.711
					l-1.289-1.973c2.949-0.859,4.258-3.027,4.277-5.332V17.34h2.52v1.289C78.853,20.758,80.103,22.809,82.935,23.648z
					 M87.193,31.285h-9.336v1.094h9.844v1.953H75.396v-4.863h9.336v-1.016h-9.355v-1.914h11.816V31.285z M87.193,25.797h-2.48
					v-4.414h-3.34V19.41h3.34v-2.656h2.48V25.797z"/>
				<path fill="#FFFFFF" d="M101.197,33.746h-2.363v-5.859h-2.52v-2.012h2.52v-2.422h-2.188c-0.83,2.93-2.627,5.41-5.957,7.383
					l-1.465-1.758c3.604-2.129,5.186-4.717,5.527-8.203h-4.492v-2.012h6.973c0,0.889-0.059,1.748-0.156,2.578h1.758v-4.297h2.363
					V33.746z M104.908,34.527h-2.344V16.754h2.344V34.527z"/>
			</g>
		</g>
	</g>
</g>
<g id="g-root-tx__4gofb81wban7q-fill" transform="translate(380, 182)">
	<g id="tx__4gofb81wban7q-fill">
		<g>
			<g enable-background="new    ">
				<path fill="#FFFFFF" d="M22.108,28.941l-1.465,1.836c-1.582-0.938-2.627-2.529-3.223-4.434c-0.615,2.07-1.689,3.828-3.32,4.824
					l-1.504-1.836c2.617-1.602,3.594-4.805,3.594-7.813v-0.957h-2.91V18.57h8.008v1.992h-2.695v0.957
					C18.592,24.469,19.51,27.457,22.108,28.941z M24.706,33.707h-2.344v-8.848h-2.344v-2.012h2.344v-5.801h2.344V33.707z
					 M28.338,34.527h-2.363V16.754h2.363V34.527z"/>
				<path fill="#FFFFFF" d="M40.35,19.781h-3.535c0.02,2.08,1.25,4.209,4.141,5.137l-1.27,1.934
					c-1.973-0.635-3.33-1.904-4.102-3.496c-0.791,1.738-2.207,3.115-4.277,3.789l-1.328-1.914c2.939-0.947,4.277-3.223,4.316-5.449
					h-3.633v-1.992h9.688V19.781z M44.354,34.527h-2.5v-4.316h-9.473v-1.973h11.973V34.527z M44.354,21.07h2.402v2.07h-2.402v4.336
					h-2.5V16.754h2.5V21.07z"/>
				<path fill="#FFFFFF" d="M61.737,25.309h-8.691v-7.48h8.691V25.309z M67.323,29.664h-4.98c0.273,1.211,2.148,2.607,5.664,2.949
					l-0.84,1.875c-2.959-0.273-5.059-1.348-6.133-2.754c-1.104,1.426-3.213,2.471-6.191,2.754l-0.859-1.875
					c3.564-0.283,5.439-1.709,5.703-2.949h-4.98v-1.855h5.059v-1.465h2.5v1.465h5.059V29.664z M55.506,23.355h3.75v-3.594h-3.75
					V23.355z M67.01,26.832h-2.48V16.754h2.48V26.832z"/>
				<path fill="#FFFFFF" d="M84.764,23.648l-1.309,1.914c-1.904-0.615-3.232-1.807-4.004-3.34c-0.771,1.709-2.178,3.057-4.258,3.711
					l-1.289-1.973c2.949-0.859,4.258-3.027,4.277-5.332V17.34h2.52v1.289C80.682,20.758,81.932,22.809,84.764,23.648z
					 M89.022,31.285h-9.336v1.094h9.844v1.953H77.225v-4.863h9.336v-1.016h-9.355v-1.914h11.816V31.285z M89.022,25.797h-2.48
					v-4.414h-3.34V19.41h3.34v-2.656h2.48V25.797z"/>
				<path fill="#FFFFFF" d="M102.694,29.02l-1.348,1.914c-2.021-0.83-3.467-2.529-4.277-4.57c-0.791,2.168-2.246,3.984-4.316,4.844
					l-1.328-1.914c2.93-1.27,4.375-4.258,4.375-6.973v-0.684H92.01v-1.992h3.77v-2.5h2.48v2.5h3.711v1.992H98.28v0.684
					C98.28,24.898,99.745,27.809,102.694,29.02z M106.19,34.527h-2.5V16.754h2.5V34.527z"/>
			</g>
		</g>
	</g>
</g>
<g id="g-root-tx__1q6yg041wbalfs-fill" transform="translate(542, 206)">
	<g id="tx__1q6yg041wbalfs-fill">
		<g>
			<g enable-background="new    ">
				<path fill="#FFFFFF" d="M23.703,28.59l-1.465,1.992c-2.031-0.918-3.438-2.686-4.238-4.883c-0.811,2.393-2.266,4.326-4.434,5.313
					l-1.504-2.07c3.105-1.309,4.609-4.707,4.629-8.164v-2.656h2.52v2.656C19.211,24.039,20.695,27.32,23.703,28.59z M27.18,34.566
					h-2.52V16.754h2.52V34.566z"/>
				<path fill="#FFFFFF" d="M45.832,27.398h-6.738v3.086h-2.52v-3.086h-7.012v-1.992h16.27V27.398z M44.113,20.777
					c-0.02,2.266-2.578,3.672-6.426,3.672c-3.867,0-6.445-1.406-6.445-3.672c0-2.246,2.578-3.672,6.445-3.691
					C41.535,17.105,44.094,18.531,44.113,20.777z M44.035,34.215H31.496v-5.313h2.52v3.301h10.02V34.215z M33.938,20.777
					c-0.02,1.094,1.445,1.68,3.75,1.68c2.285,0,3.75-0.586,3.75-1.68c0-1.133-1.465-1.719-3.75-1.719
					C35.383,19.059,33.918,19.645,33.938,20.777z"/>
				<path fill="#FFFFFF" d="M57.668,25.426l-1.23,1.973c-1.973-0.635-3.32-1.934-4.102-3.555c-0.781,1.797-2.197,3.223-4.297,3.926
					l-1.27-2.031c2.93-0.918,4.258-3.242,4.277-5.508v-0.273h-3.574v-1.992h9.648v1.992h-3.535v0.293
					C53.586,22.301,54.836,24.508,57.668,25.426z M62.277,34.215H50.051v-5.605h2.5v3.613h9.727V34.215z M61.848,29.742h-2.48
					v-6.367h-2.91v-2.012h2.91v-4.59h2.48V29.742z"/>
				<path fill="#FFFFFF" d="M68.957,28.98c0-1.66,1.045-2.646,2.598-3.711c-0.762-0.947-1.367-1.982-1.367-3.242
					c0-2.051,1.523-3.633,3.848-3.633c2.266,0,3.652,1.523,3.652,3.32c0,1.348-0.684,2.402-1.875,3.262l-0.82,0.605l2.363,2.715
					c0.361-0.693,0.586-1.523,0.586-2.441h2.402c0,1.924-0.498,3.398-1.27,4.434l2.129,2.441h-3.027l-0.859-0.977
					c-1.045,0.83-2.383,1.191-3.633,1.191C70.754,32.945,68.957,31.207,68.957,28.98z M73.82,30.602
					c0.654,0,1.318-0.205,1.934-0.586l-2.715-3.027l-0.098,0.078c-0.801,0.586-1.172,1.211-1.172,1.758
					C71.77,29.84,72.57,30.602,73.82,30.602z M73.586,23.922l0.742-0.488c0.703-0.449,1.035-0.938,1.035-1.563
					c0-0.547-0.469-1.133-1.309-1.133c-0.82,0-1.387,0.605-1.387,1.328C72.668,22.662,73.039,23.258,73.586,23.922z"/>
				<path fill="#FFFFFF" d="M102.59,29.293h-3.75v5.234h-2.52v-5.234h-3.711v5.234h-2.48v-5.234H86.32v-2.031h16.27V29.293z
					 M100.852,26.012h-12.48v-8.535h12.285v1.953h-9.844v1.309h9.473v1.934h-9.473v1.367h10.039V26.012z"/>
				<path fill="#FFFFFF" d="M107.141,24c2.441-0.029,4.844-0.225,7.383-0.762l0.293,2.012c-2.949,0.625-5.762,0.82-8.633,0.801
					h-1.543v-8.184h2.5V24z M118.527,30.934c0,2.246-2.363,3.594-6.113,3.594c-3.77,0-6.152-1.348-6.133-3.594
					c-0.02-2.305,2.363-3.652,6.133-3.652C116.164,27.281,118.527,28.629,118.527,30.934z M108.762,30.934
					c0,1.055,1.289,1.621,3.652,1.621c2.344,0,3.594-0.566,3.613-1.621c-0.02-1.113-1.27-1.641-3.613-1.641
					C110.051,29.293,108.762,29.82,108.762,30.934z M118.449,27.066h-2.48V16.754h2.48V27.066z"/>
			</g>
		</g>
	</g>
</g>
<g id="g-root-tx__hs4xok1wbalmr-fill" transform="translate(26, 218)">
	<g id="tx__hs4xok1wbalmr-fill">
		<g>
			<g enable-background="new    ">
				<path fill="#484848" d="M22.547,20.337h-9.824v-1.25h4.219v-2.148h1.523v2.148h4.082V20.337z M21.648,24.614
					c0,1.973-1.641,3.32-3.965,3.32s-3.945-1.348-3.926-3.32c-0.02-1.992,1.602-3.32,3.926-3.32S21.648,22.622,21.648,24.614z
					 M15.184,24.614c0,1.25,1.016,2.09,2.5,2.09s2.5-0.84,2.52-2.09c-0.02-1.25-1.035-2.09-2.52-2.109
					C16.199,22.524,15.184,23.364,15.184,24.614z M27.488,33.931H15.867v-4.902h1.543v3.613h10.078V33.931z M27.098,30.2h-1.543
					v-3.73h-3.008v-1.25h3.008v-2.363h-3.008v-1.27h3.008v-4.629h1.543V30.2z"/>
				<path fill="#484848" d="M40.125,25.376l-0.723,1.211c-2.002-0.654-3.516-2.041-4.258-3.789
					c-0.752,1.992-2.354,3.545-4.434,4.297l-0.781-1.23c2.598-0.879,4.414-3.125,4.434-5.625v-0.742h-3.965v-1.27h9.375v1.27h-3.906
					v0.742C35.867,22.505,37.566,24.536,40.125,25.376z M43.719,31.06c0,2.031-2.148,3.203-5.723,3.203s-5.762-1.172-5.762-3.203
					c0-1.992,2.188-3.164,5.762-3.164S43.719,29.067,43.719,31.06z M33.777,31.06c-0.02,1.25,1.602,1.973,4.219,1.973
					c2.637,0,4.238-0.723,4.238-1.973c0-1.211-1.602-1.934-4.238-1.934C35.379,29.126,33.758,29.849,33.777,31.06z M43.563,21.372
					h2.617v1.289h-2.617v4.766h-1.523V16.938h1.523V21.372z"/>
				<path fill="#484848" d="M62.879,24.243l-0.762,1.191c-2.031-0.693-3.652-2.148-4.434-4.023
					c-0.781,2.021-2.412,3.613-4.473,4.355l-0.801-1.211c2.617-0.918,4.473-3.223,4.473-5.781v-1.328h1.563v1.328
					C58.426,21.235,60.301,23.403,62.879,24.243z M66.629,30.981h-9.746v1.875h10.371v1.25H55.379V29.79h9.727v-1.738H55.34v-1.23
					h11.289V30.981z M66.609,25.942h-1.504v-9.004h1.504V25.942z"/>
				<path fill="#484848" d="M85.398,26.958h-15.82v-1.25h15.82V26.958z M78.23,18.696h5.566v1.23h-5.469
					c0.107,1.973,2.852,3.33,6.133,3.613l-0.508,1.211c-2.861-0.313-5.42-1.367-6.465-3.125c-1.055,1.758-3.613,2.813-6.465,3.125
					l-0.508-1.211c3.262-0.283,6.006-1.641,6.133-3.613h-5.43v-1.23h5.508v-1.797h1.504V18.696z M83.445,34.302h-1.543v-4.219
					H71.336v-1.25h12.109V34.302z"/>
				<path fill="#484848" d="M100.945,25.142h-8.145v-7.07h8.145V25.142z M107.254,33.052l-0.527,1.191
					c-2.617-0.352-5-1.582-6.016-3.203c-1.055,1.65-3.496,2.852-6.113,3.203l-0.547-1.191c2.988-0.332,5.859-2.012,5.859-3.75
					h-5.137V28.11h5.156v-1.699h1.523v1.699h5.195v1.191h-5.156C101.492,31.001,104.266,32.681,107.254,33.052z M94.305,23.931
					h5.137v-4.609h-5.137V23.931z M106.199,26.919h-1.504v-9.98h1.504V26.919z"/>
			</g>
			<g enable-background="new    ">
				<path fill="#484848" d="M28.582,51.095h-7.07v3.555h-1.523v-3.555h-7.305v-1.27h15.898V51.095z M26.805,57.931h-12.09v-5h1.543
					v3.711h10.547V57.931z M26.512,47.833H14.754v-6.035h11.758V47.833z M16.258,46.603h8.73v-3.594h-8.73V46.603z"/>
				<path fill="#484848" d="M38.836,53.282l-0.938,1.133c-1.709-1.025-2.92-2.9-3.516-5.117c-0.635,2.393-1.895,4.434-3.633,5.527
					l-0.977-1.152c2.422-1.445,3.828-4.609,3.828-7.773v-1.641h-3.34v-1.27h8.008v1.27h-3.184v1.641
					C35.086,48.907,36.434,51.896,38.836,53.282z M41.316,57.403h-1.445v-8.945h-2.93v-1.25h2.93v-5.84h1.445V57.403z
					 M44.832,58.302h-1.465V40.938h1.465V58.302z"/>
				<path fill="#484848" d="M62.996,49.942l-0.781,1.23c-2.021-0.684-3.633-2.109-4.414-3.945c-0.762,1.982-2.393,3.545-4.453,4.297
					l-0.801-1.23C55.145,49.376,57,47.13,57,44.669v-1.016h-4.063v-1.25h9.609v1.25h-4.004v1.016
					C58.543,47.013,60.398,49.122,62.996,49.942z M67.176,57.931H55.418v-5.449h1.523v4.16h10.234V57.931z M66.629,53.692h-1.523
					V40.958h1.523V53.692z"/>
				<path fill="#484848" d="M78.133,43.731h-6.211v5.41c3.486,0,5.469-0.088,7.793-0.566l0.195,1.27
					c-2.441,0.469-4.512,0.586-8.164,0.586h-1.348v-7.988h7.734V43.731z M83.953,57.931h-11.66v-5.684h1.504v4.395h10.156V57.931z
					 M83.152,46.114h2.637v1.289h-2.637v6.113h-1.523V40.938h1.523V46.114z"/>
			</g>
		</g>
	</g>
</g>
<g id="g-root-tx__8whxfo1wbamfh-fill" transform="translate(194, 242)">
	<g id="tx__8whxfo1wbamfh-fill">
		<g>
			<g enable-background="new    ">
				<path fill="#484848" d="M21.277,24.771h-6.328v4.063c3.223,0,5.469-0.107,8.105-0.605l0.156,1.27
					c-2.734,0.508-5.059,0.625-8.398,0.645h-1.387v-6.641h6.328v-3.672h-6.367v-1.27h7.891V24.771z M26.141,23.853h2.91v1.289h-2.91
					v9.199h-1.523V16.938h1.523V23.853z"/>
				<path fill="#484848" d="M39.5,22.427c0,2.539-1.953,4.277-4.551,4.277s-4.551-1.738-4.551-4.277c0-2.5,1.953-4.258,4.551-4.258
					S39.5,19.927,39.5,22.427z M31.902,22.427c-0.02,1.738,1.289,2.93,3.047,2.93c1.719,0,3.047-1.191,3.047-2.93
					c0-1.699-1.328-2.91-3.047-2.91C33.191,19.517,31.883,20.728,31.902,22.427z M44.871,33.931H33.113v-5.566h1.523v4.277h10.234
					V33.931z M44.324,29.653h-1.523V16.958h1.523V29.653z"/>
				<path fill="#484848" d="M62.527,24.341l-0.82,1.191c-1.924-0.684-3.457-2.051-4.219-3.809c-0.742,1.982-2.314,3.496-4.375,4.238
					l-0.84-1.23c2.617-0.859,4.414-3.047,4.434-5.586v-1.641h1.504v1.641C58.191,21.431,59.988,23.501,62.527,24.341z
					 M66.688,30.942H56.98v1.895h10.352v1.23H55.477v-4.297h9.688v-1.738h-9.727v-1.23h11.25V30.942z M66.688,25.923h-1.543v-4.512
					h-3.867v-1.27h3.867v-3.203h1.543V25.923z"/>
				<path fill="#484848" d="M80.926,33.423h-1.465v-6.016h-3.223v-1.27h3.223v-3.086h-2.93c-0.85,2.939-2.754,5.537-6.035,7.5
					l-0.938-1.113c3.779-2.236,5.674-5.371,5.977-9.004H70.34v-1.27h6.719c0,0.889-0.078,1.768-0.234,2.617h2.637v-4.375h1.465
					V33.423z M84.441,34.302h-1.465V16.938h1.465V34.302z"/>
				<path fill="#484848" d="M100.945,25.142h-8.145v-7.07h8.145V25.142z M107.254,33.052l-0.527,1.191
					c-2.617-0.352-5-1.582-6.016-3.203c-1.055,1.65-3.496,2.852-6.113,3.203l-0.547-1.191c2.988-0.332,5.859-2.012,5.859-3.75
					h-5.137V28.11h5.156v-1.699h1.523v1.699h5.195v1.191h-5.156C101.492,31.001,104.266,32.681,107.254,33.052z M94.305,23.931
					h5.137v-4.609h-5.137V23.931z M106.199,26.919h-1.504v-9.98h1.504V26.919z"/>
			</g>
			<g enable-background="new    ">
				<path fill="#484848" d="M22.84,49.376l-0.723,1.211c-2.002-0.654-3.516-2.041-4.258-3.789c-0.752,1.992-2.354,3.545-4.434,4.297
					l-0.781-1.23c2.598-0.879,4.414-3.125,4.434-5.625v-0.742h-3.965v-1.27h9.375v1.27h-3.906v0.742
					C18.582,46.505,20.281,48.536,22.84,49.376z M26.434,55.06c0,2.031-2.148,3.203-5.723,3.203s-5.762-1.172-5.762-3.203
					c0-1.992,2.188-3.164,5.762-3.164S26.434,53.067,26.434,55.06z M16.492,55.06c-0.02,1.25,1.602,1.973,4.219,1.973
					c2.637,0,4.238-0.723,4.238-1.973c0-1.211-1.602-1.934-4.238-1.934C18.094,53.126,16.473,53.849,16.492,55.06z M26.277,45.372
					h2.617v1.289h-2.617v4.766h-1.523V40.938h1.523V45.372z"/>
				<path fill="#484848" d="M32.527,47.013h5.176v-4.59h1.504v11.719h-8.203V42.423h1.523V47.013z M37.703,52.853v-4.609h-5.176
					v4.609H37.703z M44.305,58.341h-1.543V40.938h1.543V58.341z"/>
				<path fill="#484848" d="M62.527,49.845l-0.859,1.191c-1.904-0.762-3.418-2.275-4.16-4.16c-0.742,2.1-2.324,3.77-4.375,4.59
					l-0.82-1.25c2.598-0.957,4.395-3.379,4.414-6.055v-2.148h1.504v2.207C58.23,46.642,59.988,48.927,62.527,49.845z M67.078,57.931
					H55.457v-5.449H57v4.16h10.078V57.931z M66.688,53.966h-1.543v-7.637h-3.867V45.04h3.867v-4.082h1.543V53.966z"/>
				<path fill="#484848" d="M79.891,49.415l-0.801,1.23c-1.953-0.703-3.467-2.158-4.199-3.965c-0.762,2.041-2.373,3.672-4.434,4.453
					l-0.801-1.23c2.578-0.938,4.414-3.281,4.414-5.762v-0.645h-3.926v-1.289H79.5v1.289h-3.887v0.625
					C75.613,46.388,77.352,48.536,79.891,49.415z M84.031,55.06c0,2.051-2.207,3.223-5.82,3.242c-3.613-0.02-5.82-1.191-5.82-3.242
					s2.207-3.223,5.82-3.223S84.031,53.009,84.031,55.06z M73.914,55.06c-0.02,1.25,1.641,2.012,4.297,2.012
					s4.297-0.762,4.297-2.012c0-1.27-1.641-2.031-4.297-2.031S73.895,53.79,73.914,55.06z M83.973,51.29H82.43v-4.551h-3.496v-1.27
					h3.496v-4.531h1.543V51.29z"/>
			</g>
		</g>
	</g>
</g>
<g id="g-root-tx__1lr4xvo1wbam82-fill" transform="translate(716, 230)">
	<g id="tx__1lr4xvo1wbam82-fill">
		<g>
			<g enable-background="new    ">
				<path fill="#FFFFFF" d="M26.489,28.551l-1.504,1.992c-1.904-0.938-3.184-2.695-3.926-4.844c-0.771,2.305-2.148,4.189-4.16,5.176
					l-1.543-2.012c3.008-1.387,4.434-4.785,4.434-8.086v-2.656h2.5v2.656C22.271,23.961,23.638,27.184,26.489,28.551z
					 M29.771,23.609h2.617v2.109h-2.617v8.809h-2.5V16.754h2.5V23.609z"/>
				<path fill="#FFFFFF" d="M49.243,27.164H33.032v-1.992h3.652v-2.129c-1.299-0.576-2.031-1.455-2.031-2.598
					c0-2.148,2.52-3.438,6.484-3.438c3.926,0,6.445,1.289,6.465,3.438c-0.01,1.152-0.771,2.051-2.09,2.617v2.109h3.73V27.164z
					 M47.31,31.285c-0.02,2.09-2.344,3.223-6.191,3.223c-3.906,0-6.23-1.133-6.23-3.223c0-2.051,2.324-3.184,6.23-3.184
					C44.966,28.102,47.29,29.234,47.31,31.285z M37.251,20.445c-0.02,0.977,1.367,1.465,3.887,1.465c2.48,0,3.887-0.488,3.887-1.465
					c0-0.996-1.406-1.523-3.887-1.523C38.618,18.922,37.231,19.449,37.251,20.445z M37.427,31.285
					c-0.02,0.918,1.23,1.367,3.691,1.367c2.402,0,3.672-0.449,3.691-1.367c-0.02-0.879-1.289-1.309-3.691-1.309
					C38.657,29.977,37.407,30.406,37.427,31.285z M43.032,25.172v-1.484c-0.586,0.068-1.221,0.098-1.895,0.098
					c-0.693,0-1.338-0.029-1.934-0.117v1.504H43.032z"/>
				<path fill="#FFFFFF" d="M61.235,28.785l-1.387,1.953c-1.982-0.908-3.398-2.725-4.18-4.863c-0.801,2.354-2.256,4.346-4.316,5.313
					l-1.445-1.973c2.969-1.387,4.453-4.688,4.473-7.617v-1.094h-3.77v-2.031h9.844v2.031H56.88v1.094
					C56.86,24.313,58.306,27.438,61.235,28.785z M64.341,23.531h2.617v2.09h-2.617v8.906h-2.5V16.754h2.5V23.531z"/>
				<path fill="#FFFFFF" d="M88.423,32.359H72.212v-2.031h3.457v-5.586h2.48v5.586h1.953v-5.586h2.461v5.586h5.859V32.359z
					 M86.958,20.035c-0.02,2.168-0.02,4.609-0.664,8.184l-2.441-0.215c0.586-3.252,0.605-5.674,0.605-7.734H73.813v-1.973h13.145
					V20.035z"/>
				<path fill="#FFFFFF" d="M105.708,27.027h-3.906v1.66h1.934v5.84h-2.48v-3.887h-9.961v-1.953h2.031v-1.66h-3.828v-1.973h16.211
					V27.027z M104.067,20.602c-0.02,2.168-2.559,3.516-6.465,3.516c-3.926,0-6.484-1.348-6.484-3.516s2.559-3.516,6.484-3.496
					C101.509,17.086,104.048,18.434,104.067,20.602z M93.716,20.602c-0.02,1.055,1.406,1.582,3.887,1.582
					c2.461,0,3.887-0.527,3.887-1.582c0-1.016-1.426-1.563-3.887-1.563C95.122,19.039,93.696,19.586,93.716,20.602z M99.341,28.688
					v-1.66h-3.496v1.66H99.341z"/>
			</g>
		</g>
	</g>
</g>
<g id="g-root-tx__18gawlg1wbakn8-fill" transform="translate(878, 254)">
	<g id="tx__18gawlg1wbakn8-fill">
		<g>
			<g enable-background="new    ">
				<path fill="#FFFFFF" d="M28.797,28.648h-3.809v5.879h-2.539v-5.879h-3.633v5.879h-2.559v-5.879h-3.73v-2.012h16.27V28.648z
					 M27.098,21.363c0,2.402-2.676,3.906-6.484,3.906s-6.465-1.504-6.445-3.906c-0.02-2.441,2.637-4.023,6.445-4.023
					S27.098,18.922,27.098,21.363z M16.727,21.363c-0.02,1.25,1.504,1.953,3.887,1.953c2.402,0,3.906-0.703,3.906-1.953
					c0-1.309-1.504-2.031-3.906-2.031C18.23,19.332,16.707,20.055,16.727,21.363z"/>
				<path fill="#FFFFFF" d="M41.18,28.785l-1.348,1.953c-2.1-0.889-3.545-2.656-4.336-4.824c-0.811,2.354-2.285,4.307-4.375,5.273
					l-1.426-1.973c2.949-1.309,4.473-4.609,4.473-7.617v-1.094h-3.77v-2.031h10.039v2.031h-3.711v1.094
					C36.727,24.469,38.191,27.535,41.18,28.785z M44.715,34.527h-2.52V16.754h2.52V34.527z"/>
				<path fill="#FFFFFF" d="M63.387,32.457h-16.27v-2.031h6.855v-3.281h-5.137v-9.258h2.5v2.754h7.754v-2.754h2.48v9.258h-5.117
					v3.281h6.934V32.457z M59.09,25.152v-2.52h-7.754v2.52H59.09z"/>
				<path fill="#FFFFFF" d="M80.613,28.453h-6.914v6.074h-2.461v-6.074h-6.836v-2.031h16.211V28.453z M80.047,23.063l-0.977,2.012
					c-3.105-0.449-5.381-1.885-6.543-3.809c-1.172,1.924-3.428,3.359-6.504,3.809l-0.996-2.012c4.043-0.508,6.191-2.832,6.191-4.922
					v-0.859h2.617v0.859C73.836,20.23,75.965,22.555,80.047,23.063z"/>
				<path fill="#FFFFFF" d="M97.645,28.785l-1.348,1.953c-2.1-0.889-3.545-2.656-4.336-4.824c-0.811,2.354-2.285,4.307-4.375,5.273
					l-1.426-1.973c2.949-1.309,4.473-4.609,4.473-7.617v-1.094h-3.77v-2.031h10.039v2.031h-3.711v1.094
					C93.191,24.469,94.656,27.535,97.645,28.785z M101.18,34.527h-2.52V16.754h2.52V34.527z"/>
				<path fill="#FFFFFF" d="M119.031,34.215h-13.242v-5.313h2.48v-2.363c-1.592,0.068-3.105,0.078-4.453,0.078l-0.293-1.973
					c3.262-0.02,7.656-0.059,11.406-0.527l0.137,1.777c-1.406,0.234-2.861,0.4-4.297,0.508v3.379h-2.5v2.441h10.762V34.215z
					 M113.738,20.563c0,1.895-1.855,3.125-4.434,3.125c-2.637,0-4.473-1.23-4.473-3.125s1.816-3.203,4.473-3.184
					C111.883,17.359,113.738,18.668,113.738,20.563z M107.195,20.563c-0.02,0.859,0.84,1.328,2.109,1.328
					c1.191,0,2.051-0.469,2.07-1.328c-0.02-0.879-0.879-1.367-2.07-1.367C108.035,19.195,107.176,19.684,107.195,20.563z
					 M118.641,30.191h-2.5v-1.406h-3.398v-1.699h3.398V16.773h2.5V30.191z"/>
			</g>
		</g>
	</g>
</g>
<g id="g-root-tx__1q6yg041wbalft-fill" transform="translate(530, 290)">
	<g id="tx__1q6yg041wbalft-fill">
		<g>
			<g enable-background="new    ">
				<path fill="#484848" d="M23.016,25.415l-0.801,1.23c-1.953-0.703-3.467-2.158-4.199-3.965c-0.762,2.041-2.373,3.672-4.434,4.453
					l-0.801-1.23c2.578-0.938,4.414-3.281,4.414-5.762v-0.645H13.27v-1.289h9.355v1.289h-3.887v0.625
					C18.738,22.388,20.477,24.536,23.016,25.415z M27.156,31.06c0,2.051-2.207,3.223-5.82,3.242c-3.613-0.02-5.82-1.191-5.82-3.242
					s2.207-3.223,5.82-3.223S27.156,29.009,27.156,31.06z M17.039,31.06c-0.02,1.25,1.641,2.012,4.297,2.012
					s4.297-0.762,4.297-2.012c0-1.27-1.641-2.031-4.297-2.031S17.02,29.79,17.039,31.06z M27.098,27.29h-1.543v-4.551h-3.496v-1.27
					h3.496v-4.531h1.543V27.29z"/>
				<path fill="#484848" d="M39.051,24.985h-8.145v-7.07h8.145V24.985z M32.41,23.774h5.137v-4.609H32.41V23.774z M44.305,30.903
					h-9.727v1.953H44.93v1.25H33.055v-4.336h9.746v-1.777h-9.766v-1.23h11.27V30.903z M44.305,25.903h-1.504v-8.965h1.504V25.903z"
					/>
				<path fill="#484848" d="M59.441,20.298h-5v3.438h4.199v1.23h-4.199v3.906c2.49-0.029,4.014-0.117,5.898-0.469l0.137,1.25
					c-2.012,0.41-3.652,0.449-6.406,0.469h-1.094V19.067h6.465V20.298z M63.602,33.403h-1.465V24.81h-2.559v-1.27h2.559v-6.172
					h1.465V33.403z M67.156,34.302h-1.484V16.938h1.484V34.302z"/>
				<path fill="#484848" d="M85.477,31.938H69.578v-1.27h15.898V31.938z M84.656,25.688l-0.703,1.289
					c-2.617-0.605-5.381-2.471-6.504-5.039c-1.123,2.559-3.877,4.424-6.504,5.039l-0.703-1.289c3.008-0.586,6.387-3.203,6.387-6.191
					v-1.328h1.602v1.328C78.23,22.466,81.629,25.122,84.656,25.688z"/>
				<path fill="#484848" d="M102.762,32.036H86.863v-1.27h15.898V32.036z M100.926,27.583H88.914v-9.141h11.816v1.289H90.477v2.578
					h9.883v1.23h-9.883v2.793h10.449V27.583z"/>
			</g>
			<g enable-background="new    ">
				<path fill="#484848" d="M21.766,49.142h-8.145v-7.07h8.145V49.142z M28.074,57.052l-0.527,1.191
					c-2.617-0.352-5-1.582-6.016-3.203c-1.055,1.65-3.496,2.852-6.113,3.203l-0.547-1.191c2.988-0.332,5.859-2.012,5.859-3.75
					h-5.137V52.11h5.156v-1.699h1.523v1.699h5.195v1.191h-5.156C22.313,55.001,25.086,56.681,28.074,57.052z M15.125,47.931h5.137
					v-4.609h-5.137V47.931z M27.02,50.919h-1.504v-9.98h1.504V50.919z"/>
				<path fill="#484848" d="M41.59,53.282c1.67-0.068,3.379-0.215,4.98-0.449l0.117,1.133c-3.965,0.723-8.242,0.742-11.367,0.742
					l-0.215-1.27c1.455-0.01,3.174-0.02,4.98-0.078v-3.262h1.504V53.282z M45.672,44.493H41.59c0.039,2.246,1.904,4.072,4.473,4.805
					l-0.723,1.211c-2.09-0.625-3.721-1.963-4.492-3.73c-0.762,1.865-2.383,3.252-4.473,3.887l-0.742-1.172
					c2.568-0.752,4.375-2.656,4.414-5h-3.984v-1.27h4.023v-2.148h1.504v2.148h4.082V44.493z M49.246,58.341h-1.523V40.938h1.523
					V58.341z"/>
				<path fill="#484848" d="M62.605,49.435l-0.801,1.211c-1.963-0.703-3.477-2.158-4.219-3.945
					c-0.752,2.002-2.354,3.604-4.414,4.355l-0.801-1.211c2.559-0.918,4.414-3.242,4.414-5.684v-0.762h-3.926v-1.25h9.355v1.25
					h-3.887v0.742C58.328,46.407,60.066,48.556,62.605,49.435z M66.688,58.302h-1.543v-4.766H55.008v-1.27h11.68V58.302z
					 M66.688,51.349h-1.543v-4.57h-3.477v-1.289h3.477v-4.551h1.543V51.349z"/>
				<path fill="#484848" d="M74.148,53.614v-1.934c-2.021-0.225-3.34-1.406-3.32-3.125c-0.02-1.953,1.641-3.223,4.102-3.223
					c2.422,0,4.102,1.27,4.121,3.223c-0.02,1.719-1.357,2.9-3.359,3.145v1.855c1.621-0.078,3.252-0.205,4.766-0.43l0.098,1.172
					c-3.789,0.645-7.891,0.684-10.938,0.684l-0.254-1.309C70.779,53.673,72.43,53.673,74.148,53.614z M80.145,44.317H69.676v-1.25
					h4.473v-2.09h1.543v2.09h4.453V44.317z M72.254,48.556c0,1.211,1.074,1.992,2.676,1.973c1.582,0.02,2.656-0.762,2.656-1.973
					s-1.074-2.031-2.656-2.031C73.328,46.524,72.254,47.345,72.254,48.556z M83.055,48.341h2.773v1.289h-2.773v8.672h-1.543V40.938
					h1.543V48.341z"/>
			</g>
		</g>
	</g>
</g>
<g id="g-root-tx__1cvhxms1wban0r-fill" transform="translate(698, 314)">
	<g id="tx__1cvhxms1wban0r-fill">
		<g>
			<g enable-background="new    ">
				<path fill="#484848" d="M22.859,25.474l-0.781,1.191c-1.982-0.703-3.496-2.129-4.238-3.926
					c-0.742,1.973-2.334,3.506-4.375,4.258l-0.82-1.191c2.598-0.918,4.414-3.164,4.434-5.645v-0.742h-3.965v-1.25h9.375v1.25h-3.906
					v0.742C18.582,22.466,20.281,24.575,22.859,25.474z M26.277,34.302h-1.523v-4.727H14.91v-1.25h11.367V34.302z M26.277,21.528
					h2.617v1.309h-2.617v4.57h-1.523V16.938h1.523V21.528z"/>
				<path fill="#484848" d="M39.207,21.099h3.633v-4.16h1.543v9.316H42.84v-3.887h-3.613c-0.313,2.051-2.1,3.418-4.453,3.418
					c-2.637,0-4.512-1.641-4.512-4.023c0-2.363,1.875-4.023,4.512-4.004C37.107,17.739,38.875,19.097,39.207,21.099z M31.727,21.763
					c0,1.582,1.27,2.734,3.047,2.734c1.758,0,3.008-1.152,3.008-2.734c0-1.602-1.25-2.715-3.008-2.695
					C32.996,19.048,31.727,20.161,31.727,21.763z M34.734,29.341h8.105v-2.207h1.543v6.934H33.191v-6.934h1.543V29.341z
					 M42.84,32.817v-2.246h-8.105v2.246H42.84z"/>
				<path fill="#484848" d="M57.664,29.321l-0.879,1.211c-1.953-0.947-3.604-3.018-4.375-5.371
					c-0.801,2.559-2.549,4.805-4.492,5.801l-0.938-1.211c2.5-1.211,4.648-4.512,4.668-7.48v-2.266h-4.043v-1.27h9.453v1.27h-3.906
					v2.266C53.133,25.063,55.145,28.13,57.664,29.321z M60.711,23.97h2.91v1.309h-2.91v9.023h-1.523V16.938h1.523V23.97z"/>
				<path fill="#484848" d="M78.641,25.142h-8.145v-7.07h8.145V25.142z M84.949,33.052l-0.527,1.191
					c-2.617-0.352-5-1.582-6.016-3.203c-1.055,1.65-3.496,2.852-6.113,3.203l-0.547-1.191c2.988-0.332,5.859-2.012,5.859-3.75
					h-5.137V28.11h5.156v-1.699h1.523v1.699h5.195v1.191h-5.156C79.188,31.001,81.961,32.681,84.949,33.052z M72,23.931h5.137
					v-4.609H72V23.931z M83.895,26.919h-1.504v-9.98h1.504V26.919z"/>
			</g>
			<g enable-background="new    ">
				<path fill="#484848" d="M17.859,49.864c1.924-0.078,3.916-0.215,5.723-0.469l0.098,1.133c-3.633,0.625-7.832,0.703-10.918,0.703
					l-0.156-1.27c1.123-0.01,2.393-0.02,3.73-0.059v-3.77h1.523V49.864z M22.332,43.204c-0.02,1.133-0.02,2.871-0.449,5.137
					l-1.543-0.117c0.42-2.08,0.459-3.555,0.488-4.648H13.68v-1.289h8.652V43.204z M26.883,57.931H15.281v-5.098h1.543v3.809h10.059
					V57.931z M26.316,46.603h2.539v1.309h-2.539v6.094h-1.563V40.938h1.563V46.603z"/>
				<path fill="#484848" d="M39.051,48.731h-6.484v4.102c2.881,0,5.449-0.127,8.555-0.625l0.156,1.289
					c-3.203,0.508-5.84,0.625-8.828,0.625h-1.445v-6.641h6.504v-3.652h-6.543v-1.27h8.086V48.731z M44.324,58.341h-1.523V40.938
					h1.523V58.341z"/>
				<path fill="#484848" d="M57.664,53.321l-0.879,1.211c-1.953-0.947-3.604-3.018-4.375-5.371
					c-0.801,2.559-2.549,4.805-4.492,5.801l-0.938-1.211c2.5-1.211,4.648-4.512,4.668-7.48v-2.266h-4.043v-1.27h9.453v1.27h-3.906
					v2.266C53.133,49.063,55.145,52.13,57.664,53.321z M60.711,47.97h2.91v1.309h-2.91v9.023h-1.523V40.938h1.523V47.97z"/>
				<path fill="#484848" d="M85.398,55.841h-15.82v-1.27h3.926v-5.723h1.523v5.723h2.813v-5.723h1.504v5.723h6.055V55.841z
					 M83.523,44.63c0,2.227,0,4.473-0.625,7.695l-1.504-0.176c0.625-3.066,0.625-5.352,0.625-7.52v-0.664H71.238v-1.27h12.285V44.63
					z"/>
				<path fill="#484848" d="M102.684,50.567h-4.219v2.207h2.266v5.527h-1.543v-4.297H88.621v-1.23h2.441v-2.207h-4.199v-1.25h15.82
					V50.567z M100.906,44.669c0,2.09-2.363,3.34-6.133,3.32c-3.77,0.02-6.152-1.23-6.152-3.32c0-2.07,2.383-3.32,6.152-3.301
					C98.543,41.349,100.906,42.599,100.906,44.669z M90.203,44.669c-0.02,1.328,1.758,2.129,4.57,2.129
					c2.773,0,4.57-0.801,4.57-2.129c0-1.289-1.797-2.09-4.57-2.07C91.961,42.579,90.184,43.38,90.203,44.669z M96.961,52.774v-2.207
					h-4.355v2.207H96.961z"/>
			</g>
		</g>
	</g>
</g>
<g id="g-root-tx__zknwck1wbalfx-fill" transform="translate(866, 338)">
	<g id="tx__zknwck1wbalfx-fill">
		<g>
			<g enable-background="new    ">
				<path fill="#484848" d="M23.914,24.497l0.098,1.113c-1.553,0.244-3.174,0.4-4.766,0.488v3.438h-1.543v-3.359
					c-1.758,0.078-3.428,0.088-4.883,0.078l-0.215-1.25C15.848,24.985,20.184,24.966,23.914,24.497z M22.605,20.688
					c-0.02,1.855-1.758,3.008-4.297,3.008c-2.559,0-4.297-1.152-4.297-3.008c0-1.816,1.738-3.027,4.297-3.027
					C20.848,17.661,22.586,18.872,22.605,20.688z M27.449,33.931H15.105v-5.078h1.543v3.789h10.801V33.931z M15.477,20.688
					c-0.02,1.133,1.133,1.875,2.832,1.875c1.641,0,2.813-0.742,2.832-1.875c-0.02-1.113-1.191-1.875-2.832-1.855
					C16.609,18.813,15.457,19.575,15.477,20.688z M27.02,30.142h-1.543v-1.797h-3.594v-1.113h3.594V16.958h1.543V30.142z"/>
				<path fill="#484848" d="M38.934,20.063h3.906v-3.105h1.543V27.31H42.84v-2.305H38.23v-1.27h4.609v-2.402h-4.316
					c-1.182,2.734-3.896,4.707-7.656,5.742l-0.605-1.23c4.238-1.172,6.924-3.506,7.246-6.465h-6.367v-1.25h8.008
					C39.148,18.804,39.07,19.448,38.934,20.063z M44.383,34.282H42.84v-4.98H32.703v-1.23h11.68V34.282z"/>
				<path fill="#484848" d="M63.211,29.321l-0.859,1.211c-2.031-0.928-3.789-2.93-4.59-5.332c-0.82,2.549-2.568,4.766-4.551,5.762
					l-0.918-1.211c2.48-1.191,4.648-4.473,4.668-7.48v-2.266h-4.102v-1.27h9.785v1.27h-4.141v2.266
					C58.504,25.22,60.652,28.208,63.211,29.321z M66.609,34.302h-1.543V16.938h1.543V34.302z"/>
				<path fill="#484848" d="M80.789,24.497l0.098,1.113c-1.553,0.244-3.174,0.4-4.766,0.488v3.438h-1.543v-3.359
					c-1.758,0.078-3.428,0.088-4.883,0.078l-0.215-1.25C72.723,24.985,77.059,24.966,80.789,24.497z M79.48,20.688
					c-0.02,1.855-1.758,3.008-4.297,3.008c-2.559,0-4.297-1.152-4.297-3.008c0-1.816,1.738-3.027,4.297-3.027
					C77.723,17.661,79.461,18.872,79.48,20.688z M84.324,33.931H71.98v-5.078h1.543v3.789h10.801V33.931z M72.352,20.688
					c-0.02,1.133,1.133,1.875,2.832,1.875c1.641,0,2.813-0.742,2.832-1.875c-0.02-1.113-1.191-1.875-2.832-1.855
					C73.484,18.813,72.332,19.575,72.352,20.688z M83.895,30.142h-1.543v-1.797h-3.594v-1.113h3.594V16.958h1.543V30.142z"/>
				<path fill="#484848" d="M96.648,27.974h-3.77v-1.582h3.77v-3.77h1.582v3.77h3.789v1.582H98.23v3.789h-1.582V27.974z"/>
			</g>
			<g enable-background="new    ">
				<path fill="#484848" d="M23.016,49.415l-0.801,1.23c-1.953-0.703-3.467-2.158-4.199-3.965c-0.762,2.041-2.373,3.672-4.434,4.453
					l-0.801-1.23c2.578-0.938,4.414-3.281,4.414-5.762v-0.645H13.27v-1.289h9.355v1.289h-3.887v0.625
					C18.738,46.388,20.477,48.536,23.016,49.415z M27.156,55.06c0,2.051-2.207,3.223-5.82,3.242c-3.613-0.02-5.82-1.191-5.82-3.242
					s2.207-3.223,5.82-3.223S27.156,53.009,27.156,55.06z M17.039,55.06c-0.02,1.25,1.641,2.012,4.297,2.012
					s4.297-0.762,4.297-2.012c0-1.27-1.641-2.031-4.297-2.031S17.02,53.79,17.039,55.06z M27.098,51.29h-1.543v-4.551h-3.496v-1.27
					h3.496v-4.531h1.543V51.29z"/>
				<path fill="#484848" d="M31.043,55.04l-0.84-1.25c4.697-2.227,7.09-5.557,7.441-9.707h-6.641v-1.25h8.203
					C39.188,47.833,36.863,52.247,31.043,55.04z M44.344,58.302h-1.543V40.938h1.543V58.302z"/>
				<path fill="#484848" d="M62.605,49.337l-0.801,1.211c-1.963-0.703-3.477-2.168-4.219-3.965
					c-0.752,2.002-2.354,3.604-4.414,4.355l-0.801-1.211c2.559-0.918,4.414-3.223,4.414-5.703v-0.684h-3.926v-1.27h9.355v1.27
					h-3.887v0.684C58.328,46.271,60.066,48.438,62.605,49.337z M66.688,58.067H55.34v-6.094h11.348V58.067z M56.863,56.817h8.32
					v-3.613h-8.32V56.817z M66.688,51.114h-1.543v-4.531h-3.516v-1.289h3.516v-4.355h1.543V51.114z"/>
				<path fill="#484848" d="M70.418,50.978l-0.645-1.211c4.15-1.172,6.797-3.477,7.129-6.426h-6.23v-1.27h7.871
					C78.523,46.427,75.418,49.552,70.418,50.978z M83.973,58.067h-11.27v-6.465h11.27V58.067z M74.188,56.817h8.262v-3.984h-8.262
					V56.817z M83.973,50.86H82.43V46.72h-3.848v-1.289h3.848v-4.473h1.543V50.86z"/>
				<path fill="#484848" d="M103.23,57.423h-1.465v-6.016h-3.223v-1.27h3.223v-3.086h-2.93c-0.85,2.939-2.754,5.537-6.035,7.5
					l-0.938-1.113c3.779-2.236,5.674-5.371,5.977-9.004h-5.195v-1.27h6.719c0,0.889-0.078,1.768-0.234,2.617h2.637v-4.375h1.465
					V57.423z M106.746,58.302h-1.465V40.938h1.465V58.302z"/>
				<path fill="#484848" d="M118.621,46.075c-0.02,2.441-1.934,4.121-4.57,4.121s-4.57-1.68-4.551-4.121
					c-0.02-2.402,1.914-4.102,4.551-4.082C116.688,41.974,118.602,43.673,118.621,46.075z M111.004,46.075
					c-0.02,1.66,1.289,2.813,3.047,2.793c1.777,0.02,3.066-1.133,3.066-2.793c0-1.641-1.289-2.773-3.066-2.773
					C112.293,43.302,110.984,44.435,111.004,46.075z M122.742,58.302h-1.523v-4.961h-9.844v-1.27h11.367V58.302z M125.32,44.884
					h-2.578v2.441h2.578v1.309h-2.578v2.637h-1.523V40.938h1.523v2.695h2.578V44.884z"/>
			</g>
		</g>
	</g>
</g>
<g id="g-root-sy_1_cu_958kn81wb95or-stroke" transform="translate(14, 98)">
	<g id="sy_1_cu_958kn81wb95or-stroke">
		<g>
			<path fill="none" stroke="#FFFFFF" d="M10,106V10h216l-48,24v72H10z"/>
		</g>
	</g>
</g>
<g id="g-root-sy_2_cu_1uuw4901wb972k-stroke" transform="translate(182.00009155273438, 98)">
	<g id="sy_2_cu_1uuw4901wb972k-stroke">
		<g>
			<path fill="none" stroke="#FFFFFF" d="M10,130V34h216l-48,24v72H10z M58,10v24H10L58,10z"/>
		</g>
	</g>
</g>
<g id="g-root-sy_3_cu_1uuw4901wb972l-stroke" transform="translate(350.0000915527344, 122)">
	<g id="sy_3_cu_1uuw4901wb972l-stroke">
		<g>
			<path fill="none" stroke="#FFFFFF" d="M10,130V34h216l-48,24v72H10z M58,10v24H10L58,10z"/>
		</g>
	</g>
</g>
<g id="g-root-sy_4_cu_1qf2m4k1wb97uu-stroke" transform="translate(518.0001220703125, 146)">
	<g id="sy_4_cu_1qf2m4k1wb97uu-stroke">
		<g>
			<path fill="none" stroke="#FFFFFF" d="M10,34v96h168V58l48-24H10z M58,10v24H10L58,10z"/>
		</g>
	</g>
</g>
<g id="g-root-sy_5_cu_1hjflvo1wb98nj-stroke" transform="translate(686, 170)">
	<g id="sy_5_cu_1hjflvo1wb98nj-stroke">
		<g>
			<path fill="none" stroke="#FFFFFF" d="M10,130V34h216l-48,24v72H10z M58,10v24H10L58,10z"/>
		</g>
	</g>
</g>
<g id="g-root-sy_6_cu_1lz94041wb98n4-stroke" transform="translate(854, 194)">
	<g id="sy_6_cu_1lz94041wb98n4-stroke">
		<g>
			<path fill="none" stroke="#FFFFFF" d="M10,130V34h156V22l48,60l-48,61v-13H10z M58,10v24H10L58,10z"/>
		</g>
	</g>
</g>
<g id="g-root-tx__1cu8zgk1wbakuh-stroke" transform="translate(380, 26)">
</g>
<g id="g-root-tx__m7yft01wbakui-stroke" transform="translate(56, 134)">
</g>
<g id="g-root-tx__8whxfo1wbamfg-stroke" transform="translate(212, 158)">
</g>
<g id="g-root-tx__4gofb81wban7q-stroke" transform="translate(380, 182)">
</g>
<g id="g-root-tx__1q6yg041wbalfs-stroke" transform="translate(542, 206)">
</g>
<g id="g-root-tx__hs4xok1wbalmr-stroke" transform="translate(26, 218)">
</g>
<g id="g-root-tx__8whxfo1wbamfh-stroke" transform="translate(194, 242)">
</g>
<g id="g-root-tx__1lr4xvo1wbam82-stroke" transform="translate(716, 230)">
</g>
<g id="g-root-tx__1umry4k1wbaknj-stroke" transform="translate(362, 266)">
</g>
<g id="g-root-tx__18gawlg1wbakn8-stroke" transform="translate(878, 254)">
</g>
<g id="g-root-tx__1q6yg041wbalft-stroke" transform="translate(530, 290)">
</g>
<g id="g-root-tx__1cvhxms1wban0r-stroke" transform="translate(698, 314)">
</g>
<g id="g-root-tx__zknwck1wbalfx-stroke" transform="translate(866, 338)">
</g>
<g id="g-root-tx__1cu8zgk1wbakuh-fill_1_" transform="translate(380, 26)">
	<g id="tx__1cu8zgk1wbakuh-fill_1_">
		<g>
			<g enable-background="new    ">
				<path fill="#484848" d="M-254.391,66.09h-3.687V51.905h-0.098l-4.053,2.539v-3.247l4.37-2.783h3.467V66.09z"/>
			</g>
		</g>
	</g>
</g>
<g enable-background="new    ">
	<path fill="#484848" d="M301.967,111.028l6.348-5.835c1.66-1.587,2.539-2.563,2.539-3.955c0-1.563-1.196-2.539-2.808-2.539
		c-1.66,0-2.734,1.05-2.734,2.734h-3.491c-0.024-3.467,2.539-5.664,6.274-5.664c3.784,0,6.299,2.148,6.299,5.225
		c0,2.002-0.977,3.662-4.614,6.958l-2.686,2.612v0.098h7.544v3.027h-12.646L301.967,111.028z"/>
</g>
<g enable-background="new    ">
	<path fill="#484848" d="M481.796,130.31h3.711c0.073,1.318,1.343,2.197,3.052,2.197c1.758,0,3.027-1.001,3.003-2.417
		c0.024-1.44-1.27-2.466-3.345-2.466h-1.636v-2.71h1.636c1.733,0,2.954-0.952,2.954-2.344c0-1.343-1.025-2.271-2.588-2.271
		s-2.856,0.879-2.905,2.222h-3.516c0.049-3.052,2.808-5.151,6.421-5.151c3.687,0,6.152,2.173,6.128,4.98
		c0.024,1.978-1.367,3.394-3.345,3.735v0.146c2.588,0.317,4.028,1.904,4.004,4.102c0.024,3.027-2.856,5.2-6.836,5.2
		C484.653,135.534,481.87,133.386,481.796,130.31z"/>
</g>
<g enable-background="new    ">
	<path fill="#484848" d="M648.699,150.859l7.471-11.646h4.613v11.597h2.246v2.954h-2.246v3.125h-3.49v-3.125h-8.594V150.859z
		 M657.342,150.811v-7.568h-0.172l-4.76,7.422v0.146H657.342z"/>
</g>
<g enable-background="new    ">
	<path fill="#484848" d="M828.041,173.51h3.564c0.072,1.392,1.342,2.319,2.881,2.319c1.83,0,3.125-1.294,3.125-3.125
		c0-1.88-1.318-3.174-3.174-3.198c-1.318,0-2.246,0.488-2.783,1.489h-3.32l0.951-10.181h10.889v3.003h-7.861l-0.488,4.468h0.146
		c0.66-0.879,1.979-1.489,3.541-1.489c3.246,0,5.664,2.417,5.664,5.811c0,3.564-2.711,6.128-6.689,6.128
		C830.799,178.734,828.113,176.562,828.041,173.51z"/>
</g>
<g enable-background="new    ">
	<path fill="#484848" d="M971.699,191.667c0-5.957,2.855-9.497,7.275-9.497c3.564,0,5.98,2.246,6.348,5.151h-3.613
		c-0.293-1.245-1.318-2.002-2.734-2.002c-2.393,0-3.662,2.173-3.688,5.64h0.172c0.805-1.563,2.563-2.49,4.516-2.49
		c3.174,0,5.543,2.393,5.543,5.713c0,3.589-2.711,6.177-6.689,6.152C975.166,200.31,971.699,198.137,971.699,191.667z
		 M981.953,194.279c0-1.758-1.295-3.149-3.102-3.149s-3.174,1.416-3.197,3.149c0.023,1.733,1.342,3.149,3.148,3.149
		S981.953,196.062,981.953,194.279z"/>
</g>
</svg>
