<?xml version="1.0" encoding="utf-8"?>
<!-- Generator: Adobe Illustrator 16.0.0, SVG Export Plug-In . SVG Version: 6.00 Build 0)  -->
<!DOCTYPE svg PUBLIC "-//W3C//DTD SVG 1.1//EN" "http://www.w3.org/Graphics/SVG/1.1/DTD/svg11.dtd">
<svg version="1.1" id="Layer_1" xmlns="http://www.w3.org/2000/svg" xmlns:xlink="http://www.w3.org/1999/xlink" x="0px" y="0px"
	 width="900px" height="308px" viewBox="0 62.5 900 308" enable-background="new 0 62.5 900 308" xml:space="preserve">
<g id="g-root-tx__1umry4k1wbaknj-fill" transform="translate(362, 266)">
	<g id="tx__1umry4k1wbaknj-fill">
		<g>
			<g enable-background="new    ">
				<path fill="#484848" d="M-14.219,31.73l-0.779,1.133c-1.828-0.649-3.284-1.948-4.008-3.618
					c-0.705,1.884-2.199,3.321-4.156,4.026l-0.798-1.17c2.486-0.815,4.193-2.895,4.212-5.307v-1.559h1.429v1.56
					C-18.338,28.967-16.631,30.934-14.219,31.73z M-10.267,38.003h-9.223v1.8h9.834v1.17h-11.262v-4.082h9.203v-1.651h-9.24V34.07
					h10.688L-10.267,38.003L-10.267,38.003z M-10.267,33.234h-1.467v-4.286h-3.674v-1.206h3.674v-3.043h1.467V33.234z"/>
				<path fill="#484848" d="M-5.108,30.47h4.917v-4.36h1.43v11.134h-7.793V26.109h1.446V30.47z M-0.191,36.018v-4.379h-4.917v4.379
					H-0.191z M6.08,41.23H4.614V24.699H6.08V41.23z"/>
				<path fill="#484848" d="M22.074,36.426l-0.892,1.076c-1.624-0.975-2.773-2.756-3.34-4.861c-0.603,2.273-1.8,4.213-3.451,5.252
					l-0.928-1.096c2.301-1.373,3.637-4.379,3.637-7.385v-1.559h-3.173v-1.207h7.607v1.207h-3.024v1.559
					C18.512,32.27,19.792,35.107,22.074,36.426z M24.431,40.341h-1.373v-8.498h-2.782v-1.188h2.782v-5.548h1.373V40.341z
					 M27.771,41.193h-1.393V24.699h1.393V41.193z"/>
				<path fill="#484848" d="M39.738,32.809l-0.742,1.131c-1.883-0.668-3.321-2.021-4.026-3.729
					c-0.705,1.874-2.217,3.331-4.155,4.045l-0.779-1.132c2.468-0.872,4.193-3.006,4.212-5.362v-0.705H30.48v-1.188h8.905v1.188
					h-3.711v0.704C35.675,29.95,37.289,31.954,39.738,32.809z M42.985,41.193h-1.447v-4.489h-9.353v-1.188h10.8V41.193z
					 M42.985,29.061h2.485v1.242h-2.485v4.342h-1.447v-9.945h1.447V29.061z"/>
				<path fill="#484848" d="M59.889,32.492h-7.736v-6.717h7.736V32.492z M65.882,40.007l-0.501,1.132
					c-2.486-0.334-4.75-1.503-5.715-3.043c-1.002,1.568-3.321,2.709-5.808,3.043l-0.521-1.132c2.839-0.315,5.566-1.911,5.566-3.563
					h-4.88v-1.131h4.897v-1.614h1.447v1.614h4.936v1.131h-4.897C60.408,38.059,63.043,39.654,65.882,40.007z M53.58,31.342h4.88
					v-4.379h-4.88V31.342z M64.88,34.182h-1.429v-9.482h1.429V34.182z"/>
			</g>
			<g enable-background="new    ">
				<path fill="#484848" d="M-14.07,56.921l-0.835,1.149c-1.854-0.898-3.423-2.865-4.155-5.103
					c-0.762,2.431-2.422,4.564-4.269,5.511l-0.891-1.149c2.375-1.149,4.416-4.286,4.435-7.106V48.07h-3.841v-1.206h8.979v1.206
					h-3.711v2.152C-18.375,52.876-16.464,55.789-14.07,56.921z M-11.176,51.837h2.765v1.243h-2.765v8.572h-1.447V45.157h1.447
					V51.837z"/>
				<path fill="#484848" d="M7.527,54.49H-7.521v-1.17h6.811v-1.93h-4.898v-5.455H5.654v1.17H-4.18v3.099h9.944v1.188H0.7v1.93
					h6.828L7.527,54.49L7.527,54.49z M5.672,58.665c-0.019,1.911-2.134,2.969-5.678,2.987c-3.563-0.02-5.696-1.076-5.696-2.987
					c0-1.894,2.134-2.97,5.696-2.97C3.538,55.695,5.653,56.771,5.672,58.665z M-4.218,58.665c-0.02,1.149,1.559,1.817,4.212,1.817
					c2.616,0,4.212-0.668,4.212-1.817c0-1.132-1.596-1.817-4.212-1.817C-2.659,56.848-4.236,57.533-4.218,58.665z"/>
				<path fill="#484848" d="M13.242,57.199v-1.838c-1.92-0.213-3.173-1.336-3.154-2.969c-0.019-1.854,1.559-3.062,3.896-3.062
					c2.301,0,3.896,1.206,3.915,3.062c-0.02,1.633-1.29,2.756-3.191,2.987v1.763c1.54-0.074,3.089-0.193,4.527-0.408l0.093,1.113
					c-3.6,0.612-7.496,0.649-10.391,0.649l-0.241-1.243C10.042,57.255,11.609,57.255,13.242,57.199z M18.938,48.367H8.993V47.18
					h4.249v-1.984h1.466v1.984h4.229V48.367z M11.442,52.395c0,1.149,1.021,1.893,2.542,1.873c1.503,0.02,2.522-0.724,2.522-1.873
					c0-1.15-1.021-1.931-2.522-1.931C12.463,50.464,11.442,51.243,11.442,52.395z M21.703,52.189h2.635v1.225h-2.635v8.238h-1.466
					V45.157h1.466V52.189z"/>
				<path fill="#484848" d="M38.495,56.884l-0.892,1.076c-1.623-0.974-2.773-2.755-3.34-4.86c-0.603,2.271-1.8,4.211-3.451,5.25
					l-0.928-1.095c2.301-1.373,3.638-4.379,3.638-7.385v-1.56H30.35v-1.205h7.607v1.205h-3.024v1.56
					C34.933,52.729,36.213,55.566,38.495,56.884z M40.852,60.799h-1.373v-8.498h-2.782v-1.188h2.782v-5.549h1.373V60.799z
					 M44.191,61.652H42.8V45.157h1.393L44.191,61.652L44.191,61.652z"/>
				<path fill="#484848" d="M55.046,51.466h3.692v-6.309h1.446v16.532h-1.446v-9.019h-3.674c-0.177,3.229-1.818,5.251-4.119,5.251
					c-2.432,0-4.139-2.227-4.139-5.732s1.707-5.733,4.139-5.752C53.19,46.456,54.805,48.377,55.046,51.466z M48.199,52.189
					c0,2.689,1.113,4.435,2.746,4.435c1.613,0,2.746-1.744,2.746-4.435c0-2.691-1.133-4.436-2.746-4.453
					C49.313,47.755,48.199,49.499,48.199,52.189z"/>
				<path fill="#484848" d="M77.423,52.189l-0.779,1.131c-1.827-0.648-3.283-1.947-4.008-3.617c-0.705,1.883-2.198,3.32-4.155,4.025
					l-0.799-1.168c2.486-0.816,4.193-2.896,4.212-5.308v-1.56h1.43v1.56C73.304,49.425,75.011,51.393,77.423,52.189z M81.375,58.461
					h-9.222v1.8h9.834v1.169H70.724v-4.082h9.203v-1.65h-9.239v-1.17h10.688V58.461z M81.375,53.691h-1.466v-4.285h-3.674V48.2
					h3.674v-3.043h1.466V53.691z"/>
				<path fill="#484848" d="M94.623,57.032l-0.816,1.132c-1.901-0.844-3.516-2.635-4.285-4.824
					c-0.742,2.319-2.348,4.221-4.249,5.121l-0.816-1.132c2.449-1.113,4.323-3.896,4.323-6.791v-1.317H84.9v-1.188h3.858v-2.561
					h1.447v2.561h3.841v1.188h-3.841v1.317C90.207,53.303,92.137,55.975,94.623,57.032z M97.722,61.652h-1.466V45.157h1.466V61.652z
					"/>
			</g>
		</g>
	</g>
</g>
<g id="g-root-sy_1_cu_958kn81wb95or-fill" transform="translate(14, 98)">
	<g id="sy_1_cu_958kn81wb95or-fill">
		<g>
			<path fill="#40587E" d="M133.246,113.371v61.377l40.917,20.457H-9.964v-81.834H133.246z"/>
		</g>
	</g>
</g>
<g id="g-root-sy_2_cu_1uuw4901wb972k-fill" transform="translate(182.00009155273438, 98)">
	<g id="sy_2_cu_1uuw4901wb972k-fill">
		<g>
			<path fill="#4371BD" d="M108.456,92.912v61.376l40.917,20.46H-34.754V92.912H108.456z M-34.754,174.748H6.163v20.457
				L-34.754,174.748z"/>
		</g>
	</g>
</g>
<g id="g-root-sy_3_cu_1uuw4901wb972l-fill" transform="translate(350.0000915527344, 122)">
	<g id="sy_3_cu_1uuw4901wb972l-fill">
		<g>
			<path fill="#4F84DA" d="M-59.544,48.454h143.21v61.376l40.917,20.458H-59.544V48.454L-59.544,48.454z M-59.544,130.288h40.917
				v20.46L-59.544,130.288z"/>
		</g>
	</g>
</g>
<g id="g-root-sy_4_cu_1qf2m4k1wb97uu-fill" transform="translate(518.0001220703125, 146)">
	<g id="sy_4_cu_1qf2m4k1wb97uu-fill">
		<g>
			<path fill="#4E8BEF" d="M99.793,85.829L58.876,65.371V3.995h-143.21v81.834H99.793z M-84.334,85.83h40.917v20.458L-84.334,85.83z
				"/>
		</g>
	</g>
</g>
<g id="g-root-sy_5_cu_1hjflvo1wb98nj-fill" transform="translate(686, 170)">
	<g id="sy_5_cu_1hjflvo1wb98nj-fill">
		<g>
			<path fill="#5B99FF" d="M34.086-40.464v61.376l40.918,20.459h-184.127v-81.835H34.086z M-109.123,41.371h40.917v20.458
				L-109.123,41.371z"/>
		</g>
	</g>
</g>
<g id="g-root-sy_6_cu_1lz94041wb98n4-fill" transform="translate(854, 194)">
	<g id="sy_6_cu_1lz94041wb98n4-fill">
		<g>
			<path fill="#95BDFF" d="M-0.932-84.923v-11.081l40.916,51.999L-0.932,7.142V-3.088h-132.982v-81.835H-0.932z M-133.914-3.088
				h40.918v20.459L-133.914-3.088z"/>
		</g>
	</g>
</g>
<g id="g-root-tx__m7yft01wbakui-fill" transform="translate(56, 134)">
	<g id="tx__m7yft01wbakui-fill">
		<g>
			<g enable-background="new    ">
				<path fill="#FFFFFF" d="M1.766,116.447h-15.327v-1.91h5.752v-2.95h2.338v2.95h7.236L1.766,116.447L1.766,116.447z M0.04,120.716
					c-0.019,1.985-2.338,3.173-6.03,3.173c-3.655,0-6.012-1.188-6.012-3.173c0-2.022,2.356-3.19,6.012-3.19
					C-2.298,117.525,0.021,118.693,0.04,120.716z M-0.053,109.138c0,1.336,0,2.783-0.482,4.527l-2.319-0.224
					c0.371-1.53,0.417-2.672,0.445-3.821h-9.426v-1.855h11.782V109.138z M-9.646,120.716c0,0.909,1.336,1.373,3.655,1.373
					c2.319,0,3.674-0.464,3.674-1.373c0-0.946-1.354-1.429-3.674-1.429C-8.311,119.287-9.646,119.77-9.646,120.716z"/>
				<path fill="#FFFFFF" d="M12.564,109.917H9.206c0.056,1.967,1.243,3.952,3.878,4.823l-1.169,1.855
					c-1.865-0.603-3.145-1.828-3.878-3.357c-0.751,1.726-2.097,3.117-4.101,3.804l-1.225-1.874c2.774-0.928,4.017-3.137,4.082-5.251
					H3.397v-1.894h9.166L12.564,109.917L12.564,109.917z M17.11,120.66c-0.019,2.041-2.227,3.246-5.826,3.246
					c-3.599,0-5.808-1.205-5.808-3.246c0-2.061,2.208-3.247,5.808-3.266C14.884,117.413,17.092,118.602,17.11,120.66z M7.833,120.66
					c0,0.965,1.206,1.447,3.451,1.447c2.245,0,3.47-0.482,3.47-1.447c0-0.983-1.225-1.447-3.47-1.447
					C9.039,119.213,7.833,119.677,7.833,120.66z M17.055,117.023h-2.356v-3.989h-2.635v-1.911h2.635v-4.119h2.356V117.023z"/>
				<path fill="#FFFFFF" d="M39.061,117.525h-6.364v2.728h-2.338v-2.728h-6.754v-1.855h15.456V117.525z M37.354,123.592H25.423
					v-4.676h2.338v2.783h9.593V123.592z M27.928,109.305H34.7v-1.763h2.356v6.938H25.59v-6.938h2.338L27.928,109.305L27.928,109.305
					z M34.7,112.607v-1.539h-6.772v1.539H34.7z"/>
				<path fill="#FFFFFF" d="M50.212,114.63l-1.262,1.874c-1.818-0.611-3.052-1.828-3.767-3.357c-0.751,1.67-2.06,2.978-3.971,3.654
					l-1.28-1.893c2.82-0.909,4.026-3.117,4.045-5.418v-1.614h2.394v1.763C46.353,111.734,47.54,113.775,50.212,114.63z
					 M54.275,123.889h-2.356v-4.193h-9.24v-1.873h11.597L54.275,123.889L54.275,123.889z M54.275,117.061h-2.356v-4.973h-3.173
					v-1.948h3.173v-3.136h2.356V117.061z"/>
			</g>
		</g>
	</g>
</g>
<g id="g-root-tx__8whxfo1wbamfg-fill" transform="translate(212, 158)">
	<g id="tx__8whxfo1wbamfg-fill">
		<g>
			<g enable-background="new    ">
				<path fill="#FFFFFF" d="M-23.858,74.893l-1.317,1.854c-1.883-0.863-3.229-2.588-3.971-4.62
					c-0.761,2.236-2.143,4.128-4.101,5.047L-34.62,75.3c2.82-1.317,4.23-4.453,4.249-7.235v-1.039h-3.581v-1.931h9.352v1.931h-3.396
					v1.039C-28.014,70.643-26.641,73.611-23.858,74.893z M-20.908,69.9h2.486v1.985h-2.486v8.461h-2.375V63.462h2.375V69.9z"/>
				<path fill="#FFFFFF" d="M-2.372,73.296h-15.437v-1.854h6.568v-1.447h-4.694v-5.789h11.708v1.837h-9.353v2.097h9.444v1.855
					h-4.787v1.447h6.55V73.296z M-4.246,77.268c-0.019,1.967-2.227,3.098-5.882,3.098c-3.692,0-5.919-1.131-5.919-3.098
					c0-2.005,2.227-3.117,5.919-3.117C-6.472,74.15-4.264,75.263-4.246,77.268z M-13.634,77.268
					c-0.019,0.891,1.169,1.299,3.507,1.299c2.282,0,3.488-0.408,3.507-1.299c-0.019-0.873-1.225-1.318-3.507-1.318
					C-12.465,75.949-13.653,76.395-13.634,77.268z"/>
				<path fill="#FFFFFF" d="M2.583,75.542v-1.448c-1.8-0.354-2.969-1.494-2.95-3.063c-0.019-1.893,1.688-3.172,4.156-3.172
					c2.412,0,4.138,1.279,4.156,3.172c-0.02,1.568-1.206,2.719-2.987,3.063v1.354c1.336-0.064,2.681-0.176,3.934-0.353L9.04,76.82
					c-3.6,0.668-7.459,0.688-10.316,0.688l-0.314-1.93C-0.358,75.579,1.08,75.579,2.583,75.542z M8.761,67.191h-10.02v-1.854h3.841
					v-1.781h2.375v1.781h3.804V67.191z M1.877,71.033c-0.019,0.891,0.761,1.373,1.911,1.373c1.113,0,1.874-0.482,1.874-1.373
					c0-0.872-0.761-1.373-1.874-1.373C2.638,69.66,1.859,70.161,1.877,71.033z M12.12,70.328h2.208v1.967H12.12v8.053H9.726V63.462
					h2.395V70.328z"/>
				<path fill="#FFFFFF" d="M29.598,70.012l-1.242,1.818c-1.81-0.584-3.071-1.717-3.805-3.174c-0.732,1.625-2.068,2.904-4.045,3.525
					l-1.225-1.873c2.802-0.816,4.045-2.877,4.063-5.065v-1.226h2.395v1.226C25.72,67.266,26.908,69.214,29.598,70.012z
					 M33.643,77.268h-8.868v1.038h9.352v1.855H22.438v-4.62h8.868v-0.965h-8.888v-1.818h11.226L33.643,77.268L33.643,77.268z
					 M33.643,72.053h-2.355v-4.193h-3.173v-1.873h3.173v-2.523h2.355V72.053z"/>
				<path fill="#FFFFFF" d="M46.947,79.605h-2.245v-5.566h-2.395v-1.911h2.395v-2.301h-2.078c-0.789,2.782-2.496,5.14-5.659,7.014
					l-1.392-1.67c3.423-2.022,4.926-4.481,5.251-7.793h-4.269v-1.911h6.624c0,0.844-0.056,1.661-0.147,2.449h1.67v-4.082h2.245
					V79.605z M50.472,80.347h-2.227V63.462h2.227V80.347z"/>
			</g>
		</g>
	</g>
</g>
<g id="g-root-tx__4gofb81wban7q-fill" transform="translate(380, 182)">
	<g id="tx__4gofb81wban7q-fill">
		<g>
			<g enable-background="new    ">
				<path fill="#FFFFFF" d="M-52.706,28.5l-1.392,1.744c-1.503-0.891-2.496-2.403-3.063-4.213c-0.584,1.968-1.604,3.638-3.154,4.584
					l-1.429-1.744c2.486-1.521,3.414-4.564,3.414-7.422V20.54h-2.765v-1.894h7.606v1.894h-2.561v0.909
					C-56.046,24.251-55.174,27.089-52.706,28.5z M-50.238,33.027h-2.227v-8.405h-2.228v-1.911h2.228v-5.512h2.227V33.027z
					 M-46.787,33.806h-2.245V16.921h2.245V33.806z"/>
				<path fill="#FFFFFF" d="M-35.376,19.797h-3.358c0.02,1.977,1.188,3.999,3.935,4.88l-1.206,1.837
					c-1.874-0.603-3.164-1.809-3.896-3.32c-0.751,1.65-2.097,2.959-4.063,3.6l-1.262-1.818c2.792-0.9,4.063-3.062,4.101-5.177
					h-3.451v-1.894h9.203v1.893H-35.376z M-31.572,33.806h-2.375v-4.101h-8.999v-1.874h11.374V33.806z M-31.572,21.021h2.282v1.967
					h-2.282v4.119h-2.375V16.921h2.375V21.021z"/>
				<path fill="#FFFFFF" d="M-15.059,25.048h-8.258v-7.106h8.258V25.048L-15.059,25.048z M-9.752,29.186h-4.731
					c0.261,1.15,2.041,2.478,5.382,2.803L-9.9,33.77c-2.811-0.261-4.806-1.281-5.825-2.617c-1.049,1.354-3.053,2.348-5.883,2.617
					l-0.815-1.781c3.386-0.27,5.167-1.625,5.418-2.803h-4.731v-1.763h4.807v-1.392h2.375v1.392h4.806v1.763H-9.752z M-20.979,23.193
					h3.563v-3.414h-3.563V23.193z M-10.049,26.496h-2.356v-9.574h2.356V26.496z"/>
				<path fill="#FFFFFF" d="M6.817,23.471l-1.243,1.818c-1.81-0.584-3.071-1.717-3.805-3.174c-0.732,1.625-2.068,2.904-4.045,3.525
					L-3.5,23.768c2.802-0.816,4.045-2.877,4.063-5.065v-1.226h2.395v1.226C2.939,20.725,4.127,22.673,6.817,23.471z M10.862,30.727
					H1.993v1.038h9.352v1.855H-0.345V29h8.869v-0.965h-8.889v-1.818h11.227V30.727z M10.862,25.512H8.506v-4.193H5.333v-1.873h3.173
					v-2.523h2.356V25.512z"/>
				<path fill="#FFFFFF" d="M23.851,28.574l-1.279,1.818c-1.92-0.789-3.293-2.404-4.063-4.343c-0.751,2.06-2.134,3.785-4.101,4.603
					l-1.263-1.818c2.783-1.206,4.156-4.045,4.156-6.624v-0.649h-3.6v-1.893h3.581v-2.375h2.355v2.375h3.525v1.893h-3.507v0.649
					C19.657,24.659,21.049,27.423,23.851,28.574z M27.172,33.806h-2.375V16.921h2.375V33.806z"/>
			</g>
		</g>
	</g>
</g>
<g id="g-root-tx__1q6yg041wbalfs-fill" transform="translate(542, 206)">
	<g id="tx__1q6yg041wbalfs-fill">
		<g>
			<g enable-background="new    ">
				<path fill="#FFFFFF" d="M-75.03-14.376l-1.392,1.894c-1.93-0.873-3.266-2.553-4.026-4.64c-0.771,2.272-2.151,4.11-4.212,5.047
					l-1.429-1.967c2.95-1.243,4.379-4.472,4.396-7.756v-2.523h2.395v2.523C-79.298-18.699-77.888-15.582-75.03-14.376z
					 M-71.729-8.698h-2.394V-25.62h2.394V-8.698z"/>
				<path fill="#FFFFFF" d="M-54.008-15.508h-6.401v2.932h-2.394v-2.932h-6.661v-1.894h15.456V-15.508z M-55.641-21.798
					c-0.02,2.151-2.449,3.487-6.104,3.487c-3.674,0-6.123-1.336-6.123-3.487c0-2.134,2.449-3.488,6.123-3.507
					C-58.09-25.286-55.659-23.932-55.641-21.798z M-55.715-9.032h-11.912v-5.047h2.394v3.136h9.52L-55.715-9.032L-55.715-9.032z
					 M-65.308-21.798c-0.02,1.038,1.373,1.596,3.563,1.596c2.171,0,3.563-0.558,3.563-1.596c0-1.076-1.393-1.634-3.563-1.634
					C-63.935-23.432-65.326-22.874-65.308-21.798z"/>
				<path fill="#FFFFFF" d="M-42.764-17.382l-1.169,1.874c-1.874-0.604-3.154-1.838-3.896-3.377
					c-0.742,1.707-2.087,3.062-4.082,3.729l-1.206-1.93c2.783-0.872,4.045-3.08,4.063-5.232v-0.26h-3.396v-1.893h9.166v1.893h-3.357
					v0.277C-46.642-20.35-45.454-18.254-42.764-17.382z M-38.385-9.032H-50v-5.325h2.375v3.434h9.24V-9.032z M-38.793-13.281h-2.356
					v-6.049h-2.765v-1.911h2.765v-4.36h2.356V-13.281z"/>
				<path fill="#FFFFFF" d="M-32.039-14.005c0-1.577,0.992-2.515,2.468-3.525c-0.724-0.899-1.299-1.884-1.299-3.08
					c0-1.948,1.447-3.45,3.655-3.45c2.152,0,3.47,1.446,3.47,3.153c0,1.28-0.648,2.282-1.781,3.099l-0.778,0.576l2.245,2.578
					c0.344-0.658,0.557-1.447,0.557-2.318h2.282c0,1.826-0.475,3.229-1.206,4.211l2.021,2.32h-2.876l-0.815-0.929
					c-0.992,0.788-2.265,1.132-3.451,1.132C-30.332-10.238-32.039-11.891-32.039-14.005z M-27.419-12.465
					c0.622,0,1.253-0.195,1.837-0.557l-2.579-2.877l-0.093,0.074c-0.761,0.557-1.113,1.15-1.113,1.67
					C-29.367-13.188-28.606-12.465-27.419-12.465z M-27.642-18.811l0.704-0.463c0.669-0.428,0.983-0.892,0.983-1.484
					c0-0.521-0.445-1.076-1.243-1.076c-0.778,0-1.316,0.574-1.316,1.262C-28.514-20.008-28.161-19.441-27.642-18.811z"/>
				<path fill="#FFFFFF" d="M-0.088-13.708H-3.65v4.973h-2.394v-4.973h-3.525v4.973h-2.355v-4.973h-3.618v-1.931h15.456
					L-0.088-13.708L-0.088-13.708z M-1.739-16.825h-11.856v-8.108h11.671v1.855h-9.353v1.243h8.999v1.837h-8.999v1.299h9.537
					L-1.739-16.825L-1.739-16.825z"/>
				<path fill="#FFFFFF" d="M4.235-18.736c2.318-0.027,4.602-0.213,7.014-0.724l0.278,1.911c-2.803,0.594-5.475,0.779-8.201,0.761
					H1.86v-7.774h2.375V-18.736z M15.053-12.148c0,2.133-2.245,3.413-5.808,3.413c-3.581,0-5.845-1.28-5.826-3.413
					c-0.019-2.189,2.245-3.471,5.826-3.471C12.808-15.619,15.053-14.339,15.053-12.148z M5.775-12.148
					c0,1.002,1.225,1.539,3.47,1.539c2.227,0,3.414-0.537,3.433-1.539c-0.019-1.059-1.206-1.56-3.433-1.56
					C7-13.708,5.775-13.207,5.775-12.148z M14.979-15.823h-2.355v-9.797h2.355V-15.823z"/>
			</g>
		</g>
	</g>
</g>
<g id="g-root-tx__hs4xok1wbalmr-fill" transform="translate(26, 218)">
	<g id="tx__hs4xok1wbalmr-fill">
		<g>
			<g enable-background="new    ">
				<path fill="#484848" d="M34.989,112.01h-9.333v-1.188h4.008v-2.041h1.447v2.041h3.878V112.01z M34.136,116.073
					c0,1.874-1.559,3.153-3.767,3.153s-3.748-1.279-3.729-3.153c-0.019-1.894,1.521-3.154,3.729-3.154
					S34.136,114.182,34.136,116.073z M27.994,116.073c0,1.188,0.965,1.985,2.375,1.985c1.41,0,2.375-0.799,2.394-1.985
					c-0.019-1.188-0.983-1.985-2.394-2.005C28.959,114.088,27.994,114.886,27.994,116.073z M39.684,124.924h-11.04v-4.656h1.466
					v3.433h9.574V124.924z M39.313,121.38h-1.466v-3.544H34.99v-1.188h2.857v-2.246H34.99v-1.205h2.857V108.8h1.466V121.38z"/>
				<path fill="#484848" d="M51.688,116.797l-0.687,1.15c-1.902-0.621-3.34-1.939-4.045-3.6c-0.714,1.893-2.236,3.366-4.212,4.082
					l-0.742-1.17c2.468-0.835,4.193-2.969,4.212-5.344v-0.705h-3.767v-1.206h8.906v1.206h-3.711v0.705
					C47.644,114.068,49.258,115.999,51.688,116.797z M55.103,122.195c0,1.931-2.041,3.044-5.437,3.044s-5.474-1.113-5.474-3.044
					c0-1.893,2.078-3.006,5.474-3.006S55.103,120.305,55.103,122.195z M45.658,122.195c-0.019,1.188,1.521,1.875,4.008,1.875
					c2.505,0,4.026-0.688,4.026-1.875c0-1.149-1.521-1.836-4.026-1.836C47.18,120.359,45.64,121.046,45.658,122.195z
					 M54.954,112.993h2.486v1.225h-2.486v4.527h-1.447v-9.964h1.447V112.993z"/>
				<path fill="#484848" d="M73.305,115.721l-0.724,1.133c-1.93-0.66-3.47-2.041-4.212-3.822c-0.742,1.921-2.292,3.433-4.249,4.138
					l-0.761-1.149c2.486-0.873,4.249-3.063,4.249-5.492v-1.262h1.484v1.262C69.074,112.863,70.855,114.923,73.305,115.721z
					 M76.867,122.122h-9.259v1.78h9.853v1.188H66.18v-4.101h9.24v-1.651h-9.277v-1.169h10.725L76.867,122.122L76.867,122.122z
					 M76.849,117.335H75.42v-8.554h1.429V117.335z"/>
				<path fill="#484848" d="M94.698,118.3H79.669v-1.188h15.029V118.3z M87.889,110.451h5.288v1.169h-5.195
					c0.102,1.874,2.709,3.163,5.826,3.433l-0.482,1.15c-2.718-0.297-5.149-1.299-6.142-2.969c-1.002,1.67-3.433,2.672-6.142,2.969
					l-0.482-1.15c3.099-0.27,5.706-1.559,5.826-3.433h-5.158v-1.169h5.232v-1.707h1.429V110.451z M92.843,125.275h-1.466v-4.008
					H81.339v-1.188h11.504V125.275z"/>
				<path fill="#484848" d="M109.468,116.574h-7.737v-6.717h7.737V116.574z M115.461,124.089l-0.501,1.132
					c-2.486-0.334-4.75-1.503-5.715-3.043c-1.002,1.568-3.321,2.709-5.808,3.043l-0.52-1.132c2.839-0.315,5.566-1.911,5.566-3.563
					h-4.88v-1.131h4.898v-1.614h1.447v1.614h4.936v1.131h-4.898C109.987,122.141,112.622,123.736,115.461,124.089z M103.159,115.424
					h4.88v-4.379h-4.88V115.424z M114.459,118.264h-1.429v-9.481h1.429V118.264z"/>
			</g>
			<g enable-background="new    ">
				<path fill="#484848" d="M40.723,138.889h-6.717v3.377h-1.447v-3.377H25.62v-1.207h15.104L40.723,138.889L40.723,138.889z
					 M39.034,145.382H27.549v-4.75h1.466v3.525h10.02L39.034,145.382L39.034,145.382z M38.756,135.789h-11.17v-5.732h11.17V135.789z
					 M29.015,134.62h8.294v-3.414h-8.294V134.62z"/>
				<path fill="#484848" d="M50.464,140.966l-0.891,1.076c-1.624-0.974-2.774-2.755-3.34-4.86c-0.603,2.271-1.8,4.211-3.451,5.25
					l-0.928-1.095c2.301-1.373,3.637-4.379,3.637-7.385v-1.56h-3.173v-1.205h7.607v1.205h-3.024v1.56
					C46.901,136.811,48.182,139.648,50.464,140.966z M52.82,144.881h-1.373v-8.498h-2.783v-1.188h2.783v-5.549h1.373V144.881z
					 M56.16,145.734h-1.392v-16.495h1.392V145.734z"/>
				<path fill="#484848" d="M73.416,137.793l-0.742,1.169c-1.92-0.649-3.451-2.004-4.193-3.748c-0.724,1.884-2.273,3.368-4.23,4.082
					l-0.761-1.169c2.468-0.872,4.23-3.006,4.23-5.344v-0.965h-3.859v-1.188h9.129v1.188h-3.804v0.965
					C69.186,135.01,70.948,137.014,73.416,137.793z M77.387,145.382h-11.17v-5.177h1.447v3.952h9.723V145.382z M76.867,141.355
					H75.42v-12.098h1.447V141.355z"/>
				<path fill="#484848" d="M87.796,131.893h-5.9v5.141c3.312,0,5.195-0.083,7.403-0.538l0.186,1.206
					c-2.319,0.445-4.286,0.557-7.756,0.557h-1.28v-7.589h7.348L87.796,131.893L87.796,131.893z M93.325,145.382H82.248v-5.399h1.429
					v4.176h9.648V145.382z M92.564,134.156h2.505v1.225h-2.505v5.809h-1.447v-11.95h1.447V134.156z"/>
			</g>
		</g>
	</g>
</g>
<g id="g-root-tx__8whxfo1wbamfh-fill" transform="translate(194, 242)">
	<g id="tx__8whxfo1wbamfh-fill">
		<g>
			<g enable-background="new    ">
				<path fill="#484848" d="M8.993,74.68H2.981v3.859c3.062,0,5.195-0.102,7.7-0.575l0.148,1.206
					c-2.598,0.482-4.806,0.594-7.979,0.612H1.533v-6.31h6.012v-3.488H1.496v-1.205h7.496L8.993,74.68L8.993,74.68z M13.613,73.809
					h2.765v1.225h-2.765v8.738h-1.447V67.239h1.447V73.809z"/>
				<path fill="#484848" d="M26.305,72.453c0,2.412-1.855,4.063-4.323,4.063c-2.468,0-4.323-1.65-4.323-4.063
					c0-2.375,1.855-4.045,4.323-4.045C24.45,68.408,26.305,70.078,26.305,72.453z M19.087,72.453
					c-0.019,1.65,1.225,2.783,2.895,2.783c1.633,0,2.895-1.133,2.895-2.783c0-1.614-1.262-2.766-2.895-2.766
					C20.312,69.688,19.068,70.839,19.087,72.453z M31.407,83.382h-11.17v-5.288h1.447v4.063h9.723V83.382z M30.888,79.318H29.44
					V67.258h1.447L30.888,79.318L30.888,79.318z"/>
				<path fill="#484848" d="M48.181,74.271l-0.778,1.131c-1.828-0.648-3.284-1.947-4.009-3.617c-0.704,1.883-2.199,3.32-4.156,4.025
					l-0.798-1.168c2.486-0.816,4.193-2.896,4.212-5.308v-1.56h1.429v1.56C44.063,71.507,45.769,73.475,48.181,74.271z
					 M52.133,80.543h-9.222v1.8h9.834v1.169H41.482V79.43h9.203v-1.65h-9.24v-1.17h10.688V80.543z M52.133,75.773h-1.466v-4.285
					h-3.674v-1.206h3.674v-3.043h1.466V75.773z"/>
				<path fill="#484848" d="M65.659,82.898h-1.393v-5.715h-3.062v-1.205h3.062v-2.933h-2.782c-0.808,2.793-2.616,5.261-5.733,7.125
					l-0.891-1.058c3.59-2.124,5.39-5.104,5.678-8.555h-4.937v-1.205h6.384c0,0.845-0.074,1.679-0.224,2.485h2.505v-4.155h1.393
					V82.898z M68.999,83.734h-1.392V67.239h1.392V83.734z"/>
				<path fill="#484848" d="M84.678,75.032h-7.736v-6.718h7.736V75.032z M90.671,82.547L90.17,83.68
					c-2.486-0.335-4.75-1.504-5.715-3.044c-1.002,1.567-3.321,2.709-5.808,3.044l-0.521-1.133c2.839-0.314,5.566-1.911,5.566-3.563
					h-4.881v-1.133h4.898v-1.613h1.447v1.613h4.936v1.133h-4.897C85.197,80.6,87.832,82.193,90.671,82.547z M78.369,73.882h4.88
					v-4.379h-4.88V73.882z M89.669,76.721H88.24v-9.48h1.429V76.721z"/>
			</g>
			<g enable-background="new    ">
				<path fill="#484848" d="M10.478,95.715l-0.687,1.15c-1.902-0.621-3.34-1.939-4.045-3.6c-0.714,1.893-2.236,3.366-4.212,4.082
					l-0.742-1.17c2.468-0.835,4.193-2.969,4.212-5.344V90.13H1.237v-1.206h8.906v1.206H6.432v0.705
					C6.433,92.986,8.047,94.917,10.478,95.715z M13.892,101.114c0,1.93-2.041,3.043-5.437,3.043s-5.474-1.113-5.474-3.043
					c0-1.894,2.078-3.007,5.474-3.007S13.892,99.223,13.892,101.114z M4.447,101.114c-0.019,1.188,1.521,1.874,4.008,1.874
					c2.505,0,4.026-0.688,4.026-1.874c0-1.15-1.521-1.837-4.026-1.837C5.969,99.277,4.429,99.964,4.447,101.114z M13.743,91.911
					h2.486v1.225h-2.486v4.527h-1.447v-9.964h1.447V91.911z"/>
				<path fill="#484848" d="M19.681,93.47h4.917v-4.36h1.429v11.134h-7.793V89.109h1.447V93.47z M24.598,99.018v-4.379h-4.917v4.379
					H24.598z M30.869,104.23h-1.466V87.699h1.466V104.23z"/>
				<path fill="#484848" d="M48.181,96.16l-0.815,1.132c-1.81-0.724-3.247-2.161-3.952-3.952c-0.705,1.994-2.208,3.581-4.156,4.36
					l-0.779-1.188c2.468-0.908,4.175-3.21,4.193-5.752v-2.04H44.1v2.097C44.099,93.117,45.769,95.288,48.181,96.16z M52.504,103.842
					h-11.04v-5.177h1.466v3.952h9.574V103.842z M52.133,100.075h-1.466V92.82h-3.674v-1.226h3.674v-3.878h1.466V100.075z"/>
				<path fill="#484848" d="M64.676,95.752l-0.761,1.169c-1.855-0.668-3.293-2.05-3.989-3.767c-0.724,1.938-2.254,3.488-4.212,4.229
					l-0.761-1.169c2.449-0.891,4.193-3.117,4.193-5.474V90.13h-3.729v-1.225h8.888v1.225h-3.691v0.595
					C60.612,92.876,62.264,94.917,64.676,95.752z M68.609,101.114c0,1.948-2.098,3.062-5.529,3.079
					c-3.433-0.019-5.529-1.131-5.529-3.079s2.098-3.063,5.529-3.063S68.609,99.166,68.609,101.114z M58.998,101.114
					c-0.02,1.188,1.559,1.911,4.082,1.911c2.522,0,4.082-0.725,4.082-1.911c0-1.206-1.56-1.931-4.082-1.931
					C60.557,99.184,58.979,99.908,58.998,101.114z M68.554,97.533h-1.466V93.21h-3.321v-1.206h3.321v-4.305h1.466V97.533z"/>
			</g>
		</g>
	</g>
</g>
<g id="g-root-tx__1lr4xvo1wbam82-fill" transform="translate(716, 230)">
	<g id="tx__1lr4xvo1wbam82-fill">
		<g>
			<g enable-background="new    ">
				<path fill="#FFFFFF" d="M-98.395-57.955l-1.43,1.893c-1.81-0.891-3.023-2.561-3.729-4.602c-0.732,2.189-2.041,3.98-3.952,4.917
					l-1.466-1.911c2.856-1.316,4.212-4.546,4.212-7.682v-2.523h2.375v2.523C-102.402-62.314-101.104-59.254-98.395-57.955z
					 M-95.277-62.648h2.486v2.004h-2.486v8.367h-2.375v-16.885h2.375V-62.648z"/>
				<path fill="#FFFFFF" d="M-76.778-59.271h-15.399v-1.894h3.47v-2.022c-1.234-0.547-1.93-1.383-1.93-2.468
					c0-2.041,2.394-3.266,6.159-3.266c3.729,0,6.123,1.225,6.143,3.266c-0.009,1.095-0.733,1.948-1.985,2.486v2.004h3.544
					L-76.778-59.271L-76.778-59.271z M-78.615-55.357c-0.019,1.985-2.227,3.063-5.882,3.063c-3.711,0-5.919-1.076-5.919-3.063
					c0-1.947,2.208-3.023,5.919-3.023C-80.842-58.382-78.634-57.307-78.615-55.357z M-88.171-65.655
					c-0.02,0.929,1.299,1.392,3.692,1.392c2.355,0,3.691-0.463,3.691-1.392c0-0.946-1.336-1.446-3.691-1.446
					C-86.872-67.102-88.189-66.602-88.171-65.655z M-88.004-55.357c-0.02,0.872,1.169,1.299,3.507,1.299
					c2.282,0,3.488-0.427,3.507-1.299c-0.019-0.834-1.225-1.242-3.507-1.242C-86.835-56.6-88.021-56.191-88.004-55.357z
					 M-82.679-61.165v-1.41c-0.558,0.065-1.159,0.093-1.8,0.093c-0.658,0-1.271-0.027-1.838-0.111v1.43L-82.679-61.165
					L-82.679-61.165z"/>
				<path fill="#FFFFFF" d="M-65.386-57.732l-1.317,1.855c-1.883-0.863-3.229-2.588-3.971-4.62
					c-0.761,2.235-2.144,4.128-4.102,5.047l-1.373-1.874c2.82-1.316,4.23-4.453,4.249-7.236V-65.6h-3.581v-1.93h9.353v1.93h-3.396
					v1.039C-69.542-61.98-68.169-59.014-65.386-57.732z M-62.436-62.725h2.485v1.985h-2.485v8.461h-2.375v-16.884h2.375V-62.725z"/>
				<path fill="#FFFFFF" d="M-39.558-54.337h-15.4v-1.931h3.284v-5.307h2.355v5.307h1.855v-5.307h2.338v5.307h5.566L-39.558-54.337
					L-39.558-54.337z M-40.949-66.045c-0.019,2.06-0.019,4.379-0.631,7.773l-2.319-0.203c0.558-3.09,0.575-5.392,0.575-7.349
					h-10.113v-1.873h12.487L-40.949-66.045L-40.949-66.045z"/>
				<path fill="#FFFFFF" d="M-23.137-59.402h-3.711v1.577h1.837v5.548h-2.356v-3.691h-9.463v-1.855h1.93v-1.577h-3.637v-1.875h15.4
					V-59.402z M-24.695-65.507c-0.019,2.06-2.431,3.34-6.142,3.34c-3.729,0-6.16-1.28-6.16-3.34s2.431-3.341,6.16-3.321
					C-27.126-68.848-24.714-67.566-24.695-65.507z M-34.529-65.507c-0.019,1.002,1.336,1.503,3.692,1.503
					c2.338,0,3.692-0.501,3.692-1.503c0-0.966-1.354-1.484-3.692-1.484C-33.193-66.991-34.548-66.473-34.529-65.507z
					 M-29.186-57.825v-1.577h-3.321v1.577H-29.186z"/>
			</g>
		</g>
	</g>
</g>
<g id="g-root-tx__18gawlg1wbakn8-fill" transform="translate(878, 254)">
	<g id="tx__18gawlg1wbakn8-fill">
		<g>
			<g enable-background="new    ">
				<path fill="#FFFFFF" d="M-119.795-101.193h-3.618v5.585h-2.412v-5.585h-3.451v5.585h-2.431v-5.585h-3.544v-1.911h15.456
					V-101.193z M-121.409-108.114c0,2.282-2.542,3.711-6.16,3.711s-6.142-1.429-6.123-3.711c-0.019-2.318,2.505-3.822,6.123-3.822
					S-121.409-110.433-121.409-108.114z M-131.262-108.114c-0.02,1.188,1.429,1.855,3.691,1.855c2.282,0,3.711-0.668,3.711-1.855
					c0-1.242-1.429-1.93-3.711-1.93C-129.833-110.044-131.28-109.356-131.262-108.114z"/>
				<path fill="#FFFFFF" d="M-108.031-101.063l-1.279,1.855c-1.995-0.844-3.368-2.523-4.119-4.583
					c-0.771,2.235-2.171,4.091-4.156,5.01l-1.354-1.874c2.803-1.242,4.249-4.379,4.249-7.236v-1.039h-3.58v-1.93h9.536v1.93h-3.524
					v1.039C-112.262-105.164-110.87-102.251-108.031-101.063z M-104.673-95.608h-2.395v-16.885h2.395V-95.608z"/>
				<path fill="#FFFFFF" d="M-86.936-97.575h-15.455v-1.93h6.513v-3.117h-4.88v-8.795h2.375v2.615h7.366v-2.615h2.356v8.795h-4.861
					v3.117h6.588v1.93H-86.936z M-91.017-104.515v-2.395h-7.366v2.395H-91.017z"/>
				<path fill="#FFFFFF" d="M-70.569-101.379h-6.567v5.771h-2.338v-5.771h-6.495v-1.931h15.399L-70.569-101.379L-70.569-101.379z
					 M-71.107-106.5l-0.928,1.911c-2.95-0.428-5.111-1.791-6.216-3.618c-1.113,1.827-3.257,3.19-6.179,3.618l-0.946-1.911
					c3.841-0.481,5.882-2.69,5.882-4.677v-0.815h2.486v0.815C-77.008-109.19-74.985-106.981-71.107-106.5z"/>
				<path fill="#FFFFFF" d="M-54.39-101.063l-1.28,1.855c-1.994-0.844-3.367-2.523-4.119-4.583c-0.77,2.235-2.171,4.091-4.156,5.01
					l-1.354-1.874c2.802-1.242,4.249-4.379,4.249-7.236v-1.039h-3.581v-1.93h9.537v1.93h-3.525v1.039
					C-58.62-105.164-57.229-102.251-54.39-101.063z M-51.031-95.608h-2.394v-16.885h2.394V-95.608z"/>
				<path fill="#FFFFFF" d="M-34.072-95.905h-12.58v-5.047h2.356v-2.245c-1.513,0.065-2.95,0.074-4.23,0.074l-0.277-1.874
					c3.099-0.02,7.272-0.057,10.836-0.501l0.13,1.688c-1.336,0.223-2.718,0.381-4.082,0.481v3.21h-2.375v2.318h10.224
					L-34.072-95.905L-34.072-95.905z M-39.101-108.875c0,1.8-1.764,2.969-4.212,2.969c-2.506,0-4.25-1.169-4.25-2.969
					s1.727-3.043,4.25-3.024C-40.863-111.918-39.101-110.675-39.101-108.875z M-45.316-108.875
					c-0.019,0.815,0.799,1.262,2.004,1.262c1.133,0,1.948-0.444,1.968-1.262c-0.02-0.835-0.835-1.3-1.968-1.3
					C-44.52-110.175-45.335-109.71-45.316-108.875z M-34.443-99.728h-2.375v-1.336h-3.229v-1.613h3.229v-9.797h2.375V-99.728z"/>
			</g>
		</g>
	</g>
</g>
<g id="g-root-tx__1q6yg041wbalft-fill" transform="translate(530, 290)">
	<g id="tx__1q6yg041wbalft-fill">
		<g>
			<g enable-background="new    ">
				<path fill="#484848" d="M-33.935-6.79l-0.762,1.169c-1.854-0.668-3.293-2.051-3.988-3.768c-0.725,1.938-2.255,3.488-4.212,4.23
					l-0.762-1.169c2.449-0.891,4.193-3.116,4.193-5.474v-0.611h-3.729v-1.225h8.889v1.225h-3.692v0.594
					C-37.998-9.666-36.347-7.625-33.935-6.79z M-30.001-1.428c0,1.947-2.097,3.062-5.529,3.08c-3.433-0.02-5.528-1.133-5.528-3.08
					c0-1.948,2.097-3.063,5.528-3.063C-32.098-4.49-30.001-3.376-30.001-1.428z M-39.612-1.428c-0.019,1.188,1.56,1.91,4.082,1.91
					c2.523,0,4.082-0.724,4.082-1.91c0-1.206-1.559-1.93-4.082-1.93C-38.053-3.357-39.631-2.634-39.612-1.428z M-30.057-5.009
					h-1.467v-4.323h-3.32v-1.206h3.32v-4.305h1.467V-5.009z"/>
				<path fill="#484848" d="M-18.701-7.198h-7.736v-6.717h7.736V-7.198z M-25.01-8.35h4.88v-4.379h-4.88V-8.35z M-13.71-1.576h-9.24
					v1.855h9.834v1.188h-11.28v-4.119h9.259V-4.34h-9.277v-1.17h10.705V-1.576z M-13.71-6.326h-1.429v-8.517h1.429V-6.326z"/>
				<path fill="#484848" d="M0.67-11.65h-4.75v3.266h3.989v1.169H-4.08v3.711c2.365-0.027,3.813-0.111,5.604-0.445l0.13,1.188
					c-1.911,0.39-3.471,0.427-6.086,0.445h-1.039V-12.82h6.142L0.67-11.65L0.67-11.65z M4.622,0.799H3.23v-8.164H0.8V-8.57h2.432
					v-5.865h1.392L4.622,0.799L4.622,0.799z M7.999,1.652h-1.41v-16.495h1.41V1.652z"/>
				<path fill="#484848" d="M25.403-0.593H10.3v-1.206h15.104L25.403-0.593L25.403-0.593z M24.624-6.53l-0.668,1.226
					c-2.486-0.575-5.112-2.348-6.179-4.787c-1.066,2.431-3.685,4.201-6.18,4.787L10.93-6.53c2.857-0.557,6.067-3.043,6.067-5.882
					v-1.262h1.521v1.262C18.52-9.592,21.748-7.068,24.624-6.53z"/>
				<path fill="#484848" d="M41.824-0.5H26.721v-1.206h15.104L41.824-0.5L41.824-0.5z M40.08-4.73H28.669v-8.684h11.226v1.225h-9.74
					v2.449h9.389v1.17h-9.389v2.652h9.927L40.08-4.73L40.08-4.73z"/>
			</g>
			<g enable-background="new    ">
				<path fill="#484848" d="M-35.122,13.409h-7.737V6.691h7.737V13.409z M-29.129,20.924l-0.501,1.133
					c-2.486-0.334-4.75-1.504-5.715-3.043c-1.002,1.566-3.321,2.709-5.809,3.043l-0.52-1.133c2.839-0.314,5.565-1.91,5.565-3.563
					h-4.88v-1.133h4.898v-1.613h1.447v1.613h4.936v1.133h-4.897C-34.604,18.977-31.968,20.57-29.129,20.924z M-41.431,12.259h4.88
					V7.88h-4.88V12.259L-41.431,12.259z M-30.131,15.098h-1.429v-9.48h1.429V15.098z"/>
				<path fill="#484848" d="M-16.289,17.343c1.586-0.065,3.21-0.204,4.731-0.427l0.11,1.076c-3.767,0.688-7.83,0.705-10.799,0.705
					l-0.204-1.206c1.383-0.009,3.017-0.019,4.731-0.074v-3.099h1.429L-16.289,17.343L-16.289,17.343z M-12.411,8.993h-3.878
					c0.037,2.134,1.809,3.868,4.249,4.563l-0.687,1.15c-1.985-0.594-3.535-1.864-4.269-3.544c-0.724,1.771-2.264,3.09-4.249,3.692
					l-0.705-1.113c2.44-0.715,4.156-2.523,4.193-4.75h-3.784V7.786h3.822V5.745h1.429v2.041h3.878V8.993z M-9.016,22.148h-1.447
					V5.616h1.447V22.148z"/>
				<path fill="#484848" d="M3.676,13.688l-0.761,1.15c-1.864-0.668-3.303-2.051-4.008-3.748c-0.714,1.902-2.235,3.424-4.193,4.139
					l-0.761-1.15c2.431-0.872,4.193-3.08,4.193-5.398V7.955h-3.729V6.768h8.888v1.188h-3.691V8.66
					C-0.388,10.813,1.264,12.854,3.676,13.688z M7.554,22.111H6.088v-4.527h-9.63v-1.206H7.554V22.111z M7.554,15.506H6.088v-4.342
					H2.785V9.939h3.303V5.616h1.466V15.506z"/>
				<path fill="#484848" d="M14.642,17.658V15.82c-1.921-0.213-3.173-1.336-3.153-2.969c-0.02-1.854,1.559-3.062,3.896-3.062
					c2.301,0,3.896,1.206,3.915,3.062c-0.019,1.633-1.289,2.756-3.19,2.987v1.763c1.54-0.074,3.09-0.193,4.526-0.408l0.094,1.113
					c-3.601,0.612-7.496,0.649-10.392,0.649l-0.241-1.243C11.441,17.714,13.009,17.714,14.642,17.658z M20.338,8.826h-9.945V7.639
					h4.249V5.652h1.467v1.986h4.229V8.826z M12.842,12.854c0,1.149,1.021,1.893,2.542,1.873c1.503,0.02,2.523-0.724,2.523-1.873
					c0-1.15-1.021-1.931-2.523-1.931C13.862,10.923,12.842,11.702,12.842,12.854z M23.104,12.648h2.635v1.225h-2.635v8.238h-1.467
					V5.616h1.467V12.648z"/>
			</g>
		</g>
	</g>
</g>
<g id="g-root-tx__1cvhxms1wban0r-fill" transform="translate(698, 314)">
	<g id="tx__1cvhxms1wban0r-fill">
		<g>
			<g enable-background="new    ">
				<path fill="#484848" d="M-62.873-53.739l-0.742,1.133c-1.883-0.668-3.32-2.022-4.025-3.729c-0.705,1.874-2.219,3.33-4.156,4.045
					l-0.779-1.132c2.468-0.872,4.193-3.006,4.212-5.361v-0.707h-3.767v-1.188h8.906v1.188h-3.711v0.705
					C-66.938-56.597-65.322-54.593-62.873-53.739z M-59.626-45.353h-1.447v-4.49h-9.352v-1.188h10.799V-45.353z M-59.626-57.487
					h2.486v1.243h-2.486v4.343h-1.447v-9.946h1.447V-57.487z"/>
				<path fill="#484848" d="M-47.343-57.896h3.451v-3.952h1.466v8.851h-1.466v-3.693h-3.434c-0.297,1.949-1.994,3.248-4.229,3.248
					c-2.505,0-4.286-1.56-4.286-3.822c0-2.245,1.781-3.822,4.286-3.805C-49.338-61.087-47.658-59.798-47.343-57.896z
					 M-54.449-57.265c0,1.503,1.206,2.598,2.896,2.598c1.67,0,2.856-1.095,2.856-2.598c0-1.521-1.188-2.579-2.856-2.561
					C-53.243-59.844-54.449-58.786-54.449-57.265z M-51.592-50.065h7.7v-2.098h1.466v6.588h-10.632v-6.588h1.466V-50.065z
					 M-43.892-46.763v-2.135h-7.7v2.135H-43.892z"/>
				<path fill="#484848" d="M-29.809-50.084l-0.835,1.15c-1.855-0.899-3.424-2.866-4.156-5.104
					c-0.761,2.431-2.421,4.564-4.269,5.511l-0.891-1.149c2.375-1.149,4.416-4.286,4.435-7.106v-2.152h-3.841v-1.206h8.98v1.206
					h-3.711v2.152C-34.113-54.129-32.202-51.216-29.809-50.084z M-26.914-55.168h2.765v1.243h-2.765v8.572h-1.447v-16.495h1.447
					V-55.168z"/>
				<path fill="#484848" d="M-9.881-54.055h-7.737v-6.718h7.737V-54.055z M-3.888-46.54l-0.501,1.133
					c-2.486-0.334-4.75-1.504-5.715-3.043c-1.003,1.566-3.321,2.709-5.809,3.043l-0.52-1.133c2.839-0.314,5.565-1.91,5.565-3.563
					h-4.88v-1.133h4.898v-1.613h1.446v1.613h4.937v1.133h-4.898C-9.361-48.487-6.727-46.894-3.888-46.54z M-16.189-55.205h4.881
					v-4.379h-4.881V-55.205z M-4.89-52.366h-1.43v-9.481h1.43V-52.366z"/>
			</g>
			<g enable-background="new    ">
				<path fill="#484848" d="M-67.623-32.909c1.828-0.074,3.721-0.205,5.438-0.445l0.093,1.076c-3.451,0.594-7.44,0.668-10.372,0.668
					l-0.148-1.207c1.067-0.01,2.272-0.019,3.544-0.056v-3.581h1.447L-67.623-32.909L-67.623-32.909z M-63.374-39.237
					c-0.019,1.076-0.019,2.729-0.427,4.881l-1.466-0.111c0.398-1.977,0.437-3.377,0.464-4.416h-6.791v-1.225h8.22V-39.237z
					 M-59.051-25.247h-11.021v-4.843h1.466v3.618h9.557L-59.051-25.247L-59.051-25.247z M-59.589-36.009h2.412v1.243h-2.412v5.788
					h-1.484V-41.39h1.484V-36.009z"/>
				<path fill="#484848" d="M-47.491-33.985h-6.16v3.896c2.737,0,5.178-0.12,8.127-0.594l0.148,1.225
					c-3.043,0.481-5.548,0.595-8.387,0.595h-1.373v-6.31h6.179v-3.47h-6.216v-1.206h7.682V-33.985z M-42.481-24.858h-1.446V-41.39
					h1.446V-24.858z"/>
				<path fill="#484848" d="M-29.809-29.626l-0.835,1.15c-1.855-0.9-3.424-2.867-4.156-5.104c-0.761,2.432-2.421,4.564-4.269,5.512
					l-0.891-1.15c2.375-1.15,4.416-4.286,4.435-7.105v-2.152h-3.841v-1.206h8.98v1.206h-3.711v2.152
					C-34.113-33.671-32.202-30.758-29.809-29.626z M-26.914-34.71h2.765v1.243h-2.765v8.571h-1.447V-41.39h1.447V-34.71z"/>
				<path fill="#484848" d="M-3.461-27.233H-18.49v-1.205h3.729v-5.438h1.446v5.438h2.673v-5.438h1.429v5.438h5.752V-27.233z
					 M-5.242-37.883c0,2.114,0,4.249-0.594,7.312l-1.429-0.168c0.594-2.912,0.594-5.084,0.594-7.144v-0.631h-10.242v-1.206h11.671
					V-37.883z"/>
				<path fill="#484848" d="M12.96-32.241H8.952v2.096h2.151v5.252H9.638v-4.082H-0.399v-1.17H1.92v-2.096h-3.989v-1.188H12.96
					V-32.241z M11.271-37.846c0,1.985-2.245,3.173-5.826,3.153C1.864-34.673-0.4-35.86-0.4-37.846c0-1.968,2.265-3.154,5.846-3.136
					C9.026-41,11.271-39.813,11.271-37.846z M1.104-37.846c-0.019,1.262,1.671,2.022,4.343,2.022c2.635,0,4.342-0.762,4.342-2.022
					c0-1.226-1.707-1.985-4.342-1.968C2.773-39.831,1.085-39.069,1.104-37.846z M7.523-30.146v-2.098H3.385v2.098H7.523z"/>
			</g>
		</g>
	</g>
</g>
<g id="g-root-tx__zknwck1wbalfx-fill" transform="translate(866, 338)">
	<g id="tx__zknwck1wbalfx-fill">
		<g>
			<g enable-background="new    ">
				<path fill="#484848" d="M-86.101-99.862l0.093,1.058c-1.475,0.232-3.016,0.381-4.526,0.465v3.266H-92v-3.191
					c-1.671,0.073-3.258,0.082-4.64,0.073l-0.204-1.188C-93.764-99.398-89.645-99.417-86.101-99.862z M-87.344-103.48
					c-0.019,1.764-1.67,2.857-4.082,2.857c-2.431,0-4.082-1.096-4.082-2.857c0-1.726,1.651-2.876,4.082-2.876
					C-89.014-106.356-87.362-105.206-87.344-103.48z M-82.742-90.9H-94.47v-4.824h1.466v3.601h10.262V-90.9z M-94.116-103.48
					c-0.02,1.076,1.076,1.781,2.689,1.781c1.56,0,2.672-0.705,2.69-1.781c-0.02-1.058-1.132-1.781-2.69-1.763
					C-93.04-105.262-94.135-104.538-94.116-103.48z M-83.15-94.5h-1.466v-1.707h-3.414v-1.057h3.414v-9.761h1.466V-94.5z"/>
				<path fill="#484848" d="M-71.832-104.074h3.711v-2.95h1.466v9.834h-1.466v-2.19H-72.5v-1.205h4.379v-2.282h-4.102
					c-1.122,2.599-3.702,4.472-7.272,5.455l-0.575-1.169c4.025-1.113,6.578-3.33,6.884-6.143h-6.049v-1.188h7.606
					C-71.627-105.271-71.702-104.658-71.832-104.074z M-66.655-90.566h-1.466v-4.732h-9.631v-1.168h11.097V-90.566z"/>
				<path fill="#484848" d="M-48.769-95.279l-0.815,1.15c-1.931-0.881-3.601-2.783-4.36-5.065c-0.779,2.421-2.439,4.527-4.323,5.474
					l-0.872-1.149c2.355-1.133,4.415-4.25,4.434-7.106v-2.154h-3.896v-1.205h9.296v1.205h-3.934v2.154
					C-53.24-99.176-51.199-96.337-48.769-95.279z M-45.54-90.549h-1.467v-16.494h1.467V-90.549z"/>
				<path fill="#484848" d="M-32.069-99.862l0.093,1.058c-1.475,0.232-3.016,0.381-4.527,0.465v3.266h-1.466v-3.191
					c-1.67,0.073-3.257,0.082-4.639,0.073l-0.204-1.188C-39.732-99.398-35.613-99.417-32.069-99.862z M-33.313-103.48
					c-0.019,1.764-1.67,2.857-4.082,2.857c-2.431,0-4.082-1.096-4.082-2.857c0-1.726,1.651-2.876,4.082-2.876
					C-34.982-106.356-33.331-105.206-33.313-103.48z M-28.711-90.9h-11.727v-4.824h1.466v3.601h10.261V-90.9z M-40.086-103.48
					c-0.019,1.076,1.076,1.781,2.69,1.781c1.56,0,2.672-0.705,2.69-1.781c-0.02-1.058-1.133-1.781-2.69-1.763
					C-39.009-105.262-40.104-104.538-40.086-103.48z M-29.119-94.5h-1.467v-1.707H-34v-1.057h3.414v-9.761h1.467V-94.5z"/>
				<path fill="#484848" d="M-17.002-96.559h-3.582v-1.504h3.582v-3.58h1.502v3.58h3.601v1.504H-15.5v3.6h-1.502V-96.559z"/>
			</g>
			<g enable-background="new    ">
				<path fill="#484848" d="M-86.954-78.532l-0.762,1.169c-1.854-0.668-3.293-2.051-3.988-3.768
					c-0.725,1.938-2.255,3.488-4.212,4.23l-0.762-1.169c2.449-0.891,4.193-3.116,4.193-5.474v-0.612h-3.729v-1.226h8.889v1.226
					h-3.692v0.595C-91.018-81.408-89.366-79.367-86.954-78.532z M-83.021-73.17c0,1.947-2.097,3.062-5.529,3.08
					c-3.433-0.02-5.528-1.133-5.528-3.08c0-1.948,2.097-3.063,5.528-3.063C-85.117-76.232-83.021-75.118-83.021-73.17z
					 M-92.632-73.17c-0.019,1.188,1.56,1.91,4.082,1.91c2.523,0,4.082-0.724,4.082-1.91c0-1.206-1.559-1.93-4.082-1.93
					C-91.072-75.1-92.65-74.376-92.632-73.17z M-83.076-76.751h-1.467v-4.323h-3.32v-1.206h3.32v-4.305h1.467V-76.751z"/>
				<path fill="#484848" d="M-79.328-73.188l-0.799-1.188c4.463-2.115,6.735-5.278,7.069-9.222h-6.309v-1.188h7.793
					C-71.591-80.035-73.799-75.842-79.328-73.188z M-66.692-70.09h-1.466v-16.495h1.466V-70.09z"/>
				<path fill="#484848" d="M-49.344-78.606l-0.761,1.15c-1.864-0.668-3.303-2.06-4.008-3.767c-0.714,1.901-2.235,3.424-4.193,4.138
					l-0.761-1.15c2.431-0.872,4.193-3.062,4.193-5.418v-0.649h-3.729v-1.205h8.888v1.205h-3.692v0.649
					C-53.407-81.52-51.756-79.46-49.344-78.606z M-45.466-70.313h-10.78v-5.789h10.779L-45.466-70.313L-45.466-70.313z
					 M-54.799-71.5h7.904v-3.434h-7.904V-71.5z M-45.466-76.918h-1.466v-4.305h-3.34v-1.225h3.34v-4.138h1.466V-76.918z"/>
				<path fill="#484848" d="M-41.922-77.049l-0.611-1.149c3.941-1.112,6.457-3.303,6.771-6.104h-5.919v-1.205h7.479
					C-34.222-81.371-37.172-78.402-41.922-77.049z M-29.045-70.313h-10.707v-6.142h10.707V-70.313L-29.045-70.313z M-38.341-71.5
					h7.85v-3.785h-7.85V-71.5z M-29.045-77.159h-1.466v-3.935h-3.654v-1.224h3.654v-4.249h1.466V-77.159z"/>
				<path fill="#484848" d="M-10.75-70.926h-1.393v-5.715h-3.062v-1.205h3.062v-2.932h-2.783c-0.808,2.793-2.615,5.26-5.732,7.125
					l-0.892-1.058c3.591-2.124,5.392-5.103,5.679-8.554h-4.937v-1.207h6.383c0,0.846-0.073,1.68-0.223,2.486h2.505v-4.156h1.393
					V-70.926z M-7.41-70.09h-1.393v-16.495h1.393V-70.09z"/>
				<path fill="#484848" d="M3.871-81.705c-0.019,2.318-1.837,3.915-4.342,3.915s-4.342-1.597-4.322-3.915
					c-0.02-2.282,1.817-3.896,4.322-3.878C2.034-85.602,3.853-83.987,3.871-81.705z M-3.365-81.705
					c-0.02,1.577,1.225,2.672,2.895,2.652c1.688,0.02,2.913-1.075,2.913-2.652c0-1.559-1.225-2.635-2.913-2.635
					C-2.141-84.34-3.384-83.264-3.365-81.705z M7.786-70.09H6.34v-4.713h-9.353v-1.207H7.786V-70.09z M10.235-82.838H7.786v2.32
					h2.449v1.243H7.786v2.505H6.34v-9.814h1.446v2.561h2.449V-82.838z"/>
			</g>
		</g>
	</g>
</g>
<g id="g-root-sy_1_cu_958kn81wb95or-stroke" transform="translate(14, 98)">
	<g id="sy_1_cu_958kn81wb95or-stroke">
		<g>
			<path fill="none" stroke="#FFFFFF" d="M133.246,113.371v61.377l40.917,20.457H-9.964v-81.834H133.246z"/>
		</g>
	</g>
</g>
<g id="g-root-sy_2_cu_1uuw4901wb972k-stroke" transform="translate(182.00009155273438, 98)">
	<g id="sy_2_cu_1uuw4901wb972k-stroke">
		<g>
			<path fill="none" stroke="#FFFFFF" d="M108.456,92.912v61.376l40.917,20.46H-34.754V92.912H108.456z M-34.754,174.748H6.163
				v20.457L-34.754,174.748z"/>
		</g>
	</g>
</g>
<g id="g-root-sy_3_cu_1uuw4901wb972l-stroke" transform="translate(350.0000915527344, 122)">
	<g id="sy_3_cu_1uuw4901wb972l-stroke">
		<g>
			<path fill="none" stroke="#FFFFFF" d="M-59.544,48.454h143.21v61.376l40.917,20.458H-59.544V48.454L-59.544,48.454z
				 M-59.544,130.288h40.917v20.46L-59.544,130.288z"/>
		</g>
	</g>
</g>
<g id="g-root-sy_4_cu_1qf2m4k1wb97uu-stroke" transform="translate(518.0001220703125, 146)">
	<g id="sy_4_cu_1qf2m4k1wb97uu-stroke">
		<g>
			<path fill="none" stroke="#FFFFFF" d="M99.793,85.829L58.876,65.371V3.995h-143.21v81.834H99.793z M-84.334,85.83h40.917v20.458
				L-84.334,85.83z"/>
		</g>
	</g>
</g>
<g id="g-root-sy_5_cu_1hjflvo1wb98nj-stroke" transform="translate(686, 170)">
	<g id="sy_5_cu_1hjflvo1wb98nj-stroke">
		<g>
			<path fill="none" stroke="#FFFFFF" d="M34.086-40.464v61.376l40.918,20.459h-184.127v-81.835H34.086z M-109.123,41.371h40.917
				v20.458L-109.123,41.371z"/>
		</g>
	</g>
</g>
<g id="g-root-sy_6_cu_1lz94041wb98n4-stroke" transform="translate(854, 194)">
	<g id="sy_6_cu_1lz94041wb98n4-stroke">
		<g>
			<path fill="none" stroke="#FFFFFF" d="M-0.932-84.923v-11.081l40.916,51.999L-0.932,7.142V-3.088h-132.982v-81.835H-0.932z
				 M-133.914-3.088h40.918v20.459L-133.914-3.088z"/>
		</g>
	</g>
</g>
<g id="g-root-tx__1cu8zgk1wbakuh-stroke" transform="translate(380, 26)">
</g>
<g id="g-root-tx__m7yft01wbakui-stroke" transform="translate(56, 134)">
</g>
<g id="g-root-tx__8whxfo1wbamfg-stroke" transform="translate(212, 158)">
</g>
<g id="g-root-tx__4gofb81wban7q-stroke" transform="translate(380, 182)">
</g>
<g id="g-root-tx__1q6yg041wbalfs-stroke" transform="translate(542, 206)">
</g>
<g id="g-root-tx__hs4xok1wbalmr-stroke" transform="translate(26, 218)">
</g>
<g id="g-root-tx__8whxfo1wbamfh-stroke" transform="translate(194, 242)">
</g>
<g id="g-root-tx__1lr4xvo1wbam82-stroke" transform="translate(716, 230)">
</g>
<g id="g-root-tx__1umry4k1wbaknj-stroke" transform="translate(362, 266)">
</g>
<g id="g-root-tx__18gawlg1wbakn8-stroke" transform="translate(878, 254)">
</g>
<g id="g-root-tx__1q6yg041wbalft-stroke" transform="translate(530, 290)">
</g>
<g id="g-root-tx__1cvhxms1wban0r-stroke" transform="translate(698, 314)">
</g>
<g id="g-root-tx__zknwck1wbalfx-stroke" transform="translate(866, 338)">
</g>
<g id="g-root-tx__1cu8zgk1wbakuh-fill_1_" transform="translate(380, 26)">
	<g id="tx__1cu8zgk1wbakuh-fill_1_">
		<g>
			<g enable-background="new    ">
				<path fill="#484848" d="M-297.101,166.555h-3.244v-12.482h-0.086l-3.566,2.233v-2.856l3.846-2.449h3.051L-297.101,166.555
					L-297.101,166.555z"/>
			</g>
		</g>
	</g>
</g>
<g enable-background="new    ">
	<path fill="#484848" d="M217.024,168.375l5.586-5.135c1.461-1.396,2.233-2.256,2.233-3.48c0-1.375-1.053-2.234-2.471-2.234
		c-1.461,0-2.406,0.924-2.406,2.406h-3.072c-0.021-3.051,2.234-4.984,5.521-4.984c3.33,0,5.543,1.892,5.543,4.599
		c0,1.763-0.859,3.224-4.061,6.123l-2.363,2.299v0.086h6.639v2.664h-11.129L217.024,168.375z"/>
</g>
<g enable-background="new    ">
	<path fill="#484848" d="M357.313,144.282h3.267c0.063,1.16,1.182,1.934,2.686,1.934c1.548,0,2.664-0.881,2.644-2.127
		c0.021-1.268-1.117-2.17-2.943-2.17h-1.438v-2.385h1.438c1.525,0,2.601-0.838,2.601-2.063c0-1.183-0.902-1.998-2.277-1.998
		s-2.514,0.772-2.558,1.955h-3.094c0.043-2.687,2.472-4.533,5.65-4.533c3.244,0,5.414,1.912,5.393,4.383
		c0.021,1.74-1.203,2.986-2.942,3.287v0.129c2.276,0.279,3.545,1.676,3.522,3.609c0.021,2.664-2.514,4.575-6.016,4.575
		C359.827,148.879,357.378,146.989,357.313,144.282z"/>
</g>
<g enable-background="new    ">
	<path fill="#484848" d="M499.585,121.413l6.574-10.248h4.061v10.205h1.978v2.6h-1.978v2.75h-3.071v-2.75h-7.563V121.413
		L499.585,121.413z M507.19,121.37v-6.66h-0.15l-4.189,6.531v0.129H507.19z"/>
</g>
<g enable-background="new    ">
	<path fill="#484848" d="M652.473,100.284h3.138c0.063,1.225,1.182,2.041,2.534,2.041c1.611,0,2.75-1.139,2.75-2.75
		c0-1.654-1.159-2.793-2.793-2.814c-1.159,0-1.977,0.43-2.448,1.311h-2.922l0.838-8.959h9.582v2.644h-6.918l-0.431,3.933h0.129
		c0.58-0.773,1.74-1.312,3.115-1.312c2.857,0,4.984,2.127,4.984,5.112c0,3.138-2.385,5.394-5.888,5.394
		C654.9,104.88,652.537,102.968,652.473,100.284z"/>
</g>
<g enable-background="new    ">
	<path fill="#484848" d="M774.924,75.417c0-5.242,2.514-8.357,6.402-8.357c3.137,0,5.264,1.978,5.586,4.533h-3.18
		c-0.259-1.096-1.16-1.762-2.406-1.762c-2.105,0-3.223,1.912-3.244,4.963h0.15c0.709-1.375,2.256-2.191,3.975-2.191
		c2.793,0,4.877,2.105,4.877,5.027c0,3.158-2.385,5.436-5.887,5.414C777.975,83.022,774.924,81.11,774.924,75.417z M783.947,77.715
		c0-1.547-1.139-2.771-2.729-2.771c-1.59,0-2.793,1.246-2.813,2.771c0.021,1.524,1.182,2.771,2.771,2.771
		S783.947,79.284,783.947,77.715z"/>
</g>
</svg>
