<?xml version="1.0" encoding="UTF-8"?>
<svg id="Layer_1" xmlns="http://www.w3.org/2000/svg" version="1.1" xmlns:xlink="http://www.w3.org/1999/xlink" viewBox="0 0 900 409.6">
  <!-- Generator: Adobe Illustrator 29.3.1, SVG Export Plug-In . SVG Version: 2.1.0 Build 151)  -->
  <defs>
    <style>
      .st0 {
        fill: #e8f9ff;
      }

      .st1 {
        stroke: #92bd39;
      }

      .st1, .st2, .st3, .st4, .st5, .st6, .st7, .st8 {
        fill: none;
        stroke-linecap: round;
        stroke-linejoin: round;
        stroke-width: 2px;
      }

      .st2 {
        stroke-dasharray: 5 7;
      }

      .st2, .st6 {
        stroke: #969696;
      }

      .st9 {
        fill: #7f64ea;
      }

      .st3 {
        stroke: #4e88e7;
      }

      .st10 {
        fill: #edf4ff;
      }

      .st4 {
        stroke: #7f64ea;
      }

      .st11 {
        fill: #f3f0ff;
      }

      .st12 {
        isolation: isolate;
      }

      .st13 {
        fill: #ffebf7;
      }

      .st14 {
        fill: #de58a9;
      }

      .st15 {
        fill: #92bd39;
      }

      .st16 {
        fill: #4e88e7;
      }

      .st5 {
        stroke: #1eabda;
      }

      .st17 {
        fill: #3cc583;
      }

      .st7 {
        stroke: #de58a9;
      }

      .st8 {
        stroke: #3cc583;
      }

      .st18 {
        fill: #e3fff2;
      }

      .st19 {
        fill: #484848;
      }

      .st20 {
        fill: #f4ffdc;
      }

      .st21 {
        fill: #1eabda;
      }
    </style>
  </defs>
  <g id="items">
    <g id="blend">
      <g id="g-root-cp_1_g-1_1_1uonq2a1n621vs-fill">
        <g id="cp_1_g-1_1_1uonq2a1n621vs-fill">
          <path class="st10" d="M38.5,190.4c0,31.3,25.4,56.7,56.7,56.7s56.7-25.4,56.7-56.7-25.4-56.7-56.7-56.7c-31.3,0-56.7,25.4-56.7,56.7M17.8,190.4c0,2.8,2.3,5.2,5.2,5.2s5.2-2.3,5.2-5.2-2.3-5.2-5.2-5.2c-2.8,0-5.2,2.3-5.2,5.2"/>
        </g>
        <g id="cp_1_g-1_1_1uonq2a1n621vs-fill1" data-name="cp_1_g-1_1_1uonq2a1n621vs-fill">
          <path class="st10" d="M102.9,77c0,4.3-3.5,7.7-7.7,7.7s-7.7-3.5-7.7-7.7,3.5-7.7,7.7-7.7c4.3,0,7.7,3.5,7.7,7.7Z"/>
        </g>
      </g>
      <g id="g-root-cp_2_g-2_1q8u7xu1n622o2-fill">
        <g id="cp_2_g-2_1q8u7xu1n622o2-fill">
          <path class="st18" d="M182.8,190.4c0,31.3,25.4,56.7,56.7,56.7s56.7-25.4,56.7-56.7-25.4-56.7-56.7-56.7-56.7,25.4-56.7,56.7M162.2,190.4c0,2.8,2.3,5.2,5.2,5.2s5.2-2.3,5.2-5.2-2.3-5.2-5.2-5.2c-2.8,0-5.2,2.3-5.2,5.2"/>
        </g>
        <g id="cp_2_g-2_1q8u7xu1n622o2-fill1" data-name="cp_2_g-2_1q8u7xu1n622o2-fill">
          <path class="st18" d="M247.3,303.8c0,4.3-3.5,7.7-7.7,7.7s-7.7-3.5-7.7-7.7,3.5-7.7,7.7-7.7,7.7,3.5,7.7,7.7Z"/>
        </g>
      </g>
      <g id="g-root-cp_3_g-3_1_1hdtos21n620b0-fill">
        <g id="cp_3_g-3_1_1hdtos21n620b0-fill">
          <path class="st20" d="M327.2,190.4c0,31.3,25.4,56.7,56.7,56.7s56.7-25.4,56.7-56.7-25.4-56.7-56.7-56.7-56.7,25.4-56.7,56.7M306.6,190.4c0,2.8,2.3,5.2,5.2,5.2s5.2-2.3,5.2-5.2-2.3-5.2-5.2-5.2c-2.8,0-5.2,2.3-5.2,5.2"/>
        </g>
        <g id="cp_3_g-3_1_1hdtos21n620b0-fill1" data-name="cp_3_g-3_1_1hdtos21n620b0-fill">
          <path class="st20" d="M391.6,77c0,4.3-3.5,7.7-7.7,7.7s-7.7-3.5-7.7-7.7,3.5-7.7,7.7-7.7,7.7,3.5,7.7,7.7Z"/>
        </g>
      </g>
      <g id="g-root-cp_4_g-4_1hdtos21n620b2-fill">
        <g id="cp_4_g-4_1hdtos21n620b2-fill">
          <path class="st0" d="M471.5,190.4c0,31.3,25.4,56.7,56.7,56.7s56.7-25.4,56.7-56.7-25.4-56.7-56.7-56.7-56.7,25.4-56.7,56.7M450.9,190.4c0,2.8,2.3,5.2,5.2,5.2s5.2-2.3,5.2-5.2-2.3-5.2-5.2-5.2-5.2,2.3-5.2,5.2"/>
        </g>
        <g id="cp_4_g-4_1hdtos21n620b2-fill1" data-name="cp_4_g-4_1hdtos21n620b2-fill">
          <path class="st0" d="M536,303.8c0,4.3-3.5,7.7-7.7,7.7s-7.7-3.5-7.7-7.7,3.5-7.7,7.7-7.7,7.7,3.5,7.7,7.7Z"/>
        </g>
      </g>
      <g id="g-root-cp_5_g-5_1_1cy06nm1n6213c-fill">
        <g id="cp_5_g-5_1_1cy06nm1n6213c-fill">
          <path class="st11" d="M615.9,190.4c0,31.3,25.4,56.7,56.7,56.7s56.7-25.4,56.7-56.7-25.4-56.7-56.7-56.7c-31.3,0-56.7,25.4-56.7,56.7M595.3,190.4c0,2.8,2.3,5.2,5.2,5.2s5.2-2.3,5.2-5.2-2.3-5.2-5.2-5.2c-2.8,0-5.2,2.3-5.2,5.2"/>
        </g>
        <g id="cp_5_g-5_1_1cy06nm1n6213c-fill1" data-name="cp_5_g-5_1_1cy06nm1n6213c-fill">
          <path class="st11" d="M680.4,77c0,4.3-3.5,7.7-7.7,7.7s-7.7-3.5-7.7-7.7,3.5-7.7,7.7-7.7c4.3,0,7.7,3.5,7.7,7.7Z"/>
        </g>
      </g>
      <g id="g-root-cp_6_g-6_1cy06nm1n6213e-fill">
        <g id="cp_6_g-6_1cy06nm1n6213e-fill">
          <path class="st13" d="M760.3,190.4c0,31.3,25.4,56.7,56.7,56.7s56.7-25.4,56.7-56.7-25.4-56.7-56.7-56.7-56.7,25.4-56.7,56.7M739.7,190.4c0,2.8,2.3,5.2,5.2,5.2s5.2-2.3,5.2-5.2-2.3-5.2-5.2-5.2-5.2,2.3-5.2,5.2M884,190.4c0,2.8,2.3,5.2,5.2,5.2s5.2-2.3,5.2-5.2-2.3-5.2-5.2-5.2-5.2,2.3-5.2,5.2"/>
        </g>
        <g id="cp_6_g-6_1cy06nm1n6213e-fill1" data-name="cp_6_g-6_1cy06nm1n6213e-fill">
          <path class="st13" d="M824.7,303.8c0,4.3-3.5,7.7-7.7,7.7s-7.7-3.5-7.7-7.7,3.5-7.7,7.7-7.7,7.7,3.5,7.7,7.7Z"/>
        </g>
      </g>
      <g id="g-root-tx__58lgy1n6213i-fill">
        <g id="tx__58lgy1n6213i-fill">
          <g class="st12">
            <path class="st19" d="M622.7,39.9h-10.2v-.8h4.6v-2.1h-3.3v-3.4h6.7v-1.8h-6.7v-.8h7.7v3.4h-6.7v1.8h6.9v.8h-3.6v2.1h4.7v.8h0Z"/>
            <path class="st19" d="M625.9,31.6h5.5v-1.3h1v4.1h-3.3v1.3h4.6v.8h-10.2v-.8h4.6v-1.3h-3.3v-4.1h1v1.3h0ZM633,40.4l-.4.8c-1.7-.3-3.3-1.1-3.9-2.3-.7,1.2-2.2,2-3.9,2.3l-.4-.8c2-.3,3.8-1.4,3.8-2.8v-.3h1v.3c0,1.5,1.8,2.6,3.8,2.8ZM631.4,33.7v-1.3h-5.5v1.3h5.5Z"/>
            <path class="st19" d="M644.9,37.9l-.6.8c-1.3-.6-2.4-1.9-2.9-3.5-.5,1.7-1.6,3.1-2.9,3.8l-.6-.8c1.7-.8,3-2.9,3.1-5v-2h1v2c0,2,1.4,4.1,3,4.8ZM647.2,41.3h-1v-11.2h1v11.2Z"/>
            <path class="st19" d="M659.3,39.7h-10.2v-.8h10.2v.8ZM658.8,35.7l-.5.8c-1.7-.4-3.5-1.6-4.2-3.2-.7,1.6-2.5,2.8-4.2,3.2l-.5-.8c1.9-.4,4.1-2.1,4.1-4v-.9h1v.9c0,1.9,2.2,3.6,4.1,4Z"/>
            <path class="st19" d="M665,31.6h-3.3v1.4h2.9v.8h-2.9v1.5c1.6,0,2.6,0,3.8-.3v.8c-1.2.2-2.3.3-4.1.3h-.7v-5.3h4.3v.8h0ZM669.7,41.1h-7.4v-3.8h7.4v3.8ZM663.3,40.3h5.4v-2.2h-5.4v2.2ZM667.5,36.7h-1v-3h-1.5v-.8h1.5v-2.6h1v6.4ZM669.7,36.8h-.9v-6.7h.9v6.7Z"/>
            <path class="st19" d="M681.5,35.7h-10.2v-.8h10.2v.8ZM680.4,32.2c0,1.3-1.5,1.9-3.9,2-2.5,0-4-.7-4-2s1.5-1.9,4-1.9,3.9.7,3.9,1.9ZM680.2,39.2h-6.6v1.2h7v.8h-8v-2.7h6.7v-1h-6.7v-.8h7.6v2.5ZM673.5,32.2c0,.8,1.1,1.2,2.9,1.2s2.9-.4,2.9-1.2-1.1-1.2-2.9-1.2c-1.9,0-2.9.5-2.9,1.2Z"/>
            <path class="st19" d="M692.3,34.8l-.5.8c-1.2-.4-2.2-1.3-2.7-2.5-.5,1.3-1.5,2.2-2.8,2.7l-.5-.8c1.7-.6,2.8-2,2.9-3.6v-1.1h1v1.1c0,1.5,1.1,2.8,2.8,3.3ZM695,39.1h-6.2v1.2h6.7v.8h-7.6v-2.8h6.2v-1.1h-6.3v-.8h7.2v2.7h0ZM695,35.9h-1v-2.9h-2.5v-.8h2.5v-2.1h1v5.8Z"/>
            <path class="st19" d="M704,38.1l-.6.8c-1.3-.6-2.4-1.8-2.9-3.3-.5,1.6-1.6,2.9-2.9,3.5l-.6-.8c1.7-.8,2.9-2.6,2.9-4.6v-.9h-2.6v-.8h2.6v-1.7h1v1.7h2.6v.8h-2.6v.9c0,1.9,1.3,3.7,3,4.4ZM706.1,41.3h-1v-11.2h1v11.2Z"/>
            <path class="st19" d="M714.6,32.7h-6.7v-.8h2.9v-1.7h1v1.7h2.8v.8ZM714.1,36.2c0,1.5-1.2,2.6-2.7,2.6s-2.8-1.1-2.7-2.6c0-1.5,1.1-2.6,2.7-2.6s2.7,1.1,2.7,2.6ZM709.5,36.2c0,1,.8,1.7,1.8,1.7,1,0,1.8-.7,1.8-1.7,0-1-.8-1.7-1.8-1.7-1,0-1.8.7-1.8,1.7ZM716.7,34.7h1.9v.8h-1.9v5.7h-1v-11.2h1v4.6Z"/>
            <path class="st19" d="M729.3,39.7h-10.2v-.8h4v-4h1v4h5.2v.8ZM728.1,32.3c0,1.4,0,2.9-.4,5.2h-1c.4-2.2.4-3.8.4-5.2v-.3h-6.9v-.8h7.9v1.1Z"/>
            <path class="st19" d="M642.6,52.7h-2.7v4h-1v-4h-2.9v4h-1v-4h-2.7v-.8h10.2v.8ZM641.4,48.4c0,1.5-1.6,2.4-3.9,2.4-2.4,0-3.9-.9-3.9-2.4s1.6-2.4,3.9-2.4,3.9.9,3.9,2.4ZM634.5,48.4c0,1,1.2,1.6,2.9,1.6s2.9-.6,2.9-1.6-1.2-1.6-2.9-1.6c-1.7,0-2.9.6-2.9,1.6Z"/>
            <path class="st19" d="M650.5,53.5l-.6.8c-1.3-.6-2.4-1.9-3-3.4-.5,1.6-1.7,3.1-2.9,3.7l-.6-.8c1.6-.8,3-2.9,3-4.8v-1.5h-2.6v-.8h6.3v.8h-2.7v1.5c0,1.9,1.4,3.8,3,4.5ZM652.7,56.7h-1v-11.2h1v11.2Z"/>
            <path class="st19" d="M658,51.3c1.2,0,2.5-.1,3.7-.3v.7c-2.3.4-5,.5-7,.5v-.8c.6,0,1.4,0,2.3,0v-2.4h1s0,2.4,0,2.4ZM660.8,47c0,.7,0,1.8-.3,3.3h-1c.3-1.4.3-2.4.3-3.1h-4.6v-.8h5.6v.6h0ZM663.8,56.5h-7.5v-3.3h1v2.5h6.5s0,.8,0,.8ZM663.4,49.2h1.6v.8h-1.6v3.9h-1v-8.4h1v3.6Z"/>
            <path class="st19" d="M671.6,50.6h-4.2v2.6c1.9,0,3.5,0,5.5-.4v.8c-2,.3-3.7.4-5.6.4h-.9v-4.3h4.2v-2.4h-4.2v-.8h5.2v4ZM675,56.8h-1v-11.2h1v11.2Z"/>
            <path class="st19" d="M683.6,47.5h-6.7v-.8h2.8v-1.3h1v1.3h2.8s0,.8,0,.8ZM683,50c0,1.2-1.1,2-2.7,2s-2.7-.8-2.7-2c0-1.2,1.1-2,2.7-2s2.7.8,2.7,2ZM678.5,50c0,.7.7,1.2,1.7,1.2s1.7-.5,1.8-1.2c0-.7-.7-1.2-1.8-1.2-1.1,0-1.8.5-1.7,1.2ZM679.6,53.7h5.1v-1.2h1v4h-7.1v-4h1v1.2h0ZM684.7,55.8v-1.3h-5.1v1.3h5.1ZM685.7,48.4h1.7v.8h-1.7v2.8h-1v-6.5h1v2.9Z"/>
            <path class="st19" d="M689.8,53c1.7,0,3.5-.1,5.3-.5v.8c-1.8.4-3.6.6-5.4.6h-.9v-7.2h1v6.3h0ZM697.3,56.7h-1v-11.2h1v11.2Z"/>
            <path class="st19" d="M704.9,47.5h-4.2v5.7c2,0,3.5,0,5.1-.4v.9c-1.6.3-3.1.4-5.2.4h-.9v-7.3h5.2v.8ZM707.9,50h1.9v.8h-1.9v5.9h-1v-11.2h1v4.4Z"/>
            <path class="st19" d="M710.7,55c0-.4.4-.8.8-.8s.8.4.8.8-.4.8-.8.8-.8-.4-.8-.8Z"/>
          </g>
        </g>
      </g>
      <g id="g-root-tx__dg2mr61n622oc-fill">
        <g id="tx__dg2mr61n622oc-fill">
          <g class="st12">
            <path class="st19" d="M314.7,39.9h-10.2v-.8h4.6v-2.1h-3.3v-3.4h6.7v-1.8h-6.7v-.8h7.7v3.4h-6.7v1.8h6.9v.8h-3.6v2.1h4.7v.8h0Z"/>
            <path class="st19" d="M317.9,31.6h5.5v-1.3h1v4.1h-3.3v1.3h4.6v.8h-10.2v-.8h4.6v-1.3h-3.3v-4.1h1v1.3ZM325,40.4l-.4.8c-1.7-.3-3.3-1.1-3.9-2.3-.7,1.2-2.2,2-3.9,2.3l-.4-.8c2-.3,3.8-1.4,3.8-2.8v-.3h1v.3c0,1.5,1.8,2.6,3.8,2.8ZM323.4,33.7v-1.3h-5.5v1.3h5.5Z"/>
            <path class="st19" d="M336.9,35.7h-10.2v-.8h10.2s0,.8,0,.8ZM335.7,32.2c0,1.3-1.5,1.9-3.9,2-2.5,0-4-.7-4-2s1.5-1.9,4-1.9,3.9.7,3.9,1.9ZM335.6,39.2h-6.6v1.2h7v.8h-8v-2.7h6.7v-1h-6.7v-.8h7.6s0,2.5,0,2.5ZM328.9,32.2c0,.8,1.1,1.2,2.9,1.2s2.9-.4,2.9-1.2-1.1-1.2-2.9-1.2c-1.9,0-2.9.5-2.9,1.2Z"/>
            <path class="st19" d="M346.8,38l-.6.7c-1.1-.7-1.9-1.9-2.3-3.3-.4,1.5-1.2,2.9-2.3,3.6l-.6-.7c1.6-.9,2.5-3,2.5-5v-1.1h-2.2v-.8h5.2v.8h-2v1.1c0,1.9.9,3.9,2.4,4.8ZM348.4,40.7h-.9v-5.8h-1.9v-.8h1.9v-3.8h.9v10.3h0ZM350.6,41.3h-.9v-11.2h.9v11.2Z"/>
            <path class="st19" d="M358,34.4h2.5v-4.3h1v11.2h-1v-6.1h-2.5c-.1,2.2-1.2,3.6-2.8,3.6s-2.8-1.5-2.8-3.9,1.2-3.9,2.8-3.9c1.5,0,2.6,1.3,2.8,3.4ZM353.4,34.8c0,1.8.8,3,1.9,3s1.9-1.2,1.9-3-.8-3-1.9-3c-1.1,0-1.9,1.2-1.9,3Z"/>
            <path class="st19" d="M369.9,32.7h-6.7v-.8h2.9v-1.7h1v1.7h2.8v.8ZM369.4,36.2c0,1.5-1.2,2.6-2.7,2.6s-2.8-1.1-2.7-2.6c0-1.5,1.1-2.6,2.7-2.6s2.7,1.1,2.7,2.6ZM364.9,36.2c0,1,.8,1.7,1.8,1.7,1,0,1.8-.7,1.8-1.7,0-1-.8-1.7-1.8-1.7-1,0-1.8.7-1.8,1.7ZM372,34.7h1.9v.8h-1.9v5.7h-1v-11.2h1v4.6Z"/>
            <path class="st19" d="M375.2,39.2l-.5-.8c3-1.4,4.6-3.6,4.8-6.2h-4.3v-.8h5.3c0,3.2-1.5,6.1-5.3,7.9ZM383.7,41.3h-1v-11.2h1v11.2Z"/>
            <path class="st19" d="M396.3,35.8v.7c-1,.2-2.1.3-3.2.4v4h-1v-4c-1.1,0-2.2,0-3.1,0v-.8c2,0,4.8,0,7.3-.4ZM395.4,32.9c0,1.4-1.2,2.3-2.9,2.3-1.7,0-2.9-.9-2.9-2.3s1.2-2.3,2.9-2.3c1.7,0,2.9.9,2.9,2.3ZM390.7,32.9c0,.9.8,1.5,1.9,1.5,1.1,0,1.9-.6,1.9-1.5s-.8-1.5-1.9-1.5c-1.1,0-1.9.6-1.9,1.5ZM398.1,41.3h-1v-11.2h1v11.2Z"/>
            <path class="st19" d="M406.7,32.3h-6.7v-.8h2.8v-1.4h1v1.4h2.8v.8h0ZM406.1,35c0,1.3-1.1,2.1-2.7,2.1s-2.7-.8-2.7-2.1c0-1.3,1.1-2.1,2.7-2.1,1.6,0,2.7.8,2.7,2.1ZM401.6,35c0,.8.7,1.3,1.7,1.3,1,0,1.7-.5,1.8-1.3,0-.8-.7-1.3-1.8-1.3-1.1,0-1.8.5-1.7,1.3ZM409.3,41h-7.5v-3.2h1v2.4h6.5v.8ZM408.7,33.8h1.7v.8h-1.7v3.9h-1v-8.4h1v3.7Z"/>
            <path class="st19" d="M421.4,37.9l-.6.8c-1.3-.6-2.4-1.9-2.9-3.5-.5,1.7-1.6,3.1-2.9,3.8l-.6-.8c1.7-.8,3-2.9,3.1-5v-2h1v2c0,2,1.4,4.1,3,4.8ZM423.6,41.3h-1v-11.2h1v11.2Z"/>
            <path class="st19" d="M435.8,39.7h-10.2v-.8h10.2v.8ZM435.2,35.7l-.5.8c-1.7-.4-3.5-1.6-4.2-3.2-.7,1.6-2.5,2.8-4.2,3.2l-.5-.8c1.9-.4,4.1-2.1,4.1-4v-.9h1v.9c0,1.9,2.2,3.6,4.1,4Z"/>
            <path class="st19" d="M441.5,31.6h-3.3v1.4h2.9v.8h-2.9v1.5c1.6,0,2.6,0,3.8-.3v.8c-1.2.2-2.2.3-4.1.3h-.7v-5.3h4.3v.8ZM446.2,41.1h-7.4v-3.8h7.4v3.8ZM439.7,40.3h5.4v-2.2h-5.4v2.2ZM444,36.7h-1v-3h-1.5v-.8h1.5v-2.6h1v6.4ZM446.2,36.8h-.9v-6.7h.9v6.7Z"/>
            <path class="st19" d="M458,35.7h-10.2v-.8h10.2v.8ZM456.8,32.2c0,1.3-1.5,1.9-3.9,2-2.5,0-4-.7-4-2s1.5-1.9,4-1.9,3.9.7,3.9,1.9ZM456.7,39.2h-6.6v1.2h7v.8h-8v-2.7h6.7v-1h-6.7v-.8h7.6v2.5h0ZM450,32.2c0,.8,1.1,1.2,2.9,1.2s2.9-.4,2.9-1.2-1.1-1.2-2.9-1.2c-1.9,0-2.9.5-2.9,1.2Z"/>
            <path class="st19" d="M358.8,50.3l-.5.8c-1.2-.4-2.2-1.3-2.7-2.5-.5,1.3-1.5,2.2-2.8,2.7l-.5-.8c1.7-.6,2.8-2,2.9-3.6v-1.1h1v1.1c0,1.5,1.1,2.8,2.8,3.3ZM361.5,54.6h-6.2v1.2h6.7v.8h-7.6v-2.8h6.2v-1.1h-6.3v-.8h7.2s0,2.7,0,2.7ZM361.5,51.3h-1v-2.9h-2.5v-.8h2.5v-2.1h1v5.8Z"/>
            <path class="st19" d="M370,51l-.5.8c-1.3-.5-2.2-1.4-2.7-2.6-.5,1.3-1.5,2.4-2.9,2.9l-.5-.8c1.7-.6,2.8-2.1,2.8-3.7v-.4h-2.5v-.8h6v.8h-2.5v.4c0,1.5,1.1,2.8,2.8,3.4ZM372.6,54.6c0,1.3-1.4,2.1-3.7,2.1-2.3,0-3.7-.8-3.7-2.1s1.4-2.1,3.7-2.1c2.3,0,3.7.8,3.7,2.1ZM366.1,54.6c0,.8,1.1,1.3,2.8,1.3s2.8-.5,2.8-1.3-1.1-1.3-2.8-1.3-2.8.5-2.8,1.3ZM372.6,52.2h-1v-2.9h-2.2v-.8h2.2v-2.9h1v6.7Z"/>
            <path class="st19" d="M381.2,47.5h-6.7v-.8h2.8v-1.3h1v1.3h2.8v.8h0ZM380.5,50c0,1.2-1.1,2-2.7,2s-2.7-.8-2.7-2c0-1.2,1.1-2,2.7-2s2.7.8,2.7,2ZM376.1,50c0,.7.7,1.2,1.7,1.2s1.7-.5,1.8-1.2c0-.7-.7-1.2-1.8-1.2-1.1,0-1.8.5-1.7,1.2ZM377.1,53.7h5.1v-1.2h1v4h-7.1v-4h1v1.2h0ZM382.2,55.8v-1.3h-5.1v1.3h5.1ZM383.2,48.4h1.7v.8h-1.7v2.8h-1v-6.5h1v2.9Z"/>
            <path class="st19" d="M387.3,53c1.7,0,3.5-.1,5.3-.5v.8c-1.8.4-3.6.6-5.4.6h-.9v-7.2h1v6.3h0ZM394.8,56.7h-1v-11.2h1v11.2Z"/>
            <path class="st19" d="M402.5,47.5h-4.2v5.7c2,0,3.5,0,5.1-.4v.9c-1.6.3-3.1.4-5.2.4h-.9v-7.3h5.2v.8ZM405.4,50h1.9v.8h-1.9v5.9h-1v-11.2h1v4.4Z"/>
            <path class="st19" d="M408.3,55c0-.4.4-.8.8-.8s.8.4.8.8-.4.8-.8.8-.8-.4-.8-.8Z"/>
          </g>
        </g>
      </g>
      <g id="g-root-tx__mbpn021n621vm-fill">
        <g id="tx__mbpn021n621vm-fill">
          <g class="st12">
            <path class="st19" d="M16.4,39.7H6.2v-.8h4v-4h1v4h5.2s0,.8,0,.8ZM15.2,32.3c0,1.4,0,2.9-.4,5.2h-1c.4-2.2.4-3.8.4-5.2v-.3h-6.9v-.8h7.9s0,1.1,0,1.1Z"/>
            <path class="st19" d="M17.9,36.8l-.5-.7c2.3-.9,3.6-2.5,3.8-4.3h-3.4v-.8h4.4c0,2.7-1.5,4.7-4.3,5.9ZM26.8,41.3h-1v-3.3h-6.6v-.8h7.5v4.1ZM26.8,36.7h-.9v-3h-1.5v2.9h-.9v-6.3h.9v2.6h1.5v-2.8h.9v6.6Z"/>
            <path class="st19" d="M35.9,37.6v.7c-2.5.5-5.2.5-7.2.5v-.8c1.9,0,4.8,0,7.2-.4ZM35.2,33.5c0,1.6-1.2,2.6-3,2.6s-3-1.1-3-2.6c0-1.6,1.3-2.6,3-2.6s3,1.1,3,2.6ZM30.1,33.5c0,1,.9,1.8,2,1.8s2-.7,2-1.8-.9-1.8-2-1.8c-1.2,0-2.1.7-2,1.8ZM37.7,41.3h-1v-11.2h1v11.2Z"/>
            <path class="st19" d="M53.1,36.8h-10.2v-.8h10.2v.8ZM51.7,41.3h-1v-2.6h-6.7v-.8h7.7v3.4ZM51.8,34.9h-7.6v-4.5h7.6v.8h-6.6v1.1h6.3v.8h-6.3v1.1h6.6v.8Z"/>
            <path class="st19" d="M60.6,35.5l-.5.8c-1.3-.5-2.2-1.4-2.7-2.6-.5,1.3-1.5,2.4-2.9,2.9l-.5-.8c1.7-.6,2.8-2.1,2.8-3.7v-.4h-2.5v-.8h6v.8h-2.5v.4c0,1.5,1.1,2.8,2.8,3.4ZM63.3,39.2c0,1.3-1.4,2.1-3.7,2.1-2.3,0-3.7-.8-3.7-2.1s1.4-2.1,3.7-2.1c2.3,0,3.7.8,3.7,2.1ZM56.8,39.2c0,.8,1.1,1.3,2.8,1.3s2.8-.5,2.8-1.3-1.1-1.3-2.8-1.3-2.8.5-2.8,1.3ZM63.3,36.7h-1v-2.9h-2.2v-.8h2.2v-2.9h1v6.7Z"/>
            <path class="st19" d="M78.6,39.8h-10.2v-.8h2.5v-3c-1-.5-1.5-1.3-1.5-2.3,0-1.7,1.7-2.9,4.1-2.9,2.4,0,4.1,1.1,4.1,2.9s-.6,1.8-1.5,2.3v3h2.5v.8h0ZM70.3,33.7c0,1.2,1.3,2.1,3.1,2.1s3.1-.8,3.1-2.1-1.3-2.1-3.1-2.1c-1.8,0-3.1.8-3.1,2.1ZM75.1,39v-2.7c-.5.1-1,.2-1.6.2s-1.1,0-1.6-.2v2.7s3.2,0,3.2,0Z"/>
            <path class="st19" d="M88.4,31.8c0,1.1,0,2.2-.3,3.8h1.7v.8h-4.6v4.9h-1v-4.9h-4.6v-.8h7.5c.3-1.6.3-2.8.3-3.8v-.2h-6.6v-.8h7.6v1h0Z"/>
            <path class="st19" d="M100.5,37.9l-.6.8c-1.2-.6-2.3-2-2.8-3.5-.5,1.7-1.6,3.1-2.8,3.7l-.6-.8c1.6-.8,2.9-3,2.9-5v-2h1v2c0,2,1.3,4,2.9,4.8ZM102.6,34.6h1.9v.9h-1.9v5.8h-1v-11.2h1v4.5Z"/>
            <path class="st19" d="M111.7,32.1h-6.7v-.8h2.8v-1.4h1v1.4h2.8v.8h0ZM111.1,34.7c0,1.2-1.1,2-2.7,2s-2.7-.8-2.7-2c0-1.2,1.1-2,2.7-2,1.6,0,2.7.8,2.7,2ZM113.9,39.3c0,1.2-1.4,1.9-3.7,1.9s-3.7-.7-3.7-1.9c0-1.2,1.4-1.9,3.7-1.9,2.3,0,3.7.7,3.7,1.9ZM106.6,34.7c0,.7.7,1.2,1.7,1.2s1.7-.5,1.8-1.2c0-.7-.7-1.2-1.8-1.2-1.1,0-1.8.5-1.7,1.2ZM107.6,39.3c0,.7,1,1.2,2.7,1.2s2.7-.4,2.7-1.2-1-1.2-2.7-1.2c-1.7,0-2.7.4-2.7,1.2ZM113.8,33.2h1.7v.8h-1.7v3.3h-1v-7.2h1v3.1Z"/>
            <path class="st19" d="M126.4,35.7h-10.2v-.8h10.2v.8ZM125.2,32.2c0,1.3-1.5,1.9-3.9,2-2.5,0-4-.7-4-2s1.5-1.9,4-1.9,3.9.7,3.9,1.9ZM125.1,39.2h-6.6v1.2h7v.8h-8v-2.7h6.7v-1h-6.7v-.8h7.6v2.5h0ZM118.3,32.2c0,.8,1.1,1.2,2.9,1.2s2.9-.4,2.9-1.2-1.1-1.2-2.9-1.2c-1.9,0-2.9.5-2.9,1.2Z"/>
            <path class="st19" d="M136.7,34.8c0,2.4-1.2,3.9-2.9,3.9s-2.9-1.5-2.9-3.9,1.2-3.9,2.9-3.9c1.7,0,2.9,1.5,2.9,3.9ZM131.9,34.8c0,1.8.8,3,1.9,3s1.9-1.2,1.9-3-.8-3-1.9-3c-1.1,0-1.9,1.2-1.9,3ZM139.8,41.3h-1v-11.2h1v11.2Z"/>
            <path class="st19" d="M147.3,32.8h-5.6v-.8h2.3v-1.6h1v1.6h2.3v.8h0ZM146.9,36.1c0,1.5-1,2.6-2.4,2.6s-2.4-1.1-2.4-2.6,1-2.5,2.4-2.5c1.4,0,2.4,1.1,2.4,2.5ZM143,36.1c0,1,.6,1.7,1.5,1.7.9,0,1.5-.7,1.5-1.7s-.7-1.7-1.5-1.7c-.9,0-1.5.7-1.5,1.7ZM151.2,41.3h-.9v-5.6h-1.5v5.1h-.9v-10.3h.9v4.4h1.5v-4.7h.9v11.2Z"/>
            <path class="st19" d="M159.5,32.1h-6.7v-.8h2.8v-1.3h1v1.3h2.8v.8h0ZM158.9,34.5c0,1.2-1.1,2-2.7,2s-2.7-.8-2.7-2c0-1.2,1.1-2,2.7-2s2.7.8,2.7,2ZM154.4,34.5c0,.7.7,1.2,1.7,1.2s1.7-.5,1.8-1.2c0-.7-.7-1.2-1.8-1.2-1.1,0-1.8.5-1.7,1.2ZM155.5,38.3h5.1v-1.2h1v4h-7.1v-4h1v1.2h0ZM160.6,40.3v-1.3h-5.1v1.3s5.1,0,5.1,0ZM161.6,33h1.7v.8h-1.7v2.8h-1v-6.5h1v2.9Z"/>
            <path class="st19" d="M165.7,37.5c1.7,0,3.5-.1,5.3-.5v.8c-1.8.4-3.6.6-5.4.6h-.9v-7.2h1v6.3h0ZM173.2,41.3h-1v-11.2h1v11.2Z"/>
            <path class="st19" d="M180.8,32h-4.2v5.7c2,0,3.5,0,5.1-.4v.9c-1.6.3-3.1.4-5.2.4h-.9v-7.3h5.2v.8ZM183.8,34.5h1.9v.8h-1.9v5.9h-1v-11.2h1v4.4Z"/>
            <path class="st19" d="M186.6,39.5c0-.4.4-.8.8-.8s.8.4.8.8-.4.8-.8.8c-.4,0-.8-.4-.8-.8Z"/>
          </g>
        </g>
      </g>
      <g id="g-root-tx__90vlpu1n620at-fill">
        <g id="tx__90vlpu1n620at-fill">
          <g class="st12">
            <path class="st9" d="M622.4,7.6l-.7,1c-1.7-.6-3-1.8-3.6-3.3-.6,1.7-2,3-3.8,3.6l-.7-1.1c2.2-.7,3.8-2.6,3.8-4.8v-1.4h1.3v1.4c0,2,1.5,3.7,3.7,4.5ZM626,13.3h-8.3v1.6h8.9v1.1h-10.2v-3.7h8.3v-1.5h-8.4v-1.1h9.7v3.6ZM626,8.9h-1.3v-3.9h-3.3v-1.1h3.3V1.2h1.3v7.7Z"/>
            <path class="st9" d="M638,12l-.7,1c-1.7-.8-3.2-2.4-3.9-4.4-.7,2.1-2.1,3.8-3.8,4.6l-.7-1c2.2-1,3.9-3.5,3.9-6.1v-1.2h-3.5v-1.1h3.5V1.5h1.3v2.3h3.5v1.1h-3.5v1.2c0,2.5,1.7,4.9,4,5.9ZM640.8,16.1h-1.3V1.2h1.3s0,14.9,0,14.9Z"/>
            <path class="st9" d="M655.4,8.3h-7V2.2h7v6.1ZM660.8,15.1l-.5,1c-2.2-.3-4.3-1.4-5.2-2.8-.9,1.4-3,2.5-5.3,2.8l-.5-1c2.6-.3,5-1.7,5-3.2h-4.4v-1h4.4v-1.5h1.3v1.5h4.5v1h-4.4c0,1.5,2.4,2.9,5,3.2ZM649.7,7.2h4.4v-4h-4.4s0,4,0,4ZM659.9,9.8h-1.3V1.2h1.3v8.6Z"/>
            <path class="st9" d="M680.5,10.8h-3.6v5.3h-1.3v-5.3h-3.8v5.3h-1.4v-5.3h-3.5v-1.1h13.7v1.1ZM678.8,5.1c0,2-2.1,3.2-5.3,3.2-3.1,0-5.3-1.2-5.3-3.2s2.1-3.3,5.3-3.3c3.1,0,5.3,1.3,5.3,3.3ZM669.7,5.1c0,1.3,1.6,2.2,3.9,2.2s3.9-.8,3.9-2.2-1.6-2.2-3.9-2.2c-2.3,0-3.9.9-3.9,2.2Z"/>
            <path class="st9" d="M691,11.9l-.7,1c-1.7-.8-3.3-2.5-3.9-4.6-.7,2.2-2.2,4.1-3.9,5l-.8-1c2.1-1,4-3.8,4-6.4v-1.9h-3.5v-1.1h8.4v1.1h-3.6v1.9c0,2.5,1.8,5.1,4,6.1ZM694,16.1h-1.3V1.2h1.3v14.9Z"/>
            <path class="st9" d="M700.9,8.9c1.7,0,3.4-.2,4.9-.4v1c-3,.5-6.6.6-9.3.6v-1.1c.8,0,1.9,0,3.1,0v-3.2h1.3s0,3.2,0,3.2ZM704.8,3.2c0,1,0,2.5-.4,4.4h-1.3c.4-1.9.4-3.2.4-4.1h-6.1v-1.1h7.4v.8ZM708.7,15.8h-10v-4.4h1.3v3.3h8.6v1.1ZM708.2,6.1h2.2v1.1h-2.2v5.2h-1.3V1.2h1.3v4.9Z"/>
            <path class="st9" d="M719.2,7.9h-5.6v3.5c2.5,0,4.7-.1,7.4-.5v1.1c-2.6.4-4.9.5-7.5.5h-1.2v-5.7h5.6v-3.1h-5.6v-1.1h6.9v5.3h0ZM723.7,16.2h-1.3V1.2h1.3v15Z"/>
          </g>
        </g>
      </g>
      <g id="g-root-tx__dg2mr61n622ob-fill">
        <g id="tx__dg2mr61n622ob-fill">
          <g class="st12">
            <path class="st15" d="M333.1,11.8l-.8,1c-1.5-.9-2.5-2.5-3-4.4-.5,2.1-1.6,3.8-3.1,4.8l-.8-1c2.1-1.2,3.3-4,3.3-6.7v-1.4h-2.9v-1.1h6.9v1.1h-2.7v1.4c0,2.6,1.2,5.2,3.2,6.3ZM335.3,15.4h-1.2v-7.7h-2.5v-1.1h2.5V1.6h1.2v13.8ZM338.3,16.1h-1.3V1.2h1.3s0,14.9,0,14.9Z"/>
            <path class="st15" d="M348.1,6.9h3.3V1.2h1.3v15h-1.3v-8.2h-3.3c-.2,2.9-1.6,4.8-3.7,4.8s-3.7-2-3.7-5.2,1.5-5.2,3.7-5.2c2,0,3.5,1.8,3.7,4.5ZM341.9,7.6c0,2.4,1,4,2.5,4s2.5-1.6,2.5-4-1-4-2.5-4c-1.5,0-2.5,1.6-2.5,4Z"/>
            <path class="st15" d="M368.9,11.7l-.8,1c-1.7-.8-3.2-2.6-3.9-4.7-.7,2.3-2.2,4.1-3.9,5l-.8-1.1c2.2-1,4.1-3.9,4.1-6.7v-2.7h1.3v2.7c0,2.7,1.8,5.5,4,6.5ZM371.9,16.2h-1.3V1.2h1.3v15h0Z"/>
            <path class="st15" d="M388.1,14.1h-13.7v-1.1h13.7v1.1ZM387.4,8.7l-.6,1.1c-2.2-.5-4.6-2.1-5.6-4.3-1,2.2-3.3,3.8-5.6,4.3l-.6-1.1c2.6-.5,5.5-2.8,5.5-5.3v-1.1h1.4v1.1c0,2.6,2.9,4.8,5.5,5.3Z"/>
            <path class="st15" d="M395.7,3.3h-4.4v1.8h3.8v1h-3.8v2c2.2,0,3.5,0,5.1-.4v1.1c-1.6.3-3,.4-5.4.4h-.9V2.2h5.7v1.1ZM401.9,15.9h-9.9v-5h9.9v5ZM393.4,14.9h7.3v-2.9h-7.3v2.9ZM399,10.1h-1.3v-4h-2v-1.1h2V1.5h1.3v8.6ZM401.9,10.2h-1.3V1.2h1.3v9Z"/>
            <path class="st15" d="M422,10.2h-13.6v-1.1h6.1v-1.5h-4.3V1.7h10.1v1.1h-8.8v1.4h8.4v1h-8.4v1.5h8.9v1.1h-4.5v1.5h6.2v1.1h0ZM420.4,13.7c0,1.6-1.9,2.4-5.1,2.4s-5.2-.8-5.2-2.4,1.8-2.4,5.2-2.4c3.3,0,5.1.8,5.1,2.4ZM411.4,13.7c0,.9,1.4,1.4,3.8,1.4,2.4,0,3.8-.5,3.8-1.4s-1.4-1.4-3.8-1.4c-2.5,0-3.8.5-3.8,1.4Z"/>
            <path class="st15" d="M432.2,3.9h-8.9v-1.1h3.8v-1.7h1.3v1.7h3.8v1.1h0ZM431.4,7.2c0,1.6-1.4,2.6-3.6,2.6s-3.6-1-3.6-2.6c0-1.6,1.4-2.6,3.6-2.6s3.6,1,3.6,2.6ZM425.4,7.2c0,1,.9,1.6,2.3,1.6s2.3-.6,2.4-1.6c0-1-1-1.6-2.4-1.6-1.4,0-2.3.6-2.3,1.6ZM426.8,12.1h6.8v-1.6h1.3v5.4h-9.4v-5.4h1.3v1.6ZM433.6,14.9v-1.7h-6.8v1.7h6.8ZM434.9,5h2.2v1.1h-2.2v3.7h-1.3V1.2h1.3v3.8Z"/>
          </g>
        </g>
      </g>
      <g id="g-root-tx__qrj54i1n6213d-fill">
        <g id="tx__qrj54i1n6213d-fill">
          <g class="st12">
            <path class="st16" d="M39.7,14h-13.6v-1.1h5.3v-5.3h1.3v5.3h7v1.1h0ZM38.1,4.2c0,1.8,0,3.9-.6,6.9l-1.3-.2c.6-2.9.6-5,.6-6.7v-.4h-9.2v-1.1h10.5v1.5Z"/>
            <path class="st16" d="M41.7,10.2l-.7-1c3.1-1.3,4.9-3.3,5.1-5.8h-4.5v-1.1h5.9c0,3.6-2,6.3-5.8,7.9ZM53.6,16.1h-1.3v-4.3h-8.8v-1.1h10.1v5.4h0ZM53.6,10h-1.3v-3.9h-2v3.8h-1.3V1.5h1.3v3.5h2V1.2h1.3v8.8h0Z"/>
            <path class="st16" d="M73.8,14.2h-13.7v-1.1h3.4v-4c-1.3-.7-2-1.7-2-3.1,0-2.3,2.3-3.8,5.5-3.8,3.2,0,5.5,1.5,5.5,3.8s-.7,2.4-2,3.1v4.1h3.4v1.1h0ZM62.8,6c0,1.7,1.7,2.8,4.2,2.8s4.2-1.1,4.2-2.8-1.7-2.8-4.2-2.8c-2.4,0-4.2,1.1-4.2,2.8ZM69.1,13.1v-3.6c-.6.2-1.4.3-2.1.3s-1.5,0-2.1-.3v3.5h4.3Z"/>
            <path class="st16" d="M86.8,3.5c0,1.4,0,3-.4,5.1h2.2v1.1h-6.2v6.5h-1.3v-6.5h-6.1v-1.1h10c.5-2.1.5-3.7.5-5.1v-.2h-8.8v-1.1h10.1v1.3Z"/>
            <path class="st16" d="M103,11.6l-.8,1.1c-1.6-.9-3-2.6-3.7-4.7-.7,2.2-2.1,4.1-3.8,5l-.8-1.1c2.2-1.1,3.9-3.9,3.9-6.7v-2.7h1.3v2.7c0,2.6,1.7,5.3,3.9,6.4ZM105.7,7.3h2.5v1.1h-2.5v7.7h-1.3V1.2h1.3v6.1Z"/>
            <path class="st16" d="M117.9,4h-8.9v-1h3.8v-1.8h1.3v1.8h3.8v1h0ZM117.1,7.4c0,1.6-1.4,2.6-3.6,2.6s-3.6-1-3.6-2.6c0-1.6,1.4-2.6,3.6-2.6,2.1,0,3.6,1,3.6,2.6ZM120.8,13.5c0,1.6-1.8,2.6-4.9,2.6s-4.9-.9-4.9-2.6c0-1.6,1.8-2.6,4.9-2.6s4.9,1,4.9,2.6ZM111.2,7.4c0,1,.9,1.6,2.3,1.6s2.3-.6,2.4-1.6c0-1-1-1.6-2.4-1.6-1.4,0-2.3.7-2.3,1.6ZM112.4,13.5c0,1,1.3,1.5,3.6,1.5s3.6-.6,3.6-1.5-1.3-1.5-3.6-1.5-3.6.6-3.6,1.5ZM120.7,5.4h2.2v1.1h-2.2v4.3h-1.3V1.2h1.3v4.2Z"/>
            <path class="st16" d="M137.2,8.3l-.7,1c-1.7-.6-3.1-1.9-3.8-3.6-.7,1.8-2,3.2-3.8,3.8l-.7-1c2.2-.8,3.8-2.9,3.8-5.2v-1.4h1.3v1.4c0,2.2,1.6,4.1,3.8,4.9ZM140.5,16.1h-1.3v-4.1h-8.7v-1.1h10v5.2h0ZM140.5,10.2h-1.3V1.2h1.3v9Z"/>
            <path class="st16" d="M155.4,9h-1.3v-1.9h-3.5v1.3h-6.8V1.9h1.3v2.1h4.2V1.9h1.3v1.4h3.5V1.2h1.3v7.8h0ZM149.3,7.3v-2.2h-4.2v2.2h4.2ZM155.4,13.3h-8.3v1.6h8.9v1.1h-10.2v-3.7h8.3v-1.4h-8.4v-1.1h9.7v3.5ZM154.1,6.1v-1.7h-3.5v1.7h3.5Z"/>
          </g>
        </g>
      </g>
      <g id="g-root-tx__1heg90y1n5mk9a-fill">
        <g id="tx__1heg90y1n5mk9a-fill">
          <g class="st12">
            <path class="st19" d="M181.3,386.1l-.5.8c-1.3-.5-2.2-1.4-2.7-2.5-.5,1.3-1.5,2.3-2.8,2.8l-.5-.8c1.6-.6,2.8-2.1,2.8-3.7v-.5h-2.5v-.8h6v.8h-2.5v.5c0,1.5,1.1,2.8,2.8,3.4ZM184,391.9h-1v-3.1h-6.5v-.8h7.5s0,3.9,0,3.9ZM184,387.4h-1v-2.9h-2.2v-.8h2.2v-2.9h1v6.7Z"/>
            <path class="st19" d="M192.5,385.5l-.5.8c-1.3-.4-2.2-1.3-2.7-2.4-.5,1.2-1.5,2.2-2.9,2.6l-.5-.8c1.6-.6,2.8-2,2.8-3.4v-.3h-2.5v-.8h6v.8h-2.5v.3c0,1.3,1.1,2.6,2.7,3.1ZM195.1,389.7h-6.2v1.2h6.7v.8h-7.6v-2.8h6.2v-1.1h-6.3v-.8h7.2v2.7h0ZM195.1,386.5h-1v-2.5h-2.3v-.8h2.3v-2.5h1v5.8Z"/>
            <path class="st19" d="M203.7,382.9h-6.7v-.8h2.8v-1.4h1v1.4h2.8v.8h0ZM203,385.6c0,1.3-1.1,2.1-2.7,2.1s-2.7-.8-2.7-2.1c0-1.3,1.1-2.1,2.7-2.1s2.7.8,2.7,2.1ZM198.6,385.6c0,.8.7,1.3,1.7,1.3,1,0,1.7-.5,1.8-1.3,0-.8-.7-1.3-1.8-1.3-1.1,0-1.8.5-1.7,1.3ZM206.2,391.6h-7.5v-3.2h1v2.4h6.5s0,.8,0,.8ZM205.7,384.4h1.7v.8h-1.7v3.9h-1v-8.4h1v3.7Z"/>
            <path class="st19" d="M221.6,390.5h-10.2v-.8h4.6v-2.1h-3.3v-3.4h6.7v-1.8h-6.7v-.8h7.7v3.4h-6.7v1.8h6.9v.8h-3.6v2.1h4.7v.8h0Z"/>
            <path class="st19" d="M224.8,382.2h5.5v-1.3h1v4.1h-3.3v1.3h4.6v.8h-10.2v-.8h4.6v-1.3h-3.3v-4.1h1v1.3h0ZM231.9,391l-.4.8c-1.7-.3-3.3-1.1-3.9-2.3-.7,1.2-2.2,2-3.9,2.3l-.4-.8c2-.3,3.8-1.4,3.8-2.8v-.3h1v.3c0,1.5,1.8,2.6,3.8,2.8ZM230.4,384.3v-1.3h-5.5v1.3h5.5Z"/>
            <path class="st19" d="M242.7,386h-5.2v-4.6h5.2v4.6ZM246.8,391.1l-.3.8c-1.7-.2-3.2-1-3.9-2.1-.7,1.1-2.2,1.8-3.9,2.1l-.4-.8c1.9-.2,3.8-1.3,3.8-2.4h-3.3v-.8h3.3v-1.1h1v1.1h3.3v.8h-3.3c0,1.1,1.8,2.2,3.7,2.4ZM238.4,385.2h3.3v-3h-3.3v3ZM246.1,387.1h-1v-6.4h1v6.4Z"/>
            <path class="st19" d="M261.5,390.4h-10.2v-.8h4.6v-2.7h1v2.7h4.7v.8ZM261,386.1l-.4.8c-1.7-.3-3.5-1.5-4.2-3.1-.7,1.6-2.5,2.8-4.2,3.1l-.4-.8c1.9-.3,4.1-2,4.1-3.8v-.9h1v.9c0,1.9,2.2,3.5,4.2,3.8Z"/>
            <path class="st19" d="M272.6,390.4h-10.2v-.8h10.2v.8ZM271.6,382.6h-1.8v3.9h1.7v.8h-8.3v-.8h1.7v-3.9h-1.8v-.8h8.3v.8h0ZM268.9,386.5v-3.9h-2.9v3.9h2.9Z"/>
            <path class="st19" d="M283.8,390.4h-10.2v-.8h10.2v.8ZM282.6,387.5h-7.7v-5.9h7.6v.8h-6.6v1.7h6.4v.8h-6.4v1.8h6.7v.8h0Z"/>
            <path class="st19" d="M290.4,386.1v.8c-.7.2-1.6.2-2.5.3v3.8h-.9v-3.7c-.9,0-1.7,0-2.3,0v-.8c1.4,0,3.9,0,5.7-.3ZM290,383.5c0,1.2-1,2.1-2.5,2-1.4,0-2.5-.8-2.4-2,0-1.2,1-2.1,2.4-2.1,1.4,0,2.4.8,2.5,2.1ZM286,383.5c0,.8.6,1.3,1.5,1.3s1.6-.5,1.6-1.3-.7-1.3-1.6-1.3c-.9,0-1.5.5-1.5,1.3ZM292.1,391.3h-.9v-2.5h-2.1v-.8h2.1v-7.1h.9v10.3ZM294.2,391.9h-.9v-11.2h.9v11.2Z"/>
            <path class="st19" d="M301.6,385h2.5v-4.3h1v11.2h-1v-6.1h-2.5c-.1,2.2-1.2,3.6-2.8,3.6s-2.8-1.5-2.8-3.9,1.2-3.9,2.8-3.9c1.5,0,2.6,1.3,2.8,3.4ZM297,385.4c0,1.8.8,3,1.9,3s1.9-1.2,1.9-3-.8-3-1.9-3c-1.1,0-1.9,1.2-1.9,3Z"/>
            <path class="st19" d="M189.1,397.9c0,1.1,0,2.2-.3,3.8h1.7v.8h-4.6v4.9h-1v-4.9h-4.6v-.8h7.5c.3-1.6.3-2.8.3-3.8v-.2h-6.6v-.8h7.6v1h0Z"/>
            <path class="st19" d="M198,401.5l-.6.8c-1.2-.5-2.2-1.4-2.7-2.6-.5,1.3-1.5,2.4-2.9,2.9l-.5-.8c1.7-.6,2.9-2.1,2.9-3.8v-1.2h1v1.1c0,1.6,1.1,3,2.8,3.6ZM200.7,405.2c0,1.3-1.4,2.1-3.7,2.1s-3.7-.8-3.7-2.1,1.4-2.1,3.7-2.1,3.7.8,3.7,2.1ZM194.2,405.2c0,.8,1.1,1.3,2.8,1.3s2.8-.5,2.8-1.3-1.1-1.3-2.8-1.3-2.8.5-2.8,1.3ZM200.7,402.8h-1v-3.4h-2.5v-.8h2.5v-2.4h1v6.6Z"/>
            <path class="st19" d="M216,405.9h-10.2v-.8h2.5v-3c-1-.5-1.5-1.3-1.5-2.3,0-1.7,1.7-2.9,4.1-2.9,2.4,0,4.1,1.1,4.1,2.9s-.6,1.8-1.5,2.3v3h2.5v.8h0ZM207.7,399.7c0,1.2,1.3,2.1,3.1,2.1s3.1-.8,3.1-2.1-1.3-2.1-3.1-2.1c-1.8,0-3.1.8-3.1,2.1ZM212.5,405.1v-2.7c-.5.1-1,.2-1.6.2s-1.1,0-1.6-.2v2.7h3.2Z"/>
            <path class="st19" d="M227.2,405.9h-10.2v-.8h4.6v-2.7h1v2.7h4.7v.8ZM226.7,401.6l-.4.8c-1.7-.3-3.5-1.5-4.2-3.1-.7,1.6-2.5,2.8-4.2,3.1l-.4-.8c1.9-.3,4.1-2,4.1-3.8v-.9h1v.9c0,1.9,2.2,3.5,4.2,3.8Z"/>
            <path class="st19" d="M238.3,402.1h-10.2v-.8h10.2v.8ZM237,405.4h-6.7v1.1h7.1v.7h-8.1v-2.5h6.7v-1h-6.7v-.7h7.7v2.4h0ZM237,398.8h-6.6v1h6.8v.7h-7.8v-2.4h6.6v-.9h-6.6v-.7h7.6v2.3h0Z"/>
            <path class="st19" d="M249,401.9l-.6.8c-1.2-.5-2.2-1.5-2.7-2.7-.5,1.4-1.5,2.4-2.8,3l-.5-.8c1.7-.6,2.8-2.2,2.8-3.9v-1.4h1v1.4c0,1.6,1.1,3,2.8,3.6ZM252,407.1h-7.5v-3.5h1v2.7h6.5v.8ZM251.7,404.5h-1v-4.9h-2.5v-.8h2.5v-2.6h1v8.4Z"/>
            <path class="st19" d="M258.4,397.8h-3.4v1.4h3.3v.8h-3.3v1.5c1.6,0,2.6,0,3.8-.3v.8c-1.2.3-2.3.3-4.1.3h-.7v-5.4h4.3v.8h0ZM263.1,407.3h-1v-3h-6.6v-.8h7.5v3.8ZM263.1,402.9h-.9v-3.1h-1.6v3h-.9v-6.5h.9v2.7h1.6v-2.9h.9v6.8Z"/>
            <path class="st19" d="M271.4,398.1h-6.7v-.8h2.8v-1.3h1v1.3h2.8v.8h0ZM270.8,400.6c0,1.2-1.1,2-2.7,2s-2.7-.8-2.7-2c0-1.2,1.1-2,2.7-2,1.6,0,2.7.8,2.7,2ZM266.3,400.6c0,.7.7,1.2,1.7,1.2s1.7-.5,1.8-1.2c0-.7-.7-1.2-1.8-1.2-1.1,0-1.8.5-1.7,1.2ZM267.4,404.3h5.1v-1.2h1v4h-7.1v-4h1v1.2h0ZM272.5,406.4v-1.3h-5.1v1.3h5.1ZM273.5,399h1.7v.8h-1.7v2.8h-1v-6.5h1v2.9Z"/>
            <path class="st19" d="M277.6,403.6c1.7,0,3.5-.1,5.3-.5v.8c-1.8.4-3.6.6-5.4.6h-.9v-7.2h1v6.3h0ZM285.1,407.3h-1v-11.2h1v11.2Z"/>
            <path class="st19" d="M292.7,398.1h-4.2v5.7c2,0,3.5,0,5.1-.4v.9c-1.6.3-3.1.4-5.2.4h-.9v-7.3h5.2v.8h0ZM295.6,400.6h1.9v.8h-1.9v5.9h-1v-11.2h1v4.4Z"/>
            <path class="st19" d="M298.5,405.6c0-.4.4-.8.8-.8s.8.4.8.8-.4.8-.8.8c-.4,0-.8-.4-.8-.8Z"/>
          </g>
        </g>
      </g>
      <g id="g-root-tx__1cymqwi1n5ml1j-fill">
        <g id="tx__1cymqwi1n5ml1j-fill">
          <g class="st12">
            <path class="st21" d="M485.9,338.5l-.7,1c-1.7-.6-3-1.8-3.6-3.4-.6,1.7-2,3-3.8,3.7l-.7-1c2.2-.8,3.8-2.7,3.8-4.9v-.6h-3.4v-1.1h8.1v1.1h-3.4v.6c0,2,1.5,3.8,3.7,4.6ZM488.8,346.1h-1.3v-4.1h-8.5v-1.1h9.8v5.1ZM488.8,335.1h2.2v1.1h-2.2v3.9h-1.3v-9h1.3v3.9Z"/>
            <path class="st21" d="M499.9,334.8h3.1v-3.6h1.3v8h-1.3v-3.3h-3.1c-.3,1.8-1.8,2.9-3.8,2.9s-3.9-1.4-3.9-3.5,1.6-3.5,3.9-3.4c2,0,3.5,1.1,3.8,2.9ZM493.5,335.3c0,1.4,1.1,2.3,2.6,2.3s2.6-1,2.6-2.3-1.1-2.3-2.6-2.3c-1.5,0-2.6.9-2.6,2.3ZM496.1,341.9h7v-1.9h1.3v6h-9.6v-6h1.3v1.9ZM503.1,344.8v-1.9h-7v1.9h7Z"/>
            <path class="st21" d="M524.8,339.2h-13.6v-1.1h5.6v-2.9h1.3v2.9h6.7v1.1ZM523.2,343.4c0,1.7-2,2.7-5.2,2.7s-5.2-1-5.2-2.7,2-2.7,5.2-2.7,5.2,1,5.2,2.7ZM523,333.2c0,1.2,0,2.4-.4,4l-1.3-.2c.4-1.5.4-2.6.4-3.8v-.2h-8.9v-1.1h10.2v1.3h0ZM514,343.4c0,1,1.5,1.7,3.9,1.7s3.9-.6,3.9-1.7c0-1.1-1.5-1.7-3.9-1.7-2.4,0-3.9.7-3.9,1.7Z"/>
            <path class="st21" d="M534.9,338.5l-.7,1.1c-1.7-.6-3-1.9-3.6-3.4-.7,1.8-2,3.2-3.8,3.8l-.7-1.1c2.2-.8,3.8-2.8,3.8-5v-.6h-3.4v-1.1h8v1.1h-3.3v.5c0,1.9,1.5,3.8,3.7,4.5ZM538.4,343.3c0,1.8-1.9,2.8-5,2.8-3.1,0-5-1-5-2.8s1.9-2.8,5-2.8c3.1,0,5,1,5,2.8ZM529.8,343.3c0,1.1,1.4,1.7,3.7,1.7s3.7-.7,3.7-1.7-1.4-1.7-3.7-1.7-3.7.7-3.7,1.7ZM538.4,340.1h-1.3v-3.9h-3v-1.1h3v-3.9h1.3v8.9Z"/>
            <path class="st21" d="M558.8,340.2h-6.1v2.9h-1.3v-2.9h-6.3v-1.1h13.7v1.1ZM557.3,345.8h-10.4v-4.1h1.3v3h9.1v1.1ZM548.3,333.6h7.4v-1.9h1.3v6h-10v-6h1.3v1.9h0ZM555.7,336.6v-2h-7.4v2h7.4Z"/>
            <path class="st21" d="M568.8,338.3l-.7,1.1c-1.7-.6-3-1.9-3.6-3.5-.6,1.8-2,3.1-3.7,3.8l-.7-1.1c2.3-.8,3.8-2.8,3.8-5.1v-1.6h1.3v1.6c0,2.1,1.5,4,3.7,4.7ZM572.4,346.1h-1.3v-4.2h-8.7v-1.1h10s0,5.3,0,5.3ZM572.4,340h-1.3v-4.6h-3.3v-1.1h3.3v-3.1h1.3v8.8Z"/>
          </g>
        </g>
      </g>
      <g id="g-root-tx__zn68j61n5mmmh-fill">
        <g id="tx__zn68j61n5mmmh-fill">
          <g class="st12">
            <path class="st14" d="M768.9,341.8l-.8,1c-1.7-.8-3.1-2.6-3.8-4.6-.7,2.2-2.2,4.1-3.9,5l-.8-1c2.1-1,4-3.9,4-6.4v-1.9h-3.5v-1.1h8.1v1.1h-3.4v1.9c0,2.4,1.7,5,3.9,6.1ZM771.5,337.2h2.5v1.1h-2.5v7.8h-1.3v-14.9h1.3v6Z"/>
            <path class="st14" d="M788.4,339.6h-13.6v-1.1h6.2v-1.7h-4.4v-4.9h10.2v1.1h-8.9v2.8h9v1.1h-4.6v1.7h6.2v1.1h0ZM786.7,343.4c0,1.7-1.9,2.7-5.1,2.7-3.2,0-5.2-1-5.2-2.7s1.9-2.7,5.2-2.7c3.2,0,5.1,1,5.1,2.7ZM777.8,343.4c0,1,1.4,1.6,3.8,1.6s3.8-.6,3.8-1.6-1.4-1.6-3.8-1.6c-2.4,0-3.8.6-3.8,1.6Z"/>
            <path class="st14" d="M793.6,342.1v-1.7c-1.7-.2-2.9-1.2-2.9-2.7,0-1.7,1.4-2.8,3.5-2.8s3.5,1.1,3.5,2.8c0,1.5-1.2,2.5-2.9,2.7v1.6c1.4,0,2.8-.2,4.1-.4v1c-3.2.6-6.7.6-9.3.6l-.2-1.1c1.2,0,2.6,0,4.1,0ZM798.7,334.1h-9v-1.1h3.8v-1.8h1.3v1.8h3.8v1.1ZM791.9,337.7c0,1,.9,1.7,2.3,1.7,1.4,0,2.3-.7,2.3-1.7s-.9-1.7-2.3-1.7-2.3.7-2.3,1.7ZM801.2,337.6h2.4v1.1h-2.4v7.5h-1.3v-14.9h1.3v6.4Z"/>
            <path class="st14" d="M816.6,338.2h-7v-6.1h7v6.1ZM822,345l-.5,1c-2.2-.3-4.3-1.4-5.2-2.8-.9,1.4-3,2.5-5.3,2.8l-.5-1c2.6-.3,5-1.7,5-3.2h-4.4v-1h4.4v-1.5h1.3v1.5h4.5v1h-4.4c0,1.5,2.4,2.9,5,3.2ZM810.9,337.2h4.4v-4h-4.4v4ZM821.1,339.8h-1.3v-8.6h1.3v8.6Z"/>
            <path class="st14" d="M833.6,341.8c1.4,0,2.9-.2,4.3-.4v1c-3.3.6-7,.6-9.7.6l-.2-1.1c1.2,0,2.7,0,4.3,0v-2.8h1.3v2.7h0ZM837.1,334.2h-3.5c0,1.9,1.6,3.5,3.8,4.1l-.6,1c-1.8-.5-3.2-1.7-3.9-3.2-.7,1.6-2,2.8-3.8,3.3l-.6-1c2.2-.6,3.8-2.3,3.8-4.3h-3.4v-1.1h3.5v-1.8h1.3v1.8h3.5v1.1ZM840.2,346.1h-1.3v-15h1.3v15Z"/>
            <path class="st14" d="M851.7,338.5l-.7,1c-1.7-.6-3-1.9-3.6-3.4-.6,1.7-2,3.1-3.8,3.7l-.7-1c2.2-.8,3.8-2.8,3.8-4.9v-.7h-3.4v-1.1h8v1.1h-3.3v.6c0,1.9,1.5,3.8,3.7,4.5ZM855.2,346.1h-1.3v-4.1h-8.7v-1.1h10s0,5.2,0,5.2ZM855.2,340.1h-1.3v-3.9h-3v-1.1h3v-3.9h1.3v8.9Z"/>
            <path class="st14" d="M861.6,342.1v-1.7c-1.7-.2-2.9-1.2-2.9-2.7,0-1.7,1.4-2.8,3.5-2.8s3.5,1.1,3.5,2.8c0,1.5-1.2,2.5-2.9,2.7v1.6c1.4,0,2.8-.2,4.1-.4v1c-3.2.6-6.7.6-9.3.6l-.2-1.1c1.2,0,2.6,0,4.1,0ZM866.8,334.1h-9v-1.1h3.8v-1.8h1.3v1.8h3.8v1.1ZM860,337.7c0,1,.9,1.7,2.3,1.7,1.4,0,2.3-.7,2.3-1.7s-.9-1.7-2.3-1.7-2.3.7-2.3,1.7ZM869.3,337.6h2.4v1.1h-2.4v7.5h-1.3v-14.9h1.3v6.4Z"/>
          </g>
        </g>
      </g>
      <g id="g-root-tx__18it8s21n5mlts-fill">
        <g id="tx__18it8s21n5mlts-fill">
          <g class="st12">
            <path class="st19" d="M445.9,370.6l-.6.8c-1.3-.6-2.3-1.9-2.8-3.5-.5,1.6-1.6,3.1-2.9,3.7l-.6-.8c1.6-.8,3-2.9,3-4.8v-1.5h-2.6v-.8h6.1v.8h-2.5v1.5c0,1.8,1.3,3.8,2.9,4.5ZM447.9,367.2h1.9v.8h-1.9v5.8h-1v-11.2h1v4.5Z"/>
            <path class="st19" d="M460.5,369h-10.2v-.8h4.6v-1.3h-3.3v-3.7h7.6v.8h-6.7v2.1h6.7v.8h-3.4v1.3h4.6v.8ZM459.3,371.8c0,1.3-1.4,2-3.8,2-2.4,0-3.9-.7-3.9-2s1.4-2,3.9-2c2.4,0,3.8.7,3.8,2ZM452.6,371.8c0,.8,1.1,1.2,2.9,1.2s2.9-.5,2.9-1.2-1.1-1.2-2.9-1.2-2.9.5-2.9,1.2Z"/>
            <path class="st19" d="M464.4,370.8v-1.2c-1.3-.1-2.1-.9-2.1-2,0-1.3,1.1-2.1,2.6-2.1s2.6.8,2.7,2.1c0,1.1-.9,1.9-2.2,2v1.2c1,0,2.1-.1,3.1-.3v.8c-2.4.4-5,.4-7,.4l-.2-.8c.9,0,2,0,3.1,0ZM468.3,364.8h-6.7v-.8h2.9v-1.3h1v1.3h2.9s0,.8,0,.8ZM463.2,367.5c0,.8.7,1.3,1.7,1.3,1,0,1.7-.5,1.7-1.3s-.7-1.3-1.7-1.3-1.7.5-1.7,1.3ZM470.2,367.4h1.8v.8h-1.8v5.6h-1v-11.2h1v4.8Z"/>
            <path class="st19" d="M482.9,368.6h-10.2v-.8h10.2v.8h0ZM481.6,371.9h-6.7v1.1h7.1v.7h-8.1v-2.5h6.7v-1h-6.7v-.7h7.7v2.4h0ZM481.5,365.3h-6.6v1h6.8v.7h-7.8v-2.4h6.6v-.9h-6.6v-.7h7.6s0,2.3,0,2.3Z"/>
            <path class="st19" d="M494.4,368.3v.7c-1,.2-2.1.3-3.2.4v4h-1v-4c-1.1,0-2.2,0-3.1,0v-.8c2,0,4.8,0,7.3-.4ZM493.6,365.5c0,1.4-1.2,2.3-2.9,2.3-1.7,0-2.9-.9-2.9-2.3s1.2-2.3,2.9-2.3c1.7,0,2.9.9,2.9,2.3ZM488.8,365.5c0,.9.8,1.5,1.9,1.5,1.1,0,1.9-.6,1.9-1.5s-.8-1.5-1.9-1.5c-1.1,0-1.9.6-1.9,1.5ZM496.2,373.8h-1v-11.2h1v11.2Z"/>
            <path class="st19" d="M504.8,364.8h-6.7v-.8h2.8v-1.4h1v1.4h2.8s0,.8,0,.8ZM504.2,367.5c0,1.3-1.1,2.1-2.7,2.1s-2.7-.8-2.7-2.1c0-1.3,1.1-2.1,2.7-2.1,1.6,0,2.7.8,2.7,2.1ZM499.8,367.5c0,.8.7,1.3,1.7,1.3,1,0,1.7-.5,1.8-1.3,0-.8-.7-1.3-1.8-1.3-1.1,0-1.8.5-1.7,1.3ZM507.4,373.6h-7.5v-3.2h1v2.4h6.5v.8ZM506.9,366.3h1.7v.8h-1.7v3.9h-1v-8.4h1v3.7Z"/>
            <path class="st19" d="M522.7,368.7h-10.2v-.8h4.2v-2.2h1v2.2h5s0,.8,0,.8ZM521.5,371.7c0,1.3-1.5,2-3.9,2s-3.9-.8-3.9-2,1.5-2,3.9-2,3.9.8,3.9,2ZM521.4,364.2c0,.9,0,1.8-.3,3h-1c.3-1.3.3-2.1.3-3h0c0-.1-6.7-.1-6.7-.1v-.8h7.7s0,.9,0,.9ZM514.6,371.7c0,.8,1.1,1.3,2.9,1.3s2.9-.5,2.9-1.3c0-.8-1.2-1.3-2.9-1.3-1.8,0-2.9.5-2.9,1.3Z"/>
            <path class="st19" d="M530.3,368.1l-.5.8c-1.3-.5-2.2-1.4-2.7-2.6-.5,1.3-1.5,2.4-2.9,2.9l-.5-.8c1.7-.6,2.8-2.1,2.8-3.7v-.4h-2.5v-.8h6v.8h-2.5v.4c0,1.5,1.1,2.8,2.8,3.4ZM533,371.7c0,1.3-1.4,2.1-3.7,2.1-2.3,0-3.7-.8-3.7-2.1s1.4-2.1,3.7-2.1,3.7.8,3.7,2.1ZM526.5,371.7c0,.8,1.1,1.3,2.8,1.3s2.8-.5,2.8-1.3-1.1-1.3-2.8-1.3-2.8.5-2.8,1.3ZM532.9,369.3h-1v-2.9h-2.2v-.8h2.2v-2.9h1v6.7Z"/>
            <path class="st19" d="M545,368.3h-10.2v-.8h10.2v.8ZM543.8,364.8c0,1.3-1.5,1.9-3.9,2-2.5,0-4-.7-4-2s1.5-1.9,4-1.9,3.9.7,3.9,1.9ZM543.7,371.7h-6.6v1.2h7v.8h-8v-2.7h6.7v-1h-6.7v-.8h7.6v2.5ZM537,364.8c0,.8,1.1,1.2,2.9,1.2s2.9-.4,2.9-1.2-1.1-1.2-2.9-1.2-2.9.5-2.9,1.2Z"/>
            <path class="st19" d="M559.4,369.4h-4.6v2.2h-1v-2.2h-4.7v-.8h10.2v.8ZM558.3,373.6h-7.8v-3.1h1v2.2h6.8v.8ZM551.5,364.4h5.5v-1.4h1v4.5h-7.5v-4.5h1v1.4h0ZM557,366.7v-1.5h-5.5v1.5h5.5Z"/>
            <path class="st19" d="M566.9,368l-.5.8c-1.2-.5-2.2-1.4-2.7-2.6-.5,1.3-1.5,2.4-2.8,2.9l-.5-.8c1.7-.6,2.8-2.1,2.8-3.8v-1.2h1v1.2c0,1.5,1.1,3,2.8,3.5ZM569.6,373.8h-1v-3.2h-6.5v-.8h7.5v3.9h0ZM569.6,369.2h-1v-3.4h-2.5v-.8h2.5v-2.4h1v6.6Z"/>
            <path class="st19" d="M578.1,364.6h-6.7v-.8h2.8v-1.3h1v1.3h2.8v.8h0ZM577.5,367.1c0,1.2-1.1,2-2.7,2s-2.7-.8-2.7-2c0-1.2,1.1-2,2.7-2,1.6,0,2.7.8,2.7,2ZM573.1,367.1c0,.7.7,1.2,1.7,1.2s1.7-.5,1.8-1.2c0-.7-.7-1.2-1.8-1.2-1.1,0-1.8.5-1.7,1.2ZM574.1,370.8h5.1v-1.2h1v4h-7.1v-4h1v1.2h0ZM579.2,372.9v-1.3h-5.1v1.3h5.1ZM580.2,365.5h1.7v.8h-1.7v2.8h-1v-6.5h1v2.9Z"/>
            <path class="st19" d="M584.3,370.1c1.7,0,3.5-.1,5.3-.5v.8c-1.8.4-3.6.6-5.4.6h-.9v-7.2h1v6.3h0ZM591.8,373.8h-1v-11.2h1v11.2Z"/>
            <path class="st19" d="M599.4,364.5h-4.2v5.7c2,0,3.5,0,5.1-.4v.9c-1.6.3-3.1.4-5.2.4h-.9v-7.3h5.2v.8h0ZM602.4,367.1h1.9v.8h-1.9v5.9h-1v-11.2h1v4.4Z"/>
            <path class="st19" d="M605.3,372.1c0-.4.4-.8.8-.8s.8.4.8.8-.4.8-.8.8-.8-.4-.8-.8Z"/>
          </g>
        </g>
      </g>
      <g id="g-root-tx__zn68j61n5mmmi-fill">
        <g id="tx__zn68j61n5mmmi-fill">
          <g class="st12">
            <path class="st19" d="M761.8,369.6h-10.2v-.8h4v-4h1v4h5.2v.8ZM760.5,362.3c0,1.4,0,2.9-.4,5.2h-1c.4-2.2.4-3.8.4-5.2v-.3h-6.9v-.8h7.9s0,1.1,0,1.1Z"/>
            <path class="st19" d="M763.3,366.8l-.5-.7c2.3-1,3.6-2.5,3.8-4.3h-3.4v-.8h4.4c0,2.7-1.5,4.7-4.4,5.9ZM772.2,371.2h-1v-3.3h-6.6v-.8h7.5v4.1ZM772.2,366.7h-.9v-3h-1.5v2.9h-.9v-6.3h.9v2.6h1.5v-2.8h.9v6.6Z"/>
            <path class="st19" d="M781.3,367.6v.7c-2.5.5-5.2.5-7.2.5v-.8c1.9,0,4.8,0,7.2-.4ZM780.5,363.5c0,1.6-1.2,2.6-3,2.6s-3-1.1-3-2.6c0-1.6,1.3-2.6,3-2.6s3,1.1,3,2.6ZM775.5,363.5c0,1,.9,1.8,2,1.8s2-.7,2-1.8-.9-1.8-2-1.8c-1.2,0-2.1.7-2,1.8ZM783,371.3h-1v-11.2h1v11.2Z"/>
            <path class="st19" d="M794.8,365.5l-.5.8c-1.3-.5-2.2-1.4-2.7-2.5-.5,1.3-1.5,2.3-2.8,2.7l-.5-.8c1.7-.6,2.8-2,2.9-3.6v-.5h-2.6v-.8h6v.8h-2.5v.5c0,1.5,1.1,2.8,2.8,3.4ZM797,371.2h-1v-3h-6.3v-.8h7.3s0,3.8,0,3.8ZM797,363h1.7v.8h-1.7v2.9h-1v-6.7h1v3Z"/>
            <path class="st19" d="M805.3,362.7h2.3v-2.7h1v6h-1v-2.5h-2.3c-.2,1.3-1.4,2.2-2.9,2.2s-2.9-1.1-2.9-2.6,1.2-2.6,2.9-2.6c1.5,0,2.6.9,2.9,2.1ZM800.5,363.2c0,1,.8,1.8,2,1.8s1.9-.7,1.9-1.8-.8-1.7-1.9-1.7c-1.1,0-2,.7-2,1.7ZM802.4,368h5.2v-1.4h1v4.5h-7.2v-4.5h1v1.4ZM807.6,370.3v-1.4h-5.2v1.4h5.2Z"/>
            <path class="st19" d="M820.7,365.7h-10.2v-.8h10.2v.8h0ZM819.5,362.2c0,1.3-1.5,1.9-3.9,2-2.5,0-4-.7-4-2s1.5-1.9,4-1.9,3.9.7,3.9,1.9ZM819.4,369.2h-6.6v1.2h7v.8h-8v-2.7h6.7v-1h-6.7v-.8h7.6s0,2.5,0,2.5ZM812.7,362.2c0,.8,1.1,1.2,2.9,1.2s2.9-.4,2.9-1.2-1.1-1.2-2.9-1.2-2.9.5-2.9,1.2Z"/>
            <path class="st19" d="M831.6,368l-.6.8c-1.3-.6-2.3-1.9-2.8-3.5-.5,1.6-1.6,3.1-2.9,3.7l-.6-.8c1.6-.8,3-2.9,3-4.8v-1.5h-2.6v-.8h6.1v.8h-2.5v1.5c0,1.8,1.3,3.8,2.9,4.5ZM833.5,364.6h1.9v.8h-1.9v5.8h-1v-11.2h1v4.5Z"/>
            <path class="st19" d="M846.2,366.4h-10.2v-.8h4.6v-1.3h-3.3v-3.7h7.6v.8h-6.7v2.1h6.7v.8h-3.4v1.3h4.6v.8h0ZM845,369.2c0,1.3-1.4,2-3.8,2-2.4,0-3.9-.7-3.9-2s1.4-2,3.9-2,3.8.7,3.8,2ZM838.3,369.2c0,.8,1.1,1.2,2.9,1.2s2.9-.5,2.9-1.2-1.1-1.2-2.9-1.2-2.9.5-2.9,1.2Z"/>
            <path class="st19" d="M850.1,368.2v-1.2c-1.3-.1-2.1-.9-2.1-2,0-1.3,1.1-2.1,2.6-2.1s2.6.8,2.7,2.1c0,1.1-.9,1.9-2.2,2v1.2c1,0,2.1-.1,3.1-.3v.8c-2.4.4-5,.4-7,.4l-.2-.8c.9,0,2,0,3.1,0ZM854,362.2h-6.7v-.8h2.9v-1.3h1v1.3h2.9s0,.8,0,.8ZM848.9,365c0,.8.7,1.3,1.7,1.3,1,0,1.7-.5,1.7-1.3s-.7-1.3-1.7-1.3-1.7.5-1.7,1.3ZM855.8,364.8h1.8v.8h-1.8v5.6h-1v-11.2h1v4.8Z"/>
            <path class="st19" d="M864.9,362.7h-6.7v-.8h2.9v-1.7h1v1.7h2.8v.8ZM864.4,366.2c0,1.5-1.2,2.6-2.7,2.6s-2.8-1.1-2.7-2.6c0-1.5,1.1-2.6,2.7-2.6s2.7,1.1,2.7,2.6ZM859.8,366.2c0,1,.8,1.7,1.8,1.7,1,0,1.8-.7,1.8-1.7,0-1-.8-1.7-1.8-1.7s-1.8.7-1.8,1.7ZM867,364.7h1.9v.8h-1.9v5.7h-1v-11.2h1v4.6Z"/>
            <path class="st19" d="M879.6,369.6h-10.2v-.8h4v-4h1v4h5.2s0,.8,0,.8ZM878.4,362.3c0,1.4,0,2.9-.4,5.2h-1c.4-2.2.4-3.8.4-5.2v-.3h-6.9v-.8h7.9s0,1.1,0,1.1Z"/>
            <path class="st19" d="M785.3,383.5c1.1,0,2.2-.1,3.2-.3v.7c-2.5.5-5.2.5-7.2.5v-.8c.8,0,1.9,0,3.1,0v-2.1h1v2ZM787.9,377.8h-2.6c0,1.4,1.2,2.6,2.9,3.1l-.5.8c-1.3-.4-2.4-1.3-2.9-2.4-.5,1.2-1.5,2.1-2.9,2.5l-.5-.8c1.7-.5,2.8-1.7,2.8-3.2h-2.6v-.8h2.6v-1.4h1v1.4h2.6s0,.8,0,.8ZM790.2,386.7h-1v-11.2h1v11.2Z"/>
            <path class="st19" d="M798.8,381l-.5.8c-1.3-.5-2.2-1.4-2.7-2.5-.5,1.3-1.5,2.3-2.8,2.8l-.5-.8c1.6-.6,2.8-2.1,2.8-3.7v-.5h-2.5v-.8h6v.8h-2.5v.5c0,1.5,1.1,2.8,2.8,3.4ZM801.4,386.7h-1v-3.1h-6.5v-.8h7.5v3.9h0ZM801.4,382.2h-1v-2.9h-2.2v-.8h2.2v-2.9h1v6.7Z"/>
            <path class="st19" d="M806.3,383.7v-1.2c-1.3-.1-2.1-.9-2.1-2,0-1.3,1.1-2.1,2.6-2.1s2.6.8,2.7,2.1c0,1.1-.9,1.9-2.2,2v1.2c1,0,2.1-.1,3.1-.3v.8c-2.4.4-5,.4-7,.4l-.2-.8c.9,0,2,0,3.1,0ZM810.1,377.7h-6.7v-.8h2.9v-1.3h1v1.3h2.9s0,.8,0,.8ZM805,380.4c0,.8.7,1.3,1.7,1.3,1,0,1.7-.5,1.7-1.3s-.7-1.3-1.7-1.3-1.7.5-1.7,1.3ZM812,380.3h1.8v.8h-1.8v5.6h-1v-11.2h1v4.8Z"/>
            <path class="st19" d="M821.1,377.5h-6.7v-.8h2.8v-1.3h1v1.3h2.8s0,.8,0,.8ZM820.5,380c0,1.2-1.1,2-2.7,2s-2.7-.8-2.7-2c0-1.2,1.1-2,2.7-2s2.7.8,2.7,2ZM816.1,380c0,.7.7,1.2,1.7,1.2s1.7-.5,1.8-1.2c0-.7-.7-1.2-1.8-1.2-1.1,0-1.8.5-1.7,1.2ZM817.1,383.7h5.1v-1.2h1v4h-7.1v-4h1v1.2h0ZM822.2,385.8v-1.3h-5.1v1.3h5.1ZM823.2,378.4h1.7v.8h-1.7v2.8h-1v-6.5h1v2.9Z"/>
            <path class="st19" d="M827.3,383c1.7,0,3.5-.1,5.3-.5v.8c-1.8.4-3.6.6-5.4.6h-.9v-7.2h1v6.3h0ZM834.8,386.7h-1v-11.2h1v11.2Z"/>
            <path class="st19" d="M842.4,377.4h-4.2v5.7c2,0,3.5,0,5.1-.4v.9c-1.6.3-3.1.4-5.2.4h-.9v-7.3h5.2v.8ZM845.4,379.9h1.9v.8h-1.9v5.9h-1v-11.2h1v4.4Z"/>
            <path class="st19" d="M848.2,384.9c0-.4.4-.8.8-.8s.8.4.8.8-.4.8-.8.8c-.4,0-.8-.4-.8-.8Z"/>
          </g>
        </g>
      </g>
      <g id="g-root-tx__1q9gs6q1n5mmmd-fill">
        <g id="tx__1q9gs6q1n5mmmd-fill">
          <g class="st12">
            <path class="st17" d="M210.5,334.7h-8.9v-1.1h3.8v-2.2h1.3v2.2h3.7v1.1ZM209.8,339.3c0,2-1.5,3.4-3.7,3.4s-3.7-1.4-3.7-3.4c0-2,1.5-3.4,3.7-3.4s3.6,1.4,3.7,3.4ZM203.7,339.3c0,1.4,1,2.3,2.4,2.3,1.4,0,2.4-.9,2.4-2.3,0-1.3-1-2.3-2.4-2.3-1.4,0-2.4,1-2.4,2.3ZM213.2,337.3h2.5v1.1h-2.5v7.7h-1.3v-14.9h1.3v6.2Z"/>
            <path class="st17" d="M230.2,344.1h-13.7v-1.1h13.7v1.1ZM228.6,339.5h-10.3v-6.9h10.2v1.1h-8.8v4.7h9v1.1h0Z"/>
            <path class="st17" d="M239,338.4v1c-1,.2-2.1.3-3.3.4v5.1h-1.2v-5c-1.2,0-2.2,0-3.1,0l-.2-1.1c2.1,0,5.4,0,7.8-.4ZM238.5,334.9c0,1.6-1.4,2.8-3.3,2.7-1.9,0-3.3-1.1-3.3-2.7,0-1.6,1.4-2.8,3.3-2.8,1.9,0,3.3,1.1,3.3,2.8ZM233.1,334.9c0,1,.9,1.7,2.1,1.7s2.1-.7,2.1-1.7-.9-1.8-2.1-1.7c-1.2,0-2.1.7-2.1,1.7ZM241.3,345.3h-1.2v-3.3h-2.8v-1h2.8v-9.5h1.2v13.8ZM244.1,346.1h-1.3v-14.9h1.3v14.9Z"/>
            <path class="st17" d="M254,336.9h3.3v-5.7h1.3v15h-1.3v-8.2h-3.3c-.2,2.9-1.6,4.8-3.7,4.8s-3.7-2-3.7-5.2,1.5-5.2,3.7-5.2c2,0,3.5,1.8,3.7,4.5ZM247.8,337.5c0,2.4,1,4,2.5,4s2.5-1.6,2.5-4-1-4-2.5-4c-1.5,0-2.5,1.6-2.5,4Z"/>
            <path class="st17" d="M273.2,338.2h-7v-6.1h7v6.1ZM278.6,345l-.5,1c-2.2-.3-4.3-1.4-5.2-2.8-.9,1.4-3,2.5-5.3,2.8l-.5-1c2.6-.3,5-1.7,5-3.2h-4.4v-1h4.4v-1.5h1.3v1.5h4.5v1h-4.4c0,1.5,2.4,2.9,5,3.2ZM267.5,337.2h4.4v-4h-4.4v4ZM277.7,339.8h-1.3v-8.6h1.3v8.6Z"/>
            <path class="st17" d="M200.5,364.8h-13.7v-1.1h6.1v-3.7h1.3v3.7h6.3v1.1ZM199.8,359.1l-.6,1.1c-2.3-.5-4.7-2-5.6-4.2-1,2.1-3.4,3.7-5.6,4.2l-.6-1.1c2.6-.5,5.5-2.6,5.5-5.1v-1.1h1.4v1.1c0,2.5,3,4.7,5.6,5.1Z"/>
            <path class="st17" d="M215.4,364.8h-13.7v-1.1h13.7v1.1ZM214,354.4h-2.4v5.2h2.3v1.1h-11.1v-1.1h2.3v-5.2h-2.4v-1.1h11.1v1.1ZM210.4,359.6v-5.2h-3.8v5.2h3.8Z"/>
            <path class="st17" d="M230.2,364.8h-13.7v-1.1h13.7v1.1ZM228.6,361h-10.3v-7.9h10.2v1.1h-8.8v2.2h8.5v1.1h-8.5v2.4h9v1.1Z"/>
            <path class="st17" d="M239,359v1c-1,.2-2.1.3-3.3.4v5.1h-1.2v-5c-1.2,0-2.2,0-3.1,0l-.2-1.1c2.1,0,5.4,0,7.8-.4ZM238.5,355.5c0,1.6-1.4,2.8-3.3,2.7-1.9,0-3.3-1.1-3.3-2.7,0-1.6,1.4-2.8,3.3-2.8,1.9,0,3.3,1.1,3.3,2.8ZM233.1,355.5c0,1,.9,1.7,2.1,1.7s2.1-.7,2.1-1.7-.9-1.8-2.1-1.7c-1.2,0-2.1.7-2.1,1.7ZM241.3,365.9h-1.2v-3.3h-2.8v-1h2.8v-9.4h1.2v13.8ZM244.1,366.7h-1.3v-14.9h1.3v14.9Z"/>
            <path class="st17" d="M254,357.5h3.3v-5.7h1.3v15h-1.3v-8.2h-3.3c-.2,2.9-1.6,4.8-3.7,4.8s-3.7-2-3.7-5.2,1.5-5.2,3.7-5.2c2,0,3.5,1.8,3.7,4.5ZM247.8,358.2c0,2.4,1,4,2.5,4s2.5-1.6,2.5-4-1-4-2.5-4c-1.5,0-2.5,1.6-2.5,4Z"/>
            <path class="st17" d="M274.2,359.5l-.7,1c-1.6-.7-2.9-2-3.6-3.6-.6,1.8-2,3.2-3.8,3.9l-.7-1.1c2.2-.8,3.8-2.9,3.8-5.2v-1.8h1.3v1.9c0,2.1,1.5,4,3.7,4.8ZM278.1,366.4h-10v-4.7h1.3v3.6h8.7v1.1ZM277.8,363h-1.3v-6.6h-3.3v-1.1h3.3v-3.5h1.3v11.2Z"/>
            <path class="st17" d="M286.7,354h-4.5v1.9h4.4v1h-4.4v2.1c2.2,0,3.5,0,5.1-.4v1.1c-1.6.3-3,.4-5.5.4h-.9v-7.2h5.8v1.1h0ZM292.9,366.7h-1.3v-4h-8.8v-1.1h10.1v5.1ZM292.9,360.9h-1.3v-4.1h-2.1v4h-1.2v-8.7h1.2v3.6h2.1v-3.9h1.3v9Z"/>
          </g>
        </g>
      </g>
      <g id="g-root-cp_0_g-0_1uonq2a1n621vq-stroke">
        <g id="cp_0_g-0_1uonq2a1n621vq-stroke">
          <path class="st2" d="M167.2,195.5c-2.6,37.5-33.9,67-72,67s-69.4-29.6-72-67M311.5,185.2c-2.6-37.5-33.9-67-72-67s-69.4,29.6-72,67M455.9,195.5c-2.6,37.5-33.9,67-72,67s-69.4-29.6-72-67M600.3,185.2c-2.6-37.5-33.9-67-72-67s-69.4,29.6-72,67M744.6,195.5c-2.6,37.5-33.9,67-72,67s-69.4-29.6-72-67M889,185.2c-2.6-37.5-33.9-67-72-67s-69.4,29.6-72,67"/>
        </g>
      </g>
      <g id="g-root-cp_1_g-1_1_1uonq2a1n621vs-stroke">
        <g id="cp_1_g-1_1_1uonq2a1n621vs-stroke">
          <path class="st3" d="M38.5,190.4c0,31.3,25.4,56.7,56.7,56.7s56.7-25.4,56.7-56.7-25.4-56.7-56.7-56.7c-31.3,0-56.7,25.4-56.7,56.7M17.8,190.4c0,2.8,2.3,5.2,5.2,5.2s5.2-2.3,5.2-5.2-2.3-5.2-5.2-5.2c-2.8,0-5.2,2.3-5.2,5.2"/>
        </g>
        <g id="cp_1_g-1_1_1uonq2a1n621vs-stroke1" data-name="cp_1_g-1_1_1uonq2a1n621vs-stroke">
          <path class="st3" d="M102.9,77c0,4.3-3.5,7.7-7.7,7.7s-7.7-3.5-7.7-7.7,3.5-7.7,7.7-7.7c4.3,0,7.7,3.5,7.7,7.7Z"/>
        </g>
      </g>
      <g id="g-root-cp_2_g-2_1q8u7xu1n622o2-stroke">
        <g id="cp_2_g-2_1q8u7xu1n622o2-stroke">
          <path class="st8" d="M182.8,190.4c0,31.3,25.4,56.7,56.7,56.7s56.7-25.4,56.7-56.7-25.4-56.7-56.7-56.7-56.7,25.4-56.7,56.7M162.2,190.4c0,2.8,2.3,5.2,5.2,5.2s5.2-2.3,5.2-5.2-2.3-5.2-5.2-5.2c-2.8,0-5.2,2.3-5.2,5.2"/>
        </g>
        <g id="cp_2_g-2_1q8u7xu1n622o2-stroke1" data-name="cp_2_g-2_1q8u7xu1n622o2-stroke">
          <path class="st8" d="M247.3,303.8c0,4.3-3.5,7.7-7.7,7.7s-7.7-3.5-7.7-7.7,3.5-7.7,7.7-7.7,7.7,3.5,7.7,7.7Z"/>
        </g>
      </g>
      <g id="g-root-cp_3_g-3_1_1hdtos21n620b0-stroke">
        <g id="cp_3_g-3_1_1hdtos21n620b0-stroke">
          <path class="st1" d="M327.2,190.4c0,31.3,25.4,56.7,56.7,56.7s56.7-25.4,56.7-56.7-25.4-56.7-56.7-56.7-56.7,25.4-56.7,56.7M306.6,190.4c0,2.8,2.3,5.2,5.2,5.2s5.2-2.3,5.2-5.2-2.3-5.2-5.2-5.2c-2.8,0-5.2,2.3-5.2,5.2"/>
        </g>
        <g id="cp_3_g-3_1_1hdtos21n620b0-stroke1" data-name="cp_3_g-3_1_1hdtos21n620b0-stroke">
          <path class="st1" d="M391.6,77c0,4.3-3.5,7.7-7.7,7.7s-7.7-3.5-7.7-7.7,3.5-7.7,7.7-7.7,7.7,3.5,7.7,7.7Z"/>
        </g>
      </g>
      <g id="g-root-cp_4_g-4_1hdtos21n620b2-stroke">
        <g id="cp_4_g-4_1hdtos21n620b2-stroke">
          <path class="st5" d="M471.5,190.4c0,31.3,25.4,56.7,56.7,56.7s56.7-25.4,56.7-56.7-25.4-56.7-56.7-56.7-56.7,25.4-56.7,56.7M450.9,190.4c0,2.8,2.3,5.2,5.2,5.2s5.2-2.3,5.2-5.2-2.3-5.2-5.2-5.2-5.2,2.3-5.2,5.2"/>
        </g>
        <g id="cp_4_g-4_1hdtos21n620b2-stroke1" data-name="cp_4_g-4_1hdtos21n620b2-stroke">
          <path class="st5" d="M536,303.8c0,4.3-3.5,7.7-7.7,7.7s-7.7-3.5-7.7-7.7,3.5-7.7,7.7-7.7,7.7,3.5,7.7,7.7Z"/>
        </g>
      </g>
      <g id="g-root-cp_5_g-5_1_1cy06nm1n6213c-stroke">
        <g id="cp_5_g-5_1_1cy06nm1n6213c-stroke">
          <path class="st4" d="M615.9,190.4c0,31.3,25.4,56.7,56.7,56.7s56.7-25.4,56.7-56.7-25.4-56.7-56.7-56.7c-31.3,0-56.7,25.4-56.7,56.7M595.3,190.4c0,2.8,2.3,5.2,5.2,5.2s5.2-2.3,5.2-5.2-2.3-5.2-5.2-5.2c-2.8,0-5.2,2.3-5.2,5.2"/>
        </g>
        <g id="cp_5_g-5_1_1cy06nm1n6213c-stroke1" data-name="cp_5_g-5_1_1cy06nm1n6213c-stroke">
          <path class="st4" d="M680.4,77c0,4.3-3.5,7.7-7.7,7.7s-7.7-3.5-7.7-7.7,3.5-7.7,7.7-7.7c4.3,0,7.7,3.5,7.7,7.7Z"/>
        </g>
      </g>
      <g id="g-root-cp_6_g-6_1cy06nm1n6213e-stroke">
        <g id="cp_6_g-6_1cy06nm1n6213e-stroke">
          <path class="st7" d="M760.3,190.4c0,31.3,25.4,56.7,56.7,56.7s56.7-25.4,56.7-56.7-25.4-56.7-56.7-56.7-56.7,25.4-56.7,56.7M739.7,190.4c0,2.8,2.3,5.2,5.2,5.2s5.2-2.3,5.2-5.2-2.3-5.2-5.2-5.2-5.2,2.3-5.2,5.2M884,190.4c0,2.8,2.3,5.2,5.2,5.2s5.2-2.3,5.2-5.2-2.3-5.2-5.2-5.2-5.2,2.3-5.2,5.2"/>
        </g>
        <g id="cp_6_g-6_1cy06nm1n6213e-stroke1" data-name="cp_6_g-6_1cy06nm1n6213e-stroke">
          <path class="st7" d="M824.7,303.8c0,4.3-3.5,7.7-7.7,7.7s-7.7-3.5-7.7-7.7,3.5-7.7,7.7-7.7,7.7,3.5,7.7,7.7Z"/>
        </g>
      </g>
      <g id="g-root-cp_-1_line_18i6oj61n621vo-stroke">
        <g id="cp_-1_line_18i6oj61n621vo-stroke">
          <path class="st6" d="M95.2,133.7v-49"/>
        </g>
      </g>
      <g id="g-root-cp_-1_line_1_18i6oj61n621vq-stroke">
        <g id="cp_-1_line_1_18i6oj61n621vq-stroke">
          <path class="st6" d="M383.9,133.7v-49"/>
        </g>
      </g>
      <g id="g-root-cp_-1_line_2_18i6oj61n621vs-stroke">
        <g id="cp_-1_line_2_18i6oj61n621vs-stroke">
          <path class="st6" d="M672.6,133.7v-49"/>
        </g>
      </g>
      <g id="g-root-cp_-1_line_3_142d6eq1n622o2-stroke">
        <g id="cp_-1_line_3_142d6eq1n622o2-stroke">
          <path class="st6" d="M239.5,296.1v-49"/>
        </g>
      </g>
      <g id="g-root-cp_-1_line_4_142d6eq1n622o4-stroke">
        <g id="cp_-1_line_4_142d6eq1n622o4-stroke">
          <path class="st6" d="M528.3,296.1v-49"/>
        </g>
      </g>
      <g id="g-root-cp_-1_line_5_142d6eq1n622o6-stroke">
        <g id="cp_-1_line_5_142d6eq1n622o6-stroke">
          <path class="st6" d="M817,296.1v-49"/>
        </g>
      </g>
      <g id="g-root-ic_cycl_1uqj5bm1n621on-stroke">
        <g id="ic_cycl_1uqj5bm1n621on-stroke">
          <path class="st3" d="M82.8,211.8c-10.8-6.2-15.3-19.5-10.4-31,4.9-11.5,17.5-17.6,29.5-14.1M107.5,169c10.8,6.2,15.3,19.4,10.5,30.9-4.8,11.5-17.4,17.6-29.4,14.3M75.2,213.8l7.7-2.1-2.1-7.7M115.2,166.9l-7.7,2.1,2.1,7.7M88.3,182.5c0,4,3.3,7.3,7.3,7.3s7.3-3.3,7.3-7.3c0-4-3.3-7.3-7.3-7.3s-7.3,3.3-7.3,7.3M106.9,201.1c-1.7-4.7-6.2-7.9-11.2-7.9s-9.5,3.1-11.2,7.9M90.4,177.3c2.5,4.6,8,5.2,12.4,5.2"/>
        </g>
      </g>
      <g id="g-root-ic_code_4j6rhu1n5gydk-stroke">
        <g id="ic_code_4j6rhu1n5gydk-stroke">
          <path class="st8" d="M236.3,186.1l-4.3,4.3,4.3,4.3M242.8,186.1l4.3,4.3-4.3,4.3M239.5,210.3h0c.3,0,.5.2.5.5h0c0,.3-.2.5-.5.5h0c-.3,0-.5-.2-.5-.5h0c0-.3.2-.5.5-.5M229.9,165.7h19.3s4.3,0,4.3,4.3v40.8s0,4.3-4.3,4.3h-19.3s-4.3,0-4.3-4.3v-40.8s0-4.3,4.3-4.3M253.5,206.5h-27.9M253.5,174.3h-27.9M236.3,170h6.4"/>
        </g>
      </g>
      <g id="g-root-ic_add_1hbycoi1n5icjl-stroke">
        <g id="ic_add_1hbycoi1n5icjl-stroke">
          <path class="st1" d="M361.8,172h44.2s1.8,0,1.8,1.8v29.5s0,1.8-1.8,1.8h-44.2s-1.8,0-1.8-1.8v-29.5s0-1.8,1.8-1.8M380.2,205.1l-3.7,9.2M387.6,205.1l3.7,9.2M372.9,214.3h22.1M393.1,188.5h-18.4M383.9,179.3v18.4"/>
        </g>
      </g>
      <g id="g-root-ic_comp_1cu9faq1n5jrpe-stroke">
        <g id="ic_comp_1cu9faq1n5jrpe-stroke">
          <path class="st5" d="M503.6,172.3c0,3.6,2.9,6.6,6.6,6.6s6.6-3,6.6-6.6c0-3.6-2.9-6.6-6.6-6.6s-6.6,3-6.6,6.6M503.6,208.5c0,3.6,2.9,6.6,6.6,6.6s6.6-3,6.6-6.6c0-3.6-2.9-6.6-6.6-6.6s-6.6,3-6.6,6.6M510.1,178.9v23.1M539.8,208.5c0,3.6,2.9,6.6,6.6,6.6s6.6-3,6.6-6.6-3-6.6-6.6-6.6c-3.6,0-6.6,3-6.6,6.6M546.4,201.9v-18.7c0-6.1-4.9-11-11-11h-8.8M533.2,165.7l-6.6,6.6,6.6,6.6"/>
        </g>
      </g>
      <g id="g-root-ic_chec_1lxe4ky1n5jtvn-stroke">
        <g id="ic_chec_1lxe4ky1n5jtvn-stroke">
          <path class="st4" d="M693,174.3c0,2.4-1.9,4.3-4.3,4.3h-36.5c-2.4,0-4.3-1.9-4.3-4.3v-4.3c0-2.4,1.9-4.3,4.3-4.3h36.5c2.4,0,4.3,1.9,4.3,4.3v4.3ZM652.2,191.5c-2.4,0-4.3-1.9-4.3-4.3v-4.3c0-2.4,1.9-4.3,4.3-4.3h36.5c2.4,0,4.3,1.9,4.3,4.3v3.2M657.1,171.6c-.3,0-.5.2-.5.5s.2.5.5.5.5-.2.5-.5-.2-.5-.5-.5h0M664.6,171.6c-.3,0-.5.2-.5.5s.2.5.5.5.5-.2.5-.5-.2-.5-.5-.5h0M657.1,184.5c-.3,0-.5.2-.5.5s.2.5.5.5.5-.2.5-.5-.2-.5-.5-.5h0M664.6,184.5c-.3,0-.5.2-.5.5s.2.5.5.5.5-.2.5-.5-.2-.5-.5-.5h0M666.2,204.4h-14c-2.4,0-4.3-1.9-4.3-4.3v-4.3c0-2.4,1.9-4.3,4.3-4.3h17.2M657.1,197.4c-.3,0-.5.2-.5.5s.2.5.5.5.5-.2.5-.5-.2-.5-.5-.5h0M664.6,197.4c-.3,0-.5.2-.5.5s.2.5.5.5.5-.2.5-.5-.2-.5-.5-.5h0M671.6,202.2c0,7.1,5.8,12.9,12.9,12.9s12.9-5.8,12.9-12.9-5.8-12.9-12.9-12.9c-7.1,0-12.9,5.8-12.9,12.9ZM690.2,198.5l-6.2,8.3c-.3.4-.7.6-1.2.6s-.9-.1-1.3-.5l-3.2-3.2"/>
        </g>
      </g>
      <g id="g-root-ic_incr_1lvipbm1n5l898-stroke">
        <g id="ic_incr_1lvipbm1n5l898-stroke">
          <path class="st7" d="M792.3,214.6h49.4M800.9,214.6v-5.4c0-.6-.5-1.1-1.1-1.1h-4.3c-.6,0-1.1.5-1.1,1.1v5.4M813.8,214.6v-14c0-.6-.5-1.1-1.1-1.1h-4.3c-.6,0-1.1.5-1.1,1.1v14M826.7,214.6v-22.6c0-.6-.5-1.1-1.1-1.1h-4.3c-.6,0-1.1.5-1.1,1.1v22.6M839.5,214.6v-31.2c0-.6-.5-1.1-1.1-1.1h-4.3c-.6,0-1.1.5-1.1,1.1v31.1M797.7,193.1l38.7-25.8M835.3,175.9l1.1-8.6-8.6-1.1"/>
        </g>
      </g>
    </g>
  </g>
</svg>