<?xml version="1.0" encoding="utf-8"?>
<!-- Generator: Adobe Illustrator 16.0.0, SVG Export Plug-In . SVG Version: 6.00 Build 0)  -->
<!DOCTYPE svg PUBLIC "-//W3C//DTD SVG 1.1//EN" "http://www.w3.org/Graphics/SVG/1.1/DTD/svg11.dtd">
<svg version="1.1" id="Layer_1" xmlns="http://www.w3.org/2000/svg" xmlns:xlink="http://www.w3.org/1999/xlink" x="0px" y="0px"
	 width="900px" height="454px" viewBox="96 0 900 454" enable-background="new 96 0 900 454" xml:space="preserve">
<g id="g-root-tx__1umry4k1wbaknj-fill" transform="translate(362, 266)">
	<g id="tx__1umry4k1wbaknj-fill">
		<g>
			<g enable-background="new    ">
				<path fill="#484848" d="M47.781,15.731l-0.779,1.132c-1.828-0.649-3.284-1.948-4.008-3.618
					c-0.705,1.884-2.199,3.321-4.156,4.026l-0.798-1.169c2.486-0.816,4.193-2.895,4.212-5.307V9.237h1.429v1.559
					C43.662,12.967,45.369,14.934,47.781,15.731z M51.733,22.003h-9.222v1.8h9.834v1.169H41.083V20.89h9.203v-1.651h-9.24v-1.169
					h10.688V22.003z M51.733,17.234h-1.466v-4.286h-3.674v-1.206h3.674V8.699h1.466V17.234z"/>
				<path fill="#484848" d="M56.892,14.47h4.917v-4.36h1.429v11.133h-7.793V10.109h1.447V14.47z M61.809,20.018v-4.379h-4.917v4.379
					H61.809z M68.08,25.231h-1.466V8.699h1.466V25.231z"/>
				<path fill="#484848" d="M84.074,20.426l-0.891,1.076c-1.624-0.975-2.774-2.756-3.34-4.861c-0.603,2.273-1.8,4.212-3.451,5.251
					l-0.928-1.095c2.301-1.373,3.637-4.379,3.637-7.385v-1.559h-3.173v-1.206h7.607v1.206h-3.024v1.559
					C80.512,16.27,81.792,19.108,84.074,20.426z M86.431,24.341h-1.373v-8.498h-2.783v-1.188h2.783V9.107h1.373V24.341z
					 M89.771,25.194h-1.392V8.699h1.392V25.194z"/>
				<path fill="#484848" d="M101.738,16.808l-0.742,1.132c-1.883-0.668-3.321-2.022-4.026-3.729
					c-0.705,1.874-2.217,3.331-4.156,4.045l-0.779-1.132c2.468-0.872,4.193-3.006,4.212-5.362v-0.705h-3.767V9.868h8.906v1.188
					h-3.711v0.705C97.675,13.95,99.289,15.954,101.738,16.808z M104.985,25.194h-1.447v-4.49h-9.352v-1.188h10.799V25.194z
					 M104.985,13.06h2.486v1.243h-2.486v4.342h-1.447V8.699h1.447V13.06z"/>
				<path fill="#484848" d="M121.889,16.492h-7.737V9.775h7.737V16.492z M127.882,24.007l-0.501,1.132
					c-2.486-0.334-4.75-1.503-5.715-3.043c-1.002,1.568-3.321,2.709-5.808,3.043l-0.52-1.132c2.839-0.315,5.566-1.911,5.566-3.563
					h-4.88v-1.132h4.898v-1.614h1.447v1.614h4.936v1.132h-4.898C122.408,22.059,125.043,23.654,127.882,24.007z M115.58,15.342h4.88
					v-4.379h-4.88V15.342z M126.88,18.181h-1.429V8.699h1.429V18.181z"/>
			</g>
			<g enable-background="new    ">
				<path fill="#484848" d="M47.93,40.921l-0.835,1.15c-1.855-0.899-3.423-2.866-4.156-5.103c-0.761,2.431-2.421,4.564-4.268,5.511
					l-0.891-1.15c2.375-1.15,4.416-4.286,4.435-7.106V32.07h-3.841v-1.206h8.98v1.206h-3.711v2.152
					C43.625,36.876,45.536,39.789,47.93,40.921z M50.824,35.837h2.765v1.243h-2.765v8.572h-1.447V29.157h1.447V35.837z"/>
				<path fill="#484848" d="M69.527,38.49H54.479v-1.169h6.81v-1.93h-4.898v-5.455h11.263v1.169h-9.834v3.099h9.945v1.188h-5.065
					v1.93h6.828V38.49z M67.672,42.665c-0.019,1.911-2.134,2.969-5.678,2.987c-3.563-0.019-5.696-1.076-5.696-2.987
					c0-1.893,2.134-2.969,5.696-2.969C65.538,39.696,67.653,40.772,67.672,42.665z M57.782,42.665
					c-0.019,1.15,1.559,1.818,4.212,1.818c2.616,0,4.212-0.668,4.212-1.818c0-1.132-1.596-1.818-4.212-1.818
					C59.341,40.847,57.764,41.533,57.782,42.665z"/>
				<path fill="#484848" d="M75.242,41.199v-1.837c-1.92-0.214-3.173-1.336-3.154-2.969c-0.019-1.855,1.559-3.062,3.896-3.062
					c2.301,0,3.896,1.206,3.915,3.062c-0.019,1.633-1.29,2.755-3.191,2.987v1.763c1.54-0.074,3.089-0.194,4.527-0.408l0.093,1.113
					c-3.6,0.612-7.496,0.649-10.391,0.649l-0.241-1.243C72.042,41.255,73.609,41.255,75.242,41.199z M80.938,32.367h-9.945V31.18
					h4.249v-1.985h1.466v1.985h4.23V32.367z M73.442,36.394c0,1.15,1.021,1.893,2.542,1.874c1.503,0.019,2.523-0.724,2.523-1.874
					s-1.021-1.93-2.523-1.93C74.463,34.464,73.442,35.243,73.442,36.394z M83.703,36.189h2.635v1.225h-2.635v8.238h-1.466V29.157
					h1.466V36.189z"/>
				<path fill="#484848" d="M100.495,40.884l-0.891,1.076c-1.624-0.974-2.774-2.755-3.34-4.861c-0.603,2.272-1.8,4.212-3.451,5.251
					l-0.928-1.095c2.301-1.373,3.637-4.379,3.637-7.385v-1.559H92.35v-1.206h7.607v1.206h-3.024v1.559
					C96.933,36.728,98.213,39.566,100.495,40.884z M102.852,44.799h-1.373v-8.498h-2.783v-1.188h2.783v-5.548h1.373V44.799z
					 M106.191,45.652H104.8V29.157h1.392V45.652z"/>
				<path fill="#484848" d="M117.046,35.466h3.692v-6.309h1.447v16.532h-1.447v-9.018h-3.674c-0.176,3.229-1.818,5.251-4.119,5.251
					c-2.431,0-4.138-2.227-4.138-5.733s1.707-5.733,4.138-5.752C115.19,30.456,116.805,32.377,117.046,35.466z M110.199,36.189
					c0,2.69,1.113,4.435,2.746,4.435c1.614,0,2.746-1.744,2.746-4.435s-1.132-4.435-2.746-4.453
					C111.313,31.755,110.199,33.499,110.199,36.189z"/>
				<path fill="#484848" d="M139.423,36.189l-0.779,1.132c-1.828-0.649-3.284-1.948-4.008-3.618
					c-0.705,1.883-2.199,3.321-4.156,4.026l-0.798-1.169c2.486-0.816,4.193-2.895,4.212-5.307v-1.559h1.429v1.559
					C135.304,33.425,137.011,35.392,139.423,36.189z M143.375,42.461h-9.222v1.8h9.834v1.169h-11.263v-4.082h9.203v-1.651h-9.24
					v-1.169h10.688V42.461z M143.375,37.692h-1.466v-4.286h-3.674V32.2h3.674v-3.043h1.466V37.692z"/>
				<path fill="#484848" d="M156.623,41.032l-0.816,1.132c-1.902-0.844-3.516-2.635-4.286-4.824
					c-0.742,2.319-2.347,4.221-4.249,5.121l-0.816-1.132c2.449-1.113,4.323-3.896,4.323-6.791v-1.317H146.9v-1.188h3.859v-2.561
					h1.447v2.561h3.841v1.188h-3.841v1.317C152.207,37.303,154.137,39.975,156.623,41.032z M159.722,45.652h-1.466V29.157h1.466
					V45.652z"/>
			</g>
		</g>
	</g>
</g>
<g id="g-root-sy_1_cu_958kn81wb95or-fill" transform="translate(14, 98)">
	<g id="sy_1_cu_958kn81wb95or-fill">
		<g>
			<path fill="#40587E" d="M87.036,110.947V29.113h184.127l-40.917,20.458v61.376H87.036z"/>
		</g>
	</g>
</g>
<g id="g-root-sy_2_cu_1uuw4901wb972k-fill" transform="translate(182.00009155273438, 98)">
	<g id="sy_2_cu_1uuw4901wb972k-fill">
		<g>
			<path fill="#4371BD" d="M62.246,131.406V49.571h184.127L205.456,70.03v61.376H62.246z M103.163,29.113v20.458H62.246
				L103.163,29.113z"/>
		</g>
	</g>
</g>
<g id="g-root-sy_3_cu_1uuw4901wb972l-fill" transform="translate(350.0000915527344, 122)">
	<g id="sy_3_cu_1uuw4901wb972l-fill">
		<g>
			<path fill="#4F84DA" d="M37.456,127.865V46.03h184.127l-40.917,20.458v61.376H37.456z M78.373,25.571V46.03H37.456L78.373,25.571
				z"/>
		</g>
	</g>
</g>
<g id="g-root-sy_4_cu_1qf2m4k1wb97uu-fill" transform="translate(518.0001220703125, 146)">
	<g id="sy_4_cu_1qf2m4k1wb97uu-fill">
		<g>
			<path fill="#4E8BEF" d="M12.666,42.489v81.834h143.21V62.947l40.917-20.458H12.666z M53.583,22.03v20.458H12.666L53.583,22.03z"
				/>
		</g>
	</g>
</g>
<g id="g-root-sy_5_cu_1hjflvo1wb98nj-fill" transform="translate(686, 170)">
	<g id="sy_5_cu_1hjflvo1wb98nj-fill">
		<g>
			<path fill="#5B99FF" d="M-12.123,120.782V38.947h184.127l-40.918,20.459v61.376H-12.123z M28.794,18.489v20.458h-40.917
				L28.794,18.489z"/>
		</g>
	</g>
</g>
<g id="g-root-sy_6_cu_1lz94041wb98n4-fill" transform="translate(854, 194)">
	<g id="sy_6_cu_1lz94041wb98n4-fill">
		<g>
			<path fill="#95BDFF" d="M-36.914,117.241V35.406H96.068V25.177l40.916,51.146l-40.916,51.999v-11.081H-36.914z M4.004,14.947
				v20.459h-40.918L4.004,14.947z"/>
		</g>
	</g>
</g>
<g id="g-root-tx__m7yft01wbakui-fill" transform="translate(56, 134)">
	<g id="tx__m7yft01wbakui-fill">
		<g>
			<g enable-background="new    ">
				<path fill="#FFFFFF" d="M98.766,37.444H83.439v-1.911h5.752v-2.95h2.338v2.95h7.236V37.444z M97.04,41.712
					c-0.019,1.985-2.338,3.173-6.03,3.173c-3.655,0-6.012-1.188-6.012-3.173c0-2.022,2.356-3.191,6.012-3.191
					C94.702,38.521,97.021,39.689,97.04,41.712z M96.947,30.134c0,1.336,0,2.783-0.482,4.527l-2.319-0.223
					c0.371-1.531,0.417-2.672,0.445-3.822h-9.426v-1.855h11.782V30.134z M87.354,41.712c0,0.909,1.336,1.373,3.655,1.373
					s3.674-0.464,3.674-1.373c0-0.946-1.354-1.429-3.674-1.429S87.354,40.766,87.354,41.712z"/>
				<path fill="#FFFFFF" d="M109.564,30.913h-3.358c0.056,1.967,1.243,3.952,3.878,4.824l-1.169,1.855
					c-1.865-0.603-3.145-1.828-3.878-3.358c-0.751,1.726-2.097,3.117-4.101,3.804l-1.225-1.874c2.774-0.928,4.017-3.136,4.082-5.251
					h-3.396v-1.893h9.166V30.913z M114.11,41.656c-0.019,2.041-2.227,3.247-5.826,3.247s-5.808-1.206-5.808-3.247
					c0-2.06,2.208-3.247,5.808-3.266C111.884,38.409,114.092,39.597,114.11,41.656z M104.833,41.656
					c0,0.965,1.206,1.447,3.451,1.447s3.47-0.482,3.47-1.447c0-0.983-1.225-1.447-3.47-1.447S104.833,40.673,104.833,41.656z
					 M114.055,38.02h-2.356V34.03h-2.635v-1.911h2.635V28h2.356V38.02z"/>
				<path fill="#FFFFFF" d="M136.061,38.521h-6.364v2.728h-2.338v-2.728h-6.754v-1.855h15.456V38.521z M134.354,44.588h-11.931
					v-4.676h2.338v2.783h9.593V44.588z M124.928,30.301h6.772v-1.763h2.356v6.939H122.59v-6.939h2.338V30.301z M131.7,33.604v-1.54
					h-6.772v1.54H131.7z"/>
				<path fill="#FFFFFF" d="M147.212,35.626L145.95,37.5c-1.818-0.612-3.052-1.828-3.767-3.358c-0.751,1.67-2.06,2.978-3.971,3.655
					l-1.28-1.893c2.82-0.909,4.026-3.117,4.045-5.418v-1.614h2.394v1.763C143.353,32.731,144.54,34.772,147.212,35.626z
					 M151.275,44.885h-2.356v-4.193h-9.24v-1.874h11.597V44.885z M151.275,38.057h-2.356v-4.973h-3.173v-1.948h3.173V28h2.356
					V38.057z"/>
			</g>
		</g>
	</g>
</g>
<g id="g-root-tx__8whxfo1wbamfg-fill" transform="translate(212, 158)">
	<g id="tx__8whxfo1wbamfg-fill">
		<g>
			<g enable-background="new    ">
				<path fill="#FFFFFF" d="M73.142,35.888l-1.317,1.855c-1.883-0.863-3.229-2.588-3.971-4.62c-0.761,2.236-2.143,4.128-4.101,5.047
					l-1.373-1.874c2.82-1.317,4.23-4.453,4.249-7.236v-1.039h-3.581v-1.93H72.4v1.93h-3.396v1.039
					C68.986,31.639,70.359,34.608,73.142,35.888z M76.092,30.897h2.486v1.985h-2.486v8.461h-2.375V24.458h2.375V30.897z"/>
				<path fill="#FFFFFF" d="M94.628,34.292H79.191v-1.855h6.568V30.99h-4.694v-5.789h11.708v1.837h-9.352v2.097h9.444v1.855h-4.787
					v1.447h6.55V34.292z M92.754,38.263c-0.019,1.967-2.227,3.099-5.882,3.099c-3.692,0-5.919-1.132-5.919-3.099
					c0-2.004,2.227-3.117,5.919-3.117C90.528,35.146,92.736,36.259,92.754,38.263z M83.366,38.263
					c-0.019,0.891,1.169,1.299,3.507,1.299c2.282,0,3.488-0.408,3.507-1.299c-0.019-0.872-1.225-1.317-3.507-1.317
					C84.535,36.946,83.347,37.391,83.366,38.263z"/>
				<path fill="#FFFFFF" d="M99.583,36.538V35.09c-1.8-0.353-2.969-1.494-2.95-3.062c-0.019-1.893,1.688-3.173,4.156-3.173
					c2.412,0,4.138,1.28,4.156,3.173c-0.019,1.568-1.206,2.718-2.987,3.062v1.354c1.336-0.065,2.681-0.176,3.934-0.353l0.148,1.726
					c-3.6,0.668-7.459,0.687-10.316,0.687l-0.315-1.93C96.642,36.575,98.08,36.575,99.583,36.538z M105.761,28.188h-10.02v-1.855
					h3.841v-1.781h2.375v1.781h3.804V28.188z M98.877,32.029c-0.019,0.891,0.761,1.373,1.911,1.373c1.113,0,1.874-0.482,1.874-1.373
					c0-0.872-0.761-1.373-1.874-1.373C99.638,30.656,98.859,31.157,98.877,32.029z M109.12,31.324h2.208v1.967h-2.208v8.053h-2.394
					V24.458h2.394V31.324z"/>
				<path fill="#FFFFFF" d="M126.598,31.008l-1.243,1.818c-1.809-0.584-3.071-1.716-3.804-3.173
					c-0.733,1.624-2.069,2.904-4.045,3.525l-1.225-1.874c2.802-0.816,4.045-2.876,4.063-5.065v-1.225h2.394v1.225
					C122.72,28.262,123.908,30.21,126.598,31.008z M130.643,38.263h-8.869v1.039h9.352v1.855h-11.689v-4.62h8.869v-0.965h-8.888
					v-1.818h11.226V38.263z M130.643,33.049h-2.356v-4.193h-3.173v-1.874h3.173v-2.523h2.356V33.049z"/>
				<path fill="#FFFFFF" d="M143.947,40.601h-2.245v-5.566h-2.394v-1.911h2.394v-2.301h-2.078c-0.789,2.783-2.496,5.14-5.659,7.014
					l-1.392-1.67c3.423-2.022,4.926-4.481,5.251-7.793h-4.268v-1.911h6.624c0,0.844-0.056,1.661-0.148,2.449h1.67V24.83h2.245
					V40.601z M147.472,41.343h-2.227V24.458h2.227V41.343z"/>
			</g>
		</g>
	</g>
</g>
<g id="g-root-tx__4gofb81wban7q-fill" transform="translate(380, 182)">
	<g id="tx__4gofb81wban7q-fill">
		<g>
			<g enable-background="new    ">
				<path fill="#FFFFFF" d="M44.294,32.496l-1.392,1.744c-1.503-0.891-2.496-2.403-3.062-4.212
					c-0.584,1.967-1.605,3.637-3.154,4.583l-1.429-1.744c2.486-1.521,3.414-4.564,3.414-7.422v-0.909h-2.765v-1.893h7.607v1.893
					h-2.561v0.909C40.954,28.247,41.826,31.085,44.294,32.496z M46.762,37.023h-2.227v-8.405h-2.227v-1.911h2.227v-5.511h2.227
					V37.023z M50.213,37.802h-2.245V20.917h2.245V37.802z"/>
				<path fill="#FFFFFF" d="M61.624,23.793h-3.358c0.019,1.976,1.188,3.999,3.934,4.88l-1.206,1.837
					c-1.874-0.603-3.164-1.809-3.896-3.321c-0.751,1.651-2.097,2.959-4.063,3.6l-1.262-1.818c2.792-0.9,4.063-3.062,4.101-5.177
					h-3.451v-1.893h9.203V23.793z M65.428,37.802h-2.375v-4.101h-8.999v-1.874h11.374V37.802z M65.428,25.018h2.282v1.967h-2.282
					v4.119h-2.375V20.917h2.375V25.018z"/>
				<path fill="#FFFFFF" d="M81.941,29.044h-8.257v-7.106h8.257V29.044z M87.248,33.182h-4.731c0.26,1.15,2.041,2.477,5.381,2.802
					L87.1,37.765c-2.811-0.26-4.806-1.28-5.826-2.616c-1.048,1.354-3.052,2.347-5.882,2.616l-0.816-1.781
					c3.386-0.269,5.167-1.624,5.418-2.802h-4.731v-1.763h4.806v-1.392h2.375v1.392h4.806V33.182z M76.022,27.189h3.563v-3.414
					h-3.563V27.189z M86.951,30.492h-2.356v-9.574h2.356V30.492z"/>
				<path fill="#FFFFFF" d="M103.817,27.467l-1.243,1.818c-1.809-0.584-3.071-1.716-3.804-3.173
					c-0.733,1.624-2.069,2.904-4.045,3.525l-1.225-1.874c2.802-0.816,4.045-2.876,4.063-5.065v-1.225h2.394v1.225
					C99.939,24.721,101.127,26.669,103.817,27.467z M107.862,34.722h-8.869v1.039h9.352v1.855H96.655v-4.62h8.869v-0.965h-8.888
					v-1.818h11.226V34.722z M107.862,29.508h-2.356v-4.193h-3.173v-1.874h3.173v-2.523h2.356V29.508z"/>
				<path fill="#FFFFFF" d="M120.851,32.57l-1.28,1.818c-1.92-0.789-3.293-2.403-4.063-4.342c-0.751,2.06-2.134,3.785-4.101,4.602
					l-1.262-1.818c2.783-1.206,4.156-4.045,4.156-6.624v-0.649h-3.6v-1.893h3.581v-2.375h2.356v2.375h3.525v1.893h-3.507v0.649
					C116.657,28.655,118.049,31.419,120.851,32.57z M124.172,37.802h-2.375V20.917h2.375V37.802z"/>
			</g>
		</g>
	</g>
</g>
<g id="g-root-tx__1q6yg041wbalfs-fill" transform="translate(542, 206)">
	<g id="tx__1q6yg041wbalfs-fill">
		<g>
			<g enable-background="new    ">
				<path fill="#FFFFFF" d="M21.97,28.62l-1.392,1.893c-1.93-0.872-3.266-2.552-4.026-4.639c-0.771,2.272-2.152,4.11-4.212,5.047
					l-1.429-1.967c2.95-1.243,4.379-4.472,4.397-7.756v-2.523h2.394v2.523C17.702,24.297,19.112,27.414,21.97,28.62z M25.272,34.298
					h-2.394V17.376h2.394V34.298z"/>
				<path fill="#FFFFFF" d="M42.992,27.488h-6.401v2.932h-2.394v-2.932h-6.661v-1.893h15.456V27.488z M41.359,21.198
					c-0.019,2.152-2.449,3.488-6.104,3.488c-3.674,0-6.123-1.336-6.123-3.488c0-2.134,2.449-3.488,6.123-3.507
					C38.91,17.71,41.341,19.064,41.359,21.198z M41.285,33.964H29.373v-5.047h2.394v3.136h9.519V33.964z M31.692,21.198
					c-0.019,1.039,1.373,1.596,3.563,1.596c2.171,0,3.563-0.557,3.563-1.596c0-1.076-1.392-1.633-3.563-1.633
					C33.065,19.565,31.674,20.122,31.692,21.198z"/>
				<path fill="#FFFFFF" d="M54.236,25.614l-1.169,1.874c-1.874-0.604-3.154-1.837-3.896-3.377
					c-0.742,1.707-2.087,3.062-4.082,3.729l-1.206-1.93c2.783-0.872,4.045-3.08,4.063-5.232v-0.26h-3.396v-1.893h9.166v1.893h-3.358
					v0.278C50.358,22.646,51.546,24.742,54.236,25.614z M58.615,33.964H47v-5.325h2.375v3.433h9.24V33.964z M58.207,29.715h-2.356
					v-6.049h-2.765v-1.911h2.765v-4.36h2.356V29.715z"/>
				<path fill="#FFFFFF" d="M64.961,28.991c0-1.577,0.992-2.515,2.468-3.525c-0.724-0.899-1.299-1.884-1.299-3.08
					c0-1.948,1.447-3.451,3.655-3.451c2.152,0,3.47,1.447,3.47,3.154c0,1.28-0.649,2.282-1.781,3.099l-0.779,0.575l2.245,2.579
					c0.344-0.658,0.557-1.447,0.557-2.319h2.282c0,1.827-0.474,3.229-1.206,4.212l2.022,2.319h-2.876l-0.816-0.928
					c-0.992,0.788-2.264,1.132-3.451,1.132C66.668,32.758,64.961,31.106,64.961,28.991z M69.581,30.531
					c0.622,0,1.253-0.195,1.837-0.557l-2.579-2.876l-0.093,0.074c-0.761,0.557-1.113,1.15-1.113,1.67
					C67.633,29.808,68.394,30.531,69.581,30.531z M69.358,24.186l0.705-0.464c0.668-0.427,0.983-0.891,0.983-1.484
					c0-0.52-0.445-1.076-1.243-1.076c-0.779,0-1.317,0.575-1.317,1.262C68.486,22.988,68.839,23.555,69.358,24.186z"/>
				<path fill="#FFFFFF" d="M96.912,29.288H93.35v4.973h-2.394v-4.973h-3.525v4.973h-2.356v-4.973h-3.618v-1.93h15.456V29.288z
					 M95.261,26.171H83.404v-8.108h11.671v1.855h-9.352v1.243h8.999v1.837h-8.999v1.299h9.537V26.171z"/>
				<path fill="#FFFFFF" d="M101.235,24.26c2.319-0.027,4.602-0.213,7.014-0.724l0.278,1.911c-2.802,0.594-5.474,0.779-8.201,0.761
					H98.86v-7.774h2.375V24.26z M112.053,30.847c0,2.134-2.245,3.414-5.808,3.414c-3.581,0-5.845-1.28-5.826-3.414
					c-0.019-2.189,2.245-3.47,5.826-3.47C109.808,27.377,112.053,28.657,112.053,30.847z M102.775,30.847
					c0,1.002,1.225,1.54,3.47,1.54c2.227,0,3.414-0.538,3.433-1.54c-0.019-1.058-1.206-1.559-3.433-1.559
					C104,29.288,102.775,29.789,102.775,30.847z M111.979,27.173h-2.356v-9.797h2.356V27.173z"/>
			</g>
		</g>
	</g>
</g>
<g id="g-root-tx__hs4xok1wbalmr-fill" transform="translate(26, 218)">
	<g id="tx__hs4xok1wbalmr-fill">
		<g>
			<g enable-background="new    ">
				<path fill="#484848" d="M96.989,19.01h-9.333v-1.188h4.008v-2.041h1.447v2.041h3.878V19.01z M96.136,23.073
					c0,1.874-1.559,3.154-3.767,3.154s-3.748-1.28-3.729-3.154c-0.019-1.893,1.521-3.154,3.729-3.154S96.136,21.181,96.136,23.073z
					 M89.994,23.073c0,1.188,0.965,1.985,2.375,1.985s2.375-0.798,2.394-1.985c-0.019-1.188-0.983-1.985-2.394-2.004
					C90.959,21.088,89.994,21.886,89.994,23.073z M101.684,31.924h-11.04v-4.657h1.466v3.433h9.574V31.924z M101.313,28.38h-1.466
					v-3.544h-2.857v-1.188h2.857v-2.245h-2.857v-1.206h2.857V15.8h1.466V28.38z"/>
				<path fill="#484848" d="M113.688,23.797l-0.687,1.15c-1.902-0.621-3.34-1.939-4.045-3.6c-0.714,1.893-2.236,3.367-4.212,4.082
					l-0.742-1.169c2.468-0.835,4.193-2.969,4.212-5.344v-0.705h-3.767v-1.206h8.906v1.206h-3.711v0.705
					C109.644,21.069,111.258,22.999,113.688,23.797z M117.103,29.196c0,1.93-2.041,3.043-5.437,3.043s-5.474-1.113-5.474-3.043
					c0-1.893,2.078-3.006,5.474-3.006S117.103,27.304,117.103,29.196z M107.658,29.196c-0.019,1.188,1.521,1.874,4.008,1.874
					c2.505,0,4.026-0.687,4.026-1.874c0-1.15-1.521-1.837-4.026-1.837C109.18,27.359,107.64,28.046,107.658,29.196z M116.954,19.993
					h2.486v1.225h-2.486v4.527h-1.447v-9.964h1.447V19.993z"/>
				<path fill="#484848" d="M135.305,22.721l-0.724,1.132c-1.93-0.659-3.47-2.041-4.212-3.822c-0.742,1.921-2.292,3.433-4.249,4.138
					l-0.761-1.15c2.486-0.872,4.249-3.062,4.249-5.492v-1.262h1.484v1.262C131.074,19.863,132.855,21.923,135.305,22.721z
					 M138.867,29.122h-9.259v1.781h9.853v1.188H128.18V27.99h9.24v-1.651h-9.277V25.17h10.725V29.122z M138.849,24.335h-1.429
					v-8.554h1.429V24.335z"/>
				<path fill="#484848" d="M156.698,25.3h-15.029v-1.188h15.029V25.3z M149.889,17.451h5.288v1.169h-5.195
					c0.102,1.874,2.709,3.163,5.826,3.433l-0.482,1.15c-2.718-0.297-5.149-1.299-6.142-2.969c-1.002,1.67-3.433,2.672-6.142,2.969
					l-0.482-1.15c3.099-0.27,5.706-1.559,5.826-3.433h-5.158v-1.169h5.232v-1.707h1.429V17.451z M154.843,32.276h-1.466v-4.008
					h-10.038v-1.188h11.504V32.276z"/>
				<path fill="#484848" d="M171.468,23.574h-7.737v-6.717h7.737V23.574z M177.461,31.089l-0.501,1.132
					c-2.486-0.334-4.75-1.503-5.715-3.043c-1.002,1.568-3.321,2.709-5.808,3.043l-0.52-1.132c2.839-0.315,5.566-1.911,5.566-3.563
					h-4.88v-1.132h4.898V24.78h1.447v1.614h4.936v1.132h-4.898C171.987,29.141,174.622,30.736,177.461,31.089z M165.159,22.424h4.88
					v-4.379h-4.88V22.424z M176.459,25.263h-1.429v-9.481h1.429V25.263z"/>
			</g>
			<g enable-background="new    ">
				<path fill="#484848" d="M102.723,45.888h-6.717v3.377h-1.447v-3.377h-6.939v-1.206h15.104V45.888z M101.034,52.382H89.549v-4.75
					h1.466v3.525h10.02V52.382z M100.756,42.789h-11.17v-5.733h11.17V42.789z M91.015,41.62h8.294v-3.414h-8.294V41.62z"/>
				<path fill="#484848" d="M112.464,47.966l-0.891,1.076c-1.624-0.974-2.774-2.755-3.34-4.861c-0.603,2.272-1.8,4.212-3.451,5.251
					l-0.928-1.095c2.301-1.373,3.637-4.379,3.637-7.385v-1.559h-3.173v-1.206h7.607v1.206h-3.024v1.559
					C108.901,43.81,110.182,46.648,112.464,47.966z M114.82,51.881h-1.373v-8.498h-2.783v-1.188h2.783v-5.548h1.373V51.881z
					 M118.16,52.734h-1.392V36.239h1.392V52.734z"/>
				<path fill="#484848" d="M135.416,44.793l-0.742,1.169c-1.92-0.649-3.451-2.004-4.193-3.748c-0.724,1.884-2.273,3.368-4.23,4.082
					l-0.761-1.169c2.468-0.872,4.23-3.006,4.23-5.344v-0.965h-3.859v-1.188h9.129v1.188h-3.804v0.965
					C131.186,42.01,132.948,44.014,135.416,44.793z M139.387,52.382h-11.17v-5.177h1.447v3.952h9.723V52.382z M138.867,48.355
					h-1.447V36.258h1.447V48.355z"/>
				<path fill="#484848" d="M149.796,38.893h-5.9v5.14c3.312,0,5.195-0.083,7.403-0.538l0.186,1.206
					c-2.319,0.445-4.286,0.557-7.756,0.557h-1.28v-7.589h7.348V38.893z M155.325,52.382h-11.077v-5.399h1.429v4.175h9.648V52.382z
					 M154.564,41.156h2.505v1.225h-2.505v5.808h-1.447V36.239h1.447V41.156z"/>
			</g>
		</g>
	</g>
</g>
<g id="g-root-tx__8whxfo1wbamfh-fill" transform="translate(194, 242)">
	<g id="tx__8whxfo1wbamfh-fill">
		<g>
			<g enable-background="new    ">
				<path fill="#484848" d="M70.993,19.68h-6.012v3.859c3.062,0,5.195-0.102,7.7-0.575l0.148,1.206
					c-2.598,0.482-4.806,0.594-7.979,0.612h-1.317v-6.309h6.012v-3.488h-6.049v-1.206h7.496V19.68z M75.613,18.808h2.765v1.225
					h-2.765v8.739h-1.447V12.239h1.447V18.808z"/>
				<path fill="#484848" d="M88.305,17.453c0,2.412-1.855,4.063-4.323,4.063s-4.323-1.651-4.323-4.063
					c0-2.375,1.855-4.045,4.323-4.045S88.305,15.078,88.305,17.453z M81.087,17.453c-0.019,1.651,1.225,2.783,2.895,2.783
					c1.633,0,2.895-1.132,2.895-2.783c0-1.614-1.262-2.765-2.895-2.765C82.312,14.688,81.068,15.839,81.087,17.453z M93.407,28.382
					h-11.17v-5.288h1.447v4.063h9.723V28.382z M92.888,24.318H91.44V12.258h1.447V24.318z"/>
				<path fill="#484848" d="M110.181,19.271l-0.779,1.132c-1.828-0.649-3.284-1.948-4.008-3.618
					c-0.705,1.883-2.199,3.321-4.156,4.026l-0.798-1.169c2.486-0.816,4.193-2.895,4.212-5.307v-1.559h1.429v1.559
					C106.062,16.507,107.769,18.474,110.181,19.271z M114.133,25.543h-9.222v1.8h9.834v1.169h-11.263V24.43h9.203v-1.651h-9.24
					v-1.169h10.688V25.543z M114.133,20.774h-1.466v-4.286h-3.674v-1.206h3.674v-3.043h1.466V20.774z"/>
				<path fill="#484848" d="M127.659,27.899h-1.392v-5.715h-3.062v-1.206h3.062v-2.932h-2.783c-0.807,2.793-2.616,5.26-5.733,7.125
					l-0.891-1.058c3.59-2.124,5.39-5.103,5.678-8.554h-4.936v-1.206h6.383c0,0.845-0.074,1.679-0.223,2.486h2.505v-4.156h1.392
					V27.899z M130.999,28.734h-1.392V12.239h1.392V28.734z"/>
				<path fill="#484848" d="M146.678,20.032h-7.737v-6.717h7.737V20.032z M152.671,27.547l-0.501,1.132
					c-2.486-0.334-4.75-1.503-5.715-3.043c-1.002,1.567-3.321,2.709-5.808,3.043l-0.52-1.132c2.839-0.315,5.566-1.911,5.566-3.563
					h-4.88v-1.132h4.898v-1.614h1.447v1.614h4.936v1.132h-4.898C147.197,25.599,149.832,27.194,152.671,27.547z M140.369,18.882
					h4.88v-4.379h-4.88V18.882z M151.669,21.721h-1.429v-9.481h1.429V21.721z"/>
			</g>
			<g enable-background="new    ">
				<path fill="#484848" d="M72.478,40.715l-0.687,1.15c-1.902-0.621-3.34-1.939-4.045-3.6c-0.714,1.893-2.236,3.367-4.212,4.082
					l-0.742-1.169c2.468-0.835,4.193-2.969,4.212-5.344V35.13h-3.767v-1.206h8.906v1.206h-3.711v0.705
					C68.433,37.987,70.047,39.917,72.478,40.715z M75.892,46.114c0,1.93-2.041,3.043-5.437,3.043s-5.474-1.113-5.474-3.043
					c0-1.893,2.078-3.006,5.474-3.006S75.892,44.222,75.892,46.114z M66.447,46.114c-0.019,1.188,1.521,1.874,4.008,1.874
					c2.505,0,4.026-0.687,4.026-1.874c0-1.15-1.521-1.837-4.026-1.837C67.969,44.277,66.429,44.964,66.447,46.114z M75.743,36.911
					h2.486v1.225h-2.486v4.527h-1.447v-9.964h1.447V36.911z"/>
				<path fill="#484848" d="M81.681,38.47h4.917v-4.36h1.429v11.133h-7.793V34.109h1.447V38.47z M86.598,44.018v-4.379h-4.917v4.379
					H86.598z M92.869,49.231h-1.466V32.699h1.466V49.231z"/>
				<path fill="#484848" d="M110.181,41.16l-0.816,1.132c-1.809-0.724-3.247-2.161-3.952-3.952c-0.705,1.994-2.208,3.581-4.156,4.36
					l-0.779-1.188c2.468-0.909,4.175-3.21,4.193-5.752V33.72h1.429v2.097C106.099,38.117,107.769,40.288,110.181,41.16z
					 M114.504,48.842h-11.04v-5.177h1.466v3.952h9.574V48.842z M114.133,45.075h-1.466V37.82h-3.674v-1.225h3.674v-3.878h1.466
					V45.075z"/>
				<path fill="#484848" d="M126.676,40.752l-0.761,1.169c-1.855-0.668-3.293-2.05-3.989-3.767c-0.724,1.939-2.254,3.488-4.212,4.23
					l-0.761-1.169c2.449-0.891,4.193-3.117,4.193-5.474V35.13h-3.729v-1.225h8.888v1.225h-3.692v0.594
					C122.612,37.876,124.264,39.917,126.676,40.752z M130.609,46.114c0,1.948-2.097,3.062-5.529,3.08
					c-3.433-0.019-5.529-1.132-5.529-3.08s2.097-3.062,5.529-3.062S130.609,44.166,130.609,46.114z M120.998,46.114
					c-0.019,1.188,1.559,1.911,4.082,1.911s4.082-0.724,4.082-1.911c0-1.206-1.559-1.93-4.082-1.93S120.979,44.908,120.998,46.114z
					 M130.554,42.533h-1.466V38.21h-3.321v-1.206h3.321v-4.305h1.466V42.533z"/>
			</g>
		</g>
	</g>
</g>
<g id="g-root-tx__1lr4xvo1wbam82-fill" transform="translate(716, 230)">
	<g id="tx__1lr4xvo1wbam82-fill">
		<g>
			<g enable-background="new    ">
				<path fill="#FFFFFF" d="M-1.395,25.041l-1.429,1.893c-1.81-0.891-3.024-2.561-3.729-4.602c-0.732,2.189-2.041,3.98-3.952,4.917
					l-1.466-1.911c2.857-1.317,4.212-4.546,4.212-7.682v-2.523h2.375v2.523C-5.402,20.681-4.104,23.742-1.395,25.041z M1.723,20.347
					h2.486v2.004H1.723v8.368h-2.375V13.834h2.375V20.347z"/>
				<path fill="#FFFFFF" d="M20.222,23.724h-15.4v-1.893h3.47v-2.022c-1.234-0.547-1.93-1.383-1.93-2.468
					c0-2.041,2.394-3.266,6.16-3.266c3.729,0,6.123,1.225,6.142,3.266c-0.009,1.095-0.733,1.948-1.985,2.486v2.004h3.544V23.724z
					 M18.385,27.639c-0.019,1.985-2.227,3.062-5.882,3.062c-3.711,0-5.919-1.076-5.919-3.062c0-1.948,2.208-3.024,5.919-3.024
					C16.158,24.614,18.366,25.69,18.385,27.639z M8.829,17.341c-0.019,0.928,1.299,1.392,3.692,1.392
					c2.356,0,3.692-0.464,3.692-1.392c0-0.946-1.336-1.447-3.692-1.447C10.128,15.894,8.811,16.395,8.829,17.341z M8.996,27.639
					c-0.019,0.872,1.169,1.299,3.507,1.299c2.282,0,3.488-0.427,3.507-1.299c-0.019-0.835-1.225-1.243-3.507-1.243
					C10.165,26.396,8.978,26.804,8.996,27.639z M14.321,21.831v-1.41c-0.557,0.065-1.159,0.093-1.8,0.093
					c-0.658,0-1.271-0.027-1.837-0.111v1.429H14.321z"/>
				<path fill="#FFFFFF" d="M31.614,25.264l-1.317,1.855c-1.883-0.863-3.229-2.588-3.971-4.62c-0.761,2.235-2.143,4.128-4.101,5.047
					l-1.373-1.874c2.82-1.317,4.23-4.453,4.249-7.236v-1.039h-3.581v-1.93h9.352v1.93h-3.396v1.039
					C27.458,21.015,28.831,23.983,31.614,25.264z M34.564,20.272h2.486v1.985h-2.486v8.461h-2.375V13.834h2.375V20.272z"/>
				<path fill="#FFFFFF" d="M57.442,28.659h-15.4v-1.93h3.284v-5.307h2.356v5.307h1.855v-5.307h2.338v5.307h5.566V28.659z
					 M56.051,16.951c-0.019,2.06-0.019,4.379-0.631,7.774l-2.319-0.204c0.557-3.09,0.575-5.391,0.575-7.348H43.563V15.3h12.487
					V16.951z"/>
				<path fill="#FFFFFF" d="M73.863,23.594h-3.711v1.577h1.837v5.548h-2.356v-3.692H60.17v-1.855h1.93v-1.577h-3.637V21.72h15.4
					V23.594z M72.305,17.489c-0.019,2.06-2.431,3.34-6.142,3.34c-3.729,0-6.16-1.28-6.16-3.34s2.431-3.34,6.16-3.321
					C69.874,14.149,72.286,15.43,72.305,17.489z M62.471,17.489c-0.019,1.002,1.336,1.503,3.692,1.503
					c2.338,0,3.692-0.501,3.692-1.503c0-0.965-1.354-1.484-3.692-1.484C63.807,16.005,62.452,16.524,62.471,17.489z M67.814,25.171
					v-1.577h-3.321v1.577H67.814z"/>
			</g>
		</g>
	</g>
</g>
<g id="g-root-tx__18gawlg1wbakn8-fill" transform="translate(878, 254)">
	<g id="tx__18gawlg1wbakn8-fill">
		<g>
			<g enable-background="new    ">
				<path fill="#FFFFFF" d="M-22.795,21.593h-3.618v5.585h-2.412v-5.585h-3.451v5.585h-2.431v-5.585h-3.544v-1.911h15.456V21.593z
					 M-24.409,14.672c0,2.282-2.542,3.711-6.16,3.711s-6.142-1.429-6.123-3.711c-0.019-2.319,2.505-3.822,6.123-3.822
					S-24.409,12.353-24.409,14.672z M-34.262,14.672c-0.019,1.188,1.429,1.855,3.692,1.855c2.282,0,3.711-0.668,3.711-1.855
					c0-1.243-1.429-1.93-3.711-1.93C-32.833,12.742-34.28,13.429-34.262,14.672z"/>
				<path fill="#FFFFFF" d="M-11.031,21.723l-1.28,1.855c-1.995-0.844-3.368-2.523-4.119-4.583c-0.771,2.235-2.171,4.091-4.156,5.01
					l-1.354-1.874c2.802-1.243,4.249-4.379,4.249-7.236v-1.039h-3.581v-1.93h9.537v1.93h-3.525v1.039
					C-15.262,17.622-13.87,20.535-11.031,21.723z M-7.673,27.178h-2.394V10.293h2.394V27.178z"/>
				<path fill="#FFFFFF" d="M10.065,25.211H-5.391v-1.93h6.513v-3.117h-4.88v-8.795h2.375v2.616h7.366v-2.616H8.34v8.795H3.479
					v3.117h6.587V25.211z M5.983,18.271v-2.394h-7.366v2.394H5.983z"/>
				<path fill="#FFFFFF" d="M26.431,21.407h-6.568v5.771h-2.338v-5.771H11.03v-1.93h15.4V21.407z M25.893,16.286l-0.928,1.911
					c-2.95-0.427-5.111-1.791-6.216-3.618c-1.113,1.827-3.257,3.191-6.179,3.618l-0.946-1.911c3.841-0.482,5.882-2.69,5.882-4.676
					v-0.816h2.486v0.816C19.992,13.596,22.015,15.804,25.893,16.286z"/>
				<path fill="#FFFFFF" d="M42.61,21.723l-1.28,1.855c-1.994-0.844-3.367-2.523-4.119-4.583c-0.77,2.235-2.171,4.091-4.156,5.01
					L31.7,22.131c2.802-1.243,4.249-4.379,4.249-7.236v-1.039h-3.581v-1.93h9.537v1.93H38.38v1.039
					C38.38,17.622,39.771,20.535,42.61,21.723z M45.969,27.178h-2.394V10.293h2.394V27.178z"/>
				<path fill="#FFFFFF" d="M62.928,26.881h-12.58v-5.047h2.356v-2.245c-1.513,0.065-2.95,0.074-4.23,0.074l-0.278-1.874
					c3.099-0.019,7.273-0.056,10.836-0.501l0.13,1.688c-1.336,0.223-2.718,0.381-4.082,0.482v3.21h-2.375v2.319h10.224V26.881z
					 M57.899,13.911c0,1.8-1.763,2.969-4.212,2.969c-2.505,0-4.249-1.169-4.249-2.969s1.726-3.043,4.249-3.024
					C56.137,10.868,57.899,12.111,57.899,13.911z M51.684,13.911c-0.019,0.816,0.798,1.262,2.004,1.262
					c1.132,0,1.948-0.445,1.967-1.262c-0.019-0.835-0.835-1.299-1.967-1.299C52.481,12.612,51.665,13.076,51.684,13.911z
					 M62.557,23.059h-2.375v-1.336h-3.229v-1.614h3.229v-9.797h2.375V23.059z"/>
			</g>
		</g>
	</g>
</g>
<g id="g-root-tx__1q6yg041wbalft-fill" transform="translate(530, 290)">
	<g id="tx__1q6yg041wbalft-fill">
		<g>
			<g enable-background="new    ">
				<path fill="#484848" d="M23.065,13.21l-0.761,1.169c-1.855-0.668-3.293-2.051-3.989-3.767c-0.724,1.938-2.254,3.488-4.212,4.23
					l-0.761-1.169c2.449-0.891,4.193-3.117,4.193-5.474V7.588h-3.729V6.363h8.888v1.225h-3.692v0.594
					C19.002,10.334,20.653,12.375,23.065,13.21z M26.999,18.572c0,1.948-2.097,3.062-5.529,3.08
					c-3.433-0.019-5.529-1.132-5.529-3.08s2.097-3.062,5.529-3.062S26.999,16.624,26.999,18.572z M17.388,18.572
					c-0.019,1.188,1.559,1.911,4.082,1.911s4.082-0.724,4.082-1.911c0-1.206-1.559-1.93-4.082-1.93S17.369,17.366,17.388,18.572z
					 M26.943,14.991h-1.466v-4.323h-3.321V9.462h3.321V5.157h1.466V14.991z"/>
				<path fill="#484848" d="M38.299,12.802h-7.737V6.085h7.737V12.802z M31.99,11.651h4.88V7.272h-4.88V11.651z M43.29,18.424h-9.24
					v1.855h9.834v1.188H32.603v-4.119h9.259v-1.688h-9.277V14.49H43.29V18.424z M43.29,13.674h-1.429V5.157h1.429V13.674z"/>
				<path fill="#484848" d="M57.67,8.349h-4.75v3.266h3.989v1.169H52.92v3.711c2.365-0.027,3.813-0.111,5.604-0.445l0.13,1.188
					c-1.911,0.39-3.47,0.427-6.086,0.445h-1.039V7.18h6.142V8.349z M61.622,20.799H60.23v-8.164H57.8v-1.206h2.431V5.565h1.392
					V20.799z M64.999,21.652h-1.41V5.157h1.41V21.652z"/>
				<path fill="#484848" d="M82.403,19.407H67.3v-1.206h15.104V19.407z M81.624,13.47l-0.668,1.225
					c-2.486-0.575-5.112-2.347-6.179-4.787c-1.066,2.431-3.684,4.202-6.179,4.787l-0.668-1.225c2.857-0.557,6.067-3.043,6.067-5.882
					V6.326h1.521v1.262C75.52,10.408,78.748,12.932,81.624,13.47z"/>
				<path fill="#484848" d="M98.824,19.5H83.721v-1.206h15.104V19.5z M97.08,15.27H85.669V6.586h11.226v1.225h-9.741v2.449h9.389
					v1.169h-9.389v2.653h9.927V15.27z"/>
			</g>
			<g enable-background="new    ">
				<path fill="#484848" d="M21.878,33.409h-7.737v-6.717h7.737V33.409z M27.871,40.924l-0.501,1.132
					c-2.486-0.334-4.75-1.503-5.715-3.043c-1.002,1.567-3.321,2.709-5.808,3.043l-0.52-1.132c2.839-0.315,5.566-1.911,5.566-3.563
					h-4.88v-1.132h4.898v-1.614h1.447v1.614h4.936v1.132h-4.898C22.397,38.976,25.032,40.571,27.871,40.924z M15.569,32.259h4.88
					V27.88h-4.88V32.259z M26.869,35.098H25.44v-9.481h1.429V35.098z"/>
				<path fill="#484848" d="M40.711,37.343c1.586-0.065,3.21-0.204,4.731-0.427l0.111,1.076c-3.767,0.687-7.83,0.705-10.799,0.705
					l-0.204-1.206c1.383-0.009,3.016-0.019,4.731-0.074v-3.099h1.429V37.343z M44.589,28.993h-3.878
					c0.037,2.134,1.809,3.868,4.249,4.564l-0.687,1.15c-1.985-0.594-3.535-1.864-4.268-3.544c-0.724,1.771-2.264,3.09-4.249,3.692
					l-0.705-1.113c2.44-0.714,4.156-2.523,4.193-4.75H35.46v-1.206h3.822v-2.041h1.429v2.041h3.878V28.993z M47.984,42.148h-1.447
					V25.616h1.447V42.148z"/>
				<path fill="#484848" d="M60.676,33.688l-0.761,1.15c-1.864-0.668-3.303-2.051-4.008-3.748c-0.714,1.902-2.235,3.424-4.193,4.138
					l-0.761-1.15c2.431-0.872,4.193-3.08,4.193-5.399v-0.724h-3.729v-1.188h8.888v1.188h-3.692v0.705
					C56.612,30.812,58.264,32.853,60.676,33.688z M64.554,42.111h-1.466v-4.527h-9.63v-1.206h11.096V42.111z M64.554,35.506h-1.466
					v-4.342h-3.303v-1.225h3.303v-4.323h1.466V35.506z"/>
				<path fill="#484848" d="M71.642,37.658v-1.837c-1.921-0.214-3.173-1.336-3.154-2.969c-0.019-1.855,1.559-3.062,3.896-3.062
					c2.301,0,3.896,1.206,3.915,3.062c-0.019,1.633-1.289,2.755-3.191,2.987v1.763c1.54-0.074,3.09-0.194,4.527-0.408l0.093,1.113
					c-3.6,0.612-7.496,0.649-10.391,0.649l-0.241-1.243C68.441,37.714,70.009,37.714,71.642,37.658z M77.338,28.826h-9.945v-1.188
					h4.249v-1.985h1.466v1.985h4.23V28.826z M69.842,32.853c0,1.15,1.021,1.893,2.542,1.874c1.503,0.019,2.523-0.724,2.523-1.874
					s-1.021-1.93-2.523-1.93C70.862,30.923,69.842,31.702,69.842,32.853z M80.103,32.648h2.635v1.225h-2.635v8.238h-1.466V25.616
					h1.466V32.648z"/>
			</g>
		</g>
	</g>
</g>
<g id="g-root-tx__1cvhxms1wban0r-fill" transform="translate(698, 314)">
	<g id="tx__1cvhxms1wban0r-fill">
		<g>
			<g enable-background="new    ">
				<path fill="#484848" d="M-1.873,9.725l-0.742,1.132c-1.883-0.668-3.321-2.022-4.026-3.729c-0.705,1.874-2.218,3.33-4.156,4.045
					l-0.779-1.132c2.468-0.872,4.193-3.006,4.212-5.362V3.973h-3.767V2.785h8.906v1.188h-3.711v0.705
					C-5.937,6.867-4.322,8.871-1.873,9.725z M1.374,18.111h-1.447v-4.49h-9.352v-1.188H1.374V18.111z M1.374,5.977H3.86V7.22H1.374
					v4.342h-1.447V1.616h1.447V5.977z"/>
				<path fill="#484848" d="M13.657,5.568h3.451V1.616h1.466v8.851h-1.466V6.774h-3.433c-0.297,1.948-1.994,3.247-4.23,3.247
					c-2.505,0-4.286-1.559-4.286-3.822c0-2.245,1.781-3.822,4.286-3.804C11.662,2.377,13.342,3.666,13.657,5.568z M6.551,6.199
					c0,1.503,1.206,2.598,2.895,2.598c1.67,0,2.857-1.095,2.857-2.598c0-1.521-1.188-2.579-2.857-2.561
					C7.757,3.62,6.551,4.678,6.551,6.199z M9.408,13.398h7.7v-2.097h1.466v6.587H7.942v-6.587h1.466V13.398z M17.108,16.701v-2.134
					h-7.7v2.134H17.108z"/>
				<path fill="#484848" d="M31.191,13.38l-0.835,1.15c-1.855-0.899-3.423-2.866-4.156-5.103c-0.761,2.431-2.421,4.564-4.268,5.511
					l-0.891-1.15c2.375-1.15,4.416-4.286,4.435-7.106V4.529h-3.841V3.323h8.98v1.206h-3.711v2.152
					C26.887,9.335,28.798,12.248,31.191,13.38z M34.086,8.296h2.765v1.243h-2.765v8.572h-1.447V1.616h1.447V8.296z"/>
				<path fill="#484848" d="M51.119,9.409h-7.737V2.692h7.737V9.409z M57.112,16.924l-0.501,1.132
					c-2.486-0.334-4.75-1.503-5.715-3.043c-1.002,1.567-3.321,2.709-5.808,3.043l-0.52-1.132c2.839-0.315,5.566-1.911,5.566-3.563
					h-4.88v-1.132h4.898v-1.614h1.447v1.614h4.936v1.132h-4.898C51.639,14.976,54.273,16.571,57.112,16.924z M44.811,8.259h4.88
					V3.88h-4.88V8.259z M56.11,11.098h-1.429V1.616h1.429V11.098z"/>
			</g>
			<g enable-background="new    ">
				<path fill="#484848" d="M-6.623,30.554c1.828-0.074,3.721-0.204,5.437-0.445l0.093,1.076c-3.451,0.594-7.44,0.668-10.372,0.668
					l-0.148-1.206c1.067-0.01,2.272-0.019,3.544-0.056V27.01h1.447V30.554z M-2.374,24.227c-0.019,1.076-0.019,2.728-0.427,4.88
					l-1.466-0.111c0.399-1.976,0.437-3.377,0.464-4.416h-6.791v-1.225h8.22V24.227z M1.949,38.217H-9.072v-4.843h1.466v3.618h9.556
					V38.217z M1.411,27.455h2.412v1.243H1.411v5.789h-1.484V22.074h1.484V27.455z"/>
				<path fill="#484848" d="M13.509,29.478h-6.16v3.896c2.737,0,5.177-0.12,8.127-0.594l0.148,1.225
					c-3.043,0.482-5.548,0.594-8.387,0.594H5.864V28.29h6.179v-3.47H5.827v-1.206h7.682V29.478z M18.519,38.606h-1.447V22.074h1.447
					V38.606z"/>
				<path fill="#484848" d="M31.191,33.838l-0.835,1.15c-1.855-0.9-3.423-2.867-4.156-5.103c-0.761,2.431-2.421,4.564-4.268,5.511
					l-0.891-1.15c2.375-1.15,4.416-4.286,4.435-7.106v-2.152h-3.841v-1.206h8.98v1.206h-3.711v2.152
					C26.887,29.793,28.798,32.706,31.191,33.838z M34.086,28.754h2.765v1.243h-2.765v8.572h-1.447V22.074h1.447V28.754z"/>
				<path fill="#484848" d="M57.539,36.231H42.51v-1.206h3.729v-5.437h1.447v5.437h2.672v-5.437h1.429v5.437h5.752V36.231z
					 M55.758,25.581c0,2.115,0,4.249-0.594,7.311l-1.429-0.167c0.594-2.913,0.594-5.084,0.594-7.144V24.95H44.087v-1.206h11.671
					V25.581z"/>
				<path fill="#484848" d="M73.96,31.222h-4.008v2.097h2.152v5.251h-1.466v-4.082H60.601v-1.169h2.319v-2.097h-3.989v-1.188H73.96
					V31.222z M72.271,25.618c0,1.985-2.245,3.173-5.826,3.154c-3.581,0.019-5.845-1.169-5.845-3.154
					c0-1.967,2.264-3.154,5.845-3.136C70.026,22.464,72.271,23.651,72.271,25.618z M62.104,25.618
					c-0.019,1.262,1.67,2.022,4.342,2.022c2.635,0,4.342-0.761,4.342-2.022c0-1.225-1.707-1.985-4.342-1.967
					C63.773,23.633,62.085,24.394,62.104,25.618z M68.523,33.318v-2.097h-4.138v2.097H68.523z"/>
			</g>
		</g>
	</g>
</g>
<g id="g-root-tx__zknwck1wbalfx-fill" transform="translate(866, 338)">
	<g id="tx__zknwck1wbalfx-fill">
		<g>
			<g enable-background="new    ">
				<path fill="#484848" d="M-25.661,5.255l0.093,1.058c-1.475,0.232-3.016,0.381-4.527,0.464v3.266h-1.466V6.851
					c-1.67,0.074-3.257,0.083-4.639,0.074l-0.204-1.188C-33.324,5.719-29.205,5.7-25.661,5.255z M-26.904,1.637
					c-0.019,1.763-1.67,2.857-4.082,2.857c-2.431,0-4.082-1.095-4.082-2.857c0-1.726,1.651-2.876,4.082-2.876
					C-28.574-1.239-26.923-0.089-26.904,1.637z M-22.303,14.217h-11.727V9.393h1.466v3.6h10.261V14.217z M-33.677,1.637
					c-0.019,1.076,1.076,1.781,2.69,1.781c1.559,0,2.672-0.705,2.69-1.781c-0.019-1.058-1.132-1.781-2.69-1.763
					C-32.601-0.145-33.695,0.579-33.677,1.637z M-22.711,10.617h-1.466V8.91h-3.414V7.853h3.414v-9.76h1.466V10.617z"/>
				<path fill="#484848" d="M-11.393,1.043h3.711v-2.95h1.466v9.834h-1.466V5.737h-4.379V4.531h4.379V2.249h-4.101
					c-1.122,2.598-3.702,4.472-7.273,5.455l-0.575-1.169c4.026-1.113,6.578-3.33,6.884-6.142h-6.049v-1.188h7.607
					C-11.188-0.154-11.263,0.459-11.393,1.043z M-6.216,14.551h-1.466V9.819h-9.63V8.65h11.096V14.551z"/>
				<path fill="#484848" d="M11.671,9.838l-0.816,1.15c-1.93-0.881-3.6-2.783-4.36-5.065c-0.779,2.421-2.439,4.527-4.323,5.474
					l-0.872-1.15C3.655,9.114,5.715,5.997,5.733,3.14V0.987H1.837v-1.206h9.296v1.206H7.199V3.14
					C7.199,5.941,9.24,8.78,11.671,9.838z M14.899,14.569h-1.466V-1.926h1.466V14.569z"/>
				<path fill="#484848" d="M28.37,5.255l0.093,1.058c-1.475,0.232-3.016,0.381-4.527,0.464v3.266H22.47V6.851
					c-1.67,0.074-3.257,0.083-4.639,0.074l-0.204-1.188C20.707,5.719,24.826,5.7,28.37,5.255z M27.127,1.637
					c-0.019,1.763-1.67,2.857-4.082,2.857c-2.431,0-4.082-1.095-4.082-2.857c0-1.726,1.651-2.876,4.082-2.876
					C25.457-1.239,27.108-0.089,27.127,1.637z M31.729,14.217H20.002V9.393h1.466v3.6h10.261V14.217z M20.354,1.637
					c-0.019,1.076,1.076,1.781,2.69,1.781c1.559,0,2.672-0.705,2.69-1.781c-0.019-1.058-1.132-1.781-2.69-1.763
					C21.431-0.145,20.336,0.579,20.354,1.637z M31.32,10.617h-1.466V8.91H26.44V7.853h3.414v-9.76h1.466V10.617z"/>
				<path fill="#484848" d="M43.437,8.558h-3.581V7.055h3.581V3.474h1.503v3.581h3.6v1.503h-3.6v3.6h-1.503V8.558z"/>
			</g>
			<g enable-background="new    ">
				<path fill="#484848" d="M-26.515,26.585l-0.761,1.169c-1.855-0.668-3.293-2.051-3.989-3.767
					c-0.724,1.938-2.255,3.488-4.212,4.23l-0.761-1.169c2.449-0.891,4.193-3.117,4.193-5.474v-0.612h-3.729v-1.225h8.888v1.225
					h-3.692v0.594C-30.578,23.709-28.927,25.75-26.515,26.585z M-22.581,31.947c0,1.948-2.097,3.062-5.529,3.08
					c-3.433-0.019-5.529-1.132-5.529-3.08s2.097-3.062,5.529-3.062S-22.581,29.999-22.581,31.947z M-32.192,31.947
					c-0.019,1.188,1.559,1.911,4.082,1.911s4.082-0.724,4.082-1.911c0-1.206-1.559-1.93-4.082-1.93S-32.211,30.741-32.192,31.947z
					 M-22.637,28.366h-1.466v-4.323h-3.321v-1.206h3.321v-4.305h1.466V28.366z"/>
				<path fill="#484848" d="M-18.889,31.929l-0.798-1.188c4.462-2.115,6.735-5.278,7.069-9.222h-6.309v-1.188h7.793
					C-11.151,25.082-13.359,29.275-18.889,31.929z M-6.253,35.027h-1.466V18.532h1.466V35.027z"/>
				<path fill="#484848" d="M11.096,26.511l-0.761,1.15c-1.864-0.668-3.303-2.06-4.008-3.767c-0.714,1.902-2.235,3.424-4.193,4.138
					l-0.761-1.15c2.431-0.872,4.193-3.062,4.193-5.418v-0.649H1.837v-1.206h8.888v1.206H7.032v0.649
					C7.032,23.598,8.684,25.657,11.096,26.511z M14.974,34.805H4.193v-5.789h10.78V34.805z M5.641,33.617h7.904v-3.433H5.641V33.617
					z M14.974,28.199h-1.466v-4.305h-3.34V22.67h3.34v-4.138h1.466V28.199z"/>
				<path fill="#484848" d="M18.518,28.069l-0.612-1.15c3.942-1.113,6.457-3.303,6.772-6.104h-5.919v-1.206h7.478
					C26.218,23.746,23.268,26.715,18.518,28.069z M31.395,34.805H20.688v-6.142h10.706V34.805z M22.099,33.617h7.849v-3.785h-7.849
					V33.617z M31.395,27.958h-1.466v-3.934h-3.655V22.8h3.655v-4.249h1.466V27.958z"/>
				<path fill="#484848" d="M49.689,34.192h-1.392v-5.715h-3.062v-1.206h3.062V24.34h-2.783c-0.808,2.793-2.616,5.26-5.733,7.125
					l-0.891-1.058c3.59-2.124,5.391-5.103,5.678-8.554h-4.936v-1.206h6.383c0,0.845-0.074,1.679-0.223,2.486h2.505v-4.156h1.392
					V34.192z M53.029,35.027h-1.392V18.532h1.392V35.027z"/>
				<path fill="#484848" d="M64.311,23.412c-0.019,2.319-1.837,3.915-4.342,3.915s-4.342-1.596-4.323-3.915
					c-0.019-2.282,1.818-3.896,4.323-3.878C62.474,19.516,64.292,21.13,64.311,23.412z M57.074,23.412
					c-0.019,1.577,1.225,2.672,2.895,2.653c1.688,0.019,2.913-1.076,2.913-2.653c0-1.559-1.225-2.635-2.913-2.635
					C58.299,20.777,57.056,21.854,57.074,23.412z M68.226,35.027h-1.447v-4.713h-9.352v-1.206h10.799V35.027z M70.675,22.28h-2.449
					V24.6h2.449v1.243h-2.449v2.505h-1.447v-9.815h1.447v2.561h2.449V22.28z"/>
			</g>
		</g>
	</g>
</g>
<g id="g-root-sy_1_cu_958kn81wb95or-stroke" transform="translate(14, 98)">
	<g id="sy_1_cu_958kn81wb95or-stroke">
		<g>
			<path fill="none" stroke="#FFFFFF" d="M87.036,110.947V29.113h184.127l-40.917,20.458v61.376H87.036z"/>
		</g>
	</g>
</g>
<g id="g-root-sy_2_cu_1uuw4901wb972k-stroke" transform="translate(182.00009155273438, 98)">
	<g id="sy_2_cu_1uuw4901wb972k-stroke">
		<g>
			<path fill="none" stroke="#FFFFFF" d="M62.246,131.406V49.571h184.127L205.456,70.03v61.376H62.246z M103.163,29.113v20.458
				H62.246L103.163,29.113z"/>
		</g>
	</g>
</g>
<g id="g-root-sy_3_cu_1uuw4901wb972l-stroke" transform="translate(350.0000915527344, 122)">
	<g id="sy_3_cu_1uuw4901wb972l-stroke">
		<g>
			<path fill="none" stroke="#FFFFFF" d="M37.456,127.865V46.03h184.127l-40.917,20.458v61.376H37.456z M78.373,25.571V46.03H37.456
				L78.373,25.571z"/>
		</g>
	</g>
</g>
<g id="g-root-sy_4_cu_1qf2m4k1wb97uu-stroke" transform="translate(518.0001220703125, 146)">
	<g id="sy_4_cu_1qf2m4k1wb97uu-stroke">
		<g>
			<path fill="none" stroke="#FFFFFF" d="M12.666,42.489v81.834h143.21V62.947l40.917-20.458H12.666z M53.583,22.03v20.458H12.666
				L53.583,22.03z"/>
		</g>
	</g>
</g>
<g id="g-root-sy_5_cu_1hjflvo1wb98nj-stroke" transform="translate(686, 170)">
	<g id="sy_5_cu_1hjflvo1wb98nj-stroke">
		<g>
			<path fill="none" stroke="#FFFFFF" d="M-12.123,120.782V38.947h184.127l-40.918,20.459v61.376H-12.123z M28.794,18.489v20.458
				h-40.917L28.794,18.489z"/>
		</g>
	</g>
</g>
<g id="g-root-sy_6_cu_1lz94041wb98n4-stroke" transform="translate(854, 194)">
	<g id="sy_6_cu_1lz94041wb98n4-stroke">
		<g>
			<path fill="none" stroke="#FFFFFF" d="M-36.914,117.241V35.406H96.068V25.177l40.916,51.146l-40.916,51.999v-11.081H-36.914z
				 M4.004,14.947v20.459h-40.918L4.004,14.947z"/>
		</g>
	</g>
</g>
<g id="g-root-tx__1cu8zgk1wbakuh-stroke" transform="translate(380, 26)">
</g>
<g id="g-root-tx__m7yft01wbakui-stroke" transform="translate(56, 134)">
</g>
<g id="g-root-tx__8whxfo1wbamfg-stroke" transform="translate(212, 158)">
</g>
<g id="g-root-tx__4gofb81wban7q-stroke" transform="translate(380, 182)">
</g>
<g id="g-root-tx__1q6yg041wbalfs-stroke" transform="translate(542, 206)">
</g>
<g id="g-root-tx__hs4xok1wbalmr-stroke" transform="translate(26, 218)">
</g>
<g id="g-root-tx__8whxfo1wbamfh-stroke" transform="translate(194, 242)">
</g>
<g id="g-root-tx__1lr4xvo1wbam82-stroke" transform="translate(716, 230)">
</g>
<g id="g-root-tx__1umry4k1wbaknj-stroke" transform="translate(362, 266)">
</g>
<g id="g-root-tx__18gawlg1wbakn8-stroke" transform="translate(878, 254)">
</g>
<g id="g-root-tx__1q6yg041wbalft-stroke" transform="translate(530, 290)">
</g>
<g id="g-root-tx__1cvhxms1wban0r-stroke" transform="translate(698, 314)">
</g>
<g id="g-root-tx__zknwck1wbalfx-stroke" transform="translate(866, 338)">
</g>
<g id="g-root-tx__1cu8zgk1wbakuh-fill_1_" transform="translate(380, 26)">
	<g id="tx__1cu8zgk1wbakuh-fill_1_">
		<g>
			<g enable-background="new    ">
				<path fill="#484848" d="M-192.101,87.551h-3.244V75.068h-0.086l-3.566,2.234v-2.857l3.846-2.449h3.051V87.551z"/>
			</g>
		</g>
	</g>
</g>
<g enable-background="new    ">
	<path fill="#484848" d="M338.024,129.621l5.586-5.135c1.461-1.396,2.234-2.256,2.234-3.48c0-1.375-1.053-2.234-2.471-2.234
		c-1.461,0-2.406,0.924-2.406,2.406h-3.072c-0.021-3.051,2.234-4.984,5.521-4.984c3.33,0,5.543,1.891,5.543,4.598
		c0,1.762-0.859,3.223-4.061,6.123l-2.363,2.299v0.086h6.639v2.664h-11.129L338.024,129.621z"/>
</g>
<g enable-background="new    ">
	<path fill="#484848" d="M491.313,145.994h3.266c0.064,1.16,1.182,1.934,2.686,1.934c1.547,0,2.664-0.881,2.643-2.127
		c0.021-1.268-1.117-2.17-2.943-2.17h-1.439v-2.385h1.439c1.525,0,2.6-0.838,2.6-2.063c0-1.182-0.902-1.998-2.277-1.998
		s-2.514,0.773-2.557,1.955h-3.094c0.043-2.686,2.471-4.533,5.65-4.533c3.244,0,5.414,1.912,5.393,4.383
		c0.021,1.74-1.203,2.986-2.943,3.287v0.129c2.277,0.279,3.545,1.676,3.523,3.609c0.021,2.664-2.514,4.576-6.016,4.576
		C493.827,150.591,491.378,148.701,491.313,145.994z"/>
</g>
<g enable-background="new    ">
	<path fill="#484848" d="M633.585,163.482l6.574-10.248h4.061v10.205h1.977v2.6h-1.977v2.75h-3.072v-2.75h-7.563V163.482z
		 M641.19,163.439v-6.66h-0.15l-4.189,6.531v0.129H641.19z"/>
</g>
<g enable-background="new    ">
	<path fill="#484848" d="M786.473,182.82h3.137c0.064,1.225,1.182,2.041,2.535,2.041c1.611,0,2.75-1.139,2.75-2.75
		c0-1.654-1.16-2.793-2.793-2.814c-1.16,0-1.977,0.43-2.449,1.311h-2.922l0.838-8.959h9.582v2.643h-6.918l-0.43,3.932h0.129
		c0.58-0.773,1.74-1.311,3.115-1.311c2.857,0,4.984,2.127,4.984,5.113c0,3.137-2.385,5.393-5.887,5.393
		C788.9,187.417,786.537,185.505,786.473,182.82z"/>
</g>
<g enable-background="new    ">
	<path fill="#484848" d="M908.924,198.203c0-5.242,2.514-8.357,6.402-8.357c3.137,0,5.264,1.977,5.586,4.533h-3.18
		c-0.258-1.096-1.16-1.762-2.406-1.762c-2.105,0-3.223,1.912-3.244,4.963h0.15c0.709-1.375,2.256-2.191,3.975-2.191
		c2.793,0,4.877,2.105,4.877,5.027c0,3.158-2.385,5.436-5.887,5.414C911.975,205.808,908.924,203.896,908.924,198.203z
		 M917.947,200.501c0-1.547-1.139-2.771-2.729-2.771s-2.793,1.246-2.814,2.771c0.021,1.525,1.182,2.771,2.771,2.771
		S917.947,202.07,917.947,200.501z"/>
</g>
</svg>
