<?xml version="1.0" encoding="UTF-8"?>
<svg id="Layer_1" xmlns="http://www.w3.org/2000/svg" version="1.1" xmlns:xlink="http://www.w3.org/1999/xlink" viewBox="0 0 891.1 276.6">
  <!-- Generator: Adobe Illustrator 29.3.1, SVG Export Plug-In . SVG Version: 2.1.0 Build 151)  -->
  <defs>
    <style>
      .st0 {
        fill: #95bdff;
      }

      .st1 {
        fill: #fff;
      }

      .st2 {
        fill: #5b99ff;
      }

      .st3 {
        isolation: isolate;
      }

      .st4 {
        fill: #40587e;
      }

      .st5 {
        fill: none;
        stroke: #fff;
      }

      .st6 {
        fill: #4371bd;
      }

      .st7 {
        fill: #484848;
      }

      .st8 {
        fill: #4f84da;
      }

      .st9 {
        fill: #4e8bef;
      }
    </style>
  </defs>
  <g id="g-root-tx__1umry4k1wbaknj-fill">
    <g id="tx__1umry4k1wbaknj-fill">
      <g>
        <g class="st3">
          <path class="st7" d="M309.2,184.4l-.8,1.1c-1.8-.6-3.3-1.9-4-3.6-.7,1.9-2.2,3.3-4.2,4l-.8-1.2c2.5-.8,4.2-2.9,4.2-5.3v-1.6h1.4v1.6c0,2.2,1.7,4.1,4.1,4.9h0ZM313.2,190.7h-9.2v1.8h9.8v1.2h-11.3v-4.1h9.2v-1.7h-9.2v-1.2h10.7v3.9h0ZM313.2,185.9h-1.5v-4.3h-3.7v-1.2h3.7v-3h1.5v8.5Z"/>
          <path class="st7" d="M318.4,183.2h4.9v-4.4h1.4v11.1h-7.8v-11.1h1.4v4.4h.1ZM323.3,188.7v-4.4h-4.9v4.4h4.9ZM329.5,193.9h-1.5v-16.5h1.5v16.5Z"/>
          <path class="st7" d="M345.5,189.1l-.9,1.1c-1.6-1-2.8-2.8-3.3-4.9-.6,2.3-1.8,4.2-3.5,5.3l-.9-1.1c2.3-1.4,3.6-4.4,3.6-7.4v-1.6h-3.2v-1.2h7.6v1.2h-3v1.6c0,2.9,1.3,5.7,3.6,7h0ZM347.9,193h-1.4v-8.5h-2.8v-1.2h2.8v-5.5h1.4v15.2ZM351.2,193.9h-1.4v-16.5h1.4v16.5Z"/>
          <path class="st7" d="M363.2,185.5l-.7,1.1c-1.9-.7-3.3-2-4-3.7-.7,1.9-2.2,3.3-4.2,4l-.8-1.1c2.5-.9,4.2-3,4.2-5.4v-.7h-3.8v-1.2h8.9v1.2h-3.7v.7c0,2.2,1.6,4.2,4.1,5h0ZM366.4,193.9h-1.4v-4.5h-9.4v-1.2h10.8v5.7ZM366.4,181.8h2.5v1.2h-2.5v4.3h-1.4v-9.9h1.4v4.4Z"/>
          <path class="st7" d="M383.4,185.2h-7.7v-6.7h7.7v6.7ZM389.3,192.7l-.5,1.1c-2.5-.3-4.8-1.5-5.7-3-1,1.6-3.3,2.7-5.8,3l-.5-1.1c2.8-.3,5.6-1.9,5.6-3.6h-4.9v-1.1h4.9v-1.6h1.4v1.6h4.9v1.1h-4.9c0,1.6,2.6,3.2,5.5,3.6ZM377,184h4.9v-4.4h-4.9v4.4ZM388.3,186.9h-1.4v-9.5h1.4v9.5Z"/>
        </g>
        <g class="st3">
          <path class="st7" d="M309.4,209.6l-.8,1.2c-1.9-.9-3.4-2.9-4.2-5.1-.8,2.4-2.4,4.6-4.3,5.5l-.9-1.2c2.4-1.2,4.4-4.3,4.4-7.1v-2.2h-3.8v-1.2h9v1.2h-3.7v2.2c0,2.7,1.9,5.6,4.3,6.7h0ZM312.3,204.5h2.8v1.2h-2.8v8.6h-1.4v-16.5h1.4v6.7Z"/>
          <path class="st7" d="M331,207.2h-15v-1.2h6.8v-1.9h-4.9v-5.5h11.3v1.2h-9.8v3.1h9.9v1.2h-5.1v1.9h6.8v1.2h0ZM329.1,211.4c0,1.9-2.1,3-5.7,3s-5.7-1.1-5.7-3,2.1-3,5.7-3,5.7,1.1,5.7,3ZM319.2,211.4c0,1.2,1.6,1.8,4.2,1.8s4.2-.7,4.2-1.8-1.6-1.8-4.2-1.8-4.2.7-4.2,1.8Z"/>
          <path class="st7" d="M336.7,209.9v-1.8c-1.9-.2-3.2-1.3-3.2-3s1.6-3.1,3.9-3.1,3.9,1.2,3.9,3.1-1.3,2.8-3.2,3v1.8c1.5,0,3.1-.2,4.5-.4v1.1c-3.5.6-7.4.6-10.3.6l-.2-1.2h4.6ZM342.4,201.1h-9.9v-1.2h4.2v-2h1.5v2h4.2v1.2h0ZM334.9,205.1c0,1.2,1,1.9,2.5,1.9s2.5-.7,2.5-1.9-1-1.9-2.5-1.9-2.5.8-2.5,1.9ZM345.2,204.9h2.6v1.2h-2.6v8.2h-1.5v-16.5h1.5v7h0Z"/>
          <path class="st7" d="M362,209.6l-.9,1.1c-1.6-1-2.8-2.8-3.3-4.9-.6,2.3-1.8,4.2-3.5,5.3l-.9-1.1c2.3-1.4,3.6-4.4,3.6-7.4v-1.6h-3.2v-1.2h7.6v1.2h-3v1.6c0,2.9,1.3,5.7,3.6,7h0ZM364.3,213.5h-1.4v-8.5h-2.8v-1.2h2.8v-5.5h1.4v15.2ZM367.7,214.4h-1.4v-16.5h1.4v16.5h0Z"/>
          <path class="st7" d="M378.5,204.2h3.7v-6.3h1.4v16.5h-1.4v-9h-3.7c-.2,3.2-1.8,5.3-4.1,5.3s-4.1-2.2-4.1-5.7,1.7-5.7,4.1-5.8c2.2,0,3.9,1.9,4.1,5ZM371.7,204.9c0,2.7,1.1,4.4,2.7,4.4s2.7-1.7,2.7-4.4-1.1-4.4-2.7-4.5c-1.6,0-2.7,1.8-2.7,4.5Z"/>
          <path class="st7" d="M400.9,204.9l-.8,1.1c-1.8-.6-3.3-1.9-4-3.6-.7,1.9-2.2,3.3-4.2,4l-.8-1.2c2.5-.8,4.2-2.9,4.2-5.3v-1.6h1.4v1.6c0,2.2,1.7,4.1,4.1,4.9h0ZM404.8,211.2h-9.2v1.8h9.8v1.2h-11.3v-4.1h9.2v-1.7h-9.2v-1.2h10.7v3.9h0ZM404.8,206.4h-1.5v-4.3h-3.7v-1.2h3.7v-3h1.5v8.5Z"/>
          <path class="st7" d="M418.1,209.7l-.8,1.1c-1.9-.8-3.5-2.6-4.3-4.8-.7,2.3-2.3,4.2-4.2,5.1l-.8-1.1c2.4-1.1,4.3-3.9,4.3-6.8v-1.3h-3.9v-1.2h3.9v-2.6h1.4v2.6h3.8v1.2h-3.8v1.3c0,2.8,1.9,5.4,4.4,6.5ZM421.2,214.4h-1.5v-16.5h1.5v16.5Z"/>
        </g>
      </g>
    </g>
  </g>
  <g id="g-root-sy_1_cu_958kn81wb95or-fill">
    <g id="sy_1_cu_958kn81wb95or-fill">
      <path class="st4" d="M.5,111.7V29.8h184.1l-40.9,20.5v61.4H.5Z"/>
    </g>
  </g>
  <g id="g-root-sy_2_cu_1uuw4901wb972k-fill">
    <g id="sy_2_cu_1uuw4901wb972k-fill">
      <path class="st6" d="M143.7,132.1V50.3h184.1l-40.9,20.5v61.4h-143.2ZM184.6,29.8v20.5h-40.9s40.9-20.5,40.9-20.5Z"/>
    </g>
  </g>
  <g id="g-root-sy_3_cu_1uuw4901wb972l-fill">
    <g id="sy_3_cu_1uuw4901wb972l-fill">
      <path class="st8" d="M286.9,152.6v-81.8h184.1l-40.9,20.5v61.4h-143.2ZM327.8,50.3v20.5h-40.9l40.9-20.5Z"/>
    </g>
  </g>
  <g id="g-root-sy_4_cu_1qf2m4k1wb97uu-fill">
    <g id="sy_4_cu_1qf2m4k1wb97uu-fill">
      <path class="st9" d="M430.1,91.2v81.8h143.2v-61.4l40.9-20.5h-184.1ZM471,70.7v20.5h-40.9l40.9-20.5Z"/>
    </g>
  </g>
  <g id="g-root-sy_5_cu_1hjflvo1wb98nj-fill">
    <g id="sy_5_cu_1hjflvo1wb98nj-fill">
      <path class="st2" d="M573.3,193.5v-81.8h184.1l-40.9,20.5v61.4h-143.2ZM614.3,91.2v20.5h-40.9l40.9-20.5Z"/>
    </g>
  </g>
  <g id="g-root-sy_6_cu_1lz94041wb98n4-fill">
    <g id="sy_6_cu_1lz94041wb98n4-fill">
      <path class="st0" d="M716.5,213.9v-81.8h133v-10.2l40.9,51.1-40.9,52v-11.1h-133ZM757.5,111.7v20.5h-40.9l40.9-20.5Z"/>
    </g>
  </g>
  <g id="g-root-tx__m7yft01wbakui-fill">
    <g id="tx__m7yft01wbakui-fill">
      <g class="st3">
        <path class="st1" d="M54.2,74.1h-15.3v-1.9h5.8v-3h2.3v3h7.2v1.9h0ZM52.5,78.4c0,2-2.3,3.2-6,3.2s-6-1.2-6-3.2,2.4-3.2,6-3.2,6,1.2,6,3.2ZM52.4,66.8c0,1.3,0,2.8-.5,4.5l-2.3-.2c.4-1.5.4-2.7.4-3.8h-9.4v-1.9h11.8s0,1.4,0,1.4ZM42.8,78.4c0,.9,1.3,1.4,3.7,1.4s3.7-.5,3.7-1.4-1.4-1.4-3.7-1.4-3.7.5-3.7,1.4Z"/>
        <path class="st1" d="M65,67.6h-3.4c0,2,1.2,4,3.9,4.8l-1.2,1.9c-1.9-.6-3.1-1.8-3.9-3.4-.8,1.7-2.1,3.1-4.1,3.8l-1.2-1.9c2.8-.9,4-3.1,4.1-5.3h-3.4v-1.9h9.2v1.9h0ZM69.6,78.4c0,2-2.2,3.2-5.8,3.2s-5.8-1.2-5.8-3.2,2.2-3.2,5.8-3.3c3.6,0,5.8,1.2,5.8,3.3ZM60.3,78.4c0,1,1.2,1.4,3.5,1.4s3.5-.5,3.5-1.4-1.2-1.4-3.5-1.4-3.5.5-3.5,1.4ZM69.5,74.7h-2.4v-4h-2.6v-1.9h2.6v-4.1h2.4v10Z"/>
        <path class="st1" d="M91.5,75.2h-6.4v2.7h-2.3v-2.7h-6.8v-1.9h15.5s0,1.9,0,1.9ZM89.8,81.3h-11.9v-4.7h2.3v2.8h9.6s0,1.9,0,1.9ZM80.4,67h6.8v-1.8h2.4v6.9h-11.5v-6.9h2.3s0,1.8,0,1.8ZM87.2,70.3v-1.5h-6.8v1.5h6.8Z"/>
        <path class="st1" d="M102.7,72.3l-1.3,1.9c-1.8-.6-3.1-1.8-3.8-3.4-.8,1.7-2.1,3-4,3.7l-1.3-1.9c2.8-.9,4-3.1,4-5.4v-1.6h2.4v1.8c0,2.1,1.2,4.1,3.8,5h.2ZM106.7,81.6h-2.4v-4.2h-9.2v-1.9h11.6v6.1h0ZM106.7,74.8h-2.4v-5h-3.2v-1.9h3.2v-3.1h2.4v10.1h0Z"/>
      </g>
    </g>
  </g>
  <g id="g-root-tx__8whxfo1wbamfg-fill">
    <g id="tx__8whxfo1wbamfg-fill">
      <g class="st3">
        <path class="st1" d="M184.6,96.6l-1.3,1.9c-1.9-.9-3.2-2.6-4-4.6-.8,2.2-2.1,4.1-4.1,5l-1.4-1.9c2.8-1.3,4.2-4.5,4.2-7.2v-1h-3.6v-1.9h9.4v1.9h-3.4v1c0,2.6,1.4,5.5,4.1,6.8h.1ZM187.6,91.6h2.5v2h-2.5v8.5h-2.4v-16.9h2.4v6.4Z"/>
        <path class="st1" d="M206.1,95h-15.4v-1.9h6.6v-1.4h-4.7v-5.8h11.7v1.8h-9.4v2.1h9.4v1.9h-4.8v1.4h6.6v1.9h0ZM204.2,99c0,2-2.2,3.1-5.9,3.1s-5.9-1.1-5.9-3.1,2.2-3.1,5.9-3.1,5.9,1.1,5.9,3.1ZM194.8,99c0,.9,1.2,1.3,3.5,1.3s3.5-.4,3.5-1.3-1.2-1.3-3.5-1.3-3.5.4-3.5,1.3Z"/>
        <path class="st1" d="M211,97.2v-1.4c-1.8-.4-3-1.5-2.9-3.1,0-1.9,1.7-3.2,4.2-3.2s4.1,1.3,4.2,3.2c0,1.6-1.2,2.7-3,3.1v1.4c1.3,0,2.7-.2,3.9-.4v1.7c-3.5.7-7.3.7-10.2.7l-.3-1.9h4.2,0ZM217.2,88.9h-10v-1.9h3.8v-1.8h2.4v1.8h3.8v1.9ZM210.3,92.7c0,.9.8,1.4,1.9,1.4s1.9-.5,1.9-1.4-.8-1.4-1.9-1.4-1.9.5-1.9,1.4ZM220.6,92h2.2v2h-2.2v8.1h-2.4v-16.9h2.4v6.9h0Z"/>
        <path class="st1" d="M238.1,91.7l-1.2,1.8c-1.8-.6-3.1-1.7-3.8-3.2-.7,1.6-2.1,2.9-4,3.5l-1.2-1.9c2.8-.8,4-2.9,4.1-5.1v-1.2h2.4v1.2c0,2,1.2,4,3.9,4.8h-.2ZM242.1,99h-8.9v1h9.4v1.9h-11.7v-4.6h8.9v-1h-8.9v-1.8h11.2v4.5h0ZM242.1,93.8h-2.4v-4.2h-3.2v-1.9h3.2v-2.5h2.4v8.6Z"/>
        <path class="st1" d="M255.4,101.3h-2.2v-5.6h-2.4v-1.9h2.4v-2.3h-2.1c-.8,2.8-2.5,5.1-5.7,7l-1.4-1.7c3.4-2,4.9-4.5,5.3-7.8h-4.3v-1.9h6.6c0,.8,0,1.7-.1,2.4h1.7v-4.1h2.2v15.8h0ZM258.9,102h-2.2v-16.9h2.2v16.9Z"/>
      </g>
    </g>
  </g>
  <g id="g-root-tx__4gofb81wban7q-fill">
    <g id="tx__4gofb81wban7q-fill">
      <g class="st3">
        <path class="st1" d="M323.8,117.2l-1.4,1.7c-1.5-.9-2.5-2.4-3.1-4.2-.6,2-1.6,3.6-3.2,4.6l-1.4-1.7c2.5-1.5,3.4-4.6,3.4-7.4v-.9h-2.8v-1.9h7.6v1.9h-2.6v.9c0,2.8.9,5.6,3.3,7.1h.2ZM326.2,121.7h-2.2v-8.4h-2.2v-1.9h2.2v-5.5h2.2v15.8ZM329.7,122.5h-2.2v-16.9h2.2v16.9Z"/>
        <path class="st1" d="M341.1,108.5h-3.4c0,2,1.2,4,3.9,4.9l-1.2,1.8c-1.9-.6-3.2-1.8-3.9-3.3-.8,1.7-2.1,3-4.1,3.6l-1.3-1.8c2.8-.9,4.1-3.1,4.1-5.2h-3.5v-1.9h9.2v1.9h.2ZM344.9,122.5h-2.4v-4.1h-9v-1.9h11.4v6ZM344.9,109.7h2.3v2h-2.3v4.1h-2.4v-10.2h2.4v4.1Z"/>
        <path class="st1" d="M361.4,113.7h-8.3v-7.1h8.3v7.1ZM366.7,117.9h-4.7c.3,1.2,2,2.5,5.4,2.8l-.8,1.8c-2.8-.3-4.8-1.3-5.8-2.6-1,1.4-3.1,2.3-5.9,2.6l-.8-1.8c3.4-.3,5.2-1.6,5.4-2.8h-4.7v-1.8h4.8v-1.4h2.4v1.4h4.8v1.8h0ZM355.5,111.9h3.6v-3.4h-3.6v3.4ZM366.4,115.2h-2.4v-9.6h2.4v9.6Z"/>
        <path class="st1" d="M383.3,112.2l-1.2,1.8c-1.8-.6-3.1-1.7-3.8-3.2-.7,1.6-2.1,2.9-4,3.5l-1.2-1.9c2.8-.8,4-2.9,4.1-5.1v-1.2h2.4v1.2c0,2,1.2,4,3.9,4.8h-.2ZM387.3,119.4h-8.9v1h9.4v1.9h-11.7v-4.6h8.9v-1h-8.9v-1.8h11.2v4.5ZM387.3,114.2h-2.4v-4.2h-3.2v-1.9h3.2v-2.5h2.4v8.6Z"/>
        <path class="st1" d="M400.3,117.3l-1.3,1.8c-1.9-.8-3.3-2.4-4.1-4.3-.8,2.1-2.1,3.8-4.1,4.6l-1.3-1.8c2.8-1.2,4.2-4,4.2-6.6v-.6h-3.6v-1.9h3.6v-2.4h2.4v2.4h3.5v1.9h-3.5v.6c0,2.4,1.4,5.2,4.2,6.4h0ZM403.6,122.5h-2.4v-16.9h2.4v16.9Z"/>
      </g>
    </g>
  </g>
  <g id="g-root-tx__1q6yg041wbalfs-fill">
    <g id="tx__1q6yg041wbalfs-fill">
      <g class="st3">
        <path class="st1" d="M463.4,137.3l-1.4,1.9c-1.9-.9-3.3-2.6-4-4.6-.8,2.3-2.2,4.1-4.2,5l-1.4-2c2.9-1.2,4.4-4.5,4.4-7.8v-2.5h2.4v2.5c0,3.1,1.4,6.2,4.3,7.4h0ZM466.7,143h-2.4v-16.9h2.4v16.9Z"/>
        <path class="st1" d="M484.5,136.2h-6.4v2.9h-2.4v-2.9h-6.7v-1.9h15.5v1.9ZM482.8,129.9c0,2.2-2.4,3.5-6.1,3.5s-6.1-1.3-6.1-3.5,2.4-3.5,6.1-3.5,6.1,1.4,6.1,3.5ZM482.7,142.7h-11.9v-5h2.4v3.1h9.5v1.9h0ZM473.2,129.9c0,1,1.4,1.6,3.6,1.6s3.6-.6,3.6-1.6-1.4-1.6-3.6-1.6-3.6.6-3.6,1.6Z"/>
        <path class="st1" d="M495.7,134.3l-1.2,1.9c-1.9-.6-3.2-1.8-3.9-3.4-.7,1.7-2.1,3.1-4.1,3.7l-1.2-1.9c2.8-.9,4-3.1,4.1-5.2v-.3h-3.4v-1.9h9.2v1.9h-3.4v.3c0,2,1.2,4,3.9,4.9ZM500.1,142.7h-11.6v-5.3h2.4v3.4h9.2v1.9h0ZM499.7,138.4h-2.4v-6h-2.8v-1.9h2.8v-4.4h2.4v12.3Z"/>
        <path class="st1" d="M506.4,137.7c0-1.6,1-2.5,2.5-3.5-.7-.9-1.3-1.9-1.3-3.1,0-1.9,1.4-3.5,3.7-3.5s3.5,1.4,3.5,3.2-.6,2.3-1.8,3.1l-.8.6,2.2,2.6c.3-.7.6-1.4.6-2.3h2.3c0,1.8-.5,3.2-1.2,4.2l2,2.3h-2.9l-.8-.9c-1,.8-2.3,1.1-3.5,1.1-2.8,0-4.5-1.7-4.5-3.8h0ZM511,139.2c.6,0,1.3-.2,1.8-.6l-2.6-2.9h0c-.8.6-1.1,1.2-1.1,1.7,0,1,.8,1.7,1.9,1.7h0ZM510.8,132.9l.7-.5c.7-.4,1-.9,1-1.5s-.4-1.1-1.2-1.1-1.3.6-1.3,1.3.4,1.1.9,1.8h-.1Z"/>
        <path class="st1" d="M538.4,138h-3.6v5h-2.4v-5h-3.5v5h-2.4v-5h-3.6v-1.9h15.5v1.9h0ZM536.7,134.9h-11.9v-8.1h11.7v1.9h-9.4v1.2h9v1.8h-9v1.3h9.5v1.9h.1Z"/>
        <path class="st1" d="M542.7,133c2.3,0,4.6-.2,7-.7l.3,1.9c-2.8.6-5.5.8-8.2.8h-1.5v-7.8h2.4v5.8ZM553.5,139.6c0,2.1-2.2,3.4-5.8,3.4s-5.8-1.3-5.8-3.4,2.2-3.5,5.8-3.5,5.8,1.3,5.8,3.5ZM544.2,139.6c0,1,1.2,1.5,3.5,1.5s3.4-.5,3.4-1.5-1.2-1.6-3.4-1.6-3.5.5-3.5,1.6ZM553.4,135.9h-2.4v-9.8h2.4v9.8Z"/>
      </g>
    </g>
  </g>
  <g id="g-root-tx__hs4xok1wbalmr-fill">
    <g id="tx__hs4xok1wbalmr-fill">
      <g>
        <g class="st3">
          <path class="st7" d="M22.5,139.7h-9.3v-1.2h4v-2h1.4v2h3.9v1.2ZM21.6,143.8c0,1.9-1.6,3.2-3.8,3.2s-3.7-1.3-3.7-3.2,1.5-3.2,3.7-3.2,3.8,1.3,3.8,3.2ZM15.5,143.8c0,1.2,1,2,2.4,2s2.4-.8,2.4-2-1-2-2.4-2-2.4.8-2.4,2ZM27.1,152.6h-11v-4.7h1.5v3.4h9.6v1.2h-.1ZM26.8,149.1h-1.5v-3.5h-2.9v-1.2h2.9v-2.2h-2.9v-1.2h2.9v-4.4h1.5v12.6h0Z"/>
          <path class="st7" d="M39.2,144.5l-.7,1.1c-1.9-.6-3.3-1.9-4-3.6-.7,1.9-2.2,3.4-4.2,4.1l-.7-1.2c2.5-.8,4.2-3,4.2-5.3v-.7h-3.8v-1.2h8.9v1.2h-3.7v.7c0,2.2,1.6,4.1,4,4.9ZM42.6,149.9c0,1.9-2,3-5.4,3s-5.5-1.1-5.5-3,2.1-3,5.5-3,5.4,1.1,5.4,3ZM33.1,149.9c0,1.2,1.5,1.9,4,1.9s4-.7,4-1.9-1.5-1.8-4-1.8-4,.7-4,1.8ZM42.4,140.7h2.5v1.2h-2.5v4.5h-1.4v-10h1.4v4.2h0Z"/>
          <path class="st7" d="M60.8,143.4l-.7,1.1c-1.9-.7-3.5-2-4.2-3.8-.7,1.9-2.3,3.4-4.2,4.1l-.8-1.1c2.5-.9,4.2-3.1,4.2-5.5v-1.3h1.5v1.3c0,2.3,1.8,4.4,4.2,5.2ZM64.3,149.8h-9.3v1.8h9.9v1.2h-11.3v-4.1h9.2v-1.7h-9.3v-1.2h10.7v4h0ZM64.3,145h-1.4v-8.6h1.4v8.6Z"/>
          <path class="st7" d="M82.2,146h-15v-1.2h15v1.2ZM75.4,138.2h5.3v1.2h-5.2c0,1.9,2.7,3.2,5.8,3.4l-.5,1.1c-2.7-.3-5.1-1.3-6.1-3-1,1.7-3.4,2.7-6.1,3l-.5-1.1c3.1-.3,5.7-1.6,5.8-3.4h-5.2v-1.2h5.2v-1.7h1.4v1.7h0ZM80.3,153h-1.5v-4h-10v-1.2h11.5v5.2Z"/>
          <path class="st7" d="M96.9,144.3h-7.7v-6.7h7.7v6.7ZM102.9,151.8l-.5,1.1c-2.5-.3-4.8-1.5-5.7-3-1,1.6-3.3,2.7-5.8,3l-.5-1.1c2.8-.3,5.6-1.9,5.6-3.6h-4.9v-1.1h4.9v-1.6h1.4v1.6h4.9v1.1h-4.9c0,1.6,2.6,3.2,5.5,3.6ZM90.6,143.1h4.9v-4.4h-4.9v4.4ZM101.9,146h-1.4v-9.5h1.4v9.5Z"/>
        </g>
        <g class="st3">
          <path class="st7" d="M28.2,166.6h-6.7v3.4h-1.4v-3.4h-6.9v-1.2h15.1v1.2h-.1ZM26.5,173.1h-11.5v-4.8h1.5v3.5h10v1.2h0ZM26.2,163.5h-11.2v-5.7h11.2v5.7ZM16.5,162.3h8.3v-3.4h-8.3v3.4Z"/>
          <path class="st7" d="M37.9,168.7l-.9,1.1c-1.6-1-2.8-2.8-3.3-4.9-.6,2.3-1.8,4.2-3.5,5.3l-.9-1.1c2.3-1.4,3.6-4.4,3.6-7.4v-1.6h-3.2v-1.2h7.6v1.2h-3v1.6c0,2.9,1.3,5.7,3.6,7h0ZM40.3,172.6h-1.4v-8.5h-2.8v-1.2h2.8v-5.5h1.4v15.2ZM43.6,173.4h-1.4v-16.5h1.4v16.5Z"/>
          <path class="st7" d="M60.9,165.5l-.7,1.2c-1.9-.6-3.5-2-4.2-3.7-.7,1.9-2.3,3.4-4.2,4.1l-.8-1.2c2.5-.9,4.2-3,4.2-5.3v-1h-3.9v-1.2h9.1v1.2h-3.8v1c0,2.2,1.8,4.2,4.2,5h0ZM64.9,173.1h-11.2v-5.2h1.4v4h9.7v1.2h0ZM64.3,169.1h-1.4v-12.1h1.4v12.1Z"/>
          <path class="st7" d="M75.3,159.6h-5.9v5.1c3.3,0,5.2,0,7.4-.5l.2,1.2c-2.3.4-4.3.6-7.8.6h-1.3v-7.6h7.3v1.2h.1ZM80.8,173.1h-11.1v-5.4h1.4v4.2h9.6v1.2h0ZM80,161.9h2.5v1.2h-2.5v5.8h-1.4v-11.9h1.4v4.9Z"/>
        </g>
      </g>
    </g>
  </g>
  <g id="g-root-tx__8whxfo1wbamfh-fill">
    <g id="tx__8whxfo1wbamfh-fill">
      <g>
        <g class="st3">
          <path class="st7" d="M164.5,164.4h-6v3.9c3.1,0,5.2-.1,7.7-.6v1.2c-2.4.5-4.7.6-7.8.6h-1.3v-6.3h6v-3.5h-6v-1.2h7.5v5.9h0ZM169.1,163.5h2.8v1.2h-2.8v8.7h-1.4v-16.5h1.4v6.6Z"/>
          <path class="st7" d="M181.8,162.2c0,2.4-1.9,4.1-4.3,4.1s-4.3-1.7-4.3-4.1,1.9-4,4.3-4,4.3,1.7,4.3,4ZM174.6,162.2c0,1.7,1.2,2.8,2.9,2.8s2.9-1.1,2.9-2.8-1.3-2.8-2.9-2.8-2.9,1.2-2.9,2.8ZM186.9,173.1h-11.2v-5.3h1.4v4.1h9.7v1.2h.1ZM186.4,169h-1.4v-12.1h1.4v12.1h0Z"/>
          <path class="st7" d="M203.6,164l-.8,1.1c-1.8-.6-3.3-1.9-4-3.6-.7,1.9-2.2,3.3-4.2,4l-.8-1.2c2.5-.8,4.2-2.9,4.2-5.3v-1.6h1.4v1.6c0,2.2,1.7,4.1,4.1,4.9h.1ZM207.6,170.2h-9.2v1.8h9.8v1.2h-11.3v-4.1h9.2v-1.7h-9.2v-1.2h10.7v3.9h0ZM207.6,165.5h-1.5v-4.3h-3.7v-1.2h3.7v-3h1.5v8.5Z"/>
          <path class="st7" d="M221.1,172.6h-1.4v-5.7h-3.1v-1.2h3.1v-2.9h-2.8c-.8,2.8-2.6,5.3-5.7,7.1l-.9-1.1c3.6-2.1,5.4-5.1,5.7-8.6h-4.9v-1.2h6.4c0,.8,0,1.7-.2,2.5h2.5v-4.2h1.4v15.2h-.1ZM224.5,173.4h-1.4v-16.5h1.4v16.5Z"/>
          <path class="st7" d="M240.1,164.7h-7.7v-6.7h7.7v6.7ZM246.1,172.3l-.5,1.1c-2.5-.3-4.8-1.5-5.7-3-1,1.6-3.3,2.7-5.8,3l-.5-1.1c2.8-.3,5.6-1.9,5.6-3.6h-4.9v-1.1h4.9v-1.6h1.4v1.6h4.9v1.1h-4.9c0,1.6,2.6,3.2,5.5,3.6ZM233.8,163.6h4.9v-4.4h-4.9v4.4ZM245.1,166.4h-1.4v-9.5h1.4v9.5Z"/>
        </g>
        <g class="st3">
          <path class="st7" d="M165.9,185.4l-.7,1.2c-1.9-.6-3.3-1.9-4-3.6-.7,1.9-2.2,3.4-4.2,4.1l-.7-1.2c2.5-.8,4.2-3,4.2-5.3v-.7h-3.8v-1.2h8.9v1.2h-3.7v.7c0,2.2,1.6,4.1,4,4.9h0ZM169.4,190.8c0,1.9-2,3-5.4,3s-5.5-1.1-5.5-3,2.1-3,5.5-3,5.4,1.1,5.4,3ZM159.9,190.8c0,1.2,1.5,1.9,4,1.9s4-.7,4-1.9-1.5-1.8-4-1.8-4,.7-4,1.8ZM169.2,181.6h2.5v1.2h-2.5v4.5h-1.4v-10h1.4v4.2h0Z"/>
          <path class="st7" d="M175.1,183.2h4.9v-4.4h1.4v11.1h-7.8v-11.1h1.4v4.4h.1ZM180.1,188.7v-4.4h-4.9v4.4h4.9ZM186.3,193.9h-1.5v-16.5h1.5v16.5Z"/>
          <path class="st7" d="M203.6,185.9l-.8,1.1c-1.8-.7-3.2-2.2-4-4-.7,2-2.2,3.6-4.2,4.4l-.8-1.2c2.5-.9,4.2-3.2,4.2-5.8v-2h1.4v2.1c0,2.3,1.7,4.5,4.1,5.3h.1ZM208,193.5h-11v-5.2h1.5v4h9.6v1.2h-.1ZM207.6,189.8h-1.5v-7.3h-3.7v-1.2h3.7v-3.9h1.5v12.4Z"/>
          <path class="st7" d="M220.1,185.5l-.8,1.2c-1.9-.7-3.3-2-4-3.8-.7,1.9-2.3,3.5-4.2,4.2l-.8-1.2c2.4-.9,4.2-3.1,4.2-5.5v-.6h-3.7v-1.2h8.9v1.2h-3.7v.6c0,2.2,1.7,4.2,4.1,5h0ZM224.1,190.8c0,1.9-2.1,3.1-5.5,3.1s-5.5-1.1-5.5-3.1,2.1-3.1,5.5-3.1,5.5,1.1,5.5,3.1ZM214.5,190.8c0,1.2,1.6,1.9,4.1,1.9s4.1-.7,4.1-1.9-1.6-1.9-4.1-1.9-4.1.7-4.1,1.9ZM224,187.2h-1.5v-4.3h-3.3v-1.2h3.3v-4.3h1.5v9.8Z"/>
        </g>
      </g>
    </g>
  </g>
  <g id="g-root-tx__1lr4xvo1wbam82-fill">
    <g id="tx__1lr4xvo1wbam82-fill">
      <g class="st3">
        <path class="st1" d="M614.1,157.7l-1.4,1.9c-1.8-.9-3-2.6-3.7-4.6-.7,2.2-2,4-4,4.9l-1.5-1.9c2.9-1.3,4.2-4.5,4.2-7.7v-2.5h2.4v2.5c0,3,1.3,6.1,4,7.4h0ZM617.2,153.1h2.5v2h-2.5v8.4h-2.4v-16.9h2.4v6.5Z"/>
        <path class="st1" d="M635.7,156.4h-15.4v-1.9h3.5v-2c-1.2-.5-1.9-1.4-1.9-2.5,0-2,2.4-3.3,6.2-3.3s6.1,1.2,6.1,3.3-.7,1.9-2,2.5v2h3.5v1.9h0ZM633.8,160.3c0,2-2.2,3.1-5.9,3.1s-5.9-1.1-5.9-3.1,2.2-3,5.9-3,5.9,1.1,5.9,3ZM624.3,150c0,.9,1.3,1.4,3.7,1.4s3.7-.5,3.7-1.4-1.3-1.4-3.7-1.4-3.7.5-3.7,1.4ZM624.5,160.3c0,.9,1.2,1.3,3.5,1.3s3.5-.4,3.5-1.3-1.2-1.2-3.5-1.2-3.5.4-3.5,1.2ZM629.8,154.5v-1.4h-1.8c-.6,0-1.3,0-1.8-.1v1.4h3.6Z"/>
        <path class="st1" d="M647.1,158l-1.3,1.9c-1.9-.9-3.2-2.6-4-4.6-.8,2.2-2.1,4.1-4.1,5l-1.4-1.9c2.8-1.3,4.2-4.5,4.2-7.2v-1h-3.6v-1.9h9.4v1.9h-3.4v1c0,2.6,1.4,5.5,4.1,6.8h0ZM650,153h2.5v2h-2.5v8.5h-2.4v-16.9h2.4v6.4Z"/>
        <path class="st1" d="M672.9,161.4h-15.4v-1.9h3.3v-5.3h2.4v5.3h1.9v-5.3h2.3v5.3h5.6v1.9h0ZM671.5,149.7c0,2.1,0,4.4-.6,7.8l-2.3-.2c.6-3.1.6-5.4.6-7.3h-10.1v-1.9h12.5v1.7h-.1Z"/>
        <path class="st1" d="M689.3,156.3h-3.7v1.6h1.8v5.5h-2.4v-3.7h-9.5v-1.9h1.9v-1.6h-3.6v-1.9h15.4v1.9h0ZM687.8,150.2c0,2.1-2.4,3.3-6.1,3.3s-6.2-1.3-6.2-3.3,2.4-3.3,6.2-3.3,6.1,1.3,6.1,3.3ZM677.9,150.2c0,1,1.3,1.5,3.7,1.5s3.7-.5,3.7-1.5-1.4-1.5-3.7-1.5-3.7.5-3.7,1.5ZM683.3,157.9v-1.6h-3.3v1.6h3.3Z"/>
      </g>
    </g>
  </g>
  <g id="g-root-tx__18gawlg1wbakn8-fill">
    <g id="tx__18gawlg1wbakn8-fill">
      <g class="st3">
        <path class="st1" d="M754.7,178.3h-3.6v5.6h-2.4v-5.6h-3.5v5.6h-2.4v-5.6h-3.5v-1.9h15.5v1.9h0ZM753.1,171.4c0,2.3-2.5,3.7-6.2,3.7s-6.1-1.4-6.1-3.7,2.5-3.8,6.1-3.8,6.2,1.5,6.2,3.8ZM743.2,171.4c0,1.2,1.4,1.9,3.7,1.9s3.7-.7,3.7-1.9-1.4-1.9-3.7-1.9-3.7.7-3.7,1.9Z"/>
        <path class="st1" d="M766.4,178.4l-1.3,1.9c-2-.8-3.4-2.5-4.1-4.6-.8,2.2-2.2,4.1-4.2,5l-1.4-1.9c2.8-1.2,4.2-4.4,4.2-7.2v-1h-3.6v-1.9h9.5v1.9h-3.5v1c0,2.7,1.4,5.6,4.2,6.8h.2ZM769.8,183.9h-2.4v-16.9h2.4v16.9Z"/>
        <path class="st1" d="M787.5,181.9h-15.5v-1.9h6.5v-3.1h-4.9v-8.8h2.4v2.6h7.4v-2.6h2.4v8.8h-4.9v3.1h6.6v1.9h0ZM783.4,175v-2.4h-7.4v2.4h7.4Z"/>
        <path class="st1" d="M803.9,178.1h-6.6v5.8h-2.3v-5.8h-6.5v-1.9h15.4v1.9h0ZM803.4,173l-.9,1.9c-3-.4-5.1-1.8-6.2-3.6-1.1,1.8-3.3,3.2-6.2,3.6l-.9-1.9c3.8-.5,5.9-2.7,5.9-4.7v-.8h2.5v.8c0,2,2,4.2,5.9,4.7h0Z"/>
        <path class="st1" d="M820.1,178.4l-1.3,1.9c-2-.8-3.4-2.5-4.1-4.6-.8,2.2-2.2,4.1-4.2,5l-1.4-1.9c2.8-1.2,4.2-4.4,4.2-7.2v-1h-3.6v-1.9h9.5v1.9h-3.5v1c0,2.7,1.4,5.6,4.2,6.8h.2ZM823.4,183.9h-2.4v-16.9h2.4v16.9Z"/>
        <path class="st1" d="M840.4,183.6h-12.6v-5h2.4v-2.2h-4.2l-.3-1.9c3.1,0,7.3,0,10.8-.5v1.7c-1.2.2-2.6.4-4,.5v3.2h-2.4v2.3h10.2v1.9h0ZM835.4,170.6c0,1.8-1.8,3-4.2,3s-4.2-1.2-4.2-3,1.7-3,4.2-3,4.2,1.2,4.2,3ZM829.1,170.6c0,.8.8,1.3,2,1.3s1.9-.4,2-1.3c0-.8-.8-1.3-2-1.3s-2,.5-2,1.3ZM840,179.8h-2.4v-1.3h-3.2v-1.6h3.2v-9.8h2.4v12.7h0Z"/>
      </g>
    </g>
  </g>
  <g id="g-root-tx__1q6yg041wbalft-fill">
    <g id="tx__1q6yg041wbalft-fill">
      <g>
        <g class="st3">
          <path class="st7" d="M452.5,205.9l-.8,1.2c-1.9-.7-3.3-2.1-4-3.8-.7,1.9-2.3,3.5-4.2,4.2l-.8-1.2c2.4-.9,4.2-3.1,4.2-5.5v-.6h-3.7v-1.2h8.9v1.2h-3.7v.6c0,2.2,1.7,4.2,4.1,5h0ZM456.5,211.3c0,1.9-2.1,3.1-5.5,3.1s-5.5-1.1-5.5-3.1,2.1-3.1,5.5-3.1,5.5,1.1,5.5,3.1ZM446.9,211.3c0,1.2,1.6,1.9,4.1,1.9s4.1-.7,4.1-1.9-1.6-1.9-4.1-1.9-4.1.7-4.1,1.9ZM456.4,207.7h-1.5v-4.3h-3.3v-1.2h3.3v-4.3h1.5v9.8Z"/>
          <path class="st7" d="M467.8,205.5h-7.7v-6.7h7.7v6.7ZM461.5,204.4h4.9v-4.4h-4.9v4.4ZM472.8,211.1h-9.2v1.9h9.8v1.2h-11.3v-4.1h9.3v-1.7h-9.3v-1.2h10.7v3.9h0ZM472.8,206.4h-1.4v-8.5h1.4v8.5Z"/>
          <path class="st7" d="M487.1,201.1h-4.8v3.3h4v1.2h-4v3.7c2.4,0,3.8-.1,5.6-.4v1.2c-1.8.4-3.3.4-6,.4h-1v-10.5h6.1v1.2h0ZM491.1,213.5h-1.4v-8.2h-2.4v-1.2h2.4v-5.9h1.4v15.2h0ZM494.5,214.4h-1.4v-16.5h1.4v16.5Z"/>
          <path class="st7" d="M511.9,212.1h-15.1v-1.2h15.1v1.2h0ZM511.1,206.2l-.7,1.2c-2.5-.6-5.1-2.3-6.2-4.8-1.1,2.4-3.7,4.2-6.2,4.8l-.7-1.2c2.9-.6,6.1-3,6.1-5.9v-1.3h1.5v1.3c0,2.8,3.2,5.3,6.1,5.9h.1Z"/>
          <path class="st7" d="M528.3,212.2h-15.1v-1.2h15.1v1.2h0ZM526.5,208h-11.4v-8.7h11.2v1.2h-9.7v2.4h9.4v1.2h-9.4v2.7h9.9v1.2h0Z"/>
        </g>
        <g class="st3">
          <path class="st7" d="M451.3,226.1h-7.7v-6.7h7.7v6.7ZM457.3,233.6l-.5,1.1c-2.5-.3-4.8-1.5-5.7-3-1,1.6-3.3,2.7-5.8,3l-.5-1.1c2.8-.3,5.6-1.9,5.6-3.6h-4.9v-1.1h4.9v-1.6h1.4v1.6h4.9v1.1h-4.9c0,1.6,2.6,3.2,5.5,3.6ZM445,225h4.9v-4.4h-4.9v4.4ZM456.3,227.8h-1.4v-9.5h1.4v9.5Z"/>
          <path class="st7" d="M470.2,230c1.6,0,3.2-.2,4.7-.4v1.1c-3.7.7-7.7.7-10.7.7l-.2-1.2h4.7v-3.1h1.4v3h.1ZM474.1,221.7h-3.9c0,2.1,1.8,3.9,4.2,4.6l-.7,1.2c-2-.6-3.5-1.9-4.3-3.5-.7,1.8-2.3,3.1-4.2,3.7l-.7-1.1c2.4-.7,4.2-2.5,4.2-4.8h-3.8v-1.2h3.8v-2h1.4v2h3.9v1.2h.1ZM477.4,234.9h-1.4v-16.5h1.4v16.5Z"/>
          <path class="st7" d="M490.1,226.4l-.8,1.2c-1.9-.7-3.3-2.1-4-3.7-.7,1.9-2.2,3.4-4.2,4.1l-.8-1.2c2.4-.9,4.2-3.1,4.2-5.4v-.7h-3.7v-1.2h8.9v1.2h-3.7v.7c0,2.2,1.7,4.2,4.1,5h0ZM494,234.8h-1.5v-4.5h-9.6v-1.2h11.1v5.7ZM494,228.2h-1.5v-4.3h-3.3v-1.2h3.3v-4.3h1.5v9.9h0Z"/>
          <path class="st7" d="M501.1,230.4v-1.8c-1.9-.2-3.2-1.3-3.2-3s1.6-3.1,3.9-3.1,3.9,1.2,3.9,3.1-1.3,2.8-3.2,3v1.8c1.5,0,3.1-.2,4.5-.4v1.1c-3.5.6-7.4.6-10.3.6l-.2-1.2h4.6ZM506.8,221.5h-9.9v-1.2h4.2v-2h1.5v2h4.2v1.2h0ZM499.3,225.6c0,1.2,1,1.9,2.5,1.9s2.5-.7,2.5-1.9-1-1.9-2.5-1.9-2.5.8-2.5,1.9ZM509.6,225.4h2.6v1.2h-2.6v8.2h-1.5v-16.5h1.5v7h0Z"/>
        </g>
      </g>
    </g>
  </g>
  <g id="g-root-tx__1cvhxms1wban0r-fill">
    <g id="tx__1cvhxms1wban0r-fill">
      <g>
        <g class="st3">
          <path class="st7" d="M595.6,226.4l-.7,1.1c-1.9-.7-3.3-2-4-3.7-.7,1.9-2.2,3.3-4.2,4l-.8-1.1c2.5-.9,4.2-3,4.2-5.4v-.7h-3.8v-1.2h8.9v1.2h-3.7v.7c0,2.2,1.6,4.2,4.1,5h0ZM598.8,234.8h-1.4v-4.5h-9.4v-1.2h10.8v5.7h0ZM598.8,222.7h2.5v1.2h-2.5v4.3h-1.4v-9.9h1.4v4.4Z"/>
          <path class="st7" d="M611.1,222.3h3.5v-4h1.5v8.9h-1.5v-3.7h-3.4c-.3,1.9-2,3.2-4.2,3.2s-4.3-1.6-4.3-3.8,1.8-3.8,4.3-3.8,3.9,1.3,4.2,3.2h0ZM604,222.9c0,1.5,1.2,2.6,2.9,2.6s2.9-1.1,2.9-2.6-1.2-2.6-2.9-2.6-2.9,1-2.9,2.6ZM606.9,230.1h7.7v-2.1h1.5v6.6h-10.6v-6.6h1.5v2.1h-.1ZM614.6,233.4v-2.1h-7.7v2.1h7.7Z"/>
          <path class="st7" d="M628.7,230.1l-.8,1.1c-1.9-.9-3.4-2.9-4.2-5.1-.8,2.4-2.4,4.6-4.3,5.5l-.9-1.1c2.4-1.1,4.4-4.3,4.4-7.1v-2.2h-3.8v-1.2h9v1.2h-3.7v2.2c0,2.7,1.9,5.6,4.3,6.7h0ZM631.5,225h2.8v1.2h-2.8v8.6h-1.4v-16.5h1.4v6.7Z"/>
          <path class="st7" d="M648.6,226.1h-7.7v-6.7h7.7v6.7ZM654.6,233.6l-.5,1.1c-2.5-.3-4.8-1.5-5.7-3-1,1.6-3.3,2.7-5.8,3l-.5-1.1c2.8-.3,5.6-1.9,5.6-3.6h-4.9v-1.1h4.9v-1.6h1.4v1.6h4.9v1.1h-4.9c0,1.6,2.6,3.2,5.5,3.6ZM642.3,225h4.9v-4.4h-4.9v4.4ZM653.6,227.8h-1.4v-9.5h1.4v9.5Z"/>
        </g>
        <g class="st3">
          <path class="st7" d="M590.8,247.3c1.8,0,3.7-.2,5.4-.4v1.1c-3.4.6-7.3.7-10.3.7v-1.2h3.4v-3.6h1.4v3.5h0ZM595.1,240.9c0,1.1,0,2.7-.4,4.9h-1.5c.4-2.1.4-3.5.5-4.5h-6.8v-1.2h8.2v.9h0ZM599.4,254.9h-11v-4.8h1.5v3.6h9.6v1.2h0ZM598.9,244.2h2.4v1.2h-2.4v5.8h-1.5v-12.4h1.5v5.4Z"/>
          <path class="st7" d="M611,246.2h-6.2v3.9c2.7,0,5.2-.1,8.1-.6v1.2c-2.9.5-5.4.6-8.2.6h-1.4v-6.3h6.2v-3.5h-6.2v-1.2h7.7v5.9h0ZM616,255.3h-1.4v-16.5h1.4v16.5Z"/>
          <path class="st7" d="M628.7,250.5l-.8,1.2c-1.9-.9-3.4-2.9-4.2-5.1-.8,2.4-2.4,4.6-4.3,5.5l-.9-1.2c2.4-1.2,4.4-4.3,4.4-7.1v-2.2h-3.8v-1.2h9v1.2h-3.7v2.2c0,2.7,1.9,5.6,4.3,6.7h0ZM631.5,245.5h2.8v1.2h-2.8v8.6h-1.4v-16.5h1.4v6.7Z"/>
          <path class="st7" d="M655,252.9h-15v-1.2h3.7v-5.4h1.4v5.4h2.7v-5.4h1.4v5.4h5.8v1.2h0ZM653.2,242.3c0,2.1,0,4.2-.6,7.3l-1.4-.2c.6-2.9.6-5.1.6-7.1v-.6h-10.2v-1.2h11.7v1.8h0Z"/>
          <path class="st7" d="M671.4,247.9h-4v2.1h2.2v5.3h-1.5v-4.1h-10v-1.2h2.3v-2.1h-4v-1.2h15v1.2ZM669.7,242.3c0,2-2.2,3.2-5.8,3.2s-5.8-1.2-5.8-3.2,2.3-3.2,5.8-3.1c3.6,0,5.8,1.2,5.8,3.1ZM659.6,242.3c0,1.3,1.7,2,4.3,2s4.3-.8,4.3-2-1.7-2-4.3-2-4.4.7-4.3,2ZM666,250v-2.1h-4.1v2.1h4.1Z"/>
        </g>
      </g>
    </g>
  </g>
  <g id="g-root-tx__zknwck1wbalfx-fill">
    <g id="tx__zknwck1wbalfx-fill">
      <g>
        <g class="st3">
          <path class="st7" d="M739.8,246v1.1c-1.4.2-2.9.4-4.4.5v3.3h-1.5v-3.2h-4.6l-.2-1.2c3.1,0,7.2,0,10.7-.5h0ZM738.6,242.3c0,1.8-1.7,2.9-4.1,2.9s-4.1-1.1-4.1-2.9,1.7-2.9,4.1-2.9,4.1,1.2,4.1,2.9ZM743.2,254.9h-11.7v-4.8h1.5v3.6h10.3v1.2h0ZM731.8,242.3c0,1.1,1.1,1.8,2.7,1.8s2.7-.7,2.7-1.8-1.1-1.8-2.7-1.8-2.7.7-2.7,1.8ZM742.8,251.3h-1.5v-1.7h-3.4v-1.1h3.4v-9.8h1.5v12.5h0Z"/>
          <path class="st7" d="M754.1,241.7h3.7v-3h1.5v9.8h-1.5v-2.2h-4.4v-1.2h4.4v-2.3h-4.1c-1.1,2.6-3.7,4.5-7.3,5.5l-.6-1.2c4-1.1,6.6-3.3,6.9-6.1h-6v-1.2h7.6c0,.6,0,1.3-.2,1.8h0ZM759.2,255.3h-1.5v-4.7h-9.6v-1.2h11.1v5.9Z"/>
          <path class="st7" d="M777.1,250.5l-.8,1.1c-1.9-.9-3.6-2.8-4.4-5.1-.8,2.4-2.4,4.5-4.3,5.5l-.9-1.1c2.4-1.1,4.4-4.2,4.4-7.1v-2.2h-3.9v-1.2h9.3v1.2h-3.9v2.2c0,2.8,2,5.6,4.5,6.7h0ZM780.4,255.3h-1.5v-16.5h1.5v16.5Z"/>
          <path class="st7" d="M793.8,246v1.1c-1.4.2-2.9.4-4.4.5v3.3h-1.5v-3.2h-4.6l-.2-1.2c3.1,0,7.2,0,10.7-.5h0ZM792.6,242.3c0,1.8-1.7,2.9-4.1,2.9s-4.1-1.1-4.1-2.9,1.7-2.9,4.1-2.9,4.1,1.2,4.1,2.9ZM797.2,254.9h-11.7v-4.8h1.5v3.6h10.3v1.2h0ZM785.8,242.3c0,1.1,1.1,1.8,2.7,1.8s2.7-.7,2.7-1.8-1.1-1.8-2.7-1.8-2.7.7-2.7,1.8ZM796.8,251.3h-1.5v-1.7h-3.4v-1.1h3.4v-9.8h1.5v12.5h0Z"/>
          <path class="st7" d="M808.9,249.3h-3.6v-1.5h3.6v-3.6h1.5v3.6h3.6v1.5h-3.6v3.6h-1.5v-3.6Z"/>
        </g>
        <g class="st3">
          <path class="st7" d="M738.9,267.3l-.8,1.2c-1.9-.7-3.3-2.1-4-3.8-.7,1.9-2.3,3.5-4.2,4.2l-.8-1.2c2.4-.9,4.2-3.1,4.2-5.5v-.6h-3.7v-1.2h8.9v1.2h-3.7v.6c0,2.2,1.7,4.2,4.1,5h0ZM742.9,272.7c0,1.9-2.1,3.1-5.5,3.1s-5.5-1.1-5.5-3.1,2.1-3.1,5.5-3.1,5.5,1.1,5.5,3.1ZM733.3,272.7c0,1.2,1.6,1.9,4.1,1.9s4.1-.7,4.1-1.9-1.6-1.9-4.1-1.9-4.1.7-4.1,1.9ZM742.8,269.1h-1.5v-4.3h-3.3v-1.2h3.3v-4.3h1.5v9.8Z"/>
          <path class="st7" d="M746.6,272.6l-.8-1.2c4.5-2.1,6.7-5.3,7.1-9.2h-6.3v-1.2h7.8c0,4.8-2.2,8.9-7.8,11.6h0ZM759.2,275.7h-1.5v-16.5h1.5v16.5Z"/>
          <path class="st7" d="M776.6,267.2l-.8,1.1c-1.9-.7-3.3-2.1-4-3.8-.7,1.9-2.2,3.4-4.2,4.1l-.8-1.1c2.4-.9,4.2-3.1,4.2-5.4v-.6h-3.7v-1.2h8.9v1.2h-3.7v.6c0,2.1,1.7,4.2,4.1,5h0ZM780.4,275.5h-10.8v-5.8h10.8v5.8h0ZM771.1,274.3h7.9v-3.4h-7.9v3.4ZM780.4,268.9h-1.5v-4.3h-3.3v-1.2h3.3v-4.1h1.5v9.7h0Z"/>
          <path class="st7" d="M784,268.8l-.6-1.1c3.9-1.1,6.5-3.3,6.8-6.1h-5.9v-1.2h7.5c0,4.1-3,7.1-7.7,8.5h0ZM796.9,275.5h-10.7v-6.1h10.7v6.1h0ZM787.6,274.3h7.8v-3.8h-7.8v3.8ZM796.9,268.7h-1.5v-3.9h-3.7v-1.2h3.7v-4.2h1.5v9.4h0Z"/>
          <path class="st7" d="M815.2,274.9h-1.4v-5.7h-3.1v-1.2h3.1v-2.9h-2.8c-.8,2.8-2.6,5.3-5.7,7.1l-.9-1.1c3.6-2.1,5.4-5.1,5.7-8.6h-4.9v-1.2h6.4c0,.8,0,1.7-.2,2.5h2.5v-4.2h1.4v15.2h0ZM818.5,275.7h-1.4v-16.5h1.4v16.5Z"/>
          <path class="st7" d="M829.8,264.1c0,2.3-1.8,3.9-4.3,3.9s-4.3-1.6-4.3-3.9,1.8-3.9,4.3-3.9,4.3,1.6,4.3,3.9ZM822.5,264.1c0,1.6,1.2,2.7,2.9,2.7s2.9-1.1,2.9-2.7-1.2-2.6-2.9-2.6-2.9,1.1-2.9,2.6ZM833.7,275.7h-1.4v-4.7h-9.4v-1.2h10.8v5.9h0ZM836.1,263h-2.4v2.3h2.4v1.2h-2.4v2.5h-1.4v-9.8h1.4v2.6h2.4v1.2h0Z"/>
        </g>
      </g>
    </g>
  </g>
  <g id="g-root-sy_1_cu_958kn81wb95or-stroke">
    <g id="sy_1_cu_958kn81wb95or-stroke">
      <path class="st5" d="M.5,111.7V29.8h184.1l-40.9,20.5v61.4H.5Z"/>
    </g>
  </g>
  <g id="g-root-sy_2_cu_1uuw4901wb972k-stroke">
    <g id="sy_2_cu_1uuw4901wb972k-stroke">
      <path class="st5" d="M143.7,132.1V50.3h184.1l-40.9,20.5v61.4h-143.2ZM184.6,29.8v20.5h-40.9s40.9-20.5,40.9-20.5Z"/>
    </g>
  </g>
  <g id="g-root-sy_3_cu_1uuw4901wb972l-stroke">
    <g id="sy_3_cu_1uuw4901wb972l-stroke">
      <path class="st5" d="M286.9,152.6v-81.8h184.1l-40.9,20.5v61.4h-143.2ZM327.8,50.3v20.5h-40.9l40.9-20.5Z"/>
    </g>
  </g>
  <g id="g-root-sy_4_cu_1qf2m4k1wb97uu-stroke">
    <g id="sy_4_cu_1qf2m4k1wb97uu-stroke">
      <path class="st5" d="M430.1,91.2v81.8h143.2v-61.4l40.9-20.5h-184.1ZM471,70.7v20.5h-40.9l40.9-20.5Z"/>
    </g>
  </g>
  <g id="g-root-sy_5_cu_1hjflvo1wb98nj-stroke">
    <g id="sy_5_cu_1hjflvo1wb98nj-stroke">
      <path class="st5" d="M573.3,193.5v-81.8h184.1l-40.9,20.5v61.4h-143.2ZM614.3,91.2v20.5h-40.9l40.9-20.5Z"/>
    </g>
  </g>
  <g id="g-root-sy_6_cu_1lz94041wb98n4-stroke">
    <g id="sy_6_cu_1lz94041wb98n4-stroke">
      <path class="st5" d="M716.5,213.9v-81.8h133v-10.2l40.9,51.1-40.9,52v-11.1h-133ZM757.5,111.7v20.5h-40.9l40.9-20.5Z"/>
    </g>
  </g>
  <g id="g-root-tx__1cu8zgk1wbakuh-fill">
    <g id="tx__1cu8zgk1wbakuh-fill">
      <g class="st3">
        <path class="st7" d="M87.4,16.3h-3.2V3.8h0l-3.6,2.2v-2.9l3.8-2.4h3.1v15.6h-.1Z"/>
      </g>
    </g>
  </g>
  <g class="st3">
    <path class="st7" d="M237.5,32.3l5.6-5.1c1.5-1.4,2.2-2.3,2.2-3.5s-1.1-2.2-2.5-2.2-2.4.9-2.4,2.4h-3.1c0-3.1,2.2-5,5.5-5s5.5,1.9,5.5,4.6-.9,3.2-4.1,6.1l-2.4,2.3h6.6v2.7h-11.1v-2.3h.2Z"/>
  </g>
  <g class="st3">
    <path class="st7" d="M390.8,48.7h3.3c0,1.2,1.2,1.9,2.7,1.9s2.7-.9,2.6-2.1c0-1.3-1.1-2.2-2.9-2.2h-1.4v-2.4h1.4c1.5,0,2.6-.8,2.6-2.1s-.9-2-2.3-2-2.5.8-2.6,2h-3.1c0-2.7,2.5-4.5,5.6-4.5s5.4,1.9,5.4,4.4-1.2,3-2.9,3.3h0c2.3.4,3.5,1.8,3.5,3.7,0,2.7-2.5,4.6-6,4.6s-5.9-1.9-5.9-4.6h0Z"/>
  </g>
  <g class="st3">
    <path class="st7" d="M533,66.2l6.6-10.2h4.1v10.2h2v2.6h-2v2.8h-3.1v-2.8h-7.6v-2.6h0ZM540.7,66.1v-6.7h-.2l-4.2,6.5h0c0,0,4.3,0,4.3,0h.1Z"/>
  </g>
  <g class="st3">
    <path class="st7" d="M685.9,85.5h3.1c0,1.2,1.2,2,2.5,2s2.8-1.1,2.8-2.8-1.2-2.8-2.8-2.8-2,.4-2.4,1.3h-2.9l.8-9h9.6v2.6h-6.9l-.4,3.9h0c.6-.8,1.7-1.3,3.1-1.3,2.9,0,5,2.1,5,5.1s-2.4,5.4-5.9,5.4-5.6-1.9-5.7-4.6v.2Z"/>
  </g>
  <g class="st3">
    <path class="st7" d="M808.4,100.9c0-5.2,2.5-8.4,6.4-8.4s5.3,2,5.6,4.5h-3.2c-.3-1.1-1.2-1.8-2.4-1.8-2.1,0-3.2,1.9-3.2,5h.2c.7-1.4,2.3-2.2,4-2.2,2.8,0,4.9,2.1,4.9,5s-2.4,5.4-5.9,5.4-6.3-1.9-6.3-7.6h0ZM817.4,103.2c0-1.5-1.1-2.8-2.7-2.8s-2.8,1.2-2.8,2.8,1.2,2.8,2.8,2.8,2.8-1.2,2.8-2.8h0Z"/>
  </g>
</svg>