<?xml version="1.0" encoding="utf-8"?>
<!-- Generator: Adobe Illustrator 16.0.0, SVG Export Plug-In . SVG Version: 6.00 Build 0)  -->
<!DOCTYPE svg PUBLIC "-//W3C//DTD SVG 1.1//EN" "http://www.w3.org/Graphics/SVG/1.1/DTD/svg11.dtd">
<svg version="1.1" id="Layer_1" xmlns="http://www.w3.org/2000/svg" xmlns:xlink="http://www.w3.org/1999/xlink" x="0px" y="0px"
	 width="1092px" height="672px" viewBox="30 0 1092 672" enable-background="new 30 0 1092 672" xml:space="preserve">
<g id="g-root-cp_0_g-0_1uonq2a1n621vq-fill" transform="translate(62.21098327636719, 265.9999694824219)">
</g>
<g id="g-root-cp_1_g-1_1_1uonq2a1n621vs-fill" transform="translate(56, 208.99996948242188)">
	<g id="cp_1_g-1_1_1uonq2a1n621vs-fill">
		<g>
			<path fill="#EDF4FF" d="M34,151c0,36.451,29.549,66,66,66s66-29.549,66-66s-29.549-66-66-66S34,114.549,34,151 M10,151
				c0,3.313,2.687,6,6,6s6-2.687,6-6s-2.687-6-6-6S10,147.687,10,151"/>
		</g>
	</g>
	<g id="cp_1_g-1_1_1uonq2a1n621vs-fill_1_">
		<g>
			<path fill="#EDF4FF" d="M109,19c0,4.971-4.029,9-9,9s-9-4.029-9-9s4.029-9,9-9S109,14.029,109,19z"/>
		</g>
	</g>
</g>
<g id="g-root-cp_2_g-2_1q8u7xu1n622o2-fill" transform="translate(224, 283.9999694824219)">
	<g id="cp_2_g-2_1q8u7xu1n622o2-fill">
		<g>
			<path fill="#E3FFF2" d="M34,76c0,36.451,29.549,66,66,66s66-29.549,66-66s-29.549-66-66-66S34,39.549,34,76 M10,76
				c0,3.313,2.687,6,6,6s6-2.687,6-6s-2.687-6-6-6S10,72.687,10,76"/>
		</g>
	</g>
	<g id="cp_2_g-2_1q8u7xu1n622o2-fill_1_">
		<g>
			<path fill="#E3FFF2" d="M109,208c0,4.971-4.029,9-9,9s-9-4.029-9-9s4.029-9,9-9S109,203.029,109,208z"/>
		</g>
	</g>
</g>
<g id="g-root-cp_3_g-3_1_1hdtos21n620b0-fill" transform="translate(392, 208.99996948242188)">
	<g id="cp_3_g-3_1_1hdtos21n620b0-fill">
		<g>
			<path fill="#F4FFDC" d="M34,151c0,36.451,29.549,66,66,66s66-29.549,66-66s-29.549-66-66-66S34,114.549,34,151 M10,151
				c0,3.313,2.687,6,6,6s6-2.687,6-6s-2.687-6-6-6S10,147.687,10,151"/>
		</g>
	</g>
	<g id="cp_3_g-3_1_1hdtos21n620b0-fill_1_">
		<g>
			<path fill="#F4FFDC" d="M109,19c0,4.971-4.029,9-9,9s-9-4.029-9-9s4.029-9,9-9S109,14.029,109,19z"/>
		</g>
	</g>
</g>
<g id="g-root-cp_4_g-4_1hdtos21n620b2-fill" transform="translate(560, 283.9999694824219)">
	<g id="cp_4_g-4_1hdtos21n620b2-fill">
		<g>
			<path fill="#E8F9FF" d="M34,76c0,36.451,29.549,66,66,66s66-29.549,66-66s-29.549-66-66-66S34,39.549,34,76 M10,76
				c0,3.313,2.687,6,6,6s6-2.687,6-6s-2.687-6-6-6S10,72.687,10,76"/>
		</g>
	</g>
	<g id="cp_4_g-4_1hdtos21n620b2-fill_1_">
		<g>
			<path fill="#E8F9FF" d="M109,208c0,4.971-4.029,9-9,9s-9-4.029-9-9s4.029-9,9-9S109,203.029,109,208z"/>
		</g>
	</g>
</g>
<g id="g-root-cp_5_g-5_1_1cy06nm1n6213c-fill" transform="translate(728, 208.99996948242188)">
	<g id="cp_5_g-5_1_1cy06nm1n6213c-fill">
		<g>
			<path fill="#F3F0FF" d="M34,151c0,36.451,29.549,66,66,66s66-29.549,66-66s-29.549-66-66-66S34,114.549,34,151 M10,151
				c0,3.313,2.687,6,6,6s6-2.687,6-6s-2.687-6-6-6S10,147.687,10,151"/>
		</g>
	</g>
	<g id="cp_5_g-5_1_1cy06nm1n6213c-fill_1_">
		<g>
			<path fill="#F3F0FF" d="M109,19c0,4.971-4.029,9-9,9s-9-4.029-9-9s4.029-9,9-9S109,14.029,109,19z"/>
		</g>
	</g>
</g>
<g id="g-root-cp_6_g-6_1cy06nm1n6213e-fill" transform="translate(896, 283.9999694824219)">
	<g id="cp_6_g-6_1cy06nm1n6213e-fill">
		<g>
			<path fill="#FFEBF7" d="M34,76c0,36.451,29.549,66,66,66s66-29.549,66-66s-29.549-66-66-66S34,39.549,34,76 M10,76
				c0,3.313,2.687,6,6,6s6-2.687,6-6s-2.687-6-6-6S10,72.687,10,76 M178,76c0,3.313,2.687,6,6,6s6-2.687,6-6s-2.687-6-6-6
				S178,72.687,178,76"/>
		</g>
	</g>
	<g id="cp_6_g-6_1cy06nm1n6213e-fill_1_">
		<g>
			<path fill="#FFEBF7" d="M109,208c0,4.971-4.029,9-9,9s-9-4.029-9-9s4.029-9,9-9S109,203.029,109,208z"/>
		</g>
	</g>
</g>
<g id="g-root-cp_-1_line_18i6oj61n621vo-fill" transform="translate(146, 226.99996948242188)">
</g>
<g id="g-root-cp_-1_line_1_18i6oj61n621vq-fill" transform="translate(482, 226.99996948242188)">
</g>
<g id="g-root-cp_-1_line_2_18i6oj61n621vs-fill" transform="translate(818, 226.99996948242188)">
</g>
<g id="g-root-cp_-1_line_3_142d6eq1n622o2-fill" transform="translate(314, 415.9999694824219)">
</g>
<g id="g-root-cp_-1_line_4_142d6eq1n622o4-fill" transform="translate(650, 415.9999694824219)">
</g>
<g id="g-root-cp_-1_line_5_142d6eq1n622o6-fill" transform="translate(986, 415.9999694824219)">
</g>
<g id="g-root-tx__58lgy1n6213i-fill" transform="translate(710, 157.99996948242188)">
	<g id="tx__58lgy1n6213i-fill">
		<g>
			<g enable-background="new    ">
				<path fill="#484848" d="M28.262,26.845H16.338v-0.967h5.361v-2.461h-3.867v-4.014h7.793v-2.051h-7.822V16.4h8.949v3.94h-7.777
					v2.124h8.086v0.952h-4.234v2.461h5.436V26.845z"/>
				<path fill="#484848" d="M32.025,17.25h6.445v-1.465h1.143v4.775h-3.809v1.494h5.361v0.923H29.301v-0.923h5.377v-1.494h-3.795
					v-4.775h1.143V17.25z M40.258,27.504l-0.439,0.894c-1.999-0.329-3.809-1.237-4.584-2.637c-0.784,1.399-2.594,2.308-4.57,2.637
					l-0.439-0.894c2.344-0.322,4.424-1.597,4.424-3.296v-0.366h1.156v0.366C35.805,25.907,37.885,27.182,40.258,27.504z
					 M38.471,19.652v-1.494h-6.445v1.494H38.471z"/>
				<path fill="#484848" d="M54.189,24.574l-0.703,0.908c-1.48-0.725-2.762-2.256-3.385-4.116c-0.607,1.97-1.889,3.61-3.412,4.38
					l-0.732-0.967c1.934-0.894,3.545-3.369,3.559-5.845v-2.373h1.143v2.373C50.645,21.308,52.27,23.71,54.189,24.574z
					 M56.768,28.485h-1.158V15.434h1.158V28.485z"/>
				<path fill="#484848" d="M70.918,26.684H58.994v-0.952h11.924V26.684z M70.303,21.996l-0.527,0.967
					c-1.963-0.454-4.036-1.854-4.879-3.779c-0.842,1.919-2.907,3.318-4.877,3.779l-0.527-0.967c2.256-0.439,4.789-2.402,4.789-4.644
					v-0.996h1.201v0.996C65.482,19.579,68.031,21.571,70.303,21.996z"/>
				<path fill="#484848" d="M77.539,17.25h-3.867v1.611h3.324v0.908h-3.324v1.772c1.882-0.007,3.054-0.073,4.453-0.337l0.117,0.923
					c-1.51,0.278-2.74,0.352-4.85,0.352h-0.82v-6.196h4.967V17.25z M83.018,28.28h-8.6v-4.395h8.6V28.28z M75.547,27.343h6.342
					v-2.52h-6.342V27.343z M80.482,23.168h-1.113v-3.501h-1.758v-0.952h1.758v-3.047h1.113V23.168z M83.018,23.285h-1.1v-7.852h1.1
					V23.285z"/>
				<path fill="#484848" d="M96.787,22.011H84.922v-0.938h11.865V22.011z M95.453,17.909c0,1.479-1.699,2.271-4.6,2.285
					c-2.9-0.015-4.613-0.806-4.613-2.285c0-1.45,1.713-2.241,4.613-2.241S95.453,16.459,95.453,17.909z M95.264,26.054h-7.734v1.348
					h8.129v0.908h-9.271v-3.105h7.748v-1.187h-7.777v-0.879h8.906V26.054z M87.441,17.909c-0.016,0.908,1.244,1.406,3.412,1.406
					c2.154,0,3.428-0.498,3.428-1.406c0-0.85-1.273-1.377-3.428-1.377C88.686,16.532,87.426,17.06,87.441,17.909z"/>
				<path fill="#484848" d="M109.326,20.985l-0.615,0.894c-1.443-0.513-2.594-1.538-3.164-2.856
					c-0.557,1.487-1.736,2.622-3.281,3.179l-0.631-0.923c1.963-0.645,3.311-2.285,3.326-4.189v-1.23h1.127v1.23
					C106.074,18.803,107.422,20.355,109.326,20.985z M112.445,25.937h-7.279v1.421h7.764v0.923h-8.893v-3.223h7.266v-1.304h-7.295
					v-0.923h8.438V25.937z M112.445,22.172h-1.156v-3.384h-2.9v-0.952h2.9v-2.402h1.156V22.172z"/>
				<path fill="#484848" d="M122.904,24.809l-0.645,0.894c-1.501-0.667-2.775-2.08-3.383-3.809
					c-0.586,1.831-1.854,3.333-3.355,4.043l-0.645-0.894c1.934-0.879,3.414-3.076,3.414-5.361v-1.04h-3.063v-0.938h3.047v-2.021
					h1.143v2.021h3.033v0.938h-3.033v1.04C119.418,21.864,120.941,23.974,122.904,24.809z M125.352,28.456h-1.158V15.434h1.158
					V28.456z"/>
				<path fill="#484848" d="M135.254,18.48h-7.75v-0.952h3.355v-1.934h1.143v1.934h3.252V18.48z M134.639,22.553
					c-0.016,1.758-1.348,2.988-3.193,2.988c-1.861,0-3.209-1.23-3.193-2.988c-0.016-1.758,1.332-2.988,3.193-2.988
					C133.291,19.564,134.623,20.795,134.639,22.553z M129.35,22.553c-0.014,1.187,0.879,2.021,2.096,2.007
					c1.201,0.015,2.08-0.82,2.094-2.007c-0.014-1.172-0.893-2.021-2.094-2.021C130.229,20.531,129.336,21.381,129.35,22.553z
					 M137.656,20.81h2.182v0.952h-2.182v6.694h-1.143V15.434h1.143V20.81z"/>
				<path fill="#484848" d="M152.406,26.61h-11.865v-0.952h4.658V21h1.129v4.658h6.078V26.61z M150.986,18.056
					c-0.016,1.597-0.016,3.384-0.484,6.006l-1.172-0.132c0.498-2.49,0.498-4.321,0.498-5.874v-0.352h-8.027v-0.952h9.186V18.056z"/>
				<path fill="#484848" d="M169.18,23.813h-3.15v4.644h-1.156v-4.644h-3.34v4.644h-1.188v-4.644h-3.09V22.86h11.924V23.813z
					 M167.773,18.803c0,1.729-1.846,2.827-4.586,2.813c-2.738,0.015-4.584-1.084-4.584-2.813c0-1.743,1.846-2.842,4.584-2.842
					C165.928,15.961,167.773,17.06,167.773,18.803z M159.789,18.803c-0.014,1.157,1.363,1.89,3.398,1.89
					c2.021,0,3.414-0.732,3.414-1.89s-1.393-1.904-3.414-1.904C161.152,16.898,159.775,17.646,159.789,18.803z"/>
				<path fill="#484848" d="M178.422,24.721l-0.645,0.908c-1.523-0.695-2.842-2.197-3.441-3.999
					c-0.615,1.911-1.927,3.574-3.414,4.321l-0.688-0.908c1.859-0.894,3.486-3.354,3.5-5.61v-1.699h-3.076v-0.952h7.34v0.952h-3.105
					v1.699C174.893,21.645,176.504,23.886,178.422,24.721z M180.971,28.456h-1.156V15.434h1.156V28.456z"/>
				<path fill="#484848" d="M187.064,22.128c1.443-0.059,2.938-0.161,4.293-0.352l0.072,0.85c-2.725,0.469-5.873,0.527-8.188,0.527
					l-0.117-0.952c0.842-0.008,1.794-0.015,2.797-0.044V19.33h1.143V22.128z M190.42,17.133c-0.016,0.85-0.016,2.153-0.338,3.853
					l-1.156-0.088c0.314-1.56,0.344-2.666,0.365-3.486h-5.361v-0.967h6.49V17.133z M193.832,28.178h-8.701v-3.823h1.158v2.856h7.543
					V28.178z M193.408,19.682h1.904v0.981h-1.904v4.57h-1.172v-9.8h1.172V19.682z"/>
				<path fill="#484848" d="M202.959,21.278h-4.863v3.076c2.16,0,4.086-0.095,6.416-0.469l0.117,0.967
					c-2.402,0.381-4.381,0.469-6.621,0.469h-1.084v-4.98h4.877v-2.739h-4.906v-0.952h6.064V21.278z M206.914,28.485h-1.143V15.434
					h1.143V28.485z"/>
			</g>
			<g enable-background="new    ">
				<path fill="#484848" d="M103.641,35.733h-7.764v-0.952h3.311v-1.465h1.143v1.465h3.311V35.733z M102.893,38.619
					c-0.014,1.392-1.26,2.285-3.135,2.285c-1.889,0-3.148-0.894-3.135-2.285c-0.014-1.392,1.246-2.285,3.135-2.285
					C101.633,36.334,102.879,37.228,102.893,38.619z M97.723,38.619c-0.016,0.85,0.805,1.406,2.035,1.406
					c1.217,0,2.037-0.557,2.051-1.406c-0.014-0.835-0.834-1.406-2.051-1.392C98.527,37.213,97.707,37.784,97.723,38.619z
					 M98.938,42.97h5.947v-1.392h1.143v4.702h-8.232v-4.702h1.143V42.97z M104.885,45.357v-1.479h-5.947v1.479H104.885z
					 M106.027,36.773h1.963v0.981h-1.963v3.252h-1.143v-7.573h1.143V36.773z"/>
				<path fill="#484848" d="M110.789,42.105c1.984-0.008,4.043-0.168,6.225-0.63l0.162,0.981c-2.314,0.483-4.381,0.645-6.461,0.645
					h-1.055v-8.379h1.129V42.105z M119.549,46.456h-1.143V33.434h1.143V46.456z"/>
				<path fill="#484848" d="M128.426,35.66h-4.938v6.592c2.359,0,4.029-0.109,5.963-0.469l0.146,0.996
					c-2.037,0.366-3.75,0.439-6.227,0.439h-1.025v-8.511h6.08V35.66z M131.854,38.59h2.182v0.967h-2.182v6.929h-1.143V33.434h1.143
					V38.59z"/>
				<path fill="#484848" d="M135.178,44.405c-0.014-0.513,0.426-0.938,0.938-0.938c0.514,0,0.938,0.425,0.938,0.938
					c0,0.527-0.424,0.952-0.938,0.952C135.604,45.357,135.164,44.933,135.178,44.405z"/>
			</g>
		</g>
	</g>
</g>
<g id="g-root-tx__dg2mr61n622oc-fill" transform="translate(374, 157.99996948242188)">
	<g id="tx__dg2mr61n622oc-fill">
		<g>
			<g enable-background="new    ">
				<path fill="#484848" d="M26.401,26.845H14.478v-0.967h5.361v-2.461h-3.867v-4.014h7.793v-2.051h-7.822V16.4h8.95v3.94h-7.778
					v2.124H25.2v0.952h-4.233v2.461h5.435V26.845z"/>
				<path fill="#484848" d="M30.166,17.25h6.445v-1.465h1.143v4.775h-3.809v1.494h5.361v0.923H27.441v-0.923h5.376v-1.494h-3.794
					v-4.775h1.143V17.25z M38.398,27.504l-0.439,0.894c-2-0.329-3.809-1.237-4.585-2.637c-0.784,1.399-2.593,2.308-4.57,2.637
					l-0.439-0.894c2.344-0.322,4.424-1.597,4.424-3.296v-0.366h1.157v0.366C33.945,25.907,36.025,27.182,38.398,27.504z
					 M36.611,19.652v-1.494h-6.445v1.494H36.611z"/>
				<path fill="#484848" d="M52.271,22.011H40.405v-0.938h11.865V22.011z M50.938,17.909c0,1.479-1.699,2.271-4.6,2.285
					c-2.9-0.015-4.614-0.806-4.614-2.285c0-1.45,1.714-2.241,4.614-2.241S50.938,16.459,50.938,17.909z M50.747,26.054h-7.734v1.348
					h8.13v0.908H41.87v-3.105h7.749v-1.187h-7.778v-0.879h8.906V26.054z M42.925,17.909c-0.015,0.908,1.245,1.406,3.413,1.406
					c2.153,0,3.428-0.498,3.428-1.406c0-0.85-1.274-1.377-3.428-1.377C44.17,16.532,42.91,17.06,42.925,17.909z"/>
				<path fill="#484848" d="M63.77,24.691l-0.703,0.85c-1.282-0.77-2.19-2.176-2.637-3.838c-0.476,1.795-1.421,3.325-2.725,4.146
					l-0.732-0.864c1.816-1.084,2.871-3.457,2.871-5.83v-1.23h-2.505v-0.952h6.006v0.952h-2.388v1.23
					C60.957,21.41,61.968,23.651,63.77,24.691z M65.63,27.782h-1.084v-6.709h-2.197v-0.938h2.197v-4.38h1.084V27.782z
					 M68.267,28.456h-1.099V15.434h1.099V28.456z"/>
				<path fill="#484848" d="M76.836,20.414h2.915v-4.98h1.143v13.052h-1.143v-7.119h-2.9c-0.139,2.549-1.436,4.146-3.252,4.146
					c-1.919,0-3.267-1.758-3.267-4.526s1.348-4.526,3.267-4.541C75.371,16.459,76.646,17.975,76.836,20.414z M71.431,20.985
					c0,2.124,0.879,3.501,2.168,3.501c1.274,0,2.168-1.377,2.168-3.501s-0.894-3.501-2.168-3.516
					C72.31,17.484,71.431,18.861,71.431,20.985z"/>
				<path fill="#484848" d="M90.737,18.48h-7.749v-0.952h3.354v-1.934h1.143v1.934h3.252V18.48z M90.122,22.553
					c-0.015,1.758-1.348,2.988-3.193,2.988c-1.86,0-3.208-1.23-3.193-2.988c-0.015-1.758,1.333-2.988,3.193-2.988
					C88.774,19.564,90.107,20.795,90.122,22.553z M84.834,22.553c-0.015,1.187,0.879,2.021,2.095,2.007
					c1.201,0.015,2.08-0.82,2.095-2.007c-0.015-1.172-0.894-2.021-2.095-2.021C85.713,20.531,84.819,21.381,84.834,22.553z
					 M93.14,20.81h2.183v0.952H93.14v6.694h-1.143V15.434h1.143V20.81z"/>
				<path fill="#484848" d="M96.816,26.01l-0.63-0.938c3.523-1.67,5.317-4.168,5.581-7.28h-4.98v-0.938h6.152
					C102.925,20.604,101.182,23.915,96.816,26.01z M106.792,28.456h-1.157V15.434h1.157V28.456z"/>
				<path fill="#484848" d="M121.411,22.04l0.073,0.864c-1.245,0.227-2.542,0.366-3.794,0.439v4.717h-1.143v-4.644
					c-1.326,0.059-2.578,0.065-3.662,0.073l-0.161-0.981C115.171,22.509,118.511,22.465,121.411,22.04z M120.386,18.729
					c0,1.582-1.392,2.681-3.34,2.666c-1.948,0.015-3.34-1.084-3.34-2.666c0-1.597,1.392-2.666,3.34-2.651
					C118.994,16.063,120.386,17.133,120.386,18.729z M114.834,18.729c-0.015,1.025,0.908,1.729,2.212,1.714
					c1.318,0.015,2.241-0.688,2.241-1.714c0-1.011-0.923-1.729-2.241-1.714C115.742,17.001,114.819,17.719,114.834,18.729z
					 M123.491,28.471h-1.128V15.448h1.128V28.471z"/>
				<path fill="#484848" d="M133.511,17.982h-7.764v-0.938h3.311v-1.597h1.143v1.597h3.311V17.982z M132.764,21.132
					c-0.015,1.465-1.274,2.402-3.135,2.402c-1.875,0-3.149-0.938-3.135-2.402c-0.015-1.479,1.26-2.432,3.135-2.432
					C131.489,18.7,132.749,19.652,132.764,21.132z M127.593,21.132c-0.015,0.923,0.806,1.509,2.036,1.494
					c1.216,0.015,2.036-0.571,2.051-1.494c-0.015-0.923-0.835-1.523-2.051-1.523C128.398,19.608,127.578,20.209,127.593,21.132z
					 M136.499,28.178h-8.745v-3.75h1.128v2.783h7.617V28.178z M135.898,19.74h1.963v0.967h-1.963v4.497h-1.143v-9.756h1.143V19.74z"
					/>
				<path fill="#484848" d="M150.605,24.574l-0.703,0.908c-1.479-0.725-2.761-2.256-3.384-4.116c-0.608,1.97-1.89,3.61-3.413,4.38
					l-0.732-0.967c1.934-0.894,3.545-3.369,3.56-5.845v-2.373h1.143v2.373C147.061,21.308,148.687,23.71,150.605,24.574z
					 M153.184,28.485h-1.157V15.434h1.157V28.485z"/>
				<path fill="#484848" d="M167.334,26.684H155.41v-0.952h11.924V26.684z M166.719,21.996l-0.527,0.967
					c-1.963-0.454-4.036-1.854-4.878-3.779c-0.842,1.919-2.908,3.318-4.878,3.779l-0.527-0.967c2.256-0.439,4.79-2.402,4.79-4.644
					v-0.996h1.201v0.996C161.899,19.579,164.448,21.571,166.719,21.996z"/>
				<path fill="#484848" d="M173.955,17.25h-3.867v1.611h3.325v0.908h-3.325v1.772c1.882-0.007,3.054-0.073,4.453-0.337l0.117,0.923
					c-1.509,0.278-2.739,0.352-4.849,0.352h-0.82v-6.196h4.966V17.25z M179.434,28.28h-8.599v-4.395h8.599V28.28z M171.963,27.343
					h6.343v-2.52h-6.343V27.343z M176.899,23.168h-1.113v-3.501h-1.758v-0.952h1.758v-3.047h1.113V23.168z M179.434,23.285h-1.099
					v-7.852h1.099V23.285z"/>
				<path fill="#484848" d="M193.203,22.011h-11.865v-0.938h11.865V22.011z M191.87,17.909c0,1.479-1.699,2.271-4.6,2.285
					c-2.9-0.015-4.614-0.806-4.614-2.285c0-1.45,1.714-2.241,4.614-2.241S191.87,16.459,191.87,17.909z M191.68,26.054h-7.734v1.348
					h8.13v0.908h-9.272v-3.105h7.749v-1.187h-7.778v-0.879h8.906V26.054z M183.857,17.909c-0.015,0.908,1.245,1.406,3.413,1.406
					c2.153,0,3.428-0.498,3.428-1.406c0-0.85-1.274-1.377-3.428-1.377C185.103,16.532,183.843,17.06,183.857,17.909z"/>
				<path fill="#484848" d="M205.742,20.985l-0.615,0.894c-1.443-0.513-2.593-1.538-3.164-2.856
					c-0.557,1.487-1.736,2.622-3.281,3.179l-0.63-0.923c1.963-0.645,3.311-2.285,3.325-4.189v-1.23h1.128v1.23
					C202.49,18.803,203.838,20.355,205.742,20.985z M208.862,25.937h-7.28v1.421h7.764v0.923h-8.892v-3.223h7.266v-1.304h-7.295
					v-0.923h8.438V25.937z M208.862,22.172h-1.157v-3.384h-2.9v-0.952h2.9v-2.402h1.157V22.172z"/>
			</g>
			<g enable-background="new    ">
				<path fill="#484848" d="M96.672,39.791l-0.601,0.923c-1.465-0.527-2.6-1.618-3.149-2.974c-0.571,1.531-1.78,2.754-3.325,3.34
					l-0.601-0.923c1.934-0.703,3.311-2.461,3.311-4.321v-0.483h-2.944v-0.967h7.017v0.967h-2.915v0.469
					C93.464,37.521,94.768,39.132,96.672,39.791z M99.777,44.024c0,1.538-1.655,2.417-4.365,2.432
					c-2.71-0.015-4.365-0.894-4.365-2.432s1.655-2.417,4.365-2.417S99.777,42.486,99.777,44.024z M92.189,44.024
					c-0.015,0.938,1.23,1.509,3.223,1.509s3.223-0.571,3.223-1.509c0-0.952-1.23-1.523-3.223-1.523S92.175,43.072,92.189,44.024z
					 M99.733,41.197h-1.157v-3.413h-2.622v-0.952h2.622v-3.398h1.157V41.197z"/>
				<path fill="#484848" d="M109.694,35.733h-7.764v-0.952h3.311v-1.465h1.143v1.465h3.311V35.733z M108.947,38.619
					c-0.015,1.392-1.26,2.285-3.135,2.285c-1.89,0-3.149-0.894-3.135-2.285c-0.015-1.392,1.245-2.285,3.135-2.285
					C107.688,36.334,108.933,37.228,108.947,38.619z M103.776,38.619c-0.015,0.85,0.806,1.406,2.036,1.406
					c1.216,0,2.036-0.557,2.051-1.406c-0.015-0.835-0.835-1.406-2.051-1.392C104.582,37.213,103.762,37.784,103.776,38.619z
					 M104.992,42.97h5.947v-1.392h1.143v4.702h-8.232v-4.702h1.143V42.97z M110.939,45.357v-1.479h-5.947v1.479H110.939z
					 M112.082,36.773h1.963v0.981h-1.963v3.252h-1.143v-7.573h1.143V36.773z"/>
				<path fill="#484848" d="M116.843,42.105c1.985-0.008,4.043-0.168,6.226-0.63l0.161,0.981c-2.314,0.483-4.38,0.645-6.46,0.645
					h-1.055v-8.379h1.128V42.105z M125.603,46.456h-1.143V33.434h1.143V46.456z"/>
				<path fill="#484848" d="M134.479,35.66h-4.937v6.592c2.358,0,4.028-0.109,5.962-0.469l0.146,0.996
					c-2.036,0.366-3.75,0.439-6.226,0.439H128.4v-8.511h6.079V35.66z M137.907,38.59h2.183v0.967h-2.183v6.929h-1.143V33.434h1.143
					V38.59z"/>
				<path fill="#484848" d="M141.232,44.405c-0.015-0.513,0.425-0.938,0.938-0.938s0.938,0.425,0.938,0.938
					c0,0.527-0.425,0.952-0.938,0.952S141.218,44.933,141.232,44.405z"/>
			</g>
		</g>
	</g>
</g>
<g id="g-root-tx__mbpn021n621vm-fill" transform="translate(38, 157.99996948242188)">
	<g id="tx__mbpn021n621vm-fill">
		<g>
			<g enable-background="new    ">
				<path fill="#484848" d="M26.343,26.61H14.478v-0.952h4.658V21h1.128v4.658h6.079V26.61z M24.922,18.056
					c-0.015,1.597-0.015,3.384-0.483,6.006l-1.172-0.132c0.498-2.49,0.498-4.321,0.498-5.874v-0.352h-8.027v-0.952h9.185V18.056z"/>
				<path fill="#484848" d="M28.086,23.271l-0.571-0.864c2.703-1.105,4.233-2.863,4.453-5.054h-3.926V16.4h5.112
					C33.154,19.506,31.396,21.864,28.086,23.271z M38.501,28.456h-1.128v-3.794h-7.661v-0.938h8.789V28.456z M38.501,23.124h-1.099
					v-3.442H35.63v3.354h-1.099v-7.339h1.099v3.032h1.772v-3.281h1.099V23.124z"/>
				<path fill="#484848" d="M49.077,24.193l0.088,0.85c-2.974,0.557-6.182,0.571-8.525,0.571l-0.161-0.981
					C42.881,24.633,46.191,24.618,49.077,24.193z M48.169,19.447c0,1.816-1.45,3.062-3.501,3.062s-3.53-1.245-3.516-3.062
					c-0.015-1.816,1.465-3.062,3.516-3.062S48.169,17.631,48.169,19.447z M42.28,19.447c-0.015,1.216,0.996,2.051,2.388,2.051
					c1.377,0,2.373-0.835,2.373-2.051s-0.996-2.051-2.373-2.051C43.276,17.396,42.266,18.231,42.28,19.447z M51.084,28.485h-1.143
					V15.434h1.143V28.485z"/>
				<path fill="#484848" d="M68.999,23.256h-11.88v-0.923h11.88V23.256z M67.461,28.456h-1.172v-3.003h-7.837V24.53h9.009V28.456z
					 M67.593,21.073h-8.892v-5.288h8.818v0.923h-7.661v1.245h7.31v0.894h-7.31v1.333h7.734V21.073z"/>
				<path fill="#484848" d="M77.832,21.791l-0.601,0.923c-1.465-0.527-2.6-1.618-3.149-2.974c-0.571,1.531-1.78,2.754-3.325,3.34
					l-0.601-0.923c1.934-0.703,3.311-2.461,3.311-4.321v-0.483h-2.944v-0.967h7.017v0.967h-2.915v0.469
					C74.624,19.521,75.928,21.132,77.832,21.791z M80.938,26.024c0,1.538-1.655,2.417-4.365,2.432
					c-2.71-0.015-4.365-0.894-4.365-2.432s1.655-2.417,4.365-2.417S80.938,24.486,80.938,26.024z M73.35,26.024
					c-0.015,0.938,1.23,1.509,3.223,1.509s3.223-0.571,3.223-1.509c0-0.952-1.23-1.523-3.223-1.523S73.335,25.072,73.35,26.024z
					 M80.894,23.197h-1.157v-3.413h-2.622v-0.952h2.622v-3.398h1.157V23.197z"/>
				<path fill="#484848" d="M98.75,26.786H86.826v-0.967h2.959v-3.516c-1.113-0.579-1.787-1.517-1.787-2.695
					c0-2.021,1.978-3.34,4.761-3.354c2.783,0.015,4.761,1.333,4.761,3.354c0,1.157-0.652,2.087-1.729,2.666v3.545h2.959V26.786z
					 M89.111,19.608c0,1.45,1.509,2.432,3.647,2.432c2.124,0,3.647-0.981,3.647-2.432s-1.523-2.417-3.647-2.402
					C90.62,17.191,89.111,18.158,89.111,19.608z M94.634,25.819v-3.105c-0.564,0.153-1.194,0.234-1.875,0.234
					c-0.667,0-1.289-0.073-1.846-0.22v3.091H94.634z"/>
				<path fill="#484848" d="M110.088,17.426c0,1.238,0,2.578-0.366,4.453h1.934v0.952h-5.376v5.654h-1.157v-5.654H99.79v-0.952h8.76
					c0.396-1.875,0.396-3.244,0.396-4.453v-0.19h-7.661v-0.952h8.804V17.426z"/>
				<path fill="#484848" d="M124.253,24.501l-0.703,0.923c-1.436-0.754-2.637-2.293-3.208-4.102
					c-0.586,1.926-1.816,3.566-3.281,4.351l-0.732-0.923c1.904-0.938,3.413-3.442,3.428-5.815v-2.373h1.128v2.373
					C120.884,21.234,122.407,23.593,124.253,24.501z M126.597,20.722h2.183v0.996h-2.183v6.738h-1.143V15.434h1.143V20.722z"/>
				<path fill="#484848" d="M137.275,17.836h-7.764v-0.908h3.311v-1.597h1.143v1.597h3.311V17.836z M136.528,20.81
					c-0.015,1.406-1.26,2.3-3.135,2.3c-1.89,0-3.149-0.894-3.135-2.3c-0.015-1.392,1.245-2.3,3.135-2.3
					C135.269,18.51,136.514,19.418,136.528,20.81z M139.81,26.186c0,1.421-1.611,2.241-4.263,2.241s-4.277-0.82-4.263-2.241
					c-0.015-1.421,1.611-2.256,4.263-2.256S139.81,24.765,139.81,26.186z M131.357,20.81c-0.015,0.85,0.806,1.406,2.036,1.406
					c1.216,0,2.036-0.557,2.051-1.406c-0.015-0.85-0.835-1.421-2.051-1.436C132.163,19.389,131.343,19.96,131.357,20.81z
					 M132.427,26.186c-0.015,0.85,1.172,1.348,3.12,1.348s3.12-0.498,3.12-1.348c0-0.864-1.172-1.348-3.12-1.348
					S132.412,25.321,132.427,26.186z M139.663,19.066h1.963v0.981h-1.963v3.794h-1.143v-8.408h1.143V19.066z"/>
				<path fill="#484848" d="M154.312,22.011h-11.865v-0.938h11.865V22.011z M152.979,17.909c0,1.479-1.699,2.271-4.6,2.285
					c-2.9-0.015-4.614-0.806-4.614-2.285c0-1.45,1.714-2.241,4.614-2.241S152.979,16.459,152.979,17.909z M152.788,26.054h-7.734
					v1.348h8.13v0.908h-9.272v-3.105h7.749v-1.187h-7.778v-0.879h8.906V26.054z M144.966,17.909
					c-0.015,0.908,1.245,1.406,3.413,1.406c2.153,0,3.428-0.498,3.428-1.406c0-0.85-1.274-1.377-3.428-1.377
					C146.211,16.532,144.951,17.06,144.966,17.909z"/>
				<path fill="#484848" d="M166.309,20.985c0,2.769-1.392,4.526-3.325,4.526c-1.948,0-3.325-1.758-3.325-4.526
					s1.377-4.526,3.325-4.541C164.917,16.459,166.309,18.217,166.309,20.985z M160.771,20.985c0,2.124,0.908,3.501,2.212,3.501
					s2.212-1.377,2.212-3.501s-0.908-3.501-2.212-3.516C161.68,17.484,160.771,18.861,160.771,20.985z M169.912,28.485h-1.157
					V15.434h1.157V28.485z"/>
				<path fill="#484848" d="M178.643,18.627h-6.533v-0.938h2.71v-1.86h1.143v1.86h2.681V18.627z M178.203,22.465
					c-0.015,1.743-1.187,2.988-2.827,2.988c-1.626,0-2.798-1.245-2.798-2.988c0-1.729,1.172-2.959,2.798-2.959
					C177.017,19.506,178.188,20.736,178.203,22.465z M173.604,22.465c0,1.157,0.747,1.992,1.772,1.978
					c1.04,0.015,1.802-0.82,1.802-1.978c0-1.143-0.762-1.978-1.802-1.992C174.351,20.487,173.604,21.322,173.604,22.465z
					 M183.228,28.456h-1.099v-6.577H180.4v5.933h-1.084V15.756h1.084v5.171h1.729v-5.493h1.099V28.456z"/>
				<path fill="#484848" d="M192.896,17.733h-7.764v-0.952h3.311v-1.465h1.143v1.465h3.311V17.733z M192.148,20.619
					c-0.015,1.392-1.26,2.285-3.135,2.285c-1.89,0-3.149-0.894-3.135-2.285c-0.015-1.392,1.245-2.285,3.135-2.285
					C190.889,18.334,192.134,19.228,192.148,20.619z M186.978,20.619c-0.015,0.85,0.806,1.406,2.036,1.406
					c1.216,0,2.036-0.557,2.051-1.406c-0.015-0.835-0.835-1.406-2.051-1.392C187.783,19.213,186.963,19.784,186.978,20.619z
					 M188.193,24.97h5.947v-1.392h1.143v4.702h-8.232v-4.702h1.143V24.97z M194.141,27.357v-1.479h-5.947v1.479H194.141z
					 M195.283,18.773h1.963v0.981h-1.963v3.252h-1.143v-7.573h1.143V18.773z"/>
				<path fill="#484848" d="M200.044,24.105c1.985-0.008,4.043-0.168,6.226-0.63l0.161,0.981c-2.314,0.483-4.38,0.645-6.46,0.645
					h-1.055v-8.379h1.128V24.105z M208.804,28.456h-1.143V15.434h1.143V28.456z"/>
			</g>
			<g enable-background="new    ">
				<path fill="#484848" d="M116.298,35.66h-4.937v6.592c2.358,0,4.028-0.109,5.962-0.469l0.146,0.996
					c-2.036,0.366-3.75,0.439-6.226,0.439h-1.025v-8.511h6.079V35.66z M119.726,38.59h2.183v0.967h-2.183v6.929h-1.143V33.434h1.143
					V38.59z"/>
				<path fill="#484848" d="M123.051,44.405c-0.015-0.513,0.425-0.938,0.938-0.938s0.938,0.425,0.938,0.938
					c0,0.527-0.425,0.952-0.938,0.952S123.036,44.933,123.051,44.405z"/>
			</g>
		</g>
	</g>
</g>
<g id="g-root-tx__90vlpu1n620at-fill" transform="translate(746, 122)">
	<g id="tx__90vlpu1n620at-fill">
		<g>
			<g enable-background="new    ">
				<path fill="#7F64EA" d="M23.567,25.261l-0.82,1.191c-1.924-0.684-3.457-2.051-4.219-3.809c-0.742,1.982-2.314,3.496-4.375,4.238
					l-0.84-1.23c2.617-0.859,4.414-3.047,4.434-5.586v-1.641h1.504v1.641C19.231,22.351,21.028,24.421,23.567,25.261z
					 M27.728,31.862h-9.707v1.895h10.352v1.23H16.517V30.69h9.688v-1.738h-9.727v-1.23h11.25V31.862z M27.728,26.843h-1.543v-4.512
					h-3.867v-1.27h3.867v-3.203h1.543V26.843z"/>
				<path fill="#7F64EA" d="M41.673,30.358l-0.859,1.191c-2.002-0.889-3.701-2.773-4.512-5.078
					c-0.781,2.441-2.471,4.443-4.473,5.391l-0.859-1.191c2.578-1.172,4.551-4.102,4.551-7.148v-1.387h-4.082v-1.25h4.063V18.19
					h1.523v2.695h4.043v1.25h-4.043v1.387C37.024,26.433,39.056,29.245,41.673,30.358z M44.935,35.222h-1.543V17.858h1.543V35.222z"
					/>
				<path fill="#7F64EA" d="M61.985,26.062h-8.145v-7.07h8.145V26.062z M68.294,33.972l-0.527,1.191
					c-2.617-0.352-5-1.582-6.016-3.203c-1.055,1.65-3.496,2.852-6.113,3.203l-0.547-1.191c2.988-0.332,5.859-2.012,5.859-3.75
					h-5.137V29.03h5.156v-1.699h1.523v1.699h5.195v1.191h-5.156C62.532,31.921,65.306,33.601,68.294,33.972z M55.345,24.851h5.137
					v-4.609h-5.137V24.851z M67.239,27.839h-1.504v-9.98h1.504V27.839z"/>
				<path fill="#7F64EA" d="M91.106,29.03h-4.199v6.191h-1.543V29.03h-4.453v6.191h-1.582V29.03h-4.121v-1.27h15.898V29.03z
					 M89.231,22.351c0,2.305-2.461,3.77-6.113,3.75c-3.652,0.02-6.113-1.445-6.113-3.75c0-2.324,2.461-3.789,6.113-3.789
					S89.231,20.026,89.231,22.351z M78.587,22.351c-0.02,1.543,1.816,2.52,4.531,2.52c2.695,0,4.551-0.977,4.551-2.52
					s-1.855-2.539-4.551-2.539C80.403,19.812,78.567,20.808,78.587,22.351z"/>
				<path fill="#7F64EA" d="M103.431,30.241l-0.859,1.211c-2.031-0.928-3.789-2.93-4.59-5.332c-0.82,2.549-2.568,4.766-4.551,5.762
					l-0.918-1.211c2.48-1.191,4.648-4.473,4.668-7.48v-2.266h-4.102v-1.27h9.785v1.27h-4.141v2.266
					C98.724,26.14,100.872,29.128,103.431,30.241z M106.829,35.222h-1.543V17.858h1.543V35.222z"/>
				<path fill="#7F64EA" d="M114.954,26.784c1.924-0.078,3.916-0.215,5.723-0.469l0.098,1.133
					c-3.633,0.625-7.832,0.703-10.918,0.703l-0.156-1.27c1.123-0.01,2.393-0.02,3.73-0.059v-3.77h1.523V26.784z M119.427,20.124
					c-0.02,1.133-0.02,2.871-0.449,5.137l-1.543-0.117c0.42-2.08,0.459-3.555,0.488-4.648h-7.148v-1.289h8.652V20.124z
					 M123.978,34.851h-11.602v-5.098h1.543v3.809h10.059V34.851z M123.411,23.522h2.539v1.309h-2.539v6.094h-1.563V17.858h1.563
					V23.522z"/>
				<path fill="#7F64EA" d="M136.146,25.651h-6.484v4.102c2.881,0,5.449-0.127,8.555-0.625l0.156,1.289
					c-3.203,0.508-5.84,0.625-8.828,0.625h-1.445v-6.641h6.504v-3.652h-6.543v-1.27h8.086V25.651z M141.419,35.261h-1.523V17.858
					h1.523V35.261z"/>
			</g>
		</g>
	</g>
</g>
<g id="g-root-ic_cycl_1uqj5bm1n621on-fill" transform="translate(116, 319.9999694824219)">
</g>
<g id="g-root-ic_code_4j6rhu1n5gydk-fill" transform="translate(284, 319.9999694824219)">
</g>
<g id="g-root-ic_add_1hbycoi1n5icjl-fill" transform="translate(452, 319.9999694824219)">
</g>
<g id="g-root-ic_comp_1cu9faq1n5jrpe-fill" transform="translate(620, 319.9999694824219)">
</g>
<g id="g-root-ic_chec_1lxe4ky1n5jtvn-fill" transform="translate(788, 319.9999694824219)">
</g>
<g id="g-root-ic_incr_1lvipbm1n5l898-fill" transform="translate(956, 319.9999694824219)">
</g>
<g id="g-root-tx__dg2mr61n622ob-fill" transform="translate(410, 122)">
	<g id="tx__dg2mr61n622ob-fill">
		<g>
			<g enable-background="new    ">
				<path fill="#92BD39" d="M22.181,30.202l-0.938,1.133c-1.709-1.025-2.92-2.9-3.516-5.117c-0.635,2.393-1.895,4.434-3.633,5.527
					l-0.977-1.152c2.422-1.445,3.828-4.609,3.828-7.773v-1.641h-3.34v-1.27h8.008v1.27h-3.184v1.641
					C18.431,25.827,19.778,28.815,22.181,30.202z M24.661,34.323h-1.445v-8.945h-2.93v-1.25h2.93v-5.84h1.445V34.323z
					 M28.177,35.222h-1.465V17.858h1.465V35.222z"/>
				<path fill="#92BD39" d="M39.603,24.499h3.887v-6.641h1.523v17.402h-1.523v-9.492h-3.867c-0.186,3.398-1.914,5.527-4.336,5.527
					c-2.559,0-4.355-2.344-4.355-6.035s1.797-6.035,4.355-6.055C37.649,19.226,39.349,21.247,39.603,24.499z M32.396,25.261
					c0,2.832,1.172,4.668,2.891,4.668c1.699,0,2.891-1.836,2.891-4.668s-1.191-4.668-2.891-4.688
					C33.567,20.593,32.396,22.429,32.396,25.261z"/>
				<path fill="#92BD39" d="M63.802,30.046l-0.938,1.211c-1.973-0.967-3.682-3.008-4.512-5.488c-0.811,2.627-2.52,4.814-4.551,5.84
					l-0.977-1.289c2.578-1.191,4.727-4.492,4.746-7.793v-3.164h1.523v3.164C59.075,25.69,61.243,28.894,63.802,30.046z
					 M67.239,35.261h-1.543V17.858h1.543V35.261z"/>
				<path fill="#92BD39" d="M86.106,32.858H70.208v-1.27h15.898V32.858z M85.286,26.608l-0.703,1.289
					c-2.617-0.605-5.381-2.471-6.504-5.039c-1.123,2.559-3.877,4.424-6.504,5.039l-0.703-1.289c3.008-0.586,6.387-3.203,6.387-6.191
					v-1.328h1.602v1.328C78.86,23.386,82.259,26.042,85.286,26.608z"/>
				<path fill="#92BD39" d="M94.935,20.28h-5.156v2.148h4.434v1.211h-4.434v2.363c2.51-0.01,4.072-0.098,5.938-0.449l0.156,1.23
					c-2.012,0.371-3.652,0.469-6.465,0.469h-1.094v-8.262h6.621V20.28z M102.239,34.987H90.774v-5.859h11.465V34.987z
					 M92.278,33.737h8.457v-3.359h-8.457V33.737z M98.86,28.171h-1.484v-4.668h-2.344v-1.27h2.344v-4.063h1.484V28.171z
					 M102.239,28.327h-1.465V17.858h1.465V28.327z"/>
				<path fill="#92BD39" d="M125.618,28.327h-15.84v-1.25h7.148v-1.719h-5.039v-6.992h11.758v1.25h-10.215v1.621h9.746v1.172h-9.746
					v1.719h10.313v1.23h-5.293v1.719h7.168V28.327z M123.685,32.409c-0.02,1.816-2.168,2.773-5.977,2.773
					c-3.848,0-5.996-0.957-5.996-2.773s2.148-2.793,5.996-2.773C121.517,29.616,123.665,30.593,123.685,32.409z M113.255,32.409
					c-0.02,1.055,1.582,1.602,4.453,1.582c2.832,0.02,4.434-0.527,4.434-1.582c0-1.035-1.602-1.621-4.434-1.621
					C114.837,30.788,113.235,31.374,113.255,32.409z"/>
				<path fill="#92BD39" d="M137.474,20.925h-10.352v-1.27h4.414v-1.953h1.523v1.953h4.414V20.925z M136.478,24.772
					c-0.02,1.855-1.68,3.047-4.18,3.047c-2.52,0-4.199-1.191-4.18-3.047c-0.02-1.855,1.66-3.047,4.18-3.047
					C134.798,21.726,136.458,22.917,136.478,24.772z M129.583,24.772c-0.02,1.133,1.074,1.875,2.715,1.875
					c1.621,0,2.715-0.742,2.734-1.875c-0.02-1.113-1.113-1.875-2.734-1.855C130.657,22.897,129.563,23.659,129.583,24.772z
					 M131.204,30.573h7.93v-1.855h1.523v6.27h-10.977v-6.27h1.523V30.573z M139.134,33.757v-1.973h-7.93v1.973H139.134z
					 M140.657,22.312h2.617v1.309h-2.617v4.336h-1.523V17.858h1.523V22.312z"/>
			</g>
		</g>
	</g>
</g>
<g id="g-root-tx__qrj54i1n6213d-fill" transform="translate(62, 122)">
	<g id="tx__qrj54i1n6213d-fill">
		<g>
			<g enable-background="new    ">
				<path fill="#4E88E7" d="M29.463,32.761h-15.82v-1.27h6.211V25.28h1.504v6.211h8.105V32.761z M27.569,21.354
					c-0.02,2.129-0.02,4.512-0.645,8.008l-1.563-0.176c0.664-3.32,0.664-5.762,0.664-7.832v-0.469H15.323v-1.27h12.246V21.354z"/>
				<path fill="#4E88E7" d="M31.788,28.308l-0.762-1.152c3.604-1.475,5.645-3.818,5.938-6.738h-5.234v-1.27h6.816
					C38.545,23.288,36.202,26.433,31.788,28.308z M45.674,35.222H44.17v-5.059H33.956v-1.25h11.719V35.222z M45.674,28.112h-1.465
					v-4.59h-2.363v4.473h-1.465V18.21h1.465v4.043h2.363v-4.375h1.465V28.112z"/>
				<path fill="#4E88E7" d="M69.131,32.995H53.233v-1.289h3.945v-4.688c-1.484-0.771-2.383-2.021-2.383-3.594
					c0-2.695,2.637-4.453,6.348-4.473c3.711,0.02,6.348,1.777,6.348,4.473c0,1.543-0.869,2.783-2.305,3.555v4.727h3.945V32.995z
					 M56.28,23.425c0,1.934,2.012,3.242,4.863,3.242c2.832,0,4.863-1.309,4.863-3.242s-2.031-3.223-4.863-3.203
					C58.292,20.202,56.28,21.491,56.28,23.425z M63.643,31.706v-4.141c-0.752,0.205-1.592,0.313-2.5,0.313
					c-0.889,0-1.719-0.098-2.461-0.293v4.121H63.643z"/>
				<path fill="#4E88E7" d="M84.249,20.515c0,1.65,0,3.438-0.488,5.938h2.578v1.27H79.17v7.539h-1.543v-7.539h-7.109v-1.27h11.68
					c0.527-2.5,0.527-4.326,0.527-5.938v-0.254H72.51v-1.27h11.738V20.515z"/>
				<path fill="#4E88E7" d="M103.135,29.948l-0.938,1.23c-1.914-1.006-3.516-3.057-4.277-5.469
					c-0.781,2.568-2.422,4.756-4.375,5.801l-0.977-1.23c2.539-1.25,4.551-4.59,4.57-7.754v-3.164h1.504v3.164
					C98.643,25.593,100.674,28.737,103.135,29.948z M106.26,24.909h2.91v1.328h-2.91v8.984h-1.523V17.858h1.523V24.909z"/>
				<path fill="#4E88E7" d="M120.499,21.062h-10.352v-1.211h4.414v-2.129h1.523v2.129h4.414V21.062z M119.502,25.026
					c-0.02,1.875-1.68,3.066-4.18,3.066c-2.52,0-4.199-1.191-4.18-3.066c-0.02-1.855,1.66-3.066,4.18-3.066
					C117.823,21.96,119.483,23.171,119.502,25.026z M123.877,32.194c0,1.895-2.148,2.988-5.684,2.988s-5.703-1.094-5.684-2.988
					c-0.02-1.895,2.148-3.008,5.684-3.008S123.877,30.3,123.877,32.194z M112.608,25.026c-0.02,1.133,1.074,1.875,2.715,1.875
					c1.621,0,2.715-0.742,2.734-1.875c-0.02-1.133-1.113-1.895-2.734-1.914C113.682,23.132,112.588,23.894,112.608,25.026z
					 M114.034,32.194c-0.02,1.133,1.563,1.797,4.16,1.797s4.16-0.664,4.16-1.797c0-1.152-1.563-1.797-4.16-1.797
					S114.014,31.042,114.034,32.194z M123.682,22.702h2.617v1.309h-2.617v5.059h-1.523V17.858h1.523V22.702z"/>
				<path fill="#4E88E7" d="M142.959,26.062l-0.781,1.211c-2.012-0.732-3.604-2.236-4.375-4.16
					c-0.771,2.061-2.383,3.682-4.414,4.473l-0.801-1.211c2.598-0.957,4.414-3.379,4.414-5.996v-1.66h1.563v1.66
					C138.545,22.917,140.381,25.163,142.959,26.062z M146.749,35.222h-1.523v-4.766h-10.156v-1.27h11.68V35.222z M146.749,28.327
					h-1.523V17.858h1.523V28.327z"/>
				<path fill="#4E88E7" d="M164.073,26.94h-1.523v-2.227h-4.102v1.523h-7.871v-7.559h1.523v2.5h4.844v-2.5h1.504v1.68h4.102v-2.5
					h1.523V26.94z M156.944,24.987V22.39H152.1v2.598H156.944z M164.073,31.862h-9.688v1.895h10.352v1.23h-11.875V30.69h9.688v-1.68
					h-9.727v-1.23h11.25V31.862z M162.549,23.503V21.55h-4.102v1.953H162.549z"/>
			</g>
		</g>
	</g>
</g>
<g id="g-root-tx__zn65de1n620ao-fill" transform="translate(476, 38)">
</g>
<g id="g-root-tx__1heg90y1n5mk9a-fill" transform="translate(206, 566)">
	<g id="tx__1heg90y1n5mk9a-fill">
		<g>
			<g enable-background="new    ">
				<path fill="#484848" d="M20.362,21.806l-0.601,0.908c-1.472-0.527-2.607-1.618-3.164-2.959
					c-0.564,1.501-1.765,2.702-3.311,3.267l-0.601-0.908c1.919-0.688,3.311-2.432,3.311-4.263v-0.571h-2.944v-0.938h7.017v0.938
					h-2.915v0.557C17.154,19.535,18.458,21.146,20.362,21.806z M23.423,28.456h-1.157v-3.574h-7.603V23.93h8.76V28.456z
					 M23.423,23.241h-1.157v-3.428h-2.607v-0.967h2.607v-3.413h1.157V23.241z"/>
				<path fill="#484848" d="M33.296,21.103l-0.571,0.908c-1.472-0.491-2.622-1.501-3.179-2.769
					c-0.586,1.398-1.794,2.549-3.325,3.076L25.65,21.41c1.904-0.659,3.296-2.285,3.296-3.97v-0.366h-2.944v-0.952h7.017v0.952
					h-2.915v0.381C30.103,19.008,31.421,20.502,33.296,21.103z M36.373,25.937h-7.266v1.45h7.764v0.923h-8.906v-3.252h7.266v-1.304
					h-7.295v-0.938h8.438V25.937z M36.373,22.172H35.23v-2.871h-2.622v-0.952h2.622v-2.915h1.143V22.172z"/>
				<path fill="#484848" d="M46.348,17.982h-7.764v-0.938h3.311v-1.597h1.143v1.597h3.311V17.982z M45.601,21.132
					c-0.015,1.465-1.274,2.402-3.135,2.402c-1.875,0-3.149-0.938-3.135-2.402c-0.015-1.479,1.26-2.432,3.135-2.432
					C44.327,18.7,45.586,19.652,45.601,21.132z M40.43,21.132c-0.015,0.923,0.806,1.509,2.036,1.494
					c1.216,0.015,2.036-0.571,2.051-1.494c-0.015-0.923-0.835-1.523-2.051-1.523C41.236,19.608,40.416,20.209,40.43,21.132z
					 M49.336,28.178h-8.745v-3.75h1.128v2.783h7.617V28.178z M48.736,19.74h1.963v0.967h-1.963v4.497h-1.143v-9.756h1.143V19.74z"/>
				<path fill="#484848" d="M67.208,26.845H55.284v-0.967h5.361v-2.461h-3.867v-4.014h7.793v-2.051h-7.822V16.4h8.95v3.94H57.92
					v2.124h8.086v0.952h-4.233v2.461h5.435V26.845z"/>
				<path fill="#484848" d="M70.972,17.25h6.445v-1.465h1.143v4.775h-3.809v1.494h5.361v0.923H68.248v-0.923h5.376v-1.494H69.83
					v-4.775h1.143V17.25z M79.205,27.504l-0.439,0.894c-2-0.329-3.809-1.237-4.585-2.637c-0.784,1.399-2.593,2.308-4.57,2.637
					l-0.439-0.894c2.344-0.322,4.424-1.597,4.424-3.296v-0.366h1.157v0.366C74.751,25.907,76.832,27.182,79.205,27.504z
					 M77.417,19.652v-1.494h-6.445v1.494H77.417z"/>
				<path fill="#484848" d="M91.773,21.586h-6.108v-5.303h6.108V21.586z M96.504,27.519l-0.396,0.894
					c-1.963-0.264-3.75-1.187-4.512-2.402c-0.791,1.238-2.622,2.139-4.585,2.402l-0.41-0.894c2.241-0.249,4.395-1.509,4.395-2.813
					h-3.853v-0.894h3.867v-1.274h1.143v1.274h3.896v0.894h-3.867C92.183,25.98,94.263,27.24,96.504,27.519z M86.792,20.678h3.853
					v-3.457h-3.853V20.678z M95.713,22.919h-1.128v-7.485h1.128V22.919z"/>
				<path fill="#484848" d="M113.628,26.757h-11.924v-0.952h5.332v-3.193h1.128v3.193h5.464V26.757z M113.042,21.806l-0.513,0.952
					c-1.985-0.402-4.08-1.75-4.922-3.633c-0.857,1.875-2.937,3.23-4.922,3.633l-0.513-0.952c2.271-0.396,4.819-2.3,4.819-4.482
					v-0.996h1.201v0.996C108.194,19.506,110.772,21.41,113.042,21.806z"/>
				<path fill="#484848" d="M126.592,26.786h-11.924v-0.981h11.924V26.786z M125.45,17.704h-2.065v4.556h2.036v0.938h-9.668V22.26
					h2.036v-4.556h-2.065v-0.952h9.727V17.704z M122.256,22.26v-4.556h-3.325v4.556H122.256z"/>
				<path fill="#484848" d="M139.556,26.757h-11.924v-0.952h11.924V26.757z M138.179,23.417h-9.009v-6.855h8.862v0.967h-7.69v1.934
					h7.412v0.923h-7.412v2.095h7.837V23.417z"/>
				<path fill="#484848" d="M147.261,21.732l0.088,0.879c-0.923,0.176-1.948,0.285-2.959,0.352v4.424h-1.084v-4.365
					c-1.011,0.037-1.963,0.044-2.725,0.044l-0.161-0.981C142.222,22.084,145.137,22.084,147.261,21.732z M146.763,18.686
					c-0.015,1.421-1.201,2.402-2.856,2.388c-1.655,0.015-2.856-0.967-2.842-2.388c-0.015-1.436,1.187-2.402,2.842-2.417
					C145.562,16.283,146.749,17.25,146.763,18.686z M142.105,18.686c0,0.894,0.747,1.523,1.802,1.523s1.816-0.63,1.816-1.523
					s-0.762-1.538-1.816-1.523C142.852,17.147,142.105,17.792,142.105,18.686z M149.195,27.768h-1.084v-2.886h-2.476v-0.908h2.476
					v-8.247h1.084V27.768z M151.685,28.456h-1.099V15.434h1.099V28.456z"/>
				<path fill="#484848" d="M160.298,20.414h2.915v-4.98h1.143v13.052h-1.143v-7.119h-2.9c-0.139,2.549-1.436,4.146-3.252,4.146
					c-1.919,0-3.267-1.758-3.267-4.526s1.348-4.526,3.267-4.541C158.833,16.459,160.108,17.975,160.298,20.414z M154.893,20.985
					c0,2.124,0.879,3.501,2.168,3.501c1.274,0,2.168-1.377,2.168-3.501s-0.894-3.501-2.168-3.516
					C155.772,17.484,154.893,18.861,154.893,20.985z"/>
				<path fill="#484848" d="M180.586,17.426c0,1.238,0,2.578-0.366,4.453h1.934v0.952h-5.376v5.654h-1.157v-5.654h-5.332v-0.952
					h8.76c0.396-1.875,0.396-3.244,0.396-4.453v-0.19h-7.661v-0.952h8.804V17.426z"/>
				<path fill="#484848" d="M190.958,21.63l-0.645,0.894c-1.436-0.542-2.563-1.597-3.12-2.974c-0.564,1.56-1.758,2.776-3.325,3.369
					l-0.63-0.938c2.007-0.703,3.34-2.432,3.354-4.453v-1.348h1.143v1.304C187.72,19.345,189.039,20.985,190.958,21.63z
					 M194.092,25.995c0,1.553-1.655,2.432-4.365,2.432s-4.365-0.879-4.365-2.432c0-1.567,1.655-2.461,4.365-2.461
					S194.092,24.428,194.092,25.995z M186.504,25.995c-0.015,0.938,1.23,1.509,3.223,1.509s3.223-0.571,3.223-1.509
					c0-0.967-1.23-1.553-3.223-1.553S186.49,25.028,186.504,25.995z M194.048,23.153h-1.157v-3.97h-2.9v-0.952h2.9v-2.798h1.157
					V23.153z"/>
				<path fill="#484848" d="M211.905,26.786h-11.924v-0.967h2.959v-3.516c-1.113-0.579-1.787-1.517-1.787-2.695
					c0-2.021,1.978-3.34,4.761-3.354c2.783,0.015,4.761,1.333,4.761,3.354c0,1.157-0.652,2.087-1.729,2.666v3.545h2.959V26.786z
					 M202.266,19.608c0,1.45,1.509,2.432,3.647,2.432c2.124,0,3.647-0.981,3.647-2.432s-1.523-2.417-3.647-2.402
					C203.775,17.191,202.266,18.158,202.266,19.608z M207.789,25.819v-3.105c-0.564,0.153-1.194,0.234-1.875,0.234
					c-0.667,0-1.289-0.073-1.846-0.22v3.091H207.789z"/>
			</g>
			<g enable-background="new    ">
				<path fill="#484848" d="M78.311,44.757H66.387v-0.952h5.332v-3.193h1.128v3.193h5.464V44.757z M77.725,39.806l-0.513,0.952
					c-1.985-0.402-4.08-1.75-4.922-3.633c-0.857,1.875-2.937,3.23-4.922,3.633l-0.513-0.952c2.271-0.396,4.819-2.3,4.819-4.482
					v-0.996h1.201v0.996C72.876,37.506,75.455,39.41,77.725,39.806z"/>
				<path fill="#484848" d="M91.26,40.392H79.336v-0.908H91.26V40.392z M89.766,44.2h-7.822v1.245h8.247v0.835h-9.404v-2.871h7.837
					v-1.113h-7.852v-0.864h8.994V44.2z M89.722,36.524h-7.69v1.143h7.925v0.835h-9.067v-2.769h7.676v-1.069h-7.72v-0.835h8.877
					V36.524z"/>
				<path fill="#484848" d="M103.755,40.113l-0.645,0.894c-1.428-0.571-2.563-1.706-3.12-3.12c-0.557,1.574-1.743,2.827-3.281,3.442
					l-0.615-0.938c1.948-0.718,3.296-2.534,3.311-4.541v-1.611h1.128v1.655C100.533,37.711,101.851,39.425,103.755,40.113z
					 M107.168,46.178h-8.716v-4.087h1.157v3.12h7.559V46.178z M106.875,43.204h-1.157v-5.728h-2.9V36.51h2.9v-3.062h1.157V43.204z"
					/>
				<path fill="#484848" d="M114.683,35.353h-3.955v1.626h3.809v0.908h-3.809v1.802c1.897-0.007,3.083-0.073,4.482-0.352
					l0.117,0.952c-1.523,0.293-2.754,0.366-4.878,0.366h-0.82v-6.27h5.054V35.353z M120.103,46.456h-1.128v-3.501h-7.646v-0.938
					h8.774V46.456z M120.103,41.344h-1.099v-3.56h-1.831v3.472h-1.069v-7.559h1.069v3.149h1.831v-3.398h1.099V41.344z"/>
				<path fill="#484848" d="M129.8,35.733h-7.764v-0.952h3.311v-1.465h1.143v1.465h3.311V35.733z M129.053,38.619
					c-0.015,1.392-1.26,2.285-3.135,2.285c-1.89,0-3.149-0.894-3.135-2.285c-0.015-1.392,1.245-2.285,3.135-2.285
					C127.793,36.334,129.039,37.228,129.053,38.619z M123.882,38.619c-0.015,0.85,0.806,1.406,2.036,1.406
					c1.216,0,2.036-0.557,2.051-1.406c-0.015-0.835-0.835-1.406-2.051-1.392C124.688,37.213,123.868,37.784,123.882,38.619z
					 M125.098,42.97h5.947v-1.392h1.143v4.702h-8.232v-4.702h1.143V42.97z M131.045,45.357v-1.479h-5.947v1.479H131.045z
					 M132.188,36.773h1.963v0.981h-1.963v3.252h-1.143v-7.573h1.143V36.773z"/>
				<path fill="#484848" d="M136.949,42.105c1.985-0.008,4.043-0.168,6.226-0.63l0.161,0.981c-2.314,0.483-4.38,0.645-6.46,0.645
					h-1.055v-8.379h1.128V42.105z M145.708,46.456h-1.143V33.434h1.143V46.456z"/>
				<path fill="#484848" d="M154.585,35.66h-4.937v6.592c2.358,0,4.028-0.109,5.962-0.469l0.146,0.996
					c-2.036,0.366-3.75,0.439-6.226,0.439h-1.025v-8.511h6.079V35.66z M158.013,38.59h2.183v0.967h-2.183v6.929h-1.143V33.434h1.143
					V38.59z"/>
				<path fill="#484848" d="M161.338,44.405c-0.015-0.513,0.425-0.938,0.938-0.938s0.938,0.425,0.938,0.938
					c0,0.527-0.425,0.952-0.938,0.952S161.324,44.933,161.338,44.405z"/>
			</g>
		</g>
	</g>
</g>
<g id="g-root-tx__1cymqwi1n5ml1j-fill" transform="translate(584, 505.9999694824219)">
	<g id="tx__1cymqwi1n5ml1j-fill">
		<g>
			<g enable-background="new    ">
				<path fill="#1EABDA" d="M26.68,26.394l-0.781,1.191c-1.982-0.703-3.496-2.129-4.238-3.926c-0.742,1.973-2.334,3.506-4.375,4.258
					l-0.82-1.191c2.598-0.918,4.414-3.164,4.434-5.645v-0.742h-3.965v-1.25h9.375v1.25h-3.906v0.742
					C22.402,23.386,24.102,25.495,26.68,26.394z M30.098,35.222h-1.523v-4.727H18.73v-1.25h11.367V35.222z M30.098,22.448h2.617
					v1.309h-2.617v4.57h-1.523V17.858h1.523V22.448z"/>
				<path fill="#1EABDA" d="M43.027,22.019h3.633v-4.16h1.543v9.316H46.66v-3.887h-3.613c-0.313,2.051-2.1,3.418-4.453,3.418
					c-2.637,0-4.512-1.641-4.512-4.023c0-2.363,1.875-4.023,4.512-4.004C40.928,18.659,42.695,20.017,43.027,22.019z M35.547,22.683
					c0,1.582,1.27,2.734,3.047,2.734c1.758,0,3.008-1.152,3.008-2.734c0-1.602-1.25-2.715-3.008-2.695
					C36.816,19.968,35.547,21.081,35.547,22.683z M38.555,30.261h8.105v-2.207h1.543v6.934H37.012v-6.934h1.543V30.261z
					 M46.66,33.737v-2.246h-8.105v2.246H46.66z"/>
				<path fill="#1EABDA" d="M71.934,27.214H56.133v-1.25h6.543v-3.359h1.504v3.359h7.754V27.214z M70.059,32.019
					c0,1.992-2.363,3.164-6.094,3.164c-3.711,0-6.074-1.172-6.074-3.164c0-2.012,2.363-3.184,6.074-3.184
					C67.695,28.835,70.059,30.007,70.059,32.019z M69.922,20.222c0,1.406,0,2.813-0.488,4.609l-1.504-0.176
					c0.469-1.797,0.469-3.066,0.469-4.434v-0.215H58.008v-1.25h11.914V20.222z M59.414,32.019c-0.02,1.211,1.777,1.953,4.551,1.953
					s4.551-0.742,4.57-1.953c-0.02-1.23-1.797-1.992-4.57-2.012C61.191,30.026,59.395,30.788,59.414,32.019z"/>
				<path fill="#1EABDA" d="M83.711,26.335l-0.801,1.23c-1.953-0.703-3.467-2.158-4.199-3.965c-0.762,2.041-2.373,3.672-4.434,4.453
					l-0.801-1.23c2.578-0.938,4.414-3.281,4.414-5.762v-0.645h-3.926v-1.289h9.355v1.289h-3.887v0.625
					C79.434,23.308,81.172,25.456,83.711,26.335z M87.852,31.98c0,2.051-2.207,3.223-5.82,3.242c-3.613-0.02-5.82-1.191-5.82-3.242
					s2.207-3.223,5.82-3.223S87.852,29.929,87.852,31.98z M77.734,31.98c-0.02,1.25,1.641,2.012,4.297,2.012
					s4.297-0.762,4.297-2.012c0-1.27-1.641-2.031-4.297-2.031S77.715,30.71,77.734,31.98z M87.793,28.21H86.25v-4.551h-3.496v-1.27
					h3.496v-4.531h1.543V28.21z"/>
				<path fill="#1EABDA" d="M111.582,28.308h-7.07v3.398h-1.523v-3.398h-7.305v-1.25h15.898V28.308z M109.805,34.851h-12.09v-4.746
					h1.523v3.457h10.566V34.851z M99.336,20.651h8.594v-2.227h1.523v6.934H97.813v-6.934h1.523V20.651z M107.93,24.108v-2.285
					h-8.594v2.285H107.93z"/>
				<path fill="#1EABDA" d="M123.203,26.12l-0.84,1.23c-1.934-0.713-3.438-2.197-4.18-4.043c-0.732,2.051-2.295,3.652-4.336,4.453
					l-0.84-1.27c2.637-0.938,4.375-3.223,4.395-5.898v-1.836h1.504v1.895C118.906,23.054,120.684,25.261,123.203,26.12z
					 M127.383,35.222h-1.543v-4.902h-10.137v-1.23h11.68V35.222z M127.383,28.132h-1.543V22.8h-3.867v-1.289h3.867v-3.652h1.543
					V28.132z"/>
			</g>
		</g>
	</g>
</g>
<g id="g-root-tx__zn68j61n5mmmh-fill" transform="translate(914, 505.9999694824219)">
	<g id="tx__zn68j61n5mmmh-fill">
		<g>
			<g enable-background="new    ">
				<path fill="#DE58A9" d="M23.724,30.241l-0.879,1.211c-1.953-0.947-3.604-3.018-4.375-5.371
					c-0.801,2.559-2.549,4.805-4.492,5.801l-0.938-1.211c2.5-1.211,4.648-4.512,4.668-7.48v-2.266h-4.043v-1.27h9.453v1.27h-3.906
					v2.266C19.192,25.983,21.204,29.05,23.724,30.241z M26.771,24.89h2.91v1.309h-2.91v9.023h-1.523V17.858h1.523V24.89z"/>
				<path fill="#DE58A9" d="M46.458,27.683h-15.84v-1.23h7.168v-2.031H32.63v-5.742h11.855v1.23H34.134v3.262h10.469v1.25h-5.332
					v2.031h7.188V27.683z M44.505,32.077c-0.02,2.012-2.246,3.125-5.977,3.145c-3.75-0.02-5.996-1.133-5.996-3.145
					c0-1.992,2.246-3.125,5.996-3.125C42.259,28.952,44.485,30.085,44.505,32.077z M34.095,32.077
					c-0.02,1.211,1.641,1.914,4.434,1.914c2.754,0,4.434-0.703,4.434-1.914c0-1.191-1.68-1.914-4.434-1.914
					C35.735,30.163,34.075,30.886,34.095,32.077z"/>
				<path fill="#DE58A9" d="M52.474,30.534v-1.934c-2.021-0.225-3.34-1.406-3.32-3.125c-0.02-1.953,1.641-3.223,4.102-3.223
					c2.422,0,4.102,1.27,4.121,3.223c-0.02,1.719-1.357,2.9-3.359,3.145v1.855c1.621-0.078,3.252-0.205,4.766-0.43l0.098,1.172
					c-3.789,0.645-7.891,0.684-10.938,0.684l-0.254-1.309C49.104,30.593,50.755,30.593,52.474,30.534z M58.47,21.237H48.001v-1.25
					h4.473v-2.09h1.543v2.09h4.453V21.237z M50.579,25.476c0,1.211,1.074,1.992,2.676,1.973c1.582,0.02,2.656-0.762,2.656-1.973
					s-1.074-2.031-2.656-2.031C51.653,23.444,50.579,24.265,50.579,25.476z M61.38,25.261h2.773v1.289H61.38v8.672h-1.543V17.858
					h1.543V25.261z"/>
				<path fill="#DE58A9" d="M79.271,26.062h-8.145v-7.07h8.145V26.062z M85.579,33.972l-0.527,1.191
					c-2.617-0.352-5-1.582-6.016-3.203c-1.055,1.65-3.496,2.852-6.113,3.203l-0.547-1.191c2.988-0.332,5.859-2.012,5.859-3.75
					h-5.137V29.03h5.156v-1.699h1.523v1.699h5.195v1.191h-5.156C79.817,31.921,82.591,33.601,85.579,33.972z M72.63,24.851h5.137
					v-4.609H72.63V24.851z M84.524,27.839h-1.504v-9.98h1.504V27.839z"/>
				<path fill="#DE58A9" d="M99.095,30.202c1.67-0.068,3.379-0.215,4.98-0.449l0.117,1.133c-3.965,0.723-8.242,0.742-11.367,0.742
					l-0.215-1.27c1.455-0.01,3.174-0.02,4.98-0.078v-3.262h1.504V30.202z M103.177,21.413h-4.082
					c0.039,2.246,1.904,4.072,4.473,4.805l-0.723,1.211c-2.09-0.625-3.721-1.963-4.492-3.73c-0.762,1.865-2.383,3.252-4.473,3.887
					l-0.742-1.172c2.568-0.752,4.375-2.656,4.414-5h-3.984v-1.27h4.023v-2.148h1.504v2.148h4.082V21.413z M106.751,35.261h-1.523
					V17.858h1.523V35.261z"/>
				<path fill="#DE58A9" d="M120.11,26.355l-0.801,1.211c-1.963-0.703-3.477-2.158-4.219-3.945
					c-0.752,2.002-2.354,3.604-4.414,4.355l-0.801-1.211c2.559-0.918,4.414-3.242,4.414-5.684v-0.762h-3.926v-1.25h9.355v1.25
					h-3.887v0.742C115.833,23.327,117.571,25.476,120.11,26.355z M124.192,35.222h-1.543v-4.766h-10.137v-1.27h11.68V35.222z
					 M124.192,28.269h-1.543v-4.57h-3.477v-1.289h3.477v-4.551h1.543V28.269z"/>
				<path fill="#DE58A9" d="M131.653,30.534v-1.934c-2.021-0.225-3.34-1.406-3.32-3.125c-0.02-1.953,1.641-3.223,4.102-3.223
					c2.422,0,4.102,1.27,4.121,3.223c-0.02,1.719-1.357,2.9-3.359,3.145v1.855c1.621-0.078,3.252-0.205,4.766-0.43l0.098,1.172
					c-3.789,0.645-7.891,0.684-10.938,0.684l-0.254-1.309C128.284,30.593,129.935,30.593,131.653,30.534z M137.649,21.237h-10.469
					v-1.25h4.473v-2.09h1.543v2.09h4.453V21.237z M129.759,25.476c0,1.211,1.074,1.992,2.676,1.973
					c1.582,0.02,2.656-0.762,2.656-1.973s-1.074-2.031-2.656-2.031C130.833,23.444,129.759,24.265,129.759,25.476z M140.56,25.261
					h2.773v1.289h-2.773v8.672h-1.543V17.858h1.543V25.261z"/>
			</g>
		</g>
	</g>
</g>
<g id="g-root-tx__18it8s21n5mlts-fill" transform="translate(542, 542)">
	<g id="tx__18it8s21n5mlts-fill">
		<g>
			<g enable-background="new    ">
				<path fill="#484848" d="M22.16,27.721l-0.659,0.908c-1.465-0.711-2.703-2.264-3.281-4.028c-0.601,1.919-1.912,3.604-3.369,4.351
					l-0.703-0.908c1.875-0.908,3.486-3.384,3.501-5.61v-1.699h-3.032v-0.952h7.09v0.952h-2.93v1.699
					C18.762,24.527,20.271,26.827,22.16,27.721z M24.445,23.707h2.183v0.981h-2.183v6.768h-1.143V18.434h1.143V23.707z"/>
				<path fill="#484848" d="M39.211,25.802h-11.88v-0.923h5.376v-1.523H28.84v-4.307h8.892v0.923h-7.764v2.446h7.852v0.938H33.82
					v1.523h5.391V25.802z M37.746,29.098c-0.015,1.509-1.685,2.344-4.482,2.358c-2.813-0.015-4.497-0.85-4.497-2.358
					c0-1.494,1.685-2.344,4.497-2.344C36.062,26.754,37.731,27.604,37.746,29.098z M29.938,29.098
					c-0.015,0.908,1.23,1.436,3.325,1.436c2.065,0,3.325-0.527,3.325-1.436c0-0.894-1.26-1.436-3.325-1.436
					C31.169,27.662,29.924,28.204,29.938,29.098z"/>
				<path fill="#484848" d="M43.723,27.94v-1.45c-1.516-0.168-2.505-1.055-2.49-2.344c-0.015-1.465,1.23-2.417,3.076-2.417
					c1.816,0,3.076,0.952,3.091,2.417c-0.015,1.289-1.019,2.176-2.52,2.358v1.392c1.216-0.059,2.438-0.154,3.574-0.322l0.073,0.879
					c-2.842,0.483-5.918,0.513-8.203,0.513l-0.19-0.981C41.195,27.984,42.434,27.984,43.723,27.94z M48.22,20.968h-7.852V20.03
					h3.354v-1.567h1.157v1.567h3.34V20.968z M42.302,24.146c0,0.908,0.806,1.494,2.007,1.479c1.187,0.015,1.992-0.571,1.992-1.479
					s-0.806-1.523-1.992-1.523C43.107,22.623,42.302,23.238,42.302,24.146z M50.402,23.985h2.08v0.967h-2.08v6.504h-1.157V18.434
					h1.157V23.985z"/>
				<path fill="#484848" d="M65.168,25.392H53.244v-0.908h11.924V25.392z M63.674,29.2h-7.822v1.245h8.247v0.835h-9.404v-2.871
					h7.837v-1.113H54.68v-0.864h8.994V29.2z M63.63,21.524h-7.69v1.143h7.925v0.835h-9.067v-2.769h7.676v-1.069h-7.72v-0.835h8.877
					V21.524z"/>
				<path fill="#484848" d="M78.645,25.04l0.073,0.864c-1.245,0.227-2.542,0.366-3.794,0.439v4.717h-1.143v-4.644
					c-1.326,0.059-2.578,0.065-3.662,0.073l-0.161-0.981C72.404,25.509,75.744,25.465,78.645,25.04z M77.619,21.729
					c0,1.582-1.392,2.681-3.34,2.666c-1.948,0.015-3.34-1.084-3.34-2.666c0-1.597,1.392-2.666,3.34-2.651
					C76.228,19.063,77.619,20.133,77.619,21.729z M72.067,21.729c-0.015,1.025,0.908,1.729,2.212,1.714
					c1.318,0.015,2.241-0.688,2.241-1.714c0-1.011-0.923-1.729-2.241-1.714C72.976,20.001,72.053,20.719,72.067,21.729z
					 M80.725,31.471h-1.128V18.448h1.128V31.471z"/>
				<path fill="#484848" d="M90.744,20.982H82.98v-0.938h3.311v-1.597h1.143v1.597h3.311V20.982z M89.997,24.132
					c-0.015,1.465-1.274,2.402-3.135,2.402c-1.875,0-3.149-0.938-3.135-2.402c-0.015-1.479,1.26-2.432,3.135-2.432
					C88.723,21.7,89.982,22.652,89.997,24.132z M84.826,24.132c-0.015,0.923,0.806,1.509,2.036,1.494
					c1.216,0.015,2.036-0.571,2.051-1.494c-0.015-0.923-0.835-1.523-2.051-1.523C85.632,22.608,84.812,23.209,84.826,24.132z
					 M93.732,31.178h-8.745v-3.75h1.128v2.783h7.617V31.178z M93.132,22.74h1.963v0.967h-1.963v4.497h-1.143v-9.756h1.143V22.74z"/>
				<path fill="#484848" d="M111.545,25.45H99.694v-0.938h4.907v-2.52h1.128v2.52h5.815V25.45z M110.139,29.054
					c0,1.494-1.772,2.373-4.57,2.373c-2.783,0-4.556-0.879-4.556-2.373c0-1.509,1.772-2.388,4.556-2.388
					C108.366,26.666,110.139,27.545,110.139,29.054z M110.036,20.206c0,1.055,0,2.109-0.366,3.457l-1.128-0.132
					c0.352-1.348,0.352-2.3,0.352-3.325v-0.161h-7.793v-0.938h8.936V20.206z M102.155,29.054c-0.015,0.908,1.333,1.465,3.413,1.465
					s3.413-0.557,3.428-1.465c-0.015-0.923-1.348-1.494-3.428-1.509C103.488,27.56,102.141,28.131,102.155,29.054z"/>
				<path fill="#484848" d="M120.378,24.791l-0.601,0.923c-1.465-0.527-2.6-1.618-3.149-2.974c-0.571,1.531-1.78,2.754-3.325,3.34
					l-0.601-0.923c1.934-0.703,3.311-2.461,3.311-4.321v-0.483h-2.944v-0.967h7.017v0.967h-2.915v0.469
					C117.17,22.521,118.474,24.132,120.378,24.791z M123.483,29.024c0,1.538-1.655,2.417-4.365,2.432
					c-2.71-0.015-4.365-0.894-4.365-2.432s1.655-2.417,4.365-2.417S123.483,27.486,123.483,29.024z M115.896,29.024
					c-0.015,0.938,1.23,1.509,3.223,1.509s3.223-0.571,3.223-1.509c0-0.952-1.23-1.523-3.223-1.523S115.881,28.072,115.896,29.024z
					 M123.439,26.197h-1.157v-3.413h-2.622v-0.952h2.622v-3.398h1.157V26.197z"/>
				<path fill="#484848" d="M137.473,25.011h-11.865v-0.938h11.865V25.011z M136.14,20.909c0,1.479-1.699,2.271-4.6,2.285
					c-2.9-0.015-4.614-0.806-4.614-2.285c0-1.45,1.714-2.241,4.614-2.241S136.14,19.459,136.14,20.909z M135.949,29.054h-7.734
					v1.348h8.13v0.908h-9.272v-3.105h7.749v-1.187h-7.778v-0.879h8.906V29.054z M128.127,20.909
					c-0.015,0.908,1.245,1.406,3.413,1.406c2.153,0,3.428-0.498,3.428-1.406c0-0.85-1.274-1.377-3.428-1.377
					C129.372,19.532,128.112,20.06,128.127,20.909z"/>
				<path fill="#484848" d="M154.245,26.271h-5.303v2.549H147.8v-2.549h-5.479v-0.938h11.924V26.271z M152.912,31.178h-9.067v-3.56
					h1.143v2.593h7.925V31.178z M145.061,20.528h6.445v-1.67h1.143v5.2h-8.73v-5.2h1.143V20.528z M151.506,23.121v-1.714h-6.445
					v1.714H151.506z"/>
				<path fill="#484848" d="M162.961,24.63l-0.63,0.923c-1.45-0.535-2.578-1.648-3.135-3.032c-0.55,1.538-1.722,2.739-3.252,3.34
					l-0.63-0.952c1.978-0.703,3.281-2.417,3.296-4.424v-1.377h1.128v1.421C159.738,22.33,161.071,23.985,162.961,24.63z
					 M166.096,31.456h-1.157v-3.677h-7.603v-0.923h8.76V31.456z M166.096,26.139h-1.157V22.14h-2.9v-0.967h2.9v-2.739h1.157V26.139z
					"/>
				<path fill="#484848" d="M176.057,20.733h-7.764v-0.952h3.311v-1.465h1.143v1.465h3.311V20.733z M175.31,23.619
					c-0.015,1.392-1.26,2.285-3.135,2.285c-1.89,0-3.149-0.894-3.135-2.285c-0.015-1.392,1.245-2.285,3.135-2.285
					C174.05,21.334,175.295,22.228,175.31,23.619z M170.139,23.619c-0.015,0.85,0.806,1.406,2.036,1.406
					c1.216,0,2.036-0.557,2.051-1.406c-0.015-0.835-0.835-1.406-2.051-1.392C170.944,22.213,170.124,22.784,170.139,23.619z
					 M171.354,27.97h5.947v-1.392h1.143v4.702h-8.232v-4.702h1.143V27.97z M177.302,30.357v-1.479h-5.947v1.479H177.302z
					 M178.444,21.773h1.963v0.981h-1.963v3.252h-1.143v-7.573h1.143V21.773z"/>
				<path fill="#484848" d="M183.205,27.105c1.984-0.008,4.043-0.168,6.226-0.63l0.161,0.981c-2.314,0.483-4.38,0.645-6.46,0.645
					h-1.055v-8.379h1.128V27.105z M191.965,31.456h-1.143V18.434h1.143V31.456z"/>
				<path fill="#484848" d="M200.842,20.66h-4.937v6.592c2.358,0,4.028-0.109,5.962-0.469l0.146,0.996
					c-2.036,0.366-3.75,0.439-6.226,0.439h-1.025v-8.511h6.079V20.66z M204.27,23.59h2.183v0.967h-2.183v6.929h-1.143V18.434h1.143
					V23.59z"/>
				<path fill="#484848" d="M207.595,29.405c-0.015-0.513,0.425-0.938,0.938-0.938s0.938,0.425,0.938,0.938
					c0,0.527-0.425,0.952-0.938,0.952S207.58,29.933,207.595,29.405z"/>
			</g>
		</g>
	</g>
</g>
<g id="g-root-tx__zn68j61n5mmmi-fill" transform="translate(878, 542)">
	<g id="tx__zn68j61n5mmmi-fill">
		<g>
			<g enable-background="new    ">
				<path fill="#484848" d="M28.203,26.61H16.338v-0.952h4.658V21h1.127v4.658h6.08V26.61z M26.781,18.056
					c-0.014,1.597-0.014,3.384-0.482,6.006l-1.172-0.132c0.498-2.49,0.498-4.321,0.498-5.874v-0.352h-8.027v-0.952h9.184V18.056z"/>
				<path fill="#484848" d="M29.945,23.271l-0.57-0.864c2.702-1.105,4.232-2.863,4.453-5.054h-3.926V16.4h5.111
					C35.014,19.506,33.256,21.864,29.945,23.271z M40.361,28.456h-1.129v-3.794h-7.66v-0.938h8.789V28.456z M40.361,23.124h-1.1
					v-3.442H37.49v3.354h-1.1v-7.339h1.1v3.032h1.771v-3.281h1.1V23.124z"/>
				<path fill="#484848" d="M50.938,24.193l0.088,0.85c-2.975,0.557-6.182,0.571-8.525,0.571l-0.162-0.981
					C44.74,24.633,48.051,24.618,50.938,24.193z M50.029,19.447c0,1.816-1.451,3.062-3.502,3.062s-3.529-1.245-3.516-3.062
					c-0.014-1.816,1.465-3.062,3.516-3.062S50.029,17.631,50.029,19.447z M44.141,19.447c-0.016,1.216,0.996,2.051,2.387,2.051
					c1.377,0,2.373-0.835,2.373-2.051s-0.996-2.051-2.373-2.051C45.137,17.396,44.125,18.231,44.141,19.447z M52.943,28.485h-1.143
					V15.434h1.143V28.485z"/>
				<path fill="#484848" d="M66.611,21.835l-0.586,0.894c-1.487-0.527-2.623-1.597-3.18-2.944c-0.557,1.479-1.75,2.63-3.281,3.193
					l-0.615-0.894c1.949-0.688,3.311-2.373,3.326-4.233v-0.557h-2.975v-0.938h7.031v0.938h-2.93v0.557
					C63.402,19.579,64.678,21.161,66.611,21.835z M69.174,28.456h-1.143v-3.545h-7.383v-0.938h8.525V28.456z M69.174,18.876h1.963
					v0.981h-1.963v3.428h-1.143v-7.852h1.143V18.876z"/>
				<path fill="#484848" d="M78.871,18.554h2.725v-3.12h1.158v6.987h-1.158v-2.915h-2.709c-0.234,1.538-1.575,2.563-3.34,2.563
					c-1.979,0-3.385-1.23-3.385-3.018c0-1.772,1.406-3.018,3.385-3.003C77.297,16.034,78.623,17.053,78.871,18.554z M73.262,19.052
					c0,1.187,0.951,2.051,2.285,2.051c1.318,0,2.256-0.864,2.256-2.051c0-1.201-0.938-2.036-2.256-2.021
					C74.213,17.016,73.262,17.851,73.262,19.052z M75.518,24.735h6.078V23.08h1.158v5.2h-8.395v-5.2h1.158V24.735z M81.596,27.343
					v-1.685h-6.078v1.685H81.596z"/>
				<path fill="#484848" d="M96.787,22.011H84.922v-0.938h11.865V22.011z M95.453,17.909c0,1.479-1.699,2.271-4.6,2.285
					c-2.9-0.015-4.613-0.806-4.613-2.285c0-1.45,1.713-2.241,4.613-2.241S95.453,16.459,95.453,17.909z M95.264,26.054h-7.734v1.348
					h8.129v0.908h-9.271v-3.105h7.748v-1.187h-7.777v-0.879h8.906V26.054z M87.441,17.909c-0.016,0.908,1.244,1.406,3.412,1.406
					c2.154,0,3.428-0.498,3.428-1.406c0-0.85-1.273-1.377-3.428-1.377C88.686,16.532,87.426,17.06,87.441,17.909z"/>
				<path fill="#484848" d="M109.443,24.721l-0.66,0.908c-1.465-0.711-2.702-2.264-3.281-4.028c-0.6,1.919-1.911,3.604-3.369,4.351
					l-0.703-0.908c1.875-0.908,3.486-3.384,3.502-5.61v-1.699h-3.033v-0.952h7.09v0.952h-2.93v1.699
					C106.045,21.527,107.553,23.827,109.443,24.721z M111.729,20.707h2.182v0.981h-2.182v6.768h-1.143V15.434h1.143V20.707z"/>
				<path fill="#484848" d="M126.494,22.802h-11.881v-0.923h5.377v-1.523h-3.867v-4.307h8.891v0.923h-7.764v2.446h7.852v0.938
					h-3.998v1.523h5.391V22.802z M125.029,26.098c-0.016,1.509-1.686,2.344-4.482,2.358c-2.813-0.015-4.498-0.85-4.498-2.358
					c0-1.494,1.686-2.344,4.498-2.344C123.344,23.754,125.014,24.604,125.029,26.098z M117.221,26.098
					c-0.014,0.908,1.23,1.436,3.326,1.436c2.064,0,3.324-0.527,3.324-1.436c0-0.894-1.26-1.436-3.324-1.436
					C118.451,24.662,117.207,25.204,117.221,26.098z"/>
				<path fill="#484848" d="M131.006,24.94v-1.45c-1.517-0.168-2.506-1.055-2.49-2.344c-0.016-1.465,1.23-2.417,3.076-2.417
					c1.816,0,3.076,0.952,3.09,2.417c-0.014,1.289-1.018,2.176-2.52,2.358v1.392c1.217-0.059,2.439-0.154,3.574-0.322l0.074,0.879
					c-2.842,0.483-5.918,0.513-8.203,0.513l-0.191-0.981C128.479,24.984,129.717,24.984,131.006,24.94z M135.502,17.968h-7.852
					V17.03h3.355v-1.567h1.156v1.567h3.34V17.968z M129.584,21.146c0,0.908,0.807,1.494,2.008,1.479
					c1.186,0.015,1.992-0.571,1.992-1.479s-0.807-1.523-1.992-1.523C130.391,19.623,129.584,20.238,129.584,21.146z M137.686,20.985
					h2.08v0.967h-2.08v6.504h-1.158V15.434h1.158V20.985z"/>
				<path fill="#484848" d="M148.217,18.48h-7.748v-0.952h3.354v-1.934h1.143v1.934h3.252V18.48z M147.602,22.553
					c-0.014,1.758-1.348,2.988-3.193,2.988c-1.859,0-3.207-1.23-3.193-2.988c-0.014-1.758,1.334-2.988,3.193-2.988
					C146.254,19.564,147.588,20.795,147.602,22.553z M142.314,22.553c-0.016,1.187,0.879,2.021,2.094,2.007
					c1.201,0.015,2.08-0.82,2.096-2.007c-0.016-1.172-0.895-2.021-2.096-2.021C143.193,20.531,142.299,21.381,142.314,22.553z
					 M150.619,20.81h2.184v0.952h-2.184v6.694h-1.143V15.434h1.143V20.81z"/>
				<path fill="#484848" d="M165.371,26.61h-11.865v-0.952h4.658V21h1.127v4.658h6.08V26.61z M163.949,18.056
					c-0.014,1.597-0.014,3.384-0.482,6.006l-1.172-0.132c0.498-2.49,0.498-4.321,0.498-5.874v-0.352h-8.027v-0.952h9.184V18.056z"/>
				<path fill="#484848" d="M175.17,24.691c1.253-0.051,2.535-0.161,3.736-0.337l0.088,0.85c-2.975,0.542-6.182,0.557-8.525,0.557
					l-0.162-0.952c1.092-0.008,2.381-0.015,3.736-0.059v-2.446h1.127V24.691z M178.232,18.1h-3.063
					c0.029,1.685,1.429,3.055,3.355,3.604l-0.543,0.908c-1.566-0.469-2.79-1.473-3.369-2.798c-0.57,1.399-1.787,2.438-3.354,2.915
					l-0.557-0.879c1.926-0.564,3.281-1.992,3.311-3.75h-2.988v-0.952h3.018v-1.611h1.127v1.611h3.063V18.1z M180.912,28.485h-1.143
					V15.434h1.143V28.485z"/>
				<path fill="#484848" d="M190.932,21.806l-0.6,0.908c-1.473-0.527-2.607-1.618-3.164-2.959c-0.564,1.501-1.766,2.702-3.311,3.267
					l-0.602-0.908c1.92-0.688,3.311-2.432,3.311-4.263v-0.571h-2.943v-0.938h7.016v0.938h-2.914v0.557
					C187.725,19.535,189.027,21.146,190.932,21.806z M193.994,28.456h-1.158v-3.574h-7.602V23.93h8.76V28.456z M193.994,23.241
					h-1.158v-3.428h-2.607v-0.967h2.607v-3.413h1.158V23.241z"/>
				<path fill="#484848" d="M199.59,24.94v-1.45c-1.517-0.168-2.506-1.055-2.49-2.344c-0.016-1.465,1.23-2.417,3.076-2.417
					c1.816,0,3.076,0.952,3.09,2.417c-0.014,1.289-1.018,2.176-2.52,2.358v1.392c1.217-0.059,2.439-0.154,3.574-0.322l0.074,0.879
					c-2.842,0.483-5.918,0.513-8.203,0.513L196,24.984C197.063,24.984,198.301,24.984,199.59,24.94z M204.086,17.968h-7.852V17.03
					h3.355v-1.567h1.156v1.567h3.34V17.968z M198.168,21.146c0,0.908,0.807,1.494,2.008,1.479c1.186,0.015,1.992-0.571,1.992-1.479
					s-0.807-1.523-1.992-1.523C198.975,19.623,198.168,20.238,198.168,21.146z M206.27,20.985h2.08v0.967h-2.08v6.504h-1.158V15.434
					h1.158V20.985z"/>
			</g>
			<g enable-background="new    ">
				<path fill="#484848" d="M103.641,35.733h-7.764v-0.952h3.311v-1.465h1.143v1.465h3.311V35.733z M102.893,38.619
					c-0.014,1.392-1.26,2.285-3.135,2.285c-1.889,0-3.148-0.894-3.135-2.285c-0.014-1.392,1.246-2.285,3.135-2.285
					C101.633,36.334,102.879,37.228,102.893,38.619z M97.723,38.619c-0.016,0.85,0.805,1.406,2.035,1.406
					c1.217,0,2.037-0.557,2.051-1.406c-0.014-0.835-0.834-1.406-2.051-1.392C98.527,37.213,97.707,37.784,97.723,38.619z
					 M98.938,42.97h5.947v-1.392h1.143v4.702h-8.232v-4.702h1.143V42.97z M104.885,45.357v-1.479h-5.947v1.479H104.885z
					 M106.027,36.773h1.963v0.981h-1.963v3.252h-1.143v-7.573h1.143V36.773z"/>
				<path fill="#484848" d="M110.789,42.105c1.984-0.008,4.043-0.168,6.225-0.63l0.162,0.981c-2.314,0.483-4.381,0.645-6.461,0.645
					h-1.055v-8.379h1.129V42.105z M119.549,46.456h-1.143V33.434h1.143V46.456z"/>
				<path fill="#484848" d="M128.426,35.66h-4.938v6.592c2.359,0,4.029-0.109,5.963-0.469l0.146,0.996
					c-2.037,0.366-3.75,0.439-6.227,0.439h-1.025v-8.511h6.08V35.66z M131.854,38.59h2.182v0.967h-2.182v6.929h-1.143V33.434h1.143
					V38.59z"/>
				<path fill="#484848" d="M135.178,44.405c-0.014-0.513,0.426-0.938,0.938-0.938c0.514,0,0.938,0.425,0.938,0.938
					c0,0.527-0.424,0.952-0.938,0.952C135.604,45.357,135.164,44.933,135.178,44.405z"/>
			</g>
		</g>
	</g>
</g>
<g id="g-root-tx__1q9gs6q1n5mmmd-fill" transform="translate(212, 505.9999694824219)">
	<g id="tx__1q9gs6q1n5mmmd-fill">
		<g>
			<g enable-background="new    ">
				<path fill="#3CC583" d="M23.478,21.911H13.146v-1.27h4.473v-2.578h1.523v2.578h4.336V21.911z M22.657,27.341
					c-0.02,2.344-1.797,3.984-4.258,3.984c-2.48,0-4.277-1.641-4.258-3.984c-0.02-2.344,1.777-3.984,4.258-3.984
					C20.86,23.356,22.638,24.997,22.657,27.341z M15.606,27.341c-0.02,1.582,1.172,2.695,2.793,2.676
					c1.602,0.02,2.773-1.094,2.793-2.676c-0.02-1.563-1.191-2.695-2.793-2.695C16.778,24.646,15.587,25.778,15.606,27.341z
					 M26.681,25.017h2.91v1.27h-2.91v8.926h-1.523V17.849h1.523V25.017z"/>
				<path fill="#3CC583" d="M46.427,32.849H30.528V31.56h15.898V32.849z M44.552,27.478H32.56V19.47h11.816v1.27H34.083v5.469
					h10.469V27.478z"/>
				<path fill="#3CC583" d="M56.7,26.247l0.117,1.172c-1.23,0.234-2.598,0.381-3.945,0.469v5.898h-1.445v-5.82
					c-1.348,0.049-2.617,0.059-3.633,0.059l-0.215-1.309C49.981,26.716,53.868,26.716,56.7,26.247z M56.036,22.185
					c-0.02,1.895-1.602,3.203-3.809,3.184c-2.207,0.02-3.809-1.289-3.789-3.184c-0.02-1.914,1.582-3.203,3.789-3.223
					C54.435,18.981,56.017,20.271,56.036,22.185z M49.825,22.185c0,1.191,0.996,2.031,2.402,2.031s2.422-0.84,2.422-2.031
					s-1.016-2.051-2.422-2.031C50.821,20.134,49.825,20.993,49.825,22.185z M59.278,34.294h-1.445v-3.848h-3.301v-1.211h3.301
					V18.239h1.445V34.294z M62.599,35.212h-1.465V17.849h1.465V35.212z"/>
				<path fill="#3CC583" d="M74.083,24.489h3.887v-6.641h1.523v17.402H77.97v-9.492h-3.867c-0.186,3.398-1.914,5.527-4.336,5.527
					c-2.559,0-4.355-2.344-4.355-6.035s1.797-6.035,4.355-6.055C72.13,19.216,73.829,21.237,74.083,24.489z M66.876,25.251
					c0,2.832,1.172,4.668,2.891,4.668c1.699,0,2.891-1.836,2.891-4.668s-1.191-4.668-2.891-4.688
					C68.048,20.583,66.876,22.419,66.876,25.251z"/>
				<path fill="#3CC583" d="M96.466,26.052h-8.145v-7.07h8.145V26.052z M102.774,33.962l-0.527,1.191
					c-2.617-0.352-5-1.582-6.016-3.203c-1.055,1.65-3.496,2.852-6.113,3.203l-0.547-1.191c2.988-0.332,5.859-2.012,5.859-3.75
					h-5.137v-1.191h5.156v-1.699h1.523v1.699h5.195v1.191h-5.156C97.013,31.911,99.786,33.591,102.774,33.962z M89.825,24.841h5.137
					v-4.609h-5.137V24.841z M101.72,27.829h-1.504v-9.98h1.504V27.829z"/>
				<path fill="#3CC583" d="M125.606,32.946h-15.898v-1.27h7.109v-4.258h1.504v4.258h7.285V32.946z M124.825,26.345l-0.684,1.27
					c-2.646-0.537-5.439-2.334-6.563-4.844c-1.143,2.5-3.916,4.307-6.563,4.844l-0.684-1.27c3.027-0.527,6.426-3.066,6.426-5.977
					V19.04h1.602v1.328C118.36,23.278,121.798,25.817,124.825,26.345z"/>
				<path fill="#3CC583" d="M142.892,32.985h-15.898v-1.309h15.898V32.985z M141.368,20.876h-2.754v6.074h2.715v1.25h-12.891v-1.25
					h2.715v-6.074h-2.754v-1.27h12.969V20.876z M137.11,26.95v-6.074h-4.434v6.074H137.11z"/>
				<path fill="#3CC583" d="M160.177,32.946h-15.898v-1.27h15.898V32.946z M158.341,28.493h-12.012v-9.141h11.816v1.289h-10.254
					v2.578h9.883v1.23h-9.883v2.793h10.449V28.493z"/>
				<path fill="#3CC583" d="M170.45,26.247l0.117,1.172c-1.23,0.234-2.598,0.381-3.945,0.469v5.898h-1.445v-5.82
					c-1.348,0.049-2.617,0.059-3.633,0.059l-0.215-1.309C163.731,26.716,167.618,26.716,170.45,26.247z M169.786,22.185
					c-0.02,1.895-1.602,3.203-3.809,3.184c-2.207,0.02-3.809-1.289-3.789-3.184c-0.02-1.914,1.582-3.203,3.789-3.223
					C168.185,18.981,169.767,20.271,169.786,22.185z M163.575,22.185c0,1.191,0.996,2.031,2.402,2.031s2.422-0.84,2.422-2.031
					s-1.016-2.051-2.422-2.031C164.571,20.134,163.575,20.993,163.575,22.185z M173.028,34.294h-1.445v-3.848h-3.301v-1.211h3.301
					V18.239h1.445V34.294z M176.349,35.212h-1.465V17.849h1.465V35.212z"/>
				<path fill="#3CC583" d="M187.833,24.489h3.887v-6.641h1.523v17.402h-1.523v-9.492h-3.867c-0.186,3.398-1.914,5.527-4.336,5.527
					c-2.559,0-4.355-2.344-4.355-6.035s1.797-6.035,4.355-6.055C185.88,19.216,187.579,21.237,187.833,24.489z M180.626,25.251
					c0,2.832,1.172,4.668,2.891,4.668c1.699,0,2.891-1.836,2.891-4.668s-1.191-4.668-2.891-4.688
					C181.798,20.583,180.626,22.419,180.626,25.251z"/>
			</g>
			<g enable-background="new    ">
				<path fill="#3CC583" d="M102.047,50.765l-0.859,1.191c-1.904-0.762-3.418-2.275-4.16-4.16c-0.742,2.1-2.324,3.77-4.375,4.59
					l-0.82-1.25c2.598-0.957,4.395-3.379,4.414-6.055v-2.148h1.504v2.207C97.75,47.562,99.508,49.847,102.047,50.765z
					 M106.598,58.851H94.977v-5.449h1.543v4.16h10.078V58.851z M106.208,54.886h-1.543v-7.637h-3.867V45.96h3.867v-4.082h1.543
					V54.886z"/>
				<path fill="#3CC583" d="M116.618,44.417h-5.273v2.168h5.078v1.211h-5.078v2.402c2.529-0.01,4.111-0.098,5.977-0.469l0.156,1.27
					c-2.031,0.391-3.672,0.488-6.504,0.488h-1.094v-8.359h6.738V44.417z M123.844,59.222h-1.504v-4.668h-10.195v-1.25h11.699V59.222
					z M123.844,52.405h-1.465v-4.746h-2.441v4.629h-1.426V42.21h1.426v4.199h2.441v-4.531h1.465V52.405z"/>
			</g>
		</g>
	</g>
</g>
<g id="g-root-cp_0_g-0_1uonq2a1n621vq-stroke" transform="translate(62.21098327636719, 265.9999694824219)">
	<g id="cp_0_g-0_1uonq2a1n621vq-stroke">
		<g>
			<path fill="none" stroke="#969696" stroke-width="2" stroke-linecap="round" stroke-linejoin="round" stroke-dasharray="5,7" d="
				M177.578,100c-3.077,43.592-39.415,78-83.789,78S13.077,143.592,10,100 M345.578,88c-3.077-43.592-39.415-78-83.789-78
				S181.077,44.408,178,88 M513.578,100c-3.076,43.592-39.415,78-83.789,78S349.077,143.592,346,100 M681.578,88
				c-3.076-43.592-39.415-78-83.789-78S517.076,44.408,514,88 M849.578,100c-3.076,43.592-39.415,78-83.789,78
				S685.076,143.592,682,100 M1017.578,88c-3.076-43.592-39.415-78-83.789-78S853.076,44.408,850,88"/>
		</g>
	</g>
</g>
<g id="g-root-cp_1_g-1_1_1uonq2a1n621vs-stroke" transform="translate(56, 208.99996948242188)">
	<g id="cp_1_g-1_1_1uonq2a1n621vs-stroke">
		<g>
			<path fill="none" stroke="#4E88E7" stroke-width="2" stroke-linecap="round" stroke-linejoin="round" d="M34,151
				c0,36.451,29.549,66,66,66s66-29.549,66-66s-29.549-66-66-66S34,114.549,34,151 M10,151c0,3.313,2.687,6,6,6s6-2.687,6-6
				s-2.687-6-6-6S10,147.687,10,151"/>
		</g>
	</g>
	<g id="cp_1_g-1_1_1uonq2a1n621vs-stroke_1_">
		<g>
			<path fill="none" stroke="#4E88E7" stroke-width="2" stroke-linecap="round" stroke-linejoin="round" d="M109,19
				c0,4.971-4.029,9-9,9s-9-4.029-9-9s4.029-9,9-9S109,14.029,109,19z"/>
		</g>
	</g>
</g>
<g id="g-root-cp_2_g-2_1q8u7xu1n622o2-stroke" transform="translate(224, 283.9999694824219)">
	<g id="cp_2_g-2_1q8u7xu1n622o2-stroke">
		<g>
			<path fill="none" stroke="#3CC583" stroke-width="2" stroke-linecap="round" stroke-linejoin="round" d="M34,76
				c0,36.451,29.549,66,66,66s66-29.549,66-66s-29.549-66-66-66S34,39.549,34,76 M10,76c0,3.313,2.687,6,6,6s6-2.687,6-6
				s-2.687-6-6-6S10,72.687,10,76"/>
		</g>
	</g>
	<g id="cp_2_g-2_1q8u7xu1n622o2-stroke_1_">
		<g>
			<path fill="none" stroke="#3CC583" stroke-width="2" stroke-linecap="round" stroke-linejoin="round" d="M109,208
				c0,4.971-4.029,9-9,9s-9-4.029-9-9s4.029-9,9-9S109,203.029,109,208z"/>
		</g>
	</g>
</g>
<g id="g-root-cp_3_g-3_1_1hdtos21n620b0-stroke" transform="translate(392, 208.99996948242188)">
	<g id="cp_3_g-3_1_1hdtos21n620b0-stroke">
		<g>
			<path fill="none" stroke="#92BD39" stroke-width="2" stroke-linecap="round" stroke-linejoin="round" d="M34,151
				c0,36.451,29.549,66,66,66s66-29.549,66-66s-29.549-66-66-66S34,114.549,34,151 M10,151c0,3.313,2.687,6,6,6s6-2.687,6-6
				s-2.687-6-6-6S10,147.687,10,151"/>
		</g>
	</g>
	<g id="cp_3_g-3_1_1hdtos21n620b0-stroke_1_">
		<g>
			<path fill="none" stroke="#92BD39" stroke-width="2" stroke-linecap="round" stroke-linejoin="round" d="M109,19
				c0,4.971-4.029,9-9,9s-9-4.029-9-9s4.029-9,9-9S109,14.029,109,19z"/>
		</g>
	</g>
</g>
<g id="g-root-cp_4_g-4_1hdtos21n620b2-stroke" transform="translate(560, 283.9999694824219)">
	<g id="cp_4_g-4_1hdtos21n620b2-stroke">
		<g>
			<path fill="none" stroke="#1EABDA" stroke-width="2" stroke-linecap="round" stroke-linejoin="round" d="M34,76
				c0,36.451,29.549,66,66,66s66-29.549,66-66s-29.549-66-66-66S34,39.549,34,76 M10,76c0,3.313,2.687,6,6,6s6-2.687,6-6
				s-2.687-6-6-6S10,72.687,10,76"/>
		</g>
	</g>
	<g id="cp_4_g-4_1hdtos21n620b2-stroke_1_">
		<g>
			<path fill="none" stroke="#1EABDA" stroke-width="2" stroke-linecap="round" stroke-linejoin="round" d="M109,208
				c0,4.971-4.029,9-9,9s-9-4.029-9-9s4.029-9,9-9S109,203.029,109,208z"/>
		</g>
	</g>
</g>
<g id="g-root-cp_5_g-5_1_1cy06nm1n6213c-stroke" transform="translate(728, 208.99996948242188)">
	<g id="cp_5_g-5_1_1cy06nm1n6213c-stroke">
		<g>
			<path fill="none" stroke="#7F64EA" stroke-width="2" stroke-linecap="round" stroke-linejoin="round" d="M34,151
				c0,36.451,29.549,66,66,66s66-29.549,66-66s-29.549-66-66-66S34,114.549,34,151 M10,151c0,3.313,2.687,6,6,6s6-2.687,6-6
				s-2.687-6-6-6S10,147.687,10,151"/>
		</g>
	</g>
	<g id="cp_5_g-5_1_1cy06nm1n6213c-stroke_1_">
		<g>
			<path fill="none" stroke="#7F64EA" stroke-width="2" stroke-linecap="round" stroke-linejoin="round" d="M109,19
				c0,4.971-4.029,9-9,9s-9-4.029-9-9s4.029-9,9-9S109,14.029,109,19z"/>
		</g>
	</g>
</g>
<g id="g-root-cp_6_g-6_1cy06nm1n6213e-stroke" transform="translate(896, 283.9999694824219)">
	<g id="cp_6_g-6_1cy06nm1n6213e-stroke">
		<g>
			<path fill="none" stroke="#DE58A9" stroke-width="2" stroke-linecap="round" stroke-linejoin="round" d="M34,76
				c0,36.451,29.549,66,66,66s66-29.549,66-66s-29.549-66-66-66S34,39.549,34,76 M10,76c0,3.313,2.687,6,6,6s6-2.687,6-6
				s-2.687-6-6-6S10,72.687,10,76 M178,76c0,3.313,2.687,6,6,6s6-2.687,6-6s-2.687-6-6-6S178,72.687,178,76"/>
		</g>
	</g>
	<g id="cp_6_g-6_1cy06nm1n6213e-stroke_1_">
		<g>
			<path fill="none" stroke="#DE58A9" stroke-width="2" stroke-linecap="round" stroke-linejoin="round" d="M109,208
				c0,4.971-4.029,9-9,9s-9-4.029-9-9s4.029-9,9-9S109,203.029,109,208z"/>
		</g>
	</g>
</g>
<g id="g-root-cp_-1_line_18i6oj61n621vo-stroke" transform="translate(146, 226.99996948242188)">
	<g id="cp_-1_line_18i6oj61n621vo-stroke">
		<g>
			<path fill="none" stroke="#969696" stroke-width="2" stroke-linecap="round" stroke-linejoin="round" d="M10,67V10"/>
		</g>
	</g>
</g>
<g id="g-root-cp_-1_line_1_18i6oj61n621vq-stroke" transform="translate(482, 226.99996948242188)">
	<g id="cp_-1_line_1_18i6oj61n621vq-stroke">
		<g>
			<path fill="none" stroke="#969696" stroke-width="2" stroke-linecap="round" stroke-linejoin="round" d="M10,67V10"/>
		</g>
	</g>
</g>
<g id="g-root-cp_-1_line_2_18i6oj61n621vs-stroke" transform="translate(818, 226.99996948242188)">
	<g id="cp_-1_line_2_18i6oj61n621vs-stroke">
		<g>
			<path fill="none" stroke="#969696" stroke-width="2" stroke-linecap="round" stroke-linejoin="round" d="M10,67V10"/>
		</g>
	</g>
</g>
<g id="g-root-cp_-1_line_3_142d6eq1n622o2-stroke" transform="translate(314, 415.9999694824219)">
	<g id="cp_-1_line_3_142d6eq1n622o2-stroke">
		<g>
			<path fill="none" stroke="#969696" stroke-width="2" stroke-linecap="round" stroke-linejoin="round" d="M10,67V10"/>
		</g>
	</g>
</g>
<g id="g-root-cp_-1_line_4_142d6eq1n622o4-stroke" transform="translate(650, 415.9999694824219)">
	<g id="cp_-1_line_4_142d6eq1n622o4-stroke">
		<g>
			<path fill="none" stroke="#969696" stroke-width="2" stroke-linecap="round" stroke-linejoin="round" d="M10,67V10"/>
		</g>
	</g>
</g>
<g id="g-root-cp_-1_line_5_142d6eq1n622o6-stroke" transform="translate(986, 415.9999694824219)">
	<g id="cp_-1_line_5_142d6eq1n622o6-stroke">
		<g>
			<path fill="none" stroke="#969696" stroke-width="2" stroke-linecap="round" stroke-linejoin="round" d="M10,67V10"/>
		</g>
	</g>
</g>
<g id="g-root-tx__58lgy1n6213i-stroke" transform="translate(710, 157.99996948242188)">
</g>
<g id="g-root-tx__dg2mr61n622oc-stroke" transform="translate(374, 157.99996948242188)">
</g>
<g id="g-root-tx__mbpn021n621vm-stroke" transform="translate(38, 157.99996948242188)">
</g>
<g id="g-root-tx__90vlpu1n620at-stroke" transform="translate(746, 122)">
</g>
<g id="g-root-ic_cycl_1uqj5bm1n621on-stroke" transform="translate(116, 319.9999694824219)">
	<g id="ic_cycl_1uqj5bm1n621on-stroke">
		<g>
			<path fill="none" stroke="#4E88E7" stroke-width="2" stroke-linecap="round" stroke-linejoin="round" d="M25.623,64.902
				C13.032,57.661,7.82,42.167,13.474,28.788C19.128,15.41,33.873,8.35,47.84,12.332 M54.377,15.098
				c12.557,7.208,17.795,22.63,12.225,35.994c-5.57,13.365-20.21,20.502-34.169,16.658 M16.7,67.29l8.925-2.393l-2.393-8.925
				 M63.3,12.71l-8.925,2.393l2.393,8.925 M31.975,30.853c-0.001,4.692,3.802,8.497,8.495,8.497c4.692,0,8.496-3.805,8.495-8.497
				c0.001-4.692-3.802-8.497-8.495-8.497C35.777,22.355,31.974,26.16,31.975,30.853 M53.685,52.415
				c-2.002-5.492-7.224-9.146-13.069-9.146s-11.067,3.654-13.069,9.146 M34.5,24.805c2.897,5.386,9.333,6.048,14.458,6.048"/>
		</g>
	</g>
</g>
<g id="g-root-ic_code_4j6rhu1n5gydk-stroke" transform="translate(284, 319.9999694824219)">
	<g id="ic_code_4j6rhu1n5gydk-stroke">
		<g>
			<path fill="none" stroke="#3CC583" stroke-width="2" stroke-linecap="round" stroke-linejoin="round" d="M36.25,35l-5,5l5,5
				 M43.75,35l5,5l-5,5 M40,63.125L40,63.125c0.345,0,0.625,0.279,0.625,0.625l0,0c0,0.345-0.28,0.625-0.625,0.625l0,0
				c-0.345,0-0.625-0.28-0.625-0.625l0,0C39.375,63.404,39.655,63.125,40,63.125 M28.75,11.25h22.5c0,0,5,0,5,5v47.5c0,0,0,5-5,5
				h-22.5c0,0-5,0-5-5v-47.5C23.75,16.25,23.75,11.25,28.75,11.25 M56.25,58.75h-32.5 M56.25,21.25h-32.5 M36.25,16.25h7.5"/>
		</g>
	</g>
</g>
<g id="g-root-ic_add_1hbycoi1n5icjl-stroke" transform="translate(452, 319.9999694824219)">
	<g id="ic_add_1hbycoi1n5icjl-stroke">
		<g>
			<path fill="none" stroke="#92BD39" stroke-width="2" stroke-linecap="round" stroke-linejoin="round" d="M14.286,18.571h51.428
				c0,0,2.144,0,2.144,2.143V55c0,0,0,2.143-2.144,2.143H14.286c0,0-2.144,0-2.144-2.143V20.714
				C12.143,20.714,12.143,18.571,14.286,18.571 M35.714,57.143l-4.285,10.715 M44.286,57.143l4.285,10.715 M27.143,67.857h25.715
				 M50.714,37.857H29.286 M40,27.143v21.429"/>
		</g>
	</g>
</g>
<g id="g-root-ic_comp_1cu9faq1n5jrpe-stroke" transform="translate(620, 319.9999694824219)">
	<g id="ic_comp_1cu9faq1n5jrpe-stroke">
		<g>
			<path fill="none" stroke="#1EABDA" stroke-width="2" stroke-linecap="round" stroke-linejoin="round" d="M11.25,18.918
				c-0.001,4.235,3.432,7.669,7.667,7.669c4.236,0,7.669-3.434,7.668-7.669c0.001-4.236-3.432-7.67-7.668-7.67
				C14.682,11.248,11.249,14.682,11.25,18.918 M11.25,61.082c-0.001,4.236,3.432,7.67,7.667,7.67c4.236,0,7.669-3.434,7.668-7.67
				c0.001-4.235-3.432-7.669-7.668-7.669C14.682,53.413,11.249,56.847,11.25,61.082 M18.917,26.582v26.836 M53.415,61.082
				c-0.001,4.236,3.432,7.67,7.668,7.67c4.235,0,7.668-3.434,7.667-7.67c0.001-4.235-3.432-7.669-7.667-7.669
				C56.847,53.413,53.414,56.847,53.415,61.082 M61.083,53.418V31.695c0-7.058-5.721-12.777-12.778-12.777H38.083 M45.75,11.25
				l-7.667,7.668l7.667,7.664"/>
		</g>
	</g>
</g>
<g id="g-root-ic_chec_1lxe4ky1n5jtvn-stroke" transform="translate(788, 319.9999694824219)">
	<g id="ic_chec_1lxe4ky1n5jtvn-stroke">
		<g>
			<path fill="none" stroke="#7F64EA" stroke-width="2" stroke-linecap="round" stroke-linejoin="round" d="M63.75,21.25
				c0,2.762-2.238,5-5,5h-42.5c-2.762,0-5-2.238-5-5v-5c0-2.762,2.238-5,5-5h42.5c2.762,0,5,2.238,5,5V21.25z M16.25,41.25
				c-2.762,0-5-2.238-5-5v-5c0-2.762,2.238-5,5-5h42.5c2.762,0,5,2.238,5,5V35 M21.875,18.125c-0.345,0-0.625,0.279-0.625,0.625
				c0,0.345,0.28,0.625,0.625,0.625s0.625-0.28,0.625-0.625C22.5,18.404,22.22,18.125,21.875,18.125L21.875,18.125 M30.625,18.125
				C30.28,18.125,30,18.404,30,18.75c0,0.345,0.28,0.625,0.625,0.625s0.625-0.28,0.625-0.625
				C31.25,18.404,30.97,18.125,30.625,18.125L30.625,18.125 M21.875,33.125c-0.345,0-0.625,0.279-0.625,0.625
				c0,0.345,0.28,0.625,0.625,0.625s0.625-0.28,0.625-0.625C22.5,33.404,22.22,33.125,21.875,33.125L21.875,33.125 M30.625,33.125
				C30.28,33.125,30,33.404,30,33.75c0,0.345,0.28,0.625,0.625,0.625s0.625-0.28,0.625-0.625
				C31.25,33.404,30.97,33.125,30.625,33.125L30.625,33.125 M32.5,56.25H16.25c-2.762,0-5-2.238-5-5v-5c0-2.762,2.238-5,5-5h20
				 M21.875,48.125c-0.345,0-0.625,0.279-0.625,0.625c0,0.345,0.28,0.625,0.625,0.625s0.625-0.28,0.625-0.625
				C22.5,48.404,22.22,48.125,21.875,48.125L21.875,48.125 M30.625,48.125C30.28,48.125,30,48.404,30,48.75
				c0,0.345,0.28,0.625,0.625,0.625s0.625-0.28,0.625-0.625C31.25,48.404,30.97,48.125,30.625,48.125L30.625,48.125 M38.75,53.75
				c0,8.284,6.716,15,15,15s15-6.716,15-15s-6.716-15-15-15S38.75,45.466,38.75,53.75z M60.435,49.39l-7.262,9.686
				c-0.326,0.435-0.825,0.706-1.367,0.744s-1.074-0.16-1.458-0.544l-3.75-3.75"/>
		</g>
	</g>
</g>
<g id="g-root-ic_incr_1lvipbm1n5l898-stroke" transform="translate(956, 319.9999694824219)">
	<g id="ic_incr_1lvipbm1n5l898-stroke">
		<g>
			<path fill="none" stroke="#DE58A9" stroke-width="2" stroke-linecap="round" stroke-linejoin="round" d="M11.26,68.125h57.5
				 M21.25,68.125v-6.25c0-0.69-0.56-1.25-1.25-1.25h-5c-0.69,0-1.25,0.56-1.25,1.25v6.25 M36.25,68.125v-16.25
				c0-0.69-0.56-1.25-1.25-1.25h-5c-0.69,0-1.25,0.56-1.25,1.25v16.25 M51.25,68.125v-26.25c0-0.69-0.56-1.25-1.25-1.25h-5
				c-0.69,0-1.25,0.56-1.25,1.25v26.25 M66.25,68.125v-36.25c0-0.69-0.56-1.25-1.25-1.25h-5c-0.69,0-1.25,0.56-1.25,1.25v36.25
				 M17.51,43.125l45-30 M61.26,23.125l1.25-10l-10-1.25"/>
		</g>
	</g>
</g>
<g id="g-root-tx__dg2mr61n622ob-stroke" transform="translate(410, 122)">
</g>
<g id="g-root-tx__qrj54i1n6213d-stroke" transform="translate(62, 122)">
</g>
<g id="g-root-tx__zn65de1n620ao-stroke" transform="translate(476, 38)">
</g>
<g id="g-root-tx__1heg90y1n5mk9a-stroke" transform="translate(206, 566)">
</g>
<g id="g-root-tx__1cymqwi1n5ml1j-stroke" transform="translate(584, 505.9999694824219)">
</g>
<g id="g-root-tx__zn68j61n5mmmh-stroke" transform="translate(914, 505.9999694824219)">
</g>
<g id="g-root-tx__18it8s21n5mlts-stroke" transform="translate(542, 542)">
</g>
<g id="g-root-tx__zn68j61n5mmmi-stroke" transform="translate(878, 542)">
</g>
<g id="g-root-tx__1q9gs6q1n5mmmd-stroke" transform="translate(212, 505.9999694824219)">
</g>
</svg>
