<?xml version="1.0" encoding="utf-8"?>
<!-- Generator: Adobe Illustrator 16.0.0, SVG Export Plug-In . SVG Version: 6.00 Build 0)  -->
<!DOCTYPE svg PUBLIC "-//W3C//DTD SVG 1.1//EN" "http://www.w3.org/Graphics/SVG/1.1/DTD/svg11.dtd">
<svg version="1.1" id="Layer_1" xmlns="http://www.w3.org/2000/svg" xmlns:xlink="http://www.w3.org/1999/xlink" x="0px" y="0px"
	 width="900px" height="500px" viewBox="126 86 900 500" enable-background="new 126 86 900 500" xml:space="preserve">
<g id="items">
	<g id="blend">
		<g id="g-root-cp_0_g-0_1uonq2a1n621vq-fill" transform="translate(62.21098327636719, 265.9999694824219)">
		</g>
		<g id="g-root-cp_1_g-1_1_1uonq2a1n621vs-fill" transform="translate(56, 208.99996948242188)">
			<g id="cp_1_g-1_1_1uonq2a1n621vs-fill">
				<g>
					<path fill="#EDF4FF" d="M108.46,113.391c0,31.321,25.392,56.713,56.714,56.713c31.322,0,56.714-25.392,56.714-56.713
						c0-31.323-25.392-56.715-56.714-56.715C133.852,56.676,108.46,82.068,108.46,113.391 M87.837,113.391
						c0,2.846,2.308,5.155,5.156,5.155c2.847,0,5.156-2.31,5.156-5.155c0-2.848-2.309-5.156-5.156-5.156
						C90.146,108.234,87.837,110.543,87.837,113.391"/>
				</g>
			</g>
			<g id="cp_1_g-1_1_1uonq2a1n621vs-fill_1_">
				<g>
					<path fill="#EDF4FF" d="M172.908-0.039c0,4.271-3.462,7.734-7.733,7.734c-4.271,0-7.733-3.463-7.733-7.734
						s3.462-7.734,7.733-7.734C169.446-7.772,172.908-4.31,172.908-0.039z"/>
				</g>
			</g>
		</g>
		<g id="g-root-cp_2_g-2_1q8u7xu1n622o2-fill" transform="translate(224, 283.9999694824219)">
			<g id="cp_2_g-2_1q8u7xu1n622o2-fill">
				<g>
					<path fill="#E3FFF2" d="M84.824,38.391c0,31.321,25.392,56.713,56.714,56.713s56.714-25.392,56.714-56.713
						c0-31.323-25.392-56.715-56.714-56.715S84.824,7.068,84.824,38.391 M64.201,38.391c0,2.846,2.308,5.155,5.156,5.155
						c2.847,0,5.155-2.31,5.155-5.155c0-2.848-2.308-5.156-5.155-5.156C66.509,33.234,64.201,35.543,64.201,38.391"/>
				</g>
			</g>
			<g id="cp_2_g-2_1q8u7xu1n622o2-fill_1_">
				<g>
					<path fill="#E3FFF2" d="M149.271,151.818c0,4.271-3.462,7.732-7.733,7.732c-4.271,0-7.733-3.462-7.733-7.732
						c0-4.271,3.462-7.734,7.733-7.734C145.809,144.084,149.271,147.547,149.271,151.818z"/>
				</g>
			</g>
		</g>
		<g id="g-root-cp_3_g-3_1_1hdtos21n620b0-fill" transform="translate(392, 208.99996948242188)">
			<g id="cp_3_g-3_1_1hdtos21n620b0-fill">
				<g>
					<path fill="#F4FFDC" d="M61.188,113.391c0,31.321,25.391,56.713,56.714,56.713s56.714-25.392,56.714-56.713
						c0-31.323-25.392-56.715-56.714-56.715S61.188,82.068,61.188,113.391 M40.564,113.391c0,2.846,2.308,5.155,5.155,5.155
						c2.848,0,5.156-2.31,5.156-5.155c0-2.848-2.308-5.156-5.156-5.156C42.872,108.234,40.564,110.543,40.564,113.391"/>
				</g>
			</g>
			<g id="cp_3_g-3_1_1hdtos21n620b0-fill_1_">
				<g>
					<path fill="#F4FFDC" d="M125.635-0.039c0,4.271-3.462,7.734-7.734,7.734s-7.733-3.463-7.733-7.734s3.462-7.734,7.733-7.734
						S125.635-4.31,125.635-0.039z"/>
				</g>
			</g>
		</g>
		<g id="g-root-cp_4_g-4_1hdtos21n620b2-fill" transform="translate(560, 283.9999694824219)">
			<g id="cp_4_g-4_1hdtos21n620b2-fill">
				<g>
					<path fill="#E8F9FF" d="M37.55,38.391c0,31.321,25.393,56.713,56.715,56.713s56.714-25.392,56.714-56.713
						c0-31.323-25.392-56.715-56.714-56.715S37.55,7.068,37.55,38.391 M16.928,38.391c0,2.846,2.308,5.155,5.155,5.155
						s5.156-2.31,5.156-5.155c0-2.848-2.309-5.156-5.156-5.156S16.928,35.543,16.928,38.391"/>
				</g>
			</g>
			<g id="cp_4_g-4_1hdtos21n620b2-fill_1_">
				<g>
					<path fill="#E8F9FF" d="M101.999,151.818c0,4.271-3.464,7.732-7.734,7.732s-7.733-3.462-7.733-7.732
						c0-4.271,3.463-7.734,7.733-7.734S101.999,147.547,101.999,151.818z"/>
				</g>
			</g>
		</g>
		<g id="g-root-cp_5_g-5_1_1cy06nm1n6213c-fill" transform="translate(728, 208.99996948242188)">
			<g id="cp_5_g-5_1_1cy06nm1n6213c-fill">
				<g>
					<path fill="#F3F0FF" d="M13.914,113.391c0,31.321,25.392,56.713,56.714,56.713c31.323,0,56.715-25.392,56.715-56.713
						c0-31.323-25.392-56.715-56.715-56.715C39.306,56.676,13.914,82.068,13.914,113.391 M-6.709,113.391
						c0,2.846,2.309,5.155,5.156,5.155c2.846,0,5.155-2.31,5.155-5.155c0-2.848-2.31-5.156-5.155-5.156
						C-4.4,108.234-6.709,110.543-6.709,113.391"/>
				</g>
			</g>
			<g id="cp_5_g-5_1_1cy06nm1n6213c-fill_1_">
				<g>
					<path fill="#F3F0FF" d="M78.361-0.039c0,4.271-3.461,7.734-7.733,7.734c-4.271,0-7.733-3.463-7.733-7.734
						s3.462-7.734,7.733-7.734C74.9-7.772,78.361-4.31,78.361-0.039z"/>
				</g>
			</g>
		</g>
		<g id="g-root-cp_6_g-6_1cy06nm1n6213e-fill" transform="translate(896, 283.9999694824219)">
			<g id="cp_6_g-6_1cy06nm1n6213e-fill">
				<g>
					<path fill="#FFEBF7" d="M-9.724,38.391c0,31.321,25.393,56.713,56.715,56.713s56.714-25.392,56.714-56.713
						c0-31.323-25.392-56.715-56.714-56.715S-9.724,7.068-9.724,38.391 M-30.346,38.391c0,2.846,2.308,5.155,5.155,5.155
						s5.155-2.31,5.155-5.155c0-2.848-2.308-5.156-5.155-5.156S-30.346,35.543-30.346,38.391 M114.018,38.391
						c0,2.846,2.309,5.155,5.155,5.155s5.156-2.31,5.156-5.155c0-2.848-2.31-5.156-5.156-5.156S114.018,35.543,114.018,38.391"/>
				</g>
			</g>
			<g id="cp_6_g-6_1cy06nm1n6213e-fill_1_">
				<g>
					<path fill="#FFEBF7" d="M54.725,151.818c0,4.271-3.462,7.732-7.733,7.732c-4.272,0-7.733-3.462-7.733-7.732
						c0-4.271,3.461-7.734,7.733-7.734C51.263,144.084,54.725,147.547,54.725,151.818z"/>
				</g>
			</g>
		</g>
		<g id="g-root-cp_-1_line_18i6oj61n621vo-fill" transform="translate(146, 226.99996948242188)">
		</g>
		<g id="g-root-cp_-1_line_1_18i6oj61n621vq-fill" transform="translate(482, 226.99996948242188)">
		</g>
		<g id="g-root-cp_-1_line_2_18i6oj61n621vs-fill" transform="translate(818, 226.99996948242188)">
		</g>
		<g id="g-root-cp_-1_line_3_142d6eq1n622o2-fill" transform="translate(314, 415.9999694824219)">
		</g>
		<g id="g-root-cp_-1_line_4_142d6eq1n622o4-fill" transform="translate(650, 415.9999694824219)">
		</g>
		<g id="g-root-cp_-1_line_5_142d6eq1n622o6-fill" transform="translate(986, 415.9999694824219)">
		</g>
		<g id="g-root-tx__58lgy1n6213i-fill" transform="translate(710, 157.99996948242188)">
			<g id="tx__58lgy1n6213i-fill">
				<g>
					<g enable-background="new    ">
						<path fill="#484848" d="M38.664,13.878H28.43v-0.83h4.602v-2.112h-3.319V7.491H36.4v-1.76h-6.714V4.914h7.683v3.382h-6.677
							v1.823h6.94v0.817h-3.634v2.112h4.665V13.878z"/>
						<path fill="#484848" d="M41.907,5.643h5.532V4.386h0.98v4.099h-3.269v1.283h4.602v0.792H39.568V9.767h4.615V8.484h-3.257
							V4.386h0.98V5.643z M48.974,14.444l-0.377,0.767c-1.717-0.283-3.27-1.063-3.936-2.263c-0.673,1.201-2.226,1.98-3.923,2.263
							l-0.377-0.767c2.012-0.276,3.797-1.371,3.797-2.829v-0.314h0.993v0.314C45.151,13.074,46.937,14.168,48.974,14.444z
							 M47.439,7.705V6.423h-5.532v1.282H47.439z"/>
						<path fill="#484848" d="M60.947,11.93l-0.604,0.779c-1.27-0.622-2.37-1.936-2.904-3.533c-0.522,1.691-1.622,3.099-2.93,3.759
							l-0.629-0.83c1.66-0.767,3.043-2.892,3.056-5.017V5.052h0.98v2.037C57.904,9.126,59.3,11.188,60.947,11.93z M63.16,15.287
							h-0.993V4.084h0.993V15.287z"/>
						<path fill="#484848" d="M75.318,13.74H65.084v-0.817h10.234V13.74z M74.79,9.717l-0.452,0.83
							c-1.686-0.39-3.465-1.591-4.188-3.244c-0.723,1.647-2.496,2.848-4.187,3.244l-0.453-0.83c1.937-0.377,4.111-2.062,4.111-3.986
							V4.876h1.031v0.855C70.653,7.642,72.841,9.352,74.79,9.717z"/>
						<path fill="#484848" d="M81.015,5.643h-3.319v1.383h2.854v0.779h-2.854v1.521c1.615-0.006,2.621-0.063,3.822-0.289
							l0.101,0.792c-1.295,0.239-2.352,0.302-4.162,0.302h-0.704V4.813h4.263V5.643z M85.717,15.111h-7.381v-3.772h7.381V15.111z
							 M79.305,14.306h5.444v-2.163h-5.444V14.306z M83.542,10.723h-0.956V7.718h-1.509V6.9h1.509V4.285h0.956V10.723z
							 M85.717,10.823h-0.943V4.084h0.943V10.823z"/>
						<path fill="#484848" d="M97.548,9.729H87.363V8.925h10.185V9.729z M96.404,6.209c0,1.27-1.459,1.949-3.948,1.961
							c-2.489-0.013-3.961-0.692-3.961-1.961c0-1.245,1.472-1.924,3.961-1.924S96.404,4.964,96.404,6.209z M96.24,13.2h-6.639v1.157
							h6.979v0.779h-7.959V12.47h6.651v-1.018h-6.677v-0.755h7.645V13.2z M89.526,6.209c-0.013,0.779,1.068,1.207,2.93,1.207
							c1.849,0,2.942-0.428,2.942-1.207c0-0.729-1.094-1.182-2.942-1.182C90.595,5.027,89.514,5.479,89.526,6.209z"/>
						<path fill="#484848" d="M108.327,8.849l-0.528,0.767c-1.238-0.44-2.226-1.32-2.716-2.452c-0.478,1.276-1.489,2.25-2.816,2.728
							l-0.54-0.792c1.685-0.553,2.841-1.961,2.854-3.596V4.449h0.969v1.056C105.536,6.976,106.692,8.309,108.327,8.849z
							 M111.005,13.099h-6.249v1.219h6.664v0.792h-7.632v-2.766h6.236v-1.119h-6.262v-0.792h7.242V13.099z M111.005,9.868h-0.993
							V6.963h-2.489V6.146h2.489V4.084h0.993V9.868z"/>
						<path fill="#484848" d="M119.995,12.131l-0.554,0.767c-1.288-0.572-2.383-1.786-2.904-3.269
							c-0.503,1.571-1.591,2.86-2.879,3.47l-0.554-0.767c1.66-0.754,2.93-2.641,2.93-4.602V6.837h-2.628V6.033h2.615V4.298h0.98
							v1.735h2.604v0.805h-2.604V7.73C117.002,9.604,118.311,11.414,119.995,12.131z M122.095,15.262h-0.993V4.084h0.993V15.262z"/>
						<path fill="#484848" d="M130.606,6.699h-6.651V5.882h2.879v-1.66h0.981v1.66h2.791V6.699z M130.078,10.194
							c-0.013,1.509-1.156,2.565-2.74,2.565c-1.598,0-2.754-1.057-2.741-2.565c-0.013-1.509,1.144-2.564,2.741-2.564
							C128.922,7.63,130.065,8.686,130.078,10.194z M125.539,10.194c-0.012,1.019,0.755,1.735,1.799,1.723
							c1.03,0.013,1.785-0.704,1.798-1.723c-0.013-1.006-0.768-1.735-1.798-1.735C126.294,8.459,125.527,9.188,125.539,10.194z
							 M132.668,8.698h1.874v0.817h-1.874v5.746h-0.98V4.084h0.98V8.698z"/>
						<path fill="#484848" d="M145.343,13.677h-10.185V12.86h3.999V8.862h0.968v3.999h5.218V13.677z M144.123,6.334
							c-0.012,1.371-0.012,2.905-0.414,5.155l-1.006-0.113c0.427-2.137,0.427-3.709,0.427-5.042V6.033h-6.89V5.216h7.883V6.334z"/>
						<path fill="#484848" d="M58.587,26.743h-2.703v3.986h-0.993v-3.986h-2.867v3.986h-1.019v-3.986h-2.652v-0.817h10.234V26.743z
							 M57.38,22.443c0,1.483-1.584,2.426-3.936,2.414c-2.352,0.012-3.936-0.931-3.936-2.414c0-1.497,1.584-2.439,3.936-2.439
							S57.38,20.947,57.38,22.443z M50.527,22.443c-0.013,0.993,1.169,1.622,2.917,1.622c1.735,0,2.93-0.628,2.93-1.622
							c0-0.994-1.194-1.635-2.93-1.635C51.696,20.809,50.515,21.45,50.527,22.443z"/>
						<path fill="#484848" d="M66.533,27.522l-0.554,0.78c-1.308-0.597-2.439-1.886-2.954-3.433
							c-0.528,1.641-1.654,3.068-2.93,3.709l-0.592-0.78c1.598-0.767,2.993-2.879,3.006-4.815v-1.458h-2.641v-0.817h6.299v0.817
							h-2.665v1.458C63.503,24.882,64.886,26.806,66.533,27.522z M68.721,30.729h-0.993V19.551h0.993V30.729z"/>
						<path fill="#484848" d="M73.965,25.297c1.238-0.05,2.521-0.138,3.684-0.302l0.063,0.729c-2.338,0.402-5.042,0.453-7.028,0.453
							l-0.101-0.817c0.723-0.006,1.54-0.013,2.401-0.038v-2.427h0.981V25.297z M76.844,21.01c-0.013,0.729-0.013,1.848-0.289,3.307
							l-0.993-0.075c0.27-1.339,0.295-2.289,0.313-2.993h-4.602v-0.83h5.57V21.01z M79.773,30.49h-7.469v-3.282h0.993v2.452h6.476
							V30.49z M79.408,23.197h1.635v0.843h-1.635v3.923h-1.006v-8.412h1.006V23.197z"/>
						<path fill="#484848" d="M87.619,24.568h-4.175v2.641c1.854,0,3.508-0.082,5.507-0.402l0.101,0.83
							c-2.062,0.327-3.759,0.402-5.683,0.402h-0.931v-4.275h4.187v-2.351h-4.212v-0.817h5.206V24.568z M91.014,30.754h-0.98V19.551
							h0.98V30.754z"/>
						<path fill="#484848" d="M99.613,21.525h-6.664v-0.817h2.842v-1.257h0.98v1.257h2.842V21.525z M98.972,24.002
							c-0.013,1.195-1.081,1.962-2.69,1.962c-1.622,0-2.703-0.767-2.69-1.962c-0.013-1.194,1.068-1.961,2.69-1.961
							C97.891,22.041,98.959,22.808,98.972,24.002z M94.533,24.002c-0.012,0.729,0.692,1.207,1.748,1.207
							c1.044,0,1.748-0.478,1.761-1.207c-0.013-0.716-0.717-1.207-1.761-1.194C95.226,22.795,94.521,23.286,94.533,24.002z
							 M95.577,27.736h5.104v-1.194h0.981v4.036h-7.066v-4.036h0.98V27.736z M100.682,29.786v-1.27h-5.104v1.27H100.682z
							 M101.663,22.418h1.685v0.842h-1.685v2.792h-0.981v-6.5h0.981V22.418z"/>
						<path fill="#484848" d="M105.762,26.995c1.703-0.006,3.47-0.145,5.344-0.541l0.138,0.842
							c-1.986,0.415-3.759,0.553-5.545,0.553h-0.905v-7.192h0.969V26.995z M113.28,30.729h-0.98V19.551h0.98V30.729z"/>
						<path fill="#484848" d="M120.913,21.462h-4.237v5.658c2.024,0,3.457-0.094,5.117-0.402l0.126,0.855
							c-1.748,0.314-3.219,0.377-5.344,0.377h-0.88v-7.305h5.218V21.462z M123.855,23.977h1.873v0.83h-1.873v5.947h-0.981V19.551
							h0.981V23.977z"/>
						<path fill="#484848" d="M126.722,28.969c-0.013-0.44,0.364-0.805,0.805-0.805c0.439,0,0.805,0.364,0.805,0.805
							c0,0.453-0.365,0.817-0.805,0.817C127.086,29.786,126.709,29.421,126.722,28.969z"/>
					</g>
				</g>
			</g>
		</g>
		<g id="g-root-tx__dg2mr61n622oc-fill" transform="translate(374, 157.99996948242188)">
			<g id="tx__dg2mr61n622oc-fill">
				<g>
					<g enable-background="new    ">
						<path fill="#484848" d="M66.653,13.878H56.419v-0.83h4.602v-2.112h-3.319V7.491h6.689v-1.76h-6.714V4.914h7.682v3.382h-6.676
							v1.823h6.94v0.817h-3.634v2.112h4.665V13.878z"/>
						<path fill="#484848" d="M69.897,5.643h5.532V4.386h0.981v4.099h-3.269v1.283h4.602v0.792H67.559V9.767h4.614V8.484h-3.256
							V4.386h0.98V5.643z M76.964,14.444l-0.377,0.767c-1.716-0.283-3.27-1.063-3.936-2.263c-0.673,1.201-2.226,1.98-3.923,2.263
							l-0.377-0.767c2.012-0.276,3.797-1.371,3.797-2.829v-0.314h0.993v0.314C73.142,13.074,74.927,14.168,76.964,14.444z
							 M75.43,7.705V6.423h-5.532v1.282H75.43z"/>
						<path fill="#484848" d="M88.883,9.729H78.699V8.925h10.184V9.729z M87.739,6.209c0,1.27-1.458,1.949-3.948,1.961
							c-2.49-0.013-3.961-0.692-3.961-1.961c0-1.245,1.471-1.924,3.961-1.924C86.28,4.285,87.739,4.964,87.739,6.209z M87.575,13.2
							h-6.639v1.157h6.979v0.779h-7.959V12.47h6.651v-1.018h-6.677v-0.755h7.645V13.2z M80.861,6.209
							c-0.013,0.779,1.069,1.207,2.93,1.207c1.848,0,2.942-0.428,2.942-1.207c0-0.729-1.094-1.182-2.942-1.182
							C81.93,5.027,80.849,5.479,80.861,6.209z"/>
						<path fill="#484848" d="M98.77,12.03l-0.604,0.729c-1.1-0.66-1.88-1.867-2.263-3.294c-0.409,1.54-1.22,2.854-2.339,3.558
							l-0.628-0.742c1.559-0.93,2.464-2.967,2.464-5.004V6.222h-2.15V5.404h5.155v0.817h-2.049v1.056
							C96.355,9.214,97.223,11.138,98.77,12.03z M100.366,14.683h-0.931V8.925H97.55V8.12h1.886V4.36h0.931V14.683z M102.629,15.262
							h-0.943V4.084h0.943V15.262z"/>
						<path fill="#484848" d="M109.997,8.359h2.502V4.084h0.981v11.203h-0.981v-6.11h-2.489c-0.12,2.188-1.232,3.558-2.792,3.558
							c-1.647,0-2.804-1.509-2.804-3.885s1.157-3.885,2.804-3.897C108.74,4.964,109.833,6.266,109.997,8.359z M105.357,8.849
							c0,1.823,0.754,3.005,1.861,3.005c1.094,0,1.861-1.182,1.861-3.005c0-1.823-0.767-3.005-1.861-3.018
							C106.112,5.844,105.357,7.026,105.357,8.849z"/>
						<path fill="#484848" d="M121.942,6.699h-6.651V5.882h2.879v-1.66h0.98v1.66h2.792V6.699z M121.414,10.194
							c-0.013,1.509-1.157,2.565-2.741,2.565c-1.597,0-2.753-1.057-2.741-2.565c-0.012-1.509,1.145-2.564,2.741-2.564
							C120.257,7.63,121.401,8.686,121.414,10.194z M116.875,10.194c-0.013,1.019,0.754,1.735,1.798,1.723
							c1.031,0.013,1.785-0.704,1.798-1.723c-0.013-1.006-0.767-1.735-1.798-1.735C117.629,8.459,116.862,9.188,116.875,10.194z
							 M124.004,8.698h1.874v0.817h-1.874v5.746h-0.98V4.084h0.98V8.698z"/>
						<path fill="#484848" d="M127.173,13.162l-0.541-0.805c3.024-1.434,4.564-3.577,4.791-6.249h-4.275V5.304h5.281
							C132.416,8.522,130.919,11.364,127.173,13.162z M135.735,15.262h-0.993V4.084h0.993V15.262z"/>
						<path fill="#484848" d="M148.299,9.754l0.063,0.742c-1.069,0.195-2.182,0.314-3.256,0.377v4.048h-0.981v-3.985
							c-1.138,0.05-2.213,0.057-3.143,0.063l-0.139-0.842C142.943,10.157,145.81,10.119,148.299,9.754z M147.419,6.913
							c0,1.358-1.194,2.301-2.867,2.288c-1.672,0.013-2.867-0.93-2.867-2.288c0-1.371,1.194-2.289,2.867-2.276
							C146.225,4.625,147.419,5.542,147.419,6.913z M142.653,6.913c-0.012,0.88,0.78,1.483,1.899,1.471
							c1.131,0.013,1.923-0.591,1.923-1.471c0-0.868-0.792-1.484-1.923-1.471C143.433,5.429,142.641,6.045,142.653,6.913z
							 M150.084,15.274h-0.968V4.097h0.968V15.274z"/>
						<path fill="#484848" d="M158.697,6.271h-6.664V5.467h2.842v-1.37h0.98v1.37h2.842V6.271z M158.056,8.975
							c-0.013,1.257-1.094,2.062-2.691,2.062c-1.609,0-2.703-0.805-2.69-2.062c-0.013-1.27,1.081-2.087,2.69-2.087
							C156.962,6.888,158.043,7.705,158.056,8.975z M153.618,8.975c-0.013,0.792,0.691,1.295,1.748,1.282
							c1.044,0.013,1.748-0.49,1.76-1.282c-0.012-0.792-0.716-1.308-1.76-1.308C154.309,7.667,153.605,8.183,153.618,8.975z
							 M161.262,15.022h-7.506v-3.219h0.968v2.389h6.538V15.022z M160.747,7.78h1.685v0.83h-1.685v3.86h-0.98V4.097h0.98V7.78z"/>
						<path fill="#484848" d="M173.387,11.93l-0.604,0.779c-1.27-0.622-2.37-1.936-2.904-3.533c-0.522,1.691-1.622,3.099-2.93,3.759
							l-0.629-0.83c1.66-0.767,3.043-2.892,3.056-5.017V5.052h0.98v2.037C170.344,9.126,171.739,11.188,173.387,11.93z
							 M175.6,15.287h-0.993V4.084h0.993V15.287z"/>
						<path fill="#484848" d="M187.758,13.74h-10.235v-0.817h10.235V13.74z M187.229,9.717l-0.453,0.83
							c-1.685-0.39-3.464-1.591-4.187-3.244c-0.723,1.647-2.496,2.848-4.187,3.244l-0.453-0.83c1.937-0.377,4.112-2.062,4.112-3.986
							V4.876h1.031v0.855C183.093,7.642,185.281,9.352,187.229,9.717z"/>
						<path fill="#484848" d="M193.454,5.643h-3.319v1.383h2.854v0.779h-2.854v1.521c1.616-0.006,2.622-0.063,3.822-0.289
							l0.101,0.792c-1.295,0.239-2.351,0.302-4.162,0.302h-0.704V4.813h4.262V5.643z M198.156,15.111h-7.38v-3.772h7.38V15.111z
							 M191.744,14.306h5.444v-2.163h-5.444V14.306z M195.98,10.723h-0.955V7.718h-1.509V6.9h1.509V4.285h0.955V10.723z
							 M198.156,10.823h-0.943V4.084h0.943V10.823z"/>
						<path fill="#484848" d="M209.987,9.729h-10.185V8.925h10.185V9.729z M208.843,6.209c0,1.27-1.458,1.949-3.948,1.961
							c-2.489-0.013-3.96-0.692-3.96-1.961c0-1.245,1.471-1.924,3.96-1.924C207.385,4.285,208.843,4.964,208.843,6.209z
							 M208.68,13.2h-6.639v1.157h6.978v0.779h-7.958V12.47h6.651v-1.018h-6.676v-0.755h7.645V13.2z M201.965,6.209
							c-0.013,0.779,1.069,1.207,2.929,1.207c1.849,0,2.942-0.428,2.942-1.207c0-0.729-1.094-1.182-2.942-1.182
							C203.034,5.027,201.953,5.479,201.965,6.209z"/>
						<path fill="#484848" d="M110.792,24.316l-0.528,0.767c-1.239-0.44-2.226-1.32-2.716-2.452c-0.478,1.276-1.49,2.25-2.816,2.729
							l-0.541-0.792c1.685-0.553,2.842-1.961,2.854-3.596v-1.056h0.968v1.056C108.001,22.443,109.158,23.776,110.792,24.316z
							 M113.471,28.566h-6.249v1.22h6.664v0.792h-7.632v-2.766h6.236v-1.119h-6.261v-0.792h7.242V28.566z M113.471,25.335h-0.993
							v-2.904h-2.49v-0.817h2.49v-2.062h0.993V25.335z"/>
						<path fill="#484848" d="M121.983,25.008l-0.516,0.792c-1.257-0.453-2.231-1.39-2.703-2.552
							c-0.49,1.313-1.528,2.363-2.854,2.866l-0.516-0.792c1.66-0.604,2.842-2.112,2.842-3.709v-0.415h-2.527v-0.83h6.022v0.83
							h-2.502v0.402C119.229,23.059,120.349,24.442,121.983,25.008z M124.648,28.642c0,1.32-1.421,2.075-3.747,2.087
							c-2.326-0.013-3.747-0.767-3.747-2.087s1.421-2.074,3.747-2.074C123.228,26.567,124.648,27.321,124.648,28.642z
							 M118.136,28.642c-0.013,0.805,1.056,1.295,2.766,1.295s2.767-0.49,2.767-1.295c0-0.817-1.057-1.308-2.767-1.308
							S118.123,27.824,118.136,28.642z M124.611,26.215h-0.994v-2.929h-2.25v-0.817h2.25v-2.917h0.994V26.215z"/>
						<path fill="#484848" d="M133.173,21.525h-6.664v-0.817h2.842v-1.257h0.98v1.257h2.842V21.525z M132.532,24.002
							c-0.013,1.195-1.082,1.962-2.691,1.962c-1.622,0-2.703-0.767-2.69-1.962c-0.013-1.194,1.068-1.961,2.69-1.961
							C131.45,22.041,132.519,22.808,132.532,24.002z M128.093,24.002c-0.013,0.729,0.691,1.207,1.748,1.207
							c1.044,0,1.748-0.478,1.76-1.207c-0.012-0.716-0.716-1.207-1.76-1.194C128.785,22.795,128.081,23.286,128.093,24.002z
							 M129.137,27.736h5.105v-1.194h0.98v4.036h-7.066v-4.036h0.98V27.736z M134.242,29.786v-1.27h-5.105v1.27H134.242z
							 M135.222,22.418h1.685v0.842h-1.685v2.792h-0.98v-6.5h0.98V22.418z"/>
						<path fill="#484848" d="M139.321,26.995c1.704-0.006,3.47-0.145,5.344-0.541l0.138,0.842
							c-1.986,0.415-3.759,0.553-5.544,0.553h-0.905v-7.192h0.968V26.995z M146.84,30.729h-0.981V19.551h0.981V30.729z"/>
						<path fill="#484848" d="M154.472,21.462h-4.237v5.658c2.024,0,3.458-0.094,5.117-0.402l0.125,0.855
							c-1.748,0.314-3.219,0.377-5.343,0.377h-0.88v-7.305h5.218V21.462z M157.414,23.977h1.874v0.83h-1.874v5.947h-0.98V19.551
							h0.98V23.977z"/>
						<path fill="#484848" d="M160.281,28.969c-0.013-0.44,0.364-0.805,0.805-0.805c0.44,0,0.805,0.364,0.805,0.805
							c0,0.453-0.365,0.817-0.805,0.817C160.646,29.786,160.269,29.421,160.281,28.969z"/>
					</g>
				</g>
			</g>
		</g>
		<g id="g-root-tx__mbpn021n621vm-fill" transform="translate(38, 157.99996948242188)">
			<g id="tx__mbpn021n621vm-fill">
				<g>
					<g enable-background="new    ">
						<path fill="#484848" d="M104.401,13.677H94.217V12.86h3.998V8.862h0.968v3.999h5.218V13.677z M103.182,6.334
							c-0.013,1.371-0.013,2.905-0.415,5.155l-1.006-0.113c0.428-2.137,0.428-3.709,0.428-5.042V6.033h-6.891V5.216h7.884V6.334z"/>
						<path fill="#484848" d="M105.91,10.811l-0.49-0.742c2.32-0.949,3.634-2.458,3.822-4.338h-3.37V4.914h4.388
							C110.261,7.579,108.752,9.604,105.91,10.811z M114.85,15.262h-0.968v-3.257h-6.576V11.2h7.544V15.262z M114.85,10.685h-0.943
							V7.73h-1.521v2.879h-0.943V4.311h0.943v2.603h1.521V4.097h0.943V10.685z"/>
						<path fill="#484848" d="M123.94,11.603l0.076,0.729c-2.553,0.478-5.306,0.49-7.318,0.49l-0.138-0.842
							C118.622,11.98,121.463,11.967,123.94,11.603z M123.16,7.529c0,1.559-1.245,2.627-3.005,2.627s-3.03-1.069-3.018-2.627
							c-0.013-1.56,1.257-2.628,3.018-2.628S123.16,5.97,123.16,7.529z M118.106,7.529c-0.013,1.043,0.855,1.76,2.049,1.76
							c1.182,0,2.037-0.716,2.037-1.76c0-1.044-0.855-1.761-2.037-1.761C118.961,5.769,118.093,6.485,118.106,7.529z
							 M125.663,15.287h-0.981V4.084h0.981V15.287z"/>
						<path fill="#484848" d="M141.056,10.798h-10.197v-0.792h10.197V10.798z M139.736,15.262h-1.006v-2.578h-6.727v-0.792h7.733
							V15.262z M139.849,8.925h-7.632V4.386h7.569v0.792h-6.576v1.069h6.274v0.767h-6.274v1.144h6.639V8.925z"/>
						<path fill="#484848" d="M148.65,9.541l-0.516,0.792c-1.257-0.453-2.231-1.39-2.703-2.553c-0.49,1.314-1.528,2.364-2.854,2.867
							l-0.516-0.792c1.66-0.604,2.842-2.112,2.842-3.709V5.731h-2.527v-0.83h6.022v0.83h-2.502v0.402
							C145.896,7.592,147.016,8.975,148.65,9.541z M151.315,13.174c0,1.32-1.421,2.075-3.747,2.087
							c-2.326-0.013-3.747-0.767-3.747-2.087c0-1.32,1.421-2.075,3.747-2.075C149.895,11.1,151.315,11.854,151.315,13.174z
							 M144.803,13.174c-0.013,0.805,1.056,1.295,2.766,1.295s2.767-0.491,2.767-1.295c0-0.817-1.057-1.308-2.767-1.308
							S144.79,12.357,144.803,13.174z M151.278,10.748h-0.994v-2.93h-2.25V7.001h2.25V4.084h0.994V10.748z"/>
						<path fill="#484848" d="M166.621,13.828h-10.235v-0.83h2.54V9.981c-0.955-0.497-1.534-1.301-1.534-2.313
							c0-1.735,1.697-2.867,4.086-2.879c2.389,0.013,4.086,1.144,4.086,2.879c0,0.993-0.559,1.792-1.483,2.288v3.043h2.54V13.828z
							 M158.348,7.667c0,1.245,1.295,2.087,3.131,2.087c1.823,0,3.131-0.842,3.131-2.087s-1.308-2.075-3.131-2.062
							C159.643,5.593,158.348,6.423,158.348,7.667z M163.088,12.999v-2.666c-0.484,0.132-1.025,0.201-1.609,0.201
							c-0.572,0-1.106-0.063-1.584-0.188v2.653H163.088z"/>
						<path fill="#484848" d="M176.365,5.794c0,1.063,0,2.213-0.314,3.822h1.66v0.817h-4.615v4.853h-0.993v-4.853h-4.577V9.616
							h7.519c0.34-1.609,0.34-2.785,0.34-3.822V5.63h-6.576V4.813h7.557V5.794z"/>
						<path fill="#484848" d="M188.54,11.867l-0.604,0.792c-1.232-0.648-2.263-1.968-2.753-3.521
							c-0.503,1.653-1.559,3.062-2.816,3.734l-0.629-0.792c1.635-0.805,2.93-2.955,2.942-4.992V5.052h0.968v2.037
							C185.648,9.063,186.956,11.087,188.54,11.867z M190.552,8.623h1.874v0.855h-1.874v5.784h-0.98V4.084h0.98V8.623z"/>
						<path fill="#484848" d="M199.73,6.146h-6.664v-0.78h2.841v-1.37h0.981v1.37h2.841V6.146z M199.089,8.698
							c-0.013,1.207-1.082,1.974-2.691,1.974c-1.622,0-2.703-0.767-2.69-1.974c-0.013-1.194,1.069-1.974,2.69-1.974
							C198.007,6.725,199.076,7.504,199.089,8.698z M201.905,13.313c0,1.22-1.383,1.924-3.659,1.924
							c-2.275,0-3.671-0.704-3.659-1.924c-0.012-1.219,1.383-1.936,3.659-1.936C200.522,11.376,201.905,12.093,201.905,13.313z
							 M194.65,8.698c-0.013,0.729,0.691,1.207,1.748,1.207c1.043,0,1.748-0.478,1.76-1.207c-0.013-0.729-0.717-1.22-1.76-1.232
							C195.342,7.479,194.638,7.969,194.65,8.698z M195.568,13.313c-0.013,0.729,1.006,1.157,2.678,1.157
							c1.672,0,2.678-0.428,2.678-1.157c0-0.742-1.006-1.156-2.678-1.156C196.574,12.156,195.556,12.571,195.568,13.313z
							 M201.779,7.202h1.685v0.842h-1.685v3.256h-0.98V4.084h0.98V7.202z"/>
						<path fill="#484848" d="M214.365,9.729h-10.184V8.925h10.184V9.729z M213.221,6.209c0,1.27-1.458,1.949-3.948,1.961
							c-2.49-0.013-3.961-0.692-3.961-1.961c0-1.245,1.471-1.924,3.961-1.924C211.763,4.285,213.221,4.964,213.221,6.209z
							 M213.058,13.2h-6.639v1.157h6.979v0.779h-7.959V12.47h6.651v-1.018h-6.677v-0.755h7.645V13.2z M206.344,6.209
							c-0.013,0.779,1.069,1.207,2.93,1.207c1.848,0,2.942-0.428,2.942-1.207c0-0.729-1.094-1.182-2.942-1.182
							C207.413,5.027,206.331,5.479,206.344,6.209z"/>
						<path fill="#484848" d="M224.679,8.849c0,2.376-1.194,3.885-2.854,3.885c-1.672,0-2.854-1.509-2.854-3.885
							s1.182-3.885,2.854-3.897C223.485,4.964,224.679,6.473,224.679,8.849z M219.927,8.849c0,1.823,0.779,3.005,1.898,3.005
							s1.898-1.182,1.898-3.005c0-1.823-0.779-3.005-1.898-3.018C220.706,5.844,219.927,7.026,219.927,8.849z M227.772,15.287
							h-0.993V4.084h0.993V15.287z"/>
						<path fill="#484848" d="M235.278,6.825h-5.607V6.021h2.326V4.423h0.981v1.597h2.301V6.825z M234.901,10.119
							c-0.013,1.496-1.019,2.565-2.427,2.565c-1.396,0-2.401-1.069-2.401-2.565c0-1.483,1.006-2.54,2.401-2.54
							C233.883,7.579,234.889,8.636,234.901,10.119z M230.953,10.119c0,0.993,0.641,1.71,1.521,1.697
							c0.893,0.013,1.546-0.704,1.546-1.697c0-0.98-0.654-1.697-1.546-1.71C231.594,8.422,230.953,9.139,230.953,10.119z
							 M239.214,15.262h-0.943V9.616h-1.483v5.092h-0.931V4.36h0.931v4.438h1.483V4.084h0.943V15.262z"/>
						<path fill="#484848" d="M247.525,6.058h-6.664V5.241h2.841V3.983h0.981v1.257h2.841V6.058z M246.884,8.535
							c-0.013,1.194-1.082,1.961-2.691,1.961c-1.622,0-2.703-0.767-2.69-1.961c-0.013-1.195,1.069-1.962,2.69-1.962
							C245.802,6.573,246.871,7.34,246.884,8.535z M242.445,8.535c-0.013,0.729,0.691,1.207,1.748,1.207
							c1.043,0,1.748-0.478,1.76-1.207c-0.013-0.717-0.717-1.207-1.76-1.195C243.137,7.328,242.433,7.818,242.445,8.535z
							 M243.489,12.269h5.105v-1.194h0.98v4.036h-7.066v-4.036h0.98V12.269z M248.594,14.318v-1.27h-5.105v1.27H248.594z
							 M249.574,6.951h1.685v0.842h-1.685v2.792h-0.98v-6.5h0.98V6.951z"/>
						<path fill="#484848" d="M253.673,11.527c1.704-0.006,3.47-0.145,5.344-0.541l0.138,0.842
							c-1.986,0.415-3.759,0.553-5.544,0.553h-0.905V5.19h0.968V11.527z M261.192,15.262h-0.981V4.084h0.981V15.262z"/>
						<path fill="#484848" d="M268.824,5.995h-4.237v5.658c2.024,0,3.458-0.095,5.117-0.402l0.126,0.854
							c-1.748,0.314-3.219,0.377-5.344,0.377h-0.88V5.178h5.218V5.995z M271.766,8.51h1.874v0.83h-1.874v5.947h-0.981V4.084h0.981
							V8.51z"/>
						<path fill="#484848" d="M274.633,13.501c-0.013-0.44,0.364-0.805,0.805-0.805c0.44,0,0.805,0.365,0.805,0.805
							c0,0.453-0.365,0.817-0.805,0.817C274.997,14.318,274.62,13.954,274.633,13.501z"/>
					</g>
					<g enable-background="new    ">
					</g>
				</g>
			</g>
		</g>
		<g id="g-root-tx__90vlpu1n620at-fill" transform="translate(746, 122)">
			<g id="tx__90vlpu1n620at-fill">
				<g>
					<g enable-background="new    ">
						<path fill="#7F64EA" d="M2.415,17.581L1.71,18.604c-1.653-0.587-2.971-1.762-3.625-3.273c-0.638,1.704-1.989,3.004-3.76,3.642
							l-0.722-1.057c2.249-0.739,3.793-2.619,3.81-4.801v-1.41h1.293v1.41C-1.312,15.08,0.233,16.859,2.415,17.581z M5.99,23.254
							h-8.342v1.628h8.896v1.058H-3.645v-3.693h8.325v-1.494h-8.358v-1.058H5.99V23.254z M5.99,18.94H4.664v-3.877H1.341v-1.091
							h3.323v-2.752H5.99V18.94z"/>
						<path fill="#7F64EA" d="M17.974,21.961l-0.738,1.024c-1.721-0.764-3.181-2.383-3.878-4.364
							c-0.671,2.098-2.123,3.819-3.844,4.633L8.775,22.23c2.216-1.007,3.911-3.525,3.911-6.143v-1.192H9.179v-1.074h3.491v-2.316
							h1.309v2.316h3.475v1.074h-3.475v1.192C13.979,18.588,15.725,21.005,17.974,21.961z M20.776,26.141H19.45V11.219h1.326V26.141
							z"/>
						<path fill="#7F64EA" d="M35.428,18.269h-6.999v-6.076h6.999V18.269z M40.849,25.066l-0.453,1.024
							c-2.249-0.302-4.297-1.359-5.169-2.752c-0.907,1.418-3.005,2.45-5.254,2.752l-0.47-1.024c2.567-0.285,5.035-1.729,5.035-3.223
							h-4.415V20.82h4.432v-1.46h1.31v1.46h4.464v1.023h-4.431C35.897,23.304,38.281,24.748,40.849,25.066z M29.721,17.228h4.414
							v-3.961h-4.414V17.228z M39.942,19.796H38.65v-8.577h1.292V19.796z"/>
						<path fill="#7F64EA" d="M60.452,20.82h-3.608v5.32h-1.326v-5.32H51.69v5.32h-1.359v-5.32H46.79v-1.091h13.662V20.82z
							 M58.841,15.08c0,1.981-2.114,3.24-5.253,3.223c-3.14,0.017-5.254-1.242-5.254-3.223c0-1.997,2.114-3.256,5.254-3.256
							C56.727,11.823,58.841,13.083,58.841,15.08z M49.693,15.08c-0.017,1.326,1.561,2.166,3.895,2.166
							c2.315,0,3.91-0.839,3.91-2.166c0-1.326-1.595-2.182-3.91-2.182C51.254,12.897,49.677,13.754,49.693,15.08z"/>
						<path fill="#7F64EA" d="M71.042,21.861l-0.739,1.041c-1.745-0.797-3.256-2.518-3.944-4.582
							c-0.705,2.19-2.207,4.095-3.91,4.951l-0.789-1.041c2.132-1.024,3.994-3.844,4.012-6.429v-1.947h-3.525v-1.091h8.409v1.091
							h-3.559v1.947C66.996,18.336,68.843,20.904,71.042,21.861z M73.962,26.141h-1.326V11.219h1.326V26.141z"/>
						<path fill="#7F64EA" d="M80.943,18.89c1.653-0.067,3.365-0.185,4.918-0.403l0.084,0.974c-3.122,0.537-6.73,0.604-9.383,0.604
							l-0.134-1.091c0.965-0.008,2.056-0.017,3.206-0.05v-3.239h1.309V18.89z M84.787,13.166c-0.017,0.974-0.017,2.468-0.386,4.415
							l-1.326-0.101c0.361-1.788,0.395-3.055,0.42-3.995h-6.144v-1.108h7.436V13.166z M88.698,25.822h-9.97v-4.381h1.325v3.273
							h8.645V25.822z M88.211,16.087h2.183v1.125h-2.183v5.237h-1.343V11.219h1.343V16.087z"/>
						<path fill="#7F64EA" d="M99.154,17.917h-5.572v3.524c2.476,0,4.683-0.109,7.352-0.537l0.134,1.108
							c-2.753,0.437-5.019,0.537-7.587,0.537h-1.242v-5.707h5.59v-3.139h-5.623v-1.091h6.949V17.917z M103.686,26.174h-1.309V11.219
							h1.309V26.174z"/>
					</g>
				</g>
			</g>
		</g>
		<g id="g-root-ic_cycl_1uqj5bm1n621on-fill" transform="translate(116, 319.9999694824219)">
		</g>
		<g id="g-root-ic_code_4j6rhu1n5gydk-fill" transform="translate(284, 319.9999694824219)">
		</g>
		<g id="g-root-ic_add_1hbycoi1n5icjl-fill" transform="translate(452, 319.9999694824219)">
		</g>
		<g id="g-root-ic_comp_1cu9faq1n5jrpe-fill" transform="translate(620, 319.9999694824219)">
		</g>
		<g id="g-root-ic_chec_1lxe4ky1n5jtvn-fill" transform="translate(788, 319.9999694824219)">
		</g>
		<g id="g-root-ic_incr_1lvipbm1n5l898-fill" transform="translate(956, 319.9999694824219)">
		</g>
		<g id="g-root-tx__dg2mr61n622ob-fill" transform="translate(410, 122)">
			<g id="tx__dg2mr61n622ob-fill">
				<g>
					<g enable-background="new    ">
						<path fill="#92BD39" d="M49.136,21.827l-0.806,0.974c-1.468-0.881-2.509-2.493-3.021-4.397
							c-0.545,2.056-1.628,3.81-3.122,4.75l-0.839-0.99c2.082-1.242,3.29-3.961,3.29-6.681v-1.41h-2.87v-1.091h6.881v1.091h-2.736
							v1.41C45.914,18.067,47.072,20.635,49.136,21.827z M51.268,25.369h-1.242v-7.688h-2.518v-1.074h2.518v-5.019h1.242V25.369z
							 M54.289,26.141H53.03V11.219h1.259V26.141z"/>
						<path fill="#92BD39" d="M64.107,16.926h3.34v-5.707h1.309v14.955h-1.309v-8.157h-3.324c-0.159,2.92-1.645,4.75-3.726,4.75
							c-2.199,0-3.743-2.014-3.743-5.187s1.544-5.187,3.743-5.203C62.429,12.394,63.889,14.131,64.107,16.926z M57.914,17.581
							c0,2.434,1.007,4.012,2.484,4.012c1.46,0,2.484-1.578,2.484-4.012c0-2.434-1.024-4.011-2.484-4.028
							C58.92,13.569,57.914,15.147,57.914,17.581z"/>
						<path fill="#92BD39" d="M84.901,21.693l-0.806,1.041c-1.695-0.831-3.164-2.585-3.877-4.716
							c-0.697,2.257-2.166,4.137-3.911,5.019l-0.839-1.108c2.215-1.024,4.062-3.86,4.079-6.697v-2.719h1.309v2.719
							C80.84,17.95,82.703,20.703,84.901,21.693z M87.855,26.174H86.53V11.219h1.326V26.174z"/>
						<path fill="#92BD39" d="M104.069,24.11H90.406v-1.091h13.663V24.11z M103.364,18.739l-0.604,1.108
							c-2.25-0.521-4.625-2.124-5.589-4.331c-0.965,2.199-3.332,3.802-5.589,4.331l-0.604-1.108
							c2.585-0.503,5.489-2.752,5.489-5.321v-1.141h1.376v1.141C97.842,15.969,100.762,18.252,103.364,18.739z"/>
						<path fill="#92BD39" d="M111.654,13.301h-4.431v1.846h3.811v1.041h-3.811v2.031c2.157-0.008,3.5-0.083,5.103-0.386
							l0.134,1.057c-1.729,0.319-3.139,0.403-5.556,0.403h-0.94v-7.1h5.69V13.301z M117.932,25.939h-9.853v-5.036h9.853V25.939z
							 M109.371,24.865h7.268v-2.887h-7.268V24.865z M115.028,20.082h-1.276V16.07h-2.014v-1.091h2.014v-3.491h1.276V20.082z
							 M117.932,20.216h-1.259v-8.997h1.259V20.216z"/>
						<path fill="#92BD39" d="M138.021,20.216h-13.612v-1.074h6.143v-1.477h-4.33v-6.009h10.104v1.074h-8.778v1.393h8.375v1.007
							h-8.375v1.477h8.862v1.058h-4.548v1.477h6.16V20.216z M136.359,23.724c-0.017,1.561-1.863,2.384-5.136,2.384
							c-3.306,0-5.153-0.823-5.153-2.384c0-1.561,1.847-2.4,5.153-2.383C134.496,21.324,136.343,22.163,136.359,23.724z
							 M127.396,23.724c-0.017,0.907,1.359,1.376,3.827,1.36c2.434,0.017,3.81-0.453,3.81-1.36c0-0.89-1.376-1.393-3.81-1.393
							C128.756,22.331,127.38,22.834,127.396,23.724z"/>
						<path fill="#92BD39" d="M148.208,13.854h-8.896v-1.091h3.793v-1.679h1.309v1.679h3.793V13.854z M147.353,17.161
							c-0.017,1.594-1.443,2.618-3.592,2.618c-2.166,0-3.609-1.024-3.592-2.618c-0.017-1.595,1.427-2.619,3.592-2.619
							C145.909,14.542,147.336,15.566,147.353,17.161z M141.428,17.161c-0.017,0.974,0.923,1.611,2.333,1.611
							c1.393,0,2.333-0.638,2.35-1.611c-0.017-0.957-0.957-1.611-2.35-1.595C142.351,15.55,141.411,16.204,141.428,17.161z
							 M142.821,22.146h6.814v-1.594h1.309v5.388h-9.433v-5.388h1.31V22.146z M149.635,24.882v-1.695h-6.814v1.695H149.635z
							 M150.944,15.046h2.249v1.125h-2.249v3.726h-1.309v-8.678h1.309V15.046z"/>
					</g>
				</g>
			</g>
		</g>
		<g id="g-root-tx__qrj54i1n6213d-fill" transform="translate(62, 122)">
			<g id="tx__qrj54i1n6213d-fill">
				<g>
					<g enable-background="new    ">
						<path fill="#4E88E7" d="M103.718,24.026H90.123v-1.091h5.337v-5.337h1.292v5.337h6.965V24.026z M102.09,14.224
							c-0.017,1.83-0.017,3.877-0.554,6.882l-1.343-0.151c0.571-2.853,0.571-4.951,0.571-6.73v-0.403h-9.198V12.73h10.524V14.224z"
							/>
						<path fill="#4E88E7" d="M105.714,20.199l-0.655-0.99c3.097-1.268,4.851-3.282,5.103-5.791h-4.498v-1.091h5.858
							C111.522,15.885,109.508,18.588,105.714,20.199z M117.648,26.141h-1.292v-4.347h-8.778v-1.074h10.071V26.141z M117.648,20.031
							h-1.259v-3.944h-2.031v3.844H113.1v-8.409h1.259v3.474h2.031v-3.76h1.259V20.031z"/>
						<path fill="#4E88E7" d="M137.805,24.228h-13.663V23.12h3.39v-4.028c-1.275-0.663-2.047-1.737-2.047-3.088
							c0-2.316,2.266-3.827,5.455-3.844c3.189,0.017,5.455,1.527,5.455,3.844c0,1.326-0.747,2.392-1.98,3.055v4.062h3.391V24.228z
							 M126.761,16.003c0,1.662,1.729,2.786,4.179,2.786c2.434,0,4.18-1.125,4.18-2.786s-1.746-2.77-4.18-2.753
							C128.49,13.233,126.761,14.341,126.761,16.003z M133.088,23.12v-3.559c-0.646,0.176-1.368,0.269-2.148,0.269
							c-0.764,0-1.477-0.083-2.115-0.251v3.542H133.088z"/>
						<path fill="#4E88E7" d="M150.795,13.502c0,1.418,0,2.954-0.419,5.103h2.215v1.091h-6.16v6.479h-1.326v-6.479h-6.109v-1.091
							h10.037c0.453-2.148,0.453-3.718,0.453-5.103v-0.218h-8.778v-1.091h10.087V13.502z"/>
						<path fill="#4E88E7" d="M167.024,21.609l-0.806,1.058c-1.645-0.865-3.021-2.627-3.676-4.7
							c-0.671,2.207-2.081,4.087-3.76,4.985l-0.839-1.057c2.182-1.074,3.911-3.945,3.927-6.664v-2.719h1.292v2.719
							C163.164,17.866,164.91,20.568,167.024,21.609z M169.71,17.278h2.501v1.142h-2.501v7.721h-1.309V11.219h1.309V17.278z"/>
						<path fill="#4E88E7" d="M181.945,13.972h-8.896v-1.041h3.793v-1.83h1.309v1.83h3.793V13.972z M181.089,17.379
							c-0.017,1.611-1.443,2.635-3.592,2.635c-2.166,0-3.609-1.024-3.592-2.635c-0.017-1.595,1.427-2.635,3.592-2.635
							C179.646,14.744,181.072,15.785,181.089,17.379z M184.849,23.539c0,1.628-1.846,2.568-4.884,2.568s-4.901-0.94-4.884-2.568
							c-0.017-1.628,1.846-2.585,4.884-2.585S184.849,21.911,184.849,23.539z M175.164,17.379c-0.017,0.973,0.923,1.611,2.333,1.611
							c1.393,0,2.333-0.638,2.35-1.611c-0.017-0.974-0.957-1.628-2.35-1.645C176.087,15.751,175.147,16.406,175.164,17.379z
							 M176.389,23.539c-0.017,0.974,1.343,1.544,3.575,1.544s3.575-0.571,3.575-1.544c0-0.99-1.343-1.544-3.575-1.544
							S176.372,22.549,176.389,23.539z M184.681,15.382h2.249v1.125h-2.249v4.347h-1.309v-9.634h1.309V15.382z"/>
						<path fill="#4E88E7" d="M201.246,18.269l-0.671,1.041c-1.729-0.629-3.097-1.922-3.76-3.575
							c-0.663,1.771-2.048,3.164-3.793,3.844l-0.688-1.041c2.232-0.822,3.793-2.903,3.793-5.153v-1.426h1.343v1.426
							C197.452,15.566,199.03,17.497,201.246,18.269z M204.502,26.141h-1.31v-4.095h-8.728v-1.091h10.037V26.141z M204.502,20.216
							h-1.31v-8.997h1.31V20.216z"/>
						<path fill="#4E88E7" d="M219.389,19.024h-1.309v-1.913h-3.525v1.309h-6.764v-6.496h1.31v2.148h4.163v-2.148h1.292v1.443h3.525
							v-2.148h1.309V19.024z M213.263,17.346v-2.232H209.1v2.232H213.263z M219.389,23.254h-8.325v1.628h8.896v1.058h-10.205v-3.693
							h8.325v-1.443h-8.359v-1.057h9.668V23.254z M218.08,16.07v-1.678h-3.525v1.678H218.08z"/>
					</g>
				</g>
			</g>
		</g>
		<g id="g-root-tx__1heg90y1n5mk9a-fill" transform="translate(206, 566)">
			<g id="tx__1heg90y1n5mk9a-fill">
				<g>
					<g enable-background="new    ">
						<path fill="#484848" d="M101.347-47.851l-0.516,0.779c-1.264-0.453-2.238-1.39-2.716-2.54
							c-0.484,1.289-1.515,2.32-2.841,2.804l-0.516-0.779c1.647-0.591,2.842-2.087,2.842-3.659v-0.49h-2.527v-0.805h6.022v0.805
							h-2.502v0.479C98.594-49.8,99.713-48.417,101.347-47.851z M103.975-42.143h-0.994v-3.068h-6.525v-0.816h7.519V-42.143z
							 M103.975-46.619h-0.994v-2.941h-2.238v-0.83h2.238v-2.93h0.994V-46.619z"/>
						<path fill="#484848" d="M112.462-48.454l-0.49,0.779c-1.264-0.421-2.25-1.289-2.729-2.376c-0.503,1.2-1.54,2.188-2.854,2.64
							l-0.49-0.779c1.634-0.565,2.829-1.962,2.829-3.407v-0.314h-2.527v-0.817h6.022v0.817h-2.502v0.327
							C109.721-50.252,110.853-48.97,112.462-48.454z M115.103-44.306h-6.236v1.245h6.664v0.792h-7.645v-2.791h6.236v-1.119h-6.262
							v-0.805h7.242V-44.306z M115.103-47.537h-0.98v-2.464h-2.251v-0.817h2.251v-2.502h0.98V-47.537z"/>
						<path fill="#484848" d="M123.677-51.133h-6.664v-0.805h2.841v-1.37h0.981v1.37h2.841V-51.133z M123.036-48.43
							c-0.013,1.258-1.094,2.063-2.691,2.063c-1.609,0-2.703-0.805-2.69-2.063c-0.013-1.27,1.081-2.087,2.69-2.087
							C121.942-50.517,123.023-49.699,123.036-48.43z M118.598-48.43c-0.013,0.793,0.691,1.295,1.748,1.283
							c1.043,0.012,1.748-0.49,1.76-1.283c-0.013-0.792-0.717-1.308-1.76-1.308C119.289-49.737,118.585-49.222,118.598-48.43z
							 M126.242-42.382h-7.506v-3.219h0.968v2.39h6.538V-42.382z M125.727-49.624h1.685v0.83h-1.685v3.86h-0.98v-8.374h0.98V-49.624
							z"/>
						<path fill="#484848" d="M141.598-43.525h-10.234v-0.83h4.602v-2.112h-3.319v-3.445h6.689v-1.76h-6.714v-0.817h7.682v3.382
							h-6.676v1.823h6.94v0.817h-3.634v2.112h4.665V-43.525z"/>
						<path fill="#484848" d="M144.842-51.762h5.532v-1.257h0.98v4.099h-3.269v1.283h4.602v0.792h-10.185v-0.792h4.614v-1.283
							h-3.256v-4.099h0.981V-51.762z M151.908-42.96l-0.377,0.767c-1.716-0.282-3.269-1.063-3.935-2.263
							c-0.673,1.2-2.226,1.98-3.923,2.263l-0.377-0.767c2.012-0.276,3.797-1.37,3.797-2.829v-0.314h0.993v0.314
							C148.085-44.33,149.871-43.236,151.908-42.96z M150.374-49.699v-1.282h-5.532v1.282H150.374z"/>
						<path fill="#484848" d="M162.712-48.039h-5.243v-4.552h5.243V-48.039z M166.773-42.947l-0.339,0.767
							c-1.685-0.226-3.219-1.019-3.873-2.062c-0.679,1.063-2.25,1.836-3.936,2.062l-0.352-0.767
							c1.924-0.214,3.772-1.295,3.772-2.414h-3.307v-0.768h3.319v-1.094h0.981v1.094h3.344v0.768h-3.319
							C163.064-44.268,164.85-43.187,166.773-42.947z M158.437-48.819h3.307v-2.967h-3.307V-48.819z M166.094-46.896h-0.968v-6.425
							h0.968V-46.896z"/>
						<path fill="#484848" d="M181.487-43.602h-10.234v-0.816h4.577v-2.741h0.968v2.741h4.689V-43.602z M180.984-47.851l-0.44,0.817
							c-1.704-0.347-3.501-1.503-4.225-3.119c-0.735,1.609-2.521,2.772-4.225,3.119l-0.44-0.817c1.949-0.34,4.137-1.975,4.137-3.848
							v-0.855h1.031v0.855C176.823-49.825,179.036-48.19,180.984-47.851z"/>
						<path fill="#484848" d="M192.628-43.576h-10.235v-0.842h10.235V-43.576z M191.647-51.371h-1.773v3.91h1.748v0.805h-8.299
							v-0.805h1.748v-3.91h-1.773v-0.817h8.349V-51.371z M188.906-47.461v-3.91h-2.854v3.91H188.906z"/>
						<path fill="#484848" d="M203.768-43.602h-10.235v-0.816h10.235V-43.602z M202.585-46.468h-7.732v-5.885h7.607v0.83h-6.601
							v1.66h6.362v0.792h-6.362v1.798h6.727V-46.468z"/>
						<path fill="#484848" d="M210.394-47.914l0.076,0.755c-0.792,0.15-1.672,0.245-2.54,0.302v3.797h-0.93v-3.747
							c-0.868,0.031-1.685,0.038-2.339,0.038l-0.138-0.843C206.068-47.612,208.57-47.612,210.394-47.914z M209.966-50.529
							c-0.013,1.22-1.031,2.063-2.452,2.05c-1.421,0.013-2.452-0.83-2.439-2.05c-0.013-1.232,1.019-2.062,2.439-2.074
							C208.935-52.591,209.954-51.762,209.966-50.529z M205.968-50.529c0,0.768,0.642,1.308,1.547,1.308s1.559-0.54,1.559-1.308
							c0-0.767-0.653-1.32-1.559-1.308C206.609-51.85,205.968-51.296,205.968-50.529z M212.053-42.733h-0.93v-2.478h-2.125v-0.779
							h2.125v-7.078h0.93V-42.733z M214.191-42.143h-0.943V-53.32h0.943V-42.143z"/>
						<path fill="#484848" d="M221.596-49.045h2.502v-4.275h0.981v11.203h-0.981v-6.111h-2.489c-0.12,2.188-1.232,3.559-2.792,3.559
							c-1.647,0-2.804-1.509-2.804-3.885c0-2.377,1.157-3.886,2.804-3.898C220.339-52.44,221.433-51.139,221.596-49.045z
							 M216.957-48.555c0,1.822,0.754,3.005,1.861,3.005c1.094,0,1.861-1.183,1.861-3.005c0-1.823-0.767-3.006-1.861-3.018
							C217.711-51.561,216.957-50.378,216.957-48.555z"/>
						<path fill="#484848" d="M109.108-36.143c0,1.063,0,2.213-0.314,3.822h1.659v0.817h-4.614v4.854h-0.993v-4.854h-4.577v-0.817
							h7.519c0.339-1.609,0.339-2.785,0.339-3.822v-0.163h-6.576v-0.817h7.556V-36.143z"/>
						<path fill="#484848" d="M118.022-32.534l-0.553,0.767c-1.232-0.465-2.201-1.37-2.678-2.552
							c-0.484,1.339-1.509,2.383-2.854,2.892l-0.541-0.805c1.723-0.604,2.867-2.087,2.879-3.822v-1.156h0.981v1.119
							C115.244-34.495,116.375-33.087,118.022-32.534z M120.713-28.787c0,1.333-1.421,2.087-3.747,2.087
							c-2.326,0-3.747-0.754-3.747-2.087c0-1.346,1.421-2.112,3.747-2.112C119.292-30.899,120.713-30.133,120.713-28.787z
							 M114.2-28.787c-0.012,0.805,1.057,1.295,2.767,1.295s2.766-0.49,2.766-1.295c0-0.83-1.056-1.333-2.766-1.333
							S114.188-29.617,114.2-28.787z M120.676-31.227h-0.993v-3.407h-2.49v-0.817h2.49v-2.401h0.993V-31.227z"/>
						<path fill="#484848" d="M136.019-28.108h-10.235v-0.83h2.54v-3.018c-0.955-0.496-1.534-1.301-1.534-2.313
							c0-1.734,1.697-2.866,4.086-2.879c2.389,0.013,4.086,1.145,4.086,2.879c0,0.994-0.559,1.792-1.483,2.289v3.042h2.54V-28.108z
							 M127.745-34.27c0,1.245,1.295,2.088,3.131,2.088c1.823,0,3.131-0.843,3.131-2.088c0-1.244-1.308-2.074-3.131-2.062
							C129.04-36.344,127.745-35.514,127.745-34.27z M132.485-28.938v-2.665c-0.484,0.132-1.025,0.201-1.609,0.201
							c-0.572,0-1.106-0.063-1.584-0.188v2.652H132.485z"/>
						<path fill="#484848" d="M147.158-28.134h-10.234v-0.817h4.577v-2.74h0.968v2.74h4.689V-28.134z M146.655-32.383l-0.44,0.816
							c-1.704-0.346-3.501-1.502-4.225-3.117c-0.735,1.609-2.521,2.771-4.225,3.117l-0.44-0.816c1.949-0.34,4.137-1.975,4.137-3.848
							v-0.855h1.031v0.855C142.494-34.357,144.707-32.723,146.655-32.383z"/>
						<path fill="#484848" d="M158.286-31.88h-10.235v-0.78h10.235V-31.88z M157.003-28.611h-6.714v1.068h7.079v0.717h-8.072v-2.464
							h6.727v-0.956h-6.739v-0.741h7.72V-28.611z M156.965-35.199h-6.601v0.98h6.802v0.717h-7.783v-2.377h6.588v-0.918h-6.626
							v-0.716h7.62V-35.199z"/>
						<path fill="#484848" d="M169.027-32.119l-0.553,0.767c-1.226-0.49-2.2-1.465-2.678-2.678
							c-0.478,1.352-1.496,2.427-2.816,2.955l-0.528-0.805c1.672-0.616,2.829-2.176,2.841-3.898v-1.383h0.968v1.421
							C166.261-34.182,167.393-32.71,169.027-32.119z M171.957-26.914h-7.481v-3.508h0.993v2.678h6.488V-26.914z M171.705-29.466
							h-0.993v-4.917h-2.49v-0.829h2.49v-2.628h0.993V-29.466z"/>
						<path fill="#484848" d="M178.419-36.205h-3.395v1.396h3.269v0.779h-3.269v1.547c1.628-0.007,2.647-0.063,3.848-0.302
							l0.101,0.816c-1.308,0.252-2.364,0.314-4.187,0.314h-0.704v-5.381h4.338V-36.205z M183.071-26.675h-0.968v-3.005h-6.563
							v-0.805h7.531V-26.675z M183.071-31.063h-0.943v-3.056h-1.572v2.979h-0.918v-6.487h0.918v2.703h1.572v-2.917h0.943V-31.063z"
							/>
						<path fill="#484848" d="M191.407-35.879h-6.664v-0.816h2.842v-1.258h0.98v1.258h2.842V-35.879z M190.766-33.401
							c-0.013,1.194-1.082,1.961-2.691,1.961c-1.622,0-2.703-0.767-2.69-1.961c-0.013-1.194,1.068-1.962,2.69-1.962
							C189.685-35.363,190.753-34.596,190.766-33.401z M186.328-33.401c-0.013,0.729,0.691,1.207,1.748,1.207
							c1.044,0,1.748-0.478,1.76-1.207c-0.012-0.717-0.716-1.207-1.76-1.194C187.019-34.608,186.315-34.118,186.328-33.401z
							 M187.371-29.667h5.105v-1.194h0.98v4.035h-7.066v-4.035h0.98V-29.667z M192.476-27.618v-1.27h-5.105v1.27H192.476z
							 M193.457-34.986h1.685v0.843h-1.685v2.791h-0.98v-6.5h0.98V-34.986z"/>
						<path fill="#484848" d="M197.556-30.409c1.704-0.006,3.47-0.145,5.344-0.541l0.138,0.843
							c-1.986,0.415-3.759,0.553-5.544,0.553h-0.905v-7.191h0.968V-30.409z M205.075-26.675h-0.981v-11.178h0.981V-26.675z"/>
						<path fill="#484848" d="M212.707-35.941h-4.237v5.658c2.024,0,3.458-0.095,5.117-0.402l0.126,0.854
							c-1.748,0.314-3.219,0.378-5.344,0.378h-0.88v-7.306h5.218V-35.941z M215.649-33.427h1.874v0.83h-1.874v5.947h-0.981v-11.203
							h0.981V-33.427z"/>
						<path fill="#484848" d="M218.516-28.436c-0.013-0.439,0.364-0.805,0.805-0.805c0.44,0,0.805,0.365,0.805,0.805
							c0,0.453-0.365,0.817-0.805,0.817C218.88-27.618,218.503-27.982,218.516-28.436z"/>
					</g>
				</g>
			</g>
		</g>
		<g id="g-root-tx__1cymqwi1n5ml1j-fill" transform="translate(584, 505.9999694824219)">
			<g id="tx__1cymqwi1n5ml1j-fill">
				<g>
					<g enable-background="new    ">
						<path fill="#1EABDA" d="M27.884-35.474l-0.671,1.024c-1.704-0.604-3.005-1.83-3.643-3.374
							c-0.638,1.695-2.006,3.013-3.76,3.659l-0.705-1.023c2.232-0.789,3.794-2.72,3.811-4.852v-0.638h-3.407v-1.074h8.057v1.074
							h-3.357v0.638C24.208-38.058,25.668-36.245,27.884-35.474z M30.821-27.887h-1.31v-4.062h-8.459v-1.074h9.769V-27.887z
							 M30.821-38.863h2.249v1.124h-2.249v3.928h-1.31v-8.997h1.31V-38.863z"/>
						<path fill="#1EABDA" d="M41.932-39.233h3.122v-3.575h1.326v8.007h-1.326v-3.34h-3.105c-0.269,1.762-1.804,2.937-3.826,2.937
							c-2.267,0-3.878-1.409-3.878-3.457c0-2.031,1.611-3.458,3.878-3.441C40.128-42.12,41.646-40.953,41.932-39.233z
							 M35.503-38.662c0,1.359,1.092,2.35,2.619,2.35c1.511,0,2.585-0.99,2.585-2.35c0-1.377-1.074-2.333-2.585-2.316
							C36.595-40.995,35.503-40.039,35.503-38.662z M38.088-32.149h6.966v-1.897h1.326v5.959h-9.618v-5.959h1.326V-32.149z
							 M45.054-29.162v-1.931h-6.966v1.931H45.054z"/>
						<path fill="#1EABDA" d="M66.771-34.769H53.192v-1.074h5.623v-2.887h1.292v2.887h6.664V-34.769z M65.16-30.64
							c0,1.713-2.031,2.72-5.237,2.72c-3.188,0-5.22-1.007-5.22-2.72c0-1.729,2.031-2.735,5.22-2.735
							C63.129-33.375,65.16-32.368,65.16-30.64z M65.042-40.777c0,1.209,0,2.417-0.419,3.961l-1.293-0.15
							c0.403-1.545,0.403-2.636,0.403-3.811v-0.185h-8.93v-1.074h10.238V-40.777z M56.012-30.64
							c-0.017,1.041,1.527,1.679,3.911,1.679s3.911-0.638,3.928-1.679c-0.017-1.057-1.544-1.712-3.928-1.729
							C57.539-32.352,55.995-31.696,56.012-30.64z"/>
						<path fill="#1EABDA" d="M76.892-35.523l-0.688,1.058c-1.679-0.604-2.979-1.855-3.608-3.407
							c-0.655,1.754-2.04,3.155-3.811,3.826l-0.688-1.057c2.216-0.806,3.794-2.82,3.794-4.952v-0.554h-3.374v-1.107h8.04v1.107
							h-3.34v0.537C73.216-38.125,74.709-36.279,76.892-35.523z M80.449-30.673c0,1.763-1.896,2.77-5.001,2.786
							c-3.105-0.017-5.002-1.023-5.002-2.786s1.896-2.77,5.002-2.77C78.553-33.442,80.449-32.436,80.449-30.673z M71.755-30.673
							c-0.017,1.074,1.41,1.729,3.693,1.729c2.282,0,3.692-0.654,3.692-1.729c0-1.091-1.41-1.745-3.692-1.745
							C73.165-32.418,71.738-31.764,71.755-30.673z M80.399-33.912h-1.326v-3.911h-3.004v-1.091h3.004v-3.895h1.326V-33.912z"/>
						<path fill="#1EABDA" d="M100.841-33.828h-6.076v2.92h-1.309v-2.92h-6.277v-1.074h13.662V-33.828z M99.313-28.205h-10.39
							v-4.079h1.31v2.971h9.08V-28.205z M90.317-40.408h7.385v-1.913h1.31v5.958H89.008v-5.958h1.31V-40.408z M97.702-37.437V-39.4
							h-7.385v1.963H97.702z"/>
						<path fill="#1EABDA" d="M110.827-35.708l-0.722,1.058c-1.662-0.613-2.954-1.889-3.592-3.475
							c-0.63,1.762-1.973,3.139-3.727,3.827l-0.722-1.092c2.266-0.806,3.76-2.77,3.776-5.068v-1.578h1.293v1.628
							C107.135-38.344,108.662-36.446,110.827-35.708z M114.419-27.887h-1.326V-32.1h-8.711v-1.058h10.037V-27.887z M114.419-33.979
							h-1.326v-4.582h-3.323v-1.107h3.323v-3.14h1.326V-33.979z"/>
					</g>
				</g>
			</g>
		</g>
		<g id="g-root-tx__zn68j61n5mmmh-fill" transform="translate(914, 505.9999694824219)">
			<g id="tx__zn68j61n5mmmh-fill">
				<g>
					<g enable-background="new    ">
						<path fill="#DE58A9" d="M-19.141-32.167l-0.755,1.041c-1.679-0.814-3.097-2.593-3.76-4.616c-0.688,2.199-2.19,4.13-3.86,4.985
							l-0.806-1.04c2.148-1.041,3.995-3.878,4.012-6.429v-1.947h-3.475v-1.091h8.124v1.091h-3.357v1.947
							C-23.034-35.826-21.306-33.19-19.141-32.167z M-16.521-36.766h2.501v1.125h-2.501v7.754h-1.31v-14.922h1.31V-36.766z"/>
						<path fill="#DE58A9" d="M0.396-34.365h-13.612v-1.058h6.16v-1.745h-4.432v-4.936h10.188v1.058h-8.896v2.804h8.997v1.074H-5.78
							v1.745h6.177V-34.365z M-1.282-30.589c-0.017,1.729-1.931,2.686-5.136,2.702c-3.223-0.017-5.153-0.974-5.153-2.702
							c0-1.712,1.931-2.686,5.153-2.686C-3.213-33.274-1.299-32.301-1.282-30.589z M-10.229-30.589
							c-0.017,1.041,1.41,1.645,3.811,1.645c2.366,0,3.81-0.604,3.81-1.645c0-1.023-1.443-1.645-3.81-1.645
							C-8.818-32.233-10.245-31.612-10.229-30.589z"/>
						<path fill="#DE58A9" d="M5.564-31.915v-1.661c-1.737-0.193-2.87-1.209-2.854-2.686c-0.017-1.679,1.41-2.77,3.524-2.77
							c2.081,0,3.524,1.091,3.542,2.77C9.76-34.785,8.61-33.77,6.89-33.56v1.595c1.394-0.067,2.795-0.177,4.096-0.369l0.084,1.007
							C7.813-30.773,4.288-30.74,1.67-30.74l-0.218-1.124C2.669-31.864,4.087-31.864,5.564-31.915z M10.717-39.904H1.721v-1.074
							h3.844v-1.796H6.89v1.796h3.827V-39.904z M3.936-36.262c0,1.04,0.924,1.712,2.3,1.695c1.359,0.017,2.283-0.655,2.283-1.695
							c0-1.041-0.924-1.746-2.283-1.746C4.859-38.008,3.936-37.303,3.936-36.262z M13.218-36.446h2.384v1.107h-2.384v7.452h-1.326
							v-14.922h1.326V-36.446z"/>
						<path fill="#DE58A9" d="M28.592-35.759h-6.999v-6.076h6.999V-35.759z M34.013-28.961l-0.453,1.024
							c-2.249-0.303-4.297-1.36-5.169-2.753c-0.907,1.418-3.005,2.45-5.254,2.753l-0.47-1.024c2.567-0.285,5.035-1.729,5.035-3.223
							h-4.415v-1.023h4.432v-1.461h1.31v1.461h4.464v1.023h-4.431C29.062-30.723,31.445-29.279,34.013-28.961z M22.885-36.799h4.414
							v-3.962h-4.414V-36.799z M33.106-34.231h-1.292v-8.577h1.292V-34.231z"/>
						<path fill="#DE58A9" d="M45.626-32.2c1.435-0.059,2.903-0.185,4.28-0.386l0.101,0.974c-3.407,0.62-7.083,0.638-9.769,0.638
							l-0.185-1.092c1.25-0.008,2.728-0.017,4.28-0.066v-2.804h1.292V-32.2z M49.134-39.753h-3.508
							c0.033,1.93,1.637,3.499,3.844,4.129l-0.621,1.04c-1.796-0.537-3.197-1.687-3.86-3.205c-0.654,1.603-2.048,2.794-3.844,3.34
							l-0.638-1.007c2.207-0.646,3.76-2.283,3.793-4.297h-3.424v-1.092h3.458v-1.846h1.292v1.846h3.508V-39.753z M52.205-27.853
							h-1.309v-14.956h1.309V-27.853z"/>
						<path fill="#DE58A9" d="M63.686-35.507l-0.688,1.041c-1.687-0.604-2.987-1.855-3.625-3.391
							c-0.646,1.721-2.023,3.097-3.794,3.743l-0.688-1.041c2.198-0.789,3.793-2.786,3.793-4.885v-0.654H55.31v-1.074h8.04v1.074
							h-3.34v0.638C60.01-38.108,61.503-36.262,63.686-35.507z M67.193-27.887h-1.326v-4.096h-8.711v-1.091h10.037V-27.887z
							 M67.193-33.862h-1.326v-3.927H62.88v-1.108h2.987v-3.911h1.326V-33.862z"/>
						<path fill="#DE58A9" d="M73.604-31.915v-1.661c-1.737-0.193-2.87-1.209-2.854-2.686c-0.017-1.679,1.409-2.77,3.524-2.77
							c2.081,0,3.525,1.091,3.542,2.77c-0.017,1.477-1.167,2.492-2.888,2.702v1.595c1.394-0.067,2.795-0.177,4.096-0.369
							l0.084,1.007c-3.256,0.554-6.781,0.587-9.399,0.587l-0.218-1.124C70.709-31.864,72.127-31.864,73.604-31.915z M78.757-39.904
							h-8.996v-1.074h3.844v-1.796h1.325v1.796h3.827V-39.904z M71.976-36.262c0,1.04,0.924,1.712,2.3,1.695
							c1.359,0.017,2.283-0.655,2.283-1.695c0-1.041-0.924-1.746-2.283-1.746C72.899-38.008,71.976-37.303,71.976-36.262z
							 M81.258-36.446h2.384v1.107h-2.384v7.452h-1.326v-14.922h1.326V-36.446z"/>
					</g>
				</g>
			</g>
		</g>
		<g id="g-root-tx__18it8s21n5mlts-fill" transform="translate(542, 542)">
			<g id="tx__18it8s21n5mlts-fill">
				<g>
					<g enable-background="new    ">
						<path fill="#484848" d="M29.901-39.395l-0.566,0.779c-1.257-0.609-2.32-1.942-2.816-3.458
							c-0.516,1.647-1.641,3.094-2.892,3.734l-0.604-0.779c1.609-0.779,2.992-2.904,3.005-4.815v-1.459h-2.603v-0.816h6.085v0.816
							h-2.515v1.459C26.984-42.136,28.279-40.162,29.901-39.395z M31.862-42.84h1.874v0.843h-1.874v5.809h-0.98v-11.178h0.98V-42.84
							z"/>
						<path fill="#484848" d="M44.549-41.042H34.352v-0.792h4.615v-1.308h-3.319v-3.696h7.632v0.792h-6.664v2.1h6.739v0.805h-3.433
							v1.308h4.627V-41.042z M43.292-38.213c-0.013,1.295-1.446,2.012-3.848,2.024c-2.414-0.013-3.86-0.729-3.86-2.024
							c0-1.282,1.446-2.012,3.86-2.012C41.846-40.225,43.279-39.495,43.292-38.213z M36.59-38.213
							c-0.013,0.779,1.057,1.232,2.854,1.232c1.772,0,2.854-0.453,2.854-1.232c0-0.767-1.082-1.232-2.854-1.232
							C37.646-39.445,36.577-38.979,36.59-38.213z"/>
						<path fill="#484848" d="M48.434-39.206v-1.245c-1.301-0.145-2.149-0.905-2.137-2.012c-0.013-1.257,1.056-2.074,2.64-2.074
							c1.56,0,2.641,0.817,2.653,2.074c-0.013,1.106-0.874,1.867-2.163,2.024v1.194c1.044-0.05,2.094-0.132,3.068-0.276l0.063,0.755
							c-2.438,0.414-5.079,0.439-7.041,0.439l-0.163-0.842C46.265-39.168,47.327-39.168,48.434-39.206z M52.294-45.191h-6.739
							v-0.805h2.879v-1.345h0.993v1.345h2.867V-45.191z M47.214-42.463c0,0.779,0.692,1.283,1.723,1.271
							c1.019,0.013,1.71-0.491,1.71-1.271s-0.691-1.308-1.71-1.308C47.906-43.771,47.214-43.242,47.214-42.463z M54.167-42.601
							h1.786v0.829h-1.786v5.583h-0.993v-11.178h0.993V-42.601z"/>
						<path fill="#484848" d="M66.854-41.394H56.619v-0.78h10.234V-41.394z M65.571-38.125h-6.715v1.068h7.079v0.717h-8.072v-2.464
							h6.727v-0.956h-6.739v-0.741h7.721V-38.125z M65.533-44.713h-6.601v0.98h6.802v0.717h-7.783v-2.377h6.589v-0.918h-6.626
							v-0.716h7.619V-44.713z"/>
						<path fill="#484848" d="M78.438-41.695l0.063,0.741c-1.068,0.195-2.182,0.314-3.257,0.378v4.048h-0.98v-3.985
							c-1.138,0.05-2.213,0.057-3.144,0.063l-0.138-0.842C73.081-41.293,75.947-41.331,78.438-41.695z M77.557-44.537
							c0,1.357-1.194,2.301-2.866,2.288c-1.673,0.013-2.867-0.931-2.867-2.288c0-1.371,1.194-2.288,2.867-2.275
							C76.362-46.825,77.557-45.908,77.557-44.537z M72.792-44.537c-0.013,0.88,0.779,1.483,1.898,1.471
							c1.132,0.013,1.924-0.591,1.924-1.471c0-0.867-0.792-1.483-1.924-1.471C73.571-46.021,72.779-45.404,72.792-44.537z
							 M80.223-36.176h-0.969v-11.178h0.969V-36.176z"/>
						<path fill="#484848" d="M88.836-45.179h-6.664v-0.805h2.842v-1.37h0.98v1.37h2.842V-45.179z M88.194-42.476
							c-0.013,1.258-1.094,2.063-2.69,2.063c-1.609,0-2.703-0.805-2.69-2.063c-0.013-1.27,1.081-2.087,2.69-2.087
							C87.101-44.563,88.182-43.745,88.194-42.476z M83.756-42.476c-0.012,0.792,0.692,1.296,1.748,1.283
							c1.044,0.013,1.748-0.491,1.761-1.283c-0.013-0.792-0.717-1.308-1.761-1.308C84.448-43.783,83.744-43.268,83.756-42.476z
							 M91.4-36.428h-7.506v-3.219h0.969v2.389H91.4V-36.428z M90.886-43.67h1.685v0.83h-1.685v3.86h-0.981v-8.374h0.981V-43.67z"/>
						<path fill="#484848" d="M106.705-41.344H96.533v-0.805h4.213v-2.162h0.968v2.162h4.991V-41.344z M105.498-38.251
							c0,1.283-1.521,2.037-3.923,2.037c-2.389,0-3.91-0.754-3.91-2.037c0-1.295,1.521-2.049,3.91-2.049
							C103.977-40.3,105.498-39.546,105.498-38.251z M105.41-45.845c0,0.905,0,1.811-0.314,2.967l-0.968-0.112
							c0.302-1.157,0.302-1.975,0.302-2.854v-0.139H97.74v-0.805h7.67V-45.845z M98.646-38.251c-0.013,0.78,1.145,1.258,2.93,1.258
							c1.786,0,2.93-0.478,2.942-1.258c-0.013-0.792-1.156-1.282-2.942-1.295C99.79-39.533,98.633-39.043,98.646-38.251z"/>
						<path fill="#484848" d="M114.301-41.909l-0.516,0.792c-1.258-0.453-2.232-1.39-2.703-2.553
							c-0.491,1.314-1.528,2.364-2.854,2.867l-0.516-0.792c1.659-0.604,2.842-2.112,2.842-3.71v-0.414h-2.527v-0.83h6.022v0.83
							h-2.502v0.402C111.547-43.858,112.666-42.476,114.301-41.909z M116.966-38.275c0,1.32-1.421,2.074-3.747,2.087
							c-2.326-0.013-3.746-0.767-3.746-2.087s1.42-2.075,3.746-2.075S116.966-39.596,116.966-38.275z M110.453-38.275
							c-0.013,0.805,1.056,1.295,2.766,1.295s2.767-0.49,2.767-1.295c0-0.817-1.057-1.308-2.767-1.308S110.44-39.093,110.453-38.275
							z M116.928-40.702h-0.993v-2.93h-2.25v-0.817h2.25v-2.917h0.993V-40.702z"/>
						<path fill="#484848" d="M128.985-41.721h-10.185v-0.805h10.185V-41.721z M127.842-45.241c0,1.27-1.459,1.948-3.948,1.961
							c-2.489-0.013-3.961-0.691-3.961-1.961c0-1.245,1.472-1.924,3.961-1.924S127.842-46.486,127.842-45.241z M127.678-38.251
							h-6.639v1.157h6.979v0.779h-7.959v-2.665h6.651v-1.019h-6.677v-0.755h7.645V-38.251z M120.964-45.241
							c-0.013,0.779,1.068,1.207,2.93,1.207c1.849,0,2.942-0.428,2.942-1.207c0-0.729-1.094-1.182-2.942-1.182
							C122.032-46.423,120.951-45.971,120.964-45.241z"/>
						<path fill="#484848" d="M143.398-40.64h-4.552v2.188h-0.98v-2.188h-4.702v-0.805h10.234V-40.64z M142.254-36.428h-7.782
							v-3.055h0.98v2.225h6.802V-36.428z M135.515-45.568h5.532v-1.434h0.98v4.464h-7.493v-4.464h0.98V-45.568z M141.047-43.343
							v-1.471h-5.532v1.471H141.047z"/>
						<path fill="#484848" d="M150.892-42.048l-0.54,0.792c-1.245-0.459-2.213-1.414-2.691-2.603
							c-0.472,1.32-1.478,2.352-2.791,2.867l-0.541-0.817c1.697-0.604,2.816-2.075,2.829-3.797v-1.183h0.969v1.22
							C148.126-44.021,149.27-42.601,150.892-42.048z M153.582-36.188h-0.993v-3.156h-6.525v-0.792h7.519V-36.188z M153.582-40.753
							h-0.993v-3.433H150.1v-0.829h2.489v-2.352h0.993V-40.753z"/>
						<path fill="#484848" d="M162.145-45.393h-6.664v-0.816h2.842v-1.258h0.98v1.258h2.842V-45.393z M161.503-42.915
							c-0.013,1.194-1.081,1.961-2.69,1.961c-1.622,0-2.703-0.767-2.69-1.961c-0.013-1.194,1.068-1.962,2.69-1.962
							C160.422-44.877,161.49-44.109,161.503-42.915z M157.064-42.915c-0.012,0.729,0.692,1.207,1.748,1.207
							c1.044,0,1.748-0.478,1.761-1.207c-0.013-0.717-0.717-1.207-1.761-1.194C157.757-44.122,157.053-43.632,157.064-42.915z
							 M158.108-39.181h5.104v-1.194h0.981v4.035h-7.066v-4.035h0.98V-39.181z M163.213-37.132v-1.27h-5.104v1.27H163.213z
							 M164.194-44.5h1.685v0.843h-1.685v2.791h-0.981v-6.5h0.981V-44.5z"/>
						<path fill="#484848" d="M168.294-39.923c1.703-0.006,3.47-0.145,5.343-0.541l0.139,0.843c-1.986,0.415-3.76,0.553-5.545,0.553
							h-0.905v-7.191h0.969V-39.923z M175.813-36.188h-0.98v-11.178h0.98V-36.188z"/>
						<path fill="#484848" d="M183.444-45.455h-4.237v5.658c2.024,0,3.457-0.095,5.117-0.402l0.126,0.854
							c-1.748,0.314-3.219,0.378-5.344,0.378h-0.88v-7.306h5.218V-45.455z M186.387-42.94h1.873v0.83h-1.873v5.947h-0.981v-11.203
							h0.981V-42.94z"/>
						<path fill="#484848" d="M189.253-37.949c-0.013-0.439,0.364-0.805,0.805-0.805c0.439,0,0.805,0.365,0.805,0.805
							c0,0.453-0.365,0.817-0.805,0.817C189.617-37.132,189.24-37.496,189.253-37.949z"/>
					</g>
				</g>
			</g>
		</g>
		<g id="g-root-tx__zn68j61n5mmmi-fill" transform="translate(878, 542)">
			<g id="tx__zn68j61n5mmmi-fill">
				<g>
					<g enable-background="new    ">
						<path fill="#484848" d="M9.757-40.351H-0.428v-0.817h3.999v-3.998h0.968v3.998h5.218V-40.351z M8.537-47.693
							c-0.012,1.37-0.012,2.904-0.414,5.154l-1.006-0.113c0.427-2.137,0.427-3.709,0.427-5.041v-0.302h-6.89v-0.817h7.883V-47.693z"
							/>
						<path fill="#484848" d="M11.266-43.218l-0.49-0.741c2.319-0.95,3.634-2.459,3.822-4.338h-3.37v-0.817h4.389
							C15.616-46.449,14.107-44.425,11.266-43.218z M20.205-38.767h-0.968v-3.257h-6.576v-0.805h7.544V-38.767z M20.205-43.344
							h-0.943v-2.954h-1.521v2.879h-0.943v-6.299h0.943v2.603h1.521v-2.816h0.943V-43.344z"/>
						<path fill="#484848" d="M29.297-42.426l0.075,0.729c-2.553,0.478-5.306,0.49-7.317,0.49l-0.139-0.843
							C23.978-42.049,26.819-42.061,29.297-42.426z M28.517-46.499c0,1.559-1.244,2.628-3.005,2.628c-1.76,0-3.03-1.069-3.018-2.628
							c-0.013-1.56,1.258-2.628,3.018-2.628C27.272-49.127,28.517-48.059,28.517-46.499z M23.463-46.499
							c-0.013,1.043,0.854,1.76,2.049,1.76c1.182,0,2.037-0.717,2.037-1.76c0-1.044-0.855-1.761-2.037-1.761
							C24.317-48.26,23.45-47.543,23.463-46.499z M31.019-38.741h-0.98v-11.203h0.98V-38.741z"/>
						<path fill="#484848" d="M42.766-44.45l-0.504,0.768c-1.275-0.453-2.25-1.371-2.728-2.527c-0.479,1.27-1.503,2.257-2.816,2.741
							l-0.528-0.768c1.672-0.591,2.842-2.037,2.854-3.634v-0.478h-2.552v-0.805h6.035v0.805h-2.515v0.478
							C40.012-46.386,41.105-45.028,42.766-44.45z M44.966-38.767h-0.981v-3.043h-6.337v-0.805h7.318V-38.767z M44.966-46.989h1.685
							v0.842h-1.685v2.942h-0.981v-6.739h0.981V-46.989z"/>
						<path fill="#484848" d="M53.303-47.267h2.338v-2.678h0.993v5.997h-0.993v-2.502h-2.326c-0.201,1.32-1.352,2.2-2.866,2.2
							c-1.697,0-2.904-1.056-2.904-2.59c0-1.521,1.207-2.59,2.904-2.577C51.95-49.429,53.089-48.555,53.303-47.267z M48.486-46.839
							c0,1.019,0.817,1.761,1.962,1.761c1.132,0,1.937-0.742,1.937-1.761c0-1.031-0.805-1.747-1.937-1.735
							C49.304-48.586,48.486-47.87,48.486-46.839z M50.423-41.96h5.218v-1.421h0.993v4.463H49.43v-4.463h0.993V-41.96z
							 M55.641-39.723v-1.445h-5.218v1.445H55.641z"/>
						<path fill="#484848" d="M68.691-44.299H58.508v-0.805h10.184V-44.299z M67.548-47.819c0,1.27-1.459,1.948-3.948,1.961
							c-2.489-0.013-3.961-0.691-3.961-1.961c0-1.245,1.472-1.924,3.961-1.924S67.548-49.064,67.548-47.819z M67.384-40.829h-6.639
							v1.157h6.979v0.779h-7.959v-2.665h6.651v-1.019h-6.677v-0.755h7.645V-40.829z M60.67-47.819
							c-0.013,0.779,1.068,1.207,2.93,1.207c1.848,0,2.942-0.428,2.942-1.207c0-0.729-1.095-1.182-2.942-1.182
							C61.738-49.001,60.657-48.549,60.67-47.819z"/>
						<path fill="#484848" d="M79.571-41.973l-0.565,0.779c-1.258-0.609-2.32-1.942-2.816-3.458
							c-0.516,1.647-1.642,3.094-2.893,3.734l-0.604-0.779c1.609-0.779,2.993-2.904,3.006-4.815v-1.459h-2.604v-0.816h6.086v0.816
							h-2.515v1.459C76.654-44.714,77.949-42.74,79.571-41.973z M81.533-45.418h1.873v0.843h-1.873v5.809h-0.981v-11.178h0.981
							V-45.418z"/>
						<path fill="#484848" d="M94.219-43.62H84.021v-0.792h4.615v-1.308h-3.319v-3.696h7.632v0.792h-6.664v2.1h6.739v0.805h-3.433
							v1.308h4.627V-43.62z M92.962-40.791c-0.013,1.295-1.446,2.012-3.848,2.024c-2.414-0.013-3.86-0.729-3.86-2.024
							c0-1.282,1.446-2.012,3.86-2.012C91.516-42.803,92.949-42.073,92.962-40.791z M86.26-40.791
							c-0.013,0.779,1.057,1.232,2.854,1.232c1.772,0,2.854-0.453,2.854-1.232c0-0.767-1.082-1.232-2.854-1.232
							C87.316-42.023,86.247-41.558,86.26-40.791z"/>
						<path fill="#484848" d="M98.104-41.784v-1.245c-1.301-0.145-2.149-0.905-2.137-2.012c-0.013-1.257,1.056-2.074,2.64-2.074
							c1.56,0,2.641,0.817,2.653,2.074c-0.013,1.106-0.874,1.867-2.163,2.024v1.194c1.044-0.05,2.094-0.132,3.068-0.276l0.063,0.755
							c-2.438,0.414-5.079,0.439-7.041,0.439l-0.163-0.842C95.935-41.746,96.997-41.746,98.104-41.784z M101.964-47.77h-6.739
							v-0.805h2.879v-1.345h0.993v1.345h2.867V-47.77z M96.884-45.041c0,0.779,0.692,1.283,1.723,1.271
							c1.019,0.013,1.71-0.491,1.71-1.271s-0.691-1.308-1.71-1.308C97.576-46.349,96.884-45.82,96.884-45.041z M103.837-45.179
							h1.786v0.829h-1.786v5.583h-0.993v-11.178h0.993V-45.179z"/>
						<path fill="#484848" d="M112.891-47.329h-6.651v-0.817h2.88v-1.659h0.98v1.659h2.791V-47.329z M112.362-43.834
							c-0.013,1.509-1.156,2.565-2.741,2.565c-1.597,0-2.753-1.057-2.74-2.565c-0.013-1.509,1.144-2.564,2.74-2.564
							C111.206-46.398,112.35-45.343,112.362-43.834z M107.823-43.834c-0.013,1.019,0.755,1.735,1.798,1.723
							c1.031,0.013,1.786-0.704,1.799-1.723c-0.013-1.006-0.768-1.734-1.799-1.734C108.578-45.568,107.811-44.84,107.823-43.834z
							 M114.953-45.33h1.873v0.817h-1.873v5.746h-0.981v-11.178h0.981V-45.33z"/>
						<path fill="#484848" d="M127.626-40.351h-10.185v-0.817h3.999v-3.998h0.968v3.998h5.218V-40.351z M126.406-47.693
							c-0.012,1.37-0.012,2.904-0.414,5.154l-1.006-0.113c0.427-2.137,0.427-3.709,0.427-5.041v-0.302h-6.89v-0.817h7.883V-47.693z"
							/>
						<path fill="#484848" d="M33.268-26.53c1.075-0.044,2.176-0.139,3.207-0.289l0.075,0.729c-2.553,0.465-5.306,0.478-7.317,0.478
							l-0.139-0.817c0.937-0.006,2.043-0.013,3.206-0.051v-2.1h0.968V-26.53z M35.896-32.188h-2.628
							c0.025,1.446,1.227,2.622,2.88,3.093l-0.466,0.78c-1.345-0.402-2.395-1.264-2.892-2.401c-0.49,1.2-1.534,2.093-2.879,2.502
							l-0.478-0.755c1.653-0.483,2.816-1.71,2.841-3.219H29.71v-0.817h2.59v-1.383h0.968v1.383h2.628V-32.188z M38.196-23.273h-0.98
							v-11.203h0.98V-23.273z"/>
						<path fill="#484848" d="M46.809-29.007l-0.515,0.779c-1.264-0.453-2.238-1.39-2.716-2.54c-0.484,1.289-1.516,2.32-2.842,2.804
							l-0.516-0.779c1.647-0.591,2.842-2.087,2.842-3.659v-0.49h-2.527v-0.805h6.022v0.805h-2.502v0.479
							C44.056-30.956,45.175-29.573,46.809-29.007z M49.437-23.299h-0.993v-3.068h-6.525v-0.816h7.519V-23.299z M49.437-27.775
							h-0.993v-2.941h-2.238v-0.83h2.238v-2.93h0.993V-27.775z"/>
						<path fill="#484848" d="M54.253-26.316v-1.245c-1.301-0.145-2.149-0.905-2.138-2.012c-0.012-1.257,1.057-2.074,2.641-2.074
							c1.56,0,2.641,0.817,2.653,2.074c-0.013,1.106-0.874,1.867-2.163,2.024v1.194c1.044-0.05,2.094-0.132,3.068-0.276l0.063,0.754
							c-2.439,0.415-5.079,0.44-7.041,0.44l-0.163-0.843C52.084-26.279,53.146-26.279,54.253-26.316z M58.113-32.302h-6.739v-0.805
							h2.879v-1.345h0.993v1.345h2.867V-32.302z M53.033-29.573c0,0.78,0.691,1.282,1.723,1.271c1.019,0.012,1.71-0.49,1.71-1.271
							c0-0.779-0.691-1.308-1.71-1.308C53.725-30.881,53.033-30.353,53.033-29.573z M59.986-29.711h1.785v0.829h-1.785v5.583h-0.993
							v-11.178h0.993V-29.711z"/>
						<path fill="#484848" d="M69.14-32.503h-6.664v-0.817h2.842v-1.257h0.98v1.257h2.842V-32.503z M68.498-30.025
							c-0.012,1.194-1.081,1.961-2.69,1.961c-1.622,0-2.703-0.767-2.69-1.961c-0.013-1.194,1.068-1.962,2.69-1.962
							C67.417-31.987,68.486-31.22,68.498-30.025z M64.061-30.025c-0.013,0.729,0.691,1.207,1.747,1.207
							c1.044,0,1.748-0.479,1.761-1.207c-0.013-0.717-0.717-1.207-1.761-1.194C64.752-31.232,64.048-30.742,64.061-30.025z
							 M65.104-26.291h5.104v-1.195h0.981v4.036h-7.066v-4.036h0.98V-26.291z M70.208-24.242v-1.27h-5.104v1.27H70.208z
							 M71.189-31.609h1.685v0.842h-1.685v2.791h-0.981v-6.5h0.981V-31.609z"/>
						<path fill="#484848" d="M75.288-27.033c1.703-0.006,3.47-0.145,5.343-0.541l0.139,0.843c-1.986,0.415-3.76,0.554-5.545,0.554
							h-0.905v-7.192h0.969V-27.033z M82.807-23.299h-0.98v-11.178h0.98V-23.299z"/>
						<path fill="#484848" d="M90.438-32.565h-4.237v5.658c2.024,0,3.457-0.095,5.117-0.402l0.126,0.854
							c-1.748,0.314-3.219,0.377-5.344,0.377h-0.88v-7.305h5.218V-32.565z M93.381-30.051h1.873v0.83h-1.873v5.947h-0.981v-11.203
							h0.981V-30.051z"/>
						<path fill="#484848" d="M96.248-25.06c-0.013-0.439,0.364-0.805,0.805-0.805c0.439,0,0.805,0.365,0.805,0.805
							c0,0.453-0.365,0.817-0.805,0.817C96.612-24.242,96.235-24.606,96.248-25.06z"/>
					</g>
				</g>
			</g>
		</g>
		<g id="g-root-tx__1q9gs6q1n5mmmd-fill" transform="translate(212, 505.9999694824219)">
			<g id="tx__1q9gs6q1n5mmmd-fill">
				<g>
					<g enable-background="new    ">
						<path fill="#3CC583" d="M124.488-39.324h-8.879v-1.092h3.843v-2.215h1.31v2.215h3.726V-39.324z M123.783-34.658
							c-0.017,2.014-1.544,3.424-3.659,3.424c-2.132,0-3.676-1.41-3.659-3.424c-0.017-2.015,1.527-3.425,3.659-3.425
							C122.239-38.083,123.766-36.673,123.783-34.658z M117.724-34.658c-0.017,1.359,1.007,2.316,2.4,2.299
							c1.376,0.018,2.383-0.939,2.4-2.299c-0.017-1.343-1.024-2.316-2.4-2.316C118.73-36.975,117.707-36.001,117.724-34.658z
							 M127.24-36.656h2.501v1.092h-2.501v7.67h-1.309v-14.922h1.309V-36.656z"/>
						<path fill="#3CC583" d="M144.208-29.926h-13.663v-1.107h13.663V-29.926z M142.597-34.541h-10.306v-6.882h10.155v1.091h-8.845
							v4.7h8.997V-34.541z"/>
						<path fill="#3CC583" d="M153.036-35.599l0.101,1.007c-1.057,0.202-2.232,0.328-3.39,0.403v5.069h-1.242v-5.002
							c-1.158,0.042-2.249,0.05-3.122,0.05l-0.185-1.124C147.262-35.195,150.603-35.195,153.036-35.599z M152.465-39.09
							c-0.017,1.628-1.376,2.753-3.273,2.736c-1.896,0.017-3.273-1.108-3.256-2.736c-0.017-1.645,1.359-2.753,3.256-2.77
							C151.089-41.843,152.449-40.734,152.465-39.09z M147.128-39.09c0,1.024,0.856,1.746,2.064,1.746s2.082-0.722,2.082-1.746
							c0-1.023-0.873-1.763-2.082-1.745C147.984-40.853,147.128-40.113,147.128-39.09z M155.252-28.684h-1.242v-3.307h-2.837v-1.04
							h2.837v-9.45h1.242V-28.684z M158.105-27.895h-1.259v-14.922h1.259V-27.895z"/>
						<path fill="#3CC583" d="M167.973-37.109h3.34v-5.707h1.309v14.956h-1.309v-8.158h-3.324c-0.159,2.921-1.645,4.751-3.726,4.751
							c-2.199,0-3.743-2.015-3.743-5.187c0-3.173,1.544-5.187,3.743-5.204C166.295-41.641,167.755-39.903,167.973-37.109z
							 M161.78-36.454c0,2.434,1.007,4.011,2.484,4.011c1.46,0,2.484-1.577,2.484-4.011c0-2.435-1.024-4.012-2.484-4.028
							C162.787-40.466,161.78-38.889,161.78-36.454z"/>
						<path fill="#3CC583" d="M187.207-35.767h-7v-6.076h7V-35.767z M192.628-28.969l-0.454,1.024
							c-2.249-0.303-4.297-1.36-5.169-2.753c-0.906,1.418-3.004,2.45-5.253,2.753l-0.47-1.024c2.568-0.285,5.036-1.729,5.036-3.223
							h-4.415v-1.023h4.431v-1.461h1.309v1.461h4.465v1.023h-4.431C187.677-30.73,190.06-29.287,192.628-28.969z M181.5-36.807
							h4.415v-3.962H181.5V-36.807z M191.722-34.239h-1.292v-8.577h1.292V-34.239z"/>
						<path fill="#3CC583" d="M114.502-9.219h-13.663v-1.091h6.11v-3.659h1.292v3.659h6.261V-9.219z M113.831-14.892l-0.587,1.091
							c-2.274-0.461-4.675-2.006-5.64-4.162c-0.982,2.148-3.366,3.701-5.64,4.162l-0.588-1.091c2.602-0.453,5.522-2.635,5.522-5.136
							v-1.142h1.376v1.142C108.275-17.526,111.229-15.345,113.831-14.892z"/>
						<path fill="#3CC583" d="M129.355-9.185h-13.663v-1.125h13.663V-9.185z M128.046-19.591h-2.367v5.22h2.333v1.074h-11.078
							v-1.074h2.333v-5.22H116.9v-1.092h11.146V-19.591z M124.387-14.371v-5.22h-3.81v5.22H124.387z"/>
						<path fill="#3CC583" d="M144.208-9.219h-13.663v-1.091h13.663V-9.219z M142.631-13.045h-10.323V-20.9h10.155v1.107h-8.812
							v2.216h8.493v1.058h-8.493v2.4h8.98V-13.045z"/>
						<path fill="#3CC583" d="M153.036-14.976l0.101,1.007c-1.057,0.202-2.232,0.328-3.39,0.403v5.069h-1.242v-5.002
							c-1.158,0.042-2.249,0.05-3.122,0.05l-0.185-1.124C147.262-14.572,150.602-14.572,153.036-14.976z M152.465-18.467
							c-0.017,1.628-1.376,2.753-3.273,2.736c-1.896,0.017-3.273-1.108-3.256-2.736c-0.017-1.645,1.36-2.753,3.256-2.77
							C151.089-21.22,152.448-20.111,152.465-18.467z M147.127-18.467c0,1.024,0.856,1.746,2.064,1.746s2.082-0.722,2.082-1.746
							c0-1.023-0.873-1.763-2.082-1.745C147.983-20.229,147.127-19.49,147.127-18.467z M155.251-8.061h-1.242v-3.307h-2.836v-1.04
							h2.836v-9.45h1.242V-8.061z M158.104-7.271h-1.259v-14.922h1.259V-7.271z"/>
						<path fill="#3CC583" d="M167.973-16.486h3.34v-5.707h1.309v14.956h-1.309v-8.158h-3.324c-0.159,2.921-1.645,4.751-3.726,4.751
							c-2.199,0-3.743-2.015-3.743-5.187c0-3.173,1.544-5.187,3.743-5.204C166.295-21.018,167.755-19.28,167.973-16.486z
							 M161.78-15.831c0,2.434,1.007,4.011,2.484,4.011c1.46,0,2.484-1.577,2.484-4.011c0-2.435-1.024-4.012-2.484-4.028
							C162.787-19.843,161.78-18.266,161.78-15.831z"/>
						<path fill="#3CC583" d="M188.214-14.539l-0.738,1.023c-1.637-0.654-2.938-1.955-3.575-3.574
							c-0.638,1.804-1.998,3.239-3.76,3.944l-0.705-1.074c2.232-0.823,3.776-2.904,3.793-5.204v-1.846h1.292v1.896
							C184.521-17.292,186.032-15.328,188.214-14.539z M192.125-7.59h-9.987v-4.684h1.326v3.575h8.661V-7.59z M191.789-10.997
							h-1.326v-6.563h-3.323v-1.107h3.323v-3.508h1.326V-10.997z"/>
						<path fill="#3CC583" d="M200.734-19.994h-4.532v1.863h4.364v1.041h-4.364v2.064c2.173-0.009,3.533-0.084,5.136-0.403
							l0.134,1.091c-1.746,0.336-3.155,0.42-5.589,0.42h-0.939v-7.184h5.791V-19.994z M206.944-7.271h-1.292v-4.012h-8.762v-1.074
							h10.054V-7.271z M206.944-13.129h-1.259v-4.079h-2.098v3.979h-1.226v-8.661h1.226v3.608h2.098v-3.894h1.259V-13.129z"/>
					</g>
				</g>
			</g>
		</g>
		<g id="g-root-cp_0_g-0_1uonq2a1n621vq-stroke" transform="translate(62.21098327636719, 265.9999694824219)">
			<g id="cp_0_g-0_1uonq2a1n621vq-stroke">
				<g>
					
						<path fill="none" stroke="#969696" stroke-width="2" stroke-linecap="round" stroke-linejoin="round" stroke-dasharray="5,7" d="
						M230.964,61.546c-2.644,37.458-33.869,67.026-72,67.026S89.607,99.004,86.963,61.546 M375.328,51.234
						c-2.644-37.459-33.869-67.026-72-67.026c-38.131,0-69.357,29.567-72,67.026 M519.691,61.546
						c-2.644,37.458-33.869,67.026-72.001,67.026c-38.131,0-69.357-29.568-72-67.026 M664.054,51.234
						c-2.643-37.459-33.868-67.026-72-67.026s-69.356,29.567-72,67.026 M808.418,61.546c-2.644,37.458-33.871,67.026-72.001,67.026
						c-38.132,0-69.357-29.568-72.001-67.026 M952.781,51.234c-2.644-37.459-33.87-67.026-72.001-67.026
						s-69.356,29.567-72.001,67.026"/>
				</g>
			</g>
		</g>
		<g id="g-root-cp_1_g-1_1_1uonq2a1n621vs-stroke" transform="translate(56, 208.99996948242188)">
			<g id="cp_1_g-1_1_1uonq2a1n621vs-stroke">
				<g>
					<path fill="none" stroke="#4E88E7" stroke-width="2" stroke-linecap="round" stroke-linejoin="round" d="M108.46,113.391
						c0,31.321,25.392,56.713,56.714,56.713c31.322,0,56.714-25.392,56.714-56.713c0-31.323-25.392-56.715-56.714-56.715
						C133.852,56.676,108.46,82.068,108.46,113.391 M87.837,113.391c0,2.846,2.308,5.155,5.156,5.155
						c2.847,0,5.156-2.31,5.156-5.155c0-2.848-2.309-5.156-5.156-5.156C90.146,108.234,87.837,110.543,87.837,113.391"/>
				</g>
			</g>
			<g id="cp_1_g-1_1_1uonq2a1n621vs-stroke_1_">
				<g>
					<path fill="none" stroke="#4E88E7" stroke-width="2" stroke-linecap="round" stroke-linejoin="round" d="M172.908-0.039
						c0,4.271-3.462,7.734-7.733,7.734c-4.271,0-7.733-3.463-7.733-7.734s3.462-7.734,7.733-7.734
						C169.446-7.772,172.908-4.31,172.908-0.039z"/>
				</g>
			</g>
		</g>
		<g id="g-root-cp_2_g-2_1q8u7xu1n622o2-stroke" transform="translate(224, 283.9999694824219)">
			<g id="cp_2_g-2_1q8u7xu1n622o2-stroke">
				<g>
					<path fill="none" stroke="#3CC583" stroke-width="2" stroke-linecap="round" stroke-linejoin="round" d="M84.824,38.391
						c0,31.321,25.392,56.713,56.714,56.713s56.714-25.392,56.714-56.713c0-31.323-25.392-56.715-56.714-56.715
						S84.824,7.068,84.824,38.391 M64.201,38.391c0,2.846,2.308,5.155,5.156,5.155c2.847,0,5.155-2.31,5.155-5.155
						c0-2.848-2.308-5.156-5.155-5.156C66.509,33.234,64.201,35.543,64.201,38.391"/>
				</g>
			</g>
			<g id="cp_2_g-2_1q8u7xu1n622o2-stroke_1_">
				<g>
					<path fill="none" stroke="#3CC583" stroke-width="2" stroke-linecap="round" stroke-linejoin="round" d="M149.271,151.818
						c0,4.271-3.462,7.732-7.733,7.732c-4.271,0-7.733-3.462-7.733-7.732c0-4.271,3.462-7.734,7.733-7.734
						C145.809,144.084,149.271,147.547,149.271,151.818z"/>
				</g>
			</g>
		</g>
		<g id="g-root-cp_3_g-3_1_1hdtos21n620b0-stroke" transform="translate(392, 208.99996948242188)">
			<g id="cp_3_g-3_1_1hdtos21n620b0-stroke">
				<g>
					<path fill="none" stroke="#92BD39" stroke-width="2" stroke-linecap="round" stroke-linejoin="round" d="M61.188,113.391
						c0,31.321,25.391,56.713,56.714,56.713s56.714-25.392,56.714-56.713c0-31.323-25.392-56.715-56.714-56.715
						S61.188,82.068,61.188,113.391 M40.564,113.391c0,2.846,2.308,5.155,5.155,5.155c2.848,0,5.156-2.31,5.156-5.155
						c0-2.848-2.308-5.156-5.156-5.156C42.872,108.234,40.564,110.543,40.564,113.391"/>
				</g>
			</g>
			<g id="cp_3_g-3_1_1hdtos21n620b0-stroke_1_">
				<g>
					<path fill="none" stroke="#92BD39" stroke-width="2" stroke-linecap="round" stroke-linejoin="round" d="M125.635-0.039
						c0,4.271-3.462,7.734-7.734,7.734s-7.733-3.463-7.733-7.734s3.462-7.734,7.733-7.734S125.635-4.31,125.635-0.039z"/>
				</g>
			</g>
		</g>
		<g id="g-root-cp_4_g-4_1hdtos21n620b2-stroke" transform="translate(560, 283.9999694824219)">
			<g id="cp_4_g-4_1hdtos21n620b2-stroke">
				<g>
					<path fill="none" stroke="#1EABDA" stroke-width="2" stroke-linecap="round" stroke-linejoin="round" d="M37.55,38.391
						c0,31.321,25.393,56.713,56.715,56.713s56.714-25.392,56.714-56.713c0-31.323-25.392-56.715-56.714-56.715
						S37.55,7.068,37.55,38.391 M16.928,38.391c0,2.846,2.308,5.155,5.155,5.155s5.156-2.31,5.156-5.155
						c0-2.848-2.309-5.156-5.156-5.156S16.928,35.543,16.928,38.391"/>
				</g>
			</g>
			<g id="cp_4_g-4_1hdtos21n620b2-stroke_1_">
				<g>
					<path fill="none" stroke="#1EABDA" stroke-width="2" stroke-linecap="round" stroke-linejoin="round" d="M101.999,151.818
						c0,4.271-3.464,7.732-7.734,7.732s-7.733-3.462-7.733-7.732c0-4.271,3.463-7.734,7.733-7.734S101.999,147.547,101.999,151.818z
						"/>
				</g>
			</g>
		</g>
		<g id="g-root-cp_5_g-5_1_1cy06nm1n6213c-stroke" transform="translate(728, 208.99996948242188)">
			<g id="cp_5_g-5_1_1cy06nm1n6213c-stroke">
				<g>
					<path fill="none" stroke="#7F64EA" stroke-width="2" stroke-linecap="round" stroke-linejoin="round" d="M13.914,113.391
						c0,31.321,25.392,56.713,56.714,56.713c31.323,0,56.715-25.392,56.715-56.713c0-31.323-25.392-56.715-56.715-56.715
						C39.306,56.676,13.914,82.068,13.914,113.391 M-6.709,113.391c0,2.846,2.309,5.155,5.156,5.155c2.846,0,5.155-2.31,5.155-5.155
						c0-2.848-2.31-5.156-5.155-5.156C-4.4,108.234-6.709,110.543-6.709,113.391"/>
				</g>
			</g>
			<g id="cp_5_g-5_1_1cy06nm1n6213c-stroke_1_">
				<g>
					<path fill="none" stroke="#7F64EA" stroke-width="2" stroke-linecap="round" stroke-linejoin="round" d="M78.361-0.039
						c0,4.271-3.461,7.734-7.733,7.734c-4.271,0-7.733-3.463-7.733-7.734s3.462-7.734,7.733-7.734
						C74.9-7.772,78.361-4.31,78.361-0.039z"/>
				</g>
			</g>
		</g>
		<g id="g-root-cp_6_g-6_1cy06nm1n6213e-stroke" transform="translate(896, 283.9999694824219)">
			<g id="cp_6_g-6_1cy06nm1n6213e-stroke">
				<g>
					<path fill="none" stroke="#DE58A9" stroke-width="2" stroke-linecap="round" stroke-linejoin="round" d="M-9.724,38.391
						c0,31.321,25.393,56.713,56.715,56.713s56.714-25.392,56.714-56.713c0-31.323-25.392-56.715-56.714-56.715
						S-9.724,7.068-9.724,38.391 M-30.346,38.391c0,2.846,2.308,5.155,5.155,5.155s5.155-2.31,5.155-5.155
						c0-2.848-2.308-5.156-5.155-5.156S-30.346,35.543-30.346,38.391 M114.018,38.391c0,2.846,2.309,5.155,5.155,5.155
						s5.156-2.31,5.156-5.155c0-2.848-2.31-5.156-5.156-5.156S114.018,35.543,114.018,38.391"/>
				</g>
			</g>
			<g id="cp_6_g-6_1cy06nm1n6213e-stroke_1_">
				<g>
					<path fill="none" stroke="#DE58A9" stroke-width="2" stroke-linecap="round" stroke-linejoin="round" d="M54.725,151.818
						c0,4.271-3.462,7.732-7.733,7.732c-4.272,0-7.733-3.462-7.733-7.732c0-4.271,3.461-7.734,7.733-7.734
						C51.263,144.084,54.725,147.547,54.725,151.818z"/>
				</g>
			</g>
		</g>
		<g id="g-root-cp_-1_line_18i6oj61n621vo-stroke" transform="translate(146, 226.99996948242188)">
			<g id="cp_-1_line_18i6oj61n621vo-stroke">
				<g>
					<path fill="none" stroke="#969696" stroke-width="2" stroke-linecap="round" stroke-linejoin="round" d="M75.175,38.676v-48.98
						"/>
				</g>
			</g>
		</g>
		<g id="g-root-cp_-1_line_1_18i6oj61n621vq-stroke" transform="translate(482, 226.99996948242188)">
			<g id="cp_-1_line_1_18i6oj61n621vq-stroke">
				<g>
					<path fill="none" stroke="#969696" stroke-width="2" stroke-linecap="round" stroke-linejoin="round" d="M27.901,38.676v-48.98
						"/>
				</g>
			</g>
		</g>
		<g id="g-root-cp_-1_line_2_18i6oj61n621vs-stroke" transform="translate(818, 226.99996948242188)">
			<g id="cp_-1_line_2_18i6oj61n621vs-stroke">
				<g>
					<path fill="none" stroke="#969696" stroke-width="2" stroke-linecap="round" stroke-linejoin="round" d="M-19.372,38.676
						v-48.98"/>
				</g>
			</g>
		</g>
		<g id="g-root-cp_-1_line_3_142d6eq1n622o2-stroke" transform="translate(314, 415.9999694824219)">
			<g id="cp_-1_line_3_142d6eq1n622o2-stroke">
				<g>
					<path fill="none" stroke="#969696" stroke-width="2" stroke-linecap="round" stroke-linejoin="round" d="M51.538,12.084v-48.98
						"/>
				</g>
			</g>
		</g>
		<g id="g-root-cp_-1_line_4_142d6eq1n622o4-stroke" transform="translate(650, 415.9999694824219)">
			<g id="cp_-1_line_4_142d6eq1n622o4-stroke">
				<g>
					<path fill="none" stroke="#969696" stroke-width="2" stroke-linecap="round" stroke-linejoin="round" d="M4.265,12.084v-48.98"
						/>
				</g>
			</g>
		</g>
		<g id="g-root-cp_-1_line_5_142d6eq1n622o6-stroke" transform="translate(986, 415.9999694824219)">
			<g id="cp_-1_line_5_142d6eq1n622o6-stroke">
				<g>
					<path fill="none" stroke="#969696" stroke-width="2" stroke-linecap="round" stroke-linejoin="round" d="M-43.009,12.084
						v-48.98"/>
				</g>
			</g>
		</g>
		<g id="g-root-tx__58lgy1n6213i-stroke" transform="translate(710, 157.99996948242188)">
		</g>
		<g id="g-root-tx__dg2mr61n622oc-stroke" transform="translate(374, 157.99996948242188)">
		</g>
		<g id="g-root-tx__mbpn021n621vm-stroke" transform="translate(38, 157.99996948242188)">
		</g>
		<g id="g-root-tx__90vlpu1n620at-stroke" transform="translate(746, 122)">
		</g>
		<g id="g-root-ic_cycl_1uqj5bm1n621on-stroke" transform="translate(116, 319.9999694824219)">
			<g id="ic_cycl_1uqj5bm1n621on-stroke">
				<g>
					<path fill="none" stroke="#4E88E7" stroke-width="2" stroke-linecap="round" stroke-linejoin="round" d="M92.82,23.788
						C82.001,17.566,77.522,4.252,82.381-7.244c4.858-11.497,17.529-17.563,29.531-14.141 M117.529-19.009
						c10.791,6.194,15.292,19.446,10.505,30.93c-4.787,11.484-17.367,17.618-29.362,14.314 M85.153,25.84l7.669-2.056l-2.057-7.669
						 M125.196-21.061l-7.669,2.056l2.056,7.669 M98.279-5.471c-0.001,4.032,3.267,7.302,7.299,7.302s7.301-3.27,7.299-7.302
						c0.001-4.032-3.267-7.302-7.299-7.302S98.278-9.503,98.279-5.471 M116.934,13.059c-1.72-4.72-6.207-7.859-11.229-7.859
						c-5.023,0-9.511,3.14-11.23,7.859 M100.448-10.667c2.49,4.627,8.02,5.196,12.424,5.196"/>
				</g>
			</g>
		</g>
		<g id="g-root-ic_code_4j6rhu1n5gydk-stroke" transform="translate(284, 319.9999694824219)">
			<g id="ic_code_4j6rhu1n5gydk-stroke">
				<g>
					<path fill="none" stroke="#3CC583" stroke-width="2" stroke-linecap="round" stroke-linejoin="round" d="M78.315-1.907
						l-4.296,4.298l4.296,4.296 M84.761-1.907l4.296,4.298l-4.296,4.296 M81.538,22.262L81.538,22.262
						c0.296,0,0.537,0.24,0.537,0.536l0,0c0,0.297-0.241,0.537-0.537,0.537l0,0c-0.296,0-0.537-0.24-0.537-0.537l0,0
						C81.001,22.502,81.242,22.262,81.538,22.262 M71.871-22.315h19.334c0,0,4.296,0,4.296,4.297v40.816c0,0,0,4.298-4.296,4.298
						H71.871c0,0-4.296,0-4.296-4.298v-40.816C67.575-18.019,67.575-22.315,71.871-22.315 M95.501,18.501H67.575 M95.501-13.723
						H67.575 M78.315-18.019h6.445"/>
				</g>
			</g>
		</g>
		<g id="g-root-ic_add_1hbycoi1n5icjl-stroke" transform="translate(452, 319.9999694824219)">
			<g id="ic_add_1hbycoi1n5icjl-stroke">
				<g>
					<path fill="none" stroke="#92BD39" stroke-width="2" stroke-linecap="round" stroke-linejoin="round" d="M35.805-16.023h44.192
						c0,0,1.842,0,1.842,1.842v29.461c0,0,0,1.841-1.842,1.841H35.805c0,0-1.842,0-1.842-1.841v-29.461
						C33.963-14.182,33.963-16.023,35.805-16.023 M54.218,17.12l-3.683,9.207 M61.584,17.12l3.683,9.207 M46.853,26.327H68.95
						 M67.107,0.548H48.695 M57.901-8.658V9.755"/>
				</g>
			</g>
		</g>
		<g id="g-root-ic_comp_1cu9faq1n5jrpe-stroke" transform="translate(620, 319.9999694824219)">
			<g id="ic_comp_1cu9faq1n5jrpe-stroke">
				<g>
					<path fill="none" stroke="#1EABDA" stroke-width="2" stroke-linecap="round" stroke-linejoin="round" d="M9.56-15.726
						c-0.001,3.638,2.949,6.589,6.589,6.589s6.59-2.951,6.589-6.589c0.001-3.641-2.949-6.591-6.589-6.591S9.559-19.366,9.56-15.726
						 M9.56,20.506c-0.001,3.64,2.949,6.591,6.589,6.591s6.59-2.951,6.589-6.591c0.001-3.639-2.949-6.591-6.589-6.591
						S9.559,16.867,9.56,20.506 M16.148-9.141V13.92 M45.792,20.506c-0.001,3.64,2.949,6.591,6.588,6.591
						c3.641,0,6.591-2.951,6.591-6.591c0-3.639-2.95-6.591-6.591-6.591C48.741,13.915,45.791,16.867,45.792,20.506 M52.38,13.92
						V-4.746c0-6.064-4.916-10.979-10.979-10.979h-8.784 M39.206-22.315l-6.59,6.59l6.59,6.585"/>
				</g>
			</g>
		</g>
		<g id="g-root-ic_chec_1lxe4ky1n5jtvn-stroke" transform="translate(788, 319.9999694824219)">
			<g id="ic_chec_1lxe4ky1n5jtvn-stroke">
				<g>
					<path fill="none" stroke="#7F64EA" stroke-width="2" stroke-linecap="round" stroke-linejoin="round" d="M31.036-13.723
						c0,2.374-1.923,4.297-4.296,4.297H-9.78c-2.373,0-4.297-1.923-4.297-4.297v-4.296c0-2.373,1.924-4.297,4.297-4.297H26.74
						c2.373,0,4.296,1.924,4.296,4.297V-13.723z M-9.78,3.464c-2.373,0-4.297-1.923-4.297-4.297v-4.296
						c0-2.374,1.924-4.297,4.297-4.297H26.74c2.373,0,4.296,1.923,4.296,4.297v3.222 M-4.946-16.407
						c-0.297,0-0.538,0.24-0.538,0.536c0,0.297,0.241,0.537,0.538,0.537c0.296,0,0.536-0.24,0.536-0.537
						C-4.41-16.167-4.65-16.407-4.946-16.407L-4.946-16.407 M2.572-16.407c-0.297,0-0.538,0.24-0.538,0.536
						c0,0.297,0.241,0.537,0.538,0.537c0.296,0,0.537-0.24,0.537-0.537C3.109-16.167,2.868-16.407,2.572-16.407L2.572-16.407
						 M-4.946-3.519c-0.297,0-0.538,0.24-0.538,0.537c0,0.298,0.241,0.538,0.538,0.538c0.296,0,0.536-0.24,0.536-0.538
						C-4.41-3.278-4.65-3.519-4.946-3.519L-4.946-3.519 M2.572-3.519c-0.297,0-0.538,0.24-0.538,0.537
						c0,0.298,0.241,0.538,0.538,0.538c0.296,0,0.537-0.24,0.537-0.538C3.109-3.278,2.868-3.519,2.572-3.519L2.572-3.519
						 M4.183,16.354H-9.78c-2.373,0-4.297-1.923-4.297-4.297V7.761c0-2.374,1.924-4.297,4.297-4.297H7.406 M-4.946,9.371
						c-0.297,0-0.538,0.241-0.538,0.538s0.241,0.536,0.538,0.536c0.296,0,0.536-0.239,0.536-0.536S-4.65,9.371-4.946,9.371
						L-4.946,9.371 M2.572,9.371c-0.297,0-0.538,0.241-0.538,0.538s0.241,0.536,0.538,0.536c0.296,0,0.537-0.239,0.537-0.536
						S2.868,9.371,2.572,9.371L2.572,9.371 M9.553,14.205c0,7.119,5.771,12.891,12.891,12.891c7.118,0,12.89-5.771,12.89-12.891
						c0-7.118-5.771-12.89-12.89-12.89C15.324,1.315,9.553,7.087,9.553,14.205z M28.188,10.459l-6.24,8.322
						c-0.28,0.373-0.709,0.605-1.175,0.639c-0.466,0.034-0.924-0.137-1.253-0.467l-3.223-3.222"/>
				</g>
			</g>
		</g>
		<g id="g-root-ic_incr_1lvipbm1n5l898-stroke" transform="translate(956, 319.9999694824219)">
			<g id="ic_incr_1lvipbm1n5l898-stroke">
				<g>
					<path fill="none" stroke="#DE58A9" stroke-width="2" stroke-linecap="round" stroke-linejoin="round" d="M-37.705,26.558h49.41
						 M-29.121,26.558v-5.37c0-0.594-0.48-1.074-1.074-1.074h-4.297c-0.592,0-1.073,0.48-1.073,1.074v5.37 M-16.231,26.558V12.594
						c0-0.593-0.48-1.074-1.074-1.074h-4.297c-0.593,0-1.073,0.481-1.073,1.074v13.964 M-3.342,26.558V4.001
						c0-0.594-0.48-1.074-1.074-1.074h-4.296c-0.593,0-1.075,0.48-1.075,1.074v22.557 M9.548,26.558V-4.592
						c0-0.594-0.48-1.074-1.073-1.074H4.177c-0.592,0-1.074,0.48-1.074,1.074v31.149 M-32.335,5.075L6.333-20.704 M5.26-12.11
						l1.073-8.594l-8.592-1.074"/>
				</g>
			</g>
		</g>
		<g id="g-root-tx__dg2mr61n622ob-stroke" transform="translate(410, 122)">
		</g>
		<g id="g-root-tx__qrj54i1n6213d-stroke" transform="translate(62, 122)">
		</g>
		<g id="g-root-tx__zn65de1n620ao-stroke" transform="translate(476, 38)">
		</g>
		<g id="g-root-tx__1heg90y1n5mk9a-stroke" transform="translate(206, 566)">
		</g>
		<g id="g-root-tx__1cymqwi1n5ml1j-stroke" transform="translate(584, 505.9999694824219)">
		</g>
		<g id="g-root-tx__zn68j61n5mmmh-stroke" transform="translate(914, 505.9999694824219)">
		</g>
		<g id="g-root-tx__18it8s21n5mlts-stroke" transform="translate(542, 542)">
		</g>
		<g id="g-root-tx__zn68j61n5mmmi-stroke" transform="translate(878, 542)">
		</g>
		<g id="g-root-tx__1q9gs6q1n5mmmd-stroke" transform="translate(212, 505.9999694824219)">
		</g>
	</g>
</g>
</svg>
