<?xml version="1.0" encoding="UTF-8"?>
<svg id="_레이어_2" xmlns="http://www.w3.org/2000/svg" version="1.1" viewBox="0 0 194 206">
  <!-- Generator: Adobe Illustrator 29.3.1, SVG Export Plug-In . SVG Version: 2.1.0 Build 151)  -->
  <defs>
    <style>
      .st0 {
        fill: #fff;
      }

      .st1 {
        fill: #e0cb15;
      }

      .st1, .st2 {
        fill-rule: evenodd;
      }

      .st3 {
        stroke: #fff;
      }

      .st3, .st4 {
        fill: none;
        stroke-linecap: round;
        stroke-linejoin: round;
        stroke-width: 2px;
      }

      .st5 {
        isolation: isolate;
      }

      .st2 {
        fill: #666;
      }

      .st4 {
        stroke: #484848;
      }
    </style>
  </defs>
  <g id="_레이어_1-2">
    <g id="g-root-cp_1_g-1_1_5vlg91vhptze-fill">
      <g id="cp_1_g-1_1_5vlg91vhptze-fill">
        <path class="st1" d="M13,13H1C1,6.4,6.4,1,13,1v12ZM13,1v12h168V1H13ZM193,13h-12V1c6.6,0,12,5.4,12,12ZM193,121H1V13h192v108Z"/>
      </g>
    </g>
    <g id="g-root-cp_0_g-0_1_1ur65ax1vhpukk-fill">
      <g id="cp_0_g-0_1_1ur65ax1vhpukk-fill">
        <path class="st2" d="M1,193h12v12c-6.6,0-12-5.4-12-12ZM181,205v-12H13v12h168ZM193,193c0,6.6-5.4,12-12,12v-12h12ZM193,121H1v72h192v-72Z"/>
      </g>
    </g>
    <g id="g-root-tx_4g2wyh1vh6878-fill">
      <g id="tx_4g2wyh1vh6878-fill">
        <g class="st5">
          <g class="st5">
            <g class="st5">
              <path class="st0" d="M46.2,152.9h-5.4v1.3h3.9v2.9h-7.7v1.3h8.1v.9h-9.3v-3h7.7v-1.2h-7.8v-.9h3.9v-1.3h-5.3v-1h11.9v1ZM37,147.8h6.4v-1.2h1.1v4.3h-8.7v-4.3h1.1v1.2ZM43.5,150v-1.3h-6.4v1.3h6.4Z"/>
              <path class="st0" d="M53.7,150.7h-4.7v1.8c1.2,0,2.3,0,3.2,0s1.8-.2,2.8-.3v1c-.9.2-1.8.3-2.8.3s-2.1,0-3.4,0h-1v-3.7h4.7v-1.7h-4.8v-1h5.9v3.5ZM55.6,154.9c.6.2,1.1.5,1.5.8s.5.8.5,1.3-.2.9-.5,1.3c-.3.4-.8.6-1.5.8-.6.2-1.4.3-2.3.3s-1.7,0-2.3-.3c-.6-.2-1.1-.5-1.5-.8-.3-.4-.5-.8-.5-1.3s.2-.9.5-1.3c.3-.4.8-.6,1.5-.8.6-.2,1.4-.3,2.3-.3s1.6,0,2.3.3ZM51.6,155.7c-.5.1-.9.3-1.1.5-.3.2-.4.5-.4.8,0,.3.1.6.4.8.3.2.6.4,1.1.5.5.1,1.1.2,1.7.2s1.2,0,1.7-.2c.5-.1.8-.3,1.1-.5.3-.2.4-.5.4-.8s-.1-.6-.4-.8c-.3-.2-.6-.4-1.1-.5s-1-.2-1.7-.2-1.2,0-1.7.2ZM59.4,149.4h-2v1.8h2v1h-2v2.1h-1.1v-7.9h1.1v2h2v1Z"/>
              <path class="st0" d="M70,150.2c-.5.9-1.2,1.6-2.1,2.3s-2,1.1-3.3,1.5l-.5-.9c1-.3,1.9-.7,2.7-1.2.8-.5,1.4-1,1.8-1.6.4-.6.7-1.3.8-2h-4.7v-1h5.9c0,1.1-.3,2-.7,2.9ZM74.8,159.2h-8.5v-4.8h8.5v4.8ZM67.4,158.3h6.2v-3h-6.2v3ZM74.8,153.8h-1.2v-3.1h-2.9v-1h2.9v-3.4h1.2v7.4Z"/>
              <path class="st0" d="M81.8,152.1c.3.7.7,1.4,1.2,2s1.1,1,1.7,1.3l-.7.9c-.7-.4-1.4-.9-1.9-1.7-.6-.7-1-1.5-1.3-2.4-.3,1-.7,1.8-1.3,2.6-.6.8-1.2,1.4-2,1.7l-.7-.9c.6-.3,1.2-.8,1.7-1.4.5-.6.9-1.3,1.2-2.1.3-.8.5-1.6.5-2.3v-2.4h1.1v2.4c0,.7.2,1.5.5,2.2ZM87,151.7h2.2v1h-2.2v6.7h-1.1v-13h1.1v5.3Z"/>
            </g>
            <g class="st5">
              <path class="st0" d="M90.9,161.2h-1.1l.8-4h1.4l-1.1,4Z"/>
            </g>
            <g class="st5">
              <path class="st0" d="M102.5,150.4c.3.5.6,1,1.1,1.4.5.4,1,.7,1.7.9l-.6.9c-.7-.3-1.4-.7-1.9-1.2-.5-.5-1-1.1-1.2-1.8-.3.8-.7,1.4-1.3,2-.6.6-1.3,1-2,1.3l-.6-.9c.6-.2,1.2-.6,1.7-1,.5-.4.9-1,1.2-1.5.3-.6.4-1.2.4-1.8v-.5h-2.9v-1h7v1h-2.9v.5c0,.6.1,1.1.4,1.6ZM106.3,154.8c.7.2,1.2.5,1.5.8.3.4.5.8.5,1.3s-.2.9-.5,1.3c-.3.4-.9.6-1.5.8s-1.4.3-2.3.3c-.9,0-1.7-.1-2.3-.3s-1.2-.5-1.5-.8c-.3-.4-.5-.8-.5-1.3s.2-.9.5-1.3c.3-.4.9-.6,1.5-.8.7-.2,1.4-.3,2.3-.3s1.7,0,2.3.3ZM102.3,155.6c-.5.1-.9.3-1.1.5-.3.2-.4.5-.4.8,0,.3.1.6.4.8.3.2.6.4,1.1.5.5.1,1.1.2,1.7.2s1.2,0,1.7-.2c.5-.1.9-.3,1.1-.5.3-.2.4-.5.4-.8s-.1-.6-.4-.8c-.3-.2-.6-.4-1.1-.5-.5-.1-1.1-.2-1.7-.2s-1.2,0-1.7.2ZM108.3,154.1h-1.2v-3.4h-2.6v-1h2.6v-3.4h1.2v7.8Z"/>
              <path class="st0" d="M116.7,150.3h-4.5v1.6h.6c.9,0,1.7,0,2.4,0,.7,0,1.5-.1,2.3-.2v.9c-.8.1-1.7.2-2.5.3-.8,0-1.8,0-3,0h-.9v-3.4h4.5v-1.5h-4.5v-.9h5.7v3.3ZM121.3,156.9h-7.4v1.5h7.9v.9h-9v-3.2h7.4v-1.3h-7.4v-.9h8.5v3.1ZM121.3,153.3h-1.2v-2h-2.6v-1h2.6v-1.4h-2.6v-.9h2.6v-1.6h1.2v6.9Z"/>
            </g>
            <g class="st5">
              <path class="st0" d="M124.5,161.2h-1.1l.8-4h1.4l-1.1,4Z"/>
            </g>
            <g class="st5">
              <path class="st0" d="M135.6,153.4c1.4,0,2.8-.2,4.1-.4v.9c-1.1.2-2.3.4-3.7.4v4.7h-1.1v-4.6c-.9,0-2.1,0-3.7,0l-.2-1c1.6,0,3.1,0,4.6,0ZM137.1,147.4c.5.2.9.5,1.2.9.3.4.4.9.4,1.4s-.1,1-.4,1.4c-.3.4-.7.7-1.2.9-.5.2-1.1.3-1.7.3-.6,0-1.2-.1-1.7-.3-.5-.2-.9-.5-1.2-.9-.3-.4-.4-.9-.4-1.4s.1-1,.4-1.4c.3-.4.7-.7,1.2-.9.5-.2,1.1-.3,1.7-.3.6,0,1.2.1,1.7.3ZM134.2,148.2c-.3.1-.6.3-.8.6-.2.3-.3.6-.3.9,0,.3,0,.6.3.9.2.3.5.5.8.6.3.1.7.2,1.1.2.4,0,.8,0,1.2-.2.3-.1.6-.3.8-.6.2-.3.3-.6.3-.9s0-.6-.3-.9-.5-.5-.8-.6c-.3-.1-.7-.2-1.2-.2-.4,0-.8,0-1.1.2ZM141.8,159.4h-1.1v-13h1.1v13Z"/>
              <path class="st0" d="M149.3,152.7c.3.7.7,1.3,1.3,1.8.5.5,1.1.9,1.8,1.2l-.6.9c-.8-.3-1.4-.8-2-1.5s-1.1-1.4-1.4-2.3c-.3.9-.7,1.7-1.3,2.4-.6.7-1.3,1.2-2,1.6l-.6-.9c.6-.3,1.2-.7,1.7-1.3.5-.6.9-1.2,1.2-1.9.3-.7.4-1.4.4-2.2v-1h-3.1v-.9h3v-2h1.1v2h3v.9h-3v1c0,.7.2,1.4.5,2.1ZM154.8,159.4h-1.2v-13h1.2v13Z"/>
            </g>
          </g>
          <g class="st5">
            <g class="st5">
              <path class="st0" d="M63.3,171.9h-11.9v-.9h11.9v.9ZM57.9,165.7h4.2v.9h-4.1c0,.5.2.9.7,1.3.4.4,1,.7,1.7.9.7.2,1.4.4,2.3.5l-.4.9c-1.1-.1-2.1-.4-3-.8-.9-.4-1.5-.9-1.9-1.6-.4.6-1,1.2-1.9,1.6-.9.4-1.9.7-3,.8l-.4-.9c.8,0,1.6-.2,2.3-.5.7-.2,1.2-.6,1.7-.9.4-.4.6-.8.7-1.3h-4.1v-.9h4.1v-1.3h1.1v1.3ZM61.8,177.4h-1.2v-3.2h-7.9v-.9h9.1v4.1Z"/>
              <path class="st0" d="M69.3,168.4c.3.5.6,1,1.1,1.4.5.4,1,.7,1.7.9l-.6.9c-.7-.3-1.4-.7-1.9-1.2-.5-.5-1-1.1-1.2-1.8-.3.8-.7,1.4-1.3,2-.6.6-1.3,1-2,1.3l-.6-.9c.6-.2,1.2-.6,1.7-1,.5-.4.9-1,1.2-1.5.3-.6.4-1.2.4-1.8v-.5h-2.9v-1h7v1h-2.9v.5c0,.6.1,1.1.4,1.6ZM73.2,172.8c.7.2,1.2.5,1.5.8.3.4.5.8.5,1.3s-.2.9-.5,1.3c-.3.4-.9.6-1.5.8s-1.4.3-2.3.3c-.9,0-1.7-.1-2.3-.3s-1.2-.5-1.5-.8c-.3-.4-.5-.8-.5-1.3s.2-.9.5-1.3.9-.6,1.5-.8c.7-.2,1.4-.3,2.3-.3s1.7,0,2.3.3ZM69.1,173.6c-.5.1-.9.3-1.1.5-.3.2-.4.5-.4.8,0,.3.1.6.4.8.3.2.6.4,1.1.5.5.1,1.1.2,1.7.2s1.2,0,1.7-.2c.5-.1.9-.3,1.1-.5.3-.2.4-.5.4-.8s-.1-.6-.4-.8c-.3-.2-.6-.4-1.1-.5-.5-.1-1.1-.2-1.7-.2s-1.2,0-1.7.2ZM75.2,172.1h-1.2v-3.4h-2.6v-1h2.6v-3.4h1.2v7.8Z"/>
            </g>
            <g class="st5">
              <path class="st0" d="M78.3,179.2h-1.1l.8-4h1.4l-1.1,4Z"/>
            </g>
            <g class="st5">
              <path class="st0" d="M96.9,175.7h-11.9v-1h5.4v-3.2h1.2v3.2h5.4v1ZM92.2,168.8c.5.6,1.1,1.1,1.8,1.5.7.4,1.5.7,2.3.8l-.5.9c-.7-.1-1.3-.4-2-.7-.7-.3-1.2-.7-1.8-1.2s-.9-1-1.2-1.6c-.3.6-.7,1.1-1.2,1.6-.5.5-1.1.9-1.7,1.2-.6.3-1.3.6-2,.7l-.5-.9c.7-.1,1.5-.4,2.2-.8s1.3-.9,1.8-1.5c.5-.6.7-1.2.7-1.9v-.3h-4.4v-1h9.9v1h-4.4v.3c0,.7.2,1.3.7,1.9Z"/>
              <path class="st0" d="M104.5,168.5h-4.8v1.8c1.3,0,2.5,0,3.4,0,.9,0,1.8-.2,2.8-.3v1c-.9.2-1.9.3-2.8.3-.9,0-2.1,0-3.4,0h-1.1v-3.6h4.8v-1.7h-4.8v-1h5.9v3.5ZM101.4,173.8h6.2v-1.6h1.1v5h-8.5v-5h1.2v1.6ZM107.5,176.3v-1.6h-6.2v1.6h6.2ZM108.7,171.5h-1.1v-7.1h1.1v7.1Z"/>
              <path class="st0" d="M118.1,171.8v-.9c-.5,0-.9-.2-1.3-.3-.4-.2-.7-.4-.9-.7-.2-.3-.3-.6-.3-.9s.1-.7.4-1c.3-.3.6-.5,1.1-.7.5-.2,1-.2,1.6-.2s1.1,0,1.6.2c.5.2.8.4,1.1.7.3.3.4.6.4,1,0,.5-.2,1-.7,1.3-.4.3-1,.5-1.8.6v.9c1.4,0,2.6-.2,3.6-.3v.8c-1.1.2-2.4.4-3.7.4-1.3,0-2.8,0-4.4,0v-.9c1.4,0,2.5,0,3.4,0ZM122.5,166.5h-7.5v-.9h3.2v-1.3h1.1v1.3h3.2v.9ZM124.8,177.4h-1.2v-2.7h-7.5v-.9h8.6v3.6ZM117.2,168.1c-.3.2-.5.5-.5.8s0,.4.2.6c.2.2.4.3.7.4.3,0,.6.1,1,.1.4,0,.7,0,1-.1.3,0,.5-.2.7-.4.2-.2.2-.4.2-.6,0-.3-.2-.6-.5-.8-.4-.2-.8-.3-1.4-.3-.6,0-1.1,0-1.4.3ZM124.8,168.3h1.9v1h-1.9v3.8h-1.2v-8.7h1.2v3.9Z"/>
              <path class="st0" d="M133.1,165.7c.5.3.9.6,1.2,1.1.3.5.4,1,.4,1.7s-.1,1.2-.4,1.7c-.3.5-.7.9-1.2,1.1-.5.3-1.1.4-1.7.4s-1.2-.1-1.7-.4c-.5-.3-.9-.6-1.2-1.1-.3-.5-.4-1-.4-1.7s.1-1.2.4-1.7c.3-.5.7-.9,1.2-1.1.5-.3,1.1-.4,1.7-.4s1.2.1,1.7.4ZM130.2,166.6c-.3.2-.6.4-.8.8-.2.3-.3.7-.3,1.1,0,.4,0,.8.3,1.1.2.3.5.6.8.8.3.2.7.3,1.2.3s.8,0,1.2-.3c.3-.2.6-.4.8-.8.2-.3.3-.7.3-1.1s-.1-.8-.3-1.1-.5-.6-.8-.8c-.3-.2-.7-.3-1.2-.3s-.8,0-1.2.3ZM138.8,177.1h-8.8v-4.2h1.1v3.2h7.7v1ZM138.4,173.9h-1.1v-9.5h1.1v9.5Z"/>
            </g>
          </g>
        </g>
      </g>
    </g>
    <g id="g-root-tx_hrjfbt1vh66mb-fill">
      <g id="tx_hrjfbt1vh66mb-fill">
        <g class="st5">
          <g class="st5">
            <g class="st5">
              <path class="st0" d="M54.8,98.2c-.6,1.2-1.6,2.3-2.8,3.1s-2.7,1.5-4.4,2l-1-1.9c1.9-.5,3.4-1.2,4.5-2.2s1.8-2,2-3.2h-5.5v-2h8.2c0,1.5-.3,2.9-.9,4.1ZM61.5,110.6h-11.8v-6.9h11.8v6.9ZM52.2,108.6h6.9v-3h-6.9v3ZM61.5,103h-2.5v-3.7h-3.2v-2h3.2v-4.2h2.5v9.9Z"/>
              <path class="st0" d="M70.8,100.2c.3,1,.8,1.9,1.4,2.7s1.4,1.4,2.3,1.9l-1.5,2c-.9-.5-1.7-1.1-2.4-1.9s-1.2-1.8-1.6-2.9c-.4,1.2-.9,2.2-1.6,3.1s-1.5,1.6-2.5,2.1l-1.5-2c1-.4,1.8-1.1,2.5-1.9s1.2-1.8,1.5-2.9.5-2.2.5-3.3v-2.7h2.5v2.7c0,1.1.1,2.1.5,3.2ZM77.9,99.9h2.6v2.1h-2.6v8.8h-2.5v-17.8h2.5v6.9Z"/>
              <path class="st0" d="M95.3,101.6h-8.7v-7.5h8.7v7.5ZM100.9,105.9h-5c0,.4.4.8.8,1.2s1.1.8,1.9,1.1c.8.3,1.8.5,2.9.6l-.8,1.9c-1.4-.1-2.7-.4-3.7-.9s-1.9-1.1-2.4-1.8c-.6.7-1.4,1.3-2.4,1.8s-2.3.8-3.8.9l-.9-1.9c1.1,0,2.1-.3,2.9-.6s1.5-.7,1.9-1.1.7-.8.8-1.3h-5v-1.9h5.1v-1.5h2.5v1.5h5.1v1.9ZM89.1,99.6h3.8v-3.6h-3.8v3.6ZM100.6,103.1h-2.5v-10.1h2.5v10.1Z"/>
              <path class="st0" d="M123.8,103.8h-16.2v-2h16.2v2ZM116.9,94.7h5.3v1.9h-5.1c0,.4.4.9.8,1.2s1.1.7,2,.9c.9.3,1.9.4,3.2.5l-.8,1.9c-1.6-.1-3-.4-4.1-.9-1.1-.5-2-1-2.5-1.8-.6.7-1.4,1.3-2.5,1.8-1.1.5-2.5.7-4.1.9l-.8-1.9c1.2,0,2.3-.2,3.1-.5s1.5-.6,2-.9.7-.8.8-1.2h-5.1v-1.9h5.3v-1.6h2.5v1.6ZM121.9,110.8h-2.5v-3.7h-10v-2h12.4v5.6Z"/>
              <path class="st0" d="M135.2,96.1h-3.5c0,.7.2,1.4.5,2.1s.8,1.3,1.4,1.8c.6.5,1.3.9,2.2,1.2l-1.2,2c-1-.3-1.8-.8-2.5-1.4-.7-.6-1.2-1.3-1.6-2.2-.4.9-1,1.8-1.7,2.4s-1.6,1.2-2.6,1.6l-1.3-2c.9-.3,1.7-.8,2.4-1.3s1.1-1.2,1.4-1.9c.3-.7.5-1.5.5-2.2h-3.6v-2h9.6v2ZM137.1,104.4c.9.3,1.6.7,2.1,1.2.5.5.7,1.1.8,1.8,0,.7-.3,1.3-.8,1.8-.5.5-1.2.9-2.1,1.2s-2,.4-3.3.4-2.3-.1-3.3-.4-1.6-.7-2.1-1.2c-.5-.5-.7-1.1-.7-1.8s.2-1.3.7-1.8c.5-.5,1.2-.9,2.1-1.2.9-.3,2-.4,3.3-.4,1.3,0,2.4.1,3.3.4ZM130.2,107.4c0,.5.3.9.9,1.1s1.5.4,2.7.4,2.1-.1,2.7-.4c.6-.3.9-.6.9-1.1,0-1-1.2-1.5-3.7-1.5s-3.6.5-3.6,1.5ZM139.9,103.6h-2.5v-4.2h-2.8v-2h2.8v-4.3h2.5v10.5Z"/>
            </g>
          </g>
        </g>
      </g>
    </g>
    <g id="g-root-cp_1_g-1_1_5vlg91vhptze-stroke">
      <g id="cp_1_g-1_1_5vlg91vhptze-stroke">
        <path class="st3" d="M13,1C6.4,1,1,6.4,1,13M193,121V13M1,13v108M13,1h168M193,13c0-6.6-5.4-12-12-12"/>
      </g>
    </g>
    <g id="g-root-cp_0_g-0_1_1ur65ax1vhpukk-stroke">
      <g id="cp_0_g-0_1_1ur65ax1vhpukk-stroke">
        <path class="st3" d="M1,193c0,6.6,5.4,12,12,12M181,205H13M181,205c6.6,0,12-5.4,12-12M193,121v72M1,193v-72M193,121H1"/>
      </g>
    </g>
    <g id="g-root-cp_1-1_cell-1-1_1hfpmxl1vhpw5i-stroke">
      <g id="cp_1-1_cell-1-1_1hfpmxl1vhpw5i-stroke">
        <path class="st4" d="M13,145v-6c0-3.3,2.7-6,6-6h6M181,145v36M13,181v-36M25,133h144M13,181v6c0,3.3,2.7,6,6,6h6M181,145v-6c0-3.3-2.7-6-6-6h-6M169,193H25M181,181v6c0,3.3-2.7,6-6,6h-6"/>
      </g>
    </g>
    <g id="g-root-ic_1_hrjfbt1vh4t8i-stroke">
      <g id="ic_1_hrjfbt1vh4t8i-stroke">
        <path class="st3" d="M80,72V30c0-2.2,1.8-4,4-4h26c2.2,0,4,1.8,4,4v42M80,34h34M86,51c0,6.1,4.9,11,11,11s11-4.9,11-11-4.9-11-11-11-11,4.9-11,11ZM87.4,56.4l15-15M106.6,45.6l-15,15M97,46.8l4.2,4.2M92.8,51l4.2,4.2"/>
      </g>
    </g>
  </g>
</svg>