<?xml version="1.0" encoding="utf-8"?>
<!-- Generator: Adobe Illustrator 16.0.0, SVG Export Plug-In . SVG Version: 6.00 Build 0)  -->
<!DOCTYPE svg PUBLIC "-//W3C//DTD SVG 1.1//EN" "http://www.w3.org/Graphics/SVG/1.1/DTD/svg11.dtd">
<svg version="1.1" id="Layer_1" xmlns="http://www.w3.org/2000/svg" xmlns:xlink="http://www.w3.org/1999/xlink" x="0px" y="0px"
	 width="194px" height="206px" viewBox="0 0 194 206" enable-background="new 0 0 194 206" xml:space="preserve">
<g id="g-root-cp_1_g-1_5_4oth091vhpv5u-fill" transform="translate(986, 86)">
	<g>
		<g id="cp_1_g-1_5_4oth091vhpv5u-fill_8_">
			<g>
				<path fill="#0A0F6B" d="M-973-73h-12c0-6.604,5.396-12,12-12V-73z M-973-85v12h168v-12H-973z M-793-73h-12v-12
					C-798.384-85-793-79.616-793-73z M-793,35h-192V-73h192V35z"/>
			</g>
		</g>
	</g>
</g>
<g id="g-root-cp_0_g-0_5_1qeh0m11vhpwjo-fill" transform="translate(986, 206)">
	<g id="cp_0_g-0_5_1qeh0m11vhpwjo-fill">
		<g>
			<path fill="#666666" d="M-985-13h12v12C-979.628-1-985-6.373-985-13z M-805-1v-12h-168v12H-805z M-793-13c0,6.627-5.372,12-12,12
				v-12H-793z M-793-85h-192v72h192V-85z"/>
		</g>
	</g>
</g>
<g id="g-root-tx__1qbz7fd1vhafbb-fill" transform="translate(1040, 170)">
	<g id="tx__1qbz7fd1vhafbb-fill">
		<g>
			<g enable-background="new    ">
				<path fill="#FFFFFF" d="M-965.767-67.113h-7.168v2.051h5.234v5.41h-11.953v-5.41h5.215v-2.051h-7.148v-1.27h15.82V-67.113z
					 M-967.271-74.945h-2.676v3.652h2.617v1.27h-12.715v-1.27h2.617v-3.652h-2.676v-1.27h12.832V-74.945z M-978.13-60.902h8.926
					v-2.949h-8.926V-60.902z M-971.47-71.293v-3.652h-4.434v3.652H-971.47z"/>
				<path fill="#FFFFFF" d="M-953.579-69.301l-0.762,1.191c-2.051-0.645-3.682-2.021-4.453-3.809
					c-0.752,1.953-2.412,3.477-4.531,4.18l-0.723-1.211c2.598-0.859,4.453-2.988,4.453-5.371v-0.195h-4.063v-1.27h9.609v1.27h-4.004
					v0.195C-958.052-72.055-956.196-70.082-953.579-69.301z M-949.966-62.777h-9.746v1.934h10.371v1.23h-11.875v-4.316h9.727v-1.777
					h-9.766v-1.211h11.289V-62.777z M-949.985-67.758h-1.504v-9.023h1.504V-67.758z"/>
				<path fill="#FFFFFF" d="M-926.099-61.645h-15.898v-1.27h7.148v-3.75h-5.273v-8.887h1.543v3.145h9.023v-3.145h1.504v8.887h-5.293
					v3.75h7.246V-61.645z M-929.556-67.914v-3.242h-9.023v3.242H-929.556z"/>
				<path fill="#FFFFFF" d="M-908.892-67.25h-15.82v-1.27h15.82V-67.25z M-910.298-74.613h-5.508
					c0.059,1.973,2.949,3.477,6.035,3.828l-0.566,1.23c-2.842-0.361-5.508-1.631-6.465-3.574c-0.947,1.943-3.604,3.213-6.465,3.574
					l-0.547-1.23c3.027-0.352,5.938-1.855,6.016-3.828h-5.469v-1.27h12.969V-74.613z M-910.825-62.582
					c-0.02,2.012-2.246,3.125-5.977,3.125c-3.75,0-5.996-1.113-5.996-3.125c0-1.992,2.246-3.145,5.996-3.145
					C-913.071-65.727-910.845-64.574-910.825-62.582z M-921.235-62.582c-0.02,1.211,1.641,1.895,4.434,1.895
					c2.754,0,4.434-0.684,4.434-1.895c0-1.23-1.68-1.914-4.434-1.934C-919.595-64.496-921.255-63.813-921.235-62.582z"/>
			</g>
		</g>
	</g>
</g>
<g id="g-root-tx__18lbo0p1vhaeio-fill" transform="translate(1010, 230)">
	<g id="tx__18lbo0p1vhaeio-fill">
		<g>
			<g enable-background="new    ">
				<path fill="#FFFFFF" d="M-966.164-74.164h-5.435v4.351h-1.128v-4.351h-5.361v-0.938h11.924V-74.164z M-975.421-80.492h6.563
					v-1.802h1.157v5.61h-8.862v-5.61h1.143V-80.492z M-968.859-77.621v-1.934h-6.563v1.934H-968.859z"/>
				<path fill="#FFFFFF" d="M-953.244-75.585h-5.376v1.538h3.926v4.058h-8.965v-4.058h3.911v-1.538h-5.361v-0.952h11.865V-75.585z
					 M-954.372-81.459h-2.007v2.739h1.963v0.952h-9.536v-0.952h1.963v-2.739h-2.007v-0.952h9.624V-81.459z M-962.516-70.927h6.694
					v-2.212h-6.694V-70.927z M-957.521-78.72v-2.739h-3.325v2.739H-957.521z"/>
				<path fill="#FFFFFF" d="M-947.75-75.307l-0.483-0.908c3.113-0.879,5.098-2.607,5.347-4.819h-4.673v-0.952h5.903
					C-941.671-78.72-944-76.376-947.75-75.307z M-937.584-69.989h-8.452v-4.849h8.452V-69.989z M-944.923-70.927h6.196v-2.988
					h-6.196V-70.927z M-937.584-75.395h-1.157V-78.5h-2.886v-0.967h2.886v-3.354h1.157V-75.395z"/>
				<path fill="#FFFFFF" d="M-927.682-73.769l-0.703,0.923c-1.436-0.754-2.637-2.293-3.208-4.102
					c-0.586,1.926-1.816,3.566-3.281,4.351l-0.732-0.923c1.904-0.938,3.413-3.442,3.428-5.815v-2.373h1.128v2.373
					C-931.051-77.035-929.528-74.677-927.682-73.769z M-925.338-77.548h2.183v0.996h-2.183v6.738h-1.143v-13.022h1.143V-77.548z"/>
				<path fill="#FFFFFF" d="M-921.457-67.997h-1.084l0.806-3.984h1.421L-921.457-67.997z"/>
				<path fill="#FFFFFF" d="M-902.978-75.585h-5.376v1.538h3.926v4.058h-8.965v-4.058h3.911v-1.538h-5.361v-0.952h11.865V-75.585z
					 M-904.105-81.459h-2.007v2.739h1.963v0.952h-9.536v-0.952h1.963v-2.739h-2.007v-0.952h9.624V-81.459z M-912.25-70.927h6.694
					v-2.212h-6.694V-70.927z M-907.255-78.72v-2.739h-3.325v2.739H-907.255z"/>
				<path fill="#FFFFFF" d="M-893.837-77.226l-0.571,0.894c-1.538-0.483-2.762-1.516-3.34-2.856
					c-0.564,1.465-1.809,2.607-3.398,3.135l-0.542-0.908c1.948-0.645,3.34-2.241,3.34-4.028v-0.146h-3.047v-0.952h7.207v0.952
					h-3.003v0.146C-897.191-79.291-895.8-77.812-893.837-77.226z M-891.127-72.333h-7.31v1.45h7.778v0.923h-8.906v-3.237h7.295
					v-1.333h-7.324v-0.908h8.467V-72.333z M-891.142-76.068h-1.128v-6.768h1.128V-76.068z"/>
				<path fill="#FFFFFF" d="M-881.283-76.142c1.443-0.059,2.938-0.161,4.292-0.352l0.073,0.85c-2.725,0.469-5.874,0.527-8.188,0.527
					l-0.117-0.952c0.843-0.008,1.794-0.015,2.798-0.044v-2.827h1.143V-76.142z M-877.929-81.137
					c-0.015,0.85-0.015,2.153-0.337,3.853l-1.157-0.088c0.315-1.56,0.345-2.666,0.366-3.486h-5.361v-0.967h6.489V-81.137z
					 M-874.516-70.092h-8.701v-3.823h1.157v2.856h7.544V-70.092z M-874.94-78.588h1.904v0.981h-1.904v4.57h-1.172v-9.8h1.172
					V-78.588z"/>
				<path fill="#FFFFFF" d="M-865.39-76.991h-4.863v3.076c2.161,0,4.087-0.095,6.416-0.469l0.117,0.967
					c-2.402,0.381-4.38,0.469-6.621,0.469h-1.084v-4.98h4.878v-2.739h-4.907v-0.952h6.064V-76.991z M-861.435-69.784h-1.143v-13.052
					h1.143V-69.784z"/>
				<path fill="#FFFFFF" d="M-858.227-67.997h-1.084l0.806-3.984h1.421L-858.227-67.997z"/>
			</g>
			<g enable-background="new    ">
				<path fill="#FFFFFF" d="M-947.539-53.483h-11.924v-0.967h5.376v-3.164h1.157v3.164h5.391V-53.483z M-948.11-58.127l-0.469,0.908
					c-1.992-0.389-4.094-1.655-4.922-3.472c-0.842,1.823-2.937,3.12-4.893,3.53l-0.483-0.923c2.197-0.381,4.761-2.197,4.761-4.277
					v-0.322h-4.365v-0.967h9.917v0.967h-4.365v0.322C-952.93-60.28-950.352-58.493-948.11-58.127z"/>
				<path fill="#FFFFFF" d="M-939.893-60.676h-4.805v1.772c2.329-0.015,4.072-0.059,6.182-0.41l0.132,0.952
					c-2.183,0.352-3.97,0.41-6.372,0.425h-1.055v-3.647h4.775v-1.655h-4.805v-0.952h5.947V-60.676z M-943.057-55.461h6.167v-1.553
					h1.143v5.024h-8.467v-5.024h1.157V-55.461z M-936.89-52.927v-1.611h-6.167v1.611H-936.89z M-935.747-57.673h-1.143v-7.148h1.143
					V-57.673z"/>
				<path fill="#FFFFFF" d="M-921.113-58.229l0.073,0.864c-1.245,0.227-2.542,0.366-3.794,0.439v4.717h-1.143v-4.644
					c-1.326,0.059-2.578,0.065-3.662,0.073l-0.161-0.981C-927.354-57.761-924.014-57.805-921.113-58.229z M-922.139-61.54
					c0,1.582-1.392,2.681-3.34,2.666c-1.948,0.015-3.34-1.084-3.34-2.666c0-1.597,1.392-2.666,3.34-2.651
					C-923.53-64.206-922.139-63.137-922.139-61.54z M-927.69-61.54c-0.015,1.025,0.908,1.729,2.212,1.714
					c1.318,0.015,2.241-0.688,2.241-1.714c0-1.011-0.923-1.729-2.241-1.714C-926.782-63.269-927.705-62.551-927.69-61.54z
					 M-919.033-51.799h-1.128v-13.022h1.128V-51.799z"/>
				<path fill="#FFFFFF" d="M-908.516-55.461l-0.645,0.894c-1.502-0.667-2.775-2.08-3.384-3.809
					c-0.586,1.831-1.853,3.333-3.354,4.043l-0.645-0.894c1.934-0.879,3.413-3.076,3.413-5.361v-1.04h-3.062v-0.938h3.047v-2.021
					h1.143v2.021h3.032v0.938h-3.032v1.04C-912.002-58.405-910.479-56.296-908.516-55.461z M-906.069-51.813h-1.157v-13.022h1.157
					V-51.813z"/>
				<path fill="#FFFFFF" d="M-888.154-53.483h-11.924v-0.952h5.361v-2.813h-3.955v-6.665h1.157v2.358h6.768v-2.358h1.128v6.665
					h-3.97v2.813h5.435V-53.483z M-890.747-58.186v-2.432h-6.768v2.432H-890.747z"/>
				<path fill="#FFFFFF" d="M-879.38-58.479l-0.601,0.923c-1.465-0.527-2.6-1.618-3.149-2.974c-0.571,1.531-1.78,2.754-3.325,3.34
					l-0.601-0.923c1.934-0.703,3.311-2.461,3.311-4.321v-0.483h-2.944v-0.967h7.017v0.967h-2.915v0.469
					C-882.588-60.749-881.284-59.138-879.38-58.479z M-876.274-54.245c0,1.538-1.655,2.417-4.365,2.432
					c-2.71-0.015-4.365-0.894-4.365-2.432s1.655-2.417,4.365-2.417S-876.274-55.783-876.274-54.245z M-883.862-54.245
					c-0.015,0.938,1.23,1.509,3.223,1.509s3.223-0.571,3.223-1.509c0-0.952-1.23-1.523-3.223-1.523S-883.877-55.197-883.862-54.245z
					 M-876.318-57.072h-1.157v-3.413h-2.622v-0.952h2.622v-3.398h1.157V-57.072z"/>
			</g>
		</g>
	</g>
</g>
<g id="g-root-cp_1_g-1_5_4oth091vhpv5u-stroke" transform="translate(986, 86)">
	<g id="cp_1_g-1_5_4oth091vhpv5u-stroke">
		<g>
			<path fill="none" stroke="#FFFFFF" stroke-width="2" stroke-linecap="round" stroke-linejoin="round" d="M-973-85
				c-6.627,0-12,5.373-12,12 M-793,35V-73 M-985-73V35 M-973-85h168 M-793-73c0-6.617-5.383-12-12-12"/>
		</g>
	</g>
</g>
<g id="g-root-cp_0_g-0_5_1qeh0m11vhpwjo-stroke" transform="translate(986, 206)">
	<g id="cp_0_g-0_5_1qeh0m11vhpwjo-stroke">
		<g>
			<path fill="none" stroke="#FFFFFF" stroke-width="2" stroke-linecap="round" stroke-linejoin="round" d="M-985-13
				c0,6.627,5.372,12,12,12 M-805-1h-168 M-805-1c6.628,0,12-5.373,12-12 M-793-85v72 M-985-13v-72 M-793-85h-192"/>
		</g>
	</g>
</g>
<g id="g-root-cp_1-5_cell-1-5_1d3mzbt1vhpuyu-stroke" transform="translate(998, 218)">
	<g id="cp_1-5_cell-1-5_1d3mzbt1vhpuyu-stroke">
		<g>
			<path fill="none" stroke="#484848" stroke-width="2" stroke-linecap="round" stroke-linejoin="round" d="M-985-73v-6
				c0-3.313,2.687-6,6-6h6 M-817-73v36 M-985-37v-36 M-973-85h144 M-985-37v6c0,3.313,2.687,6,6,6h6 M-817-73v-6
				c0-3.313-2.687-6-6-6h-6 M-829-25h-144 M-817-37v6c0,3.313-2.687,6-6,6h-6"/>
		</g>
	</g>
</g>
<g id="g-root-ic_qual_18n73a11vh8zda-stroke" transform="translate(1058, 110)">
	<g id="ic_qual_18n73a11vh8zda-stroke">
		<g>
			<path fill="none" stroke="#FFFFFF" stroke-width="2" stroke-linecap="round" stroke-linejoin="round" d="M-949.7-38.6
				c-5.8-17.2-8.6-22.8-12.2-22.8v4.8l-8.399,4.2c-0.8,0.4-1.4,1.2-1.4,2.2v1c0,2.6,2.2,4.8,4.801,4.8h2.399v5.8 M-964.3-38.4l12-7
				 M-959.9-82.8l2.4,5h4.2c1,0,1.6,1.2,0.8,2l-4,3.8l2.2,5c0.399,1-0.601,2-1.601,1.4l-5.199-3l-5.2,3c-1,0.6-2.2-0.4-1.601-1.4
				l2.2-5l-4-3.8c-0.8-0.8-0.2-2,0.8-2h4.2l2.4-5C-961.5-83.6-960.3-83.6-959.9-82.8z M-974.729-80.4c-0.399,0-0.8,0.2-1,0.6
				l-2.399,5h-4.2c-1,0-1.601,1.2-0.8,2l4,3.8l-2.2,5c-0.4,1,0.6,2,1.6,1.4l5.2-3l1.4,0.8 M-947.28-80.4c0.4,0,0.801,0.2,1,0.6
				l2.4,5h4.2c1,0,1.6,1.2,0.8,2l-4,3.8l2.2,5c0.399,1-0.601,2-1.601,1.4l-5.199-3l-1.4,0.8"/>
		</g>
	</g>
</g>
<g>
</g>
<g>
</g>
<g>
</g>
<g>
</g>
<g>
</g>
<g>
</g>
<g>
</g>
<g>
</g>
<g>
</g>
<g>
</g>
<g>
</g>
<g>
</g>
<g>
</g>
<g>
</g>
<g>
</g>
</svg>
