<?xml version="1.0" encoding="utf-8"?>
<!-- Generator: Adobe Illustrator 16.0.0, SVG Export Plug-In . SVG Version: 6.00 Build 0)  -->
<!DOCTYPE svg PUBLIC "-//W3C//DTD SVG 1.1//EN" "http://www.w3.org/Graphics/SVG/1.1/DTD/svg11.dtd">
<svg version="1.1" id="Layer_1" xmlns="http://www.w3.org/2000/svg" xmlns:xlink="http://www.w3.org/1999/xlink" x="0px" y="0px"
	 width="194px" height="206px" viewBox="0 0 194 206" enable-background="new 0 0 194 206" xml:space="preserve">
<g id="g-root-cp_1_g-1_3_74jmh1vhpw5q-fill" transform="translate(554, 86)">
	<g>
		<g id="cp_1_g-1_3_74jmh1vhpw5q-fill_8_">
			<g>
				<path fill="#1B6355" d="M-541-73h-12c0-6.604,5.396-12,12-12V-73z M-541-85v12h168v-12H-541z M-361-73h-12v-12
					C-366.384-85-361-79.616-361-73z M-361,35h-192V-73h192V35z"/>
			</g>
		</g>
	</g>
</g>
<g id="g-root-cp_0_g-0_3_1qd82ft1vhpudc-fill" transform="translate(554, 206)">
	<g id="cp_0_g-0_3_1qd82ft1vhpudc-fill">
		<g>
			<path fill="#666666" d="M-553-13h12v12C-547.627-1-553-6.373-553-13z M-373-1v-12h-168v12H-373z M-361-13c0,6.627-5.373,12-12,12
				v-12H-361z M-361-85h-192v72h192V-85z"/>
		</g>
	</g>
</g>
<g id="g-root-tx__18n73a11vh7lzd-fill" transform="translate(608, 170)">
	<g id="tx__18n73a11vh7lzd-fill">
		<g>
			<g enable-background="new    ">
				<path fill="#FFFFFF" d="M-533.688-61.566h-15.898v-1.289h7.148v-3.281h-5.156v-5.352h10.391v-2.734h-10.43v-1.27h11.934v5.254
					h-10.371v2.832h10.781v1.27h-5.645v3.281h7.246V-61.566z"/>
				<path fill="#FFFFFF" d="M-528.669-74.359h8.594v-1.953h1.523v6.367h-5.078v1.992h7.148v1.23h-15.82v-1.23h7.168v-1.992h-5.059
					v-6.367h1.523V-74.359z M-517.692-60.688l-0.586,1.191c-2.666-0.439-5.078-1.65-6.113-3.516
					c-1.045,1.865-3.457,3.076-6.094,3.516l-0.586-1.191c3.125-0.43,5.898-2.129,5.898-4.395v-0.488h1.543v0.488
					C-523.63-62.816-520.856-61.117-517.692-60.688z M-520.075-71.156v-1.992h-8.594v1.992H-520.075z"/>
				<path fill="#FFFFFF" d="M-500.544-71.273c-0.02,2.52-1.973,4.277-4.57,4.277s-4.57-1.758-4.551-4.277
					c-0.02-2.52,1.953-4.277,4.551-4.277S-500.564-73.793-500.544-71.273z M-508.162-71.273c-0.02,1.719,1.328,2.93,3.047,2.93
					c1.758,0,3.066-1.211,3.066-2.93s-1.309-2.93-3.066-2.93C-506.833-74.203-508.181-72.992-508.162-71.273z M-495.623-59.789
					h-11.66v-5.508h1.504v4.219h10.156V-59.789z M-496.423-71.488h2.617v1.289h-2.617v6.23h-1.523v-12.813h1.523V-71.488z"/>
				<path fill="#FFFFFF" d="M-490.31-65.277c1.729-0.02,3.564-0.137,5.684-0.566l0.195,1.367c-2.422,0.43-4.414,0.566-6.328,0.566
					h-1.074v-10.742h1.523V-65.277z M-477.888-59.418h-1.504v-8.984h-2.5v8.086h-1.445v-16.074h1.445v6.68h2.5v-7.07h1.504V-59.418z
					"/>
			</g>
		</g>
	</g>
</g>
<g id="g-root-tx__qwjjvd1vh7l6q-fill" transform="translate(584, 230)">
	<g id="tx__qwjjvd1vh7l6q-fill">
		<g>
			<g enable-background="new    ">
				<path fill="#FFFFFF" d="M-538.669-72.425h-11.924v-0.967h5.361v-2.461h-3.867v-4.014h7.793v-2.051h-7.822v-0.952h8.95v3.94
					h-7.778v2.124h8.086v0.952h-4.233v2.461h5.435V-72.425z"/>
				<path fill="#FFFFFF" d="M-534.904-82.02h6.445v-1.465h1.143v4.775h-3.809v1.494h5.361v0.923h-11.865v-0.923h5.376v-1.494h-3.794
					v-4.775h1.143V-82.02z M-526.672-71.766l-0.439,0.894c-2-0.329-3.809-1.237-4.585-2.637c-0.784,1.399-2.593,2.308-4.57,2.637
					l-0.439-0.894c2.344-0.322,4.424-1.597,4.424-3.296v-0.366h1.157v0.366C-531.125-73.362-529.045-72.088-526.672-71.766z
					 M-528.459-79.617v-1.494h-6.445v1.494H-528.459z"/>
				<path fill="#FFFFFF" d="M-515.993-75.076l0.088,0.85c-2.974,0.557-6.182,0.571-8.525,0.571l-0.161-0.981
					C-522.189-74.637-518.879-74.651-515.993-75.076z M-516.901-79.822c0,1.816-1.45,3.062-3.501,3.062s-3.53-1.245-3.516-3.062
					c-0.015-1.816,1.465-3.062,3.516-3.062S-516.901-81.639-516.901-79.822z M-522.79-79.822c-0.015,1.216,0.996,2.051,2.388,2.051
					c1.377,0,2.373-0.835,2.373-2.051s-0.996-2.051-2.373-2.051C-521.794-81.873-522.805-81.038-522.79-79.822z M-513.986-70.784
					h-1.143v-13.052h1.143V-70.784z"/>
				<path fill="#FFFFFF" d="M-496.057-76.438h-5.273v2.695h-1.143v-2.695h-5.464v-0.952h11.88V-76.438z M-497.316-71.092h-9.097
					V-74.9h1.143v2.842h7.954V-71.092z M-497.404-78.929h-8.892v-4.409h1.143v3.472h7.749V-78.929z"/>
				<path fill="#FFFFFF" d="M-480.412-76.16h-1.158v-1.875h-3.354c-0.608,0.74-1.568,1.18-2.696,1.172
					c-1.948,0.015-3.384-1.274-3.384-3.12c0-1.816,1.436-3.105,3.384-3.105c1.121,0,2.081,0.439,2.696,1.172h3.354v-1.919h1.158
					V-76.16z M-489.904-79.983c0,1.274,0.952,2.153,2.285,2.153c1.274,0,2.256-0.879,2.256-2.153c0-1.23-0.982-2.124-2.256-2.124
					C-488.952-82.107-489.904-81.214-489.904-79.983z M-480.412-70.813h-1.158v-3.706h-7.602v-0.923h8.76V-70.813z M-481.57-78.987
					v-1.978h-2.842c0.104,0.308,0.162,0.63,0.162,0.981s-0.059,0.688-0.162,0.996H-481.57z"/>
				<path fill="#FFFFFF" d="M-470.451-81.727h-7.764v-0.923h3.311v-1.318h1.143v1.318h3.311V-81.727z M-471.199-79.002
					c-0.014,1.318-1.244,2.139-3.135,2.139c-1.904,0-3.148-0.82-3.135-2.139c-0.014-1.318,1.23-2.139,3.135-2.139
					C-472.443-81.141-471.212-80.32-471.199-79.002z M-476.369-79.002c-0.016,0.791,0.805,1.274,2.035,1.274
					s2.037-0.483,2.051-1.274c-0.014-0.776-0.82-1.289-2.051-1.289S-476.384-79.778-476.369-79.002z M-468.064-73.113h-7.148v1.274
					h7.633v0.879h-8.76v-3.003h7.133v-1.172h-7.162v-0.864h8.305V-73.113z M-468.064-80.716h1.979v0.952h-1.979v3.091h-1.143v-7.207
					h1.143V-80.716z"/>
				<path fill="#FFFFFF" d="M-464.285-68.997h-1.084l0.807-3.984h1.42L-464.285-68.997z"/>
				<path fill="#FFFFFF" d="M-449.013-77.229l0.073,0.864c-1.245,0.227-2.542,0.366-3.794,0.439v4.717h-1.143v-4.644
					c-1.326,0.059-2.578,0.065-3.662,0.073l-0.161-0.981C-455.253-76.761-451.914-76.805-449.013-77.229z M-450.039-80.54
					c0,1.582-1.392,2.681-3.34,2.666c-1.948,0.015-3.34-1.084-3.34-2.666c0-1.597,1.392-2.666,3.34-2.651
					C-451.43-83.206-450.039-82.137-450.039-80.54z M-455.59-80.54c-0.015,1.025,0.908,1.729,2.212,1.714
					c1.318,0.015,2.241-0.688,2.241-1.714c0-1.011-0.923-1.729-2.241-1.714C-454.682-82.269-455.605-81.551-455.59-80.54z
					 M-446.933-70.799h-1.128v-13.022h1.128V-70.799z"/>
				<path fill="#FFFFFF" d="M-436.416-74.461l-0.645,0.894c-1.502-0.667-2.775-2.08-3.384-3.809
					c-0.586,1.831-1.853,3.333-3.354,4.043l-0.645-0.894c1.934-0.879,3.413-3.076,3.413-5.361v-1.04h-3.062v-0.938h3.047v-2.021
					h1.143v2.021h3.032v0.938h-3.032v1.04C-439.902-77.405-438.378-75.296-436.416-74.461z M-433.969-70.813h-1.157v-13.022h1.157
					V-70.813z"/>
			</g>
			<g enable-background="new    ">
				<path fill="#FFFFFF" d="M-512.139-61.72c0,1.904-1.465,3.208-3.413,3.208s-3.413-1.304-3.413-3.208
					c0-1.875,1.465-3.193,3.413-3.193S-512.139-63.595-512.139-61.72z M-517.837-61.72c-0.015,1.304,0.967,2.197,2.285,2.197
					c1.289,0,2.285-0.894,2.285-2.197c0-1.274-0.996-2.183-2.285-2.183C-516.87-63.902-517.852-62.994-517.837-61.72z
					 M-508.11-53.092h-8.818v-4.175h1.143v3.208h7.676V-53.092z M-508.521-56.3h-1.143v-9.521h1.143V-56.3z"/>
				<path fill="#FFFFFF" d="M-498.398-59.684l-0.586,0.908c-1.509-0.549-2.703-1.678-3.281-3.12
					c-0.579,1.546-1.787,2.761-3.311,3.354l-0.601-0.908c1.948-0.718,3.311-2.534,3.311-4.497v-1.245h1.172v1.245
					C-501.709-62.042-500.332-60.357-498.398-59.684z M-495.557-52.813h-1.143v-3.574h-7.617v-0.952h8.76V-52.813z M-495.557-57.984
					h-1.143v-7.852h1.143V-57.984z"/>
				<path fill="#FFFFFF" d="M-492.349-50.997h-1.084l0.806-3.984h1.421L-492.349-50.997z"/>
				<path fill="#FFFFFF" d="M-473.87-56.988h-5.376v4.204h-1.128v-4.204h-5.361v-0.967h11.865V-56.988z M-474.631-59.889
					l-0.425,0.923c-2.014-0.308-3.911-1.318-4.731-2.739c-0.835,1.436-2.761,2.432-4.775,2.739l-0.425-0.923
					c2.314-0.322,4.614-1.729,4.614-3.369v-0.015h-4.204v-0.938h4.204v-1.626h1.128v1.626h4.233v0.938h-4.219v0.015
					C-479.231-61.632-476.96-60.211-474.631-59.889z"/>
				<path fill="#FFFFFF" d="M-465.037-59.464l-0.601,0.908c-1.472-0.527-2.607-1.618-3.164-2.959
					c-0.563,1.501-1.765,2.702-3.311,3.267l-0.601-0.908c1.919-0.688,3.311-2.432,3.311-4.263v-0.571h-2.944v-0.938h7.017v0.938
					h-2.915v0.557C-468.245-61.734-466.941-60.123-465.037-59.464z M-461.975-52.813h-1.157v-3.574h-7.603v-0.952h8.76V-52.813z
					 M-461.975-58.028h-1.157v-3.428h-2.607v-0.967h2.607v-3.413h1.157V-58.028z"/>
			</g>
		</g>
	</g>
</g>
<g id="g-root-cp_1_g-1_3_74jmh1vhpw5q-stroke" transform="translate(554, 86)">
	<g id="cp_1_g-1_3_74jmh1vhpw5q-stroke">
		<g>
			<path fill="none" stroke="#FFFFFF" stroke-width="2" stroke-linecap="round" stroke-linejoin="round" d="M-541-85
				c-6.627,0-12,5.373-12,12 M-361,35V-73 M-553-73V35 M-541-85h168 M-361-73c0-6.617-5.383-12-12-12"/>
		</g>
	</g>
</g>
<g id="g-root-cp_0_g-0_3_1qd82ft1vhpudc-stroke" transform="translate(554, 206)">
	<g id="cp_0_g-0_3_1qd82ft1vhpudc-stroke">
		<g>
			<path fill="none" stroke="#FFFFFF" stroke-width="2" stroke-linecap="round" stroke-linejoin="round" d="M-553-13
				c0,6.627,5.373,12,12,12 M-373-1h-168 M-373-1c6.627,0,12-5.373,12-12 M-361-85v72 M-553-13v-72 M-361-85h-192"/>
		</g>
	</g>
</g>
<g id="g-root-cp_1-3_cell-1-3_1d1rk2h1vhpvya-stroke" transform="translate(566, 218)">
	<g id="cp_1-3_cell-1-3_1d1rk2h1vhpvya-stroke">
		<g>
			<path fill="none" stroke="#484848" stroke-width="2" stroke-linecap="round" stroke-linejoin="round" d="M-553-73v-6
				c0-3.313,2.687-6,6-6h6 M-385-73v36 M-553-37v-36 M-541-85h144 M-553-37v6c0,3.313,2.687,6,6,6h6 M-385-73v-6
				c0-3.313-2.688-6-6-6h-6 M-397-25h-144 M-385-37v6c0,3.313-2.688,6-6,6h-6"/>
		</g>
	</g>
</g>
<g id="g-root-ic_navi_i0wjmh1vh68lk-stroke" transform="translate(626, 110)">
	<g id="ic_navi_i0wjmh1vh68lk-stroke">
		<g>
			<path fill="none" stroke="#FFFFFF" stroke-width="2" stroke-linecap="round" stroke-linejoin="round" d="M-528.078-40.152
				c0.002,0.57-0.223,1.117-0.625,1.521C-529.104-38.227-529.65-38-530.22-38h-19.286c-0.57,0-1.116-0.227-1.519-0.631
				c-0.401-0.404-0.626-0.951-0.624-1.521v-5.358c-0.055-4.247,2.179-8.195,5.849-10.335c3.669-2.14,8.205-2.14,11.874,0
				s5.903,6.088,5.848,10.335V-40.152z M-544.362-50.01c0,0.276,0.225,0.5,0.5,0.5c0.276,0,0.5-0.224,0.5-0.5
				c0-0.276-0.224-0.5-0.5-0.5C-544.138-50.51-544.362-50.286-544.362-50.01 M-536.362-50.022c0,0.276,0.225,0.5,0.5,0.5
				c0.276,0,0.5-0.224,0.5-0.5c0-0.276-0.224-0.5-0.5-0.5C-536.138-50.522-536.362-50.298-536.362-50.022 M-539.862-57.296v-4.286
				 M-543.076-64.796c0,1.775,1.439,3.214,3.214,3.214c1.775,0,3.214-1.439,3.214-3.214c0-1.775-1.438-3.214-3.214-3.214
				C-541.637-68.01-543.076-66.571-543.076-64.796 M-551.648-43.38h23.571 M-519.185-57.568c0.121,0.471,0.518,0.821,1,0.886
				c0.461,0.068,0.91-0.182,1.096-0.61l10.656-25.108c0.17-0.428,0.064-0.916-0.266-1.236c-0.32-0.332-0.809-0.436-1.236-0.264
				l-25.115,10.66c-0.425,0.188-0.671,0.637-0.601,1.096c0.07,0.478,0.421,0.868,0.889,0.988l10.854,2.734L-519.185-57.568z"/>
		</g>
	</g>
</g>
<g>
</g>
<g>
</g>
<g>
</g>
<g>
</g>
<g>
</g>
<g>
</g>
<g>
</g>
<g>
</g>
<g>
</g>
<g>
</g>
<g>
</g>
<g>
</g>
<g>
</g>
<g>
</g>
<g>
</g>
</svg>
