<?xml version="1.0" encoding="UTF-8"?>
<svg id="_레이어_2" xmlns="http://www.w3.org/2000/svg" version="1.1" viewBox="0 0 194 206">
  <!-- Generator: Adobe Illustrator 29.3.1, SVG Export Plug-In . SVG Version: 2.1.0 Build 151)  -->
  <defs>
    <style>
      .st0 {
        fill: #fff;
      }

      .st1 {
        stroke: #fff;
      }

      .st1, .st2 {
        fill: none;
        stroke-linecap: round;
        stroke-linejoin: round;
        stroke-width: 2px;
      }

      .st3 {
        isolation: isolate;
      }

      .st4 {
        fill: #666;
      }

      .st4, .st5 {
        fill-rule: evenodd;
      }

      .st2 {
        stroke: #484848;
      }

      .st5 {
        fill: #e55753;
      }
    </style>
  </defs>
  <g id="_레이어_1-2">
    <g id="g-root-cp_1_g-1_3_74jmh1vhpw5q-fill">
      <g id="cp_1_g-1_3_74jmh1vhpw5q-fill">
        <path class="st5" d="M13,13H1C1,6.4,6.4,1,13,1v12ZM13,1v12h168V1H13ZM193,13h-12V1c6.6,0,12,5.4,12,12ZM193,121H1V13h192v108Z"/>
      </g>
    </g>
    <g id="g-root-cp_0_g-0_3_1qd82ft1vhpudc-fill">
      <g id="cp_0_g-0_3_1qd82ft1vhpudc-fill">
        <path class="st4" d="M1,193h12v12c-6.6,0-12-5.4-12-12ZM181,205v-12H13v12h168ZM193,193c0,6.6-5.4,12-12,12v-12h12ZM193,121H1v72h192v-72Z"/>
      </g>
    </g>
    <g id="g-root-tx_18n73a11vh7lzd-fill">
      <g id="tx_18n73a11vh7lzd-fill">
        <g class="st3">
          <g class="st3">
            <g class="st3">
              <path class="st0" d="M74.5,108.8h-16.3v-2.1h6.9v-2.7h-5v-6h10.1v-2h-10.1v-2h12.5v5.9h-10v2h10.4v2h-5.5v2.7h6.9v2.1Z"/>
              <path class="st0" d="M80.1,95.1h7.1v-1.5h2.5v6.7h-4.8v1.4h6.9v2h-16.2v-2h6.9v-1.4h-4.8v-6.7h2.5v1.5ZM85.5,106.6c.4.5,1.1,1,1.9,1.4s1.9.7,3.2.8l-.9,1.9c-1.5-.2-2.7-.5-3.8-1.1s-1.9-1.2-2.4-2c-.6.8-1.4,1.5-2.4,2s-2.3.9-3.7,1.1l-.9-1.9c1.2-.1,2.3-.4,3.1-.8s1.5-.9,1.9-1.4.6-1.1.7-1.7v-.3h2.5v.3c0,.6.2,1.2.6,1.7ZM87.2,98.3v-1.4h-7.1v1.4h7.1Z"/>
              <path class="st0" d="M104.9,94.8c.7.4,1.3.9,1.7,1.6.4.7.6,1.5.6,2.3s-.2,1.6-.6,2.3c-.4.7-1,1.2-1.7,1.6-.7.4-1.6.6-2.5.6s-1.7-.2-2.5-.6-1.3-.9-1.8-1.6c-.4-.7-.6-1.5-.6-2.3s.2-1.6.6-2.3,1-1.2,1.8-1.6c.7-.4,1.6-.6,2.5-.6s1.7.2,2.5.6ZM101.2,96.6c-.4.2-.7.5-.9.8s-.3.8-.3,1.3c0,.5,0,.9.3,1.2s.5.6.9.8.8.3,1.2.3.9,0,1.2-.3c.4-.2.7-.5.9-.8.2-.4.3-.8.3-1.2,0-.5-.1-.9-.3-1.3-.2-.4-.5-.6-.9-.8-.4-.2-.8-.3-1.2-.3-.5,0-.9,0-1.2.3ZM112.2,110.5h-12.2v-5.9h2.5v3.9h9.7v2ZM111.5,98.1h2.4v2.1h-2.4v5.8h-2.5v-12.9h2.5v5.1Z"/>
              <path class="st0" d="M117.9,104.3c1.7,0,3.2-.2,4.7-.5l.3,2.1c-2,.4-4.1.5-6.2.5h-1.2v-11.5h2.5v9.3ZM130,110.8h-2.4v-8.9h-1.7v8h-2.3v-16.6h2.3v6.6h1.7v-6.9h2.4v17.8Z"/>
            </g>
          </g>
        </g>
      </g>
    </g>
    <g id="g-root-tx_qwjjvd1vh7l6q-fill">
      <g id="tx_qwjjvd1vh7l6q-fill">
        <g class="st3">
          <g class="st3">
            <g class="st3">
              <path class="st0" d="M48.1,157.8h-11.9v-1h5.4v-2.5h-3.9v-4h7.8v-2.1h-7.8v-1h9v3.9h-7.8v2.1h8.1v1h-4.2v2.5h5.4v1Z"/>
              <path class="st0" d="M51.9,148.2h6.4v-1.5h1.1v4.8h-3.8v1.5h5.4v.9h-11.9v-.9h5.4v-1.5h-3.8v-4.8h1.1v1.5ZM56.3,156.7c.4.5.9.8,1.6,1.2.7.3,1.4.5,2.2.6l-.4.9c-1-.2-2-.5-2.8-.9s-1.4-1-1.8-1.7c-.4.7-1,1.2-1.8,1.7-.8.5-1.7.8-2.8.9l-.4-.9c.8-.1,1.5-.3,2.2-.6.7-.3,1.2-.7,1.6-1.2.4-.5.6-1,.6-1.5v-.4h1.2v.4c0,.5.2,1.1.6,1.5ZM58.4,150.6v-1.5h-6.4v1.5h6.4Z"/>
              <path class="st0" d="M66.8,155.5c1.4,0,2.7-.2,4-.4v.8c-1.2.2-2.6.4-3.9.5s-2.9.1-4.5.1l-.2-1c1.7,0,3.2,0,4.6,0ZM68.2,147.7c.5.3.9.6,1.2,1.1.3.5.4,1,.4,1.6s-.1,1.1-.4,1.6-.7.8-1.2,1.1-1.1.4-1.8.4-1.3-.1-1.8-.4c-.5-.3-1-.6-1.3-1.1-.3-.5-.4-1-.4-1.6,0-.6.1-1.1.4-1.6.3-.5.7-.8,1.3-1.1.5-.3,1.1-.4,1.8-.4s1.3.1,1.8.4ZM65.2,148.6c-.4.2-.6.4-.9.7-.2.3-.3.7-.3,1.1,0,.4,0,.8.3,1.1.2.3.5.6.9.7.4.2.8.3,1.2.3s.9,0,1.2-.3c.4-.2.6-.4.8-.7.2-.3.3-.7.3-1.1s-.1-.8-.3-1.1c-.2-.3-.5-.6-.8-.7-.4-.2-.8-.3-1.2-.3s-.9,0-1.2.3ZM72.8,159.4h-1.1v-13.1h1.1v13.1Z"/>
              <path class="st0" d="M90.8,153.8h-5.3v2.7h-1.1v-2.7h-5.5v-1h11.9v1ZM89.5,159.1h-9.1v-3.8h1.1v2.8h8v1ZM89.4,151.3h-8.9v-4.4h1.1v3.5h7.7v.9Z"/>
              <path class="st0" d="M106.4,154.1h-1.2v-1.9h-3.4c-.3.4-.7.7-1.2.9-.5.2-1,.3-1.6.3s-1.2-.1-1.7-.4c-.5-.3-.9-.6-1.2-1.1s-.4-1-.4-1.6.1-1.1.4-1.6c.3-.5.7-.8,1.2-1.1.5-.3,1.1-.4,1.7-.4s1.1.1,1.5.3.8.5,1.2.9h3.4v-1.9h1.2v7.7ZM98,148.4c-.3.2-.6.4-.8.8s-.3.7-.3,1.1,0,.8.3,1.1c.2.3.5.6.8.8.3.2.7.3,1.2.3s.8,0,1.1-.3c.3-.2.6-.4.8-.8.2-.3.3-.7.3-1.1s0-.8-.3-1.1c-.2-.3-.5-.6-.8-.8-.3-.2-.7-.3-1.1-.3s-.8,0-1.2.3ZM106.4,159.4h-1.2v-3.7h-7.6v-.9h8.8v4.6ZM105.2,151.2v-2h-2.8c.1.3.2.6.2,1s0,.7-.2,1h2.8Z"/>
              <path class="st0" d="M116.4,148.5h-7.8v-.9h3.3v-1.3h1.1v1.3h3.3v.9ZM114.1,149.3c.5.2.8.4,1.1.7s.4.7.4,1.1c0,.4-.1.8-.4,1.1s-.6.6-1.1.7c-.5.2-1,.3-1.6.3s-1.2,0-1.7-.3c-.5-.2-.8-.4-1.1-.7-.3-.3-.4-.7-.4-1.1,0-.4.1-.8.4-1.1.3-.3.6-.6,1.1-.7.5-.2,1-.3,1.7-.3s1.2,0,1.6.3ZM111.4,150.1c-.3.1-.5.3-.7.5-.2.2-.2.4-.2.7,0,.3,0,.5.2.7.2.2.4.3.7.4.3.1.7.2,1.1.2.6,0,1.1-.1,1.5-.3.4-.2.6-.5.6-.9,0-.3,0-.5-.3-.7-.2-.2-.4-.3-.7-.5s-.7-.2-1.1-.2-.8,0-1.1.2ZM118.7,157.1h-7.1v1.3h7.6v.9h-8.8v-3h7.1v-1.2h-7.2v-.9h8.3v2.9ZM118.7,149.5h2v1h-2v3.1h-1.1v-7.2h1.1v3.2Z"/>
            </g>
            <g class="st3">
              <path class="st0" d="M122.5,161.2h-1.1l.8-4h1.4l-1.1,4Z"/>
            </g>
            <g class="st3">
              <path class="st0" d="M133.7,153.4c1.4,0,2.8-.2,4.1-.4v.9c-1.1.2-2.3.4-3.7.4v4.7h-1.1v-4.6c-.9,0-2.1,0-3.7,0l-.2-1c1.6,0,3.1,0,4.6,0ZM135.2,147.4c.5.2.9.5,1.2.9.3.4.4.9.4,1.4s-.1,1-.4,1.4c-.3.4-.7.7-1.2.9-.5.2-1.1.3-1.7.3-.6,0-1.2-.1-1.7-.3-.5-.2-.9-.5-1.2-.9-.3-.4-.4-.9-.4-1.4s.1-1,.4-1.4c.3-.4.7-.7,1.2-.9.5-.2,1.1-.3,1.7-.3.6,0,1.2.1,1.7.3ZM132.3,148.2c-.3.1-.6.3-.8.6-.2.3-.3.6-.3.9,0,.3,0,.6.3.9.2.3.5.5.8.6.3.1.7.2,1.1.2.4,0,.8,0,1.2-.2.3-.1.6-.3.8-.6.2-.3.3-.6.3-.9s0-.6-.3-.9-.5-.5-.8-.6c-.3-.1-.7-.2-1.2-.2-.4,0-.8,0-1.1.2ZM139.9,159.4h-1.1v-13h1.1v13Z"/>
              <path class="st0" d="M147.4,152.7c.3.7.7,1.3,1.3,1.8.5.5,1.1.9,1.8,1.2l-.6.9c-.8-.3-1.4-.8-2-1.5s-1.1-1.4-1.4-2.3c-.3.9-.7,1.7-1.3,2.4-.6.7-1.3,1.2-2,1.6l-.6-.9c.6-.3,1.2-.7,1.7-1.3.5-.6.9-1.2,1.2-1.9.3-.7.4-1.4.4-2.2v-1h-3.1v-.9h3v-2h1.1v2h3v.9h-3v1c0,.7.2,1.4.5,2.1ZM152.8,159.4h-1.2v-13h1.2v13Z"/>
            </g>
          </g>
          <g class="st3">
            <g class="st3">
              <path class="st0" d="M73,165.7c.5.3.9.6,1.2,1.1.3.5.4,1,.4,1.7s-.1,1.2-.4,1.7c-.3.5-.7.9-1.2,1.1-.5.3-1.1.4-1.7.4s-1.2-.1-1.7-.4c-.5-.3-.9-.6-1.2-1.1-.3-.5-.4-1-.4-1.7s.1-1.2.4-1.7c.3-.5.7-.9,1.2-1.1.5-.3,1.1-.4,1.7-.4s1.2.1,1.7.4ZM70.1,166.6c-.3.2-.6.4-.8.8-.2.3-.3.7-.3,1.1,0,.4,0,.8.3,1.1.2.3.5.6.8.8s.7.3,1.2.3.8,0,1.2-.3c.3-.2.6-.4.8-.8.2-.3.3-.7.3-1.1s-.1-.8-.3-1.1-.5-.6-.8-.8c-.3-.2-.7-.3-1.2-.3s-.8,0-1.2.3ZM78.7,177.1h-8.8v-4.2h1.1v3.2h7.7v1ZM78.3,173.9h-1.1v-9.5h1.1v9.5Z"/>
              <path class="st0" d="M85.5,168.1c.3.6.7,1.1,1.2,1.5s1.1.8,1.7,1l-.6.9c-.8-.3-1.4-.7-2-1.2-.6-.5-1-1.2-1.3-1.9-.3.8-.7,1.4-1.3,2-.6.6-1.2,1-2,1.3l-.6-.9c.6-.2,1.2-.6,1.7-1,.5-.5.9-1,1.2-1.6.3-.6.4-1.2.4-1.9v-1.2h1.2v1.2c0,.6.1,1.2.4,1.8ZM91.3,177.4h-1.1v-3.6h-7.6v-1h8.8v4.5ZM91.3,172.2h-1.1v-7.9h1.1v7.9Z"/>
            </g>
            <g class="st3">
              <path class="st0" d="M94.5,179.2h-1.1l.8-4h1.4l-1.1,4Z"/>
            </g>
            <g class="st3">
              <path class="st0" d="M112.9,173.2h-5.4v4.2h-1.1v-4.2h-5.4v-1h11.9v1ZM108.2,168.5c.4.5,1,.9,1.7,1.2s1.5.6,2.2.7l-.4.9c-.7-.1-1.3-.3-1.9-.5-.6-.3-1.2-.6-1.7-.9-.5-.4-.9-.8-1.1-1.3-.3.5-.6.9-1.1,1.3-.5.4-1,.7-1.7.9-.6.3-1.3.4-2,.5l-.4-.9c.8-.1,1.5-.3,2.2-.7.7-.3,1.3-.7,1.7-1.2.4-.5.7-1,.7-1.5h0s-4.2,0-4.2,0v-.9h4.2v-1.6h1.1v1.6h4.2v.9h-4.2c0,.5.2,1,.7,1.5Z"/>
              <path class="st0" d="M119,168.4c.3.5.6,1,1.1,1.4.5.4,1,.7,1.7.9l-.6.9c-.7-.3-1.4-.7-1.9-1.2-.5-.5-1-1.1-1.2-1.8-.3.8-.7,1.4-1.3,2-.6.6-1.2,1-2,1.3l-.6-.9c.6-.2,1.2-.6,1.7-1,.5-.4.9-.9,1.2-1.5.3-.6.4-1.2.4-1.8v-.6h-2.9v-.9h7v.9h-2.9v.6c0,.6.1,1.1.4,1.6ZM124.8,177.4h-1.2v-3.6h-7.6v-1h8.8v4.5ZM124.8,172.2h-1.2v-3.4h-2.6v-1h2.6v-3.4h1.2v7.8Z"/>
            </g>
          </g>
        </g>
      </g>
    </g>
    <g id="g-root-cp_1_g-1_3_74jmh1vhpw5q-stroke">
      <g id="cp_1_g-1_3_74jmh1vhpw5q-stroke">
        <path class="st1" d="M13,1C6.4,1,1,6.4,1,13M193,121V13M1,13v108M13,1h168M193,13c0-6.6-5.4-12-12-12"/>
      </g>
    </g>
    <g id="g-root-cp_0_g-0_3_1qd82ft1vhpudc-stroke">
      <g id="cp_0_g-0_3_1qd82ft1vhpudc-stroke">
        <path class="st1" d="M1,193c0,6.6,5.4,12,12,12M181,205H13M181,205c6.6,0,12-5.4,12-12M193,121v72M1,193v-72M193,121H1"/>
      </g>
    </g>
    <g id="g-root-cp_1-3_cell-1-3_1d1rk2h1vhpvya-stroke">
      <g id="cp_1-3_cell-1-3_1d1rk2h1vhpvya-stroke">
        <path class="st2" d="M13,145v-6c0-3.3,2.7-6,6-6h6M181,145v36M13,181v-36M25,133h144M13,181v6c0,3.3,2.7,6,6,6h6M181,145v-6c0-3.3-2.7-6-6-6h-6M169,193H25M181,181v6c0,3.3-2.7,6-6,6h-6"/>
      </g>
    </g>
    <g id="g-root-ic_navi_i0wjmh1vh68lk-stroke">
      <g id="ic_navi_i0wjmh1vh68lk-stroke">
        <path class="st1" d="M97.9,69.8c0,.6-.2,1.1-.6,1.5-.4.4-.9.6-1.5.6h-19.3c-.6,0-1.1-.2-1.5-.6s-.6-.9-.6-1.5v-5.4c0-4.2,2.2-8.2,5.8-10.3,3.7-2.1,8.2-2.1,11.9,0,3.7,2.1,5.9,6.1,5.8,10.3v5.4ZM81.6,60c0,.3.2.5.5.5s.5-.2.5-.5-.2-.5-.5-.5-.5.2-.5.5M89.6,60c0,.3.2.5.5.5s.5-.2.5-.5-.2-.5-.5-.5-.5.2-.5.5M86.1,52.7v-4.3M82.9,45.2c0,1.8,1.4,3.2,3.2,3.2s3.2-1.4,3.2-3.2-1.4-3.2-3.2-3.2-3.2,1.4-3.2,3.2M74.3,66.6h23.6M106.8,52.4c.1.5.5.8,1,.9.5,0,.9-.2,1.1-.6l10.7-25.1c.2-.4,0-.9-.3-1.2-.3-.3-.8-.4-1.2-.3l-25.1,10.7c-.4.2-.7.6-.6,1.1,0,.5.4.9.9,1l10.8,2.7,2.7,10.9h0Z"/>
      </g>
    </g>
  </g>
</svg>