<?xml version="1.0" encoding="UTF-8"?>
<svg id="_레이어_2" xmlns="http://www.w3.org/2000/svg" version="1.1" viewBox="0 0 194 206">
  <!-- Generator: Adobe Illustrator 29.3.1, SVG Export Plug-In . SVG Version: 2.1.0 Build 151)  -->
  <defs>
    <style>
      .st0 {
        fill: #de8431;
      }

      .st0, .st1 {
        fill-rule: evenodd;
      }

      .st2 {
        fill: #fff;
      }

      .st3 {
        stroke: #fff;
      }

      .st3, .st4 {
        fill: none;
        stroke-linecap: round;
        stroke-linejoin: round;
        stroke-width: 2px;
      }

      .st5 {
        isolation: isolate;
      }

      .st1 {
        fill: #666;
      }

      .st4 {
        stroke: #484848;
      }
    </style>
  </defs>
  <g id="_레이어_1-2">
    <g id="g-root-cp_1_g-1_2_zp23ix1vhpvcw-fill">
      <g id="cp_1_g-1_2_zp23ix1vhpvcw-fill">
        <path class="st0" d="M13,13H1C1,6.4,6.4,1,13,1v12ZM13,1v12h168V1H13ZM193,13h-12V1c6.6,0,12,5.4,12,12ZM193,121H1V13h192v108Z"/>
      </g>
    </g>
    <g id="g-root-cp_0_g-0_2_me828p1vhpts2-fill">
      <g id="cp_0_g-0_2_me828p1vhpts2-fill">
        <path class="st1" d="M.1,193.5h12v12c-6.6,0-12-5.4-12-12ZM180.1,205.5v-12H12.1v12h168ZM192.1,193.5c0,6.6-5.4,12-12,12v-12h12ZM192.1,121.5H.1v72h192v-72Z"/>
      </g>
    </g>
    <g id="g-root-tx_1qeh3rt1vh668e-fill">
      <g id="tx_1qeh3rt1vh668e-fill">
        <g class="st5">
          <g class="st5">
            <g class="st5">
              <path class="st2" d="M53.8,97.7c.3.7.8,1.3,1.4,1.8s1.4.9,2.4,1.2l-1.2,2c-1-.3-1.8-.8-2.5-1.4s-1.3-1.3-1.7-2.2c-.4.9-1,1.7-1.7,2.3s-1.6,1.1-2.6,1.5l-1.2-2c1-.3,1.7-.7,2.4-1.3s1.1-1.2,1.4-1.9.5-1.5.5-2.3v-1.7h2.6v1.7c0,.8.1,1.5.4,2.2ZM61.4,110.8h-2.5v-4.4h-9.7v-2h12.2v6.4ZM61.4,103.6h-2.5v-10.6h2.5v10.6Z"/>
              <path class="st2" d="M78.8,102.2h-2.5v-1.8h-3.3v1.3h-8.5v-7.9h2.5v2.1h3.5v-2.1h2.5v1.5h3.3v-2.3h2.5v9.1ZM78.8,107.6h-9.3v1.1h9.8v2h-12.3v-4.8h9.3v-1h-9.4v-1.9h11.8v4.7ZM70.6,99.7v-2h-3.5v2h3.5ZM76.3,98.5v-1.4h-3.3v1.4h3.3Z"/>
              <path class="st2" d="M95.3,101.6h-8.7v-7.5h8.7v7.5ZM100.9,105.9h-5c0,.4.4.8.8,1.2s1.1.8,1.9,1.1c.8.3,1.8.5,2.9.6l-.8,1.9c-1.4-.1-2.7-.4-3.7-.9s-1.9-1.1-2.4-1.8c-.6.7-1.4,1.3-2.4,1.8s-2.3.8-3.8.9l-.9-1.9c1.1,0,2.1-.3,2.9-.6s1.5-.7,1.9-1.1.7-.8.8-1.3h-5v-1.9h5.1v-1.5h2.5v1.5h5.1v1.9ZM89.1,99.6h3.8v-3.6h-3.8v3.6ZM100.6,103.1h-2.5v-10.1h2.5v10.1Z"/>
              <path class="st2" d="M123.9,104.1h-6.7v2.9h-2.5v-2.9h-7.1v-2h16.3v2ZM122.1,110.5h-12.6v-4.9h2.5v2.9h10.1v2ZM112.2,95.4h7.1v-1.9h2.5v7.3h-12.1v-7.3h2.5v1.9ZM119.3,98.9v-1.6h-7.1v1.6h7.1Z"/>
              <path class="st2" d="M141.2,105.4h-3.8v5.4h-2.5v-5.4h-3.7v5.4h-2.5v-5.4h-3.8v-2h16.3v2ZM139.3,98.7h-9.9v1.4h10.4v2h-12.9v-5.3h9.9v-1.3h-10v-2h12.5v5.2Z"/>
            </g>
          </g>
        </g>
      </g>
    </g>
    <g id="g-root-tx_qr_zs6k491vh668f-fill">
      <g id="tx_qr_zs6k491vh668f-fill">
        <g class="st5">
          <g class="st5">
            <g class="st5">
              <path class="st2" d="M33.8,150.9h3.8v-3.4h1.1v8.8h-6.1v-8.8h1.1v3.4ZM37.6,155.3v-3.5h-3.8v3.5h3.8ZM42.1,151.5h2.2v1h-2.2v6.9h-1.1v-13h1.1v5.1Z"/>
              <path class="st2" d="M56.9,157.6h-11.9v-1h4.7v-3.4h1.1v3.4h6.1v1ZM55.4,148.9v.2c0,.7,0,1.3,0,1.8,0,.5,0,1.1-.2,1.8,0,.7-.2,1.4-.4,2.2h-1.1c.2-1.2.4-2.2.5-3.3l-8,.5-.2-1,8.2-.3c0-.5,0-1.1,0-1.9v-.3h-7.9v-1h9v1.3Z"/>
              <path class="st2" d="M69.9,157.6h-11.9v-1h11.9v1ZM68.5,153.6h-9v-6h8.9v1h-7.7v4.1h7.9v1Z"/>
              <path class="st2" d="M71.8,159.8h-1.1l3.4-12.7h1.2l-3.4,12.7Z"/>
              <path class="st2" d="M85.1,155.5c-.3.8-.8,1.4-1.3,1.9l1.4,1.8h-1.4l-.9-1.2c-.6.3-1.2.4-1.9.4s-1.7-.2-2.4-.7-1.3-1.1-1.7-1.9c-.4-.8-.6-1.8-.6-2.9s.2-2.1.6-2.9c.4-.8,1-1.5,1.7-1.9.7-.4,1.5-.7,2.4-.7s1.7.2,2.4.7c.7.4,1.3,1.1,1.7,1.9.4.8.6,1.8.6,2.9s-.2,1.8-.5,2.6ZM81.9,154.9l1.1,1.5c.4-.4.7-.8,1-1.4.2-.6.3-1.3.3-2s-.1-1.7-.4-2.3-.7-1.1-1.2-1.4c-.5-.3-1.1-.5-1.7-.5s-1.2.2-1.7.5c-.5.3-.9.8-1.2,1.4s-.4,1.4-.4,2.3.1,1.7.4,2.3.7,1.1,1.2,1.4,1.1.5,1.7.5.8,0,1.1-.2l-1.6-2.1h1.4Z"/>
              <path class="st2" d="M87.5,147.6h3.6c.8,0,1.5.1,2,.4.5.3.9.7,1.2,1.1.3.5.4,1.1.4,1.7s-.2,1.3-.5,1.9c-.3.5-.8.9-1.5,1.1l2.4,4.4h-1.5l-2.2-4.1h-.3s-2.3,0-2.3,0v4.1h-1.3v-10.6ZM91.1,152.9c.8,0,1.4-.2,1.8-.5.4-.3.6-.8.6-1.5s-.2-1.2-.6-1.5c-.4-.4-1-.5-1.8-.5h-2.2v4.1h2.2Z"/>
              <path class="st2" d="M111.6,157.6h-11.9v-1h4.7v-3.4h1.1v3.4h6.1v1ZM110.2,148.9v.2c0,.7,0,1.3,0,1.8,0,.5,0,1.1-.2,1.8,0,.7-.2,1.4-.4,2.2h-1.1c.2-1.2.4-2.2.5-3.3l-8,.5-.2-1,8.2-.3c0-.5,0-1.1,0-1.9v-.3h-7.9v-1h9v1.3Z"/>
              <path class="st2" d="M124.6,157.6h-11.9v-1h11.9v1ZM123.2,153.6h-9v-6h8.9v1h-7.7v4.1h7.9v1Z"/>
              <path class="st2" d="M136.9,148.6h-1.3v4.3c.8,0,1.4-.1,1.9-.2v.9c-1.1.2-2.4.3-3.7.4-1.3,0-2.7,0-4.2,0v-1c-.1,0,1.6,0,1.6,0v-4.5h-1.3v-.9h7v.9ZM140.2,159.1h-8.7v-4.1h1.1v3.1h7.6v1ZM134.4,153v-4.4h-2.1v4.5c1,0,1.7,0,2.1,0ZM139.6,150.4h2v1h-2v4.6h-1.1v-9.6h1.1v4Z"/>
              <path class="st2" d="M154.3,153.8h-11.9v-.9h5.4v-1.6h-3.9v-4.4h8.9v1h-7.7v2.5h7.9v1h-4v1.6h5.4v.9ZM152.8,159.5h-1.1v-3.5h-8v-.9h9.1v4.4Z"/>
            </g>
            <g class="st5">
              <path class="st2" d="M156.4,161.2h-1.1l.8-4h1.4l-1.1,4Z"/>
            </g>
          </g>
          <g class="st5">
            <g class="st5">
              <path class="st2" d="M80.8,170.8h-5.4v1.3h3.9v2.9h-7.7v1.3h8.1v.9h-9.3v-3.1h7.7v-1.2h-7.8v-.9h3.9v-1.3h-5.3v-.9h11.9v.9ZM79.3,168.8h-8.8v-4h8.8v4ZM71.7,167.9h6.5v-2.1h-6.5v2.1Z"/>
              <path class="st2" d="M93.8,171.6h-5.4v1.5h3.9v4.1h-9v-4.1h3.9v-1.5h-5.4v-1h11.9v1ZM92.7,165.8h-2v2.7h2v1h-9.5v-1h2v-2.7h-2v-1h9.6v1ZM84.5,176.3h6.7v-2.2h-6.7v2.2ZM89.5,168.5v-2.7h-3.3v2.7h3.3Z"/>
              <path class="st2" d="M110.6,172.2h-5.3v2.5h-1.1v-2.5h-5.5v-.9h11.9v.9ZM109.2,177.1h-9.1v-3.6h1.1v2.6h7.9v1ZM101.4,166.5h6.4v-1.7h1.1v5.2h-8.7v-5.2h1.1v1.7ZM107.8,169.1v-1.7h-6.4v1.7h6.4Z"/>
              <path class="st2" d="M123.5,173.1h-3.1v4.3h-1.1v-4.3h-3.4v4.3h-1.2v-4.3h-3.1v-.9h11.9v.9ZM122.1,168.2h-7.9v1.6h8.1v1h-9.3v-3.5h7.8v-1.5h-7.9v-1h9v3.3Z"/>
            </g>
          </g>
        </g>
      </g>
    </g>
    <g id="g-root-cp_1_g-1_2_zp23ix1vhpvcw-stroke">
      <g id="cp_1_g-1_2_zp23ix1vhpvcw-stroke">
        <path class="st3" d="M13,1C6.4,1,1,6.4,1,13M193,121V13M1,13v108M13,1h168M193,13c0-6.6-5.4-12-12-12"/>
      </g>
    </g>
    <g id="g-root-cp_0_g-0_2_me828p1vhpts2-stroke">
      <g id="cp_0_g-0_2_me828p1vhpts2-stroke">
        <path class="st3" d="M1,193c0,6.6,5.4,12,12,12M181,205H13M181,205c6.6,0,12-5.4,12-12M193,121v72M1,193v-72M193,121H1"/>
      </g>
    </g>
    <g id="g-root-cp_1-2_cell-1-2_92rjvd1vhpvd0-stroke">
      <g id="cp_1-2_cell-1-2_92rjvd1vhpvd0-stroke">
        <path class="st4" d="M13,145v-6c0-3.3,2.7-6,6-6h6M181,145v36M13,181v-36M25,133h144M13,181v6c0,3.3,2.7,6,6,6h6M181,145v-6c0-3.3-2.7-6-6-6h-6M169,193H25M181,181v6c0,3.3-2.7,6-6,6h-6"/>
      </g>
    </g>
    <g id="g-root-ic_asce_1hapxeh1vh677x-stroke">
      <g id="ic_asce_1hapxeh1vh677x-stroke">
        <path class="st3" d="M120,65.6h-46M115.1,55.1h-36.2M103.7,34.1h-13.4M110.2,44.6h-26.4"/>
      </g>
    </g>
  </g>
</svg>