<?xml version="1.0" encoding="utf-8"?>
<!-- Generator: Adobe Illustrator 16.0.0, SVG Export Plug-In . SVG Version: 6.00 Build 0)  -->
<!DOCTYPE svg PUBLIC "-//W3C//DTD SVG 1.1//EN" "http://www.w3.org/Graphics/SVG/1.1/DTD/svg11.dtd">
<svg version="1.1" id="Layer_1" xmlns="http://www.w3.org/2000/svg" xmlns:xlink="http://www.w3.org/1999/xlink" x="0px" y="0px"
	 width="194px" height="206px" viewBox="0 0 194 206" enable-background="new 0 0 194 206" xml:space="preserve">
<g id="g-root-cp_1_g-1_1_5vlg91vhptze-fill" transform="translate(122, 86)">
	<g>
		<g id="cp_1_g-1_1_5vlg91vhptze-fill_8_">
			<g>
				<path fill="#34C687" d="M-109-73h-12c0-6.604,5.396-12,12-12V-73z M-109-85v12H59v-12H-109z M71-73H59v-12
					C65.615-85,71-79.616,71-73z M71,35h-192V-73H71V35z"/>
			</g>
		</g>
	</g>
</g>
<g id="g-root-cp_0_g-0_1_1ur65ax1vhpukk-fill" transform="translate(122, 206)">
	<g id="cp_0_g-0_1_1ur65ax1vhpukk-fill">
		<g>
			<path fill="#666666" d="M-121-13h12v12C-115.627-1-121-6.373-121-13z M59-1v-12h-168v12H59z M71-13c0,6.627-5.373,12-12,12v-12
				H71z M71-85h-192v72H71V-85z"/>
		</g>
	</g>
</g>
<g id="g-root-tx__4g2wyh1vh6878-fill" transform="translate(146, 230)">
	<g id="tx__4g2wyh1vh6878-fill">
		<g>
			<g enable-background="new    ">
				<path fill="#FFFFFF" d="M-100.208-78.303h-5.376v1.274h3.853v2.886h-7.734v1.274h8.13v0.908h-9.272v-3.032h7.749v-1.157h-7.778
					v-0.879h3.911v-1.274h-5.347v-0.952h11.865V-78.303z M-109.348-83.371h6.445v-1.245h1.143v4.277h-8.73v-4.277h1.143V-83.371z
					 M-102.903-81.232v-1.26h-6.445v1.26H-102.903z"/>
				<path fill="#FFFFFF" d="M-92.649-80.5h-4.746v1.816c2.314,0,3.992-0.08,6.021-0.425l0.117,0.967
					c-2.095,0.352-3.838,0.425-6.255,0.425h-1.011v-3.691h4.746v-1.655h-4.775v-0.952h5.903V-80.5z M-88.811-74.187
					c0,1.494-1.641,2.344-4.292,2.344c-2.695,0-4.321-0.85-4.321-2.344s1.626-2.373,4.321-2.373
					C-90.452-76.56-88.811-75.681-88.811-74.187z M-96.296-74.187c-0.015,0.908,1.201,1.45,3.193,1.45
					c1.978,0,3.179-0.542,3.179-1.45c0-0.923-1.201-1.465-3.179-1.465C-95.095-75.651-96.311-75.109-96.296-74.187z M-86.951-81.818
					h-1.978v1.772h1.978v0.981h-1.978v2.124h-1.143v-7.881h1.143v2.036h1.978V-81.818z"/>
				<path fill="#FFFFFF" d="M-81.75-77.307l-0.483-0.908c3.113-0.879,5.098-2.607,5.347-4.819h-4.673v-0.952h5.903
					C-75.671-80.72-78-78.376-81.75-77.307z M-71.584-71.989h-8.452v-4.849h8.452V-71.989z M-78.923-72.927h6.196v-2.988h-6.196
					V-72.927z M-71.584-77.395h-1.157V-80.5h-2.886v-0.967h2.886v-3.354h1.157V-77.395z"/>
				<path fill="#FFFFFF" d="M-61.682-75.769l-0.703,0.923c-1.436-0.754-2.637-2.293-3.208-4.102
					c-0.586,1.926-1.816,3.566-3.281,4.351l-0.732-0.923c1.904-0.938,3.413-3.442,3.428-5.815v-2.373h1.128v2.373
					C-65.051-79.035-63.528-76.677-61.682-75.769z M-59.338-79.548h2.183v0.996h-2.183v6.738h-1.143v-13.022h1.143V-79.548z"/>
				<path fill="#FFFFFF" d="M-55.457-69.997h-1.084l0.806-3.984h1.421L-55.457-69.997z"/>
				<path fill="#FFFFFF" d="M-41.108-78.479l-0.601,0.923c-1.465-0.527-2.6-1.618-3.149-2.974c-0.571,1.531-1.78,2.754-3.325,3.34
					l-0.601-0.923c1.934-0.703,3.311-2.461,3.311-4.321v-0.483h-2.944v-0.967h7.017v0.967h-2.915v0.469
					C-44.316-80.749-43.013-79.138-41.108-78.479z M-38.003-74.245c0,1.538-1.655,2.417-4.365,2.432
					c-2.71-0.015-4.365-0.894-4.365-2.432s1.655-2.417,4.365-2.417S-38.003-75.783-38.003-74.245z M-45.591-74.245
					c-0.015,0.938,1.23,1.509,3.223,1.509s3.223-0.571,3.223-1.509c0-0.952-1.23-1.523-3.223-1.523S-45.605-75.197-45.591-74.245z
					 M-38.047-77.072h-1.157v-3.413h-2.622v-0.952h2.622v-3.398h1.157V-77.072z"/>
				<path fill="#FFFFFF" d="M-29.697-80.939h-4.482v1.582c1.904,0.015,3.398-0.037,5.244-0.308l0.088,0.908
					c-1.948,0.293-3.501,0.337-5.552,0.337h-0.923v-3.413h4.482v-1.465h-4.512v-0.894h5.654V-80.939z M-25.083-74.274h-7.354v1.45
					h7.866v0.908h-9.009v-3.223h7.354v-1.304h-7.383v-0.894h8.525V-74.274z M-25.083-77.966h-1.157v-1.992h-2.593v-0.952h2.593
					v-1.377h-2.593v-0.938h2.593v-1.611h1.157V-77.966z"/>
				<path fill="#FFFFFF" d="M-21.919-69.997h-1.084l0.806-3.984h1.421L-21.919-69.997z"/>
				<path fill="#FFFFFF" d="M-6.648-78.229l0.073,0.864c-1.245,0.227-2.542,0.366-3.794,0.439v4.717h-1.143v-4.644
					c-1.326,0.059-2.578,0.065-3.662,0.073l-0.161-0.981C-12.888-77.761-9.548-77.805-6.648-78.229z M-7.673-81.54
					c0,1.582-1.392,2.681-3.34,2.666c-1.948,0.015-3.34-1.084-3.34-2.666c0-1.597,1.392-2.666,3.34-2.651
					C-9.065-84.206-7.673-83.137-7.673-81.54z M-13.225-81.54c-0.015,1.025,0.908,1.729,2.212,1.714
					c1.318,0.015,2.241-0.688,2.241-1.714c0-1.011-0.923-1.729-2.241-1.714C-12.317-83.269-13.24-82.551-13.225-81.54z
					 M-4.568-71.799h-1.128v-13.022h1.128V-71.799z"/>
				<path fill="#FFFFFF" d="M5.95-75.461l-0.645,0.894c-1.501-0.667-2.776-2.08-3.384-3.809c-0.586,1.831-1.853,3.333-3.354,4.043
					l-0.645-0.894c1.934-0.879,3.413-3.076,3.413-5.361v-1.04h-3.062v-0.938h3.047v-2.021h1.143v2.021h3.032v0.938H2.463v1.04
					C2.463-78.405,3.987-76.296,5.95-75.461z M8.396-71.813H7.239v-13.022h1.157V-71.813z"/>
			</g>
			<g enable-background="new    ">
				<path fill="#FFFFFF" d="M-83.087-59.321h-11.865v-0.938h11.865V-59.321z M-88.463-65.518h4.175v0.923h-4.102
					c0.081,1.479,2.139,2.497,4.6,2.71l-0.381,0.908c-2.146-0.234-4.065-1.025-4.849-2.344c-0.791,1.318-2.71,2.109-4.849,2.344
					l-0.381-0.908c2.446-0.213,4.504-1.23,4.6-2.71h-4.072v-0.923h4.131v-1.348h1.128V-65.518z M-84.552-53.813h-1.157v-3.164
					h-7.925v-0.938h9.082V-53.813z"/>
				<path fill="#FFFFFF" d="M-74.254-60.479l-0.601,0.923c-1.465-0.527-2.6-1.618-3.149-2.974c-0.571,1.531-1.78,2.754-3.325,3.34
					l-0.601-0.923c1.934-0.703,3.311-2.461,3.311-4.321v-0.483h-2.944v-0.967h7.017v0.967h-2.915v0.469
					C-77.462-62.749-76.159-61.138-74.254-60.479z M-71.149-56.245c0,1.538-1.655,2.417-4.365,2.432
					c-2.71-0.015-4.365-0.894-4.365-2.432s1.655-2.417,4.365-2.417S-71.149-57.783-71.149-56.245z M-78.737-56.245
					c-0.015,0.938,1.23,1.509,3.223,1.509s3.223-0.571,3.223-1.509c0-0.952-1.23-1.523-3.223-1.523S-78.751-57.197-78.737-56.245z
					 M-71.193-59.072h-1.157v-3.413h-2.622v-0.952h2.622v-3.398h1.157V-59.072z"/>
				<path fill="#FFFFFF" d="M-68.029-51.997h-1.084l0.806-3.984h1.421L-68.029-51.997z"/>
				<path fill="#FFFFFF" d="M-49.491-55.483h-11.924v-0.967h5.376v-3.164h1.157v3.164h5.391V-55.483z M-50.063-60.127l-0.469,0.908
					c-1.992-0.389-4.094-1.655-4.922-3.472c-0.842,1.823-2.937,3.12-4.893,3.53l-0.483-0.923c2.197-0.381,4.761-2.197,4.761-4.277
					v-0.322h-4.365v-0.967h9.917v0.967h-4.365v0.322C-54.882-62.28-52.304-60.493-50.063-60.127z"/>
				<path fill="#FFFFFF" d="M-41.845-62.676h-4.805v1.772c2.329-0.015,4.072-0.059,6.182-0.41l0.132,0.952
					c-2.183,0.352-3.97,0.41-6.372,0.425h-1.055v-3.647h4.775v-1.655h-4.805v-0.952h5.947V-62.676z M-45.009-57.461h6.167v-1.553
					h1.143v5.024h-8.467v-5.024h1.157V-57.461z M-38.842-54.927v-1.611h-6.167v1.611H-38.842z M-37.699-59.673h-1.143v-7.148h1.143
					V-59.673z"/>
				<path fill="#FFFFFF" d="M-28.251-59.468v-0.952c-1.516-0.132-2.49-0.842-2.49-1.919c0-1.187,1.216-1.919,3.047-1.919
					c1.846,0,3.047,0.732,3.062,1.919c-0.015,1.069-0.967,1.78-2.476,1.919v0.908c1.216-0.059,2.446-0.154,3.589-0.322l0.103,0.835
					c-2.827,0.498-5.947,0.513-8.232,0.513l-0.132-0.938C-30.741-59.424-29.525-59.424-28.251-59.468z M-23.915-64.756h-7.544
					v-0.879h3.208v-1.304h1.143v1.304h3.193V-64.756z M-21.557-53.813h-1.157v-2.71h-7.471v-0.923h8.628V-53.813z M-29.643-62.339
					c0,0.674,0.747,1.143,1.948,1.128c1.201,0.015,1.963-0.454,1.963-1.128c0-0.688-0.762-1.113-1.963-1.099
					C-28.896-63.452-29.643-63.027-29.643-62.339z M-21.557-62.881h1.948v0.967h-1.948v3.823h-1.157v-8.73h1.157V-62.881z"/>
				<path fill="#FFFFFF" d="M-11.625-62.72c0,1.904-1.465,3.208-3.413,3.208s-3.413-1.304-3.413-3.208
					c0-1.875,1.465-3.193,3.413-3.193S-11.625-64.595-11.625-62.72z M-17.323-62.72c-0.015,1.304,0.967,2.197,2.285,2.197
					c1.289,0,2.285-0.894,2.285-2.197c0-1.274-0.996-2.183-2.285-2.183C-16.356-64.902-17.338-63.994-17.323-62.72z M-7.597-54.092
					h-8.818v-4.175h1.143v3.208h7.676V-54.092z M-8.007-57.3h-1.143v-9.521h1.143V-57.3z"/>
			</g>
		</g>
	</g>
</g>
<g id="g-root-tx__hrjfbt1vh66mb-fill" transform="translate(164, 170)">
	<g id="tx__hrjfbt1vh66mb-fill">
		<g>
			<g enable-background="new    ">
				<path fill="#FFFFFF" d="M-113.437-66.742l-0.645-1.211c4.15-1.172,6.797-3.477,7.129-6.426h-6.23v-1.27h7.871
					C-105.332-71.293-108.437-68.168-113.437-66.742z M-99.882-59.652h-11.27v-6.465h11.27V-59.652z M-109.667-60.902h8.262v-3.984
					h-8.262V-60.902z M-99.882-66.859h-1.543V-71h-3.848v-1.289h3.848v-4.473h1.543V-66.859z"/>
				<path fill="#FFFFFF" d="M-86.679-64.691l-0.938,1.23c-1.914-1.006-3.516-3.057-4.277-5.469
					c-0.781,2.568-2.422,4.756-4.375,5.801l-0.977-1.23c2.539-1.25,4.551-4.59,4.57-7.754v-3.164h1.504v3.164
					C-91.171-69.047-89.14-65.902-86.679-64.691z M-83.554-69.73h2.91v1.328h-2.91v8.984h-1.523v-17.363h1.523V-69.73z"/>
				<path fill="#FFFFFF" d="M-65.625-68.578h-8.145v-7.07h8.145V-68.578z M-59.316-60.668l-0.527,1.191
					c-2.617-0.352-5-1.582-6.016-3.203c-1.055,1.65-3.496,2.852-6.113,3.203l-0.547-1.191c2.988-0.332,5.859-2.012,5.859-3.75
					h-5.137v-1.191h5.156v-1.699h1.523v1.699h5.195v1.191h-5.156C-65.078-62.719-62.304-61.039-59.316-60.668z M-72.265-69.789
					h5.137v-4.609h-5.137V-69.789z M-60.371-66.801h-1.504v-9.98h1.504V-66.801z"/>
				<path fill="#FFFFFF" d="M-36.562-66.762h-15.82v-1.25h15.82V-66.762z M-43.73-75.023h5.566v1.23h-5.469
					c0.107,1.973,2.852,3.33,6.133,3.613l-0.508,1.211c-2.861-0.313-5.42-1.367-6.465-3.125c-1.055,1.758-3.613,2.813-6.465,3.125
					l-0.508-1.211c3.262-0.283,6.006-1.641,6.133-3.613h-5.43v-1.23h5.508v-1.797h1.504V-75.023z M-38.515-59.418h-1.543v-4.219
					h-10.566v-1.25h12.109V-59.418z"/>
				<path fill="#FFFFFF" d="M-24.785-68.305l-0.801,1.23c-1.953-0.703-3.467-2.158-4.199-3.965
					c-0.762,2.041-2.373,3.672-4.434,4.453l-0.801-1.23c2.578-0.938,4.414-3.281,4.414-5.762v-0.645h-3.926v-1.289h9.355v1.289
					h-3.887v0.625C-29.062-71.332-27.324-69.184-24.785-68.305z M-20.644-62.66c0,2.051-2.207,3.223-5.82,3.242
					c-3.613-0.02-5.82-1.191-5.82-3.242s2.207-3.223,5.82-3.223S-20.644-64.711-20.644-62.66z M-30.761-62.66
					c-0.02,1.25,1.641,2.012,4.297,2.012s4.297-0.762,4.297-2.012c0-1.27-1.641-2.031-4.297-2.031S-30.781-63.93-30.761-62.66z
					 M-20.703-66.43h-1.543v-4.551h-3.496v-1.27h3.496v-4.531h1.543V-66.43z"/>
			</g>
		</g>
	</g>
</g>
<g id="g-root-cp_1_g-1_1_5vlg91vhptze-stroke" transform="translate(122, 86)">
	<g id="cp_1_g-1_1_5vlg91vhptze-stroke">
		<g>
			<path fill="none" stroke="#FFFFFF" stroke-width="2" stroke-linecap="round" stroke-linejoin="round" d="M-109-85
				c-6.627,0-12,5.373-12,12 M71,35V-73 M-121-73V35 M-109-85H59 M71-73c0-6.617-5.383-12-12-12"/>
		</g>
	</g>
</g>
<g id="g-root-cp_0_g-0_1_1ur65ax1vhpukk-stroke" transform="translate(122, 206)">
	<g id="cp_0_g-0_1_1ur65ax1vhpukk-stroke">
		<g>
			<path fill="none" stroke="#FFFFFF" stroke-width="2" stroke-linecap="round" stroke-linejoin="round" d="M-121-13
				c0,6.627,5.373,12,12,12 M59-1h-168 M59-1c6.627,0,12-5.373,12-12 M71-85v72 M-121-13v-72 M71-85h-192"/>
		</g>
	</g>
</g>
<g id="g-root-cp_1-1_cell-1-1_1hfpmxl1vhpw5i-stroke" transform="translate(134, 218)">
	<g id="cp_1-1_cell-1-1_1hfpmxl1vhpw5i-stroke">
		<g>
			<path fill="none" stroke="#484848" stroke-width="2" stroke-linecap="round" stroke-linejoin="round" d="M-121-73v-6
				c0-3.313,2.687-6,6-6h6 M47-73v36 M-121-37v-36 M-109-85H35 M-121-37v6c0,3.313,2.687,6,6,6h6 M47-73v-6c0-3.313-2.687-6-6-6h-6
				 M35-25h-144 M47-37v6c0,3.313-2.687,6-6,6h-6"/>
		</g>
	</g>
</g>
<g id="g-root-ic_1_hrjfbt1vh4t8i-stroke" transform="translate(194, 110)">
	<g id="ic_1_hrjfbt1vh4t8i-stroke">
		<g>
			<path fill="none" stroke="#FFFFFF" stroke-width="2" stroke-linecap="round" stroke-linejoin="round" d="M-114-38v-42
				c0-2.209,1.791-4,4-4h26c2.209,0,4,1.791,4,4v42 M-114-76h34 M-108-59c0,6.075,4.925,11,11,11s11-4.925,11-11s-4.925-11-11-11
				S-108-65.075-108-59z M-106.604-53.638l14.963-14.964 M-87.398-64.36l-14.963,14.964 M-97-63.242L-92.758-59 M-101.242-59
				L-97-54.758"/>
		</g>
	</g>
</g>
<g>
</g>
<g>
</g>
<g>
</g>
<g>
</g>
<g>
</g>
<g>
</g>
<g>
</g>
<g>
</g>
<g>
</g>
<g>
</g>
<g>
</g>
<g>
</g>
<g>
</g>
<g>
</g>
<g>
</g>
</svg>
