<?xml version="1.0" encoding="utf-8"?>
<!-- Generator: Adobe Illustrator 16.0.0, SVG Export Plug-In . SVG Version: 6.00 Build 0)  -->
<!DOCTYPE svg PUBLIC "-//W3C//DTD SVG 1.1//EN" "http://www.w3.org/Graphics/SVG/1.1/DTD/svg11.dtd">
<svg version="1.1" id="Layer_1" xmlns="http://www.w3.org/2000/svg" xmlns:xlink="http://www.w3.org/1999/xlink" x="0px" y="0px"
	 width="194px" height="206px" viewBox="0 0 194 206" enable-background="new 0 0 194 206" xml:space="preserve">
<g id="g-root-cp_1_g-1_4_1464jtl1vhpwr0-fill" transform="translate(770, 86)">
	<g>
		<g id="cp_1_g-1_4_1464jtl1vhpwr0-fill_8_">
			<g>
				<path fill="#244288" d="M-757-73h-12c0-6.604,5.396-12,12-12V-73z M-757-85v12h168v-12H-757z M-577-73h-12v-12
					C-582.384-85-577-79.616-577-73z M-577,35h-192V-73h192V35z"/>
			</g>
		</g>
	</g>
</g>
<g id="g-root-cp_0_g-0_4_qvaijd1vhpv66-fill" transform="translate(770, 206)">
	<g id="cp_0_g-0_4_qvaijd1vhpv66-fill">
		<g>
			<path fill="#666666" d="M-769-13h12v12C-763.627-1-769-6.373-769-13z M-589-1v-12h-168v12H-589z M-577-13c0,6.627-5.372,12-12,12
				v-12H-577z M-577-85h-192v72h192V-85z"/>
		</g>
	</g>
</g>
<g id="g-root-tx__1ly14k91vh90y5-fill" transform="translate(800, 236)">
	<g id="tx__1ly14k91vh90y5-fill">
		<g>
			<g enable-background="new    ">
				<path fill="#FFFFFF" d="M-755.126-70.798l-0.659,0.894c-1.252-0.762-2.153-2.153-2.607-3.735
					c-0.483,1.729-1.45,3.216-2.754,4.014l-0.732-0.864c1.802-1.055,2.9-3.369,2.9-5.596v-2.52h1.113v2.476
					C-757.865-74.064-756.854-71.823-755.126-70.798z M-753.266-67.473h-1.084v-6.709h-2.212v-0.981h2.212v-4.395h1.084V-67.473z
					 M-750.57-66.813h-1.113v-13.022h1.113V-66.813z"/>
				<path fill="#FFFFFF" d="M-736.845-68.425h-11.924v-0.981h5.347v-3.003h-4.263v-0.923h2.036v-4.277h-2.065v-0.952h9.727v0.952
					h-2.065v4.277h2.036v0.923h-4.277v3.003h5.449V-68.425z M-741.181-73.332v-4.277h-3.325v4.277H-741.181z"/>
				<path fill="#FFFFFF" d="M-720.131-71.999h-5.303v2.549h-1.143v-2.549h-5.479v-0.938h11.924V-71.999z M-721.464-67.092h-9.067
					v-3.56h1.143v2.593h7.925V-67.092z M-729.315-77.741h6.445v-1.67h1.143v5.2h-8.73v-5.2h1.143V-77.741z M-722.87-75.148v-1.714
					h-6.445v1.714H-722.87z"/>
				<path fill="#FFFFFF" d="M-711.415-73.64l-0.63,0.923c-1.45-0.535-2.578-1.648-3.135-3.032c-0.549,1.538-1.721,2.739-3.252,3.34
					l-0.63-0.952c1.978-0.703,3.281-2.417,3.296-4.424v-1.377h1.128v1.421C-714.638-75.939-713.305-74.284-711.415-73.64z
					 M-708.28-66.813h-1.157v-3.677h-7.603v-0.923h8.76V-66.813z M-708.28-72.131h-1.157v-3.999h-2.9v-0.967h2.9v-2.739h1.157
					V-72.131z"/>
				<path fill="#FFFFFF" d="M-705.116-64.997h-1.084l0.806-3.984h1.421L-705.116-64.997z"/>
				<path fill="#FFFFFF" d="M-690.768-73.479l-0.602,0.923c-1.465-0.527-2.6-1.618-3.148-2.974c-0.572,1.531-1.78,2.754-3.326,3.34
					l-0.6-0.923c1.934-0.703,3.311-2.461,3.311-4.321v-0.483h-2.945v-0.967h7.018v0.967h-2.916v0.469
					C-693.977-75.749-692.672-74.138-690.768-73.479z M-687.662-69.245c0,1.538-1.656,2.417-4.365,2.432
					c-2.711-0.015-4.365-0.894-4.365-2.432s1.654-2.417,4.365-2.417C-689.318-71.662-687.662-70.783-687.662-69.245z
					 M-695.25-69.245c-0.016,0.938,1.23,1.509,3.223,1.509s3.223-0.571,3.223-1.509c0-0.952-1.23-1.523-3.223-1.523
					S-695.266-70.197-695.25-69.245z M-687.707-72.072h-1.156v-3.413h-2.623v-0.952h2.623v-3.398h1.156V-72.072z"/>
				<path fill="#FFFFFF" d="M-678.742-73.801h-6.107v-5.303h6.107V-73.801z M-683.723-74.709h3.854v-3.457h-3.854V-74.709z
					 M-674.801-69.362h-7.295v1.465h7.764v0.938h-8.906v-3.252h7.309v-1.333h-7.324v-0.923h8.453V-69.362z M-674.801-73.112h-1.129
					v-6.724h1.129V-73.112z"/>
				<path fill="#FFFFFF" d="M-660.299-67.473h-1.1v-4.512h-2.416v-0.952h2.416v-2.314h-2.197c-0.637,2.204-2.064,4.153-4.525,5.625
					l-0.703-0.835c2.834-1.678,4.255-4.028,4.482-6.753h-3.896v-0.952h5.039c0,0.666-0.059,1.326-0.176,1.963h1.977v-3.281h1.1
					V-67.473z M-657.662-66.813h-1.1v-13.022h1.1V-66.813z"/>
				<path fill="#FFFFFF" d="M-643.98-72.321h-11.865v-0.938h11.865V-72.321z M-649.357-78.518h4.176v0.923h-4.102
					c0.08,1.479,2.139,2.497,4.6,2.71l-0.381,0.908c-2.146-0.234-4.065-1.025-4.85-2.344c-0.791,1.318-2.709,2.109-4.848,2.344
					l-0.381-0.908c2.445-0.213,4.504-1.23,4.6-2.71h-4.072v-0.923h4.131v-1.348h1.127V-78.518z M-645.445-66.813h-1.158v-3.164
					h-7.924v-0.938h9.082V-66.813z"/>
			</g>
		</g>
	</g>
</g>
<g id="g-root-tx__8dkyh1vh8zkc-fill" transform="translate(812, 170)">
	<g id="tx__8dkyh1vh8zkc-fill">
		<g>
			<g enable-background="new    ">
				<path fill="#FFFFFF" d="M-754.709-64.613c1.924-0.068,3.896-0.195,5.703-0.41l0.078,1.152c-3.652,0.566-7.734,0.645-10.84,0.625
					l-0.195-1.27c1.143-0.01,2.412-0.02,3.75-0.059v-5.313h1.504V-64.613z M-750.158-73.949c-0.02,1.367-0.02,3.672-0.508,6.895
					l-1.543-0.137c0.469-2.91,0.508-5.02,0.508-6.406h-7.285v-1.25h8.828V-73.949z M-746.389-69.516h2.813v1.328h-2.813v8.77h-1.523
					v-17.363h1.523V-69.516z"/>
				<path fill="#FFFFFF" d="M-732.111-73.656h-10.352v-1.25h4.414v-1.953h1.523v1.953h4.414V-73.656z M-733.107-69.613
					c-0.02,1.895-1.68,3.125-4.18,3.125s-4.199-1.23-4.18-3.125c-0.02-1.914,1.68-3.125,4.18-3.145
					C-734.787-72.738-733.127-71.527-733.107-69.613z M-728.928-59.418h-1.523v-4.297h-9.844v-1.25h11.367V-59.418z
					 M-740.002-69.613c-0.02,1.152,1.074,1.895,2.715,1.895c1.621,0,2.715-0.742,2.734-1.895c-0.02-1.172-1.113-1.934-2.734-1.953
					C-738.928-71.547-740.021-70.785-740.002-69.613z M-728.928-71.957h2.617v1.289h-2.617v4.746h-1.523v-10.859h1.523V-71.957z"/>
				<path fill="#FFFFFF" d="M-714.904-68.285l-0.801,1.211c-1.963-0.703-3.477-2.158-4.219-3.945
					c-0.752,2.002-2.354,3.604-4.414,4.355l-0.801-1.211c2.559-0.918,4.414-3.242,4.414-5.684v-0.762h-3.926v-1.25h9.355v1.25
					h-3.887v0.742C-719.182-71.313-717.443-69.164-714.904-68.285z M-710.822-59.418h-1.543v-4.766h-10.137v-1.27h11.68V-59.418z
					 M-710.822-66.371h-1.543v-4.57h-3.477v-1.289h3.477v-4.551h1.543V-66.371z"/>
				<path fill="#FFFFFF" d="M-687.033-66.332h-7.07v3.398h-1.523v-3.398h-7.305v-1.25h15.898V-66.332z M-688.811-59.789h-12.09
					v-4.746h1.523v3.457h10.566V-59.789z M-699.279-73.988h8.594v-2.227h1.523v6.934h-11.641v-6.934h1.523V-73.988z
					 M-690.686-70.531v-2.285h-8.594v2.285H-690.686z"/>
				<path fill="#FFFFFF" d="M-675.412-68.52l-0.84,1.23c-1.934-0.713-3.438-2.197-4.18-4.043c-0.732,2.051-2.295,3.652-4.336,4.453
					l-0.84-1.27c2.637-0.938,4.375-3.223,4.395-5.898v-1.836h1.504v1.895C-679.709-71.586-677.932-69.379-675.412-68.52z
					 M-671.232-59.418h-1.543v-4.902h-10.137v-1.23h11.68V-59.418z M-671.232-66.508h-1.543v-5.332h-3.867v-1.289h3.867v-3.652
					h1.543V-66.508z"/>
			</g>
		</g>
	</g>
</g>
<g id="g-root-cp_1_g-1_4_1464jtl1vhpwr0-stroke" transform="translate(770, 86)">
	<g id="cp_1_g-1_4_1464jtl1vhpwr0-stroke">
		<g>
			<path fill="none" stroke="#FFFFFF" stroke-width="2" stroke-linecap="round" stroke-linejoin="round" d="M-757-85
				c-6.627,0-12,5.373-12,12 M-577,35V-73 M-769-73V35 M-757-85h168 M-577-73c0-6.617-5.383-12-12-12"/>
		</g>
	</g>
</g>
<g id="g-root-cp_0_g-0_4_qvaijd1vhpv66-stroke" transform="translate(770, 206)">
	<g id="cp_0_g-0_4_qvaijd1vhpv66-stroke">
		<g>
			<path fill="none" stroke="#FFFFFF" stroke-width="2" stroke-linecap="round" stroke-linejoin="round" d="M-769-13
				c0,6.627,5.373,12,12,12 M-589-1h-168 M-589-1c6.628,0,12-5.373,12-12 M-577-85v72 M-769-13v-72 M-577-85h-192"/>
		</g>
	</g>
</g>
<g id="g-root-cp_1-4_cell-1-4_mfh0ex1vhpvyg-stroke" transform="translate(782, 218)">
	<g id="cp_1-4_cell-1-4_mfh0ex1vhpvyg-stroke">
		<g>
			<path fill="none" stroke="#484848" stroke-width="2" stroke-linecap="round" stroke-linejoin="round" d="M-769-73v-6
				c0-3.313,2.687-6,6-6h6 M-601-73v36 M-769-37v-36 M-757-85h144 M-769-37v6c0,3.313,2.687,6,6,6h6 M-601-73v-6
				c0-3.313-2.687-6-6-6h-6 M-613-25h-144 M-601-37v6c0,3.313-2.687,6-6,6h-6"/>
		</g>
	</g>
</g>
<g id="g-root-ic_1_4g2wyh1vh8yyz-stroke" transform="translate(842, 110)">
	<g id="ic_1_4g2wyh1vh8yyz-stroke">
		<g>
			<path fill="none" stroke="#FFFFFF" stroke-width="2" stroke-linecap="round" stroke-linejoin="round" d="M-738.155-68.356
				c-1.018-5.73-6.024-10.082-12.048-10.082c-6.758,0-12.236,5.478-12.236,12.236c0,5.968,4.272,10.938,9.925,12.019
				 M-760.807-60.087l-3.956,2.284 M-739.599-72.321l3.956-2.304 M-756.321-76.808l-2.283-3.956 M-756.321-55.602l-2.283,3.956
				 M-744.085-76.808l2.304-3.956 M-760.807-72.321l-3.956-2.304 M-750.203-78.438v-4.588 M-762.438-66.205h-4.588 M-736.654-40.928
				c6.476,0,11.726-5.25,11.726-11.726c0-6.476-5.25-11.726-11.726-11.726s-11.726,5.25-11.726,11.726
				C-748.38-46.178-743.13-40.928-736.654-40.928z M-748.972-67.804c1.441,0,2.61-1.168,2.61-2.61c0-1.441-1.169-2.61-2.61-2.61
				s-2.61,1.169-2.61,2.61C-751.582-68.973-750.413-67.804-748.972-67.804z M-728.368-44.368l5.394,5.394 M-754.354-62.659
				c-0.476,0-0.86-0.385-0.86-0.86c0-0.475,0.385-0.86,0.86-0.86 M-754.354-62.659c0.475,0,0.86-0.385,0.86-0.86
				c0-0.475-0.386-0.86-0.86-0.86"/>
		</g>
	</g>
</g>
<g>
</g>
<g>
</g>
<g>
</g>
<g>
</g>
<g>
</g>
<g>
</g>
<g>
</g>
<g>
</g>
<g>
</g>
<g>
</g>
<g>
</g>
<g>
</g>
<g>
</g>
<g>
</g>
<g>
</g>
</svg>
