<?xml version="1.0" encoding="utf-8"?>
<!-- Generator: Adobe Illustrator 16.0.0, SVG Export Plug-In . SVG Version: 6.00 Build 0)  -->
<!DOCTYPE svg PUBLIC "-//W3C//DTD SVG 1.1//EN" "http://www.w3.org/Graphics/SVG/1.1/DTD/svg11.dtd">
<svg version="1.1" id="Layer_1" xmlns="http://www.w3.org/2000/svg" xmlns:xlink="http://www.w3.org/1999/xlink" x="0px" y="0px"
	 width="194px" height="206px" viewBox="0 0 194 206" enable-background="new 0 0 194 206" xml:space="preserve">
<g id="g-root-cp_1_g-1_2_zp23ix1vhpvcw-fill" transform="translate(338, 86)">
	<g>
		<g id="cp_1_g-1_2_zp23ix1vhpvcw-fill_8_">
			<g>
				<path fill="#094F2B" d="M-325-73h-12c0-6.604,5.396-12,12-12V-73z M-325-85v12h168v-12H-325z M-145-73h-12v-12
					C-150.384-85-145-79.616-145-73z M-145,35h-192V-73h192V35z"/>
			</g>
		</g>
	</g>
</g>
<g id="g-root-cp_0_g-0_2_me828p1vhpts2-fill" transform="translate(338, 206)">
	<g id="cp_0_g-0_2_me828p1vhpts2-fill">
		<g>
			<path fill="#666666" d="M-337-13h12v12C-331.627-1-337-6.373-337-13z M-157-1v-12h-168v12H-157z M-145-13c0,6.627-5.373,12-12,12
				v-12H-145z M-145-85h-192v72h192V-85z"/>
		</g>
	</g>
</g>
<g id="g-root-tx__1qeh3rt1vh668e-fill" transform="translate(380, 170)">
	<g id="tx__1qeh3rt1vh668e-fill">
		<g>
			<g enable-background="new    ">
				<path fill="#FFFFFF" d="M-322.73-68.578l-0.781,1.211c-2.012-0.732-3.604-2.236-4.375-4.16
					c-0.771,2.061-2.383,3.682-4.414,4.473l-0.801-1.211c2.598-0.957,4.414-3.379,4.414-5.996v-1.66h1.563v1.66
					C-327.144-71.723-325.308-69.477-322.73-68.578z M-318.941-59.418h-1.523v-4.766h-10.156v-1.27h11.68V-59.418z M-318.941-66.313
					h-1.523v-10.469h1.523V-66.313z"/>
				<path fill="#FFFFFF" d="M-301.617-67.699h-1.523v-2.227h-4.102v1.523h-7.871v-7.559h1.523v2.5h4.844v-2.5h1.504v1.68h4.102v-2.5
					h1.523V-67.699z M-308.746-69.652v-2.598h-4.844v2.598H-308.746z M-301.617-62.777h-9.688v1.895h10.352v1.23h-11.875v-4.297
					h9.688v-1.68h-9.727v-1.23h11.25V-62.777z M-303.14-71.137v-1.953h-4.102v1.953H-303.14z"/>
				<path fill="#FFFFFF" d="M-284.625-68.578h-8.145v-7.07h8.145V-68.578z M-278.316-60.668l-0.527,1.191
					c-2.617-0.352-5-1.582-6.015-3.203c-1.055,1.65-3.496,2.852-6.113,3.203l-0.547-1.191c2.988-0.332,5.859-2.012,5.859-3.75
					h-5.137v-1.191h5.156v-1.699h1.523v1.699h5.195v1.191h-5.156C-284.078-62.719-281.305-61.039-278.316-60.668z M-291.265-69.789
					h5.137v-4.609h-5.137V-69.789z M-279.371-66.801h-1.504v-9.98h1.504V-66.801z"/>
				<path fill="#FFFFFF" d="M-255.504-66.332h-7.07v3.398h-1.523v-3.398h-7.305v-1.25h15.898V-66.332z M-257.281-59.789h-12.09
					v-4.746h1.523v3.457h10.566V-59.789z M-267.75-73.988h8.594v-2.227h1.523v6.934h-11.641v-6.934h1.523V-73.988z M-259.156-70.531
					v-2.285h-8.594v2.285H-259.156z"/>
				<path fill="#FFFFFF" d="M-238.219-65.18h-4.18v5.762h-1.523v-5.762h-4.492v5.762h-1.543v-5.762h-4.16v-1.23h15.898V-65.18z
					 M-240.152-71.645h-10.469v2.168h10.84v1.27h-12.383v-4.629h10.449v-1.992h-10.488v-1.27h12.051V-71.645z"/>
			</g>
		</g>
	</g>
</g>
<g id="g-root-tx_qr_zs6k491vh668f-fill" transform="translate(362, 230)">
	<g id="tx_qr_zs6k491vh668f-fill">
		<g>
			<g enable-background="new    ">
				<path fill="#FFFFFF" d="M-330.978-80.28h3.809v-3.442h1.143v8.789h-6.094v-8.789h1.143V-80.28z M-327.169-75.9v-3.457h-3.809
					v3.457H-327.169z M-322.584-79.709h2.183v0.996h-2.183v6.899h-1.143v-13.022h1.143V-79.709z"/>
				<path fill="#FFFFFF" d="M-307.833-73.586h-11.865v-0.981h4.658v-3.369h1.128v3.369h6.079V-73.586z M-309.284-82.302
					c-0.015,1.582,0,3.369-0.542,6.021l-1.128-0.132c0.256-1.179,0.388-2.212,0.469-3.135l-7.969,0.483l-0.19-1.011l8.203-0.337
					c0.029-0.688,0.029-1.311,0.029-1.89v-0.308h-7.852v-0.952h8.979V-82.302z"/>
				<path fill="#FFFFFF" d="M-294.811-73.586h-11.924v-0.967h11.924V-73.586z M-296.217-77.614h-8.994v-6.006h8.862v0.952h-7.72
					v4.102h7.852V-77.614z"/>
				<path fill="#FFFFFF" d="M-292.936-71.403h-1.143l3.413-12.7h1.157L-292.936-71.403z"/>
				<path fill="#FFFFFF" d="M-280.954-73.85l1.377,1.846h-1.436l-0.923-1.245c-0.579,0.264-1.216,0.396-1.904,0.396
					c-2.725,0-4.688-2.095-4.688-5.449s1.963-5.449,4.688-5.449c2.71,0,4.688,2.095,4.688,5.449
					C-279.152-76.325-279.84-74.779-280.954-73.85z M-282.843-76.325l1.128,1.465c0.791-0.688,1.289-1.853,1.289-3.442
					c0-2.739-1.494-4.219-3.413-4.219s-3.413,1.479-3.413,4.219s1.494,4.219,3.413,4.219c0.396,0,0.776-0.066,1.128-0.19
					l-1.567-2.051H-282.843z"/>
				<path fill="#FFFFFF" d="M-277.218-83.605h3.604c2.49,0,3.618,1.377,3.618,3.267c0,1.399-0.63,2.505-1.978,2.974l2.388,4.365
					h-1.538l-2.212-4.131l-0.264,0.015h-2.3V-73h-1.318V-83.605z M-273.659-78.317c1.685,0,2.358-0.762,2.358-2.021
					c0-1.274-0.674-2.095-2.373-2.095h-2.227v4.116H-273.659z"/>
				<path fill="#FFFFFF" d="M-253.107-73.586h-11.865v-0.981h4.658v-3.369h1.129v3.369h6.078V-73.586z M-254.557-82.302
					c-0.016,1.582,0,3.369-0.543,6.021l-1.127-0.132c0.256-1.179,0.388-2.212,0.469-3.135l-7.969,0.483l-0.191-1.011l8.203-0.337
					c0.029-0.688,0.029-1.311,0.029-1.89v-0.308h-7.852v-0.952h8.98V-82.302z"/>
				<path fill="#FFFFFF" d="M-240.084-73.586h-11.924v-0.967h11.924V-73.586z M-241.49-77.614h-8.994v-6.006h8.861v0.952h-7.719
					v4.102h7.852V-77.614z"/>
				<path fill="#FFFFFF" d="M-227.838-82.653h-1.334v4.307c0.667-0.044,1.326-0.103,1.949-0.176l0.088,0.864
					c-2.637,0.41-5.713,0.469-7.969,0.469l-0.133-0.952l1.686-0.029v-4.482h-1.318v-0.938h7.031V-82.653z M-224.498-72.092h-8.746
					v-4.058h1.129v3.091h7.617V-72.092z M-230.299-78.273v-4.38h-2.125v4.468C-231.728-78.207-231.01-78.229-230.299-78.273z
					 M-225.1-80.866h1.963v0.981h-1.963v4.644h-1.143v-9.58h1.143V-80.866z"/>
				<path fill="#FFFFFF" d="M-210.451-77.395h-11.865v-0.938h5.361v-1.582h-3.852v-4.395h8.891v0.952h-7.748v2.49h7.865v0.952
					h-4.014v1.582h5.361V-77.395z M-211.9-71.711h-1.143v-3.472h-7.955v-0.938h9.098V-71.711z"/>
				<path fill="#FFFFFF" d="M-208.355-69.997h-1.084l0.805-3.984h1.422L-208.355-69.997z"/>
			</g>
			<g enable-background="new    ">
				<path fill="#FFFFFF" d="M-283.888-60.391h-5.376v1.289h3.853v2.915h-7.734v1.318h8.13v0.908h-9.272v-3.091h7.749v-1.157h-7.778
					v-0.894h3.911v-1.289h-5.347v-0.938h11.865V-60.391z M-285.426-62.427h-8.789v-3.97h8.789V-62.427z M-293.072-63.35h6.504
					v-2.124h-6.504V-63.35z"/>
				<path fill="#FFFFFF" d="M-270.924-59.585h-5.376v1.538h3.926v4.058h-8.965v-4.058h3.911v-1.538h-5.361v-0.952h11.865V-59.585z
					 M-272.052-65.459h-2.007v2.739h1.963v0.952h-9.536v-0.952h1.963v-2.739h-2.007v-0.952h9.624V-65.459z M-280.196-54.927h6.694
					v-2.212h-6.694V-54.927z M-275.201-62.72v-2.739h-3.325v2.739H-275.201z"/>
				<path fill="#FFFFFF" d="M-254.151-58.999h-5.303v2.549h-1.143v-2.549h-5.479v-0.938h11.924V-58.999z M-255.484-54.092h-9.067
					v-3.56h1.143v2.593h7.925V-54.092z M-263.336-64.741h6.445v-1.67h1.143v5.2h-8.73v-5.2h1.143V-64.741z M-256.891-62.148v-1.714
					h-6.445v1.714H-256.891z"/>
				<path fill="#FFFFFF" d="M-241.188-58.135h-3.135v4.321h-1.143v-4.321h-3.369v4.321h-1.157v-4.321h-3.12v-0.923h11.924V-58.135z
					 M-242.638-62.983h-7.852v1.626h8.13v0.952h-9.287v-3.472h7.837v-1.494h-7.866v-0.952h9.038V-62.983z"/>
			</g>
		</g>
	</g>
</g>
<g id="g-root-cp_1_g-1_2_zp23ix1vhpvcw-stroke" transform="translate(338, 86)">
	<g id="cp_1_g-1_2_zp23ix1vhpvcw-stroke">
		<g>
			<path fill="none" stroke="#FFFFFF" stroke-width="2" stroke-linecap="round" stroke-linejoin="round" d="M-325-85
				c-6.627,0-12,5.373-12,12 M-145,35V-73 M-337-73V35 M-325-85h168 M-145-73c0-6.617-5.383-12-12-12"/>
		</g>
	</g>
</g>
<g id="g-root-cp_0_g-0_2_me828p1vhpts2-stroke" transform="translate(338, 206)">
	<g id="cp_0_g-0_2_me828p1vhpts2-stroke">
		<g>
			<path fill="none" stroke="#FFFFFF" stroke-width="2" stroke-linecap="round" stroke-linejoin="round" d="M-337-13
				c0,6.627,5.373,12,12,12 M-157-1h-168 M-157-1c6.627,0,12-5.373,12-12 M-145-85v72 M-337-13v-72 M-145-85h-192"/>
		</g>
	</g>
</g>
<g id="g-root-cp_1-2_cell-1-2_92rjvd1vhpvd0-stroke" transform="translate(350, 218)">
	<g id="cp_1-2_cell-1-2_92rjvd1vhpvd0-stroke">
		<g>
			<path fill="none" stroke="#484848" stroke-width="2" stroke-linecap="round" stroke-linejoin="round" d="M-337-73v-6
				c0-3.313,2.687-6,6-6h6 M-169-73v36 M-337-37v-36 M-325-85h144 M-337-37v6c0,3.313,2.687,6,6,6h6 M-169-73v-6
				c0-3.313-2.687-6-6-6h-6 M-181-25h-144 M-169-37v6c0,3.313-2.687,6-6,6h-6"/>
		</g>
	</g>
</g>
<g id="g-root-ic_asce_1hapxeh1vh677x-stroke" transform="translate(410, 110)">
	<g id="ic_asce_1hapxeh1vh677x-stroke">
		<g>
			<path fill="none" stroke="#FFFFFF" stroke-width="2" stroke-linecap="round" stroke-linejoin="round" d="M-290-44.418h-46
				 M-294.9-54.92H-331.1 M-306.294-75.932h-13.412 M-299.798-65.426h-26.404"/>
		</g>
	</g>
</g>
<g>
</g>
<g>
</g>
<g>
</g>
<g>
</g>
<g>
</g>
<g>
</g>
<g>
</g>
<g>
</g>
<g>
</g>
<g>
</g>
<g>
</g>
<g>
</g>
<g>
</g>
<g>
</g>
<g>
</g>
</svg>
