<?xml version="1.0" encoding="UTF-8"?>
<svg id="_레이어_2" xmlns="http://www.w3.org/2000/svg" version="1.1" viewBox="0 0 194 206">
  <!-- Generator: Adobe Illustrator 29.3.1, SVG Export Plug-In . SVG Version: 2.1.0 Build 151)  -->
  <defs>
    <style>
      .st0 {
        fill: #fff;
      }

      .st1 {
        stroke: #fff;
      }

      .st1, .st2 {
        fill: none;
        stroke-linecap: round;
        stroke-linejoin: round;
        stroke-width: 2px;
      }

      .st3 {
        isolation: isolate;
      }

      .st4 {
        fill: #666;
      }

      .st4, .st5 {
        fill-rule: evenodd;
      }

      .st5 {
        fill: #ba5de5;
      }

      .st2 {
        stroke: #484848;
      }
    </style>
  </defs>
  <g id="_레이어_1-2">
    <g id="g-root-cp_1_g-1_5_4oth091vhpv5u-fill">
      <g id="cp_1_g-1_5_4oth091vhpv5u-fill">
        <path class="st5" d="M13,13H1C1,6.4,6.4,1,13,1v12ZM13,1v12h168V1H13ZM193,13h-12V1c6.6,0,12,5.4,12,12ZM193,121H1V13h192v108Z"/>
      </g>
    </g>
    <g id="g-root-cp_0_g-0_5_1qeh0m11vhpwjo-fill">
      <g id="cp_0_g-0_5_1qeh0m11vhpwjo-fill">
        <path class="st4" d="M1,193h12v12c-6.6,0-12-5.4-12-12ZM181,205v-12H13v12h168ZM193,193c0,6.6-5.4,12-12,12v-12h12ZM193,121H1v72h192v-72Z"/>
      </g>
    </g>
    <g id="g-root-tx_1qbz7fd1vhafbb-fill">
      <g id="tx_1qbz7fd1vhafbb-fill">
        <g class="st3">
          <g class="st3">
            <g class="st3">
              <path class="st0" d="M79.2,103.3h-6.9v1.5h4.9v5.8h-12.4v-5.8h5v-1.5h-6.9v-2h16.2v2ZM77.8,95.5h-2.3v2.7h2.2v2h-13.1v-2h2.2v-2.7h-2.3v-2h13.3v2ZM67.3,108.6h7.5v-1.8h-7.5v1.8ZM72.9,98.2v-2.7h-3.7v2.7h3.7Z"/>
              <path class="st0" d="M90.8,95.8h-3.6c0,.6.3,1.2.6,1.7s.8,1,1.4,1.5,1.4.8,2.2,1l-1.2,1.9c-1-.3-1.9-.7-2.6-1.3s-1.3-1.2-1.7-2c-.4.9-1,1.6-1.8,2.3s-1.7,1.1-2.7,1.4l-1.1-2c.9-.2,1.7-.6,2.3-1.1s1.1-1,1.4-1.6.5-1.2.6-1.9h-3.6v-2h9.8v2ZM95.2,107.6h-9.5v1.2h9.9v1.9h-12.4v-4.9h9.4v-1.1h-9.5v-1.9h11.9v4.7ZM95.1,102.1h-2.5v-9.1h2.5v9.1Z"/>
              <path class="st0" d="M118.4,108.7h-16.3v-2h6.9v-3.3h-5.1v-9.3h2.5v2.8h7.8v-2.8h2.5v9.3h-5.1v3.3h6.9v2ZM114.1,101.4v-2.5h-7.8v2.5h7.8Z"/>
              <path class="st0" d="M135.7,103.2h-16.2v-2h16.2v2ZM134.2,95.8h-4.9c.1.4.4.8.9,1.2.5.4,1.1.7,1.9,1,.8.3,1.7.5,2.8.6l-.9,2c-1.6-.2-3-.5-4.1-1.1s-1.9-1.3-2.4-2.2c-.5.9-1.3,1.6-2.4,2.2-1.1.6-2.5,1-4.1,1.1l-.8-2c1.1,0,2-.3,2.8-.6s1.4-.6,1.9-1c.5-.4.8-.8.9-1.2h-4.8v-2h13.3v2ZM130.8,104.6c.9.3,1.6.6,2.1,1.1.5.5.7,1.1.8,1.8,0,.7-.3,1.3-.8,1.8-.5.5-1.2.9-2.1,1.1-.9.3-2,.4-3.3.4s-2.4-.1-3.3-.4c-.9-.3-1.6-.6-2.1-1.1-.5-.5-.7-1.1-.7-1.8s.2-1.3.7-1.8,1.2-.9,2.1-1.1c.9-.3,2-.4,3.3-.4s2.4.1,3.3.4ZM124.8,106.5c-.6.2-.9.6-.9,1,0,.5.3.8.9,1s1.5.3,2.8.3c2.4,0,3.7-.4,3.7-1.3,0-.5-.3-.8-.9-1-.6-.2-1.5-.3-2.8-.3s-2.2.1-2.8.3Z"/>
            </g>
          </g>
        </g>
      </g>
    </g>
    <g id="g-root-tx_18lbo0p1vhaeio-fill">
      <g id="tx_18lbo0p1vhaeio-fill">
        <g class="st3">
          <g class="st3">
            <g class="st3">
              <path class="st0" d="M46.2,155.1h-5.4v4.4h-1.1v-4.4h-5.4v-.9h11.9v.9ZM36.9,148.7h6.6v-1.8h1.2v5.6h-8.9v-5.6h1.1v1.8ZM43.5,151.6v-1.9h-6.6v1.9h6.6Z"/>
              <path class="st0" d="M59.1,153.6h-5.4v1.5h3.9v4.1h-9v-4.1h3.9v-1.5h-5.4v-1h11.9v1ZM58,147.8h-2v2.7h2v1h-9.5v-1h2v-2.7h-2v-1h9.6v1ZM49.9,158.3h6.7v-2.2h-6.7v2.2ZM54.8,150.5v-2.7h-3.3v2.7h3.3Z"/>
              <path class="st0" d="M70,150.2c-.5.9-1.2,1.6-2.1,2.3s-2,1.1-3.3,1.5l-.5-.9c1-.3,1.9-.7,2.7-1.2.8-.5,1.4-1,1.8-1.6.4-.6.7-1.3.8-2h-4.7v-1h5.9c0,1.1-.3,2-.7,2.9ZM74.8,159.2h-8.5v-4.8h8.5v4.8ZM67.4,158.3h6.2v-3h-6.2v3ZM74.8,153.8h-1.2v-3.1h-2.9v-1h2.9v-3.4h1.2v7.4Z"/>
              <path class="st0" d="M81.8,152.1c.3.7.7,1.4,1.2,2s1.1,1,1.7,1.3l-.7.9c-.7-.4-1.4-.9-1.9-1.7-.6-.7-1-1.5-1.3-2.4-.3,1-.7,1.8-1.3,2.6-.6.8-1.2,1.4-2,1.7l-.7-.9c.6-.3,1.2-.8,1.7-1.4.5-.6.9-1.3,1.2-2.1.3-.8.5-1.6.5-2.3v-2.4h1.1v2.4c0,.7.2,1.5.5,2.2ZM87,151.7h2.2v1h-2.2v6.7h-1.1v-13h1.1v5.3Z"/>
            </g>
            <g class="st3">
              <path class="st0" d="M90.9,161.2h-1.1l.8-4h1.4l-1.1,4Z"/>
            </g>
            <g class="st3">
              <path class="st0" d="M109.4,153.6h-5.4v1.5h3.9v4.1h-9v-4.1h3.9v-1.5h-5.4v-1h11.9v1ZM108.3,147.8h-2v2.7h2v1h-9.5v-1h2v-2.7h-2v-1h9.6v1ZM100.1,158.3h6.7v-2.2h-6.7v2.2ZM105.1,150.5v-2.7h-3.3v2.7h3.3Z"/>
              <path class="st0" d="M115.6,149.8c.3.5.7.9,1.2,1.3s1.1.7,1.7.9l-.6.9c-.8-.2-1.4-.6-2-1.1-.6-.5-1-1.1-1.3-1.7-.3.7-.7,1.4-1.3,1.9-.6.5-1.3,1-2.1,1.2l-.5-.9c.6-.2,1.2-.5,1.7-.9.5-.4.9-.9,1.2-1.4.3-.5.4-1.1.4-1.7h0c0-.1-3-.1-3-.1v-1h7.2v1h-3c0,.7.1,1.2.4,1.7ZM121.2,156.9h-7.3v1.5h7.8v.9h-8.9v-3.2h7.3v-1.3h-7.3v-.9h8.5v3.1ZM121.2,153.2h-1.1v-6.8h1.1v6.8Z"/>
              <path class="st0" d="M131.1,153.1c1.7,0,3.1-.2,4.3-.4v.8c-1.1.2-2.4.4-3.8.4-1.4,0-2.8.1-4.3.1v-1c-.1,0,0,0,0,0h2.6v-2.9h1.1v2.8ZM134.4,148.1v.2c0,.6,0,1.2,0,1.8s-.1,1.2-.3,1.9h-1.2c.1-.8.2-1.4.3-1.9,0-.5,0-1.1,0-1.7h-5.4v-1h6.5v.7ZM137.9,159.1h-8.7v-3.8h1.2v2.9h7.5v1ZM137.4,150.6h1.9v1h-1.9v4.6h-1.2v-9.8h1.2v4.2Z"/>
              <path class="st0" d="M147,152.2h-4.9v3.1c1.2,0,2.3,0,3.3-.1,1,0,2.1-.2,3.2-.4v1c-1,.2-2.1.3-3.1.4-1,0-2.2,0-3.4,0h-1.1v-5h4.9v-2.7h-4.9v-1h6.1v4.6ZM150.9,159.4h-1.1v-13.1h1.1v13.1Z"/>
            </g>
            <g class="st3">
              <path class="st0" d="M154.1,161.2h-1.1l.8-4h1.4l-1.1,4Z"/>
            </g>
          </g>
          <g class="st3">
            <g class="st3">
              <path class="st0" d="M64.8,175.7h-11.9v-1h5.4v-3.2h1.2v3.2h5.4v1ZM60.2,168.8c.5.6,1.1,1.1,1.8,1.5.7.4,1.5.7,2.3.8l-.5.9c-.7-.1-1.3-.4-2-.7-.7-.3-1.2-.7-1.8-1.2s-.9-1-1.2-1.6c-.3.6-.7,1.1-1.2,1.6-.5.5-1.1.9-1.7,1.2-.6.3-1.3.6-2,.7l-.5-.9c.7-.1,1.5-.4,2.2-.8s1.3-.9,1.8-1.5c.5-.6.7-1.2.7-1.9v-.3h-4.4v-1h9.9v1h-4.4v.3c0,.7.2,1.3.7,1.9Z"/>
              <path class="st0" d="M72.5,168.5h-4.8v1.8c1.3,0,2.5,0,3.4,0,.9,0,1.8-.2,2.8-.3v1c-.9.2-1.9.3-2.8.3-.9,0-2.1,0-3.4,0h-1.1v-3.6h4.8v-1.7h-4.8v-1h5.9v3.5ZM69.3,173.8h6.2v-1.6h1.1v5h-8.5v-5h1.2v1.6ZM75.5,176.3v-1.6h-6.2v1.6h6.2ZM76.6,171.5h-1.1v-7.1h1.1v7.1Z"/>
              <path class="st0" d="M87.1,171.4c1.4,0,2.8-.2,4.1-.4v.9c-1.1.2-2.3.4-3.7.4v4.7h-1.1v-4.6c-.9,0-2.1,0-3.7,0l-.2-1c1.6,0,3.1,0,4.6,0ZM88.6,165.4c.5.2.9.5,1.2.9.3.4.4.9.4,1.4s-.1,1-.4,1.4c-.3.4-.7.7-1.2.9-.5.2-1.1.3-1.7.3-.6,0-1.2-.1-1.7-.3-.5-.2-.9-.5-1.2-.9-.3-.4-.4-.9-.4-1.4s.1-1,.4-1.4c.3-.4.7-.7,1.2-.9.5-.2,1.1-.3,1.7-.3.6,0,1.2.1,1.7.3ZM85.7,166.2c-.3.1-.6.3-.8.6s-.3.6-.3.9c0,.3,0,.6.3.9.2.3.5.5.8.6.3.1.7.2,1.1.2.4,0,.8,0,1.2-.2.3-.1.6-.3.8-.6.2-.3.3-.6.3-.9s0-.6-.3-.9-.5-.5-.8-.6c-.3-.1-.7-.2-1.2-.2-.4,0-.8,0-1.1.2ZM93.3,177.4h-1.1v-13h1.1v13Z"/>
              <path class="st0" d="M100.8,170.7c.3.7.7,1.3,1.3,1.8.5.5,1.1.9,1.8,1.2l-.6.9c-.8-.3-1.4-.8-2-1.5s-1.1-1.4-1.4-2.3c-.3.9-.7,1.7-1.3,2.4-.6.7-1.3,1.2-2,1.6l-.6-.9c.6-.3,1.2-.7,1.7-1.3.5-.6.9-1.2,1.2-1.9.3-.7.4-1.4.4-2.2v-1h-3.1v-.9h3v-2h1.1v2h3v.9h-3v1c0,.7.2,1.4.5,2.1ZM106.3,177.4h-1.2v-13h1.2v13Z"/>
              <path class="st0" d="M124.2,175.7h-11.9v-1h5.4v-2.8h-4v-6.7h1.2v2.4h6.8v-2.4h1.1v6.7h-4v2.8h5.4v1ZM121.6,171v-2.4h-6.8v2.4h6.8Z"/>
              <path class="st0" d="M130.2,168.4c.3.5.6,1,1.1,1.4.5.4,1,.7,1.7.9l-.6.9c-.7-.3-1.4-.7-1.9-1.2-.5-.5-1-1.1-1.2-1.8-.3.8-.7,1.4-1.3,2-.6.6-1.3,1-2,1.3l-.6-.9c.6-.2,1.2-.6,1.7-1,.5-.4.9-1,1.2-1.5.3-.6.4-1.2.4-1.8v-.5h-2.9v-1h7v1h-2.9v.5c0,.6.1,1.1.4,1.6ZM134.1,172.8c.7.2,1.2.5,1.5.8.3.4.5.8.5,1.3s-.2.9-.5,1.3c-.3.4-.9.6-1.5.8s-1.4.3-2.3.3c-.9,0-1.7-.1-2.3-.3s-1.2-.5-1.5-.8c-.3-.4-.5-.8-.5-1.3s.2-.9.5-1.3c.3-.4.9-.6,1.5-.8.7-.2,1.4-.3,2.3-.3s1.7,0,2.3.3ZM130,173.6c-.5.1-.9.3-1.1.5-.3.2-.4.5-.4.8,0,.3.1.6.4.8.3.2.6.4,1.1.5.5.1,1.1.2,1.7.2s1.2,0,1.7-.2c.5-.1.9-.3,1.1-.5.3-.2.4-.5.4-.8s-.1-.6-.4-.8c-.3-.2-.6-.4-1.1-.5-.5-.1-1.1-.2-1.7-.2s-1.2,0-1.7.2ZM136.1,172.1h-1.2v-3.4h-2.6v-1h2.6v-3.4h1.2v7.8Z"/>
            </g>
          </g>
        </g>
      </g>
    </g>
    <g id="g-root-cp_1_g-1_5_4oth091vhpv5u-stroke">
      <g id="cp_1_g-1_5_4oth091vhpv5u-stroke">
        <path class="st1" d="M13,1C6.4,1,1,6.4,1,13M193,121V13M1,13v108M13,1h168M193,13c0-6.6-5.4-12-12-12"/>
      </g>
    </g>
    <g id="g-root-cp_0_g-0_5_1qeh0m11vhpwjo-stroke">
      <g id="cp_0_g-0_5_1qeh0m11vhpwjo-stroke">
        <path class="st1" d="M1,193c0,6.6,5.4,12,12,12M181,205H13M181,205c6.6,0,12-5.4,12-12M193,121v72M1,193v-72M193,121H1"/>
      </g>
    </g>
    <g id="g-root-cp_1-5_cell-1-5_1d3mzbt1vhpuyu-stroke">
      <g id="cp_1-5_cell-1-5_1d3mzbt1vhpuyu-stroke">
        <path class="st2" d="M13,145v-6c0-3.3,2.7-6,6-6h6M181,145v36M13,181v-36M25,133h144M13,181v6c0,3.3,2.7,6,6,6h6M181,145v-6c0-3.3-2.7-6-6-6h-6M169,193H25M181,181v6c0,3.3-2.7,6-6,6h-6"/>
      </g>
    </g>
    <g id="g-root-ic_qual_18n73a11vh8zda-stroke">
      <g id="ic_qual_18n73a11vh8zda-stroke">
        <path class="st1" d="M108.3,71.4c-5.8-17.2-8.6-22.8-12.2-22.8v4.8l-8.4,4.2c-.8.4-1.4,1.2-1.4,2.2v1c0,2.6,2.2,4.8,4.8,4.8h2.4v5.8M93.7,71.6l12-7M98.1,27.2l2.4,5h4.2c1,0,1.6,1.2.8,2l-4,3.8,2.2,5c.4,1-.6,2-1.6,1.4l-5.2-3-5.2,3c-1,.6-2.2-.4-1.6-1.4l2.2-5-4-3.8c-.8-.8-.2-2,.8-2h4.2l2.4-5c.8-.8,2-.8,2.4,0ZM83.3,29.6c-.4,0-.8.2-1,.6l-2.4,5h-4.2c-1,0-1.6,1.2-.8,2l4,3.8-2.2,5c-.4,1,.6,2,1.6,1.4l5.2-3,1.4.8M110.7,29.6c.4,0,.8.2,1,.6l2.4,5h4.2c1,0,1.6,1.2.8,2l-4,3.8,2.2,5c.4,1-.6,2-1.6,1.4l-5.2-3-1.4.8"/>
      </g>
    </g>
  </g>
</svg>