<?xml version="1.0" encoding="UTF-8"?>
<svg id="_레이어_2" xmlns="http://www.w3.org/2000/svg" version="1.1" viewBox="0 0 194 206">
  <!-- Generator: Adobe Illustrator 29.3.1, SVG Export Plug-In . SVG Version: 2.1.0 Build 151)  -->
  <defs>
    <style>
      .st0 {
        fill: #fff;
      }

      .st1 {
        stroke: #fff;
      }

      .st1, .st2 {
        fill: none;
        stroke-linecap: round;
        stroke-linejoin: round;
        stroke-width: 2px;
      }

      .st3 {
        isolation: isolate;
      }

      .st4 {
        fill: #666;
      }

      .st4, .st5 {
        fill-rule: evenodd;
      }

      .st2 {
        stroke: #484848;
      }

      .st5 {
        fill: #de58a9;
      }
    </style>
  </defs>
  <g id="_레이어_1-2">
    <g id="g-root-cp_1_g-1_4_1464jtl1vhpwr0-fill">
      <g id="cp_1_g-1_4_1464jtl1vhpwr0-fill">
        <path class="st5" d="M13,13H1C1,6.4,6.4,1,13,1v12ZM13,1v12h168V1H13ZM193,13h-12V1c6.6,0,12,5.4,12,12ZM193,121H1V13h192v108Z"/>
      </g>
    </g>
    <g id="g-root-cp_0_g-0_4_qvaijd1vhpv66-fill">
      <g id="cp_0_g-0_4_qvaijd1vhpv66-fill">
        <path class="st4" d="M1,193h12v12c-6.6,0-12-5.4-12-12ZM181,205v-12H13v12h168ZM193,193c0,6.6-5.4,12-12,12v-12h12ZM193,121H1v72h192v-72Z"/>
      </g>
    </g>
    <g id="g-root-tx_1ly14k91vh90y5-fill">
      <g id="tx_1ly14k91vh90y5-fill">
        <g class="st3">
          <g class="st3">
            <g class="st3">
              <path class="st0" d="M42.3,161.2c.2.7.5,1.3.9,1.9.4.6.9,1,1.5,1.4l-.7.9c-.6-.4-1.1-.9-1.6-1.5-.4-.7-.8-1.4-1-2.2-.2.9-.6,1.7-1.1,2.4s-1,1.2-1.7,1.6l-.7-.9c.6-.3,1.1-.8,1.5-1.4.4-.6.8-1.3,1-2,.2-.7.4-1.5.4-2.2v-2.5h1.1v2.5c0,.7.1,1.4.3,2.1ZM46.6,167.7h-1.1v-6.7h-2.2v-1h2.2v-4.4h1.1v12.1ZM49.3,168.4h-1.1v-13h1.1v13Z"/>
              <path class="st0" d="M63,166.8h-11.9v-1h5.3v-3h-4.3v-.9h2v-4.3h-2.1v-1h9.7v1h-2.1v4.3h2v.9h-4.3v3h5.4v1ZM58.6,161.9v-4.3h-3.3v4.3h3.3Z"/>
              <path class="st0" d="M79.7,163.2h-5.3v2.5h-1.1v-2.5h-5.5v-.9h11.9v.9ZM78.4,168.1h-9.1v-3.6h1.1v2.6h7.9v1ZM70.5,157.5h6.4v-1.7h1.1v5.2h-8.7v-5.2h1.1v1.7ZM77,160.1v-1.7h-6.4v1.7h6.4Z"/>
              <path class="st0" d="M85.6,159.2c.3.5.7,1,1.1,1.4s1,.7,1.7.9l-.6.9c-.7-.3-1.4-.7-1.9-1.2-.5-.5-1-1.1-1.2-1.8-.3.8-.7,1.4-1.3,2-.6.6-1.2,1-2,1.3l-.6-1c.7-.2,1.2-.6,1.7-1s.9-1,1.2-1.5c.3-.6.4-1.2.4-1.9v-1.4h1.1v1.4c0,.6.1,1.2.4,1.7ZM91.5,168.4h-1.2v-3.7h-7.6v-.9h8.8v4.6ZM91.5,163.1h-1.2v-4h-2.9v-1h2.9v-2.7h1.2v7.7Z"/>
            </g>
            <g class="st3">
              <path class="st0" d="M94.7,170.2h-1.1l.8-4h1.4l-1.1,4Z"/>
            </g>
            <g class="st3">
              <path class="st0" d="M106.3,159.4c.3.5.6,1,1.1,1.4.5.4,1,.7,1.7.9l-.6.9c-.7-.3-1.4-.7-1.9-1.2-.5-.5-1-1.1-1.2-1.8-.3.8-.7,1.4-1.3,2-.6.6-1.3,1-2,1.3l-.6-.9c.6-.2,1.2-.6,1.7-1,.5-.4.9-1,1.2-1.5.3-.6.4-1.2.4-1.8v-.5h-2.9v-1h7v1h-2.9v.5c0,.6.1,1.1.4,1.6ZM110.1,163.8c.7.2,1.2.5,1.5.8.3.4.5.8.5,1.3s-.2.9-.5,1.3c-.3.4-.9.6-1.5.8s-1.4.3-2.3.3c-.9,0-1.7-.1-2.3-.3s-1.2-.5-1.5-.8c-.3-.4-.5-.8-.5-1.3s.2-.9.5-1.3c.3-.4.9-.6,1.5-.8.7-.2,1.4-.3,2.3-.3s1.7,0,2.3.3ZM106.1,164.6c-.5.1-.9.3-1.1.5-.3.2-.4.5-.4.8,0,.3.1.6.4.8.3.2.6.4,1.1.5.5.1,1.1.2,1.7.2s1.2,0,1.7-.2c.5-.1.9-.3,1.1-.5.3-.2.4-.5.4-.8s-.1-.6-.4-.8c-.3-.2-.6-.4-1.1-.5-.5-.1-1.1-.2-1.7-.2s-1.2,0-1.7.2ZM112.1,163.1h-1.2v-3.4h-2.6v-1h2.6v-3.4h1.2v7.8Z"/>
              <path class="st0" d="M121.1,161.4h-6.1v-5.3h6.1v5.3ZM116.1,160.5h3.9v-3.5h-3.9v3.5ZM125,165.9h-7.3v1.5h7.8v.9h-8.9v-3.3h7.3v-1.3h-7.3v-.9h8.5v3.1ZM125,162.1h-1.1v-6.7h1.1v6.7Z"/>
              <path class="st0" d="M139.5,167.7h-1.1v-4.5h-2.4v-1h2.4v-2.3h-2.2c-.3,1.1-.9,2.2-1.6,3.1s-1.7,1.8-2.9,2.5l-.7-.8c1.4-.8,2.5-1.8,3.2-2.9.7-1.1,1.2-2.4,1.3-3.8h-3.9v-1h5c0,.7,0,1.3-.2,2h2v-3.3h1.1v12ZM142.2,168.4h-1.1v-13h1.1v13Z"/>
              <path class="st0" d="M155.9,162.9h-11.9v-.9h11.9v.9ZM150.5,156.7h4.2v.9h-4.1c0,.5.2.9.7,1.3.4.4,1,.7,1.7.9.7.2,1.4.4,2.3.5l-.4.9c-1.1-.1-2.1-.4-3-.8-.9-.4-1.5-.9-1.9-1.6-.4.6-1,1.2-1.9,1.6-.9.4-1.9.7-3,.8l-.4-.9c.8,0,1.6-.2,2.3-.5.7-.2,1.2-.6,1.7-.9.4-.4.6-.8.7-1.3h-4.1v-.9h4.1v-1.3h1.1v1.3ZM154.4,168.4h-1.2v-3.2h-7.9v-.9h9.1v4.1Z"/>
            </g>
          </g>
        </g>
      </g>
    </g>
    <g id="g-root-tx_8dkyh1vh8zkc-fill">
      <g id="tx_8dkyh1vh8zkc-fill">
        <g class="st3">
          <g class="st3">
            <g class="st3">
              <path class="st0" d="M56.1,105.1c1.9,0,3.7-.2,5.2-.4l.2,1.9c-1.5.3-3.1.4-4.7.5s-3.4.1-5.2.1h-.9l-.2-2h3.3v-5.3h2.5v5.2ZM60.5,96.2v.3c0,1.2,0,2.3-.1,3.2s-.2,2.1-.4,3.3l-2.5-.2c.2-1.1.3-2.2.4-3.1s0-1.9.1-3h-6.7v-2h9.2v1.4ZM64.6,100.2h2.4v2.1h-2.4v8.6h-2.5v-17.8h2.5v7.1Z"/>
              <path class="st0" d="M78.4,96.6h-10.5v-2h4v-1.7h2.5v1.7h4v2ZM75.4,97.6c.7.3,1.2.7,1.5,1.2s.6,1.1.6,1.7-.2,1.2-.6,1.7-.9.9-1.5,1.2-1.4.4-2.3.4-1.6-.1-2.3-.4-1.2-.7-1.6-1.2-.6-1.1-.6-1.7.2-1.2.6-1.7.9-.9,1.6-1.2,1.4-.4,2.3-.4,1.6.1,2.3.4ZM81.9,110.8h-2.5v-3.9h-9.5v-2h12v5.9ZM71.6,99.4c-.4.2-.5.6-.5,1,0,.4.2.8.5,1s.8.4,1.5.4,1.1-.1,1.5-.4.5-.6.5-1-.2-.8-.5-1-.9-.4-1.5-.4-1.1.1-1.5.4ZM81.9,97.6h2.4v2h-2.4v4.5h-2.5v-11.2h2.5v4.6Z"/>
              <path class="st0" d="M95.4,96h-3.5c0,.7.2,1.4.5,2.1s.7,1.3,1.4,1.8,1.4,1,2.3,1.3l-1.2,1.9c-1-.3-1.8-.8-2.5-1.4s-1.2-1.3-1.6-2.1c-.4.9-1,1.7-1.7,2.4s-1.6,1.2-2.6,1.5l-1.3-2c.9-.3,1.7-.7,2.4-1.3s1.1-1.2,1.4-1.9.5-1.5.5-2.2h-3.6v-2h9.6v2ZM100.1,110.8h-2.5v-4.4h-9.7v-2h12.2v6.4ZM100.1,103.6h-2.5v-4.3h-2.8v-2h2.8v-4.3h2.5v10.6Z"/>
              <path class="st0" d="M123.2,104.1h-6.7v2.9h-2.5v-2.9h-7.1v-2h16.3v2ZM121.4,110.5h-12.6v-4.9h2.5v2.9h10.1v2ZM111.5,95.4h7.1v-1.9h2.5v7.3h-12.1v-7.3h2.5v1.9ZM118.7,98.9v-1.6h-7.1v1.6h7.1Z"/>
              <path class="st0" d="M131.4,98c.3.7.7,1.3,1.3,1.8s1.4,1,2.3,1.2l-1.3,2c-.9-.3-1.7-.8-2.4-1.4s-1.2-1.3-1.6-2.2c-.4.9-1,1.7-1.7,2.3s-1.5,1.2-2.5,1.5l-1.3-2c1-.3,1.8-.8,2.4-1.3s1.1-1.2,1.4-2,.5-1.5.5-2.4v-1.7h2.5v1.9c0,.8.1,1.5.4,2.2ZM139.3,110.8h-2.5v-4.4h-9.7v-2h12.2v6.4ZM139.3,103.6h-2.5v-5.2h-3.3v-2.1h3.3v-3.3h2.5v10.6Z"/>
            </g>
          </g>
        </g>
      </g>
    </g>
    <g id="g-root-cp_1_g-1_4_1464jtl1vhpwr0-stroke">
      <g id="cp_1_g-1_4_1464jtl1vhpwr0-stroke">
        <path class="st1" d="M13,1C6.4,1,1,6.4,1,13M193,121V13M1,13v108M13,1h168M193,13c0-6.6-5.4-12-12-12"/>
      </g>
    </g>
    <g id="g-root-cp_0_g-0_4_qvaijd1vhpv66-stroke">
      <g id="cp_0_g-0_4_qvaijd1vhpv66-stroke">
        <path class="st1" d="M1,193c0,6.6,5.4,12,12,12M181,205H13M181,205c6.6,0,12-5.4,12-12M193,121v72M1,193v-72M193,121H1"/>
      </g>
    </g>
    <g id="g-root-cp_1-4_cell-1-4_mfh0ex1vhpvyg-stroke">
      <g id="cp_1-4_cell-1-4_mfh0ex1vhpvyg-stroke">
        <path class="st2" d="M13,145v-6c0-3.3,2.7-6,6-6h6M181,145v36M13,181v-36M25,133h144M13,181v6c0,3.3,2.7,6,6,6h6M181,145v-6c0-3.3-2.7-6-6-6h-6M169,193H25M181,181v6c0,3.3-2.7,6-6,6h-6"/>
      </g>
    </g>
    <g id="g-root-ic_1_4g2wyh1vh8yyz-stroke">
      <g id="ic_1_4g2wyh1vh8yyz-stroke">
        <path class="st1" d="M103.8,41.6c-1-5.7-6-10.1-12.1-10.1s-12.2,5.5-12.2,12.2,4.3,10.9,9.9,12M81.2,49.9l-4,2.3M102.4,37.7l4-2.3M85.7,33.2l-2.3-4M85.7,54.4l-2.3,4M97.9,33.2l2.3-4M81.2,37.7l-4-2.3M91.8,31.6v-4.6M79.6,43.8h-4.6M105.3,69.1c6.5,0,11.7-5.2,11.7-11.7s-5.2-11.7-11.7-11.7-11.7,5.2-11.7,11.7,5.2,11.7,11.7,11.7ZM93,42.2c1.4,0,2.6-1.2,2.6-2.6s-1.2-2.6-2.6-2.6-2.6,1.2-2.6,2.6,1.2,2.6,2.6,2.6ZM113.6,65.6l5.4,5.4M87.7,47.3c-.5,0-.9-.4-.9-.9s.4-.9.9-.9M87.7,47.3c.5,0,.9-.4.9-.9s-.4-.9-.9-.9"/>
      </g>
    </g>
  </g>
</svg>