<?xml version="1.0" encoding="UTF-8"?>
<svg id="Layer_1" xmlns="http://www.w3.org/2000/svg" version="1.1" xmlns:xlink="http://www.w3.org/1999/xlink" viewBox="0 0 650 282">
  <!-- Generator: Adobe Illustrator 29.3.1, SVG Export Plug-In . SVG Version: 2.1.0 Build 151)  -->
  <defs>
    <style>
      .st0 {
        stroke: #b228e0;
      }

      .st0, .st1 {
        fill: none;
        stroke-miterlimit: 10;
        stroke-width: 2px;
      }

      .st2 {
        fill: #b228e0;
      }

      .st1 {
        stroke: #eed6f6;
      }

      .st3 {
        isolation: isolate;
      }
    </style>
  </defs>
  <g class="st3">
    <path class="st2" d="M139.4,13.7h-6.9v1.3c3.1.2,4.9,1.3,4.9,3.2,0,2.1-2.3,3.2-6.2,3.2s-6.2-1.2-6.2-3.2,1.8-3,5-3.2v-1.3h-6.9v-2h16.2v2h0ZM138,6.3h-4.8c.4,1.2,2.2,2.5,5.6,2.7l-.9,2c-3.4-.3-5.6-1.6-6.6-3.3-.9,1.7-3.2,3-6.5,3.3l-.8-2c3.3-.3,5.1-1.5,5.6-2.7h-4.8v-2h13.3v2h0ZM127.6,18.2c0,.9,1.2,1.3,3.7,1.3s3.7-.5,3.7-1.3c0-.9-1.3-1.3-3.7-1.3-2.5,0-3.7.4-3.7,1.3Z"/>
    <path class="st2" d="M150.6,7.2h-1.6v7.8c.7,0,1.4-.1,2.1-.2v1.8c-3.5.6-7.6.7-10.6.7l-.3-2h2V7.2h-1.6v-2h9.9v2ZM146.6,15.1v-7.9h-2v8h2ZM154.5,10.4h2.6v2h-2.6v9h-2.5V3.6h2.5v6.8Z"/>
    <path class="st2" d="M170.9,5.4h4v-1.8h2.5v8.9h-2.5v-1.5h-4c-.8.8-2.1,1.3-3.6,1.3-2.7,0-4.7-1.7-4.7-4.1,0-2.4,2-4.1,4.7-4.1,1.4,0,2.7.5,3.5,1.3ZM165,8.2c0,1.3,1,2.1,2.4,2.1s2.3-.8,2.3-2.1-1-2.1-2.3-2.1-2.4.8-2.4,2.1ZM177.4,18.1h-9.3v1.2h9.8v2h-12.3v-4.9h9.3v-1.1h-9.4v-1.9h11.8v4.8h0ZM172,8.2c0,.3,0,.6,0,.8h2.9v-1.7h-2.9c0,.3,0,.5,0,.8Z"/>
    <path class="st2" d="M183.9,16.3v-1.5c-1.9-.4-3.1-1.6-3.1-3.2,0-2,1.8-3.3,4.4-3.3s4.4,1.3,4.4,3.3c0,1.6-1.3,2.9-3.1,3.2v1.4c1.4,0,2.8-.2,4.1-.4l.2,1.8c-3.8.7-7.9.7-10.9.7l-.3-2c1.3,0,2.8,0,4.4,0ZM190.4,7.5h-10.5v-2h4v-1.9h2.5v1.9h4v2ZM183.1,11.6c0,.9.8,1.4,2,1.4s2-.5,2-1.4-.8-1.4-2-1.4c-1.2,0-2,.5-2,1.4ZM193.9,10.8h2.3v2.1h-2.3v8.5h-2.5V3.6h2.5v7.2Z"/>
    <path class="st2" d="M207.5,11.5l-1.3,1.9c-1.9-.6-3.2-1.8-4-3.4-.8,1.8-2.1,3.2-4.2,3.9l-1.3-2c3-1,4.2-3.4,4.3-5.8v-1.6h2.5v1.9c0,2.1,1.2,4.2,4.1,5.1ZM211.2,17.9c0,2.2-2.3,3.4-6,3.4s-6.1-1.2-6.1-3.4,2.3-3.4,6.1-3.4c3.7,0,6,1.3,6,3.4ZM201.6,17.9c0,1,1.2,1.5,3.6,1.5s3.5-.5,3.5-1.5-1.2-1.5-3.5-1.5c-2.3,0-3.6.5-3.6,1.5ZM211.1,7.8h2.4v2.1h-2.4v4.3h-2.5V3.6h2.5v4.2Z"/>
    <path class="st2" d="M215.5,18.7l-1.4-1.9c3-1.5,4.7-3.1,5.7-5.1l-5.3.5-.3-2.1,6.3-.4c.2-.7.3-1.5.4-2.4h-5.8v-2h8.2c0,5.5-1.3,10.1-8,13.4ZM228.3,10.4h2.5v2.1h-2.5v8.9h-2.5V3.6h2.5v6.8Z"/>
    <path class="st2" d="M239.1,10.1h1.8V3.9h2.3v16.7h-2.3v-8.5h-1.8v4.8h-7.1V5.4h7.1v4.6ZM234.4,14.9h2.4v-7.5h-2.4v7.5ZM246.9,21.4h-2.4V3.6h2.4v17.8Z"/>
    <path class="st2" d="M257.8,12h-5.7v3.2c2.6,0,4.7-.1,7.1-.5l.2,2c-2.7.5-5.2.6-8.3.6h-1.5v-7.3h5.7v-2.9h-5.7v-2h8.2v6.9h0ZM262.8,10.3h2.6v2.1h-2.6v9h-2.5V3.6h2.5v6.7Z"/>
    <path class="st2" d="M274.8,4.8h2.8c-1.3,2-2.8,5.9-2.8,9.4s1.4,7.4,2.8,9.4h-2.8c-1.9-2.6-3-5.7-3-9.4s1.1-6.7,3-9.4Z"/>
    <path class="st2" d="M282.8,5.4l3.9,9.6h.2l3.9-9.6h3.6v14.1h-2.9v-9.3h-.1l-3.7,9.2h-2l-3.7-9.2h-.1v9.3h-2.9V5.4h3.6Z"/>
    <path class="st2" d="M295.9,5.4h3.2l2.4,9.9h.1l2.6-9.9h2.8l2.6,9.9h.1l2.4-9.9h3.2l-4,14.1h-2.9l-2.7-9.3h-.1l-2.7,9.3h-2.9l-4-14.1Z"/>
    <path class="st2" d="M319.7,19.6h-2.9V5.4h2.9v14.1h0Z"/>
    <path class="st2" d="M322.1,5.4h5.5c3.2,0,5.1,1.8,5.1,4.6s-.9,3.3-2.5,4l3,5.5h-3.2l-2.7-5h-2.2v5h-2.9V5.4h0ZM327.1,12.2c1.7,0,2.6-.7,2.6-2.1s-.8-2.2-2.6-2.2h-2.1v4.3h2.1Z"/>
    <path class="st2" d="M336.2,23.7h-2.1l1-5.6h2.8l-1.7,5.6Z"/>
    <path class="st2" d="M348.1,5.4l3.9,9.6h.2l3.9-9.6h3.6v14.1h-2.9v-9.3h-.1l-3.7,9.2h-2l-3.7-9.2h-.1v9.3h-2.9V5.4h3.6Z"/>
    <path class="st2" d="M361.9,6.1c0-.8.7-1.5,1.6-1.5s1.6.7,1.6,1.5-.7,1.5-1.6,1.5c-.9,0-1.6-.7-1.6-1.5ZM362.1,9h2.9v10.6h-2.9v-10.6Z"/>
    <path class="st2" d="M366.8,14.3c0-3.6,2-5.4,4.3-5.4s2.6,1.1,3,1.9h0v-5.3h2.9v14.1h-2.9v-1.7h-.1c-.4.9-1.3,1.9-3,1.9s-4.3-1.9-4.3-5.5ZM374.3,14.3c0-1.9-.8-3.1-2.3-3.1s-2.2,1.3-2.2,3.1.8,3.2,2.2,3.2,2.3-1.3,2.3-3.2Z"/>
    <path class="st2" d="M386,14.9h-6.4v-2.3h6.4v2.3Z"/>
    <path class="st2" d="M387.2,5.4h3.2l2.4,9.9h.1l2.6-9.9h2.8l2.6,9.9h.1l2.4-9.9h3.2l-4,14.1h-2.9l-2.7-9.3h-.1l-2.7,9.3h-2.9l-4-14.1Z"/>
    <path class="st2" d="M410.3,13.3c.8,0,2.2-.1,2.6-.1v-.9c0-.9-.6-1.4-1.7-1.4s-1.6.4-1.8,1.2h-2.8c.2-1.8,1.8-3.3,4.6-3.3s4.5,1,4.5,3.6v7.1h-2.7v-1.5h0c-.5,1-1.5,1.7-3.1,1.7s-3.5-1.1-3.5-3.2c0-2.4,1.9-3.1,3.9-3.3ZM410.7,17.8c1.3,0,2.2-.9,2.2-2v-.8c-.4,0-1.7,0-2.2.1-1,0-1.6.6-1.6,1.4s.7,1.2,1.6,1.2Z"/>
    <path class="st2" d="M423.7,19.6h-3.2l-3.7-10.6h3l2.2,7.6h.1l2.2-7.6h3.1l-3.7,10.6Z"/>
    <path class="st2" d="M428.1,14.3c0-3.3,2-5.5,5.1-5.5s5,1.8,5,5.4v.8h-7.2c0,1.6,1,2.6,2.4,2.6s1.7-.4,2-1.1h2.8c-.4,2-2.2,3.2-4.8,3.2-3.2,0-5.2-2.1-5.2-5.5ZM435.4,13.2c0-1.3-.9-2.2-2.2-2.2s-2.3,1-2.3,2.2h4.5Z"/>
    <path class="st2" d="M447.6,19.6h-2.9V5.4h2.9v14.1Z"/>
    <path class="st2" d="M452.8,19.6h-2.9v-10.6h2.8v1.9h.1c.5-1.2,1.6-2,3.2-2s3.7,1.5,3.7,4v6.8h-2.9v-6.2c0-1.3-.7-2.1-1.9-2.1s-2,.8-2,2.2v6.1h0Z"/>
    <path class="st2" d="M467.5,11.1h-2.1v8.4h-2.9v-8.4h-1.5v-2.2h1.5v-.8c0-2.2,1.3-3.4,3.5-3.4s1.2,0,1.7.2v2.2c-.4,0-.7,0-.9,0-.9,0-1.4.4-1.4,1.2v.6h2.1v2.2h0Z"/>
    <path class="st2" d="M469.2,9h2.8v1.8h.1c.4-1.3,1.4-2,2.6-2s.7,0,.9,0v2.6c-.3,0-.8-.2-1.2-.2-1.3,0-2.3.9-2.3,2.2v6h-2.9v-10.6h0Z"/>
    <path class="st2" d="M480.1,13.3c.8,0,2.2-.1,2.6-.1v-.9c0-.9-.6-1.4-1.7-1.4s-1.6.4-1.8,1.2h-2.8c.2-1.8,1.8-3.3,4.6-3.3s4.5,1,4.5,3.6v7.1h-2.7v-1.5h0c-.5,1-1.5,1.7-3.1,1.7s-3.5-1.1-3.5-3.2c0-2.4,1.9-3.1,3.9-3.3ZM480.5,17.8c1.3,0,2.2-.9,2.2-2v-.8c-.4,0-1.7,0-2.2.1-1,0-1.6.6-1.6,1.4,0,.8.7,1.2,1.6,1.2Z"/>
    <path class="st2" d="M487.8,9h2.8v1.8h.1c.4-1.3,1.4-2,2.6-2s.7,0,.9,0v2.6c-.3,0-.8-.2-1.2-.2-1.3,0-2.3.9-2.3,2.2v6h-2.9v-10.6h0Z"/>
    <path class="st2" d="M494.9,14.3c0-3.3,2-5.5,5.1-5.5s5,1.8,5,5.4v.8h-7.2c0,1.6,1,2.6,2.4,2.6s1.7-.4,2-1.1h2.8c-.4,2-2.2,3.2-4.8,3.2-3.2,0-5.2-2.1-5.2-5.5ZM502.2,13.2c0-1.3-.9-2.2-2.2-2.2s-2.3,1-2.3,2.2h4.5Z"/>
    <path class="st2" d="M506.4,14.3c0-3.6,2-5.4,4.3-5.4s2.6,1.1,3,1.9h0v-5.3h2.9v14.1h-2.9v-1.7h-.1c-.4.9-1.3,1.9-3,1.9s-4.3-1.9-4.3-5.5ZM513.9,14.3c0-1.9-.8-3.1-2.3-3.1s-2.2,1.3-2.2,3.1.8,3.2,2.2,3.2,2.3-1.3,2.3-3.2Z"/>
    <path class="st2" d="M521.1,23.6h-2.8c1.3-2,2.8-5.9,2.8-9.4s-1.4-7.4-2.8-9.4h2.8c1.9,2.6,3,5.7,3,9.4s-1.1,6.7-3,9.4Z"/>
  </g>
  <g id="tx__i0wmwa1xf1xqe-fill">
    <g class="st3">
      <path class="st2" d="M49.1,219.8h-1.3v6.6c.6,0,1.2-.1,1.8-.2v1.5c-3,.5-6.4.6-9,.6l-.2-1.7h1.7v-6.8h-1.3v-1.7h8.4v1.7h0ZM45.8,226.5v-6.7h-1.7v6.8h1.7ZM52.4,222.4h2.2v1.7h-2.2v7.6h-2.1v-15.1h2.1v5.7Z"/>
      <path class="st2" d="M63.8,219.4h-3c0,1.8,1.1,3.5,3.5,4.2l-1,1.7c-1.7-.5-2.8-1.5-3.5-2.8-.7,1.5-1.9,2.7-3.7,3.3l-1.1-1.7c2.5-.8,3.6-2.7,3.7-4.7h-3.1v-1.7h8.2v1.7h0ZM67.4,228.8c0,1.8-2,2.9-5.1,2.9s-5.2-1.1-5.2-2.9,2-2.9,5.2-2.9c3.1,0,5.1,1.1,5.1,2.9ZM59.2,228.8c0,.9,1.1,1.3,3.1,1.3s3-.4,3-1.3-1-1.3-3-1.3-3.1.4-3.1,1.3ZM67.2,220.2h2v1.7h-2v3.7h-2.1v-9h2.1v3.5Z"/>
      <path class="st2" d="M74.5,225.4l-.8-1.7c3.4-.8,5.3-2.5,5.6-4.5h-4.9v-1.7h7.2c0,4-2.5,6.7-7.1,7.9ZM85.8,231.6h-9.9v-5.9h9.9v5.9ZM78,229.9h5.7v-2.5h-5.7v2.5ZM85.8,220h2v1.7h-2v3.4h-2.1v-8.4h2.1v3.3Z"/>
      <path class="st2" d="M98.2,226.9l-1.1,1.7c-1.8-.8-3-2.3-3.7-4.1-.7,2-1.9,3.7-3.7,4.5l-1.2-1.7c2.5-1.1,3.8-3.9,3.8-6.5v-.9h-3.2v-1.7h8.5v1.7h-3.2v.9c0,2.4,1.2,5,3.8,6.1ZM101.2,231.8h-2.1v-15.1h2.1v15.1Z"/>
    </g>
  </g>
  <g id="tx__4pg4iy1xf1zbc-fill">
    <g class="st3">
      <path class="st2" d="M216,224l-1.2,1.6c-1.2-.6-2-1.5-2.5-2.7-.5,1.3-1.4,2.4-2.8,3l-1.2-1.6c2.1-1,2.9-3,2.9-4.7v-2h2.1v2c0,1.7.7,3.5,2.7,4.4ZM221.9,231.5h-10.6v-4.9h2.1v3.2h8.5v1.7ZM218.5,227.5h-2v-5.7h-1.8v-1.7h1.8v-3.2h2v10.6ZM221.6,228h-2v-11.3h2v11.3Z"/>
      <path class="st2" d="M232.7,226.8l-1.3,1.7c-1.7-.8-2.8-2.3-3.4-4.2-.7,2-1.8,3.6-3.6,4.4l-1.3-1.7c2.6-1.2,3.8-4.1,3.8-6.9v-2.3h2.1v2.3c0,2.8,1.1,5.6,3.7,6.7ZM236,231.8h-2.1v-8.7h-3v-1.7h3v-4.7h2.1v15.1Z"/>
      <path class="st2" d="M249.6,219.6h-5v2.5h4.8v1.7h-4.8v2.9c2.2,0,3.9-.1,5.9-.4l.2,1.7c-2.3.3-4.4.4-7,.4h-1.3v-10.4h7.2v1.7h0ZM253.8,222.4h2.2v1.8h-2.2v7.6h-2.1v-15.1h2.1v5.7h0Z"/>
      <path class="st2" d="M265.1,220.9c0,2.1-1.8,3.5-4.1,3.5s-4.1-1.5-4.1-3.5,1.8-3.6,4.1-3.6c2.4,0,4.1,1.5,4.1,3.6ZM258.9,220.9c0,1.1.8,1.8,2.1,1.8s2-.7,2-1.8-.9-1.8-2-1.8c-1.2,0-2.1.7-2.1,1.8ZM261.2,226.9h5.9v-1.4h2.1v6.2h-10.1v-6.2h2.1v1.4h0ZM267.1,229.9v-1.4h-5.9v1.4h5.9ZM269.2,224.8h-2.1v-8.1h2.1v8.1Z"/>
    </g>
  </g>
  <g id="tx__1q5qju21xf3c3u-fill">
    <g class="st3">
      <path class="st2" d="M407.1,226.2h-13.8v-1.7h13.8v1.7ZM405.4,231.8h-2.1v-2.9h-8.4v-1.7h10.6v4.6ZM405.7,223.6h-10.6v-6.6h10.5v1.6h-8.4v.8h8v1.6h-8v.9h8.5v1.6Z"/>
      <path class="st2" d="M417,219.4h-3c0,1.7,1.2,3.4,3.6,4.1l-1.1,1.7c-1.7-.5-2.9-1.6-3.6-2.9-.7,1.5-1.9,2.7-3.7,3.3l-1.1-1.7c2.4-.8,3.6-2.6,3.7-4.5h-3.1v-1.7h8.3v1.7h0ZM420.8,228.9c0,1.9-2,2.9-5.2,2.9-3.2,0-5.2-1-5.2-2.9s2-2.9,5.2-2.9c3.2,0,5.2,1.1,5.2,2.9ZM412.5,228.9c0,.9,1.1,1.3,3.1,1.3,2,0,3.1-.4,3.1-1.3s-1.1-1.3-3.1-1.3-3.1.4-3.1,1.3ZM420.7,225.6h-2.1v-9h2.1v9Z"/>
    </g>
  </g>
  <g id="tx__1cua1gq1xf3dos-fill">
    <g class="st3">
      <path class="st2" d="M559.7,226.7h-5.9v5.1h-2.1v-5.1h-5.8v-1.7h13.8v1.7h0ZM558.5,219.1h-4.4c.2,1.5,1.9,3,5,3.3l-.8,1.7c-2.7-.4-4.6-1.5-5.5-3.1-.9,1.6-2.8,2.7-5.4,3.1l-.8-1.7c3.1-.4,4.7-1.9,5-3.3h-4.4v-1.7h11.3v1.7h0Z"/>
      <path class="st2" d="M574.4,230h-13.8v-1.7h3.1v-3.7c-1.2-.7-1.9-1.8-1.9-3.1,0-2.4,2.4-4.1,5.7-4.1s5.7,1.6,5.7,4.1c0,1.3-.7,2.4-1.8,3.1v3.7h3.1v1.7h0ZM563.9,221.5c0,1.5,1.4,2.4,3.6,2.4s3.6-.9,3.6-2.4c0-1.5-1.5-2.4-3.6-2.4-2.2,0-3.6.9-3.6,2.4ZM569.2,228.3v-2.9c-.5.1-1.1.2-1.7.2s-1.2,0-1.7-.2v2.9h3.4Z"/>
      <path class="st2" d="M593,225.5h-13.8v-1.7h3.1v-1.8c-1.1-.5-1.7-1.2-1.7-2.2,0-1.8,2.1-2.9,5.5-2.9s5.5,1.1,5.5,2.9c0,1-.7,1.7-1.8,2.2v1.8h3.2v1.7h0ZM591.3,229c0,1.8-2,2.7-5.3,2.7s-5.3-1-5.3-2.7,2-2.7,5.3-2.7,5.2,1,5.3,2.7ZM582.8,219.8c0,.8,1.2,1.2,3.3,1.2s3.3-.4,3.3-1.2-1.2-1.3-3.3-1.3-3.3.4-3.3,1.3ZM582.9,229c0,.8,1,1.2,3.1,1.2s3.1-.4,3.1-1.2c0-.7-1.1-1.1-3.1-1.1-2.1,0-3.2.4-3.1,1.1ZM587.7,223.8v-1.3c-.5,0-1,0-1.6,0s-1.1,0-1.6-.1v1.3h3.3Z"/>
      <path class="st2" d="M606.2,225.1h-4.4v3.2h5.9v1.7h-13.8v-1.7h5.8v-3.2h-4.2v-7.4h10.6v1.7h-8.5v4h8.6v1.7Z"/>
    </g>
  </g>
  <g id="tx_35m_959mne1xf1yj3-fill">
    <g class="st3">
      <path d="M15.3,249.8h1.2c0,.9.9,1.4,2,1.4s2.1-.7,2.1-1.6-.8-1.7-2.2-1.7h-.7v-1h.7c1.1,0,1.9-.6,1.9-1.6s-.7-1.5-1.7-1.5-1.9.5-1.9,1.4h-1.1c0-1.5,1.4-2.4,3-2.4s2.8,1.1,2.8,2.5c0,1-.6,1.8-1.6,2.1h0c1.2.3,1.9,1.1,1.9,2.3,0,1.5-1.4,2.6-3.2,2.6-1.8,0-3.1-1-3.2-2.4Z"/>
      <path d="M27.3,248.7h-4v-1h4v1Z"/>
      <path d="M29,249.8h1.1c0,.8.9,1.4,1.9,1.4s2.1-.9,2.1-2-.9-2.1-2.1-2.1c-.8,0-1.4.2-1.7.8h-1.1l.6-5h5v1h-4l-.3,2.7h0c.4-.3,1-.5,1.7-.5,1.8,0,3,1.3,3,3.1s-1.3,3.1-3.2,3.1c-1.7,0-2.9-1-3-2.4Z"/>
      <path d="M36.8,245.2h1.1v4.1c0,1.1.7,1.9,1.9,1.9s1.9-.8,1.9-1.9v-4.1h1.1v6.9h-1.1v-1h0c-.4.7-1.1,1.1-1.8,1.1s-1.5-.4-1.8-1.1h0v3.6h-1.1v-9.5Z"/>
      <path d="M44.5,245.2h1.1v1.1h0c.3-.7,1-1.2,1.9-1.2s1.5.4,1.8,1.2h0c.4-.7,1.1-1.2,2.1-1.2s2.1.7,2.1,2.4v4.6h-1.1v-4.6c0-1-.6-1.4-1.4-1.4s-1.5.6-1.5,1.5v4.5h-1.1v-4.7c0-.8-.6-1.3-1.3-1.3s-1.5.7-1.5,1.7v4.3h-1.1v-6.9h0Z"/>
      <path d="M59.7,244.3h3.1v-1.8h1v2.2h2.7v-2.9h1v6.6h-1v-2.8h-2.7v2.2h-5.1v-5.3h1v1.8ZM62.9,247v-1.9h-3.1v1.9h3.1ZM67.5,253h-7.4v-4h7.4s0,4,0,4ZM61.1,252.2h5.4v-2.4h-5.4v2.4Z"/>
      <path d="M76.9,247.6v.7c-1,.2-2.1.3-3.2.4v4.1h-1v-4c-1.1,0-2.2,0-3.2,0v-.9c2,0,4.9,0,7.4-.4ZM76,244.7c0,1.4-1.2,2.3-2.9,2.3-1.7,0-2.9-.9-2.9-2.3s1.2-2.3,2.9-2.3c1.7,0,2.9.9,2.9,2.3ZM71.2,244.7c0,.9.8,1.5,1.9,1.5,1.1,0,1.9-.6,1.9-1.5s-.8-1.5-1.9-1.5c-1.1,0-1.9.6-1.9,1.5ZM78.7,253.2h-1v-11.3h1v11.3Z"/>
      <path d="M88.1,249.5v.7c-2.5.5-5.3.5-7.3.5v-.9c1.9,0,4.8,0,7.3-.4ZM87.3,245.3c0,1.6-1.3,2.7-3,2.7s-3.1-1.1-3-2.7c0-1.6,1.3-2.7,3-2.7,1.8,0,3,1.1,3,2.7ZM82.2,245.3c0,1.1.9,1.8,2.1,1.8s2.1-.7,2.1-1.8-.9-1.8-2.1-1.8c-1.2,0-2.1.7-2.1,1.8ZM89.9,253.2h-1v-11.3h1v11.3Z"/>
      <path d="M101.6,243.9h-1.3v5.4c.6,0,1.2,0,1.8-.2v.7c-2.3.4-5,.4-7,.4v-.9c-.1,0,1.4,0,1.4,0v-5.6h-1.2v-.8h6.3v.8ZM99.4,249.4v-5.5h-1.9v5.6c.6,0,1.3,0,1.9,0ZM103.9,246.4h1.9v.8h-1.9v5.9h-1v-11.3h1v4.5Z"/>
      <path d="M112.9,247.4l-.5.8c-1.3-.4-2.3-1.3-2.8-2.5-.5,1.3-1.5,2.3-2.9,2.8l-.5-.8c1.7-.6,2.9-2,2.9-3.7v-.5h-2.6v-.8h6.1v.8h-2.5v.5c0,1.5,1.1,2.8,2.8,3.3ZM115.3,251c0,1.3-1.4,2.1-3.7,2.1s-3.7-.8-3.7-2.1,1.4-2.1,3.7-2.1c2.3,0,3.7.8,3.7,2.1ZM108.8,251c0,.8,1,1.3,2.7,1.3s2.8-.5,2.8-1.3-1-1.3-2.8-1.3c-1.7,0-2.8.5-2.7,1.3ZM115.2,244.7h1.7v.8h-1.7v3.1h-1v-6.8h1v2.9Z"/>
      <path d="M127.9,247.6h-10.3v-.8h10.3v.8ZM126.7,244c0,1.3-1.5,2-4,2-2.5,0-4-.7-4-2s1.5-1.9,4-1.9c2.5,0,4,.7,4,1.9ZM126.6,251.1h-6.7v1.2h7v.8h-8v-2.7h6.7v-1h-6.7v-.8h7.7v2.5h0ZM119.8,244c0,.8,1.1,1.2,3,1.2s3-.4,3-1.2-1.1-1.2-3-1.2c-1.9,0-3,.5-3,1.2Z"/>
      <path d="M42.5,264l-.4-.8c2.8-.7,4.5-2.3,4.7-4.2h-4.2v-.8h5.2c0,2.8-2,4.9-5.3,5.8ZM51,268.6h-7.1v-4.2h7.1v4.2ZM44.8,267.8h5.2v-2.6h-5.2v2.6ZM51,260.2h1.7v.8h-1.7v2.8h-1v-6.4h1v2.8Z"/>
      <path d="M60.5,265.5l-.6.8c-1.3-.6-2.5-1.9-3-3.5-.5,1.7-1.7,3.1-3,3.7l-.6-.8c1.6-.8,3-2.9,3-4.9v-1.5h-2.7v-.8h6.4v.8h-2.7v1.5c0,1.9,1.4,3.9,3.1,4.6ZM62.7,268.8h-1v-11.3h1v11.3Z"/>
      <path d="M71.4,259.5h-6.7v-.8h2.9v-1.3h1v1.3h2.9v.8h0ZM70.7,262c0,1.2-1.1,2-2.7,2s-2.7-.8-2.7-2c0-1.2,1.1-2,2.7-2,1.6,0,2.7.8,2.7,2ZM66.2,262c0,.7.7,1.2,1.8,1.2s1.8-.5,1.8-1.2c0-.7-.7-1.2-1.8-1.2-1.1,0-1.8.5-1.8,1.2ZM67.3,265.7h5.2v-1.2h1v4.1h-7.1v-4.1h1v1.2h0ZM72.5,267.8v-1.3h-5.2v1.3h5.2ZM73.4,260.4h1.7v.9h-1.7v2.8h-1v-6.6h1v2.9Z"/>
      <path d="M77.6,265c1.7,0,3.5-.1,5.4-.5v.9c-1.9.4-3.7.6-5.5.6h-.9v-7.3h1v6.4h0ZM85.2,268.8h-1v-11.3h1v11.3Z"/>
      <path d="M92.9,259.4h-4.3v5.7c2,0,3.5,0,5.2-.4v.9c-1.6.3-3.1.4-5.3.4h-.9v-7.4h5.3v.8h0ZM95.8,261.9h1.9v.8h-1.9v6h-1v-11.3h1v4.5Z"/>
      <path d="M98.7,267c0-.4.4-.8.8-.8s.8.4.8.8-.4.8-.8.8c-.4,0-.8-.4-.8-.8Z"/>
    </g>
  </g>
  <g id="tx_insbmct_9i3u1xf3bi9-fill">
    <g class="st3">
      <path d="M188.1,251.4h-4.7v4h-1v-4h-4.6v-.8h10.3v.8h0ZM187.5,248.8l-.4.8c-1.8-.3-3.5-1.2-4.2-2.6-.7,1.4-2.4,2.3-4.1,2.6l-.4-.8c2-.3,4-1.6,4-3.1h0c0,0-3.6,0-3.6,0v-.8h8.3v.8h-3.6c0,1.6,2,2.9,4,3.2Z"/>
      <path d="M199.4,254h-10.3v-.8h4.6v-2.1h-3.4v-3.5h6.8v-1.8h-6.8v-.8h7.8v3.4h-6.7v1.8h7v.8h-3.7v2.1h4.7v.8Z"/>
      <path d="M205.3,254.3h-1.1v-9.2h1.1v9.2Z"/>
      <path d="M208.3,254.3h-1.1v-6.9h1.1v1.1h0c.3-.7,1-1.2,2-1.2s2.3.9,2.3,2.6v4.4h-1.1v-4.3c0-1.1-.6-1.7-1.6-1.7s-1.7.7-1.7,1.9v4.1h0Z"/>
      <path d="M217.5,246c-1.2,0-2,.6-2,1.5s1.1,1.3,1.8,1.5l.9.3c1,.3,2.6.8,2.6,2.5s-1.2,2.7-3.3,2.7-3.2-1-3.3-2.6h1.2c.1,1,1.1,1.5,2.1,1.5s2.2-.6,2.2-1.6-.9-1.2-1.8-1.5l-1.1-.3c-1.4-.4-2.3-1.2-2.3-2.4s1.4-2.6,3.2-2.6,3.1,1,3.1,2.4h-1.1c-.1-.9-.9-1.4-2-1.4Z"/>
      <path d="M222.4,245.2h1.1v3.4h0c.2-.4.6-1.2,2-1.2s2.9,1.4,2.9,3.6-1.2,3.6-2.9,3.6-1.8-.8-2-1.2h-.1v1.1h-1.1v-9.2h0ZM225.5,253.5c1.3,0,2-1.1,2-2.6s-.7-2.6-2-2.6-2,1-2,2.6.7,2.6,2,2.6Z"/>
      <path d="M243.2,253.9h-10.3v-.8h4.6v-2.4h1v2.4h4.7v.8h0ZM237.6,246h-2.8v3.3c1,0,1.9,0,2.9-.3v.8c-1.1.3-2.2.3-3.3.3h-.6v-5h3.8v.8h0ZM242.3,250.1h-4.1v-5h3.9v.8h-2.9v3.4h3.1v.8h0Z"/>
      <path d="M254.4,250.7h-10.3v-.8h10.3v.8h0ZM253.3,255.1h-7.9v-3.3h1v2.5h6.9v.8ZM253.2,248.3h-7.7v-3.8h1v3h6.7v.8Z"/>
      <path d="M260.5,245.2l3.1,7.6h.1l3.1-7.6h1.4v9.2h-1.1v-6.9h0l-2.9,6.9h-1l-2.9-6.9h0v6.9h-1.1v-9.2h1.4Z"/>
      <path d="M273.9,246.1c-1.7,0-3,1.3-3,3.7s1.3,3.7,3,3.7,2.3-.7,2.6-1.9h1.1c-.3,1.9-1.8,3-3.7,3s-4.1-1.8-4.1-4.7,1.7-4.7,4.1-4.7,3.4,1.1,3.7,3h-1.1c-.3-1.3-1.4-2-2.6-2Z"/>
      <path d="M278.7,245.2h6.9v1h-2.9v8.2h-1.2v-8.2h-2.9v-1h0Z"/>
      <path d="M293,247.5c0,1.4-1,2.4-2.5,2.6v1.9c1.1,0,2.1-.1,3.1-.3v.8c-2.3.4-5,.4-7,.4l-.2-.8c.9,0,2,0,3,0v-2c-1.5-.2-2.5-1.2-2.5-2.6,0-1.6,1.2-2.6,3-2.7,1.7,0,3,1.1,3,2.7ZM288,247.5c0,1.1.9,1.8,2,1.8s2-.7,2-1.8c0-1.1-.9-1.8-2-1.8s-2,.7-2,1.8ZM295.3,248.7h1.8v.9h-1.8v5.8h-1v-11.3h1v4.7Z"/>
      <path d="M301.6,250.3l-.4-.8c2.9-.6,4.5-2.1,4.6-3.8h-4.2v-.8h5.3c0,2.8-2,4.7-5.3,5.5ZM310,251.4h-6.2v1.1h6.1v.8h-6.1v1.2h6.5v.8h-7.5v-4.6h7.2v.8ZM309.9,246.7h1.7v.8h-1.7v2.6h-1v-6h1v2.6Z"/>
      <path d="M322.6,250.9h-10.3v-.8h10.3v.8ZM321.5,246.7c0,1.4-1.6,2.2-4,2.2s-4-.8-4-2.2,1.5-2.2,4-2.2c2.4,0,4,.8,4,2.2ZM321.5,255.1h-7.8v-3.3h1v2.4h6.8v.8ZM314.5,246.7c0,.9,1.2,1.4,3,1.4s3-.5,3-1.4-1.2-1.4-3-1.4c-1.8,0-3,.5-3,1.4Z"/>
      <path d="M179.4,264.7c1.2,0,2.3,0,3.7-.3v.8c-1.4.3-2.7.4-4,.4h-.7v-4.9h1v4.1h0ZM187.5,268.8c0,1.3-1.5,2.1-3.8,2.1s-3.8-.8-3.8-2.1c0-1.3,1.4-2.1,3.8-2.1s3.8.8,3.8,2.1ZM180.9,268.8c0,.8,1.1,1.3,2.8,1.3s2.8-.5,2.8-1.3c0-.8-1.1-1.3-2.8-1.3s-2.8.5-2.8,1.3ZM187.4,266.5h-1v-3.1h-1.6v2.6h-.9v-6.2h.9v2.7h1.6v-2.9h1v6.8Z"/>
      <path d="M189.5,266.2l-.4-.8c2.8-.7,4.5-2.3,4.7-4.2h-4.2v-.8h5.2c0,2.9-2,4.9-5.3,5.8ZM197.9,271h-1v-3.3h-6.4v-.8h7.4v4.1h0ZM197.9,262.6h1.7v.9h-1.7v2.9h-1v-6.6h1v2.9Z"/>
      <path d="M206.7,261.8h-6.4v-.8h2.7v-1.4h1v1.4h2.7v.8h0ZM206.1,264.4c0,1.3-1.1,2.1-2.6,2.1s-2.6-.8-2.6-2.1c0-1.3,1-2.1,2.6-2.1s2.6.8,2.6,2.1ZM201.9,264.4c0,.8.6,1.3,1.6,1.3s1.6-.5,1.6-1.3c0-.8-.7-1.3-1.6-1.3-1,0-1.6.5-1.6,1.3ZM209.7,269c0,1.2-1.4,1.9-3.8,1.9s-3.8-.7-3.8-1.9,1.4-1.9,3.8-1.9c2.3,0,3.8.7,3.8,1.9ZM203.2,269c0,.7,1.1,1.1,2.8,1.1s2.7-.4,2.7-1.1-1-1.2-2.7-1.2-2.8.4-2.8,1.2ZM209.7,267h-1v-1.6h-2v-.8h2v-1.4h-2v-.8h2v-2.7h1v7.3Z"/>
      <path d="M220.4,265.5l-.6.8c-1-.5-1.8-1.3-2.2-2.4-.4,1.1-1.2,2.1-2.3,2.7l-.6-.8c1.4-.7,2.3-2.2,2.3-3.6v-1.7h1v1.7c0,1.3.8,2.7,2.3,3.3ZM224.7,270.7h-7.7v-3.6h1v2.8h6.8v.8ZM222.2,267.8h-1v-4.5h-1.8v-.8h1.8v-2.6h1v7.9ZM224.4,268.2h-1v-8.5h1v8.5Z"/>
      <path d="M233,267.6l-.6.8c-1.3-.7-2.3-2-2.8-3.6-.5,1.7-1.6,3.1-2.8,3.8l-.6-.8c1.6-.8,3-3,3-5.1v-2.1h1v2.1c0,2,1.3,4.1,2.9,4.8ZM235.4,271h-1v-6.6h-2.7v-.8h2.7v-3.9h1v11.3Z"/>
      <path d="M247.6,265.7h-10.3v-.8h10.3v.8ZM246.3,269h-6.8v1.1h7.1v.7h-8.1v-2.5h6.8v-1h-6.8v-.7h7.8v2.4h0ZM246.3,262.4h-6.7v1h6.9v.7h-7.9v-2.4h6.7v-.9h-6.7v-.7h7.7v2.3h0Z"/>
      <path d="M258.5,267.5l-.6.8c-1.2-.7-2.3-2-2.8-3.6-.5,1.7-1.6,3.1-2.8,3.8l-.6-.8c1.6-.8,3-3,3-5v-2.1h1v2.1c0,2,1.3,4,2.9,4.8ZM260.5,264.3h1.9v.9h-1.9v5.8h-1v-11.3h1v4.6Z"/>
      <path d="M273.3,266.1h-10.3v-.8h2.6v-1.6c-.9-.3-1.4-.9-1.4-1.7,0-1.3,1.5-2.1,4-2.1s4,.8,4,2.1-.5,1.3-1.4,1.7v1.6h2.6v.8h0ZM272,269c0,1.3-1.5,2-3.9,2s-3.9-.7-3.9-2,1.4-2,3.9-2c2.4,0,3.9.7,3.9,2ZM265.2,262c0,.8,1.1,1.3,3,1.3s3-.5,3-1.3-1.1-1.3-3-1.3c-1.8,0-3,.5-3,1.3ZM265.3,269c0,.8,1.1,1.2,2.9,1.2s2.9-.5,2.9-1.2-1.1-1.2-2.9-1.2c-1.8,0-2.9.5-2.9,1.2ZM269.8,265.3v-1.3c-.5,0-1,.1-1.6.1s-1.1,0-1.6-.1v1.3h3.2Z"/>
      <path d="M287.5,261.7h-6.7v-.8h2.9v-1.3h1v1.3h2.9v.8h0ZM286.9,264.2c0,1.2-1.1,2-2.7,2s-2.7-.8-2.7-2c0-1.2,1.1-2,2.7-2,1.6,0,2.7.8,2.7,2ZM282.4,264.2c0,.7.7,1.2,1.8,1.2s1.8-.5,1.8-1.2c0-.7-.7-1.2-1.8-1.2-1.1,0-1.8.5-1.8,1.2ZM283.5,268h5.2v-1.2h1v4.1h-7.1v-4.1h1v1.2h0ZM288.6,270v-1.3h-5.2v1.3h5.2ZM289.6,262.6h1.7v.9h-1.7v2.8h-1v-6.6h1v2.9Z"/>
      <path d="M293.7,267.2c1.7,0,3.5-.1,5.4-.5v.9c-1.9.4-3.7.6-5.5.6h-.9v-7.3h1v6.4h0ZM301.3,271h-1v-11.3h1v11.3Z"/>
      <path d="M309,261.6h-4.3v5.7c2,0,3.5,0,5.2-.4v.9c-1.6.3-3.1.4-5.3.4h-.9v-7.4h5.3v.8h0ZM312,264.2h1.9v.8h-1.9v6h-1v-11.3h1v4.5Z"/>
      <path d="M314.9,269.2c0-.4.4-.8.8-.8s.8.4.8.8-.4.8-.8.8c-.4,0-.8-.4-.8-.8Z"/>
    </g>
  </g>
  <g id="tx__1lpx1pm1xf3cw3-fill">
    <g class="st3">
      <path d="M368.5,251.6h-10.3v-.8h4v-4h1v4h5.3v.8h0ZM367.2,244.1c0,1.4,0,2.9-.4,5.2h-1c.4-2.3.4-3.9.4-5.2v-.3h-7v-.8h8v1.1h0Z"/>
      <path d="M379.7,248.7h-10.3v-.8h4.6v-1.2c-2.2-.1-3.5-.9-3.5-2.3s1.5-2.2,4-2.2,4,.9,4,2.2-1.4,2.2-3.5,2.3v1.2h4.6v.8h0ZM378.6,252.9h-7.8v-3.3h1v2.5h6.8v.8ZM371.6,244.4c0,.9,1.2,1.4,3,1.4s3-.5,3-1.4-1.2-1.4-3-1.4c-1.8,0-3,.6-3,1.4Z"/>
      <path d="M394.2,248.4h-10.3v-.8h10.3v.8ZM389.5,243h3.6v.8h-3.6c0,1.3,1.9,2.2,4,2.3l-.3.8c-1.9-.2-3.5-.9-4.2-2-.7,1.1-2.4,1.8-4.2,2l-.3-.8c2.1-.2,3.9-1.1,4-2.3h-3.5v-.8h3.6v-1.2h1v1.2h0ZM392.9,253.2h-1v-2.7h-6.9v-.8h7.9v3.6h0Z"/>
      <path d="M401.9,247.4l-.5.8c-1.3-.5-2.3-1.4-2.7-2.6-.5,1.3-1.5,2.4-2.9,2.9l-.5-.8c1.7-.6,2.9-2.1,2.9-3.7v-.4h-2.6v-.8h6.1v.8h-2.5v.4c0,1.5,1.1,2.9,2.8,3.4ZM404.6,251c0,1.3-1.4,2.1-3.8,2.1-2.3,0-3.8-.8-3.8-2.1s1.4-2.1,3.8-2.1c2.3,0,3.8.8,3.8,2.1ZM398,251c0,.8,1.1,1.3,2.8,1.3s2.8-.5,2.8-1.3-1.1-1.3-2.8-1.3-2.8.5-2.8,1.3ZM404.5,248.6h-1v-3h-2.3v-.8h2.3v-2.9h1v6.7Z"/>
      <path d="M413.8,252.6h-1v-5.5h-1.4c-.1,2.2-1,3.6-2.4,3.6s-2.4-1.5-2.4-3.9,1-3.9,2.4-3.9,2.3,1.3,2.4,3.5h1.5v-4.2h1v10.5h0ZM407.5,246.7c0,1.8.6,3,1.5,3,.9,0,1.5-1.1,1.5-3s-.6-3-1.5-3-1.5,1.1-1.5,3ZM416.1,253.2h-1v-11.3h1v11.3Z"/>
      <path d="M421.3,248.7l-.4-.8c2.7-.8,4.5-2.4,4.7-4.3h-4.2v-.8h5.2c0,2.9-2,5-5.3,6ZM429.8,250.9c0,1.4-1.4,2.2-3.7,2.2s-3.7-.8-3.7-2.2c0-1.3,1.4-2.2,3.7-2.2,2.3,0,3.7.8,3.7,2.2ZM423.4,250.9c0,.9,1.1,1.4,2.7,1.4s2.7-.5,2.7-1.4-1.1-1.4-2.7-1.4c-1.7,0-2.7.5-2.7,1.4ZM429.7,244.8h1.7v.8h-1.7v3h-1v-6.8h1v2.9Z"/>
      <path d="M438.8,244.5h-6.7v-.8h2.9v-1.7h1v1.7h2.8v.8h0ZM438.2,248c0,1.5-1.2,2.6-2.8,2.6s-2.8-1.1-2.8-2.6c0-1.5,1.2-2.6,2.8-2.6s2.8,1.1,2.8,2.6ZM433.7,248c0,1,.8,1.8,1.8,1.7,1,0,1.8-.7,1.8-1.7,0-1-.8-1.8-1.8-1.8s-1.8.7-1.8,1.8ZM440.9,246.5h1.9v.8h-1.9v5.8h-1v-11.3h1v4.7Z"/>
      <path d="M453.6,251.6h-10.3v-.8h4v-4h1v4h5.3v.8h0ZM452.4,244.1c0,1.4,0,2.9-.4,5.2h-1c.4-2.3.4-3.9.4-5.2v-.3h-7v-.8h8v1.1h0Z"/>
      <path d="M347.9,262.9l-.5.8c-1.3-.4-2.3-1.3-2.8-2.5-.5,1.3-1.5,2.3-2.9,2.8l-.5-.8c1.7-.6,2.9-2,2.9-3.7v-.5h-2.6v-.8h6.1v.8h-2.5v.5c0,1.5,1.1,2.8,2.8,3.3ZM350.3,266.6c0,1.3-1.4,2.1-3.7,2.1s-3.7-.8-3.7-2.1,1.4-2.1,3.7-2.1c2.3,0,3.7.8,3.7,2.1ZM343.8,266.6c0,.8,1,1.3,2.7,1.3s2.8-.5,2.8-1.3-1-1.3-2.8-1.3c-1.7,0-2.8.5-2.7,1.3ZM350.2,260.3h1.7v.8h-1.7v3.1h-1v-6.8h1v2.9Z"/>
      <path d="M353.1,266.6l-.5-.8c3.1-1.5,4.5-3.6,4.7-6.3h-4.2v-.8h5.2c0,3.2-1.4,6-5.1,7.9ZM361.9,268.8h-1v-5.9h-2.7v-.8h2.7v-4.5h1v11.3Z"/>
      <path d="M369.7,262.5h-4.2v2.7c1.9,0,3.5,0,5.6-.4v.8c-2,.3-3.7.4-5.6.4h-.9v-4.3h4.2v-2.4h-4.3v-.8h5.3v4h0ZM373.1,268.8h-1v-11.3h1v11.3Z"/>
      <path d="M378.7,264l-.4-.8c2.8-.7,4.5-2.3,4.7-4.2h-4.2v-.8h5.2c0,2.8-2,4.9-5.3,5.8ZM387.1,268.6h-7.1v-4.2h7.1v4.2ZM381,267.8h5.2v-2.6h-5.2v2.6ZM387.1,260.2h1.7v.8h-1.7v2.8h-1v-6.4h1v2.8Z"/>
      <path d="M396.6,265.5l-.6.8c-1.3-.6-2.5-1.9-3-3.5-.5,1.7-1.7,3.1-3,3.7l-.6-.8c1.6-.8,3-2.9,3-4.9v-1.5h-2.7v-.8h6.4v.8h-2.7v1.5c0,1.9,1.4,3.9,3.1,4.6ZM398.8,268.8h-1v-11.3h1v11.3Z"/>
      <path d="M408.2,268.2h-1v-5.5h-1.4c-.1,2.2-1,3.6-2.4,3.6s-2.4-1.5-2.4-3.9,1-3.9,2.4-3.9,2.3,1.3,2.4,3.5h1.5v-4.2h1v10.5h0ZM401.8,262.3c0,1.8.6,3,1.5,3,.9,0,1.5-1.1,1.5-3s-.6-3-1.5-3-1.5,1.1-1.5,3ZM410.4,268.8h-1v-11.3h1v11.3Z"/>
      <path d="M422,263l-.5.8c-1.3-.5-2.3-1.4-2.7-2.6-.5,1.3-1.5,2.3-2.9,2.8l-.5-.8c1.7-.6,2.9-2.1,2.9-3.7v-.5h-2.6v-.8h6.1v.8h-2.5v.5c0,1.5,1.1,2.9,2.8,3.4ZM424.6,268.8h-1v-3.1h-6.6v-.8h7.6v3.9h0ZM424.6,264.2h-1v-3h-2.3v-.8h2.3v-3h1v6.8Z"/>
      <path d="M433.3,259.5h-6.7v-.8h2.9v-1.3h1v1.3h2.9v.8h0ZM432.6,262c0,1.2-1.1,2-2.7,2s-2.7-.8-2.7-2c0-1.2,1.1-2,2.7-2,1.6,0,2.7.8,2.7,2ZM428.1,262c0,.7.7,1.2,1.8,1.2s1.8-.5,1.8-1.2c0-.7-.7-1.2-1.8-1.2-1.1,0-1.8.5-1.8,1.2ZM429.2,265.7h5.2v-1.2h1v4.1h-7.1v-4.1h1v1.2h0ZM434.3,267.8v-1.3h-5.2v1.3h5.2ZM435.3,260.4h1.7v.9h-1.7v2.8h-1v-6.6h1v2.9Z"/>
      <path d="M444.5,259.5h-6.7v-.8h2.9v-1.3h1v1.3h2.9v.8h0ZM443.8,262c0,1.2-1.1,2-2.7,2s-2.7-.8-2.7-2c0-1.2,1.1-2,2.7-2,1.6,0,2.7.8,2.7,2ZM439.4,262c0,.7.7,1.2,1.8,1.2s1.8-.5,1.8-1.2c0-.7-.7-1.2-1.8-1.2-1.1,0-1.8.5-1.8,1.2ZM440.4,265.7h5.2v-1.2h1v4.1h-7.1v-4.1h1v1.2h0ZM445.6,267.8v-1.3h-5.2v1.3h5.2ZM446.6,260.4h1.7v.9h-1.7v2.8h-1v-6.6h1v2.9Z"/>
      <path d="M450.7,265c1.7,0,3.5-.1,5.4-.5v.9c-1.9.4-3.7.6-5.5.6h-.9v-7.3h1v6.4h0ZM458.3,268.8h-1v-11.3h1v11.3Z"/>
      <path d="M466,259.4h-4.3v5.7c2,0,3.5,0,5.2-.4v.9c-1.6.3-3.1.4-5.3.4h-.9v-7.4h5.3v.8h0ZM468.9,261.9h1.9v.8h-1.9v6h-1v-11.3h1v4.5Z"/>
      <path d="M471.8,267c0-.4.4-.8.8-.8s.8.4.8.8-.4.8-.8.8c-.4,0-.8-.4-.8-.8Z"/>
    </g>
  </g>
  <g id="tx__18egjca1xf3eh1-fill">
    <g class="st3">
      <path d="M526.4,243.4c0,1,0,2-.3,3.5h1.6v.8h-4.6v2.7h-1v-2.7h-4.7v-.8h7.7c.3-1.5.3-2.6.3-3.5h0c0,0-6.7,0-6.7,0v-.8h7.7v.9h0ZM526.7,252.9h-7.9v-3.5h1v2.7h6.9v.8h0Z"/>
      <path d="M535.4,249.7l-.6.8c-1.2-.7-2.3-2-2.8-3.6-.5,1.7-1.6,3.1-2.8,3.8l-.6-.8c1.7-.8,3-3,3-5v-2.1h1v2.1c0,2,1.3,4,2.9,4.8ZM537.4,246.4h1.9v.9h-1.9v5.8h-1v-11.3h1v4.6Z"/>
      <path d="M543.6,248.4l-.4-.8c2.8-.7,4.5-2.3,4.7-4.2h-4.2v-.8h5.2c0,2.8-2,4.9-5.3,5.8ZM552,253h-7.1v-4.2h7.1v4.2ZM545.9,252.2h5.2v-2.6h-5.2v2.6ZM552,244.6h1.7v.8h-1.7v2.8h-1v-6.4h1v2.8Z"/>
      <path d="M561.5,249.8l-.6.8c-1.3-.6-2.4-2-2.9-3.6-.5,1.7-1.6,3.1-3,3.8l-.6-.8c1.7-.8,3.1-2.9,3.1-5.1v-2.1h1v2.1c0,2.1,1.4,4.1,3.1,4.9ZM563.7,253.2h-1v-11.3h1v11.3Z"/>
      <path d="M566.5,254.7h-.9l.7-3.5h1.2l-1,3.5Z"/>
      <path d="M579,243.9h-6.7v-.8h2.9v-1.4h1v1.4h2.9v.8h0ZM578.4,246.5c0,1.2-1.1,2-2.7,2s-2.7-.8-2.7-2c0-1.2,1.1-2,2.7-2s2.7.8,2.7,2ZM581.2,251.2c0,1.2-1.4,1.9-3.7,1.9s-3.7-.7-3.7-1.9c0-1.2,1.4-2,3.7-2,2.3,0,3.7.7,3.7,2ZM573.9,246.5c0,.7.7,1.2,1.8,1.2s1.8-.5,1.8-1.2c0-.7-.7-1.2-1.8-1.2-1.1,0-1.8.5-1.8,1.2ZM574.8,251.2c0,.7,1,1.2,2.7,1.2s2.7-.4,2.7-1.2-1-1.2-2.7-1.2c-1.7,0-2.7.4-2.7,1.2ZM581.1,245h1.7v.9h-1.7v3.3h-1v-7.3h1v3.1Z"/>
      <path d="M593.8,247.9h-10.3v-.8h4.3v-2.2h1v2.2h5v.8h0ZM592.6,251.1c0,1.3-1.5,2.1-4,2.1s-3.9-.8-3.9-2.1,1.5-2.1,3.9-2.1,4,.8,4,2.1ZM592.5,243.4c0,.9,0,1.8-.3,3h-1c.3-1.3.3-2.1.3-3h0c0-.1-6.8-.1-6.8-.1v-.8h7.7v1ZM585.6,251.1c0,.8,1.2,1.3,3,1.3s3-.5,3-1.3c0-.8-1.2-1.3-3-1.3-1.8,0-3,.5-3,1.3Z"/>
      <path d="M603.5,243.2h2.9v-1.4h1v5.8h-1v-1.3h-2.9c-.5.6-1.4,1-2.4,1-1.7,0-2.9-1-2.9-2.6s1.2-2.6,2.9-2.6c1,0,1.8.4,2.3,1ZM599.1,244.8c0,1,.8,1.8,2,1.8,1.1,0,2-.7,2-1.8s-.8-1.7-2-1.7c-1.2,0-2,.7-2,1.7ZM607.3,250.9h-6.3v1.3h6.7v.8h-7.7v-2.8h6.3v-1.1h-6.3v-.8h7.3v2.7h0ZM604,244.8c0,.3,0,.5-.1.7h2.4v-1.5h-2.4c0,.2.1.5.1.8Z"/>
      <path d="M618.2,243.4h-4.2v1.4h4v.8h-4v1.5c2.2,0,3.5,0,4.9-.3v.8c-1.4.3-2.7.3-5.1.3h-.8v-5.4h5.2v.8ZM621.3,253h-7.1v-3.9h7.1v3.9ZM615.2,252.2h5.2v-2.3h-5.2v2.3ZM621.3,244.7h1.7v.9h-1.7v3h-1v-6.7h1v2.8Z"/>
      <path d="M630.8,249.9l-.6.8c-1.3-.6-2.5-1.9-3-3.5-.5,1.7-1.7,3.1-3,3.7l-.6-.8c1.6-.8,3-2.9,3-4.9v-1.5h-2.7v-.8h6.4v.8h-2.7v1.5c0,1.9,1.4,3.9,3.1,4.6ZM633,253.2h-1v-11.3h1v11.3Z"/>
      <path d="M635.8,254.7h-.9l.7-3.5h1.2l-1,3.5Z"/>
      <path d="M555.2,263.3h-10.3v-.8h10.3v.8ZM554.2,258.6h-1.7v2.2h1.7v.8h-8.3v-.8h1.7v-2.2h-1.7v-.8h8.3v.8ZM553.9,266.8h-6.7v1.1h7v.8h-8v-2.6h6.7v-1h-6.7v-.7h7.7v2.4h0ZM551.5,260.8v-2.2h-2.9v2.2h2.9Z"/>
      <path d="M560.9,261.7h-3.3v1.7c1.5,0,2.6,0,4-.3v.8c-1.3.3-2.6.3-4.2.3h-.7v-3.3h3.3v-1.6h-3.3v-.8h4.3v3.2ZM566.1,268.5h-7.7v-3.4h1v2.6h6.8v.8ZM565.7,265.9h-1v-4.2h-1.6v3.9h-.9v-7.9h.9v3.2h1.6v-3.4h1v8.4Z"/>
      <path d="M577.7,267.3h-10.3v-.8h10.3v.8ZM576.5,264.4h-7.8v-5.9h7.7v.8h-6.7v1.7h6.4v.8h-6.4v1.8h6.8v.8Z"/>
      <path d="M588.6,262.9l-.5.8c-1.3-.5-2.3-1.4-2.7-2.6-.5,1.3-1.5,2.3-2.9,2.8l-.5-.8c1.7-.6,2.9-2.1,2.9-3.7v-.4h-2.6v-.8h6.1v.8h-2.5v.4c0,1.5,1.1,2.9,2.8,3.5ZM591.2,268.6h-7.4v-4h7.4v4ZM584.8,267.8h5.4v-2.3h-5.4v2.3ZM591.2,264.1h-1v-2.9h-2.3v-.8h2.3v-2.8h1v6.6Z"/>
      <path d="M593.6,264l-.4-.8c2.7-.8,4.4-2.3,4.6-4.2h-4v-.8h5.1c0,2.8-2,4.9-5.3,5.8ZM602.5,268.6h-7.3v-4.2h7.3v4.2ZM596.1,267.8h5.4v-2.6h-5.4v2.6ZM602.5,263.9h-1v-2.7h-2.5v-.8h2.5v-2.9h1v6.4Z"/>
      <path d="M604.7,267c0-.4.4-.8.8-.8s.8.4.8.8-.4.8-.8.8c-.4,0-.8-.4-.8-.8Z"/>
    </g>
  </g>
  <g id="cp_1_g-1_v7d9ey1xfk8wd-stroke">
    <path class="st1" d="M5.5,194.3h131.4"/>
  </g>
  <g id="cp_2_g-2_qs68dm1xfk6iv-stroke">
    <path class="st1" d="M173.8,194.3h131.4"/>
  </g>
  <g id="cp_3_g-3_qs68dm1xfk6ix-stroke">
    <path class="st1" d="M342.2,194.3h131.4"/>
  </g>
  <g id="cp_4_g-4_mccq961xfk7b7-stroke">
    <path class="st1" d="M510.6,194.3h131.4"/>
  </g>
  <g id="ic_valu_4lp6ui1xfk6iq-stroke">
    <path class="st0" d="M112.7,165.7H29.7v-83.1M43,165.7v-57.7l12.5,30.9,29.7-44.3v69.2M55.7,165.7v-76.6l18.1,46.8,22.5-8.1,3.9-16.6,12.5-16.6v69.2"/>
  </g>
  <g id="ic_door_90w7vu1xflma3-stroke">
    <path class="st0" d="M241.4,126v25.8c0,2-1.7,3.7-3.7,3.7h-14.8M202.3,89.8l18.6,9.3c1.2.6,2,1.9,2,3.3v61.2c0,.6-.3,1.2-.9,1.6s-1.2.4-1.8,0l-17.4-8.7c-1.3-.6-2-1.9-2-3.3v-60.5c0-2,1.7-3.7,3.7-3.7h33.2c2,0,3.7,1.7,3.7,3.7v3.7M248.8,81.7h18.5v3.7c0,2-1.7,3.7-3.7,3.7h-11.1c-2,0-3.7-1.7-3.7-3.7v-3.7h0ZM263.2,96.2c-2.9,2.9-7.6,2.9-10.4,0M271.1,104c-7.2,7.2-18.9,7.2-26.1,0M278.9,111.8c-11.5,11.5-30.2,11.5-41.8,0"/>
  </g>
  <g id="ic_temp_deuaqy1xfn0n8-stroke">
    <path class="st0" d="M423.7,87c14,0,25.3,11.3,25.3,25.3M423.7,102.8c5.2,0,9.5,4.2,9.5,9.5M404.8,140.9v-44.3c0-2.5-1-5-2.8-6.8-1.8-1.8-4.2-2.8-6.7-2.8h0c-5.2,0-9.5,4.2-9.5,9.5v44.3c-4.7,3.6-7,9.6-5.9,15.4,1.1,5.9,5.4,10.6,11.1,12.2,7.2,1.7,14.5-1.8,17.8-8.3,3.3-6.6,1.6-14.6-4.1-19.3Z"/>
  </g>
  <g id="ic_arm_1iga21xf1zil-stroke">
    <path class="st0" d="M580.9,143.6v-18.5l-22.2,12v-12l-24,12v28.6h83.1v-22.2h-36.9ZM569.8,152.8c0-2-1.7-3.7-3.7-3.7h-11.1c-2,0-3.7,1.7-3.7,3.7v12.9h18.5v-12.9h0ZM588.3,154.6h3.7M603,154.6h3.7M593.8,120.5h18.5v23.1h-18.5v-23.1ZM608.5,99.3l3.8,21.2h-18.5l3.8-21.2M593.8,91.9c0,5.1,4.1,9.2,9.2,9.2s9.2-4.1,9.2-9.2-4.1-9.2-9.2-9.2c-5.1,0-9.2,4.1-9.2,9.2M603,88.2c-2,0-3.7,1.7-3.7,3.7s1.7,3.7,3.7,3.7,3.7-1.7,3.7-3.7-1.7-3.7-3.7-3.7ZM550.4,82.6h11.1v18.5h-11.1v-18.5ZM593.8,91.9h-32.3M550.4,95.4c-.8,0-1.6.2-2.3.7l-9.2,7.4c-.8.7-1.3,1.6-1.4,2.7,0,1,.3,2.1,1.1,2.8l5.5,5.5c.9,1,2.3,1.5,3.6,1.1,1.3-.3,2.4-1.4,2.7-2.7.3-1.3,0-2.7-1.1-3.6l-2.6-2.6,6-4.8c.2-.2.5-.5.6-.8M558.6,101.1c.2.3.4.5.6.8l6,4.8-2.6,2.6c-1.4,1.4-1.4,3.8,0,5.2,1.4,1.4,3.8,1.4,5.2,0l5.5-5.5c.7-.7,1.1-1.8,1.1-2.8,0-1-.6-2-1.4-2.7l-9.2-7.4c-.7-.5-1.5-.8-2.3-.8"/>
  </g>
</svg>