<?xml version="1.0" encoding="UTF-8"?>
<svg id="Layer_1" xmlns="http://www.w3.org/2000/svg" version="1.1" xmlns:xlink="http://www.w3.org/1999/xlink" viewBox="0 0 650 282">
  <!-- Generator: Adobe Illustrator 29.3.1, SVG Export Plug-In . SVG Version: 2.1.0 Build 151)  -->
  <defs>
    <style>
      .st0 {
        stroke: #b228e0;
      }

      .st0, .st1 {
        fill: none;
        stroke-miterlimit: 10;
        stroke-width: 2px;
      }

      .st2 {
        fill: #b228e0;
      }

      .st1 {
        stroke: #eed6f6;
      }

      .st3 {
        isolation: isolate;
      }
    </style>
  </defs>
  <g class="st3">
    <path class="st2" d="M143.4,20h-6.8v1.3c3.1.2,4.9,1.3,4.9,3.2,0,2-2.3,3.2-6.2,3.2s-6.2-1.1-6.2-3.2,1.8-2.9,5-3.2v-1.3h-6.8v-2h16.1v2h0ZM142,12.7h-4.8c.4,1.2,2.2,2.4,5.6,2.7l-.9,1.9c-3.3-.3-5.6-1.6-6.5-3.3-.9,1.7-3.1,3-6.5,3.3l-.8-1.9c3.3-.3,5.1-1.5,5.5-2.7h-4.8v-1.9h13.2v1.9ZM131.7,24.5c0,.9,1.2,1.3,3.7,1.3s3.7-.5,3.7-1.3c0-.9-1.3-1.3-3.7-1.3-2.5,0-3.7.4-3.7,1.3Z"/>
    <path class="st2" d="M154.6,13.6h-1.6v7.7c.7,0,1.4-.1,2.1-.2v1.8c-3.5.6-7.5.7-10.6.7l-.3-2h2v-8h-1.6v-2h9.9v2h0ZM150.6,21.5v-7.9h-1.9v7.9h1.9ZM158.5,16.7h2.6v2h-2.6v8.9h-2.5V10h2.5v6.7Z"/>
    <path class="st2" d="M174.7,11.8h4v-1.8h2.5v8.9h-2.5v-1.5h-4c-.8.8-2.1,1.3-3.5,1.3-2.7,0-4.7-1.7-4.7-4.1,0-2.4,2-4.1,4.7-4.1,1.4,0,2.7.5,3.5,1.3ZM168.9,14.6c0,1.3,1,2.1,2.4,2.1s2.3-.8,2.3-2.1-1-2.1-2.3-2.1-2.4.8-2.4,2.1ZM181.2,24.4h-9.3v1.1h9.8v1.9h-12.3v-4.9h9.3v-1h-9.3v-1.9h11.8v4.8h0ZM175.9,14.6c0,.3,0,.6,0,.8h2.9v-1.7h-2.9c0,.3,0,.5,0,.8Z"/>
    <path class="st2" d="M187.7,22.7v-1.5c-1.9-.4-3.1-1.6-3.1-3.2,0-2,1.8-3.3,4.4-3.3s4.3,1.3,4.4,3.3c0,1.6-1.3,2.8-3.1,3.2v1.4c1.4,0,2.8-.2,4.1-.4l.2,1.8c-3.8.7-7.8.7-10.8.7l-.3-2c1.3,0,2.8,0,4.4,0ZM194.1,13.9h-10.5v-1.9h4v-1.9h2.5v1.9h4v1.9ZM186.9,17.9c0,.9.8,1.4,2,1.4s2-.5,2-1.4-.8-1.4-2-1.4-2,.5-2,1.4ZM197.6,17.2h2.3v2.1h-2.3v8.4h-2.5V10h2.5v7.2Z"/>
    <path class="st2" d="M211.2,17.9l-1.3,1.9c-1.9-.6-3.2-1.8-3.9-3.4-.8,1.8-2.1,3.2-4.2,3.9l-1.3-1.9c3-1,4.2-3.3,4.2-5.8v-1.6h2.5v1.8c0,2.1,1.2,4.2,4,5.1ZM214.9,24.3c0,2.2-2.3,3.4-6,3.4s-6.1-1.2-6.1-3.4,2.3-3.4,6.1-3.4c3.7,0,6,1.3,6,3.4ZM205.4,24.3c0,1,1.2,1.5,3.6,1.5s3.5-.5,3.5-1.5-1.2-1.5-3.5-1.5c-2.3,0-3.6.5-3.6,1.5ZM214.7,14.1h2.4v2.1h-2.4v4.3h-2.5v-10.5h2.5v4.1Z"/>
    <path class="st2" d="M219.2,25l-1.4-1.9c3-1.5,4.7-3.1,5.7-5.1l-5.2.5-.3-2.1,6.3-.4c.2-.7.3-1.5.4-2.4h-5.7v-2h8.2c0,5.5-1.3,10-8,13.3ZM231.9,16.8h2.5v2h-2.5v8.8h-2.5V10h2.5v6.8Z"/>
    <path class="st2" d="M242.6,16.4h1.8v-6.2h2.3v16.6h-2.3v-8.5h-1.8v4.8h-7v-11.4h7v4.6ZM237.9,21.3h2.4v-7.5h-2.4v7.5ZM250.4,27.7h-2.4V10h2.4v17.7Z"/>
    <path class="st2" d="M261.2,18.3h-5.7v3.2c2.6,0,4.7-.1,7.1-.5l.2,2c-2.7.5-5.1.6-8.2.6h-1.5v-7.2h5.7v-2.9h-5.7v-2h8.2v6.9h0ZM266.3,16.7h2.6v2h-2.6v9h-2.4V10h2.4v6.7Z"/>
    <path class="st2" d="M278.1,11.2h2.7c-1.3,1.9-2.7,5.8-2.7,9.3s1.4,7.4,2.7,9.3h-2.7c-1.9-2.6-3-5.7-3-9.3s1.1-6.7,3-9.3Z"/>
    <path class="st2" d="M286.1,11.8l3.9,9.5h.2l3.9-9.5h3.6v14.1h-2.8v-9.2h-.1l-3.7,9.2h-1.9l-3.7-9.2h-.1v9.3h-2.8v-14.1h3.6Z"/>
    <path class="st2" d="M299.2,11.8h3.2l2.4,9.8h.1l2.6-9.8h2.7l2.6,9.9h.1l2.4-9.9h3.2l-4,14.1h-2.9l-2.7-9.3h-.1l-2.7,9.3h-2.9l-4-14.1Z"/>
    <path class="st2" d="M322.9,25.9h-2.9v-14.1h2.9v14.1Z"/>
    <path class="st2" d="M325.2,11.8h5.5c3.2,0,5,1.8,5,4.6s-.9,3.3-2.5,4l3,5.5h-3.2l-2.7-5h-2.2v5h-2.9v-14.1h0ZM330.2,18.5c1.7,0,2.6-.7,2.6-2.1s-.8-2.2-2.6-2.2h-2.1v4.3h2.1Z"/>
    <path class="st2" d="M339.2,30h-2.1l1-5.5h2.8l-1.7,5.5Z"/>
    <path class="st2" d="M351.1,11.8l3.9,9.5h.2l3.9-9.5h3.6v14.1h-2.8v-9.2h-.1l-3.7,9.2h-1.9l-3.7-9.2h-.1v9.3h-2.8v-14.1h3.6Z"/>
    <path class="st2" d="M364.9,12.5c0-.8.7-1.5,1.6-1.5s1.6.7,1.6,1.5-.7,1.5-1.6,1.5-1.6-.7-1.6-1.5ZM365,15.3h2.9v10.6h-2.9v-10.6Z"/>
    <path class="st2" d="M369.7,20.6c0-3.6,2-5.4,4.3-5.4s2.6,1,3,1.9h0v-5.3h2.9v14.1h-2.8v-1.7h-.1c-.4.9-1.3,1.9-3,1.9s-4.3-1.9-4.3-5.4ZM377.1,20.6c0-1.9-.8-3.1-2.3-3.1s-2.2,1.3-2.2,3.1.8,3.2,2.2,3.2,2.3-1.3,2.3-3.2Z"/>
    <path class="st2" d="M388.8,21.3h-6.4v-2.3h6.4v2.3Z"/>
    <path class="st2" d="M390,11.8h3.2l2.4,9.8h.1l2.6-9.8h2.7l2.6,9.9h.1l2.4-9.9h3.2l-4,14.1h-2.9l-2.7-9.3h-.1l-2.7,9.3h-2.9l-4-14.1Z"/>
    <path class="st2" d="M413,19.7c.8,0,2.2-.1,2.6-.1v-.9c0-.9-.6-1.4-1.7-1.4s-1.6.4-1.7,1.2h-2.7c.2-1.8,1.8-3.3,4.6-3.3s4.5,1,4.5,3.6v7.1h-2.7v-1.5h0c-.5,1-1.5,1.7-3.1,1.7s-3.5-1-3.5-3.1c0-2.3,1.9-3.1,3.9-3.2ZM413.4,24.1c1.3,0,2.2-.9,2.2-2v-.8c-.4,0-1.7,0-2.2.1-1,0-1.6.6-1.6,1.4,0,.8.7,1.2,1.6,1.2Z"/>
    <path class="st2" d="M426.3,25.9h-3.2l-3.7-10.6h3l2.2,7.6h.1l2.2-7.6h3.1l-3.7,10.6Z"/>
    <path class="st2" d="M430.7,20.7c0-3.3,2-5.5,5.1-5.5s5,1.7,5,5.3v.8h-7.2c0,1.6,1,2.6,2.4,2.6s1.7-.4,2-1.1h2.7c-.4,1.9-2.2,3.2-4.8,3.2-3.2,0-5.2-2.1-5.2-5.4ZM438,19.6c0-1.3-.9-2.2-2.2-2.2s-2.3,1-2.3,2.2h4.5Z"/>
    <path class="st2" d="M450.1,25.9h-2.9v-14.1h2.9v14.1Z"/>
    <path class="st2" d="M455.3,25.9h-2.9v-10.6h2.7v1.8h.1c.5-1.2,1.6-2,3.2-2s3.7,1.5,3.6,4v6.7h-2.9v-6.2c0-1.3-.7-2.1-1.9-2.1s-2,.8-2,2.2v6.1Z"/>
    <path class="st2" d="M469.9,17.5h-2.1v8.4h-2.9v-8.4h-1.5v-2.2h1.5v-.8c0-2.2,1.3-3.4,3.5-3.4s1.2,0,1.7.2v2.2c-.4,0-.7,0-.9,0-.9,0-1.4.4-1.4,1.2v.6h2.1v2.2Z"/>
    <path class="st2" d="M471.6,15.3h2.8v1.8h.1c.4-1.3,1.4-2,2.5-2s.7,0,.9,0v2.6c-.3,0-.8-.2-1.2-.2-1.3,0-2.3.9-2.3,2.2v6h-2.9v-10.6Z"/>
    <path class="st2" d="M482.5,19.7c.8,0,2.2-.1,2.6-.1v-.9c0-.9-.6-1.4-1.7-1.4s-1.6.4-1.7,1.2h-2.7c.2-1.8,1.8-3.3,4.6-3.3s4.5,1,4.5,3.6v7.1h-2.7v-1.5h0c-.5,1-1.5,1.7-3.1,1.7s-3.5-1-3.5-3.1c0-2.3,1.9-3.1,3.9-3.2ZM482.9,24.1c1.3,0,2.2-.9,2.2-2v-.8c-.4,0-1.7,0-2.2.1-1,0-1.6.6-1.6,1.4s.7,1.2,1.6,1.2Z"/>
    <path class="st2" d="M490.2,15.3h2.8v1.8h.1c.4-1.3,1.4-2,2.5-2s.7,0,.9,0v2.6c-.3,0-.8-.2-1.2-.2-1.3,0-2.3.9-2.3,2.2v6h-2.9v-10.6h0Z"/>
    <path class="st2" d="M497.2,20.7c0-3.3,2-5.5,5.1-5.5s5,1.7,5,5.3v.8h-7.2c0,1.6,1,2.6,2.4,2.6s1.7-.4,2-1.1h2.7c-.4,1.9-2.2,3.2-4.8,3.2-3.2,0-5.2-2.1-5.2-5.4ZM504.5,19.6c0-1.3-.9-2.2-2.2-2.2s-2.3,1-2.3,2.2h4.5Z"/>
    <path class="st2" d="M508.6,20.6c0-3.6,2-5.4,4.3-5.4s2.6,1,3,1.9h0v-5.3h2.9v14.1h-2.8v-1.7h-.1c-.4.9-1.3,1.9-3,1.9s-4.3-1.9-4.3-5.4ZM516,20.6c0-1.9-.8-3.1-2.3-3.1s-2.2,1.3-2.2,3.1.8,3.2,2.2,3.2,2.3-1.3,2.3-3.2Z"/>
    <path class="st2" d="M523.3,29.9h-2.7c1.3-1.9,2.7-5.8,2.7-9.3s-1.4-7.4-2.7-9.3h2.7c1.9,2.6,3,5.7,3,9.3s-1.1,6.7-3,9.3Z"/>
  </g>
  <g id="g-root-tx__i0wmwa1xf1xqe-fill">
    <g id="tx__i0wmwa1xf1xqe-fill">
      <g class="st3">
        <path class="st2" d="M54.8,226.6h-1.2v5.8c.5,0,1.1,0,1.6-.2v1.3c-2.6.5-5.7.5-8,.5l-.2-1.5h1.5v-6h-1.2v-1.5h7.4v1.5h0ZM51.8,232.5v-5.9h-1.5v6h1.5ZM57.7,229h2v1.5h-2v6.7h-1.9v-13.3h1.9v5.1Z"/>
        <path class="st2" d="M67.7,226.3h-2.7c0,1.6.9,3.1,3.1,3.7l-.9,1.5c-1.5-.4-2.5-1.3-3.1-2.5-.6,1.3-1.7,2.4-3.3,2.9l-1-1.5c2.2-.7,3.2-2.4,3.2-4.1h-2.7v-1.5h7.3s0,1.5,0,1.5ZM70.8,234.6c0,1.6-1.7,2.6-4.5,2.6s-4.6-1-4.6-2.6,1.7-2.6,4.6-2.6c2.8,0,4.5.9,4.5,2.6ZM63.6,234.6c0,.8.9,1.1,2.7,1.1s2.7-.4,2.7-1.1-.9-1.1-2.7-1.1-2.7.4-2.7,1.1ZM70.7,227h1.8v1.5h-1.8v3.3h-1.9v-7.9h1.9v3.1Z"/>
        <path class="st2" d="M77.1,231.6l-.7-1.5c3-.7,4.6-2.2,5-4h-4.3v-1.5h6.3c0,3.5-2.2,5.9-6.2,7ZM87.1,237.1h-8.7v-5.2h8.7s0,5.2,0,5.2ZM80.3,235.6h5v-2.2h-5v2.2ZM87.1,226.8h1.8v1.5h-1.8v3h-1.9v-7.5h1.9v2.9Z"/>
        <path class="st2" d="M98,232.9l-1,1.5c-1.6-.7-2.7-2-3.3-3.6-.6,1.8-1.7,3.2-3.3,4l-1.1-1.5c2.2-1,3.4-3.5,3.4-5.7v-.8h-2.8v-1.5h7.5v1.5h-2.8v.8c0,2.2,1.1,4.5,3.3,5.4ZM100.7,237.2h-1.9v-13.3h1.9v13.3Z"/>
      </g>
    </g>
  </g>
  <g id="g-root-tx__4pg4iy1xf1zbc-fill">
    <g id="tx__4pg4iy1xf1zbc-fill">
      <g class="st3">
        <path class="st2" d="M221.8,230.4l-1,1.4c-1.1-.5-1.8-1.3-2.2-2.4-.5,1.2-1.3,2.1-2.4,2.7l-1-1.4c1.8-.9,2.5-2.6,2.5-4.2v-1.7h1.8v1.7c0,1.5.7,3.1,2.4,3.9ZM227,237h-9.4v-4.3h1.9v2.8h7.5v1.5ZM224,233.5h-1.8v-5h-1.6v-1.5h1.6v-2.8h1.8v9.4ZM226.7,233.9h-1.8v-10h1.8v10Z"/>
        <path class="st2" d="M236.4,232.8l-1.1,1.5c-1.5-.7-2.5-2.1-3-3.7-.6,1.7-1.6,3.2-3.1,3.9l-1.2-1.5c2.3-1,3.3-3.6,3.3-6.1v-2h1.9v2c0,2.5,1,4.9,3.2,5.9ZM239.4,237.3h-1.8v-7.7h-2.6v-1.5h2.6v-4.2h1.8v13.4Z"/>
        <path class="st2" d="M251.4,226.5h-4.4v2.2h4.2v1.5h-4.2v2.5c1.9,0,3.5,0,5.2-.4l.2,1.5c-2,.3-3.9.4-6.2.4h-1.1v-9.2h6.3v1.5h0ZM255.1,228.9h2v1.6h-2v6.7h-1.9v-13.3h1.9v5.1Z"/>
        <path class="st2" d="M265.1,227.6c0,1.8-1.6,3.1-3.6,3.1s-3.6-1.3-3.6-3.1,1.6-3.2,3.6-3.2c2.1,0,3.6,1.3,3.6,3.2ZM259.6,227.6c0,1,.7,1.6,1.8,1.6s1.8-.6,1.8-1.6-.8-1.6-1.8-1.6-1.8.6-1.8,1.6ZM261.6,232.9h5.2v-1.2h1.9v5.4h-8.9v-5.4h1.8v1.2ZM266.9,235.6v-1.2h-5.2v1.2h5.2ZM268.7,231.1h-1.9v-7.2h1.9v7.2Z"/>
      </g>
    </g>
  </g>
  <g id="g-root-tx__1q5qju21xf3c3u-fill">
    <g id="tx__1q5qju21xf3c3u-fill">
      <g class="st3">
        <path class="st2" d="M410.2,232.3h-12.2v-1.5h12.2v1.5ZM408.7,237.2h-1.9v-2.6h-7.4v-1.5h9.3v4.1h0ZM408.9,230h-9.4v-5.8h9.2v1.5h-7.4v.7h7.1v1.4h-7.1v.8h7.5v1.4Z"/>
        <path class="st2" d="M418.9,226.3h-2.7c0,1.5,1.1,3,3.2,3.6l-1,1.5c-1.5-.5-2.5-1.4-3.1-2.6-.6,1.3-1.7,2.4-3.3,2.9l-1-1.5c2.2-.7,3.2-2.3,3.2-4h-2.7v-1.5h7.3v1.5h0ZM422.2,234.7c0,1.7-1.8,2.6-4.6,2.6-2.8,0-4.6-.9-4.6-2.6s1.7-2.6,4.6-2.6c2.8,0,4.6,1,4.6,2.6ZM414.9,234.7c0,.8.9,1.2,2.7,1.1,1.8,0,2.7-.4,2.7-1.1s-1-1.1-2.7-1.1c-1.8,0-2.7.4-2.7,1.1ZM422.1,231.8h-1.9v-7.9h1.9v7.9Z"/>
      </g>
    </g>
  </g>
  <g id="g-root-tx__1cua1gq1xf3dos-fill">
    <g id="tx__1cua1gq1xf3dos-fill">
      <g class="st3">
        <path class="st2" d="M564.7,232.7h-5.2v4.5h-1.8v-4.5h-5.1v-1.5h12.2v1.5h0ZM563.6,226.1h-3.9c.2,1.3,1.7,2.6,4.4,2.9l-.7,1.5c-2.3-.3-4-1.3-4.8-2.7-.8,1.4-2.5,2.4-4.8,2.7l-.7-1.5c2.7-.3,4.2-1.6,4.4-2.9h-3.9v-1.5h10v1.5h0Z"/>
        <path class="st2" d="M577.7,235.7h-12.2v-1.5h2.7v-3.3c-1-.6-1.7-1.6-1.7-2.7,0-2.2,2.1-3.6,5-3.6s5,1.4,5,3.6c0,1.2-.6,2.1-1.6,2.7v3.3h2.7v1.5h0ZM568.4,228.1c0,1.3,1.3,2.1,3.2,2.1s3.2-.8,3.2-2.1c0-1.3-1.3-2.1-3.2-2.1s-3.2.8-3.2,2.1ZM573.1,234.1v-2.6c-.5,0-1,.1-1.5.1s-1,0-1.5-.1v2.6h3Z"/>
        <path class="st2" d="M594.1,231.7h-12.2v-1.5h2.7v-1.6c-1-.4-1.5-1.1-1.5-1.9,0-1.6,1.9-2.6,4.9-2.6s4.8,1,4.9,2.6c0,.9-.6,1.5-1.6,2v1.6h2.8v1.5h0ZM592.6,234.8c0,1.6-1.8,2.4-4.6,2.4s-4.7-.8-4.7-2.4,1.7-2.4,4.7-2.4,4.6.8,4.6,2.4ZM585.1,226.7c0,.7,1,1.1,2.9,1.1s2.9-.4,2.9-1.1-1.1-1.1-2.9-1.1c-1.9,0-2.9.4-2.9,1.1ZM585.2,234.8c0,.7.9,1,2.8,1s2.8-.3,2.8-1c0-.7-1-1-2.8-1s-2.8.3-2.8,1ZM589.4,230.2v-1.1c-.4,0-.9,0-1.4,0s-1,0-1.4,0v1.1h2.9Z"/>
        <path class="st2" d="M605.7,231.3h-3.9v2.8h5.2v1.5h-12.2v-1.5h5.1v-2.8h-3.7v-6.5h9.3v1.5h-7.5v3.5h7.6v1.5h0Z"/>
      </g>
    </g>
  </g>
  <g id="g-root-tx_35m_959mne1xf1yj3-fill">
    <g id="tx_35m_959mne1xf1yj3-fill">
      <g class="st3">
        <path d="M26.6,255.8h1c0,.7.8,1.2,1.7,1.2s1.8-.6,1.8-1.4-.7-1.5-1.9-1.5h-.6v-.9h.6c1,0,1.6-.5,1.6-1.3s-.6-1.3-1.5-1.3-1.6.5-1.6,1.2h-.9c0-1.2,1.2-2.1,2.6-2.1s2.4,1,2.4,2.1c0,.9-.5,1.5-1.3,1.8h0c1,.2,1.6.9,1.6,1.9,0,1.3-1.2,2.2-2.7,2.2s-2.7-.8-2.7-2.1Z"/>
        <path d="M36.8,254.8h-3.4v-.9h3.4v.9Z"/>
        <path d="M38.3,255.8h.9c0,.7.8,1.2,1.6,1.2s1.8-.7,1.8-1.7-.8-1.8-1.8-1.8c-.7,0-1.2.2-1.5.7h-.9l.6-4.3h4.2v.9h-3.4l-.3,2.3h0c.3-.3.9-.5,1.4-.5,1.5,0,2.6,1.1,2.6,2.6s-1.1,2.6-2.7,2.6c-1.4,0-2.5-.9-2.5-2.1Z"/>
        <path d="M44.9,251.9h.9v3.5c0,1,.6,1.6,1.6,1.6s1.6-.6,1.6-1.6v-3.5h.9v5.9h-.9v-.9h0c-.3.6-.9.9-1.6.9s-1.2-.3-1.6-.9h0v3.1h-.9v-8.1h0Z"/>
        <path d="M51.4,251.9h.9v.9h0c.2-.6.8-1,1.6-1s1.3.4,1.6,1h0c.3-.6.9-1,1.8-1s1.8.6,1.8,2v3.9h-.9v-3.9c0-.9-.6-1.2-1.2-1.2s-1.3.6-1.3,1.3v3.8h-.9v-4c0-.7-.5-1.1-1.1-1.1s-1.3.6-1.3,1.4v3.7h-.9v-5.9h0Z"/>
        <path d="M64.4,251.1h2.7v-1.5h.8v1.9h2.3v-2.4h.9v5.6h-.9v-2.4h-2.3v1.9h-4.4v-4.5h.8v1.5ZM67.1,253.4v-1.6h-2.7v1.6h2.7ZM71.1,258.5h-6.3v-3.4h6.3v3.4ZM65.6,257.8h4.6v-2.1h-4.6v2.1Z"/>
        <path d="M79.1,253.9v.6c-.9.2-1.8.3-2.7.3v3.5h-.8v-3.4c-1,0-1.9,0-2.7,0v-.7c1.7,0,4.1,0,6.3-.3ZM78.3,251.5c0,1.2-1,2-2.5,2-1.4,0-2.5-.8-2.5-2s1-2,2.5-2c1.4,0,2.5.8,2.5,2ZM74.2,251.5c0,.8.7,1.3,1.6,1.3,1,0,1.7-.5,1.7-1.3s-.7-1.3-1.7-1.3c-1,0-1.6.5-1.6,1.3ZM80.6,258.6h-.8v-9.6h.8v9.6Z"/>
        <path d="M88.6,255.5v.6c-2.1.4-4.5.4-6.2.4v-.7c1.7,0,4.1,0,6.2-.3ZM88,252c0,1.3-1.1,2.3-2.6,2.3s-2.6-.9-2.6-2.3c0-1.3,1.1-2.3,2.6-2.3,1.5,0,2.6.9,2.6,2.3ZM83.6,252c0,.9.7,1.5,1.8,1.5s1.8-.6,1.8-1.5-.7-1.5-1.8-1.5c-1,0-1.8.6-1.8,1.5ZM90.1,258.7h-.8v-9.6h.8v9.6Z"/>
        <path d="M100.1,250.8h-1.1v4.6c.5,0,1,0,1.5-.1v.6c-2,.3-4.3.4-6,.4v-.7c-.1,0,1.2,0,1.2,0v-4.7h-1.1v-.7h5.4v.7h0ZM98.2,255.4v-4.7h-1.6v4.7c.5,0,1.1,0,1.6,0ZM102,252.9h1.6v.7h-1.6v5h-.8v-9.6h.8v3.9Z"/>
        <path d="M109.8,253.7l-.4.7c-1.1-.4-1.9-1.1-2.4-2.1-.4,1.1-1.3,2-2.5,2.4l-.4-.7c1.4-.5,2.4-1.7,2.5-3.1v-.4h-2.2v-.7h5.2v.7h-2.2v.4c0,1.3.9,2.4,2.4,2.8ZM111.8,256.8c0,1.1-1.2,1.8-3.2,1.8s-3.2-.6-3.2-1.8,1.2-1.8,3.2-1.8,3.2.6,3.2,1.8ZM106.3,256.8c0,.7.9,1.1,2.3,1.1s2.3-.4,2.3-1.1-.9-1.1-2.3-1.1-2.3.4-2.3,1.1ZM111.7,251.5h1.4v.7h-1.4v2.6h-.8v-5.8h.8v2.5Z"/>
        <path d="M122.5,253.9h-8.8v-.7h8.8v.7ZM121.5,250.8c0,1.1-1.3,1.7-3.4,1.7-2.1,0-3.4-.6-3.4-1.7s1.3-1.7,3.4-1.7,3.4.6,3.4,1.7ZM121.4,256.9h-5.7v1h6v.7h-6.8v-2.3h5.7v-.9h-5.7v-.6h6.6v2.2h0ZM115.6,250.8c0,.7.9,1,2.5,1s2.5-.4,2.5-1-.9-1-2.5-1c-1.6,0-2.5.4-2.5,1Z"/>
        <path d="M49.8,267.9l-.3-.7c2.4-.6,3.8-1.9,4-3.5h-3.6v-.7h4.5c0,2.4-1.7,4.1-4.5,4.9ZM57,271.8h-6.1v-3.6h6.1v3.6ZM51.7,271.1h4.4v-2.2h-4.4v2.2ZM57,264.7h1.4v.7h-1.4v2.4h-.8v-5.5h.8v2.4Z"/>
        <path d="M65.1,269.2l-.5.7c-1.1-.5-2.1-1.6-2.5-2.9-.5,1.4-1.4,2.6-2.5,3.2l-.5-.7c1.4-.7,2.6-2.5,2.6-4.1v-1.3h-2.3v-.7h5.4v.7h-2.3v1.3c0,1.6,1.2,3.3,2.6,3.9ZM67,271.9h-.9v-9.6h.9v9.6Z"/>
        <path d="M74.4,264h-5.7v-.7h2.4v-1.1h.8v1.1h2.4v.7h0ZM73.8,266.1c0,1-.9,1.7-2.3,1.7s-2.3-.7-2.3-1.7c0-1,.9-1.7,2.3-1.7,1.4,0,2.3.7,2.3,1.7ZM70,266.1c0,.6.6,1,1.5,1s1.5-.4,1.5-1c0-.6-.6-1-1.5-1-.9,0-1.5.4-1.5,1ZM70.9,269.3h4.4v-1h.8v3.5h-6.1v-3.5h.8v1ZM75.3,271.1v-1.1h-4.4v1.1h4.4ZM76.1,264.8h1.4v.7h-1.4v2.4h-.8v-5.6h.8v2.5Z"/>
        <path d="M79.6,268.7c1.5,0,3-.1,4.6-.5v.7c-1.6.4-3.1.5-4.6.5h-.8v-6.2h.8v5.4ZM86.1,271.9h-.8v-9.6h.8v9.6Z"/>
        <path d="M92.7,264h-3.6v4.9c1.7,0,3,0,4.4-.3v.7c-1.4.3-2.7.3-4.5.3h-.8v-6.3h4.5s0,.7,0,.7ZM95.2,266.1h1.6v.7h-1.6v5.1h-.8v-9.6h.8v3.8Z"/>
        <path d="M97.7,270.4c0-.4.3-.7.7-.7s.7.3.7.7-.3.7-.7.7-.7-.3-.7-.7Z"/>
      </g>
    </g>
  </g>
  <g id="g-root-tx_insbmct_9i3u1xf3bi9-fill">
    <g id="tx_insbmct_9i3u1xf3bi9-fill">
      <g class="st3">
        <path d="M189.5,257.4h-4v3.4h-.8v-3.4h-3.9v-.7h8.8v.7ZM189,255.2l-.3.7c-1.5-.3-3-1.1-3.5-2.2-.6,1.2-2,2-3.5,2.2l-.3-.7c1.7-.2,3.4-1.3,3.4-2.6h0c0,0-3.1,0-3.1,0v-.7h7.1v.7h-3.1c0,1.4,1.7,2.4,3.4,2.7Z"/>
        <path d="M199.1,259.7h-8.8v-.7h4v-1.8h-2.9v-3h5.7v-1.5h-5.8v-.7h6.6v2.9h-5.7v1.6h6v.7h-3.1v1.8h4s0,.7,0,.7Z"/>
        <path d="M204.1,260h-1v-7.8h1v7.8Z"/>
        <path d="M206.7,260h-.9v-5.9h.9v.9h0c.3-.6.8-1,1.7-1s2,.7,2,2.2v3.7h-.9v-3.7c0-.9-.5-1.4-1.3-1.4s-1.5.6-1.5,1.6v3.5h0Z"/>
        <path d="M214.6,252.9c-1,0-1.7.5-1.7,1.3s.9,1.1,1.5,1.3l.8.2c.8.2,2.2.7,2.2,2.2s-1,2.3-2.8,2.3-2.7-.9-2.8-2.2h1c0,.9.9,1.3,1.8,1.3s1.9-.6,1.9-1.4-.7-1-1.5-1.3l-1-.3c-1.2-.4-2-1-2-2s1.2-2.2,2.7-2.2,2.6.9,2.6,2.1h-1c0-.8-.8-1.2-1.7-1.2Z"/>
        <path d="M218.8,252.2h.9v2.9h0c.2-.3.6-1,1.7-1s2.5,1.2,2.5,3-1,3-2.5,3-1.5-.7-1.7-1h-.1v.9h-.9v-7.8h0ZM221.3,259.3c1.1,0,1.7-1,1.7-2.2s-.6-2.2-1.7-2.2-1.7.9-1.7,2.2c0,1.3.6,2.2,1.7,2.2Z"/>
        <path d="M236.4,259.6h-8.8v-.7h3.9v-2h.8v2h4s0,.7,0,.7ZM231.6,252.9h-2.4v2.8c.8,0,1.6,0,2.5-.3v.7c-1,.2-1.9.3-2.8.3h-.5v-4.2h3.3v.7ZM235.7,256.4h-3.5v-4.2h3.4v.7h-2.5v2.9h2.6v.7Z"/>
        <path d="M246,256.8h-8.8v-.7h8.8v.7ZM245,260.6h-6.7v-2.8h.8v2.1h5.8v.7ZM245,254.8h-6.6v-3.2h.8v2.6h5.7v.7Z"/>
        <path d="M251.2,252.2l2.6,6.4h0l2.6-6.4h1.2v7.8h-.9v-5.9h0l-2.4,5.9h-.9l-2.4-5.9h0v5.9h-.9v-7.8h1.2Z"/>
        <path d="M262.6,253c-1.4,0-2.5,1.1-2.5,3.1s1.1,3.1,2.5,3.1,1.9-.6,2.2-1.7h1c-.3,1.6-1.6,2.6-3.2,2.6s-3.5-1.5-3.5-4,1.4-4,3.5-4,2.9.9,3.2,2.6h-1c-.2-1.1-1.2-1.7-2.2-1.7Z"/>
        <path d="M266.7,252.2h5.9v.9h-2.5v7h-1v-7h-2.5v-.9Z"/>
        <path d="M278.9,254.1c0,1.2-.9,2.1-2.1,2.2v1.6c.9,0,1.8-.1,2.6-.2v.6c-2,.3-4.3.4-5.9.4v-.7c.6,0,1.5,0,2.5,0v-1.7c-1.3-.1-2.1-1-2.1-2.2,0-1.3,1.1-2.2,2.6-2.3,1.5,0,2.5.9,2.6,2.3ZM274.6,254.1c0,.9.7,1.5,1.7,1.5s1.7-.6,1.7-1.5c0-.9-.7-1.5-1.7-1.5-1,0-1.7.6-1.7,1.5ZM280.9,255.2h1.6v.7h-1.6v4.9h-.8v-9.6h.8v4Z"/>
        <path d="M286.2,256.6l-.4-.7c2.4-.5,3.8-1.8,4-3.3h-3.5v-.7h4.5c0,2.4-1.7,4-4.5,4.6ZM293.3,257.5h-5.3v1h5.2v.6h-5.2v1h5.5v.7h-6.4v-3.9h6.1v.6h0ZM293.3,253.5h1.4v.7h-1.4v2.2h-.8v-5.1h.8v2.2Z"/>
        <path d="M304.1,257h-8.7v-.7h8.8s0,.7,0,.7ZM303.1,253.5c0,1.2-1.3,1.9-3.4,1.9s-3.4-.7-3.4-1.9,1.3-1.9,3.4-1.9c2.1,0,3.4.7,3.4,1.9ZM303.1,260.6h-6.6v-2.8h.9v2.1h5.8v.7ZM297.2,253.5c0,.8,1,1.2,2.5,1.2s2.5-.5,2.5-1.2-1-1.2-2.5-1.2-2.5.5-2.5,1.2Z"/>
        <path d="M182.1,268.8c1,0,2,0,3.2-.3v.7c-1.2.2-2.3.3-3.4.3h-.6v-4.2h.8v3.4h0ZM189,272.3c0,1.1-1.3,1.8-3.2,1.8s-3.2-.7-3.2-1.8c0-1.1,1.2-1.8,3.2-1.8s3.2.7,3.2,1.8ZM183.4,272.3c0,.7.9,1.1,2.4,1.1s2.4-.4,2.4-1.1c0-.7-.9-1.1-2.4-1.1s-2.4.4-2.4,1.1ZM188.9,270.4h-.8v-2.6h-1.4v2.2h-.8v-5.3h.8v2.3h1.4v-2.5h.8v5.8Z"/>
        <path d="M190.7,270.1l-.3-.7c2.4-.6,3.8-1.9,4-3.6h-3.6v-.7h4.5c0,2.4-1.7,4.2-4.5,4.9ZM197.8,274.1h-.8v-2.8h-5.4v-.7h6.3v3.5ZM197.8,267h1.4v.7h-1.4v2.5h-.8v-5.6h.8v2.4Z"/>
        <path d="M205.4,266.3h-5.4v-.7h2.3v-1.2h.8v1.2h2.3v.7h0ZM204.9,268.6c0,1.1-.9,1.8-2.2,1.8s-2.2-.7-2.2-1.8c0-1.1.9-1.8,2.2-1.8s2.2.7,2.2,1.8ZM201.3,268.6c0,.7.6,1.1,1.4,1.1s1.4-.4,1.4-1.1c0-.7-.6-1.1-1.4-1.1-.8,0-1.4.5-1.4,1.1ZM207.9,272.5c0,1-1.2,1.6-3.2,1.6s-3.2-.6-3.2-1.6,1.2-1.6,3.2-1.6c2,0,3.2.6,3.2,1.6ZM202.4,272.5c0,.6.9,1,2.4,1s2.3-.4,2.3-1-.9-1-2.3-1c-1.5,0-2.4.4-2.4,1ZM207.9,270.8h-.9v-1.3h-1.7v-.7h1.7v-1.2h-1.7v-.7h1.7v-2.3h.9v6.2Z"/>
        <path d="M217,269.5l-.5.7c-.9-.4-1.5-1.1-1.8-2-.4,1-1,1.8-1.9,2.3l-.5-.7c1.2-.6,2-1.9,2-3v-1.4h.8v1.4c0,1.1.7,2.3,1.9,2.8ZM220.7,273.9h-6.6v-3.1h.8v2.4h5.7s0,.7,0,.7ZM218.5,271.5h-.8v-3.8h-1.5v-.7h1.5v-2.2h.8v6.7ZM220.4,271.7h-.8v-7.2h.8v7.2Z"/>
        <path d="M227.7,271.2l-.5.7c-1.1-.6-2-1.7-2.4-3.1-.4,1.4-1.3,2.7-2.4,3.3l-.6-.7c1.4-.7,2.5-2.5,2.5-4.3v-1.8h.9v1.8c0,1.7,1.1,3.5,2.5,4.1ZM229.8,274.2h-.8v-5.6h-2.3v-.7h2.3v-3.3h.8v9.6Z"/>
        <path d="M240.2,269.7h-8.8v-.7h8.8v.7ZM239.1,272.5h-5.8v.9h6.1v.6h-6.9v-2.1h5.8v-.8h-5.8v-.6h6.6v2h0ZM239.1,266.8h-5.7v.8h5.8v.6h-6.7v-2h5.7v-.8h-5.7v-.6h6.5v2h0Z"/>
        <path d="M249.5,271.2l-.5.7c-1.1-.6-1.9-1.7-2.4-3-.4,1.4-1.3,2.6-2.4,3.2l-.5-.7c1.4-.7,2.5-2.5,2.5-4.3v-1.8h.8v1.8c0,1.7,1.1,3.4,2.5,4.1ZM251.2,268.4h1.6v.7h-1.6v5h-.8v-9.6h.8v3.9Z"/>
        <path d="M262.1,270h-8.8v-.7h2.2v-1.4c-.8-.3-1.2-.8-1.2-1.4,0-1.1,1.3-1.8,3.4-1.8s3.4.6,3.4,1.8-.4,1.1-1.2,1.4v1.4h2.2v.7ZM261,272.4c0,1.1-1.2,1.7-3.3,1.7s-3.3-.6-3.3-1.7,1.2-1.7,3.3-1.7c2.1,0,3.3.6,3.3,1.7ZM255.2,266.5c0,.7,1,1.1,2.5,1.1s2.5-.4,2.5-1.1-1-1.1-2.5-1.1-2.5.4-2.5,1.1ZM255.3,272.4c0,.6.9,1,2.5,1s2.5-.4,2.5-1-.9-1-2.5-1c-1.5,0-2.5.4-2.5,1ZM259.1,269.3v-1.1c-.4,0-.9.1-1.4.1s-1,0-1.4-.1v1.1h2.7Z"/>
        <path d="M274.2,266.2h-5.7v-.7h2.4v-1.1h.8v1.1h2.4v.7h0ZM273.7,268.4c0,1-.9,1.7-2.3,1.7s-2.3-.7-2.3-1.7c0-1,.9-1.7,2.3-1.7,1.4,0,2.3.7,2.3,1.7ZM269.9,268.4c0,.6.6,1,1.5,1s1.5-.4,1.5-1c0-.6-.6-1-1.5-1-.9,0-1.5.4-1.5,1ZM270.8,271.6h4.4v-1h.8v3.5h-6.1v-3.5h.8v1h0ZM275.1,273.3v-1.1h-4.4v1.1h4.4ZM276,267h1.4v.7h-1.4v2.4h-.8v-5.6h.8v2.5Z"/>
        <path d="M279.5,270.9c1.5,0,3-.1,4.6-.5v.7c-1.6.4-3.1.5-4.6.5h-.8v-6.2h.8v5.4h0ZM286,274.1h-.8v-9.6h.8v9.6Z"/>
        <path d="M292.5,266.2h-3.6v4.9c1.7,0,3,0,4.4-.3v.7c-1.4.3-2.7.3-4.5.3h-.8v-6.3h4.5v.7ZM295,268.3h1.6v.7h-1.6v5.1h-.8v-9.6h.8v3.8Z"/>
        <path d="M297.5,272.6c0-.4.3-.7.7-.7s.7.3.7.7-.3.7-.7.7-.7-.3-.7-.7Z"/>
      </g>
    </g>
  </g>
  <g id="g-root-tx__1lpx1pm1xf3cw3-fill">
    <g id="tx__1lpx1pm1xf3cw3-fill">
      <g class="st3">
        <path d="M377.2,257.3h-8.8v-.7h3.4v-3.4h.8v3.4h4.5v.7h0ZM376.2,251c0,1.2,0,2.5-.4,4.4h-.9c.4-1.9.4-3.3.4-4.4v-.3h-5.9v-.7h6.8v1h0Z"/>
        <path d="M386.8,254.8h-8.8v-.7h4v-1c-1.8,0-3-.8-3-1.9s1.3-1.9,3.4-1.9,3.4.7,3.4,1.9-1.1,1.8-3,1.9v1h4v.7h0ZM385.8,258.4h-6.6v-2.8h.9v2.1h5.8v.7h0ZM379.9,251.2c0,.8,1,1.2,2.5,1.2s2.5-.5,2.5-1.2-1-1.2-2.5-1.2-2.5.5-2.5,1.2Z"/>
        <path d="M399.2,254.6h-8.8v-.7h8.8v.7ZM395.2,250h3.1v.7h-3c0,1.1,1.6,1.8,3.4,2l-.3.7c-1.6-.2-3-.8-3.6-1.7-.6,1-2,1.6-3.6,1.7l-.3-.7c1.8-.2,3.3-.9,3.4-2h-3v-.7h3v-1h.8v1h0ZM398.1,258.6h-.9v-2.3h-5.8v-.7h6.7v3h0Z"/>
        <path d="M405.7,253.7l-.4.7c-1.1-.4-1.9-1.2-2.3-2.2-.4,1.1-1.3,2-2.5,2.5l-.4-.7c1.4-.5,2.4-1.8,2.4-3.2v-.4h-2.2v-.7h5.2v.7h-2.2v.3c0,1.3,1,2.4,2.4,2.9ZM408,256.8c0,1.1-1.2,1.8-3.2,1.8-2,0-3.2-.7-3.2-1.8s1.2-1.8,3.2-1.8,3.2.6,3.2,1.8ZM402.4,256.8c0,.7.9,1.1,2.4,1.1s2.4-.4,2.4-1.1-.9-1.1-2.4-1.1-2.4.4-2.4,1.1ZM407.9,254.8h-.9v-2.5h-1.9v-.7h1.9v-2.5h.9v5.7Z"/>
        <path d="M415.9,258.1h-.8v-4.7h-1.2c0,1.9-.9,3-2.1,3s-2.1-1.3-2.1-3.3.8-3.3,2.1-3.3,2,1.1,2.1,2.9h1.2v-3.5h.8v8.9h0ZM410.5,253.2c0,1.6.5,2.5,1.3,2.5.8,0,1.3-1,1.3-2.5s-.5-2.5-1.3-2.5-1.3,1-1.3,2.5ZM417.8,258.6h-.8v-9.6h.8v9.6Z"/>
        <path d="M422.3,254.8l-.4-.7c2.3-.7,3.8-2,4-3.7h-3.6v-.7h4.5c0,2.4-1.7,4.2-4.5,5.1ZM429.5,256.7c0,1.2-1.2,1.9-3.1,1.9s-3.2-.7-3.1-1.9c0-1.1,1.2-1.8,3.1-1.8s3.1.7,3.1,1.8ZM424.1,256.7c0,.7.9,1.2,2.3,1.2s2.3-.5,2.3-1.2-.9-1.2-2.3-1.2c-1.4,0-2.3.4-2.3,1.2ZM429.4,251.5h1.4v.7h-1.4v2.6h-.8v-5.8h.8v2.5h0Z"/>
        <path d="M437.1,251.3h-5.7v-.7h2.5v-1.4h.8v1.4h2.4v.7h0ZM436.7,254.3c0,1.3-1,2.2-2.4,2.2s-2.4-.9-2.4-2.2c0-1.3,1-2.2,2.4-2.2s2.3.9,2.4,2.2ZM432.8,254.3c0,.9.6,1.5,1.5,1.5.9,0,1.5-.6,1.5-1.5,0-.9-.7-1.5-1.5-1.5-.9,0-1.6.6-1.5,1.5ZM438.9,253h1.6v.7h-1.6v4.9h-.8v-9.6h.8v4Z"/>
        <path d="M449.8,257.3h-8.8v-.7h3.4v-3.4h.8v3.4h4.5v.7ZM448.8,251c0,1.2,0,2.5-.4,4.4h-.9c.4-1.9.4-3.3.4-4.4v-.3h-5.9v-.7h6.8v1Z"/>
        <path d="M359.7,267l-.4.7c-1.1-.4-1.9-1.1-2.4-2.1-.4,1.1-1.3,2-2.5,2.4l-.4-.7c1.4-.5,2.4-1.7,2.5-3.1v-.4h-2.2v-.7h5.2v.7h-2.2v.4c0,1.3.9,2.4,2.4,2.8ZM361.7,270.1c0,1.1-1.2,1.8-3.2,1.8s-3.2-.6-3.2-1.8,1.2-1.8,3.2-1.8,3.2.6,3.2,1.8ZM356.2,270.1c0,.7.9,1.1,2.3,1.1s2.3-.4,2.3-1.1-.9-1.1-2.3-1.1-2.3.4-2.3,1.1ZM361.6,264.8h1.4v.7h-1.4v2.6h-.8v-5.8h.8v2.5h0Z"/>
        <path d="M364.2,270.1l-.5-.7c2.6-1.3,3.8-3.1,4-5.4h-3.6v-.7h4.4c0,2.7-1.2,5.1-4.4,6.7ZM371.6,271.9h-.8v-5h-2.3v-.7h2.3v-3.9h.8v9.6Z"/>
        <path d="M378.3,266.6h-3.6v2.3c1.6,0,3,0,4.7-.3v.7c-1.7.3-3.1.3-4.8.3h-.8v-3.7h3.6v-2h-3.6v-.7h4.5v3.4h0ZM381.2,271.9h-.8v-9.6h.8v9.6Z"/>
        <path d="M386,267.9l-.3-.7c2.4-.6,3.8-1.9,4-3.5h-3.6v-.7h4.5c0,2.4-1.7,4.1-4.5,4.9ZM393.1,271.8h-6.1v-3.6h6.1v3.6ZM387.9,271.1h4.4v-2.2h-4.4v2.2ZM393.1,264.7h1.4v.7h-1.4v2.4h-.8v-5.5h.8v2.4Z"/>
        <path d="M401.2,269.2l-.5.7c-1.1-.5-2.1-1.6-2.5-2.9-.5,1.4-1.4,2.6-2.5,3.2l-.5-.7c1.4-.7,2.6-2.5,2.6-4.1v-1.3h-2.3v-.7h5.4v.7h-2.3v1.3c0,1.6,1.2,3.3,2.6,3.9ZM403.1,271.9h-.9v-9.6h.9v9.6Z"/>
        <path d="M411.1,271.4h-.8v-4.7h-1.2c0,1.9-.9,3-2.1,3s-2.1-1.3-2.1-3.3.8-3.3,2.1-3.3,2,1.1,2.1,2.9h1.2v-3.5h.8v8.9h0ZM405.7,266.5c0,1.6.5,2.5,1.3,2.5.8,0,1.3-1,1.3-2.5s-.5-2.5-1.3-2.5c-.8,0-1.3,1-1.3,2.5ZM413,271.9h-.8v-9.6h.8v9.6Z"/>
        <path d="M422.8,267l-.4.7c-1.1-.4-1.9-1.2-2.3-2.2-.4,1.1-1.3,2-2.4,2.4l-.4-.7c1.4-.5,2.4-1.8,2.4-3.1v-.4h-2.2v-.7h5.2v.7h-2.1v.4c0,1.3,1,2.4,2.4,2.9ZM425.1,271.9h-.9v-2.6h-5.6v-.7h6.5v3.3ZM425.1,268.1h-.9v-2.5h-1.9v-.7h1.9v-2.5h.9v5.8Z"/>
        <path d="M432.4,264h-5.7v-.7h2.4v-1.1h.8v1.1h2.4v.7h0ZM431.9,266.1c0,1-.9,1.7-2.3,1.7s-2.3-.7-2.3-1.7c0-1,.9-1.7,2.3-1.7,1.4,0,2.3.7,2.3,1.7ZM428.1,266.1c0,.6.6,1,1.5,1s1.5-.4,1.5-1c0-.6-.6-1-1.5-1-.9,0-1.5.4-1.5,1ZM429,269.3h4.4v-1h.8v3.5h-6.1v-3.5h.8v1h0ZM433.4,271.1v-1.1h-4.4v1.1h4.4ZM434.2,264.8h1.4v.7h-1.4v2.4h-.8v-5.6h.8v2.5Z"/>
        <path d="M442,264h-5.7v-.7h2.4v-1.1h.8v1.1h2.4v.7h0ZM441.5,266.1c0,1-.9,1.7-2.3,1.7s-2.3-.7-2.3-1.7c0-1,.9-1.7,2.3-1.7,1.4,0,2.3.7,2.3,1.7ZM437.6,266.1c0,.6.6,1,1.5,1s1.5-.4,1.5-1c0-.6-.6-1-1.5-1-.9,0-1.5.4-1.5,1ZM438.5,269.3h4.4v-1h.8v3.5h-6.1v-3.5h.8v1h0ZM442.9,271.1v-1.1h-4.4v1.1h4.4ZM443.8,264.8h1.4v.7h-1.4v2.4h-.8v-5.6h.8v2.5Z"/>
        <path d="M447.3,268.7c1.5,0,3-.1,4.6-.5v.7c-1.6.4-3.1.5-4.6.5h-.8v-6.2h.8v5.4ZM453.8,271.9h-.8v-9.6h.8v9.6Z"/>
        <path d="M460.3,264h-3.6v4.9c1.7,0,3,0,4.4-.3v.7c-1.4.3-2.7.3-4.5.3h-.8v-6.3h4.5v.7h0ZM462.8,266.1h1.6v.7h-1.6v5.1h-.8v-9.6h.8v3.8Z"/>
        <path d="M465.3,270.4c0-.4.3-.7.7-.7s.7.3.7.7-.3.7-.7.7-.7-.3-.7-.7Z"/>
      </g>
    </g>
  </g>
  <g id="g-root-tx__18egjca1xf3eh1-fill">
    <g id="tx__18egjca1xf3eh1-fill">
      <g class="st3">
        <path d="M537,250.3c0,.8,0,1.7-.2,3h1.4v.7h-4v2.3h-.8v-2.3h-4v-.7h6.5c.3-1.3.3-2.2.3-3h0c0,0-5.7,0-5.7,0v-.7h6.5v.8h0ZM537.2,258.4h-6.7v-3h.9v2.3h5.9v.7h0Z"/>
        <path d="M544.6,255.7l-.5.7c-1.1-.6-1.9-1.7-2.4-3-.4,1.4-1.3,2.6-2.4,3.2l-.5-.7c1.4-.7,2.5-2.5,2.5-4.3v-1.8h.8v1.8c0,1.7,1.1,3.4,2.5,4.1ZM546.3,252.9h1.6v.7h-1.6v5h-.8v-9.6h.8v3.9Z"/>
        <path d="M551.6,254.6l-.3-.7c2.4-.6,3.8-1.9,4-3.5h-3.6v-.7h4.5c0,2.4-1.7,4.2-4.5,4.9ZM558.8,258.5h-6.1v-3.6h6.1v3.6ZM553.5,257.8h4.4v-2.2h-4.4v2.2ZM558.8,251.4h1.4v.7h-1.4v2.4h-.8v-5.5h.8v2.4Z"/>
        <path d="M566.8,255.8l-.5.7c-1.1-.5-2-1.7-2.5-3-.4,1.5-1.4,2.7-2.5,3.2l-.5-.7c1.4-.7,2.6-2.5,2.6-4.3v-1.8h.8v1.8c0,1.8,1.2,3.5,2.6,4.2ZM568.7,258.7h-.9v-9.6h.9v9.6Z"/>
        <path d="M571.1,260h-.8l.6-2.9h1l-.8,2.9Z"/>
        <path d="M581.8,250.8h-5.7v-.7h2.4v-1.2h.8v1.2h2.4v.7h0ZM581.2,253c0,1-.9,1.7-2.3,1.7s-2.3-.7-2.3-1.7c0-1,.9-1.7,2.3-1.7s2.3.7,2.3,1.7ZM583.6,257c0,1-1.2,1.7-3.1,1.7s-3.2-.6-3.1-1.7c0-1,1.2-1.7,3.1-1.7s3.1.6,3.1,1.7ZM577.4,253c0,.6.6,1,1.5,1s1.5-.4,1.5-1c0-.6-.6-1-1.5-1.1-.9,0-1.5.4-1.5,1.1ZM578.2,257c0,.6.9,1,2.3,1s2.3-.4,2.3-1-.9-1-2.3-1c-1.4,0-2.3.4-2.3,1ZM583.5,251.7h1.4v.7h-1.4v2.8h-.8v-6.2h.8v2.7Z"/>
        <path d="M594.3,254.2h-8.7v-.7h3.6v-1.9h.8v1.9h4.3v.7ZM593.3,256.9c0,1.1-1.3,1.8-3.4,1.8s-3.4-.6-3.4-1.8,1.3-1.8,3.4-1.8c2.1,0,3.4.6,3.4,1.8ZM593.2,250.3c0,.8,0,1.6-.3,2.6h-.8c.3-1.1.3-1.8.3-2.6h0c0-.1-5.7-.1-5.7-.1v-.7h6.6v.8h0ZM587.4,256.9c0,.7,1,1.1,2.5,1.1s2.5-.4,2.5-1.1c0-.7-1-1.1-2.5-1.1-1.5,0-2.5.4-2.5,1.1Z"/>
        <path d="M602.6,250.2h2.5v-1.2h.8v4.9h-.8v-1.1h-2.4c-.4.5-1.2.9-2,.9-1.4,0-2.5-.9-2.5-2.2s1-2.2,2.5-2.2c.8,0,1.6.3,2,.8ZM598.9,251.5c0,.9.7,1.5,1.7,1.5.9,0,1.7-.6,1.7-1.5s-.7-1.5-1.7-1.5c-1,0-1.7.6-1.7,1.5ZM605.9,256.7h-5.4v1.1h5.7v.7h-6.6v-2.4h5.4v-1h-5.4v-.7h6.2v2.3h0ZM603.1,251.5c0,.2,0,.4,0,.6h2.1v-1.3h-2.1c0,.2,0,.4,0,.7Z"/>
        <path d="M615.2,250.3h-3.6v1.2h3.4v.7h-3.4v1.3c1.9,0,2.9,0,4.2-.3v.7c-1.2.2-2.3.3-4.3.3h-.7v-4.6h4.4v.7ZM617.8,258.5h-6.1v-3.3h6.1v3.3ZM612.6,257.8h4.4v-1.9h-4.4v1.9ZM617.8,251.4h1.4v.7h-1.4v2.5h-.8v-5.7h.8v2.4Z"/>
        <path d="M625.9,255.9l-.5.7c-1.1-.5-2.1-1.6-2.5-2.9-.5,1.4-1.4,2.6-2.5,3.2l-.5-.7c1.4-.7,2.6-2.5,2.6-4.1v-1.3h-2.3v-.7h5.4v.7h-2.3v1.3c0,1.6,1.2,3.3,2.6,3.9ZM627.8,258.6h-.9v-9.6h.9v9.6Z"/>
        <path d="M630.2,260h-.8l.6-2.9h1l-.8,2.9Z"/>
        <path d="M561.4,267.3h-8.8v-.7h8.8v.7ZM560.6,263.3h-1.5v1.9h1.4v.7h-7v-.7h1.4v-1.9h-1.5v-.7h7.1v.7ZM560.3,270.2h-5.7v.9h6v.6h-6.8v-2.2h5.7v-.8h-5.7v-.6h6.6v2.1ZM558.3,265.1v-1.9h-2.5v1.9h2.5Z"/>
        <path d="M566.3,265.9h-2.8v1.5c1.3,0,2.2,0,3.4-.3v.7c-1.1.2-2.2.3-3.6.3h-.6v-2.8h2.8v-1.4h-2.8v-.7h3.6v2.7h0ZM570.7,271.7h-6.6v-2.9h.8v2.2h5.7v.7ZM570.4,269.5h-.8v-3.6h-1.4v3.3h-.8v-6.7h.8v2.7h1.4v-2.9h.8v7.2Z"/>
        <path d="M580.6,270.7h-8.8v-.7h8.8v.7ZM579.6,268.2h-6.6v-5.1h6.5v.7h-5.7v1.4h5.5v.7h-5.5v1.5h5.8v.7h0Z"/>
        <path d="M589.9,267l-.4.7c-1.1-.4-1.9-1.2-2.3-2.2-.4,1.1-1.3,2-2.4,2.4l-.4-.7c1.4-.5,2.4-1.8,2.4-3.2v-.4h-2.2v-.7h5.2v.7h-2.1v.4c0,1.2,1,2.4,2.4,2.9ZM592.2,271.8h-6.3v-3.4h6.3v3.4h0ZM586.7,271.1h4.6v-2h-4.6v2ZM592.2,267.9h-.9v-2.5h-1.9v-.7h1.9v-2.4h.9v5.6Z"/>
        <path d="M594.2,267.9l-.4-.7c2.3-.6,3.8-1.9,3.9-3.6h-3.4v-.7h4.4c0,2.4-1.7,4.1-4.5,4.9ZM601.7,271.8h-6.2v-3.6h6.2v3.6ZM596.3,271.1h4.6v-2.2h-4.6v2.2ZM601.7,267.8h-.9v-2.3h-2.1v-.7h2.1v-2.5h.9v5.5h0Z"/>
        <path d="M603.7,270.4c0-.4.3-.7.7-.7s.7.3.7.7-.3.7-.7.7-.7-.3-.7-.7Z"/>
      </g>
    </g>
  </g>
  <g id="g-root-cp_1_g-1_v7d9ey1xfk8wd-stroke">
    <g id="cp_1_g-1_v7d9ey1xfk8wd-stroke">
      <path class="st1" d="M8.5,200h131.4"/>
    </g>
  </g>
  <g id="g-root-cp_2_g-2_qs68dm1xfk6iv-stroke">
    <g id="cp_2_g-2_qs68dm1xfk6iv-stroke">
      <path class="st1" d="M176.8,200h131.4"/>
    </g>
  </g>
  <g id="g-root-cp_3_g-3_qs68dm1xfk6ix-stroke">
    <g id="cp_3_g-3_qs68dm1xfk6ix-stroke">
      <path class="st1" d="M345.2,200h131.4"/>
    </g>
  </g>
  <g id="g-root-cp_4_g-4_mccq961xfk7b7-stroke">
    <g id="cp_4_g-4_mccq961xfk7b7-stroke">
      <path class="st1" d="M513.5,200h131.4"/>
    </g>
  </g>
  <g id="g-root-ic_valu_4lp6ui1xfk6iq-stroke">
    <g id="ic_valu_4lp6ui1xfk6iq-stroke">
      <path class="st0" d="M115.7,171.3H32.6v-83.1M46,171.3v-57.7l12.5,30.9,29.7-44.3v69.2M58.7,171.3v-76.6l18.1,46.8,22.5-8.1,3.9-16.6,12.5-16.6v69.2"/>
    </g>
  </g>
  <g id="g-root-ic_door_90w7vu1xflma3-stroke">
    <g id="ic_door_90w7vu1xflma3-stroke">
      <path class="st0" d="M244.4,131.7v25.8c0,2-1.7,3.7-3.7,3.7h-14.8M205.3,95.5l18.6,9.3c1.2.6,2,1.9,2,3.3v61.2c0,.6-.3,1.2-.9,1.6s-1.2.4-1.8,0l-17.4-8.7c-1.3-.6-2-1.9-2-3.3v-60.5c0-2,1.7-3.7,3.7-3.7h33.2c2,0,3.7,1.7,3.7,3.7v3.7M251.8,87.3h18.5v3.7c0,2-1.7,3.7-3.7,3.7h-11.1c-2,0-3.7-1.7-3.7-3.7v-3.7h0ZM266.2,101.8c-2.9,2.9-7.6,2.9-10.4,0M274.1,109.6c-7.2,7.2-18.9,7.2-26.1,0M281.9,117.5c-11.5,11.5-30.2,11.5-41.8,0"/>
    </g>
  </g>
  <g id="g-root-ic_temp_deuaqy1xfn0n8-stroke">
    <g id="ic_temp_deuaqy1xfn0n8-stroke">
      <path class="st0" d="M426.7,92.7c14,0,25.3,11.3,25.3,25.3M426.7,108.5c5.2,0,9.5,4.2,9.5,9.5M407.7,146.5v-44.3c0-2.5-1-5-2.8-6.8-1.8-1.8-4.2-2.8-6.7-2.8h0c-5.2,0-9.5,4.2-9.5,9.5v44.3c-4.7,3.6-7,9.6-5.9,15.4,1.1,5.9,5.4,10.6,11.1,12.2,7.2,1.7,14.5-1.8,17.8-8.3,3.3-6.6,1.6-14.6-4.1-19.3Z"/>
    </g>
  </g>
  <g id="g-root-ic_arm_1iga21xf1zil-stroke">
    <g id="ic_arm_1iga21xf1zil-stroke">
      <path class="st0" d="M583.9,149.2v-18.5l-22.2,12v-12l-24,12v28.6h83.1v-22.2h-36.9ZM572.8,158.4c0-2-1.7-3.7-3.7-3.7h-11.1c-2,0-3.7,1.7-3.7,3.7v12.9h18.5v-12.9h0ZM591.3,160.3h3.7M606,160.3h3.7M596.8,126.1h18.5v23.1h-18.5v-23.1ZM611.5,104.9l3.8,21.2h-18.5l3.8-21.2M596.8,97.5c0,5.1,4.1,9.2,9.2,9.2s9.2-4.1,9.2-9.2-4.1-9.2-9.2-9.2-9.2,4.1-9.2,9.2M606,93.8c-2,0-3.7,1.7-3.7,3.7s1.7,3.7,3.7,3.7,3.7-1.7,3.7-3.7c0-2-1.7-3.7-3.7-3.7ZM553.4,88.3h11.1v18.5h-11.1v-18.5ZM596.8,97.5h-32.3M553.4,101c-.8,0-1.6.2-2.3.7l-9.2,7.4c-.8.7-1.3,1.6-1.4,2.7,0,1,.3,2.1,1.1,2.8l5.5,5.5c.9,1,2.3,1.5,3.6,1.1,1.3-.3,2.4-1.4,2.7-2.7.3-1.3-.1-2.7-1.1-3.6l-2.6-2.6,6-4.8c.2-.2.5-.5.6-.8M561.5,106.7c.2.3.4.5.6.8l6,4.8-2.6,2.6c-1.4,1.4-1.4,3.8,0,5.2,1.4,1.4,3.8,1.4,5.2,0l5.5-5.5c.7-.7,1.1-1.8,1.1-2.8,0-1-.6-2-1.4-2.7l-9.2-7.4c-.7-.5-1.5-.8-2.3-.8"/>
    </g>
  </g>
</svg>