<?xml version="1.0" encoding="utf-8"?>
<!-- Generator: Adobe Illustrator 16.0.0, SVG Export Plug-In . SVG Version: 6.00 Build 0)  -->
<!DOCTYPE svg PUBLIC "-//W3C//DTD SVG 1.1//EN" "http://www.w3.org/Graphics/SVG/1.1/DTD/svg11.dtd">
<svg version="1.1" id="Layer_1" xmlns="http://www.w3.org/2000/svg" xmlns:xlink="http://www.w3.org/1999/xlink" x="0px" y="0px"
	 width="650px" height="282px" viewBox="0 0 650 282" enable-background="new 0 0 650 282" xml:space="preserve">
<g id="g-root-cp_1_g-1_v7d9ey1xfk8wd-fill" transform="translate(38, 110)">
</g>
<g id="g-root-cp_2_g-2_qs68dm1xfk6iv-fill" transform="translate(266, 110)">
</g>
<g id="g-root-cp_3_g-3_qs68dm1xfk6ix-fill" transform="translate(494, 110)">
</g>
<g id="g-root-cp_4_g-4_mccq961xfk7b7-fill" transform="translate(722, 110)">
</g>
<g id="g-root-cp_1_g-1_1_mccq961xfk7b9-fill" transform="translate(38, 302)">
</g>
<g id="g-root-cp_2_g-2_1_dgpq0a1xfk83y-fill" transform="translate(266, 302)">
</g>
<g id="g-root-cp_3_g-3_1_dgpq0a1xfk83z-fill" transform="translate(494, 302)">
</g>
<g id="g-root-cp_4_g-4_1_90w7vu1xfk8w8-fill" transform="translate(722, 302)">
</g>
<g>
	<g enable-background="new    ">
		<path fill="#B228E0" d="M188.596,18.783h-5.156v0.981c2.322,0.176,3.691,1.011,3.706,2.388c-0.015,1.538-1.758,2.402-4.644,2.402
			c-2.931,0-4.674-0.864-4.674-2.402c0-1.384,1.385-2.219,3.75-2.388v-0.981h-5.142v-1.509h12.158L188.596,18.783L188.596,18.783z
			 M187.498,13.261h-3.618c0.314,0.938,1.67,1.838,4.204,2.051l-0.659,1.465c-2.513-0.242-4.211-1.194-4.922-2.49
			c-0.703,1.296-2.373,2.249-4.907,2.49l-0.615-1.465c2.468-0.212,3.831-1.121,4.175-2.051h-3.604v-1.465h9.946V13.261z
			 M179.733,22.152c-0.015,0.645,0.923,0.996,2.77,0.996c1.802,0,2.754-0.353,2.769-0.996c-0.015-0.674-0.967-0.996-2.769-1.011
			C180.656,21.156,179.719,21.478,179.733,22.152z"/>
		<path fill="#B228E0" d="M197.004,13.949h-1.188v5.815c0.542-0.044,1.069-0.095,1.582-0.161l0.104,1.348
			c-2.726,0.483-5.786,0.527-8.071,0.542l-0.205-1.523l1.523-0.015v-6.006h-1.188v-1.494h7.441L197.004,13.949L197.004,13.949z
			 M194.016,19.867v-5.918h-1.465v5.977L194.016,19.867z M199.919,16.293h1.963v1.523h-1.963v6.738h-1.875v-13.33h1.875V16.293z"/>
		<path fill="#B228E0" d="M212.194,12.587h3.003v-1.362h1.86v6.68h-1.86v-1.157h-2.987c-0.631,0.637-1.575,1.011-2.666,1.011
			c-2.036,0-3.561-1.274-3.546-3.091c-0.015-1.802,1.51-3.062,3.546-3.062C210.619,11.605,211.558,11.972,212.194,12.587z
			 M207.771,14.667c-0.015,0.996,0.732,1.582,1.772,1.582c1.011,0,1.742-0.586,1.742-1.582c0-0.967-0.731-1.553-1.742-1.553
			C208.503,13.114,207.756,13.7,207.771,14.667z M217.058,22.079h-6.987v0.864h7.383v1.465h-9.258v-3.706h7.002v-0.791h-7.017
			v-1.436h8.877V22.079L217.058,22.079z M213.059,14.667c0,0.22-0.022,0.432-0.059,0.63h2.196v-1.26H213
			C213.036,14.235,213.059,14.447,213.059,14.667z"/>
		<path fill="#B228E0" d="M221.921,20.761v-1.143c-1.421-0.278-2.345-1.179-2.329-2.417c-0.016-1.494,1.333-2.505,3.281-2.505
			c1.903,0,3.267,1.011,3.28,2.505c-0.015,1.238-0.952,2.146-2.357,2.417v1.069c1.055-0.051,2.116-0.139,3.104-0.278l0.117,1.362
			c-2.842,0.527-5.889,0.542-8.145,0.542l-0.249-1.523C219.6,20.79,220.734,20.79,221.921,20.761z M226.799,14.169h-7.91v-1.465
			h3.032v-1.406h1.875v1.406h3.003V14.169z M221.364,17.201c-0.015,0.703,0.602,1.084,1.509,1.084c0.88,0,1.479-0.381,1.479-1.084
			c0-0.688-0.601-1.084-1.479-1.084C221.965,16.117,221.35,16.513,221.364,17.201z M229.45,16.644h1.743v1.553h-1.743v6.357h-1.89
			v-13.33h1.89V16.644z"/>
		<path fill="#B228E0" d="M239.66,17.142l-0.996,1.45c-1.413-0.469-2.401-1.377-2.974-2.549c-0.579,1.348-1.61,2.402-3.135,2.915
			l-1.011-1.465c2.227-0.747,3.179-2.52,3.192-4.351v-1.216h1.875v1.392C236.613,14.93,237.551,16.483,239.66,17.142z
			 M242.457,21.976c0,1.641-1.742,2.578-4.496,2.578c-2.813,0-4.57-0.938-4.57-2.578c0-1.626,1.758-2.578,4.57-2.578
			C240.715,19.398,242.457,20.35,242.457,21.976z M235.266,21.976c-0.015,0.762,0.938,1.113,2.695,1.113
			c1.729,0,2.65-0.352,2.65-1.113c0-0.732-0.923-1.113-2.65-1.113C236.203,20.863,235.251,21.244,235.266,21.976z M242.326,14.345
			h1.803v1.553h-1.803v3.237h-1.875v-7.91h1.875V14.345z"/>
		<path fill="#B228E0" d="M245.681,22.533l-1.025-1.406c2.228-1.106,3.553-2.344,4.308-3.823l-3.94,0.366l-0.233-1.597l4.745-0.293
			c0.133-0.557,0.228-1.157,0.278-1.787h-4.321v-1.494h6.183C251.657,16.615,250.661,20.043,245.681,22.533z M255.231,16.337h1.89
			v1.538h-1.89v6.65h-1.875V11.224h1.875V16.337z"/>
		<path fill="#B228E0" d="M263.361,16.073h1.333v-4.658h1.758v12.524h-1.758v-6.372h-1.333V21.2h-5.303v-8.599h5.303V16.073z
			 M259.802,19.735h1.815v-5.654h-1.815V19.735z M269.235,24.555h-1.787v-13.33h1.787V24.555z"/>
		<path fill="#B228E0" d="M277.351,17.509h-4.292v2.417c1.941-0.007,3.545-0.095,5.317-0.396l0.16,1.494
			c-2.035,0.366-3.866,0.454-6.211,0.454h-1.128v-5.449h4.292v-2.183h-4.307v-1.509h6.167L277.351,17.509L277.351,17.509z
			 M281.159,16.264h1.964v1.538h-1.964v6.782h-1.846V11.225h1.846V16.264z"/>
		<path fill="#B228E0" d="M290.095,12.147h2.064c-1.011,1.465-2.064,4.395-2.064,7.017c0,2.637,1.055,5.566,2.064,7.031h-2.064
			c-1.406-1.978-2.256-4.277-2.256-7.031S288.688,14.125,290.095,12.147z"/>
		<path fill="#B228E0" d="M296.13,12.601l2.943,7.192h0.117l2.944-7.192h2.725v10.605h-2.139v-6.943h-0.088l-2.77,6.899h-1.465
			l-2.769-6.929h-0.089v6.973h-2.139V12.601H296.13z"/>
		<path fill="#B228E0" d="M305.988,12.601h2.402l1.787,7.412h0.088l1.948-7.412h2.064l1.948,7.427h0.088l1.787-7.427h2.402
			l-3.032,10.605h-2.153l-2.021-7.002h-0.088l-2.036,7.002h-2.153L305.988,12.601z"/>
		<path fill="#B228E0" d="M323.83,23.207h-2.196V12.601h2.196V23.207z"/>
		<path fill="#B228E0" d="M325.617,12.601h4.16c2.417,0,3.794,1.362,3.794,3.457c0,1.45-0.667,2.505-1.875,3.018l2.256,4.131h-2.432
			l-2.021-3.765h-1.686v3.765h-2.197V12.601z M329.367,17.655c1.305,0,1.935-0.542,1.935-1.597c0-1.069-0.63-1.655-1.935-1.655
			h-1.553v3.252H329.367z"/>
		<path fill="#B228E0" d="M336.149,26.298h-1.553l0.731-4.175h2.08L336.149,26.298z"/>
		<path fill="#B228E0" d="M345.107,12.601l2.943,7.192h0.117l2.944-7.192h2.726v10.605h-2.14v-6.943h-0.088l-2.77,6.899h-1.465
			l-2.769-6.929h-0.088v6.973h-2.139V12.601H345.107z"/>
		<path fill="#B228E0" d="M355.479,13.114c0-0.615,0.527-1.113,1.186-1.113c0.646,0,1.173,0.498,1.173,1.113
			c0,0.601-0.527,1.099-1.173,1.099C356.006,14.213,355.479,13.715,355.479,13.114z M355.58,15.253h2.169v7.954h-2.169V15.253z"/>
		<path fill="#B228E0" d="M359.125,19.237c0-2.725,1.479-4.087,3.237-4.087c1.332,0,1.963,0.791,2.256,1.436h0.072v-3.984h2.168
			v10.605h-2.139v-1.274h-0.103c-0.309,0.659-0.967,1.406-2.256,1.406C360.547,23.339,359.125,21.889,359.125,19.237z
			 M364.736,19.222c0-1.436-0.615-2.344-1.699-2.344c-1.1,0-1.686,0.952-1.686,2.344c0,1.406,0.586,2.388,1.686,2.388
			C364.121,21.61,364.736,20.658,364.736,19.222z"/>
		<path fill="#B228E0" d="M373.539,19.706h-4.834v-1.729h4.834V19.706z"/>
		<path fill="#B228E0" d="M374.411,12.601h2.402l1.787,7.412h0.088l1.948-7.412h2.064l1.948,7.427h0.088l1.787-7.427h2.402
			l-3.032,10.605h-2.153l-2.021-7.002h-0.088l-2.036,7.002h-2.153L374.411,12.601z"/>
		<path fill="#B228E0" d="M391.732,18.534c0.571-0.037,1.641-0.088,1.979-0.103v-0.645c-0.016-0.659-0.47-1.055-1.274-1.055
			c-0.731,0-1.201,0.337-1.318,0.879h-2.064c0.132-1.377,1.333-2.461,3.442-2.461c1.729,0,3.368,0.776,3.368,2.695v5.361h-2.051
			v-1.099h-0.059c-0.396,0.731-1.144,1.245-2.329,1.245c-1.523,0-2.651-0.791-2.651-2.373
			C388.773,19.208,390.209,18.622,391.732,18.534z M392.039,21.859c0.981,0,1.686-0.659,1.671-1.494v-0.586
			c-0.329,0.015-1.253,0.066-1.626,0.103c-0.747,0.073-1.23,0.425-1.23,1.04C390.854,21.537,391.352,21.859,392.039,21.859z"/>
		<path fill="#B228E0" d="M401.812,23.207h-2.432l-2.783-7.954h2.285l1.67,5.713h0.088l1.67-5.713h2.3L401.812,23.207z"/>
		<path fill="#B228E0" d="M405.078,19.266c0-2.461,1.51-4.116,3.839-4.116c2.095,0,3.734,1.318,3.734,4.028v0.615h-5.435
			c0,1.201,0.718,1.948,1.831,1.948c0.731,0,1.26-0.322,1.479-0.806h2.065c-0.309,1.465-1.626,2.432-3.589,2.432
			C406.572,23.368,405.078,21.786,405.078,19.266z M410.601,18.431c0-0.967-0.674-1.655-1.641-1.655
			c-0.996,0-1.706,0.74-1.743,1.655H410.601z"/>
		<path fill="#B228E0" d="M419.712,23.207h-2.197V12.601h2.197V23.207z"/>
		<path fill="#B228E0" d="M423.623,23.207h-2.169v-7.954h2.065v1.392h0.088c0.366-0.923,1.216-1.494,2.388-1.494
			c1.655,0,2.755,1.128,2.739,2.988v5.068h-2.152v-4.688c0-0.981-0.543-1.567-1.437-1.567c-0.908,0-1.522,0.601-1.522,1.655V23.207z
			"/>
		<path fill="#B228E0" d="M434.653,16.879h-1.582v6.328h-2.168v-6.328h-1.128v-1.626h1.128v-0.601c0-1.67,1.011-2.549,2.607-2.549
			c0.498,0,0.908,0.044,1.289,0.132v1.641c-0.309-0.029-0.542-0.044-0.659-0.044c-0.703,0-1.069,0.278-1.069,0.938v0.483h1.582
			V16.879z"/>
		<path fill="#B228E0" d="M435.928,15.253h2.095v1.377h0.088c0.293-0.981,1.025-1.494,1.919-1.494c0.221,0,0.498,0.029,0.688,0.073
			v1.934c-0.205-0.059-0.615-0.117-0.923-0.117c-0.981,0-1.699,0.688-1.699,1.655v4.526h-2.168V15.253z"/>
		<path fill="#B228E0" d="M444.131,18.534c0.57-0.037,1.641-0.088,1.978-0.103v-0.645c-0.015-0.659-0.469-1.055-1.273-1.055
			c-0.732,0-1.201,0.337-1.318,0.879h-2.065c0.133-1.377,1.333-2.461,3.442-2.461c1.729,0,3.369,0.776,3.369,2.695v5.361h-2.051
			v-1.099h-0.06c-0.396,0.731-1.143,1.245-2.329,1.245c-1.522,0-2.65-0.791-2.65-2.373
			C441.172,19.208,442.607,18.622,444.131,18.534z M444.438,21.859c0.981,0,1.685-0.659,1.67-1.494v-0.586
			c-0.329,0.015-1.253,0.066-1.626,0.103c-0.747,0.073-1.229,0.425-1.229,1.04C443.253,21.537,443.75,21.859,444.438,21.859z"/>
		<path fill="#B228E0" d="M449.916,15.253h2.095v1.377h0.088c0.293-0.981,1.025-1.494,1.919-1.494c0.22,0,0.498,0.029,0.688,0.073
			v1.934c-0.204-0.059-0.614-0.117-0.923-0.117c-0.98,0-1.698,0.688-1.698,1.655v4.526h-2.168V15.253z"/>
		<path fill="#B228E0" d="M455.189,19.266c0-2.461,1.509-4.116,3.838-4.116c2.096,0,3.735,1.318,3.735,4.028v0.615h-5.436
			c0,1.201,0.719,1.948,1.831,1.948c0.732,0,1.261-0.322,1.479-0.806h2.064c-0.308,1.465-1.626,2.432-3.589,2.432
			C456.684,23.368,455.189,21.786,455.189,19.266z M460.712,18.431c0-0.967-0.675-1.655-1.642-1.655
			c-0.996,0-1.706,0.74-1.743,1.655H460.712z"/>
		<path fill="#B228E0" d="M463.817,19.237c0-2.725,1.479-4.087,3.237-4.087c1.333,0,1.963,0.791,2.256,1.436h0.073v-3.984h2.168
			v10.605h-2.14v-1.274h-0.103c-0.308,0.659-0.967,1.406-2.256,1.406C465.238,23.339,463.817,21.889,463.817,19.237z
			 M469.428,19.222c0-1.436-0.615-2.344-1.699-2.344c-1.099,0-1.685,0.952-1.685,2.344c0,1.406,0.586,2.388,1.685,2.388
			C468.813,21.61,469.428,20.658,469.428,19.222z"/>
		<path fill="#B228E0" d="M474.862,26.195h-2.064c1.011-1.465,2.064-4.395,2.064-7.031c0-2.622-1.055-5.552-2.064-7.017h2.064
			c1.406,1.978,2.256,4.263,2.256,7.017S476.269,24.218,474.862,26.195z"/>
		<path fill="#484848" d="M291.785,36.137l2.384,5.82h0.088l2.383-5.82h1.055v7.07h-0.83v-5.342h-0.067l-2.197,5.342h-0.781
			l-2.197-5.342h-0.059v5.342h-0.83v-7.07H291.785z"/>
		<path fill="#484848" d="M298.631,36.137h0.889l1.475,5.724h0.068l1.494-5.724h0.986l1.504,5.724h0.059l1.475-5.724h0.89
			l-1.935,7.07h-0.908l-1.543-5.596h-0.06l-1.553,5.596h-0.908L298.631,36.137z"/>
		<path fill="#484848" d="M309.285,43.207h-0.879v-7.07h0.879V43.207z"/>
		<path fill="#484848" d="M310.848,36.137h2.402c1.659,0,2.411,0.918,2.411,2.179c0,0.933-0.42,1.67-1.317,1.981l1.592,2.91h-1.025
			l-1.475-2.754l-0.176,0.01h-1.533v2.744h-0.879V36.137z M313.221,39.662c1.123,0,1.572-0.508,1.572-1.348
			c0-0.85-0.449-1.396-1.582-1.396h-1.484v2.744H313.221z"/>
		<path fill="#484848" d="M319.529,42.563l-0.43-0.586c1.636-0.791,2.617-1.797,3.145-2.969l-2.979,0.282l-0.127-0.674l3.34-0.226
			c0.151-0.487,0.239-1,0.273-1.532h-3.175v-0.636h3.937C323.504,38.734,322.654,41.029,319.529,42.563z M325.73,38.852h1.406v0.645
			h-1.406v4.502h-0.762v-8.682h0.762V38.852z"/>
		<path fill="#484848" d="M331.297,38.598h1.317v-3.097h0.732v8.058h-0.732v-4.326h-1.317v2.432h-3.32v-5.332h3.32V38.598z
			 M328.699,41.049h1.875v-4.102h-1.875V41.049z M335.096,43.998h-0.742v-8.682h0.742V43.998z"/>
		<path fill="#484848" d="M340.584,39.232h-3.164v2.031c1.61,0,2.733-0.055,4.053-0.304l0.078,0.636
			c-1.367,0.254-2.529,0.313-4.199,0.321h-0.693v-3.319h3.164v-1.836h-3.184v-0.636h3.945V39.232L340.584,39.232z M343.016,38.773
			h1.455v0.645h-1.455v4.6h-0.762v-8.7h0.762V38.773z"/>
		<path fill="#484848" d="M355.359,40.531h-7.92v-0.615h7.92V40.531z M354.334,43.998h-0.781v-2.002h-5.226v-0.615h6.007V43.998z
			 M354.422,39.076h-5.929v-3.525h5.88v0.615h-5.107v0.83h4.873v0.596h-4.873v0.89h5.156V39.076L354.422,39.076z"/>
		<path fill="#484848" d="M361.229,39.447l-0.43,0.596c-0.957-0.361-1.709-1.064-2.08-1.982c-0.376,1.041-1.172,1.852-2.217,2.246
			l-0.42-0.625c1.338-0.469,2.227-1.621,2.235-2.969v-0.897h0.763v0.868C359.07,37.924,359.949,39.018,361.229,39.447z
			 M363.318,42.357c0,1.035-1.104,1.621-2.91,1.621c-1.806,0-2.909-0.586-2.909-1.621c0-1.045,1.104-1.641,2.909-1.641
			C362.215,40.717,363.318,41.313,363.318,42.357z M358.26,42.357c-0.01,0.625,0.82,1.006,2.147,1.006
			c1.328,0,2.148-0.381,2.148-1.006c0-0.646-0.82-1.035-2.148-1.035C359.08,41.322,358.25,41.713,358.26,42.357z M363.289,40.463
			h-0.771v-2.646h-1.934v-0.636h1.934v-1.864h0.771V40.463z"/>
	</g>
</g>
<g id="g-root-ic_valu_4lp6ui1xfk6iq-fill" transform="translate(80, 146)">
</g>
<g id="g-root-ic_door_90w7vu1xflma3-fill" transform="translate(308, 146)">
</g>
<g id="g-root-ic_temp_deuaqy1xfn0n8-fill" transform="translate(536, 146)">
</g>
<g id="g-root-ic_arm_1iga21xf1zil-fill" transform="translate(764, 146)">
</g>
<g id="g-root-tx__i0wmwa1xf1xqe-fill" transform="translate(98, 326)">
	<g>
		<g id="tx__i0wmwa1xf1xqe-fill_8_">
			<g>
				<g enable-background="new    ">
					<path fill="#B228E0" d="M-43.248-99.384h-1.187v5.815c0.542-0.045,1.069-0.097,1.582-0.162l0.103,1.349
						c-2.725,0.483-5.786,0.526-8.071,0.542l-0.205-1.523l1.523-0.015v-6.006h-1.187v-1.494h7.441L-43.248-99.384L-43.248-99.384z
						 M-46.235-93.466v-5.918H-47.7v5.978L-46.235-93.466z M-40.333-97.04h1.963v1.523h-1.963v6.737h-1.875v-13.33h1.875V-97.04z"/>
					<path fill="#B228E0" d="M-30.313-99.721h-2.651c0.015,1.553,0.945,3.055,3.076,3.677l-0.894,1.465
						c-1.472-0.446-2.49-1.341-3.076-2.489c-0.593,1.348-1.677,2.416-3.281,2.943l-0.952-1.479c2.212-0.696,3.208-2.426,3.237-4.116
						h-2.725v-1.495h7.266V-99.721z M-27.178-91.371c0,1.627-1.729,2.594-4.497,2.594c-2.827,0-4.57-0.967-4.57-2.594
						c0-1.626,1.743-2.578,4.57-2.563C-28.906-93.949-27.178-92.997-27.178-91.371z M-34.371-91.371
						c-0.015,0.762,0.938,1.143,2.695,1.143c1.729,0,2.651-0.381,2.651-1.143c0-0.746-0.923-1.113-2.651-1.113
						C-33.434-92.484-34.385-92.117-34.371-91.371z M-27.311-99.018h1.802v1.523h-1.802v3.295h-1.875v-7.91h1.875V-99.018z"/>
					<path fill="#B228E0" d="M-20.864-94.359l-0.747-1.479c2.988-0.739,4.636-2.22,4.951-3.999h-4.292v-1.494h6.328
						C-14.64-97.802-16.865-95.414-20.864-94.359z M-10.89-88.939h-8.716v-5.215h8.716V-88.939z M-17.745-90.404h5.01v-2.24h-5.01
						V-90.404z M-10.89-99.193h1.802v1.537h-1.802v3.004h-1.875v-7.457h1.875V-99.193z"/>
					<path fill="#B228E0" d="M0.01-93.085l-1.011,1.466c-1.575-0.668-2.659-1.992-3.252-3.619c-0.608,1.767-1.714,3.23-3.281,3.955
						l-1.069-1.479c2.212-0.98,3.354-3.457,3.354-5.713v-0.82h-2.827v-1.523h7.529v1.523h-2.783v0.82
						C-3.331-96.322-2.231-94.023,0.01-93.085z M2.661-88.777h-1.89v-13.332h1.89V-88.777z"/>
				</g>
			</g>
		</g>
	</g>
</g>
<g id="g-root-tx__4pg4iy1xf1zbc-fill" transform="translate(326, 326)">
	<g>
		<g id="tx__4pg4iy1xf1zbc-fill_8_">
			<g>
				<g enable-background="new    ">
					<path fill="#B228E0" d="M-104.221-95.619l-1.04,1.437c-1.068-0.507-1.787-1.341-2.227-2.358
						c-0.469,1.157-1.268,2.133-2.446,2.682l-1.024-1.422c1.815-0.879,2.549-2.606,2.549-4.188v-1.745h1.815v1.743
						C-106.594-97.934-105.935-96.41-104.221-95.619z M-99.006-89.013h-9.375v-4.292h1.875v2.798h7.5V-89.013z M-102.038-92.527
						h-1.772v-5.011h-1.626v-1.522h1.626v-2.842h1.772V-92.527z M-99.343-92.133h-1.771v-9.977h1.771V-92.133z"/>
					<path fill="#B228E0" d="M-89.558-93.188l-1.143,1.494c-1.479-0.726-2.468-2.051-3.019-3.691
						c-0.586,1.743-1.61,3.172-3.135,3.926l-1.172-1.523c2.285-1.024,3.325-3.604,3.34-6.107v-1.993h1.891v1.992
						C-92.795-96.586-91.784-94.154-89.558-93.188z M-86.584-88.749h-1.847v-7.661h-2.622v-1.509h2.622v-4.19h1.847V-88.749z"/>
					<path fill="#B228E0" d="M-74.572-99.486h-4.424v2.197h4.232v1.465h-4.232v2.521c1.912-0.015,3.464-0.097,5.244-0.381
						l0.176,1.509c-2.036,0.309-3.854,0.366-6.183,0.366h-1.128v-9.199h6.313L-74.572-99.486L-74.572-99.486z M-70.896-97.055h1.963
						v1.566h-1.963v6.709h-1.875v-13.33h1.875V-97.055z"/>
					<path fill="#B228E0" d="M-60.949-98.388c0,1.815-1.567,3.12-3.647,3.12s-3.646-1.305-3.646-3.12
						c0-1.875,1.566-3.179,3.646-3.164C-62.517-101.566-60.949-100.263-60.949-98.388z M-66.413-98.388
						c-0.016,0.996,0.747,1.582,1.815,1.582c1.04,0,1.803-0.586,1.803-1.582c0-1.011-0.763-1.611-1.803-1.611
						C-65.666-99.999-66.428-99.398-66.413-98.388z M-64.362-93.113h5.215v-1.246h1.86v5.436h-8.921v-5.436h1.846V-93.113z
						 M-59.147-90.434v-1.23h-5.215v1.23H-59.147z M-57.287-94.945h-1.875v-7.164h1.875V-94.945z"/>
				</g>
			</g>
		</g>
	</g>
</g>
<g id="g-root-tx__1q5qju21xf3c3u-fill" transform="translate(572, 326)">
	<g>
		<g id="tx__1q5qju21xf3c3u-fill_8_">
			<g>
				<g enable-background="new    ">
					<path fill="#B228E0" d="M-161.818-93.715h-12.188v-1.465h12.188V-93.715z M-163.313-88.777h-1.891v-2.578h-7.427v-1.479h9.316
						L-163.313-88.777L-163.313-88.777z M-163.123-96.015h-9.359v-5.802h9.242v1.451h-7.367v0.746h7.061v1.377h-7.061v0.807h7.484
						V-96.015z"/>
					<path fill="#B228E0" d="M-153.133-99.706h-2.666c0.06,1.509,1.05,2.995,3.164,3.634l-0.951,1.465
						c-1.485-0.455-2.534-1.385-3.135-2.563c-0.606,1.326-1.69,2.388-3.268,2.899l-0.967-1.479c2.153-0.695,3.164-2.314,3.237-3.955
						h-2.739v-1.51h7.323L-153.133-99.706L-153.133-99.706z M-149.807-91.342c-0.016,1.654-1.758,2.593-4.586,2.578
						c-2.842,0.015-4.584-0.924-4.584-2.578c0-1.641,1.742-2.593,4.584-2.593C-151.564-93.935-149.822-92.982-149.807-91.342z
						 M-157.102-91.342c0,0.762,0.938,1.157,2.709,1.143c1.758,0.016,2.74-0.381,2.74-1.143c0-0.747-0.982-1.143-2.74-1.143
						C-156.164-92.484-157.102-92.089-157.102-91.342z M-149.852-94.184h-1.875v-7.91h1.875V-94.184z"/>
				</g>
			</g>
		</g>
	</g>
</g>
<g id="g-root-tx__1cua1gq1xf3dos-fill" transform="translate(782, 326)">
	<g>
		<g id="tx__1cua1gq1xf3dos-fill_8_">
			<g>
				<g enable-background="new    ">
					<path fill="#B228E0" d="M-217.32-93.261h-5.187v4.481h-1.846v-4.481h-5.127v-1.494h12.158L-217.32-93.261L-217.32-93.261z
						 M-218.404-99.941h-3.883c0.184,1.305,1.655,2.615,4.395,2.944l-0.674,1.466c-2.344-0.314-4.021-1.318-4.818-2.695
						c-0.819,1.377-2.483,2.381-4.805,2.695l-0.689-1.466c2.695-0.329,4.183-1.641,4.396-2.944h-3.896v-1.463h9.978v1.463H-218.404z
						"/>
					<path fill="#B228E0" d="M-204.313-90.331h-12.203v-1.538h2.726v-3.267c-1.033-0.615-1.654-1.56-1.654-2.739
						c0-2.152,2.108-3.589,5.01-3.589c2.885,0,5.01,1.437,5.023,3.589c-0.009,1.15-0.615,2.088-1.611,2.71v3.296h2.711
						L-204.313-90.331L-204.313-90.331z M-213.6-97.875c0,1.305,1.26,2.109,3.164,2.109c1.889,0,3.164-0.807,3.178-2.109
						c-0.014-1.348-1.289-2.109-3.178-2.109C-212.34-99.984-213.6-99.223-213.6-97.875z M-208.912-91.869v-2.593
						c-0.478,0.095-0.99,0.146-1.523,0.146c-0.535,0-1.041-0.043-1.51-0.146v2.593H-208.912z"/>
					<path fill="#B228E0" d="M-187.936-94.301h-12.158v-1.494h2.738v-1.597c-0.975-0.433-1.523-1.091-1.523-1.948
						c0-1.611,1.892-2.578,4.863-2.578c2.945,0,4.834,0.967,4.851,2.578c-0.009,0.864-0.58,1.538-1.568,1.963v1.582h2.799
						L-187.936-94.301L-187.936-94.301z M-189.387-91.21c-0.014,1.567-1.758,2.417-4.643,2.417c-2.93,0-4.674-0.85-4.674-2.417
						c0-1.538,1.744-2.388,4.674-2.388C-191.145-93.598-189.4-92.748-189.387-91.21z M-196.93-99.34
						c-0.016,0.732,1.025,1.1,2.914,1.1c1.861,0,2.916-0.367,2.916-1.1c0-0.747-1.055-1.143-2.916-1.143
						C-195.904-100.482-196.945-100.087-196.93-99.34z M-196.799-91.21c-0.014,0.688,0.925,1.025,2.771,1.025
						c1.801,0,2.754-0.337,2.768-1.025c-0.014-0.659-0.967-0.981-2.768-0.981C-195.875-92.191-196.813-91.869-196.799-91.21z
						 M-192.594-95.795v-1.113c-0.438,0.051-0.916,0.073-1.422,0.073c-0.52,0-1.004-0.022-1.449-0.088v1.128H-192.594z"/>
					<path fill="#B228E0" d="M-176.262-94.667h-3.867v2.843h5.201v1.522h-12.203v-1.522h5.144v-2.843h-3.707v-6.504h9.332v1.494
						h-7.457v3.53h7.559L-176.262-94.667L-176.262-94.667z"/>
				</g>
			</g>
		</g>
	</g>
</g>
<g id="g-root-tx_35m_959mne1xf1yj3-fill" transform="translate(62, 362)">
	<g id="tx_35m_959mne1xf1yj3-fill">
		<g>
			<g enable-background="new    ">
				<path d="M-35.396-106.212h0.983c0.054,0.745,0.799,1.21,1.729,1.21c1.026,0,1.782-0.563,1.782-1.372
					c0-0.854-0.681-1.459-1.901-1.459h-0.637v-0.854h0.637c0.951,0,1.61-0.528,1.61-1.338c0-0.778-0.573-1.309-1.458-1.309
					c-0.832,0-1.599,0.465-1.642,1.23h-0.94c0.054-1.241,1.199-2.073,2.593-2.073c1.491,0,2.398,0.974,2.388,2.096
					c0.011,0.886-0.508,1.546-1.329,1.771v0.055c1.016,0.162,1.642,0.886,1.631,1.88c0.011,1.285-1.167,2.236-2.722,2.236
					S-35.341-104.97-35.396-106.212z"/>
				<path d="M-25.167-107.163h-3.424v-0.854h3.424V-107.163z"/>
				<path d="M-23.734-106.212h0.94c0.075,0.702,0.756,1.222,1.599,1.222c1.016,0,1.75-0.746,1.75-1.729
					c0-1.017-0.767-1.761-1.815-1.772c-0.659-0.011-1.167,0.195-1.458,0.703h-0.939l0.551-4.277h4.235v0.863h-3.425l-0.292,2.29
					h0.076c0.346-0.271,0.875-0.454,1.426-0.454c1.491,0,2.593,1.104,2.593,2.627c0,1.512-1.145,2.604-2.701,2.604
					C-22.611-104.138-23.682-105.013-23.734-106.212z"/>
				<path d="M-17.125-110.111h0.929v3.457c0,0.951,0.638,1.588,1.599,1.588c0.972,0,1.621-0.647,1.621-1.588v-3.457h0.929v5.865
					h-0.929v-0.875h-0.054c-0.313,0.627-0.907,0.939-1.566,0.939c-0.648,0-1.242-0.313-1.556-0.939h-0.043v3.079h-0.929
					L-17.125-110.111L-17.125-110.111z"/>
				<path d="M-10.561-110.111h0.896v0.918h0.076c0.249-0.627,0.81-0.994,1.577-0.994c0.767,0,1.286,0.367,1.566,0.994h0.065
					c0.302-0.604,0.918-0.994,1.761-0.994c1.048,0,1.793,0.638,1.793,2.021v3.923h-0.929v-3.912c0-0.865-0.551-1.199-1.188-1.199
					c-0.821,0-1.286,0.552-1.286,1.297v3.813h-0.94v-4.008c0-0.659-0.476-1.104-1.145-1.104c-0.703,0-1.318,0.596-1.318,1.449v3.661
					h-0.929L-10.561-110.111L-10.561-110.111z"/>
				<path d="M2.43-110.89h2.679v-1.534H5.94v1.891h2.269v-2.44h0.854v5.573H8.209v-2.42H5.94v1.881H1.586v-4.483H2.43V-110.89z
					 M5.108-108.632v-1.577H2.43v1.577H5.108z M9.063-103.501H2.786v-3.425h6.277V-103.501z M3.628-104.193H8.23v-2.051H3.628
					V-104.193z"/>
				<path d="M17.059-108.104l0.054,0.638c-0.918,0.168-1.875,0.271-2.798,0.324v3.479h-0.843v-3.424
					c-0.978,0.043-1.901,0.048-2.701,0.054l-0.119-0.724C12.456-107.757,14.919-107.789,17.059-108.104z M16.303-110.544
					c0,1.166-1.026,1.978-2.463,1.966c-1.437,0.012-2.463-0.8-2.463-1.966c0-1.178,1.026-1.967,2.463-1.956
					C15.275-112.511,16.303-111.722,16.303-110.544z M12.208-110.544c-0.011,0.756,0.67,1.274,1.631,1.265
					c0.972,0.01,1.653-0.509,1.653-1.265c0-0.746-0.681-1.274-1.653-1.265C12.877-111.82,12.197-111.29,12.208-110.544z
					 M18.593-103.361h-0.832v-9.604h0.832V-103.361z"/>
				<path d="M26.642-106.515l0.065,0.626c-2.193,0.41-4.559,0.422-6.288,0.422l-0.119-0.725
					C22.073-106.191,24.514-106.201,26.642-106.515z M25.973-110.015c0,1.339-1.07,2.258-2.582,2.258
					c-1.513,0-2.604-0.919-2.593-2.258c-0.011-1.341,1.08-2.259,2.593-2.259C24.902-112.273,25.973-111.355,25.973-110.015z
					 M21.628-110.015c-0.011,0.896,0.735,1.512,1.761,1.512c1.016,0,1.75-0.614,1.75-1.512s-0.734-1.513-1.75-1.513
					C22.364-111.527,21.619-110.912,21.628-110.015z M28.123-103.35h-0.843v-9.625h0.843V-103.35z"/>
				<path d="M38.12-111.225h-1.069v4.623c0.519-0.037,1.032-0.081,1.523-0.141l0.043,0.627c-2.031,0.323-4.332,0.355-6.028,0.366
					l-0.108-0.724l1.296-0.012v-4.741h-1.059v-0.702h5.401L38.12-111.225L38.12-111.225z M36.241-106.558v-4.667h-1.642v4.73
					C35.133-106.504,35.688-106.525,36.241-106.558z M40.033-109.117h1.609v0.713h-1.609v5.033h-0.843v-9.604h0.843V-109.117z"/>
				<path d="M47.778-108.309l-0.399,0.67c-1.107-0.361-1.945-1.129-2.355-2.096c-0.416,1.103-1.302,1.961-2.453,2.377l-0.432-0.682
					c1.437-0.486,2.441-1.729,2.452-3.111v-0.409h-2.193v-0.702h5.186v0.702h-2.161v0.409
					C45.424-109.896,46.364-108.773,47.778-108.309z M49.767-105.164c0,1.123-1.188,1.771-3.165,1.771s-3.187-0.648-3.187-1.771
					c0-1.103,1.21-1.75,3.187-1.75S49.767-106.267,49.767-105.164z M44.269-105.164c-0.011,0.691,0.886,1.092,2.333,1.092
					c1.458,0,2.344-0.399,2.344-1.092c0-0.67-0.886-1.07-2.344-1.07C45.153-106.234,44.258-105.834,44.269-105.164z M49.681-110.523
					h1.448v0.714h-1.448v2.636h-0.842v-5.801h0.842V-110.523z"/>
				<path d="M60.496-108.124h-8.75v-0.692h8.75V-108.124z M59.513-111.15c0,1.092-1.253,1.676-3.392,1.687
					c-2.139-0.011-3.403-0.595-3.403-1.687c0-1.068,1.264-1.652,3.403-1.652S59.513-112.219,59.513-111.15z M59.373-105.143h-5.704
					v0.994h5.996v0.668h-6.838v-2.289h5.715v-0.875h-5.736v-0.648h6.568L59.373-105.143L59.373-105.143z M53.603-111.15
					c-0.011,0.67,0.918,1.037,2.517,1.037c1.588,0,2.528-0.367,2.528-1.037c0-0.627-0.94-1.016-2.528-1.016
					C54.521-112.165,53.593-111.777,53.603-111.15z"/>
				<path d="M-12.196-94.13l-0.346-0.681c2.366-0.639,3.808-1.918,3.986-3.545h-3.554v-0.701h4.462
					C-7.658-96.637-9.355-94.908-12.196-94.13z M-5.023-90.209h-6.082v-3.574h6.082V-90.209z M-10.263-90.9h4.397v-2.183h-4.397
					V-90.9z M-5.023-97.328h1.448v0.702h-1.448v2.397h-0.842v-5.455h0.842V-97.328z"/>
				<path d="M3.081-92.834l-0.475,0.67c-1.124-0.513-2.096-1.619-2.539-2.949c-0.454,1.41-1.42,2.637-2.517,3.188l-0.507-0.669
					c1.372-0.659,2.571-2.476,2.582-4.138v-1.254h-2.269v-0.703h5.413v0.703H0.478v1.254C0.477-95.104,1.666-93.449,3.081-92.834z
					 M4.96-90.078H4.106v-9.604H4.96V-90.078z"/>
				<path d="M12.361-97.986H6.636v-0.703h2.441v-1.08h0.843v1.08h2.441L12.361-97.986L12.361-97.986z M11.811-95.859
					c-0.011,1.026-0.929,1.686-2.312,1.686c-1.394,0-2.323-0.658-2.312-1.686c-0.011-1.025,0.918-1.686,2.312-1.686
					C10.881-97.544,11.8-96.885,11.811-95.859z M7.998-95.859c-0.011,0.627,0.594,1.037,1.502,1.037c0.896,0,1.501-0.41,1.512-1.037
					C11-96.475,10.396-96.896,9.5-96.885C8.592-96.896,7.986-96.475,7.998-95.859z M8.894-92.65h4.386v-1.026h0.842v3.468H8.051
					v-3.468h0.843V-92.65z M13.281-90.89v-1.091H8.895v1.091H13.281z M14.123-97.22h1.448v0.724h-1.448v2.398h-0.842v-5.586h0.842
					V-97.22z"/>
				<path d="M17.646-93.287c1.464-0.006,2.982-0.125,4.591-0.465l0.119,0.725c-1.707,0.355-3.23,0.476-4.764,0.476h-0.778v-6.181
					h0.832V-93.287z M24.106-90.078h-0.843v-9.604h0.843V-90.078z"/>
				<path d="M30.665-98.041h-3.641v4.861c1.739,0,2.971-0.081,4.397-0.346l0.108,0.733c-1.501,0.271-2.766,0.324-4.591,0.324h-0.756
					v-6.276h4.483V-98.041z M33.193-95.881h1.609v0.714h-1.609v5.109h-0.843v-9.626h0.843V-95.881z"/>
				<path d="M35.658-91.592c-0.011-0.378,0.313-0.691,0.691-0.691s0.691,0.313,0.691,0.691c0,0.391-0.313,0.702-0.691,0.702
					S35.646-91.201,35.658-91.592z"/>
			</g>
		</g>
	</g>
</g>
<g id="g-root-tx_insbmct_9i3u1xf3bi9-fill" transform="translate(290, 362)">
	<g id="tx_insbmct_9i3u1xf3bi9-fill">
		<g>
			<g enable-background="new    ">
				<path d="M-100.48-104.572h-3.976v3.424h-0.832v-3.424h-3.943v-0.703h8.751V-104.572z M-100.999-106.766l-0.313,0.669
					c-1.501-0.254-2.96-1.054-3.543-2.214c-0.583,1.16-2.047,1.96-3.521,2.214l-0.336-0.669c1.664-0.249,3.383-1.34,3.383-2.626
					v-0.064h-3.079v-0.692h7.098v0.691h-3.068v0.064C-104.392-108.105-102.674-107.015-100.999-106.766z"/>
				<path d="M-90.864-102.337h-8.793v-0.713h3.954v-1.813h-2.853v-2.961h5.748v-1.513h-5.769v-0.702h6.601v2.905h-5.738v1.567h5.964
					v0.701h-3.122v1.814h4.008V-102.337z"/>
				<path d="M-85.858-102.023h-0.972v-7.821h0.972V-102.023z"/>
				<path d="M-83.316-102.023h-0.929v-5.866h0.896v0.918h0.076c0.281-0.595,0.821-0.993,1.718-0.993
					c1.188,0,1.978,0.725,1.978,2.214v3.728h-0.93v-3.662c0-0.907-0.497-1.448-1.328-1.448c-0.854,0-1.48,0.573-1.48,1.589V-102.023
					L-83.316-102.023z"/>
				<path d="M-75.423-109.089c-1.036,0-1.717,0.54-1.717,1.286c0,0.82,0.918,1.123,1.513,1.273l0.777,0.217
					c0.843,0.216,2.215,0.701,2.215,2.16c0,1.274-1.025,2.27-2.841,2.27c-1.686,0-2.732-0.875-2.82-2.172h0.994
					c0.086,0.875,0.896,1.285,1.826,1.285c1.08,0,1.892-0.551,1.892-1.403c0-0.757-0.725-1.048-1.546-1.286l-0.961-0.259
					c-1.231-0.356-1.987-0.983-1.987-2.042c0-1.318,1.177-2.193,2.689-2.193c1.512,0,2.604,0.887,2.646,2.074h-0.951
					C-73.78-108.646-74.482-109.089-75.423-109.089z"/>
				<path d="M-71.232-109.845h0.929v2.884h0.076c0.205-0.313,0.551-1.004,1.696-1.004c1.469,0,2.506,1.166,2.506,3.023
					c0,1.858-1.037,3.037-2.496,3.037c-1.124,0-1.501-0.691-1.707-1.017h-0.107v0.896h-0.896V-109.845z M-68.661-102.736
					c1.112,0,1.695-0.973,1.695-2.226c0-1.221-0.562-2.172-1.695-2.172c-1.081,0-1.664,0.876-1.664,2.172
					C-70.325-103.645-69.731-102.736-68.661-102.736z"/>
				<path d="M-53.591-102.38h-8.794v-0.702h3.943v-2.031h0.832v2.031h4.019V-102.38z M-58.355-109.132h-2.42v2.83
					c0.81-0.005,1.615-0.07,2.506-0.271l0.076,0.713c-1.048,0.237-1.934,0.271-2.896,0.26h-0.529v-4.234h3.263V-109.132z
					 M-54.293-105.6h-3.479v-4.234h3.36v0.691h-2.506v2.852h2.625V-105.6z"/>
				<path d="M-44.028-105.156h-8.794v-0.691h8.794V-105.156z M-44.99-101.386h-6.688v-2.787h0.842v2.085h5.846V-101.386z
					 M-45.045-107.154h-6.578v-3.24h0.843v2.56h5.735V-107.154z"/>
				<path d="M-38.817-109.845l2.636,6.438h0.098l2.636-6.438h1.167v7.821h-0.918v-5.909h-0.076l-2.431,5.909h-0.864l-2.432-5.909
					h-0.063v5.909h-0.918v-7.821H-38.817z"/>
				<path d="M-27.387-109.046c-1.415,0-2.517,1.093-2.517,3.111c0,2.021,1.102,3.11,2.517,3.11c1.026,0,1.945-0.582,2.184-1.651
					h0.972c-0.281,1.599-1.566,2.561-3.155,2.561c-2.009,0-3.457-1.545-3.457-4.02c0-2.474,1.448-4.019,3.457-4.019
					c1.578,0,2.863,0.95,3.155,2.57h-0.972C-25.432-108.462-26.36-109.046-27.387-109.046z"/>
				<path d="M-23.293-109.845h5.897v0.864h-2.452v6.957h-0.982v-6.957h-2.463V-109.845z"/>
				<path d="M-11.109-107.867c-0.011,1.204-0.875,2.063-2.128,2.215v1.642c0.896-0.043,1.799-0.106,2.636-0.216l0.054,0.638
					c-2.03,0.347-4.311,0.367-5.995,0.356l-0.142-0.713c0.772-0.006,1.669-0.012,2.593-0.043v-1.664
					c-1.274-0.146-2.149-1.006-2.139-2.215c-0.011-1.341,1.059-2.248,2.561-2.259C-12.19-110.115-11.12-109.208-11.109-107.867z
					 M-15.398-107.867c-0.011,0.896,0.724,1.522,1.729,1.522c0.994,0,1.719-0.627,1.729-1.522c-0.011-0.896-0.734-1.523-1.729-1.523
					C-14.675-109.392-15.409-108.765-15.398-107.867z M-9.144-106.788h1.566v0.735h-1.566v4.904h-0.842v-9.604h0.842V-106.788z"/>
				<path d="M-3.823-105.427l-0.356-0.69c2.447-0.535,3.813-1.75,3.954-3.264h-3.543v-0.691h4.483
					C0.702-107.674-0.993-106.074-3.823-105.427z M3.339-104.529h-5.272v0.951H3.23v0.647h-5.164v0.993h5.499v0.658h-6.352v-3.898
					h6.125V-104.529z M3.296-108.506h1.447v0.703H3.296v2.191H2.453v-5.141h0.843V-108.506z"/>
				<path d="M14.11-104.994H5.36v-0.691h8.75V-104.994z M13.128-108.506c0,1.199-1.329,1.913-3.393,1.913
					c-2.085,0-3.402-0.714-3.402-1.913c0-1.197,1.317-1.912,3.402-1.9C11.799-110.418,13.128-109.703,13.128-108.506z
					 M13.139-101.354H6.494v-2.799h0.854v2.086h5.791V-101.354z M7.208-108.506c-0.012,0.757,0.982,1.223,2.527,1.223
					c1.534,0,2.528-0.466,2.528-1.223c0-0.756-0.994-1.221-2.528-1.221C8.19-109.727,7.196-109.262,7.208-108.506z"/>
				<path d="M-107.902-93.236c1.016-0.006,1.993-0.06,3.176-0.291l0.076,0.701c-1.286,0.25-2.345,0.303-3.49,0.303h-0.604v-4.158
					h0.843V-93.236z M-101.021-89.671c0,1.123-1.253,1.793-3.229,1.793c-1.988,0-3.23-0.67-3.22-1.793
					c-0.011-1.135,1.231-1.815,3.22-1.815C-102.273-91.486-101.021-90.806-101.021-89.671z M-106.627-89.671
					c-0.012,0.69,0.906,1.112,2.376,1.112c1.458,0,2.377-0.422,2.388-1.112c-0.011-0.714-0.929-1.135-2.388-1.135
					C-105.721-90.806-106.639-90.385-106.627-89.671z M-101.074-91.627h-0.811v-2.604h-1.383v2.246h-0.789v-5.281h0.789v2.322h1.383
					v-2.506h0.811V-91.627z"/>
				<path d="M-99.323-91.93l-0.347-0.658c2.355-0.638,3.809-1.923,3.987-3.555h-3.555v-0.702h4.451
					C-94.786-94.414-96.482-92.686-99.323-91.93z M-92.15-87.857h-0.842v-2.83h-5.445v-0.69h6.287V-87.857z M-92.15-95.02h1.448
					v0.725h-1.448v2.475h-0.842v-5.641h0.842V-95.02z"/>
				<path d="M-84.641-95.689h-5.434v-0.69h2.333v-1.155h0.842v1.155h2.258L-84.641-95.689L-84.641-95.689z M-85.138-93.42
					c0,1.08-0.907,1.782-2.192,1.782c-1.297,0-2.183-0.702-2.172-1.782c-0.011-1.068,0.875-1.771,2.172-1.771
					C-86.045-95.191-85.138-94.488-85.138-93.42z M-88.714-93.42c0,0.682,0.552,1.123,1.384,1.123s1.394-0.441,1.404-1.123
					c-0.011-0.67-0.572-1.124-1.404-1.135C-88.162-94.544-88.714-94.09-88.714-93.42z M-82.069-89.51
					c0,1.025-1.221,1.632-3.219,1.632c-2.021,0-3.23-0.604-3.23-1.632c0-1.048,1.21-1.643,3.23-1.643
					C-83.29-91.152-82.069-90.558-82.069-89.51z M-87.645-89.51c0,0.605,0.896,0.973,2.355,0.973c1.437,0,2.322-0.367,2.322-0.973
					c0-0.626-0.886-0.982-2.322-0.982C-86.747-90.492-87.645-90.136-87.645-89.51z M-82.123-91.249h-0.854v-1.327h-1.675v-0.703
					h1.675v-1.166h-1.664v-0.703h1.664v-2.313h0.854V-91.249z"/>
				<path d="M-72.969-92.545l-0.476,0.67c-0.886-0.41-1.519-1.146-1.836-2.021c-0.352,0.963-1.021,1.815-1.945,2.259l-0.475-0.659
					c1.23-0.583,1.987-1.912,1.987-3.046v-1.438h0.821v1.438C-74.893-94.22-74.189-93.064-72.969-92.545z M-69.285-88.063h-6.59
					v-3.078h0.843v2.365h5.747V-88.063z M-71.468-90.525h-0.82v-3.791h-1.514v-0.703h1.514v-2.246h0.82V-90.525z M-69.576-90.255
					h-0.811v-7.206h0.811V-90.255z"/>
				<path d="M-62.272-90.752l-0.508,0.691c-1.091-0.563-1.993-1.713-2.42-3.078c-0.427,1.438-1.329,2.668-2.42,3.251l-0.552-0.681
					c1.405-0.691,2.528-2.539,2.528-4.312v-1.75h0.864v1.75C-64.778-93.139-63.666-91.389-62.272-90.752z M-60.198-87.835h-0.843
					v-5.649h-2.279v-0.69h2.279v-3.285h0.843V-87.835z"/>
				<path d="M-49.805-92.328h-8.794v-0.671h8.794V-92.328z M-50.906-89.521h-5.77v0.92h6.082v0.615h-6.936v-2.117h5.78v-0.821
					h-5.791v-0.638h6.633L-50.906-89.521L-50.906-89.521z M-50.939-95.181h-5.672v0.843h5.845v0.615h-6.687v-2.042h5.661v-0.788
					h-5.693v-0.616h6.547L-50.939-95.181L-50.939-95.181z"/>
				<path d="M-40.531-90.773l-0.52,0.681c-1.059-0.558-1.943-1.69-2.365-3.024c-0.433,1.42-1.34,2.631-2.42,3.209l-0.541-0.682
					c1.404-0.691,2.518-2.538,2.528-4.289v-1.75h0.832v1.75C-43.016-93.183-41.893-91.443-40.531-90.773z M-38.803-93.561h1.61
					v0.734h-1.61v4.969h-0.842v-9.604h0.842V-93.561z"/>
				<path d="M-27.911-92.005h-8.75v-0.702h2.171v-1.351c-0.768-0.298-1.199-0.788-1.199-1.437c0-1.136,1.296-1.783,3.403-1.783
					c2.085,0,3.392,0.647,3.392,1.783c0,0.643-0.427,1.133-1.188,1.426v1.36h2.171V-92.005z M-28.981-89.574
					c-0.011,1.092-1.242,1.696-3.306,1.696c-2.085,0-3.316-0.604-3.316-1.696c0-1.102,1.231-1.695,3.316-1.695
					C-30.224-91.271-28.992-90.676-28.981-89.574z M-34.815-95.494c-0.011,0.702,0.961,1.112,2.528,1.112
					c1.556,0,2.527-0.41,2.527-1.112c0-0.69-0.972-1.113-2.527-1.113C-33.854-96.607-34.825-96.186-34.815-95.494z M-34.739-89.574
					c-0.011,0.648,0.907,1.037,2.452,1.037c1.522,0,2.451-0.389,2.451-1.037c0-0.658-0.929-1.037-2.451-1.048
					C-33.832-90.611-34.75-90.234-34.739-89.574z M-30.926-92.707v-1.123c-0.404,0.069-0.858,0.107-1.36,0.107
					s-0.956-0.038-1.361-0.107v1.123H-30.926z"/>
				<path d="M-15.782-95.765h-5.727v-0.702h2.441v-1.08h0.843v1.08h2.441L-15.782-95.765L-15.782-95.765z M-16.333-93.636
					c-0.012,1.026-0.93,1.685-2.313,1.685c-1.394,0-2.323-0.658-2.312-1.685c-0.012-1.026,0.918-1.687,2.312-1.687
					C-17.263-95.32-16.345-94.662-16.333-93.636z M-20.147-93.636c-0.011,0.626,0.594,1.037,1.502,1.037
					c0.896,0,1.501-0.411,1.512-1.037c-0.011-0.616-0.615-1.037-1.512-1.026C-19.554-94.673-20.158-94.252-20.147-93.636z
					 M-19.25-90.428h4.386v-1.025h0.842v3.467h-6.071v-3.467h0.844V-90.428z M-14.864-88.667v-1.091h-4.386v1.091H-14.864z
					 M-14.022-94.997h1.448v0.724h-1.448v2.398h-0.842v-5.586h0.842V-94.997z"/>
				<path d="M-10.499-91.064c1.464-0.006,2.981-0.125,4.592-0.465l0.119,0.724c-1.707,0.356-3.23,0.476-4.765,0.476h-0.777v-6.18
					h0.832L-10.499-91.064L-10.499-91.064z M-4.038-87.857h-0.844v-9.604h0.844V-87.857z"/>
				<path d="M2.52-95.818h-3.641v4.86c1.738,0,2.971-0.081,4.396-0.346l0.108,0.733c-1.501,0.271-2.767,0.324-4.591,0.324h-0.757
					v-6.275H2.52V-95.818z M5.048-93.658h1.609v0.715H5.048v5.108H4.205v-9.626h0.843V-93.658z"/>
				<path d="M7.513-89.369c-0.011-0.378,0.313-0.69,0.69-0.69c0.379,0,0.691,0.313,0.691,0.69c0,0.391-0.313,0.702-0.691,0.702
					C7.825-88.667,7.502-88.98,7.513-89.369z"/>
			</g>
		</g>
	</g>
</g>
<g id="g-root-tx__1lpx1pm1xf3cw3-fill" transform="translate(518, 362)">
	<g id="tx__1lpx1pm1xf3cw3-fill">
		<g>
			<g enable-background="new    ">
				<path d="M-140.765-104.732h-8.751v-0.702h3.437v-3.435h0.832v3.436h4.482V-104.732z M-141.813-111.041
					c-0.012,1.178-0.012,2.495-0.357,4.43l-0.863-0.098c0.367-1.837,0.367-3.188,0.367-4.332v-0.26h-5.92v-0.702h6.772
					L-141.813-111.041L-141.813-111.041z"/>
				<path d="M-131.191-107.152h-8.752v-0.703h3.955v-1.004c-1.842-0.092-2.982-0.789-2.982-1.924c0-1.178,1.318-1.9,3.404-1.9
					c2.063,0,3.391,0.724,3.391,1.9c0,1.135-1.149,1.832-2.971,1.924v1.004h3.955V-107.152z M-132.164-103.576h-6.646v-2.798h0.854
					v2.085h5.791V-103.576z M-138.096-110.781c-0.01,0.777,0.983,1.23,2.529,1.23c1.533,0,2.527-0.453,2.527-1.23
					c0-0.734-0.994-1.211-2.527-1.211C-137.112-111.992-138.105-111.517-138.096-110.781z"/>
				<path d="M-118.838-107.433h-8.752v-0.691h8.752V-107.433z M-122.803-112.003h3.078v0.681h-3.024
					c0.061,1.092,1.577,1.842,3.393,2l-0.281,0.668c-1.582-0.172-2.998-0.756-3.573-1.729c-0.584,0.973-2,1.557-3.576,1.729
					l-0.281-0.668c1.805-0.158,3.322-0.908,3.393-2h-3.004v-0.681h3.047v-0.994h0.832v0.994H-122.803z M-119.918-103.371h-0.854
					v-2.332h-5.846v-0.693h6.698v3.025H-119.918z"/>
				<path d="M-112.313-108.285l-0.441,0.68c-1.082-0.391-1.918-1.194-2.323-2.193c-0.42,1.129-1.313,2.031-2.451,2.463l-0.443-0.681
					c1.427-0.519,2.441-1.814,2.441-3.187v-0.356h-2.173v-0.714h5.176v0.714h-2.15v0.346
					C-114.678-109.961-113.717-108.773-112.313-108.285z M-110.021-105.164c0,1.135-1.221,1.782-3.219,1.793
					c-2-0.011-3.221-0.658-3.221-1.793s1.221-1.783,3.221-1.783C-111.242-106.947-110.021-106.299-110.021-105.164z
					 M-115.617-105.164c-0.013,0.691,0.906,1.112,2.377,1.112c1.469,0,2.377-0.421,2.377-1.112c0-0.701-0.908-1.124-2.377-1.124
					C-114.711-106.288-115.629-105.865-115.617-105.164z M-110.055-107.249h-0.854v-2.518h-1.935v-0.702h1.935v-2.506h0.854
					V-107.249z"/>
				<path d="M-102.145-103.857h-0.811v-4.668h-1.23c-0.092,1.869-0.887,3.037-2.074,3.037c-1.254,0-2.063-1.297-2.063-3.338
					c0-2.043,0.811-3.34,2.063-3.34c1.166,0,1.955,1.129,2.063,2.938h1.242v-3.543h0.811L-102.145-103.857L-102.145-103.857z
					 M-107.523-108.826c-0.012,1.555,0.484,2.538,1.264,2.527c0.777,0.011,1.273-0.973,1.273-2.527c0-1.566-0.496-2.539-1.273-2.539
					C-107.039-111.365-107.535-110.395-107.523-108.826z M-100.211-103.371h-0.819v-9.604h0.819V-103.371z"/>
				<path d="M-95.723-107.195l-0.354-0.69c2.315-0.67,3.797-2.004,3.975-3.673h-3.553v-0.702h4.461
					C-91.195-109.82-92.924-108.017-95.723-107.195z M-88.473-105.251c0,1.167-1.211,1.858-3.145,1.858
					c-1.912,0-3.154-0.691-3.144-1.858c-0.012-1.146,1.23-1.847,3.144-1.847C-89.684-107.098-88.473-106.396-88.473-105.251z
					 M-93.918-105.251c-0.011,0.724,0.896,1.179,2.301,1.179c1.416,0,2.324-0.455,2.324-1.179s-0.908-1.178-2.324-1.167
					C-93.021-106.429-93.928-105.975-93.918-105.251z M-88.58-110.469h1.446v0.702h-1.446v2.561h-0.844v-5.769h0.845L-88.58-110.469
					L-88.58-110.469z"/>
				<path d="M-80.855-110.729h-5.715v-0.702h2.475v-1.427h0.842v1.427h2.398V-110.729L-80.855-110.729z M-81.309-107.725
					c-0.012,1.296-0.994,2.203-2.354,2.203c-1.371,0-2.365-0.907-2.355-2.203c-0.01-1.297,0.984-2.204,2.355-2.204
					C-82.303-109.929-81.32-109.021-81.309-107.725z M-85.209-107.725c-0.011,0.875,0.647,1.49,1.545,1.479
					c0.887,0.012,1.534-0.604,1.545-1.479c-0.011-0.864-0.658-1.491-1.545-1.491C-84.561-109.216-85.219-108.589-85.209-107.725z
					 M-79.084-109.011h1.61v0.702h-1.61v4.938h-0.843v-9.604h0.843V-109.011z"/>
				<path d="M-68.191-104.732h-8.752v-0.702h3.436v-3.435h0.832v3.436h4.484V-104.732z M-69.24-111.041
					c-0.01,1.178-0.01,2.495-0.355,4.43l-0.865-0.098c0.367-1.837,0.367-3.188,0.367-4.332v-0.26h-5.92v-0.702h6.773V-111.041z"/>
				<path d="M-158.275-95.016l-0.4,0.669c-1.106-0.361-1.943-1.129-2.354-2.097c-0.415,1.104-1.301,1.961-2.451,2.377l-0.433-0.681
					c1.437-0.485,2.44-1.729,2.451-3.11v-0.41h-2.193v-0.702h5.186v0.702h-2.16v0.41C-160.631-96.605-159.691-95.48-158.275-95.016z
					 M-156.288-91.872c0,1.123-1.188,1.771-3.165,1.771c-1.978,0-3.188-0.648-3.188-1.771c0-1.103,1.211-1.75,3.188-1.75
					C-157.476-93.622-156.288-92.975-156.288-91.872z M-161.787-91.872c-0.011,0.691,0.887,1.091,2.334,1.091
					c1.459,0,2.344-0.398,2.344-1.091c0-0.67-0.885-1.069-2.344-1.069C-160.9-92.941-161.797-92.542-161.787-91.872z
					 M-156.375-97.23h1.447v0.713h-1.447v2.636h-0.842v-5.802h0.843L-156.375-97.23L-156.375-97.23z"/>
				<path d="M-153.834-91.904l-0.466-0.681c2.604-1.259,3.81-3.106,3.977-5.358h-3.554v-0.69h4.405
					C-149.471-95.913-150.627-93.492-153.834-91.904z M-146.359-90.078h-0.842v-5.035h-2.291v-0.701h2.291v-3.868h0.842V-90.078z"/>
				<path d="M-139.725-95.373h-3.586v2.27c1.593,0,3.014-0.069,4.731-0.346l0.087,0.713c-1.772,0.28-3.23,0.347-4.885,0.347h-0.8
					v-3.675h3.599v-2.02h-3.619v-0.701h4.473V-95.373z M-136.808-90.058h-0.843v-9.626h0.843V-90.058z"/>
				<path d="M-132.049-94.13l-0.346-0.681c2.365-0.639,3.809-1.918,3.986-3.545h-3.556v-0.701h4.462
					C-127.512-96.637-129.207-94.908-132.049-94.13z M-124.875-90.209h-6.084v-3.574h6.084V-90.209z M-130.115-90.9h4.396v-2.183
					h-4.396V-90.9z M-124.875-97.328h1.446v0.702h-1.446v2.397h-0.845v-5.455h0.845V-97.328z"/>
				<path d="M-116.771-92.834l-0.477,0.67c-1.123-0.513-2.097-1.619-2.537-2.949c-0.455,1.41-1.422,2.637-2.519,3.188l-0.508-0.669
					c1.371-0.659,2.57-2.476,2.582-4.138v-1.254h-2.27v-0.703h5.411v0.703h-2.289v1.254
					C-119.375-95.104-118.188-93.449-116.771-92.834z M-114.893-90.078h-0.854v-9.604h0.854V-90.078z"/>
				<path d="M-106.939-90.566h-0.811v-4.666h-1.23c-0.092,1.869-0.887,3.035-2.074,3.035c-1.254,0-2.063-1.297-2.063-3.338
					s0.811-3.339,2.063-3.339c1.166,0,1.955,1.13,2.063,2.938h1.242v-3.543h0.811L-106.939-90.566L-106.939-90.566z
					 M-112.318-95.535c-0.012,1.557,0.484,2.539,1.264,2.528c0.777,0.011,1.273-0.972,1.273-2.528c0-1.565-0.496-2.537-1.273-2.537
					C-111.834-98.072-112.33-97.102-112.318-95.535z M-105.006-90.078h-0.819v-9.604h0.819V-90.078z"/>
				<path d="M-95.18-94.984l-0.442,0.67c-1.086-0.389-1.923-1.193-2.334-2.183c-0.416,1.107-1.302,1.993-2.441,2.409l-0.443-0.67
					c1.416-0.508,2.443-1.793,2.443-3.145v-0.422h-2.172v-0.69h5.174v0.69h-2.147v0.411C-97.545-96.658-96.584-95.47-95.18-94.984z
					 M-92.922-90.078h-0.854v-2.637h-5.607v-0.702h6.461V-90.078z M-92.922-93.925h-0.854v-2.528h-1.924v-0.713h1.924v-2.518h0.854
					V-93.925z"/>
				<path d="M-85.564-97.986h-5.725v-0.703h2.44v-1.08h0.842v1.08h2.441L-85.564-97.986L-85.564-97.986z M-86.115-95.859
					c-0.01,1.026-0.928,1.686-2.312,1.686c-1.395,0-2.323-0.658-2.313-1.686c-0.013-1.025,0.918-1.686,2.313-1.686
					C-87.043-97.544-86.125-96.885-86.115-95.859z M-89.928-95.859c-0.012,0.627,0.595,1.037,1.502,1.037
					c0.896,0,1.502-0.41,1.513-1.037c-0.011-0.615-0.615-1.037-1.513-1.025C-89.334-96.896-89.939-96.475-89.928-95.859z
					 M-89.031-92.65h4.387v-1.026h0.842v3.468h-6.07v-3.468h0.842V-92.65z M-84.645-90.89v-1.091h-4.387v1.091H-84.645z
					 M-83.803-97.22h1.447v0.724h-1.447v2.398h-0.842v-5.586h0.842V-97.22z"/>
				<path d="M-75.99-97.986h-5.728v-0.703h2.441v-1.08h0.844v1.08h2.441L-75.99-97.986L-75.99-97.986z M-76.541-95.859
					c-0.013,1.026-0.931,1.686-2.313,1.686c-1.393,0-2.322-0.658-2.311-1.686c-0.013-1.025,0.918-1.686,2.311-1.686
					C-77.471-97.544-76.553-96.885-76.541-95.859z M-80.355-95.859c-0.01,0.627,0.596,1.037,1.502,1.037
					c0.896,0,1.502-0.41,1.514-1.037c-0.012-0.615-0.616-1.037-1.514-1.025C-79.76-96.896-80.365-96.475-80.355-95.859z
					 M-79.459-92.65h4.387v-1.026h0.844v3.468h-6.072v-3.468h0.843L-79.459-92.65L-79.459-92.65z M-75.072-90.89v-1.091h-4.387
					v1.091H-75.072z M-74.229-97.22h1.447v0.724h-1.447v2.398h-0.844v-5.586h0.844V-97.22z"/>
				<path d="M-70.705-93.287c1.463-0.006,2.979-0.125,4.59-0.465l0.119,0.725c-1.707,0.355-3.23,0.476-4.765,0.476h-0.776v-6.181
					h0.832V-93.287z M-64.246-90.078h-0.843v-9.604h0.843V-90.078z"/>
				<path d="M-57.686-98.041h-3.641v4.861c1.737,0,2.971-0.081,4.396-0.346l0.107,0.733c-1.502,0.271-2.767,0.324-4.592,0.324
					h-0.757v-6.276h4.484v0.703H-57.686z M-55.158-95.881h1.608v0.714h-1.608v5.109h-0.844v-9.626h0.844V-95.881z"/>
				<path d="M-52.693-91.592c-0.012-0.378,0.313-0.691,0.691-0.691c0.377,0,0.69,0.313,0.69,0.691c0,0.391-0.313,0.702-0.69,0.702
					C-52.381-90.89-52.705-91.201-52.693-91.592z"/>
			</g>
		</g>
	</g>
</g>
<g id="g-root-tx__18egjca1xf3eh1-fill" transform="translate(746, 362)">
	<g id="tx__18egjca1xf3eh1-fill">
		<g>
			<g enable-background="new    ">
				<path d="M-209.035-111.699c0,0.811,0,1.729-0.238,2.98h1.395v0.681h-3.954v2.323h-0.832v-2.323h-4.009v-0.681h6.537
					c0.26-1.26,0.26-2.171,0.26-2.98v-0.055h-5.684v-0.703h6.525V-111.699z M-208.83-103.576h-6.73v-3.004h0.854v2.291h5.877
					L-208.83-103.576L-208.83-103.576z"/>
				<path d="M-201.396-106.288l-0.518,0.681c-1.06-0.557-1.945-1.689-2.365-3.023c-0.435,1.42-1.34,2.63-2.42,3.208l-0.541-0.681
					c1.404-0.691,2.518-2.538,2.526-4.289v-1.75h0.832v1.75C-203.881-108.697-202.758-106.958-201.396-106.288z M-199.668-109.074
					h1.61v0.733h-1.61v4.97h-0.843v-9.604h0.843V-109.074z"/>
				<path d="M-194.412-107.422l-0.347-0.682c2.367-0.637,3.81-1.918,3.986-3.543h-3.553v-0.702h4.461
					C-189.875-109.929-191.57-108.199-194.412-107.422z M-187.238-103.501h-6.082v-3.575h6.082V-103.501z M-192.479-104.193h4.398
					v-2.181h-4.398V-104.193z M-187.238-110.619h1.447v0.701h-1.447v2.398h-0.842v-5.455h0.842V-110.619z"/>
				<path d="M-179.156-106.234l-0.519,0.67c-1.092-0.534-2.036-1.664-2.495-3.035c-0.447,1.453-1.394,2.662-2.519,3.23l-0.539-0.715
					c1.426-0.658,2.613-2.484,2.625-4.311v-1.75h0.842v1.75C-181.77-108.643-180.57-106.871-179.156-106.234z M-177.254-103.35
					h-0.854v-9.625h0.854V-103.35z"/>
				<path d="M-174.865-102.031h-0.799l0.594-2.938h1.047L-174.865-102.031z"/>
				<path d="M-164.232-111.203h-5.727v-0.67h2.44v-1.178h0.842v1.178h2.443L-164.232-111.203L-164.232-111.203z M-164.785-109.011
					c-0.01,1.037-0.929,1.696-2.312,1.696c-1.395,0-2.321-0.659-2.313-1.696c-0.011-1.026,0.918-1.695,2.313-1.695
					C-165.713-110.706-164.795-110.037-164.785-109.011z M-162.365-105.046c0,1.048-1.188,1.653-3.144,1.653
					s-3.153-0.605-3.145-1.653c-0.009-1.048,1.19-1.663,3.146-1.663S-162.365-106.094-162.365-105.046z M-168.598-109.011
					c-0.012,0.627,0.594,1.037,1.502,1.037c0.896,0,1.502-0.41,1.513-1.037c-0.011-0.626-0.616-1.048-1.513-1.06
					C-168.004-110.059-168.609-109.637-168.598-109.011z M-167.809-105.046c-0.012,0.627,0.863,0.994,2.301,0.994
					c1.437,0,2.302-0.367,2.302-0.994c0-0.637-0.865-0.993-2.302-0.993C-166.945-106.039-167.82-105.683-167.809-105.046z
					 M-162.473-110.296h1.447v0.724h-1.447v2.799h-0.842v-6.2h0.842V-110.296z"/>
				<path d="M-151.656-107.801h-8.74v-0.691h3.619v-1.857h0.832v1.857h4.289V-107.801z M-152.693-105.143
					c0,1.102-1.309,1.75-3.371,1.75c-2.053,0-3.359-0.648-3.359-1.75c0-1.113,1.308-1.762,3.359-1.762
					C-154.002-106.902-152.693-106.256-152.693-105.143z M-152.77-111.668c0,0.778,0,1.557-0.27,2.551l-0.832-0.099
					c0.26-0.993,0.26-1.696,0.26-2.452v-0.119h-5.748v-0.691h6.59V-111.668z M-158.582-105.143c-0.011,0.67,0.983,1.08,2.518,1.08
					s2.518-0.41,2.527-1.08c-0.011-0.682-0.994-1.104-2.527-1.113C-157.598-106.244-158.592-105.822-158.582-105.143z"/>
				<path d="M-143.408-111.798h2.463v-1.177h0.842v4.937h-0.842v-1.102h-2.432c-0.447,0.54-1.173,0.864-2.029,0.864
					c-1.449,0-2.496-0.887-2.496-2.184c0-1.285,1.047-2.171,2.496-2.171C-144.564-112.629-143.852-112.316-143.408-111.798z
					 M-147.092-110.458c0,0.875,0.701,1.491,1.687,1.502c0.949-0.011,1.662-0.627,1.662-1.502c0-0.864-0.713-1.479-1.662-1.469
					C-146.391-111.938-147.092-111.322-147.092-110.458z M-140.104-105.251h-5.357v1.069h5.726v0.681h-6.568v-2.399h5.359v-0.971
					h-5.381v-0.681h6.223L-140.104-105.251L-140.104-105.251z M-142.922-110.458c0,0.228-0.039,0.438-0.098,0.638h2.074v-1.297
					h-2.074C-142.961-110.912-142.922-110.691-142.922-110.458z"/>
				<path d="M-130.828-111.668h-3.576v1.199h3.393v0.702h-3.393v1.274c1.869,0.012,2.943-0.027,4.203-0.271l0.098,0.69
					c-1.33,0.237-2.432,0.271-4.42,0.26h-0.723v-4.569h4.418V-111.668z M-128.191-103.501h-6.061v-3.317h6.061V-103.501z
					 M-133.422-104.193h4.388v-1.943h-4.388V-104.193z M-128.191-110.588h1.447v0.725h-1.447v2.549h-0.844v-5.659h0.844V-110.588z"
					/>
				<path d="M-120.088-106.126l-0.477,0.67c-1.123-0.513-2.096-1.62-2.537-2.948c-0.455,1.41-1.422,2.635-2.518,3.187l-0.508-0.67
					c1.37-0.658,2.569-2.474,2.582-4.138v-1.254h-2.271v-0.701h5.412v0.701h-2.289v1.254
					C-122.691-108.395-121.504-106.74-120.088-106.126z M-118.209-103.371h-0.854v-9.604h0.854V-103.371z"/>
				<path d="M-115.818-102.031h-0.801l0.594-2.938h1.049L-115.818-102.031z"/>
				<path d="M-184.557-94.703h-8.75v-0.681h8.75V-94.703z M-185.389-98.711h-1.479v1.857h1.447v0.66h-7.033v-0.66h1.446v-1.857
					h-1.479v-0.67h7.098V-98.711z M-185.68-91.754h-5.705v0.919h5.996v0.647h-6.838v-2.182h5.715v-0.832h-5.735v-0.638h6.567
					V-91.754z M-187.711-96.854v-1.857h-2.453v1.857H-187.711z"/>
				<path d="M-179.672-96.107h-2.797v1.459c1.265-0.006,2.23-0.065,3.369-0.293l0.098,0.682c-1.241,0.236-2.268,0.292-3.661,0.292
					h-0.627v-2.81h2.809v-1.383h-2.83v-0.691h3.642v2.744H-179.672z M-175.285-90.283h-6.59v-2.896h0.842v2.183h5.748V-90.283z
					 M-175.578-92.521h-0.81v-3.564h-1.352v3.284h-0.789v-6.687h0.789v2.688h1.352v-2.873h0.81V-92.521z"/>
				<path d="M-165.367-91.332h-8.793v-0.701h8.793V-91.332z M-166.383-93.795h-6.643v-5.057h6.535v0.713h-5.672v1.427h5.467v0.681
					h-5.467v1.545h5.778L-166.383-93.795L-166.383-93.795z"/>
				<path d="M-156.104-95.038l-0.441,0.671c-1.086-0.39-1.924-1.199-2.334-2.192c-0.416,1.106-1.303,1.993-2.44,2.407l-0.444-0.668
					c1.416-0.508,2.441-1.783,2.441-3.155v-0.378h-2.172v-0.702h5.176v0.702h-2.15v0.378
					C-158.469-96.734-157.508-95.535-156.104-95.038z M-153.846-90.209h-6.275v-3.369h6.274L-153.846-90.209L-153.846-90.209z
					 M-159.279-90.9h4.604v-1.998h-4.604V-90.9z M-153.846-94.055h-0.854v-2.506h-1.943v-0.715h1.943v-2.408h0.854V-94.055z"/>
				<path d="M-151.77-94.13l-0.354-0.67c2.295-0.647,3.76-1.923,3.942-3.556h-3.447v-0.701h4.354
					C-147.285-96.648-149.004-94.919-151.77-94.13z M-144.271-90.209h-6.234v-3.574h6.234V-90.209z M-149.684-90.9h4.568v-2.203
					h-4.568V-90.9z M-144.271-94.195h-0.854v-2.289h-2.129v-0.713h2.13v-2.475h0.854L-144.271-94.195L-144.271-94.195z"/>
				<path d="M-142.336-91.592c-0.012-0.378,0.313-0.691,0.691-0.691c0.377,0,0.691,0.313,0.691,0.691
					c0,0.391-0.314,0.702-0.691,0.702C-142.023-90.89-142.348-91.201-142.336-91.592z"/>
			</g>
		</g>
	</g>
</g>
<g id="g-root-cp_1_g-1_v7d9ey1xfk8wd-stroke" transform="translate(38, 110)">
	<g id="cp_1_g-1_v7d9ey1xfk8wd-stroke">
		<g>
			<path fill="none" stroke="#EED6F6" stroke-width="2" stroke-miterlimit="10" d="M-29.536,89.957h131.44"/>
		</g>
	</g>
</g>
<g id="g-root-cp_2_g-2_qs68dm1xfk6iv-stroke" transform="translate(266, 110)">
	<g id="cp_2_g-2_qs68dm1xfk6iv-stroke">
		<g>
			<path fill="none" stroke="#EED6F6" stroke-width="2" stroke-miterlimit="10" d="M-89.174,89.957h131.44"/>
		</g>
	</g>
</g>
<g id="g-root-cp_3_g-3_qs68dm1xfk6ix-stroke" transform="translate(494, 110)">
	<g id="cp_3_g-3_qs68dm1xfk6ix-stroke">
		<g>
			<path fill="none" stroke="#EED6F6" stroke-width="2" stroke-miterlimit="10" d="M-148.813,89.957h131.439"/>
		</g>
	</g>
</g>
<g id="g-root-cp_4_g-4_mccq961xfk7b7-stroke" transform="translate(722, 110)">
	<g id="cp_4_g-4_mccq961xfk7b7-stroke">
		<g>
			<path fill="none" stroke="#EED6F6" stroke-width="2" stroke-miterlimit="10" d="M-208.451,89.957h131.439"/>
		</g>
	</g>
</g>
<g id="g-root-cp_1_g-1_1_mccq961xfk7b9-stroke" transform="translate(38, 302)">
</g>
<g id="g-root-cp_2_g-2_1_dgpq0a1xfk83y-stroke" transform="translate(266, 302)">
</g>
<g id="g-root-cp_3_g-3_1_dgpq0a1xfk83z-stroke" transform="translate(494, 302)">
</g>
<g id="g-root-cp_4_g-4_1_90w7vu1xfk8w8-stroke" transform="translate(722, 302)">
</g>
<g id="g-root-tx_mwir_90w7vu1xfk8w9-stroke" transform="translate(397.5, 38)">
</g>
<g id="g-root-ic_valu_4lp6ui1xfk6iq-stroke" transform="translate(80, 146)">
	<g>
		<g id="ic_valu_4lp6ui1xfk6iq-stroke_8_">
			<g>
				<path fill="none" stroke="#B228E0" stroke-width="2" stroke-miterlimit="10" d="M35.695,25.344h-83.047V-57.73 M-33.967,25.344
					v-57.718l12.524,30.949L8.262-45.73v69.228 M-21.275,25.344v-76.612L-3.162-4.425L19.3-12.501l3.864-16.614L35.697-45.73v69.228
					"/>
			</g>
		</g>
	</g>
</g>
<g id="g-root-ic_door_90w7vu1xflma3-stroke" transform="translate(308, 146)">
	<g>
		<g id="ic_door_90w7vu1xflma3-stroke_8_">
			<g>
				<path fill="none" stroke="#B228E0" stroke-width="2" stroke-miterlimit="10" d="M-63.607-14.347v25.845
					c0,2.039-1.653,3.691-3.692,3.691h-14.769 M-102.744-50.529l18.635,9.318c1.25,0.625,2.041,1.902,2.042,3.301v61.189
					c0,0.641-0.332,1.234-0.876,1.57s-1.224,0.365-1.797,0.08l-17.438-8.718c-1.252-0.625-2.042-1.905-2.042-3.305v-60.483
					c0-2.039,1.653-3.691,3.692-3.691H-67.3c2.039,0,3.692,1.652,3.692,3.691v3.692 M-56.224-58.652h18.46l0,0v3.691
					c0,2.039-1.652,3.692-3.691,3.692h-11.077c-2.039,0-3.692-1.653-3.692-3.692L-56.224-58.652L-56.224-58.652z M-41.772-44.201
					c-2.884,2.883-7.558,2.883-10.442,0 M-33.938-36.367c-7.21,7.211-18.901,7.211-26.11,0 M-26.106-28.535
					C-37.642-17-56.345-17-67.879-28.535"/>
			</g>
		</g>
	</g>
</g>
<g id="g-root-ic_temp_deuaqy1xfn0n8-stroke" transform="translate(536, 146)">
	<g>
		<g id="ic_temp_deuaqy1xfn0n8-stroke_8_">
			<g>
				<path fill="none" stroke="#B228E0" stroke-width="2" stroke-miterlimit="10" d="M-109.27-53.347
					c13.982,0,25.317,11.335,25.317,25.317 M-109.27-37.523c5.243,0,9.494,4.25,9.494,9.494 M-128.258,0.516V-43.79
					c0.019-2.528-0.976-4.959-2.759-6.754c-1.781-1.794-4.206-2.803-6.733-2.803l0,0c-5.244,0-9.495,4.25-9.495,9.493V0.453
					c-4.726,3.623-7.005,9.6-5.895,15.447c1.11,5.851,5.423,10.572,11.147,12.212c7.159,1.702,14.547-1.756,17.826-8.345
					C-120.888,13.18-122.583,5.201-128.258,0.516z"/>
			</g>
		</g>
	</g>
</g>
<g id="g-root-ic_arm_1iga21xf1zil-stroke" transform="translate(764, 146)">
	<g>
		<g id="ic_arm_1iga21xf1zil-stroke_8_">
			<g>
				<path fill="none" stroke="#B228E0" stroke-width="2" stroke-miterlimit="10" d="M-180.116,3.19v-18.46L-202.27-3.271V-15.27
					l-23.999,11.998v28.615h83.073V3.191L-180.116,3.19L-180.116,3.19z M-191.193,12.421c0-2.038-1.652-3.692-3.691-3.692h-11.076
					c-2.039,0-3.691,1.654-3.691,3.692v12.923h18.46L-191.193,12.421L-191.193,12.421z M-172.732,14.266h3.692 M-157.964,14.266
					h3.692 M-167.194-19.885h18.461V3.191h-18.461V-19.885z M-152.515-41.052l3.781,21.167h-18.461l3.781-21.175 M-167.194-48.5
					c0,5.098,4.133,9.23,9.229,9.23c5.098,0,9.23-4.133,9.23-9.23c0-5.097-4.133-9.23-9.23-9.23
					C-163.062-57.73-167.194-53.597-167.194-48.5 M-157.964-52.191c-2.038,0-3.691,1.652-3.691,3.691s1.653,3.692,3.691,3.692
					c2.039,0,3.692-1.653,3.692-3.692C-154.271-50.538-155.925-52.191-157.964-52.191z M-210.576-57.73h11.076v18.461h-11.076
					V-57.73z M-167.194-48.5H-199.5 M-210.576-45.018c-0.831-0.024-1.646,0.236-2.31,0.738l-9.229,7.383
					c-0.82,0.656-1.322,1.632-1.38,2.68c-0.059,1.049,0.334,2.072,1.076,2.814l5.538,5.539c0.91,1.021,2.312,1.455,3.641,1.127
					c1.328-0.328,2.367-1.362,2.698-2.69c0.33-1.328-0.1-2.729-1.117-3.644l-2.61-2.621l6.011-4.799
					c0.248-0.229,0.463-0.49,0.636-0.779 M-202.454-39.269c0.179,0.286,0.396,0.546,0.646,0.771l5.999,4.809l-2.621,2.621
					c-1.441,1.444-1.438,3.785,0.005,5.226c1.445,1.442,3.785,1.438,5.229-0.005l5.538-5.539c0.739-0.742,1.128-1.764,1.068-2.809
					c-0.058-1.045-0.557-2.019-1.373-2.674l-9.229-7.385c-0.659-0.511-1.475-0.781-2.308-0.764"/>
			</g>
		</g>
	</g>
</g>
<g id="g-root-tx__i0wmwa1xf1xqe-stroke" transform="translate(98, 326)">
</g>
<g id="g-root-tx__4pg4iy1xf1zbc-stroke" transform="translate(326, 326)">
</g>
<g id="g-root-tx__1q5qju21xf3c3u-stroke" transform="translate(572, 326)">
</g>
<g id="g-root-tx__1cua1gq1xf3dos-stroke" transform="translate(782, 326)">
</g>
<g id="g-root-tx_35m_959mne1xf1yj3-stroke" transform="translate(62, 362)">
</g>
<g id="g-root-tx_insbmct_9i3u1xf3bi9-stroke" transform="translate(290, 362)">
</g>
<g id="g-root-tx__1lpx1pm1xf3cw3-stroke" transform="translate(518, 362)">
</g>
<g id="g-root-tx__18egjca1xf3eh1-stroke" transform="translate(746, 362)">
</g>
</svg>
