<?xml version="1.0" encoding="UTF-8"?>
<svg id="Layer_1" xmlns="http://www.w3.org/2000/svg" version="1.1" xmlns:xlink="http://www.w3.org/1999/xlink" viewBox="0 0 650 282">
  <!-- Generator: Adobe Illustrator 29.3.1, SVG Export Plug-In . SVG Version: 2.1.0 Build 151)  -->
  <defs>
    <style>
      .st0 {
        stroke: #e0cb15;
        stroke-linecap: round;
        stroke-linejoin: round;
      }

      .st0, .st1 {
        fill: none;
        stroke-width: 2px;
      }

      .st2 {
        fill: #b29649;
      }

      .st3 {
        isolation: isolate;
      }

      .st1 {
        stroke: #fff3d0;
        stroke-miterlimit: 10;
      }
    </style>
  </defs>
  <g id="g-root-tx_swir_4hxgqi1wbkglh-fill">
    <g id="tx_swir_4hxgqi1wbkglh-fill">
      <g class="st3">
        <path class="st2" d="M128.7,13.5h-5.5v4.5c3.2,0,5-.1,6.9-.5l.3,2c-2.2.5-4.3.6-8.2.6h-1.5v-8.5h8v2ZM134.7,27.5h-12.1v-5.9h2.5v4h9.6v2h0ZM134.1,14.9h2.4v2h-2.4v5.9h-2.5v-12.8h2.5v4.8Z"/>
        <path class="st2" d="M147.3,13.7h-1.6v7.7c.7,0,1.4-.1,2.1-.2v1.8c-3.5.6-7.5.7-10.6.7l-.3-2h2v-8h-1.6v-2h9.9v2s0,0,0,0ZM143.4,21.6v-7.9h-1.9v7.9h1.9ZM151.2,16.8h2.6v2h-2.6v8.9h-2.5V10.1h2.5v6.7Z"/>
        <path class="st2" d="M167.5,11.9h4v-1.8h2.5v8.9h-2.5v-1.5h-4c-.8.8-2.1,1.3-3.5,1.3-2.7,0-4.7-1.7-4.7-4.1,0-2.4,2-4.1,4.7-4.1,1.4,0,2.7.5,3.5,1.3ZM161.6,14.7c0,1.3,1,2.1,2.4,2.1s2.3-.8,2.3-2.1-1-2.1-2.3-2.1c-1.4,0-2.4.8-2.4,2.1ZM173.9,24.5h-9.3v1.1h9.8v1.9h-12.3v-4.9h9.3v-1.1h-9.3v-1.9h11.8v4.8h0ZM168.6,14.7c0,.3,0,.6,0,.8h2.9v-1.7h-2.9c0,.3,0,.5,0,.8Z"/>
        <path class="st2" d="M180.4,22.7v-1.5c-1.9-.4-3.1-1.6-3.1-3.2,0-2,1.8-3.3,4.4-3.3s4.3,1.3,4.4,3.3c0,1.6-1.3,2.8-3.1,3.2v1.4c1.4,0,2.8-.2,4.1-.4l.2,1.8c-3.8.7-7.8.7-10.8.7l-.3-2c1.3,0,2.8,0,4.4,0ZM186.9,14h-10.5v-1.9h4v-1.9h2.5v1.9h4v1.9ZM179.7,18c0,.9.8,1.4,2,1.4s2-.5,2-1.4-.8-1.4-2-1.4c-1.2,0-2,.5-2,1.4ZM190.4,17.3h2.3v2.1h-2.3v8.4h-2.5V10.1h2.5v7.2Z"/>
        <path class="st2" d="M203.9,17.9l-1.3,1.9c-1.9-.6-3.2-1.8-3.9-3.4-.8,1.8-2.1,3.2-4.2,3.9l-1.3-1.9c3-1,4.2-3.3,4.2-5.8v-1.6h2.5v1.8c0,2.1,1.2,4.2,4,5.1ZM207.6,24.4c0,2.2-2.3,3.4-6,3.4s-6.1-1.2-6.1-3.4,2.3-3.4,6.1-3.4,6,1.3,6,3.4ZM198.1,24.4c0,1,1.2,1.5,3.6,1.5s3.5-.5,3.5-1.5-1.2-1.5-3.5-1.5-3.6.5-3.6,1.5ZM207.5,14.2h2.4v2.1h-2.4v4.3h-2.5v-10.5h2.5v4.1Z"/>
        <path class="st2" d="M211.9,25.1l-1.4-1.9c3-1.5,4.7-3.1,5.7-5.1l-5.2.5-.3-2.1,6.3-.4c.2-.7.3-1.5.4-2.4h-5.7v-2h8.2c0,5.5-1.3,10-8,13.3ZM224.6,16.9h2.5v2h-2.5v8.8h-2.5V10.1h2.5v6.8Z"/>
        <path class="st2" d="M235.4,16.5h1.8v-6.2h2.3v16.6h-2.3v-8.5h-1.8v4.8h-7v-11.4h7s0,4.6,0,4.6ZM230.7,21.4h2.4v-7.5h-2.4v7.5ZM243.2,27.8h-2.4V10.1h2.4v17.7Z"/>
        <path class="st2" d="M253.9,18.4h-5.7v3.2c2.6,0,4.7-.1,7.1-.5l.2,2c-2.7.5-5.1.6-8.2.6h-1.5v-7.2h5.7v-2.9h-5.7v-2h8.2v6.9h0ZM259,16.8h2.6v2h-2.6v9h-2.4V10.1h2.4v6.7Z"/>
        <path class="st2" d="M270.8,11.3h2.7c-1.3,1.9-2.7,5.8-2.7,9.3s1.4,7.4,2.7,9.3h-2.7c-1.9-2.6-3-5.7-3-9.3,0-3.7,1.1-6.7,3-9.3Z"/>
        <path class="st2" d="M280.5,14.2c-1.5,0-2.3.7-2.3,1.6,0,1,1,1.5,2.3,1.7l1.3.3c2.4.5,4.2,1.8,4.2,4.1s-2,4.2-5.4,4.2-5.6-1.6-5.7-4.6h2.8c0,1.4,1.2,2.1,2.8,2.1s2.5-.7,2.5-1.8-.9-1.4-2.4-1.8l-1.5-.4c-2.4-.6-3.8-1.8-3.8-3.8s2.3-4.3,5.3-4.3,5.2,1.7,5.2,4.2h-2.8c-.1-1.1-1-1.8-2.4-1.8Z"/>
        <path class="st2" d="M286.9,11.9h3.2l2.4,9.8h.1l2.6-9.8h2.7l2.6,9.9h.1l2.4-9.9h3.2l-4,14.1h-2.9l-2.7-9.3h-.1l-2.7,9.3h-2.9l-4-14.1Z"/>
        <path class="st2" d="M310.6,26h-2.9v-14.1h2.9v14.1Z"/>
        <path class="st2" d="M312.9,11.9h5.5c3.2,0,5,1.8,5,4.6s-.9,3.3-2.5,4l3,5.5h-3.2l-2.7-5h-2.2v5h-2.9v-14.1h0ZM317.9,18.6c1.7,0,2.6-.7,2.6-2.1s-.8-2.2-2.6-2.2h-2.1v4.3h2.1Z"/>
        <path class="st2" d="M326.9,30.1h-2.1l1-5.5h2.8l-1.7,5.5Z"/>
        <path class="st2" d="M340.4,14.2c-1.5,0-2.3.7-2.3,1.6,0,1,1,1.5,2.3,1.7l1.3.3c2.4.5,4.2,1.8,4.2,4.1s-2,4.2-5.4,4.2-5.6-1.6-5.7-4.6h2.8c0,1.4,1.2,2.1,2.8,2.1s2.5-.7,2.5-1.8-.9-1.4-2.4-1.8l-1.5-.4c-2.4-.6-3.8-1.8-3.8-3.8s2.3-4.3,5.3-4.3,5.2,1.7,5.2,4.2h-2.8c-.1-1.1-1-1.8-2.4-1.8Z"/>
        <path class="st2" d="M350.6,26h-2.9v-14.1h2.8v5.4h.1c.5-1.2,1.6-2,3.1-2s3.7,1.5,3.7,4v6.7h-2.9v-6.2c0-1.3-.7-2.1-1.9-2.1s-2.1.8-2.1,2.2v6.1h0Z"/>
        <path class="st2" d="M359.2,20.7c0-3.3,2-5.4,5.2-5.4s5.2,2.2,5.2,5.4-2,5.5-5.2,5.5-5.2-2.2-5.2-5.5ZM366.6,20.7c0-1.9-.8-3.2-2.2-3.2s-2.3,1.4-2.3,3.2.8,3.2,2.3,3.2c1.5,0,2.2-1.4,2.2-3.2Z"/>
        <path class="st2" d="M371.4,15.4h2.8v1.8h.1c.4-1.3,1.4-2,2.5-2s.7,0,.9,0v2.6c-.3,0-.8-.2-1.2-.2-1.3,0-2.3.9-2.3,2.2v6h-2.9v-10.6h0Z"/>
        <path class="st2" d="M385.2,17.6h-2v5.2c0,.8.4,1,1,1.1.3,0,.8,0,1.1,0v2.3c-.3,0-.8,0-1.5,0-2.1,0-3.5-.9-3.5-3v-5.6h-1.5v-2.2h1.5v-2.5h2.9v2.5h2v2.2Z"/>
        <path class="st2" d="M393.2,21.3h-6.4v-2.3h6.4s0,2.3,0,2.3Z"/>
        <path class="st2" d="M394.4,11.9h3.2l2.4,9.8h.1l2.6-9.8h2.7l2.6,9.9h.1l2.4-9.9h3.2l-4,14.1h-2.9l-2.7-9.3h-.1l-2.7,9.3h-2.9l-4-14.1Z"/>
        <path class="st2" d="M417.4,19.8c.8,0,2.2-.1,2.6-.1v-.9c0-.9-.6-1.4-1.7-1.4s-1.6.4-1.7,1.2h-2.7c.2-1.8,1.8-3.3,4.6-3.3s4.5,1,4.5,3.6v7.1h-2.7v-1.5h0c-.5,1-1.5,1.7-3.1,1.7s-3.5-1-3.5-3.1c0-2.4,1.9-3.1,3.9-3.2ZM417.8,24.2c1.3,0,2.2-.9,2.2-2v-.8c-.4,0-1.7,0-2.2.1-1,0-1.6.6-1.6,1.4,0,.8.7,1.2,1.6,1.2Z"/>
        <path class="st2" d="M430.7,26h-3.2l-3.7-10.6h3l2.2,7.6h.1l2.2-7.6h3.1l-3.7,10.6Z"/>
        <path class="st2" d="M435.1,20.8c0-3.3,2-5.5,5.1-5.5s5,1.7,5,5.3v.8h-7.2c0,1.6,1,2.6,2.4,2.6s1.7-.4,2-1.1h2.7c-.4,1.9-2.2,3.2-4.8,3.2-3.2,0-5.2-2.1-5.2-5.4ZM442.4,19.7c0-1.3-.9-2.2-2.2-2.2s-2.3,1-2.3,2.2h4.5Z"/>
        <path class="st2" d="M454.5,26h-2.9v-14.1h2.9v14.1Z"/>
        <path class="st2" d="M459.7,26h-2.9v-10.6h2.7v1.8h.1c.5-1.2,1.6-2,3.2-2s3.7,1.5,3.6,4v6.7h-2.9v-6.2c0-1.3-.7-2.1-1.9-2.1s-2,.8-2,2.2v6.1h0Z"/>
        <path class="st2" d="M474.3,17.6h-2.1v8.4h-2.9v-8.4h-1.5v-2.2h1.5v-.8c0-2.2,1.3-3.4,3.5-3.4s1.2,0,1.7.2v2.2c-.4,0-.7,0-.9,0-.9,0-1.4.4-1.4,1.2v.6h2.1v2.2h0Z"/>
        <path class="st2" d="M476,15.4h2.8v1.8h.1c.4-1.3,1.4-2,2.5-2s.7,0,.9,0v2.6c-.3,0-.8-.2-1.2-.2-1.3,0-2.3.9-2.3,2.2v6h-2.9v-10.6h0Z"/>
        <path class="st2" d="M486.9,19.8c.8,0,2.2-.1,2.6-.1v-.9c0-.9-.6-1.4-1.7-1.4s-1.6.4-1.7,1.2h-2.7c.2-1.8,1.8-3.3,4.6-3.3s4.5,1,4.5,3.6v7.1h-2.7v-1.5h0c-.5,1-1.5,1.7-3.1,1.7s-3.5-1-3.5-3.1c0-2.4,1.9-3.1,3.9-3.2ZM487.3,24.2c1.3,0,2.2-.9,2.2-2v-.8c-.4,0-1.7,0-2.2.1-1,0-1.6.6-1.6,1.4s.7,1.2,1.6,1.2Z"/>
        <path class="st2" d="M494.6,15.4h2.8v1.8h.1c.4-1.3,1.4-2,2.5-2s.7,0,.9,0v2.6c-.3,0-.8-.2-1.2-.2-1.3,0-2.3.9-2.3,2.2v6h-2.9v-10.6h0Z"/>
        <path class="st2" d="M501.6,20.8c0-3.3,2-5.5,5.1-5.5s5,1.7,5,5.3v.8h-7.2c0,1.6,1,2.6,2.4,2.6s1.7-.4,2-1.1h2.7c-.4,1.9-2.2,3.2-4.8,3.2-3.2,0-5.2-2.1-5.2-5.4ZM508.9,19.7c0-1.3-.9-2.2-2.2-2.2s-2.3,1-2.3,2.2h4.5Z"/>
        <path class="st2" d="M513,20.7c0-3.6,2-5.4,4.3-5.4s2.6,1,3,1.9h0v-5.3h2.9v14.1h-2.8v-1.7h-.1c-.4.9-1.3,1.9-3,1.9-2.4,0-4.3-1.9-4.3-5.4ZM520.5,20.7c0-1.9-.8-3.1-2.3-3.1s-2.2,1.3-2.2,3.1.8,3.2,2.2,3.2c1.4,0,2.3-1.3,2.3-3.2Z"/>
        <path class="st2" d="M527.7,30h-2.7c1.3-1.9,2.7-5.8,2.7-9.3s-1.4-7.4-2.7-9.3h2.7c1.9,2.6,3,5.7,3,9.3s-1.1,6.7-3,9.3Z"/>
      </g>
    </g>
  </g>
  <g id="g-root-tx__1q87hfe1wbketi-fill">
    <g id="tx__1q87hfe1wbketi-fill">
      <g class="st3">
        <path class="st2" d="M48.8,192.4h-1.1v5.2c.5,0,1,0,1.4-.1v1.2c-2.4.4-5.1.5-7.2.5l-.2-1.4h1.4v-5.4h-1.1v-1.3h6.7v1.3h0ZM46.1,197.7v-5.3h-1.3v5.4h1.3ZM51.4,194.5h1.8v1.4h-1.8v6.1h-1.7v-12h1.7v4.6Z"/>
        <path class="st2" d="M60.4,192.1h-2.4c0,1.4.9,2.7,2.8,3.3l-.8,1.3c-1.3-.4-2.2-1.2-2.8-2.2-.5,1.2-1.5,2.2-3,2.6l-.9-1.3c2-.6,2.9-2.2,2.9-3.7h-2.5v-1.3h6.5v1.3h0ZM63.2,199.6c0,1.5-1.6,2.3-4,2.3s-4.1-.9-4.1-2.3,1.6-2.3,4.1-2.3c2.5,0,4,.8,4,2.3ZM56.7,199.6c0,.7.8,1,2.4,1s2.4-.3,2.4-1-.8-1-2.4-1-2.4.3-2.4,1ZM63.1,192.7h1.6v1.4h-1.6v3h-1.7v-7.1h1.7v2.8Z"/>
        <path class="st2" d="M68.9,196.9l-.7-1.3c2.7-.7,4.2-2,4.5-3.6h-3.9v-1.3h5.7c0,3.2-2,5.3-5.6,6.3ZM77.8,201.8h-7.8v-4.7h7.8s0,4.7,0,4.7ZM71.7,200.5h4.5v-2h-4.5v2ZM77.8,192.6h1.6v1.4h-1.6v2.7h-1.7v-6.7h1.7v2.6Z"/>
        <path class="st2" d="M87.6,198.1l-.9,1.3c-1.4-.6-2.4-1.8-2.9-3.3-.5,1.6-1.5,2.9-3,3.6l-1-1.3c2-.9,3-3.1,3-5.1v-.7h-2.5v-1.4h6.8v1.4h-2.5v.7c0,1.9,1,4,3,4.9ZM90,201.9h-1.7v-12h1.7s0,12,0,12Z"/>
      </g>
    </g>
  </g>
  <g id="g-root-tx__1hap1x61wblurl-fill">
    <g id="tx__1hap1x61wblurl-fill">
      <g class="st3">
        <path class="st2" d="M182.3,197.9h-4.7v4h-1.7v-4h-4.6v-1.3h10.9v1.3ZM181.3,191.9h-3.5c.2,1.2,1.5,2.4,4,2.6l-.6,1.3c-2.1-.3-3.6-1.2-4.3-2.4-.7,1.2-2.2,2.1-4.3,2.4l-.6-1.3c2.4-.3,3.8-1.5,4-2.6h-3.5v-1.3h9v1.3h0Z"/>
        <path class="st2" d="M194,200.5h-11v-1.4h2.5v-2.9c-.9-.6-1.5-1.4-1.5-2.5,0-1.9,1.9-3.2,4.5-3.2s4.5,1.3,4.5,3.2c0,1-.6,1.9-1.4,2.4v3h2.4s0,1.4,0,1.4ZM185.7,193.7c0,1.2,1.1,1.9,2.8,1.9s2.8-.7,2.9-1.9c0-1.2-1.2-1.9-2.9-1.9-1.7,0-2.8.7-2.8,1.9ZM189.9,199.2v-2.3c-.4,0-.9.1-1.4.1s-.9,0-1.4-.1v2.3h2.7Z"/>
        <path class="st2" d="M208.7,197.5h-11v-1.3h11v1.3ZM207.4,201.9h-1.7v-2.3h-6.7v-1.3h8.4s0,3.7,0,3.7ZM207.6,195.4h-8.4v-5.2h8.3v1.3h-6.6v.7h6.4v1.2h-6.4v.7h6.7v1.3h0Z"/>
        <path class="st2" d="M216.5,192.1h-2.4c0,1.4.9,2.7,2.8,3.3l-.9,1.3c-1.3-.4-2.3-1.2-2.8-2.3-.5,1.2-1.5,2.1-2.9,2.6l-.9-1.3c1.9-.6,2.8-2.1,2.9-3.6h-2.5v-1.4h6.6v1.4h0ZM219.5,199.6c0,1.5-1.6,2.3-4.1,2.3-2.6,0-4.1-.8-4.1-2.3s1.6-2.3,4.1-2.3c2.5,0,4.1.9,4.1,2.3ZM213,199.6c0,.7.8,1,2.4,1,1.6,0,2.5-.3,2.5-1s-.9-1-2.5-1c-1.6,0-2.4.4-2.4,1ZM219.5,197.1h-1.7v-7.1h1.7v7.1Z"/>
      </g>
    </g>
  </g>
  <g id="g-root-tx__qoei9m1wbluro-fill">
    <g id="tx__qoei9m1wbluro-fill">
      <g class="st3">
        <path class="st2" d="M311.8,197.5h-10.9v-1.3h4.6v-1c-2.2-.2-3.5-1.1-3.5-2.5s1.7-2.5,4.4-2.5,4.4.9,4.4,2.5c0,1.4-1.4,2.3-3.5,2.5v1h4.6v1.3h0ZM310.5,201.7h-8.4v-3.5h1.7v2.2h6.7v1.3h0ZM303.7,192.7c0,.8,1,1.1,2.6,1.1s2.6-.4,2.6-1.1-1-1.1-2.6-1.1-2.6.4-2.6,1.1Z"/>
        <path class="st2" d="M322.3,196.6h-3.5v2.6h4.7v1.4h-11v-1.4h4.6v-2.6h-3.3v-5.9h8.4v1.3h-6.7v3.2h6.8v1.3h0Z"/>
        <path class="st2" d="M327.8,196.9l-.7-1.3c2.7-.7,4.2-2,4.5-3.6h-3.9v-1.3h5.7c0,3.2-2,5.3-5.6,6.3ZM336.8,201.8h-7.8v-4.7h7.8s0,4.7,0,4.7ZM330.6,200.5h4.5v-2h-4.5v2ZM336.8,192.6h1.6v1.4h-1.6v2.7h-1.7v-6.7h1.7s0,2.6,0,2.6Z"/>
        <path class="st2" d="M346.6,198.1l-.9,1.3c-1.4-.6-2.4-1.8-2.9-3.3-.5,1.6-1.5,2.9-3,3.6l-1-1.3c2-.9,3-3.1,3-5.1v-.7h-2.5v-1.4h6.8v1.4h-2.5v.7c0,1.9,1,4,3,4.9ZM349,201.9h-1.7v-12h1.7v12Z"/>
      </g>
    </g>
  </g>
  <g id="g-root-tx__dbp1q21wbn7kf-fill">
    <g id="tx__dbp1q21wbn7kf-fill">
      <g class="st3">
        <path class="st2" d="M441.2,197.9h-4.7v4h-1.7v-4h-4.6v-1.3h10.9v1.3ZM440.3,191.9h-3.5c.2,1.2,1.5,2.4,4,2.6l-.6,1.3c-2.1-.3-3.6-1.2-4.3-2.4-.7,1.2-2.2,2.1-4.3,2.4l-.6-1.3c2.4-.3,3.8-1.5,4-2.6h-3.5v-1.3h9v1.3h0Z"/>
        <path class="st2" d="M452.9,200.5h-11v-1.4h2.5v-2.9c-.9-.6-1.5-1.4-1.5-2.5,0-1.9,1.9-3.2,4.5-3.2s4.5,1.3,4.5,3.2c0,1-.6,1.9-1.5,2.4v3h2.4v1.4ZM444.6,193.7c0,1.2,1.1,1.9,2.8,1.9s2.8-.7,2.9-1.9c0-1.2-1.2-1.9-2.9-1.9-1.7,0-2.8.7-2.8,1.9ZM448.8,199.2v-2.3c-.4,0-.9.1-1.4.1s-.9,0-1.4-.1v2.3h2.7Z"/>
        <path class="st2" d="M467.7,196.9h-10.9v-1.3h10.9v1.3ZM466.5,192.5c0,1.5-1.7,2.3-4.4,2.3s-4.4-.9-4.4-2.3,1.7-2.3,4.4-2.4c2.6,0,4.4.9,4.4,2.4ZM466.4,199.7c0,1.4-1.6,2.2-4.2,2.2s-4.2-.8-4.2-2.2,1.6-2.2,4.2-2.2,4.2.8,4.2,2.2ZM459.6,192.5c0,.7.9,1,2.6,1s2.6-.3,2.6-1-1-1-2.6-1c-1.7,0-2.6.3-2.6,1ZM459.7,199.7c0,.6.8.9,2.5.9s2.5-.3,2.5-.9c0-.6-.9-.9-2.5-.9s-2.5.3-2.5.9Z"/>
        <path class="st2" d="M479.3,197h-10.9v-1.3h2.5v-1.4c-.9-.4-1.4-1-1.4-1.8,0-1.4,1.7-2.3,4.4-2.3s4.4.9,4.4,2.3c0,.8-.5,1.4-1.4,1.8v1.4h2.5v1.3h0ZM478,199.7c0,1.4-1.6,2.2-4.2,2.2s-4.2-.8-4.2-2.2,1.6-2.1,4.2-2.1c2.6,0,4.2.8,4.2,2.1ZM471.2,192.4c0,.7.9,1,2.6,1s2.6-.3,2.6-1-.9-1-2.6-1c-1.7,0-2.6.4-2.6,1ZM471.3,199.7c0,.6.8.9,2.5.9s2.5-.3,2.5-.9c0-.6-.9-.9-2.5-.9-1.7,0-2.5.3-2.5.9ZM475.1,195.6v-1c-.4,0-.8,0-1.3,0s-.9,0-1.3,0v1h2.6Z"/>
      </g>
    </g>
  </g>
  <g id="g-root-tx__1qdtr7e1wbnabu-fill">
    <g id="tx__1qdtr7e1wbnabu-fill">
      <g class="st3">
        <path class="st2" d="M566.2,195.1c0,2.6-1.3,4.3-3.2,4.3s-3.2-1.6-3.2-4.3c0-2.6,1.3-4.3,3.2-4.3s3.2,1.7,3.2,4.3ZM561.4,195.1c0,1.8.6,2.8,1.5,2.8s1.5-1,1.6-2.8c0-1.8-.6-2.8-1.6-2.8s-1.5,1-1.5,2.8ZM570.9,194.1h-1.7v2.1h1.7v1.4h-1.7v4.3h-1.7v-12h1.7v2.8h1.7v1.4Z"/>
        <path class="st2" d="M572,197.4l-.7-1.3c2.7-.8,4.2-2.1,4.5-3.8h-4v-1.4h5.8c0,3.2-2,5.5-5.6,6.5ZM581.3,201.7h-8.2v-4.1h1.7v2.7h6.5v1.3ZM580.9,193.3h1.6v1.4h-1.6v3.9h-1.7v-8.6h1.7v3.4Z"/>
        <path class="st2" d="M586.7,196.9l-.7-1.3c2.7-.7,4.2-2,4.5-3.6h-3.9v-1.3h5.7c0,3.2-2,5.3-5.6,6.3ZM595.7,201.8h-7.8v-4.7h7.8v4.7ZM589.5,200.5h4.5v-2h-4.5v2ZM595.7,192.6h1.6v1.4h-1.6v2.7h-1.7v-6.7h1.7v2.6Z"/>
        <path class="st2" d="M605.5,197.9l-1,1.3c-1.4-.6-2.3-1.8-2.9-3.3-.5,1.6-1.5,2.9-3,3.6l-1-1.4c2.1-.9,3.1-3.2,3.1-5.5v-1.8h1.7v1.8c0,2.2,1,4.4,3,5.3ZM607.9,202h-1.7v-12h1.7v12Z"/>
      </g>
    </g>
  </g>
  <g id="g-root-tx_13mingaa_1q87hfe1wbketj-fill">
    <g id="tx_13mingaa_1q87hfe1wbketj-fill">
      <g class="st3">
        <path d="M24.9,220.1h-3.1v-.8h3.1v.8Z"/>
        <path d="M31.2,222.7h-.9v-6.2h0l-1.7,1.1v-.9l1.8-1.2h.9v7.1Z"/>
        <path d="M34.5,219.3c.7,0,1.4.6,2.1.6s.8-.2,1.1-.6v.8c-.3.4-.7.6-1.1.6-.7,0-1.4-.6-2.1-.6s-.8.2-1.1.6v-.8c.3-.4.7-.6,1.1-.6Z"/>
        <path d="M39.2,221h.9c0,.7.7,1.1,1.6,1.1s1.6-.5,1.6-1.2-.6-1.3-1.7-1.3h-.6v-.8h.6c.9,0,1.5-.5,1.5-1.2s-.5-1.2-1.3-1.2-1.4.4-1.5,1.1h-.9c0-1.1,1.1-1.9,2.3-1.9s2.2.9,2.2,1.9c0,.8-.5,1.4-1.2,1.6h0c.9.2,1.5.9,1.5,1.7,0,1.2-1.1,2-2.5,2-1.4,0-2.4-.8-2.5-1.9Z"/>
        <path d="M45.4,217.4h.8v3.1c0,.9.6,1.4,1.4,1.4s1.5-.6,1.5-1.4v-3.1h.8v5.3h-.8v-.8h0c-.3.6-.8.8-1.4.8s-1.1-.3-1.4-.8h0v2.8h-.8s0-7.3,0-7.3Z"/>
        <path d="M51.4,217.4h.8v.8h0c.2-.6.7-.9,1.4-.9s1.2.3,1.4.9h0c.3-.5.8-.9,1.6-.9s1.6.6,1.6,1.8v3.5h-.8v-3.5c0-.8-.5-1.1-1.1-1.1s-1.2.5-1.2,1.2v3.4h-.8v-3.6c0-.6-.4-1-1-1s-1.2.5-1.2,1.3v3.3h-.8v-5.3h0Z"/>
        <path d="M65.2,220.7v.6c-1.9.4-4.1.4-5.6.4v-.7c1.5,0,3.7,0,5.6-.3ZM64.5,217.5c0,1.2-1,2-2.3,2s-2.4-.8-2.3-2c0-1.2,1-2,2.3-2s2.3.8,2.3,2ZM60.6,217.5c0,.8.7,1.4,1.6,1.4s1.6-.6,1.6-1.4-.7-1.4-1.6-1.4c-.9,0-1.6.6-1.6,1.4ZM66.5,223.5h-.8v-8.7h.8v8.7Z"/>
        <path d="M75.5,216.4h-1v4.2c.5,0,.9,0,1.4-.1v.6c-1.8.3-3.9.3-5.4.3v-.7c0,0,1.1,0,1.1,0v-4.3h-1v-.6h4.9v.6ZM73.8,220.6v-4.2h-1.5v4.3c.5,0,1,0,1.5,0ZM77.2,218.3h1.5v.6h-1.5v4.6h-.8v-8.7h.8v3.5Z"/>
        <path d="M84.2,219.1l-.4.6c-1-.3-1.8-1-2.1-1.9-.4,1-1.2,1.8-2.2,2.1l-.4-.6c1.3-.4,2.2-1.6,2.2-2.8v-.4h-2v-.6h4.7v.6h-2v.4c0,1.1.8,2.2,2.1,2.6ZM86,221.9c0,1-1.1,1.6-2.9,1.6s-2.9-.6-2.9-1.6,1.1-1.6,2.9-1.6c1.8,0,2.9.6,2.9,1.6ZM81.1,221.9c0,.6.8,1,2.1,1s2.1-.4,2.1-1-.8-1-2.1-1c-1.3,0-2.1.4-2.1,1ZM86,217.1h1.3v.6h-1.3v2.4h-.8v-5.2h.8v2.2Z"/>
        <path d="M95.7,219.2h-7.9v-.6h7.9v.6ZM94.8,216.5c0,1-1.1,1.5-3.1,1.5-1.9,0-3.1-.5-3.1-1.5s1.1-1.5,3.1-1.5,3.1.5,3.1,1.5ZM94.7,221.9h-5.2v.9h5.4v.6h-6.2v-2.1h5.2v-.8h-5.2v-.6h5.9v1.9h0ZM89.5,216.5c0,.6.8.9,2.3.9s2.3-.3,2.3-.9-.8-.9-2.3-.9-2.3.4-2.3.9Z"/>
        <path d="M99.3,219.9l-.3-.6c2.1-.6,3.4-1.7,3.6-3.2h-3.2v-.6h4c0,2.2-1.5,3.8-4.1,4.5ZM105.8,223.4h-5.5v-3.2h5.5v3.2ZM101,222.8h4v-2h-4v2ZM105.8,217h1.3v.6h-1.3v2.2h-.8v-4.9h.8v2.1Z"/>
        <path d="M113.1,221l-.4.6c-1-.5-1.9-1.5-2.3-2.7-.4,1.3-1.3,2.4-2.3,2.9l-.5-.6c1.2-.6,2.3-2.2,2.3-3.7v-1.1h-2.1v-.6h4.9v.6h-2.1v1.1c0,1.5,1.1,3,2.4,3.5ZM114.8,223.5h-.8v-8.7h.8v8.7Z"/>
        <path d="M24.9,232.1h-3.1v-.8h3.1v.8Z"/>
        <path d="M29.7,234.7h-.9v-7.1h.9v7.1Z"/>
        <path d="M32,234.7h-.8v-5.3h.8v.8h0c.3-.5.7-.9,1.6-.9s1.8.7,1.8,2v3.4h-.8v-3.3c0-.8-.4-1.3-1.2-1.3s-1.3.5-1.3,1.4c0,0,0,3.2,0,3.2Z"/>
        <path d="M39.6,228.4c-1.2,0-2.2,1-2.2,2.8s1,2.8,2.3,2.8,2-.8,2-2.1h-1.8v-.8h2.7v.8c0,1.8-1.2,2.9-2.9,2.9s-3.2-1.4-3.2-3.6,1.3-3.6,3.1-3.6,2.6.9,2.9,2.3h-.9c-.3-.9-1-1.5-2-1.5Z"/>
        <path d="M45.5,231.7c.3,0,1.2,0,1.4,0v-.4c0-.7-.4-1.1-1.2-1.1s-1.1.3-1.2.7h-.9c.1-.8.9-1.4,2.1-1.4s2,.2,2,1.9v3.5h-.8v-.7h0c-.2.4-.7.8-1.6.8s-1.8-.6-1.8-1.6c0-1.2,1.1-1.5,2-1.6ZM45.5,234.1c.9,0,1.5-.6,1.5-1.3v-.5h-1.3c-.8.1-1.2.4-1.2,1,0,.6.5.8,1.1.8Z"/>
        <path d="M48.7,234.7l2.6-7.1h.9l2.6,7.1h-.9l-.7-2h-2.8l-.7,2h-.9ZM52.9,232l-1.1-3.2h0l-1.1,3.2h2.3Z"/>
        <path d="M57.5,230.1c-.7,0-1.1.4-1.1.8s.3.6.9.7l.8.2c.9.2,1.4.7,1.4,1.4s-.8,1.6-2.1,1.6-1.9-.5-2-1.5h.9c0,.5.5.8,1.1.8s1.2-.3,1.2-.8-.3-.6-.9-.8l-.8-.2c-.9-.2-1.4-.7-1.4-1.4s.8-1.6,2-1.6,1.8.6,1.9,1.4h-.8c-.1-.4-.5-.7-1.1-.7Z"/>
        <path d="M67.1,231.3l-.4.6c-.8-.4-1.4-1-1.7-1.8-.3.9-.9,1.6-1.8,2l-.4-.6c1.1-.5,1.8-1.7,1.8-2.8v-1.3h.7v1.3c0,1,.6,2.1,1.7,2.5ZM70.4,235.3h-6v-2.8h.8v2.1h5.2v.6ZM68.4,233.1h-.7v-3.4h-1.4v-.6h1.4v-2h.7v6.1ZM70.1,233.4h-.7v-6.5h.7v6.5Z"/>
        <path d="M76.7,232.9l-.5.6c-1-.5-1.8-1.5-2.2-2.8-.4,1.3-1.2,2.4-2.2,2.9l-.5-.6c1.3-.6,2.3-2.3,2.3-3.9v-1.6h.8v1.6c0,1.6,1,3.2,2.3,3.7ZM78.6,235.5h-.8v-5.1h-2.1v-.6h2.1v-3h.8v8.7Z"/>
      </g>
    </g>
  </g>
  <g id="g-root-tx__18f21oa1wblvka-fill">
    <g id="tx__18f21oa1wblvka-fill">
      <g class="st3">
        <path d="M152.7,218.1h-2.9v-.8h2.9v.8Z"/>
        <path d="M163.6,218.4h-3.4v3.1h-.7v-3.1h-3.4v-.6h7.6v.6h0ZM162.7,215.1c0,1.2-1.2,1.9-2.9,1.9s-2.9-.7-2.9-1.9,1.2-1.9,2.9-1.9c1.7,0,2.9.7,2.9,1.9ZM157.6,215.1c0,.8.9,1.3,2.2,1.3s2.2-.5,2.2-1.3-.9-1.3-2.2-1.3c-1.3,0-2.2.5-2.2,1.3Z"/>
        <path d="M171.8,218.4h-3.4v3.1h-.7v-3.1h-3.4v-.6h7.5v.6h0ZM171.4,216.1l-.3.6c-1.3-.2-2.5-1-3.1-2-.5,1.1-1.8,1.8-3.1,2l-.3-.6c1.5-.2,3-1.3,3-2.5v-.5h.8v.5c0,1.2,1.5,2.3,3,2.5Z"/>
        <path d="M177.4,214.5h-4.9v-.6h2.1v-1.1h.7v1.1h2.1v.6h0ZM176.9,216.6c0,1-.8,1.6-2,1.6s-2-.6-2-1.6c0-1,.8-1.6,2-1.6s2,.6,2,1.6ZM173.6,216.6c0,.6.5,1,1.3,1,.8,0,1.3-.4,1.3-1,0-.6-.5-1-1.3-1s-1.3.4-1.3,1ZM179.3,221.3h-5.5v-2.5h.7v1.9h4.8v.6h0ZM178.9,215.7h1.2v.6h-1.2v3h-.7v-6.5h.7v2.9h0Z"/>
        <path d="M190.6,218.7h-3.4v2.8h-.7v-2.8h-3.4v-.6h7.6v.6ZM189.7,217.2h-5.7v-4h5.6v.6h-4.9v1h4.7v.6h-4.7v1.1h5v.6h0Z"/>
        <path d="M193.7,218.9c.9,0,1.9,0,2.7-.2v.6c-1.7.3-3.6.3-5.1.3v-.6c.5,0,1.1,0,1.7,0v-2.7h.7v2.6h0ZM195.8,214.2c0,.7,0,1.8-.2,3.4h-.7c.2-1.5.2-2.6.2-3.3h-3.5v-.6h4.2v.4ZM197.6,216.4h1.3v.7h-1.3v4.4h-.7v-8.7h.7v3.6Z"/>
        <path d="M203.4,215.8h-2.8v1.3c1.5,0,2.3,0,3.3-.2v.6c-1,.2-1.8.2-3.5.2h-.6v-2.6h2.8v-1.2h-2.9v-.6h3.6s0,2.4,0,2.4ZM206.3,221.5h-.7v-2.3h-4.8v-.6h5.6v2.9h0ZM206.3,218.2h-.7v-1.6h-1.6v-.6h1.6v-1.2h-1.6v-.6h1.6v-1.3h.7v5.3Z"/>
        <path d="M152.7,230.1h-2.9v-.8h2.9v.8Z"/>
        <path d="M160,225.9h2.1v-1.1h.7v4.5h-.7v-1h-2.1c-.4.5-1,.8-1.7.8-1.2,0-2.1-.8-2.1-2s.9-2,2.1-2c.7,0,1.3.3,1.7.8ZM156.9,227.1c0,.8.6,1.3,1.4,1.4.8,0,1.4-.6,1.4-1.4s-.6-1.3-1.4-1.3c-.8,0-1.4.5-1.4,1.3ZM162.9,231.8h-4.6v1h4.9v.6h-5.6v-2.2h4.6v-.9h-4.6v-.6h5.3v2.1ZM160.4,227.1c0,.2,0,.4,0,.6h1.8v-1.2h-1.8c0,.2,0,.4,0,.6Z"/>
        <path d="M168.8,228.5c0,1.8-.9,3-2.1,3s-2.1-1.2-2.1-3,.9-3,2.1-3c1.2,0,2.1,1.2,2.1,3ZM165.3,228.5c0,1.4.6,2.3,1.4,2.3s1.4-.9,1.4-2.3-.6-2.3-1.4-2.3c-.8,0-1.4.9-1.4,2.3ZM171,233.5h-.7v-8.7h.7v8.7Z"/>
        <path d="M176.8,231.3h-3.8v-5.6h3.8v5.6ZM173.7,230.7h2.4v-4.4h-2.4v4.4ZM179.3,233.5h-.7v-8.7h.7v8.7Z"/>
        <path d="M185.9,231l-.4.6c-1-.5-1.8-1.5-2.2-2.7-.4,1.3-1.2,2.4-2.2,2.9l-.4-.6c1.2-.6,2.2-2.2,2.2-3.7v-1.1h-1.9v-.6h4.6v.6h-2v1.1c0,1.5,1,3,2.2,3.5ZM187.5,233.5h-.7v-8.7h.7v8.7Z"/>
        <path d="M193.6,227.4c0,1.1-.8,1.9-1.8,2v1.5c.8,0,1.5,0,2.3-.2v.6c-1.7.3-3.7.3-5.1.3v-.6c.5,0,1.3,0,2.1,0v-1.5c-1.1-.1-1.8-.9-1.8-2,0-1.2.9-2,2.2-2,1.3,0,2.2.8,2.2,2ZM189.9,227.4c0,.8.6,1.4,1.5,1.4s1.5-.6,1.5-1.4c0-.8-.6-1.4-1.5-1.4s-1.5.6-1.5,1.4ZM195.3,228.4h1.3v.7h-1.3v4.4h-.7v-8.7h.7v3.6Z"/>
        <path d="M199.9,231.8l-.4-.6c2.1-1.1,3.3-2.8,3.5-4.8h-3.1v-.6h3.8c0,2.5-1.1,4.7-3.8,6.1ZM205.9,228.4h1.3v.6h-1.3v4.5h-.7v-8.7h.7v3.5Z"/>
        <path d="M212.9,230.9l-.4.6c-.9-.5-1.7-1.5-2.1-2.7-.4,1.3-1.2,2.4-2.2,2.9l-.5-.6c1.2-.6,2.2-2.2,2.3-3.9v-1.6h.7v1.6c0,1.6,1,3.2,2.2,3.8ZM214.5,233.5h-.7v-8.7h.7v8.7Z"/>
        <path d="M218.3,228.9c.9,0,1.9,0,2.7-.2v.6c-1.7.3-3.7.3-5.1.3v-.6c.5,0,1.1,0,1.7,0v-1.7h.7s0,1.7,0,1.7ZM220.5,225.8c0,.5,0,1.3-.2,2.4h-.7c.2-1,.2-1.7.2-2.2h-3.4v-.6h4.1v.5h0ZM222.4,231.9c0,1-1,1.6-2.7,1.6s-2.7-.6-2.7-1.6,1-1.5,2.7-1.5,2.7.6,2.7,1.5ZM217.7,231.9c0,.6.8,1,2,1s2-.4,2-1-.8-.9-2-.9-2,.4-2,.9ZM222.4,227.2h1.2v.6h-1.2v2.4h-.7v-5.4h.7v2.4Z"/>
        <path d="M229,229.3l-.4.6c-.9-.4-1.6-1.1-2-2.1-.4,1.1-1.1,1.9-2.1,2.3l-.4-.6c1.2-.5,2.1-1.7,2.1-3v-1.1h.7v1.1c0,1.2.8,2.4,2,2.8ZM231.1,233.3h-5.5v-2.7h.7v2.1h4.8v.6h0ZM230.9,231.3h-.7v-3.8h-1.8v-.6h1.8v-2h.7v6.5Z"/>
        <path d="M164.2,242.4h-2v3.1h-.7v-3.1h-2.1v3.1h-.8v-3.1h-2v-.6h7.6v.6h0ZM163.3,239.1c0,1.2-1.2,1.9-2.9,1.9-1.7,0-2.9-.7-2.9-1.9s1.2-1.9,2.9-1.9,2.9.7,2.9,1.9ZM158.3,239.1c0,.8.9,1.3,2.2,1.3s2.2-.5,2.2-1.3-.9-1.3-2.2-1.3-2.2.5-2.2,1.3Z"/>
        <path d="M169.8,242.9l-.4.6c-.9-.5-1.7-1.5-2-2.7-.4,1.3-1.1,2.4-2.1,2.9l-.5-.6c1.2-.6,2.2-2.3,2.2-3.9v-1.6h.7v1.6c0,1.5,1,3.1,2.1,3.7ZM171.3,240.3h1.4v.7h-1.4v4.5h-.7v-8.7h.7v3.5Z"/>
        <path d="M178.1,238.5h-4.9v-.6h2.1v-1.1h.7v1.1h2.1v.6h0ZM177.6,240.6c0,1-.8,1.6-2,1.6s-2-.6-2-1.6c0-1,.8-1.6,2-1.6s2,.6,2,1.6ZM174.3,240.6c0,.6.5,1,1.3,1,.8,0,1.3-.4,1.3-1,0-.6-.5-1-1.3-1s-1.3.4-1.3,1ZM179.9,245.3h-5.5v-2.5h.7v1.9h4.8v.6h0ZM179.6,239.7h1.2v.6h-1.2v3h-.7v-6.5h.7v2.9Z"/>
        <path d="M188.2,240.5c0,1.8-.9,3-2.1,3s-2.1-1.2-2.1-3,.9-3,2.1-3c1.2,0,2.1,1.2,2.1,3ZM184.7,240.5c0,1.4.6,2.3,1.4,2.3s1.4-.9,1.4-2.3-.6-2.3-1.4-2.3c-.8,0-1.4.9-1.4,2.3ZM190.5,245.5h-.7v-8.7h.7v8.7Z"/>
        <path d="M196.2,243.3h-3.8v-5.6h3.8v5.6ZM193.1,242.7h2.4v-4.4h-2.4v4.4ZM198.7,245.5h-.7v-8.7h.7v8.7Z"/>
        <path d="M205.3,243l-.4.6c-1-.5-1.8-1.5-2.2-2.7-.4,1.3-1.2,2.4-2.2,2.9l-.4-.6c1.2-.6,2.2-2.2,2.2-3.7v-1.1h-1.9v-.6h4.6v.6h-2v1.1c0,1.5,1,3,2.2,3.5ZM206.9,245.5h-.7v-8.7h.7v8.7Z"/>
        <path d="M215.9,241.5h-7.6v-.6h7.6v.6ZM214.9,244h-5v.8h5.2v.6h-6v-1.9h5v-.7h-5v-.6h5.7v1.8h0ZM214.9,238.9h-4.9v.8h5v.6h-5.7v-1.8h4.9v-.7h-4.9v-.6h5.6v1.8h0Z"/>
        <path d="M223.1,243l-.4.6c-.8-.5-1.4-1.4-1.7-2.6-.3,1.2-.9,2.2-1.7,2.8l-.5-.6c1.1-.7,1.8-2.3,1.8-3.9v-.8h-1.6v-.6h3.8v.6h-1.5v.8c0,1.5.6,3,1.8,3.7ZM224.3,245h-.7v-4.5h-1.4v-.6h1.4v-2.9h.7v8ZM226,245.5h-.7v-8.7h.7v8.7Z"/>
        <path d="M234.7,241.5h-7.5v-.6h3.1v-1.7h.7v1.7h3.7s0,.6,0,.6ZM233.8,243.9c0,1-1.1,1.6-2.9,1.6s-2.9-.6-2.9-1.6,1.1-1.6,2.9-1.6,2.9.6,2.9,1.6ZM233.7,238c0,.7,0,1.4-.2,2.3h-.7c.2-1,.2-1.6.2-2.3h0c0-.1-4.9-.1-4.9-.1v-.6h5.7s0,.7,0,.7ZM228.7,243.9c0,.6.8,1,2.2,1s2.2-.4,2.2-1c0-.6-.9-1-2.2-1-1.3,0-2.2.4-2.2,1Z"/>
        <path d="M152.7,254.1h-2.9v-.8h2.9v.8Z"/>
        <path d="M157.1,250.9h2.4v-1.5h.7v4.3h-3.8v-4.3h.7v1.5h0ZM159.5,253.1v-1.6h-2.4v1.6h2.4ZM162.9,257.3h-5.5v-2.7h.7v2.1h4.8v.6h0ZM162.5,251.5h1.2v.6h-1.2v3.1h-.7v-6.4h.7v2.6Z"/>
        <path d="M170.9,253.5h-2.6v2.2h3.4v.6h-7.6v-.6h3.4v-2.2h-2.4v-4h5.6v.6h-4.9v2.7h5v.6h0Z"/>
        <path d="M176.7,254.9l-.4.6c-.8-.5-1.4-1.4-1.7-2.4-.3,1.1-.9,2.1-1.7,2.6l-.4-.6c1.1-.7,1.8-2.2,1.8-3.6v-.4h-1.6v-.6h1.6v-1.3h.7v1.3h1.5v.6h-1.5v.4c0,1.4.7,2.8,1.8,3.5ZM177.8,257h-.7v-4.2h-1.3v-.7h1.3v-3.2h.7v8ZM179.5,257.5h-.7v-8.7h.7v8.7Z"/>
        <path d="M187.4,252.9h-3.9v-3.5h3.9v3.5ZM190.4,256.9l-.2.6c-1.2-.2-2.4-.8-2.9-1.6-.5.8-1.7,1.4-2.9,1.6l-.3-.6c1.4-.2,2.8-1,2.8-1.9h-2.4v-.6h2.4v-.9h.7v.9h2.5v.6h-2.4c0,.8,1.3,1.7,2.7,1.9ZM184.2,252.3h2.4v-2.3h-2.4v2.3ZM189.9,253.8h-.7v-5h.7v5Z"/>
        <path d="M198.5,253.3l-.4.6c-.9-.4-1.7-1.1-2-2-.4,1-1.1,1.8-2.1,2.2l-.4-.6c1.2-.4,2.1-1.6,2.1-2.8v-.4h-1.9v-.6h4.4v.6h-1.8v.4c0,1.1.8,2.2,2,2.6ZM200.7,257.3h-5.5v-2.7h.7v2.1h4.8s0,.6,0,.6ZM200.5,255.2h-.7v-3.3h-1.7v-.6h1.7v-2.4h.7s0,6.4,0,6.4Z"/>
        <path d="M206.8,255l-.4.6c-.9-.5-1.7-1.5-2.1-2.7-.4,1.3-1.2,2.4-2.1,2.9l-.4-.6c1.2-.6,2.2-2.3,2.2-3.7v-1.1h-1.9v-.6h4.5v.6h-1.9v1.1c0,1.4.9,2.9,2.1,3.5ZM208.2,252.3h1.4v.7h-1.4v4.5h-.7v-8.7h.7v3.5Z"/>
        <path d="M217.6,254.6h-3.4v2.9h-.7v-2.9h-3.4v-.6h7.6v.6ZM211.7,250.4h4.2v-1.2h.7v3.7h-5.6v-3.7h.7v1.2ZM215.9,252.3v-1.3h-4.2v1.3h4.2Z"/>
        <path d="M225.8,253.7h-3.4v1h2.5v2.7h-5.7v-2.7h2.5v-1h-3.4v-.6h7.5v.6h0ZM225.1,249.7h-1.3v1.8h1.2v.6h-6v-.6h1.2v-1.8h-1.3v-.6h6.1v.6h0ZM219.9,256.8h4.2v-1.5h-4.2v1.5ZM223.1,251.6v-1.8h-2.1v1.8h2.1Z"/>
        <path d="M229.3,253.8l-.3-.6c2-.6,3.2-1.7,3.4-3.2h-3v-.6h3.7c0,2.2-1.5,3.7-3.9,4.5ZM235.7,257.4h-5.4v-3.2h5.4v3.2ZM231.1,256.8h3.9v-2h-3.9v2ZM235.7,253.8h-.7v-2.1h-1.8v-.6h1.8v-2.2h.7v5Z"/>
        <path d="M242,254.9l-.4.6c-.9-.5-1.7-1.5-2-2.7-.4,1.3-1.2,2.4-2.1,2.9l-.5-.6c1.2-.6,2.2-2.3,2.2-3.9v-1.6h.7v1.6c0,1.5,1,3.1,2.1,3.7ZM243.5,252.3h1.4v.7h-1.4v4.5h-.7v-8.7h.7s0,3.5,0,3.5Z"/>
      </g>
    </g>
  </g>
  <g id="g-root-tx__hsri0q1wblvkd-fill">
    <g id="tx__hsri0q1wblvkd-fill">
      <g class="st3">
        <path d="M285.6,218h-3.1v-.8h3.1v.8Z"/>
        <path d="M294.4,219l-.5.6c-1-.5-1.8-1.6-2.2-2.8-.4,1.3-1.3,2.4-2.3,3l-.5-.6c1.3-.6,2.3-2.3,2.3-3.8v-1.1h-2v-.6h4.8v.6h-2v1.1c0,1.5,1,3.1,2.3,3.6ZM296.4,221.5h-.8v-5h-1.9v-.6h1.9v-3.2h.8v8.8Z"/>
        <path d="M305.8,218h-8v-.6h3.6v-.9c-1.7,0-2.7-.7-2.7-1.8s1.2-1.7,3.1-1.7,3.1.7,3.1,1.7-1.1,1.7-2.7,1.8v.9h3.6v.6h0ZM304.9,221.3h-6.1v-2.6h.8v1.9h5.3v.7h0ZM299.5,214.7c0,.7.9,1.1,2.3,1.1s2.3-.4,2.3-1.1-.9-1.1-2.3-1.1-2.3.4-2.3,1.1Z"/>
        <path d="M312.4,218.6v.6c-1.9.4-4.1.4-5.7.4v-.7c1.5,0,3.7,0,5.7-.3ZM311.8,215.4c0,1.2-1,2.1-2.4,2.1s-2.4-.8-2.4-2.1c0-1.2,1-2.1,2.4-2.1s2.4.8,2.4,2.1ZM307.8,215.4c0,.8.7,1.4,1.6,1.4s1.6-.6,1.6-1.4-.7-1.4-1.6-1.4c-.9,0-1.6.6-1.6,1.4ZM313.8,221.5h-.8v-8.8h.8v8.8Z"/>
        <path d="M325.8,217.1h-3.6v.9h2.6v2h-5.2v.9h5.5v.6h-6.3v-2.1h5.2v-.8h-5.2v-.6h2.6v-.9h-3.6v-.6h8v.6ZM324.8,215.7h-5.9v-2.7h5.9v2.7ZM319.6,215.1h4.4v-1.4h-4.4v1.4Z"/>
        <path d="M331.1,218.9l-.4.6c-.9-.5-1.5-1.4-1.8-2.4-.3,1.1-.9,2.1-1.8,2.6l-.5-.6c1.2-.7,1.9-2.2,1.9-3.7v-.4h-1.7v-.6h1.7v-1.3h.7v1.3h1.6v.6h-1.7v.4c0,1.4.7,2.9,1.9,3.5ZM332.3,221.1h-.7v-4.2h-1.4v-.7h1.4v-3.3h.7v8.1ZM334.1,221.5h-.7v-8.8h.7v8.8Z"/>
        <path d="M343.3,217.4h-8v-.6h8s0,.6,0,.6ZM342.3,220h-5.3v.8h5.6v.6h-6.3v-1.9h5.3v-.8h-5.3v-.6h6.1v1.9h0ZM342.3,214.8h-5.2v.8h5.3v.6h-6.1v-1.9h5.2v-.7h-5.2v-.6h6v1.8h0Z"/>
        <path d="M346.9,217.8l-.3-.6c2.2-.6,3.5-1.8,3.6-3.2h-3.3v-.6h4.1c0,2.2-1.6,3.8-4.2,4.5ZM353.5,221.4h-5.6v-3.3h5.6v3.3ZM348.7,220.8h4v-2h-4v2ZM353.5,214.9h1.3v.6h-1.3v2.2h-.8v-5h.8v2.2Z"/>
        <path d="M360.9,219l-.4.6c-1-.5-1.9-1.5-2.3-2.7-.4,1.3-1.3,2.4-2.3,2.9l-.5-.6c1.3-.6,2.4-2.3,2.4-3.8v-1.1h-2.1v-.6h5v.6h-2.1v1.1c0,1.5,1.1,3,2.4,3.6ZM362.6,221.5h-.8v-8.8h.8v8.8Z"/>
        <path d="M285.6,230.2h-3.1v-.8h3.1v.8Z"/>
        <path d="M293.3,225.9h2.3v-1.1h.8v4.5h-.8v-1h-2.2c-.4.5-1.1.8-1.9.8-1.3,0-2.3-.8-2.3-2s1-2,2.3-2c.8,0,1.4.3,1.8.8ZM289.9,227.2c0,.8.6,1.4,1.5,1.4.9,0,1.5-.6,1.5-1.4s-.7-1.4-1.5-1.3c-.9,0-1.5.6-1.5,1.3ZM296.3,231.9h-4.9v1h5.2v.6h-6v-2.2h4.9v-.9h-4.9v-.6h5.7v2.1h0ZM293.8,227.2c0,.2,0,.4,0,.6h1.9v-1.2h-1.9c0,.2,0,.4,0,.6Z"/>
        <path d="M301.5,226.8h2.6v-1.3h.8v4.1h-4.1v-4.1h.8v1.3h0ZM304,228.8v-1.5h-2.6v1.5h2.6ZM307.3,232c0,1-1.1,1.6-2.9,1.6-1.8,0-2.9-.6-2.9-1.6s1.1-1.6,2.9-1.6c1.8,0,2.9.6,2.9,1.6ZM302.3,232c0,.6.8,1,2.1,1s2.1-.4,2.1-1-.8-1-2.1-1c-1.3,0-2.1.4-2.1,1ZM307.2,227.1h1.3v.7h-1.3v2.4h-.8v-5.3h.8v2.2Z"/>
        <path d="M317.1,229.4h-3.6v.8h2.6v1.9h-5.2v.9h5.5v.6h-6.3v-2h5.2v-.8h-5.2v-.6h2.6v-.8h-3.6v-.6h8v.6h0ZM313.5,225.6h2.8v.6h-2.8c.1.9,1.5,1.4,3.1,1.5l-.2.6c-1.5-.1-2.8-.6-3.3-1.4-.5.8-1.9,1.3-3.3,1.4l-.2-.6c1.6-.1,3-.7,3.1-1.5h-2.7v-.6h2.8v-.8h.8s0,.8,0,.8Z"/>
        <path d="M322.2,227.8h-3.2v1.2c1.6,0,2.7,0,4.1-.3v.7c-1.3.2-2.5.3-4.1.3h-.7v-2.5h3.2v-1.1h-3.2v-.6h4v2.4h0ZM324.8,232c0,1-1.1,1.6-2.9,1.6s-2.9-.6-2.9-1.6,1.1-1.6,2.9-1.6c1.8,0,2.9.6,2.9,1.6ZM319.7,232c0,.6.8,1,2.2,1s2.1-.4,2.1-1-.8-1-2.1-1c-1.3,0-2.2.4-2.2,1ZM326,226.9h-1.3v1.2h1.3v.7h-1.3v1.4h-.8v-5.3h.8v1.4h1.3v.7Z"/>
        <path d="M331.4,228.6c0,1.9-.9,3.1-2.2,3.1s-2.2-1.2-2.2-3.1.9-3.1,2.2-3.1c1.3,0,2.2,1.2,2.2,3.1ZM327.6,228.6c0,1.4.6,2.4,1.5,2.4s1.5-.9,1.5-2.4-.6-2.4-1.5-2.4c-.9,0-1.5.9-1.5,2.4ZM333.8,233.7h-.8v-8.8h.8v8.8Z"/>
        <path d="M343.1,229.2l-.4.6c-1-.4-1.8-1.1-2.1-2-.4,1-1.2,1.8-2.2,2.2l-.4-.6c1.3-.5,2.2-1.6,2.2-2.9v-.4h-2v-.6h4.7v.6h-2v.4c0,1.1.9,2.2,2.2,2.7ZM345.1,233.6h-.8v-2.4h-5.1v-.6h5.9v3.1ZM345.1,230.1h-.8v-2.3h-1.8v-.7h1.8v-2.3h.8v5.3Z"/>
        <path d="M354.6,230.1h-8v-.6h8v.6ZM353.7,226.9c0,1.1-1.2,1.8-3.1,1.8s-3.1-.7-3.1-1.8,1.2-1.8,3.1-1.7c1.9,0,3.1.6,3.1,1.7ZM353.7,233.5h-6.1v-2.6h.8v1.9h5.3v.7ZM348.3,226.9c0,.7.9,1.1,2.3,1.1s2.3-.4,2.3-1.1-.9-1.1-2.3-1.1c-1.4,0-2.3.4-2.3,1.1Z"/>
        <path d="M297.1,242.3h-.8v-1.2h-2.3v-.6h2.3v-1.2h-2.2c-.6,1.4-1.9,2.4-3.8,3l-.3-.6c2.1-.6,3.4-1.8,3.6-3.3h-3.2v-.7h4c0,.3,0,.7-.1,1h2v-1.6h.8v5.3h0ZM297.1,244.1c0,1.1-1.1,1.7-2.9,1.7s-2.9-.6-2.9-1.7,1.1-1.7,2.9-1.7c1.8,0,2.9.6,2.9,1.7ZM292,244.1c0,.7.9,1.1,2.2,1.1s2.1-.4,2.2-1.1c0-.7-.9-1.1-2.2-1.1-1.3,0-2.2.4-2.2,1.1Z"/>
        <path d="M306.5,242.7h-3.7v3.1h-.8v-3.1h-3.6v-.7h8v.7h0ZM305.6,239.3c0,1.2-1.2,1.9-3.1,1.9s-3.1-.7-3.1-1.9,1.2-1.9,3.1-1.9c1.8,0,3.1.7,3.1,1.9ZM300.2,239.3c0,.8.9,1.3,2.3,1.3s2.3-.5,2.3-1.3-.9-1.3-2.3-1.3c-1.4,0-2.3.5-2.3,1.3Z"/>
        <path d="M313,245.3h-.7v-4.3h-1.1c0,1.7-.8,2.8-1.9,2.8s-1.9-1.2-1.9-3.1.7-3.1,1.9-3.1,1.8,1,1.9,2.7h1.1v-3.2h.7v8.2h0ZM308.1,240.8c0,1.4.4,2.3,1.2,2.3.7,0,1.2-.9,1.2-2.3s-.5-2.3-1.2-2.3c-.7,0-1.2.9-1.2,2.3ZM314.8,245.8h-.8v-8.8h.8v8.8Z"/>
        <path d="M323.7,241.3l-.4.6c-1-.4-1.8-1.1-2.1-2-.4,1-1.2,1.8-2.2,2.2l-.4-.6c1.3-.5,2.2-1.6,2.2-2.9v-.4h-2v-.6h4.7v.6h-2v.4c0,1.1.9,2.2,2.2,2.7ZM325.8,245.8h-.8v-2.4h-5.1v-.6h5.9v3.1ZM325.8,242.3h-.8v-2.3h-1.8v-.7h1.8v-2.3h.8v5.3Z"/>
        <path d="M332.5,238.5h-5.2v-.6h2.2v-1h.8v1h2.2v.6h0ZM332,240.5c0,.9-.9,1.5-2.1,1.5s-2.1-.6-2.1-1.5c0-.9.8-1.5,2.1-1.5,1.3,0,2.1.6,2.1,1.5ZM328.5,240.5c0,.6.5.9,1.4.9s1.4-.4,1.4-.9c0-.6-.6-.9-1.4-.9-.8,0-1.4.4-1.4.9ZM329.4,243.4h4v-.9h.8v3.2h-5.6v-3.2h.8v.9h0ZM333.4,245v-1h-4v1h4ZM334.1,239.2h1.3v.7h-1.3v2.2h-.8v-5.1h.8v2.3Z"/>
      </g>
    </g>
  </g>
  <g id="g-root-tx__8vvjlm1wbn8co-fill">
    <g id="tx__8vvjlm1wbn8co-fill">
      <g class="st3">
        <path d="M413.6,218h-3.1v-.8h3.1v.8Z"/>
        <path d="M418.2,214.8h2.6v-1.5h.8v4.3h-4.1v-4.3h.8v1.5h0ZM420.8,217.1v-1.6h-2.6v1.6h2.6ZM424.3,221.3h-5.9v-2.8h.8v2.1h5.1v.7h0ZM423.9,215.4h1.3v.7h-1.3v3.1h-.8v-6.5h.8v2.7Z"/>
        <path d="M432.9,217.5h-2.7v2.3h3.7v.7h-8v-.7h3.6v-2.3h-2.6v-4h6v.6h-5.2v2.8h5.3v.6h0Z"/>
        <path d="M439,218.9l-.4.6c-.9-.5-1.5-1.4-1.8-2.4-.3,1.1-.9,2.1-1.8,2.6l-.5-.6c1.2-.7,1.9-2.2,1.9-3.7v-.4h-1.7v-.6h1.7v-1.3h.7v1.3h1.6v.6h-1.7v.4c0,1.4.7,2.9,1.9,3.5ZM440.3,221.1h-.7v-4.2h-1.4v-.7h1.4v-3.3h.7v8.1s0,0,0,0ZM442.1,221.5h-.7v-8.8h.7v8.8Z"/>
        <path d="M450.3,217v.6c-.6.1-1.3.2-1.9.2v3h-.7v-2.9c-.7,0-1.3,0-1.8,0v-.7c1.1,0,3.1,0,4.5-.2ZM450,214.9c0,1-.8,1.6-1.9,1.6-1.1,0-1.9-.7-1.9-1.6,0-1,.8-1.6,1.9-1.6,1.1,0,1.9.7,1.9,1.6ZM446.8,214.9c0,.6.5,1,1.2,1s1.2-.4,1.2-1-.5-1-1.2-1c-.7,0-1.2.4-1.2,1ZM451.6,221h-.7v-1.9h-1.7v-.6h1.7v-5.6h.7v8.1ZM453.3,221.5h-.7v-8.8h.7v8.8Z"/>
        <path d="M459.4,216.5c0,1.9-.9,3.1-2.2,3.1s-2.2-1.2-2.2-3.1.9-3.1,2.2-3.1c1.3,0,2.2,1.2,2.2,3.1ZM455.6,216.5c0,1.4.6,2.4,1.5,2.4s1.5-.9,1.5-2.4-.6-2.4-1.5-2.4c-.9,0-1.5.9-1.5,2.4ZM461.8,221.5h-.8v-8.8h.8v8.8Z"/>
        <path d="M468.4,214.3h-1v4.3c.4,0,.9,0,1.3-.1v.6c-1.8.3-3.8.3-5.4.3v-.7c0,0,1.1,0,1.1,0v-4.4h-.9v-.7h4.9v.7h0ZM466.6,218.6v-4.3h-1.5v4.3c.5,0,1,0,1.5,0ZM470.6,221.5h-.8v-4.8h-1.7v-.6h1.7v-3.3h.8v8.8Z"/>
        <path d="M475,217.8l-.3-.6c2.1-.6,3.4-1.8,3.6-3.3h-3.2v-.6h4c0,2.2-1.6,3.8-4.1,4.5ZM481.9,221.4h-5.7v-3.3h5.7v3.3ZM476.9,220.8h4.2v-2h-4.2v2ZM481.9,217.7h-.8v-2.1h-1.9v-.7h1.9v-2.3h.8v5Z"/>
        <path d="M488.6,218.8l-.5.6c-1-.5-1.8-1.5-2.2-2.8-.4,1.3-1.2,2.4-2.2,2.9l-.5-.6c1.3-.6,2.3-2.3,2.3-3.9v-1.6h.8v1.6c0,1.6,1,3.1,2.3,3.8ZM490.1,216.3h1.5v.7h-1.5v4.5h-.8v-8.8h.8v3.6Z"/>
        <path d="M413.6,230.2h-3.1v-.8h3.1v.8Z"/>
        <path d="M420.9,226.5h-2.7v1.7h2.6v.6h-2.6v2c1.3,0,2.1,0,3.1-.2v.6c-1,.2-1.8.2-3.3.2h-.6v-5.6h3.5v.6h0ZM424.6,233.6h-.8v-4.6h-1.2v4.2h-.8v-8.2h.8v3.4h1.2v-3.5h.8v8.8Z"/>
        <path d="M430.6,227.5c0,1.2-1,2.1-2.3,2.1-1.3,0-2.3-.8-2.3-2.1,0-1.2,1-2.1,2.3-2.1,1.3,0,2.3.8,2.3,2.1ZM426.7,227.5c0,.8.7,1.4,1.5,1.4.9,0,1.6-.6,1.6-1.4s-.7-1.4-1.6-1.4c-.9,0-1.6.6-1.5,1.4ZM432.8,232c0,1-1.1,1.6-2.9,1.6s-2.9-.6-2.9-1.6,1.1-1.6,2.9-1.7c1.8,0,2.9.6,2.9,1.7ZM427.7,232c0,.6.8,1,2.1,1s2.1-.4,2.1-1-.8-1-2.1-1c-1.3,0-2.1.4-2.1,1ZM434,226.8h-1.3v1.2h1.3v.7h-1.3v1.4h-.8v-5.2h.8v1.3h1.3v.6Z"/>
        <path d="M437.2,229c1,0,2,0,2.9-.2v.6c-1.8.3-3.9.3-5.5.3v-.7c.5,0,1.1,0,1.8,0v-1.8h.8v1.7h0ZM439.4,225.9c0,.6,0,1.3-.2,2.4h-.8c.2-1,.2-1.7.2-2.2h-3.6v-.7h4.4v.5ZM441.5,232c0,1-1.1,1.6-2.9,1.6s-2.9-.6-2.9-1.6,1.1-1.6,2.9-1.6,2.9.6,2.9,1.6ZM436.4,232c0,.6.8,1,2.1,1s2.1-.4,2.1-1-.8-1-2.1-1-2.2.4-2.1,1ZM441.4,227.3h1.3v.7h-1.3v2.4h-.8v-5.5h.8v2.4Z"/>
        <path d="M450.2,228.6l-.4.6c-.8-.3-1.4-1-1.7-1.8-.3.9-.9,1.6-1.8,2l-.4-.6c1.1-.5,1.8-1.7,1.8-2.7v-.9h.8v1c0,1,.7,2,1.8,2.4ZM453.3,232h-5v.9h5.4v.6h-6.2v-2.1h5.1v-.8h-5.1v-.6h5.8v2ZM451.6,229.5h-.8v-2.3h-1.4v-.6h1.4v-1.5h.8v4.5ZM453.3,229.6h-.7v-4.7h.7v4.7Z"/>
        <path d="M464.4,229.4h-.8v-.9h-2.3v-.6h2.3v-1.1h-2.2c-.6,1.4-1.9,2.3-3.9,2.8l-.3-.6c2.2-.5,3.4-1.6,3.6-3h-3.1v-.6h4c0,.3,0,.6,0,.8h2v-1.3h.8v4.5h0ZM464.4,231.9h-4.9v1h5.2v.6h-6v-2.3h4.9v-.9h-4.9v-.6h5.7v2.1Z"/>
        <path d="M471.1,226.4h-5.2v-.6h2.2v-1h.8v1h2.2v.6h0ZM470.6,228.4c0,1-.9,1.6-2.1,1.6s-2.1-.6-2.1-1.6c0-.9.8-1.6,2.1-1.6s2.1.6,2.1,1.6ZM467.1,228.4c0,.6.5,1,1.4,1,.8,0,1.4-.4,1.4-1,0-.6-.6-1-1.4-1-.8,0-1.4.4-1.4,1ZM472.7,233.5h-5.5v-2.9h5.5v2.9ZM467.9,232.9h4v-1.6h-4v1.6ZM472.7,227.2h1.3v.7h-1.3v2.3h-.8v-5.3h.8v2.3Z"/>
        <path d="M477.6,229.9l-.3-.6c2.1-.6,3.4-1.8,3.6-3.3h-3.2v-.6h4c0,2.2-1.6,3.8-4.1,4.5ZM484.4,233.5h-5.7v-3.3h5.7v3.3ZM479.5,232.9h4.2v-2h-4.2v2ZM484.4,229.9h-.8v-2.1h-1.9v-.7h1.9v-2.3h.8v5Z"/>
        <path d="M491.1,231l-.5.6c-1-.5-1.8-1.5-2.2-2.8-.4,1.3-1.2,2.4-2.2,2.9l-.5-.6c1.3-.6,2.3-2.3,2.3-3.9v-1.6h.8v1.6c0,1.6,1,3.1,2.3,3.8ZM492.7,228.4h1.5v.7h-1.5v4.5h-.8v-8.8h.8v3.6Z"/>
        <path d="M413.6,242.3h-3.1v-.8h3.1v.8Z"/>
        <path d="M422.4,241.1l-.4.6c-1-.4-1.8-1.1-2.2-2.1-.4,1-1.2,1.9-2.2,2.3l-.4-.6c1.3-.5,2.2-1.7,2.2-3v-.8h.8v.8c0,1.3.9,2.4,2.2,2.9ZM424.3,245.8h-.8v-2.4h-5.1v-.6h5.9v3.1h0ZM424.3,242.3h-.8v-5.3h.8v5.3Z"/>
        <path d="M433.8,241.9h-3.6v1h2.6v2.7h-6.1v-2.7h2.6v-1h-3.6v-.6h8v.6h0ZM433.1,237.9h-1.4v1.8h1.3v.6h-6.4v-.6h1.3v-1.8h-1.4v-.6h6.5v.6h0ZM427.6,245h4.5v-1.5h-4.5v1.5ZM430.9,239.8v-1.8h-2.2v1.8h2.2Z"/>
        <path d="M441.9,240.7c0,1.9-.9,3.1-2.2,3.1s-2.2-1.2-2.2-3.1.9-3.1,2.2-3.1c1.3,0,2.2,1.2,2.2,3.1ZM438.2,240.7c0,1.4.6,2.4,1.5,2.4s1.5-.9,1.5-2.4-.6-2.4-1.5-2.4c-.9,0-1.5.9-1.5,2.4ZM444.3,245.8h-.8v-8.8h.8v8.8Z"/>
        <path d="M453.8,241.3h-3.6v.9h2.6v2h-5.2v.9h5.5v.6h-6.3v-2.1h5.2v-.8h-5.2v-.6h2.6v-.9h-3.6v-.6h8v.6ZM452.8,240h-5.9v-2.7h5.9v2.7ZM447.6,239.3h4.4v-1.4h-4.4v1.4Z"/>
        <path d="M460,240.8l-.4.6c-1-.3-1.9-1-2.3-1.9-.4,1-1.2,1.8-2.3,2.1l-.4-.6c1.3-.4,2.3-1.5,2.3-2.7h0c0,0-2.1,0-2.1,0v-.6h4.9v.6h-2c0,1.2.9,2.2,2.3,2.6ZM461.8,244.1h-4.9v1h5.2v.6h-6v-2.2h4.9v-.9h-4.9v-.6h5.7v2.1h0ZM461.8,241.6h-.8v-4.6h.8v4.6Z"/>
        <path d="M471,241.5l-.4.6c-1-.4-1.7-1.2-2.1-2.1-.4,1.1-1.2,1.9-2.2,2.3l-.4-.6c1.3-.5,2.2-1.7,2.2-3.1v-1.1h.8v1.1c0,1.2.9,2.4,2.2,2.8ZM473.3,245.6h-5.9v-2.8h.8v2.1h5.1v.7ZM473.1,243.6h-.8v-3.9h-2v-.7h2v-2.1h.8v6.6Z"/>
        <path d="M481.9,241.6h-.8v-1.1h-2.1v.8h-4v-3.8h.8v1.3h2.5v-1.3h.8v.9h2.1v-1.3h.8v4.6h0ZM478.3,240.6v-1.3h-2.5v1.3h2.5ZM481.9,244.1h-4.9v1h5.2v.6h-6v-2.2h4.9v-.9h-4.9v-.6h5.7v2.1h0ZM481.1,239.8v-1h-2.1v1h2.1Z"/>
      </g>
    </g>
  </g>
  <g id="g-root-tx__1lymq621wbn7yb-fill">
    <g id="tx__1lymq621wbn7yb-fill">
      <g class="st3">
        <path d="M545.3,220.1h-3.1v-.8h3.1v.8Z"/>
        <path d="M554.2,221l-.5.6c-1-.5-1.9-1.6-2.2-2.8-.4,1.3-1.3,2.4-2.3,3l-.5-.6c1.3-.6,2.3-2.3,2.3-3.8v-1.1h-2v-.6h4.8v.6h-2v1.1c0,1.5,1,3.1,2.3,3.6ZM556.1,223.6h-.8v-5h-1.9v-.6h1.9v-3.2h.8v8.8Z"/>
        <path d="M565.6,222.4h-8v-.7h3.6v-2.1h.8v2.1h3.6v.7ZM565.2,219.3l-.3.6c-1.3-.3-2.8-1.1-3.3-2.3-.6,1.2-2,2.1-3.3,2.4l-.3-.6c1.5-.3,3.2-1.5,3.2-2.9v-.2h-2.9v-.7h6.7v.7h-2.9v.2c0,1.4,1.7,2.6,3.3,2.9Z"/>
        <path d="M573.4,219.5h-2.7v2.3h3.7v.7h-8v-.7h3.6v-2.3h-2.6v-4h6v.6h-5.2v2.8h5.3v.6h0Z"/>
        <path d="M579.9,219.9v-.7c-1,0-1.7-.6-1.7-1.3s.8-1.4,2.1-1.4,2.1.5,2.1,1.4c0,.7-.7,1.2-1.7,1.3v.6c.8,0,1.7-.1,2.4-.2v.6c-1.8.4-3.9.4-5.5.4v-.6c.6,0,1.4,0,2.3,0ZM582.8,216.2h-5.1v-.6h2.2v-.9h.8v.9h2.2v.6h0ZM584.7,223.3h-5.9v-2.2h.8v1.5h5.1v.7ZM578.9,217.9c0,.5.5.8,1.3.8s1.3-.3,1.3-.8-.5-.8-1.3-.8-1.3.3-1.3.8ZM584.4,217.8h1.3v.7h-1.3v3.1h-.8v-6.9h.8v3.1Z"/>
        <path d="M593.6,220h-.8v-1.2h-2.3v-.6h2.3v-1.2h-2.2c-.6,1.4-1.9,2.4-3.8,3l-.3-.6c2.1-.6,3.4-1.8,3.6-3.3h-3.2v-.7h4c0,.3,0,.7-.1,1h2v-1.6h.8v5.3h0ZM593.6,221.8c0,1.1-1.1,1.7-2.9,1.7s-2.9-.6-2.9-1.7,1.1-1.7,2.9-1.7c1.8,0,2.9.6,2.9,1.7ZM588.5,221.8c0,.7.9,1.1,2.2,1.1s2.1-.4,2.2-1.1c0-.7-.9-1.1-2.2-1.1-1.3,0-2.2.4-2.2,1.1Z"/>
        <path d="M600.8,223.1h-.7v-4.3h-1.1c0,1.7-.8,2.8-1.9,2.8s-1.9-1.2-1.9-3.1.7-3.1,1.9-3.1,1.8,1,1.9,2.7h1.1v-3.2h.7v8.2h0ZM595.9,218.5c0,1.4.4,2.3,1.2,2.3.7,0,1.2-.9,1.2-2.3s-.5-2.3-1.2-2.3-1.2.9-1.2,2.3ZM602.6,223.5h-.8v-8.8h.8v8.8Z"/>
        <path d="M609.2,220.9l-.5.6c-1-.5-1.8-1.6-2.2-2.8-.4,1.3-1.2,2.4-2.2,3l-.5-.6c1.3-.6,2.3-2.3,2.3-3.9v-1.6h.8v1.6c0,1.6,1,3.2,2.3,3.8ZM611.1,223.6h-.8v-5.2h-2.1v-.6h2.1v-3h.8v8.8Z"/>
        <path d="M557.5,234.4h-8v-.6h3.1v-3.1h.8v3.1h4.1v.6h0ZM556.5,228.6c0,1.1,0,2.3-.3,4.1h-.8c.3-1.8.3-3,.3-4.1v-.2h-5.4v-.6h6.2v.9Z"/>
        <path d="M562.6,229h-4.4v-.6h1.8v-1.3h.8v1.3h1.8v.6ZM562.3,231.6c0,1.2-.8,2-1.9,2s-1.9-.8-1.9-2,.8-2,1.9-2c1.1,0,1.9.8,1.9,2ZM559.2,231.6c0,.8.5,1.3,1.2,1.3.7,0,1.2-.6,1.2-1.3s-.5-1.3-1.2-1.3c-.7,0-1.2.6-1.2,1.3ZM565.7,235.7h-.7v-4.4h-1.2v4h-.7v-8.1h.7v3.5h1.2v-3.7h.7v8.8Z"/>
        <path d="M572.1,231l-.4.6c-1-.4-1.7-1.1-2.1-2-.4,1-1.2,1.8-2.2,2.2l-.4-.6c1.3-.5,2.2-1.7,2.2-3v-.9h.8v1c0,1.2.9,2.3,2.2,2.7ZM573.9,234c0,1-1.1,1.6-2.9,1.6s-2.9-.6-2.9-1.6,1.1-1.6,2.9-1.6c1.8,0,2.9.6,2.9,1.6ZM568.9,234c0,.6.8,1,2.1,1,1.3,0,2.1-.4,2.1-1s-.8-1-2.1-1c-1.3,0-2.1.4-2.1,1ZM573.8,229.2h1.3v.7h-1.3v2.4h-.8v-5.3h.8v2.3Z"/>
        <path d="M582.8,231.6h-2.7v2.3h3.7v.7h-8v-.7h3.6v-2.3h-2.6v-4h6v.6h-5.2v2.8h5.3v.6h0Z"/>
        <path d="M590.1,230.9c.8,0,1.6-.1,2.4-.2v.5c-1.8.3-3.9.3-5.4.3v-.6c.6,0,1.4,0,2.3,0v-1h.8v.9h0ZM592.1,228.2h-2c0,.7,1,1.3,2.2,1.5l-.3.6c-1.1-.2-1.9-.6-2.3-1.3-.4.7-1.2,1.2-2.3,1.4l-.3-.6c1.2-.2,2.1-.8,2.2-1.6h-1.9v-.6h1.9v-.8h.8v.8h2v.6h0ZM593.9,234.2h-4.9v.8h5.3v.6h-6v-2h4.9v-.7h-5v-.6h5.7v1.9h0ZM593.9,229h1.3v.6h-1.3v2.2h-.8v-5h.8v2.1Z"/>
        <path d="M599.9,228.2h2.3v-1.3h.8v5.2h-.8v-1.3h-2.3c-.4.5-1,.7-1.8.7-1.3,0-2.3-.9-2.3-2.1s1-2.1,2.3-2.1c.7,0,1.4.3,1.8.7ZM596.6,229.5c0,.8.6,1.4,1.5,1.4s1.5-.6,1.5-1.4-.7-1.4-1.5-1.4c-.9,0-1.5.6-1.5,1.4ZM603,234c0,1.1-1.1,1.7-2.9,1.7s-2.9-.6-2.9-1.7,1.1-1.7,2.9-1.7,2.9.6,2.9,1.7ZM597.9,234c0,.7.8,1.1,2.2,1.1s2.2-.4,2.2-1.1-.8-1.1-2.2-1.1-2.2.4-2.2,1.1ZM600.4,229.5c0,.2,0,.5-.1.7h1.9v-1.4h-1.9c0,.2.1.5.1.7Z"/>
        <path d="M609.3,230.6c0,1.9-.9,3.1-2.2,3.1s-2.2-1.2-2.2-3.1.9-3.1,2.2-3.1c1.3,0,2.2,1.2,2.2,3.1ZM605.5,230.6c0,1.4.6,2.4,1.5,2.4s1.5-.9,1.5-2.4-.6-2.4-1.5-2.4c-.9,0-1.5.9-1.5,2.4ZM611.7,235.7h-.8v-8.8h.8v8.8Z"/>
        <path d="M616.2,234l-.4-.6c2.3-1.1,3.5-2.8,3.7-4.9h-3.3v-.7h4.1c0,2.5-1.2,4.8-4,6.2ZM622.6,230.5h1.4v.7h-1.4v4.6h-.8v-8.8h.8v3.6Z"/>
        <path d="M632.5,231.7h-8v-.6h8v.6ZM631.5,234c0,1-1.1,1.6-3,1.6s-3-.6-3-1.6,1.1-1.6,3-1.6c1.9,0,3,.6,3,1.6ZM631.6,230h-6v-2.9h.8v2.3h5.2v.6h0ZM626.3,234c0,.6.8,1,2.2,1s2.2-.4,2.2-1-.9-1-2.2-1c-1.4,0-2.3.4-2.2,1Z"/>
      </g>
    </g>
  </g>
  <g id="g-root-cp_1_g-1_m97h8a1wbke83-stroke">
    <g id="cp_1_g-1_m97h8a1wbke83-stroke">
      <path class="st1" d="M11.4,184.8v-8.1c0-4.5,3.6-8.1,8.1-8.1h32.4l16.2-16.2,16.2,16.2h32.4c4.5,0,8.1,3.6,8.1,8.1v8.1M124.7,184.8v78.1M11.4,262.9v-78.1M124.7,262.9v8.1c0,4.5-3.6,8.1-8.1,8.1H19.5c-4.5,0-8.1-3.6-8.1-8.1v-8.1"/>
    </g>
  </g>
  <g id="g-root-cp_2_g-2_ddkgze1wbkf0t-stroke">
    <g id="cp_2_g-2_ddkgze1wbkf0t-stroke">
      <path class="st1" d="M140.9,184.8v-8.1c0-4.5,3.6-8.1,8.1-8.1h32.4l16.2-16.2,16.2,16.2h32.4c4.5,0,8.1,3.6,8.1,8.1v8.1M254.1,184.8v78.1M140.9,262.9v-78.1M254.1,262.9v8.1c0,4.5-3.6,8.1-8.1,8.1h-97.1c-4.5,0-8.1-3.6-8.1-8.1v-8.1"/>
    </g>
  </g>
  <g id="g-root-cp_3_g-3_8xqyuy1wbkft3-stroke">
    <g id="cp_3_g-3_8xqyuy1wbkft3-stroke">
      <path class="st1" d="M270.3,184.8v-8.1c0-4.5,3.6-8.1,8.1-8.1h32.4l16.2-16.2,16.2,16.2h32.4c4.5,0,8.1,3.6,8.1,8.1v8.1M383.6,184.8v78.1M270.3,262.9v-78.1M383.6,262.9v8.1c0,4.5-3.6,8.1-8.1,8.1h-97.1c-4.5,0-8.1-3.6-8.1-8.1v-8.1"/>
    </g>
  </g>
  <g id="g-root-cp_4_g-4_8xqyuy1wbkft5-stroke">
    <g id="cp_4_g-4_8xqyuy1wbkft5-stroke">
      <path class="st1" d="M399.8,184.8v-8.1c0-4.5,3.6-8.1,8.1-8.1h32.4l16.2-16.2,16.2,16.2h32.4c4.5,0,8.1,3.6,8.1,8.1v8.1M513.1,184.8v78.1M399.8,262.9v-78.1M513.1,262.9v8.1c0,4.5-3.6,8.1-8.1,8.1h-97.1c-4.5,0-8.1-3.6-8.1-8.1v-8.1"/>
    </g>
  </g>
  <g id="g-root-cp_5_g-5_4hxgqi1wbkglf-stroke">
    <g id="cp_5_g-5_4hxgqi1wbkglf-stroke">
      <path class="st1" d="M529.3,184.8v-8.1c0-4.5,3.6-8.1,8.1-8.1h32.4l16.2-16.2,16.2,16.2h32.4c4.5,0,8.1,3.6,8.1,8.1v8.1M642.5,184.8v78.1M529.3,262.9v-78.1M642.5,262.9v8.1c0,4.5-3.6,8.1-8.1,8.1h-97.1c-4.5,0-8.1-3.6-8.1-8.1v-8.1"/>
    </g>
  </g>
  <g id="g-root-ic_dayt_1lsdzay1wbkfls-stroke">
    <g id="ic_dayt_1lsdzay1wbkfls-stroke">
      <path class="st0" d="M32.6,114.3h6.7v20.2h-6.7v-20.2ZM46.1,97.5h6.7v37.1h-6.7v-37.1ZM59.6,107.6h6.7v27h-6.7v-27ZM73.1,84h6.7v50.6h-6.7v-50.6ZM86.6,97.5h6.7v37.1h-6.7v-37.1ZM100.1,70.5h6.7v64.1h-6.7v-64.1ZM32.6,57h74.2v6.7H32.6v-6.7Z"/>
    </g>
  </g>
  <g id="g-root-ic_shad_13zv0my1wblt6r-stroke">
    <g id="ic_shad_13zv0my1wblt6r-stroke">
      <path class="st0" d="M172,57c-1.1,0-2.1.5-2.8,1.4-.6.9-.8,2-.4,3.1l6,16.9c.5,1.3,1.8,2.2,3.2,2.2h39.1c1.4,0,2.7-.9,3.2-2.2l6-16.9c.4-1,.2-2.2-.4-3.1-.6-.9-1.7-1.4-2.8-1.4h-51.1ZM182.3,80.6h30.3v13.5h-30.3v-13.5ZM185.7,127.8v3.4c0,1.9,1.5,3.4,3.4,3.4h16.9c1.9,0,3.4-1.5,3.4-3.4v-3.4h-23.6ZM182.3,100.8v16.9M192.5,100.8v16.9M202.6,100.8v16.9M212.7,100.8v16.9M179,94.1h37.1s3.4,0,3.4,3.4v27s0,3.4-3.4,3.4h-37.1s-3.4,0-3.4-3.4v-27s0-3.4,3.4-3.4"/>
    </g>
  </g>
  <g id="g-root-ic_temp_ddkgze1wblt6u-stroke">
    <g id="ic_temp_ddkgze1wblt6u-stroke">
      <path class="st0" d="M341.4,61.9c12.8,0,23.1,10.4,23.1,23.1M341.4,76.3c4.8,0,8.7,3.9,8.7,8.7M324.1,111v-40.5c0-2.3-.9-4.5-2.5-6.2-1.6-1.6-3.8-2.6-6.2-2.6h0c-4.8,0-8.7,3.9-8.7,8.7v40.5c-4.3,3.3-6.4,8.8-5.4,14.1,1,5.3,5,9.7,10.2,11.1,6.5,1.6,13.3-1.6,16.3-7.6s1.4-13.3-3.7-17.6Z"/>
    </g>
  </g>
  <g id="g-root-ic_2_4g21h61wbn94x-stroke">
    <g id="ic_2_4g21h61wbn94x-stroke">
      <path class="st0" d="M494.4,125.2c0,4.7-3.8,8.4-8.4,8.4h-59c-4.7,0-8.4-3.8-8.4-8.4s3.8-8.4,8.4-8.4h59c4.7,0,8.4,3.8,8.4,8.4ZM429.5,99.3h15.8c1.9,0,3.4,1.5,3.4,3.4v14h-22.6v-14c0-1.9,1.5-3.4,3.4-3.4ZM465.8,99.3h15.8c1.9,0,3.4,1.5,3.4,3.4v14h-22.6v-14c0-1.9,1.5-3.4,3.4-3.4ZM429.5,125.2c0,.9.8,1.7,1.7,1.7s1.7-.8,1.7-1.7-.8-1.7-1.7-1.7-1.7.8-1.7,1.7M446.3,125.2c0,.9.8,1.7,1.7,1.7s1.7-.8,1.7-1.7-.8-1.7-1.7-1.7-1.7.8-1.7,1.7M463.3,125.2c0,.9.8,1.7,1.7,1.7s1.7-.8,1.7-1.7-.8-1.7-1.7-1.7-1.7.8-1.7,1.7M480.2,125.2c0,.9.8,1.7,1.7,1.7s1.7-.8,1.7-1.7-.8-1.7-1.7-1.7-1.7.8-1.7,1.7M485.8,82h-24.7c-3.1,0-5.7-2.5-5.7-5.7s2.6-5.7,5.7-5.7h24.7M480.1,76.3c0,3.1,2.5,5.7,5.7,5.7s5.7-2.6,5.7-5.7c0-3.1-2.5-5.7-5.7-5.7-3.1,0-5.7,2.5-5.7,5.7M482.9,58l6.6,14M479.2,70.6l-5.8-12.6M445.9,76.3h9.5M434.5,70.6h11.4v11.4h-11.4v-11.4h0ZM440.2,82v9.5"/>
    </g>
  </g>
  <g id="g-root-ic_came_1d2zpx61wbn8r0-stroke">
    <g id="ic_came_1d2zpx61wbn8r0-stroke">
      <path class="st0" d="M587.3,130.9c0,2-1.6,3.6-3.6,3.6h-32.5c-2,0-3.6-1.6-3.6-3.6v-9c0-7.2,3.7-13.8,9.9-17.4,6.2-3.6,13.8-3.6,20,0,6.2,3.6,9.9,10.3,9.9,17.4v9h0ZM559.8,114.3c0,.5.4.8.8.8s.8-.4.8-.8-.4-.8-.8-.8c-.5,0-.8.4-.8.8M573.3,114.3c0,.5.4.8.8.8s.8-.4.8-.8-.4-.8-.8-.8-.8.4-.8.8M567.4,102v-7.2M562,89.4c0,3,2.4,5.4,5.4,5.4s5.4-2.4,5.4-5.4-2.4-5.4-5.4-5.4c-3,0-5.4,2.4-5.4,5.4M547.5,125.5h39.7M581.7,82.6l-2.1-8.9c-.8-3.5,1.4-7,4.9-7.8l38.3-8.8c.7-.2,1.1.3,1,1l-.8,3.1c-.2.8-.8,1.4-1.5,1.9l-39.8,19.6ZM615.4,66l2.5,11c.3,1.4-.6,2.8-2,3.1l-25.5,5.9c-1.3.3-2.7.1-3.9-.6-1.2-.7-2-1.9-2.3-3.2l-.2-.8M623.1,69.1l1.2,5.1M598.1,84.2l1.3,5.7c.3,1.2-.3,2.4-1.3,2.9l-13.9,7.1"/>
    </g>
  </g>
</svg>