<?xml version="1.0" encoding="utf-8"?>
<!-- Generator: Adobe Illustrator 16.0.0, SVG Export Plug-In . SVG Version: 6.00 Build 0)  -->
<!DOCTYPE svg PUBLIC "-//W3C//DTD SVG 1.1//EN" "http://www.w3.org/Graphics/SVG/1.1/DTD/svg11.dtd">
<svg version="1.1" id="Layer_1" xmlns="http://www.w3.org/2000/svg" xmlns:xlink="http://www.w3.org/1999/xlink" x="0px" y="0px"
	 width="650px" height="282px" viewBox="0 0.063 650 282" enable-background="new 0 0.063 650 282" xml:space="preserve">
<g>
	<g id="g-root-cp_1_g-1_m97h8a1wbke83-fill" transform="translate(38, 254)">
	</g>
	<g id="g-root-cp_2_g-2_ddkgze1wbkf0t-fill" transform="translate(230, 254)">
	</g>
	<g id="g-root-cp_3_g-3_8xqyuy1wbkft3-fill" transform="translate(422, 254)">
	</g>
	<g id="g-root-cp_4_g-4_8xqyuy1wbkft5-fill" transform="translate(614, 254)">
	</g>
	<g id="g-root-cp_5_g-5_4hxgqi1wbkglf-fill" transform="translate(806, 254)">
	</g>
	<g id="g-root-tx_swir_4hxgqi1wbkglh-fill" transform="translate(386.5, 38)">
		<g id="tx_swir_4hxgqi1wbkglh-fill">
			<g>
				<g enable-background="new    ">
					<path fill="#B29649" d="M-199.365-31.017h-3.869v3.145c2.249-0.014,3.486-0.082,4.881-0.383l0.178,1.395
						c-1.559,0.328-2.993,0.396-5.756,0.396h-1.053v-5.947h5.619V-31.017z M-195.142-21.187h-8.518v-4.184h1.735v2.789h6.781
						L-195.142-21.187L-195.142-21.187z M-195.593-30.019h1.683v1.436h-1.683v4.17h-1.75v-8.996h1.75V-30.019z"/>
					<path fill="#B29649" d="M-186.269-30.866h-1.106v5.428c0.506-0.041,0.998-0.089,1.477-0.15l0.096,1.258
						c-2.543,0.451-5.399,0.492-7.532,0.506l-0.191-1.422l1.422-0.014v-5.605h-1.106v-1.395h6.944v1.394H-186.269z M-189.058-25.343
						v-5.523h-1.367v5.578L-189.058-25.343z M-183.547-28.679h1.831v1.422h-1.831v6.289h-1.75v-12.441h1.75V-28.679z"/>
					<path fill="#B29649" d="M-172.091-32.138h2.804v-1.271h1.735v6.234h-1.735v-1.08h-2.789c-0.588,0.595-1.471,0.943-2.488,0.943
						c-1.9,0-3.322-1.189-3.309-2.885c-0.015-1.682,1.407-2.857,3.309-2.857C-173.561-33.054-172.686-32.712-172.091-32.138z
						 M-176.22-30.196c-0.014,0.93,0.685,1.477,1.654,1.477c0.943,0,1.627-0.547,1.627-1.477c0-0.902-0.684-1.449-1.627-1.449
						C-175.535-31.646-176.233-31.099-176.22-30.196z M-167.552-23.278h-6.521v0.807h6.891v1.367h-8.641v-3.459h6.535v-0.739h-6.549
						v-1.34h8.284V-23.278z M-171.283-30.196c0,0.205-0.021,0.403-0.055,0.588h2.051v-1.176h-2.051
						C-171.305-30.6-171.283-30.402-171.283-30.196z"/>
					<path fill="#B29649" d="M-163.013-24.509v-1.066c-1.325-0.26-2.188-1.101-2.174-2.256c-0.014-1.395,1.244-2.338,3.063-2.338
						c1.776,0,3.049,0.943,3.063,2.338c-0.014,1.155-0.889,2.003-2.201,2.256v0.998c0.984-0.048,1.977-0.13,2.898-0.26l0.109,1.271
						c-2.652,0.492-5.496,0.506-7.603,0.506l-0.231-1.422C-165.18-24.482-164.119-24.482-163.013-24.509z M-158.459-30.661h-7.384
						v-1.367h2.83v-1.313h1.75v1.313h2.804V-30.661z M-163.531-27.831c-0.014,0.656,0.561,1.012,1.408,1.012
						c0.819,0,1.381-0.355,1.381-1.012c0-0.643-0.562-1.012-1.381-1.012C-162.972-28.843-163.545-28.474-163.531-27.831z
						 M-155.984-28.351h1.627v1.449h-1.627v5.934h-1.764v-12.441h1.764V-28.351z"/>
					<path fill="#B29649" d="M-146.455-27.886l-0.931,1.354c-1.318-0.438-2.241-1.285-2.774-2.379
						c-0.54,1.258-1.504,2.242-2.926,2.721l-0.943-1.367c2.078-0.697,2.967-2.352,2.979-4.061v-1.135h1.75v1.299
						C-149.3-29.95-148.425-28.501-146.455-27.886z M-143.845-23.374c0,1.531-1.627,2.406-4.196,2.406
						c-2.625,0-4.267-0.875-4.267-2.406c0-1.518,1.642-2.406,4.267-2.406C-145.472-25.78-143.845-24.892-143.845-23.374z
						 M-150.558-23.374c-0.014,0.711,0.875,1.039,2.517,1.039c1.612,0,2.475-0.328,2.475-1.039c0-0.684-0.861-1.039-2.475-1.039
						C-149.683-24.413-150.57-24.058-150.558-23.374z M-143.968-30.497h1.683v1.449h-1.683v3.021h-1.75v-7.382h1.75V-30.497z"/>
					<path fill="#B29649" d="M-140.836-22.855l-0.957-1.313c2.077-1.032,3.314-2.188,4.02-3.568l-3.678,0.342l-0.219-1.49
						l4.43-0.273c0.123-0.52,0.212-1.08,0.26-1.668h-4.034v-1.395h5.771C-135.259-28.378-136.188-25.179-140.836-22.855z
						 M-131.922-28.638h1.764v1.436h-1.764v6.207h-1.75v-12.414h1.75V-28.638z"/>
					<path fill="#B29649" d="M-124.334-28.884h1.243v-4.348h1.642v11.69h-1.642v-5.947h-1.243v3.391h-4.949v-8.025h4.949V-28.884z
						 M-127.656-25.466h1.695v-5.277h-1.695V-25.466z M-118.853-20.968h-1.668v-12.441h1.668V-20.968z"/>
					<path fill="#B29649" d="M-111.277-27.544h-4.006v2.256c1.812-0.007,3.309-0.089,4.963-0.369l0.15,1.395
						c-1.9,0.342-3.609,0.424-5.798,0.424h-1.053v-5.086h4.006v-2.038h-4.02v-1.408h5.756L-111.277-27.544L-111.277-27.544z
						 M-107.724-28.706h1.832v1.436h-1.832v6.33h-1.723v-12.469h1.723V-28.706z"/>
					<path fill="#B29649" d="M-99.384-32.548h1.929c-0.943,1.367-1.929,4.102-1.929,6.549c0,2.461,0.984,5.195,1.929,6.563h-1.929
						c-1.313-1.846-2.104-3.992-2.104-6.563C-101.488-28.57-100.695-30.702-99.384-32.548z"/>
					<path fill="#B29649" d="M-92.629-30.538c-1.039,0-1.613,0.479-1.627,1.135c-0.015,0.711,0.737,1.039,1.586,1.23l0.889,0.219
						c1.695,0.383,2.967,1.244,2.967,2.898c0,1.818-1.422,2.967-3.828,2.967c-2.393,0-3.924-1.107-3.979-3.227h1.996
						c0.067,0.998,0.86,1.504,1.955,1.504c1.08,0,1.776-0.506,1.776-1.244c0-0.67-0.615-0.984-1.694-1.258l-1.08-0.26
						c-1.668-0.41-2.693-1.244-2.693-2.693c0-1.805,1.586-2.994,3.746-2.994c2.188,0,3.637,1.217,3.664,2.967h-1.969
						C-91.002-30.073-91.631-30.538-92.629-30.538z"/>
					<path fill="#B29649" d="M-88.091-32.124h2.242l1.668,6.918h0.082l1.818-6.918h1.928l1.818,6.932h0.082l1.668-6.932h2.242
						l-2.83,9.898h-2.011l-1.887-6.535h-0.082l-1.899,6.535h-2.011L-88.091-32.124z"/>
					<path fill="#B29649" d="M-71.438-22.226h-2.051v-9.898h2.051V-22.226z"/>
					<path fill="#B29649" d="M-69.771-32.124h3.883c2.257,0,3.541,1.271,3.541,3.227c0,1.354-0.622,2.338-1.75,2.816l2.105,3.855
						h-2.271l-1.887-3.514h-1.572v3.514h-2.051L-69.771-32.124L-69.771-32.124z M-66.271-27.407c1.217,0,1.805-0.506,1.805-1.49
						c0-0.998-0.588-1.545-1.805-1.545h-1.449v3.035H-66.271z"/>
					<path fill="#B29649" d="M-59.94-19.341h-1.449l0.685-3.896h1.941L-59.94-19.341z"/>
					<path fill="#B29649" d="M-50.458-30.538c-1.039,0-1.613,0.479-1.627,1.135c-0.015,0.711,0.737,1.039,1.586,1.23l0.889,0.219
						c1.695,0.383,2.967,1.244,2.967,2.898c0,1.818-1.422,2.967-3.828,2.967c-2.393,0-3.924-1.107-3.979-3.227h1.996
						c0.067,0.998,0.86,1.504,1.955,1.504c1.08,0,1.776-0.506,1.776-1.244c0-0.67-0.615-0.984-1.694-1.258l-1.08-0.26
						c-1.668-0.41-2.693-1.244-2.693-2.693c0-1.805,1.586-2.994,3.746-2.994c2.188,0,3.637,1.217,3.664,2.967h-1.969
						C-48.831-30.073-49.46-30.538-50.458-30.538z"/>
					<path fill="#B29649" d="M-43.321-22.226h-2.023v-9.898h1.97v3.773h0.082c0.342-0.861,1.094-1.396,2.215-1.396
						c1.545,0,2.569,1.039,2.569,2.789v4.73h-2.022v-4.375c0-0.916-0.492-1.463-1.34-1.463c-0.849,0-1.449,0.561-1.449,1.545
						L-43.321-22.226L-43.321-22.226z"/>
					<path fill="#B29649" d="M-37.251-25.917c0-2.297,1.395-3.828,3.637-3.828s3.649,1.531,3.649,3.828
						c0,2.297-1.407,3.842-3.649,3.842S-37.251-23.62-37.251-25.917z M-32.028-25.917c0-1.313-0.533-2.283-1.572-2.283
						c-1.053,0-1.6,0.971-1.6,2.283c0,1.299,0.547,2.27,1.6,2.27C-32.562-23.648-32.028-24.618-32.028-25.917z"/>
					<path fill="#B29649" d="M-28.692-29.65h1.955v1.285h0.082c0.272-0.916,0.957-1.395,1.791-1.395
						c0.205,0,0.465,0.027,0.643,0.068v1.805c-0.19-0.055-0.573-0.109-0.86-0.109c-0.916,0-1.586,0.643-1.586,1.545v4.225h-2.023
						L-28.692-29.65L-28.692-29.65z"/>
					<path fill="#B29649" d="M-18.958-28.132h-1.396v3.623c0,0.588,0.287,0.738,0.697,0.752c0.205,0,0.561-0.014,0.807-0.041v1.6
						c-0.219,0.041-0.574,0.068-1.08,0.068c-1.463,0-2.461-0.656-2.446-2.092v-3.91h-1.025v-1.518h1.025v-1.777h2.022v1.777h1.396
						V-28.132z"/>
					<path fill="#B29649" d="M-13.305-25.493h-4.512v-1.613h4.512V-25.493z"/>
					<path fill="#B29649" d="M-12.491-32.124h2.242l1.668,6.918h0.082l1.817-6.918h1.928l1.818,6.932h0.082l1.668-6.932h2.242
						l-2.83,9.898h-2.01l-1.887-6.535h-0.082l-1.9,6.535h-2.01L-12.491-32.124z"/>
					<path fill="#B29649" d="M3.676-26.587c0.533-0.034,1.531-0.082,1.846-0.096v-0.602c-0.014-0.615-0.438-0.984-1.188-0.984
						c-0.685,0-1.121,0.314-1.23,0.82H1.175c0.123-1.285,1.244-2.297,3.213-2.297c1.613,0,3.145,0.725,3.145,2.516v5.004H5.619
						v-1.025H5.563c-0.369,0.684-1.065,1.162-2.174,1.162c-1.422,0-2.475-0.738-2.475-2.215C0.914-25.958,2.254-26.505,3.676-26.587
						z M3.963-23.484c0.916,0,1.572-0.615,1.559-1.395v-0.547c-0.308,0.014-1.169,0.062-1.518,0.096
						c-0.697,0.068-1.148,0.396-1.148,0.971C2.855-23.784,3.32-23.484,3.963-23.484z"/>
					<path fill="#B29649" d="M13.082-22.226h-2.271L8.214-29.65h2.133l1.559,5.332h0.082l1.56-5.332h2.146L13.082-22.226z"/>
					<path fill="#B29649" d="M16.131-25.903c0-2.297,1.408-3.842,3.582-3.842c1.955,0,3.485,1.23,3.485,3.76v0.574h-5.071
						c0,1.121,0.67,1.818,1.709,1.818c0.684,0,1.176-0.301,1.381-0.752h1.928c-0.287,1.367-1.518,2.27-3.35,2.27
						C17.525-22.075,16.131-23.552,16.131-25.903z M21.285-26.683c0-0.902-0.629-1.545-1.53-1.545c-0.931,0-1.595,0.69-1.627,1.545
						H21.285z"/>
					<path fill="#B29649" d="M29.789-22.226h-2.052v-9.898h2.052V-22.226z"/>
					<path fill="#B29649" d="M33.439-22.226h-2.022v-7.424h1.928v1.299h0.082c0.342-0.861,1.135-1.396,2.229-1.396
						c1.545,0,2.57,1.053,2.558,2.789v4.73h-2.01v-4.375c0-0.916-0.507-1.463-1.341-1.463c-0.848,0-1.422,0.561-1.422,1.545
						L33.439-22.226L33.439-22.226z"/>
					<path fill="#B29649" d="M43.734-28.132h-1.477v5.906h-2.023v-5.906h-1.053v-1.518h1.053v-0.561
						c0-1.559,0.943-2.379,2.435-2.379c0.465,0,0.848,0.041,1.203,0.123v1.531c-0.287-0.027-0.507-0.041-0.615-0.041
						c-0.656,0-0.998,0.26-0.998,0.875v0.451h1.477L43.734-28.132L43.734-28.132z"/>
					<path fill="#B29649" d="M44.924-29.65h1.955v1.285h0.082c0.272-0.916,0.957-1.395,1.791-1.395c0.205,0,0.465,0.027,0.643,0.068
						v1.805c-0.191-0.055-0.574-0.109-0.861-0.109c-0.916,0-1.586,0.643-1.586,1.545v4.225h-2.022L44.924-29.65L44.924-29.65z"/>
					<path fill="#B29649" d="M52.58-26.587c0.532-0.034,1.53-0.082,1.846-0.096v-0.602c-0.014-0.615-0.438-0.984-1.189-0.984
						c-0.684,0-1.121,0.314-1.229,0.82h-1.929c0.123-1.285,1.244-2.297,3.214-2.297c1.612,0,3.145,0.725,3.145,2.516v5.004h-1.914
						v-1.025h-0.055c-0.369,0.684-1.066,1.162-2.174,1.162c-1.422,0-2.476-0.738-2.476-2.215
						C49.818-25.958,51.158-26.505,52.58-26.587z M52.867-23.484c0.916,0,1.572-0.615,1.56-1.395v-0.547
						c-0.308,0.014-1.169,0.062-1.519,0.096c-0.696,0.068-1.147,0.396-1.147,0.971C51.761-23.784,52.225-23.484,52.867-23.484z"/>
					<path fill="#B29649" d="M57.98-29.65h1.955v1.285h0.082c0.273-0.916,0.957-1.395,1.791-1.395c0.205,0,0.465,0.027,0.643,0.068
						v1.805c-0.19-0.055-0.573-0.109-0.86-0.109c-0.916,0-1.586,0.643-1.586,1.545v4.225h-2.023L57.98-29.65L57.98-29.65z"/>
					<path fill="#B29649" d="M62.902-25.903c0-2.297,1.408-3.842,3.582-3.842c1.955,0,3.486,1.23,3.486,3.76v0.574h-5.072
						c0,1.121,0.67,1.818,1.709,1.818c0.685,0,1.176-0.301,1.381-0.752h1.929c-0.287,1.367-1.519,2.27-3.351,2.27
						C64.297-22.075,62.902-23.552,62.902-25.903z M68.057-26.683c0-0.902-0.629-1.545-1.531-1.545c-0.93,0-1.593,0.69-1.627,1.545
						H68.057z"/>
					<path fill="#B29649" d="M70.955-25.931c0-2.543,1.381-3.814,3.021-3.814c1.244,0,1.832,0.738,2.105,1.34h0.067v-3.719h2.023
						v9.898h-1.996v-1.189H76.08c-0.287,0.615-0.902,1.313-2.105,1.313C72.281-22.103,70.955-23.456,70.955-25.931z M76.191-25.944
						c0-1.34-0.574-2.188-1.586-2.188c-1.024,0-1.572,0.889-1.572,2.188c0,1.313,0.548,2.229,1.572,2.229
						C75.617-23.716,76.191-24.605,76.191-25.944z"/>
					<path fill="#B29649" d="M81.264-19.437h-1.928c0.942-1.367,1.928-4.102,1.928-6.563c0-2.447-0.984-5.182-1.928-6.549h1.928
						c1.313,1.846,2.105,3.979,2.105,6.549C83.369-23.43,82.576-21.282,81.264-19.437z"/>
					<path fill="#484848" d="M-113.396-8.612c-0.938,0-1.553,0.488-1.553,1.162c0,0.742,0.83,1.016,1.367,1.152l0.703,0.195
						c0.762,0.195,2.002,0.635,2.002,1.953c0,1.152-0.929,2.051-2.568,2.051c-1.523,0-2.471-0.791-2.549-1.963h0.897
						c0.078,0.791,0.812,1.162,1.65,1.162c0.977,0,1.709-0.498,1.709-1.27c0-0.684-0.654-0.947-1.396-1.162l-0.868-0.234
						c-1.113-0.322-1.798-0.889-1.798-1.846c0-1.191,1.064-1.982,2.433-1.982s2.354,0.801,2.393,1.875h-0.858
						C-111.91-8.212-112.545-8.612-113.396-8.612z"/>
					<path fill="#484848" d="M-110.24-9.296h0.889l1.476,5.723h0.067l1.494-5.723h0.986l1.504,5.723h0.059l1.476-5.723h0.889
						l-1.934,7.07h-0.909l-1.543-5.596h-0.06l-1.553,5.596h-0.908L-110.24-9.296z"/>
					<path fill="#484848" d="M-99.586-2.226h-0.88v-7.07h0.88V-2.226z"/>
					<path fill="#484848" d="M-98.024-9.296h2.402c1.659,0,2.412,0.918,2.412,2.178c0,0.933-0.421,1.67-1.318,1.982l1.592,2.91
						h-1.024l-1.476-2.754l-0.176,0.01h-1.533v2.744h-0.879V-9.296z M-95.651-5.771c1.123,0,1.572-0.508,1.572-1.348
						c0-0.85-0.449-1.396-1.582-1.396h-1.484v2.744H-95.651z"/>
					<path fill="#484848" d="M-89.343-2.87l-0.43-0.586c1.636-0.791,2.617-1.797,3.146-2.969l-2.979,0.283l-0.127-0.674l3.34-0.225
						c0.151-0.488,0.239-1.001,0.273-1.533h-3.174v-0.635h3.936C-85.367-6.698-86.218-4.403-89.343-2.87z M-83.142-6.581h1.406
						v0.645h-1.406v4.502h-0.762v-8.682h0.762V-6.581z"/>
					<path fill="#484848" d="M-77.574-6.835h1.318v-3.096h0.731v8.057h-0.731V-6.2h-1.318v2.432h-3.32V-9.1h3.32V-6.835z
						 M-80.172-4.384h1.875v-4.102h-1.875V-4.384z M-73.776-1.435h-0.742v-8.682h0.742V-1.435z"/>
					<path fill="#484848" d="M-68.287-6.2h-3.164v2.031c1.61,0,2.733-0.054,4.053-0.303l0.078,0.635
						c-1.367,0.254-2.529,0.313-4.199,0.322h-0.693v-3.32h3.164v-1.836h-3.184v-0.635h3.945V-6.2z M-65.856-6.659h1.455v0.645
						h-1.455v4.6h-0.762v-8.701h0.762V-6.659z"/>
					<path fill="#484848" d="M-58.15-4.277l0.059,0.566c-1.982,0.371-4.121,0.381-5.684,0.381l-0.107-0.654
						C-62.281-3.984-60.074-3.993-58.15-4.277z M-58.756-7.441c0,1.211-0.967,2.041-2.334,2.041c-1.366,0-2.354-0.83-2.344-2.041
						c-0.01-1.211,0.978-2.041,2.344-2.041C-59.723-9.482-58.756-8.652-58.756-7.441z M-62.683-7.441
						c-0.01,0.811,0.664,1.367,1.592,1.367c0.919,0,1.583-0.557,1.583-1.367s-0.664-1.367-1.583-1.367
						C-62.019-8.808-62.692-8.251-62.683-7.441z M-56.813-1.415h-0.762v-8.701h0.762V-1.415z"/>
					<path fill="#484848" d="M-44.869-4.902h-7.92v-0.615h7.92V-4.902z M-45.895-1.435h-0.781v-2.002H-51.9v-0.615h6.006V-1.435z
						 M-45.807-6.357h-5.928v-3.525h5.879v0.615h-5.107v0.83h4.873v0.596h-4.873v0.889h5.156V-6.357z"/>
					<path fill="#484848" d="M-38.785-5.898l-0.392,0.605c-1.006-0.332-1.812-1.035-2.196-1.943
						c-0.387,1.006-1.191,1.802-2.228,2.178L-44-5.663c1.299-0.469,2.217-1.602,2.217-2.852v-0.283h-2.031v-0.635h4.805v0.635
						h-2.002v0.283C-41.012-7.353-40.084-6.318-38.785-5.898z M-36.939-3.036c-0.01,1.035-1.113,1.641-2.93,1.641
						C-41.695-1.395-42.8-2-42.8-3.036c0-1.036,1.104-1.631,2.931-1.631C-38.053-4.667-36.949-4.071-36.939-3.036z M-42.027-3.036
						c0,0.645,0.811,1.035,2.158,1.025c1.338,0.01,2.168-0.381,2.168-1.025c0-0.635-0.83-1.016-2.168-1.016
						C-41.217-4.052-42.027-3.671-42.027-3.036z M-36.969-4.862h-0.762v-5.244h0.762V-4.862z"/>
					<path fill="#484848" d="M-28.453-6.015h-4.072V-9.55h4.072V-6.015z M-25.299-2.06l-0.264,0.596
						c-1.309-0.176-2.5-0.791-3.008-1.602c-0.527,0.825-1.748,1.426-3.057,1.602L-31.9-2.06c1.494-0.166,2.93-1.006,2.93-1.875
						h-2.567v-0.596h2.578v-0.85h0.762v0.85h2.598v0.596h-2.578C-28.18-3.085-26.793-2.245-25.299-2.06z M-31.773-6.62h2.568v-2.305
						h-2.568V-6.62z M-25.826-5.126h-0.752v-4.99h0.752V-5.126z"/>
					<path fill="#484848" d="M-13.922-5.263h-7.909v-0.625h7.909V-5.263z M-14.811-8.241c0,1.035-1.182,1.641-3.065,1.641
						c-1.885,0-3.076-0.605-3.076-1.641c0-1.025,1.19-1.65,3.076-1.65C-15.991-9.891-14.811-9.267-14.811-8.241z M-14.889-2.987
						c-0.01,1.006-1.123,1.553-2.987,1.553c-1.886,0-2.998-0.547-2.998-1.553c0-0.996,1.112-1.543,2.998-1.533
						C-16.012-4.53-14.898-3.984-14.889-2.987z M-20.162-8.241c-0.01,0.654,0.879,1.035,2.285,1.035
						c1.387,0,2.284-0.381,2.284-1.035c0-0.645-0.897-1.035-2.284-1.025C-19.283-9.277-20.172-8.886-20.162-8.241z M-20.094-2.987
						c-0.01,0.605,0.82,0.947,2.218,0.938c1.377,0.01,2.217-0.332,2.217-0.938s-0.84-0.947-2.217-0.947
						C-19.273-3.935-20.104-3.593-20.094-2.987z"/>
					<path fill="#484848" d="M-5.279-5.185h-7.91V-5.82h1.963v-1.221c-0.692-0.269-1.084-0.713-1.084-1.299
						c0-1.025,1.172-1.611,3.076-1.611c1.885,0,3.066,0.586,3.066,1.611c0,0.581-0.387,1.025-1.074,1.289v1.23h1.963V-5.185
						L-5.279-5.185z M-6.246-2.987c-0.01,0.986-1.123,1.533-2.988,1.533c-1.885,0-2.998-0.547-2.998-1.533
						c0-0.996,1.113-1.533,2.998-1.533C-7.369-4.521-6.256-3.984-6.246-2.987z M-11.52-8.339c-0.01,0.635,0.869,1.006,2.285,1.006
						c1.406,0,2.285-0.371,2.285-1.006c0-0.625-0.879-1.006-2.285-1.006C-10.65-9.345-11.529-8.964-11.52-8.339z M-11.451-2.987
						c-0.01,0.586,0.82,0.938,2.217,0.938c1.377,0,2.217-0.352,2.217-0.938c0-0.596-0.84-0.938-2.217-0.947
						C-10.631-3.925-11.461-3.583-11.451-2.987z M-8.004-5.819v-1.016C-8.37-6.772-8.78-6.737-9.234-6.737s-0.864-0.034-1.23-0.098
						v1.016H-8.004z"/>
				</g>
			</g>
		</g>
	</g>
	<g id="g-root-ic_dayt_1lsdzay1wbkfls-fill" transform="translate(62, 110)">
	</g>
	<g id="g-root-ic_shad_13zv0my1wblt6r-fill" transform="translate(254, 110)">
	</g>
	<g id="g-root-ic_temp_ddkgze1wblt6u-fill" transform="translate(446, 110)">
	</g>
	<g id="g-root-ic_2_4g21h61wbn94x-fill" transform="translate(638, 110)">
	</g>
	<g id="g-root-ic_came_1d2zpx61wbn8r0-fill" transform="translate(830, 110)">
	</g>
	<g id="g-root-tx__1q87hfe1wbketi-fill" transform="translate(80, 302)">
		<g id="tx__1q87hfe1wbketi-fill">
			<g>
				<g enable-background="new    ">
					<path fill="#B29649" d="M-31.248-109.548h-1.068v5.234c0.488-0.041,0.962-0.086,1.424-0.146l0.092,1.213
						c-2.452,0.435-5.208,0.476-7.264,0.488l-0.185-1.371l1.371-0.013v-5.405h-1.068v-1.345h6.697L-31.248-109.548L-31.248-109.548z
						 M-33.937-104.222v-5.326h-1.318v5.379L-33.937-104.222z M-28.624-107.438h1.767v1.371h-1.767v6.063h-1.688v-11.997h1.688
						V-107.438z"/>
					<path fill="#B29649" d="M-19.618-109.851h-2.386c0.013,1.396,0.85,2.749,2.769,3.309l-0.804,1.318
						c-1.325-0.402-2.241-1.206-2.769-2.241c-0.534,1.213-1.51,2.175-2.953,2.649l-0.857-1.332c1.991-0.625,2.887-2.182,2.914-3.704
						h-2.452v-1.345h6.539L-19.618-109.851L-19.618-109.851z M-16.796-102.337c0,1.463-1.556,2.333-4.047,2.333
						c-2.544,0-4.113-0.87-4.113-2.333s1.569-2.32,4.113-2.307C-18.353-104.657-16.796-103.8-16.796-102.337z M-23.271-102.337
						c-0.013,0.686,0.844,1.028,2.426,1.028c1.556,0,2.386-0.343,2.386-1.028c0-0.672-0.831-1.002-2.386-1.002
						C-22.426-103.339-23.283-103.009-23.271-102.337z M-16.916-109.218h1.622v1.371h-1.622v2.966h-1.688V-112h1.688V-109.218z"/>
					<path fill="#B29649" d="M-11.13-105.026l-0.672-1.332c2.689-0.666,4.172-1.996,4.456-3.599h-3.863v-1.345h5.695
						C-5.527-108.124-7.531-105.975-11.13-105.026z M-2.152-100.147h-7.844v-4.693h7.844V-100.147z M-8.322-101.466h4.509v-2.018
						h-4.509V-101.466z M-2.152-109.377h1.622v1.384h-1.622v2.703H-3.84V-112h1.688V-109.377z"/>
					<path fill="#B29649" d="M7.644-103.879l-0.91,1.317c-1.417-0.6-2.393-1.793-2.927-3.256c-0.547,1.588-1.542,2.908-2.953,3.561
						l-0.962-1.332c1.991-0.883,3.019-3.111,3.019-5.143v-0.737H0.367v-1.371h6.776v1.371H4.638v0.737
						C4.638-106.793,5.626-104.723,7.644-103.879z M10.03-100.003H8.329V-112h1.701V-100.003z"/>
				</g>
			</g>
		</g>
	</g>
	<g id="g-root-tx__1hap1x61wblurl-fill" transform="translate(272, 302)">
		<g>
			<g id="tx__1hap1x61wblurl-fill_8_">
				<g>
					<g enable-background="new    ">
						<path fill="#B29649" d="M-89.685-104.037h-4.667v4.034h-1.661v-4.034h-4.613v-1.345h10.941V-104.037z M-90.66-110.049h-3.494
							c0.165,1.173,1.49,2.354,3.955,2.649l-0.606,1.318c-2.108-0.283-3.619-1.187-4.337-2.426
							c-0.738,1.239-2.233,2.143-4.324,2.426l-0.619-1.318c2.426-0.295,3.764-1.477,3.955-2.649h-3.508v-1.317h8.979V-110.049z"/>
						<path fill="#B29649" d="M-77.989-101.401h-10.982v-1.383h2.452v-2.94c-0.93-0.554-1.49-1.404-1.49-2.466
							c0-1.938,1.898-3.229,4.51-3.229c2.597,0,4.509,1.292,4.521,3.229c-0.007,1.035-0.554,1.879-1.45,2.439v2.967h2.439V-101.401z
							 M-86.349-108.19c0,1.174,1.134,1.898,2.849,1.898c1.7,0,2.848-0.725,2.86-1.898c-0.013-1.213-1.16-1.897-2.86-1.897
							C-85.215-110.089-86.349-109.403-86.349-108.19z M-82.129-102.784v-2.334c-0.429,0.086-0.891,0.133-1.371,0.133
							c-0.481,0-0.937-0.041-1.358-0.133v2.334H-82.129z"/>
						<path fill="#B29649" d="M-63.267-104.446h-10.969v-1.317h10.969V-104.446z M-64.611-100.003h-1.701v-2.32h-6.684v-1.332h8.385
							V-100.003z M-64.44-106.516h-8.424v-5.222h8.319v1.306h-6.632v0.672h6.354v1.239h-6.354v0.725h6.737L-64.44-106.516
							L-64.44-106.516z"/>
						<path fill="#B29649" d="M-55.461-109.838h-2.399c0.053,1.358,0.942,2.696,2.848,3.271l-0.856,1.317
							c-1.338-0.409-2.281-1.246-2.821-2.307c-0.547,1.192-1.522,2.149-2.94,2.61l-0.869-1.332c1.938-0.627,2.848-2.084,2.914-3.561
							h-2.466v-1.357h6.593v1.358H-55.461z M-52.469-102.31c-0.013,1.49-1.582,2.333-4.126,2.32
							c-2.558,0.013-4.126-0.832-4.126-2.32c0-1.478,1.569-2.333,4.126-2.333C-54.051-104.644-52.481-103.787-52.469-102.31z
							 M-59.033-102.31c0,0.686,0.844,1.042,2.438,1.027c1.582,0.014,2.466-0.343,2.466-1.027c0-0.672-0.884-1.028-2.466-1.028
							C-58.19-103.339-59.033-102.983-59.033-102.31z M-52.508-104.868h-1.688v-7.119h1.688V-104.868z"/>
					</g>
				</g>
			</g>
		</g>
	</g>
	<g id="g-root-tx__qoei9m1wbluro-fill" transform="translate(464, 302)">
		<g>
			<g id="tx__qoei9m1wbluro-fill_8_">
				<g>
					<g enable-background="new    ">
						<path fill="#B29649" d="M-152.224-104.472h-10.941v-1.346h4.613v-0.961c-2.161-0.179-3.52-1.074-3.52-2.465
							c0-1.504,1.727-2.453,4.377-2.453c2.624,0,4.351,0.949,4.364,2.453c-0.014,1.396-1.385,2.293-3.533,2.465v0.961h4.641
							L-152.224-104.472L-152.224-104.472z M-153.463-100.214h-8.385v-3.507h1.688v2.162h6.696V-100.214z M-160.317-109.245
							c-0.013,0.778,0.962,1.147,2.624,1.147s2.624-0.369,2.624-1.147c0-0.712-0.962-1.121-2.624-1.121
							S-160.331-109.957-160.317-109.245z"/>
						<path fill="#B29649" d="M-141.729-105.303h-3.479v2.558h4.68v1.371h-10.982v-1.371h4.627v-2.558h-3.335v-5.854h8.398v1.346
							h-6.71v3.177h6.803L-141.729-105.303L-141.729-105.303z"/>
						<path fill="#B29649" d="M-136.207-105.026l-0.672-1.332c2.688-0.666,4.172-1.996,4.454-3.599h-3.861v-1.345h5.694
							C-130.604-108.124-132.607-105.975-136.207-105.026z M-127.229-100.147h-7.845v-4.693h7.845V-100.147z M-133.398-101.466
							h4.508v-2.018h-4.508V-101.466z M-127.229-109.377h1.621v1.384h-1.621v2.703h-1.688V-112h1.688V-109.377z"/>
						<path fill="#B29649" d="M-117.433-103.879l-0.909,1.317c-1.418-0.6-2.394-1.793-2.928-3.256
							c-0.547,1.588-1.542,2.908-2.953,3.561l-0.962-1.332c1.991-0.883,3.02-3.111,3.02-5.143v-0.737h-2.544v-1.371h6.775v1.371
							h-2.505v0.737C-120.438-106.793-119.449-104.723-117.433-103.879z M-115.047-100.003h-1.699V-112h1.699V-100.003z"/>
					</g>
				</g>
			</g>
		</g>
	</g>
	<g id="g-root-tx__dbp1q21wbn7kf-fill" transform="translate(656, 302)">
		<g>
			<g id="tx__dbp1q21wbn7kf-fill_8_">
				<g>
					<g enable-background="new    ">
						<path fill="#B29649" d="M-214.762-104.037h-4.666v4.034h-1.662v-4.034h-4.612v-1.345h10.94V-104.037z M-215.736-110.049
							h-3.494c0.165,1.173,1.49,2.354,3.955,2.649l-0.605,1.318c-2.109-0.283-3.619-1.187-4.338-2.426
							c-0.737,1.239-2.234,2.143-4.323,2.426l-0.62-1.318c2.426-0.295,3.764-1.477,3.955-2.649h-3.508v-1.317h8.979
							L-215.736-110.049L-215.736-110.049z"/>
						<path fill="#B29649" d="M-203.066-101.401h-10.982v-1.383h2.453v-2.94c-0.93-0.554-1.489-1.404-1.489-2.466
							c0-1.938,1.897-3.229,4.509-3.229c2.597,0,4.509,1.292,4.521,3.229c-0.007,1.035-0.555,1.879-1.451,2.439v2.967h2.439
							V-101.401z M-211.425-108.19c0,1.174,1.135,1.898,2.849,1.898c1.7,0,2.848-0.725,2.859-1.898
							c-0.013-1.213-1.159-1.897-2.859-1.897C-210.291-110.089-211.425-109.403-211.425-108.19z M-207.206-102.784v-2.334
							c-0.43,0.086-0.891,0.133-1.371,0.133c-0.481,0-0.938-0.041-1.358-0.133v2.334H-207.206z"/>
						<path fill="#B29649" d="M-188.344-105.065h-10.941v-1.318h10.941V-105.065z M-189.451-109.39
							c-0.014,1.463-1.728,2.347-4.363,2.347c-2.65,0-4.377-0.883-4.377-2.347c0-1.45,1.727-2.348,4.377-2.36
							C-191.178-111.735-189.463-110.84-189.451-109.39z M-189.648-102.192c-0.014,1.412-1.582,2.203-4.18,2.203
							c-2.638,0-4.205-0.791-4.205-2.203c0-1.41,1.567-2.201,4.205-2.201C-191.23-104.393-189.662-103.602-189.648-102.192z
							 M-196.438-109.39c-0.014,0.699,0.949,1.042,2.623,1.042c1.661,0,2.623-0.343,2.623-1.042c0-0.712-0.962-1.042-2.623-1.042
							C-195.488-110.431-196.451-110.102-196.438-109.39z M-196.319-102.192c-0.013,0.621,0.831,0.924,2.491,0.924
							c1.622,0,2.479-0.303,2.492-0.924c-0.015-0.633-0.87-0.936-2.492-0.936C-195.488-103.128-196.332-102.823-196.319-102.192z"/>
						<path fill="#B29649" d="M-176.688-104.973h-10.943v-1.345h2.467v-1.438c-0.877-0.389-1.371-0.982-1.371-1.753
							c0-1.45,1.7-2.319,4.377-2.319c2.648,0,4.351,0.869,4.364,2.319c-0.008,0.778-0.521,1.384-1.411,1.767v1.424h2.519
							L-176.688-104.973L-176.688-104.973z M-177.993-102.192c-0.013,1.412-1.582,2.176-4.179,2.176
							c-2.638,0-4.206-0.766-4.206-2.176c0-1.383,1.568-2.148,4.206-2.148C-179.575-104.34-178.006-103.575-177.993-102.192z
							 M-184.783-109.508c-0.014,0.659,0.924,0.989,2.624,0.989c1.675,0,2.624-0.33,2.624-0.989c0-0.672-0.949-1.028-2.624-1.028
							C-183.859-110.537-184.797-110.181-184.783-109.508z M-184.664-102.192c-0.015,0.621,0.83,0.924,2.492,0.924
							c1.62,0,2.479-0.303,2.49-0.924c-0.013-0.592-0.87-0.883-2.49-0.883C-183.834-103.075-184.678-102.784-184.664-102.192z
							 M-180.881-106.317v-1.002c-0.395,0.045-0.822,0.065-1.277,0.065c-0.468,0-0.903-0.021-1.307-0.079v1.016H-180.881
							L-180.881-106.317z"/>
					</g>
				</g>
			</g>
		</g>
	</g>
	<g id="g-root-tx__1qdtr7e1wbnabu-fill" transform="translate(848, 302)">
		<g>
			<g id="tx__1qdtr7e1wbnabu-fill_8_">
				<g>
					<g enable-background="new    ">
						<path fill="#B29649" d="M-281.848-106.885c-0.014,2.637-1.332,4.285-3.164,4.285s-3.178-1.648-3.164-4.285
							c-0.014-2.61,1.332-4.271,3.164-4.271S-281.861-109.495-281.848-106.885z M-286.555-106.885c0,1.793,0.62,2.755,1.543,2.755
							c0.937,0,1.543-0.962,1.557-2.755c-0.014-1.78-0.62-2.755-1.557-2.755C-285.935-109.64-286.555-108.665-286.555-106.885z
							 M-277.075-107.808h-1.7v2.136h1.7v1.371h-1.7v4.298h-1.688V-112h1.688v2.782h1.7V-107.808z"/>
						<path fill="#B29649" d="M-275.967-104.577l-0.698-1.332c2.684-0.752,4.206-2.144,4.481-3.824h-3.955v-1.371h5.801
							C-270.338-107.86-272.367-105.593-275.967-104.577z M-266.659-100.214h-8.214v-4.074h1.701v2.729h6.513V-100.214z
							 M-267.068-108.638h1.622v1.384h-1.622v3.851h-1.7V-112h1.7V-108.638z"/>
						<path fill="#B29649" d="M-261.283-105.026l-0.672-1.332c2.688-0.666,4.172-1.996,4.455-3.599h-3.862v-1.345h5.695
							C-255.68-108.124-257.684-105.975-261.283-105.026z M-252.305-100.147h-7.845v-4.693h7.845V-100.147z M-258.475-101.466h4.508
							v-2.018h-4.508V-101.466z M-252.305-109.377h1.621v1.384h-1.621v2.703h-1.688V-112h1.688V-109.377z"/>
						<path fill="#B29649" d="M-242.469-104.011l-0.988,1.345c-1.371-0.62-2.32-1.813-2.86-3.296
							c-0.548,1.615-1.529,2.92-2.993,3.586l-1.015-1.396c2.096-0.883,3.11-3.178,3.124-5.512v-1.793h1.7v1.793
							C-245.502-107.083-244.5-104.868-242.469-104.011z M-240.123-99.977h-1.7V-112h1.7V-99.977z"/>
					</g>
				</g>
			</g>
		</g>
	</g>
	<g id="g-root-tx_13mingaa_1q87hfe1wbketj-fill" transform="translate(50, 338)">
		<g>
			<g id="tx_13mingaa_1q87hfe1wbketj-fill_8_">
				<g>
					<g enable-background="new    ">
						<path d="M-25.09-117.843h-3.096v-0.771h3.096V-117.843z"/>
						<path d="M-18.801-115.207h-0.889v-6.151h-0.039l-1.719,1.143v-0.889l1.758-1.172h0.889V-115.207z"/>
						<path d="M-15.5-118.664c0.742,0,1.416,0.566,2.129,0.566c0.439,0,0.82-0.216,1.113-0.615v0.812
							c-0.322,0.371-0.703,0.557-1.133,0.557c-0.742,0-1.416-0.566-2.139-0.566c-0.43,0-0.811,0.215-1.104,0.615v-0.811
							C-16.32-118.468-15.93-118.664-15.5-118.664z"/>
						<path d="M-10.774-116.983h0.889c0.049,0.674,0.723,1.094,1.563,1.094c0.928,0,1.611-0.508,1.611-1.24
							c0-0.771-0.615-1.318-1.719-1.318h-0.576v-0.771h0.576c0.859,0,1.455-0.479,1.455-1.211c0-0.703-0.518-1.183-1.318-1.183
							c-0.752,0-1.445,0.42-1.484,1.113h-0.85c0.049-1.123,1.084-1.875,2.344-1.875c1.348,0,2.168,0.879,2.158,1.895
							c0.01,0.802-0.459,1.396-1.201,1.603v0.05c0.918,0.146,1.484,0.801,1.475,1.698c0.01,1.162-1.055,2.021-2.461,2.021
							C-9.718-115.108-10.726-115.86-10.774-116.983z"/>
						<path d="M-4.572-120.509h0.84v3.125c0,0.859,0.576,1.436,1.445,1.436c0.879,0,1.465-0.586,1.465-1.436v-3.125h0.84v5.303
							h-0.84v-0.791h-0.049c-0.283,0.566-0.82,0.85-1.416,0.85c-0.586,0-1.123-0.282-1.406-0.85h-0.039v2.783h-0.84V-120.509z"/>
						<path d="M1.354-120.509h0.811v0.83h0.068c0.225-0.566,0.732-0.898,1.426-0.898s1.162,0.332,1.416,0.898h0.059
							c0.273-0.547,0.83-0.898,1.592-0.898c0.947,0,1.621,0.576,1.621,1.826v3.545h-0.84v-3.535c0-0.781-0.498-1.084-1.074-1.084
							c-0.742,0-1.162,0.498-1.162,1.172v3.447h-0.85v-3.623c0-0.596-0.43-0.996-1.035-0.996c-0.635,0-1.191,0.537-1.191,1.31v3.311
							h-0.84L1.354-120.509L1.354-120.509z"/>
						<path d="M15.154-117.257l0.059,0.566c-1.982,0.371-4.121,0.381-5.684,0.381l-0.107-0.654
							C11.022-116.965,13.229-116.974,15.154-117.257z M14.549-120.422c0,1.211-0.967,2.041-2.334,2.041
							c-1.367,0-2.354-0.83-2.344-2.041c-0.01-1.211,0.977-2.041,2.344-2.041C13.582-122.463,14.549-121.632,14.549-120.422z
							 M10.623-120.422c-0.01,0.812,0.664,1.367,1.592,1.367c0.918,0,1.582-0.558,1.582-1.367s-0.664-1.367-1.582-1.367
							C11.287-121.789,10.613-121.231,10.623-120.422z M16.492-114.396h-0.762v-8.701h0.762V-114.396z"/>
						<path d="M25.516-121.515h-0.967v4.18c0.469-0.033,0.933-0.072,1.377-0.127l0.039,0.566c-1.836,0.293-3.916,0.322-5.449,0.332
							l-0.098-0.654l1.172-0.01v-4.287h-0.957v-0.635h4.883V-121.515z M23.815-117.297v-4.219h-1.484v4.276
							C22.814-117.248,23.317-117.267,23.815-117.297z M27.244-119.61h1.455v0.645h-1.455v4.551h-0.762v-8.682h0.762V-119.61z"/>
						<path d="M34.236-118.879l-0.361,0.604c-1.001-0.326-1.758-1.021-2.129-1.895c-0.376,0.996-1.177,1.771-2.217,2.148
							l-0.391-0.615c1.299-0.439,2.207-1.563,2.217-2.813v-0.371h-1.982v-0.636h4.688v0.636h-1.953v0.371
							C32.106-120.313,32.957-119.299,34.236-118.879z M36.033-116.037c0,1.017-1.074,1.603-2.861,1.603
							c-1.787,0-2.881-0.586-2.881-1.603c0-0.995,1.094-1.581,2.881-1.581C34.958-117.618,36.033-117.032,36.033-116.037z
							 M31.062-116.037c-0.01,0.625,0.801,0.986,2.109,0.986c1.318,0,2.119-0.361,2.119-0.986c0-0.604-0.801-0.967-2.119-0.967
							C31.863-117.004,31.053-116.642,31.062-116.037z M35.955-120.881h1.309v0.646h-1.309v2.383h-0.762v-5.244h0.762V-120.881z"/>
						<path d="M45.721-118.713h-7.91v-0.625h7.91V-118.713z M44.832-121.446c0,0.985-1.133,1.514-3.066,1.522
							c-1.934-0.01-3.076-0.537-3.076-1.522c0-0.968,1.143-1.494,3.076-1.494S44.832-122.414,44.832-121.446z M44.705-116.017
							h-5.156v0.898h5.42v0.604h-6.182v-2.07h5.166v-0.791h-5.186v-0.586h5.938V-116.017L44.705-116.017z M39.49-121.446
							c-0.01,0.604,0.83,0.938,2.275,0.938c1.436,0,2.285-0.332,2.285-0.938c0-0.566-0.85-0.918-2.285-0.918
							C40.32-122.364,39.479-122.013,39.49-121.446z"/>
						<path d="M49.266-118.077l-0.313-0.615c2.139-0.576,3.442-1.733,3.604-3.203h-3.213v-0.635h4.033
							C53.367-120.343,51.833-118.78,49.266-118.077z M55.75-114.532h-5.498v-3.232h5.498V-114.532z M51.014-115.157h3.975v-1.974
							h-3.975V-115.157z M55.75-120.968h1.309v0.635H55.75v2.168h-0.762v-4.932h0.762V-120.968z"/>
						<path d="M63.063-116.905l-0.43,0.604c-1.017-0.464-1.896-1.465-2.295-2.666c-0.41,1.274-1.284,2.383-2.275,2.881l-0.459-0.604
							c1.24-0.597,2.324-2.236,2.334-3.74v-1.133h-2.051v-0.635h4.893v0.635h-2.069v1.133
							C60.711-118.957,61.784-117.463,63.063-116.905z M64.764-114.416h-0.771v-8.682h0.771V-114.416z"/>
						<path d="M-25.09-105.843h-3.096v-0.771h3.096V-105.843z"/>
						<path d="M-20.305-103.206h-0.879v-7.07h0.879V-103.206z"/>
						<path d="M-18.01-103.206h-0.84v-5.303h0.811v0.83h0.068c0.254-0.537,0.742-0.898,1.553-0.898c1.074,0,1.787,0.654,1.787,2.002
							v3.369h-0.84v-3.311c0-0.82-0.449-1.309-1.201-1.309c-0.771,0-1.338,0.518-1.338,1.436V-103.206z"/>
						<path d="M-10.354-109.554c-1.25,0-2.246,0.986-2.246,2.813c0,1.827,0.996,2.813,2.305,2.813c1.196,0,2.012-0.802,2.031-2.052
							h-1.846v-0.771h2.705v0.763c0,1.758-1.211,2.881-2.891,2.881c-1.885,0-3.154-1.396-3.154-3.633
							c0-2.237,1.279-3.634,3.096-3.634c1.494,0,2.646,0.938,2.91,2.306h-0.908C-8.654-108.978-9.349-109.554-10.354-109.554z"/>
						<path d="M-4.456-106.272c0.337-0.024,1.196-0.068,1.436-0.078v-0.43c0-0.675-0.4-1.064-1.201-1.064
							c-0.674,0-1.074,0.313-1.191,0.713h-0.879c0.107-0.85,0.938-1.445,2.109-1.445c0.693,0,1.992,0.205,1.992,1.875v3.496h-0.83
							v-0.723h-0.039c-0.176,0.361-0.664,0.85-1.582,0.85c-1.006,0-1.807-0.596-1.807-1.631
							C-6.447-105.931-5.374-106.204-4.456-106.272z M-4.494-103.831c0.947,0,1.475-0.635,1.475-1.299v-0.537l-1.338,0.098
							c-0.762,0.049-1.25,0.322-1.25,0.898C-5.608-104.114-5.139-103.831-4.494-103.831z"/>
						<path d="M-1.34-103.206l2.588-7.07h0.928l2.588,7.07H3.835l-0.703-1.992H0.291l-0.713,1.992H-1.34z M2.858-105.97
							l-1.123-3.164H1.677l-1.123,3.164H2.858z"/>
						<path d="M7.482-107.864c-0.654,0-1.123,0.353-1.123,0.801c0,0.353,0.283,0.597,0.908,0.742l0.791,0.195
							c0.947,0.225,1.416,0.693,1.416,1.436c0,0.918-0.752,1.593-2.08,1.593c-1.191,0-1.904-0.527-2.041-1.494h0.879
							c0.098,0.519,0.479,0.762,1.143,0.762c0.752,0,1.23-0.313,1.23-0.811c0-0.371-0.264-0.625-0.869-0.763l-0.801-0.186
							c-0.928-0.215-1.416-0.723-1.416-1.426c0-0.908,0.791-1.563,1.963-1.563c1.094,0,1.787,0.586,1.895,1.444h-0.82
							C8.439-107.571,8.107-107.864,7.482-107.864z"/>
						<path d="M17.063-106.653l-0.43,0.605c-0.801-0.371-1.372-1.035-1.66-1.826c-0.317,0.869-0.923,1.641-1.758,2.041l-0.43-0.596
							c1.113-0.527,1.797-1.729,1.797-2.754v-1.299h0.742v1.299C15.325-108.167,15.959-107.122,17.063-106.653z M20.393-102.601
							h-5.957v-2.783h0.762v2.139h5.195V-102.601z M18.42-104.827h-0.742v-3.428h-1.367v-0.635h1.367v-2.031h0.742V-104.827z
							 M20.13-104.583h-0.732v-6.514h0.732V-104.583z"/>
						<path d="M26.722-105.032l-0.459,0.625c-0.986-0.508-1.802-1.548-2.188-2.783c-0.386,1.3-1.201,2.412-2.188,2.939l-0.498-0.615
							c1.27-0.625,2.285-2.295,2.285-3.896v-1.582h0.781v1.582C24.456-107.19,25.461-105.608,26.722-105.032z M28.597-102.396
							h-0.762v-5.107h-2.061v-0.625h2.061v-2.969h0.762V-102.396z"/>
					</g>
				</g>
			</g>
		</g>
	</g>
	<g id="g-root-tx__18f21oa1wblvka-fill" transform="translate(242, 338)">
		<g>
			<g id="tx__18f21oa1wblvka-fill_8_">
				<g>
					<g enable-background="new    ">
						<path d="M-89.268-119.866h-2.94v-0.771h2.94V-119.866z"/>
						<path d="M-78.422-119.495h-3.441v3.057h-0.714v-3.057h-3.396v-0.645h7.552V-119.495z M-79.313-122.854
							c0,1.152-1.169,1.885-2.904,1.885c-1.734,0-2.903-0.732-2.903-1.885c0-1.183,1.169-1.914,2.903-1.914
							C-80.481-124.769-79.313-124.036-79.313-122.854z M-84.368-122.854c-0.009,0.771,0.862,1.27,2.151,1.27
							c1.28,0,2.162-0.498,2.162-1.27c0-0.781-0.881-1.289-2.162-1.289C-83.506-124.144-84.378-123.636-84.368-122.854z"/>
						<path d="M-70.239-119.583h-3.414v3.145h-0.714v-3.145h-3.386v-0.645h7.515L-70.239-119.583L-70.239-119.583z M-70.61-121.81
							l-0.297,0.625c-1.28-0.225-2.546-0.973-3.08-2.041c-0.529,1.074-1.8,1.816-3.08,2.041l-0.297-0.625
							c1.483-0.215,2.997-1.26,2.997-2.5v-0.498h0.751v0.498C-73.616-123.089-72.095-122.024-70.61-121.81z"/>
						<path d="M-64.608-123.421h-4.917v-0.625h2.097v-1.064h0.725v1.064h2.097L-64.608-123.421L-64.608-123.421z M-65.081-121.321
							c-0.01,0.978-0.808,1.603-1.985,1.603c-1.188,0-1.995-0.625-1.985-1.603c-0.009-0.985,0.799-1.621,1.985-1.621
							C-65.889-122.942-65.091-122.308-65.081-121.321z M-68.356-121.321c-0.009,0.615,0.51,1.006,1.29,0.996
							c0.77,0.01,1.29-0.381,1.299-0.996c-0.009-0.615-0.529-1.016-1.299-1.016C-67.846-122.337-68.365-121.937-68.356-121.321z
							 M-62.716-116.624h-5.538v-2.5h0.714v1.855h4.823L-62.716-116.624L-62.716-116.624z M-63.096-122.249h1.243v0.645h-1.243
							v2.998h-0.724v-6.504h0.724V-122.249L-63.096-122.249z"/>
						<path d="M-51.406-119.222h-3.434v2.783h-0.714v-2.783h-3.404v-0.635h7.552V-119.222z M-52.26-120.755h-5.687v-3.955h5.594
							v0.625h-4.871v1.016h4.677v0.615h-4.677v1.074h4.963L-52.26-120.755L-52.26-120.755z"/>
						<path d="M-48.326-119.036c0.914-0.033,1.851-0.098,2.709-0.205l0.037,0.576c-1.735,0.283-3.674,0.322-5.149,0.313
							l-0.093-0.636c0.543-0.004,1.146-0.01,1.781-0.028v-2.656h0.714L-48.326-119.036L-48.326-119.036z M-46.164-123.704
							c-0.01,0.684-0.01,1.836-0.241,3.447l-0.733-0.068c0.224-1.455,0.241-2.51,0.241-3.203h-3.46v-0.625h4.193V-123.704z
							 M-44.374-121.487h1.336v0.664h-1.336v4.385h-0.725v-8.682h0.725V-121.487z"/>
						<path d="M-38.612-122.151h-2.839v1.348c1.549,0,2.347-0.023,3.32-0.215l0.074,0.635c-1.029,0.176-1.865,0.205-3.535,0.205
							h-0.584v-2.559h2.84v-1.23h-2.857v-0.615h3.581V-122.151z M-35.69-116.419h-0.733v-2.266h-4.823v-0.625h5.557V-116.419z
							 M-35.69-119.778h-0.733v-1.61h-1.642v-0.636h1.642v-1.172h-1.642v-0.625h1.642v-1.289h0.733V-119.778z"/>
						<path d="M-89.268-107.866h-2.94v-0.771h2.94V-107.866z"/>
						<path d="M-81.976-112.056h2.115v-1.064h0.724v4.463h-0.724v-0.996h-2.087c-0.385,0.488-1.006,0.781-1.744,0.781
							c-1.243,0-2.143-0.801-2.143-1.973c0-1.162,0.899-1.963,2.143-1.963C-82.968-112.808-82.355-112.524-81.976-112.056z
							 M-85.139-110.845c0,0.791,0.604,1.348,1.447,1.357c0.816-0.011,1.429-0.566,1.429-1.357c0-0.781-0.611-1.338-1.429-1.328
							C-84.535-112.183-85.139-111.626-85.139-110.845z M-79.137-106.138h-4.602v0.967h4.917v0.615h-5.641v-2.168h4.602v-0.879
							h-4.62v-0.615h5.344V-106.138z M-81.558-110.845c0,0.205-0.033,0.396-0.083,0.576h1.781v-1.172h-1.781
							C-81.591-111.255-81.558-111.055-81.558-110.845z"/>
						<path d="M-73.235-109.419c0,1.846-0.881,3.018-2.106,3.018c-1.233,0-2.105-1.172-2.105-3.018s0.872-3.018,2.105-3.027
							C-74.117-112.437-73.235-111.265-73.235-109.419z M-76.742-109.419c0,1.416,0.575,2.334,1.4,2.334
							c0.826,0,1.401-0.918,1.401-2.334s-0.575-2.334-1.401-2.344C-76.167-111.753-76.742-110.835-76.742-109.419z M-70.953-104.419
							h-0.733v-8.701h0.733V-104.419z"/>
						<path d="M-65.248-106.616h-3.813v-5.645h3.813V-106.616z M-68.347-107.241h2.384v-4.404h-2.384V-107.241z M-62.743-104.419
							h-0.733v-8.701h0.733V-104.419z"/>
						<path d="M-56.147-106.929l-0.408,0.605c-0.965-0.465-1.8-1.466-2.18-2.666c-0.39,1.273-1.22,2.383-2.162,2.881l-0.436-0.605
							c1.178-0.596,2.208-2.236,2.217-3.74v-1.133h-1.948v-0.635h4.648v0.635h-1.968v1.133
							C-58.383-108.979-57.362-107.485-56.147-106.929z M-54.532-104.438h-0.733v-8.683h0.733V-104.438z"/>
						<path d="M-48.438-110.513c-0.009,1.089-0.751,1.865-1.828,2.002v1.484c0.771-0.039,1.545-0.099,2.265-0.195l0.046,0.576
							c-1.744,0.313-3.702,0.332-5.149,0.322l-0.121-0.646c0.664-0.005,1.434-0.011,2.228-0.039v-1.504
							c-1.096-0.132-1.847-0.908-1.837-2.002c-0.01-1.211,0.908-2.031,2.198-2.041C-49.365-112.544-48.446-111.724-48.438-110.513z
							 M-52.12-110.513c-0.009,0.811,0.622,1.377,1.483,1.377c0.854,0,1.476-0.566,1.484-1.377
							c-0.009-0.811-0.631-1.377-1.484-1.377C-51.499-111.89-52.131-111.323-52.12-110.513z M-46.749-109.536h1.345v0.664h-1.345
							v4.434h-0.725v-8.682h0.725V-109.536z"/>
						<path d="M-42.064-106.089l-0.408-0.605c2.135-1.117,3.293-2.787,3.46-4.844h-3.08v-0.645h3.813
							C-38.278-109.722-39.373-107.485-42.064-106.089z M-36.146-109.585h1.336v0.645h-1.336v4.502h-0.724v-8.682h0.724V-109.585z"
							/>
						<path d="M-29.15-107.026l-0.445,0.604c-0.937-0.483-1.749-1.504-2.143-2.744c-0.385,1.313-1.197,2.407-2.162,2.92
							l-0.464-0.645c1.225-0.597,2.245-2.246,2.254-3.896v-1.581h0.724v1.581C-31.396-109.204-30.365-107.603-29.15-107.026z
							 M-27.518-104.419h-0.732v-8.701h0.732V-104.419z"/>
						<path d="M-23.657-108.989c0.918-0.028,1.86-0.098,2.718-0.215l0.046,0.566c-1.726,0.293-3.702,0.342-5.186,0.342l-0.074-0.645
							c0.538,0,1.141-0.006,1.772-0.021v-1.729h0.724V-108.989z M-21.533-112.104c-0.009,0.547-0.009,1.328-0.223,2.354
							l-0.725-0.068c0.19-0.918,0.213-1.586,0.213-2.108h-3.377v-0.646h4.11L-21.533-112.104L-21.533-112.104z M-19.575-106.04
							c0,1.006-1.039,1.572-2.746,1.572s-2.746-0.566-2.746-1.572c0-0.967,1.039-1.543,2.746-1.543S-19.575-107.007-19.575-106.04z
							 M-24.335-106.04c-0.01,0.615,0.77,0.967,2.013,0.967s2.013-0.352,2.013-0.967c0-0.586-0.77-0.947-2.013-0.947
							S-24.345-106.626-24.335-106.04z M-19.641-110.737h1.206v0.646h-1.206v2.401h-0.742v-5.43h0.742V-110.737z"/>
						<path d="M-13.035-108.667l-0.408,0.596c-0.905-0.381-1.624-1.138-1.976-2.08c-0.354,1.051-1.104,1.886-2.078,2.295
							l-0.391-0.625c1.234-0.479,2.087-1.688,2.098-3.026v-1.074h0.714v1.104C-15.076-110.269-14.241-109.126-13.035-108.667z
							 M-10.873-104.624h-5.521v-2.725h0.733v2.08h4.787V-104.624z M-11.06-106.606h-0.732v-3.818h-1.837v-0.645h1.837v-2.041h0.732
							V-106.606z"/>
						<path d="M-77.764-95.534h-1.995v3.096h-0.732v-3.096h-2.115v3.096h-0.751v-3.096h-1.958v-0.635h7.552V-95.534z
							 M-78.653-98.874c0,1.152-1.169,1.885-2.904,1.875c-1.734,0.01-2.903-0.723-2.903-1.875c0-1.162,1.169-1.895,2.903-1.895
							C-79.822-100.769-78.653-100.036-78.653-98.874z M-83.71-98.874c-0.01,0.771,0.862,1.26,2.151,1.26
							c1.28,0,2.162-0.487,2.162-1.26c0-0.771-0.881-1.27-2.162-1.27C-82.848-100.144-83.72-99.646-83.71-98.874z"/>
						<path d="M-72.196-95.075l-0.445,0.615c-0.909-0.503-1.67-1.527-2.032-2.734c-0.37,1.285-1.149,2.379-2.077,2.9l-0.465-0.615
							c1.206-0.625,2.162-2.295,2.172-3.877v-1.582h0.714v1.582C-74.33-97.253-73.365-95.681-72.196-95.075z M-70.713-97.595h1.383
							v0.664h-1.383v4.492h-0.724v-8.683h0.724V-97.595z"/>
						<path d="M-63.949-99.421h-4.917v-0.625h2.097v-1.064h0.725v1.064h2.097L-63.949-99.421L-63.949-99.421z M-64.422-97.321
							c-0.01,0.978-0.808,1.603-1.985,1.603c-1.188,0-1.995-0.625-1.985-1.603c-0.009-0.985,0.798-1.621,1.985-1.621
							C-65.229-98.942-64.432-98.308-64.422-97.321z M-67.697-97.321c-0.009,0.615,0.51,1.006,1.29,0.996
							c0.77,0.01,1.29-0.381,1.299-0.996c-0.009-0.615-0.529-1.016-1.299-1.016C-67.188-98.337-67.706-97.937-67.697-97.321z
							 M-62.057-92.624h-5.539v-2.5h0.714v1.855h4.824L-62.057-92.624L-62.057-92.624z M-62.438-98.249h1.243v0.645h-1.243v2.998
							h-0.724v-6.504h0.724V-98.249z"/>
						<path d="M-53.772-97.419c0,1.846-0.881,3.018-2.105,3.018c-1.234,0-2.106-1.172-2.106-3.018s0.872-3.018,2.106-3.027
							C-54.653-100.437-53.772-99.265-53.772-97.419z M-57.278-97.419c0,1.416,0.575,2.334,1.401,2.334c0.825,0,1.4-0.918,1.4-2.334
							s-0.575-2.334-1.4-2.344C-56.703-99.753-57.278-98.835-57.278-97.419z M-51.489-92.419h-0.733v-8.701h0.733V-92.419z"/>
						<path d="M-45.784-94.616h-3.813v-5.645h3.813V-94.616z M-48.883-95.241h2.385v-4.404h-2.385V-95.241z M-43.279-92.419h-0.733
							v-8.701h0.733V-92.419z"/>
						<path d="M-36.684-94.929l-0.408,0.605c-0.965-0.465-1.8-1.466-2.18-2.666c-0.39,1.273-1.22,2.383-2.162,2.881l-0.436-0.605
							c1.178-0.596,2.208-2.236,2.217-3.74v-1.133h-1.948v-0.635h4.648v0.635h-1.967v1.133
							C-38.919-96.979-37.898-95.485-36.684-94.929z M-35.068-92.438h-0.733v-8.683h0.733V-92.438z"/>
						<path d="M-26.116-96.481h-7.552v-0.605h7.552V-96.481z M-27.063-93.942h-4.954v0.83h5.224v0.557h-5.956v-1.914h4.963v-0.742
							h-4.974v-0.576h5.696L-27.063-93.942L-27.063-93.942z M-27.091-99.06h-4.87v0.762h5.019v0.557h-5.743v-1.846h4.861v-0.713
							h-4.889v-0.557h5.621L-27.091-99.06L-27.091-99.06z"/>
						<path d="M-18.861-94.948l-0.445,0.566c-0.812-0.514-1.387-1.45-1.67-2.559c-0.301,1.195-0.899,2.217-1.726,2.764l-0.464-0.576
							c1.149-0.723,1.817-2.305,1.817-3.887v-0.82h-1.586v-0.635h3.804v0.635h-1.512v0.82
							C-20.643-97.136-20.002-95.642-18.861-94.948z M-17.684-92.888h-0.687v-4.473h-1.393v-0.625h1.393v-2.92h0.687V-92.888z
							 M-16.014-92.438h-0.695v-8.683h0.695V-92.438z"/>
						<path d="M-7.338-96.442h-7.506v-0.625h3.108v-1.681h0.714v1.681h3.684V-96.442z M-8.229-94.04
							c0,0.996-1.123,1.582-2.895,1.582c-1.764,0-2.886-0.586-2.886-1.582c0-1.006,1.123-1.592,2.886-1.592
							C-9.353-95.632-8.229-95.046-8.229-94.04z M-8.294-99.938c0,0.703,0,1.406-0.232,2.305l-0.714-0.088
							c0.223-0.898,0.223-1.533,0.223-2.217v-0.107h-4.936v-0.625h5.659V-99.938z M-13.285-94.04
							c-0.009,0.605,0.844,0.977,2.162,0.977c1.317,0,2.162-0.37,2.171-0.977c-0.009-0.615-0.854-0.996-2.171-1.006
							C-12.441-95.036-13.295-94.655-13.285-94.04z"/>
						<path d="M-89.268-83.866h-2.94v-0.771h2.94V-83.866z"/>
						<path d="M-84.897-87.021h2.403v-1.465h0.724v4.287h-3.841v-4.287h0.714V-87.021L-84.897-87.021z M-82.494-84.823v-1.592
							h-2.403v1.592H-82.494z M-79.137-80.624h-5.539v-2.734h0.715v2.091h4.823L-79.137-80.624L-79.137-80.624z M-79.517-86.483
							h1.243v0.645h-1.243v3.105h-0.724v-6.377h0.724V-86.483z"/>
						<path d="M-71.093-84.423h-2.551v2.246h3.442v0.645h-7.552v-0.645h3.396v-2.246h-2.431v-3.984h5.612v0.625h-4.88v2.734h4.963
							V-84.423z"/>
						<path d="M-65.331-82.987l-0.417,0.576c-0.821-0.469-1.415-1.367-1.717-2.412c-0.297,1.113-0.886,2.08-1.707,2.607
							l-0.436-0.586c1.123-0.684,1.781-2.207,1.791-3.643v-0.431h-1.568v-0.635h1.568v-1.289h0.696v1.289h1.54v0.635h-1.549v0.431
							C-67.131-85.048-66.454-83.622-65.331-82.987z M-64.162-80.888h-0.688v-4.15h-1.299v-0.654h1.299v-3.213h0.688V-80.888z
							 M-62.492-80.438h-0.696v-8.683h0.696V-80.438z"/>
						<path d="M-54.645-85.019h-3.869v-3.535h3.869V-85.019z M-51.647-81.063l-0.25,0.596c-1.243-0.176-2.375-0.791-2.856-1.602
							c-0.502,0.824-1.661,1.426-2.904,1.602l-0.26-0.596c1.419-0.166,2.782-1.006,2.782-1.875h-2.439v-0.596h2.449v-0.851h0.724
							v0.851h2.468v0.596h-2.449C-54.385-82.089-53.067-81.249-51.647-81.063z M-57.799-85.624h2.44v-2.305h-2.44V-85.624z
							 M-52.148-84.13h-0.714v-4.99h0.714V-84.13z"/>
						<path d="M-43.455-84.677l-0.38,0.615c-0.933-0.353-1.651-1.084-2.005-1.982c-0.356,1.001-1.117,1.803-2.097,2.188l-0.38-0.625
							c1.215-0.448,2.097-1.592,2.097-2.842v-0.449h-1.864v-0.635h4.443v0.635h-1.846v0.449
							C-45.487-86.2-44.661-85.106-43.455-84.677z M-41.284-80.624h-5.529v-2.695h0.733v2.052h4.796V-80.624z M-41.517-82.743
							h-0.732v-3.33h-1.698v-0.635h1.698v-2.402h0.732V-82.743z"/>
						<path d="M-35.208-82.929l-0.417,0.605c-0.929-0.475-1.713-1.51-2.078-2.687c-0.38,1.278-1.211,2.401-2.135,2.899l-0.444-0.604
							c1.188-0.604,2.208-2.256,2.217-3.74v-1.133h-1.92v-0.635h4.49v0.635h-1.855v1.133C-37.36-85.058-36.404-83.524-35.208-82.929
							z M-33.761-85.604h1.383v0.654h-1.383v4.512h-0.724v-8.683h0.724V-85.604z"/>
						<path d="M-24.391-83.339h-3.441v2.9h-0.715v-2.9h-3.396v-0.625h7.552V-83.339z M-30.254-87.558h4.155v-1.201h0.733v3.74
							h-5.613v-3.74h0.725V-87.558z M-26.098-85.644v-1.289h-4.156v1.289H-26.098z"/>
						<path d="M-16.208-84.286h-3.405v1.025h2.486v2.705h-5.679v-2.705h2.478v-1.025h-3.396v-0.635h7.516L-16.208-84.286
							L-16.208-84.286z M-16.922-88.202h-1.271v1.826h1.243v0.635h-6.04v-0.635h1.243v-1.826h-1.271v-0.635h6.095v0.635H-16.922z
							 M-22.08-81.181h4.24v-1.475h-4.24V-81.181z M-18.917-86.376v-1.826h-2.106v1.826H-18.917z"/>
						<path d="M-12.729-84.101l-0.306-0.605c1.971-0.586,3.229-1.738,3.386-3.213h-2.959v-0.635h3.739
							C-8.879-86.376-10.354-84.813-12.729-84.101z M-6.29-80.556h-5.354v-3.232h5.354V-80.556z M-10.938-81.181h3.924v-1.992
							h-3.924V-81.181z M-6.29-84.159h-0.733v-2.07h-1.828v-0.645h1.828v-2.236h0.733V-84.159z"/>
						<path d="M-0.02-83.075l-0.445,0.615c-0.908-0.503-1.67-1.527-2.031-2.734c-0.371,1.285-1.15,2.379-2.078,2.9l-0.464-0.615
							c1.206-0.625,2.162-2.295,2.171-3.877v-1.582h0.714v1.582C-2.152-85.253-1.188-83.681-0.02-83.075z M1.466-85.595h1.382v0.664
							H1.466v4.492H0.741v-8.683h0.725V-85.595z"/>
					</g>
				</g>
			</g>
		</g>
	</g>
	<g id="g-root-tx__hsri0q1wblvkd-fill" transform="translate(428, 338)">
		<g>
			<g id="tx__hsri0q1wblvkd-fill_8_">
				<g>
					<g enable-background="new    ">
						<path d="M-142.448-119.899h-3.134v-0.781h3.134V-119.899z"/>
						<path d="M-133.557-118.97l-0.465,0.623c-1.003-0.49-1.849-1.553-2.244-2.778c-0.406,1.3-1.271,2.427-2.273,2.956l-0.476-0.604
							c1.275-0.623,2.333-2.273,2.343-3.836v-1.058h-2.007v-0.643h4.807v0.643h-2.018v1.058
							C-135.891-121.146-134.842-119.553-133.557-118.97z M-131.648-116.409h-0.781v-4.964h-1.928v-0.643h1.928v-3.204h0.781
							V-116.409z"/>
						<path d="M-122.186-119.889h-8.009v-0.644h3.619v-0.918c-1.687-0.084-2.729-0.723-2.729-1.761c0-1.078,1.207-1.739,3.115-1.739
							c1.889,0,3.105,0.662,3.105,1.739c0,1.038-1.054,1.677-2.72,1.761v0.918h3.619L-122.186-119.889L-122.186-119.889z
							 M-123.075-116.616h-6.081v-2.561h0.781v1.908h5.3V-116.616z M-128.503-123.212c-0.011,0.712,0.899,1.127,2.313,1.127
							c1.404,0,2.314-0.415,2.314-1.127c0-0.672-0.91-1.107-2.314-1.107C-127.604-124.319-128.514-123.884-128.503-123.212z"/>
						<path d="M-115.6-119.306l0.061,0.572c-2.008,0.377-4.174,0.387-5.755,0.387l-0.109-0.663
							C-119.782-119.009-117.547-119.019-115.6-119.306z M-116.213-122.51c0,1.228-0.979,2.067-2.363,2.067s-2.383-0.84-2.373-2.067
							c-0.01-1.226,0.989-2.065,2.373-2.065S-116.213-123.735-116.213-122.51z M-120.188-122.51
							c-0.01,0.821,0.672,1.385,1.612,1.385c0.929,0,1.602-0.563,1.602-1.385c0-0.82-0.672-1.384-1.602-1.384
							C-119.516-123.894-120.197-123.33-120.188-122.51z M-114.245-116.409h-0.771v-8.81h0.771V-116.409z"/>
						<path d="M-102.164-120.868h-3.629v0.87h2.601v1.968h-5.221v0.891h5.486v0.613h-6.258v-2.086h5.23v-0.781h-5.25v-0.604h2.64
							v-0.869h-3.609v-0.634h8.01V-120.868z M-103.202-122.243h-5.934v-2.679h5.934V-122.243z M-108.363-122.864h4.39v-1.435h-4.39
							V-122.864z"/>
						<path d="M-96.943-119.009l-0.444,0.583c-0.875-0.476-1.508-1.384-1.829-2.442c-0.315,1.127-0.943,2.106-1.819,2.641
							l-0.464-0.594c1.196-0.691,1.898-2.234,1.908-3.688v-0.436h-1.673v-0.643h1.671v-1.305h0.741v1.305h1.643v0.643h-1.651v0.436
							C-98.861-121.096-98.14-119.651-96.943-119.009z M-95.697-116.883h-0.731v-4.203h-1.385v-0.662h1.385v-3.253h0.731V-116.883z
							 M-93.918-116.429h-0.741v-8.79h0.741V-116.429z"/>
						<path d="M-84.652-120.522h-8.049v-0.612h8.049V-120.522z M-85.661-117.95h-5.279v0.84h5.566v0.563h-6.349v-1.938h5.29v-0.752
							h-5.3v-0.582h6.07L-85.661-117.95L-85.661-117.95z M-85.69-123.132h-5.19v0.771h5.35v0.563h-6.12v-1.869h5.181v-0.722h-5.211
							v-0.563h5.992L-85.69-123.132L-85.69-123.132z"/>
						<path d="M-81.105-120.137l-0.316-0.623c2.166-0.583,3.485-1.755,3.648-3.243h-3.253v-0.643h4.084
							C-76.952-122.431-78.506-120.849-81.105-120.137z M-74.54-116.548h-5.566v-3.273h5.566V-116.548z M-79.335-117.18h4.023
							v-1.997h-4.023V-117.18z M-74.54-123.063h1.324v0.643h-1.324v2.195h-0.771v-4.993h0.771V-123.063z"/>
						<path d="M-67.143-118.95l-0.435,0.613c-1.028-0.47-1.918-1.482-2.323-2.699c-0.416,1.29-1.301,2.413-2.305,2.918l-0.465-0.613
							c1.256-0.604,2.354-2.265,2.362-3.787v-1.147h-2.076v-0.643h4.954v0.643h-2.097v1.147
							C-69.525-121.026-68.438-119.514-67.143-118.95z M-65.422-116.429h-0.78v-8.79h0.78V-116.429z"/>
						<path d="M-142.448-107.762h-3.134v-0.781h3.134V-107.762z"/>
						<path d="M-134.684-112.004h2.254v-1.078h0.771v4.519h-0.771v-1.008h-2.225c-0.41,0.494-1.073,0.791-1.859,0.791
							c-1.324,0-2.283-0.811-2.283-1.998c0-1.176,0.959-1.986,2.283-1.986C-135.741-112.765-135.09-112.479-134.684-112.004z
							 M-138.056-110.778c0,0.802,0.644,1.365,1.542,1.375c0.87-0.01,1.523-0.572,1.523-1.375c0-0.791-0.653-1.354-1.523-1.345
							C-137.413-112.132-138.056-111.569-138.056-110.778z M-131.658-106.012h-4.904v0.979h5.24v0.623h-6.012v-2.195h4.903v-0.891
							h-4.924v-0.623h5.695L-131.658-106.012L-131.658-106.012z M-134.238-110.778c0,0.209-0.035,0.4-0.089,0.584h1.897v-1.188
							h-1.897C-134.273-111.192-134.238-110.989-134.238-110.778z"/>
						<path d="M-126.519-111.183h2.562v-1.346h0.771v4.055h-4.094v-4.055h0.762V-111.183z M-123.958-109.106v-1.465h-2.562v1.465
							H-123.958z M-120.704-105.933c0,1.037-1.088,1.631-2.897,1.642c-1.81-0.011-2.917-0.604-2.917-1.642
							c0-1.028,1.107-1.622,2.917-1.622C-121.792-107.554-120.704-106.961-120.704-105.933z M-125.737-105.933
							c-0.01,0.633,0.811,1.008,2.136,1.008c1.334,0,2.146-0.375,2.146-1.008s-0.812-0.999-2.146-1.01
							C-124.927-106.932-125.747-106.565-125.737-105.933z M-120.783-110.866h1.325v0.662h-1.325v2.413h-0.771v-5.29h0.771V-110.866
							z"/>
						<path d="M-110.905-108.563h-3.629v0.822h2.601v1.897h-5.221v0.86h5.487v0.593h-6.26v-2.007h5.23v-0.762h-5.25v-0.582h2.649
							v-0.822h-3.607v-0.603h8L-110.905-108.563L-110.905-108.563z M-114.534-112.312h2.817v0.613h-2.759
							c0.145,0.875,1.519,1.43,3.134,1.533l-0.236,0.594c-1.469-0.125-2.793-0.58-3.332-1.414c-0.539,0.834-1.864,1.291-3.342,1.414
							l-0.229-0.594c1.607-0.104,2.981-0.658,3.134-1.533h-2.737v-0.613h2.787v-0.819h0.763V-112.312z"/>
						<path d="M-105.813-110.155h-3.204v1.227c1.563,0,2.694-0.055,4.064-0.287l0.079,0.652c-1.414,0.236-2.591,0.287-4.223,0.287
							h-0.682v-2.491h3.204v-1.118h-3.225v-0.643h3.985V-110.155z M-103.223-105.893c0,1.008-1.106,1.581-2.896,1.581
							c-1.819,0-2.917-0.572-2.917-1.581s1.098-1.603,2.917-1.603C-104.329-107.495-103.223-106.901-103.223-105.893z
							 M-108.275-105.893c-0.01,0.612,0.811,0.979,2.156,0.979c1.334,0,2.146-0.366,2.146-0.979c0-0.623-0.811-0.989-2.146-0.989
							C-107.463-106.882-108.284-106.516-108.275-105.893z M-101.967-111.045h-1.334v1.197h1.334v0.663h-1.334v1.434h-0.771v-5.32
							h0.771v1.375h1.334V-111.045z"/>
						<path d="M-96.617-109.334c0,1.869-0.939,3.056-2.244,3.056c-1.315,0-2.244-1.188-2.244-3.056s0.929-3.056,2.244-3.065
							C-97.557-112.39-96.617-111.202-96.617-109.334z M-100.354-109.334c0,1.435,0.613,2.363,1.493,2.363s1.493-0.931,1.493-2.363
							s-0.613-2.362-1.493-2.373C-99.741-111.696-100.354-110.768-100.354-109.334z M-94.185-104.272h-0.781v-8.81h0.781V-104.272z"
							/>
						<path d="M-84.932-108.78l-0.406,0.613c-0.992-0.355-1.76-1.092-2.136-1.997c-0.38,1.013-1.19,1.824-2.233,2.205l-0.405-0.612
							c1.295-0.466,2.234-1.642,2.234-2.877v-0.387h-1.987v-0.633h4.736v0.633h-1.969v0.376
							C-87.098-110.313-86.218-109.226-84.932-108.78z M-82.865-104.291h-0.781v-2.413h-5.132v-0.643h5.913V-104.291z
							 M-82.865-107.812h-0.781v-2.313h-1.76v-0.653h1.76v-2.304h0.781V-107.812z"/>
						<path d="M-73.402-107.812h-8.01v-0.633h8.01V-107.812z M-74.303-111.024c0,1.098-1.216,1.75-3.104,1.75
							c-1.908,0-3.114-0.652-3.114-1.75c0-1.099,1.206-1.75,3.114-1.74C-75.519-112.774-74.303-112.123-74.303-111.024z
							 M-74.293-104.479h-6.08v-2.562h0.78v1.909h5.3V-104.479z M-79.721-111.024c-0.01,0.691,0.899,1.117,2.313,1.117
							c1.404,0,2.313-0.426,2.313-1.117c0-0.692-0.908-1.117-2.313-1.117C-78.821-112.142-79.73-111.717-79.721-111.024z"/>
						<path d="M-130.947-95.653h-0.781v-1.188h-2.333v-0.643h2.333v-1.188h-2.244c-0.579,1.414-1.938,2.438-3.816,2.996
							l-0.326-0.613c2.126-0.633,3.446-1.818,3.609-3.342h-3.164v-0.652h4.005c0,0.346-0.04,0.678-0.109,0.988h2.046v-1.643h0.781
							V-95.653z M-130.897-93.885c0,1.06-1.146,1.69-2.927,1.69c-1.8,0-2.938-0.633-2.938-1.69c0-1.048,1.138-1.681,2.938-1.681
							C-132.045-95.565-130.897-94.933-130.897-93.885z M-136-93.885c0,0.663,0.851,1.06,2.176,1.06c1.305,0,2.146-0.396,2.155-1.06
							c-0.011-0.662-0.852-1.067-2.155-1.058C-135.149-94.952-136-94.547-136-93.885z"/>
						<path d="M-121.454-95.249h-3.668v3.096h-0.763v-3.096h-3.618v-0.652h8.048L-121.454-95.249L-121.454-95.249z M-122.403-98.651
							c0,1.168-1.246,1.908-3.095,1.908c-1.85,0-3.096-0.74-3.096-1.908c0-1.195,1.246-1.938,3.096-1.938
							C-123.649-100.589-122.403-99.847-122.403-98.651z M-127.792-98.651c-0.011,0.781,0.919,1.285,2.294,1.285
							c1.364,0,2.304-0.504,2.304-1.285c0-0.791-0.939-1.306-2.304-1.306C-126.873-99.956-127.803-99.442-127.792-98.651z"/>
						<path d="M-114.987-92.599h-0.742v-4.271h-1.127c-0.084,1.711-0.811,2.778-1.897,2.778c-1.146,0-1.889-1.187-1.889-3.056
							s0.742-3.057,1.889-3.057c1.067,0,1.789,1.033,1.889,2.689h1.137v-3.243h0.742L-114.987-92.599L-114.987-92.599z
							 M-119.911-97.147c-0.011,1.424,0.444,2.322,1.157,2.313c0.712,0.01,1.166-0.89,1.166-2.313c0-1.435-0.454-2.323-1.166-2.323
							C-119.467-99.471-119.922-98.581-119.911-97.147z M-113.218-92.153h-0.751v-8.791h0.751V-92.153z"/>
						<path d="M-104.251-96.644l-0.405,0.613c-0.994-0.355-1.76-1.094-2.136-1.998c-0.382,1.015-1.191,1.824-2.235,2.205
							l-0.405-0.613c1.295-0.465,2.234-1.641,2.234-2.877v-0.385h-1.987v-0.634h4.736v0.634h-1.968v0.375
							C-106.417-98.176-105.537-97.088-104.251-96.644z M-102.186-92.153h-0.781v-2.412h-5.132v-0.645h5.913V-92.153z
							 M-102.186-95.674h-0.781v-2.313h-1.76v-0.652h1.76v-2.305h0.781V-95.674z"/>
						<path d="M-95.471-99.392h-5.239v-0.643h2.233v-0.99h0.771v0.99h2.233L-95.471-99.392L-95.471-99.392z M-95.975-97.444
							c-0.01,0.938-0.851,1.543-2.116,1.543c-1.274,0-2.126-0.604-2.115-1.543c-0.011-0.939,0.841-1.543,2.115-1.543
							C-96.825-98.985-95.984-98.384-95.975-97.444z M-99.465-97.444c-0.011,0.573,0.543,0.948,1.374,0.948
							c0.82,0,1.374-0.375,1.385-0.948c-0.011-0.563-0.563-0.949-1.385-0.939C-98.922-98.394-99.476-98.008-99.465-97.444z
							 M-98.645-94.508h4.016v-0.938h0.771v3.174h-5.557v-3.174h0.771V-94.508L-98.645-94.508z M-94.631-92.896v-1h-4.014v1H-94.631
							z M-93.859-98.69h1.325v0.662h-1.325v2.195h-0.771v-5.111h0.771V-98.69z"/>
					</g>
				</g>
			</g>
		</g>
	</g>
	<g id="g-root-tx__8vvjlm1wbn8co-fill" transform="translate(626, 338)">
		<g>
			<g id="tx__8vvjlm1wbn8co-fill_8_">
				<g>
					<g enable-background="new    ">
						<path d="M-212.443-119.899h-3.135v-0.781h3.135V-119.899z"/>
						<path d="M-207.794-123.093h2.561v-1.482h0.771v4.34h-4.094v-4.34h0.763V-123.093z M-205.233-120.868v-1.611h-2.561v1.611
							H-205.233z M-201.654-116.616h-5.902v-2.769h0.763v2.116h5.141L-201.654-116.616L-201.654-116.616z M-202.06-122.549h1.325
							v0.651h-1.325v3.146h-0.771v-6.457h0.771V-122.549z"/>
						<path d="M-193.091-120.463h-2.719v2.274h3.668v0.651h-8.048v-0.651h3.618v-2.274h-2.591v-4.034h5.981v0.633h-5.2v2.77h5.289
							L-193.091-120.463L-193.091-120.463z"/>
						<path d="M-186.96-119.009l-0.444,0.583c-0.875-0.476-1.508-1.384-1.83-2.442c-0.316,1.127-0.943,2.106-1.818,2.641
							l-0.465-0.594c1.196-0.691,1.898-2.234,1.908-3.688v-0.436h-1.671v-0.643h1.671v-1.305h0.741v1.305h1.642v0.643h-1.651v0.436
							C-188.878-121.096-188.156-119.651-186.96-119.009z M-185.713-116.883h-0.732v-4.203h-1.385v-0.662h1.385v-3.253h0.73v8.118
							H-185.713z M-183.934-116.429h-0.742v-8.79h0.742V-116.429z"/>
						<path d="M-175.672-120.967l0.061,0.593c-0.623,0.119-1.314,0.193-1.997,0.237v2.985h-0.731v-2.945
							c-0.683,0.023-1.324,0.029-1.84,0.029l-0.107-0.662C-179.072-120.729-177.104-120.729-175.672-120.967z M-176.006-123.024
							c-0.011,0.959-0.812,1.621-1.929,1.611c-1.117,0.01-1.929-0.652-1.919-1.611c-0.01-0.969,0.802-1.621,1.919-1.631
							C-176.817-124.646-176.017-123.993-176.006-123.024z M-179.151-123.024c0,0.604,0.505,1.028,1.217,1.028
							s1.227-0.425,1.227-1.028s-0.515-1.039-1.227-1.027C-178.646-124.062-179.151-123.627-179.151-123.024z M-174.365-116.894
							h-0.731v-1.948h-1.671v-0.613h1.671v-5.567h0.731V-116.894z M-172.685-116.429h-0.741v-8.79h0.741V-116.429z"/>
						<path d="M-166.612-121.471c0,1.869-0.938,3.055-2.244,3.055c-1.315,0-2.244-1.187-2.244-3.055s0.929-3.056,2.244-3.065
							C-167.551-124.526-166.612-123.34-166.612-121.471z M-170.35-121.471c0,1.434,0.613,2.362,1.493,2.362
							s1.493-0.929,1.493-2.362c0-1.435-0.613-2.363-1.493-2.373C-169.736-123.835-170.35-122.905-170.35-121.471z M-164.18-116.409
							h-0.78v-8.81h0.78V-116.409z"/>
						<path d="M-157.584-123.637h-1.02v4.252c0.445-0.024,0.88-0.063,1.296-0.108l0.049,0.572c-1.8,0.277-3.876,0.316-5.418,0.316
							l-0.079-0.663l1.188-0.011v-4.359h-0.91v-0.652h4.896L-157.584-123.637L-157.584-123.637z M-159.354-119.346v-4.291h-1.454
							v4.341C-160.333-119.301-159.844-119.315-159.354-119.346z M-155.398-116.429h-0.771v-4.825h-1.722v-0.644h1.722v-3.321h0.771
							V-116.429z"/>
						<path d="M-150.981-120.137l-0.326-0.613c2.102-0.593,3.44-1.76,3.608-3.253h-3.154v-0.643h3.985
							C-146.878-122.44-148.45-120.858-150.981-120.137z M-144.119-116.548h-5.705v-3.273h5.705V-116.548z M-149.073-117.18h4.183
							v-2.017h-4.183V-117.18z M-144.119-120.196h-0.781v-2.096h-1.948v-0.652h1.948v-2.265h0.781V-120.196z"/>
						<path d="M-137.445-119.098l-0.475,0.623c-0.97-0.509-1.779-1.548-2.165-2.769c-0.396,1.299-1.227,2.407-2.216,2.937
							l-0.493-0.623c1.284-0.634,2.304-2.324,2.313-3.925v-1.603h0.762v1.603C-139.719-121.303-138.69-119.712-137.445-119.098z
							 M-135.863-121.649h1.474v0.672h-1.474v4.548h-0.771v-8.79h0.771V-121.649z"/>
						<path d="M-212.443-107.762h-3.135v-0.781h3.135V-107.762z"/>
						<path d="M-205.095-111.43h-2.739v1.69h2.609v0.623h-2.609v1.988c1.306-0.005,2.11-0.04,3.074-0.218l0.069,0.644
							c-1.028,0.197-1.879,0.236-3.322,0.236h-0.563v-5.596h3.479L-205.095-111.43L-205.095-111.43z M-201.396-104.291h-0.752
							v-4.608h-1.206v4.164h-0.751v-8.157h0.751v3.352h1.206v-3.54h0.752V-104.291z"/>
						<path d="M-195.404-110.481c-0.01,1.227-0.979,2.058-2.313,2.066c-1.335-0.01-2.313-0.84-2.304-2.066
							c-0.01-1.226,0.969-2.076,2.304-2.066C-196.383-112.558-195.414-111.707-195.404-110.481z M-199.261-110.481
							c-0.01,0.832,0.653,1.404,1.543,1.414c0.899-0.01,1.553-0.582,1.553-1.414c0-0.83-0.652-1.414-1.553-1.403
							C-198.607-111.896-199.271-111.312-199.261-110.481z M-193.239-105.942c0,1.027-1.107,1.631-2.896,1.631
							c-1.8,0-2.917-0.604-2.917-1.631c0-1.049,1.117-1.643,2.917-1.651C-194.347-107.584-193.239-106.991-193.239-105.942z
							 M-198.271-105.942c-0.01,0.633,0.812,1.008,2.136,1.008c1.335,0,2.146-0.375,2.146-1.008c0-0.644-0.812-1.02-2.146-1.02
							C-197.461-106.961-198.281-106.586-198.271-105.942z M-192.013-111.104h-1.306v1.227h1.306v0.652h-1.306v1.365h-0.771v-5.222
							h0.771v1.335h1.306V-111.104z"/>
						<path d="M-188.838-108.899c0.979-0.029,1.981-0.099,2.896-0.217l0.05,0.573c-1.839,0.296-3.945,0.347-5.526,0.347
							l-0.079-0.652c0.572,0,1.216-0.006,1.889-0.02v-1.75h0.771V-108.899z M-186.574-112.053c-0.01,0.554-0.01,1.345-0.237,2.383
							l-0.771-0.069c0.203-0.93,0.228-1.606,0.228-2.136h-3.6v-0.653h4.38V-112.053z M-184.488-105.913
							c0,1.02-1.107,1.592-2.926,1.592c-1.82,0-2.929-0.572-2.929-1.592c0-0.979,1.107-1.562,2.929-1.562
							C-185.596-107.475-184.488-106.892-184.488-105.913z M-189.561-105.913c-0.01,0.623,0.821,0.979,2.146,0.979
							c1.323,0,2.146-0.356,2.146-0.979c0-0.593-0.821-0.959-2.146-0.959C-188.739-106.872-189.57-106.507-189.561-105.913z
							 M-184.557-110.669h1.285v0.652h-1.285v2.433h-0.791v-5.498h0.791V-110.669z"/>
						<path d="M-175.809-109.315l-0.416,0.584c-0.835-0.342-1.408-0.994-1.7-1.771c-0.315,0.87-0.943,1.638-1.8,2.037l-0.435-0.593
							c1.146-0.514,1.839-1.682,1.839-2.729v-0.92h0.751v0.959C-177.569-110.768-176.906-109.759-175.809-109.315z
							 M-172.704-105.942h-5.043v0.918h5.397v0.633h-6.17v-2.146h5.053v-0.83h-5.071v-0.623h5.834V-105.942z M-174.435-108.444
							h-0.751v-2.323h-1.365v-0.644h1.365v-1.492h0.751V-108.444z M-172.704-108.375h-0.741v-4.696h0.741V-108.375z"/>
						<path d="M-161.602-108.583h-0.781v-0.919h-2.344v-0.612h2.344v-1.059h-2.215c-0.554,1.389-1.918,2.324-3.865,2.789
							l-0.277-0.643c2.156-0.5,3.411-1.554,3.56-2.967h-3.113v-0.644h3.965c0,0.292-0.029,0.573-0.079,0.841h2.027v-1.286h0.78
							L-161.602-108.583L-161.602-108.583z M-161.602-106.042h-4.904v1.028h5.2v0.643h-5.972v-2.265h4.895v-0.919h-4.914v-0.634
							h5.695V-106.042z"/>
						<path d="M-154.888-111.5h-5.239v-0.643h2.233v-1.009h0.771v1.009h2.233L-154.888-111.5L-154.888-111.5z M-155.392-109.502
							c-0.011,0.959-0.851,1.572-2.116,1.572c-1.274,0-2.126-0.613-2.115-1.572c-0.011-0.938,0.841-1.563,2.115-1.563
							C-156.242-111.065-155.402-110.442-155.392-109.502z M-158.883-109.502c-0.01,0.603,0.545,0.97,1.375,0.979
							c0.82-0.01,1.374-0.375,1.385-0.979c-0.011-0.573-0.563-0.959-1.385-0.959C-158.338-110.462-158.893-110.075-158.883-109.502z
							 M-153.276-104.409h-5.547v-2.867h5.547V-104.409z M-158.062-105.043h4.015v-1.61h-4.015V-105.043z M-153.276-110.737h1.325
							v0.662h-1.325v2.295h-0.771v-5.301h0.771V-110.737z"/>
						<path d="M-148.443-107.999l-0.326-0.613c2.102-0.593,3.44-1.76,3.608-3.252h-3.153v-0.644h3.984
							C-144.34-110.303-145.912-108.721-148.443-107.999z M-141.581-104.409h-5.706v-3.272h5.706V-104.409z M-146.535-105.043h4.183
							v-2.017h-4.183V-105.043z M-141.581-108.059h-0.781v-2.097h-1.948v-0.652h1.948v-2.264h0.781V-108.059z"/>
						<path d="M-134.906-106.961l-0.475,0.623c-0.971-0.509-1.78-1.548-2.166-2.769c-0.396,1.3-1.227,2.406-2.216,2.937
							l-0.493-0.623c1.284-0.633,2.304-2.323,2.313-3.925v-1.602h0.762v1.602C-137.181-109.166-136.152-107.573-134.906-106.961z
							 M-133.324-109.512h1.473v0.672h-1.473v4.549h-0.771v-8.791h0.771V-109.512z"/>
						<path d="M-212.443-95.625h-3.135v-0.78h3.135V-95.625z"/>
						<path d="M-203.592-96.792l-0.396,0.613c-1.019-0.37-1.824-1.133-2.215-2.105c-0.392,1.043-1.206,1.863-2.234,2.264
							l-0.405-0.612c1.314-0.483,2.234-1.71,2.234-3.035v-0.84h0.791v0.84C-205.826-98.384-204.896-97.246-203.592-96.792z
							 M-201.674-92.153h-0.771v-2.412h-5.141v-0.645h5.911V-92.153z M-201.674-95.646h-0.771v-5.299h0.771V-95.646z"/>
						<path d="M-192.181-96.05h-3.629v1.038h2.649v2.739h-6.051v-2.739h2.64v-1.038h-3.618v-0.643h8.009V-96.05z M-192.942-100.015
							h-1.354v1.849h1.325v0.644h-6.438v-0.644h1.325v-1.849h-1.354v-0.643h6.496V-100.015z M-198.439-92.905h4.52v-1.492h-4.52
							V-92.905z M-195.068-98.166v-1.849h-2.244v1.849H-195.068z"/>
						<path d="M-184.096-97.196c0,1.869-0.938,3.056-2.244,3.056c-1.314,0-2.243-1.187-2.243-3.056s0.929-3.056,2.243-3.064
							C-185.035-100.252-184.096-99.065-184.096-97.196z M-187.833-97.196c0,1.435,0.612,2.362,1.492,2.362
							c0.881,0,1.493-0.929,1.493-2.362c0-1.435-0.612-2.362-1.493-2.373C-187.22-99.56-187.833-98.631-187.833-97.196z
							 M-181.663-92.135h-0.781v-8.81h0.781V-92.135z"/>
						<path d="M-172.16-96.594h-3.629v0.87h2.601v1.968h-5.221v0.89h5.487v0.613h-6.26v-2.086h5.23v-0.781h-5.25v-0.604h2.64v-0.87
							h-3.608v-0.633h8.01V-96.594z M-173.198-97.968h-5.933v-2.68h5.933V-97.968z M-178.36-98.591h4.391v-1.434h-4.391V-98.591z"/>
						<path d="M-165.999-97.157l-0.387,0.604c-1.038-0.327-1.862-1.022-2.254-1.929c-0.381,0.988-1.222,1.76-2.294,2.115
							l-0.366-0.613c1.315-0.435,2.256-1.512,2.256-2.719v-0.1h-2.058v-0.643h4.864v0.643h-2.027v0.1
							C-168.264-98.552-167.324-97.553-165.999-97.157z M-164.17-93.854h-4.935v0.979h5.25v0.623h-6.012v-2.186h4.924v-0.899h-4.942
							v-0.612h5.716L-164.17-93.854L-164.17-93.854z M-164.18-96.376h-0.762v-4.568h0.762V-96.376z"/>
						<path d="M-154.967-96.437l-0.436,0.604c-0.964-0.386-1.729-1.151-2.105-2.106c-0.376,1.063-1.177,1.908-2.215,2.324
							l-0.415-0.634c1.314-0.483,2.226-1.71,2.234-3.063v-1.088h0.761v1.117C-157.143-98.058-156.252-96.901-154.967-96.437z
							 M-152.663-92.342h-5.884v-2.759h0.781v2.104h5.103V-92.342z M-152.86-94.35h-0.781v-3.866h-1.958v-0.652h1.958v-2.065h0.781
							V-94.35z"/>
						<path d="M-144.129-96.347h-0.771v-1.127h-2.076v0.771h-3.984v-3.828h0.771v1.267h2.452v-1.267h0.762v0.852h2.076v-1.266h0.771
							V-96.347z M-147.738-97.335v-1.314h-2.452v1.314H-147.738z M-144.129-93.854h-4.904v0.959h5.24v0.623h-6.012v-2.176h4.904
							V-95.3h-4.924v-0.622h5.695V-93.854z M-144.9-98.087v-0.988h-2.076v0.988H-144.9z"/>
					</g>
				</g>
			</g>
		</g>
	</g>
	<g id="g-root-tx__1lymq621wbn7yb-fill" transform="translate(818, 338)">
		<g>
			<g id="tx__1lymq621wbn7yb-fill_8_">
				<g>
					<g enable-background="new    ">
						<path d="M-272.729-117.876h-3.135v-0.781h3.135V-117.876z"/>
						<path d="M-263.838-116.946l-0.465,0.623c-1.004-0.49-1.85-1.553-2.244-2.779c-0.405,1.3-1.271,2.428-2.273,2.957l-0.475-0.604
							c1.274-0.623,2.332-2.273,2.343-3.836v-1.058h-2.007v-0.644h4.805v0.644h-2.018v1.058
							C-266.172-119.122-265.123-117.53-263.838-116.946z M-261.929-114.386h-0.78v-4.964h-1.93v-0.644h1.93v-3.203h0.78V-114.386z"
							/>
						<path d="M-252.427-115.532h-8.048v-0.654h3.628v-2.135h0.781v2.135h3.639V-115.532z M-252.813-118.667l-0.315,0.613
							c-1.346-0.262-2.765-1.117-3.322-2.344c-0.568,1.231-1.982,2.106-3.302,2.384l-0.327-0.623
							c1.482-0.257,3.214-1.483,3.214-2.888v-0.217h-2.946v-0.652h6.693v0.652h-2.946v0.217
							C-256.065-120.121-254.325-118.915-252.813-118.667z"/>
						<path d="M-244.635-118.44h-2.719v2.274h3.668v0.652h-8.049v-0.652h3.619v-2.274h-2.59v-4.033h5.98v0.633h-5.201v2.77h5.29
							L-244.635-118.44L-244.635-118.44z"/>
						<path d="M-238.111-118.005v-0.672c-1.023-0.094-1.681-0.583-1.681-1.325c0-0.851,0.819-1.354,2.057-1.354
							c1.246,0,2.057,0.505,2.066,1.354c-0.011,0.736-0.652,1.226-1.672,1.325v0.633c0.825-0.04,1.656-0.119,2.423-0.236
							l0.068,0.554c-1.888,0.355-4.014,0.386-5.557,0.396l-0.089-0.633C-239.797-117.965-238.972-117.97-238.111-118.005z
							 M-235.185-121.741h-5.092v-0.584h2.165v-0.89h0.771v0.89h2.155L-235.185-121.741L-235.185-121.741z M-233.276-114.594h-5.902
							v-2.185h0.78v1.532h5.122V-114.594z M-239.051-120.002c0,0.484,0.506,0.791,1.315,0.791s1.325-0.307,1.325-0.791
							c0-0.495-0.516-0.801-1.325-0.801S-239.051-120.497-239.051-120.002z M-233.593-120.11h1.315v0.652h-1.315v3.145h-0.78v-6.883
							h0.78V-120.11z"/>
						<path d="M-224.425-117.905h-0.78v-1.188h-2.334v-0.643h2.334v-1.188h-2.245c-0.578,1.414-1.938,2.438-3.816,2.996
							l-0.326-0.613c2.126-0.633,3.446-1.818,3.609-3.342h-3.164v-0.652h4.004c0,0.346-0.039,0.678-0.107,0.989h2.047v-1.642h0.78
							L-224.425-117.905L-224.425-117.905z M-224.376-116.136c0,1.059-1.146,1.689-2.928,1.689c-1.799,0-2.937-0.633-2.937-1.689
							c0-1.048,1.138-1.682,2.937-1.682C-225.522-117.817-224.376-117.184-224.376-116.136z M-229.478-116.136
							c0,0.662,0.852,1.059,2.175,1.059c1.307,0,2.146-0.396,2.156-1.059c-0.011-0.663-0.851-1.068-2.156-1.059
							C-228.627-117.204-229.478-116.799-229.478-116.136z"/>
						<path d="M-217.207-114.851h-0.741v-4.271h-1.127c-0.084,1.71-0.813,2.778-1.898,2.778c-1.146,0-1.889-1.187-1.889-3.056
							c0-1.867,0.741-3.055,1.889-3.055c1.067,0,1.789,1.033,1.89,2.689h1.137v-3.243h0.741L-217.207-114.851L-217.207-114.851z
							 M-222.131-119.399c-0.01,1.425,0.445,2.324,1.157,2.314c0.712,0.01,1.167-0.89,1.167-2.314c0-1.434-0.455-2.323-1.167-2.323
							S-222.141-120.833-222.131-119.399z M-215.437-114.405h-0.752v-8.791h0.752V-114.405z"/>
						<path d="M-208.841-117.056l-0.465,0.633c-0.999-0.514-1.823-1.566-2.215-2.818c-0.391,1.315-1.217,2.442-2.215,2.977
							l-0.505-0.623c1.286-0.633,2.313-2.323,2.313-3.945v-1.602h0.791v1.602C-211.135-119.241-210.117-117.639-208.841-117.056z
							 M-206.942-114.386h-0.771v-5.171h-2.088v-0.634h2.088v-3.006h0.771V-114.386z"/>
						<path d="M-260.506-103.515h-8.01v-0.643h3.146v-3.145h0.762v3.145h4.104v0.643H-260.506z M-261.465-109.289
							c-0.01,1.078-0.01,2.284-0.325,4.054l-0.791-0.088c0.336-1.682,0.336-2.918,0.336-3.966v-0.237h-5.419v-0.643h6.199V-109.289z
							"/>
						<path d="M-255.384-108.903h-4.409v-0.633h1.828v-1.255h0.771v1.255h1.81V-108.903z M-255.681-106.313
							c-0.01,1.178-0.801,2.018-1.907,2.018c-1.099,0-1.89-0.84-1.89-2.018c0-1.166,0.791-1.996,1.89-1.996
							C-256.481-108.31-255.69-107.479-255.681-106.313z M-258.785-106.313c0,0.781,0.504,1.346,1.195,1.336
							c0.702,0.01,1.217-0.555,1.217-1.336c0-0.771-0.515-1.334-1.217-1.344C-258.281-107.647-258.785-107.084-258.785-106.313z
							 M-252.289-102.269h-0.741v-4.439h-1.167v4.006h-0.731v-8.139h0.731v3.49h1.167v-3.708h0.741V-102.269z"/>
						<path d="M-245.911-106.905l-0.425,0.612c-0.975-0.354-1.74-1.083-2.127-1.997c-0.375,1.033-1.156,1.85-2.186,2.245
							l-0.415-0.623c1.315-0.495,2.195-1.671,2.205-3.026v-0.908h0.762v0.969C-248.096-108.438-247.187-107.341-245.911-106.905z
							 M-244.082-103.89c0,1.027-1.087,1.602-2.896,1.602c-1.809,0-2.917-0.572-2.917-1.602c0-1.01,1.107-1.592,2.917-1.592
							C-245.168-105.481-244.082-104.899-244.082-103.89z M-249.114-103.89c-0.01,0.623,0.811,0.979,2.136,0.988
							c1.335-0.011,2.146-0.365,2.146-0.988c0-0.604-0.812-0.969-2.146-0.969C-248.304-104.858-249.124-104.493-249.114-103.89z
							 M-244.161-108.765h1.325v0.652h-1.325v2.402h-0.771v-5.349h0.771V-108.765z"/>
						<path d="M-235.192-106.303h-2.719v2.274h3.668v0.651h-8.048v-0.651h3.617v-2.274h-2.591v-4.034h5.982v0.633h-5.201v2.77h5.29
							L-235.192-106.303L-235.192-106.303z"/>
						<path d="M-227.867-107.015c0.811-0.04,1.627-0.104,2.383-0.208l0.05,0.544c-1.857,0.316-3.936,0.336-5.487,0.326l-0.1-0.604
							c0.707,0,1.533-0.005,2.395-0.029v-0.979h0.761L-227.867-107.015L-227.867-107.015z M-225.909-109.714h-1.958
							c0.015,0.723,0.959,1.305,2.166,1.493l-0.277,0.573c-1.053-0.178-1.884-0.639-2.254-1.285
							c-0.376,0.682-1.212,1.177-2.273,1.374l-0.277-0.563c1.207-0.208,2.141-0.831,2.156-1.592h-1.948v-0.583h1.948v-0.781h0.761
							v0.781h1.958L-225.909-109.714L-225.909-109.714z M-224.149-103.78h-4.934v0.819h5.271v0.595h-6.042v-1.979h4.936v-0.742
							h-4.954v-0.583h5.725L-224.149-103.78L-224.149-103.78z M-224.149-108.933h1.315v0.643h-1.315v2.234h-0.781v-5.003h0.781
							V-108.933z"/>
						<path d="M-218.067-109.782h2.304v-1.275h0.781v5.211h-0.781v-1.256h-2.294c-0.415,0.47-1.048,0.746-1.79,0.742
							c-1.313,0.01-2.283-0.852-2.283-2.078c0-1.235,0.97-2.096,2.283-2.086C-219.105-110.53-218.473-110.253-218.067-109.782z
							 M-221.39-108.438c0,0.82,0.644,1.414,1.542,1.414c0.87,0,1.522-0.594,1.522-1.414c0-0.832-0.652-1.424-1.522-1.414
							C-220.747-109.862-221.39-109.269-221.39-108.438z M-214.953-103.969c0,1.067-1.127,1.681-2.946,1.681
							c-1.829,0-2.946-0.613-2.946-1.681c0-1.06,1.117-1.671,2.946-1.671C-216.08-105.64-214.953-105.028-214.953-103.969z
							 M-220.085-103.969c0,0.662,0.841,1.058,2.186,1.058c1.354,0,2.185-0.396,2.185-1.058c0-0.663-0.829-1.068-2.185-1.068
							C-219.244-105.037-220.085-104.632-220.085-103.969z M-217.573-108.438c0,0.246-0.045,0.479-0.119,0.691h1.929v-1.404h-1.929
							C-217.618-108.933-217.573-108.694-217.573-108.438z"/>
						<path d="M-208.713-107.312c0,1.869-0.938,3.056-2.244,3.056c-1.315,0-2.244-1.187-2.244-3.056
							c0-1.867,0.929-3.055,2.244-3.064C-209.652-110.366-208.713-109.18-208.713-107.312z M-212.451-107.312
							c0,1.435,0.613,2.363,1.493,2.363s1.492-0.929,1.492-2.363c0-1.434-0.612-2.362-1.492-2.372
							C-211.838-109.674-212.451-108.745-212.451-107.312z M-206.281-102.249h-0.781v-8.81h0.781V-102.249z"/>
						<path d="M-201.756-103.94l-0.436-0.612c2.274-1.132,3.511-2.823,3.688-4.904h-3.283v-0.651h4.063
							C-197.721-107.618-198.888-105.354-201.756-103.94z M-195.447-107.479h1.424v0.652h-1.424v4.559h-0.771v-8.79h0.771V-107.479z
							"/>
						<path d="M-185.489-106.282h-8.02v-0.644h8.02V-106.282z M-186.479-103.899c-0.01,1.018-1.137,1.592-3.024,1.592
							c-1.898,0-3.035-0.574-3.035-1.592c0-1.02,1.137-1.592,3.035-1.592C-187.615-105.491-186.488-104.919-186.479-103.899z
							 M-186.409-107.954h-6.002v-2.927h0.771v2.284h5.23L-186.409-107.954L-186.409-107.954z M-191.748-103.899
							c-0.011,0.611,0.83,0.987,2.244,0.987c1.395,0,2.243-0.376,2.243-0.987c0-0.623-0.85-0.971-2.243-0.979
							C-190.918-104.868-191.758-104.522-191.748-103.899z"/>
					</g>
				</g>
			</g>
		</g>
	</g>
	<g id="g-root-cp_1_g-1_m97h8a1wbke83-stroke" transform="translate(38, 254)">
		<g id="cp_1_g-1_m97h8a1wbke83-stroke">
			<g>
				<path fill="none" stroke="#FFF3D0" stroke-width="2" stroke-miterlimit="10" d="M-26.591-69.155v-8.091
					c0-4.47,3.627-8.091,8.091-8.091h32.366l16.183-16.184l16.183,16.184h32.365c4.471,0,8.092,3.621,8.092,8.091v8.091
					 M86.688-69.155V8.941 M-26.591,8.941v-78.097 M86.688,8.941v8.092c0,4.47-3.621,8.092-8.092,8.092H-18.5
					c-4.47,0-8.091-3.622-8.091-8.092V8.941"/>
			</g>
		</g>
	</g>
	<g id="g-root-cp_2_g-2_ddkgze1wbkf0t-stroke" transform="translate(230, 254)">
		<g id="cp_2_g-2_ddkgze1wbkf0t-stroke">
			<g>
				<path fill="none" stroke="#FFF3D0" stroke-width="2" stroke-miterlimit="10" d="M-89.131-69.155v-8.091
					c0-4.47,3.629-8.091,8.093-8.091h32.364l16.184-16.184l16.183,16.184h32.366c4.47,0,8.091,3.621,8.091,8.091v8.091
					 M24.149-69.155V8.941 M-89.131,8.941v-78.097 M24.149,8.941v8.092c0,4.47-3.621,8.092-8.091,8.092h-97.096
					c-4.472,0-8.092-3.622-8.092-8.092V8.941"/>
			</g>
		</g>
	</g>
	<g id="g-root-cp_3_g-3_8xqyuy1wbkft3-stroke" transform="translate(422, 254)">
		<g id="cp_3_g-3_8xqyuy1wbkft3-stroke">
			<g>
				<path fill="none" stroke="#FFF3D0" stroke-width="2" stroke-miterlimit="10" d="M-151.668-69.155v-8.091
					c0-4.47,3.627-8.091,8.091-8.091h32.364l16.184-16.184l16.183,16.184h32.365c4.471,0,8.092,3.621,8.092,8.091v8.091
					 M-38.389-69.155V8.941 M-151.668,8.941v-78.097 M-38.389,8.941v8.092c0,4.47-3.621,8.092-8.092,8.092h-97.096
					c-4.471,0-8.091-3.622-8.091-8.092V8.941"/>
			</g>
		</g>
	</g>
	<g id="g-root-cp_4_g-4_8xqyuy1wbkft5-stroke" transform="translate(614, 254)">
		<g id="cp_4_g-4_8xqyuy1wbkft5-stroke">
			<g>
				<path fill="none" stroke="#FFF3D0" stroke-width="2" stroke-miterlimit="10" d="M-214.206-69.155v-8.091
					c0-4.47,3.627-8.091,8.092-8.091h32.365l16.183-16.184l16.183,16.184h32.366c4.471,0,8.091,3.621,8.091,8.091v8.091
					 M-100.927-69.155V8.941 M-214.206,8.941v-78.097 M-100.927,8.941v8.092c0,4.47-3.62,8.092-8.091,8.092h-97.097
					c-4.471,0-8.092-3.622-8.092-8.092V8.941"/>
			</g>
		</g>
	</g>
	<g id="g-root-cp_5_g-5_4hxgqi1wbkglf-stroke" transform="translate(806, 254)">
		<g id="cp_5_g-5_4hxgqi1wbkglf-stroke">
			<g>
				<path fill="none" stroke="#FFF3D0" stroke-width="2" stroke-miterlimit="10" d="M-276.744-69.155v-8.091
					c0-4.47,3.628-8.091,8.091-8.091h32.366l16.183-16.184l16.183,16.184h32.365c4.472,0,8.091,3.621,8.091,8.091v8.091
					 M-163.466-69.155V8.941 M-276.744,8.941v-78.097 M-163.466,8.941v8.092c0,4.47-3.619,8.092-8.091,8.092h-97.097
					c-4.471,0-8.091-3.622-8.091-8.092V8.941"/>
			</g>
		</g>
	</g>
	<g id="g-root-tx_swir_4hxgqi1wbkglh-stroke" transform="translate(386.5, 38)">
	</g>
	<g id="g-root-ic_dayt_1lsdzay1wbkfls-stroke" transform="translate(62, 110)">
		<g id="ic_dayt_1lsdzay1wbkfls-stroke">
			<g>
				<path fill="none" stroke="#E0CB15" stroke-width="2" stroke-linecap="round" stroke-linejoin="round" d="M-29.353,4.384h6.743
					v20.229h-6.743V4.384z M-15.866-12.474h6.743v37.085h-6.743V-12.474z M-2.38-2.36h6.743v26.972H-2.38V-2.36z M11.104-25.96
					h6.743v50.571h-6.743V-25.96z M24.591-12.474h6.743v37.085h-6.743V-12.474z M38.077-39.445h6.743v64.057h-6.743V-39.445z
					 M-29.353-52.931h74.171v6.743h-74.171V-52.931z"/>
			</g>
		</g>
	</g>
	<g id="g-root-ic_shad_13zv0my1wblt6r-stroke" transform="translate(254, 110)">
		<g id="ic_shad_13zv0my1wblt6r-stroke">
			<g>
				<path fill="none" stroke="#E0CB15" stroke-width="2" stroke-linecap="round" stroke-linejoin="round" d="M-82.049-52.931
					c-1.096,0-2.123,0.533-2.756,1.429c-0.631,0.896-0.788,2.043-0.42,3.076l6.021,16.857c0.479,1.342,1.75,2.238,3.176,2.238
					h39.091c1.426,0,2.698-0.896,3.176-2.238l6.021-16.857c0.37-1.036,0.211-2.186-0.424-3.083
					c-0.636-0.897-1.669-1.427-2.769-1.421L-82.049-52.931L-82.049-52.931z M-71.661-29.331h30.342v13.486h-30.342V-29.331z
					 M-68.29,17.868v3.372c0,1.862,1.509,3.371,3.371,3.371h16.856c1.862,0,3.372-1.509,3.372-3.371v-3.372H-68.29z M-71.661-9.103
					V7.754 M-61.547-9.103V7.754 M-51.434-9.103V7.754 M-41.318-9.103V7.754 M-75.033-15.845h37.086c0,0,3.371,0,3.371,3.371v26.971
					c0,0,0,3.372-3.371,3.372h-37.086c0,0-3.371,0-3.371-3.372v-26.971C-78.404-12.474-78.404-15.845-75.033-15.845"/>
			</g>
		</g>
	</g>
	<g id="g-root-ic_temp_ddkgze1wblt6u-stroke" transform="translate(446, 110)">
		<g id="ic_temp_ddkgze1wblt6u-stroke">
			<g>
				<path fill="none" stroke="#E0CB15" stroke-width="2" stroke-linecap="round" stroke-linejoin="round" d="M-104.579-48.086
					c12.768,0,23.116,10.351,23.116,23.118 M-104.579-33.637c4.788,0,8.669,3.881,8.669,8.669 M-121.918,1.099v-40.458
					c0.016-2.31-0.892-4.529-2.52-6.167c-1.627-1.639-3.841-2.56-6.15-2.56l0,0c-4.788,0-8.67,3.881-8.67,8.669V1.04
					c-4.313,3.309-6.396,8.766-5.382,14.105c1.016,5.342,4.952,9.654,10.18,11.149c6.538,1.556,13.283-1.604,16.277-7.618
					S-116.736,5.376-121.918,1.099z"/>
			</g>
		</g>
	</g>
	<g id="g-root-ic_2_4g21h61wbn94x-stroke" transform="translate(638, 110)">
		<g id="ic_2_4g21h61wbn94x-stroke">
			<g>
				<path fill="none" stroke="#E0CB15" stroke-width="2" stroke-linecap="round" stroke-linejoin="round" d="M-143.639,15.222
					c0,4.655-3.772,8.429-8.428,8.429h-59c-4.654,0-8.429-3.773-8.429-8.429c0-4.654,3.773-8.428,8.429-8.428h59
					C-147.412,6.794-143.639,10.567-143.639,15.222z M-208.538-10.62h15.846c1.862,0,3.372,1.51,3.372,3.371V6.796l0,0h-22.589l0,0
					V-7.249C-211.909-9.11-210.4-10.62-208.538-10.62z M-172.228-10.62h15.847c1.861,0,3.369,1.51,3.369,3.371V6.796l0,0H-175.6l0,0
					V-7.249C-175.6-9.11-174.088-10.62-172.228-10.62z M-208.538,15.222c0,0.932,0.755,1.687,1.686,1.687
					c0.933,0,1.688-0.754,1.688-1.687c0-0.931-0.755-1.686-1.688-1.686C-207.783,13.536-208.538,14.291-208.538,15.222
					 M-191.681,15.222c0,0.932,0.755,1.687,1.687,1.687s1.686-0.754,1.686-1.687c0-0.931-0.754-1.686-1.686-1.686
					S-191.681,14.291-191.681,15.222 M-174.682,15.222c0,0.932,0.754,1.687,1.686,1.687s1.687-0.754,1.687-1.687
					c0-0.931-0.755-1.686-1.687-1.686S-174.682,14.291-174.682,15.222 M-157.825,15.222c0,0.932,0.755,1.687,1.686,1.687
					c0.933,0,1.687-0.754,1.687-1.687c0-0.931-0.754-1.686-1.687-1.686C-157.07,13.536-157.825,14.291-157.825,15.222
					 M-152.235-27.983h-24.669c-3.146,0.001-5.695-2.549-5.695-5.694c0-3.146,2.55-5.696,5.695-5.695h24.669 M-157.922-33.676
					c-0.002,3.145,2.548,5.696,5.693,5.696c3.146,0,5.695-2.551,5.694-5.696c0.001-3.146-2.549-5.696-5.694-5.696
					C-155.375-39.373-157.924-36.822-157.922-33.676 M-155.074-51.97l6.642,14.048 M-158.813-39.371l-5.754-12.599 M-192.092-33.676
					h9.49 M-203.48-39.371h11.389v11.389h-11.389V-39.371z M-197.786-27.983v9.491"/>
			</g>
		</g>
	</g>
	<g id="g-root-ic_came_1d2zpx61wbn8r0-stroke" transform="translate(830, 110)">
		<g id="ic_came_1d2zpx61wbn8r0-stroke">
			<g>
				<path fill="none" stroke="#E0CB15" stroke-width="2" stroke-linecap="round" stroke-linejoin="round" d="M-242.739,21
					c0,1.994-1.617,3.611-3.611,3.611h-32.51c-1.994,0-3.611-1.617-3.611-3.611v-9.028c-0.093-7.158,3.673-13.813,9.858-17.42
					c6.184-3.607,13.832-3.607,20.017,0c6.186,3.606,9.95,10.262,9.857,17.42V21z M-270.188,4.386c0,0.467,0.377,0.844,0.843,0.844
					c0.465,0,0.843-0.377,0.843-0.844c0-0.465-0.378-0.843-0.843-0.843C-269.812,3.543-270.188,3.921-270.188,4.386 M-256.704,4.366
					c0,0.466,0.378,0.843,0.844,0.843s0.843-0.377,0.843-0.843c0-0.465-0.377-0.843-0.843-0.843S-256.704,3.901-256.704,4.366
					 M-262.604-7.896v-7.226 M-268.021-20.538c0,2.992,2.426,5.417,5.417,5.417c2.993,0,5.419-2.426,5.419-5.417
					c0-2.993-2.426-5.418-5.419-5.418C-265.596-25.956-268.021-23.531-268.021-20.538 M-282.472,15.563h39.732 M-248.343-27.335
					l-2.05-8.931c-0.811-3.523,1.39-7.036,4.912-7.845l38.272-8.789c0.7-0.162,1.137,0.28,0.968,0.978l-0.779,3.146
					c-0.234,0.785-0.768,1.449-1.481,1.851L-248.343-27.335z M-214.554-43.946l2.52,10.958c0.321,1.409-0.559,2.813-1.967,3.135
					l-25.516,5.863c-1.324,0.348-2.731,0.147-3.905-0.558c-1.175-0.705-2.015-1.854-2.326-3.187l-0.181-0.786 M-206.908-40.882
					l1.17,5.101 M-231.862-25.751l1.3,5.664c0.272,1.167-0.284,2.369-1.348,2.919l-13.854,7.054"/>
			</g>
		</g>
	</g>
	<g id="g-root-tx__1q87hfe1wbketi-stroke" transform="translate(80, 302)">
	</g>
	<g id="g-root-tx__1hap1x61wblurl-stroke" transform="translate(272, 302)">
	</g>
	<g id="g-root-tx__qoei9m1wbluro-stroke" transform="translate(464, 302)">
	</g>
	<g id="g-root-tx__dbp1q21wbn7kf-stroke" transform="translate(656, 302)">
	</g>
	<g id="g-root-tx__1qdtr7e1wbnabu-stroke" transform="translate(848, 302)">
	</g>
	<g id="g-root-tx_13mingaa_1q87hfe1wbketj-stroke" transform="translate(50, 338)">
	</g>
	<g id="g-root-tx__18f21oa1wblvka-stroke" transform="translate(242, 338)">
	</g>
	<g id="g-root-tx__hsri0q1wblvkd-stroke" transform="translate(428, 338)">
	</g>
	<g id="g-root-tx__8vvjlm1wbn8co-stroke" transform="translate(626, 338)">
	</g>
	<g id="g-root-tx__1lymq621wbn7yb-stroke" transform="translate(818, 338)">
	</g>
</g>
</svg>
