<?xml version="1.0" encoding="UTF-8"?>
<svg id="Layer_1" xmlns="http://www.w3.org/2000/svg" version="1.1" xmlns:xlink="http://www.w3.org/1999/xlink" viewBox="0 0 650 333.5">
  <!-- Generator: Adobe Illustrator 29.3.1, SVG Export Plug-In . SVG Version: 2.1.0 Build 151)  -->
  <defs>
    <style>
      .st0 {
        stroke: #e0cb15;
        stroke-linecap: round;
        stroke-linejoin: round;
      }

      .st0, .st1 {
        fill: none;
        stroke-width: 2px;
      }

      .st2 {
        fill: #b29649;
      }

      .st3 {
        isolation: isolate;
      }

      .st1 {
        stroke: #fff3d0;
        stroke-miterlimit: 10;
      }
    </style>
  </defs>
  <g id="g-root-tx_swir_4hxgqi1wbkglh-fill">
    <g id="tx_swir_4hxgqi1wbkglh-fill">
      <g class="st3">
        <path class="st2" d="M127.4,9h-5.5v4.5c3.2,0,5-.1,7-.5l.3,2c-2.2.5-4.3.6-8.2.6h-1.5V7h8v2ZM133.5,23h-12.2v-6h2.5v4h9.7v2h0ZM132.8,10.4h2.4v2.1h-2.4v6h-2.5V5.5h2.5v4.8h0Z"/>
        <path class="st2" d="M146.1,9.2h-1.6v7.8c.7,0,1.4-.1,2.1-.2v1.8c-3.5.6-7.6.7-10.6.7l-.3-2h2v-8h-1.6v-2h9.9v2h0ZM142.2,17.1v-7.9h-2v8h2ZM150,12.3h2.6v2h-2.6v9h-2.5V5.5h2.5v6.8Z"/>
        <path class="st2" d="M166.4,7.4h4v-1.8h2.5v8.9h-2.5v-1.5h-4c-.8.9-2.1,1.3-3.6,1.3-2.7,0-4.7-1.7-4.7-4.1,0-2.4,2-4.1,4.7-4.1s2.7.5,3.5,1.3ZM160.5,10.1c0,1.3,1,2.1,2.4,2.1s2.3-.8,2.3-2.1-1-2.1-2.3-2.1c-1.4,0-2.4.8-2.4,2.1ZM172.9,20h-9.3v1.2h9.8v2h-12.3v-4.9h9.3v-1.1h-9.4v-1.9h11.8v4.8h0ZM167.6,10.1c0,.3,0,.6,0,.8h2.9v-1.7h-2.9c0,.3,0,.5,0,.8Z"/>
        <path class="st2" d="M179.4,18.3v-1.5c-1.9-.4-3.1-1.6-3.1-3.2,0-2,1.8-3.3,4.4-3.3s4.4,1.3,4.4,3.3c0,1.6-1.3,2.9-3.1,3.2v1.4c1.4,0,2.8-.2,4.1-.4l.2,1.8c-3.8.7-7.9.7-10.9.7l-.3-2c1.3,0,2.8,0,4.4,0ZM185.9,9.5h-10.5v-2h4v-1.9h2.5v1.9h4v2ZM178.6,13.5c0,.9.8,1.4,2,1.4s2-.5,2-1.4-.8-1.4-2-1.4c-1.2,0-2,.5-2,1.4ZM189.4,12.8h2.3v2.1h-2.3v8.5h-2.5V5.5h2.5v7.2Z"/>
        <path class="st2" d="M203,13.4l-1.3,1.9c-1.9-.6-3.2-1.8-4-3.4-.8,1.8-2.1,3.2-4.2,3.9l-1.3-2c3-1,4.2-3.4,4.3-5.8v-1.6h2.5v1.9c0,2.2,1.2,4.2,4.1,5.1ZM206.8,19.9c0,2.2-2.3,3.4-6,3.4s-6.1-1.2-6.1-3.4,2.3-3.4,6.1-3.4,6,1.3,6,3.4ZM197.2,19.9c0,1,1.2,1.5,3.6,1.5s3.5-.5,3.5-1.5-1.2-1.5-3.5-1.5c-2.3,0-3.6.5-3.6,1.5ZM206.6,9.7h2.4v2.1h-2.4v4.3h-2.5V5.5h2.5v4.2Z"/>
        <path class="st2" d="M211,20.6l-1.4-1.9c3-1.5,4.7-3.1,5.7-5.1l-5.3.5-.3-2.1,6.3-.4c.2-.7.3-1.5.4-2.4h-5.8v-2h8.2c0,5.5-1.3,10.1-8,13.4ZM223.8,12.4h2.5v2.1h-2.5v8.9h-2.5V5.5h2.5v6.8Z"/>
        <path class="st2" d="M234.6,12h1.8v-6.2h2.3v16.7h-2.3v-8.5h-1.8v4.8h-7.1V7.4h7.1v4.6ZM229.9,16.9h2.4v-7.5h-2.4v7.5ZM242.5,23.3h-2.4V5.5h2.4v17.8Z"/>
        <path class="st2" d="M253.3,13.9h-5.7v3.2c2.6,0,4.7-.1,7.1-.5l.2,2c-2.7.5-5.2.6-8.3.6h-1.5v-7.3h5.7v-2.9h-5.7v-2h8.2v6.9h0ZM258.4,12.3h2.6v2.1h-2.6v9h-2.5V5.5h2.5v6.7Z"/>
        <path class="st2" d="M270.3,6.8h2.8c-1.3,2-2.8,5.9-2.8,9.4s1.4,7.4,2.8,9.4h-2.8c-1.9-2.6-3-5.7-3-9.4,0-3.7,1.1-6.7,3-9.4Z"/>
        <path class="st2" d="M279.9,9.6c-1.5,0-2.3.7-2.3,1.6,0,1,1.1,1.5,2.3,1.8l1.3.3c2.4.5,4.2,1.8,4.2,4.1s-2,4.2-5.5,4.2-5.6-1.6-5.7-4.6h2.9c0,1.4,1.2,2.1,2.8,2.1s2.5-.7,2.5-1.8-.9-1.4-2.4-1.8l-1.5-.4c-2.4-.6-3.8-1.8-3.8-3.8s2.3-4.3,5.4-4.3,5.2,1.7,5.2,4.2h-2.8c-.1-1.1-1-1.8-2.4-1.8Z"/>
        <path class="st2" d="M286.4,7.4h3.2l2.4,9.9h.1l2.6-9.9h2.8l2.6,9.9h.1l2.4-9.9h3.2l-4,14.1h-2.9l-2.7-9.3h-.1l-2.7,9.3h-2.9l-4-14.1Z"/>
        <path class="st2" d="M310.2,21.5h-2.9V7.4h2.9v14.1Z"/>
        <path class="st2" d="M312.6,7.4h5.5c3.2,0,5.1,1.8,5.1,4.6s-.9,3.3-2.5,4l3,5.5h-3.2l-2.7-5h-2.2v5h-2.9V7.4h0ZM317.6,14.1c1.7,0,2.6-.7,2.6-2.1s-.8-2.2-2.6-2.2h-2.1v4.3h2.1Z"/>
        <path class="st2" d="M326.6,25.6h-2.1l1-5.6h2.8l-1.7,5.6Z"/>
        <path class="st2" d="M340.2,9.6c-1.5,0-2.3.7-2.3,1.6,0,1,1.1,1.5,2.3,1.8l1.3.3c2.4.5,4.2,1.8,4.2,4.1s-2,4.2-5.5,4.2-5.6-1.6-5.7-4.6h2.9c0,1.4,1.2,2.1,2.8,2.1s2.5-.7,2.5-1.8-.9-1.4-2.4-1.8l-1.5-.4c-2.4-.6-3.8-1.8-3.8-3.8s2.3-4.3,5.4-4.3,5.2,1.7,5.2,4.2h-2.8c-.1-1.1-1-1.8-2.4-1.8Z"/>
        <path class="st2" d="M350.4,21.5h-2.9V7.4h2.8v5.4h.1c.5-1.2,1.6-2,3.2-2s3.7,1.5,3.7,4v6.8h-2.9v-6.2c0-1.3-.7-2.1-1.9-2.1s-2.1.8-2.1,2.2v6.1h0Z"/>
        <path class="st2" d="M359,16.2c0-3.3,2-5.5,5.2-5.5s5.2,2.2,5.2,5.5-2,5.5-5.2,5.5-5.2-2.2-5.2-5.5ZM366.5,16.2c0-1.9-.8-3.3-2.2-3.3s-2.3,1.4-2.3,3.3.8,3.2,2.3,3.2c1.5,0,2.2-1.4,2.2-3.2Z"/>
        <path class="st2" d="M371.3,10.9h2.8v1.8h.1c.4-1.3,1.4-2,2.6-2s.7,0,.9,0v2.6c-.3,0-.8-.2-1.2-.2-1.3,0-2.3.9-2.3,2.2v6h-2.9v-10.6Z"/>
        <path class="st2" d="M385.2,13.1h-2v5.2c0,.8.4,1.1,1,1.1.3,0,.8,0,1.2,0v2.3c-.3,0-.8,0-1.5,0-2.1,0-3.5-.9-3.5-3v-5.6h-1.5v-2.2h1.5v-2.5h2.9v2.5h2v2.2h0Z"/>
        <path class="st2" d="M393.2,16.8h-6.4v-2.3h6.4v2.3Z"/>
        <path class="st2" d="M394.4,7.4h3.2l2.4,9.9h.1l2.6-9.9h2.8l2.6,9.9h.1l2.4-9.9h3.2l-4,14.1h-2.9l-2.7-9.3h-.1l-2.7,9.3h-2.9l-4-14.1Z"/>
        <path class="st2" d="M417.5,15.3c.8,0,2.2-.1,2.6-.1v-.9c0-.9-.6-1.4-1.7-1.4s-1.6.4-1.8,1.2h-2.8c.2-1.8,1.8-3.3,4.6-3.3s4.5,1,4.5,3.6v7.1h-2.7v-1.5h0c-.5,1-1.5,1.7-3.1,1.7s-3.5-1.1-3.5-3.2c0-2.4,1.9-3.1,3.9-3.3ZM417.9,19.7c1.3,0,2.2-.9,2.2-2v-.8c-.4,0-1.7,0-2.2.1-1,0-1.6.6-1.6,1.4,0,.8.7,1.2,1.6,1.2Z"/>
        <path class="st2" d="M430.9,21.5h-3.2l-3.7-10.6h3l2.2,7.6h.1l2.2-7.6h3.1l-3.7,10.6Z"/>
        <path class="st2" d="M435.3,16.3c0-3.3,2-5.5,5.1-5.5s5,1.8,5,5.4v.8h-7.2c0,1.6,1,2.6,2.4,2.6s1.7-.4,2-1.1h2.8c-.4,2-2.2,3.2-4.8,3.2-3.2,0-5.2-2.1-5.2-5.5ZM442.6,15.1c0-1.3-.9-2.2-2.2-2.2s-2.3,1-2.3,2.2h4.5Z"/>
        <path class="st2" d="M454.8,21.5h-2.9V7.4h2.9v14.1Z"/>
        <path class="st2" d="M460,21.5h-2.9v-10.6h2.8v1.9h.1c.5-1.2,1.6-2,3.2-2s3.7,1.5,3.7,4v6.8h-2.9v-6.2c0-1.3-.7-2.1-1.9-2.1s-2,.8-2,2.2c0,0,0,6.1,0,6.1Z"/>
        <path class="st2" d="M474.7,13.1h-2.1v8.4h-2.9v-8.4h-1.5v-2.2h1.5v-.8c0-2.2,1.3-3.4,3.5-3.4s1.2,0,1.7.2v2.2c-.4,0-.7,0-.9,0-.9,0-1.4.4-1.4,1.2v.6h2.1v2.2h0Z"/>
        <path class="st2" d="M476.4,10.9h2.8v1.8h.1c.4-1.3,1.4-2,2.6-2s.7,0,.9,0v2.6c-.3,0-.8-.2-1.2-.2-1.3,0-2.3.9-2.3,2.2v6h-2.9v-10.6Z"/>
        <path class="st2" d="M487.4,15.3c.8,0,2.2-.1,2.6-.1v-.9c0-.9-.6-1.4-1.7-1.4s-1.6.4-1.8,1.2h-2.8c.2-1.8,1.8-3.3,4.6-3.3s4.5,1,4.5,3.6v7.1h-2.7v-1.5h0c-.5,1-1.5,1.7-3.1,1.7s-3.5-1.1-3.5-3.2c0-2.4,1.9-3.1,3.9-3.3ZM487.8,19.7c1.3,0,2.2-.9,2.2-2v-.8c-.4,0-1.7,0-2.2.1-1,0-1.6.6-1.6,1.4s.7,1.2,1.6,1.2Z"/>
        <path class="st2" d="M495.1,10.9h2.8v1.8h.1c.4-1.3,1.4-2,2.6-2s.7,0,.9,0v2.6c-.3,0-.8-.2-1.2-.2-1.3,0-2.3.9-2.3,2.2v6h-2.9s0-10.6,0-10.6Z"/>
        <path class="st2" d="M502.1,16.3c0-3.3,2-5.5,5.1-5.5s5,1.8,5,5.4v.8h-7.2c0,1.6,1,2.6,2.4,2.6s1.7-.4,2-1.1h2.8c-.4,2-2.2,3.2-4.8,3.2-3.2,0-5.2-2.1-5.2-5.5ZM509.5,15.1c0-1.3-.9-2.2-2.2-2.2s-2.3,1-2.3,2.2h4.5Z"/>
        <path class="st2" d="M513.6,16.2c0-3.6,2-5.4,4.3-5.4s2.6,1.1,3,1.9h0v-5.3h2.9v14.1h-2.9v-1.7h-.1c-.4.9-1.3,1.9-3,1.9-2.4,0-4.3-1.9-4.3-5.5ZM521.1,16.2c0-1.9-.8-3.1-2.3-3.1s-2.2,1.3-2.2,3.1.8,3.2,2.2,3.2c1.4,0,2.3-1.3,2.3-3.2Z"/>
        <path class="st2" d="M528.3,25.5h-2.8c1.3-2,2.8-5.9,2.8-9.4s-1.4-7.4-2.8-9.4h2.8c1.9,2.6,3,5.7,3,9.4s-1.1,6.7-3,9.4Z"/>
      </g>
    </g>
  </g>
  <g id="g-root-tx__1q87hfe1wbketi-fill">
    <g id="tx__1q87hfe1wbketi-fill">
      <g class="st3">
        <path class="st2" d="M47.4,221h-1.3v6.6c.6,0,1.2-.1,1.8-.2v1.5c-3,.5-6.4.6-9,.6l-.2-1.7h1.7v-6.8h-1.3v-1.7h8.4v1.7h0ZM44,227.7v-6.7h-1.7v6.8h1.7ZM50.7,223.6h2.2v1.7h-2.2v7.6h-2.1v-15.1h2.1v5.7Z"/>
        <path class="st2" d="M62,220.6h-3c0,1.8,1.1,3.5,3.5,4.2l-1,1.7c-1.7-.5-2.8-1.5-3.5-2.8-.7,1.5-1.9,2.7-3.7,3.3l-1.1-1.7c2.5-.8,3.6-2.7,3.7-4.7h-3.1v-1.7h8.2v1.7h0ZM65.6,230c0,1.8-2,2.9-5.1,2.9s-5.2-1.1-5.2-2.9,2-2.9,5.2-2.9c3.1,0,5.1,1.1,5.1,2.9ZM57.4,230c0,.9,1.1,1.3,3.1,1.3s3-.4,3-1.3-1-1.3-3-1.3-3.1.4-3.1,1.3ZM65.4,221.4h2v1.7h-2v3.7h-2.1v-9h2.1v3.5Z"/>
        <path class="st2" d="M72.7,226.6l-.8-1.7c3.4-.8,5.3-2.5,5.6-4.5h-4.9v-1.7h7.2c0,4-2.5,6.7-7.1,7.9ZM84,232.8h-9.9v-5.9h9.9v5.9ZM76.3,231.1h5.7v-2.5h-5.7v2.5ZM84,221.2h2v1.7h-2v3.4h-2.1v-8.4h2.1v3.3Z"/>
        <path class="st2" d="M96.4,228.1l-1.1,1.7c-1.8-.8-3-2.3-3.7-4.1-.7,2-1.9,3.7-3.7,4.5l-1.2-1.7c2.5-1.1,3.8-3.9,3.8-6.5v-.9h-3.2v-1.7h8.5v1.7h-3.2v.9c0,2.4,1.2,5.1,3.8,6.1ZM99.4,233h-2.1v-15.1h2.1v15.1Z"/>
      </g>
    </g>
  </g>
  <g id="g-root-tx__1hap1x61wblurl-fill">
    <g id="tx__1hap1x61wblurl-fill">
      <g class="st3">
        <path class="st2" d="M180.3,227.9h-5.9v5.1h-2.1v-5.1h-5.8v-1.7h13.8v1.7h0ZM179.1,220.3h-4.4c.2,1.5,1.9,3,5,3.3l-.8,1.7c-2.7-.4-4.6-1.5-5.5-3.1-.9,1.6-2.8,2.7-5.4,3.1l-.8-1.7c3.1-.4,4.7-1.9,5-3.3h-4.4v-1.7h11.3s0,1.7,0,1.7Z"/>
        <path class="st2" d="M195.1,231.2h-13.8v-1.7h3.1v-3.7c-1.2-.7-1.9-1.8-1.9-3.1,0-2.4,2.4-4.1,5.7-4.1s5.7,1.6,5.7,4.1c0,1.3-.7,2.4-1.8,3.1v3.7h3.1v1.7ZM184.5,222.7c0,1.5,1.4,2.4,3.6,2.4s3.6-.9,3.6-2.4c0-1.5-1.5-2.4-3.6-2.4-2.2,0-3.6.9-3.6,2.4ZM189.8,229.5v-2.9c-.5.1-1.1.2-1.7.2s-1.2,0-1.7-.2v2.9h3.4Z"/>
        <path class="st2" d="M213.6,227.4h-13.8v-1.7h13.8v1.7ZM211.9,233h-2.1v-2.9h-8.4v-1.7h10.6s0,4.6,0,4.6ZM212.1,224.8h-10.6v-6.6h10.5v1.6h-8.4v.8h8v1.6h-8v.9h8.5v1.6h0Z"/>
        <path class="st2" d="M223.5,220.6h-3c0,1.7,1.2,3.4,3.6,4.1l-1.1,1.7c-1.7-.5-2.9-1.6-3.6-2.9-.7,1.5-1.9,2.7-3.7,3.3l-1.1-1.7c2.4-.8,3.6-2.6,3.7-4.5h-3.1v-1.7h8.3v1.7h0ZM227.2,230.1c0,1.9-2,2.9-5.2,2.9-3.2,0-5.2-1-5.2-2.9s2-2.9,5.2-2.9,5.2,1.1,5.2,2.9ZM219,230.1c0,.9,1.1,1.3,3.1,1.3,2,0,3.1-.4,3.1-1.3s-1.1-1.3-3.1-1.3c-2,0-3.1.4-3.1,1.3ZM227.2,226.8h-2.1v-9h2.1v9Z"/>
      </g>
    </g>
  </g>
  <g id="g-root-tx__qoei9m1wbluro-fill">
    <g id="tx__qoei9m1wbluro-fill">
      <g class="st3">
        <path class="st2" d="M314.4,227.3h-13.8v-1.7h5.8v-1.2c-2.7-.2-4.4-1.4-4.4-3.1s2.2-3.1,5.5-3.1,5.5,1.2,5.5,3.1c0,1.8-1.7,2.9-4.4,3.1v1.2h5.8v1.7h0ZM312.9,232.7h-10.6v-4.4h2.1v2.7h8.4v1.7ZM304.2,221.3c0,1,1.2,1.4,3.3,1.4s3.3-.5,3.3-1.4-1.2-1.4-3.3-1.4-3.3.5-3.3,1.4Z"/>
        <path class="st2" d="M327.7,226.3h-4.4v3.2h5.9v1.7h-13.8v-1.7h5.8v-3.2h-4.2v-7.4h10.6v1.7h-8.4v4h8.6v1.7Z"/>
        <path class="st2" d="M334.6,226.6l-.8-1.7c3.4-.8,5.3-2.5,5.6-4.5h-4.9v-1.7h7.2c0,4-2.5,6.7-7.1,7.9ZM345.9,232.8h-9.9v-5.9h9.9v5.9ZM338.2,231.1h5.7v-2.5h-5.7v2.5ZM345.9,221.2h2v1.7h-2v3.4h-2.1v-8.4h2.1v3.3Z"/>
        <path class="st2" d="M358.3,228.1l-1.1,1.7c-1.8-.8-3-2.3-3.7-4.1-.7,2-1.9,3.7-3.7,4.5l-1.2-1.7c2.5-1.1,3.8-3.9,3.8-6.5v-.9h-3.2v-1.7h8.5v1.7h-3.2v.9c0,2.4,1.2,5.1,3.8,6.1ZM361.3,233h-2.1v-15.1h2.1v15.1Z"/>
      </g>
    </g>
  </g>
  <g id="g-root-tx__dbp1q21wbn7kf-fill">
    <g id="tx__dbp1q21wbn7kf-fill">
      <g class="st3">
        <path class="st2" d="M438.9,227.9h-5.9v5.1h-2.1v-5.1h-5.8v-1.7h13.8v1.7h0ZM437.7,220.3h-4.4c.2,1.5,1.9,3,5,3.3l-.8,1.7c-2.7-.4-4.6-1.5-5.5-3.1-.9,1.6-2.8,2.7-5.4,3.1l-.8-1.7c3.1-.4,4.7-1.9,5-3.3h-4.4v-1.7h11.3v1.7h0Z"/>
        <path class="st2" d="M453.6,231.2h-13.8v-1.7h3.1v-3.7c-1.2-.7-1.9-1.8-1.9-3.1,0-2.4,2.4-4.1,5.7-4.1s5.7,1.6,5.7,4.1c0,1.3-.7,2.4-1.8,3.1v3.7h3.1v1.7h0ZM443.1,222.7c0,1.5,1.4,2.4,3.6,2.4s3.6-.9,3.6-2.4c0-1.5-1.5-2.4-3.6-2.4-2.2,0-3.6.9-3.6,2.4ZM448.4,229.5v-2.9c-.5.1-1.1.2-1.7.2s-1.2,0-1.7-.2v2.9h3.4Z"/>
        <path class="st2" d="M472.2,226.6h-13.8v-1.7h13.8v1.7ZM470.8,221.2c0,1.8-2.2,3-5.5,3s-5.5-1.1-5.5-3,2.2-3,5.5-3c3.3,0,5.5,1.1,5.5,3ZM470.6,230.2c0,1.8-2,2.8-5.3,2.8s-5.3-1-5.3-2.8,2-2.8,5.3-2.8c3.3,0,5.2,1,5.3,2.8ZM462,221.2c0,.9,1.2,1.3,3.3,1.3s3.3-.4,3.3-1.3-1.2-1.3-3.3-1.3-3.3.4-3.3,1.3ZM462.2,230.2c0,.8,1,1.2,3.1,1.2s3.1-.4,3.1-1.2c0-.8-1.1-1.2-3.1-1.2-2.1,0-3.2.4-3.1,1.2Z"/>
        <path class="st2" d="M486.9,226.7h-13.8v-1.7h3.1v-1.8c-1.1-.5-1.7-1.2-1.7-2.2,0-1.8,2.1-2.9,5.5-2.9s5.5,1.1,5.5,2.9c0,1-.7,1.7-1.8,2.2v1.8h3.2v1.7h0ZM485.3,230.2c0,1.8-2,2.7-5.3,2.7s-5.3-1-5.3-2.7,2-2.7,5.3-2.7c3.3,0,5.2,1,5.3,2.7ZM476.7,221c0,.8,1.2,1.2,3.3,1.2s3.3-.4,3.3-1.2-1.2-1.3-3.3-1.3c-2.1,0-3.3.4-3.3,1.3ZM476.9,230.2c0,.8,1,1.2,3.1,1.2s3.1-.4,3.1-1.2c0-.7-1.1-1.1-3.1-1.1s-3.2.4-3.1,1.1ZM481.6,225v-1.3c-.5,0-1,0-1.6,0s-1.1,0-1.6-.1v1.3h3.3Z"/>
      </g>
    </g>
  </g>
  <g id="g-root-tx__1qdtr7e1wbnabu-fill">
    <g id="tx__1qdtr7e1wbnabu-fill">
      <g class="st3">
        <path class="st2" d="M562.6,224.3c0,3.3-1.7,5.4-4,5.4s-4-2.1-4-5.4c0-3.3,1.7-5.4,4-5.4s4,2.1,4,5.4ZM556.7,224.3c0,2.3.8,3.5,1.9,3.5s1.9-1.2,2-3.5c0-2.2-.8-3.5-2-3.5-1.2,0-1.9,1.2-1.9,3.5ZM568.6,223.1h-2.1v2.7h2.1v1.7h-2.1v5.4h-2.1v-15.1h2.1v3.5h2.1v1.8Z"/>
        <path class="st2" d="M570.1,227.2l-.9-1.7c3.4-.9,5.3-2.7,5.6-4.8h-5v-1.7h7.3c0,4.1-2.6,6.9-7.1,8.2ZM581.8,232.7h-10.3v-5.1h2.1v3.4h8.2v1.7ZM581.3,222.1h2v1.7h-2v4.8h-2.1v-10.8h2.1v4.2Z"/>
        <path class="st2" d="M588.6,226.6l-.8-1.7c3.4-.8,5.3-2.5,5.6-4.5h-4.9v-1.7h7.2c0,4-2.5,6.7-7.1,7.9ZM599.9,232.8h-9.9v-5.9h9.9v5.9h0ZM592.1,231.1h5.7v-2.5h-5.7v2.5ZM599.9,221.2h2v1.7h-2v3.4h-2.1v-8.4h2.1v3.3Z"/>
        <path class="st2" d="M612.3,227.9l-1.2,1.7c-1.7-.8-2.9-2.3-3.6-4.1-.7,2-1.9,3.7-3.8,4.5l-1.3-1.8c2.6-1.1,3.9-4,3.9-6.9v-2.3h2.1v2.3c0,2.8,1.3,5.6,3.8,6.6ZM615.2,233h-2.1v-15.1h2.1v15.1Z"/>
      </g>
    </g>
  </g>
  <g id="g-root-tx_13mingaa_1q87hfe1wbketj-fill">
    <g id="tx_13mingaa_1q87hfe1wbketj-fill">
      <g class="st3">
        <path d="M25.8,250h-4v-1h4v1Z"/>
        <path d="M30.7,253.5h-1.2v-8h0l-2.2,1.5v-1.2l2.3-1.5h1.2v9.2h0Z"/>
        <path d="M35,249c1,0,1.8.7,2.8.7s1.1-.3,1.4-.8v1.1c-.4.5-.9.7-1.5.7-1,0-1.8-.7-2.8-.7s-1.1.3-1.4.8v-1.1c.4-.5.9-.7,1.5-.7Z"/>
        <path d="M41.1,251.1h1.2c0,.9.9,1.4,2,1.4s2.1-.7,2.1-1.6-.8-1.7-2.2-1.7h-.7v-1h.7c1.1,0,1.9-.6,1.9-1.6s-.7-1.5-1.7-1.5-1.9.5-1.9,1.4h-1.1c0-1.5,1.4-2.4,3-2.4s2.8,1.1,2.8,2.5c0,1-.6,1.8-1.6,2.1h0c1.2.3,1.9,1.1,1.9,2.3,0,1.5-1.4,2.6-3.2,2.6-1.8,0-3.1-1-3.2-2.4Z"/>
        <path d="M49.2,246.6h1.1v4.1c0,1.1.7,1.9,1.9,1.9s1.9-.8,1.9-1.9v-4.1h1.1v6.9h-1.1v-1h0c-.4.7-1.1,1.1-1.8,1.1s-1.5-.4-1.8-1.1h0v3.6h-1.1v-9.5Z"/>
        <path d="M56.9,246.6h1.1v1.1h0c.3-.7,1-1.2,1.9-1.2s1.5.4,1.8,1.2h0c.4-.7,1.1-1.2,2.1-1.2s2.1.7,2.1,2.4v4.6h-1.1v-4.6c0-1-.6-1.4-1.4-1.4s-1.5.6-1.5,1.5v4.5h-1.1v-4.7c0-.8-.6-1.3-1.3-1.3s-1.5.7-1.5,1.7v4.3h-1.1v-6.9h0Z"/>
        <path d="M74.8,250.8v.7c-2.5.5-5.3.5-7.3.5v-.9c1.9,0,4.8,0,7.3-.4ZM74,246.7c0,1.6-1.3,2.7-3,2.7s-3.1-1.1-3-2.7c0-1.6,1.3-2.7,3-2.7s3,1.1,3,2.7ZM68.9,246.7c0,1.1.9,1.8,2.1,1.8s2.1-.7,2.1-1.8-.9-1.8-2.1-1.8c-1.2,0-2.1.7-2.1,1.8ZM76.6,254.5h-1v-11.3h1v11.3Z"/>
        <path d="M88.3,245.3h-1.3v5.4c.6,0,1.2,0,1.8-.2v.7c-2.3.4-5,.4-7,.4v-.8c-.1,0,1.4,0,1.4,0v-5.6h-1.2v-.8h6.3v.8ZM86.1,250.7v-5.5h-1.9v5.6c.6,0,1.3,0,1.9,0ZM90.5,247.7h1.9v.8h-1.9v5.9h-1v-11.3h1v4.5Z"/>
        <path d="M99.6,248.7l-.5.8c-1.3-.4-2.3-1.3-2.8-2.5-.5,1.3-1.5,2.3-2.9,2.8l-.5-.8c1.7-.6,2.9-2,2.9-3.7v-.5h-2.6v-.8h6.1v.8h-2.5v.5c0,1.5,1.1,2.8,2.8,3.3ZM102,252.4c0,1.3-1.4,2.1-3.7,2.1s-3.7-.8-3.7-2.1,1.4-2.1,3.7-2.1,3.7.8,3.7,2.1ZM95.5,252.4c0,.8,1,1.3,2.7,1.3s2.8-.5,2.8-1.3-1-1.3-2.8-1.3c-1.7,0-2.8.5-2.7,1.3ZM101.9,246.1h1.7v.8h-1.7v3.1h-1v-6.8h1v2.9Z"/>
        <path d="M114.5,248.9h-10.3v-.8h10.3v.8ZM113.4,245.3c0,1.3-1.5,2-4,2-2.5,0-4-.7-4-2s1.5-1.9,4-1.9c2.5,0,4,.7,4,1.9ZM113.2,252.4h-6.7v1.2h7v.8h-8v-2.7h6.7v-1h-6.7v-.8h7.7v2.5h0ZM106.4,245.3c0,.8,1.1,1.2,3,1.2s3-.4,3-1.2-1.1-1.2-3-1.2c-1.9,0-3,.5-3,1.2Z"/>
        <path d="M28.3,265.3l-.4-.8c2.8-.7,4.5-2.3,4.7-4.2h-4.2v-.8h5.2c0,2.8-2,4.9-5.3,5.8ZM36.7,269.9h-7.1v-4.2h7.1v4.2ZM30.6,269.1h5.2v-2.6h-5.2v2.6ZM36.7,261.6h1.7v.8h-1.7v2.8h-1v-6.4h1v2.8Z"/>
        <path d="M46.2,266.8l-.6.8c-1.3-.6-2.5-1.9-3-3.5-.5,1.7-1.7,3.1-3,3.7l-.6-.8c1.6-.8,3-2.9,3-4.9v-1.5h-2.7v-.8h6.4v.8h-2.7v1.5c0,1.9,1.4,3.9,3.1,4.6ZM48.5,270.1h-1v-11.3h1v11.3Z"/>
        <path d="M25.8,281.2h-4v-1h4v1Z"/>
        <path d="M28.7,284.7h-1.1v-9.2h1.1v9.2Z"/>
        <path d="M31.7,284.7h-1.1v-6.9h1.1v1.1h0c.3-.7,1-1.2,2-1.2s2.3.9,2.3,2.6v4.4h-1.1v-4.3c0-1.1-.6-1.7-1.6-1.7s-1.7.7-1.7,1.9v4.1Z"/>
        <path d="M41.7,276.4c-1.6,0-2.9,1.3-2.9,3.7s1.3,3.7,3,3.7,2.6-1,2.6-2.7h-2.4v-1h3.5v1c0,2.3-1.6,3.7-3.8,3.7s-4.1-1.8-4.1-4.7,1.7-4.7,4-4.7,3.4,1.2,3.8,3h-1.2c-.4-1.2-1.3-1.9-2.6-1.9Z"/>
        <path d="M49.3,280.7c.4,0,1.6,0,1.9-.1v-.6c0-.9-.5-1.4-1.6-1.4s-1.4.4-1.5.9h-1.1c.1-1.1,1.2-1.9,2.7-1.9s2.6.3,2.6,2.4v4.5h-1.1v-.9h0c-.2.5-.9,1.1-2.1,1.1s-2.3-.8-2.3-2.1c0-1.6,1.4-1.9,2.6-2ZM49.3,283.8c1.2,0,1.9-.8,1.9-1.7v-.7h-1.7c-1,.2-1.6.5-1.6,1.3s.6,1.1,1.4,1.1Z"/>
        <path d="M53.4,284.7l3.4-9.2h1.2l3.4,9.2h-1.2l-.9-2.6h-3.7l-.9,2.6h-1.2ZM58.8,281.1l-1.5-4.1h0l-1.5,4.1h3Z"/>
        <path d="M64.8,278.6c-.9,0-1.5.5-1.5,1s.4.8,1.2,1l1,.3c1.2.3,1.8.9,1.8,1.9s-1,2.1-2.7,2.1-2.5-.7-2.7-1.9h1.1c.1.7.6,1,1.5,1s1.6-.4,1.6-1.1-.3-.8-1.1-1l-1-.2c-1.2-.3-1.8-.9-1.8-1.9s1-2,2.6-2,2.3.8,2.5,1.9h-1.1c-.2-.6-.6-1-1.4-1Z"/>
        <path d="M77.3,280.2l-.6.8c-1-.5-1.8-1.3-2.2-2.4-.4,1.1-1.2,2.1-2.3,2.7l-.6-.8c1.4-.7,2.3-2.2,2.3-3.6v-1.7h1v1.7c0,1.3.8,2.7,2.3,3.3ZM81.6,285.4h-7.7v-3.6h1v2.8h6.8v.8ZM79.1,282.5h-1v-4.5h-1.8v-.8h1.8v-2.6h1v7.9ZM81.3,282.9h-1v-8.5h1v8.5Z"/>
        <path d="M89.8,282.3l-.6.8c-1.3-.7-2.3-2-2.8-3.6-.5,1.7-1.6,3.1-2.8,3.8l-.6-.8c1.7-.8,3-3,3-5.1v-2.1h1v2.1c0,2,1.3,4.1,2.9,4.8ZM92.3,285.7h-1v-6.6h-2.7v-.8h2.7v-3.9h1v11.3Z"/>
      </g>
    </g>
  </g>
  <g id="g-root-tx__18f21oa1wblvka-fill">
    <g id="tx__18f21oa1wblvka-fill">
      <g class="st3">
        <path d="M150.4,248h-4v-1h4v1Z"/>
        <path d="M162,248.5h-4.7v4h-1v-4h-4.6v-.8h10.3v.8ZM160.8,244.1c0,1.5-1.6,2.4-4,2.4s-4-1-4-2.4,1.6-2.5,4-2.5,4,1,4,2.5ZM153.9,244.1c0,1,1.2,1.7,2.9,1.7s3-.6,3-1.7-1.2-1.7-3-1.7c-1.8,0-3,.7-2.9,1.7Z"/>
        <path d="M173.2,248.4h-4.7v4.1h-1v-4.1h-4.6v-.8h10.3v.8h0ZM172.7,245.5l-.4.8c-1.8-.3-3.5-1.3-4.2-2.7-.7,1.4-2.5,2.4-4.2,2.7l-.4-.8c2-.3,4.1-1.6,4.1-3.2v-.6h1v.6c0,1.6,2.1,3,4.1,3.2Z"/>
        <path d="M180.9,243.4h-6.7v-.8h2.9v-1.4h1v1.4h2.9v.8h0ZM180.3,246.1c0,1.3-1.1,2.1-2.7,2.1s-2.7-.8-2.7-2.1c0-1.3,1.1-2.1,2.7-2.1,1.6,0,2.7.8,2.7,2.1ZM175.8,246.1c0,.8.7,1.3,1.8,1.3,1.1,0,1.8-.5,1.8-1.3,0-.8-.7-1.3-1.8-1.3s-1.8.5-1.8,1.3ZM183.5,252.2h-7.6v-3.2h1v2.4h6.6v.8h0ZM183,244.9h1.7v.8h-1.7v3.9h-1v-8.5h1v3.7Z"/>
        <path d="M199,248.8h-4.7v3.6h-1v-3.6h-4.7v-.8h10.3v.8ZM197.8,246.8h-7.8v-5.1h7.7v.8h-6.7v1.3h6.4v.8h-6.4v1.4h6.8s0,.8,0,.8Z"/>
        <path d="M203.2,249.1c1.2,0,2.5-.1,3.7-.3v.7c-2.3.4-5,.4-7,.4v-.8c.6,0,1.4,0,2.3,0v-3.5h1v3.4h0ZM206.2,243c0,.9,0,2.4-.3,4.5h-1c.3-2,.3-3.4.3-4.3h-4.7v-.8h5.7v.6ZM208.6,245.9h1.8v.9h-1.8v5.7h-1v-11.3h1v4.7Z"/>
        <path d="M216.5,245h-3.9v1.8c2.1,0,3.2,0,4.5-.3v.8c-1.3.2-2.5.3-4.7.3h-.8v-3.3h3.9v-1.6h-3.9v-.8h4.9v3.2ZM220.5,252.5h-1v-2.9h-6.6v-.8h7.6v3.8h0ZM220.5,248.1h-1v-2.1h-2.2v-.8h2.2v-1.5h-2.2v-.8h2.2v-1.7h1v6.9Z"/>
        <path d="M150.4,263.6h-4v-1h4v1Z"/>
        <path d="M157.1,258.2h2.9v-1.4h1v5.8h-1v-1.3h-2.9c-.5.6-1.4,1-2.4,1-1.7,0-2.9-1-2.9-2.6s1.2-2.6,2.9-2.6c1,0,1.8.4,2.3,1ZM152.8,259.7c0,1,.8,1.8,2,1.8,1.1,0,2-.7,2-1.8s-.8-1.7-2-1.7c-1.2,0-2,.7-2,1.7ZM161,265.8h-6.3v1.3h6.7v.8h-7.7v-2.8h6.3v-1.1h-6.3v-.8h7.3v2.7h0ZM157.7,259.7c0,.3,0,.5-.1.8h2.4v-1.5h-2.4c0,.2.1.5.1.8Z"/>
        <path d="M169.1,261.6c0,2.4-1.2,3.9-2.9,3.9s-2.9-1.5-2.9-3.9,1.2-3.9,2.9-3.9c1.7,0,2.9,1.5,2.9,3.9ZM164.3,261.6c0,1.8.8,3,1.9,3s1.9-1.2,1.9-3-.8-3-1.9-3c-1.1,0-1.9,1.2-1.9,3ZM172.2,268.1h-1v-11.3h1v11.3Z"/>
        <path d="M180,265.2h-5.2v-7.3h5.2v7.3ZM175.8,264.4h3.3v-5.7h-3.3v5.7ZM183.5,268.1h-1v-11.3h1v11.3Z"/>
        <path d="M192.5,264.8l-.6.8c-1.3-.6-2.5-1.9-3-3.5-.5,1.7-1.7,3.1-3,3.7l-.6-.8c1.6-.8,3-2.9,3-4.9v-1.5h-2.7v-.8h6.4v.8h-2.7v1.5c0,1.9,1.4,3.9,3.1,4.6ZM194.7,268.1h-1v-11.3h1v11.3Z"/>
        <path d="M203,260.2c0,1.4-1,2.4-2.5,2.6v1.9c1.1,0,2.1-.1,3.1-.3v.8c-2.3.4-5,.4-7,.4l-.2-.8c.9,0,2,0,3,0v-2c-1.5-.2-2.5-1.2-2.5-2.6,0-1.6,1.2-2.6,3-2.7,1.7,0,3,1.1,3,2.7ZM198,260.2c0,1.1.9,1.8,2,1.8s2-.7,2-1.8c0-1.1-.9-1.8-2-1.8s-2,.7-2,1.8ZM205.4,261.4h1.8v.9h-1.8v5.8h-1v-11.3h1v4.7Z"/>
        <path d="M211.8,265.9l-.6-.8c2.9-1.5,4.5-3.6,4.7-6.3h-4.2v-.8h5.2c0,3.2-1.5,6.1-5.2,7.9ZM219.9,261.4h1.8v.8h-1.8v5.9h-1v-11.3h1v4.6Z"/>
        <path d="M229.4,264.7l-.6.8c-1.3-.6-2.4-2-2.9-3.6-.5,1.7-1.6,3.1-3,3.8l-.6-.8c1.7-.8,3.1-2.9,3.1-5.1v-2.1h1v2.1c0,2.1,1.4,4.1,3.1,4.9ZM231.7,268.1h-1v-11.3h1v11.3Z"/>
        <path d="M155.9,277.7c1.3,0,2.5-.1,3.7-.3v.7c-2.3.4-5,.4-7,.4v-.8c.6,0,1.5,0,2.3,0v-2.2h1v2.2h0ZM158.8,273.7c0,.7,0,1.7-.3,3.1h-1c.3-1.3.3-2.2.3-2.8h-4.6v-.8h5.6v.6ZM161.5,281.6c0,1.3-1.4,2-3.8,2s-3.8-.7-3.8-2,1.4-2,3.8-2,3.8.7,3.8,2ZM155,281.6c0,.8,1.1,1.3,2.8,1.3s2.8-.5,2.8-1.3-1.1-1.2-2.8-1.2c-1.7,0-2.8.5-2.8,1.2ZM161.4,275.5h1.6v.8h-1.6v3.1h-1v-7.1h1v3.1Z"/>
        <path d="M170.5,278.2l-.6.8c-1.2-.5-2.2-1.5-2.7-2.7-.5,1.4-1.5,2.5-2.8,3l-.5-.8c1.7-.6,2.9-2.2,2.9-3.9v-1.4h1v1.4c0,1.6,1.1,3.1,2.8,3.7ZM173.4,283.4h-7.6v-3.5h1v2.7h6.6v.8ZM173.2,280.8h-1v-5h-2.5v-.8h2.5v-2.7h1v8.5Z"/>
        <path d="M188.6,279.6h-2.7v4h-1v-4h-2.9v4h-1v-4h-2.7v-.8h10.3v.8ZM187.4,275.3c0,1.5-1.6,2.5-4,2.4-2.4,0-4-.9-4-2.4s1.6-2.5,4-2.5,4,1,4,2.5ZM180.5,275.3c0,1,1.2,1.6,2.9,1.6s3-.6,3-1.6-1.2-1.6-3-1.6c-1.8,0-3,.6-2.9,1.6Z"/>
        <path d="M196.3,280.2l-.6.8c-1.2-.7-2.3-2-2.8-3.6-.5,1.7-1.6,3.1-2.8,3.8l-.6-.8c1.7-.8,3-3,3-5v-2.1h1v2.1c0,2,1.3,4,2.9,4.8ZM198.3,277h1.9v.9h-1.9v5.8h-1v-11.3h1v4.6Z"/>
        <path d="M207.5,274.6h-6.7v-.8h2.9v-1.4h1v1.4h2.9v.8h0ZM206.9,277.3c0,1.3-1.1,2.1-2.7,2.1s-2.7-.8-2.7-2.1c0-1.3,1.1-2.1,2.7-2.1,1.6,0,2.7.8,2.7,2.1ZM202.4,277.3c0,.8.7,1.3,1.8,1.3,1.1,0,1.8-.5,1.8-1.3,0-.8-.7-1.3-1.8-1.3s-1.8.5-1.8,1.3ZM210.1,283.4h-7.6v-3.2h1v2.4h6.6v.8h0ZM209.6,276.1h1.7v.8h-1.7v3.9h-1v-8.5h1v3.7Z"/>
        <path d="M158.8,292.8c0,2.4-1.2,3.9-2.9,3.9s-2.9-1.5-2.9-3.9,1.2-3.9,2.9-3.9c1.7,0,2.9,1.5,2.9,3.9ZM154,292.8c0,1.8.8,3,1.9,3s1.9-1.2,1.9-3-.8-3-1.9-3c-1.1,0-1.9,1.2-1.9,3ZM161.9,299.3h-1v-11.3h1v11.3Z"/>
        <path d="M169.7,296.4h-5.2v-7.3h5.2v7.3ZM165.5,295.6h3.3v-5.7h-3.3v5.7ZM173.1,299.3h-1v-11.3h1v11.3Z"/>
        <path d="M182.2,296l-.6.8c-1.3-.6-2.5-1.9-3-3.5-.5,1.7-1.7,3.1-3,3.7l-.6-.8c1.6-.8,3-2.9,3-4.9v-1.5h-2.7v-.8h6.4v.8h-2.7v1.5c0,1.9,1.4,3.9,3.1,4.6ZM184.4,299.3h-1v-11.3h1v11.3Z"/>
        <path d="M196.6,294h-10.3v-.8h10.3v.8ZM195.3,297.3h-6.8v1.1h7.1v.7h-8.2v-2.5h6.8v-1h-6.8v-.8h7.8s0,2.4,0,2.4ZM195.3,290.7h-6.7v1h6.9v.7h-7.9v-2.4h6.7v-.9h-6.7v-.7h7.7v2.3h0Z"/>
        <path d="M206.5,296l-.6.7c-1.1-.7-1.9-1.9-2.3-3.3-.4,1.6-1.2,2.9-2.4,3.6l-.6-.7c1.6-.9,2.5-3,2.5-5.1v-1.1h-2.2v-.8h5.2v.8h-2.1v1.1c0,2,.9,3.9,2.4,4.8ZM208.2,298.7h-.9v-5.8h-1.9v-.8h1.9v-3.8h.9v10.4ZM210.4,299.3h-1v-11.3h1v11.3Z"/>
        <path d="M222.3,294.1h-10.3v-.8h4.3v-2.2h1v2.2h5v.8ZM221.1,297.2c0,1.3-1.5,2.1-4,2.1s-3.9-.8-3.9-2.1,1.5-2.1,3.9-2.1,4,.8,4,2.1ZM221,289.5c0,.9,0,1.8-.3,3h-1c.3-1.3.3-2.1.3-3h0c0-.1-6.8-.1-6.8-.1v-.8h7.7v1ZM214.2,297.2c0,.8,1.2,1.3,3,1.3s3-.5,3-1.3c0-.8-1.2-1.3-3-1.3-1.8,0-3,.5-3,1.3Z"/>
        <path d="M150.4,310.4h-4v-1h4v1Z"/>
        <path d="M153.1,306.3h3.3v-1.9h1v5.6h-5.3v-5.6h1v1.9ZM156.4,309.2v-2.1h-3.3v2.1h3.3ZM161,314.6h-7.6v-3.6h1v2.7h6.6v.8h0ZM160.5,307h1.7v.8h-1.7v4h-1v-8.3h1v3.4Z"/>
        <path d="M172,309.7h-3.5v2.9h4.7v.8h-10.3v-.8h4.6v-2.9h-3.3v-5.2h7.7v.8h-6.7v3.6h6.8v.8Z"/>
        <path d="M179.9,311.5l-.6.7c-1.1-.6-1.9-1.8-2.4-3.1-.4,1.4-1.2,2.7-2.3,3.4l-.6-.8c1.5-.9,2.4-2.9,2.4-4.7v-.6h-2.1v-.8h2.1v-1.7h1v1.7h2.1v.8h-2.1v.6c0,1.8.9,3.7,2.5,4.5ZM181.5,314.3h-.9v-5.4h-1.8v-.9h1.8v-4.2h.9v10.4ZM183.8,314.9h-1v-11.3h1v11.3Z"/>
        <path d="M194.5,308.9h-5.3v-4.6h5.3v4.6ZM198.6,314l-.3.8c-1.7-.2-3.2-1-3.9-2.1-.7,1.1-2.3,1.9-4,2.1l-.4-.8c1.9-.2,3.8-1.3,3.8-2.4h-3.3v-.8h3.4v-1.1h1v1.1h3.4v.8h-3.4c0,1.1,1.8,2.2,3.7,2.4ZM190.2,308.1h3.3v-3h-3.3v3ZM198,310.1h-1v-6.5h1v6.5Z"/>
        <path d="M209.9,309.3l-.5.8c-1.3-.5-2.3-1.4-2.7-2.6-.5,1.3-1.5,2.3-2.9,2.8l-.5-.8c1.7-.6,2.9-2.1,2.9-3.7v-.6h-2.6v-.8h6.1v.8h-2.5v.6c0,1.5,1.1,2.9,2.8,3.4ZM212.8,314.6h-7.6v-3.5h1v2.7h6.6s0,.8,0,.8ZM212.5,311.9h-1v-4.3h-2.3v-.8h2.3v-3.1h1v8.3Z"/>
        <path d="M221.1,311.6l-.6.8c-1.3-.6-2.3-2-2.8-3.5-.5,1.7-1.7,3.1-2.9,3.8l-.6-.8c1.6-.8,3-2.9,3-4.9v-1.5h-2.6v-.8h6.1v.8h-2.5v1.5c0,1.8,1.3,3.8,2.9,4.6ZM223.1,308.1h1.9v.9h-1.9v5.9h-1v-11.3h1v4.6Z"/>
        <path d="M235.9,311.1h-4.7v3.8h-1v-3.8h-4.6v-.8h10.3v.8h0ZM227.9,305.6h5.7v-1.6h1v4.9h-7.7v-4.9h1v1.6h0ZM233.6,308.1v-1.7h-5.7v1.7s5.7,0,5.7,0Z"/>
        <path d="M247.1,309.9h-4.7v1.3h3.4v3.5h-7.8v-3.5h3.4v-1.3h-4.6v-.8h10.3v.8ZM246.2,304.8h-1.7v2.4h1.7v.8h-8.3v-.8h1.7v-2.4h-1.7v-.8h8.3v.8h0ZM239.1,313.9h5.8v-1.9h-5.8v1.9ZM243.4,307.1v-2.4h-2.9v2.4s2.9,0,2.9,0Z"/>
        <path d="M153.1,325.7l-.4-.8c2.7-.8,4.4-2.3,4.6-4.2h-4.1v-.8h5.1c0,2.8-2,4.9-5.3,5.8ZM161.9,330.3h-7.3v-4.2h7.3v4.2ZM155.6,329.5h5.4v-2.6h-5.4v2.6ZM161.9,325.6h-1v-2.7h-2.5v-.8h2.5v-2.9h1v6.4Z"/>
        <path d="M170.5,327l-.6.8c-1.2-.7-2.3-2-2.8-3.6-.5,1.7-1.6,3.1-2.8,3.8l-.6-.8c1.6-.8,3-3,3-5v-2.1h1v2.1c0,2,1.3,4,2.9,4.8ZM172.6,323.8h1.9v.9h-1.9v5.8h-1v-11.3h1v4.6Z"/>
      </g>
    </g>
  </g>
  <g id="g-root-tx__hsri0q1wblvkd-fill">
    <g id="tx__hsri0q1wblvkd-fill">
      <g class="st3">
        <path d="M282.5,248h-4v-1h4v1Z"/>
        <path d="M290.6,249.2l-.6.8c-1.3-.6-2.4-2-2.9-3.6-.5,1.7-1.6,3.1-2.9,3.8l-.6-.8c1.6-.8,3-2.9,3-4.9v-1.4h-2.6v-.8h6.2v.8h-2.6v1.4c0,1.9,1.3,3.9,3,4.7ZM293.1,252.5h-1v-6.4h-2.5v-.8h2.5v-4.1h1v11.3Z"/>
        <path d="M305.2,248h-10.3v-.8h4.6v-1.2c-2.2-.1-3.5-.9-3.5-2.3s1.5-2.2,4-2.2,4,.9,4,2.2-1.4,2.2-3.5,2.3v1.2h4.6v.8h0ZM304.1,252.2h-7.8v-3.3h1v2.4h6.8v.8ZM297.1,243.8c0,.9,1.2,1.4,3,1.4s3-.5,3-1.4-1.2-1.4-3-1.4-3,.6-3,1.4Z"/>
        <path d="M313.7,248.8v.7c-2.5.5-5.3.5-7.3.5v-.9c1.9,0,4.8,0,7.3-.4ZM312.9,244.7c0,1.6-1.3,2.7-3,2.7s-3.1-1.1-3-2.7c0-1.6,1.3-2.7,3-2.7s3,1.1,3,2.7ZM307.8,244.7c0,1.1.9,1.8,2.1,1.8s2.1-.7,2.1-1.8-.9-1.8-2.1-1.8-2.1.7-2.1,1.8ZM315.4,252.5h-1v-11.3h1v11.3Z"/>
        <path d="M331,246.8h-4.7v1.1h3.3v2.5h-6.7v1.1h7v.8h-8v-2.7h6.7v-1h-6.7v-.8h3.4v-1.1h-4.6v-.8h10.3v.8h0ZM329.6,245h-7.6v-3.4h7.6v3.4ZM323,244.2h5.6v-1.8h-5.6v1.8Z"/>
        <path d="M337.7,249.1l-.6.7c-1.1-.6-1.9-1.8-2.3-3.1-.4,1.4-1.2,2.7-2.3,3.4l-.6-.8c1.5-.9,2.4-2.9,2.4-4.7v-.6h-2.1v-.8h2.1v-1.7h1v1.7h2.1v.8h-2.1v.6c0,1.8.9,3.7,2.5,4.5ZM339.3,251.9h-.9v-5.4h-1.8v-.9h1.8v-4.2h.9v10.4ZM341.6,252.5h-1v-11.3h1v11.3Z"/>
        <path d="M353.5,247.2h-10.3v-.8h10.3v.8ZM352.2,250.5h-6.8v1.1h7.1v.7h-8.2v-2.5h6.8v-1h-6.8v-.8h7.8v2.4ZM352.1,243.8h-6.7v1h6.9v.7h-7.9v-2.4h6.7v-.9h-6.7v-.7h7.7s0,2.3,0,2.3Z"/>
        <path d="M358,247.7l-.4-.8c2.8-.7,4.5-2.3,4.7-4.2h-4.2v-.8h5.2c0,2.8-2,4.9-5.3,5.8ZM366.5,252.3h-7.1v-4.2h7.1v4.2ZM360.3,251.5h5.2v-2.6h-5.2v2.6ZM366.5,243.9h1.7v.8h-1.7v2.8h-1v-6.4h1v2.8Z"/>
        <path d="M376,249.2l-.6.8c-1.3-.6-2.5-1.9-3-3.5-.5,1.7-1.7,3.1-3,3.7l-.6-.8c1.6-.8,3-2.9,3-4.9v-1.5h-2.7v-.8h6.4v.8h-2.7v1.5c0,1.9,1.4,3.9,3.1,4.6ZM378.2,252.5h-1v-11.3h1v11.3Z"/>
        <path d="M282.5,263.6h-4v-1h4v1Z"/>
        <path d="M289.2,258.2h2.9v-1.4h1v5.8h-1v-1.3h-2.9c-.5.6-1.4,1-2.4,1-1.7,0-2.9-1-2.9-2.6s1.2-2.6,2.9-2.6c1,0,1.8.4,2.3,1ZM284.8,259.7c0,1,.8,1.8,2,1.8,1.1,0,2-.7,2-1.8s-.8-1.7-2-1.7c-1.2,0-2,.7-2,1.7ZM293.1,265.8h-6.3v1.3h6.7v.8h-7.7v-2.8h6.3v-1.1h-6.3v-.8h7.3v2.7h0ZM289.7,259.7c0,.3,0,.5-.1.8h2.4v-1.5h-2.4c0,.2.1.5.1.8Z"/>
        <path d="M299.7,259.2h3.3v-1.7h1v5.2h-5.3v-5.2h1v1.7ZM303,261.9v-1.9h-3.3v1.9h3.3ZM307.1,265.9c0,1.3-1.4,2.1-3.7,2.1-2.3,0-3.7-.8-3.7-2.1s1.4-2.1,3.7-2.1,3.7.8,3.7,2.1ZM300.7,265.9c0,.8,1,1.3,2.7,1.3s2.8-.5,2.8-1.3-1-1.3-2.8-1.3c-1.7,0-2.8.5-2.7,1.3ZM307,259.6h1.7v.9h-1.7v3.1h-1v-6.8h1s0,2.8,0,2.8Z"/>
        <path d="M319.7,262.6h-4.7v1.1h3.3v2.4h-6.7v1.1h7v.8h-8v-2.6h6.7v-1h-6.7v-.7h3.4v-1.1h-4.6v-.8h10.3v.8h0ZM315.1,257.8h3.6v.8h-3.5c.2,1.1,1.9,1.8,4,2l-.3.8c-1.9-.2-3.6-.7-4.3-1.8-.7,1.1-2.4,1.7-4.3,1.8l-.3-.8c2.1-.1,3.8-.8,4-2h-3.5v-.8h3.6v-1.1h1v1.1h0Z"/>
        <path d="M326.3,260.5h-4.1v1.6c2,0,3.5,0,5.2-.4v.8c-1.7.3-3.2.4-5.3.4h-.9v-3.2h4.1v-1.4h-4.1v-.8h5.1v3h0ZM329.6,266c0,1.3-1.4,2-3.7,2s-3.7-.7-3.7-2,1.4-2.1,3.7-2.1c2.3,0,3.7.8,3.7,2.1ZM323.1,266c0,.8,1,1.3,2.8,1.3s2.8-.5,2.8-1.3-1-1.3-2.8-1.3c-1.7,0-2.8.5-2.8,1.3ZM331.2,259.4h-1.7v1.5h1.7v.9h-1.7v1.8h-1v-6.8h1v1.8h1.7v.8Z"/>
        <path d="M338.1,261.6c0,2.4-1.2,3.9-2.9,3.9s-2.9-1.5-2.9-3.9,1.2-3.9,2.9-3.9c1.7,0,2.9,1.5,2.9,3.9ZM333.3,261.6c0,1.8.8,3,1.9,3s1.9-1.2,1.9-3-.8-3-1.9-3c-1.1,0-1.9,1.2-1.9,3ZM341.2,268.1h-1v-11.3h1v11.3Z"/>
        <path d="M353.1,262.3l-.5.8c-1.3-.5-2.3-1.4-2.7-2.6-.5,1.3-1.5,2.3-2.9,2.8l-.5-.8c1.7-.6,2.9-2.1,2.9-3.7v-.5h-2.6v-.8h6.1v.8h-2.5v.5c0,1.5,1.1,2.9,2.8,3.4ZM355.8,268.1h-1v-3.1h-6.6v-.8h7.6s0,3.9,0,3.9ZM355.8,263.5h-1v-3h-2.3v-.8h2.3v-3h1v6.8Z"/>
        <path d="M367.9,263.5h-10.3v-.8h10.3v.8ZM366.8,259.4c0,1.4-1.6,2.2-4,2.2s-4-.8-4-2.2,1.5-2.2,4-2.2c2.4,0,4,.8,4,2.2ZM366.8,267.8h-7.8v-3.3h1v2.5h6.8v.8ZM359.8,259.4c0,.9,1.2,1.4,3,1.4s3-.5,3-1.4-1.2-1.4-3-1.4c-1.8,0-3,.5-3,1.4Z"/>
        <path d="M294,279.2h-1v-1.5h-3v-.8h3v-1.5h-2.9c-.7,1.8-2.5,3.1-4.9,3.8l-.4-.8c2.7-.8,4.4-2.3,4.6-4.3h-4.1v-.8h5.1c0,.4,0,.9-.1,1.3h2.6v-2.1h1v6.8ZM294,281.4c0,1.4-1.5,2.2-3.8,2.2s-3.8-.8-3.8-2.2,1.5-2.2,3.8-2.2,3.8.8,3.8,2.2ZM287.5,281.4c0,.9,1.1,1.4,2.8,1.4s2.8-.5,2.8-1.4c0-.9-1.1-1.4-2.8-1.4-1.7,0-2.8.5-2.8,1.4Z"/>
        <path d="M306.2,279.7h-4.7v4h-1v-4h-4.6v-.8h10.3v.8h0ZM305,275.3c0,1.5-1.6,2.5-4,2.5s-4-1-4-2.5,1.6-2.5,4-2.5,4,1,4,2.5ZM298,275.3c0,1,1.2,1.7,2.9,1.7s3-.6,3-1.7-1.2-1.7-3-1.7-3,.7-2.9,1.7Z"/>
        <path d="M314.5,283.1h-1v-5.5h-1.4c-.1,2.2-1,3.6-2.4,3.6s-2.4-1.5-2.4-3.9,1-3.9,2.4-3.9,2.3,1.3,2.4,3.5h1.5v-4.2h1v10.5h0ZM308.2,277.2c0,1.8.6,3,1.5,3,.9,0,1.5-1.1,1.5-3s-.6-3-1.5-3-1.5,1.1-1.5,3ZM316.8,283.7h-1v-11.3h1v11.3Z"/>
        <path d="M328.3,277.9l-.5.8c-1.3-.5-2.3-1.4-2.7-2.6-.5,1.3-1.5,2.3-2.9,2.8l-.5-.8c1.7-.6,2.9-2.1,2.9-3.7v-.5h-2.6v-.8h6.1v.8h-2.5v.5c0,1.5,1.1,2.9,2.8,3.4ZM330.9,283.7h-1v-3.1h-6.6v-.8h7.6v3.9ZM330.9,279.1h-1v-3h-2.3v-.8h2.3v-3h1v6.8Z"/>
        <path d="M339.6,274.4h-6.7v-.8h2.9v-1.3h1v1.3h2.9v.8h0ZM338.9,276.9c0,1.2-1.1,2-2.7,2s-2.7-.8-2.7-2c0-1.2,1.1-2,2.7-2,1.6,0,2.7.8,2.7,2ZM334.4,276.9c0,.7.7,1.2,1.8,1.2s1.8-.5,1.8-1.2c0-.7-.7-1.2-1.8-1.2-1.1,0-1.8.5-1.8,1.2ZM335.5,280.6h5.2v-1.2h1v4.1h-7.1v-4.1h1v1.2h0ZM340.7,282.7v-1.3h-5.2v1.3h5.2ZM341.6,275.3h1.7v.9h-1.7v2.8h-1v-6.6h1v2.9Z"/>
      </g>
    </g>
  </g>
  <g id="g-root-tx__8vvjlm1wbn8co-fill">
    <g id="tx__8vvjlm1wbn8co-fill">
      <g class="st3">
        <path d="M408.4,248h-4v-1h4v1Z"/>
        <path d="M411.1,243.9h3.3v-1.9h1v5.6h-5.3v-5.6h1v1.9ZM414.4,246.8v-2.1h-3.3v2.1h3.3ZM419,252.2h-7.6v-3.6h1v2.7h6.6v.8h0ZM418.4,244.6h1.7v.8h-1.7v4h-1v-8.3h1v3.4Z"/>
        <path d="M430,247.3h-3.5v2.9h4.7v.8h-10.3v-.8h4.6v-2.9h-3.3v-5.2h7.7v.8h-6.7v3.6h6.8v.8Z"/>
        <path d="M437.8,249.1l-.6.7c-1.1-.6-1.9-1.8-2.4-3.1-.4,1.4-1.2,2.7-2.3,3.4l-.6-.8c1.5-.9,2.4-2.9,2.4-4.7v-.6h-2.1v-.8h2.1v-1.7h1v1.7h2.1v.8h-2.1v.6c0,1.8.9,3.7,2.5,4.5ZM439.4,251.9h-.9v-5.4h-1.8v-.9h1.8v-4.2h.9v10.4h0ZM441.7,252.5h-1v-11.3h1v11.3Z"/>
        <path d="M452.4,246.6v.8c-.7.2-1.6.2-2.5.3v3.8h-.9v-3.8c-.9,0-1.7,0-2.4,0v-.9c1.4,0,3.9,0,5.8-.3ZM451.9,244c0,1.2-1,2.1-2.5,2.1-1.4,0-2.5-.8-2.5-2.1,0-1.2,1-2.1,2.5-2.1,1.4,0,2.5.9,2.5,2.1ZM447.9,244c0,.8.6,1.3,1.6,1.3s1.6-.5,1.6-1.3-.7-1.3-1.6-1.3c-.9,0-1.6.5-1.6,1.3ZM454,251.9h-.9v-2.5h-2.1v-.8h2.1v-7.1h.9v10.4ZM456.2,252.5h-1v-11.3h1v11.3Z"/>
        <path d="M464,246c0,2.4-1.2,3.9-2.9,3.9s-2.9-1.5-2.9-3.9,1.2-3.9,2.9-3.9c1.7,0,2.9,1.5,2.9,3.9ZM459.2,246c0,1.8.8,3,1.9,3s1.9-1.2,1.9-3-.8-3-1.9-3c-1.1,0-1.9,1.2-1.9,3ZM467.1,252.5h-1v-11.3h1v11.3Z"/>
        <path d="M475.6,243.2h-1.3v5.5c.6,0,1.1,0,1.7-.1v.7c-2.2.4-4.9.4-6.9.4v-.9c-.1,0,1.4,0,1.4,0v-5.6h-1.2v-.8h6.3v.8h0ZM473.3,248.7v-5.5h-1.9v5.6c.6,0,1.2,0,1.9,0ZM478.4,252.5h-1v-6.2h-2.2v-.8h2.2v-4.3h1v11.3Z"/>
        <path d="M484.1,247.7l-.4-.8c2.7-.8,4.4-2.3,4.6-4.2h-4.1v-.8h5.1c0,2.8-2,4.9-5.3,5.8ZM492.9,252.3h-7.3v-4.2h7.3v4.2ZM486.5,251.5h5.4v-2.6h-5.4v2.6ZM492.9,247.6h-1v-2.7h-2.5v-.8h2.5v-2.9h1v6.4Z"/>
        <path d="M501.5,249l-.6.8c-1.2-.7-2.3-2-2.8-3.6-.5,1.7-1.6,3.1-2.8,3.8l-.6-.8c1.6-.8,3-3,3-5v-2.1h1v2.1c0,2,1.3,4,2.9,4.8ZM503.5,245.8h1.9v.9h-1.9v5.8h-1v-11.3h1v4.6Z"/>
        <path d="M408.4,263.6h-4v-1h4v1Z"/>
        <path d="M414.5,258.9h-3.5v2.2h3.4v.8h-3.4v2.6c1.7,0,2.7,0,3.9-.3v.8c-1.2.3-2.3.3-4.2.3h-.7v-7.2h4.5v.8h0ZM419.3,268.1h-1v-5.9h-1.5v5.3h-1v-10.5h1v4.3h1.5v-4.5h1v11.3Z"/>
        <path d="M427,260.1c0,1.6-1.3,2.6-3,2.7-1.7,0-3-1.1-3-2.7,0-1.6,1.2-2.7,3-2.7,1.7,0,3,1.1,3,2.7ZM422,260.1c0,1.1.8,1.8,2,1.8,1.2,0,2-.7,2-1.8s-.8-1.8-2-1.8c-1.1,0-2,.7-2,1.8ZM429.8,265.9c0,1.3-1.4,2.1-3.7,2.1s-3.7-.8-3.7-2.1,1.4-2.1,3.7-2.1c2.3,0,3.7.8,3.7,2.1ZM423.3,265.9c0,.8,1,1.3,2.7,1.3s2.8-.5,2.8-1.3-1-1.3-2.8-1.3c-1.7,0-2.8.5-2.7,1.3ZM431.3,259.3h-1.7v1.6h1.7v.8h-1.7v1.8h-1v-6.7h1v1.7h1.7v.8Z"/>
        <path d="M435.4,262.1c1.3,0,2.5-.1,3.7-.3v.7c-2.3.4-5,.4-7,.4v-.8c.6,0,1.5,0,2.3,0v-2.2h1v2.2h0ZM438.3,258.1c0,.7,0,1.7-.3,3.1h-1c.3-1.3.3-2.2.3-2.8h-4.6v-.8h5.6v.6ZM441,266c0,1.3-1.4,2-3.8,2s-3.8-.7-3.8-2,1.4-2,3.8-2,3.8.7,3.8,2ZM434.5,266c0,.8,1.1,1.3,2.8,1.3s2.8-.5,2.8-1.3-1.1-1.2-2.8-1.2c-1.7,0-2.8.5-2.8,1.2ZM440.9,259.9h1.6v.8h-1.6v3.1h-1v-7.1h1v3.1Z"/>
        <path d="M452.2,261.6l-.5.8c-1.1-.4-1.8-1.3-2.2-2.3-.4,1.1-1.2,2.1-2.3,2.6l-.6-.8c1.5-.7,2.4-2.2,2.4-3.5v-1.2h1v1.2c0,1.3.9,2.6,2.3,3.1ZM456.2,265.9h-6.5v1.2h6.9v.8h-7.9v-2.8h6.5v-1.1h-6.5v-.8h7.5v2.6h0ZM453.9,262.7h-1v-3h-1.8v-.8h1.8v-1.9h1v5.7ZM456.2,262.8h-1v-6h1v6Z"/>
        <path d="M470.4,262.5h-1v-1.2h-3v-.8h3v-1.4h-2.8c-.7,1.8-2.5,3-5,3.6l-.4-.8c2.8-.6,4.4-2,4.6-3.8h-4v-.8h5.1c0,.4,0,.7-.1,1.1h2.6v-1.6h1v5.8h0ZM470.4,265.8h-6.3v1.3h6.7v.8h-7.7v-2.9h6.3v-1.2h-6.3v-.8h7.3v2.8h0Z"/>
        <path d="M479.1,258.8h-6.7v-.8h2.9v-1.3h1v1.3h2.9v.8h0ZM478.4,261.4c0,1.2-1.1,2-2.7,2s-2.7-.8-2.7-2c0-1.2,1.1-2,2.7-2s2.7.8,2.7,2ZM473.9,261.4c0,.8.7,1.2,1.8,1.3,1.1,0,1.8-.5,1.8-1.3,0-.7-.7-1.2-1.8-1.2-1.1,0-1.8.5-1.8,1.2ZM481.1,267.9h-7.1v-3.7h7.1v3.7ZM475,267.1h5.2v-2.1h-5.2v2.1ZM481.1,259.8h1.7v.9h-1.7v2.9h-1v-6.8h1v3Z"/>
        <path d="M487.4,263.3l-.4-.8c2.7-.8,4.4-2.3,4.6-4.2h-4.1v-.8h5.1c0,2.8-2,4.9-5.3,5.8ZM496.2,267.9h-7.3v-4.2h7.3v4.2ZM489.8,267.1h5.4v-2.6h-5.4v2.6ZM496.2,263.2h-1v-2.7h-2.5v-.8h2.5v-2.9h1v6.4Z"/>
        <path d="M504.8,264.6l-.6.8c-1.2-.7-2.3-2-2.8-3.6-.5,1.7-1.6,3.1-2.8,3.8l-.6-.8c1.7-.8,3-3,3-5v-2.1h1v2.1c0,2,1.3,4,2.9,4.8ZM506.8,261.4h1.9v.9h-1.9v5.8h-1v-11.3h1v4.6Z"/>
        <path d="M408.4,279.2h-4v-1h4v1Z"/>
        <path d="M416.5,277.7l-.5.8c-1.3-.5-2.3-1.5-2.8-2.7-.5,1.3-1.5,2.4-2.9,2.9l-.5-.8c1.7-.6,2.9-2.2,2.9-3.9v-1.1h1v1.1c0,1.6,1.2,3.1,2.9,3.7ZM418.9,283.7h-1v-3.1h-6.6v-.8h7.6v3.9ZM418.9,279.2h-1v-6.8h1v6.8Z"/>
        <path d="M431.1,278.7h-4.7v1.3h3.4v3.5h-7.8v-3.5h3.4v-1.3h-4.6v-.8h10.3v.8ZM430.2,273.6h-1.7v2.4h1.7v.8h-8.3v-.8h1.7v-2.4h-1.7v-.8h8.3v.8ZM423.1,282.7h5.8v-1.9h-5.8v1.9ZM427.4,275.9v-2.4h-2.9v2.4s2.9,0,2.9,0Z"/>
        <path d="M441.5,277.2c0,2.4-1.2,3.9-2.9,3.9s-2.9-1.5-2.9-3.9,1.2-3.9,2.9-3.9c1.7,0,2.9,1.5,2.9,3.9ZM436.7,277.2c0,1.8.8,3,1.9,3s1.9-1.2,1.9-3-.8-3-1.9-3c-1.1,0-1.9,1.2-1.9,3ZM444.7,283.7h-1v-11.3h1v11.3Z"/>
        <path d="M456.9,278h-4.7v1.1h3.3v2.5h-6.7v1.1h7v.8h-8v-2.7h6.7v-1h-6.7v-.8h3.4v-1.1h-4.6v-.8h10.3v.8h0ZM455.5,276.2h-7.6v-3.4h7.6v3.4ZM448.9,275.4h5.6v-1.8h-5.6v1.8Z"/>
        <path d="M464.8,277.2l-.5.8c-1.3-.4-2.4-1.3-2.9-2.5-.5,1.3-1.6,2.3-2.9,2.7l-.5-.8c1.7-.6,2.9-1.9,2.9-3.5h0c0-.1-2.6-.1-2.6-.1v-.8h6.2v.8h-2.6c0,1.6,1.2,2.9,2.9,3.4ZM467.1,281.5h-6.3v1.3h6.7v.8h-7.7v-2.8h6.3v-1.2h-6.3v-.8h7.3v2.7h0ZM467.1,278.2h-1v-5.9h1v5.9Z"/>
        <path d="M479,278.2l-.6.8c-1.2-.5-2.2-1.5-2.7-2.7-.5,1.4-1.5,2.5-2.8,3l-.5-.8c1.7-.6,2.9-2.2,2.9-3.9v-1.4h1v1.4c0,1.6,1.1,3.1,2.8,3.7ZM481.9,283.4h-7.6v-3.5h1v2.7h6.6v.8ZM481.7,280.8h-1v-5h-2.5v-.8h2.5v-2.7h1v8.5h0Z"/>
        <path d="M492.9,278.3h-1v-1.4h-2.7v1h-5.1v-4.9h1v1.6h3.1v-1.6h1v1.1h2.7v-1.6h1v5.9h0ZM488.3,277v-1.7h-3.1v1.7h3.1ZM492.9,281.5h-6.3v1.2h6.7v.8h-7.7v-2.8h6.3v-1.1h-6.3v-.8h7.3v2.7h0ZM491.9,276v-1.3h-2.7v1.3s2.7,0,2.7,0Z"/>
      </g>
    </g>
  </g>
  <g id="g-root-tx__1lymq621wbn7yb-fill">
    <g id="tx__1lymq621wbn7yb-fill">
      <g class="st3">
        <path d="M542.7,247.9h-4v-1h4v1Z"/>
        <path d="M550.9,249.1l-.6.8c-1.3-.6-2.4-2-2.9-3.6-.5,1.7-1.6,3.1-2.9,3.8l-.6-.8c1.6-.8,3-2.9,3-4.9v-1.4h-2.6v-.8h6.2v.8h-2.6v1.4c0,1.9,1.3,3.9,3,4.7ZM553.3,252.4h-1v-6.4h-2.5v-.8h2.5v-4.1h1v11.3Z"/>
        <path d="M565.5,250.9h-10.3v-.8h4.7v-2.7h1v2.7h4.7v.8ZM565.1,246.9l-.4.8c-1.7-.3-3.5-1.4-4.3-3-.7,1.6-2.5,2.7-4.2,3.1l-.4-.8c1.9-.3,4.1-1.9,4.1-3.7v-.3h-3.8v-.8h8.6v.8h-3.8v.3c0,1.8,2.2,3.4,4.2,3.7Z"/>
        <path d="M575.6,247.2h-3.5v2.9h4.7v.8h-10.3v-.8h4.6v-2.9h-3.3v-5.2h7.7v.8h-6.7v3.6h6.8v.8h0Z"/>
        <path d="M584,247.7v-.9c-1.3-.1-2.2-.7-2.2-1.7s1.1-1.7,2.6-1.7,2.6.6,2.7,1.7c0,.9-.8,1.6-2.1,1.7v.8c1.1,0,2.1-.2,3.1-.3v.7c-2.3.5-5.1.5-7,.5v-.8c.8,0,1.8,0,2.9,0ZM587.7,242.9h-6.5v-.7h2.8v-1.1h1v1.1h2.8v.7h0ZM590.2,252.1h-7.6v-2.8h1v2h6.6v.8ZM582.7,245.2c0,.6.6,1,1.7,1s1.7-.4,1.7-1-.7-1-1.7-1-1.7.4-1.7,1ZM589.8,245h1.7v.8h-1.7v4h-1v-8.8h1v4Z"/>
        <path d="M601.5,247.9h-1v-1.5h-3v-.8h3v-1.5h-2.9c-.7,1.8-2.5,3.1-4.9,3.8l-.4-.8c2.7-.8,4.4-2.3,4.6-4.3h-4.1v-.8h5.1c0,.4,0,.9-.1,1.3h2.6v-2.1h1v6.8h0ZM601.6,250.1c0,1.4-1.5,2.2-3.8,2.2s-3.8-.8-3.8-2.2,1.5-2.2,3.8-2.2c2.3,0,3.8.8,3.8,2.2ZM595.1,250.1c0,.9,1.1,1.4,2.8,1.4s2.8-.5,2.8-1.4c0-.9-1.1-1.4-2.8-1.4-1.7,0-2.8.5-2.8,1.4Z"/>
        <path d="M610.8,251.8h-1v-5.5h-1.4c-.1,2.2-1,3.6-2.4,3.6s-2.4-1.5-2.4-3.9,1-3.9,2.4-3.9,2.3,1.3,2.4,3.5h1.5v-4.2h1v10.5h0ZM604.5,246c0,1.8.6,3,1.5,3,.9,0,1.5-1.1,1.5-3s-.6-3-1.5-3-1.5,1.1-1.5,3ZM613.1,252.4h-1v-11.3h1v11.3Z"/>
        <path d="M621.6,249l-.6.8c-1.3-.7-2.3-2-2.8-3.6-.5,1.7-1.6,3.1-2.8,3.8l-.6-.8c1.6-.8,3-3,3-5.1v-2.1h1v2.1c0,2,1.3,4.1,2.9,4.8ZM624,252.4h-1v-6.6h-2.7v-.8h2.7v-3.9h1v11.3Z"/>
        <path d="M555.2,266.4h-10.3v-.8h4v-4h1v4h5.3v.8h0ZM553.9,258.9c0,1.4,0,2.9-.4,5.2h-1c.4-2.3.4-3.9.4-5.2v-.3h-7v-.8h8v1.1Z"/>
        <path d="M561.8,259.4h-5.7v-.8h2.3v-1.6h1v1.6h2.3v.8h0ZM561.4,262.8c0,1.5-1,2.6-2.5,2.6s-2.4-1.1-2.4-2.6,1-2.6,2.4-2.6,2.4,1.1,2.5,2.6ZM557.4,262.8c0,1,.6,1.7,1.5,1.7.9,0,1.6-.7,1.6-1.7s-.7-1.7-1.6-1.7c-.9,0-1.5.7-1.5,1.7ZM565.7,268h-1v-5.7h-1.5v5.1h-.9v-10.4h.9v4.5h1.5v-4.8h1v11.3Z"/>
        <path d="M573.9,262l-.5.8c-1.3-.5-2.2-1.4-2.7-2.6-.5,1.3-1.5,2.4-2.8,2.9l-.5-.8c1.7-.6,2.8-2.1,2.8-3.9v-1.2h1v1.2c0,1.5,1.2,2.9,2.8,3.5ZM576.3,265.9c0,1.3-1.4,2.1-3.7,2.1s-3.7-.7-3.7-2.1,1.4-2,3.7-2,3.7.7,3.7,2ZM569.8,265.9c0,.8,1,1.3,2.7,1.3,1.7,0,2.8-.5,2.8-1.3s-1-1.2-2.8-1.2c-1.7,0-2.8.5-2.7,1.2ZM576.2,259.6h1.7v.8h-1.7v3.1h-1v-6.9h1v2.9Z"/>
        <path d="M587.7,262.8h-3.5v2.9h4.7v.8h-10.3v-.8h4.6v-2.9h-3.3v-5.2h7.7v.8h-6.7v3.6h6.8v.8h0Z"/>
        <path d="M597.1,261.9c1,0,2.1-.1,3.1-.3v.7c-2.3.4-5,.4-7,.4v-.8c.8,0,1.8,0,2.9,0v-1.3h1v1.2h0ZM599.6,258.4h-2.5c0,.9,1.2,1.7,2.8,1.9l-.4.7c-1.4-.2-2.4-.8-2.9-1.7-.5.9-1.6,1.5-2.9,1.8l-.4-.7c1.6-.3,2.7-1.1,2.8-2h-2.5v-.8h2.5v-1h1v1h2.5v.8h0ZM601.9,266h-6.3v1.1h6.8v.8h-7.8v-2.5h6.3v-1h-6.4v-.7h7.4v2.4h0ZM601.9,259.4h1.7v.8h-1.7v2.9h-1v-6.4h1v2.7Z"/>
        <path d="M609.7,258.3h3v-1.6h1v6.7h-1v-1.6h-2.9c-.5.6-1.3,1-2.3,1-1.7,0-2.9-1.1-2.9-2.7s1.2-2.7,2.9-2.7c1,0,1.8.4,2.3,1ZM605.4,260c0,1.1.8,1.8,2,1.8s2-.8,2-1.8-.8-1.8-2-1.8c-1.2,0-2,.7-2,1.8ZM613.7,265.8c0,1.4-1.4,2.2-3.8,2.2s-3.8-.8-3.8-2.2,1.4-2.1,3.8-2.1c2.3,0,3.8.8,3.8,2.1ZM607.1,265.8c0,.9,1.1,1.4,2.8,1.4s2.8-.5,2.8-1.4-1.1-1.4-2.8-1.4-2.8.5-2.8,1.4ZM610.3,260c0,.3,0,.6-.2.9h2.5v-1.8h-2.5c0,.3.2.6.2.9Z"/>
        <path d="M621.7,261.5c0,2.4-1.2,3.9-2.9,3.9s-2.9-1.5-2.9-3.9,1.2-3.9,2.9-3.9c1.7,0,2.9,1.5,2.9,3.9ZM616.9,261.5c0,1.8.8,3,1.9,3s1.9-1.2,1.9-3-.8-3-1.9-3c-1.1,0-1.9,1.2-1.9,3ZM624.9,268h-1v-11.3h1v11.3Z"/>
        <path d="M545.5,281.4l-.6-.8c2.9-1.5,4.5-3.6,4.7-6.3h-4.2v-.8h5.2c0,3.2-1.5,6.1-5.2,7.9ZM553.6,276.9h1.8v.8h-1.8v5.9h-1v-11.3h1v4.6Z"/>
        <path d="M566.4,278.4h-10.3v-.8h10.3v.8ZM565.1,281.5c0,1.3-1.5,2-3.9,2s-3.9-.7-3.9-2,1.5-2,3.9-2,3.9.7,3.9,2ZM565.2,276.3h-7.7v-3.8h1v2.9h6.7v.8ZM558.4,281.5c0,.8,1.1,1.3,2.9,1.3s2.9-.5,2.9-1.3-1.1-1.2-2.9-1.3c-1.8,0-2.9.5-2.9,1.3Z"/>
      </g>
    </g>
  </g>
  <g id="g-root-cp_2_g-2_ddkgze1wbkf0t-stroke">
    <g id="cp_2_g-2_ddkgze1wbkf0t-stroke">
      <path class="st1" d="M253.9,185.6"/>
    </g>
  </g>
  <g id="g-root-ic_dayt_1lsdzay1wbkfls-stroke">
    <g id="ic_dayt_1lsdzay1wbkfls-stroke">
      <path class="st0" d="M32.4,147.1h6.7v20.2h-6.7v-20.2ZM45.9,130.3h6.7v37.1h-6.7v-37.1ZM59.4,140.4h6.7v27h-6.7v-27ZM72.8,116.8h6.7v50.6h-6.7s0-50.6,0-50.6ZM86.3,130.3h6.7v37.1h-6.7v-37.1ZM99.8,103.3h6.7v64.1h-6.7v-64.1ZM32.4,89.8h74.2v6.7H32.4v-6.7Z"/>
    </g>
  </g>
  <g id="g-root-ic_shad_13zv0my1wblt6r-stroke">
    <g id="ic_shad_13zv0my1wblt6r-stroke">
      <path class="st0" d="M172.9,89.8c-1.1,0-2.1.5-2.8,1.4-.6.9-.8,2-.4,3.1l6,16.9c.5,1.3,1.8,2.2,3.2,2.2h39.1c1.4,0,2.7-.9,3.2-2.2l6-16.9c.4-1,.2-2.2-.4-3.1s-1.7-1.4-2.8-1.4h-51.1ZM183.3,113.4h30.3v13.5h-30.3v-13.5ZM186.7,160.6v3.4c0,1.9,1.5,3.4,3.4,3.4h16.9c1.9,0,3.4-1.5,3.4-3.4v-3.4h-23.6ZM183.3,133.6v16.9M193.4,133.6v16.9M203.6,133.6v16.9M213.7,133.6v16.9M180,126.9h37.1s3.4,0,3.4,3.4v27s0,3.4-3.4,3.4h-37.1s-3.4,0-3.4-3.4v-27s0-3.4,3.4-3.4"/>
    </g>
  </g>
  <g id="g-root-ic_temp_ddkgze1wblt6u-stroke">
    <g id="ic_temp_ddkgze1wblt6u-stroke">
      <path class="st0" d="M336.1,94.7c12.8,0,23.1,10.4,23.1,23.1M336.1,109.1c4.8,0,8.7,3.9,8.7,8.7M318.8,143.8v-40.5c0-2.3-.9-4.5-2.5-6.2-1.6-1.6-3.8-2.6-6.1-2.6h0c-4.8,0-8.7,3.9-8.7,8.7v40.5c-4.3,3.3-6.4,8.8-5.4,14.1,1,5.3,5,9.7,10.2,11.1,6.5,1.6,13.3-1.6,16.3-7.6,3-6,1.4-13.3-3.7-17.6Z"/>
    </g>
  </g>
  <g id="g-root-ic_2_4g21h61wbn94x-stroke">
    <g id="ic_2_4g21h61wbn94x-stroke">
      <path class="st0" d="M494.5,158c0,4.7-3.8,8.4-8.4,8.4h-59c-4.7,0-8.4-3.8-8.4-8.4s3.8-8.4,8.4-8.4h59c4.7,0,8.4,3.8,8.4,8.4ZM429.6,132.1h15.8c1.9,0,3.4,1.5,3.4,3.4v14h-22.6v-14c0-1.9,1.5-3.4,3.4-3.4ZM465.9,132.1h15.8c1.9,0,3.4,1.5,3.4,3.4v14h-22.6v-14c0-1.9,1.5-3.4,3.4-3.4ZM429.6,158c0,.9.8,1.7,1.7,1.7s1.7-.8,1.7-1.7-.8-1.7-1.7-1.7c-.9,0-1.7.8-1.7,1.7M446.5,158c0,.9.8,1.7,1.7,1.7s1.7-.8,1.7-1.7-.8-1.7-1.7-1.7c-.9,0-1.7.8-1.7,1.7M463.5,158c0,.9.8,1.7,1.7,1.7s1.7-.8,1.7-1.7-.8-1.7-1.7-1.7c-.9,0-1.7.8-1.7,1.7M480.3,158c0,.9.8,1.7,1.7,1.7s1.7-.8,1.7-1.7-.8-1.7-1.7-1.7c-.9,0-1.7.8-1.7,1.7M485.9,114.8h-24.7c-3.1,0-5.7-2.5-5.7-5.7s2.6-5.7,5.7-5.7h24.7M480.2,109.1c0,3.1,2.5,5.7,5.7,5.7s5.7-2.6,5.7-5.7c0-3.1-2.5-5.7-5.7-5.7-3.1,0-5.7,2.5-5.7,5.7M483.1,90.8l6.6,14M479.3,103.4l-5.8-12.6M446.1,109.1h9.5M434.7,103.4h11.4v11.4h-11.4v-11.4ZM440.4,114.8v9.5"/>
    </g>
  </g>
  <g id="g-root-ic_came_1d2zpx61wbn8r0-stroke">
    <g id="ic_came_1d2zpx61wbn8r0-stroke">
      <path class="st0" d="M587,163.7c0,2-1.6,3.6-3.6,3.6h-32.5c-2,0-3.6-1.6-3.6-3.6v-9c0-7.2,3.7-13.8,9.9-17.4,6.2-3.6,13.8-3.6,20,0,6.2,3.6,9.9,10.3,9.9,17.4v9ZM559.5,147.1c0,.5.4.8.8.8s.8-.4.8-.8-.4-.8-.8-.8-.8.4-.8.8M573,147.1c0,.5.4.8.8.8s.8-.4.8-.8-.4-.8-.8-.8-.8.4-.8.8M567.1,134.8v-7.2M561.7,122.2c0,3,2.4,5.4,5.4,5.4s5.4-2.4,5.4-5.4-2.4-5.4-5.4-5.4-5.4,2.4-5.4,5.4M547.3,158.3h39.7M581.4,115.4l-2.1-8.9c-.8-3.5,1.4-7,4.9-7.8l38.3-8.8c.7-.2,1.1.3,1,1l-.8,3.1c-.2.8-.8,1.4-1.5,1.9l-39.8,19.6ZM615.2,98.8l2.5,11c.3,1.4-.6,2.8-2,3.1l-25.5,5.9c-1.3.3-2.7.1-3.9-.6-1.2-.7-2-1.9-2.3-3.2l-.2-.8M622.8,101.9l1.2,5.1M597.9,117l1.3,5.7c.3,1.2-.3,2.4-1.3,2.9l-13.9,7.1"/>
    </g>
  </g>
  <line class="st1" x1="10.5" y1="192.3" x2="124.7" y2="192.3"/>
  <line class="st1" x1="140.8" y1="192.3" x2="255" y2="192.3"/>
  <line class="st1" x1="269.8" y1="192.3" x2="384" y2="192.3"/>
  <line class="st1" x1="398.8" y1="192.3" x2="513" y2="192.3"/>
  <line class="st1" x1="527.8" y1="192.3" x2="642" y2="192.3"/>
</svg>