<?xml version="1.0" encoding="utf-8"?>
<!-- Generator: Adobe Illustrator 16.0.0, SVG Export Plug-In . SVG Version: 6.00 Build 0)  -->
<!DOCTYPE svg PUBLIC "-//W3C//DTD SVG 1.1//EN" "http://www.w3.org/Graphics/SVG/1.1/DTD/svg11.dtd">
<svg version="1.1" id="Layer_1" xmlns="http://www.w3.org/2000/svg" xmlns:xlink="http://www.w3.org/1999/xlink" x="0px" y="0px"
	 width="900px" height="566px" viewBox="0 0 900 566" enable-background="new 0 0 900 566" xml:space="preserve">
<g id="items">
	<g id="blend">
		<g id="g-root-sy_-1_Vector_1cy15jx7tr4zw-fill" transform="translate(134, 128)">
		</g>
		<g id="g-root-cp_1_lines-1_1cy15jx7tr4zx-fill" transform="translate(38, 170)">
			<g id="cp_1_lines-1_1cy15jx7tr4zx-fill">
				<g>
					<path fill="#E3FFF2" d="M-32.878-42.028h178.176v343.625H-32.878V-42.028z"/>
				</g>
			</g>
		</g>
		<g id="g-root-cp_2_lines-2_18i7nfh7tr5s7-fill" transform="translate(206, 170)">
			<g id="cp_2_lines-2_18i7nfh7tr5s7-fill">
				<g>
					<path fill="#FFF2E5" d="M-22.704-42.028h178.176v343.625H-22.704V-42.028z"/>
				</g>
			</g>
		</g>
		<g id="g-root-cp_3_lines-3_18i7nfh7tr5s9-fill" transform="translate(374, 170)">
			<g id="cp_3_lines-3_18i7nfh7tr5s9-fill">
				<g>
					<path fill="#FFECEB" d="M-12.527-42.028h178.176v343.625H-12.527V-42.028z"/>
				</g>
			</g>
		</g>
		<g id="g-root-cp_4_lines-4_1430me57tr3er-fill" transform="translate(542, 170)">
			<g id="cp_4_lines-4_1430me57tr3er-fill">
				<g>
					<path fill="#F3F0FF" d="M-2.352-42.028h178.176v343.625H-2.352V-42.028z"/>
				</g>
			</g>
		</g>
		<g id="g-root-cp_5_lines-5_1430me57tr3et-fill" transform="translate(710, 170)">
			<g id="cp_5_lines-5_1430me57tr3et-fill">
				<g>
					<path fill="#FAF0FF" d="M7.824-42.028H186v343.625H7.824V-42.028z"/>
				</g>
			</g>
		</g>
		<g id="g-root-tx__v7dm597tr47j-fill" transform="translate(152, 38)">
			<g id="tx__v7dm597tr47j-fill">
				<g>
					<g enable-background="new    ">
						<path fill="#484848" d="M27.642-21.224h-3.535c0.02,2.1,1.27,4.248,4.082,5.176l-1.23,1.914
							c-1.973-0.625-3.32-1.914-4.082-3.516c-0.801,1.777-2.217,3.213-4.316,3.887l-1.27-1.973c2.92-0.938,4.248-3.271,4.277-5.488
							h-3.574v-1.972h9.648V-21.224z M32.369-6.419h-2.48v-4.414h-9.727v-1.992h12.207V-6.419z M32.369-13.607h-2.48v-4.277h-2.754
							v-2.031h2.754v-4.277h2.48V-13.607z"/>
						<path fill="#484848" d="M45.356-18.782c0,2.168-1.514,3.789-3.691,4.238v2.383c1.504-0.078,3.018-0.215,4.453-0.41
							l0.195,1.797c-3.945,0.742-8.164,0.781-11.27,0.781l-0.293-2.012c1.309,0,2.832-0.01,4.434-0.059v-2.5
							c-2.168-0.439-3.691-2.061-3.691-4.219c0-2.559,2.129-4.355,4.941-4.355S45.356-21.341,45.356-18.782z M37.974-18.782
							c-0.02,1.387,1.055,2.227,2.461,2.227c1.426,0,2.48-0.84,2.5-2.227c-0.02-1.426-1.094-2.227-2.5-2.227
							C39.028-21.009,37.955-20.208,37.974-18.782z M49.615-6.38h-2.48v-17.813h2.48V-6.38z"/>
						<path fill="#484848" d="M62.681-15.618l-1.348,1.953c-1.885-0.693-3.184-2.002-3.926-3.652
							c-0.771,1.855-2.158,3.32-4.219,4.063l-1.348-1.953c2.969-0.977,4.258-3.418,4.258-5.957v-1.934h2.52v1.953
							C58.619-18.841,59.849-16.556,62.681-15.618z M67.31-6.732H55.103v-5.703h2.52v3.711h9.688L67.31-6.732L67.31-6.732z
							 M66.938-11.048h-2.48v-7.344h-3.34v-2.012h3.34v-3.77h2.48V-11.048z"/>
						<path fill="#484848" d="M90.063-13.099H73.853v-1.953h16.211V-13.099z M89.224-21.107h-14.59v-1.855h6.074v-1.387h2.5v1.387
							h6.016V-21.107z M78.208-11.302h7.402v-1.094h2.5v5.781H75.748v-5.781h2.461L78.208-11.302L78.208-11.302z M87.935-18.216
							c0,1.621-2.129,2.461-5.977,2.461c-3.867,0-5.996-0.84-5.977-2.461c-0.02-1.641,2.109-2.48,5.977-2.48
							C85.806-20.696,87.935-19.857,87.935-18.216z M85.61-8.45v-1.055h-7.402v1.055H85.61z M78.677-18.216
							c-0.02,0.586,0.996,0.82,3.281,0.82c2.266,0,3.301-0.234,3.301-0.82c0-0.566-1.035-0.801-3.301-0.82
							C79.672-19.017,78.658-18.782,78.677-18.216z"/>
						<path fill="#484848" d="M107.349-12.493h-6.914v6.074h-2.461v-6.074h-6.836v-2.031h16.211V-12.493z M106.783-17.884
							l-0.977,2.012c-3.105-0.449-5.381-1.885-6.543-3.809c-1.172,1.924-3.428,3.359-6.504,3.809l-0.996-2.012
							c4.043-0.508,6.191-2.832,6.191-4.922v-0.859h2.617v0.859C100.571-20.716,102.701-18.392,106.783-17.884z"/>
						<path fill="#484848" d="M129.243-13.001h-16.25v-1.953h16.25V-13.001z M127.25-6.419h-2.52v-3.438h-9.902v-1.973h12.422
							V-6.419z M127.504-16.068h-12.48v-7.734h12.324v1.934h-9.824v0.996h9.414v1.836h-9.414v1.074h9.98V-16.068z"/>
						<path fill="#484848" d="M141.099-16.321l-1.31,1.953c-1.913-0.664-3.213-1.895-3.944-3.496
							c-0.801,1.855-2.236,3.32-4.375,4.043l-1.31-1.992c3.047-0.977,4.336-3.359,4.355-5.84v-1.621h2.52v1.504
							C137.017-19.388,138.248-17.2,141.099-16.321z M145.356-9.857c-0.02,2.188-2.344,3.438-6.133,3.438s-6.113-1.25-6.113-3.438
							s2.324-3.457,6.113-3.457S145.337-12.044,145.356-9.857z M135.591-9.857c0,0.977,1.27,1.504,3.633,1.504
							s3.652-0.527,3.652-1.504c0-1.016-1.289-1.523-3.652-1.523S135.591-10.872,135.591-9.857z M145.298-13.782h-2.48v-5.117h-3.34
							v-2.031h3.34v-3.262h2.48V-13.782z"/>
						<path fill="#484848" d="M163.813-15.052h-16.211v-1.973h16.211V-15.052z M162.173-20.911
							c-0.021,1.973-2.384,3.047-6.465,3.047c-4.103,0-6.484-1.074-6.484-3.047c0-1.953,2.383-3.027,6.484-3.027
							C159.789-23.939,162.153-22.864,162.173-20.911z M161.841-9.486h-9.902v1.074h10.371v1.875h-12.813v-4.688h9.884v-0.977
							h-9.902v-1.816h12.363V-9.486z M151.841-20.911c-0.021,0.879,1.25,1.211,3.867,1.211c2.637,0,3.887-0.332,3.887-1.211
							c0-0.781-1.25-1.211-3.887-1.211C153.091-22.122,151.821-21.693,151.841-20.911z"/>
						<path fill="#484848" d="M185.708-13.079h-16.25v-1.953h6.875v-1.094h-4.845v-7.637h12.324v1.914h-9.824v0.996h9.414v1.797
							h-9.414v1.016h9.98v1.914h-5.137v1.094h6.875L185.708-13.079L185.708-13.079z M183.774-9.349
							c-0.02,1.914-2.266,2.93-6.19,2.93c-3.984,0-6.23-1.016-6.23-2.93c0-1.875,2.246-2.93,6.23-2.91
							C181.509-12.278,183.755-11.224,183.774-9.349z M173.853-9.349c-0.02,0.762,1.172,1.094,3.73,1.094
							c2.5,0,3.672-0.332,3.69-1.094c-0.02-0.742-1.19-1.074-3.69-1.074C175.024-10.423,173.833-10.091,173.853-9.349z"/>
						<path fill="#484848" d="M197.329-20.345h-10.547v-1.973h4.043v-1.895h2.48v1.895h4.022L197.329-20.345L197.329-20.345z
							 M196.431-16.282c0,2.051-1.797,3.398-4.375,3.398c-2.599,0-4.414-1.348-4.414-3.398c0-2.05,1.815-3.438,4.414-3.438
							C194.634-19.72,196.431-18.333,196.431-16.282z M201.528-6.732H189.36v-5.195h2.48v3.203h9.688V-6.732z M190.083-16.282
							c-0.021,0.977,0.78,1.504,1.973,1.504s2.012-0.527,2.012-1.504s-0.819-1.523-2.012-1.543
							C190.864-17.806,190.063-17.259,190.083-16.282z M200.884-18.724h2.401v2.031h-2.401v5.781h-2.5v-13.261h2.5V-18.724z"/>
						<path fill="#484848" d="M209.888-9.525l-1.406-1.914c4.209-2.109,6.465-4.941,6.935-8.906h-5.918v-2.031h8.456
							C217.935-17.064,215.864-12.454,209.888-9.525z M222.7-17.376h2.521v2.051H222.7v8.867h-2.5v-17.735h2.5V-17.376z"/>
						<path fill="#484848" d="M242.231-8.607h-16.27v-2.051h16.27V-8.607z M241.646-15.775l-1.094,2.07
							c-3.097-0.615-5.4-2.354-6.543-4.648c-1.183,2.275-3.486,4.023-6.563,4.648l-1.074-2.07c3.945-0.703,6.271-3.496,6.289-6.074
							v-1.289h2.656v1.289C235.317-19.251,237.623-16.458,241.646-15.775z"/>
						<path fill="#484848" d="M264.126-12.571h-6.974v6.152h-2.5v-6.152h-6.797v-2.031h16.271V-12.571z M262.407-16.634h-12.539
							v-6.758h2.5v4.766h10.039V-16.634z"/>
						<path fill="#484848" d="M281.313-14.798h-6.836v1.113h4.902v4.336h-9.902v0.977h10.371v1.836h-12.813v-4.492h9.884v-0.879
							h-9.902v-1.777h4.979v-1.113h-6.815v-1.816h16.133V-14.798z M274.457-22.806h5.332v1.836h-5.02
							c0.488,1.035,2.305,1.885,5.898,2.031l-0.724,1.836c-3.301-0.156-5.586-0.996-6.719-2.344
							c-1.123,1.348-3.418,2.188-6.738,2.344l-0.684-1.836c3.563-0.146,5.371-0.996,5.879-2.031h-4.98v-1.836h5.294v-1.406h2.461
							V-22.806L274.457-22.806z"/>
						<path fill="#484848" d="M298.442-12.357l-1.465,1.992c-2.031-0.918-3.438-2.686-4.238-4.883
							c-0.811,2.393-2.266,4.326-4.434,5.313l-1.504-2.07c3.104-1.309,4.608-4.707,4.629-8.164v-2.656h2.52v2.656
							C293.95-16.907,295.435-13.626,298.442-12.357z M301.919-6.38h-2.521v-17.813h2.521V-6.38z"/>
						<path fill="#484848" d="M305.103-13.9l-1.035-1.895c4.053-1.016,6.279-3.027,6.66-5.43h-5.723v-1.971h8.418
							C313.423-18.45,310.435-15.247,305.103-13.9z M318.423-6.419h-2.5v-4.746h-9.474v-1.992h11.974V-6.419z M318.423-20.032h2.401
							v2.07h-2.401v4.102h-2.5v-10.333h2.5V-20.032z"/>
						<path fill="#484848" d="M325.786-11.478v-1.523c-1.895-0.371-3.125-1.572-3.104-3.223c-0.021-1.992,1.777-3.34,4.375-3.34
							c2.539,0,4.354,1.348,4.375,3.34c-0.021,1.65-1.271,2.861-3.146,3.223v1.426c1.406-0.068,2.822-0.186,4.142-0.371l0.156,1.816
							c-3.789,0.703-7.853,0.723-10.859,0.723l-0.332-2.031C322.69-11.439,324.205-11.439,325.786-11.478z M332.289-20.267h-10.547
							v-1.953h4.043v-1.875h2.5v1.875h4.004V-20.267z M325.044-16.224c-0.021,0.938,0.801,1.445,2.012,1.445
							c1.172,0,1.973-0.508,1.973-1.445c0-0.918-0.801-1.445-1.973-1.445C325.845-17.669,325.024-17.142,325.044-16.224z
							 M335.825-16.966h2.324v2.07h-2.324v8.477h-2.52v-17.774h2.52V-16.966z"/>
						<path fill="#484848" d="M340.962-4.095h-2.07l0.977-5.566h2.773L340.962-4.095z"/>
						<path fill="#484848" d="M358.745-20.56h-1.581v7.754c0.723-0.059,1.426-0.127,2.108-0.215l0.137,1.797
							c-3.633,0.645-7.715,0.703-10.762,0.723l-0.272-2.031l2.03-0.02v-8.008h-1.582v-1.992h9.922V-20.56z M354.761-12.669v-7.891
							h-1.953v7.969L354.761-12.669z M362.632-17.435h2.616v2.031h-2.616v8.984h-2.5v-17.773h2.5V-17.435z"/>
						<path fill="#484848" d="M375.991-21.009h-3.534c0.02,2.07,1.26,4.072,4.102,4.902l-1.191,1.953
							c-1.963-0.596-3.319-1.787-4.102-3.32c-0.791,1.797-2.236,3.223-4.375,3.926l-1.271-1.973
							c2.949-0.928,4.277-3.232,4.316-5.488h-3.633v-1.992h9.688V-21.009z M380.171-9.876c0,2.168-2.306,3.457-5.996,3.457
							c-3.771,0-6.095-1.289-6.095-3.457s2.324-3.438,6.095-3.418C377.866-13.314,380.171-12.044,380.171-9.876z M370.582-9.876
							c-0.021,1.016,1.25,1.523,3.594,1.523c2.305,0,3.535-0.508,3.535-1.523c0-0.996-1.23-1.484-3.535-1.484
							C371.832-11.361,370.562-10.872,370.582-9.876z M379.995-20.071h2.402v2.031h-2.402v4.395h-2.5v-10.548h2.5V-20.071z"/>
						<path fill="#484848" d="M394.878-7.239h-2.345v-8.398h-1.426c-0.234,3.496-1.719,5.605-3.906,5.605
							c-2.344,0-3.866-2.461-3.866-6.465c0-3.984,1.522-6.426,3.866-6.426c2.14,0,3.604,1.992,3.888,5.313h1.444v-6.328h2.345
							V-7.239z M385.64-16.497c-0.021,2.734,0.565,4.082,1.563,4.063c1.017,0.02,1.621-1.328,1.621-4.063
							c0-2.715-0.604-4.082-1.621-4.082C386.207-20.579,385.62-19.212,385.64-16.497z M398.589-6.419h-2.384v-17.774h2.384V-6.419z"
							/>
						<path fill="#484848" d="M410.054-20.423h-2.129v7.559c0.723-0.029,1.426-0.107,2.227-0.254l0.195,2.051
							c-1.465,0.254-2.617,0.293-4.023,0.273h-0.897v-11.621h4.629L410.054-20.423L410.054-20.423z M415.776-20.423h-2.344v7.578
							c1.074-0.029,1.797-0.107,2.598-0.313l0.195,2.051c-1.211,0.293-2.207,0.332-4.316,0.313h-0.938v-11.621h4.805V-20.423z
							 M419.448-17.552h2.148v2.09h-2.148v9.043h-2.479v-17.832h2.479V-17.552z"/>
						<path fill="#484848" d="M438.608-12.591h-16.27v-1.992h16.27V-12.591z M436.636-18.88h-9.785v1.27h10.117v1.875H424.37v-4.922
							h9.767v-1.211h-9.805v-1.914h12.305L436.636-18.88L436.636-18.88z M437.026-6.732H424.39v-4.883h2.5v2.891h10.137V-6.732z"/>
						<path fill="#484848" d="M445.054-13.861l-0.996-1.973c3.984-0.986,6.182-2.959,6.602-5.332h-5.723v-1.992h8.438
							C453.354-18.45,450.386-15.267,445.054-13.861z M458.354-6.634h-11.621v-6.953h11.621V-6.634z M449.214-8.587h6.68v-2.988
							h-6.68V-8.587z M458.354-20.306h2.402v2.051h-2.402v4.004h-2.5v-9.941h2.5V-20.306z"/>
						<path fill="#484848" d="M472.886-12.161l-1.349,1.953c-2.1-0.889-3.545-2.656-4.336-4.824
							c-0.811,2.354-2.284,4.307-4.375,5.273l-1.426-1.973c2.949-1.309,4.473-4.609,4.473-7.617v-1.094h-3.77v-2.031h10.039v2.031
							h-3.711v1.094C468.433-16.478,469.897-13.411,472.886-12.161z M476.421-6.419H473.9v-17.774h2.521V-6.419z"/>
						<path fill="#484848" d="M499.683-14.193h-16.25v-2.031h16.25V-14.193z M497.71-9.778c-0.021,2.109-2.345,3.301-6.191,3.301
							c-3.887,0-6.23-1.191-6.23-3.301c0-2.09,2.345-3.281,6.23-3.301C495.366-13.06,497.69-11.868,497.71-9.778z M497.847-17.747
							h-12.363v-6.172h2.48v4.18h9.883V-17.747z M487.827-9.778c-0.02,0.918,1.23,1.406,3.691,1.406
							c2.402,0,3.672-0.488,3.691-1.406c-0.021-0.938-1.289-1.348-3.691-1.367C489.058-11.126,487.808-10.716,487.827-9.778z"/>
						<path fill="#484848" d="M509.253-17.611h-5.371v1.895c2.646,0,4.209-0.088,6.016-0.43l0.234,1.992
							c-2.07,0.371-3.945,0.43-7.383,0.43h-1.328v-5.742h5.332v-1.738h-5.371v-1.953h7.871V-17.611z M515.698-6.419h-2.479v-4.023
							h-9.767v-1.992h12.246V-6.419z M515.698-13.236h-2.479v-2.734h-2.949v-1.973h2.949v-1.797h-2.949v-1.973h2.949v-2.461h2.479
							V-13.236z"/>
						<path fill="#484848" d="M533.179-11.907l-1.388,1.875c-1.895-0.85-3.213-2.529-3.965-4.512
							c-0.762,2.139-2.168,3.945-4.18,4.824l-1.367-1.934c2.892-1.27,4.277-4.297,4.297-6.973v-0.684h-3.672v-1.992h3.652v-2.5h2.5
							v2.5h3.613v1.992h-3.634v0.684C529.039-16.107,530.347-13.236,533.179-11.907z M536.636-17.298h2.617v2.09h-2.617v8.789h-2.5
							v-17.774h2.5V-17.298z"/>
						<path fill="#484848" d="M554.878-15.052h-2.48v-1.777h-3.281v1.27h-8.457v-7.871h2.5v2.07h3.496v-2.07h2.461v1.504h3.281
							v-2.266h2.48V-15.052z M554.878-9.642h-9.316v1.074h9.844v1.953h-12.344v-4.844h9.336v-1.016h-9.354v-1.914h11.836
							L554.878-9.642L554.878-9.642z M546.655-17.513v-1.953h-3.496v1.953H546.655z M552.397-18.704v-1.367h-3.281v1.367H552.397z"
							/>
						<path fill="#484848" d="M561.362-11.478v-1.523c-1.895-0.371-3.125-1.572-3.104-3.223c-0.021-1.992,1.776-3.34,4.375-3.34
							c2.539,0,4.354,1.348,4.375,3.34c-0.021,1.65-1.271,2.861-3.146,3.223v1.426c1.406-0.068,2.822-0.186,4.142-0.371l0.155,1.816
							c-3.789,0.703-7.852,0.723-10.858,0.723l-0.332-2.031C558.267-11.439,559.78-11.439,561.362-11.478z M567.866-20.267h-10.547
							v-1.953h4.043v-1.875h2.5v1.875h4.004V-20.267L567.866-20.267z M560.62-16.224c-0.02,0.938,0.802,1.445,2.013,1.445
							c1.172,0,1.973-0.508,1.973-1.445c0-0.918-0.801-1.445-1.973-1.445C561.421-17.669,560.601-17.142,560.62-16.224z
							 M571.401-16.966h2.324v2.07h-2.324v8.477h-2.52v-17.774h2.52V-16.966z"/>
						<path fill="#484848" d="M575.132-9.681c-0.021-0.898,0.723-1.621,1.641-1.621c0.859,0,1.621,0.723,1.621,1.621
							s-0.762,1.641-1.621,1.641C575.854-8.04,575.112-8.782,575.132-9.681z"/>
					</g>
				</g>
			</g>
		</g>
		<g id="g-root-tx__qrk40t7tr4zs-fill" transform="translate(38, 116)">
			<g id="tx__qrk40t7tr4zs-fill">
				<g>
					<g enable-background="new    ">
						<path fill="#484848" d="M8.354-19.794l-0.703,0.85c-1.282-0.77-2.19-2.176-2.637-3.838c-0.476,1.795-1.421,3.325-2.725,4.146
							L1.557-19.5c1.816-1.084,2.871-3.457,2.871-5.83v-1.229H1.922v-0.952h6.006v0.952H5.541v1.229
							C5.541-23.075,6.552-20.834,8.354-19.794z M10.213-16.703H9.129v-6.709H6.933v-0.938h2.197v-4.38h1.084V-16.703z
							 M12.851-16.029h-1.099v-13.023h1.099V-16.029z"/>
						<path fill="#484848" d="M22.475-26.503H14.71v-0.938h3.311v-1.597h1.143v1.597h3.311L22.475-26.503L22.475-26.503z
							 M21.728-23.354c-0.015,1.465-1.274,2.402-3.135,2.402c-1.875,0-3.149-0.938-3.135-2.402c-0.015-1.479,1.26-2.432,3.135-2.432
							C20.454-25.785,21.712-24.833,21.728-23.354z M16.557-23.354c-0.015,0.923,0.806,1.509,2.036,1.494
							c1.216,0.015,2.036-0.571,2.051-1.494c-0.015-0.923-0.835-1.523-2.051-1.523C17.362-24.877,16.542-24.277,16.557-23.354z
							 M25.462-16.308h-8.745v-3.75h1.128v2.783h7.617V-16.308z M24.862-24.745h1.963v0.967h-1.963v4.497H23.72v-9.756h1.143
							V-24.745z"/>
						<path fill="#484848" d="M35.219-23.837h-2.637v1.816c1.216-0.051,2.432-0.139,3.56-0.264l0.088,0.85
							c-2.798,0.381-5.903,0.469-8.35,0.469l-0.176-0.938c1.143-0.008,2.424-0.021,3.735-0.073v-1.86h-2.548v-4.365h6.226v0.952
							h-5.068v2.476h5.171L35.219-23.837L35.219-23.837z M38.808-16.308h-8.877v-3.662h1.143v2.695h7.734V-16.308z M38.382-19.296
							h-1.157v-9.741h1.157V-19.296z"/>
						<path fill="#484848" d="M46.176-26.225h3.633v-2.08h1.128v2.563h3.076v-3.311h1.157v7.559h-1.157v-3.281h-3.076v2.549h-5.903
							v-6.079h1.143L46.176-26.225L46.176-26.225z M49.809-23.163v-2.139h-3.633v2.139H49.809z M55.169-16.205h-8.511v-4.644h8.511
							V-16.205z M47.802-17.143h6.24v-2.783h-6.24V-17.143z"/>
						<path fill="#484848" d="M65.996-22.445l0.073,0.864c-1.245,0.227-2.542,0.366-3.794,0.439v4.717h-1.143v-4.644
							c-1.326,0.059-2.578,0.065-3.662,0.073l-0.161-0.98C59.754-21.977,63.095-22.021,65.996-22.445z M64.97-25.756
							c0,1.582-1.392,2.681-3.34,2.666c-1.948,0.015-3.34-1.084-3.34-2.666c0-1.597,1.392-2.666,3.34-2.651
							C63.579-28.422,64.97-27.353,64.97-25.756z M59.417-25.756c-0.015,1.025,0.908,1.729,2.212,1.714
							c1.318,0.015,2.241-0.688,2.241-1.714c0-1.011-0.923-1.729-2.241-1.714C60.327-27.485,59.403-26.767,59.417-25.756z
							 M68.076-16.015h-1.128v-13.022h1.128V-16.015z"/>
					</g>
				</g>
			</g>
		</g>
		<g id="g-root-tx__mbqlwd7tr5s1-fill" transform="translate(806, 116)">
			<g id="tx__mbqlwd7tr5s1-fill">
				<g>
					<g enable-background="new    ">
						<path fill="#484848" d="M4.562-23.749c2.036-0.008,3.757-0.109,5.654-0.498l0.176,0.967c-2.051,0.396-3.823,0.498-5.991,0.498
							H3.404v-5.596h1.157V-23.749z M8.429-18.505H5.366v1.421c1.414-0.007,2.248-0.036,3.354-0.22l0.103,0.879
							c-1.216,0.22-2.168,0.249-3.911,0.249H4.238v-3.179h3.076v-1.23H4.21v-0.879h4.219V-18.505z M13.424-22.109h-1.157v-3.809
							h-3.75v-0.952h3.75v-2.183h1.157V-22.109z M10.289-19.911h2.08v-1.714h1.056v5.449H9.235v-5.449h1.056v1.714H10.289z
							 M12.369-17.099v-1.904h-2.08v1.904H12.369z"/>
						<path fill="#484848" d="M27.457-21.244H15.592v-0.938h11.865V-21.244z M26.123-26.005c0,1.626-1.802,2.593-4.6,2.593
							c-2.827,0-4.614-0.967-4.614-2.593s1.787-2.593,4.614-2.578C24.322-28.598,26.123-27.631,26.123-26.005z M26.139-16.308H17.13
							v-3.794h1.156v2.827h7.853V-16.308z M18.097-26.005c-0.015,1.025,1.333,1.655,3.428,1.655c2.08,0,3.428-0.63,3.428-1.655
							s-1.348-1.655-3.428-1.655C19.43-27.66,18.082-27.03,18.097-26.005z"/>
						<path fill="#484848" d="M34.123-26.225h3.633v-2.08h1.128v2.563h3.076v-3.311h1.156v7.559H41.96v-3.281h-3.076v2.549H32.98
							v-6.079h1.143V-26.225L34.123-26.225z M37.755-23.163v-2.139h-3.634v2.139H37.755z M43.116-16.205h-8.511v-4.644h8.511
							V-16.205z M35.748-17.143h6.24v-2.783h-6.24V-17.143z"/>
						<path fill="#484848" d="M53.941-22.445l0.073,0.864c-1.245,0.227-2.542,0.366-3.794,0.439v4.717h-1.144v-4.644
							c-1.325,0.059-2.577,0.065-3.661,0.073l-0.161-0.98C47.701-21.977,51.041-22.021,53.941-22.445z M52.916-25.756
							c0,1.582-1.393,2.681-3.341,2.666c-1.947,0.015-3.34-1.084-3.34-2.666c0-1.597,1.393-2.666,3.34-2.651
							C51.524-28.422,52.916-27.353,52.916-25.756z M47.364-25.756c-0.015,1.025,0.908,1.729,2.212,1.714
							c1.318,0.015,2.241-0.688,2.241-1.714c0-1.011-0.923-1.729-2.241-1.714C48.272-27.485,47.35-26.767,47.364-25.756z
							 M56.021-16.015h-1.128v-13.022h1.128V-16.015z"/>
					</g>
				</g>
			</g>
		</g>
		<g id="g-root-tx__dgq2ql7tr3ey-fill" transform="translate(50, 554)">
			<g id="tx__dgq2ql7tr3ey-fill">
				<g>
					<g enable-background="new    ">
						<path fill="#484848" d="M5.243-17.673h-5.391v4.644h-1.128v-4.644h-5.347v-0.952H5.242L5.243-17.673L5.243-17.673z
							 M4.54-20.646l-0.425,0.907c-2.036-0.345-4.014-1.429-4.805-3.003c-0.791,1.574-2.776,2.658-4.775,3.003l-0.454-0.907
							c2.256-0.337,4.585-1.816,4.585-3.561v-0.088h-4.175v-0.938h9.624v0.938h-4.16v0.088C-0.061-22.463,2.269-20.983,4.54-20.646z
							"/>
						<path fill="#484848" d="M18.266-14.641H6.342v-0.967h5.361v-2.461H7.835v-4.015h7.793v-2.051H7.807v-0.952h8.95v3.94H8.979
							v2.124h8.086v0.951h-4.234v2.462h5.435V-14.641z"/>
						<path fill="#484848" d="M28.534-21.13h1.978v-4.644h1.099v12.085h-1.099v-6.489h-1.978v3.646h-4.98v-7.998h4.98V-21.13z
							 M24.638-17.453h2.813v-6.152h-2.813V-17.453z M34.231-13.029h-1.113v-13.022h1.113V-13.029z"/>
						<path fill="#484848" d="M42.641-24.074h-4.849v1.847h4.6v0.952h-4.6v1.947c2.563-0.015,3.992-0.081,5.698-0.381l0.132,0.923
							c-1.802,0.337-3.296,0.396-5.991,0.396h-0.981v-6.606h5.991V-24.074z M46.814-13.308h-8.745v-3.97h1.128v3.003h7.617V-13.308z
							 M46.214-21.994h1.963v0.968h-1.963v4.613h-1.143v-9.639h1.143V-21.994z"/>
						<path fill="#484848" d="M64.686-17.775h-5.449v4.745h-1.143v-4.745h-5.332v-0.968h11.924V-17.775z M63.279-20.705h-8.979
							v-4.673h1.143v3.721h7.837v0.952H63.279z"/>
						<path fill="#484848" d="M77.592-19.357h-5.376v1.216h3.853v2.813h-7.734v1.274h8.13v0.879H67.19v-2.974h7.749v-1.128h-7.778
							v-0.864h3.926v-1.216h-5.347v-0.895h11.851V-19.357z M72.215-24.909h4.175v0.908h-4.087c0.212,1.297,2.249,2.117,4.644,2.271
							l-0.352,0.879c-2.175-0.184-4.138-0.856-4.937-2.096c-0.798,1.238-2.761,1.912-4.951,2.096l-0.337-0.879
							c2.38-0.153,4.417-0.975,4.644-2.271h-4.058v-0.908h4.131v-1.216h1.128V-24.909z"/>
						<path fill="#484848" d="M90.556-19.475H78.689v-0.938h11.865L90.556-19.475L90.556-19.475z M89.223-23.576
							c0,1.479-1.699,2.271-4.6,2.285c-2.9-0.015-4.614-0.806-4.614-2.285c0-1.449,1.714-2.24,4.614-2.24
							S89.223-25.026,89.223-23.576z M89.032-15.432h-7.734v1.348h8.13v0.908h-9.272v-3.105h7.749v-1.187h-7.778v-0.879h8.906
							L89.032-15.432L89.032-15.432z M81.209-23.576c-0.015,0.908,1.245,1.406,3.413,1.406c2.153,0,3.428-0.498,3.428-1.406
							c0-0.85-1.274-1.377-3.428-1.377C82.455-24.953,81.194-24.426,81.209-23.576z"/>
						<path fill="#484848" d="M8.667-0.522L8.198-1.446c3.208-0.863,5.164-2.601,5.405-4.805H8.784v-0.952h6.05
							C14.818-3.921,12.519-1.577,8.667-0.522z M18.394,4.795h-8.247v-4.849h8.247V4.795z M11.289,3.857h5.962V0.898h-5.962V3.857z
							 M18.394-4.858h1.963v0.951h-1.963v3.252H17.25v-7.396h1.143V-4.858z"/>
						<path fill="#484848" d="M29.365,1.235L28.72,2.144c-1.523-0.695-2.842-2.197-3.442-3.999c-0.615,1.91-1.926,3.573-3.413,4.32
							l-0.688-0.907c1.86-0.895,3.486-3.354,3.501-5.61v-1.699h-3.076v-0.952h7.339v0.952h-3.105v1.699
							C25.834-1.841,27.445,0.4,29.365,1.235z M31.914,4.971h-1.157V-8.052h1.157V4.971z"/>
						<path fill="#484848" d="M45.698-5.752h-7.764v-0.952h3.311v-1.465h1.143v1.465h3.311L45.698-5.752L45.698-5.752z
							 M44.951-2.866c-0.015,1.393-1.26,2.285-3.135,2.285c-1.89,0-3.149-0.894-3.135-2.285c-0.015-1.392,1.245-2.284,3.135-2.284
							C43.69-5.151,44.936-4.258,44.951-2.866z M39.779-2.866c-0.015,0.851,0.806,1.406,2.036,1.406
							c1.216,0,2.036-0.557,2.051-1.406c-0.015-0.835-0.835-1.405-2.051-1.392C40.585-4.272,39.766-3.701,39.779-2.866z
							 M40.996,1.484h5.947V0.092h1.143v4.702h-8.232V0.092h1.143L40.996,1.484L40.996,1.484z M46.942,3.872V2.394h-5.947v1.479
							H46.942z M48.085-4.712h1.963v0.981h-1.963v3.252h-1.143v-7.573h1.143V-4.712z"/>
						<path fill="#484848" d="M52.847,0.62c1.985-0.008,4.043-0.168,6.226-0.63l0.161,0.98c-2.314,0.483-4.38,0.646-6.46,0.646
							h-1.055v-8.379h1.128V0.62z M61.605,4.971h-1.143V-8.052h1.143V4.971z"/>
						<path fill="#484848" d="M70.482-5.825h-4.937v6.593c2.358,0,4.028-0.109,5.962-0.47l0.146,0.996
							c-2.036,0.366-3.75,0.439-6.226,0.439h-1.025v-8.511h6.079L70.482-5.825L70.482-5.825z M73.911-2.896h2.183v0.967h-2.183V5
							h-1.143V-8.052h1.143V-2.896z"/>
						<path fill="#484848" d="M77.235,2.92c-0.015-0.513,0.425-0.938,0.938-0.938c0.513,0,0.938,0.425,0.938,0.938
							c0,0.527-0.425,0.952-0.938,0.952C77.661,3.872,77.222,3.447,77.235,2.92z"/>
					</g>
				</g>
			</g>
		</g>
		<g id="g-root-tx__90wkm57tr477-fill" transform="translate(218, 554)">
			<g id="tx__90wkm57tr477-fill">
				<g>
					<g enable-background="new    ">
						<path fill="#484848" d="M8.486-14.699H-3.438v-0.98H8.486V-14.699z M7.344-23.781H5.278v4.557h2.036v0.938h-9.668v-0.938
							h2.036v-4.557h-2.065v-0.951h9.727L7.344-23.781L7.344-23.781z M4.15-19.226v-4.557H0.826v4.557H4.15z"/>
						<path fill="#484848" d="M21.451-14.641H9.526v-0.967h5.361v-2.461h-3.867v-4.015h7.793v-2.051h-7.822v-0.952h8.95v3.94h-7.778
							v2.124h8.086v0.951h-4.233v2.462h5.435L21.451-14.641L21.451-14.641z"/>
						<path fill="#484848" d="M29.932-23.869h-1.333v4.308c0.667-0.044,1.326-0.104,1.948-0.177l0.088,0.864
							c-2.637,0.41-5.713,0.469-7.969,0.469l-0.132-0.951l1.685-0.029v-4.482H22.9v-0.938h7.031V-23.869z M33.271-13.308h-8.745
							v-4.059h1.128v3.092h7.617V-13.308z M27.471-19.489v-4.38h-2.124v4.469C26.042-19.423,26.761-19.445,27.471-19.489z
							 M32.67-22.082h1.963v0.981H32.67v4.644h-1.143v-9.58h1.143V-22.082z"/>
						<path fill="#484848" d="M39.952-15.505l-0.645-0.908c3.369-1.678,5.2-4.182,5.464-7.266h-4.863v-0.967h6.021
							C45.928-20.954,44.2-17.6,39.952-15.505z M49.296-20.749h2.109v0.967h-2.109v6.753h-1.143v-13.022h1.143V-20.749z"/>
						<path fill="#484848" d="M64.106-14.802H52.183v-0.952h11.924V-14.802L64.106-14.802z M63.491-19.489l-0.526,0.968
							c-1.963-0.454-4.036-1.854-4.878-3.779c-0.842,1.919-2.908,3.318-4.878,3.779l-0.527-0.968c2.256-0.438,4.79-2.401,4.79-4.644
							v-0.996h1.201v0.996C58.671-21.906,61.221-19.914,63.491-19.489z"/>
						<path fill="#484848" d="M80.835-17.775h-5.449v4.745h-1.144v-4.745H68.91v-0.968h11.925V-17.775z M79.429-20.705h-8.979
							v-4.673h1.144v3.721h7.837L79.429-20.705L79.429-20.705z"/>
						<path fill="#484848" d="M93.74-19.357h-5.376v1.216h3.854v2.813h-7.734v1.274h8.13v0.879h-9.271v-2.974h7.749v-1.128h-7.778
							v-0.864h3.926v-1.216h-5.347v-0.895h11.851v0.895H93.74z M88.364-24.909h4.175v0.908h-4.087
							c0.212,1.297,2.249,2.117,4.645,2.271l-0.353,0.879c-2.175-0.184-4.138-0.856-4.937-2.096
							c-0.798,1.238-2.761,1.912-4.951,2.096l-0.337-0.879c2.38-0.153,4.417-0.975,4.644-2.271h-4.058v-0.908h4.131v-1.216h1.128
							V-24.909z"/>
						<path fill="#484848" d="M106.704-19.475H94.84v-0.938h11.864V-19.475z M105.371-23.576c0,1.479-1.698,2.271-4.6,2.285
							c-2.9-0.015-4.614-0.806-4.614-2.285c0-1.449,1.714-2.24,4.614-2.24S105.371-25.026,105.371-23.576z M105.181-15.432h-7.734
							v1.348h8.13v0.908h-9.271v-3.105h7.749v-1.187h-7.778v-0.879h8.906L105.181-15.432L105.181-15.432z M97.358-23.576
							c-0.015,0.908,1.245,1.406,3.413,1.406c2.153,0,3.428-0.498,3.428-1.406c0-0.85-1.273-1.377-3.428-1.377
							C98.604-24.953,97.344-24.426,97.358-23.576z"/>
						<path fill="#484848" d="M-2.606,3.477h-11.923V2.524h3.149V0.107c-0.967-0.41-1.501-1.077-1.494-1.963
							c-0.015-1.554,1.626-2.446,4.277-2.446c2.637,0,4.277,0.894,4.277,2.446c0,0.886-0.542,1.56-1.509,1.963v2.417h3.223V3.477z
							 M-3.279-5.151h-10.664v-0.952h4.775v-1.729h1.128v1.729h4.761V-5.151z M-11.717-1.855c-0.015,0.951,1.172,1.522,3.12,1.522
							c1.919,0,3.105-0.571,3.105-1.522c0-0.968-1.187-1.538-3.105-1.538C-10.545-3.394-11.731-2.822-11.717-1.855z M-6.957,2.524
							V0.429c-0.491,0.104-1.04,0.146-1.641,0.146c-0.593,0-1.143-0.044-1.626-0.132v2.08L-6.957,2.524L-6.957,2.524z"/>
						<path fill="#484848" d="M2.243,1.074C3.686,1.022,5.165,0.928,6.52,0.767L6.579,1.63C3.839,2.055,0.777,2.113-1.551,2.1
							l-0.146-0.952C-0.84,1.14,0.111,1.132,1.116,1.104v-3.984h1.128L2.243,1.074L2.243,1.074z M5.656-5.928
							C5.641-4.902,5.641-3.174,5.274-0.757L4.118-0.859C4.47-3.043,4.499-4.625,4.499-5.665h-5.464v-0.938h6.621V-5.928z
							 M8.482-2.603h2.109v0.996H8.482V4.97H7.34V-8.052h1.143L8.482-2.603L8.482-2.603z"/>
						<path fill="#484848" d="M19.132-1.68l-0.601,0.908C17.06-1.299,15.925-2.39,15.368-3.73c-0.564,1.501-1.765,2.701-3.311,3.267
							l-0.601-0.908c1.919-0.688,3.311-2.432,3.311-4.263v-0.571h-2.944v-0.938h7.017v0.938h-2.915v0.558
							C15.925-3.95,17.228-2.339,19.132-1.68z M22.193,4.971h-1.157V1.397h-7.603V0.444h8.76V4.971z M22.193-0.244h-1.157v-3.428
							H18.43v-0.967h2.607v-3.413h1.157V-0.244z"/>
						<path fill="#484848" d="M36.286,3.242H24.361V2.275h11.924V3.242z M35.056-3.628c0,2.168-2.036,3.589-4.761,3.574
							c-2.725,0.015-4.761-1.406-4.761-3.574c0-2.153,2.036-3.574,4.761-3.574S35.056-5.781,35.056-3.628z M26.632-3.628
							c-0.015,1.582,1.567,2.637,3.662,2.637c2.08,0,3.647-1.055,3.647-2.637c0-1.553-1.567-2.651-3.647-2.637
							C28.2-6.279,26.618-5.181,26.632-3.628z"/>
						<path fill="#484848" d="M49.25,3.359H37.326V2.393h5.361v-2.461h-3.867v-4.015h7.793v-2.051h-7.822v-0.952h8.95v3.94h-7.778
							v2.124h8.086v0.951h-4.233v2.462h5.435L49.25,3.359L49.25,3.359z"/>
						<path fill="#484848" d="M54.509-0.522L54.04-1.446c3.208-0.863,5.164-2.601,5.405-4.805h-4.819v-0.952h6.05
							C60.661-3.921,58.36-1.577,54.509-0.522z M64.234,4.795h-8.247v-4.849h8.247V4.795z M57.13,3.857h5.962V0.898H57.13V3.857z
							 M64.234-4.858h1.963v0.951h-1.963v3.252h-1.143v-7.396h1.143V-4.858z"/>
						<path fill="#484848" d="M75.207,1.235l-0.646,0.908c-1.523-0.695-2.842-2.197-3.442-3.999c-0.614,1.91-1.926,3.573-3.412,4.32
							l-0.688-0.907c1.86-0.895,3.486-3.354,3.501-5.61v-1.699h-3.076v-0.952h7.339v0.952h-3.104v1.699
							C71.677-1.841,73.287,0.4,75.207,1.235z M77.756,4.971h-1.157V-8.052h1.157V4.971z"/>
						<path fill="#484848" d="M87.774-5.752h-7.764v-0.952h3.311v-1.465h1.144v1.465h3.311L87.774-5.752L87.774-5.752z
							 M87.027-2.866c-0.015,1.393-1.26,2.285-3.135,2.285c-1.89,0-3.149-0.894-3.135-2.285c-0.016-1.392,1.245-2.284,3.135-2.284
							C85.769-5.151,87.014-4.258,87.027-2.866z M81.856-2.866c-0.015,0.851,0.806,1.406,2.036,1.406
							c1.216,0,2.036-0.557,2.051-1.406c-0.015-0.835-0.835-1.405-2.051-1.392C82.662-4.272,81.843-3.701,81.856-2.866z
							 M83.072,1.484h5.947V0.092h1.143v4.702h-8.231V0.092h1.143L83.072,1.484L83.072,1.484z M89.02,3.872V2.394h-5.947v1.479
							H89.02z M90.162-4.712h1.964v0.981h-1.964v3.252H89.02v-7.573h1.143V-4.712z"/>
						<path fill="#484848" d="M94.924,0.62c1.984-0.008,4.043-0.168,6.226-0.63l0.161,0.98c-2.314,0.483-4.38,0.646-6.46,0.646
							h-1.055v-8.379h1.128V0.62z M103.684,4.971h-1.143V-8.052h1.143V4.971z"/>
						<path fill="#484848" d="M112.561-5.825h-4.938v6.593c2.358,0,4.028-0.109,5.963-0.47l0.146,0.996
							c-2.036,0.366-3.75,0.439-6.226,0.439h-1.025v-8.511h6.08V-5.825z M115.987-2.896h2.184v0.967h-2.184V5h-1.143V-8.052h1.143
							V-2.896z"/>
						<path fill="#484848" d="M119.313,2.92c-0.015-0.513,0.425-0.938,0.938-0.938c0.513,0,0.938,0.425,0.938,0.938
							c0,0.527-0.425,0.952-0.938,0.952C119.737,3.872,119.299,3.447,119.313,2.92z"/>
					</g>
				</g>
			</g>
		</g>
		<g id="g-root-tx__59kd97tr4zw-fill" transform="translate(386, 554)">
			<g id="tx__59kd97tr4zw-fill">
				<g>
					<g enable-background="new    ">
						<path fill="#484848" d="M8.295-18.771v-1.04c-1.523-0.125-2.49-0.807-2.49-1.831c0-1.157,1.201-1.847,3.047-1.847
							c1.86,0,3.047,0.688,3.063,1.847c-0.016,1.019-0.952,1.699-2.477,1.831v0.98c1.223-0.052,2.454-0.146,3.589-0.308l0.104,0.806
							c-2.798,0.483-5.918,0.527-8.232,0.527l-0.132-0.923C5.812-18.728,7.027-18.735,8.295-18.771z M12.631-24.03H5.087v-0.894
							h3.208v-1.23h1.143v1.23h3.193V-24.03z M15.076-15.036c-0.015,1.305-1.582,1.992-4.292,2.007
							c-2.725-0.015-4.276-0.702-4.276-2.007c0-1.304,1.553-2.021,4.276-2.007C13.494-17.058,15.062-16.34,15.076-15.036z
							 M6.902-21.643c0,0.659,0.747,1.055,1.948,1.055s1.963-0.396,1.963-1.055c0-0.63-0.762-1.04-1.963-1.04
							S6.902-22.272,6.902-21.643z M7.664-15.036c-0.015,0.703,1.113,1.128,3.12,1.128c1.992,0,3.12-0.425,3.12-1.128
							c0-0.731-1.128-1.156-3.12-1.143C8.777-16.193,7.649-15.769,7.664-15.036z M14.988-22.111h1.948v0.967h-1.948v3.939h-1.156
							v-8.833h1.156V-22.111z"/>
						<path fill="#484848" d="M21.215-16.545v-1.45c-1.517-0.168-2.505-1.055-2.49-2.344c-0.015-1.465,1.229-2.417,3.076-2.417
							c1.815,0,3.076,0.952,3.091,2.417c-0.015,1.289-1.019,2.176-2.521,2.358v1.392c1.217-0.059,2.439-0.154,3.574-0.322
							l0.073,0.879c-2.842,0.483-5.918,0.514-8.203,0.514L17.626-16.5C18.688-16.501,19.926-16.501,21.215-16.545z M25.712-23.518
							h-7.853v-0.938h3.354v-1.566h1.156v1.566h3.341L25.712-23.518L25.712-23.518z M19.794-20.339c0,0.908,0.806,1.494,2.007,1.479
							c1.187,0.015,1.992-0.571,1.992-1.479s-0.807-1.522-1.992-1.522C20.6-21.861,19.794-21.247,19.794-20.339z M27.894-20.5h2.08
							v0.967h-2.08v6.504h-1.157v-13.022h1.157V-20.5z"/>
						<path fill="#484848" d="M42.615-18.83h-3.164v1.655h1.699v4.146h-1.157v-3.223h-7.925v-0.923h1.831v-1.655h-3.148v-0.938
							h11.864V-18.83z M41.282-23.254c0,1.567-1.771,2.505-4.6,2.49c-2.827,0.015-4.614-0.923-4.614-2.49
							c0-1.553,1.787-2.49,4.614-2.476C39.511-25.744,41.282-24.807,41.282-23.254z M33.256-23.254
							c-0.016,0.996,1.317,1.597,3.428,1.597c2.08,0,3.428-0.601,3.428-1.597c0-0.967-1.348-1.567-3.428-1.553
							C34.573-24.821,33.24-24.221,33.256-23.254z M38.323-17.175v-1.655h-3.267v1.655H38.323z"/>
						<path fill="#484848" d="M55.579-19.519h-5.376v1.273h3.854v2.887h-7.734v1.273h8.13v0.908h-9.271v-3.032h7.749v-1.157h-7.778
							v-0.879h3.909v-1.273h-5.347v-0.952h11.864L55.579-19.519L55.579-19.519z M46.438-24.587h6.445v-1.245h1.143v4.277h-8.729
							v-4.277h1.143L46.438-24.587L46.438-24.587z M52.885-22.448v-1.26h-6.445v1.26H52.885z"/>
						<path fill="#484848" d="M60.105-16.545v-1.45c-1.516-0.168-2.505-1.055-2.49-2.344c-0.015-1.465,1.23-2.417,3.076-2.417
							c1.816,0,3.076,0.952,3.091,2.417c-0.015,1.289-1.018,2.176-2.52,2.358v1.392c1.216-0.059,2.438-0.154,3.574-0.322
							l0.072,0.879c-2.842,0.483-5.918,0.514-8.202,0.514l-0.19-0.981C57.579-16.501,58.816-16.501,60.105-16.545z M64.603-23.518
							h-7.852v-0.938h3.354v-1.566h1.157v1.566h3.34L64.603-23.518L64.603-23.518z M58.686-20.339c0,0.908,0.806,1.494,2.007,1.479
							c1.188,0.015,1.992-0.571,1.992-1.479s-0.806-1.522-1.992-1.522C59.49-21.861,58.686-21.247,58.686-20.339z M66.785-20.5h2.08
							v0.967h-2.08v6.504H65.63v-13.022h1.155V-20.5z"/>
						<path fill="#484848" d="M81.508-19.606h-5.377v1.289h3.854v2.915h-7.733v1.317h8.129v0.908h-9.271v-3.091h7.748v-1.157h-7.777
							v-0.894h3.91v-1.289h-5.346v-0.938h11.865L81.508-19.606L81.508-19.606z M79.969-21.643H71.18v-3.971h8.789V-21.643z
							 M72.322-22.565h6.504v-2.124h-6.504V-22.565z"/>
						<path fill="#484848" d="M98.295-17.775h-5.449v4.745h-1.144v-4.745H86.37v-0.968h11.925V-17.775z M96.889-20.705h-8.98v-4.673
							h1.144v3.721h7.838L96.889-20.705L96.889-20.705z"/>
						<path fill="#484848" d="M111.199-19.357h-5.375v1.216h3.853v2.813h-7.734v1.274h8.131v0.879h-9.272v-2.974h7.75v-1.128h-7.779
							v-0.864h3.926v-1.216h-5.346v-0.895h11.85v0.895H111.199z M105.824-24.909h4.174v0.908h-4.086
							c0.213,1.297,2.248,2.117,4.644,2.271l-0.353,0.879c-2.175-0.184-4.138-0.856-4.936-2.096
							c-0.799,1.238-2.762,1.912-4.951,2.096l-0.338-0.879c2.381-0.153,4.417-0.975,4.645-2.271h-4.059v-0.908h4.131v-1.216h1.129
							V-24.909L105.824-24.909z"/>
						<path fill="#484848" d="M124.164-19.475H112.3v-0.938h11.864V-19.475z M122.83-23.576c0,1.479-1.698,2.271-4.6,2.285
							c-2.9-0.015-4.613-0.806-4.613-2.285c0-1.449,1.713-2.24,4.613-2.24S122.83-25.026,122.83-23.576z M122.641-15.432h-7.734
							v1.348h8.129v0.908h-9.271v-3.105h7.748v-1.187h-7.777v-0.879h8.906L122.641-15.432L122.641-15.432z M114.818-23.576
							c-0.016,0.908,1.244,1.406,3.412,1.406c2.154,0,3.428-0.498,3.428-1.406c0-0.85-1.272-1.377-3.428-1.377
							C116.063-24.953,114.803-24.426,114.818-23.576z"/>
						<path fill="#484848" d="M33.076-0.522l-0.469-0.924c3.208-0.863,5.164-2.601,5.405-4.805h-4.819v-0.952h6.05
							C39.229-3.921,36.929-1.577,33.076-0.522z M42.803,4.795h-8.247v-4.849h8.247V4.795z M35.698,3.857h5.962V0.898h-5.962V3.857z
							 M42.803-4.858h1.963v0.951h-1.963v3.252H41.66v-7.396h1.144L42.803-4.858L42.803-4.858z"/>
						<path fill="#484848" d="M53.774,1.235L53.13,2.144c-1.523-0.695-2.843-2.197-3.442-3.999c-0.615,1.91-1.926,3.573-3.413,4.32
							l-0.688-0.907c1.859-0.895,3.485-3.354,3.501-5.61v-1.699h-3.077v-0.952h7.339v0.952h-3.105v1.699
							C50.244-1.841,51.855,0.4,53.774,1.235z M56.323,4.971h-1.156V-8.052h1.156V4.971z"/>
						<path fill="#484848" d="M66.343-5.752h-7.765v-0.952h3.312v-1.465h1.143v1.465h3.312L66.343-5.752L66.343-5.752z
							 M65.596-2.866c-0.016,1.393-1.26,2.285-3.135,2.285c-1.891,0-3.149-0.894-3.136-2.285C59.311-4.258,60.57-5.15,62.461-5.15
							C64.336-5.151,65.582-4.258,65.596-2.866z M60.425-2.866C60.409-2.016,61.23-1.46,62.461-1.46
							c1.216,0,2.035-0.557,2.051-1.406c-0.016-0.835-0.835-1.405-2.051-1.392C61.23-4.272,60.41-3.701,60.425-2.866z M61.641,1.484
							h5.947V0.092h1.143v4.702h-8.232V0.092h1.144L61.641,1.484L61.641,1.484z M67.588,3.872V2.394h-5.947v1.479H67.588z
							 M68.73-4.712h1.963v0.981H68.73v3.252h-1.143v-7.573h1.143V-4.712z"/>
						<path fill="#484848" d="M73.491,0.62c1.985-0.008,4.043-0.168,6.227-0.63l0.161,0.98c-2.314,0.483-4.381,0.646-6.46,0.646
							h-1.056v-8.379h1.128V0.62z M82.251,4.971h-1.144V-8.052h1.144V4.971z"/>
						<path fill="#484848" d="M91.128-5.825H86.19v6.593c2.358,0,4.028-0.109,5.962-0.47l0.146,0.996
							c-2.036,0.366-3.75,0.439-6.227,0.439h-1.024v-8.511h6.079L91.128-5.825L91.128-5.825z M94.556-2.896h2.183v0.967h-2.183V5
							h-1.144V-8.052h1.144V-2.896z"/>
						<path fill="#484848" d="M97.881,2.92c-0.016-0.513,0.425-0.938,0.938-0.938c0.514,0,0.938,0.425,0.938,0.938
							c0,0.527-0.425,0.952-0.938,0.952C98.306,3.872,97.866,3.447,97.881,2.92z"/>
					</g>
				</g>
			</g>
		</g>
		<g id="g-root-tx__1uqk47x7tr5l1-fill" transform="translate(554, 554)">
			<g id="tx__1uqk47x7tr5l1-fill">
				<g>
					<g enable-background="new    ">
						<path fill="#484848" d="M25.546-23.825h-4.938v6.593c2.358,0,4.028-0.109,5.962-0.47l0.146,0.996
							c-2.036,0.366-3.75,0.439-6.227,0.439h-1.024v-8.511h6.079L25.546-23.825L25.546-23.825z M28.974-20.896h2.183v0.967h-2.183
							V-13H27.83v-13.052h1.144V-20.896z"/>
						<path fill="#484848" d="M38.949-22.199c-0.015,1.816-1.449,3.048-3.428,3.063c-1.978-0.015-3.428-1.245-3.413-3.063
							c-0.015-1.815,1.437-3.075,3.413-3.062C37.498-25.275,38.935-24.016,38.949-22.199z M33.236-22.199
							c-0.015,1.23,0.967,2.08,2.285,2.096c1.333-0.016,2.3-0.864,2.3-2.096c0-1.23-0.967-2.095-2.3-2.08
							C34.203-24.294,33.222-23.43,33.236-22.199z M42.157-15.476c0,1.522-1.641,2.417-4.292,2.417c-2.666,0-4.32-0.895-4.32-2.417
							c0-1.554,1.654-2.433,4.32-2.446C40.517-17.907,42.157-17.027,42.157-15.476z M34.701-15.476
							c-0.015,0.938,1.201,1.494,3.164,1.494c1.979,0,3.18-0.558,3.18-1.494c0-0.952-1.201-1.509-3.18-1.509
							C35.902-16.984,34.687-16.428,34.701-15.476z M43.974-23.122h-1.935v1.816h1.935v0.967h-1.935v2.021h-1.143v-7.734h1.143
							v1.978h1.935V-23.122L43.974-23.122z"/>
						<path fill="#484848" d="M52.616-23.503h-7.764v-0.938h3.312v-1.598h1.143v1.598h3.311L52.616-23.503L52.616-23.503z
							 M51.869-20.354c-0.015,1.465-1.273,2.401-3.135,2.401c-1.875,0-3.148-0.938-3.135-2.401c-0.015-1.479,1.26-2.433,3.135-2.433
							C50.595-22.785,51.854-21.833,51.869-20.354z M46.698-20.354c-0.015,0.923,0.807,1.509,2.036,1.494
							c1.216,0.015,2.036-0.571,2.051-1.494c-0.015-0.923-0.835-1.523-2.051-1.523C47.504-21.877,46.684-21.276,46.698-20.354z
							 M55.604-13.308h-8.745v-3.75h1.128v2.783h7.617V-13.308z M55.004-21.745h1.963v0.968h-1.963v4.496H53.86v-9.756h1.144
							V-21.745z"/>
						<path fill="#484848" d="M70.224-18.303l0.088,0.85c-1.267,0.19-2.578,0.301-3.853,0.366v3.765h-1.157v-3.721
							c-1.282,0.052-2.513,0.052-3.618,0.044l-0.146-0.952C64.101-17.951,67.353-17.951,70.224-18.303z M69.77-23.708h-7.734v-0.923
							h3.281v-1.523h1.144v1.523h3.311L69.77-23.708L69.77-23.708z M68.979-20.983c-0.015,1.304-1.245,2.152-3.076,2.152
							c-1.846,0-3.091-0.85-3.076-2.152c-0.015-1.318,1.23-2.153,3.076-2.168C67.733-23.137,68.964-22.302,68.979-20.983z
							 M63.91-20.983c0,0.775,0.791,1.26,1.992,1.26c1.188,0,1.963-0.483,1.963-1.26c0-0.791-0.775-1.274-1.963-1.274
							C64.701-22.258,63.91-21.774,63.91-20.983z M72.289-13h-1.128v-13.037h1.128V-13z"/>
						<path fill="#484848" d="M76.2-23.62h3.794v-1.875h1.144v5.669h-6.064v-5.669h1.128L76.2-23.62L76.2-23.62z M79.994-20.764
							v-1.963H76.2v1.963H79.994z M84.696-15.549h-7.147v1.436h7.632v0.938h-8.76v-3.252h7.134v-1.349h-7.164v-0.924h8.306V-15.549z
							 M84.696-23.225h1.963v0.967h-1.963v2.944h-1.143v-6.738h1.143V-23.225z"/>
						<path fill="#484848" d="M95.185-19.855l-0.646,0.894c-1.436-0.542-2.563-1.597-3.119-2.974
							c-0.564,1.56-1.759,2.775-3.325,3.369l-0.63-0.938c2.007-0.703,3.34-2.432,3.354-4.453v-1.348h1.144v1.304
							C91.947-22.141,93.266-20.5,95.185-19.855z M98.319-15.49c0,1.554-1.655,2.433-4.365,2.433s-4.364-0.879-4.364-2.433
							c0-1.566,1.654-2.461,4.364-2.461S98.319-17.058,98.319-15.49z M90.731-15.49c-0.015,0.938,1.23,1.51,3.223,1.51
							c1.993,0,3.224-0.571,3.224-1.51c0-0.967-1.23-1.553-3.224-1.553C91.962-17.043,90.717-16.457,90.731-15.49z M98.275-18.332
							h-1.157v-3.97h-2.899v-0.952h2.899v-2.798h1.157V-18.332z"/>
						<path fill="#484848" d="M116.117-17.673h-3.148v4.644h-1.157v-4.644h-3.34v4.644h-1.188v-4.644h-3.091v-0.952h11.924V-17.673z
							 M114.711-22.683c0,1.729-1.847,2.827-4.585,2.813c-2.739,0.016-4.585-1.084-4.585-2.813c0-1.743,1.846-2.842,4.585-2.842
							C112.864-25.524,114.711-24.426,114.711-22.683z M106.728-22.683c-0.015,1.157,1.362,1.89,3.398,1.89
							c2.021,0,3.413-0.731,3.413-1.89s-1.393-1.904-3.413-1.904C108.09-24.587,106.713-23.84,106.728-22.683z"/>
						<path fill="#484848" d="M117.963-15.476l-0.631-0.938c3.522-1.67,5.317-4.168,5.581-7.279h-4.979v-0.938h6.152
							C124.071-20.881,122.328-17.57,117.963-15.476z M127.938-13.029h-1.157v-13.022h1.157V-13.029z"/>
						<path fill="#484848" d="M17.713,1.455v-1.45c-1.518-0.168-2.506-1.055-2.49-2.344c-0.016-1.465,1.229-2.417,3.076-2.417
							c1.815,0,3.076,0.952,3.09,2.417C21.375-1.05,20.37-0.163,18.868,0.02v1.392c1.218-0.059,2.439-0.154,3.574-0.322l0.074,0.879
							c-2.842,0.483-5.918,0.514-8.203,0.514L14.123,1.5C15.186,1.499,16.424,1.499,17.713,1.455z M22.209-5.518h-7.853v-0.938
							h3.355v-1.566h1.155v1.566h3.34v0.938H22.209z M16.291-2.339c0,0.908,0.807,1.494,2.008,1.479
							c1.186,0.015,1.992-0.571,1.992-1.479s-0.808-1.522-1.992-1.522C17.098-3.861,16.291-3.247,16.291-2.339z M24.393-2.5h2.08
							v0.967h-2.08v6.504h-1.158V-8.052h1.158V-2.5z"/>
						<path fill="#484848" d="M35.041-5.752h-7.765v-0.952h3.312v-1.465h1.143v1.465h3.312L35.041-5.752L35.041-5.752z
							 M34.295-2.866c-0.017,1.393-1.261,2.285-3.136,2.285c-1.891,0-3.149-0.894-3.135-2.285c-0.016-1.392,1.244-2.284,3.135-2.284
							C33.035-5.151,34.279-4.258,34.295-2.866z M29.123-2.866C29.109-2.016,29.931-1.46,31.16-1.46
							c1.216,0,2.035-0.557,2.052-1.406c-0.017-0.835-0.836-1.405-2.052-1.392C29.93-4.272,29.109-3.701,29.123-2.866z M30.34,1.484
							h5.946V0.092h1.144v4.702h-8.232V0.092h1.144L30.34,1.484L30.34,1.484z M36.287,3.872V2.394h-5.946v1.479H36.287z
							 M37.43-4.712h1.963v0.981H37.43v3.252h-1.144v-7.573h1.144V-4.712z"/>
						<path fill="#484848" d="M52.078-1.606h-5.377v1.289h3.854v2.915H42.82v1.317h8.129v0.908h-9.271V1.732h7.748V0.575h-7.777
							v-0.894h3.91v-1.289h-5.346v-0.938h11.864V-1.606z M50.539-3.643h-8.788v-3.971h8.788V-3.643z M42.893-4.565h6.504v-2.124
							h-6.504V-4.565L42.893-4.565z"/>
						<path fill="#484848" d="M65.041-1.475H53.176v-0.938h11.865V-1.475z M63.709-5.576c0,1.479-1.699,2.271-4.601,2.285
							c-2.899-0.015-4.615-0.806-4.615-2.285c0-1.449,1.716-2.24,4.615-2.24C62.009-7.816,63.709-7.026,63.709-5.576z M63.518,2.568
							h-7.734v1.348h8.131v0.908h-9.273V1.719h7.75V0.532h-7.779v-0.879h8.906V2.568z M55.695-5.576
							c-0.014,0.908,1.246,1.406,3.414,1.406c2.152,0,3.428-0.498,3.428-1.406c0-0.85-1.274-1.377-3.428-1.377
							C56.941-6.953,55.682-6.426,55.695-5.576z"/>
						<path fill="#484848" d="M70.359-0.522l-0.469-0.924c3.207-0.863,5.163-2.601,5.404-4.805h-4.818v-0.952h6.049
							C76.512-3.921,74.211-1.577,70.359-0.522z M80.086,4.795h-8.248v-4.849h8.248V4.795z M72.98,3.857h5.963V0.898H72.98V3.857z
							 M80.086-4.858h1.963v0.951h-1.963v3.252h-1.144v-7.396h1.144V-4.858z"/>
						<path fill="#484848" d="M91.057,1.235l-0.646,0.908c-1.522-0.695-2.842-2.197-3.44-3.999c-0.615,1.91-1.927,3.573-3.414,4.32
							l-0.688-0.907c1.859-0.895,3.486-3.354,3.5-5.61v-1.699h-3.075v-0.952h7.34v0.952h-3.105v1.699
							C87.527-1.841,89.139,0.4,91.057,1.235z M93.605,4.971h-1.156V-8.052h1.156V4.971z"/>
						<path fill="#484848" d="M103.625-5.752H95.86v-0.952h3.312v-1.465h1.143v1.465h3.312L103.625-5.752L103.625-5.752z
							 M102.879-2.866c-0.017,1.393-1.261,2.285-3.136,2.285c-1.891,0-3.149-0.894-3.135-2.285
							c-0.016-1.392,1.244-2.284,3.135-2.284C101.619-5.151,102.863-4.258,102.879-2.866z M97.707-2.866
							c-0.015,0.851,0.807,1.406,2.036,1.406c1.216,0,2.035-0.557,2.052-1.406c-0.017-0.835-0.836-1.405-2.052-1.392
							C98.514-4.272,97.693-3.701,97.707-2.866z M98.924,1.484h5.946V0.092h1.144v4.702h-8.232V0.092h1.144L98.924,1.484
							L98.924,1.484z M104.871,3.872V2.394h-5.946v1.479H104.871z M106.014-4.712h1.963v0.981h-1.963v3.252h-1.144v-7.573h1.144
							V-4.712z"/>
						<path fill="#484848" d="M110.773,0.62c1.985-0.008,4.043-0.168,6.228-0.63l0.159,0.98c-2.313,0.483-4.379,0.646-6.459,0.646
							h-1.055v-8.379h1.127V0.62z M119.533,4.971h-1.143V-8.052h1.143V4.971z"/>
						<path fill="#484848" d="M128.41-5.825h-4.936v6.593c2.357,0,4.027-0.109,5.961-0.47l0.146,0.996
							c-2.035,0.366-3.75,0.439-6.226,0.439h-1.024v-8.511h6.077L128.41-5.825L128.41-5.825z M131.838-2.896h2.184v0.967h-2.184V5
							h-1.144V-8.052h1.144V-2.896z"/>
						<path fill="#484848" d="M135.164,2.92c-0.016-0.513,0.425-0.938,0.938-0.938c0.512,0,0.938,0.425,0.938,0.938
							c0,0.527-0.427,0.952-0.938,0.952C135.588,3.872,135.148,3.447,135.164,2.92z"/>
					</g>
				</g>
			</g>
		</g>
		<g id="g-root-tx__1lvjl257tr37y-fill" transform="translate(722, 554)">
			<g id="tx__1lvjl257tr37y-fill">
				<g>
					<g enable-background="new    ">
						<path fill="#484848" d="M27.054-23.825h-4.938v6.593c2.358,0,4.028-0.109,5.962-0.47l0.146,0.996
							c-2.036,0.366-3.75,0.439-6.227,0.439h-1.024v-8.511h6.079L27.054-23.825L27.054-23.825z M30.481-20.896h2.183v0.967h-2.183
							V-13h-1.143v-13.052h1.143V-20.896z"/>
						<path fill="#484848" d="M40.457-22.199c-0.016,1.816-1.45,3.048-3.429,3.063c-1.978-0.015-3.428-1.245-3.413-3.063
							c-0.015-1.815,1.437-3.075,3.413-3.062C39.007-25.275,40.442-24.016,40.457-22.199z M34.744-22.199
							c-0.015,1.23,0.968,2.08,2.285,2.096c1.333-0.016,2.3-0.864,2.3-2.096c0-1.23-0.967-2.095-2.3-2.08
							C35.711-24.294,34.729-23.43,34.744-22.199z M43.664-15.476c0,1.522-1.641,2.417-4.291,2.417
							c-2.666,0-4.321-0.895-4.321-2.417c0-1.554,1.655-2.433,4.321-2.446C42.024-17.907,43.664-17.027,43.664-15.476z
							 M36.209-15.476c-0.016,0.938,1.2,1.494,3.164,1.494c1.978,0,3.179-0.558,3.179-1.494c0-0.952-1.201-1.509-3.179-1.509
							C37.41-16.984,36.194-16.428,36.209-15.476z M45.481-23.122h-1.934v1.816h1.934v0.967h-1.934v2.021h-1.144v-7.734h1.144v1.978
							h1.934V-23.122z"/>
						<path fill="#484848" d="M54.123-23.503H46.36v-0.938h3.312v-1.598h1.143v1.598h3.312v0.938H54.123z M53.377-20.354
							c-0.016,1.465-1.274,2.401-3.136,2.401c-1.875,0-3.148-0.938-3.135-2.401c-0.015-1.479,1.26-2.433,3.135-2.433
							C52.103-22.785,53.362-21.833,53.377-20.354z M48.207-20.354c-0.016,0.923,0.806,1.509,2.035,1.494
							c1.217,0.015,2.036-0.571,2.052-1.494c-0.016-0.923-0.835-1.523-2.052-1.523C49.012-21.877,48.191-21.276,48.207-20.354z
							 M57.112-13.308h-8.745v-3.75h1.128v2.783h7.617V-13.308z M56.512-21.745h1.963v0.968h-1.963v4.496h-1.144v-9.756h1.144
							V-21.745z"/>
						<path fill="#484848" d="M69.666-24.074h-4.85v1.847h4.601v0.952h-4.601v1.947c2.563-0.015,3.991-0.081,5.698-0.381
							l0.132,0.923c-1.802,0.337-3.296,0.396-5.991,0.396h-0.98v-6.606h5.991V-24.074z M73.841-13.308h-8.745v-3.97h1.128v3.003
							h7.617V-13.308L73.841-13.308z M73.24-21.994h1.963v0.968H73.24v4.613h-1.143v-9.639h1.143V-21.994z"/>
						<path fill="#484848" d="M79.451-16.545v-1.45c-1.516-0.168-2.505-1.055-2.489-2.344c-0.016-1.465,1.229-2.417,3.075-2.417
							c1.816,0,3.076,0.952,3.092,2.417c-0.016,1.289-1.02,2.176-2.521,2.358v1.392c1.216-0.059,2.438-0.154,3.574-0.322
							l0.073,0.879c-2.842,0.483-5.918,0.514-8.203,0.514l-0.19-0.981C76.924-16.501,78.162-16.501,79.451-16.545z M83.948-23.518
							h-7.852v-0.938h3.354v-1.566h1.157v1.566h3.34L83.948-23.518L83.948-23.518z M78.03-20.339c0,0.908,0.807,1.494,2.007,1.479
							c1.188,0.015,1.992-0.571,1.992-1.479s-0.806-1.522-1.992-1.522C78.836-21.861,78.03-21.247,78.03-20.339z M86.131-20.5h2.08
							v0.967h-2.08v6.504h-1.157v-13.022h1.157V-20.5z"/>
						<path fill="#484848" d="M100.853-17.746h-5.391v4.717h-1.128v-4.717h-5.348v-0.967h11.865L100.853-17.746L100.853-17.746z
							 M100.267-21.086l-0.469,0.938c-2.021-0.337-4.021-1.458-4.863-3.063c-0.835,1.611-2.842,2.726-4.863,3.063l-0.469-0.938
							c2.344-0.322,4.731-1.89,4.731-3.75v-0.747h1.187v0.747C95.521-23.005,97.923-21.408,100.267-21.086z"/>
						<path fill="#484848" d="M113.875-14.729H101.95v-0.952h5.332v-3.193h1.128v3.193h5.465V-14.729z M113.289-19.68l-0.513,0.952
							c-1.984-0.402-4.079-1.75-4.922-3.633c-0.856,1.875-2.937,3.229-4.922,3.633l-0.513-0.952c2.271-0.396,4.818-2.3,4.818-4.482
							v-0.996h1.201v0.996C108.44-21.979,111.019-20.075,113.289-19.68z"/>
						<path fill="#484848" d="M119.412-15.505l-0.645-0.908c3.369-1.678,5.2-4.182,5.464-7.266h-4.863v-0.967h6.021
							C125.389-20.954,123.66-17.6,119.412-15.505z M128.758-20.749h2.108v0.967h-2.108v6.753h-1.144v-13.022h1.144V-20.749z"/>
						<path fill="#484848" d="M143.567-14.802h-11.924v-0.952h11.924V-14.802z M142.952-19.489l-0.526,0.968
							c-1.963-0.454-4.036-1.854-4.878-3.779c-0.843,1.919-2.908,3.318-4.878,3.779l-0.527-0.968c2.256-0.438,4.79-2.401,4.79-4.644
							v-0.996h1.201v0.996C138.133-21.906,140.682-19.914,142.952-19.489z"/>
						<path fill="#484848" d="M38.798,0.225h-5.449V4.97h-1.144V0.225h-5.332v-0.968h11.925V0.225z M37.392-2.705h-8.979v-4.673
							h1.144v3.721h7.837L37.392-2.705L37.392-2.705z"/>
						<path fill="#484848" d="M51.703-1.357h-5.376v1.216h3.854v2.813h-7.734v1.274h8.13v0.879h-9.271V1.851h7.749V0.723h-7.778
							v-0.864h3.926v-1.216h-5.347v-0.895h11.851v0.895H51.703z M46.327-6.909h4.176v0.908h-4.087
							c0.212,1.297,2.248,2.117,4.644,2.271l-0.353,0.879c-2.176-0.184-4.139-0.856-4.937-2.096
							c-0.798,1.238-2.761,1.912-4.951,2.096l-0.337-0.879c2.381-0.153,4.416-0.975,4.645-2.271h-4.059v-0.908h4.131v-1.216h1.128
							V-6.909L46.327-6.909z"/>
						<path fill="#484848" d="M64.667-1.475H52.802v-0.938h11.865V-1.475z M63.334-5.576c0,1.479-1.699,2.271-4.601,2.285
							c-2.899-0.015-4.614-0.806-4.614-2.285c0-1.449,1.715-2.24,4.614-2.24C61.634-7.816,63.334-7.026,63.334-5.576z M63.144,2.568
							h-7.734v1.348h8.13v0.908h-9.271V1.719h7.749V0.532h-7.778v-0.879h8.906L63.144,2.568L63.144,2.568z M55.321-5.576
							c-0.015,0.908,1.245,1.406,3.413,1.406c2.153,0,3.428-0.498,3.428-1.406c0-0.85-1.273-1.377-3.428-1.377
							C56.566-6.953,55.307-6.426,55.321-5.576z"/>
						<path fill="#484848" d="M69.984-0.522l-0.469-0.924c3.208-0.863,5.164-2.601,5.405-4.805h-4.819v-0.952h6.05
							C76.137-3.921,73.837-1.577,69.984-0.522z M79.711,4.795h-8.247v-4.849h8.247V4.795z M72.606,3.857h5.962V0.898h-5.962V3.857z
							 M79.711-4.858h1.963v0.951h-1.963v3.252h-1.144v-7.396h1.144V-4.858z"/>
						<path fill="#484848" d="M90.683,1.235l-0.646,0.908c-1.522-0.695-2.842-2.197-3.441-3.999c-0.615,1.91-1.926,3.573-3.413,4.32
							l-0.688-0.907c1.86-0.895,3.486-3.354,3.501-5.61v-1.699H82.92v-0.952h7.339v0.952h-3.105v1.699
							C87.152-1.841,88.764,0.4,90.683,1.235z M93.231,4.971h-1.157V-8.052h1.157V4.971z"/>
						<path fill="#484848" d="M103.251-5.752h-7.765v-0.952h3.312v-1.465h1.143v1.465h3.312L103.251-5.752L103.251-5.752z
							 M102.504-2.866c-0.016,1.393-1.261,2.285-3.136,2.285c-1.89,0-3.148-0.894-3.135-2.285c-0.015-1.392,1.245-2.284,3.135-2.284
							C101.244-5.151,102.489-4.258,102.504-2.866z M97.332-2.866c-0.015,0.851,0.807,1.406,2.036,1.406
							c1.217,0,2.036-0.557,2.052-1.406c-0.016-0.835-0.835-1.405-2.052-1.392C98.139-4.272,97.318-3.701,97.332-2.866z
							 M98.549,1.484h5.946V0.092h1.144v4.702h-8.232V0.092h1.144L98.549,1.484L98.549,1.484z M104.496,3.872V2.394H98.55v1.479
							H104.496z M105.639-4.712h1.963v0.981h-1.963v3.252h-1.144v-7.573h1.144V-4.712z"/>
						<path fill="#484848" d="M110.399,0.62c1.985-0.008,4.043-0.168,6.227-0.63l0.16,0.98c-2.313,0.483-4.38,0.646-6.46,0.646
							h-1.055v-8.379h1.128V0.62z M119.159,4.971h-1.143V-8.052h1.143V4.971z"/>
						<path fill="#484848" d="M128.036-5.825H123.1v6.593c2.357,0,4.028-0.109,5.962-0.47l0.146,0.996
							c-2.035,0.366-3.75,0.439-6.226,0.439h-1.024v-8.511h6.078L128.036-5.825L128.036-5.825z M131.464-2.896h2.183v0.967h-2.183V5
							h-1.144V-8.052h1.144V-2.896z"/>
						<path fill="#484848" d="M134.789,2.92c-0.015-0.513,0.426-0.938,0.938-0.938s0.938,0.425,0.938,0.938
							c0,0.527-0.426,0.952-0.938,0.952S134.774,3.447,134.789,2.92z"/>
					</g>
				</g>
			</g>
		</g>
		<g id="g-root-sy_-1_Vector_1cy15jx7tr4zw-stroke" transform="translate(134, 128)">
			<g id="sy_-1_Vector_1cy15jx7tr4zw-stroke">
				<g>
					<path fill="none" stroke="#969696" stroke-width="2" stroke-linecap="round" stroke-linejoin="round" d="M-2.439-32.216h657"/>
					<path fill="none" stroke="#969696" stroke-width="2" stroke-linecap="round" stroke-linejoin="round" d="M3.561-38.716
						l-6.5,6.5l6.5,6.5"/>
					<path fill="none" stroke="#969696" stroke-width="2" stroke-linecap="round" stroke-linejoin="round" d="M648.561-25.716
						l6.5-6.5l-6.5-6.5"/>
				</g>
			</g>
		</g>
		<g id="g-root-cp_1_lines-1_1cy15jx7tr4zx-stroke" transform="translate(38, 170)">
			<g id="cp_1_lines-1_1cy15jx7tr4zx-stroke">
				<g>
					<path fill="none" stroke="#3CC583" stroke-width="2" stroke-linecap="round" stroke-linejoin="round" d="M-32.878,128.427
						H76.154l2.127,17.267l7.446-14.029l9.042,14.029l3.723-30.757l6.914,17.807l7.978-14.568l5.319,18.885l5.319-15.106
						l4.254,9.712h8.51l4.787-12.41l3.723,19.965"/>
				</g>
			</g>
		</g>
		<g id="g-root-cp_2_lines-2_18i7nfh7tr5s7-stroke" transform="translate(206, 170)">
			<g id="cp_2_lines-2_18i7nfh7tr5s7-stroke">
				<g>
					<path fill="none" stroke="#DE8431" stroke-width="2" stroke-linecap="round" stroke-linejoin="round" d="M-22.704,138.8
						l3.182-16.97l5.303,28.104l1.591-24.924l4.243,15.379v-24.394l6.363,27.044L0.1,113.345l5.303,29.695l1.591-21.211l2.121,8.484
						l4.243-14.848l2.121,29.695L19.19,121.3l2.651,13.256l2.651-16.438l2.121,20.15l4.772-25.454l1.591,33.938l5.833-33.407
						l6.894,33.407l3.712-37.649l5.303,36.059V105.39l10.075,46.136l5.303-52.499l4.771,55.15l5.304-44.015l3.712,38.71
						l4.242-51.438l4.771,61.514l1.591-37.12l6.364,40.302l1.061-67.347l6.363,50.377l5.303-51.438l5.304,53.028l6.363-28.104
						l7.954,48.257l3.712-72.119l7.425,47.726l4.771-37.649l3.183,32.347l3.182-20.681"/>
				</g>
			</g>
		</g>
		<g id="g-root-cp_3_lines-3_18i7nfh7tr5s9-stroke" transform="translate(374, 170)">
			<g id="cp_3_lines-3_18i7nfh7tr5s9-stroke">
				<g>
					<path fill="none" stroke="#E55753" stroke-width="2" stroke-linecap="round" stroke-linejoin="round" d="M-12.527,116.527
						l3.182,42.423l5.303-62.044l5.834,65.756l2.12-40.302l4.772,26.514l3.712-56.74l4.242,76.361L21.41,121.3l4.772,40.303
						l1.591-31.287l5.303,20.681l1.062-50.907l6.363,62.574l3.712-81.664l5.303,76.893l4.242-46.666l3.712,51.438l3.182-57.801
						l5.833,34.999l3.183-37.65l6.894,46.663l4.771-54.089l7.954,48.256l6.895-38.18l5.304,62.573l5.833-65.225l7.954,54.09
						l6.363-71.59l6.894,74.24l6.363-50.908l5.303,49.848l3.184-57.801l7.424,78.481l2.121-81.664l8.483,71.589l4.242-44.014"/>
				</g>
			</g>
		</g>
		<g id="g-root-cp_4_lines-4_1430me57tr3er-stroke" transform="translate(542, 170)">
			<g id="cp_4_lines-4_1430me57tr3er-stroke">
				<g>
					<path fill="none" stroke="#7F64EA" stroke-width="2" stroke-linecap="round" stroke-linejoin="round" d="M-2.352,124.481
						L0.3,86.831l4.771,64.695L9.844,121.3l3.712,64.693l3.712-88.027l6.895,37.12l3.183-26.514l3.712,48.256l3.712-59.923
						l3.182,67.347l4.772-83.255l5.303,97.042l5.303-121.435l7.425,134.692l3.713-80.072l4.771,58.332l2.651-60.983l7.424,45.604
						l1.591-56.209l5.304,53.559l1.591-72.119l6.362,109.77v-79.013l6.363,49.317V96.907l8.484,69.998l3.713-69.998l4.242,64.165
						l4.771-64.165l1.591,89.088l4.772-69.998l4.242,46.135l1.591-90.679l6.363,111.36l2.65-99.163l5.833,88.558l2.121-79.543
						l5.834,101.284l2.121-90.147l5.833,99.164l1.591-113.481l9.545,88.026"/>
				</g>
			</g>
		</g>
		<g id="g-root-cp_5_lines-5_1430me57tr3et-stroke" transform="translate(710, 170)">
			<g id="cp_5_lines-5_1430me57tr3et-stroke">
				<g>
					<path fill="none" stroke="#BA5DE5" stroke-width="2" stroke-linecap="round" stroke-linejoin="round" d="M7.824,177.511
						l4.242-117.724l3.712,131.511l5.304-118.785l3.182,107.119l6.895-107.119l6.895,98.104l3.712-84.846l4.771,114.012
						l3.712-116.663l8.484,103.937V48.65l5.833,159.086l1.062-135.753l7.953,150.07L71.988,93.194l8.485,86.438l2.121-91.74
						l5.833,95.981V2.515l6.363,188.781l1.591-224.84l4.771,298.55l3.183-149.54l2.65,167.569l2.651-208.401l5.833,107.647
						l3.183-153.252l5.833,178.706l3.712-107.648l4.772,130.98l2.121-147.949l7.424,138.935V41.757L151,231.069V1.985l6.362,174.994
						l3.183-159.085l5.304,197.796l2.121-143.178l7.424,135.224v-99.694l5.303,71.588L186,75.164"/>
				</g>
			</g>
		</g>
		<g id="g-root-tx__v7dm597tr47j-stroke" transform="translate(152, 38)">
		</g>
		<g id="g-root-tx__qrk40t7tr4zs-stroke" transform="translate(38, 116)">
		</g>
		<g id="g-root-tx__mbqlwd7tr5s1-stroke" transform="translate(806, 116)">
		</g>
		<g id="g-root-tx__dgq2ql7tr3ey-stroke" transform="translate(50, 554)">
		</g>
		<g id="g-root-tx__90wkm57tr477-stroke" transform="translate(218, 554)">
		</g>
		<g id="g-root-tx__59kd97tr4zw-stroke" transform="translate(386, 554)">
		</g>
		<g id="g-root-tx__1uqk47x7tr5l1-stroke" transform="translate(554, 554)">
		</g>
		<g id="g-root-tx__1lvjl257tr37y-stroke" transform="translate(722, 554)">
		</g>
	</g>
</g>
</svg>
