<?xml version="1.0" encoding="UTF-8"?>
<svg id="Layer_1" xmlns="http://www.w3.org/2000/svg" version="1.1" viewBox="0 0 433.1 109.1">
  <!-- Generator: Adobe Illustrator 29.3.1, SVG Export Plug-In . SVG Version: 2.1.0 Build 151)  -->
  <defs>
    <style>
      .st0 {
        fill: #231815;
      }

      .st1 {
        fill: #fff;
      }

      .st2 {
        fill: #de0515;
      }

      .st3 {
        fill: #0f0a0a;
      }

      .st4 {
        fill: #86807c;
      }
    </style>
  </defs>
  <g>
    <line class="st0" x1="112.3" y1="70.6" x2="66.4"/>
    <polyline class="st0" points="66.4 0 21 71 112.3 70.6"/>
    <polygon class="st1" points="66.6 17.6 95.1 61.4 37.3 61.4 66.4 17.6 66.4 17.6 66.6 17.6"/>
    <polyline class="st3" points="66.4 1.5 22.6 70 36.8 61.6 66.3 17.5 66.4 1.5"/>
    <g>
      <rect class="st2" x=".6" y="23.3" width="34.7" height="2.1"/>
      <path class="st0" d="M35.7,26H0v-3.3h35.7v3.3ZM1.1,24.8h33.6v-1H1.1v1Z"/>
    </g>
    <g>
      <rect class="st2" x="9.3" y="29.1" width="17.1" height="2.1"/>
      <path class="st0" d="M27,31.9H8.7v-3.3h18.3v3.3ZM9.9,30.7h16.1v-1H9.9v1Z"/>
    </g>
    <polyline class="st4" points="108.7 1.8 108.7 35.9 106.6 35.9 106.6 1.8"/>
    <path class="st0" d="M109.3,1.2v35.1h0s0,.1,0,0h0c0,.1-3.3.1-3.3.1V1.2"/>
    <polyline class="st0" points="107 2.4 107 35.3 108.1 35.3 108.1 2.4"/>
    <polyline class="st4" points="102.7 1.8 102.7 18.7 100.6 18.7 100.6 1.8"/>
    <polyline class="st0" points="103.3 1.2 103.3 19.3 100 19.3 100 1.2"/>
    <polyline class="st0" points="101 2.4 101 18.2 101 18.2 101 18.1 102.1 18.1 102.1 2.4"/>
    <polyline class="st1" points="82.6 108.4 62.1 80.7 64 79.5 84.3 107.1"/>
    <polyline class="st0" points="82.4 109.1 61.4 80.7 64.1 78.7 85.1 107.2"/>
    <polyline class="st0" points="83.6 106.9 63.9 80.2 63 80.8 82.7 107.5"/>
    <g>
      <polygon class="st1" points="68.9 76.1 78.9 89.7 77.1 91.1 67 77.3 68.9 76.1"/>
      <path class="st0" d="M77,91.8l-10.7-14.5,2.7-1.9,10.7,14.5-2.7,1.9ZM67.9,77.4l9.4,12.8.9-.6-9.4-12.8-.9.6h0Z"/>
    </g>
    <rect class="st2" x=".1" y="22.8" width="35.4" height="3"/>
    <rect class="st2" x="8.9" y="28.8" width="18" height="3"/>
    <polyline class="st4" points="109.1 1.3 109.1 36.4 106.1 36.4 106.1 1.3"/>
    <polyline class="st4" points="103.1 1.3 103.1 19.1 100.1 19.1 100.1 1.3"/>
    <polyline class="st3" points="82.6 108.4 62.1 80.7 64 79.5 84.3 107.1"/>
    <polygon class="st3" points="68.9 76.1 78.9 89.7 77.1 91.1 67 77.3 68.9 76.1"/>
    <polyline class="st2" points="111.5 70 95.6 61.4 66.6 17.1 66.6 .8"/>
    <line class="st2" x1="66.6" y1=".8" x2="111.5" y2="70"/>
    <polyline class="st4" points="111.2 70.3 95.2 61.7 37.1 61.7 21.7 70.7 111.2 70.3"/>
  </g>
  <g>
    <g>
      <path d="M132.4,66.7V21c0-1.1-.2-2.4-.3-4h12.2c2.9,0,5.5.2,7.9.5s4.3.7,5.8,1.2c2.9.9,5.4,2.3,7.4,4s3.7,3.7,5,5.9c1.2,2.3,2.1,4.7,2.7,7.4.6,2.7.9,5.3.9,8s-.3,5.3-.8,7.9c-.5,2.6-1.4,4.9-2.5,7.1-1.2,2.3-2.7,4.2-4.5,6s-4,3.1-6.5,4.1c-1.4.5-3.2.9-5.4,1.2-2.2.3-4.7.4-7.6.4h-14.5c.2-1.5.3-2.7.3-3.8h0v-.2h0ZM164,35c-.7-2.7-1.7-5-3.1-6.8-1.4-1.7-3.1-3-5.2-3.9-2.1-.8-4.5-1.3-7.3-1.3h-7.3v41.2h7.6c2.8,0,5.2-.4,7.3-1.1,2-.8,3.8-1.9,5.2-3.5,1.3-1.5,2.4-3.6,3-6,.7-2.5,1-5.4,1-8.8s-.3-7.1-1.1-9.8h0Z"/>
      <path d="M146.6,70.7h-14.8v-.3c.2-1.5.3-2.7.4-3.8V21c0-1.1-.2-2.4-.3-4v-.3h12.5c2.9,0,5.6.2,8,.5,2.4.3,4.4.7,5.9,1.2,2.9.9,5.4,2.3,7.5,4,2,1.7,3.7,3.7,5,6,1.2,2.3,2.2,4.8,2.7,7.4.6,2.7.9,5.4.9,8s-.3,5.3-.8,7.9c-.5,2.6-1.4,5-2.6,7.2-1.2,2.3-2.7,4.3-4.6,6-1.8,1.8-4.1,3.1-6.6,4.1-1.4.5-3.3.9-5.5,1.2s-4.8.4-7.6.4h0ZM132.4,70.2h14.3c2.8,0,5.4,0,7.6-.4,2.2-.3,4-.6,5.3-1.1,2.5-1,4.7-2.3,6.4-4,1.8-1.7,3.3-3.7,4.5-5.9,1.1-2.2,2-4.6,2.5-7.1s.8-5.2.8-7.8-.3-5.3-.8-7.9c-.6-2.6-1.5-5.1-2.7-7.3-1.3-2.2-2.9-4.2-4.9-5.9s-4.4-3-7.3-3.9c-1.5-.5-3.4-.9-5.8-1.2s-5-.5-7.9-.5h-11.9c0,1.4.2,2.7.3,3.7v45.8c0,1-.2,2.2-.3,3.5h0ZM148.6,64.4h-7.9V22.8h7.6c2.8,0,5.3.4,7.4,1.3,2.1.9,3.9,2.2,5.3,3.9,1.4,1.9,2.5,4.2,3.2,6.9.7,2.7,1.1,6,1.1,9.8s-.3,6.4-1,8.8c-.7,2.5-1.7,4.5-3.1,6.1-1.4,1.6-3.2,2.8-5.3,3.6-2.1.8-4.5,1.1-7.4,1.1h.1ZM141.2,63.9h7.4c2.8,0,5.2-.4,7.2-1.1,2-.7,3.7-1.9,5.1-3.5,1.3-1.5,2.3-3.5,3-5.9s1-5.4,1-8.7-.4-7-1-9.7c-.7-2.7-1.7-4.9-3.1-6.7-1.4-1.7-3.1-3-5.1-3.8-2.1-.8-4.5-1.2-7.3-1.2h-7.1v40.7h0Z"/>
    </g>
    <g>
      <path d="M208.2,42.7c-.4-1.4-.9-2.5-1.7-3.5s-1.7-1.7-2.8-2.3c-1.1-.5-2.3-.8-3.7-.8s-2.8.2-3.9.7c-1.1.5-2,1.2-2.8,2-.8.9-1.4,2.1-1.7,3.5-.4,1.4-.6,3-.6,4.8h17.7c0-1.6-.2-3.1-.6-4.4,0,0,.1,0,.1,0ZM190.9,53.8c0,2,.2,3.7.7,5.1.5,1.5,1.2,2.7,2.2,3.6.9,1,2.1,1.7,3.5,2.2s3.1.7,5.1.7,4.1-.3,5.8-.8c1.8-.6,3.4-1.4,5.1-2.6l3.3,4.6c-2.1,1.6-4.5,2.8-7.1,3.7-2.6.8-5.4,1.3-8.2,1.3s-6.1-.5-8.6-1.5-4.5-2.5-6.1-4.3c-1.7-1.8-3-4-3.8-6.5s-1.2-5.2-1.2-8.2.4-5.8,1.3-8.4c.9-2.5,2.1-4.7,3.8-6.5,1.6-1.8,3.5-3.2,5.8-4.2,2.3-1,4.8-1.5,7.5-1.5s5.4.4,7.5,1.3c2.2.9,4,2.2,5.5,3.9,1.4,1.8,2.6,4.1,3.3,6.7.8,2.6,1.1,5.7,1.1,9.2v1.4h-26.6v1h0v-.2h0Z"/>
      <path d="M201.4,71.7c-3.3,0-6.2-.5-8.7-1.6-2.5-1-4.6-2.5-6.2-4.4-1.7-1.8-3-4.1-3.9-6.6-.8-2.5-1.3-5.3-1.3-8.3s.4-5.9,1.3-8.5c.9-2.6,2.2-4.8,3.9-6.6,1.6-1.8,3.5-3.2,5.8-4.2,2.3-1,4.9-1.5,7.6-1.5s5.4.5,7.6,1.4c2.2.9,4.1,2.3,5.6,4,1.5,1.9,2.6,4.1,3.4,6.8.8,2.6,1.1,5.7,1.1,9.2v1.7h-26.6v.7c0,1.9.2,3.6.7,5.1.5,1.4,1.2,2.6,2.1,3.5.9,1,2.1,1.7,3.4,2.1,1.4.5,3.1.7,5,.7s4-.3,5.8-.8c1.7-.6,3.4-1.4,5-2.6h.2l3.6,4.8h-.2c-2.1,1.8-4.6,3-7.2,3.8-2.6.8-5.4,1.3-8.3,1.3h.3,0ZM200,30.5c-2.7,0-5.2.5-7.4,1.5s-4.1,2.4-5.7,4.1c-1.6,1.8-2.9,4-3.8,6.5-.9,2.5-1.3,5.3-1.3,8.3s.4,5.7,1.2,8.1c.8,2.5,2.1,4.6,3.8,6.4,1.6,1.8,3.6,3.2,6,4.2s5.3,1.5,8.5,1.5,5.5-.4,8.1-1.3c2.5-.8,4.8-2,6.8-3.5l-3-4.2c-1.6,1.1-3.2,1.9-4.9,2.5-1.8.6-3.8.9-5.9.9s-3.7-.2-5.2-.7-2.7-1.2-3.6-2.2c-1-1-1.8-2.2-2.2-3.7-.5-1.5-.7-3.2-.7-5.2v-1.2h26.6v-1.2c0-3.4-.4-6.5-1.1-9.1-.7-2.6-1.8-4.8-3.3-6.6-1.5-1.7-3.3-3-5.4-3.9-2.1-.9-4.6-1.3-7.4-1.3h-.1ZM209,47.4h-18.2v-.2c0-1.8.2-3.5.6-4.9.4-1.4,1-2.6,1.8-3.6.7-.9,1.7-1.6,2.9-2.1,1.1-.5,2.5-.7,4-.7s2.7.3,3.8.8c1.1.6,2,1.3,2.8,2.4.7,1,1.3,2.2,1.7,3.6s.6,2.9.6,4.5v.2h0ZM191.3,46.9h17.2c0-1.5-.2-2.9-.6-4.1-.4-1.3-.9-2.5-1.6-3.4-.7-.9-1.6-1.7-2.7-2.2-1-.5-2.2-.8-3.6-.8s-2.7.2-3.8.7-2,1.1-2.7,2c-.8.9-1.3,2.1-1.7,3.4s-.6,2.8-.6,4.5h.1Z"/>
    </g>
    <g>
      <path d="M226.7,19.8c0-1.1-.1-2.3-.2-3.6h9.2c-.2,1.3-.3,2.5-.3,3.6v37.9c0,2.3,0,3.9.2,4.9s.5,1.8,1,2.3c.3.4.8.7,1.6.7s1.3,0,1.9-.2l1.1,5.5c-.8,0-1.6.3-2.6.4h-2.5c-1.6,0-2.9-.2-4-.7-1.1-.4-2.1-1.1-2.8-2.1-.8-.9-1.4-2-1.7-3.4-.4-1.4-.6-3-.6-4.8V19.8h-.3,0Z"/>
      <path d="M235.9,71.6c-1.6,0-3-.2-4.1-.7s-2.1-1.2-2.9-2.2c-.8-.9-1.4-2.1-1.8-3.5-.4-1.4-.6-3-.6-4.9V19.9c0-1.1-.1-2.3-.2-3.5v-.3h9.8v.3c-.2,1.3-.3,2.5-.3,3.5v37.8c0,2.2,0,3.8.2,4.8.1.9.5,1.7.9,2.2.3.4.7.6,1.4.7.7,0,1.3,0,1.8-.2h.3l1.2,5.9h-.2c-.8.2-1.7.3-2.6.4h-2.9,0ZM226.7,16.5c0,1.2.2,2.3.2,3.3v40.6c0,1.8.2,3.4.6,4.8.4,1.3.9,2.5,1.7,3.3.8.9,1.7,1.6,2.7,2,1.1.4,2.4.7,3.9.7h2.5c.8,0,1.6-.2,2.3-.3l-1-5c-.5,0-1.1.2-1.7,0-.8,0-1.4-.4-1.7-.8-.5-.6-.9-1.4-1.1-2.4-.2-1-.2-2.6-.2-4.9V19.8c0-1,.1-2.1.3-3.3h-8.7.2Z"/>
    </g>
    <g>
      <path d="M262.9,31.2c1.3,0,3-.1,5.1-.3l-1.6,6.3c-1.7,0-3.1-.2-4.3-.2h-4.3v22.4c0,1.5,0,2.6.2,3.3.2.8.6,1.5,1.3,2.1.4.4.9.6,1.6.7.7,0,1.4.2,2.2,0,.8,0,1.6,0,2.4-.3.8,0,1.5-.3,2.1-.5l.9,5.1c-1.1.5-2.5.9-4,1.2s-2.9.4-4,.4c-1.9,0-3.5-.2-4.9-.6-1.4-.4-2.5-1-3.4-1.9-.9-.8-1.6-1.8-2.1-3.1-.5-1.2-.7-2.7-.7-4.4v-24.6h-4.9v-5.7h4.9v-2.9c0-.9,0-1.8-.1-2.6,0-.8-.1-1.7-.2-2.5,0-.8-.1-1.5-.2-2.3l9.5-1.3c-.3,2-.5,3.9-.6,5.7,0,1.8-.1,3.7-.1,5.8h5.2v.2Z"/>
      <path d="M260.6,71.8c-1.9,0-3.5-.2-4.9-.6-1.4-.4-2.6-1.1-3.5-1.9-1-.8-1.7-1.9-2.2-3.2s-.7-2.8-.7-4.5v-24.4h-4.9v-6.2h4.9v-2.6c0-.9,0-1.8-.1-2.6l-.2-2.5c0-.8-.1-1.5-.2-2.2v-.2l10-1.3v.3c-.4,1.9-.6,3.8-.6,5.6s-.1,3.6-.1,5.5h4.8c1.3,0,3-.1,5-.3h.3l-1.8,6.8h-.2c-1.7-.1-3.1-.2-4.3-.2h-4v22.1c0,1.4,0,2.5.2,3.3.1.7.6,1.4,1.2,2,.3.3.8.6,1.5.7h2.2c.8,0,1.6,0,2.4-.3.8,0,1.5-.3,2-.5h.3l1,5.5h-.2c-1.2.6-2.5,1-4,1.3s-2.9.4-4.1.4h.2ZM244.9,36.7h4.9v24.9c0,1.7.2,3.1.7,4.3.4,1.2,1.1,2.2,2,3s2,1.4,3.3,1.8c1.3.4,3,.6,4.8.6s2.5,0,4-.4c1.4-.2,2.6-.6,3.7-1.1l-.8-4.6c-.5.2-1.1.3-1.8.4-.8,0-1.6.2-2.5.3h-2.3c-.8,0-1.3-.4-1.7-.8-.8-.7-1.2-1.4-1.4-2.3-.2-.8-.2-1.9-.2-3.4v-22.6h4.5c1.1,0,2.5.1,4.1.2l1.5-5.8c-1.9.1-3.5.2-4.7.3h-5.3v-.2c0-2.1,0-4,.1-5.8,0-1.7.3-3.5.5-5.4l-8.9,1.2c0,.6,0,1.3.1,2l.2,2.5c0,.8,0,1.7.1,2.6v3.1h-4.9v5.2h0Z"/>
    </g>
    <g>
      <path d="M296.8,51.7h-1c-2.3,0-4.2.2-5.9.5-1.6.3-3,.8-4.1,1.4-1.1.7-1.9,1.5-2.4,2.5s-.8,2.2-.8,3.5.1,1.9.4,2.7c.3.8.7,1.5,1.3,2,.5.6,1.2,1,2,1.2.8.3,1.8.4,3,.4,1.8,0,3.4-.4,4.9-1.1,1.5-.7,2.9-1.8,4-3.2v-9.8h-1.5.1ZM305.7,71.9c-1.2-.4-2.3-1-3.2-1.8-1-.8-1.8-2-2.5-3.5-1.5,1.7-3.4,2.9-5.6,3.8-2.2.8-4.5,1.2-6.8,1.2s-4.1-.2-5.9-.7c-1.7-.5-3.2-1.2-4.4-2.2s-2.2-2.2-2.9-3.6c-.7-1.4-1-3.1-1-5.1s.4-4.2,1.3-5.9c.9-1.7,2.2-3.1,4-4.3,1.7-1.1,3.9-1.9,6.6-2.5,2.7-.6,5.8-.8,9.4-.8h3.7v-2.5c0-1.4-.1-2.6-.4-3.5s-.7-1.7-1.3-2.3c-.6-.6-1.4-1-2.3-1.2s-1.9-.4-3-.4c-2.2,0-4.3.4-6.3,1.1-2,.7-4.2,1.8-6.6,3.2l-3.7-5.4c1.4-.8,2.9-1.6,4.4-2.2,1.6-.6,3.1-1.2,4.7-1.7,1.5-.4,3-.8,4.5-1s3-.4,4.5-.4c2.5,0,4.7.3,6.5.8,1.8.6,3.2,1.5,4.4,2.7,1.1,1.3,1.9,2.9,2.4,4.9s.7,4.3.6,7.1l-.4,12v3.1c0,.8.1,1.5.4,2.2.3.9.7,1.6,1.2,2.1s1.2,1.1,2.2,1.8l-4.4,5h-.1Z"/>
      <path d="M305.8,72.2h-.2c-1.2-.4-2.3-1-3.3-1.9-.9-.8-1.7-1.9-2.4-3.3-1.5,1.6-3.3,2.8-5.4,3.6-2.2.8-4.5,1.2-6.9,1.2s-4.2-.3-5.9-.8c-1.8-.5-3.3-1.3-4.5-2.3-1.3-1-2.3-2.3-2.9-3.7-.7-1.5-1-3.2-1-5.2s.5-4.3,1.3-6.1c.9-1.7,2.3-3.2,4.1-4.4,1.7-1.1,4-1.9,6.7-2.5,2.7-.6,5.9-.9,9.5-.9h3.4v-2.2c0-1.4-.1-2.5-.4-3.4s-.7-1.6-1.2-2.2c-.6-.5-1.3-.9-2.1-1.1-.9-.2-1.9-.3-3-.3-2.1,0-4.2.4-6.3,1-2,.7-4.2,1.8-6.5,3.1h-.2c0,.1-4-5.7-4-5.7h.2c1.4-1,2.9-1.7,4.5-2.4,1.5-.6,3.1-1.2,4.7-1.7,1.5-.4,3.1-.8,4.6-1s3-.4,4.5-.4c2.6,0,4.8.3,6.6.9,1.8.6,3.3,1.5,4.5,2.7,1.1,1.3,1.9,3,2.4,5s.7,4.4.6,7.2l-.4,12v3.1c0,.8.1,1.5.3,2.1.3.9.7,1.5,1.1,2.1.5.5,1.2,1.1,2.1,1.8l.2.2-4.7,5.3h0v.2h0ZM300,66.2l.2.3c.7,1.5,1.5,2.7,2.5,3.4.9.7,1.9,1.3,3,1.7l4.1-4.7c-.9-.6-1.5-1.2-2-1.7-.5-.6-.9-1.3-1.2-2.2-.2-.7-.3-1.4-.4-2.3v-3.1l.4-12c.1-2.7,0-5.1-.6-7-.5-1.9-1.3-3.5-2.3-4.8-1.1-1.2-2.5-2.1-4.3-2.6-1.8-.6-3.9-.8-6.4-.8s-2.9.1-4.4.4c-1.5.2-3,.6-4.5,1-1.5.5-3.1,1-4.6,1.6-1.5.6-2.9,1.3-4.2,2.1l3.4,5c2.3-1.4,4.4-2.4,6.4-3.1,2.1-.7,4.2-1.1,6.4-1.1s2.2.1,3.1.4c.9.2,1.7.7,2.4,1.3.6.6,1.1,1.5,1.4,2.4.3,1,.4,2.2.4,3.6v2.7h-3.9c-3.5,0-6.7.3-9.4.8-2.6.6-4.8,1.4-6.5,2.4-1.8,1.1-3.1,2.5-4,4.2s-1.3,3.6-1.3,5.8.3,3.6,1,5,1.6,2.6,2.8,3.5c1.2,1,2.6,1.7,4.3,2.2s3.7.7,5.8.7,4.5-.4,6.7-1.2c2.1-.8,4-2,5.5-3.7l.3-.3h-.1ZM289.3,66.1c-1.2,0-2.2,0-3-.4-.9-.3-1.6-.7-2.1-1.3-.6-.5-1.1-1.2-1.4-2.1-.3-.8-.4-1.8-.4-2.8s.3-2.6.8-3.6,1.4-1.9,2.5-2.6c1.1-.6,2.5-1.1,4.2-1.4,1.6-.3,3.6-.5,5.9-.5s.6,0,1,0h1.7v10.1h0c-1.2,1.5-2.6,2.7-4.1,3.4s-3.2,1.1-5,1.1h-.1ZM295.8,51.8c-2.2,0-4.2.2-5.8.5-1.6.3-2.9.8-4,1.4-1,.6-1.8,1.4-2.3,2.4-.5.9-.7,2.1-.7,3.4s.1,1.9.4,2.7c.2.8.7,1.4,1.2,1.9.5.6,1.2.9,1.9,1.2.8.2,1.8.4,2.9.4,1.7,0,3.3-.3,4.8-1,1.4-.7,2.7-1.7,3.9-3.1v-9.4h-2.3v-.4h0Z"/>
    </g>
    <g>
      <path d="M347.5,27.4c-.6-1-1.4-1.9-2.4-2.6-1.1-.6-2.3-1.1-3.7-1.3-1.4-.3-2.9-.4-4.5-.4h-8.6v16.2h9.3c1.8,0,3.3-.2,4.6-.6,1.3-.4,2.5-1,3.4-1.7s1.6-1.5,2-2.5c.5-1,.7-2,.7-3.2s-.3-2.8-.9-3.8h.1ZM349.5,50.6c-.6-1.1-1.4-2.1-2.4-2.9-1.1-.7-2.4-1.2-3.9-1.6s-3.2-.6-5-.6h-9.8v18.5h10.1c1.9,0,3.5-.2,5-.6,1.5-.4,2.7-1.1,3.8-1.9,1-.8,1.8-1.8,2.3-3s.8-2.5.8-3.9-.3-2.9-.9-4h0ZM352.7,43.9c1.6.8,2.9,1.8,4,3,1,1.2,1.8,2.5,2.3,4s.8,3.1.8,4.8-.5,4.5-1.4,6.4-2.3,3.4-4.2,4.7c-1.9,1.3-4.3,2.2-7.2,2.9-2.9.7-6.2,1-10.1,1h-17.3c.2-1.5.3-2.7.3-3.8s.1-2.3.1-3.8V24.8c0-1.5,0-2.7-.1-3.8,0-1.1-.2-2.4-.3-4h16.2c3.1,0,6,.2,8.6.6s4.9,1.1,6.8,2.1c1.9,1,3.3,2.4,4.4,4,1.1,1.7,1.6,3.7,1.6,6.1s-.2,2.7-.6,4-1,2.4-1.9,3.5-2,2-3.3,2.8-2.8,1.4-4.5,1.8c2.2.4,4.1,1.1,5.6,1.9h.2Z"/>
      <path d="M336.9,70.7h-17.5v-.3c.2-1.5.3-2.7.4-3.8,0-1.1.1-2.3.1-3.8V24.8c0-1.5,0-2.7-.1-3.8,0-1.1-.2-2.4-.4-4v-.3h16.4c3.1,0,6,.2,8.7.6s5,1.1,6.9,2.1c1.9,1.1,3.4,2.4,4.5,4.1s1.6,3.8,1.6,6.2-.2,2.8-.6,4.1-1.1,2.5-1.9,3.5c-.9,1.1-2,2.1-3.3,2.9-1.1.6-2.3,1.2-3.6,1.6,1.8.4,3.4,1,4.7,1.7,1.6.9,3,1.9,4.1,3,1.1,1.2,1.9,2.6,2.4,4.1s.8,3.1.8,4.8-.5,4.6-1.4,6.5-2.4,3.5-4.3,4.8-4.4,2.3-7.3,2.9c-2.9.7-6.3,1-10.1,1h-.1ZM319.9,70.2h17c3.8,0,7.2-.3,10-1,2.8-.6,5.2-1.6,7.1-2.9,1.8-1.2,3.2-2.8,4.1-4.6s1.4-3.9,1.4-6.3-.3-3.2-.8-4.7c-.5-1.4-1.3-2.8-2.3-3.9-1.1-1.1-2.4-2.1-3.9-2.9-1.6-.8-3.4-1.5-5.6-1.9l-1.1-.2,1.1-.3c1.7-.4,3.2-1,4.4-1.8,1.3-.8,2.3-1.7,3.2-2.8.8-1,1.4-2.1,1.8-3.4.4-1.2.6-2.6.6-3.9,0-2.3-.5-4.3-1.6-6-1-1.6-2.5-3-4.3-4-1.9-1-4.2-1.7-6.8-2.1-2.6-.4-5.5-.6-8.6-.6h-15.9c.1,1.5.2,2.7.3,3.7,0,1.1.1,2.3.1,3.9v38.1c0,1.5,0,2.8-.1,3.8,0,1-.2,2.2-.3,3.5h0l.2.3h0ZM338.5,64.4h-10.4v-19h10c1.8,0,3.5.2,5,.6s2.9.9,4,1.7,1.9,1.8,2.5,2.9c.6,1.2.9,2.6.9,4.2s-.3,2.8-.8,4c-.6,1.2-1.4,2.2-2.4,3-1.1.9-2.4,1.5-3.9,1.9s-3.2.6-5.1.6h.2,0ZM328.6,63.9h9.9c1.8,0,3.5-.2,4.9-.6,1.4-.4,2.7-1,3.7-1.9,1-.8,1.7-1.7,2.2-2.9.5-1.1.8-2.4.8-3.8s-.3-2.8-.9-3.9c-.6-1.1-1.4-2-2.4-2.8-1.1-.7-2.3-1.2-3.8-1.6s-3.1-.6-4.9-.6h-9.5v18h0ZM337.7,39.5h-9.6v-16.7h8.8c1.6,0,3.1,0,4.6.4,1.4.3,2.7.7,3.8,1.4,1,.7,1.9,1.6,2.5,2.7.6,1.1.9,2.4.9,3.9s-.2,2.3-.7,3.3-1.2,1.9-2.1,2.6c-1,.8-2.1,1.4-3.5,1.8-1.3.4-2.9.6-4.7.6h0ZM328.6,39h9.1c1.7,0,3.3-.2,4.6-.6,1.3-.4,2.4-1,3.3-1.7.8-.7,1.5-1.5,2-2.4.4-.9.7-2,.7-3.1s-.3-2.7-.9-3.7-1.4-1.8-2.3-2.5c-1-.6-2.3-1-3.6-1.3-1.4-.3-2.9-.4-4.5-.4h-8.3v15.7h-.1Z"/>
    </g>
    <g>
      <path d="M381.2,37.1c-1.2.6-2.2,1.5-2.9,2.7-.8,1.3-1.3,2.8-1.7,4.6-.4,1.8-.5,3.8-.5,6.1s.2,4.9.5,6.8,1,3.5,1.8,4.7c.8,1.3,1.8,2.2,3,2.8s2.6.9,4.4.9,3-.3,4.2-.9c1.2-.6,2.2-1.5,3-2.8.8-1.2,1.4-2.7,1.7-4.5.4-1.8.6-3.9.6-6.3s-.2-4.6-.6-6.5-1-3.5-1.7-4.8c-.8-1.3-1.9-2.2-3.1-2.9-1.2-.6-2.7-1-4.3-1s-3.1.3-4.3,1h-.1ZM393.6,31.8c2.4,1,4.4,2.4,6.1,4.3,1.6,1.8,2.9,4,3.7,6.5.9,2.5,1.3,5.3,1.3,8.4s-.4,6-1.3,8.5-2.1,4.7-3.7,6.4c-1.7,1.8-3.7,3.2-6,4.2-2.4.9-5.1,1.4-8.1,1.4s-5.4-.5-7.7-1.4c-2.3-.9-4.3-2.3-6-4s-3-3.9-4-6.4c-.9-2.6-1.4-5.5-1.4-8.7s.5-6.1,1.4-8.6,2.3-4.7,4-6.5c1.7-1.7,3.6-3.1,5.9-4,2.3-1,4.8-1.4,7.6-1.4s5.8.5,8.2,1.5v-.2Z"/>
      <path d="M385.6,71.7c-2.8,0-5.4-.5-7.8-1.4s-4.4-2.3-6.1-4.1c-1.7-1.7-3.1-3.9-4-6.5s-1.4-5.5-1.4-8.8.5-6.1,1.4-8.7,2.3-4.8,4-6.6c1.7-1.8,3.7-3.1,6-4.1s4.9-1.5,7.7-1.5,5.9.5,8.3,1.5,4.5,2.5,6.1,4.3c1.6,1.9,2.9,4.1,3.8,6.6.9,2.6,1.3,5.4,1.3,8.5s-.4,6-1.3,8.6-2.1,4.7-3.7,6.5c-1.7,1.8-3.7,3.3-6.1,4.2s-5.1,1.4-8.2,1.4h0ZM385.4,30.5c-2.7,0-5.2.5-7.5,1.4s-4.2,2.3-5.9,4c-1.7,1.8-3,4-3.9,6.5s-1.4,5.4-1.4,8.5.5,6.1,1.4,8.6,2.2,4.7,3.9,6.4c1.6,1.8,3.6,3.1,5.9,4s4.9,1.4,7.6,1.4,5.7-.5,8-1.4,4.3-2.3,5.9-4.1c1.6-1.7,2.8-3.8,3.6-6.3.8-2.5,1.3-5.3,1.3-8.4s-.4-5.8-1.3-8.3-2.1-4.7-3.7-6.5-3.6-3.2-6-4.2c-2.3-1-5.1-1.5-8.1-1.5h.2ZM385.7,65.9c-1.7,0-3.2-.3-4.5-.9-1.2-.6-2.3-1.6-3.1-2.9-.8-1.2-1.5-2.8-1.8-4.8-.4-1.9-.5-4.2-.5-6.9s.2-4.3.5-6.1c.4-1.8,1-3.4,1.7-4.7.7-1.2,1.7-2.2,3-2.8,1.2-.6,2.7-1,4.4-1s3.2.3,4.4,1c1.2.6,2.3,1.6,3.2,2.9.8,1.3,1.4,2.9,1.8,4.8.4,1.9.6,4.1.6,6.6s-.2,4.5-.6,6.4c-.4,1.8-1,3.4-1.8,4.6-.8,1.3-1.8,2.3-3,2.9-1.2.6-2.7.9-4.3.9h0ZM385.5,36.4c-1.6,0-3,.3-4.2.9-1.1.6-2.1,1.5-2.8,2.6-.8,1.2-1.3,2.7-1.7,4.5-.4,1.8-.5,3.8-.5,6s.2,4.9.5,6.8c.4,1.9.9,3.4,1.8,4.6.8,1.2,1.7,2.2,2.9,2.7,1.2.6,2.6.9,4.2.9s2.9-.3,4.1-.9c1.1-.6,2.1-1.5,2.9-2.7.8-1.1,1.3-2.6,1.7-4.4.4-1.8.6-3.9.6-6.2s-.2-4.6-.6-6.5-1-3.4-1.7-4.7c-.8-1.2-1.8-2.2-3-2.8-1.2-.6-2.6-.9-4.2-.9h0Z"/>
    </g>
    <path d="M427.5,31.2c1.3,0,3-.1,5.1-.3l-1.6,6.3c-1.7,0-3.1-.2-4.3-.2h-4.3v22.4c0,1.5,0,2.6.2,3.3.2.8.6,1.5,1.3,2.1.4.4.9.6,1.6.7.7,0,1.4.2,2.2,0,.8,0,1.6,0,2.4-.3.8,0,1.5-.3,2.1-.5l.9,5.1c-1.1.5-2.5.9-4,1.2s-2.9.4-4,.4c-1.9,0-3.5-.2-4.9-.6-1.4-.4-2.5-1-3.4-1.9-.9-.8-1.6-1.8-2.1-3.1-.5-1.2-.7-2.7-.7-4.4v-24.6h-4.9v-5.7h4.9v-2.9c0-.9,0-1.8-.1-2.6,0-.8-.1-1.7-.2-2.5,0-.8-.1-1.5-.2-2.3l9.5-1.3c-.3,2-.5,3.9-.6,5.7,0,1.8-.1,3.7-.1,5.8h5.2v.2Z"/>
  </g>
</svg>