<?xml version="1.0" encoding="UTF-8"?>
<svg id="Layer_1" xmlns="http://www.w3.org/2000/svg" version="1.1" viewBox="0 0 93.3 87.9">
  <!-- Generator: Adobe Illustrator 29.3.1, SVG Export Plug-In . SVG Version: 2.1.0 Build 151)  -->
  <defs>
    <style>
      .st0 {
        fill: #231815;
      }

      .st1 {
        fill: #fff;
      }

      .st2 {
        fill: none;
      }

      .st3 {
        fill: #de0515;
      }

      .st4 {
        fill: #0f0a0a;
      }

      .st5 {
        fill: #86807c;
      }
    </style>
  </defs>
  <path class="st0" d="M46.5,14.3L14.7,62.2l63.9-.3L46.5,14.3ZM46.6,26.2l20,29.5H26.1l20.4-29.5h0Z"/>
  <polygon class="st4" points="26.1 55.9 36.3 41 36.8 40.2 46.4 26.1 46.5 15.3 31.9 37.2 31.3 38 15.8 61.5 26.1 55.9"/>
  <g>
    <rect class="st3" x=".4" y="30" width="24.3" height="1.4"/>
    <path class="st0" d="M25,31.8H0v-2.2h25v2.2ZM.8,31h23.5v-.7H.8v.7Z"/>
  </g>
  <g>
    <rect class="st3" x="6.5" y="33.9" width="12" height="1.4"/>
    <path class="st0" d="M18.9,35.8H6.1v-2.2h12.8v2.2ZM6.9,35h11.3v-.7H6.9v.7Z"/>
  </g>
  <g>
    <rect class="st5" x="74.6" y="15.5" width="1.5" height="23"/>
    <path class="st0" d="M76.5,38.9h-2.3V15.1h2.3v23.7h0s0,0,0,0h0ZM74.9,38.1h.8V15.9h-.8v22.2Z"/>
  </g>
  <g>
    <rect class="st5" x="70.4" y="15.5" width="1.5" height="11.4"/>
    <path class="st0" d="M72.3,27.3h-2.3v-12.2h2.3v12.2ZM70.7,26.5h.8v-10.6h-.8v10.7h0Z"/>
  </g>
  <g>
    <polygon class="st1" points="44.8 67.9 59 86.5 57.8 87.4 43.5 68.7 44.8 67.9"/>
    <path class="st0" d="M57.7,87.9l-14.7-19.2,1.9-1.3,14.7,19.2-1.9,1.3h0ZM44.1,68.8l13.8,18,.6-.4-13.8-18-.6.4Z"/>
  </g>
  <g>
    <polygon class="st1" points="48.2 65.6 55.2 74.8 54 75.7 46.9 66.4 48.2 65.6"/>
    <path class="st0" d="M53.9,76.2l-7.5-9.8,1.9-1.3,7.5,9.8-1.9,1.3ZM47.5,66.5l6.6,8.6.6-.4-6.6-8.6-.6.4h0Z"/>
  </g>
  <rect class="st3" x=".1" y="29.7" width="24.8" height="2"/>
  <rect class="st3" x="6.2" y="33.7" width="12.6" height="2"/>
  <rect class="st5" x="74.3" y="15.2" width="2" height="23.5"/>
  <rect class="st5" x="70.2" y="15.2" width="2" height="11.9"/>
  <polygon class="st4" points="44.8 67.9 59 86.5 57.8 87.4 43.5 68.7 44.8 67.9"/>
  <polygon class="st4" points="48.2 65.6 55.2 74.8 54 75.7 46.9 66.4 48.2 65.6"/>
  <g>
    <path class="st0" d="M16.4,61.5l-.5-.5,15.5-23.9,15.2-23v11.9l-10.1,15-10.4,14.6-9.7,5.8h0ZM45.9,16.6l-14.4,21.5-14.2,21.9,8.3-4.9,10.8-15.2,9.5-14v-9.3h0Z"/>
    <path class="st0" d="M77.6,61.9H15.5l-.2-.7,10.7-5.6h40.5l11.2,5.6-.2.7h0ZM17,61.1h59l-9.7-4.8H26.2l-9.1,4.8h-.1Z"/>
    <path class="st0" d="M77.4,61.3l-10.9-5.7-10.6-15.5-9.4-14.3v-11.7l15.6,23.6,15.8,23.1-.5.5h0ZM67.1,55.2l9.4,4.8-15.6-22.8-13.6-20.7v9.1l9.8,14.9,10,14.6h0Z"/>
  </g>
  <polygon class="st3" points="67 55.7 56.7 40.8 56.2 39.9 46.6 25.4 46.6 14.7 61.3 36.9 61.8 37.7 78.1 61.5 67 55.7"/>
  <polygon class="st5" points="66.6 56 48.1 56 47 56 26.1 56 15.5 61.7 47 61.7 48.1 61.7 77.8 61.7 66.6 56"/>
  <rect class="st2" x="78.6" y="47.5" width="14.7" height="20.9"/>
  <rect class="st2" x="39.2" width="14.7" height="14.2"/>
</svg>