<?xml version="1.0" encoding="UTF-8"?>
<svg id="Layer_1" xmlns="http://www.w3.org/2000/svg" version="1.1" viewBox="0 0 382.763 75.986">
  <!-- Generator: Adobe Illustrator 29.3.1, SVG Export Plug-In . SVG Version: 2.1.0 Build 151)  -->
  <defs>
    <style>
      .st0 {
        fill: #231815;
      }

      .st1 {
        fill: #fff;
      }

      .st2 {
        fill: #de0515;
      }

      .st3 {
        fill: #0f0a0a;
      }

      .st4 {
        fill: #86807c;
      }
    </style>
  </defs>
  <path class="st0" d="M46.498,2.367L14.744,50.284l63.949-.251L46.498,2.367ZM46.557,14.346l20.015,29.47H26.129l20.428-29.47Z"/>
  <polygon class="st3" points="26.076 44.027 36.26 29.138 36.83 28.293 46.386 14.221 46.498 3.398 31.881 25.275 31.31 26.117 15.815 49.605 26.076 44.027"/>
  <polygon class="st2" points="66.89 43.722 56.843 29.081 56.282 28.229 46.915 14.044 46.94 3.568 61.271 25.268 61.833 26.119 77.675 49.257 66.89 43.722"/>
  <polygon class="st4" points="66.572 43.816 48.07 43.816 47.011 43.816 26.129 43.816 15.535 49.763 47.011 49.763 48.07 49.763 77.8 49.763 66.572 43.816"/>
  <g>
    <rect class="st2" x=".375" y="18.065" width="24.266" height="1.448"/>
    <path class="st0" d="M25.016,19.888H0v-2.198h25.016v2.198ZM.75,19.138h23.516v-.698H.75v.698Z"/>
  </g>
  <g>
    <rect class="st2" x="6.49" y="22.048" width="12.036" height="1.448"/>
    <path class="st0" d="M18.901,23.871H6.115v-2.198h12.786v2.198ZM6.865,23.121h11.286v-.698H6.865v.698Z"/>
  </g>
  <g>
    <rect class="st4" x="74.567" y="3.589" width="1.53" height="22.991"/>
    <path class="st0" d="M76.472,26.955h-2.28V3.214h2.28v23.741ZM74.942,26.205h.78V3.964h-.78v22.241Z"/>
  </g>
  <g>
    <rect class="st4" x="70.363" y="3.589" width="1.529" height="11.403"/>
    <path class="st0" d="M72.267,15.367h-2.279V3.214h2.279v12.153ZM70.738,14.617h.779V3.964h-.779v10.653Z"/>
  </g>
  <g>
    <polygon class="st1" points="44.779 55.992 58.996 74.625 57.755 75.476 43.539 56.841 44.779 55.992"/>
    <path class="st0" d="M57.673,75.986l-14.671-19.233,1.859-1.272,14.672,19.229-1.86,1.275ZM44.077,56.928l13.76,18.037.621-.426-13.761-18.036-.62.425Z"/>
  </g>
  <g>
    <polygon class="st1" points="48.185 53.659 55.238 62.901 53.998 63.751 46.947 54.508 48.185 53.659"/>
    <path class="st0" d="M53.916,64.262l-7.507-9.84,1.858-1.273,7.508,9.839-1.859,1.274ZM47.484,54.594l6.596,8.646.62-.425-6.597-8.646-.619.424Z"/>
  </g>
  <rect class="st2" x=".375" y="18.065" width="24.266" height="1.448"/>
  <rect class="st2" x="6.49" y="22.048" width="12.036" height="1.448"/>
  <rect class="st4" x="74.567" y="3.589" width="1.53" height="22.991"/>
  <rect class="st4" x="70.363" y="3.589" width="1.529" height="11.403"/>
  <polygon class="st3" points="44.779 55.992 58.996 74.625 57.755 75.476 43.539 56.841 44.779 55.992"/>
  <polygon class="st3" points="48.185 53.659 55.238 62.901 53.998 63.751 46.947 54.508 48.185 53.659"/>
  <g>
    <g>
      <path d="M82.037,50.662c.078-1.08.117-2.347.117-3.803V8.77c0-1.454-.039-2.734-.117-3.838-.078-1.102-.195-2.429-.349-3.978h12.203c2.903,0,5.546.153,7.931.458,2.382.306,4.327.692,5.83,1.162,2.902.938,5.363,2.265,7.385,3.977,2.021,1.715,3.679,3.696,4.976,5.949,1.243,2.253,2.149,4.706,2.72,7.357.57,2.652.854,5.316.854,7.992s-.271,5.292-.815,7.85c-.545,2.559-1.388,4.941-2.527,7.146-1.193,2.252-2.695,4.248-4.509,5.984s-3.991,3.098-6.528,4.084c-1.401.516-3.202.902-5.404,1.161-2.203.258-4.728.387-7.579.387h-14.537c.154-1.454.271-2.722.349-3.801ZM113.598,18.979c-.699-2.722-1.749-4.998-3.148-6.83-1.4-1.734-3.149-3.026-5.248-3.871-2.098-.845-4.547-1.268-7.346-1.268h-7.308v41.189h7.619c2.798,0,5.22-.376,7.268-1.127,2.046-.75,3.771-1.925,5.17-3.52,1.347-1.55,2.357-3.556,3.031-6.02.673-2.464,1.011-5.387,1.011-8.767,0-3.802-.35-7.063-1.05-9.786Z"/>
      <path d="M96.224,54.713h-14.814l.029-.276c.154-1.453.271-2.729.348-3.792.077-1.065.116-2.338.116-3.785V8.77c0-1.447-.039-2.732-.116-3.82-.077-1.087-.194-2.423-.348-3.971l-.028-.275h12.479c2.894,0,5.573.154,7.962.46,2.391.307,4.367.701,5.872,1.172,2.92.944,5.434,2.298,7.472,4.025,2.034,1.726,3.726,3.749,5.031,6.015,1.25,2.267,2.174,4.765,2.748,7.43.57,2.654.86,5.361.86,8.045s-.276,5.34-.82,7.901c-.547,2.568-1.405,4.994-2.55,7.21-1.203,2.271-2.736,4.306-4.559,6.05-1.829,1.751-4.053,3.142-6.611,4.137-1.415.521-3.253.916-5.465,1.176-2.203.258-4.763.389-7.608.389ZM81.965,54.213h14.259c2.827,0,5.367-.13,7.55-.385,2.173-.256,3.972-.642,5.347-1.147,2.492-.969,4.661-2.325,6.442-4.03,1.783-1.707,3.284-3.699,4.461-5.921,1.123-2.173,1.966-4.557,2.503-7.081.537-2.528.81-5.151.81-7.798s-.286-5.32-.849-7.939c-.563-2.618-1.47-5.07-2.694-7.289-1.274-2.212-2.93-4.191-4.919-5.88-1.988-1.684-4.445-3.007-7.301-3.93-1.475-.462-3.422-.85-5.784-1.152-2.368-.303-5.026-.456-7.899-.456h-11.927c.142,1.436.25,2.683.323,3.71.078,1.1.117,2.396.117,3.856v38.09c0,1.459-.04,2.744-.117,3.82-.073,1.002-.181,2.189-.321,3.533ZM98.167,48.448h-7.869V6.76h7.558c2.818,0,5.321.433,7.439,1.286,2.127.855,3.927,2.183,5.349,3.945,1.418,1.857,2.492,4.186,3.196,6.925.702,2.731,1.058,6.045,1.058,9.849,0,3.384-.343,6.356-1.019,8.832-.68,2.488-1.718,4.546-3.084,6.118-1.422,1.622-3.196,2.83-5.273,3.591-2.067.758-4.541,1.143-7.354,1.143ZM90.799,47.948h7.369c2.754,0,5.17-.374,7.182-1.111,1.997-.733,3.703-1.894,5.068-3.451,1.315-1.514,2.318-3.506,2.978-5.921.665-2.434,1.002-5.361,1.002-8.7,0-3.762-.351-7.033-1.042-9.724-.687-2.674-1.731-4.942-3.104-6.741-1.364-1.689-3.096-2.967-5.143-3.791-2.059-.829-4.499-1.249-7.252-1.249h-7.058v40.689Z"/>
    </g>
    <g>
      <path d="M157.752,26.724c-.388-1.361-.946-2.535-1.671-3.52-.777-.986-1.699-1.749-2.76-2.289-1.062-.539-2.294-.81-3.693-.81-1.503,0-2.811.235-3.925.703-1.115.47-2.034,1.151-2.76,2.042-.777.94-1.36,2.101-1.749,3.485-.387,1.386-.582,2.992-.582,4.823h17.724c0-1.595-.194-3.074-.583-4.435ZM140.534,37.777c0,1.972.232,3.685.698,5.14.467,1.455,1.192,2.652,2.177,3.591.934.986,2.111,1.713,3.538,2.183,1.424.47,3.122.704,5.091.704,2.125,0,4.068-.281,5.831-.845,1.761-.563,3.447-1.432,5.053-2.605l3.342,4.576c-2.124,1.596-4.496,2.816-7.112,3.661-2.619.845-5.352,1.268-8.202,1.268-3.265,0-6.13-.517-8.59-1.549-2.462-1.032-4.497-2.464-6.103-4.295-1.71-1.83-2.981-4.001-3.809-6.513-.829-2.511-1.243-5.245-1.243-8.203,0-3.049.439-5.843,1.321-8.378.881-2.534,2.149-4.717,3.809-6.548,1.554-1.783,3.472-3.179,5.753-4.189,2.28-1.008,4.792-1.513,7.54-1.513,2.85,0,5.364.445,7.54,1.337,2.178.893,4.016,2.207,5.52,3.943,1.45,1.83,2.552,4.061,3.304,6.688.75,2.63,1.127,5.679,1.127,9.152v1.409h-26.586v.985Z"/>
      <path d="M150.951,55.699c-3.284,0-6.206-.527-8.686-1.568-2.486-1.042-4.571-2.51-6.195-4.36-1.725-1.846-3.024-4.068-3.858-6.6-.833-2.523-1.256-5.31-1.256-8.281,0-3.066.449-5.913,1.335-8.46.889-2.557,2.187-4.788,3.86-6.634,1.566-1.797,3.531-3.229,5.837-4.25,2.303-1.017,4.873-1.534,7.641-1.534,2.871,0,5.439.456,7.635,1.355,2.202.902,4.09,2.252,5.615,4.011,1.471,1.856,2.597,4.136,3.355,6.784.754,2.645,1.137,5.747,1.137,9.221v1.659h-26.586v.735c0,1.938.231,3.641.687,5.063.452,1.408,1.162,2.581,2.111,3.486.909.959,2.064,1.672,3.443,2.126,1.392.459,3.078.691,5.013.691,2.089,0,4.025-.28,5.754-.833,1.731-.554,3.407-1.418,4.982-2.569l.202-.147,3.635,4.977-.197.148c-2.137,1.604-4.554,2.85-7.185,3.699-2.632.849-5.417,1.279-8.278,1.279ZM149.628,14.512c-2.697,0-5.2.502-7.438,1.491-2.238.992-4.144,2.38-5.665,4.125-1.631,1.799-2.895,3.974-3.761,6.466-.868,2.494-1.308,5.285-1.308,8.296,0,2.919.414,5.652,1.23,8.125.811,2.462,2.074,4.622,3.754,6.42,1.579,1.8,3.602,3.223,6.018,4.235,2.418,1.015,5.276,1.529,8.493,1.529,2.809,0,5.542-.423,8.125-1.256,2.497-.806,4.797-1.975,6.84-3.476l-3.049-4.175c-1.559,1.109-3.214,1.948-4.922,2.495-1.778.568-3.766.856-5.907.856-1.988,0-3.727-.241-5.169-.717-1.458-.48-2.684-1.236-3.641-2.248-1.001-.954-1.756-2.197-2.234-3.686-.471-1.472-.71-3.227-.71-5.216v-1.235h26.586v-1.159c0-3.428-.376-6.484-1.117-9.084-.74-2.585-1.836-4.806-3.259-6.602-1.466-1.691-3.291-2.995-5.419-3.867-2.136-.875-4.641-1.318-7.446-1.318ZM158.585,31.409h-18.224v-.25c0-1.84.199-3.485.592-4.891.396-1.411,1.001-2.614,1.797-3.577.749-.919,1.71-1.631,2.855-2.113,1.143-.479,2.496-.723,4.022-.723,1.431,0,2.712.281,3.806.837,1.092.556,2.049,1.349,2.843,2.357.745,1.011,1.32,2.222,1.715,3.606.394,1.376.593,2.892.593,4.504v.25ZM140.863,30.909h17.221c-.019-1.472-.212-2.855-.572-4.117-.378-1.325-.927-2.483-1.632-3.439-.744-.944-1.644-1.691-2.672-2.215-1.023-.519-2.228-.782-3.58-.782-1.46,0-2.748.231-3.829.684-1.069.45-1.965,1.113-2.663,1.97-.753.91-1.325,2.052-1.703,3.395-.363,1.298-.555,2.812-.572,4.506Z"/>
    </g>
    <g>
      <path d="M176.293,3.806c-.053-1.102-.13-2.288-.233-3.556h9.25c-.155,1.268-.26,2.453-.31,3.556-.053,1.104-.079,2.288-.079,3.556v34.288c0,2.253.079,3.872.234,4.858.155.986.491,1.76,1.01,2.323.311.422.828.669,1.555.739.725.07,1.347.013,1.867-.176l1.088,5.491c-.778.141-1.646.258-2.605.353-.959.093-1.801.141-2.526.141-1.555,0-2.89-.224-4.003-.668-1.115-.447-2.06-1.139-2.838-2.078-.777-.892-1.36-2.03-1.749-3.415-.388-1.383-.582-2.992-.582-4.822V7.361c0-1.268-.027-2.452-.078-3.556Z"/>
      <path d="M185.543,55.629c-1.578,0-2.956-.23-4.096-.685-1.149-.461-2.138-1.185-2.938-2.151-.794-.91-1.4-2.092-1.797-3.507-.393-1.399-.591-3.045-.591-4.89V7.361c0-1.226-.026-2.418-.077-3.544-.053-1.1-.131-2.293-.233-3.547l-.022-.271h9.804l-.035.28c-.155,1.268-.259,2.458-.309,3.537-.052,1.088-.078,2.28-.078,3.544v34.288c0,2.225.078,3.847.231,4.819.146.933.465,1.67.947,2.193.283.382.747.597,1.394.659.685.066,1.277.013,1.757-.162l.274-.099,1.194,6.026-.25.045c-.776.141-1.66.26-2.625.355-.973.094-1.831.142-2.55.142ZM176.331.5c.092,1.16.163,2.268.212,3.294.052,1.135.078,2.335.078,3.567v37.034c0,1.8.193,3.399.573,4.755.377,1.343.948,2.459,1.697,3.318.751.906,1.672,1.581,2.743,2.01,1.08.432,2.396.65,3.91.65.704,0,1.545-.047,2.502-.14.849-.084,1.633-.186,2.334-.306l-.984-4.968c-.493.131-1.061.163-1.699.104-.795-.077-1.378-.359-1.732-.84-.533-.576-.893-1.401-1.056-2.433-.157-.999-.237-2.646-.237-4.897V7.361c0-1.271.026-2.472.079-3.567.046-1.012.14-2.118.278-3.294h-8.698Z"/>
    </g>
    <g>
      <path d="M212.517,15.177c1.348-.046,3.033-.142,5.053-.282l-1.631,6.337c-1.66-.093-3.082-.163-4.275-.211-1.193-.047-2.617-.071-4.276-.071v22.391c0,1.455.077,2.57.233,3.344.154.774.595,1.491,1.322,2.147.361.376.893.622,1.594.74.699.117,1.437.152,2.215.105.828-.047,1.645-.141,2.449-.281.803-.142,1.488-.305,2.059-.493l.934,5.07c-1.141.515-2.463.902-3.965,1.161-1.504.258-2.852.387-4.043.387-1.866,0-3.485-.2-4.858-.598-1.373-.4-2.5-1.021-3.381-1.866-.933-.799-1.633-1.82-2.099-3.062-.467-1.243-.701-2.711-.701-4.401v-24.642h-4.896v-5.701h4.896c0-.986-.013-1.938-.037-2.853-.027-.916-.066-1.796-.117-2.641-.052-.845-.106-1.666-.155-2.464-.053-.798-.105-1.549-.156-2.253l9.483-1.268c-.31,1.972-.504,3.861-.583,5.668-.077,1.808-.116,3.744-.116,5.81,2.023,0,3.705-.023,5.052-.071Z"/>
      <path d="M210.184,55.77c-1.876,0-3.535-.204-4.927-.607-1.408-.41-2.581-1.059-3.485-1.926-.951-.815-1.681-1.879-2.16-3.155-.476-1.265-.717-2.775-.717-4.489v-24.392h-4.896v-6.201h4.896c-.002-.894-.014-1.761-.037-2.596-.027-.913-.066-1.79-.117-2.633l-.155-2.463c-.053-.796-.105-1.547-.156-2.25l-.017-.235,10.049-1.343-.052.331c-.307,1.944-.502,3.842-.58,5.64-.074,1.729-.113,3.595-.116,5.549,1.908-.002,3.519-.026,4.794-.071,1.312-.045,2.961-.137,5.043-.281l.346-.024-1.768,6.871-.205-.011c-1.658-.093-3.08-.163-4.271-.211-1.139-.045-2.488-.068-4.016-.071v22.141c0,1.435.077,2.544.229,3.294.143.72.561,1.396,1.245,2.012.332.346.822.57,1.467.68.682.112,1.404.147,2.158.101.814-.046,1.629-.139,2.422-.277.793-.141,1.475-.303,2.023-.484l.273-.09,1.019,5.545-.178.08c-1.156.522-2.512.919-4.027,1.18-1.51.26-2.883.391-4.084.391ZM194.499,20.699h4.896v24.892c0,1.653.23,3.104.684,4.314.449,1.196,1.131,2.192,2.027,2.961.856.82,1.959,1.428,3.289,1.815,1.347.39,2.958.588,4.788.588,1.172,0,2.518-.129,4-.383,1.396-.24,2.648-.599,3.727-1.065l-.846-4.598c-.519.155-1.119.292-1.82.416-.812.142-1.648.237-2.48.285-.787.046-1.553.012-2.269-.108-.754-.127-1.338-.4-1.732-.814-.752-.677-1.222-1.445-1.387-2.271-.158-.782-.238-1.924-.238-3.393v-22.641h.25c1.637,0,3.079.024,4.286.071,1.144.046,2.502.112,4.074.2l1.494-5.803c-1.926.132-3.471.216-4.715.259-1.336.047-3.039.071-5.062.071h-.25v-.25c0-2.052.039-4.01.116-5.82.075-1.715.255-3.518.535-5.365l-8.92,1.192c.046.636.092,1.31.14,2.02l.155,2.465c.051.848.09,1.73.118,2.648.024.918.037,1.872.037,2.86v.25h-4.896v5.201Z"/>
    </g>
    <g>
      <path d="M246.411,35.666c-.467-.048-.805-.071-1.01-.071-2.283,0-4.238.165-5.873.493-1.629.328-2.99.798-4.078,1.407-1.09.658-1.893,1.48-2.41,2.465-.519.986-.777,2.159-.777,3.52,0,1.032.127,1.948.389,2.745.258.8.699,1.456,1.322,1.972.518.564,1.191.976,2.019,1.232.83.258,1.814.388,2.953.388,1.764,0,3.395-.352,4.899-1.057,1.502-.703,2.85-1.784,4.043-3.239v-9.787c-.52,0-1.01-.022-1.477-.068ZM255.27,55.942c-1.189-.376-2.266-.962-3.223-1.761-.961-.799-1.803-1.972-2.527-3.52-1.504,1.689-3.355,2.944-5.559,3.767-2.205.82-4.469,1.232-6.803,1.232-2.176,0-4.133-.247-5.869-.74-1.736-.492-3.201-1.231-4.393-2.218-1.242-.984-2.201-2.193-2.875-3.626-.674-1.431-1.01-3.134-1.01-5.104,0-2.253.439-4.235,1.32-5.949.881-1.713,2.228-3.133,4.041-4.26,1.713-1.078,3.914-1.9,6.609-2.464,2.695-.562,5.83-.845,9.406-.845h3.652v-2.464c0-1.408-.143-2.581-.428-3.521-.285-.939-.713-1.713-1.281-2.323-.621-.564-1.375-.962-2.254-1.197-.881-.235-1.893-.352-3.033-.352-2.176,0-4.289.352-6.334,1.057-2.049.704-4.238,1.76-6.57,3.168l-3.73-5.422c1.398-.845,2.875-1.583,4.43-2.217,1.555-.635,3.111-1.186,4.666-1.654,1.502-.422,3.018-.751,4.545-.985,1.529-.235,3.019-.353,4.473-.353,2.539,0,4.703.281,6.492.845,1.787.563,3.25,1.455,4.391,2.675,1.086,1.268,1.877,2.887,2.371,4.858.492,1.971.687,4.343.582,7.111l-.387,12.039c0,1.267.01,2.301.037,3.098.025.8.143,1.527.35,2.183.312.893.701,1.609,1.168,2.148.467.539,1.189,1.139,2.176,1.795l-4.434,4.999Z"/>
      <path d="M255.35,56.229l-.154-.049c-1.221-.386-2.334-.993-3.308-1.807-.912-.759-1.729-1.858-2.432-3.271-1.48,1.575-3.299,2.772-5.406,3.559-2.227.828-4.545,1.248-6.891,1.248-2.187,0-4.185-.252-5.937-.75-1.762-.5-3.271-1.262-4.482-2.266-1.266-1.001-2.256-2.251-2.943-3.712-.686-1.456-1.033-3.209-1.033-5.211,0-2.284.453-4.324,1.348-6.064.898-1.746,2.289-3.212,4.133-4.357,1.73-1.091,3.98-1.931,6.689-2.497,2.701-.563,5.885-.85,9.457-.85h3.402v-2.214c0-1.379-.141-2.538-.416-3.448-.273-.897-.685-1.646-1.226-2.225-.572-.518-1.295-.902-2.135-1.127-.855-.227-1.853-.344-2.969-.344-2.139,0-4.242.351-6.252,1.043-2.021.694-4.215,1.753-6.523,3.146l-.201.122-4.016-5.835.228-.137c1.398-.845,2.9-1.597,4.465-2.234,1.547-.632,3.123-1.19,4.687-1.662,1.514-.426,3.053-.759,4.58-.993,1.531-.236,3.049-.356,4.51-.356,2.553,0,4.764.288,6.566.857,1.82.574,3.334,1.497,4.498,2.742,1.115,1.301,1.932,2.97,2.432,4.969.498,1.991.695,4.407.59,7.182l-.387,12.037c0,1.319.012,2.329.037,3.082.023.769.139,1.48.338,2.115.297.852.674,1.547,1.119,2.061.455.526,1.172,1.115,2.125,1.75l.238.159-4.73,5.335ZM249.587,50.213l.16.343c.707,1.509,1.533,2.664,2.461,3.434.883.738,1.887,1.297,2.984,1.665l4.135-4.663c-.873-.6-1.541-1.164-1.988-1.679-.484-.561-.894-1.312-1.215-2.23-.217-.686-.338-1.442-.363-2.257-.025-.757-.037-1.773-.037-3.105l.387-12.047c.105-2.729-.09-5.098-.574-7.043-.482-1.923-1.262-3.523-2.318-4.756-1.098-1.175-2.539-2.052-4.277-2.6-1.754-.553-3.914-.833-6.416-.833-1.436,0-2.926.117-4.434.35-1.508.231-3.027.56-4.518.979-1.543.466-3.105,1.019-4.637,1.645-1.457.594-2.857,1.287-4.168,2.064l3.445,5.009c2.264-1.351,4.422-2.384,6.418-3.069,2.062-.71,4.221-1.07,6.414-1.07,1.158,0,2.201.121,3.098.361.918.245,1.711.667,2.357,1.253.607.65,1.057,1.465,1.354,2.435.289.957.437,2.166.437,3.594v2.714h-3.902c-3.539,0-6.687.282-9.355.84-2.648.554-4.844,1.371-6.527,2.431-1.766,1.098-3.096,2.498-3.951,4.162-.857,1.668-1.293,3.632-1.293,5.835,0,1.928.332,3.609.986,4.998.652,1.391,1.598,2.581,2.805,3.536,1.162.963,2.609,1.692,4.305,2.174,1.707.484,3.658.73,5.801.73,2.287,0,4.545-.409,6.717-1.217,2.15-.804,3.988-2.048,5.459-3.698l.252-.283ZM238.946,50.067c-1.156,0-2.176-.134-3.027-.399-.865-.268-1.582-.706-2.131-1.302-.631-.521-1.103-1.223-1.375-2.064-.266-.812-.4-1.763-.4-2.822,0-1.395.271-2.619.805-3.637.539-1.022,1.381-1.884,2.504-2.562,1.113-.624,2.51-1.107,4.158-1.439,1.646-.33,3.639-.498,5.922-.498.217,0,.564.024,1.035.072.459.046.934.067,1.451.067h.25v10.127l-.057.068c-1.215,1.48-2.603,2.593-4.129,3.308-1.529.717-3.213,1.08-5.006,1.08ZM245.401,35.845c-2.25,0-4.209.164-5.824.488-1.596.321-2.943.786-4.006,1.38-1.035.627-1.816,1.424-2.31,2.363-.496.945-.748,2.09-.748,3.404,0,1.007.127,1.904.375,2.667.244.75.662,1.375,1.244,1.857.512.553,1.154.944,1.935,1.186.805.25,1.771.377,2.879.377,1.719,0,3.33-.348,4.793-1.033,1.434-.671,2.746-1.715,3.899-3.102v-9.449c-.438-.006-.85-.028-1.252-.067-.447-.046-.787-.07-.984-.07Z"/>
    </g>
    <g>
      <path d="M297.134,11.444c-.596-1.031-1.387-1.899-2.371-2.605-1.088-.609-2.332-1.056-3.733-1.338-1.398-.281-2.902-.423-4.508-.423h-8.553v16.194h9.33c1.762,0,3.303-.199,4.625-.599,1.322-.397,2.451-.974,3.383-1.725.881-.703,1.553-1.549,2.019-2.534.467-.985.701-2.041.701-3.168,0-1.502-.301-2.77-.895-3.803ZM299.077,34.644c-.596-1.149-1.412-2.1-2.447-2.851-1.092-.704-2.387-1.243-3.889-1.619-1.504-.376-3.162-.563-4.975-.563h-9.797v18.517h10.107c1.863,0,3.537-.211,5.014-.634,1.478-.422,2.732-1.056,3.769-1.9.984-.798,1.752-1.784,2.295-2.958.545-1.172.816-2.487.816-3.942,0-1.549-.301-2.897-.894-4.049ZM302.265,27.85c1.58.846,2.916,1.83,4.004,2.957,1.037,1.175,1.812,2.499,2.332,3.979.518,1.479.777,3.062.777,4.752,0,2.395-.467,4.519-1.4,6.373-.932,1.853-2.332,3.414-4.197,4.681-1.918,1.269-4.314,2.23-7.191,2.887-2.875.657-6.232.986-10.066.986h-17.256c.152-1.455.269-2.723.348-3.803.08-1.078.115-2.346.115-3.801V8.769c0-1.454-.035-2.733-.115-3.836-.078-1.103-.195-2.43-.348-3.979h16.168c3.107,0,5.984.211,8.627.634,2.644.423,4.926,1.127,6.842,2.112,1.865,1.034,3.328,2.383,4.393,4.049,1.062,1.666,1.594,3.695,1.594,6.091,0,1.407-.209,2.745-.621,4.012-.416,1.268-1.039,2.418-1.867,3.45-.881,1.08-1.969,2.02-3.264,2.816-1.297.799-2.799,1.408-4.508,1.831,2.174.422,4.053,1.056,5.635,1.9Z"/>
      <path d="M286.522,54.714h-17.533l.027-.276c.158-1.495.271-2.736.35-3.794.076-1.052.113-2.289.113-3.783V8.769c0-1.494-.037-2.743-.113-3.818-.078-1.079-.191-2.378-.35-3.972l-.027-.275h16.445c3.109,0,6.025.214,8.666.637,2.658.425,4.986,1.145,6.918,2.137,1.898,1.054,3.406,2.444,4.488,4.137,1.082,1.699,1.633,3.794,1.633,6.226,0,1.425-.213,2.801-.635,4.089-.424,1.292-1.064,2.479-1.908,3.529-.898,1.1-2.017,2.065-3.328,2.873-1.053.649-2.258,1.182-3.588,1.588,1.777.417,3.353.99,4.701,1.71,1.6.857,2.969,1.866,4.066,3.004,1.061,1.201,1.861,2.568,2.389,4.069.523,1.499.791,3.125.791,4.835,0,2.422-.48,4.603-1.426,6.485-.949,1.884-2.389,3.49-4.281,4.775-1.934,1.279-4.381,2.262-7.275,2.924-2.883.658-6.289.992-10.123.992ZM269.544,54.214h16.978c3.797,0,7.166-.33,10.012-.98,2.836-.647,5.227-1.607,7.107-2.852,1.82-1.234,3.203-2.777,4.113-4.584.91-1.811,1.373-3.918,1.373-6.261,0-1.653-.258-3.225-.764-4.669-.506-1.44-1.273-2.752-2.283-3.896-1.055-1.091-2.381-2.07-3.935-2.901-1.551-.829-3.424-1.46-5.564-1.876l-1.111-.216,1.1-.273c1.678-.415,3.172-1.021,4.437-1.801,1.264-.777,2.34-1.707,3.201-2.762.805-1.002,1.418-2.137,1.822-3.37.404-1.238.609-2.561.609-3.934,0-2.335-.523-4.339-1.555-5.956-1.035-1.622-2.482-2.956-4.303-3.965-1.877-.965-4.154-1.668-6.76-2.084-2.615-.419-5.506-.631-8.588-.631h-15.892c.144,1.474.25,2.69.322,3.711.078,1.087.115,2.347.115,3.854v38.092c0,1.507-.037,2.756-.115,3.819-.072.997-.178,2.155-.32,3.534ZM288.077,48.377h-10.357v-19.017h10.047c1.826,0,3.519.192,5.035.571,1.521.381,2.855.936,3.963,1.651,1.074.779,1.924,1.768,2.533,2.945.613,1.185.924,2.586.924,4.164,0,1.487-.283,2.849-.84,4.048-.555,1.2-1.35,2.226-2.363,3.047-1.06.863-2.357,1.517-3.859,1.946-1.49.427-3.201.644-5.082.644ZM278.22,47.877h9.857c1.834,0,3.498-.21,4.945-.624,1.436-.41,2.674-1.033,3.68-1.854.955-.773,1.703-1.739,2.227-2.869.525-1.133.793-2.424.793-3.838,0-1.497-.293-2.82-.867-3.934-.574-1.108-1.373-2.037-2.371-2.763-1.051-.677-2.334-1.211-3.803-1.579-1.475-.368-3.129-.556-4.914-.556h-9.547v18.017ZM287.3,23.524h-9.58V6.829h8.803c1.613,0,3.146.144,4.557.428,1.42.286,2.699.745,3.805,1.365,1.033.737,1.855,1.64,2.467,2.697.615,1.07.928,2.392.928,3.928,0,1.158-.244,2.261-.725,3.275-.483,1.017-1.186,1.899-2.09,2.622-.955.769-2.121,1.365-3.467,1.769-1.338.404-2.918.609-4.697.609ZM278.22,23.024h9.08c1.73,0,3.262-.198,4.553-.588,1.283-.386,2.394-.951,3.299-1.681.846-.676,1.502-1.499,1.951-2.447.447-.946.676-1.977.676-3.061,0-1.447-.289-2.685-.861-3.678-.574-.995-1.35-1.845-2.301-2.526-1.037-.579-2.268-1.02-3.635-1.296-1.379-.277-2.879-.418-4.459-.418h-8.303v15.694Z"/>
    </g>
    <g>
      <path d="M330.835,21.056c-1.193.633-2.152,1.538-2.877,2.711-.779,1.268-1.348,2.793-1.711,4.576-.363,1.784-.545,3.802-.545,6.056,0,2.629.182,4.904.545,6.829.363,1.925.959,3.497,1.789,4.717.777,1.268,1.76,2.207,2.953,2.817,1.193.609,2.643.915,4.352.915,1.607,0,3.006-.306,4.199-.915,1.189-.61,2.176-1.55,2.955-2.817.777-1.173,1.359-2.664,1.748-4.471.389-1.806.584-3.908.584-6.302,0-2.44-.195-4.61-.584-6.513-.389-1.9-.971-3.484-1.748-4.751-.832-1.269-1.855-2.22-3.074-2.852-1.217-.635-2.654-.951-4.312-.951s-3.082.316-4.273.951ZM343.194,15.775c2.383,1.01,4.404,2.429,6.062,4.259,1.605,1.831,2.85,4.014,3.732,6.549.881,2.534,1.322,5.327,1.322,8.379,0,3.144-.428,5.983-1.283,8.518-.855,2.534-2.088,4.671-3.693,6.407-1.658,1.83-3.666,3.214-6.025,4.153-2.359.938-5.066,1.408-8.121,1.408-2.801,0-5.365-.457-7.699-1.373-2.33-.914-4.326-2.265-5.984-4.048-1.711-1.736-3.031-3.884-3.965-6.443-.932-2.558-1.398-5.456-1.398-8.694,0-3.191.467-6.056,1.398-8.59.934-2.534,2.254-4.717,3.965-6.548,1.658-1.736,3.641-3.085,5.947-4.049,2.305-.961,4.83-1.442,7.578-1.442,3.061,0,5.779.504,8.164,1.514Z"/>
      <path d="M335.188,55.699c-2.818,0-5.439-.468-7.791-1.391-2.355-.923-4.398-2.307-6.076-4.11-1.723-1.748-3.074-3.946-4.016-6.527-.939-2.574-1.414-5.528-1.414-8.78,0-3.206.475-6.125,1.414-8.676.939-2.555,2.291-4.786,4.018-6.633,1.674-1.753,3.701-3.135,6.031-4.108,2.328-.97,4.91-1.462,7.676-1.462,3.078,0,5.858.516,8.262,1.533,2.406,1.02,4.475,2.474,6.15,4.321,1.623,1.851,2.895,4.081,3.783,6.635.887,2.551,1.336,5.398,1.336,8.461,0,3.156-.437,6.05-1.297,8.599-.863,2.555-2.123,4.741-3.746,6.497-1.672,1.847-3.73,3.266-6.115,4.216-2.381.946-5.145,1.426-8.215,1.426ZM335.03,14.512c-2.699,0-5.217.479-7.482,1.423-2.266.947-4.238,2.29-5.861,3.991-1.678,1.795-2.994,3.97-3.912,6.461-.918,2.496-1.383,5.356-1.383,8.504,0,3.193.465,6.09,1.385,8.608.914,2.514,2.23,4.651,3.906,6.353,1.631,1.754,3.613,3.095,5.898,3.991,2.293.899,4.852,1.355,7.607,1.355,3.008,0,5.709-.468,8.029-1.391,2.312-.922,4.309-2.297,5.932-4.089,1.576-1.706,2.801-3.831,3.641-6.319.844-2.497,1.271-5.337,1.271-8.438,0-3.008-.441-5.799-1.309-8.297-.867-2.492-2.107-4.668-3.684-6.466-1.623-1.791-3.633-3.203-5.973-4.193-2.342-.991-5.055-1.494-8.066-1.494ZM335.341,49.927c-1.738,0-3.24-.317-4.465-.942-1.226-.627-2.254-1.606-3.053-2.909-.838-1.229-1.453-2.848-1.822-4.801-.363-1.928-.549-4.241-.549-6.876,0-2.263.186-4.316.549-6.106.369-1.809.957-3.375,1.744-4.657.748-1.209,1.748-2.151,2.973-2.801,1.221-.65,2.699-.98,4.391-.98s3.184.329,4.428.979c1.25.649,2.316,1.637,3.168,2.938.791,1.29,1.391,2.915,1.783,4.838.391,1.908.59,4.116.59,6.562,0,2.403-.199,4.541-.59,6.355-.395,1.832-.994,3.364-1.785,4.556-.793,1.294-1.82,2.272-3.047,2.902-1.226.625-2.678.942-4.314.942ZM335.108,20.355c-1.609,0-3.008.311-4.156.922-1.146.607-2.082,1.489-2.781,2.622-.756,1.23-1.322,2.743-1.68,4.494-.357,1.757-.539,3.777-.539,6.006,0,2.604.182,4.886.541,6.783.355,1.885.945,3.439,1.75,4.622.756,1.233,1.717,2.15,2.859,2.735,1.154.589,2.58.888,4.238.888,1.557,0,2.932-.299,4.086-.888,1.144-.587,2.105-1.504,2.855-2.726.76-1.147,1.336-2.622,1.717-4.393.383-1.778.578-3.881.578-6.249,0-2.413-.195-4.587-.58-6.463-.381-1.864-.959-3.435-1.715-4.67-.801-1.222-1.803-2.152-2.977-2.762-1.174-.612-2.586-.923-4.197-.923Z"/>
    </g>
    <path d="M377.087,15.177c1.348-.046,3.031-.142,5.053-.282l-1.633,6.337c-1.658-.093-3.082-.163-4.275-.211-1.189-.047-2.617-.071-4.275-.071v22.391c0,1.455.078,2.57.234,3.344.154.774.596,1.491,1.322,2.147.361.376.892.622,1.592.74.697.117,1.439.152,2.215.105.83-.047,1.644-.141,2.449-.281.803-.142,1.488-.305,2.061-.493l.934,5.07c-1.141.515-2.463.902-3.967,1.161-1.502.258-2.85.387-4.041.387-1.867,0-3.484-.2-4.859-.598-1.373-.4-2.5-1.021-3.381-1.866-.934-.799-1.633-1.82-2.098-3.062-.467-1.243-.701-2.711-.701-4.401v-24.642h-4.896v-5.701h4.896c0-.986-.012-1.938-.037-2.853-.029-.916-.068-1.796-.117-2.641-.053-.845-.105-1.666-.156-2.464-.053-.798-.105-1.549-.154-2.253l9.482-1.268c-.309,1.972-.506,3.861-.582,5.668-.078,1.808-.117,3.744-.117,5.81,2.021,0,3.705-.023,5.053-.071Z"/>
  </g>
  <g>
    <path class="st0" d="M16.365,49.578l-.508-.525,15.49-23.919L46.644,2.237l.044,11.941-10.191,15.013-10.423,14.574-9.708,5.814ZM45.903,4.696l-14.357,21.475-14.184,21.937,8.259-4.945,10.826-15.236,9.491-13.976-.034-9.253Z"/>
    <path class="st0" d="M77.602,49.98H15.512l-.175-.707,10.74-5.621,40.498.039,11.196,5.578-.167.711ZM17.025,49.23h58.984l-9.69-4.828H26.169l-9.144,4.828Z"/>
    <path class="st0" d="M77.43,49.434l-10.923-5.657-10.612-15.499-9.429-14.278.028-11.832,15.578,23.589,15.839,23.132-.481.546ZM67.072,43.274l9.384,4.815-15.571-22.774-13.646-20.661-.022,9.119,9.865,14.943,9.989,14.557Z"/>
  </g>
</svg>