<?xml version="1.0" encoding="UTF-8"?>
<svg id="Layer_1" xmlns="http://www.w3.org/2000/svg" version="1.1" viewBox="0 0 78.6 73.8">
  <!-- Generator: Adobe Illustrator 29.3.1, SVG Export Plug-In . SVG Version: 2.1.0 Build 151)  -->
  <defs>
    <style>
      .st0 {
        fill: #231815;
      }

      .st1 {
        fill: #fff;
      }

      .st2 {
        fill: #de0515;
      }

      .st3 {
        fill: #0f0a0a;
      }

      .st4 {
        fill: #86807c;
      }
    </style>
  </defs>
  <path class="st0" d="M46.5.2L14.7,48.1l63.9-.3L46.5.2ZM46.6,12.1l20,29.5H26.1l20.4-29.5h.1Z"/>
  <polygon class="st3" points="26.1 41.8 36.3 26.9 36.8 26.1 46.4 12 46.5 1.2 31.9 23.1 31.3 23.9 15.8 47.4 26.1 41.8"/>
  <g>
    <rect class="st2" x=".4" y="15.9" width="24.3" height="1.4"/>
    <path class="st0" d="M25,17.7H0v-2.2h25v2.2ZM.8,16.9h23.5v-.7H.8v.7Z"/>
  </g>
  <g>
    <rect class="st2" x="6.5" y="19.8" width="12" height="1.4"/>
    <path class="st0" d="M18.9,21.7H6.1v-2.2h12.8v2.2ZM6.9,20.9h11.3v-.7H6.9v.7Z"/>
  </g>
  <g>
    <rect class="st4" x="74.6" y="1.4" width="1.5" height="23"/>
    <path class="st0" d="M76.5,24.8h-2.3V1h2.3v23.7h0v.1ZM74.9,24h.8V1.8h-.8v22.2Z"/>
  </g>
  <g>
    <rect class="st4" x="70.4" y="1.4" width="1.5" height="11.4"/>
    <path class="st0" d="M72.3,13.2h-2.3V1h2.3v12.2ZM70.7,12.4h.8V1.8h-.8v10.7h0v-.1Z"/>
  </g>
  <g>
    <polygon class="st1" points="44.8 53.8 59 72.4 57.8 73.3 43.5 54.6 44.8 53.8"/>
    <path class="st0" d="M57.7,73.8l-14.7-19.2,1.9-1.3,14.7,19.2-1.9,1.3h0ZM44.1,54.7l13.8,18,.6-.4-13.8-18-.6.4Z"/>
  </g>
  <g>
    <polygon class="st1" points="48.2 51.5 55.2 60.7 54 61.6 46.9 52.3 48.2 51.5"/>
    <path class="st0" d="M53.9,62.1l-7.5-9.8,1.9-1.3,7.5,9.8-1.9,1.3ZM47.5,52.4l6.6,8.6.6-.4-6.6-8.6-.6.4h0Z"/>
  </g>
  <rect class="st2" x=".2" y="15.6" width="24.7" height="2"/>
  <rect class="st2" x="6.2" y="19.6" width="12.5" height="2"/>
  <rect class="st4" x="74.4" y="1.2" width="2" height="23.5"/>
  <rect class="st4" x="70.2" y="1.2" width="2" height="11.9"/>
  <polygon class="st3" points="44.8 53.8 59 72.4 57.8 73.3 43.5 54.6 44.8 53.8"/>
  <polygon class="st3" points="48.2 51.5 55.2 60.7 54 61.6 46.9 52.3 48.2 51.5"/>
  <g>
    <path class="st0" d="M16.4,47.4l-.5-.5,15.5-23.9L46.6,0v11.9l-10.1,15-10.4,14.6-9.7,5.8h0v.1ZM45.9,2.5l-14.4,21.5-14.2,21.9,8.3-4.9,10.8-15.2,9.5-14V2.5h0Z"/>
    <path class="st0" d="M77.6,47.8H15.5l-.2-.7,10.7-5.6h40.5l11.2,5.6-.2.7h.1ZM17,47h59l-9.7-4.8H26.2l-9.1,4.8h-.1Z"/>
    <path class="st0" d="M77.4,47.2l-10.9-5.7-10.6-15.5-9.4-14.3V0l15.6,23.6,15.8,23.1-.5.5h0ZM67.1,41.1l9.4,4.8-15.6-22.8L47.3,2.4v9.1l9.8,14.9,10,14.6h0v.1Z"/>
  </g>
  <polygon class="st2" points="66.8 41.3 56.7 26.7 56.2 25.8 46.7 11.5 46.7 1 61.2 22.8 61.7 23.6 77.7 47 66.8 41.3"/>
  <polygon class="st4" points="66.6 41.9 48.1 41.9 47 41.9 26.1 41.9 15.5 47.6 47 47.6 48.1 47.6 77.8 47.6 66.6 41.9"/>
</svg>