<?xml version="1.0" encoding="UTF-8"?>
<svg id="Layer_1" xmlns="http://www.w3.org/2000/svg" version="1.1" viewBox="0 0 78.693 73.819">
  <!-- Generator: Adobe Illustrator 29.3.1, SVG Export Plug-In . SVG Version: 2.1.0 Build 151)  -->
  <defs>
    <style>
      .st0 {
        fill: #231815;
      }

      .st1 {
        fill: #fff;
      }

      .st2 {
        fill: #de0515;
      }

      .st3 {
        fill: #0f0a0a;
      }

      .st4 {
        fill: #86807c;
      }
    </style>
  </defs>
  <path class="st0" d="M46.498.2L14.744,48.117l63.949-.251L46.498.2ZM46.557,12.179l20.015,29.47H26.129l20.428-29.47Z"/>
  <polygon class="st3" points="26.076 41.86 36.26 26.971 36.83 26.126 46.386 12.054 46.498 1.23 31.881 23.108 31.31 23.95 15.815 47.438 26.076 41.86"/>
  <polygon class="st2" points="66.89 41.555 56.843 26.914 56.282 26.062 46.915 11.877 46.94 1.401 61.271 23.101 61.833 23.952 77.675 47.09 66.89 41.555"/>
  <polygon class="st4" points="66.572 41.649 48.07 41.649 47.011 41.649 26.129 41.649 15.535 47.596 47.011 47.596 48.07 47.596 77.8 47.596 66.572 41.649"/>
  <g>
    <rect class="st2" x=".375" y="15.898" width="24.266" height="1.448"/>
    <path class="st0" d="M25.016,17.721H0v-2.198h25.016v2.198ZM.75,16.971h23.516v-.698H.75v.698Z"/>
  </g>
  <g>
    <rect class="st2" x="6.49" y="19.881" width="12.036" height="1.448"/>
    <path class="st0" d="M18.901,21.704H6.115v-2.198h12.786v2.198ZM6.865,20.954h11.286v-.698H6.865v.698Z"/>
  </g>
  <g>
    <rect class="st4" x="74.567" y="1.422" width="1.53" height="22.991"/>
    <path class="st0" d="M76.472,24.788h-2.28V1.047h2.28v23.741ZM74.942,24.038h.78V1.797h-.78v22.241Z"/>
  </g>
  <g>
    <rect class="st4" x="70.363" y="1.422" width="1.529" height="11.403"/>
    <path class="st0" d="M72.267,13.2h-2.279V1.047h2.279v12.153ZM70.738,12.45h.779V1.797h-.779v10.653Z"/>
  </g>
  <g>
    <polygon class="st1" points="44.779 53.825 58.996 72.458 57.755 73.309 43.539 54.674 44.779 53.825"/>
    <path class="st0" d="M57.673,73.819l-14.671-19.233,1.859-1.272,14.672,19.229-1.86,1.275ZM44.077,54.761l13.76,18.037.621-.426-13.761-18.036-.62.425Z"/>
  </g>
  <g>
    <polygon class="st1" points="48.185 51.492 55.238 60.734 53.998 61.584 46.947 52.341 48.185 51.492"/>
    <path class="st0" d="M53.916,62.095l-7.507-9.84,1.858-1.273,7.508,9.839-1.859,1.274ZM47.484,52.427l6.596,8.646.62-.425-6.597-8.646-.619.424Z"/>
  </g>
  <rect class="st2" x=".375" y="15.898" width="24.266" height="1.448"/>
  <rect class="st2" x="6.49" y="19.881" width="12.036" height="1.448"/>
  <rect class="st4" x="74.567" y="1.422" width="1.53" height="22.991"/>
  <rect class="st4" x="70.363" y="1.422" width="1.529" height="11.403"/>
  <polygon class="st3" points="44.779 53.825 58.996 72.458 57.755 73.309 43.539 54.674 44.779 53.825"/>
  <polygon class="st3" points="48.185 51.492 55.238 60.734 53.998 61.584 46.947 52.341 48.185 51.492"/>
  <g>
    <path class="st0" d="M16.365,47.411l-.508-.525,15.49-23.919L46.644.07l.044,11.941-10.191,15.013-10.423,14.574-9.708,5.814ZM45.903,2.529l-14.357,21.475-14.184,21.937,8.259-4.945,10.826-15.236,9.491-13.976-.034-9.253Z"/>
    <path class="st0" d="M77.602,47.813H15.512l-.175-.707,10.74-5.621,40.498.039,11.196,5.578-.167.711ZM17.025,47.063h58.984l-9.69-4.828H26.169l-9.144,4.828Z"/>
    <path class="st0" d="M77.43,47.267l-10.923-5.657-10.612-15.499-9.429-14.278.028-11.832,15.578,23.589,15.839,23.132-.481.546ZM67.072,41.107l9.384,4.815-15.571-22.774L47.239,2.488l-.022,9.119,9.865,14.943,9.989,14.557Z"/>
  </g>
</svg>