<?xml version="1.0" encoding="utf-8"?>
<!-- Generator: Adobe Illustrator 16.0.0, SVG Export Plug-In . SVG Version: 6.00 Build 0)  -->
<!DOCTYPE svg PUBLIC "-//W3C//DTD SVG 1.1//EN" "http://www.w3.org/Graphics/SVG/1.1/DTD/svg11.dtd">
<svg version="1.1" id="Layer_1" xmlns="http://www.w3.org/2000/svg" xmlns:xlink="http://www.w3.org/1999/xlink" x="0px" y="0px"
	 width="147.402px" height="269.291px" viewBox="-1.417 0 147.402 269.291" enable-background="new -1.417 0 147.402 269.291"
	 xml:space="preserve">
<g>
	<g>
		<g>
			<circle fill="#FFFFFF" cx="72.37" cy="72.269" r="47.648"/>
			<rect x="63.024" y="6.569" fill="#152F5F" width="17.392" height="18.729"/>
			
				<rect x="41.064" y="11.304" transform="matrix(0.9205 -0.3907 0.3907 0.9205 -4.1198 21.0824)" fill="#152F5F" width="17.393" height="18.728"/>
			
				<rect x="22.698" y="24.235" transform="matrix(0.6946 -0.7194 0.7194 0.6946 -14.5838 32.8452)" fill="#152F5F" width="17.392" height="18.729"/>
			
				<rect x="10.848" y="43.321" transform="matrix(0.3583 -0.9336 0.9336 0.3583 -36.6469 52.0569)" fill="#152F5F" width="17.391" height="18.73"/>
			<rect x="64.324" y="119.238" fill="#F0EDEE" width="17.395" height="18.732"/>
			
				<rect x="86.284" y="114.508" transform="matrix(-0.9205 0.3908 -0.3908 -0.9205 230.8165 200.7831)" fill="#F0EDEE" width="17.393" height="18.734"/>
			
				<rect x="104.649" y="101.575" transform="matrix(-0.6946 0.7194 -0.7194 -0.6946 271.8867 106.4613)" fill="#F0EDEE" width="17.394" height="18.733"/>
			
				<rect x="116.504" y="82.488" transform="matrix(-0.3583 0.9336 -0.9336 -0.3583 255.8128 7.875)" fill="#F0EDEE" width="17.393" height="18.732"/>
			<rect x="6.672" y="64.225" fill="#F0EDEE" width="18.729" height="17.391"/>
			
				<rect x="12.069" y="85.509" transform="matrix(-0.3907 -0.9205 0.9205 -0.3907 -58.4545 151.0545)" fill="#F0EDEE" width="17.392" height="18.728"/>
			
				<rect x="25.006" y="103.877" transform="matrix(-0.7193 -0.6947 0.6947 -0.7193 -20.7264 218.1082)" fill="#F0EDEE" width="17.392" height="18.729"/>
			
				<rect x="44.092" y="115.731" transform="matrix(-0.9336 -0.3583 0.3583 -0.9336 57.2469 260.801)" fill="#F0EDEE" width="17.39" height="18.73"/>
			<rect x="119.34" y="62.922" fill="#F0EDEE" width="18.73" height="17.394"/>
			
				<rect x="115.276" y="40.292" transform="matrix(0.3908 0.9205 -0.9205 0.3908 121.2364 -83.862)" fill="#F0EDEE" width="17.393" height="18.733"/>
			
				<rect x="102.346" y="21.925" transform="matrix(0.7194 0.6946 -0.6946 0.7194 52.8903 -68.348)" fill="#F0EDEE" width="17.394" height="18.732"/>
			
				<rect x="83.256" y="10.076" transform="matrix(0.9336 0.3583 -0.3583 0.9336 13.0712 -31.6564)" fill="#F0EDEE" width="17.394" height="18.731"/>
		</g>
		<g>
			<g>
				<path fill="#18305F" d="M55.804,53.607c-1.668,0-2.717,0.843-2.717,2.005c0,1.293,1.404,1.78,2.474,2.042l1.313,0.355
					c1.743,0.413,3.896,1.368,3.916,3.823c-0.02,2.286-1.836,3.972-5.04,3.972c-3.035,0-4.946-1.518-5.077-3.99h2.061
					c0.132,1.479,1.425,2.191,3.018,2.191c1.725,0,2.979-0.88,2.998-2.211c-0.02-1.18-1.125-1.667-2.566-2.042l-1.61-0.431
					c-2.175-0.6-3.542-1.705-3.542-3.598c0-2.343,2.099-3.897,4.834-3.897c2.754,0,4.686,1.574,4.74,3.766h-2.005
					C58.465,54.338,57.358,53.607,55.804,53.607z"/>
				<path fill="#18305F" d="M62.323,52.015h10.511v1.779h-4.215v11.787h-2.062V53.794h-4.234V52.015z"/>
				<path fill="#18305F" d="M74.932,52.015h8.506v1.779h-6.444v4.104h5.996v1.762h-5.996v4.141h6.521v1.78h-8.582V52.015
					L74.932,52.015z"/>
				<path fill="#18305F" d="M85.967,52.015h4.834c3.146,0,4.703,1.893,4.703,4.403c0,2.492-1.557,4.403-4.703,4.403h-2.772v4.76
					h-2.062V52.015z M90.596,59.061c2.004,0,2.83-1.125,2.83-2.643c0-1.537-0.824-2.642-2.83-2.642h-2.567v5.284L90.596,59.061
					L90.596,59.061z"/>
				<path fill="#18305F" d="M63.774,81.819c0-4.403,1.874-6.97,4.984-6.97c3.109,0,4.984,2.566,4.984,6.97
					c0,4.44-1.855,6.971-4.984,6.971C65.611,88.79,63.774,86.26,63.774,81.819z M71.682,81.819c0-3.373-1.104-5.229-2.923-5.229
					s-2.923,1.855-2.923,5.229c0,3.392,1.087,5.189,2.923,5.189C70.595,87.01,71.682,85.211,71.682,81.819z"/>
				<path fill="#18305F" d="M81.032,88.604h-2.08V77.099h-0.076l-3.24,2.116v-1.967l3.373-2.211h2.021v13.566L81.032,88.604
					L81.032,88.604z"/>
			</g>
		</g>
	</g>
	<g>
		<path fill="#070001" d="M30.944,162.752l-1.025,1.497c-1.712-0.656-2.912-1.907-3.567-3.426c-0.678,1.714-1.938,3.199-3.712,3.959
			l-1.065-1.52c2.479-1.087,3.813-3.402,3.813-5.453v-2.381h1.888v2.381C27.272,159.819,28.564,161.851,30.944,162.752z
			 M37.425,169.294c-0.021,2.092-2.42,3.344-6.255,3.322c-3.835,0.021-6.233-1.23-6.214-3.322c-0.021-2.092,2.379-3.343,6.214-3.343
			S37.404,167.203,37.425,169.294z M26.884,169.294c-0.021,1.169,1.62,1.848,4.286,1.825c2.666,0.021,4.286-0.656,4.308-1.825
			c-0.021-1.169-1.642-1.846-4.308-1.846S26.863,168.126,26.884,169.294z M37.322,165.604h-1.847v-4.922h-2.152v4.348h-1.806
			v-10.398h1.806v4.45h2.152v-4.778h1.847V165.604z"/>
		<path fill="#070001" d="M50.693,163.368l-1.006,1.537c-2.062-0.729-3.589-2.193-4.408-4.039c-0.801,2.061-2.38,3.671-4.532,4.471
			l-1.087-1.538c2.912-1.005,4.594-3.466,4.594-6.214v-2.174h1.929v2.234C46.182,160.106,47.904,162.424,50.693,163.368z
			 M55.041,172.269H42.613v-5.764h1.988v4.186H55.04L55.041,172.269L55.041,172.269z M54.241,159.799h2.666v1.661h-2.666v6.357
			h-1.948v-13.557h1.948V159.799z"/>
		<path fill="#070001" d="M68.925,162.813l-1.064,1.519c-2.021-0.728-3.508-2.144-4.309-3.979c-0.8,2.104-2.397,3.731-4.613,4.531
			l-1.046-1.559c2.934-1.006,4.636-3.445,4.654-6.215v-1.805h1.929v1.723C64.475,159.614,66.135,161.912,68.925,162.813z
			 M73.334,169.151c0,2.215-2.359,3.484-6.214,3.466c-3.854,0.021-6.234-1.251-6.214-3.466c-0.021-2.235,2.357-3.508,6.214-3.508
			C70.975,165.646,73.334,166.916,73.334,169.151z M62.834,169.151c0,1.229,1.601,1.928,4.286,1.928
			c2.687,0,4.286-0.697,4.286-1.928c0-1.271-1.601-1.989-4.286-1.989C64.433,167.162,62.834,167.879,62.834,169.151z
			 M73.274,165.131h-1.949v-5.517h-3.876v-1.602h3.876v-3.73h1.949V165.131z"/>
		<path fill="#070001" d="M95.913,156.416c0,1.384,0,3.147-0.433,5.519h2.564v1.6H81.229v-1.6h12.285
			c0.441-2.246,0.472-3.889,0.472-5.209H83.342v-1.58h12.571V156.416z M96.016,172.698h-1.949v-5.086H83.014v-1.537h13.002V172.698z
			"/>
		<path fill="#070001" d="M106.885,158.077h-4.943v8.511c2.259-0.021,3.959-0.123,5.929-0.491l0.145,1.6
			c-2.215,0.451-4.102,0.533-6.789,0.555h-1.229V156.5h6.891v1.578L106.885,158.077L106.885,158.077z M115.149,172.658h-1.864
			v-9.495h-2.381v8.552h-1.783v-17.063h1.783v6.912h2.381v-7.28h1.864V172.658z"/>
		<path fill="#070001" d="M122.184,167.592v-1.864c-2.071-0.287-3.426-1.539-3.403-3.322c-0.021-2.071,1.764-3.445,4.389-3.445
			c2.604,0,4.41,1.374,4.43,3.445c-0.02,1.783-1.395,3.046-3.465,3.343v1.765c1.629-0.063,3.271-0.195,4.799-0.41l0.123,1.437
			c-3.979,0.718-8.285,0.737-11.442,0.737l-0.31-1.619C118.748,167.653,120.43,167.653,122.184,167.592z M128.664,158.017h-11.014
			v-1.561h4.53v-2.133h1.949v2.133h4.531v1.561H128.664z M120.604,162.403c0,1.17,1.025,1.888,2.564,1.888
			c1.537,0,2.563-0.718,2.563-1.888c0-1.168-1.024-1.928-2.563-1.928C121.629,160.478,120.604,161.235,120.604,162.403z
			 M131.924,161.974h2.771v1.641h-2.771v9.045h-1.947v-18.375h1.947V161.974z"/>
		<path fill="#070001" d="M8.58,195.835c0-0.879,0.721-1.6,1.617-1.6c0.879,0,1.6,0.721,1.6,1.6c0,0.896-0.721,1.617-1.6,1.617
			C9.3,197.452,8.58,196.731,8.58,195.835z"/>
		<path fill="#070001" d="M20.233,200.001l4.308-4.658c1.635-1.773,2.303-2.672,2.32-3.865c-0.02-1.406-1.16-2.355-2.673-2.355
			c-1.616,0-2.653,1.055-2.653,2.549H20.34c0-2.145,1.652-3.656,3.886-3.656c2.215,0,3.797,1.514,3.797,3.465
			c0,1.424-0.649,2.496-2.849,4.814l-3.164,3.41v0.088h6.398v1.125h-8.175V200.001z"/>
		<path fill="#070001" d="M30.261,197.188l5.802-9h1.513v8.912h1.739v1.105h-1.739v2.707h-1.195v-2.707h-6.118L30.261,197.188
			L30.261,197.188z M36.379,197.101v-7.242h-0.123l-4.604,7.154v0.088H36.379z"/>
		<path fill="#070001" d="M50.583,197.838l-0.687,0.879c-1.749-0.879-3.419-2.804-4.147-5.098c-0.712,2.407-2.364,4.456-4.131,5.379
			l-0.722-0.933c2.181-1.037,4.289-3.989,4.289-6.908v-2.987h1.106v2.987C46.275,193.972,48.403,196.819,50.583,197.838z
			 M53.676,202.304H52.57v-15.521h1.105V202.304z"/>
		<path fill="#070001" d="M57.051,196.31l-0.475-0.896c3.778-1.213,6.346-3.552,6.627-6.485H57.19v-0.933h7.207
			C64.398,191.915,61.463,194.886,57.051,196.31z M69.338,201.917H58.967v-4.887h1.107v3.955h9.264V201.917z M68.583,191.616h2.392
			v0.949h-2.392v5.643h-1.125v-11.426h1.125V191.616z"/>
		<path fill="#070001" d="M90.573,195.711h-6.416v3.322h-1.125v-3.322h-6.646v-0.948h14.187V195.711z M88.885,190.297
			c0,1.897-2.127,3.06-5.432,3.06c-3.287,0-5.433-1.16-5.414-3.06c-0.019-1.916,2.127-3.094,5.414-3.094
			C86.758,187.204,88.885,188.381,88.885,190.297z M88.991,201.917H78.268v-4.5h1.09v3.533h9.634V201.917z M79.2,190.297
			c0,1.283,1.723,2.127,4.254,2.127c2.549,0,4.271-0.844,4.271-2.127c0-1.317-1.723-2.161-4.271-2.161
			C80.922,188.136,79.2,188.979,79.2,190.297z"/>
		<path fill="#070001" d="M99.379,189.085h4.254v-2.303h1.107v9.211h-1.107v-2.338h-4.236c-0.713,0.853-1.846,1.361-3.182,1.354
			c-2.32,0.02-4.008-1.477-3.99-3.621c-0.018-2.16,1.67-3.654,3.99-3.639C97.543,187.739,98.668,188.241,99.379,189.085z
			 M93.281,191.388c0,1.528,1.229,2.672,2.936,2.653c1.652,0.019,2.9-1.125,2.9-2.653c0-1.548-1.248-2.689-2.9-2.689
			C94.51,188.698,93.281,189.84,93.281,191.388z M104.793,199.297c0,1.863-1.951,2.937-5.15,2.937c-3.198,0-5.149-1.071-5.133-2.937
			c-0.018-1.846,1.935-2.918,5.133-2.937C102.842,196.379,104.793,197.452,104.793,199.297z M95.582,199.297
			c0,1.248,1.582,2.039,4.061,2.039c2.48,0,4.078-0.791,4.078-2.039s-1.6-2.039-4.078-2.039
			C97.166,197.258,95.582,198.049,95.582,199.297z M100.188,191.388c0,0.482-0.088,0.932-0.246,1.336h3.691v-2.707h-3.709
			C100.09,190.429,100.188,190.896,100.188,191.388z"/>
		<path fill="#070001" d="M8.58,225.835c0-0.879,0.721-1.6,1.617-1.6c0.879,0,1.6,0.721,1.6,1.6c0,0.896-0.721,1.617-1.6,1.617
			C9.3,227.452,8.58,226.731,8.58,225.835z"/>
		<path fill="#070001" d="M29.022,228.085l-0.649,0.879c-1.774-0.835-3.34-2.593-4.008-4.746c-0.678,2.27-2.216,4.141-3.974,5.012
			l-0.649-0.846c2.196-1.055,4.061-3.709,4.061-6.504v-1.439h-3.674v-0.914h3.674v-2.496h1.107v2.496h3.604v0.914h-3.64v1.439
			C24.875,224.552,26.791,227.083,29.022,228.085z M32.451,232.304h-1.107v-8.279H27.74v-0.933h3.604v-6.312h1.107V232.304z"/>
		<path fill="#070001" d="M45.248,226.978l0.104,0.949c-2.937,0.456-5.31,0.579-7.929,0.579h-1.282v-5.801h6.028v-3.498h-6.046
			v-0.949h7.154v5.38h-5.994v3.92h0.141C39.974,227.558,42.347,227.452,45.248,226.978z M47.972,232.304h-1.091v-15.521h1.091
			V232.304z"/>
		<path fill="#070001" d="M69.259,225.097H55.127v-0.933H69.26L69.259,225.097L69.259,225.097z M67.502,229.42
			c0,1.774-2.004,2.795-5.309,2.795c-3.341,0-5.345-1.021-5.345-2.795c0-1.793,2.004-2.813,5.345-2.813
			C65.498,226.608,67.502,227.627,67.502,229.42z M67.625,222.196H57.113v-5.098h1.09v4.164h9.422V222.196z M57.974,229.42
			c0,1.16,1.616,1.897,4.22,1.897c2.564,0,4.2-0.737,4.2-1.897c0-1.194-1.636-1.897-4.2-1.916
			C59.591,227.522,57.974,228.226,57.974,229.42z"/>
		<path fill="#070001" d="M78.012,221.933h-5.555v2.653c3.139,0,4.659-0.053,6.575-0.403l0.104,0.948
			c-1.951,0.315-3.516,0.369-6.698,0.369h-1.071v-4.446h5.538v-2.392h-5.572v-0.933h6.679V221.933z M83.461,232.321h-1.107v-4.201
			H73.09v-0.932h10.371V232.321z M83.461,226.31h-1.107v-3.06h-3.27v-0.933h3.27v-2.25h-3.27v-0.914h3.27v-2.373h1.107V226.31z"/>
		<path fill="#070001" d="M104.713,225.167H90.582v-0.949h14.133v0.949H104.713z M103.871,222.284l-0.422,0.896
			c-2.4-0.334-4.957-1.478-5.804-3.287c-0.844,1.818-3.393,2.953-5.78,3.287l-0.425-0.896c2.531-0.316,5.521-1.705,5.521-3.674
			v-0.07h-5.08v-0.949h11.566v0.949h-5.115v0.07C98.334,220.562,101.288,221.967,103.871,222.284z M102.957,229.474
			c0,1.774-2.004,2.76-5.312,2.76c-3.34,0-5.344-0.983-5.344-2.76c0-1.775,2.004-2.795,5.344-2.795
			C100.954,226.679,102.957,227.698,102.957,229.474z M93.428,229.474c0,1.159,1.617,1.862,4.219,1.862
			c2.566,0,4.201-0.703,4.201-1.862c0-1.195-1.635-1.882-4.201-1.897C95.045,227.592,93.428,228.278,93.428,229.474z"/>
		<path fill="#070001" d="M112.572,219.629h-4.711v7.752c2.383,0,3.887-0.097,5.645-0.476l0.123,0.949
			c-1.863,0.403-3.41,0.476-5.906,0.492h-0.967v-9.65h5.816V219.629z M119.338,232.286h-1.072v-8.262h-2.514v7.436h-1.037v-14.309
			h1.037v5.939h2.514v-6.311h1.072V232.286z"/>
		<path fill="#070001" d="M8.58,255.835c0-0.879,0.721-1.6,1.617-1.6c0.879,0,1.6,0.721,1.6,1.6c0,0.896-0.721,1.617-1.6,1.617
			C9.3,257.452,8.58,256.731,8.58,255.835z"/>
		<path fill="#070001" d="M33.803,254.376h-6.521v1.705h4.657v3.305h-9.403v1.793h9.896v0.914h-10.97v-3.551h9.404v-1.582H21.41
			v-0.879h4.764v-1.705H19.67v-0.914h14.133L33.803,254.376L33.803,254.376z M31.959,251.985H21.535v-4.676h10.424V251.985z
			 M22.625,251.071h8.228v-2.848h-8.228V251.071z"/>
		<path fill="#070001" d="M49.395,256.978h-3.866v5.31h-1.107v-5.31h-4.254v5.31h-1.106v-5.31h-3.851v-0.914h14.187L49.395,256.978
			L49.395,256.978z M47.656,251.211h-9.563v2.162h9.896v0.933H36.986v-3.974h9.545v-1.97h-9.599v-0.948h10.724V251.211z"/>
		<path fill="#070001" d="M64.477,258.085l-0.649,0.879c-1.775-0.835-3.34-2.593-4.008-4.746c-0.678,2.27-2.216,4.141-3.974,5.012
			l-0.649-0.846c2.196-1.055,4.061-3.709,4.061-6.504v-1.439h-3.674v-0.914h3.674v-2.496h1.107v2.496h3.604v0.914H60.33v1.439
			C60.33,254.552,62.246,257.083,64.477,258.085z M67.906,262.304h-1.107v-8.279h-3.604v-0.932h3.604v-6.313h1.107V262.304z"/>
		<path fill="#070001" d="M80.704,256.978l0.104,0.949c-2.936,0.456-5.309,0.579-7.928,0.579h-1.283v-5.801h6.029v-3.498H71.58
			v-0.949h7.154v5.38H72.74v3.92h0.141C75.428,257.558,77.801,257.452,80.704,256.978z M83.426,262.304h-1.09v-15.521h1.09V262.304z
			"/>
		<path fill="#070001" d="M95.52,253.708l0.105,0.949c-2.584,0.422-4.676,0.527-7.471,0.51h-1.195v-4.254h5.871v-2.215h-5.906
			v-0.932h6.996v4.043h-5.854v2.426h0.089C90.897,254.235,92.971,254.129,95.52,253.708z M98.438,259.474
			c0,1.758-1.916,2.776-5.063,2.776c-3.182,0-5.098-1.021-5.098-2.776c0-1.758,1.916-2.777,5.098-2.777
			C96.522,256.696,98.438,257.715,98.438,259.474z M89.37,259.474c-0.021,1.159,1.526,1.881,4.008,1.881
			c2.441,0,3.99-0.721,3.99-1.881s-1.549-1.881-3.99-1.881C90.897,257.593,89.35,258.313,89.37,259.474z M100.723,250.28h-2.408
			v2.303h2.408v0.949h-2.408v2.654H97.21v-9.404h1.104v2.531h2.408V250.28z"/>
		<path fill="#070001" d="M115.436,249.542h-9.246v-0.914h4.078v-1.984h1.09v1.984h4.078V249.542z M114.504,253.146
			c0,1.67-1.477,2.726-3.691,2.726c-2.25,0-3.709-1.056-3.709-2.726s1.459-2.726,3.709-2.726
			C113.029,250.42,114.504,251.476,114.504,253.146z M108.161,253.146c-0.021,1.106,1.055,1.847,2.651,1.828
			c1.582,0.019,2.64-0.722,2.654-1.828c-0.018-1.106-1.072-1.863-2.654-1.863C109.213,251.282,108.141,252.038,108.161,253.146z
			 M118.389,259.597c0,1.67-1.896,2.637-5.026,2.637c-3.146,0-5.046-0.967-5.025-2.637c-0.021-1.688,1.881-2.673,5.025-2.673
			C116.493,256.924,118.389,257.909,118.389,259.597z M109.424,259.597c0,1.09,1.512,1.758,3.938,1.739
			c2.407,0.019,3.938-0.649,3.938-1.739c0-1.125-1.529-1.775-3.938-1.775C110.936,257.821,109.424,258.472,109.424,259.597z
			 M120.586,250.562h-2.373v2.338h2.373v0.949h-2.373v2.987h-1.107V246.78h1.107v2.849h2.373V250.562z"/>
		<path fill="#070001" d="M130.676,254.235l-0.615,0.896c-1.723-0.659-3.172-2.028-3.832-3.728c-0.647,1.926-2.127,3.42-3.938,4.148
			l-0.598-0.896c2.25-0.861,3.938-2.938,3.954-5.414v-1.67h1.072v1.74C126.721,251.493,128.498,253.461,130.676,254.235z
			 M133.893,259.474c0,1.758-1.896,2.76-5.063,2.76c-3.183,0-5.099-1.002-5.08-2.76c-0.019-1.74,1.897-2.761,5.08-2.761
			C131.996,256.713,133.893,257.733,133.893,259.474z M124.84,259.474c-0.018,1.159,1.547,1.862,3.99,1.881
			c2.442-0.019,3.99-0.721,3.99-1.881c0-1.144-1.548-1.847-3.99-1.847C126.387,257.627,124.825,258.331,124.84,259.474z
			 M133.77,250.948h2.394v0.949h-2.394v4.395h-1.104v-9.51h1.104V250.948z"/>
	</g>
</g>
</svg>
