<?xml version="1.0" encoding="utf-8"?>
<!-- Generator: Adobe Illustrator 16.0.0, SVG Export Plug-In . SVG Version: 6.00 Build 0)  -->
<!DOCTYPE svg PUBLIC "-//W3C//DTD SVG 1.1//EN" "http://www.w3.org/Graphics/SVG/1.1/DTD/svg11.dtd">
<svg version="1.1" id="Layer_1" xmlns="http://www.w3.org/2000/svg" xmlns:xlink="http://www.w3.org/1999/xlink" x="0px" y="0px"
	 width="147.401px" height="269.291px" viewBox="0 0 147.401 269.291" enable-background="new 0 0 147.401 269.291"
	 xml:space="preserve">
<rect x="-0.149" y="-0.122" fill="none" width="147" height="269"/>
<g>
	<g>
		<circle fill="#FFFFFF" cx="73.775" cy="72.19" r="47.648"/>
		<rect x="64.428" y="6.491" fill="#152F5F" width="17.395" height="18.729"/>
		
			<rect x="42.458" y="11.234" transform="matrix(-0.9205 0.3907 -0.3907 -0.9205 106.2887 19.5726)" fill="#152F5F" width="17.39" height="18.73"/>
		
			<rect x="24.078" y="24.136" transform="matrix(-0.6947 0.7193 -0.7193 -0.6947 79.6406 33.1966)" fill="#152F5F" width="17.394" height="18.727"/>
		
			<rect x="12.247" y="43.217" transform="matrix(-0.3584 0.9336 -0.9336 -0.3584 77.5375 51.8765)" fill="#152F5F" width="17.393" height="18.729"/>
		<rect x="65.729" y="119.16" fill="#152F5F" width="17.395" height="18.732"/>
		
			<rect x="87.678" y="114.459" transform="matrix(0.9205 -0.3908 0.3908 0.9205 -40.7274 47.5116)" fill="#152F5F" width="17.393" height="18.732"/>
		
			<rect x="106.089" y="101.539" transform="matrix(0.6946 -0.7194 0.7194 0.6946 -44.7289 116.4429)" fill="#152F5F" width="17.394" height="18.731"/>
		
			<rect x="117.926" y="82.409" transform="matrix(0.3583 -0.9336 0.9336 0.3583 -4.4312 177.1056)" fill="#152F5F" width="17.393" height="18.734"/>
		<rect x="8.078" y="64.146" fill="#152F5F" width="18.729" height="17.391"/>
		
			<rect x="13.499" y="85.443" transform="matrix(0.3907 0.9205 -0.9205 0.3907 100.7975 37.3376)" fill="#152F5F" width="17.393" height="18.728"/>
		
			<rect x="26.436" y="103.784" transform="matrix(0.7193 0.6947 -0.6947 0.7193 88.4665 7.3551)" fill="#152F5F" width="17.392" height="18.73"/>
		
			<rect x="45.495" y="115.674" transform="matrix(0.9336 0.3583 -0.3583 0.9336 48.403 -11.1145)" fill="#152F5F" width="17.389" height="18.73"/>
		<rect x="120.744" y="62.843" fill="#152F5F" width="18.732" height="17.394"/>
		
			<rect x="116.701" y="40.193" transform="matrix(-0.3907 -0.9205 0.9205 -0.3907 128.7694 184.3518)" fill="#152F5F" width="17.392" height="18.731"/>
		
			<rect x="103.725" y="21.87" transform="matrix(-0.7193 -0.6947 0.6947 -0.7193 171.5874 131.802)" fill="#152F5F" width="17.394" height="18.73"/>
		
			<rect x="84.65" y="10.009" transform="matrix(-0.9336 -0.3583 0.3583 -0.9336 173.5561 70.9099)" fill="#152F5F" width="17.395" height="18.732"/>
		<g>
			<g>
				<path fill="#18305F" d="M57.209,53.529c-1.668,0-2.717,0.843-2.717,2.005c0,1.293,1.406,1.78,2.473,2.042l1.314,0.355
					c1.742,0.413,3.895,1.368,3.916,3.823c-0.021,2.286-1.838,3.972-5.041,3.972c-3.035,0-4.947-1.518-5.078-3.99h2.061
					c0.133,1.479,1.426,2.191,3.018,2.191c1.725,0,2.979-0.88,2.998-2.211c-0.02-1.18-1.123-1.667-2.566-2.042l-1.611-0.431
					c-2.174-0.6-3.541-1.705-3.541-3.598c0-2.343,2.1-3.897,4.834-3.897c2.756,0,4.686,1.574,4.74,3.766h-2.004
					C59.871,54.259,58.764,53.529,57.209,53.529z"/>
				<path fill="#18305F" d="M63.729,51.936H74.24v1.779h-4.215v11.787h-2.063V53.715h-4.234V51.936L63.729,51.936z"/>
				<path fill="#18305F" d="M76.338,51.936h8.506v1.779H78.4v4.104h5.996v1.762H78.4v4.141h6.52v1.78h-8.582V51.936L76.338,51.936z"
					/>
				<path fill="#18305F" d="M87.373,51.936h4.834c3.148,0,4.703,1.893,4.703,4.403c0,2.492-1.555,4.403-4.703,4.403h-2.771v4.76
					h-2.063V51.936z M92,58.982c2.006,0,2.83-1.125,2.83-2.643c0-1.537-0.824-2.642-2.83-2.642h-2.564v5.284H92z"/>
				<path fill="#18305F" d="M63.664,81.741c0-4.403,1.873-6.97,4.984-6.97c3.109,0,4.982,2.566,4.982,6.97
					c0,4.44-1.854,6.971-4.982,6.971C65.5,88.711,63.664,86.181,63.664,81.741z M71.572,81.741c0-3.373-1.107-5.229-2.924-5.229
					c-1.818,0-2.924,1.855-2.924,5.229c0,3.392,1.088,5.189,2.924,5.189C70.484,86.931,71.572,85.132,71.572,81.741z"/>
				<path fill="#18305F" d="M75.785,84.983h2.004c0.113,1.162,1.219,2.005,2.586,2.005c1.65,0,2.83-1.199,2.83-2.812
					c0-1.648-1.219-2.848-2.924-2.867c-1.086,0-1.91,0.356-2.379,1.199h-1.949l0.881-7.551h7.684v1.761h-5.979l-0.449,3.805h0.131
					c0.563-0.543,1.52-0.918,2.549-0.918c2.549,0,4.439,1.893,4.439,4.516c0,2.679-2.004,4.591-4.834,4.591
					C77.809,88.711,75.879,87.137,75.785,84.983z"/>
			</g>
		</g>
	</g>
	<g>
		<path fill="#070001" d="M19.256,160.029c-0.021,2.666-2.133,4.572-4.9,4.572c-2.77,0-4.902-1.906-4.881-4.572
			c-0.021-2.688,2.111-4.574,4.881-4.574C17.123,155.455,19.236,157.342,19.256,160.029z M11.381,160.029
			c-0.021,1.701,1.291,2.871,2.975,2.871c1.701,0,2.994-1.17,2.994-2.871c0-1.703-1.293-2.871-2.994-2.871
			C12.672,157.158,11.361,158.326,11.381,160.029z M24.404,172.189H11.977v-5.906h1.947v4.328h10.479v1.578H24.404z M23.623,159.68
			h2.666v1.641h-2.666v6.379h-1.947v-13.516h1.947V159.68z"/>
		<path fill="#070001" d="M38.35,163.453l-1.006,1.559c-2.061-0.729-3.59-2.205-4.389-4.02c-0.801,2.02-2.41,3.65-4.594,4.43
			l-1.006-1.578c2.83-0.965,4.572-3.385,4.572-5.906v-0.719h-3.979v-1.6h9.906v1.6h-3.939v0.719
			C33.918,160.234,35.58,162.531,38.35,163.453z M43.148,172.189h-12.43v-5.723h1.949v4.145h10.479v1.578H43.148z M42.656,167.678
			h-1.949v-6.912h-3.506v-1.578h3.506v-4.963h1.949V167.678z"/>
		<path fill="#070001" d="M56.457,157.938H45.506v-1.58h4.512v-2.152h1.947v2.152h4.492V157.938z M55.432,162.285
			c0,2.092-1.805,3.445-4.449,3.445c-2.666,0-4.473-1.355-4.473-3.445c0-2.092,1.807-3.467,4.473-3.467
			C53.627,158.818,55.432,160.193,55.432,162.285z M60.703,172.189H48.275v-5.313h1.947v3.732h10.479v1.58H60.703z M48.398,162.285
			c-0.021,1.188,1.023,1.928,2.584,1.928c1.559,0,2.604-0.738,2.625-1.928c-0.021-1.211-1.066-1.969-2.625-1.969
			C49.422,160.316,48.377,161.074,48.398,162.285z M59.922,160.131h2.666v1.621h-2.666v6.213h-1.947v-13.74h1.947V160.131z"/>
		<path fill="#070001" d="M79.611,163.023l-0.984,1.518c-2.082-0.719-3.609-2.154-4.41-3.959c-0.799,1.99-2.389,3.549-4.553,4.307
			l-1.045-1.518c2.871-0.984,4.594-3.342,4.613-5.885v-0.492h-4.039v-1.58h9.945v1.58h-3.957v0.512
			C75.18,159.844,76.801,162.08,79.611,163.023z M83.199,172.58h-1.947v-4.82H71.061v-1.578h12.141v6.398H83.199z M83.199,158.922
			h2.666v1.641h-2.666v4.717h-1.947v-11.074h1.947V158.922z"/>
		<path fill="#070001" d="M96.693,158.49h3.59v-4.285h1.947v9.863h-1.947v-3.979h-3.568c-0.398,2.111-2.275,3.527-4.717,3.527
			c-2.811,0-4.82-1.766-4.82-4.309c0-2.502,2.012-4.285,4.82-4.266C94.416,155.025,96.283,156.43,96.693,158.49z M89.043,159.311
			c0,1.578,1.211,2.666,2.953,2.666c1.703,0,2.912-1.088,2.912-2.666s-1.209-2.646-2.912-2.646
			C90.254,156.666,89.043,157.732,89.043,159.311z M92.182,167.084h8.102v-2.133h1.947v7.402H90.254v-7.402h1.928V167.084z
			 M100.283,170.754v-2.133h-8.102v2.133H100.283z"/>
		<path fill="#070001" d="M114.863,164.91v-1.271c-2.092-0.227-3.424-1.24-3.404-2.748c-0.02-1.783,1.725-2.852,4.369-2.83
			c2.625-0.021,4.367,1.047,4.367,2.83c0,1.496-1.313,2.514-3.383,2.748v1.189c1.641-0.094,3.301-0.236,4.84-0.473l0.164,1.375
			c-3.918,0.736-8.348,0.799-11.547,0.818l-0.205-1.559C111.48,164.992,113.131,164.98,114.863,164.91z M121.139,157.342h-10.604
			v-1.436h4.328v-1.766h1.947v1.766h4.326v1.436H121.139z M125.301,172.189h-12.529v-4.594h1.947v3.016h10.582V172.189z
			 M113.305,160.889c0,0.902,0.943,1.457,2.521,1.457c1.559,0,2.502-0.555,2.502-1.457c0-0.941-0.943-1.496-2.502-1.496
			C114.248,159.393,113.305,159.947,113.305,160.889z M124.646,160.5h2.625v1.621h-2.625v6.438h-1.949v-14.354h1.949V160.5z"/>
		<path fill="#070001" d="M143.656,165.094h-1.947v-2.234h-4.635v-1.602h4.635v-2.234h-4.451c-1.18,2.953-3.938,5.035-7.916,6.174
			l-0.777-1.52c4.348-1.25,6.891-3.578,7.238-6.541h-6.297v-1.6h8.408c0,0.676-0.072,1.332-0.184,1.947h3.979v-3.262h1.947V165.094z
			 M143.779,168.887c-0.021,2.236-2.461,3.609-6.172,3.609c-3.773,0-6.193-1.373-6.193-3.609c0-2.234,2.42-3.588,6.193-3.588
			C141.318,165.299,143.758,166.652,143.779,168.887z M133.34,168.887c0,1.293,1.643,2.053,4.268,2.053
			c2.584,0,4.203-0.76,4.225-2.053c-0.021-1.313-1.641-2.051-4.225-2.051C134.982,166.838,133.34,167.576,133.34,168.887z"/>
		<path fill="#070001" d="M3.775,195.756c0-0.879,0.721-1.6,1.617-1.6c0.879,0,1.6,0.721,1.6,1.6c0,0.896-0.721,1.617-1.6,1.617
			C4.496,197.373,3.775,196.652,3.775,195.756z"/>
		<path fill="#070001" d="M25.273,194.631l0.088,0.861c-1.557,0.271-3.164,0.439-4.729,0.527v5.695h-1.107v-5.643
			c-1.645,0.088-3.207,0.096-4.553,0.104l-0.158-0.982C17.768,195.211,21.793,195.141,25.273,194.631z M23.938,190.605
			c0,1.881-1.652,3.164-3.955,3.146c-2.303,0.018-3.938-1.266-3.92-3.146c-0.018-1.881,1.617-3.129,3.92-3.129
			S23.938,188.725,23.938,190.605z M17.135,190.605c-0.018,1.301,1.195,2.215,2.848,2.215c1.688,0,2.9-0.914,2.9-2.215
			c0-1.266-1.213-2.215-2.9-2.197C18.33,188.391,17.117,189.34,17.135,190.605z M27.576,202.225h-1.09v-15.521h1.09V202.225z"/>
		<path fill="#070001" d="M39.459,189.34h-9.035v-0.914h3.973v-1.881h1.09v1.881h3.973V189.34L39.459,189.34z M38.492,192.996
			c0,1.652-1.477,2.742-3.551,2.742c-2.092,0-3.568-1.09-3.568-2.742c0-1.635,1.479-2.76,3.568-2.76
			C37.016,190.236,38.492,191.361,38.492,192.996z M32.445,192.996c-0.018,1.107,1.02,1.863,2.496,1.881
			c1.459-0.018,2.496-0.771,2.496-1.881c0-1.09-1.037-1.881-2.496-1.881C33.465,191.115,32.428,191.906,32.445,192.996z
			 M43.203,201.979H33.166v-4.992h10.037V201.979L43.203,201.979z M34.256,201.064h7.857v-3.182h-7.857V201.064z M43.203,196.107
			h-1.107v-3.691h-2.848v-0.949h2.848v-4.764h1.107V196.107z"/>
		<path fill="#070001" d="M59.305,194.455l-0.563,0.879c-1.768-0.65-3.191-1.959-3.85-3.621c-0.65,1.838-2.154,3.244-3.975,3.939
			l-0.598-0.861c2.25-0.826,4.008-2.813,4.025-5.115v-0.896h-3.656v-0.932h8.332v0.932h-3.604v0.879
			C55.42,191.801,57.09,193.682,59.305,194.455z M62.398,202.207h-1.107v-4.359h-8.965v-0.932h10.072V202.207z M62.398,190.904
			h2.391v0.967h-2.391v4.166h-1.107v-9.334h1.107V190.904z"/>
		<path fill="#070001" d="M74.07,190.5h3.48v-3.797h1.107V195h-1.107v-3.568h-3.463c-0.236,1.863-1.818,3.111-3.955,3.111
			c-2.355,0-4.008-1.439-3.99-3.551c-0.018-2.109,1.635-3.551,3.99-3.551C72.25,187.441,73.824,188.664,74.07,190.5z
			 M67.197,190.992c0,1.494,1.213,2.602,2.936,2.602c1.689,0,2.9-1.105,2.9-2.602c0-1.512-1.213-2.602-2.9-2.602
			C68.41,188.391,67.197,189.48,67.197,190.992z M69.904,197.953h7.646v-2.127h1.107v6.152h-9.861v-6.152h1.107V197.953
			L69.904,197.953z M77.551,201.064v-2.215h-7.646v2.215H77.551z"/>
		<path fill="#070001" d="M92.211,189.551H87.5v7.752c2.381,0,3.885-0.098,5.643-0.475l0.123,0.949
			c-1.863,0.402-3.41,0.475-5.906,0.49h-0.967v-9.648h5.818V189.551z M98.979,202.207h-1.072v-8.262h-2.514v7.436h-1.037v-14.309
			h1.037v5.941h2.514v-6.311h1.072V202.207z"/>
		<path fill="#070001" d="M109.262,197.76l-0.65,0.844c-1.582-0.889-2.785-2.609-3.34-4.588c-0.555,2.092-1.74,3.945-3.322,4.922
			l-0.686-0.844c2.074-1.213,3.445-3.99,3.463-6.592v-0.914h-3.094v-0.932h3.094v-2.373h1.072v2.373h3.041v0.932h-3.059v0.914
			C105.781,194.033,107.188,196.635,109.262,197.76z M111.406,201.363h-1.055v-7.506h-2.637v-0.949h2.637v-5.801h1.055V201.363z
			 M114.535,202.207h-1.072v-15.504h1.072V202.207z"/>
		<path fill="#070001" d="M3.775,225.756c0-0.879,0.721-1.6,1.617-1.6c0.879,0,1.6,0.721,1.6,1.6c0,0.896-0.721,1.617-1.6,1.617
			C4.496,227.373,3.775,226.652,3.775,225.756z"/>
		<path fill="#070001" d="M16.678,220.553h4.957v-2.725h1.09v7.594h-7.137v-7.594h1.09V220.553z M21.635,224.508v-3.059h-4.957
			v3.059H21.635z M27.699,231.838H17.346v-4.834h1.09v3.902h9.264V231.838z M26.943,221.502h2.391v0.949h-2.391v5.625h-1.107
			v-11.373h1.107V221.502z"/>
		<path fill="#070001" d="M44.557,225.756H30.424v-0.932h6.521v-2.039h-4.623v-5.73h1.105v1.916h8.156v-1.916h1.107v5.73h-4.641
			v2.039h6.504v0.932H44.557z M42.781,232.207h-1.107v-3.85h-9.686v-0.932h10.793V232.207L42.781,232.207z M41.586,221.871v-2.021
			H33.43v2.021H41.586z"/>
		<path fill="#070001" d="M59.305,224.455l-0.563,0.879c-1.768-0.65-3.191-1.959-3.85-3.621c-0.65,1.838-2.154,3.244-3.975,3.939
			l-0.598-0.861c2.25-0.826,4.008-2.813,4.025-5.115v-0.896h-3.656v-0.932h8.332v0.932h-3.604v0.879
			C55.42,221.801,57.09,223.682,59.305,224.455z M62.398,232.207h-1.107v-4.359h-8.965v-0.932h10.072V232.207z M62.398,220.904
			h2.391v0.967h-2.391v4.166h-1.107v-9.334h1.107V220.904z"/>
		<path fill="#070001" d="M74.07,220.5h3.48v-3.797h1.107V225h-1.107v-3.568h-3.463c-0.236,1.863-1.818,3.111-3.955,3.111
			c-2.355,0-4.008-1.439-3.99-3.551c-0.018-2.109,1.635-3.551,3.99-3.551C72.25,217.441,73.824,218.664,74.07,220.5z
			 M67.197,220.992c0,1.494,1.213,2.602,2.936,2.602c1.689,0,2.9-1.105,2.9-2.602c0-1.512-1.213-2.602-2.9-2.602
			C68.41,218.391,67.197,219.48,67.197,220.992z M69.904,227.953h7.646v-2.127h1.107v6.152h-9.861v-6.152h1.107V227.953
			L69.904,227.953z M77.551,231.064v-2.215h-7.646v2.215H77.551z"/>
		<path fill="#070001" d="M92.211,219.551H87.5v7.752c2.381,0,3.885-0.098,5.643-0.475l0.123,0.949
			c-1.863,0.402-3.41,0.475-5.906,0.49h-0.967v-9.648h5.818V219.551z M98.979,232.207h-1.072v-8.262h-2.514v7.436h-1.037v-14.309
			h1.037v5.941h2.514v-6.311h1.072V232.207z"/>
		<path fill="#070001" d="M109.262,227.76l-0.65,0.844c-1.582-0.889-2.785-2.609-3.34-4.588c-0.555,2.092-1.74,3.945-3.322,4.922
			l-0.686-0.844c2.074-1.213,3.445-3.99,3.463-6.592v-0.914h-3.094v-0.932h3.094v-2.373h1.072v2.373h3.041v0.932h-3.059v0.914
			C105.781,224.033,107.188,226.635,109.262,227.76z M111.406,231.363h-1.055v-7.506h-2.637v-0.949h2.637v-5.801h1.055V231.363z
			 M114.535,232.207h-1.072v-15.504h1.072V232.207z"/>
		<path fill="#070001" d="M3.775,255.756c0-0.879,0.721-1.6,1.617-1.6c0.879,0,1.6,0.721,1.6,1.6c0,0.896-0.721,1.617-1.6,1.617
			C4.496,257.373,3.775,256.652,3.775,255.756z"/>
		<path fill="#070001" d="M23.252,251.59c-0.018,2.232-1.723,3.797-4.008,3.797c-2.303,0-4.025-1.563-4.025-3.797
			c0-2.215,1.723-3.762,4.025-3.762C21.529,247.828,23.234,249.375,23.252,251.59z M16.309,251.59
			c-0.018,1.617,1.266,2.814,2.936,2.814s2.918-1.195,2.936-2.814c-0.018-1.6-1.266-2.795-2.936-2.795S16.291,249.99,16.309,251.59z
			 M27.699,261.838H17.346v-4.852h1.09v3.92h9.264V261.838z M26.943,251.502h2.391v0.949h-2.391v5.73h-1.107v-11.496h1.107V251.502z
			"/>
		<path fill="#070001" d="M39.564,254.736l-0.58,0.896c-1.758-0.65-3.189-2.004-3.85-3.674c-0.658,1.871-2.188,3.348-4.025,4.061
			l-0.58-0.914c2.215-0.791,4.025-2.848,4.025-5.15v-0.967h-3.639v-0.949h8.332v0.949h-3.586v0.967
			C35.662,252.012,37.367,253.98,39.564,254.736z M43.66,261.838H33.359v-4.781h1.107v3.852h9.193V261.838L43.66,261.838z
			 M43.203,258.094h-1.107v-6.082h-3.408v-0.932h3.408v-4.377h1.107V258.094z"/>
		<path fill="#070001" d="M54.629,255.545v-1.213c-1.854-0.141-3.041-0.984-3.041-2.285c0-1.424,1.424-2.303,3.586-2.285
			c2.162-0.018,3.568,0.861,3.586,2.285c-0.018,1.293-1.188,2.146-3.023,2.285v1.16c1.504-0.063,3.033-0.186,4.447-0.404
			l0.088,0.826c-3.375,0.615-7.119,0.633-9.844,0.633l-0.158-0.949C51.543,255.598,53.055,255.598,54.629,255.545z M59.691,249.076
			h-9.018v-0.879h3.955v-1.617h1.107v1.617h3.955V249.076L59.691,249.076z M62.328,262.207h-1.107v-3.428h-9.053v-0.896h10.16
			V262.207z M52.643,252.047c0,0.879,0.984,1.494,2.531,1.479c1.529,0.018,2.514-0.6,2.531-1.479
			c-0.018-0.914-1.002-1.494-2.531-1.477C53.627,250.553,52.643,251.133,52.643,252.047z M62.328,251.484h2.426v0.949h-2.426v4.605
			h-1.107v-10.336h1.107V251.484z"/>
		<path fill="#070001" d="M80.082,260.168H65.879v-0.949h6.504v-3.498h-4.781v-7.893h1.125v2.918h8.473v-2.918h1.09v7.893H73.49
			v3.498h6.592V260.168L80.082,260.168z M77.199,254.789v-3.111h-8.473v3.111H77.199z"/>
	</g>
</g>
<g>
</g>
<g>
</g>
<g>
</g>
<g>
</g>
<g>
</g>
<g>
</g>
<g>
</g>
<g>
</g>
<g>
</g>
<g>
</g>
<g>
</g>
<g>
</g>
<g>
</g>
<g>
</g>
<g>
</g>
</svg>
