<?xml version="1.0" encoding="utf-8"?>
<!-- Generator: Adobe Illustrator 16.0.0, SVG Export Plug-In . SVG Version: 6.00 Build 0)  -->
<!DOCTYPE svg PUBLIC "-//W3C//DTD SVG 1.1//EN" "http://www.w3.org/Graphics/SVG/1.1/DTD/svg11.dtd">
<svg version="1.1" id="Layer_1" xmlns="http://www.w3.org/2000/svg" xmlns:xlink="http://www.w3.org/1999/xlink" x="0px" y="0px"
	 width="125.5px" height="175.13px" viewBox="0 0 125.5 175.13" enable-background="new 0 0 125.5 175.13" xml:space="preserve">
<circle fill="#84B0B6" cx="63" cy="63" r="60.5"/>
<path fill="#FFFFFF" d="M92.443,89.78L79.496,77.303C83.535,72.861,86,66.963,86,60.501c0-13.785-11.215-25-25-25s-25,11.215-25,25
	s11.215,25,25,25c6.604,0,12.615-2.579,17.088-6.777l12.969,12.498c0.193,0.186,0.443,0.279,0.693,0.279
	c0.262,0,0.523-0.104,0.721-0.307C92.854,90.796,92.842,90.163,92.443,89.78z M38,60.5c0-12.682,10.318-23,23-23
	c12.682,0,23,10.318,23,23s-10.318,23-23,23C48.318,83.5,38,73.183,38,60.5z"/>
<g>
	<path fill="#040000" d="M32.108,162.214l-0.791,1.072c-1.775-0.818-3.252-2.523-3.938-4.588c-0.686,2.18-2.145,4.008-3.92,4.869
		l-0.791-1.072c2.285-1.072,4.008-3.744,4.008-6.434v-1.248H23.09v-1.125h3.586v-2.426h1.371v2.426h3.533v1.125h-3.551v1.248
		C28.029,158.646,29.787,161.177,32.108,162.214z M35.588,166.626h-1.389v-8.227h-3.428v-1.145h3.428v-6.293h1.389V166.626z"/>
	<path fill="#040000" d="M46.346,157.978H40.51v3.689c2.593,0,4.904-0.113,7.699-0.563l0.141,1.16
		c-2.883,0.457-5.256,0.563-7.945,0.563h-1.301v-5.977h5.854v-3.287h-5.889v-1.143h7.277V157.978z M51.092,166.626h-1.371v-15.662
		h1.371V166.626z"/>
	<path fill="#040000" d="M61.498,156.167h-5.695v2.18c2.777,0,4.79-0.098,7.225-0.51l0.142,1.16c-2.514,0.422-4.605,0.51-7.506,0.51
		H54.45v-4.43h5.695v-1.986h-5.73v-1.143h7.084L61.498,156.167L61.498,156.167z M66.104,163.743c0,1.793-1.969,2.813-5.15,2.813
		c-3.233,0-5.186-1.02-5.186-2.813s1.951-2.848,5.186-2.848C64.135,160.896,66.104,161.95,66.104,163.743z M57.121,163.743
		c-0.018,1.09,1.441,1.74,3.833,1.74c2.373,0,3.813-0.65,3.813-1.74c0-1.107-1.44-1.758-3.813-1.758
		C58.563,161.985,57.104,162.636,57.121,163.743z M68.336,154.585h-2.373v2.127h2.373v1.178h-2.373v2.549h-1.371v-9.457h1.371v2.443
		h2.373V154.585z"/>
	<path fill="#040000" d="M88.059,159.542H73.82v-1.143h14.237L88.059,159.542L88.059,159.542z M86.793,152.915h-4.957
		c0.053,1.775,2.654,3.129,5.432,3.445l-0.51,1.107c-2.559-0.326-4.957-1.471-5.818-3.219c-0.853,1.748-3.242,2.893-5.817,3.219
		l-0.492-1.107c2.726-0.316,5.344-1.67,5.414-3.445h-4.922v-1.143h11.672L86.793,152.915L86.793,152.915z M86.318,163.743
		c-0.018,1.811-2.021,2.813-5.379,2.813c-3.375,0-5.396-1.002-5.396-2.813c0-1.793,2.021-2.83,5.396-2.83
		C84.297,160.913,86.301,161.95,86.318,163.743z M76.949,163.743c-0.019,1.09,1.477,1.705,3.99,1.705
		c2.479,0,3.989-0.615,3.989-1.705c0-1.107-1.512-1.723-3.989-1.74C78.426,162.021,76.932,162.636,76.949,163.743z"/>
	<path fill="#040000" d="M90.256,163.62l-0.773-1.09c4.043-2.014,6.24-5.02,6.558-8.719h-5.837v-1.16h7.226
		C97.428,157.081,95.354,161.106,90.256,163.62z M101.471,157.327h2.531v1.16h-2.531v8.104H100.1v-15.627h1.371V157.327z"/>
</g>
<g>
	<path fill="#FFFFFF" d="M50.239,60.069c0.137,0,0.148-0.037,0.272-0.113l21.298-13.187v3.137c0,0.422,0.344,0.764,0.766,0.764
		s0.764-0.342,0.764-0.764v-5.174L68.5,43.436c-0.408-0.106-0.762,0.139-0.867,0.546c-0.107,0.409,0.169,0.826,0.578,0.933
		l2.77,0.718L49.831,58.654c-0.36,0.22-0.467,0.69-0.247,1.049C49.728,59.939,49.983,60.069,50.239,60.069z"/>
	<path fill="#FFFFFF" d="M76.266,71h-0.637V54.39c0-0.423-0.373-0.963-0.795-0.963h-3.629c-0.422,0-0.924,0.541-0.924,0.963V71
		h-2.293V59c0-0.421-0.403-0.989-0.826-0.989h-3.631c-0.42,0-0.892,0.567-0.892,0.989v12h-2.292v-7.48
		c0-0.421-0.438-0.924-0.859-0.924H55.86c-0.421,0-0.859,0.503-0.859,0.924V71h-2.292v-2.565c0-0.421-0.469-1.255-0.892-1.255h-3.63
		c-0.421,0-0.827,0.834-0.827,1.255V71h-0.51c-0.421,0-0.764,0.342-0.764,0.765c0,0.421,0.342,0.764,0.764,0.764h1.336h3.63h4.043
		h3.629h4.043h3.629h4.043h3.63h1.432c0.425,0,0.767-0.342,0.767-0.764S76.691,71,76.266,71z M51.18,71h-2.292v-2.292h2.292V71z
		 M58.82,71h-2.292v-6.876h2.292V71z M66.461,71h-2.292V59.539h2.292V71z M74.102,71h-2.291V54.955h2.291V71z"/>
</g>
<g>
</g>
<g>
</g>
<g>
</g>
<g>
</g>
<g>
</g>
<g>
</g>
</svg>
