<?xml version="1.0" encoding="utf-8"?>
<!-- Generator: Adobe Illustrator 16.0.0, SVG Export Plug-In . SVG Version: 6.00 Build 0)  -->
<!DOCTYPE svg PUBLIC "-//W3C//DTD SVG 1.1//EN" "http://www.w3.org/Graphics/SVG/1.1/DTD/svg11.dtd">
<svg version="1.1" id="Layer_1" xmlns="http://www.w3.org/2000/svg" xmlns:xlink="http://www.w3.org/1999/xlink" x="0px" y="0px"
	 width="125.5px" height="175.13px" viewBox="0 0 125.5 175.13" enable-background="new 0 0 125.5 175.13" xml:space="preserve">
<circle fill="#86B5BC" cx="63.076" cy="62.628" r="60.5"/>
<path fill="#FFFFFF" d="M91.52,89.408L78.572,76.931c4.039-4.442,6.504-10.34,6.504-16.802c0-13.785-11.215-25-25-25
	s-25,11.215-25,25s11.215,25,25,25c6.604,0,12.615-2.579,17.088-6.777l12.969,12.497c0.193,0.187,0.443,0.28,0.693,0.28
	c0.262,0,0.523-0.104,0.721-0.307C91.93,90.425,91.918,89.791,91.52,89.408z M37.076,60.128c0-12.682,10.318-23,23-23
	c12.682,0,23,10.318,23,23s-10.318,23-23,23C47.394,83.128,37.076,72.811,37.076,60.128z"/>
<g>
	<path fill="#FFFFFF" d="M74.268,56.56h-2.232c-0.264-1.018-0.65-1.924-1.146-2.79l1.67-1.673c0.219-0.218,0.342-0.521,0.342-0.831
		c0.001-0.309-0.122-0.609-0.341-0.828l-2.732-2.726c-0.453-0.452-1.186-0.454-1.641-0.002l-1.717,1.688
		c-0.872-0.49-1.834-0.881-2.852-1.147v-2.505c0-0.643-0.485-1.108-1.128-1.108h-3.78c-0.643,0-1.198,0.465-1.198,1.108v2.554
		c-0.873,0.268-1.849,0.653-2.693,1.139l-1.805-1.806c-0.455-0.453-1.185-0.452-1.639,0l-2.734,2.731
		c-0.22,0.219-0.341,0.517-0.34,0.826c0,0.31,0.125,0.607,0.346,0.825l1.818,1.827c-0.479,0.85-0.853,1.701-1.107,2.719h-2.57
		c-0.642,0-1.198,0.465-1.198,1.107v3.781c0,0.642,0.556,1.218,1.198,1.218h2.595c0.264,0.873,0.642,1.861,1.117,2.706l-1.867,1.88
		c-0.448,0.454-0.447,1.176,0.002,1.629l2.731,2.746c0.453,0.455,1.188,0.456,1.643,0.005l1.856-1.853
		c0.838,0.48,1.774,0.857,2.647,1.119v2.326c0,0.643,0.556,1.219,1.198,1.219h3.78c0.643,0,1.128-0.577,1.128-1.219v-2.276
		c1.018-0.259,1.938-0.642,2.801-1.122l1.748,1.732c0.454,0.452,1.193,0.452,1.646-0.001l2.739-2.731
		c0.449-0.449,0.456-1.177,0.014-1.634l-1.717-1.741c0.522-0.891,0.91-1.913,1.172-2.786h2.245c0.643,0,1.128-0.576,1.128-1.218
		v-3.781C75.396,57.025,74.91,56.56,74.268,56.56z M73.069,60.34h-1.982c-0.563,0-1.047,0.377-1.145,0.933
		c-0.236,1.336-0.733,2.521-1.521,3.649c-0.319,0.457-0.27,1.068,0.119,1.468l1.56,1.604l-1.104,1.101l-1.567-1.561
		c-0.395-0.393-1.012-0.451-1.474-0.139c-1.056,0.718-2.378,1.242-3.689,1.478c-0.554,0.1-0.975,0.582-0.975,1.145v2.1h-1.453
		v-2.136c0-0.557-0.377-1.036-0.924-1.142c-1.261-0.245-2.479-0.761-3.542-1.494c-0.46-0.317-1.076-0.262-1.473,0.131l-1.703,1.684
		l-1.101-1.109l1.703-1.726c0.392-0.396,0.446-1.016,0.131-1.475c-0.705-1.027-1.23-2.286-1.48-3.593
		c-0.104-0.548-0.584-0.917-1.142-0.917h-2.391v-1.454h2.369c0.562,0,1.043-0.43,1.144-0.982c0.23-1.264,0.74-2.517,1.475-3.599
		c0.315-0.463,0.254-1.093-0.145-1.487l-1.644-1.63l1.088-1.087l1.65,1.643c0.399,0.397,1.024,0.451,1.486,0.129
		c1.055-0.736,2.28-1.26,3.577-1.514c0.546-0.108,0.922-0.586,0.922-1.142v-2.252h1.453v2.216c0,0.562,0.42,1.043,0.973,1.144
		c1.339,0.245,2.668,0.779,3.724,1.504c0.462,0.317,1.087,0.26,1.483-0.133l1.531-1.52l1.086,1.082l-1.499,1.491
		c-0.398,0.396-0.457,1.022-0.137,1.485c0.748,1.084,1.271,2.373,1.512,3.674c0.104,0.551,0.584,0.979,1.145,0.979h1.96V60.34z"/>
	<path fill="#FFFFFF" d="M60.697,52.049c-4.163,0-7.55,3.386-7.55,7.549s3.387,7.55,7.55,7.55c4.162,0,7.549-3.387,7.549-7.55
		S64.859,52.049,60.697,52.049z M60.697,64.822c-2.88,0-5.224-2.343-5.224-5.223c0-2.88,2.343-5.224,5.224-5.224
		c2.88,0,5.224,2.344,5.224,5.224C65.921,62.479,63.577,64.822,60.697,64.822z"/>
</g>
<g>
	<path d="M34.99,158.221l-0.721,1.107c-1.758-0.633-3.12-1.943-3.779-3.568c-0.686,1.836-2.136,3.305-3.99,4.008l-0.721-1.107
		c2.32-0.844,3.973-2.953,3.973-5.186v-0.58h-3.533v-1.16h8.42v1.16h-3.498v0.563C31.141,155.496,32.705,157.43,34.99,158.221z
		 M38.717,163.301c0,1.846-1.986,2.9-5.238,2.918c-3.252-0.018-5.238-1.072-5.238-2.918s1.986-2.9,5.238-2.9
		S38.717,161.455,38.717,163.301z M29.611,163.301c-0.018,1.125,1.477,1.811,3.867,1.811s3.867-0.686,3.867-1.811
		c0-1.143-1.477-1.828-3.867-1.828S29.594,162.158,29.611,163.301z M38.664,159.908h-1.389v-4.096h-3.146v-1.143h3.146v-4.078h1.389
		V159.908z"/>
	<path d="M45.432,159.434v-1.143c-1.819-0.158-2.988-1.012-2.988-2.303c0-1.424,1.459-2.303,3.656-2.303
		c2.215,0,3.656,0.879,3.674,2.303c-0.018,1.283-1.16,2.135-2.971,2.303v1.09c1.459-0.07,2.936-0.186,4.307-0.387l0.123,1.002
		c-3.393,0.598-7.137,0.615-9.879,0.615l-0.158-1.125C42.443,159.486,43.902,159.486,45.432,159.434z M50.635,153.088h-9.053v-1.055
		h3.85v-1.564h1.371v1.564h3.832V153.088z M53.465,166.219h-1.389v-3.252h-8.965v-1.107h10.354V166.219z M43.762,155.988
		c0,0.809,0.896,1.371,2.338,1.354c1.441,0.018,2.355-0.545,2.355-1.354c0-0.826-0.914-1.336-2.355-1.318
		C44.658,154.652,43.762,155.162,43.762,155.988z M53.465,155.338h2.338v1.16h-2.338v4.588h-1.389v-10.477h1.389V155.338z"/>
	<path d="M69.443,159.047h-4.834v4.043h6.521v1.16H56.822v-1.16h6.434v-4.043H58.65v-7.172h10.635V153h-9.246v4.922h9.404V159.047z"
		/>
	<path d="M86.248,153.475h-9.316v-1.09h3.973v-1.916h1.371v1.916h3.973V153.475z M85.352,157.043
		c-0.018,1.688-1.512,2.76-3.762,2.76c-2.268,0-3.779-1.072-3.762-2.76c-0.018-1.67,1.494-2.76,3.762-2.76
		C83.84,154.283,85.334,155.373,85.352,157.043z M89.289,163.494c0,1.705-1.934,2.689-5.115,2.689s-5.133-0.984-5.115-2.689
		c-0.018-1.705,1.934-2.707,5.115-2.707S89.289,161.789,89.289,163.494z M79.146,157.043c-0.018,1.02,0.967,1.688,2.443,1.688
		c1.459,0,2.443-0.668,2.461-1.688c-0.018-1.02-1.002-1.705-2.461-1.723C80.113,155.338,79.129,156.023,79.146,157.043z
		 M80.43,163.494c-0.018,1.02,1.406,1.617,3.744,1.617s3.744-0.598,3.744-1.617c0-1.037-1.406-1.617-3.744-1.617
		S80.412,162.457,80.43,163.494z M91.434,154.477h-2.32v2.162h2.32v1.16h-2.32v2.883h-1.371v-10.09h1.371v2.742h2.32V154.477z"/>
	<path d="M101.559,157.975l-0.756,1.09c-1.731-0.633-3.094-1.926-3.779-3.551c-0.668,1.836-2.057,3.287-3.885,3.99l-0.738-1.107
		c2.338-0.879,3.902-2.971,3.92-5.379V151.4h1.354v1.723C97.674,155.25,99.291,157.201,101.559,157.975z M104.811,163.336
		c0,1.828-1.934,2.848-5.15,2.848s-5.186-1.02-5.186-2.848c0-1.793,1.969-2.83,5.186-2.83S104.811,161.543,104.811,163.336z
		 M95.863,163.336c-0.018,1.107,1.441,1.74,3.797,1.758c2.373-0.018,3.814-0.65,3.814-1.758c0-1.072-1.441-1.723-3.814-1.723
		C97.305,161.613,95.846,162.264,95.863,163.336z M104.67,154.67h2.355v1.16h-2.355v4.271h-1.371v-9.51h1.371V154.67z"/>
</g>
<g>
</g>
<g>
</g>
<g>
</g>
<g>
</g>
<g>
</g>
<g>
</g>
</svg>
