<?xml version="1.0" encoding="utf-8"?>
<!-- Generator: Adobe Illustrator 16.0.0, SVG Export Plug-In . SVG Version: 6.00 Build 0)  -->
<!DOCTYPE svg PUBLIC "-//W3C//DTD SVG 1.1//EN" "http://www.w3.org/Graphics/SVG/1.1/DTD/svg11.dtd">
<svg version="1.1" id="Layer_2" xmlns="http://www.w3.org/2000/svg" xmlns:xlink="http://www.w3.org/1999/xlink" x="0px" y="0px"
	 width="264.755px" height="277.967px" viewBox="0 0 264.755 277.967" enable-background="new 0 0 264.755 277.967"
	 xml:space="preserve">
<g>
	<g>
		<g>
			<path fill="#1D56BC" d="M106.94,128.108H76.5c-14.667,0-26.6-11.938-26.6-26.609c0-14.792,11.934-26.827,26.6-26.827
				c1.753,0,3.36,0.155,4.861,0.469c1.828-10.868,10.156-19.474,21.117-21.734c1.061-17.929,16.082-32.258,34.195-32.258
				c18.515,0,33.622,15.118,34.009,33.846c7.546,3.58,13.593,10.011,16.813,17.884c10.976,3.858,17.25,12.923,17.25,25
				c0,13.575-11.862,29.963-26.594,29.963h-24.937c-1.046,0-1.893-0.845-1.893-1.893c0-1.043,0.847-1.891,1.893-1.891h24.937
				c12.285,0,22.809-14.392,22.809-26.18c0-10.635-5.641-18.54-15.479-21.685c-0.55-0.177-0.989-0.594-1.192-1.137
				c-2.912-7.695-8.83-13.928-16.232-17.097c-0.698-0.298-1.149-0.985-1.149-1.741v-0.484c0-16.987-13.563-30.801-30.235-30.801
				c-16.578,0-30.25,13.501-30.466,30.096c-0.017,0.929-0.701,1.712-1.617,1.845c-10.732,1.583-18.85,10.145-19.74,20.818
				c-0.049,0.583-0.361,1.109-0.852,1.427c-0.481,0.322-1.092,0.395-1.644,0.208c-1.74-0.594-3.601-0.872-5.854-0.872
				c-12.581,0-22.813,10.338-22.813,23.044c0,12.586,10.233,22.823,22.813,22.823h30.439c1.048,0,1.893,0.849,1.893,1.893
				C108.833,127.261,107.988,128.108,106.94,128.108z"/>
		</g>
		<g>
			<path fill="#1D56BC" d="M119.651,154.494c-1.049,0-1.895-0.847-1.895-1.893v-44.065c0-1.045,0.846-1.894,1.895-1.894h5.027
				l-11.255-9.234l-11.262,9.234h5.018c1.046,0,1.893,0.848,1.893,1.894v32.686c0,1.044-0.847,1.894-1.893,1.894
				c-1.045,0-1.891-0.85-1.891-1.894V110.43h-8.415c-0.8,0-1.513-0.502-1.783-1.255c-0.267-0.754-0.037-1.594,0.582-2.101
				l16.551-13.575c0.697-0.569,1.704-0.569,2.398,0l16.543,13.575c0.618,0.506,0.85,1.349,0.582,2.101
				c-0.271,0.753-0.985,1.255-1.783,1.255h-8.422v42.172C121.542,153.647,120.695,154.494,119.651,154.494z"/>
		</g>
		<g>
			<path fill="#1D56BC" d="M146.507,154.494c-0.427,0-0.851-0.145-1.199-0.43l-16.542-13.555c-0.616-0.505-0.851-1.346-0.582-2.101
				c0.268-0.751,0.982-1.256,1.78-1.256h8.425v-30.799c0-1.047,0.846-1.894,1.892-1.894c1.047,0,1.892,0.847,1.892,1.894v32.693
				c0,1.044-0.845,1.893-1.892,1.893h-5.024l11.25,9.217l11.244-9.217h-5.022c-1.046,0-1.891-0.848-1.891-1.893V94.962
				c0-1.045,0.845-1.894,1.891-1.894c1.047,0,1.895,0.849,1.895,1.894v42.189h8.419c0.798,0,1.511,0.505,1.781,1.256
				c0.268,0.755,0.037,1.593-0.58,2.101l-16.539,13.555C147.356,154.349,146.934,154.494,146.507,154.494z"/>
		</g>
		<g>
			<path fill="#1D56BC" d="M225.139,206.562h-69.537c-2.236,0-3.798-1.576-3.798-3.831v-14.528c0-2.149,1.669-3.833,3.798-3.833
				h69.537c2.137,0,3.818,1.685,3.818,3.833v14.528C228.957,204.986,227.386,206.562,225.139,206.562z M155.602,188.153
				l-0.014,14.577l69.55,0.046c0.11,0,0.158-0.014,0.158-0.017l-0.125-14.557L155.602,188.153z"/>
		</g>
		<g>
			<path fill="#1D56BC" d="M167.846,197.839h-5.754c-1.048,0-1.895-0.846-1.895-1.89c0-1.047,0.847-1.894,1.895-1.894h5.754
				c1.045,0,1.893,0.847,1.893,1.894C169.739,196.994,168.891,197.839,167.846,197.839z"/>
		</g>
		<g>
			<path fill="#1D56BC" d="M177.188,197.839h-5.75c-1.047,0-1.894-0.846-1.894-1.89c0-1.047,0.847-1.894,1.894-1.894h5.75
				c1.045,0,1.891,0.847,1.891,1.894C179.078,196.994,178.232,197.839,177.188,197.839z"/>
		</g>
		<g>
			<path fill="#1D56BC" d="M186.546,197.839h-5.518c-1.044,0-1.892-0.846-1.892-1.89c0-1.047,0.847-1.894,1.892-1.894h5.518
				c1.044,0,1.892,0.847,1.892,1.894C188.438,196.994,187.591,197.839,186.546,197.839z"/>
		</g>
		<g>
			<path fill="#1D56BC" d="M170.721,251.355h-69.526c-2.314,0-4.058-1.643-4.058-3.82v-14.523c0-2.08,1.858-3.837,4.058-3.837
				h69.526c2.127,0,3.795,1.688,3.795,3.837v14.523C174.516,249.785,172.955,251.355,170.721,251.355z M100.924,247.535
				c0.012,0.002,0.109,0.035,0.271,0.035h69.526c0.102,0,0.147-0.015,0.147-0.015l-0.137-14.543l-69.537-0.053
				c-0.164,0-0.271,0.117-0.29,0.15L100.924,247.535z"/>
		</g>
		<g>
			<path fill="#1D56BC" d="M113.178,242.645h-5.517c-1.047,0-1.895-0.845-1.895-1.888c0-1.049,0.848-1.896,1.895-1.896h5.517
				c1.045,0,1.893,0.847,1.893,1.896C115.071,241.799,114.224,242.645,113.178,242.645z"/>
		</g>
		<g>
			<path fill="#1D56BC" d="M122.771,242.645h-5.759c-1.043,0-1.892-0.845-1.892-1.888c0-1.049,0.849-1.896,1.892-1.896h5.759
				c1.045,0,1.891,0.847,1.891,1.896C124.661,241.799,123.816,242.645,122.771,242.645z"/>
		</g>
		<g>
			<path fill="#1D56BC" d="M132.122,242.645h-5.519c-1.046,0-1.892-0.845-1.892-1.888c0-1.049,0.846-1.896,1.892-1.896h5.519
				c1.046,0,1.893,0.847,1.893,1.896C134.015,241.799,133.168,242.645,132.122,242.645z"/>
		</g>
		<g>
			<path fill="#1D56BC" d="M102.145,206.562H32.613c-2.233,0-3.798-1.576-3.798-3.831v-14.528c0-2.149,1.669-3.833,3.798-3.833
				h69.532c2.201,0,4.062,1.755,4.062,3.833v14.528C106.207,204.914,104.461,206.562,102.145,206.562z M32.613,188.153l-0.01,14.577
				l69.542,0.046c0.186,0,0.29-0.046,0.314-0.061l-0.04-14.513c0,0.059-0.119-0.049-0.275-0.049H32.613z"/>
		</g>
		<g>
			<path fill="#1D56BC" d="M44.849,197.839h-5.748c-1.046,0-1.893-0.846-1.893-1.89c0-1.047,0.847-1.894,1.893-1.894h5.748
				c1.046,0,1.895,0.847,1.895,1.894C46.744,196.994,45.895,197.839,44.849,197.839z"/>
		</g>
		<g>
			<path fill="#1D56BC" d="M54.188,197.839h-5.505c-1.043,0-1.892-0.846-1.892-1.89c0-1.047,0.849-1.894,1.892-1.894h5.505
				c1.044,0,1.891,0.847,1.891,1.894C56.078,196.994,55.232,197.839,54.188,197.839z"/>
		</g>
		<g>
			<path fill="#1D56BC" d="M63.55,197.839h-5.526c-1.046,0-1.893-0.846-1.893-1.89c0-1.047,0.847-1.894,1.893-1.894h5.526
				c1.047,0,1.893,0.847,1.893,1.894C65.443,196.994,64.597,197.839,63.55,197.839z"/>
		</g>
		<g>
			<path fill="#1D56BC" d="M190.375,188.153c-1.045,0-1.893-0.847-1.893-1.893v-22.802h-16.083c-1.045,0-1.893-0.847-1.893-1.892
				v-35.617c0-1.043,0.848-1.891,1.893-1.891c1.046,0,1.892,0.848,1.892,1.891v33.726h16.085c1.045,0,1.894,0.845,1.894,1.891
				v24.694C192.268,187.306,191.419,188.153,190.375,188.153z"/>
		</g>
		<g>
			<path fill="#1D56BC" d="M72.175,188.153c-1.047,0-1.895-0.847-1.895-1.893v-24.694c0-1.046,0.848-1.891,1.895-1.891h16.087
				v-33.726c0-1.043,0.847-1.891,1.892-1.891c1.046,0,1.895,0.848,1.895,1.891v35.617c0,1.044-0.848,1.892-1.895,1.892H74.066
				v22.802C74.066,187.306,73.218,188.153,72.175,188.153z"/>
		</g>
		<g>
			<path fill="#1D56BC" d="M201.893,242.406h-29.269c-1.046,0-1.892-0.845-1.892-1.893c0-1.046,0.846-1.891,1.892-1.891h27.377
				V204.67c0-1.048,0.846-1.894,1.892-1.894c1.045,0,1.892,0.846,1.892,1.894v35.843
				C203.785,241.561,202.938,242.406,201.893,242.406z"/>
		</g>
		<g>
			<path fill="#1D56BC" d="M98.793,242.406H69.776c-1.045,0-1.892-0.845-1.892-1.893V204.67c0-1.048,0.847-1.894,1.892-1.894
				c1.048,0,1.893,0.846,1.893,1.894v33.952h27.125c1.045,0,1.893,0.845,1.893,1.891C100.686,241.561,99.839,242.406,98.793,242.406
				z"/>
		</g>
	</g>
</g>
<g>
</g>
<g>
</g>
<g>
</g>
<g>
</g>
<g>
</g>
<g>
</g>
<g>
</g>
<g>
</g>
<g>
</g>
<g>
</g>
<g>
</g>
<g>
</g>
<g>
</g>
<g>
</g>
<g>
</g>
</svg>
