<?xml version="1.0" encoding="utf-8"?>
<!-- Generator: Adobe Illustrator 16.0.0, SVG Export Plug-In . SVG Version: 6.00 Build 0)  -->
<!DOCTYPE svg PUBLIC "-//W3C//DTD SVG 1.1//EN" "http://www.w3.org/Graphics/SVG/1.1/DTD/svg11.dtd">
<svg version="1.1" id="Layer_1" xmlns="http://www.w3.org/2000/svg" xmlns:xlink="http://www.w3.org/1999/xlink" x="0px" y="0px"
	 width="170px" height="207px" viewBox="0 0 170 207" enable-background="new 0 0 170 207" xml:space="preserve" fill="#4E88E7">
<g id="g-root-cp_1_g-1_ddkgxv16sal1f-stroke" transform="translate(38, 98.99993896484375)">
	<g id="cp_1_g-1_ddkgxv16sal1f-stroke">
		<g>
			<path d="M47.5,108.009L47.5,108.009c-0.004,0-0.011,0-0.013,0c-0.001,0-0.003,0-0.004,0s-0.002,0-0.004,0l0,0
				c-0.125-0.003-0.246-0.028-0.356-0.073h0c0-0.001,0-0.001-0.001-0.001c0,0,0-0.001-0.002-0.001h0
				c-0.001,0-0.001-0.001-0.002-0.001h0c-0.002-0.002-0.002,0-0.003-0.002c-0.001,0-0.004-0.002-0.002-0.001
				c-0.001,0-0.001,0-0.002-0.001h0c-0.001,0-0.001-0.001-0.002-0.001c0,0-0.001-0.001-0.003-0.001l0,0
				c-0.002-0.001-0.004-0.002-0.005-0.003l0,0c-0.105-0.046-0.203-0.11-0.29-0.194c0,0,0-0.001-0.001-0.001h0
				c-0.004-0.005-0.008-0.009-0.013-0.013L32.099,93.075c-0.391-0.39-0.392-1.022-0.002-1.414c0.39-0.393,1.023-0.391,1.415-0.002
				L46.5,104.601V70.009c0-0.553,0.448-1,1-1c16.144,0,31.916-4.837,45.612-13.987c13.695-9.152,24.267-22.033,30.569-37.25
				c6.304-15.218,7.937-31.801,4.724-47.955c-3.214-16.156-11.068-30.851-22.716-42.498C94.043-84.328,79.348-92.183,63.192-95.395
				c-16.155-3.214-32.738-1.581-47.955,4.723C0.02-84.37-12.861-73.799-22.012-60.103C-31.163-46.408-36-30.462-36-13.991
				c0,0.552-0.448,1-1,1s-1-0.448-1-1c0-16.869,4.954-33.198,14.325-47.224S-1.112-86.065,14.472-92.52
				c15.584-6.455,32.567-8.126,49.111-4.837c16.544,3.291,31.593,11.334,43.521,23.263c11.928,11.927,19.972,26.977,23.263,43.521
				c3.291,16.543,1.618,33.526-4.837,49.111c-6.455,15.584-17.28,28.774-31.306,38.146C80.479,65.867,64.691,70.808,48.5,71.003
				v33.598l12.989-12.942c0.392-0.391,1.023-0.39,1.414,0.002s0.389,1.024-0.002,1.414l-14.694,14.642
				c-0.004,0.004-0.008,0.008-0.013,0.013l0,0l-0.001,0.001c-0.085,0.082-0.182,0.146-0.284,0.192l0,0
				c-0.001,0-0.002,0.001-0.003,0.001l0,0c-0.001,0-0.001,0.001-0.002,0.001h0c-0.001,0.001-0.001,0.001-0.002,0.001
				c0,0-0.001-0.001-0.002,0.002c-0.001,0-0.002-0.001-0.003,0.001h0c-0.001,0-0.001,0.001-0.002,0.001h0
				c-0.002,0.002-0.002,0.001-0.002,0.001c0,0.001,0,0.001-0.001,0.001h0c-0.114,0.048-0.239,0.075-0.37,0.078
				c-0.001,0-0.002,0-0.003,0c-0.002,0-0.002,0-0.003,0C47.508,108.009,47.504,108.009,47.5,108.009z M47,59.009
				c-40.252,0-73-32.748-73-73c0-40.252,32.748-73,73-73c40.252,0,73,32.748,73,73C120,26.261,87.252,59.009,47,59.009z M47-84.991
				c-39.149,0-71,31.851-71,71s31.851,71,71,71s71-31.851,71-71S86.149-84.991,47-84.991z"/>
		</g>
	</g>
</g>
<g>
</g>
<g>
</g>
<g>
</g>
<g>
</g>
<g>
</g>
<g>
</g>
<g>
</g>
<g>
</g>
<g>
</g>
<g>
</g>
<g>
</g>
<g>
</g>
<g>
</g>
<g>
</g>
<g>
</g>
</svg>
