<?xml version="1.0" encoding="UTF-8"?>
<svg id="Capa_1" xmlns="http://www.w3.org/2000/svg" version="1.1" xmlns:xlink="http://www.w3.org/1999/xlink" viewBox="0 0 798.3 665.5">
  <!-- Generator: Adobe Illustrator 29.3.1, SVG Export Plug-In . SVG Version: 2.1.0 Build 151)  -->
  <path d="M624.6,236.9s42,2.8,44.8,47.6c0,0,36.4-77,109.2-23.8h19.6s-50.4-134.4-173.6-23.8Z"/>
  <path d="M669.4,346.9c-2.8,44.8-44.8,47.6-44.8,47.6,123.2,110.6,173.6-23.8,173.6-23.8h-19.6c-72.8,53.2-109.2-23.8-109.2-23.8Z"/>
  <path d="M509.8,307s2.8-66.1,58.8-68.1l-165.3-158.8s-18.2,89.6-72.8,95.2l179.2,131.7Z"/>
  <path d="M238.8,367.2l60.9-173.9c-100.8,26.3-121.8-60-121.8-60l-74.2,173.7c84-23.8,135.1,60.2,135.1,60.2Z"/>
  <path d="M658.2,307c0-33.3-27-60.2-60.2-60.2s-60.2,27-60.2,60.2,27,60.2,60.2,60.2,60.2-27,60.2-60.2ZM571.4,307c0-14.7,11.9-26.6,26.6-26.6s26.6,11.9,26.6,26.6-11.9,26.6-26.6,26.6-26.6-11.9-26.6-26.6Z"/>
  <path d="M204.6,80.1c0,44.2,35.8,80.1,80.1,80.1s80.1-35.9,80.1-80.1S328.9,0,284.6,0s-80.1,35.9-80.1,80.1ZM284.6,44.7c19.5,0,35.4,15.9,35.4,35.4s-15.8,35.4-35.4,35.4-35.4-15.9-35.4-35.4c0-19.5,15.9-35.4,35.4-35.4Z"/>
  <path d="M60.3,426.9c0,44.2,35.9,80.1,80.1,80.1s80.1-35.9,80.1-80.1-35.8-80.1-80.1-80.1-80.1,35.9-80.1,80.1ZM140.4,391.5c19.5,0,35.4,15.9,35.4,35.4s-15.9,35.4-35.4,35.4-35.4-15.9-35.4-35.4c0-19.5,15.8-35.4,35.4-35.4Z"/>
  <path d="M0,665.5h264.7l-44.2-158.5s-67.6,79.6-160.1,0L0,665.5Z"/>
</svg>