<?xml version="1.0" encoding="utf-8"?>
<!-- Generator: Adobe Illustrator 16.0.0, SVG Export Plug-In . SVG Version: 6.00 Build 0)  -->
<!DOCTYPE svg PUBLIC "-//W3C//DTD SVG 1.1//EN" "http://www.w3.org/Graphics/SVG/1.1/DTD/svg11.dtd">
<svg version="1.1" id="Layer_3" xmlns="http://www.w3.org/2000/svg" xmlns:xlink="http://www.w3.org/1999/xlink" x="0px" y="0px"
	 width="264.755px" height="277.967px" viewBox="0 0 264.755 277.967" enable-background="new 0 0 264.755 277.967"
	 xml:space="preserve">
<g>
	<g id="_x35_08_x2C__Center_x2C__centre_x2C__data_x2C__database_x2C__server">
		<g>
			<g>
				<g>
					<g>
						<path fill="#1D56BC" d="M177.892,217.738H85.557c-0.715,0-1.432-0.717-1.432-1.432v-20.4c0-0.714,0.716-1.432,1.432-1.432
							h92.335c0.718,0,1.432,0.717,1.432,1.432v20.4C179.323,217.381,178.609,217.738,177.892,217.738z M86.988,215.232h89.471
							v-17.894H86.988V215.232z"/>
					</g>
					<g>
						<path fill="#1D56BC" d="M170.376,210.58c-2.506,0-4.295-1.788-4.295-4.295c0-2.505,1.789-4.294,4.295-4.294
							c2.506,0,4.294,1.789,4.294,4.294C174.671,208.792,172.882,210.58,170.376,210.58z M170.376,204.496
							c-1.072,0-1.79,0.714-1.79,1.789c0,1.075,0.718,1.789,1.79,1.789c1.074,0,1.792-0.714,1.792-1.789
							C172.168,205.571,171.45,204.496,170.376,204.496z"/>
					</g>
					<g>
						<path fill="#1D56BC" d="M160.354,210.58c-2.502,0-4.291-1.788-4.291-4.295c0-2.505,1.789-4.294,4.291-4.294
							c2.507,0,4.298,1.789,4.298,4.294C164.652,208.792,162.504,210.58,160.354,210.58z M160.354,204.496
							c-1.074,0-1.789,0.714-1.789,1.789c0,1.075,0.714,1.789,1.789,1.789c1.075,0,1.789-0.714,1.789-1.789
							C161.789,205.571,161.072,204.496,160.354,204.496z"/>
					</g>
					<g>
						<path fill="#1D56BC" d="M124.924,203.064H85.557c-0.715,0-1.432-0.717-1.432-1.432c0-0.716,0.716-1.432,1.432-1.432h39.368
							c0.716,0,1.432,0.715,1.432,1.432C126.356,202.707,125.64,203.064,124.924,203.064z"/>
					</g>
					<g>
						<path fill="#1D56BC" d="M96.292,217.738c-0.716,0-1.432-0.717-1.432-1.432v-7.158c0-0.714,0.716-1.432,1.432-1.432
							s1.432,0.718,1.432,1.432v7.158C97.725,217.381,97.008,217.738,96.292,217.738z"/>
					</g>
					<g>
						<path fill="#1D56BC" d="M101.303,217.738c-0.716,0-1.432-0.717-1.432-1.432v-7.158c0-0.714,0.716-1.432,1.432-1.432
							s1.432,0.718,1.432,1.432v7.158C102.378,217.381,102.019,217.738,101.303,217.738z"/>
					</g>
					<g>
						<path fill="#1D56BC" d="M105.956,217.738c-0.716,0-1.432-0.717-1.432-1.432v-7.158c0-0.714,0.716-1.432,1.432-1.432
							s1.432,0.718,1.432,1.432v7.158C107.387,217.381,106.671,217.738,105.956,217.738z"/>
					</g>
					<g>
						<path fill="#1D56BC" d="M110.966,217.738c-0.716,0-1.432-0.717-1.432-1.432v-7.158c0-0.714,0.716-1.432,1.432-1.432
							c0.716,0,1.432,0.718,1.432,1.432v7.158C112.041,217.381,111.683,217.738,110.966,217.738z"/>
					</g>
					<g>
						<path fill="#1D56BC" d="M146.042,210.58c-2.507,0-4.296-1.788-4.296-4.295c0-2.505,2.149-4.294,4.296-4.294
							c2.505,0,4.294,1.789,4.294,4.294C150.336,208.792,148.547,210.58,146.042,210.58z M146.042,204.496
							c-1.075,0-1.793,0.714-1.793,1.789c0,1.075,0.718,1.789,1.793,1.789c1.071,0,1.789-0.714,1.789-1.789
							C147.83,205.571,146.755,204.496,146.042,204.496z"/>
					</g>
					<g>
						<path fill="#1D56BC" d="M135.661,210.58c-2.505,0-4.294-1.788-4.294-4.295c0-2.505,2.148-4.294,4.294-4.294
							c2.506,0,4.297,1.789,4.297,4.294C140.314,208.792,138.167,210.58,135.661,210.58z M135.661,204.496
							c-1.073,0-1.789,0.714-1.789,1.789c0,1.075,0.716,1.789,1.789,1.789c1.074,0,1.79-0.714,1.79-1.789
							C137.45,205.571,136.735,204.496,135.661,204.496z"/>
					</g>
					<g>
						<path fill="#1D56BC" d="M177.892,197.338H85.557c-0.715,0-1.432-0.715-1.432-1.432v-20.401c0-0.714,0.716-1.432,1.432-1.432
							h92.335c0.718,0,1.432,0.718,1.432,1.432v20.401C179.323,196.979,178.609,197.338,177.892,197.338z M86.988,194.831h89.471
							v-17.894H86.988V194.831z"/>
					</g>
					<g>
						<path fill="#1D56BC" d="M96.292,197.338c-0.716,0-1.432-0.715-1.432-1.432v-7.159c0-0.714,0.716-1.432,1.432-1.432
							s1.432,0.718,1.432,1.432v7.159C97.725,196.979,97.008,197.338,96.292,197.338z"/>
					</g>
					<g>
						<path fill="#1D56BC" d="M101.303,197.338c-0.716,0-1.432-0.715-1.432-1.432v-7.159c0-0.714,0.716-1.432,1.432-1.432
							s1.432,0.718,1.432,1.432v7.159C102.378,196.979,102.019,197.338,101.303,197.338z"/>
					</g>
					<g>
						<path fill="#1D56BC" d="M105.956,197.338c-0.716,0-1.432-0.715-1.432-1.432v-7.159c0-0.714,0.716-1.432,1.432-1.432
							s1.432,0.718,1.432,1.432v7.159C107.387,196.979,106.671,197.338,105.956,197.338z"/>
					</g>
					<g>
						<path fill="#1D56BC" d="M110.966,197.338c-0.716,0-1.432-0.715-1.432-1.432v-7.159c0-0.714,0.716-1.432,1.432-1.432
							c0.716,0,1.432,0.718,1.432,1.432v7.159C112.041,196.979,111.683,197.338,110.966,197.338z"/>
					</g>
					<g>
						<path fill="#1D56BC" d="M177.892,176.937H85.557c-0.715,0-1.432-0.714-1.432-1.432v-20.396c0-0.718,0.716-1.432,1.432-1.432
							h92.335c0.718,0,1.432,0.713,1.432,1.432v20.396C179.323,176.58,178.609,176.937,177.892,176.937z M86.988,174.435h89.471
							V156.54H86.988V174.435z"/>
					</g>
					<g>
						<path fill="#1D56BC" d="M170.376,169.779c-2.506,0-4.295-2.146-4.295-4.292c0-2.506,1.789-4.294,4.295-4.294
							c2.506,0,4.294,1.789,4.294,4.294C174.671,167.99,172.882,169.779,170.376,169.779z M170.376,163.695
							c-1.072,0-1.79,0.717-1.79,1.792c0,1.072,0.718,1.788,1.79,1.788c1.074,0,1.792-0.716,1.792-1.788
							C172.168,164.412,171.45,163.695,170.376,163.695z"/>
					</g>
					<g>
						<path fill="#1D56BC" d="M160.354,169.779c-2.502,0-4.291-2.146-4.291-4.292c0-2.506,1.789-4.294,4.291-4.294
							c2.507,0,4.298,1.789,4.298,4.294C164.652,167.99,162.504,169.779,160.354,169.779z M160.354,163.695
							c-1.074,0-1.789,0.717-1.789,1.792c0,1.072,0.714,1.788,1.789,1.788c1.075,0,1.789-0.716,1.789-1.788
							C161.789,164.412,161.072,163.695,160.354,163.695z"/>
					</g>
					<g>
						<path fill="#1D56BC" d="M124.924,162.263H85.557c-0.715,0-1.432-0.714-1.432-1.433c0-0.713,0.716-1.428,1.432-1.428h39.368
							c0.716,0,1.432,0.714,1.432,1.428C126.356,161.549,125.64,162.263,124.924,162.263z"/>
					</g>
					<g>
						<path fill="#1D56BC" d="M96.292,176.937c-0.716,0-1.432-0.714-1.432-1.432v-7.158c0-0.714,0.716-1.428,1.432-1.428
							s1.432,0.714,1.432,1.428v7.158C97.725,176.58,97.008,176.937,96.292,176.937z"/>
					</g>
					<g>
						<path fill="#1D56BC" d="M101.303,176.937c-0.716,0-1.432-0.714-1.432-1.432v-7.158c0-0.714,0.716-1.428,1.432-1.428
							s1.432,0.714,1.432,1.428v7.158C102.378,176.58,102.019,176.937,101.303,176.937z"/>
					</g>
					<g>
						<path fill="#1D56BC" d="M105.956,176.937c-0.716,0-1.432-0.714-1.432-1.432v-7.158c0-0.714,0.716-1.428,1.432-1.428
							s1.432,0.714,1.432,1.428v7.158C107.387,176.58,106.671,176.937,105.956,176.937z"/>
					</g>
					<g>
						<path fill="#1D56BC" d="M110.966,176.937c-0.716,0-1.432-0.714-1.432-1.432v-7.158c0-0.714,0.716-1.428,1.432-1.428
							c0.716,0,1.432,0.714,1.432,1.428v7.158C112.041,176.58,111.683,176.937,110.966,176.937z"/>
					</g>
					<g>
						<path fill="#1D56BC" d="M146.042,169.779c-2.507,0-4.296-2.146-4.296-4.292c0-2.506,2.149-4.294,4.296-4.294
							c2.505,0,4.294,1.789,4.294,4.294C150.336,167.99,148.547,169.779,146.042,169.779z M146.042,163.695
							c-1.075,0-1.793,0.717-1.793,1.792c0,1.072,0.718,1.788,1.793,1.788c1.071,0,1.789-0.716,1.789-1.788
							C147.83,164.412,146.755,163.695,146.042,163.695z"/>
					</g>
					<g>
						<path fill="#1D56BC" d="M135.661,169.779c-2.505,0-4.294-2.146-4.294-4.292c0-2.506,2.148-4.294,4.294-4.294
							c2.506,0,4.297,1.789,4.297,4.294C140.314,167.99,138.167,169.779,135.661,169.779z M135.661,163.695
							c-1.073,0-1.789,0.717-1.789,1.792c0,1.072,0.716,1.788,1.789,1.788c1.074,0,1.79-0.716,1.79-1.788
							C137.45,164.412,136.735,163.695,135.661,163.695z"/>
					</g>
					<g>
						<path fill="#1D56BC" d="M177.892,156.54H85.557c-0.715,0-1.432-0.718-1.432-1.432v-20.043c0-0.718,0.716-1.432,1.432-1.432
							h92.335c0.718,0,1.432,0.713,1.432,1.432v20.4C179.323,156.179,178.609,156.54,177.892,156.54z M86.988,154.033h89.471
							v-17.895H86.988V154.033z"/>
					</g>
					<g>
						<path fill="#1D56BC" d="M170.376,149.381c-2.506,0-4.295-1.792-4.295-4.296c0-2.505,1.789-4.294,4.295-4.294
							c2.506,0,4.294,2.146,4.294,4.294C174.671,147.589,172.882,149.381,170.376,149.381z M170.376,143.298
							c-1.072,0-1.79,0.713-1.79,1.787c0,1.075,0.718,1.789,1.79,1.789c1.074,0,1.792-0.713,1.792-1.789
							C172.168,144.012,171.45,143.298,170.376,143.298z"/>
					</g>
					<g>
						<path fill="#1D56BC" d="M160.354,149.381c-2.502,0-4.291-1.792-4.291-4.296c0-2.505,1.789-4.294,4.291-4.294
							c2.507,0,4.298,2.146,4.298,4.294C164.652,147.589,162.504,149.381,160.354,149.381z M160.354,143.298
							c-1.074,0-1.789,0.713-1.789,1.787c0,1.075,0.714,1.789,1.789,1.789c1.075,0,1.789-0.713,1.789-1.789
							C161.789,144.012,161.072,143.298,160.354,143.298z"/>
					</g>
					<g>
						<path fill="#1D56BC" d="M124.924,141.866H85.557c-0.715,0-1.432-0.718-1.432-1.432c0-0.718,0.716-1.432,1.432-1.432h39.368
							c0.716,0,1.432,0.713,1.432,1.432C126.356,141.506,125.64,141.866,124.924,141.866z"/>
					</g>
					<g>
						<path fill="#1D56BC" d="M96.292,156.54c-0.716,0-1.432-0.718-1.432-1.432v-7.159c0-0.717,0.716-1.431,1.432-1.431
							s1.432,0.714,1.432,1.431v7.159C97.725,156.179,97.008,156.54,96.292,156.54z"/>
					</g>
					<g>
						<path fill="#1D56BC" d="M101.303,156.54c-0.716,0-1.432-0.718-1.432-1.432v-7.159c0-0.717,0.716-1.431,1.432-1.431
							s1.432,0.714,1.432,1.431v7.159C102.378,156.179,102.019,156.54,101.303,156.54z"/>
					</g>
					<g>
						<path fill="#1D56BC" d="M105.956,156.54c-0.716,0-1.432-0.718-1.432-1.432v-7.159c0-0.717,0.716-1.431,1.432-1.431
							s1.432,0.714,1.432,1.431v7.159C107.387,156.179,106.671,156.54,105.956,156.54z"/>
					</g>
					<g>
						<path fill="#1D56BC" d="M110.966,156.54c-0.716,0-1.432-0.718-1.432-1.432v-7.159c0-0.717,0.716-1.431,1.432-1.431
							c0.716,0,1.432,0.714,1.432,1.431v7.159C112.041,156.179,111.683,156.54,110.966,156.54z"/>
					</g>
					<g>
						<path fill="#1D56BC" d="M135.661,149.381c-2.505,0-4.294-1.792-4.294-4.296c0-2.505,2.148-4.294,4.294-4.294
							c2.506,0,4.297,2.146,4.297,4.294C140.314,147.589,138.167,149.381,135.661,149.381z M135.661,143.298
							c-1.073,0-1.789,0.713-1.789,1.787c0,1.075,0.716,1.789,1.789,1.789c1.074,0,1.79-0.713,1.79-1.789
							C137.45,144.012,136.735,143.298,135.661,143.298z"/>
					</g>
					<g>
						<path fill="#1D56BC" d="M177.892,136.139H85.557c-0.715,0-1.432-0.718-1.432-1.432v-20.401c0-0.713,0.716-1.431,1.432-1.431
							h92.335c0.718,0,1.432,0.717,1.432,1.431v20.759C179.323,135.782,178.609,136.139,177.892,136.139z M86.988,133.633h89.471
							v-17.896H86.988V133.633z"/>
					</g>
					<g>
						<path fill="#1D56BC" d="M170.376,128.98c-2.506,0-4.295-1.788-4.295-4.294c0-2.507,1.789-4.294,4.295-4.294
							c2.506,0,4.294,2.149,4.294,4.294C174.671,127.192,172.882,128.98,170.376,128.98z M170.376,122.897
							c-1.072,0-1.79,0.713-1.79,1.789c0,1.075,0.718,1.789,1.79,1.789c1.074,0,1.792-0.714,1.792-1.789
							C172.168,123.61,171.45,122.897,170.376,122.897z"/>
					</g>
					<g>
						<path fill="#1D56BC" d="M160.354,128.98c-2.502,0-4.291-1.788-4.291-4.294c0-2.507,1.789-4.294,4.291-4.294
							c2.507,0,4.298,2.149,4.298,4.294C164.652,127.192,162.504,128.98,160.354,128.98z M160.354,122.897
							c-1.074,0-1.789,0.713-1.789,1.789c0,1.075,0.714,1.789,1.789,1.789c1.075,0,1.789-0.714,1.789-1.789
							C161.789,123.61,161.072,122.897,160.354,122.897z"/>
					</g>
					<g>
						<path fill="#1D56BC" d="M124.924,121.465H85.557c-0.715,0-1.432-0.718-1.432-1.432c0-0.718,0.716-1.432,1.432-1.432h39.368
							c0.716,0,1.432,0.713,1.432,1.432C126.356,121.108,125.64,121.465,124.924,121.465z"/>
					</g>
					<g>
						<path fill="#1D56BC" d="M96.292,136.139c-0.716,0-1.432-0.718-1.432-1.432v-7.158c0-0.717,0.716-1.432,1.432-1.432
							s1.432,0.715,1.432,1.432v7.158C97.725,135.782,97.008,136.139,96.292,136.139z"/>
					</g>
					<g>
						<path fill="#1D56BC" d="M101.303,136.139c-0.716,0-1.432-0.718-1.432-1.432v-7.158c0-0.717,0.716-1.432,1.432-1.432
							s1.432,0.715,1.432,1.432v7.158C102.378,135.782,102.019,136.139,101.303,136.139z"/>
					</g>
					<g>
						<path fill="#1D56BC" d="M105.956,136.139c-0.716,0-1.432-0.718-1.432-1.432v-7.158c0-0.717,0.716-1.432,1.432-1.432
							s1.432,0.715,1.432,1.432v7.158C107.387,135.782,106.671,136.139,105.956,136.139z"/>
					</g>
					<g>
						<path fill="#1D56BC" d="M110.966,136.139c-0.716,0-1.432-0.718-1.432-1.432v-7.158c0-0.717,0.716-1.432,1.432-1.432
							c0.716,0,1.432,0.715,1.432,1.432v7.158C112.041,135.782,111.683,136.139,110.966,136.139z"/>
					</g>
					<g>
						<path fill="#1D56BC" d="M146.042,128.98c-2.507,0-4.296-1.788-4.296-4.294c0-2.507,2.149-4.294,4.296-4.294
							c2.505,0,4.294,2.149,4.294,4.294C150.336,127.192,148.547,128.98,146.042,128.98z M146.042,122.897
							c-1.075,0-1.793,0.713-1.793,1.789c0,1.075,0.718,1.789,1.793,1.789c1.071,0,1.789-0.714,1.789-1.789
							C147.83,123.61,146.755,122.897,146.042,122.897z"/>
					</g>
					<g>
						<path fill="#1D56BC" d="M135.661,128.98c-2.505,0-4.294-1.788-4.294-4.294c0-2.507,2.148-4.294,4.294-4.294
							c2.506,0,4.297,2.149,4.297,4.294C140.314,127.192,138.167,128.98,135.661,128.98z M135.661,122.897
							c-1.073,0-1.789,0.713-1.789,1.789c0,1.075,0.716,1.789,1.789,1.789c1.074,0,1.79-0.714,1.79-1.789
							C137.45,123.61,136.735,122.897,135.661,122.897z"/>
					</g>
					<g>
						<path fill="#1D56BC" d="M177.892,115.738H85.557c-0.715,0-1.432-0.717-1.432-1.432v-20.4c0-0.715,0.716-1.432,1.432-1.432
							h92.335c0.718,0,1.432,0.717,1.432,1.432v20.4C179.323,115.382,178.609,115.738,177.892,115.738z M86.988,113.232h89.471
							V95.338H86.988V113.232z"/>
					</g>
					<g>
						<path fill="#1D56BC" d="M170.376,108.58c-2.506,0-4.295-1.789-4.295-4.294c0-2.503,1.789-4.296,4.295-4.296
							c2.506,0,4.294,1.792,4.294,4.296C174.671,106.792,172.882,108.58,170.376,108.58z M170.376,102.496
							c-1.072,0-1.79,0.714-1.79,1.79c0,1.074,0.718,1.788,1.79,1.788c1.074,0,1.792-0.714,1.792-1.788
							C172.168,103.21,171.45,102.496,170.376,102.496z"/>
					</g>
					<g>
						<path fill="#1D56BC" d="M160.354,108.58c-2.502,0-4.291-1.789-4.291-4.294c0-2.503,1.789-4.296,4.291-4.296
							c2.507,0,4.298,1.792,4.298,4.296C164.652,106.792,162.504,108.58,160.354,108.58z M160.354,102.496
							c-1.074,0-1.789,0.714-1.789,1.79c0,1.074,0.714,1.788,1.789,1.788c1.075,0,1.789-0.714,1.789-1.788
							C161.789,103.21,161.072,102.496,160.354,102.496z"/>
					</g>
					<g>
						<path fill="#1D56BC" d="M124.924,101.064H85.557c-0.715,0-1.432-0.714-1.432-1.432c0-0.714,0.716-1.432,1.432-1.432h39.368
							c0.716,0,1.432,0.718,1.432,1.432C126.356,100.708,125.64,101.064,124.924,101.064z"/>
					</g>
					<g>
						<path fill="#1D56BC" d="M96.292,115.738c-0.716,0-1.432-0.717-1.432-1.432v-7.158c0-0.714,0.716-1.431,1.432-1.431
							s1.432,0.716,1.432,1.431v7.158C97.725,115.382,97.008,115.738,96.292,115.738z"/>
					</g>
					<g>
						<path fill="#1D56BC" d="M101.303,115.738c-0.716,0-1.432-0.717-1.432-1.432v-7.158c0-0.714,0.716-1.431,1.432-1.431
							s1.432,0.716,1.432,1.431v7.158C102.378,115.382,102.019,115.738,101.303,115.738z"/>
					</g>
					<g>
						<path fill="#1D56BC" d="M105.956,115.738c-0.716,0-1.432-0.717-1.432-1.432v-7.158c0-0.714,0.716-1.431,1.432-1.431
							s1.432,0.716,1.432,1.431v7.158C107.387,115.382,106.671,115.738,105.956,115.738z"/>
					</g>
					<g>
						<path fill="#1D56BC" d="M110.966,115.738c-0.716,0-1.432-0.717-1.432-1.432v-7.158c0-0.714,0.716-1.431,1.432-1.431
							c0.716,0,1.432,0.716,1.432,1.431v7.158C112.041,115.382,111.683,115.738,110.966,115.738z"/>
					</g>
					<g>
						<path fill="#1D56BC" d="M135.661,108.58c-2.505,0-4.294-1.789-4.294-4.294c0-2.503,2.148-4.296,4.294-4.296
							c2.506,0,4.297,1.792,4.297,4.296C140.314,106.792,138.167,108.58,135.661,108.58z M135.661,102.496
							c-1.073,0-1.789,0.714-1.789,1.79c0,1.074,0.716,1.788,1.789,1.788c1.074,0,1.79-0.714,1.79-1.788
							C137.45,103.21,136.735,102.496,135.661,102.496z"/>
					</g>
					<g>
						<path fill="#1D56BC" d="M85.557,183.021H28.295c-0.716,0-1.432-0.715-1.432-1.432v-20.397c0-0.718,0.716-1.432,1.432-1.432
							h57.262c0.716,0,1.432,0.713,1.432,1.432v20.397C86.988,182.306,86.273,183.021,85.557,183.021z M29.724,180.157h54.758
							v-17.894H29.724V180.157z"/>
					</g>
					<g>
						<path fill="#1D56BC" d="M67.663,168.347H28.295c-0.716,0-1.432-0.714-1.432-1.428c0-0.717,0.716-1.432,1.432-1.432h39.368
							c0.716,0,1.432,0.714,1.432,1.432C69.094,167.632,68.378,168.347,67.663,168.347z"/>
					</g>
					<g>
						<path fill="#1D56BC" d="M39.031,183.021c-0.716,0-1.432-0.715-1.432-1.432v-7.155c0-0.718,0.716-1.432,1.432-1.432
							s1.431,0.714,1.431,1.432v7.155C40.462,182.306,39.747,183.021,39.031,183.021z"/>
					</g>
					<g>
						<path fill="#1D56BC" d="M43.682,183.021c-0.715,0-1.431-0.715-1.431-1.432v-7.155c0-0.718,0.716-1.432,1.431-1.432
							c0.716,0,1.432,0.714,1.432,1.432v7.155C45.114,182.306,44.398,183.021,43.682,183.021z"/>
					</g>
					<g>
						<path fill="#1D56BC" d="M48.694,183.021c-0.716,0-1.432-0.715-1.432-1.432v-7.155c0-0.718,0.715-1.432,1.432-1.432
							c0.715,0,1.431,0.714,1.431,1.432v7.155C50.125,182.306,49.409,183.021,48.694,183.021z"/>
					</g>
					<g>
						<path fill="#1D56BC" d="M53.346,183.021c-0.716,0-1.431-0.715-1.431-1.432v-7.155c0-0.718,0.715-1.432,1.431-1.432
							c0.716,0,1.432,0.714,1.432,1.432v7.155C54.777,182.306,54.062,183.021,53.346,183.021z"/>
					</g>
					<g>
						<path fill="#1D56BC" d="M85.557,162.623H28.295c-0.716,0-1.432-0.717-1.432-1.431v-20.401c0-0.717,0.716-1.432,1.432-1.432
							h57.262c0.716,0,1.432,0.715,1.432,1.432v20.401C86.988,161.906,86.273,162.623,85.557,162.623z M29.724,159.761h54.758
							v-17.895H29.724V159.761z"/>
					</g>
					<g>
						<path fill="#1D56BC" d="M85.557,142.223H28.295c-0.716,0-1.432-0.716-1.432-1.432v-20.4c0-0.714,0.716-1.432,1.432-1.432
							h57.262c0.716,0,1.432,0.717,1.432,1.432v20.4C86.988,141.506,86.273,142.223,85.557,142.223z M29.724,139.359h54.758v-17.895
							H29.724V139.359z"/>
					</g>
					<g>
						<path fill="#1D56BC" d="M67.663,127.549H28.295c-0.716,0-1.432-0.717-1.432-1.432c0-0.714,0.716-1.432,1.432-1.432h39.368
							c0.716,0,1.432,0.717,1.432,1.432C69.094,126.832,68.378,127.549,67.663,127.549z"/>
					</g>
					<g>
						<path fill="#1D56BC" d="M39.031,142.223c-0.716,0-1.432-0.716-1.432-1.432v-7.158c0-0.715,0.716-1.432,1.432-1.432
							s1.431,0.717,1.431,1.432v7.158C40.462,141.506,39.747,142.223,39.031,142.223z"/>
					</g>
					<g>
						<path fill="#1D56BC" d="M43.682,142.223c-0.715,0-1.431-0.716-1.431-1.432v-7.158c0-0.715,0.716-1.432,1.431-1.432
							c0.716,0,1.432,0.717,1.432,1.432v7.158C45.114,141.506,44.398,142.223,43.682,142.223z"/>
					</g>
					<g>
						<path fill="#1D56BC" d="M48.694,142.223c-0.716,0-1.432-0.716-1.432-1.432v-7.158c0-0.715,0.715-1.432,1.432-1.432
							c0.715,0,1.431,0.717,1.431,1.432v7.158C50.125,141.506,49.409,142.223,48.694,142.223z"/>
					</g>
					<g>
						<path fill="#1D56BC" d="M53.346,142.223c-0.716,0-1.431-0.716-1.431-1.432v-7.158c0-0.715,0.715-1.432,1.431-1.432
							c0.716,0,1.432,0.717,1.432,1.432v7.158C54.777,141.506,54.062,142.223,53.346,142.223z"/>
					</g>
					<g>
						<path fill="#1D56BC" d="M85.557,121.822H28.295c-0.716,0-1.432-0.714-1.432-1.431V99.99c0-0.713,0.716-1.432,1.432-1.432
							h57.262c0.716,0,1.432,0.718,1.432,1.432v20.401C86.988,121.108,86.273,121.822,85.557,121.822z M29.724,118.959h54.758
							v-17.896H29.724V118.959z"/>
					</g>
					<g>
						<path fill="#1D56BC" d="M67.663,107.148H28.295c-0.716,0-1.432-0.714-1.432-1.431c0-0.715,0.716-1.432,1.432-1.432h39.368
							c0.716,0,1.432,0.717,1.432,1.432C69.094,106.434,68.378,107.148,67.663,107.148z"/>
					</g>
					<g>
						<path fill="#1D56BC" d="M39.031,121.822c-0.716,0-1.432-0.714-1.432-1.431v-7.159c0-0.714,0.716-1.432,1.432-1.432
							s1.431,0.718,1.431,1.432v7.159C40.462,121.108,39.747,121.822,39.031,121.822z"/>
					</g>
					<g>
						<path fill="#1D56BC" d="M43.682,121.822c-0.715,0-1.431-0.714-1.431-1.431v-7.159c0-0.714,0.716-1.432,1.431-1.432
							c0.716,0,1.432,0.718,1.432,1.432v7.159C45.114,121.108,44.398,121.822,43.682,121.822z"/>
					</g>
					<g>
						<path fill="#1D56BC" d="M48.694,121.822c-0.716,0-1.432-0.714-1.432-1.431v-7.159c0-0.714,0.715-1.432,1.432-1.432
							c0.715,0,1.431,0.718,1.431,1.432v7.159C50.125,121.108,49.409,121.822,48.694,121.822z"/>
					</g>
					<g>
						<path fill="#1D56BC" d="M53.346,121.822c-0.716,0-1.431-0.714-1.431-1.431v-7.159c0-0.714,0.715-1.432,1.431-1.432
							c0.716,0,1.432,0.718,1.432,1.432v7.159C54.777,121.108,54.062,121.822,53.346,121.822z"/>
					</g>
					<g>
						<path fill="#1D56BC" d="M85.557,101.422H28.295c-0.716,0-1.432-0.714-1.432-1.432V79.594c0-0.718,0.716-1.432,1.432-1.432
							h92.335c0.715,0,1.432,0.714,1.432,1.432v14.674c0,0.713-0.716,1.427-1.432,1.427H86.988v4.655
							C86.988,100.708,86.273,101.422,85.557,101.422z M29.724,98.558h54.758v-4.652c0-0.715,0.715-1.432,1.431-1.432h33.643v-11.81
							H30.083v17.894H29.724z"/>
					</g>
					<g>
						<path fill="#1D56BC" d="M113.114,94.268c-2.505,0-4.296-2.15-4.296-4.295c0-2.507,2.148-4.296,4.296-4.296
							c2.504,0,4.295,1.789,4.295,4.296C117.409,92.118,115.261,94.268,113.114,94.268z M113.114,88.18
							c-1.073,0-1.789,0.717-1.789,1.792c0,1.072,0.715,1.788,1.789,1.788c1.073,0,1.791-0.716,1.791-1.788
							C114.546,88.897,113.83,88.18,113.114,88.18z"/>
					</g>
					<g>
						<path fill="#1D56BC" d="M67.663,86.748H28.295c-0.716,0-1.432-0.713-1.432-1.432c0-0.714,0.716-1.432,1.432-1.432h39.368
							c0.716,0,1.432,0.718,1.432,1.432C69.094,86.035,68.378,86.748,67.663,86.748z"/>
					</g>
					<g>
						<path fill="#1D56BC" d="M39.031,101.422c-0.716,0-1.432-0.714-1.432-1.432v-7.154c0-0.718,0.716-1.432,1.432-1.432
							s1.431,0.714,1.431,1.432v7.154C40.462,100.708,39.747,101.422,39.031,101.422z"/>
					</g>
					<g>
						<path fill="#1D56BC" d="M43.682,101.422c-0.715,0-1.431-0.714-1.431-1.432v-7.154c0-0.718,0.716-1.432,1.431-1.432
							c0.716,0,1.432,0.714,1.432,1.432v7.154C45.114,100.708,44.398,101.422,43.682,101.422z"/>
					</g>
					<g>
						<path fill="#1D56BC" d="M48.694,101.422c-0.716,0-1.432-0.714-1.432-1.432v-7.154c0-0.718,0.715-1.432,1.432-1.432
							c0.715,0,1.431,0.714,1.431,1.432v7.154C50.125,100.708,49.409,101.422,48.694,101.422z"/>
					</g>
					<g>
						<path fill="#1D56BC" d="M53.346,101.422c-0.716,0-1.431-0.714-1.431-1.432v-7.154c0-0.718,0.715-1.432,1.431-1.432
							c0.716,0,1.432,0.714,1.432,1.432v7.154C54.777,100.708,54.062,101.422,53.346,101.422z"/>
					</g>
					<g>
						<path fill="#1D56BC" d="M88.42,94.268c-2.506,0-4.295-2.15-4.295-4.295c0-2.507,1.789-4.296,4.295-4.296
							c2.504,0,4.293,1.789,4.293,4.296C93.072,92.118,90.924,94.268,88.42,94.268z M88.42,88.18c-1.074,0-1.791,0.717-1.791,1.792
							c0,1.072,0.716,1.788,1.791,1.788c1.073,0,1.789-0.716,1.789-1.788C90.209,88.897,89.493,88.18,88.42,88.18z"/>
					</g>
					<g>
						<path fill="#1D56BC" d="M78.398,94.268c-2.504,0-4.295-2.15-4.295-4.295c0-2.507,1.791-4.296,4.295-4.296
							c2.506,0,4.295,1.789,4.295,4.296C82.693,92.118,80.904,94.268,78.398,94.268z M78.398,88.18
							c-1.073,0-1.789,0.717-1.789,1.792c0,1.072,0.716,1.788,1.789,1.788c1.074,0,1.789-0.716,1.789-1.788
							C80.187,88.897,79.473,88.18,78.398,88.18z"/>
					</g>
					<g>
						<path fill="#1D56BC" d="M120.63,81.024H28.295c-0.716,0-1.432-0.717-1.432-1.43V59.192c0-0.718,0.716-1.432,1.432-1.432
							h92.335c0.715,0,1.432,0.713,1.432,1.432v20.401C121.704,80.307,121.345,81.024,120.63,81.024z M29.724,78.162h89.473V60.266
							H29.724V78.162z"/>
					</g>
					<g>
						<path fill="#1D56BC" d="M113.114,73.866c-2.505,0-4.296-1.792-4.296-4.295c0-2.505,2.148-4.295,4.296-4.295
							c2.504,0,4.295,2.146,4.295,4.295C117.409,71.716,115.261,73.866,113.114,73.866z M113.114,67.782
							c-1.073,0-1.789,0.715-1.789,1.789c0,1.075,0.715,1.789,1.789,1.789c1.073,0,1.791-0.714,1.791-1.789
							C114.546,68.497,113.83,67.782,113.114,67.782z"/>
					</g>
					<g>
						<path fill="#1D56BC" d="M67.663,66.35H28.295c-0.716,0-1.432-0.716-1.432-1.431c0-0.718,0.716-1.432,1.432-1.432h39.368
							c0.716,0,1.432,0.713,1.432,1.432C69.094,65.634,68.378,66.35,67.663,66.35z"/>
					</g>
					<g>
						<path fill="#1D56BC" d="M39.031,81.024c-0.716,0-1.432-0.717-1.432-1.43v-7.159c0-0.718,0.716-1.432,1.432-1.432
							s1.431,0.714,1.431,1.432v7.159C40.462,80.307,39.747,81.024,39.031,81.024z"/>
					</g>
					<g>
						<path fill="#1D56BC" d="M43.682,81.024c-0.715,0-1.431-0.717-1.431-1.43v-7.159c0-0.718,0.716-1.432,1.431-1.432
							c0.716,0,1.432,0.714,1.432,1.432v7.159C45.114,80.307,44.398,81.024,43.682,81.024z"/>
					</g>
					<g>
						<path fill="#1D56BC" d="M48.694,81.024c-0.716,0-1.432-0.717-1.432-1.43v-7.159c0-0.718,0.715-1.432,1.432-1.432
							c0.715,0,1.431,0.714,1.431,1.432v7.159C50.125,80.307,49.409,81.024,48.694,81.024z"/>
					</g>
					<g>
						<path fill="#1D56BC" d="M53.346,81.024c-0.716,0-1.431-0.717-1.431-1.43v-7.159c0-0.718,0.715-1.432,1.431-1.432
							c0.716,0,1.432,0.714,1.432,1.432v7.159C54.777,80.307,54.062,81.024,53.346,81.024z"/>
					</g>
					<g>
						<path fill="#1D56BC" d="M88.42,73.866c-2.506,0-4.295-1.792-4.295-4.295c0-2.505,1.789-4.295,4.295-4.295
							c2.504,0,4.293,2.146,4.293,4.295C93.072,71.716,90.924,73.866,88.42,73.866z M88.42,67.782c-1.074,0-1.791,0.715-1.791,1.789
							c0,1.075,0.716,1.789,1.791,1.789c1.073,0,1.789-0.714,1.789-1.789C90.209,68.497,89.493,67.782,88.42,67.782z"/>
					</g>
					<g>
						<path fill="#1D56BC" d="M78.398,73.866c-2.504,0-4.295-1.792-4.295-4.295c0-2.505,1.791-4.295,4.295-4.295
							c2.506,0,4.295,2.146,4.295,4.295C82.693,71.716,80.904,73.866,78.398,73.866z M78.398,67.782
							c-1.073,0-1.789,0.715-1.789,1.789c0,1.075,0.716,1.789,1.789,1.789c1.074,0,1.789-0.714,1.789-1.789
							C80.187,68.497,79.473,67.782,78.398,67.782z"/>
					</g>
					<g>
						<path fill="#1D56BC" d="M234.081,183.021h-56.189c-0.714,0-1.432-0.715-1.432-1.432v-20.397c0-0.718,0.718-1.432,1.432-1.432
							h56.189c0.714,0,1.432,0.713,1.432,1.432v20.397C235.513,182.306,234.795,183.021,234.081,183.021z M179.323,180.157h53.33
							v-17.894h-53.33V180.157z"/>
					</g>
					<g>
						<path fill="#1D56BC" d="M234.081,168.347h-39.366c-0.718,0-1.435-0.714-1.435-1.428c0-0.717,0.717-1.432,1.435-1.432h39.366
							c0.714,0,1.432,0.714,1.432,1.432C235.513,167.632,234.795,168.347,234.081,168.347z"/>
					</g>
					<g>
						<path fill="#1D56BC" d="M223.345,183.021c-0.717,0-1.432-0.715-1.432-1.432v-7.155c0-0.718,0.715-1.432,1.432-1.432
							c0.718,0,1.432,0.714,1.432,1.432v7.155C224.777,182.306,224.063,183.021,223.345,183.021z"/>
					</g>
					<g>
						<path fill="#1D56BC" d="M218.335,183.021c-0.717,0-1.435-0.715-1.435-1.432v-7.155c0-0.718,0.717-1.432,1.435-1.432
							c0.715,0,1.429,0.714,1.429,1.432v7.155C219.764,182.306,219.051,183.021,218.335,183.021z"/>
					</g>
					<g>
						<path fill="#1D56BC" d="M213.683,183.021c-0.717,0-1.435-0.715-1.435-1.432v-7.155c0-0.718,0.718-1.432,1.435-1.432
							c0.715,0,1.429,0.714,1.429,1.432v7.155C215.112,182.306,214.398,183.021,213.683,183.021z"/>
					</g>
					<g>
						<path fill="#1D56BC" d="M208.671,183.021c-0.714,0-1.432-0.715-1.432-1.432v-7.155c0-0.718,0.718-1.432,1.432-1.432
							c0.715,0,1.432,0.714,1.432,1.432v7.155C210.103,182.306,209.386,183.021,208.671,183.021z"/>
					</g>
					<g>
						<path fill="#1D56BC" d="M234.081,162.623h-56.189c-0.714,0-1.432-0.717-1.432-1.431v-20.401c0-0.717,0.718-1.432,1.432-1.432
							h56.189c0.714,0,1.432,0.715,1.432,1.432v20.401C235.513,161.906,234.795,162.623,234.081,162.623z M179.323,159.761h53.33
							v-17.895h-53.33V159.761z"/>
					</g>
					<g>
						<path fill="#1D56BC" d="M234.081,147.949h-39.366c-0.718,0-1.435-0.717-1.435-1.431c0-0.718,0.717-1.433,1.435-1.433h39.366
							c0.714,0,1.432,0.715,1.432,1.433C235.513,147.232,234.795,147.949,234.081,147.949z"/>
					</g>
					<g>
						<path fill="#1D56BC" d="M223.345,162.623c-0.717,0-1.432-0.717-1.432-1.431v-7.159c0-0.717,0.715-1.432,1.432-1.432
							c0.718,0,1.432,0.715,1.432,1.432v7.159C224.777,161.906,224.063,162.623,223.345,162.623z"/>
					</g>
					<g>
						<path fill="#1D56BC" d="M218.335,162.623c-0.717,0-1.435-0.717-1.435-1.431v-7.159c0-0.717,0.717-1.432,1.435-1.432
							c0.715,0,1.429,0.715,1.429,1.432v7.159C219.764,161.906,219.051,162.623,218.335,162.623z"/>
					</g>
					<g>
						<path fill="#1D56BC" d="M213.683,162.623c-0.717,0-1.435-0.717-1.435-1.431v-7.159c0-0.717,0.718-1.432,1.435-1.432
							c0.715,0,1.429,0.715,1.429,1.432v7.159C215.112,161.906,214.398,162.623,213.683,162.623z"/>
					</g>
					<g>
						<path fill="#1D56BC" d="M208.671,162.623c-0.714,0-1.432-0.717-1.432-1.431v-7.159c0-0.717,0.718-1.432,1.432-1.432
							c0.715,0,1.432,0.715,1.432,1.432v7.159C210.103,161.906,209.386,162.623,208.671,162.623z"/>
					</g>
					<g>
						<path fill="#1D56BC" d="M234.081,142.223h-56.189c-0.714,0-1.432-0.716-1.432-1.432v-20.4c0-0.714,0.718-1.432,1.432-1.432
							h56.189c0.714,0,1.432,0.717,1.432,1.432v20.4C235.513,141.506,234.795,142.223,234.081,142.223z M179.323,139.359h53.33
							v-17.895h-53.33V139.359z"/>
					</g>
					<g>
						<path fill="#1D56BC" d="M234.081,127.549h-39.366c-0.718,0-1.435-0.717-1.435-1.432c0-0.714,0.717-1.432,1.435-1.432h39.366
							c0.714,0,1.432,0.717,1.432,1.432C235.513,126.832,234.795,127.549,234.081,127.549z"/>
					</g>
					<g>
						<path fill="#1D56BC" d="M223.345,142.223c-0.717,0-1.432-0.716-1.432-1.432v-7.158c0-0.715,0.715-1.432,1.432-1.432
							c0.718,0,1.432,0.717,1.432,1.432v7.158C224.777,141.506,224.063,142.223,223.345,142.223z"/>
					</g>
					<g>
						<path fill="#1D56BC" d="M218.335,142.223c-0.717,0-1.435-0.716-1.435-1.432v-7.158c0-0.715,0.717-1.432,1.435-1.432
							c0.715,0,1.429,0.717,1.429,1.432v7.158C219.764,141.506,219.051,142.223,218.335,142.223z"/>
					</g>
					<g>
						<path fill="#1D56BC" d="M213.683,142.223c-0.717,0-1.435-0.716-1.435-1.432v-7.158c0-0.715,0.718-1.432,1.435-1.432
							c0.715,0,1.429,0.717,1.429,1.432v7.158C215.112,141.506,214.398,142.223,213.683,142.223z"/>
					</g>
					<g>
						<path fill="#1D56BC" d="M208.671,142.223c-0.714,0-1.432-0.716-1.432-1.432v-7.158c0-0.715,0.718-1.432,1.432-1.432
							c0.715,0,1.432,0.717,1.432,1.432v7.158C210.103,141.506,209.386,142.223,208.671,142.223z"/>
					</g>
					<g>
						<path fill="#1D56BC" d="M234.081,121.822h-56.189c-0.714,0-1.432-0.714-1.432-1.431V99.99c0-0.713,0.718-1.432,1.432-1.432
							h56.189c0.714,0,1.432,0.718,1.432,1.432v20.401C235.513,121.108,234.795,121.822,234.081,121.822z M179.323,118.959h53.33
							v-17.896h-53.33V118.959z"/>
					</g>
					<g>
						<path fill="#1D56BC" d="M234.081,101.422h-56.189c-0.714,0-1.432-0.714-1.432-1.432v-4.652h-35.074
							c-0.715,0-1.428-0.715-1.428-1.432V79.232c0-0.714,0.713-1.432,1.428-1.432h92.339c0.716,0,1.431,0.717,1.431,1.432v20.4
							C235.513,100.708,234.795,101.422,234.081,101.422z M179.323,98.558h53.33V81.024h-89.475v11.812h35.07
							c0.718,0,1.435,0.713,1.435,1.432L179.323,98.558L179.323,98.558z"/>
					</g>
					<g>
						<path fill="#1D56BC" d="M159.28,94.268c-2.503,0-4.292-2.15-4.292-4.295c0-2.507,1.788-4.296,4.292-4.296
							c2.509,0,4.298,1.789,4.298,4.296C163.936,92.118,161.789,94.268,159.28,94.268z M159.28,88.18
							c-1.071,0-1.788,0.717-1.788,1.792c0,1.072,0.717,1.788,1.788,1.788c1.074,0,1.792-0.716,1.792-1.788
							C161.072,88.897,160.354,88.18,159.28,88.18z"/>
					</g>
					<g>
						<path fill="#1D56BC" d="M234.081,86.748h-39.366c-0.718,0-1.435-0.713-1.435-1.432c0-0.714,0.717-1.432,1.435-1.432h39.366
							c0.714,0,1.432,0.718,1.432,1.432C235.513,86.035,234.795,86.748,234.081,86.748z"/>
					</g>
					<g>
						<path fill="#1D56BC" d="M223.345,101.422c-0.717,0-1.432-0.714-1.432-1.432v-7.154c0-0.718,0.715-1.432,1.432-1.432
							c0.718,0,1.432,0.714,1.432,1.432v7.154C224.777,100.708,224.063,101.422,223.345,101.422z"/>
					</g>
					<g>
						<path fill="#1D56BC" d="M218.335,101.422c-0.717,0-1.435-0.714-1.435-1.432v-7.154c0-0.718,0.717-1.432,1.435-1.432
							c0.715,0,1.429,0.714,1.429,1.432v7.154C219.764,100.708,219.051,101.422,218.335,101.422z"/>
					</g>
					<g>
						<path fill="#1D56BC" d="M213.683,101.422c-0.717,0-1.435-0.714-1.435-1.432v-7.154c0-0.718,0.718-1.432,1.435-1.432
							c0.715,0,1.429,0.714,1.429,1.432v7.154C215.112,100.708,214.398,101.422,213.683,101.422z"/>
					</g>
					<g>
						<path fill="#1D56BC" d="M208.671,101.422c-0.714,0-1.432-0.714-1.432-1.432v-7.154c0-0.718,0.718-1.432,1.432-1.432
							c0.715,0,1.432,0.714,1.432,1.432v7.154C210.103,100.708,209.386,101.422,208.671,101.422z"/>
					</g>
					<g>
						<path fill="#1D56BC" d="M183.976,94.268c-2.503,0-4.292-2.15-4.292-4.295c0-2.507,2.147-4.296,4.292-4.296
							c2.505,0,4.299,1.789,4.299,4.296C188.274,92.118,186.125,94.268,183.976,94.268z M183.976,88.18
							c-1.075,0-1.789,0.717-1.789,1.792c0,1.072,0.714,1.788,1.789,1.788c1.075,0,1.789-0.716,1.789-1.788
							C185.411,88.897,184.693,88.18,183.976,88.18z"/>
					</g>
					<g>
						<path fill="#1D56BC" d="M234.081,81.024h-92.335c-0.713,0-1.432-0.717-1.432-1.43V59.192c0-0.718,0.718-1.432,1.432-1.432
							h92.335c0.714,0,1.432,0.713,1.432,1.432v20.401C235.513,80.307,234.795,81.024,234.081,81.024z M143.178,78.162h89.475
							V60.266h-89.475V78.162z"/>
					</g>
					<g>
						<path fill="#1D56BC" d="M149.262,73.866c-2.507,0-4.295-1.792-4.295-4.295c0-2.505,1.789-4.295,4.295-4.295
							c2.502,0,4.294,2.146,4.294,4.295C153.556,71.716,151.764,73.866,149.262,73.866z M149.262,67.782
							c-1.075,0-1.789,0.715-1.789,1.789c0,1.075,0.714,1.789,1.789,1.789c1.074,0,1.789-0.714,1.789-1.789
							C151.05,68.497,150.336,67.782,149.262,67.782z"/>
					</g>
					<g>
						<path fill="#1D56BC" d="M159.28,73.866c-2.503,0-4.292-1.792-4.292-4.295c0-2.505,1.788-4.295,4.292-4.295
							c2.509,0,4.298,2.146,4.298,4.295C163.936,71.716,161.789,73.866,159.28,73.866z M159.28,67.782
							c-1.071,0-1.788,0.715-1.788,1.789c0,1.075,0.717,1.789,1.788,1.789c1.074,0,1.792-0.714,1.792-1.789
							C161.072,68.497,160.354,67.782,159.28,67.782z"/>
					</g>
					<g>
						<path fill="#1D56BC" d="M234.081,66.35h-39.366c-0.718,0-1.435-0.716-1.435-1.431c0-0.718,0.717-1.432,1.435-1.432h39.366
							c0.714,0,1.432,0.713,1.432,1.432C235.513,65.634,234.795,66.35,234.081,66.35z"/>
					</g>
					<g>
						<path fill="#1D56BC" d="M223.345,81.024c-0.717,0-1.432-0.717-1.432-1.43v-7.159c0-0.718,0.715-1.432,1.432-1.432
							c0.718,0,1.432,0.714,1.432,1.432v7.159C224.777,80.307,224.063,81.024,223.345,81.024z"/>
					</g>
					<g>
						<path fill="#1D56BC" d="M218.335,81.024c-0.717,0-1.435-0.717-1.435-1.43v-7.159c0-0.718,0.717-1.432,1.435-1.432
							c0.715,0,1.429,0.714,1.429,1.432v7.159C219.764,80.307,219.051,81.024,218.335,81.024z"/>
					</g>
					<g>
						<path fill="#1D56BC" d="M213.683,81.024c-0.717,0-1.435-0.717-1.435-1.43v-7.159c0-0.718,0.718-1.432,1.435-1.432
							c0.715,0,1.429,0.714,1.429,1.432v7.159C215.112,80.307,214.398,81.024,213.683,81.024z"/>
					</g>
					<g>
						<path fill="#1D56BC" d="M208.671,81.024c-0.714,0-1.432-0.717-1.432-1.43v-7.159c0-0.718,0.718-1.432,1.432-1.432
							c0.715,0,1.432,0.714,1.432,1.432v7.159C210.103,80.307,209.386,81.024,208.671,81.024z"/>
					</g>
					<g>
						<path fill="#1D56BC" d="M173.597,73.866c-2.503,0-4.292-1.792-4.292-4.295c0-2.505,2.146-4.295,4.292-4.295
							c2.505,0,4.294,2.146,4.294,4.295C178.249,71.716,176.103,73.866,173.597,73.866z M173.597,67.782
							c-1.075,0-1.79,0.715-1.79,1.789c0,1.075,0.715,1.789,1.79,1.789c1.074,0,1.789-0.714,1.789-1.789
							C175.386,68.497,174.671,67.782,173.597,67.782z"/>
					</g>
					<g>
						<path fill="#1D56BC" d="M183.976,73.866c-2.503,0-4.292-1.792-4.292-4.295c0-2.505,2.147-4.295,4.292-4.295
							c2.505,0,4.299,2.146,4.299,4.295C188.274,71.716,186.125,73.866,183.976,73.866z M183.976,67.782
							c-1.075,0-1.789,0.715-1.789,1.789c0,1.075,0.714,1.789,1.789,1.789c1.075,0,1.789-0.714,1.789-1.789
							C185.411,68.497,184.693,67.782,183.976,67.782z"/>
					</g>
					<g>
						<path fill="#1D56BC" d="M177.892,187.315h-54.756c-0.716,0-1.432-0.714-1.432-1.431c0-0.715,0.715-1.432,1.432-1.432h54.756
							c0.718,0,1.432,0.717,1.432,1.432C179.323,186.601,178.609,187.315,177.892,187.315z"/>
					</g>
					<g>
						<path fill="#1D56BC" d="M162.504,224.897H69.451c-0.716,0-1.432-0.718-1.432-1.432c0-0.718,0.715-1.432,1.432-1.432h93.053
							c0.714,0,1.432,0.714,1.432,1.432C163.936,224.179,163.218,224.897,162.504,224.897z"/>
					</g>
					<g>
						<path fill="#1D56BC" d="M188.274,230.263h-64.422c-0.716,0-1.433-0.714-1.433-1.432c0-0.713,0.716-1.432,1.433-1.432h64.422
							c0.714,0,1.427,0.718,1.427,1.432C189.702,229.906,188.988,230.263,188.274,230.263z"/>
					</g>
					<g>
						<path fill="#1D56BC" d="M202.945,230.263h-7.873c-0.718,0-1.432-0.714-1.432-1.432c0-0.713,0.713-1.432,1.432-1.432h7.873
							c0.714,0,1.431,0.718,1.431,1.432C204.375,229.906,203.659,230.263,202.945,230.263z"/>
					</g>
					<g>
						<path fill="#1D56BC" d="M96.292,230.263h-30.42c-0.716,0-1.432-0.714-1.432-1.432c0-0.713,0.716-1.432,1.432-1.432h30.42
							c0.716,0,1.432,0.718,1.432,1.432C97.725,229.548,97.008,230.263,96.292,230.263z"/>
					</g>
				</g>
			</g>
		</g>
	</g>
	<g id="Layer_1_00000124146137514704144560000015392685708022034111_">
	</g>
</g>
<g>
</g>
<g>
</g>
<g>
</g>
<g>
</g>
<g>
</g>
<g>
</g>
<g>
</g>
<g>
</g>
<g>
</g>
<g>
</g>
<g>
</g>
<g>
</g>
<g>
</g>
<g>
</g>
<g>
</g>
</svg>
