<?xml version="1.0" encoding="UTF-8"?>
<svg id="Layer_1" xmlns="http://www.w3.org/2000/svg" version="1.1" xmlns:xlink="http://www.w3.org/1999/xlink" viewBox="0 0 100 100">
  <!-- Generator: Adobe Illustrator 29.3.1, SVG Export Plug-In . SVG Version: 2.1.0 Build 151)  -->
  <defs>
    <style>
      .st0 {
        fill: #1f4b74;
      }
    </style>
  </defs>
  <path class="st0" d="M48.2,66.6V29.3h-3.4v37.5c-2.2.9-5.1,3.7-5.1,7s3.3,7.3,7.3,7.3,7.2-3.3,7.2-7.3-2.7-6.5-6-7.1Z"/>
  <path class="st0" d="M67.2,30.4h-10.1v-10.4c0-5.6-4.5-10.1-10.1-10.1s-10.1,4.5-10.1,10.1v39.9c-4,3.2-6.4,8-6.4,13.2,0,9.3,7.5,16.8,16.8,16.8s16.8-7.5,16.8-16.8-2.6-10.5-7-13.6v-2.3h4.5c1.2,0,2.2-1,2.2-2.2s-1-2.2-2.2-2.2h-4.5v-6.7h7.8c1.2,0,2.2-1,2.2-2.2s-1-2.2-2.2-2.2h-7.8v-6.7h10.1c1.2,0,2.2-1,2.2-2.2s-1-2.2-2.2-2.2ZM59.7,73.2c0,6.8-5.5,12.3-12.3,12.3s-12.3-5.5-12.3-12.3,2-7.9,5.4-10.2l1-.7V20.1c0-3.1,2.5-5.6,5.6-5.6s5.6,2.5,5.6,5.6v42l1.1.7c3.7,2.3,5.9,6.2,5.9,10.5Z"/>
</svg>