<?xml version="1.0" encoding="UTF-8"?>
<svg id="Layer_3" xmlns="http://www.w3.org/2000/svg" version="1.1" xmlns:xlink="http://www.w3.org/1999/xlink" viewBox="0 0 100 100">
  <!-- Generator: Adobe Illustrator 29.3.1, SVG Export Plug-In . SVG Version: 2.1.0 Build 151)  -->
  <defs>
    <style>
      .st0 {
        fill: #1f4b74;
      }
    </style>
  </defs>
  <path class="st0" d="M54.9,24.4l18.7,1.5v-6.9l-18.3.5c-.9-2.6-3.3-4.5-6.3-4.5s-6.2,2.6-6.6,5.8c-.2,0-.3,0-.4,0-2.8,0-4.6,0-7.6,2.4-3,2.6-6.7,15-7.8,18.8-.3,1.1.3,2.2,1.4,2.5.2,0,.4,0,.6,0,.9,0,1.7-.6,2-1.5,2-7.1,5-15.6,6.5-16.8,1.8-1.5,2.4-1.5,4.9-1.5.4,0,.8-.3,1.3-.3.7,1.2,1.7,2.5,3,2.5h-.3c-5.6,0-10.9,4.7-10.9,10.3v35.4h27.4v-35.4c0-5.6-3.8-10.3-9.5-10.3h-1c1.3,0,2.3-1.3,2.9-2.6ZM49,19.1c1.5,0,2.6,1.2,2.6,2.6s-1.2,2.6-2.6,2.6-2.6-1.2-2.6-2.6,1.2-2.6,2.6-2.6ZM54.8,47.4s3.7,3.4,3.7,10.9-8.6,7.4-8.6,7.4c4.2-3.5,1.7-5.1.5-5.9s-1.6-3.5-1.6-3.5c-5,5.2-1.1,10.5-1.1,10.5-6.6-1.9-8.3-7.5-8.2-9.4s-.4-3.8,2.8-7.7,6.6-10.3,6.6-10.3c4.1,6.4,1.9,12.3,1.9,12.3,1.2-.5,4.1-4.3,4.1-4.3Z"/>
  <path class="st0" d="M34.9,82.1c0,1.7,2.1,2.9,3.8,2.9h21.3c1.7,0,2.3-1.2,2.3-2.9v-6.2h-27.4v6.2Z"/>
</svg>