<?xml version="1.0" encoding="utf-8"?>
<!-- Generator: Adobe Illustrator 16.0.0, SVG Export Plug-In . SVG Version: 6.00 Build 0)  -->
<!DOCTYPE svg PUBLIC "-//W3C//DTD SVG 1.1//EN" "http://www.w3.org/Graphics/SVG/1.1/DTD/svg11.dtd">
<svg version="1.1" id="Layer_3" xmlns="http://www.w3.org/2000/svg" xmlns:xlink="http://www.w3.org/1999/xlink" x="0px" y="0px"
	 width="264.755px" height="277.967px" viewBox="0 0 264.755 277.967" enable-background="new 0 0 264.755 277.967"
	 xml:space="preserve">
<g>
	<g>
		<g id="_x35_16_x2C__Connectivity_x2C__global_x2C__internet_x2C__network_x2C__web">
			<g>
				<g>
					<g>
						<g>
							<path fill="#1D56BC" d="M129.604,202.411c-35.309,0-64.205-28.894-64.205-64.206C65.399,102.894,94.294,74,129.604,74
								c35.314,0,64.208,28.893,64.208,64.205C193.811,173.875,164.918,202.411,129.604,202.411z M129.604,76.855
								c-33.885,0-61.352,27.465-61.352,61.351c0,33.885,27.466,61.353,61.352,61.353c33.887,0,61.354-27.468,61.354-61.353
								C191.312,104.32,163.49,76.855,129.604,76.855z"/>
						</g>
						<g>
							<path fill="#1D56BC" d="M192.38,139.633H66.829c-0.715,0-1.43-0.714-1.43-1.428c0-0.714,0.714-1.425,1.43-1.425H192.38
								c0.714,0,1.431,0.711,1.431,1.425C193.811,139.276,193.453,139.633,192.38,139.633z"/>
						</g>
						<g>
							<path fill="#1D56BC" d="M129.604,202.411c-0.711,0-1.425-0.714-1.425-1.426V75.427c0-0.712,0.714-1.426,1.425-1.426
								c0.712,0,1.428,0.714,1.428,1.426v125.558C131.032,202.052,130.315,202.411,129.604,202.411z"/>
						</g>
						<g>
							<path fill="#1D56BC" d="M129.963,110.741c-17.123,0-33.887-2.854-51.008-8.56c-0.712-0.357-1.071-1.07-0.712-1.785
								c0.352-0.712,1.068-1.069,1.783-0.712c33.171,11.416,66.701,11.416,99.872,0c0.714-0.357,1.426,0,1.787,0.712
								c0.352,0.715,0,1.428-0.715,1.785C163.49,107.531,146.727,110.741,129.963,110.741z"/>
						</g>
						<g>
							<path fill="#1D56BC" d="M179.897,177.088h-0.356c-32.815-11.417-66.344-11.417-99.874,0c-0.712,0.354-1.424,0-1.783-0.715
								c-0.356-0.714,0-1.429,0.711-1.784c33.887-11.414,68.131-11.414,101.302,0c0.714,0.355,1.072,1.069,0.714,1.784
								C180.969,176.728,180.612,177.088,179.897,177.088z"/>
						</g>
						<g>
							<path fill="#1D56BC" d="M129.604,202.411c-9.272,0-17.834-6.778-23.897-19.262c-6.063-12.128-9.63-28.18-9.63-44.944
								c0-17.121,3.567-33.172,9.63-44.943C112.129,80.778,120.688,74,129.604,74c9.274,0,17.835,6.778,23.902,19.262
								c6.42,12.128,9.985,28.178,9.985,44.943c0,17.122-3.565,33.175-9.632,44.944
								C147.439,195.633,138.877,202.411,129.604,202.411z M129.604,76.855c-8.201,0-15.691,6.42-21.759,17.834
								c-6.06,11.77-9.272,27.109-9.272,43.875c0,16.406,3.213,32.1,9.272,43.871c5.708,11.417,13.559,17.836,21.759,17.836
								c8.203,0,15.696-6.419,21.76-17.836c6.064-11.771,9.272-27.107,9.272-43.871c0-16.409-3.208-32.105-9.272-43.875
								C145.656,83.275,137.807,76.855,129.604,76.855z"/>
						</g>
						<g>
							<path fill="#1D56BC" d="M191.312,94.333c-0.714,0-1.426-0.713-1.426-1.427c0-17.121-13.909-31.032-31.032-31.032
								c-0.712,0-1.427-0.714-1.427-1.427c0-0.715,0.714-1.426,1.427-1.426c18.544,0,33.526,14.979,33.526,33.526
								C192.74,93.62,192.028,94.333,191.312,94.333z"/>
						</g>
						<g>
							<path fill="#1D56BC" d="M202.372,94.333c-0.715,0-1.431-0.713-1.431-1.427c0-23.184-18.901-42.089-42.087-42.089
								c-0.712,0-1.427-0.713-1.427-1.427c0-0.714,0.714-1.427,1.427-1.427c24.613,0,44.585,19.974,44.585,44.584
								C203.796,93.62,203.083,94.333,202.372,94.333z"/>
						</g>
						<g>
							<path fill="#1D56BC" d="M158.854,75.786c-0.356,0-0.712,0-1.071-0.359l-18.906-18.19c0-0.357-0.356-0.712-0.356-1.07
								c0-0.356,0-0.713,0.356-1.068l18.906-18.192c0.358-0.357,1.071-0.357,1.427-0.357c0.355,0.357,0.715,0.714,0.715,1.07v36.74
								c0,0.713-0.36,1.068-0.715,1.068C159.21,75.786,159.21,75.786,158.854,75.786z M142.09,56.167l15.693,15.338V41.186
								L142.09,56.167z"/>
						</g>
						<g>
							<path fill="#1D56BC" d="M103.209,216.676c-18.546,0-33.526-14.979-33.526-33.527c0-0.715,0.712-1.424,1.424-1.424
								c0.713,0,1.429,0.709,1.429,1.424c0,17.121,13.91,31.033,31.031,31.033c0.712,0,1.424,0.712,1.424,1.427
								C104.64,215.964,103.923,216.676,103.209,216.676z"/>
						</g>
						<g>
							<path fill="#1D56BC" d="M103.209,227.735c-24.614,0-44.585-19.975-44.585-44.586c0-0.715,0.715-1.424,1.426-1.424
								c0.712,0,1.428,0.709,1.428,1.424c0,23.185,18.906,42.09,42.09,42.09c0.712,0,1.424,0.714,1.424,1.426
								C104.64,227.023,103.923,227.735,103.209,227.735z"/>
						</g>
						<g>
							<path fill="#1D56BC" d="M103.567,239.506h-0.358c-0.357-0.354-0.712-0.714-0.712-1.069v-37.095
								c0-0.717,0.355-1.071,0.712-1.071c0.358-0.357,1.071,0,1.431,0.354l18.901,18.195c0.355,0.355,0.355,0.712,0.355,1.067
								c0,0.36,0,0.715-0.355,1.069l-18.901,18.195C104.28,239.151,103.923,239.506,103.567,239.506z M104.64,204.55v30.322
								l15.692-15.34L104.64,204.55z"/>
						</g>
						<g>
							<path fill="#1D56BC" d="M85.734,94.333c-0.716,0-1.431-0.713-1.431-1.427v-36.74c0-0.713,0.715-1.427,1.431-1.427h54.574
								c0.712,0,1.423,0.714,1.423,1.427s-0.71,1.428-1.423,1.428H86.801v35.668C86.801,93.62,86.446,94.333,85.734,94.333z"/>
						</g>
						<g>
							<path fill="#1D56BC" d="M177.048,220.956h-54.574c-0.716,0-1.43-0.709-1.43-1.424c0-0.712,0.714-1.426,1.43-1.426h53.144
								v-38.524c0-0.712,0.714-1.427,1.431-1.427l0,0c0.712,0,1.423,0.715,1.423,1.427v39.95c0,0.355,0,0.715-0.356,1.07
								C177.76,220.956,177.398,220.956,177.048,220.956z"/>
						</g>
						<g>
							<path fill="#1D56BC" d="M57.557,127.862C57.557,127.862,57.195,127.862,57.557,127.862c-1.072,0-1.432-0.715-1.432-1.427
								c2.854-22.472,14.27-29.962,14.628-30.319c0.712-0.355,1.424-0.355,1.783,0.357c0.352,0.714,0.352,1.427-0.359,1.784
								c0,0-10.7,7.49-13.554,28.536C58.624,127.147,58.267,127.862,57.557,127.862z"/>
						</g>
						<g>
							<path fill="#1D56BC" d="M165.273,244.499H64.331c-0.715,0-1.427-0.71-1.427-1.424c0-0.712,0.712-1.429,1.427-1.429h100.942
								c0.716,0,1.43,0.716,1.43,1.429C166.703,243.789,165.989,244.499,165.273,244.499z"/>
						</g>
						<g>
							<path fill="#1D56BC" d="M193.095,238.082h-69.554c-0.714,0-1.427-0.717-1.427-1.429c0-0.715,0.712-1.427,1.427-1.427h69.912
								c0.713,0,1.429,0.712,1.429,1.427C194.523,237.725,193.811,238.082,193.095,238.082z"/>
						</g>
						<g>
							<path fill="#1D56BC" d="M209.146,238.082h-8.558c-0.714,0-1.43-0.717-1.43-1.429c0-0.715,0.712-1.427,1.43-1.427h8.558
								c0.716,0,1.428,0.712,1.428,1.427C210.574,237.725,209.862,238.082,209.146,238.082z"/>
						</g>
						<g>
							<path fill="#1D56BC" d="M93.223,238.437H60.049c-0.711,0-1.426-0.712-1.426-1.426c0-0.712,0.715-1.427,1.426-1.427h33.174
								c0.712,0,1.424,0.714,1.424,1.427C94.647,237.725,94.294,238.437,93.223,238.437z"/>
						</g>
					</g>
				</g>
			</g>
		</g>
		<g id="Layer_1_00000013897637073877909060000000562245905797658519_">
		</g>
	</g>
</g>
<g>
</g>
<g>
</g>
<g>
</g>
<g>
</g>
<g>
</g>
<g>
</g>
<g>
</g>
<g>
</g>
<g>
</g>
<g>
</g>
<g>
</g>
<g>
</g>
<g>
</g>
<g>
</g>
<g>
</g>
</svg>
