<?xml version="1.0" encoding="utf-8"?>
<!-- Generator: Adobe Illustrator 16.0.0, SVG Export Plug-In . SVG Version: 6.00 Build 0)  -->
<!DOCTYPE svg PUBLIC "-//W3C//DTD SVG 1.1//EN" "http://www.w3.org/Graphics/SVG/1.1/DTD/svg11.dtd">
<svg version="1.1" id="Layer_1" xmlns="http://www.w3.org/2000/svg" xmlns:xlink="http://www.w3.org/1999/xlink" x="0px" y="0px"
	 width="250px" height="215px" viewBox="0 0 250 215" enable-background="new 0 0 250 215" xml:space="preserve">
<g>
	<g>
		<g>
			<path fill="#1D56BC" d="M148.607,177.268H66.862c-0.629,0-1.258-0.631-1.258-1.258c0-0.631,0.629-1.258,1.258-1.258h81.745
				c0.627,0,1.258,0.627,1.258,1.258C149.865,176.637,149.234,177.268,148.607,177.268z"/>
		</g>
		<g>
			<path fill="#1D56BC" d="M171.246,181.981h-56.594c-0.629,0-1.258-0.628-1.258-1.258c0-0.627,0.629-1.258,1.258-1.258h56.594
				c0.627,0,1.254,0.631,1.254,1.258C172.5,181.668,171.873,181.981,171.246,181.981z"/>
		</g>
		<g>
			<path fill="#1D56BC" d="M184.134,181.981h-6.916c-0.631,0-1.258-0.628-1.258-1.258c0-0.627,0.627-1.258,1.258-1.258h6.916
				c0.627,0,1.257,0.631,1.257,1.258C185.391,181.668,184.761,181.981,184.134,181.981z"/>
		</g>
		<g>
			<path fill="#1D56BC" d="M90.442,181.981H63.719c-0.629,0-1.258-0.628-1.258-1.258c0-0.627,0.629-1.258,1.258-1.258h26.724
				c0.629,0,1.258,0.631,1.258,1.258C91.7,181.354,91.071,181.981,90.442,181.981z"/>
		</g>
	</g>
</g>
<g id="Layer_1_00000124146137514704144560000015392685708022034111_">
</g>
<g>
	<path fill="#1D56BC" d="M115.289,131.44c0,4.812,3.915,8.728,8.727,8.728s8.727-3.916,8.727-8.728c0-4.256-3.063-7.805-7.1-8.57
		V85.705c3.559-0.752,6.238-3.915,6.238-7.694c0-4.337-3.528-7.865-7.865-7.865s-7.865,3.528-7.865,7.865
		c0,3.779,2.68,6.942,6.238,7.694v37.166C118.353,123.636,115.289,127.185,115.289,131.44z M119.405,78.011
		c0-2.546,2.064-4.61,4.61-4.61s4.61,2.064,4.61,4.61s-2.064,4.611-4.61,4.611S119.405,80.557,119.405,78.011z M124.016,125.967
		c3.022,0,5.472,2.45,5.472,5.474s-2.449,5.473-5.472,5.473s-5.472-2.449-5.472-5.473S120.993,125.967,124.016,125.967z"/>
	<path fill="#1D56BC" d="M111.269,102.827V88.182c0-0.899-0.729-1.627-1.627-1.627c-0.899,0-1.628,0.729-1.628,1.627v14.008
		l-10.614,11.448c-1.463-1.108-3.279-1.773-5.252-1.773c-4.812,0-8.727,3.915-8.727,8.728c0,4.812,3.915,8.728,8.727,8.728
		c4.813,0,8.727-3.916,8.727-8.728c0-1.66-0.475-3.208-1.282-4.531l11.243-12.127C111.113,103.632,111.269,103.238,111.269,102.827z
		 M92.147,126.064c-3.021,0-5.472-2.449-5.472-5.473s2.45-5.474,5.472-5.474c3.022,0,5.473,2.45,5.473,5.474
		S95.17,126.064,92.147,126.064z"/>
	<path fill="#1D56BC" d="M138.255,85.333c-0.899,0-1.628,0.729-1.628,1.627v14.646c0,0.411,0.155,0.805,0.434,1.106l11.683,12.601
		c-1.159,1.482-1.857,3.342-1.857,5.365c0,4.812,3.914,8.728,8.727,8.728c4.812,0,8.727-3.916,8.727-8.728
		c0-4.813-3.915-8.728-8.727-8.728c-1.614,0-3.123,0.449-4.421,1.216l-11.31-12.198V86.961
		C139.882,86.062,139.153,85.333,138.255,85.333z M155.612,115.205c3.021,0,5.472,2.45,5.472,5.474s-2.45,5.473-5.472,5.473
		c-3.022,0-5.472-2.449-5.472-5.473S152.59,115.205,155.612,115.205z"/>
	<path fill="#1D56BC" d="M89.622,46.958c0.441,0,0.883-0.179,1.204-0.532c8.494-9.334,20.601-14.688,33.213-14.688
		c12.512,0,24.13,5.031,32.714,14.166c0.615,0.653,1.646,0.687,2.301,0.071c0.654-0.615,0.686-1.645,0.071-2.3
		c-9.207-9.796-21.667-15.191-35.086-15.191c-13.527,0-26.511,5.742-35.62,15.752c-0.605,0.665-0.557,1.694,0.107,2.299
		C88.839,46.818,89.23,46.958,89.622,46.958z"/>
	<path fill="#1D56BC" d="M147.58,55.785c0.597,0.672,1.625,0.733,2.298,0.138c0.672-0.596,0.733-1.625,0.138-2.297
		c-6.59-7.435-16.058-11.7-25.977-11.7c-10.156,0-19.773,4.438-26.387,12.174c-0.584,0.683-0.504,1.71,0.18,2.294
		c0.307,0.262,0.682,0.391,1.057,0.391c0.459,0,0.916-0.193,1.237-0.57c5.994-7.012,14.71-11.034,23.913-11.034
		C133.027,45.18,141.607,49.045,147.58,55.785z"/>
	<path fill="#1D56BC" d="M139.627,67.015c0.72-0.539,0.866-1.559,0.327-2.278c-3.803-5.081-9.604-7.994-15.915-7.994
		c-6.407,0-12.462,3.129-16.195,8.37c-0.521,0.732-0.351,1.748,0.381,2.27c0.286,0.204,0.616,0.302,0.942,0.302
		c0.509,0,1.01-0.237,1.327-0.683c3.125-4.385,8.188-7.004,13.545-7.004c5.275,0,10.127,2.438,13.311,6.69
		C137.888,67.406,138.907,67.553,139.627,67.015z"/>
	<path fill="#1D56BC" d="M192.841,102.421c0-4.25-4.168-6.472-6.402-6.472h-9.458c-0.899,0-1.627,0.729-1.627,1.627
		s0.728,1.627,1.627,1.627h9.458c0.646,0,3.147,0.998,3.147,3.218c0,2.424-1.742,5.385-3.775,5.385h-12.115
		c-4.212-4.193-8.247-8.692-10.159-14.695c-5.178-16.251-24.924-16.725-25.122-16.728c-0.009,0-0.017,0-0.024,0
		c-0.887,0-1.611,0.712-1.626,1.602c-0.014,0.898,0.703,1.637,1.601,1.653c0.176,0.002,17.61,0.459,22.071,14.462
		c2.455,7.706,8.031,13.158,12.951,17.968c5.233,5.117,9.754,9.537,9.754,15.439c0,1.127,0.014,2.249,0.027,3.359
		c0.085,6.799,0.165,13.221-3.21,16.639c-2.03,2.056-5.292,3.055-9.972,3.055h-44.072h-4.204H77.638c-4.68,0-7.94-0.999-9.972-3.055
		c-3.374-3.418-3.294-9.84-3.21-16.639c0.014-1.11,0.028-2.232,0.028-3.359c0-5.902,4.52-10.322,9.754-15.439
		c4.919-4.811,10.496-10.263,12.951-17.968c4.461-14.002,21.896-14.459,22.07-14.462c0.897-0.016,1.614-0.755,1.601-1.653
		c-0.014-0.898-0.735-1.653-1.649-1.602c-0.199,0.003-19.945,0.476-25.123,16.728c-1.912,6.003-5.947,10.502-10.158,14.695H62.04
		c-2.034,0-3.776-2.961-3.776-5.385c0-2.22,2.503-3.218,3.148-3.218h9.458c0.899,0,1.627-0.728,1.627-1.627
		s-0.728-1.627-1.627-1.627h-9.458c-2.234,0-6.402,2.223-6.402,6.472c0,4.086,2.887,8.639,7.03,8.639h8.579
		c-4.992,4.926-9.39,9.771-9.39,16.447c0,1.113-0.014,2.223-0.027,3.319c-0.094,7.498-0.182,14.581,4.148,18.966
		c1.534,1.553,3.528,2.634,5.992,3.284c-0.165,0.39-0.256,0.818-0.256,1.268v11.509c0,1.798,1.457,3.255,3.255,3.255h13.427
		c1.797,0,3.254-1.457,3.254-3.255v-11.509c0-0.181-0.024-0.355-0.053-0.529h30.74h4.204h31.201
		c-0.028,0.174-0.053,0.349-0.053,0.529v11.509c0,1.798,1.457,3.255,3.254,3.255h13.427c1.798,0,3.255-1.457,3.255-3.255v-11.509
		c0-0.494-0.119-0.957-0.315-1.377c2.278-0.662,4.141-1.707,5.591-3.175c4.331-4.385,4.242-11.468,4.149-18.966
		c-0.014-1.097-0.027-2.206-0.027-3.319c0-6.677-4.397-11.521-9.391-16.447h8.806C189.954,111.061,192.841,106.507,192.841,102.421z
		 M87.769,165.854H74.342v-11.509h13.427V165.854z M173.743,165.854h-13.427v-11.509h13.427V165.854z"/>
</g>
</svg>
