<?xml version="1.0" encoding="utf-8"?>
<!-- Generator: Adobe Illustrator 16.0.0, SVG Export Plug-In . SVG Version: 6.00 Build 0)  -->
<!DOCTYPE svg PUBLIC "-//W3C//DTD SVG 1.1//EN" "http://www.w3.org/Graphics/SVG/1.1/DTD/svg11.dtd">
<svg version="1.1" id="Layer_2" xmlns="http://www.w3.org/2000/svg" xmlns:xlink="http://www.w3.org/1999/xlink" x="0px" y="0px"
	 width="262.85px" height="250.232px" viewBox="0 0 262.85 250.232" enable-background="new 0 0 262.85 250.232"
	 xml:space="preserve">
<g>
	<path fill="#1D56BC" d="M113.585,196.367H72.109c-12.575,0-20.387-7.811-20.387-20.385V39.599c0-13.497,6.844-20.339,20.344-20.339
		h109.068c12.584,0,19.235,6.652,19.235,19.237v57.507c0,4.511-3.667,8.18-8.173,8.18c-4.508,0-8.176-3.669-8.176-8.18V38.497
		c0-1.414-0.136-2.271-0.25-2.738c-0.48-0.073-1.301-0.147-2.636-0.147H72.066c-1.732,0-3.367,0-3.663,0.286
		c-0.326,0.313-0.326,2.352-0.326,3.701v136.383c0,3.622,0.415,4.038,4.032,4.038h41.476c4.508,0,8.176,3.666,8.176,8.172
		C121.761,192.7,118.093,196.367,113.585,196.367z M72.066,22c-12.01,0-17.604,5.592-17.604,17.599v136.383
		c0,11.213,6.433,17.644,17.646,17.644h41.476c2.997,0,5.436-2.438,5.436-5.434c0-2.996-2.438-5.432-5.436-5.432H72.109
		c-5.126,0-6.772-1.647-6.772-6.778V39.599c0-6.271,0.931-6.728,6.729-6.728h109.068c1.737,0,3.033,0.115,3.858,0.342h0.31
		l0.385,0.331c0.673,0.578,1.075,2.43,1.075,4.952v57.507c0,2.999,2.438,5.439,5.435,5.439c2.996,0,5.433-2.441,5.433-5.439V38.497
		c0-11.1-5.396-16.497-16.495-16.497H72.066z"/>
	<path fill="#1D56BC" d="M152.04,74.917H94.869c-4.51,0-8.179-3.669-8.179-8.18c0-4.507,3.668-8.173,8.179-8.173h57.171
		c4.509,0,8.176,3.667,8.176,8.173C160.216,71.248,156.549,74.917,152.04,74.917z M94.869,61.305c-2.999,0-5.438,2.436-5.438,5.432
		c0,2.999,2.439,5.439,5.438,5.439h57.171c2.997,0,5.436-2.44,5.436-5.439c0-2.996-2.438-5.432-5.436-5.432H94.869z"/>
	<path fill="#1D56BC" d="M129.579,106.903H94.869c-4.51,0-8.179-3.664-8.179-8.168c0-4.513,3.668-8.186,8.179-8.186h34.709
		c4.509,0,8.178,3.673,8.178,8.186C137.756,103.24,134.087,106.903,129.579,106.903z M94.869,93.29
		c-2.999,0-5.438,2.443-5.438,5.446c0,2.992,2.439,5.428,5.438,5.428h34.709c2.999,0,5.437-2.436,5.437-5.428
		c0-3.002-2.438-5.446-5.437-5.446H94.869z"/>
	<path fill="#1D56BC" d="M159.236,214.232c-3.31,0-6.797-5.297-8.241-7.765l-20.598-0.956l10.673-30.317
		c-6.544-7.411-10.139-16.887-10.139-26.78c0-22.332,18.171-40.499,40.505-40.499c22.336,0,40.507,18.167,40.507,40.499
		c0,11.136-4.63,21.818-12.738,29.46l11.14,27.754l-16.878-0.246c-2.3,2.456-8.168,8.384-11.253,8.384
		c-2.89,0-5.168-5.554-8.576-14.7c-0.824-2.212-1.602-4.301-2.2-5.614c-0.592-1.302-1.025-1.751-1.206-1.896
		c-0.237,0.223-0.745,0.95-1.221,2.617c-0.914,3.198-6.17,16.782-6.394,17.359C161.659,213.772,160.251,214.232,159.236,214.232z
		 M134.205,202.945l18.433,0.854l0.371,0.667c1.888,3.393,4.84,7.026,6.228,7.026c0.364,0,0.686-0.624,0.845-0.996
		c0.035-0.094,5.416-13.998,6.296-17.076c0.881-3.089,2.174-4.655,3.842-4.655c1.879,0,3.02,2.027,3.713,3.552
		c0.638,1.401,1.396,3.435,2.273,5.792c1.488,3.995,4.584,12.306,6.121,12.933c1.291-0.016,6.012-4.126,9.54-7.966l0.415-0.453
		l13.985,0.206l-10.314-25.702l0.712-0.641c7.968-7.16,12.538-17.392,12.538-28.073c0-20.819-16.942-37.759-37.767-37.759
		c-20.823,0-37.764,16.939-37.764,37.759c0,9.48,3.541,18.549,9.969,25.54l0.558,0.606L134.205,202.945z M171.436,175.313
		c-14.828,0-26.893-12.067-26.893-26.899c0-14.828,12.064-26.893,26.893-26.893s26.892,12.065,26.892,26.893
		C198.328,163.246,186.264,175.313,171.436,175.313z M171.436,124.261c-13.317,0-24.153,10.835-24.153,24.153
		c0,13.321,10.835,24.159,24.153,24.159c13.318,0,24.152-10.838,24.152-24.159C195.587,135.096,184.753,124.261,171.436,124.261z"/>
</g>
<g>
	<g>
		<g id="_x33_75_x2C__secure_x2C__protection_x2C__safe_x2C__system_x2C__data">
			<g>
				<g>
					<g>
						<g>
							<path fill="#1D56BC" d="M168.501,224.814H31.135c-0.781,0-1.56-0.771-1.56-1.541c0-0.766,0.778-1.537,1.56-1.537h137.366
								c0.777,0,1.555,0.771,1.555,1.537C170.056,224.042,169.279,224.814,168.501,224.814z"/>
						</g>
						<g>
							<path fill="#1D56BC" d="M206.636,232.891h-94.95c-0.777,0-1.555-0.768-1.555-1.537c0-0.771,0.777-1.541,1.555-1.541h94.95
								c0.777,0,1.555,0.77,1.555,1.541C208.191,232.506,207.414,232.891,206.636,232.891z"/>
						</g>
						<g>
							<path fill="#1D56BC" d="M228.04,232.891h-11.671c-0.777,0-1.559-0.768-1.559-1.537c0-0.771,0.781-1.541,1.559-1.541h11.671
								c0.781,0,1.559,0.77,1.559,1.541C229.598,232.506,229.206,232.891,228.04,232.891z"/>
						</g>
						<g>
							<path fill="#1D56BC" d="M70.825,232.891H25.684c-0.777,0-1.555-0.768-1.555-1.537c0-0.771,0.778-1.541,1.555-1.541h45.141
								c0.781,0,1.56,0.77,1.56,1.541C72.384,232.124,71.606,232.891,70.825,232.891z"/>
						</g>
					</g>
				</g>
			</g>
		</g>
		<g id="Layer_1_00000138535634840465645110000012753708858995341961_">
		</g>
	</g>
</g>
</svg>
