<?xml version="1.0" encoding="utf-8"?>
<!-- Generator: Adobe Illustrator 16.0.0, SVG Export Plug-In . SVG Version: 6.00 Build 0)  -->
<!DOCTYPE svg PUBLIC "-//W3C//DTD SVG 1.1//EN" "http://www.w3.org/Graphics/SVG/1.1/DTD/svg11.dtd">
<svg version="1.1" id="Layer_1" xmlns="http://www.w3.org/2000/svg" xmlns:xlink="http://www.w3.org/1999/xlink" x="0px" y="0px"
	 width="264.754px" height="277.967px" viewBox="0 0 264.754 277.967" enable-background="new 0 0 264.754 277.967"
	 xml:space="preserve">
<path fill="#1D56BC" d="M243.813,136.65h-13.825l9.854-9.854c0.916-0.917,0.915-2.408-0.001-3.324s-2.407-0.916-3.323,0
	L223.34,136.65h-16.787l13.894-13.894c0.443-0.443,0.688-1.034,0.688-1.662c0-0.628-0.244-1.219-0.688-1.662
	c-0.916-0.916-2.406-0.917-3.323,0l-17.217,17.217h-21.762l18.869-18.869c0.916-0.917,0.915-2.407,0-3.323
	c-0.282-0.282-0.617-0.481-0.997-0.593l-1.34-0.395l-23.18,23.179H153.93l-5.828-10.095l13.586-13.586h32.78l0.67-1.228
	c0.189-0.347,0.284-0.725,0.284-1.123c0-1.296-1.054-2.351-2.35-2.351h-26.684l15.388-15.388h24.348c1.296,0,2.351-1.054,2.351-2.35
	s-1.055-2.35-2.351-2.35h-19.647l11.869-11.87h18.637c1.296,0,2.351-1.055,2.351-2.351c0-1.295-1.055-2.35-2.351-2.35h-13.936
	l9.776-9.776c0.916-0.917,0.915-2.408-0.001-3.324c-0.917-0.916-2.407-0.916-3.323,0l-9.776,9.775V54.35
	c0-1.296-1.054-2.35-2.351-2.35c-1.296,0-2.35,1.054-2.35,2.35v18.636l-11.869,11.87V65.208c0-1.296-1.055-2.351-2.351-2.351
	s-2.351,1.055-2.351,2.351v24.348l-15.388,15.388V78.26c0-1.296-1.055-2.35-2.35-2.35c-0.398,0-0.776,0.096-1.123,0.285
	l-1.229,0.669v32.781l-12.695,12.695l-1.857-3.219h-9.128V99.836l23.18-23.179l-0.395-1.342c-0.111-0.378-0.311-0.713-0.593-0.996
	c-0.916-0.916-2.407-0.916-3.323,0.001l-18.869,18.868V71.427l17.218-17.217c0.916-0.917,0.915-2.407-0.001-3.324
	c-0.916-0.916-2.406-0.916-3.323,0l-13.894,13.893V47.993l13.179-13.178c0.916-0.917,0.915-2.408,0-3.324
	c-0.916-0.917-2.408-0.917-3.324,0l-9.854,9.854V27.521c0-1.296-1.054-2.35-2.35-2.35s-2.351,1.054-2.351,2.35v13.825l-9.854-9.854
	c-0.916-0.915-2.407-0.915-3.323,0c-0.917,0.917-0.917,2.407,0,3.324l13.178,13.178v16.786l-13.894-13.894
	c-0.917-0.916-2.408-0.916-3.324,0.001c-0.916,0.916-0.916,2.407,0,3.323l17.217,17.217v21.761L111.114,74.32
	c-0.916-0.916-2.407-0.916-3.323,0c-0.281,0.281-0.48,0.616-0.592,0.995l-0.395,1.341l23.18,23.179v19.285h-9.127l-1.859,3.219
	l-12.695-12.695v-32.78l-1.228-0.669c-0.347-0.189-0.725-0.285-1.123-0.285c-1.296,0-2.351,1.054-2.351,2.35v26.684L86.214,89.557
	V65.208c0-1.296-1.054-2.351-2.35-2.351c-1.296,0-2.35,1.055-2.35,2.351v19.648l-11.87-11.87V54.35c0-1.296-1.054-2.35-2.35-2.35
	s-2.351,1.054-2.351,2.35v13.936l-9.776-9.775c-0.443-0.444-1.034-0.688-1.662-0.688s-1.218,0.245-1.662,0.688
	c-0.916,0.917-0.916,2.407,0,3.324l9.775,9.776H47.683c-1.295,0-2.35,1.055-2.35,2.35c0,1.296,1.055,2.351,2.35,2.351H66.32
	l11.87,11.87H58.542c-1.296,0-2.351,1.054-2.351,2.35s1.055,2.35,2.351,2.35H82.89l15.387,15.388H71.593
	c-1.296,0-2.35,1.054-2.35,2.351c0,0.398,0.096,0.776,0.285,1.122l0.67,1.228h32.78l13.586,13.586l-5.828,10.095H93.169
	l-23.179-23.179l-1.342,0.395c-0.379,0.111-0.714,0.311-0.996,0.593c-0.916,0.917-0.916,2.407,0,3.324l18.869,18.868H64.76
	l-17.217-17.217c-0.443-0.443-1.034-0.688-1.662-0.688c-0.628,0-1.218,0.244-1.662,0.688c-0.444,0.444-0.688,1.034-0.688,1.662
	c0,0.627,0.244,1.217,0.688,1.662l13.894,13.894H41.327l-13.178-13.178c-0.917-0.916-2.408-0.916-3.324,0
	c-0.916,0.916-0.916,2.407,0,3.323l9.854,9.854H20.854c-1.296,0-2.35,1.054-2.35,2.35s1.054,2.351,2.35,2.351h13.825l-9.854,9.854
	c-0.916,0.916-0.916,2.407,0,3.324c0.444,0.443,1.035,0.688,1.663,0.688c0.627,0,1.217-0.245,1.662-0.689l13.178-13.177h16.787
	l-13.894,13.894c-0.444,0.444-0.688,1.034-0.688,1.661c0,0.628,0.244,1.218,0.688,1.662c0.444,0.444,1.034,0.688,1.662,0.688
	s1.218-0.244,1.662-0.688l17.217-17.217h21.762l-18.869,18.868c-0.916,0.917-0.916,2.408,0,3.323
	c0.281,0.282,0.616,0.481,0.996,0.593l1.341,0.396l23.18-23.18h17.566l5.828,10.095l-13.585,13.586H70.198l-0.669,1.229
	c-0.189,0.347-0.285,0.724-0.285,1.122c0,1.296,1.054,2.35,2.35,2.35h26.685L82.89,185.12H58.542c-1.296,0-2.351,1.054-2.351,2.35
	s1.055,2.351,2.351,2.351h19.648L66.32,201.689H47.683c-1.295,0-2.35,1.055-2.35,2.351s1.055,2.351,2.35,2.351h13.936l-9.775,9.775
	c-0.917,0.916-0.917,2.407,0,3.324c0.444,0.443,1.034,0.688,1.662,0.688c0.627,0,1.218-0.245,1.662-0.688l9.776-9.776v13.936
	c0,1.297,1.055,2.351,2.351,2.351s2.35-1.054,2.35-2.351v-18.636l11.87-11.869v19.647c0,1.296,1.054,2.351,2.35,2.351
	c1.296,0,2.35-1.055,2.35-2.351v-24.349l15.387-15.388v26.684c0,1.296,1.055,2.351,2.351,2.351c0.398,0,0.776-0.096,1.123-0.284
	l1.228-0.67v-32.78l12.695-12.695l1.859,3.219h9.127v19.285l-23.179,23.179l0.395,1.342c0.11,0.378,0.31,0.714,0.592,0.996
	c0.916,0.915,2.407,0.915,3.323-0.001l18.869-18.868v21.762l-17.217,17.217c-0.916,0.916-0.916,2.407,0,3.324
	c0.444,0.443,1.034,0.688,1.662,0.688s1.218-0.244,1.663-0.688l13.893-13.893v16.786l-13.178,13.178
	c-0.917,0.917-0.917,2.408,0,3.324c0.444,0.444,1.034,0.688,1.662,0.688s1.218-0.244,1.662-0.688l9.854-9.854v13.825
	c0,1.296,1.055,2.351,2.351,2.351s2.35-1.055,2.35-2.351v-13.825l9.854,9.854c0.443,0.444,1.034,0.688,1.662,0.688
	s1.218-0.244,1.662-0.688c0.916-0.916,0.916-2.407,0-3.324l-13.179-13.178v-16.786l13.894,13.894
	c0.916,0.915,2.407,0.915,3.324-0.001c0.916-0.916,0.916-2.407,0-3.323l-17.218-17.217v-21.762l18.869,18.869
	c0.444,0.443,1.034,0.688,1.662,0.688s1.218-0.245,1.661-0.689c0.282-0.281,0.481-0.615,0.593-0.994l0.395-1.343l-23.18-23.179
	v-19.285h9.128l1.858-3.219l12.694,12.695v32.78l1.229,0.67c0.347,0.188,0.725,0.284,1.123,0.284c1.295,0,2.35-1.055,2.35-2.351
	v-26.684l15.388,15.388v24.349c0,1.296,1.055,2.351,2.351,2.351s2.351-1.055,2.351-2.351v-19.648l11.869,11.87v18.636
	c0,1.297,1.054,2.351,2.35,2.351c1.297,0,2.351-1.054,2.351-2.351v-13.936l9.776,9.776c0.444,0.444,1.034,0.688,1.661,0.688
	c0.628,0,1.219-0.245,1.663-0.689c0.916-0.916,0.916-2.407-0.001-3.323l-9.775-9.775h13.936c1.296,0,2.351-1.055,2.351-2.351
	s-1.055-2.351-2.351-2.351h-18.637l-11.869-11.869h19.647c1.296,0,2.351-1.055,2.351-2.351s-1.055-2.35-2.351-2.35h-24.348
	l-15.388-15.389h26.684c1.296,0,2.35-1.054,2.35-2.35c0-0.398-0.095-0.775-0.284-1.123l-0.67-1.228h-32.78l-13.586-13.586
	l5.828-10.095h17.567l23.179,23.179l1.342-0.395c0.379-0.111,0.714-0.311,0.996-0.592c0.442-0.444,0.688-1.033,0.687-1.662
	c0-0.628-0.244-1.219-0.688-1.662l-18.868-18.868h21.762l17.217,17.217c0.443,0.444,1.033,0.688,1.662,0.688
	c0.627,0,1.217-0.244,1.661-0.688c0.444-0.443,0.688-1.034,0.688-1.662s-0.244-1.219-0.688-1.662l-13.894-13.893h16.787
	l13.178,13.178c0.444,0.444,1.034,0.688,1.662,0.688s1.218-0.245,1.661-0.689c0.917-0.916,0.917-2.407,0-3.323l-9.854-9.854h13.825
	c1.296,0,2.351-1.055,2.351-2.351S245.109,136.65,243.813,136.65z M149.86,139l-8.763,15.179H123.57L114.807,139l8.763-15.178
	h17.527L149.86,139z"/>
</svg>
