<?xml version="1.0" encoding="utf-8"?>
<!-- Generator: Adobe Illustrator 16.0.0, SVG Export Plug-In . SVG Version: 6.00 Build 0)  -->
<!DOCTYPE svg PUBLIC "-//W3C//DTD SVG 1.1//EN" "http://www.w3.org/Graphics/SVG/1.1/DTD/svg11.dtd">
<svg version="1.1" id="Layer_2" xmlns="http://www.w3.org/2000/svg" xmlns:xlink="http://www.w3.org/1999/xlink" x="0px" y="0px"
	 width="581.928px" height="738.907px" viewBox="0 0 581.928 738.907" enable-background="new 0 0 581.928 738.907"
	 xml:space="preserve">
<g>
	<polygon points="212,627.72 534,627.72 534,484.72 444,409.72 212,409.72 	"/>
	<path d="M89.635,166.72c-3.665,0-6.635,2.91-6.635,6.5s2.971,6.5,6.635,6.5h64.313c3.665,0,6.635-2.91,6.635-6.5
		s-2.971-6.5-6.635-6.5H89.635z"/>
	<path d="M165,157.563v-17.689c0-1.696-0.269-2.154-1.834-2.154H125v-47h7.166c1.565,0,1.834-2.269,1.834-3.834V81.72h-27v5.166
		c0,1.565,2.269,3.834,3.834,3.834H116v47H80.834c-1.565,0-3.834,0.458-3.834,2.154v17.689c0,1.696,2.269,4.157,3.834,4.157h82.331
		C164.731,161.72,165,159.259,165,157.563z"/>
	<path d="M67,62.72h22v-31H67c-7.732,0-14,6.939-14,15.5S59.268,62.72,67,62.72z"/>
	<path d="M107.504,73.72h23.992c4.697,0,8.504-3.807,8.504-8.504V28.224c0-4.697-3.807-8.504-8.504-8.504h-23.992
		c-4.697,0-8.504,3.807-8.504,8.504v36.992C99,69.913,102.807,73.72,107.504,73.72z"/>
	<path d="M344.173,73.72H348v-54h-3.827c-7.113,0-12.986,5-14.001,13H149v27h181.072C330.787,66.72,336.827,73.72,344.173,73.72z"/>
	<path d="M390,71.72c15.464,0,28-12.021,28-26.85V28.569c0-14.829-12.536-26.85-28-26.85s-28,12.021-28,26.85V44.87
		C362,59.699,374.536,71.72,390,71.72z"/>
	<path d="M389.5,366.97c18.23,0,32.5-15.155,32.5-33.85v-20.551c0-18.695-14.27-33.85-32.5-33.85s-32.5,15.155-32.5,33.85v20.551
		C357,351.815,371.27,366.97,389.5,366.97z"/>
	<path d="M389.5,264.865c6.923,0,13.5,1.703,18.5,4.707V81.72h-37v182.998c2,0.74,3.08,1.623,4.23,2.624
		C379.58,265.744,384.539,264.865,389.5,264.865z"/>
	<path d="M374.98,267.342c-1.15-1.001-1.98-1.884-3.98-2.624v4.333C373,268.411,373.617,267.842,374.98,267.342z"/>
	<path d="M353,286.04v-22.32h-48.615c-10.874,0-21.385,4.948-21.385,12.893V382.72h-89.074c-5.178,0-10.926,2.504-10.926,7.918
		V624.72h17V405.987c0-4.834,5.307-7.268,10.004-7.268h94.381H360v-1.198c1-0.15,0-0.33,0-0.333V381.72v-13.032
		c-8-8.1-13-19.65-13-32.479v-26.933C347,300.755,350,292.798,353,286.04z"/>
	<circle cx="54.667" cy="704.72" r="32.667"/>
	<circle cx="509.666" cy="704.72" r="32.667"/>
	<path d="M572.996,638.72H8.004C3.307,638.72-2,641.027-2,645.724v37.992c0,4.696,5.307,10.004,10.004,10.004h2.946
		c5.433-20,22.941-32.971,43.717-32.971s38.284,12.971,43.717,32.971H172v-20.996c0-4.696,5.307-7.004,10.004-7.004h56.992
		c4.697,0,7.004,2.308,7.004,7.004v20.996h103v-20.996c0-4.696,5.307-7.004,10.004-7.004h56.992c4.697,0,7.004,2.308,7.004,7.004
		v20.996h42.949c5.433-20,22.941-32.971,43.717-32.971c20.776,0,38.285,12.971,43.718,32.971h19.612
		c4.696,0,7.004-5.308,7.004-10.004v-37.992C580,641.027,577.692,638.72,572.996,638.72z"/>
</g>
<g>
</g>
<g>
</g>
<g>
</g>
<g>
</g>
<g>
</g>
<g>
</g>
<g>
</g>
<g>
</g>
<g>
</g>
<g>
</g>
<g>
</g>
<g>
</g>
<g>
</g>
<g>
</g>
<g>
</g>
</svg>
