<?xml version="1.0" encoding="UTF-8"?>
<svg id="Layer_2" xmlns="http://www.w3.org/2000/svg" version="1.1" xmlns:xlink="http://www.w3.org/1999/xlink" viewBox="0 0 100 100">
  <!-- Generator: Adobe Illustrator 29.3.1, SVG Export Plug-In . SVG Version: 2.1.0 Build 151)  -->
  <defs>
    <style>
      .st0 {
        fill: #1f4b74;
      }
    </style>
  </defs>
  <path class="st0" d="M89.2,49.1c-.7-.8-15.2-17.5-16.4-18.9-1.6-1.9-4.1-3.2-6.2-3.1-1.2,0-4.2,0-4.2,0-1.2,0-2.2.8-2.3,1.9,0,1.1.8,2.1,2,2.2,0,0,3.2.1,4.6,0,.6,0,1.9.5,2.7,1.6.9,1.1,9.6,11.3,14,16.4-3.5-.6-8.3-.9-13.8-.9-11.1,0-16.6,1.9-19.5,2.2-2.9-.3-8.4-2.2-19.5-2.2s-10.3.3-13.8.9c4.3-5.1,13.1-15.3,14-16.4.8-1,2.2-1.6,2.7-1.6,1.4,0,4.5,0,4.6,0,1.2,0,2.1-1.1,2-2.2,0-1.1-1.1-2-2.3-1.9,0,0-3,.1-4.2,0-2.1,0-4.7,1.3-6.2,3.1-1.2,1.4-15.8,18.2-16.4,18.9s-.8,2.8-.8,3.2c0,2.5.5,20.7,18.6,20.7s18.7-14.1,19.7-19.5h3.3c1,5.4,1.6,19.5,19.7,19.5s18.6-18.4,18.6-20.9-.2-2.2-.8-3Z"/>
</svg>