<?xml version="1.0" encoding="utf-8"?>
<!-- Generator: Adobe Illustrator 16.0.0, SVG Export Plug-In . SVG Version: 6.00 Build 0)  -->
<!DOCTYPE svg PUBLIC "-//W3C//DTD SVG 1.1//EN" "http://www.w3.org/Graphics/SVG/1.1/DTD/svg11.dtd">
<svg version="1.1" id="Layer_2" xmlns="http://www.w3.org/2000/svg" xmlns:xlink="http://www.w3.org/1999/xlink" x="0px" y="0px"
	 width="264.755px" height="277.967px" viewBox="0 0 264.755 277.967" enable-background="new 0 0 264.755 277.967"
	 xml:space="preserve">
<g>
	<g>
		<g>
			<g id="_x33_66_x2C__analytics_x2C__processing_x2C__dashboard_x2C__data_x2C__stats">
				<g>
					<g>
						<g>
							<g>
								<path fill="#1D56BC" d="M205.292,139.88H55.165c-0.777,0-1.558-0.769-1.558-1.543v-15.8c0-0.773,0.78-1.545,1.558-1.545
									h150.128c0.779,0,1.563,0.772,1.563,1.545v15.8C206.855,139.499,206.071,139.88,205.292,139.88z M56.725,137.183h147.4
									V124.08h-147.4V137.183z"/>
							</g>
							<g>
								<path fill="#1D56BC" d="M64.916,139.88c-0.78,0-1.558-0.769-1.558-1.543v-8.476c0-0.771,0.778-1.544,1.558-1.544
									c0.779,0,1.558,0.773,1.558,1.544v8.476C66.473,139.499,65.694,139.88,64.916,139.88z"/>
							</g>
							<g>
								<path fill="#1D56BC" d="M73.106,139.88c-0.783,0-1.563-0.769-1.563-1.543v-8.476c0-0.771,0.78-1.544,1.563-1.544
									c0.776,0,1.56,0.773,1.56,1.544v8.476C74.667,139.499,73.883,139.88,73.106,139.88z"/>
							</g>
							<g>
								<path fill="#1D56BC" d="M81.29,139.88c-0.773,0-1.558-0.769-1.558-1.543v-8.476c0-0.771,0.785-1.544,1.558-1.544
									c0.784,0,1.563,0.773,1.563,1.544v8.476C82.465,139.499,82.074,139.88,81.29,139.88z"/>
							</g>
							<g>
								<path fill="#1D56BC" d="M89.483,139.88c-0.784,0-1.559-0.769-1.559-1.543v-8.476c0-0.771,0.775-1.544,1.559-1.544
									c0.779,0,1.558,0.773,1.558,1.544v8.476C90.649,139.499,90.262,139.88,89.483,139.88z"/>
							</g>
							<g>
								<path fill="#1D56BC" d="M97.669,139.88c-0.778,0-1.558-0.769-1.558-1.543v-8.476c0-0.771,0.78-1.544,1.558-1.544
									c0.78,0,1.563,0.773,1.563,1.544v8.476C98.84,139.499,98.449,139.88,97.669,139.88z"/>
							</g>
							<g>
								<path fill="#1D56BC" d="M105.857,139.88c-0.776,0-1.558-0.769-1.558-1.543v-8.476c0-0.771,0.781-1.544,1.558-1.544
									c0.781,0,1.56,0.773,1.56,1.544v8.476C107.03,139.499,106.639,139.88,105.857,139.88z"/>
							</g>
							<g>
								<path fill="#1D56BC" d="M114.047,139.88c-0.779,0-1.559-0.769-1.559-1.543v-8.476c0-0.771,0.78-1.544,1.559-1.544
									c0.78,0,1.562,0.773,1.562,1.544v8.476C115.216,139.499,114.827,139.88,114.047,139.88z"/>
							</g>
							<g>
								<path fill="#1D56BC" d="M121.849,139.88c-0.782,0-1.565-0.769-1.565-1.543v-8.476c0-0.771,0.783-1.544,1.565-1.544
									c0.777,0,1.557,0.773,1.557,1.544v8.476C123.405,139.499,123.014,139.88,121.849,139.88z"/>
							</g>
							<g>
								<path fill="#1D56BC" d="M130.035,139.88c-0.779,0-1.563-0.769-1.563-1.543v-8.476c0-0.771,0.784-1.544,1.563-1.544
									c0.78,0,1.563,0.773,1.563,1.544v8.476C131.597,139.499,130.815,139.88,130.035,139.88z"/>
							</g>
							<g>
								<path fill="#1D56BC" d="M138.222,139.88c-0.779,0-1.558-0.769-1.558-1.543v-8.476c0-0.771,0.779-1.544,1.558-1.544
									c0.784,0,1.558,0.773,1.558,1.544v8.476C139.78,139.499,139.005,139.88,138.222,139.88z"/>
							</g>
							<g>
								<path fill="#1D56BC" d="M146.415,139.88c-0.786,0-1.564-0.769-1.564-1.543v-8.476c0-0.771,0.778-1.544,1.564-1.544
									c0.779,0,1.558,0.773,1.558,1.544v8.476C147.973,139.499,147.194,139.88,146.415,139.88z"/>
							</g>
							<g>
								<path fill="#1D56BC" d="M154.602,139.88c-0.78,0-1.559-0.769-1.559-1.543v-8.476c0-0.771,0.779-1.544,1.559-1.544
									c0.778,0,1.558,0.773,1.558,1.544v8.476C156.16,139.499,155.38,139.88,154.602,139.88z"/>
							</g>
							<g>
								<path fill="#1D56BC" d="M162.788,139.88c-0.778,0-1.559-0.769-1.559-1.543v-8.476c0-0.771,0.781-1.544,1.559-1.544
									c0.781,0,1.564,0.773,1.564,1.544v8.476C164.352,139.499,163.569,139.88,162.788,139.88z"/>
							</g>
							<g>
								<path fill="#1D56BC" d="M170.982,139.88c-0.784,0-1.565-0.769-1.565-1.543v-8.476c0-0.771,0.781-1.544,1.565-1.544
									c0.776,0,1.557,0.773,1.557,1.544v8.476C172.539,139.499,171.759,139.88,170.982,139.88z"/>
							</g>
							<g>
								<path fill="#1D56BC" d="M179.167,139.88c-0.778,0-1.556-0.769-1.556-1.543v-8.476c0-0.771,0.778-1.544,1.556-1.544
									c0.781,0,1.559,0.773,1.559,1.544v8.476C180.726,139.499,179.949,139.88,179.167,139.88z"/>
							</g>
							<g>
								<path fill="#1D56BC" d="M187.355,139.88c-0.776,0-1.559-0.769-1.559-1.543v-8.476c0-0.771,0.782-1.544,1.559-1.544
									c0.781,0,1.562,0.773,1.562,1.544v8.476C188.917,139.499,188.137,139.88,187.355,139.88z"/>
							</g>
							<g>
								<path fill="#1D56BC" d="M195.546,139.88c-0.784,0-1.56-0.769-1.56-1.543v-8.476c0-0.771,0.776-1.544,1.56-1.544
									c0.778,0,1.559,0.773,1.559,1.544v8.476C197.105,139.499,196.324,139.88,195.546,139.88z"/>
							</g>
							<g>
								<path fill="#1D56BC" d="M193.206,117.525h-7.801c-0.777,0-1.558-0.771-1.558-1.543V80.906c0-0.773,0.78-1.543,1.558-1.543
									h7.801c0.78,0,1.557,0.771,1.557,1.543v35.076C194.374,116.755,193.986,117.525,193.206,117.525z M186.579,114.827h5.069
									V82.834h-5.069V114.827z"/>
							</g>
							<g>
								<path fill="#1D56BC" d="M173.318,117.525h-7.798c-0.781,0-1.559-0.771-1.559-1.543V63.559c0-0.771,0.778-1.543,1.559-1.543
									h7.798c0.779,0,1.56,0.772,1.56,1.543v52.811C174.878,116.755,174.097,117.525,173.318,117.525z M167.081,114.827h5.067
									V64.714h-5.067V114.827z"/>
							</g>
							<g>
								<path fill="#1D56BC" d="M153.822,117.525h-7.8c-0.78,0-1.558-0.771-1.558-1.543V70.497c0-0.771,0.778-1.543,1.558-1.543h7.8
									c0.78,0,1.558,0.773,1.558,1.543v45.485C155.38,116.755,154.602,117.525,153.822,117.525z M147.194,114.827h5.067V72.04
									h-5.067V114.827z"/>
							</g>
							<g>
								<path fill="#1D56BC" d="M134.323,117.525h-7.798c-0.776,0-1.56-0.771-1.56-1.543v-26.21c0-0.772,0.784-1.545,1.56-1.545
									h7.798c0.782,0,1.563,0.773,1.563,1.545v26.21C135.493,116.755,135.105,117.525,134.323,117.525z M127.697,114.827h5.068
									V91.314h-5.068V114.827z"/>
							</g>
							<g>
								<path fill="#1D56BC" d="M114.438,117.525h-7.799c-0.781,0-1.558-0.771-1.558-1.543V63.559c0-0.771,0.776-1.543,1.558-1.543
									h7.799c0.778,0,1.56,0.772,1.56,1.543v52.811C115.998,116.755,115.216,117.525,114.438,117.525z M108.198,114.827h5.07
									V64.714h-5.07V114.827z"/>
							</g>
							<g>
								<path fill="#1D56BC" d="M94.941,117.525h-7.8c-0.78,0-1.558-0.771-1.558-1.543V80.906c0-0.773,0.778-1.543,1.558-1.543h7.8
									c0.78,0,1.558,0.771,1.558,1.543v35.076C96.499,116.755,95.721,117.525,94.941,117.525z M88.312,114.827h5.071V82.834
									h-5.071V114.827z"/>
							</g>
							<g>
								<path fill="#1D56BC" d="M75.444,117.525h-7.798c-0.78,0-1.563-0.771-1.563-1.543V92.853c0-0.771,0.782-1.539,1.563-1.539
									h7.798c0.78,0,1.559,0.768,1.559,1.539v23.129C76.614,116.755,76.224,117.525,75.444,117.525z M68.816,114.827h5.067V94.781
									h-5.067C68.816,94.396,68.816,114.827,68.816,114.827z"/>
							</g>
							<g>
								<path fill="#1D56BC" d="M220.109,184.983H40.741c-7.021,0-12.479-5.781-12.479-12.336V45.056
									c0-6.94,5.847-12.333,12.479-12.333H219.72c7.02,0,12.48,5.781,12.48,12.333v127.591
									C232.588,179.583,227.131,184.983,220.109,184.983z M40.741,35.42c-5.458,0-9.751,4.239-9.751,9.636v127.591
									c0,5.398,4.293,9.637,9.751,9.637H219.72c5.46,0,9.752-4.238,9.752-9.637V45.056c0-5.397-4.292-9.636-9.752-9.636H40.741z"
									/>
							</g>
							<g>
								<path fill="#1D56BC" d="M219.72,151.061H40.741c-0.783,0-1.558-0.771-1.558-1.543V45.441c0-0.773,0.775-1.542,1.558-1.542
									H219.72c0.78,0,1.558,0.769,1.558,1.542v104.077C221.278,150.291,220.5,151.061,219.72,151.061z M42.298,147.975H218.55
									V46.597H42.298V147.975z"/>
							</g>
							<g>
								<path fill="#1D56BC" d="M162.788,221.217L162.788,221.217H98.062c-0.393,0-0.78-0.387-1.17-0.387
									c-0.392-0.383-0.392-0.769-0.392-1.154l9.751-35.848c0-0.772,0.78-1.16,1.559-1.16h46.014c0.78,0,1.172,0.388,1.558,1.16
									l9.358,35.848v0.385C164.352,220.447,163.569,221.217,162.788,221.217z M99.619,218.133h61.219l-8.966-33.149h-43.283
									L99.619,218.133z"/>
							</g>
							<g>
								<path fill="#1D56BC" d="M191.648,230.085H69.208c-0.784,0-1.563-0.774-1.563-1.543v-8.866c0-0.77,0.779-1.543,1.563-1.543
									h122.44c0.779,0,1.558,0.773,1.558,1.543v8.866C193.206,229.311,192.427,230.085,191.648,230.085z M70.765,226.998h119.711
									v-5.781H70.765V226.998z"/>
							</g>
							<g>
								<path fill="#1D56BC" d="M130.422,177.655c-3.115,0-5.846-2.697-5.846-5.778c0-3.084,2.73-5.784,5.846-5.784
									c3.12,0,5.851,2.7,5.851,5.784C135.885,175.346,133.542,177.655,130.422,177.655z M130.422,169.563
									c-1.558,0-2.726,1.158-2.726,2.699c0,1.541,1.168,2.696,2.726,2.696c1.563,0,2.734-1.155,2.734-2.696
									C133.156,170.721,131.985,169.563,130.422,169.563z"/>
							</g>
							<g>
								<path fill="#1D56BC" d="M166.303,238.179H28.651c-0.781,0-1.561-0.773-1.561-1.544c0-0.769,0.784-1.541,1.561-1.541h137.652
									c0.778,0,1.557,0.772,1.557,1.541C167.86,237.405,167.081,238.179,166.303,238.179z"/>
							</g>
							<g>
								<path fill="#1D56BC" d="M204.512,246.659h-95.145c-0.779,0-1.559-0.774-1.559-1.543c0-0.774,0.78-1.542,1.559-1.542h95.145
									c0.78,0,1.559,0.768,1.559,1.542C206.071,245.885,205.292,246.659,204.512,246.659z"/>
							</g>
							<g>
								<path fill="#1D56BC" d="M225.957,246.659h-12.086c-0.777,0-1.558-0.774-1.558-1.543c0-0.774,0.78-1.542,1.558-1.542h12.086
									c0.783,0,1.565,0.768,1.565,1.542C227.522,245.885,226.74,246.659,225.957,246.659z"/>
							</g>
							<g>
								<path fill="#1D56BC" d="M68.425,246.271H23.191c-0.78,0-1.56-0.769-1.56-1.541c0-0.771,0.78-1.543,1.56-1.543h45.233
									c0.784,0,1.557,0.772,1.557,1.543C69.595,245.502,69.208,246.271,68.425,246.271z"/>
							</g>
							<g>
								<path fill="#1D56BC" d="M242.729,60.087c-0.784,0-1.561-0.771-1.561-1.538V35.42c0-6.17-5.068-10.797-10.917-10.797
									c-0.778,0-1.562-0.768-1.562-1.538c0-0.773,0.784-1.543,1.562-1.543c7.797,0,14.038,6.17,14.038,13.878v23.129
									C243.896,59.705,243.51,60.087,242.729,60.087z"/>
							</g>
						</g>
					</g>
				</g>
			</g>
			<g id="Layer_1_00000172408812263209169410000002311626746403759030_">
			</g>
		</g>
	</g>
</g>
<g>
</g>
<g>
</g>
<g>
</g>
<g>
</g>
<g>
</g>
<g>
</g>
<g>
</g>
<g>
</g>
<g>
</g>
<g>
</g>
<g>
</g>
<g>
</g>
<g>
</g>
<g>
</g>
<g>
</g>
</svg>
