<?xml version="1.0" encoding="utf-8"?>
<!-- Generator: Adobe Illustrator 16.0.0, SVG Export Plug-In . SVG Version: 6.00 Build 0)  -->
<!DOCTYPE svg PUBLIC "-//W3C//DTD SVG 1.1//EN" "http://www.w3.org/Graphics/SVG/1.1/DTD/svg11.dtd">
<svg version="1.1" id="Layer_2" xmlns="http://www.w3.org/2000/svg" xmlns:xlink="http://www.w3.org/1999/xlink" x="0px" y="0px"
	 width="264.754px" height="277.967px" viewBox="0 0 264.754 277.967" enable-background="new 0 0 264.754 277.967"
	 xml:space="preserve">
<g>
	<g id="_x33_66_x2C__analytics_x2C__processing_x2C__dashboard_x2C__data_x2C__stats_1_">
		<g>
			<g>
				<g>
					<g>
						<path fill="#1D56BC" d="M212.676,50.709v90.127c0,0.775-0.77,1.557-1.543,1.557h-15.801c-0.772,0-1.545-0.779-1.545-1.557
							V50.708c0-0.778,0.772-1.563,1.545-1.563h15.801C212.295,49.146,212.676,49.93,212.676,50.709z M209.979,139.276V51.875
							h-13.104v87.401H209.979z"/>
					</g>
					<g>
						<path fill="#1D56BC" d="M212.676,182.896c0,0.783-0.77,1.563-1.543,1.563h-8.477c-0.771,0-1.544-0.779-1.544-1.563
							c0-0.775,0.772-1.561,1.544-1.561h8.477C212.295,181.335,212.676,182.118,212.676,182.896z"/>
					</g>
					<g>
						<path fill="#1D56BC" d="M212.676,150.144c0,0.777-0.77,1.559-1.543,1.559h-8.477c-0.771,0-1.544-0.781-1.544-1.559
							c0-0.781,0.772-1.559,1.544-1.559h8.477C212.295,148.972,212.676,149.362,212.676,150.144z"/>
					</g>
					<g>
						<path fill="#1D56BC" d="M212.676,134.152c0,0.782-0.77,1.565-1.543,1.565h-8.477c-0.771,0-1.544-0.783-1.544-1.565
							c0-0.777,0.772-1.557,1.544-1.557h8.477C212.295,132.596,212.676,132.987,212.676,134.152z"/>
					</g>
					<g>
						<path fill="#1D56BC" d="M212.676,125.966c0,0.779-0.77,1.563-1.543,1.563h-8.477c-0.771,0-1.544-0.784-1.544-1.563
							c0-0.78,0.772-1.563,1.544-1.563h8.477C212.295,124.404,212.676,125.186,212.676,125.966z"/>
					</g>
					<g>
						<path fill="#1D56BC" d="M212.676,117.779c0,0.779-0.77,1.558-1.543,1.558h-8.477c-0.771,0-1.544-0.778-1.544-1.558
							c0-0.784,0.772-1.558,1.544-1.558h8.477C212.295,116.221,212.676,116.997,212.676,117.779z"/>
					</g>
					<g>
						<path fill="#1D56BC" d="M212.676,109.586c0,0.785-0.77,1.563-1.543,1.563h-8.477c-0.771,0-1.544-0.778-1.544-1.563
							c0-0.779,0.772-1.559,1.544-1.559h8.477C212.295,108.028,212.676,108.807,212.676,109.586z"/>
					</g>
					<g>
						<path fill="#1D56BC" d="M212.676,101.399c0,0.78-0.77,1.559-1.543,1.559h-8.477c-0.771,0-1.544-0.778-1.544-1.559
							c0-0.777,0.772-1.559,1.544-1.559h8.477C212.295,99.84,212.676,100.622,212.676,101.399z"/>
					</g>
					<g>
						<path fill="#1D56BC" d="M212.676,93.213c0,0.777-0.77,1.559-1.543,1.559h-8.477c-0.771,0-1.544-0.781-1.544-1.559
							c0-0.781,0.772-1.564,1.544-1.564h8.477C212.295,91.649,212.676,92.432,212.676,93.213z"/>
					</g>
					<g>
						<path fill="#1D56BC" d="M212.676,85.019c0,0.784-0.77,1.565-1.543,1.565h-8.477c-0.771,0-1.544-0.781-1.544-1.565
							c0-0.776,0.772-1.558,1.544-1.558h8.477C212.295,83.461,212.676,84.243,212.676,85.019z"/>
					</g>
					<g>
						<path fill="#1D56BC" d="M212.676,76.834c0,0.777-0.77,1.556-1.543,1.556h-8.477c-0.771,0-1.544-0.778-1.544-1.556
							c0-0.781,0.772-1.56,1.544-1.56h8.477C212.295,75.275,212.676,76.051,212.676,76.834z"/>
					</g>
					<g>
						<path fill="#1D56BC" d="M212.676,68.646c0,0.776-0.77,1.56-1.543,1.56h-8.477c-0.771,0-1.544-0.783-1.544-1.56
							c0-0.781,0.772-1.562,1.544-1.562h8.477C212.295,67.084,212.676,67.864,212.676,68.646z"/>
					</g>
					<g>
						<path fill="#1D56BC" d="M212.676,60.456c0,0.783-0.77,1.56-1.543,1.56h-8.477c-0.771,0-1.544-0.776-1.544-1.56
							c0-0.779,0.772-1.56,1.544-1.56h8.477C212.295,58.896,212.676,59.676,212.676,60.456z"/>
					</g>
					<g>
						<path fill="#1D56BC" d="M221.11,184.983H41.742c-7.021,0-12.479-5.781-12.479-12.336V45.056
							c0-6.94,5.847-12.333,12.479-12.333h178.979c7.02,0,12.479,5.781,12.479,12.333v127.591
							C233.588,179.583,228.131,184.983,221.11,184.983z M41.742,35.42c-5.458,0-9.751,4.239-9.751,9.636v127.591
							c0,5.397,4.293,9.637,9.751,9.637h178.979c5.459,0,9.752-4.238,9.752-9.637V45.056c0-5.397-4.293-9.636-9.752-9.636H41.742z"
							/>
					</g>
					<g>
						<path fill="#1D56BC" d="M220.721,151.062H41.742c-0.783,0-1.558-0.771-1.558-1.543V45.441c0-0.773,0.775-1.542,1.558-1.542
							h178.979c0.779,0,1.557,0.769,1.557,1.542v104.078C222.278,150.291,221.5,151.062,220.721,151.062z M43.298,147.976h176.251
							V46.597H43.298V147.976z"/>
					</g>
					<g>
						<path fill="#1D56BC" d="M163.788,221.217L163.788,221.217H99.063c-0.393,0-0.78-0.387-1.17-0.387
							c-0.392-0.383-0.392-0.769-0.392-1.154l9.751-35.848c0-0.772,0.78-1.16,1.559-1.16h46.014c0.779,0,1.172,0.388,1.557,1.16
							l9.359,35.848v0.386C165.352,220.447,164.569,221.217,163.788,221.217z M100.62,218.133h61.219l-8.967-33.149h-43.282
							L100.62,218.133z"/>
					</g>
					<g>
						<path fill="#1D56BC" d="M192.649,230.085H70.208c-0.784,0-1.563-0.773-1.563-1.543v-8.866c0-0.77,0.779-1.543,1.563-1.543
							h122.44c0.779,0,1.557,0.773,1.557,1.543v8.866C194.206,229.312,193.426,230.085,192.649,230.085z M71.766,226.998h119.711
							v-5.781H71.766V226.998z"/>
					</g>
					<g>
						<path fill="#1D56BC" d="M131.422,177.655c-3.115,0-5.846-2.697-5.846-5.778c0-3.084,2.73-5.784,5.846-5.784
							c3.119,0,5.852,2.7,5.852,5.784C136.885,175.347,134.542,177.655,131.422,177.655z M131.422,169.563
							c-1.558,0-2.726,1.158-2.726,2.699s1.168,2.695,2.726,2.695c1.563,0,2.734-1.154,2.734-2.695S132.985,169.563,131.422,169.563
							z"/>
					</g>
					<g>
						<path fill="#1D56BC" d="M167.303,238.179H29.651c-0.781,0-1.561-0.772-1.561-1.544c0-0.769,0.784-1.541,1.561-1.541h137.652
							c0.777,0,1.557,0.772,1.557,1.541C168.86,237.405,168.081,238.179,167.303,238.179z"/>
					</g>
					<g>
						<path fill="#1D56BC" d="M205.512,246.659h-95.145c-0.779,0-1.559-0.774-1.559-1.543c0-0.774,0.78-1.542,1.559-1.542h95.145
							c0.779,0,1.559,0.768,1.559,1.542C207.071,245.885,206.292,246.659,205.512,246.659z"/>
					</g>
					<g>
						<path fill="#1D56BC" d="M226.958,246.659h-12.086c-0.777,0-1.559-0.774-1.559-1.543c0-0.774,0.779-1.542,1.559-1.542h12.086
							c0.783,0,1.564,0.768,1.564,1.542C228.522,245.885,227.741,246.659,226.958,246.659z"/>
					</g>
					<g>
						<path fill="#1D56BC" d="M69.425,246.271H24.191c-0.78,0-1.56-0.769-1.56-1.541c0-0.771,0.78-1.543,1.56-1.543h45.233
							c0.784,0,1.557,0.772,1.557,1.543C70.596,245.502,70.208,246.271,69.425,246.271z"/>
					</g>
					<g>
						<path fill="#1D56BC" d="M243.729,60.087c-0.783,0-1.561-0.771-1.561-1.538V35.42c0-6.17-5.068-10.797-10.918-10.797
							c-0.777,0-1.561-0.768-1.561-1.538c0-0.773,0.783-1.543,1.561-1.543c7.797,0,14.039,6.17,14.039,13.878v23.129
							C244.897,59.705,244.51,60.087,243.729,60.087z"/>
					</g>
				</g>
			</g>
		</g>
	</g>
	<g>
		<polygon fill="#1D56BC" points="117.57,140.121 57.558,140.121 57.558,54.303 177.182,54.303 177.182,97.909 175.192,97.909 
			175.192,56.294 59.549,56.294 59.549,138.131 117.57,138.131 		"/>
		<g>
			<path fill="#FFFFFF" d="M65.523,57.489c0,2.199-1.783,3.982-3.982,3.982h-3.983c-2.199,0-3.981-1.783-3.981-3.982v-3.983
				c0-2.199,1.783-3.982,3.981-3.982h3.983c2.199,0,3.982,1.783,3.982,3.982V57.489z"/>
			<path fill="#1D56BC" d="M61.541,62.466h-3.983c-2.745,0-4.978-2.233-4.978-4.978v-3.983c0-2.745,2.233-4.978,4.978-4.978h3.983
				c2.745,0,4.978,2.233,4.978,4.978v3.983C66.518,60.233,64.285,62.466,61.541,62.466z M57.558,50.52
				c-1.646,0-2.986,1.34-2.986,2.986v3.983c0,1.646,1.34,2.986,2.986,2.986h3.983c1.647,0,2.986-1.34,2.986-2.986v-3.983
				c0-1.646-1.339-2.986-2.986-2.986H57.558z"/>
		</g>
		<g>
			<path fill="#FFFFFF" d="M65.523,99.302c0,2.2-1.783,3.982-3.982,3.982h-3.983c-2.199,0-3.981-1.783-3.981-3.982V95.32
				c0-2.199,1.783-3.983,3.981-3.983h3.983c2.199,0,3.982,1.784,3.982,3.983V99.302z"/>
			<path fill="#1D56BC" d="M61.541,104.281h-3.983c-2.745,0-4.978-2.233-4.978-4.979V95.32c0-2.745,2.233-4.978,4.978-4.978h3.983
				c2.745,0,4.978,2.232,4.978,4.978v3.982C66.518,102.047,64.285,104.281,61.541,104.281z M57.558,92.333
				c-1.646,0-2.986,1.339-2.986,2.987v3.982c0,1.647,1.34,2.987,2.986,2.987h3.983c1.647,0,2.986-1.34,2.986-2.987V95.32
				c0-1.647-1.339-2.987-2.986-2.987H57.558z"/>
		</g>
		<g>
			<path fill="#FFFFFF" d="M65.523,140.917c0,2.199-1.783,3.982-3.982,3.982h-3.983c-2.199,0-3.981-1.783-3.981-3.982v-3.982
				c0-2.199,1.783-3.982,3.981-3.982h3.983c2.199,0,3.982,1.783,3.982,3.982V140.917z"/>
			<path fill="#1D56BC" d="M61.541,145.895h-3.983c-2.745,0-4.978-2.232-4.978-4.978v-3.982c0-2.745,2.233-4.979,4.978-4.979h3.983
				c2.745,0,4.978,2.234,4.978,4.979v3.982C66.518,143.662,64.285,145.895,61.541,145.895z M57.558,133.948
				c-1.646,0-2.986,1.34-2.986,2.987v3.982c0,1.647,1.34,2.986,2.986,2.986h3.983c1.647,0,2.986-1.339,2.986-2.986v-3.982
				c0-1.646-1.339-2.987-2.986-2.987H57.558z"/>
		</g>
		<g>
			<path fill="#FFFFFF" d="M123.742,57.489c0,2.199-1.783,3.982-3.982,3.982h-3.982c-2.199,0-3.982-1.783-3.982-3.982v-3.983
				c0-2.199,1.783-3.982,3.982-3.982h3.982c2.199,0,3.982,1.783,3.982,3.982V57.489z"/>
			<path fill="#1D56BC" d="M119.76,62.466h-3.982c-2.745,0-4.978-2.233-4.978-4.978v-3.983c0-2.745,2.232-4.978,4.978-4.978h3.982
				c2.746,0,4.977,2.233,4.977,4.978v3.983C124.737,60.233,122.506,62.466,119.76,62.466z M115.777,50.52
				c-1.646,0-2.987,1.34-2.987,2.986v3.983c0,1.646,1.34,2.986,2.987,2.986h3.982c1.646,0,2.987-1.34,2.987-2.986v-3.983
				c0-1.646-1.34-2.986-2.987-2.986H115.777z"/>
		</g>
		<g>
			<path fill="#FFFFFF" d="M181.961,57.489c0,2.199-1.782,3.982-3.982,3.982h-3.981c-2.2,0-3.983-1.783-3.983-3.982v-3.983
				c0-2.199,1.783-3.982,3.983-3.982h3.981c2.2,0,3.982,1.783,3.982,3.982V57.489z"/>
			<path fill="#1D56BC" d="M177.979,62.466h-3.981c-2.745,0-4.979-2.233-4.979-4.978v-3.983c0-2.745,2.233-4.978,4.979-4.978h3.981
				c2.745,0,4.979,2.233,4.979,4.978v3.983C182.958,60.233,180.724,62.466,177.979,62.466z M173.998,50.52
				c-1.648,0-2.987,1.34-2.987,2.986v3.983c0,1.646,1.339,2.986,2.987,2.986h3.981c1.647,0,2.987-1.34,2.987-2.986v-3.983
				c0-1.646-1.34-2.986-2.987-2.986H173.998z"/>
		</g>
		<g>
			<path fill="#FFFFFF" d="M181.961,99.302c0,2.2-1.782,3.982-3.982,3.982h-3.981c-2.2,0-3.983-1.783-3.983-3.982V95.32
				c0-2.199,1.783-3.983,3.983-3.983h3.981c2.2,0,3.982,1.784,3.982,3.983V99.302z"/>
			<path fill="#1D56BC" d="M177.979,104.281h-3.981c-2.745,0-4.979-2.233-4.979-4.979V95.32c0-2.745,2.233-4.978,4.979-4.978h3.981
				c2.745,0,4.979,2.232,4.979,4.978v3.982C182.958,102.047,180.724,104.281,177.979,104.281z M173.998,92.333
				c-1.648,0-2.987,1.339-2.987,2.987v3.982c0,1.647,1.339,2.987,2.987,2.987h3.981c1.647,0,2.987-1.34,2.987-2.987V95.32
				c0-1.647-1.34-2.987-2.987-2.987H173.998z"/>
		</g>
		<g>
			<path fill="#FFFFFF" d="M123.742,140.917c0,2.199-1.783,3.982-3.982,3.982h-3.982c-2.199,0-3.982-1.783-3.982-3.982v-3.982
				c0-2.199,1.783-3.982,3.982-3.982h3.982c2.199,0,3.982,1.783,3.982,3.982V140.917z"/>
			<path fill="#1D56BC" d="M119.76,145.895h-3.982c-2.745,0-4.978-2.232-4.978-4.978v-3.982c0-2.745,2.232-4.979,4.978-4.979h3.982
				c2.746,0,4.977,2.234,4.977,4.979v3.982C124.737,143.662,122.506,145.895,119.76,145.895z M115.777,133.948
				c-1.646,0-2.987,1.34-2.987,2.987v3.982c0,1.647,1.34,2.986,2.987,2.986h3.982c1.646,0,2.987-1.339,2.987-2.986v-3.982
				c0-1.646-1.34-2.987-2.987-2.987H115.777z"/>
		</g>
		<path fill="#1D56BC" d="M155.876,125.785c-0.481,0-0.906-0.353-0.982-0.843l-1.608-10.354c-0.049-0.309,0.051-0.622,0.269-0.846
			c0.218-0.224,0.528-0.331,0.837-0.294l10.154,1.252c0.546,0.067,0.934,0.564,0.866,1.109c-0.067,0.546-0.562,0.937-1.108,0.866
			l-8.847-1.091l1.406,9.051c0.083,0.543-0.289,1.052-0.832,1.136C155.978,125.78,155.927,125.785,155.876,125.785z"/>
		<path fill="#1D56BC" d="M175.192,138.33h-16.327c-0.403,0-0.766-0.244-0.92-0.616c-0.155-0.372-0.07-0.799,0.215-1.084
			l15.134-15.133c0.274-0.274,0.685-0.365,1.048-0.229c0.363,0.134,0.617,0.468,0.646,0.855l1.196,15.132
			c0.022,0.277-0.072,0.551-0.261,0.754C175.733,138.212,175.469,138.33,175.192,138.33z M161.269,136.338h12.845l-0.938-11.907
			L161.269,136.338z"/>
		<g>
			<path fill="#FFFFFF" d="M114.277,99.133c1.555,1.555,1.555,4.077,0,5.632L97.664,121.38c-1.555,1.554-4.077,1.554-5.632,0
				l-16.333-16.333c-1.555-1.556-1.555-4.077,0-5.632l16.614-16.614c1.555-1.555,4.077-1.555,5.631,0L114.277,99.133z"/>
			<path fill="#1D56BC" d="M94.847,123.541c-1.33,0-2.58-0.517-3.52-1.458L74.996,105.75c-1.941-1.94-1.941-5.099,0-7.039
				l16.614-16.614c0.94-0.94,2.19-1.458,3.52-1.458s2.58,0.518,3.52,1.458l16.332,16.332c1.941,1.941,1.941,5.099,0,7.04
				l-16.614,16.614C97.428,123.023,96.177,123.541,94.847,123.541z M95.129,82.63c-0.798,0-1.548,0.311-2.112,0.875l-16.614,16.614
				c-0.563,0.564-0.875,1.314-0.875,2.112c0,0.797,0.312,1.547,0.875,2.111l16.333,16.332c0.563,0.564,1.313,0.875,2.111,0.875
				s1.548-0.311,2.113-0.875l16.614-16.614c1.164-1.164,1.164-3.058,0-4.223L97.241,83.505C96.677,82.941,95.927,82.63,95.129,82.63
				z"/>
		</g>
		<g>
			<path fill="#FFFFFF" d="M139.303,97.758c0,2.199-1.783,3.981-3.982,3.981h-23.495c-2.2,0-3.983-1.783-3.983-3.981V74.66
				c0-2.199,1.783-3.982,3.983-3.982h23.495c2.199,0,3.982,1.783,3.982,3.982V97.758z"/>
			<path fill="#1D56BC" d="M135.321,102.735h-23.495c-2.746,0-4.979-2.233-4.979-4.978V74.66c0-2.745,2.232-4.978,4.979-4.978
				h23.495c2.744,0,4.977,2.233,4.977,4.978v23.098C140.297,100.502,138.065,102.735,135.321,102.735z M111.826,71.673
				c-1.647,0-2.987,1.34-2.987,2.987v23.098c0,1.646,1.339,2.986,2.987,2.986h23.495c1.646,0,2.986-1.34,2.986-2.986V74.66
				c0-1.647-1.34-2.987-2.986-2.987H111.826z"/>
		</g>
	</g>
</g>
<g id="Layer_1_00000172408812263209169410000002311626746403759030_">
</g>
</svg>
