<?xml version="1.0" encoding="UTF-8"?>
<svg id="Layer_1" xmlns="http://www.w3.org/2000/svg" version="1.1" xmlns:xlink="http://www.w3.org/1999/xlink" viewBox="0 0 512.1 398.3">
  <!-- Generator: Adobe Illustrator 29.3.1, SVG Export Plug-In . SVG Version: 2.1.0 Build 151)  -->
  <path d="M390.6,10.2v216.3c0,5.5-4.5,10-10,10h-249.2c-5.5,0-10-4.5-10-10V97h0V10.2c0-5.6,4.6-10.2,10.2-10.2h85.7v78.5c0,5.6,4.6,10.2,10.2,10.2h57.1c5.5,0,9.9-4.3,10.2-9.7V0h85.7c5.6,0,10.2,4.6,10.2,10.2h-.1Z"/>
  <path d="M441.2,256.7H70.8c-39,0-70.8,31.7-70.8,70.8s31.7,70.8,70.8,70.8h370.5c39,0,70.8-31.7,70.8-70.8s-31.7-70.8-70.8-70.8h0ZM441.2,377.8H70.8c-27.8,0-50.3-22.6-50.3-50.3s22.6-50.4,50.3-50.4h370.5c27.8,0,50.3,22.6,50.3,50.4s-22.6,50.3-50.3,50.3h0Z"/>
  <path d="M70.5,292.7c-19.2,0-34.8,15.6-34.8,34.8s15.6,34.8,34.8,34.8,34.8-15.6,34.8-34.8-15.6-34.8-34.8-34.8ZM70.5,341.9c-7.9,0-14.4-6.5-14.4-14.4s6.5-14.4,14.4-14.4,14.4,6.5,14.4,14.4-6.5,14.4-14.4,14.4Z"/>
  <path d="M162.6,292.7c-19.2,0-34.8,15.6-34.8,34.8s15.6,34.8,34.8,34.8,34.8-15.6,34.8-34.8-15.6-34.8-34.8-34.8ZM162.6,341.9c-7.9,0-14.4-6.5-14.4-14.4s6.5-14.4,14.4-14.4,14.4,6.5,14.4,14.4-6.5,14.4-14.4,14.4Z"/>
  <path d="M255.5,292.7c-19.2,0-34.8,15.6-34.8,34.8s15.6,34.8,34.8,34.8,34.8-15.6,34.8-34.8-15.6-34.8-34.8-34.8h0ZM255.5,341.9c-7.9,0-14.4-6.5-14.4-14.4s6.5-14.4,14.4-14.4,14.4,6.5,14.4,14.4-6.5,14.4-14.4,14.4Z"/>
  <path d="M348.5,292.7c-19.2,0-34.8,15.6-34.8,34.8s15.6,34.8,34.8,34.8,34.8-15.6,34.8-34.8-15.6-34.8-34.8-34.8ZM348.5,341.9c-7.9,0-14.4-6.5-14.4-14.4s6.5-14.4,14.4-14.4,14.4,6.5,14.4,14.4-6.5,14.4-14.4,14.4Z"/>
  <path d="M441.5,292.7c-19.2,0-34.8,15.6-34.8,34.8s15.6,34.8,34.8,34.8,34.8-15.6,34.8-34.8-15.6-34.8-34.8-34.8ZM441.5,341.9c-7.9,0-14.4-6.5-14.4-14.4s6.5-14.4,14.4-14.4,14.4,6.5,14.4,14.4-6.5,14.4-14.4,14.4Z"/>
  <circle cx="71.6" cy="327.5" r="18"/>
  <circle cx="162.6" cy="327.5" r="18"/>
  <circle cx="253.6" cy="327.5" r="18"/>
  <circle cx="352.1" cy="327.5" r="18"/>
  <circle cx="443.1" cy="327.5" r="18"/>
</svg>