<?xml version="1.0" encoding="utf-8"?>
<!-- Generator: Adobe Illustrator 16.0.0, SVG Export Plug-In . SVG Version: 6.00 Build 0)  -->
<!DOCTYPE svg PUBLIC "-//W3C//DTD SVG 1.1//EN" "http://www.w3.org/Graphics/SVG/1.1/DTD/svg11.dtd">
<svg version="1.1" id="Layer_1" xmlns="http://www.w3.org/2000/svg" xmlns:xlink="http://www.w3.org/1999/xlink" x="0px" y="0px"
	 width="264.755px" height="277.967px" viewBox="0 0 264.755 277.967" enable-background="new 0 0 264.755 277.967"
	 xml:space="preserve">
<g>
	<g id="_x35_10_x2C__Chip_x2C__cpu_x2C__microchip_x2C__processor_x2C__technology">
		<g>
			<g>
				<g>
					<g>
						<path fill="#1D56BC" d="M187.783,190.234H81.84c-0.804,0-1.611-0.808-1.611-1.611V83.081c0-0.804,0.808-1.611,1.611-1.611
							h105.542c0.804,0,1.611,0.808,1.611,1.611v105.542C188.993,189.828,188.587,190.234,187.783,190.234z M83.451,187.413h102.721
							V84.692H83.451V187.413z"/>
					</g>
					<g>
						<path fill="#1D56BC" d="M109.233,84.692c-0.808,0-1.611-0.804-1.611-1.611v-2.415L84.661,57.704
							c-0.402-0.401-0.402-0.804-0.402-1.209V29.104c0-0.804,0.804-1.611,1.611-1.611c0.804,0,1.611,0.808,1.611,1.611v27.391
							l22.962,22.961c0.401,0.406,0.401,0.808,0.401,1.21v3.223C110.845,83.888,110.443,84.692,109.233,84.692z"/>
					</g>
					<g>
						<path fill="#1D56BC" d="M122.929,84.692c-0.804,0-1.611-0.804-1.611-1.611v-5.638L98.355,54.481
							c-0.401-0.402-0.401-0.804-0.401-1.206v-5.239c0-0.804,0.804-1.612,1.611-1.612c0.804,0,1.611,0.809,1.611,1.612v4.834
							l22.962,22.962c0.401,0.401,0.401,0.808,0.401,1.209v6.445C124.54,83.888,123.732,84.692,122.929,84.692z"/>
					</g>
					<g>
						<path fill="#1D56BC" d="M105.203,60.123c-0.401,0-0.804,0-1.205-0.405c-0.406-0.402-0.406-1.611,0-2.014l9.263-9.263V36.759
							c0-0.808,0.808-1.611,1.611-1.611c0.808,0,1.611,0.804,1.611,1.611v12.084c0,0.401,0,0.804-0.402,1.209l-9.668,9.665
							C106.011,60.123,105.609,60.123,105.203,60.123z"/>
					</g>
					<g>
						<path fill="#1D56BC" d="M134.61,84.692c-0.804,0-1.611-0.804-1.611-1.611V30.715c0-0.804,0.808-1.611,1.611-1.611
							s1.611,0.808,1.611,1.611v52.365C136.222,83.888,135.414,84.692,134.61,84.692z"/>
					</g>
					<g>
						<path fill="#1D56BC" d="M134.61,70.193c-0.401,0-0.804,0-1.209-0.405l-9.669-9.665c-0.401-0.405-0.401-0.808-0.401-1.209
							V39.174c0-0.804,0.808-1.611,1.611-1.611c0.808,0,1.611,0.808,1.611,1.611v18.932l9.267,9.267
							c0.401,0.401,0.401,1.611,0,2.013C135.414,70.193,135.013,70.193,134.61,70.193z"/>
					</g>
					<g>
						<path fill="#1D56BC" d="M86.272,30.314c-3.224,0-6.044-2.821-6.044-6.044s2.82-6.04,6.044-6.04
							c3.223,0,6.043,2.817,6.043,6.04C91.91,27.894,89.495,30.314,86.272,30.314z M86.272,21.855c-1.611,0-2.821,1.205-2.821,2.816
							s1.21,2.821,2.821,2.821s2.82-1.21,2.82-2.821S87.884,21.855,86.272,21.855z"/>
					</g>
					<g>
						<path fill="#1D56BC" d="M114.872,38.371c-3.223,0-6.04-2.821-6.04-6.044s2.817-6.044,6.04-6.044s6.043,2.821,6.043,6.044
							C120.915,35.952,118.095,38.371,114.872,38.371z M114.872,29.506c-1.611,0-2.821,1.209-2.821,2.82s1.21,2.821,2.821,2.821
							s2.82-1.21,2.82-2.821C117.692,31.118,116.483,29.506,114.872,29.506z"/>
					</g>
					<g>
						<path fill="#1D56BC" d="M134.61,32.327c-3.223,0-6.044-2.82-6.044-6.044c0-3.223,2.821-6.039,6.044-6.039
							s6.044,2.816,6.044,6.039C140.654,29.506,137.833,32.327,134.61,32.327z M134.61,23.466c-1.611,0-2.82,1.205-2.82,2.816
							s1.209,2.821,2.82,2.821s2.821-1.21,2.821-2.821S136.222,23.466,134.61,23.466z"/>
					</g>
					<g>
						<path fill="#1D56BC" d="M159.987,84.692c-0.804,0-1.611-0.804-1.611-1.611v-3.219c0-0.406,0-0.808,0.402-1.21l22.961-22.962
							V29.104c0-0.804,0.808-1.611,1.611-1.611c0.809,0,1.611,0.401,1.611,1.611V56.9c0,0.402,0,0.804-0.401,1.206l-22.962,22.961
							v2.419C161.599,83.888,160.795,84.692,159.987,84.692z"/>
					</g>
					<g>
						<path fill="#1D56BC" d="M146.292,84.692c-0.804,0-1.611-0.804-1.611-1.611v-6.441c0-0.406,0-0.808,0.402-1.21l22.962-22.962
							v-4.834c0-0.804,0.808-1.611,1.611-1.611c0.808,0,1.611,0.808,1.611,1.611v5.642c0,0.402,0,0.804-0.402,1.206l-22.962,22.962
							v5.638C147.903,83.888,147.1,84.692,146.292,84.692z"/>
					</g>
					<g>
						<path fill="#1D56BC" d="M164.42,60.123c-0.402,0-0.808,0-1.21-0.405l-9.668-9.665c-0.402-0.405-0.402-0.808-0.402-1.209
							V36.759c0-0.808,0.808-1.611,1.611-1.611c0.808,0,1.611,0.804,1.611,1.611v11.682l9.267,9.263
							c0.402,0.402,0.402,1.611,0,2.014C165.224,60.123,164.821,60.123,164.42,60.123z"/>
					</g>
					<g>
						<path fill="#1D56BC" d="M183.351,30.314c-3.223,0-6.039-2.821-6.039-6.044s2.816-6.04,6.039-6.04
							c3.224,0,6.044,2.817,6.044,6.04S186.574,30.314,183.351,30.314z M183.351,21.855c-1.611,0-2.816,1.205-2.816,2.816
							s1.205,2.821,2.816,2.821s2.821-1.21,2.821-2.821S184.962,21.855,183.351,21.855z"/>
					</g>
					<g>
						<path fill="#1D56BC" d="M154.751,38.371c-3.223,0-6.039-2.821-6.039-6.044s2.816-6.044,6.039-6.044
							c3.224,0,6.044,2.821,6.044,6.044C160.39,35.952,157.975,38.371,154.751,38.371z M154.751,29.506
							c-1.611,0-2.82,1.209-2.82,2.82s1.209,2.821,2.82,2.821s2.821-1.21,2.821-2.821C157.572,31.118,156.362,29.506,154.751,29.506
							z"/>
					</g>
					<g>
						<path fill="#1D56BC" d="M222.829,172.508h-5.236c-0.402,0-0.808,0-1.21-0.402l-22.962-22.961h-5.638
							c-0.808,0-1.611-0.804-1.611-1.612c0-0.804,0.804-1.611,1.611-1.611h6.446c0.401,0,0.804,0,1.205,0.402l22.962,22.962h4.834
							c0.808,0,1.611,0.808,1.611,1.611C224.842,171.705,223.633,172.508,222.829,172.508z"/>
					</g>
					<g>
						<path fill="#1D56BC" d="M211.95,166.871c-0.401,0-0.804,0-1.205-0.406c-0.406-0.402-0.406-1.611,0-2.014l9.664-9.668
							c0.406-0.402,0.809-0.402,1.21-0.402h12.084c0.808,0,1.611,0.808,1.611,1.611c0,0.809-0.804,1.612-1.611,1.612h-11.678
							l-8.865,8.86C212.759,166.871,212.356,166.871,211.95,166.871z"/>
					</g>
					<g>
						<path fill="#1D56BC" d="M239.747,137.462h-52.365c-0.808,0-1.611-0.804-1.611-1.611c0-0.804,0.804-1.611,1.611-1.611h52.365
							c0.808,0,1.611,0.808,1.611,1.611C241.358,137.061,240.956,137.462,239.747,137.462z"/>
					</g>
					<g>
						<path fill="#1D56BC" d="M231.288,147.131h-19.739c-0.402,0-0.804,0-1.21-0.402l-9.263-9.668c-0.401-0.402-0.401-1.611,0-2.014
							c0.402-0.405,1.612-0.405,2.014,0l9.267,9.263h18.932c0.804,0,1.611,0.808,1.611,1.611
							C232.899,146.729,232.092,147.131,231.288,147.131z"/>
					</g>
					<g>
						<path fill="#1D56BC" d="M238.135,161.634c-3.223,0-6.043-2.821-6.043-6.044s2.82-6.044,6.043-6.044
							c3.224,0,6.044,2.821,6.044,6.044C244.179,159.215,241.358,161.634,238.135,161.634z M238.135,153.175
							c-1.611,0-2.82,1.205-2.82,2.816c0,1.612,1.209,2.821,2.82,2.821c1.612,0,2.821-1.209,2.821-2.821
							C240.956,154.38,239.747,153.175,238.135,153.175z"/>
					</g>
					<g>
						<path fill="#1D56BC" d="M244.179,141.895c-3.223,0-6.044-2.82-6.044-6.044c0-3.223,2.821-6.043,6.044-6.043
							s6.04,2.82,6.04,6.043C250.219,139.476,247.401,141.895,244.179,141.895z M244.179,133.436c-1.611,0-2.82,1.206-2.82,2.817
							s1.209,2.821,2.82,2.821s2.817-1.21,2.817-2.821S245.79,133.436,244.179,133.436z"/>
					</g>
					<g>
						<path fill="#1D56BC" d="M194.229,125.781h-6.446c-0.808,0-1.611-0.808-1.611-1.611s0.804-1.611,1.611-1.611h5.638
							l22.962-22.962c0.402-0.401,0.808-0.401,1.21-0.401h5.236c0.804,0,1.611,0.808,1.611,1.611c0,0.808-0.808,1.611-1.611,1.611
							h-4.835l-22.961,22.962C194.631,125.781,194.631,125.781,194.229,125.781z"/>
					</g>
					<g>
						<path fill="#1D56BC" d="M233.703,117.724h-12.084c-0.401,0-0.804,0-1.21-0.402l-9.664-9.668c-0.406-0.402-0.406-1.611,0-2.014
							c0.401-0.401,1.611-0.401,2.014,0l9.267,9.267h11.678c0.808,0,1.611,0.804,1.611,1.607
							C235.314,116.92,234.511,117.724,233.703,117.724z"/>
					</g>
					<g>
						<path fill="#1D56BC" d="M238.135,122.157c-3.223,0-6.043-2.821-6.043-6.044s2.82-6.04,6.043-6.04
							c3.224,0,6.044,2.817,6.044,6.04S241.358,122.157,238.135,122.157z M238.135,113.295c-1.611,0-2.82,1.206-2.82,2.817
							s1.209,2.82,2.82,2.82c1.612,0,2.821-1.209,2.821-2.82S239.747,113.295,238.135,113.295z"/>
					</g>
					<g>
						<path fill="#1D56BC" d="M167.643,176.535h-2.419c-0.804,0-1.611-0.804-1.611-1.611c0-0.804,0.808-1.607,1.611-1.607h2.419
							c0.804,0,1.611,0.804,1.611,1.607C169.254,175.731,168.446,176.535,167.643,176.535z M155.961,176.535h-2.419
							c-0.804,0-1.611-0.804-1.611-1.611c0-0.804,0.808-1.607,1.611-1.607h2.419c0.804,0,1.611,0.804,1.611,1.607
							C157.572,175.731,156.765,176.535,155.961,176.535z M144.279,176.535h-2.419c-0.804,0-1.611-0.804-1.611-1.611
							c0-0.804,0.808-1.607,1.611-1.607h2.419c0.804,0,1.611,0.804,1.611,1.607C145.891,175.731,145.488,176.535,144.279,176.535z
							 M132.999,176.535h-2.415c-0.808,0-1.611-0.804-1.611-1.611c0-0.804,0.804-1.607,1.611-1.607h2.415
							c0.808,0,1.611,0.804,1.611,1.607C134.61,175.731,133.807,176.535,132.999,176.535z M121.317,176.535h-2.415
							c-0.808,0-1.611-0.804-1.611-1.611c0-0.804,0.804-1.607,1.611-1.607h2.415c0.808,0,1.611,0.804,1.611,1.607
							C122.929,175.731,122.125,176.535,121.317,176.535z M109.636,176.535h-2.415c-0.808,0-1.611-0.804-1.611-1.611
							c0-0.804,0.804-1.607,1.611-1.607h2.415c0.808,0,1.611,0.804,1.611,1.607C111.247,175.731,110.443,176.535,109.636,176.535z
							 M97.954,176.535h-2.415c-0.808,0-1.611-0.804-1.611-1.611l0,0c0-0.804,0.804-1.607,1.611-1.607h0.401h2.014
							c0.808,0,1.611,0.804,1.611,1.607C99.565,175.731,99.163,176.535,97.954,176.535z M173.683,173.717
							c-0.804,0-1.611-0.808-1.611-1.611v-2.419c0-0.804,0.808-1.611,1.611-1.611c0.808,0,1.611,0.808,1.611,1.611v2.419
							C175.294,172.91,174.49,173.717,173.683,173.717z M95.539,167.272c-0.808,0-1.611-0.808-1.611-1.611v-2.419
							c0-0.804,0.804-1.607,1.611-1.607c0.804,0,1.611,0.804,1.611,1.607v2.419C97.15,166.464,96.744,167.272,95.539,167.272z
							 M173.683,162.036c-0.804,0-1.611-0.808-1.611-1.611v-2.419c0-0.804,0.808-1.611,1.611-1.611c0.808,0,1.611,0.808,1.611,1.611
							v2.419C175.294,161.228,174.49,162.036,173.683,162.036z M95.539,155.59c-0.808,0-1.611-0.808-1.611-1.611v-2.419
							c0-0.804,0.804-1.607,1.611-1.607c0.804,0,1.611,0.804,1.611,1.607v2.419C97.15,155.188,96.744,155.59,95.539,155.59z
							 M173.683,150.354c-0.804,0-1.611-0.808-1.611-1.611v-2.419c0-0.804,0.808-1.611,1.611-1.611c0.808,0,1.611,0.808,1.611,1.611
							v2.419C175.294,149.546,174.49,150.354,173.683,150.354z M95.539,144.31c-0.808,0-1.611-0.804-1.611-1.611v-2.415
							c0-0.808,0.804-1.611,1.611-1.611c0.804,0,1.611,0.804,1.611,1.611v2.415C97.15,143.506,96.744,144.31,95.539,144.31z
							 M173.683,138.672c-0.804,0-1.611-0.808-1.611-1.611v-2.419c0-0.804,0.808-1.611,1.611-1.611c0.808,0,1.611,0.808,1.611,1.611
							v2.419C175.294,138.27,174.49,138.672,173.683,138.672z M95.539,132.628c-0.808,0-1.611-0.804-1.611-1.611v-2.415
							c0-0.808,0.804-1.611,1.611-1.611c0.804,0,1.611,0.804,1.611,1.611v2.415C97.15,131.825,96.744,132.628,95.539,132.628z
							 M173.683,127.392c-0.804,0-1.611-0.804-1.611-1.611v-2.415c0-0.808,0.808-1.611,1.611-1.611c0.808,0,1.611,0.804,1.611,1.611
							v2.415C175.294,126.588,174.49,127.392,173.683,127.392z M95.539,120.947c-0.808,0-1.611-0.804-1.611-1.611v-2.415
							c0-0.808,0.804-1.611,1.611-1.611c0.804,0,1.611,0.804,1.611,1.611v2.415C97.15,120.143,96.744,120.947,95.539,120.947z
							 M173.683,115.71c-0.804,0-1.611-0.804-1.611-1.611v-2.415c0-0.808,0.808-1.611,1.611-1.611c0.808,0,1.611,0.804,1.611,1.611
							v2.415C175.294,114.907,174.49,115.71,173.683,115.71z M95.539,109.265c-0.808,0-1.611-0.804-1.611-1.611v-2.415
							c0-0.808,0.804-1.611,1.611-1.611c0.804,0,1.611,0.804,1.611,1.611v2.415C97.15,108.863,96.744,109.265,95.539,109.265z
							 M173.683,104.029c-0.804,0-1.611-0.808-1.611-1.611v-2.415c0-0.808,0.808-1.611,1.611-1.611c0.808,0,1.611,0.804,1.611,1.611
							v2.415C175.294,103.221,174.49,104.029,173.683,104.029z M167.643,98.391h-2.419c-0.804,0-1.611-0.808-1.611-1.611
							c0-0.808,0.808-1.611,1.611-1.611h2.419c0.804,0,1.611,0.804,1.611,1.611C169.254,97.985,168.446,98.391,167.643,98.391z
							 M155.961,98.391h-2.419c-0.804,0-1.611-0.808-1.611-1.611c0-0.808,0.808-1.611,1.611-1.611h2.419
							c0.804,0,1.611,0.804,1.611,1.611C157.572,97.985,157.171,98.391,155.961,98.391z M144.681,98.391h-2.415
							c-0.808,0-1.611-0.808-1.611-1.611c0-0.808,0.804-1.611,1.611-1.611h2.415c0.808,0,1.611,0.804,1.611,1.611
							C145.891,97.985,145.488,98.391,144.681,98.391z M132.999,98.391h-2.415c-0.808,0-1.611-0.808-1.611-1.611
							c0-0.808,0.804-1.611,1.611-1.611h2.415c0.808,0,1.611,0.804,1.611,1.611C134.61,97.985,133.807,98.391,132.999,98.391z
							 M121.317,98.391h-2.415c-0.808,0-1.611-0.808-1.611-1.611c0-0.808,0.804-1.611,1.611-1.611h2.415
							c0.808,0,1.611,0.804,1.611,1.611C122.929,97.985,122.125,98.391,121.317,98.391z M109.636,98.391h-2.415
							c-0.808,0-1.611-0.808-1.611-1.611c0-0.808,0.804-1.611,1.611-1.611h2.415c0.808,0,1.611,0.804,1.611,1.611
							C111.247,97.985,110.845,98.391,109.636,98.391z M98.355,98.391H95.94c-0.808,0-1.611-0.808-1.611-1.611
							c0-0.808,0.804-1.611,1.611-1.611h2.415c0.808,0,1.611,0.804,1.611,1.611C99.565,97.985,99.163,98.391,98.355,98.391z"/>
					</g>
					<g>
						<path fill="#1D56BC" d="M134.61,153.979c-10.07,0-18.127-8.058-18.127-18.128s8.057-18.127,18.127-18.127
							s18.128,8.057,18.128,18.127S144.681,153.979,134.61,153.979z M134.61,120.947c-8.459,0-14.904,6.848-14.904,14.904
							c0,8.459,6.848,14.905,14.904,14.905c8.459,0,14.905-6.848,14.905-14.905C149.917,127.794,143.069,120.947,134.61,120.947z"/>
					</g>
					<g>
						<path fill="#1D56BC" d="M52.03,172.508h-5.236c-0.804,0-1.611-0.804-1.611-1.611c0-0.804,0.808-1.611,1.611-1.611h4.835
							l22.962-22.962c0.401-0.402,0.807-0.402,1.209-0.402h6.445c0.804,0,1.611,0.808,1.611,1.611c0,0.809-0.808,1.612-1.611,1.612
							h-6.043L53.24,172.106C52.838,172.508,52.437,172.508,52.03,172.508z"/>
					</g>
					<g>
						<path fill="#1D56BC" d="M57.673,166.871c-0.402,0-0.808,0-1.21-0.406l-9.263-9.263H35.519c-0.808,0-1.611-0.808-1.611-1.611
							c0-0.808,0.804-1.611,1.611-1.611h12.084c0.401,0,0.804,0,1.209,0.401l9.665,9.669c0.405,0.401,0.405,1.611,0,2.013
							C58.477,166.871,58.074,166.871,57.673,166.871z"/>
					</g>
					<g>
						<path fill="#1D56BC" d="M81.84,137.462H29.475c-0.808,0-1.611-0.804-1.611-1.611c0-0.804,0.804-1.611,1.611-1.611H81.84
							c0.808,0,1.611,0.808,1.611,1.611C83.451,137.061,82.647,137.462,81.84,137.462z"/>
					</g>
					<g>
						<path fill="#1D56BC" d="M57.673,147.131H37.934c-0.804,0-1.611-0.808-1.611-1.611c0-0.808,0.808-1.611,1.611-1.611h18.932
							l9.267-9.267c0.401-0.402,1.611-0.402,2.013,0c0.402,0.405,0.402,1.611,0,2.017l-9.668,9.665
							C58.477,147.131,58.074,147.131,57.673,147.131z"/>
					</g>
					<g>
						<path fill="#1D56BC" d="M31.488,161.634c-3.224,0-6.04-2.821-6.04-6.044s2.816-6.044,6.04-6.044
							c3.223,0,6.043,2.821,6.043,6.044C37.13,159.215,34.711,161.634,31.488,161.634z M31.488,153.175
							c-1.611,0-2.821,1.205-2.821,2.816c0,1.612,1.21,2.821,2.821,2.821s2.82-1.209,2.82-2.821
							C34.309,154.38,32.697,153.175,31.488,153.175z"/>
					</g>
					<g>
						<path fill="#1D56BC" d="M25.042,141.895c-3.223,0-6.039-2.82-6.039-6.044c0-3.223,2.816-6.043,6.039-6.043
							s6.044,2.82,6.044,6.043C31.086,139.476,28.265,141.895,25.042,141.895z M25.042,133.436c-1.611,0-2.816,1.206-2.816,2.817
							s1.205,2.821,2.816,2.821s2.821-1.21,2.821-2.821S26.653,133.436,25.042,133.436z"/>
					</g>
					<g>
						<path fill="#1D56BC" d="M81.84,125.781h-6.442c-0.405,0-0.807,0-1.209-0.401l-22.962-22.962h-4.834
							c-0.804,0-1.611-0.804-1.611-1.611c0-0.804,0.808-1.611,1.611-1.611h5.638c0.406,0,0.808,0,1.21,0.401l22.962,22.962h5.638
							c0.808,0,1.611,0.808,1.611,1.611S82.647,125.781,81.84,125.781z"/>
					</g>
					<g>
						<path fill="#1D56BC" d="M48.004,117.724H35.92c-0.808,0-1.611-0.804-1.611-1.611c0-0.804,0.804-1.611,1.611-1.611h11.683
							l9.263-9.263c0.405-0.406,1.611-0.406,2.017,0c0.402,0.401,0.402,1.611,0,2.013l-9.668,9.669
							C48.812,117.322,48.406,117.724,48.004,117.724z"/>
					</g>
					<g>
						<path fill="#1D56BC" d="M31.488,122.157c-3.224,0-6.04-2.821-6.04-6.044s2.816-6.04,6.04-6.04c3.223,0,6.043,2.817,6.043,6.04
							C37.13,119.335,34.711,122.157,31.488,122.157z M31.488,113.295c-1.611,0-2.821,1.206-2.821,2.817s1.21,2.82,2.821,2.82
							s2.82-1.209,2.82-2.82S32.697,113.295,31.488,113.295z"/>
					</g>
					<g>
						<path fill="#1D56BC" d="M86.272,244.612c-0.808,0-1.611-0.804-1.611-1.611v-27.792c0-0.405,0-0.808,0.401-1.209l22.962-22.962
							v-2.415c0-0.808,0.808-1.611,1.611-1.611c0.808,0,1.611,0.804,1.611,1.611v3.223c0,0.401,0,0.804-0.402,1.205l-22.961,22.962
							v27.395C87.481,243.808,87.076,244.612,86.272,244.612z"/>
					</g>
					<g>
						<path fill="#1D56BC" d="M99.565,225.681c-0.808,0-1.611-0.808-1.611-1.611v-5.236c0-0.402,0-0.808,0.401-1.21l22.962-22.961
							v-5.639c0-0.804,0.808-1.611,1.611-1.611s1.611,0.808,1.611,1.611v6.446c0,0.401,0,0.804-0.401,1.209l-22.962,22.958v4.834
							C101.177,224.874,100.369,225.681,99.565,225.681z"/>
					</g>
					<g>
						<path fill="#1D56BC" d="M114.872,236.555c-0.804,0-1.611-0.804-1.611-1.607v-11.682l-9.263-8.865
							c-0.406-0.401-0.406-1.611,0-2.013c0.401-0.402,1.611-0.402,2.013,0l9.669,9.668c0.401,0.402,0.401,0.804,0.401,1.21v12.083
							C116.483,235.751,115.68,236.555,114.872,236.555z"/>
					</g>
					<g>
						<path fill="#1D56BC" d="M134.61,242.599c-0.804,0-1.611-0.804-1.611-1.611v-52.365c0-0.808,0.808-1.611,1.611-1.611
							s1.611,0.804,1.611,1.611v52.365C136.222,241.795,135.414,242.599,134.61,242.599z"/>
					</g>
					<g>
						<path fill="#1D56BC" d="M124.942,234.14c-0.804,0-1.611-0.808-1.611-1.611V212.79c0-0.401,0-0.804,0.401-1.21l9.669-9.664
							c0.405-0.406,1.611-0.406,2.013,0c0.406,0.401,0.406,1.611,0,2.014l-9.263,9.263v18.935
							C126.554,233.333,125.75,234.14,124.942,234.14z"/>
					</g>
					<g>
						<path fill="#1D56BC" d="M86.272,253.477c-3.224,0-6.044-2.821-6.044-6.044s2.82-6.044,6.044-6.044
							c3.223,0,6.043,2.821,6.043,6.044C91.91,250.656,89.495,253.477,86.272,253.477z M86.272,244.612
							c-1.611,0-2.821,1.21-2.821,2.821s1.21,2.821,2.821,2.821s2.82-1.21,2.82-2.821S87.884,244.612,86.272,244.612z"/>
					</g>
					<g>
						<path fill="#1D56BC" d="M114.872,245.419c-3.223,0-6.04-2.82-6.04-6.043c0-3.224,2.817-6.044,6.04-6.044
							s6.043,2.82,6.043,6.044C120.915,242.599,118.095,245.419,114.872,245.419z M114.872,236.555
							c-1.611,0-2.821,1.209-2.821,2.821c0,1.611,1.21,2.82,2.821,2.82s2.82-1.209,2.82-2.82
							C117.692,237.764,116.483,236.555,114.872,236.555z"/>
					</g>
					<g>
						<path fill="#1D56BC" d="M134.61,251.459c-3.223,0-6.044-2.817-6.044-6.04s2.821-6.043,6.044-6.043s6.044,2.82,6.044,6.043
							S137.833,251.459,134.61,251.459z M134.61,242.599c-1.611,0-2.82,1.209-2.82,2.82s1.209,2.817,2.82,2.817
							s2.821-1.206,2.821-2.817S136.222,242.599,134.61,242.599z"/>
					</g>
					<g>
						<path fill="#1D56BC" d="M183.351,244.612c-0.804,0-1.611-0.804-1.611-1.611v-27.39l-22.961-22.962
							c-0.402-0.402-0.402-0.804-0.402-1.21v-3.219c0-0.808,0.808-1.611,1.611-1.611c0.808,0,1.611,0.804,1.611,1.611v2.415
							l22.962,22.962c0.401,0.402,0.401,0.804,0.401,1.206v27.796C184.962,243.808,184.159,244.612,183.351,244.612z"/>
					</g>
					<g>
						<path fill="#1D56BC" d="M170.058,225.681c-0.804,0-1.611-0.808-1.611-1.611v-4.835l-22.958-22.961
							c-0.405-0.402-0.405-0.804-0.405-1.206v-6.445c0-0.808,0.808-1.611,1.611-1.611c0.808,0,1.611,0.804,1.611,1.611v5.638
							l22.962,22.962c0.401,0.401,0.401,0.804,0.401,1.209v5.236C171.268,224.874,170.865,225.681,170.058,225.681z"/>
					</g>
					<g>
						<path fill="#1D56BC" d="M154.751,236.555c-0.804,0-1.611-0.804-1.611-1.607V222.86c0-0.401,0-0.804,0.402-1.205l9.668-9.669
							c0.402-0.406,1.611-0.406,2.014,0c0.405,0.402,0.405,1.611,0,2.014l-9.263,9.267v11.682
							C155.961,235.751,155.559,236.555,154.751,236.555z"/>
					</g>
					<g>
						<path fill="#1D56BC" d="M183.351,253.477c-3.223,0-6.039-2.821-6.039-6.044s2.816-6.044,6.039-6.044
							c3.224,0,6.044,2.821,6.044,6.044S186.574,253.477,183.351,253.477z M183.351,244.612c-1.611,0-2.816,1.21-2.816,2.821
							s1.205,2.821,2.816,2.821s2.821-1.21,2.821-2.821S184.962,244.612,183.351,244.612z"/>
					</g>
					<g>
						<path fill="#1D56BC" d="M154.751,245.419c-3.223,0-6.039-2.82-6.039-6.043c0-3.224,2.816-6.044,6.039-6.044
							c3.224,0,6.044,2.82,6.044,6.044C160.39,242.599,157.975,245.419,154.751,245.419z M154.751,236.555
							c-1.611,0-2.82,1.209-2.82,2.821c0,1.611,1.209,2.82,2.82,2.82s2.821-1.209,2.821-2.82
							C157.572,237.764,156.362,236.555,154.751,236.555z"/>
					</g>
				</g>
			</g>
		</g>
	</g>
	<g id="Layer_1_00000165207575005853808280000017868161271953489545_">
	</g>
</g>
<g>
</g>
<g>
</g>
<g>
</g>
<g>
</g>
<g>
</g>
<g>
</g>
<g>
</g>
<g>
</g>
<g>
</g>
<g>
</g>
<g>
</g>
<g>
</g>
<g>
</g>
<g>
</g>
<g>
</g>
</svg>
