<?xml version="1.0" encoding="utf-8"?>
<!-- Generator: Adobe Illustrator 16.0.0, SVG Export Plug-In . SVG Version: 6.00 Build 0)  -->
<!DOCTYPE svg PUBLIC "-//W3C//DTD SVG 1.1//EN" "http://www.w3.org/Graphics/SVG/1.1/DTD/svg11.dtd">
<svg version="1.1" id="Layer_2" xmlns="http://www.w3.org/2000/svg" xmlns:xlink="http://www.w3.org/1999/xlink" x="0px" y="0px"
	 width="262.85px" height="250.232px" viewBox="0 0 262.85 250.232" enable-background="new 0 0 262.85 250.232"
	 xml:space="preserve">
<g>
	<g>
		<g id="_x33_75_x2C__secure_x2C__protection_x2C__safe_x2C__system_x2C__data">
			<g>
				<g>
					<g>
						<g>
							<path fill="#1D56BC" d="M172.614,224.814H35.248c-0.781,0-1.56-0.771-1.56-1.541c0-0.766,0.778-1.537,1.56-1.537h137.366
								c0.777,0,1.555,0.771,1.555,1.537C174.169,224.042,173.392,224.814,172.614,224.814z"/>
						</g>
						<g>
							<path fill="#1D56BC" d="M210.749,232.891h-94.95c-0.777,0-1.555-0.768-1.555-1.537c0-0.771,0.777-1.541,1.555-1.541h94.95
								c0.777,0,1.555,0.77,1.555,1.541C212.304,232.506,211.526,232.891,210.749,232.891z"/>
						</g>
						<g>
							<path fill="#1D56BC" d="M232.152,232.891h-11.671c-0.777,0-1.559-0.768-1.559-1.537c0-0.771,0.781-1.541,1.559-1.541h11.671
								c0.781,0,1.559,0.77,1.559,1.541C233.711,232.506,233.318,232.891,232.152,232.891z"/>
						</g>
						<g>
							<path fill="#1D56BC" d="M74.938,232.891H29.797c-0.777,0-1.556-0.768-1.556-1.537c0-0.771,0.778-1.541,1.556-1.541h45.141
								c0.781,0,1.56,0.77,1.56,1.541C76.497,232.124,75.719,232.891,74.938,232.891z"/>
						</g>
					</g>
				</g>
			</g>
		</g>
		<g id="Layer_1_00000138535634840465645110000012753708858995341961_">
		</g>
	</g>
</g>
<path fill="#1D56BC" d="M129.146,197.273l-4.273-2.402c-29.848-16.771-65.429-45.528-65.429-87.274V44.63l5.637-2.277
	c38.077-15.385,60.058-23.186,65.333-23.186c8.082,0,40.735,13.584,66.704,24.979l5.392,2.365v63.902
	c0,47.7-66.207,83.094-69.025,84.577L129.146,197.273z M62.823,46.909v60.688c0,40.112,34.642,67.998,63.703,84.328l2.672,1.501
	l2.712-1.427c2.745-1.445,67.219-35.904,67.219-81.586V48.719l-3.369-1.479c-35.766-15.693-59.583-24.694-65.347-24.694
	c-2.724,0-14.669,2.98-64.067,22.94L62.823,46.909z M129.316,180.547l-0.854-0.502c-24.807-14.578-54.375-38.981-54.375-72.448
	V54.512l1.062-0.425c22.604-9.055,49.475-19.245,55.059-20.224l0.266-0.046l0.266,0.038c5.773,0.827,32.596,11.587,56.107,21.788
	l1.018,0.441v54.329c0,33.275-44.158,61.711-57.692,69.634L129.316,180.547z M77.468,56.799v50.798
	c0,31.492,27.988,54.846,51.852,69.03c14.047-8.334,55.165-35.39,55.165-66.214V58.302c-25.443-11.013-48.763-20.112-53.96-21.059
	C125.553,38.276,103.102,46.551,77.468,56.799z"/>
</svg>
