<?xml version="1.0" encoding="utf-8"?>
<!-- Generator: Adobe Illustrator 16.0.0, SVG Export Plug-In . SVG Version: 6.00 Build 0)  -->
<!DOCTYPE svg PUBLIC "-//W3C//DTD SVG 1.1//EN" "http://www.w3.org/Graphics/SVG/1.1/DTD/svg11.dtd">
<svg version="1.1" id="Layer_2" xmlns="http://www.w3.org/2000/svg" xmlns:xlink="http://www.w3.org/1999/xlink" x="0px" y="0px"
	 width="262.85px" height="250.232px" viewBox="0 0 262.85 250.232" enable-background="new 0 0 262.85 250.232"
	 xml:space="preserve">
<g>
	<g>
		<g id="_x33_75_x2C__secure_x2C__protection_x2C__safe_x2C__system_x2C__data">
			<g>
				<g>
					<g>
						<g>
							<path fill="#1D56BC" d="M173.948,224.814H36.582c-0.781,0-1.56-0.771-1.56-1.541c0-0.766,0.778-1.537,1.56-1.537h137.366
								c0.777,0,1.555,0.771,1.555,1.537C175.502,224.042,174.725,224.814,173.948,224.814z"/>
						</g>
						<g>
							<path fill="#1D56BC" d="M212.083,232.891h-94.95c-0.777,0-1.555-0.768-1.555-1.537c0-0.771,0.777-1.541,1.555-1.541h94.95
								c0.777,0,1.555,0.77,1.555,1.541C213.637,232.506,212.86,232.891,212.083,232.891z"/>
						</g>
						<g>
							<path fill="#1D56BC" d="M233.486,232.891h-11.671c-0.777,0-1.559-0.768-1.559-1.537c0-0.771,0.781-1.541,1.559-1.541h11.671
								c0.781,0,1.559,0.77,1.559,1.541C235.044,232.506,234.652,232.891,233.486,232.891z"/>
						</g>
						<g>
							<path fill="#1D56BC" d="M76.271,232.891H31.13c-0.777,0-1.556-0.768-1.556-1.537c0-0.771,0.778-1.541,1.556-1.541h45.141
								c0.781,0,1.56,0.77,1.56,1.541C77.831,232.124,77.052,232.891,76.271,232.891z"/>
						</g>
					</g>
				</g>
			</g>
		</g>
		<g id="Layer_1_00000138535634840465645110000012753708858995341961_">
		</g>
	</g>
</g>
<path fill="#1D56BC" d="M167.228,184.466c-16.396-6.91-27.714-31.912-40.644-64.035c-28.928,11.109-52.32,18.907-68.068,12.27
	c-32.142-13.546-36.56-43.967-27.064-66.497c8.219-19.502,35.77-39.703,66.12-26.911c15.182,6.398,26.049,33.149,37.45,61.805
	c29.734-11.399,55.783-20.006,73.822-12.403c34.831,14.68,31.307,49.004,23.734,66.972
	C226.839,169.283,198.972,197.845,167.228,184.466z M128.522,115.975l0.636,1.583c12.449,31.02,24.008,57.225,39.413,63.718
	c29.504,12.435,55.46-14.245,60.817-26.955c7.074-16.783,10.424-48.82-21.889-62.438c-17.15-7.228-44.237,2.052-72.833,13.058
	l-1.596,0.615l-0.633-1.591c-10.858-27.299-22.084-55.529-36.21-61.482c-28.27-11.915-53.931,6.901-61.586,25.065
	c-8.849,20.995-4.731,49.34,25.219,61.963c14.818,6.245,39.142-2.157,67.069-12.922L128.522,115.975z M171.708,173.834
	c-12.601-5.311-24.673-33.313-35.002-59.145l-0.65-1.627l1.636-0.63c26.938-10.361,52.307-19.161,66.671-13.106
	c31.876,13.435,20.24,45.557,17.583,51.859C219.178,157.753,197.261,184.604,171.708,173.834z M140.572,115.035
	c7.41,18.508,20.518,50.567,32.481,55.609c23.194,9.775,43.173-14.798,45.704-20.804c2.432-5.77,13.103-35.17-15.738-47.325
	C190.137,97.086,165.248,105.585,140.572,115.035z M62.997,122.069C34.462,110.042,36.425,84.11,42.083,70.685
	c6.341-15.044,27.594-30.628,51.007-20.76c10.17,4.286,20.419,28.313,31.801,56.919l0.646,1.626l-1.632,0.629
	C97.701,119.196,75.03,127.141,62.997,122.069z M91.747,53.114c-21.332-8.991-40.696,5.208-46.473,18.915
	c-5.159,12.241-6.949,35.885,19.068,46.851c10.588,4.462,32.753-3.196,56.686-12.382C112.538,85.171,101.166,57.084,91.747,53.114z"
	/>
</svg>
