<?xml version="1.0" encoding="utf-8"?>
<!-- Generator: Adobe Illustrator 16.0.0, SVG Export Plug-In . SVG Version: 6.00 Build 0)  -->
<!DOCTYPE svg PUBLIC "-//W3C//DTD SVG 1.1//EN" "http://www.w3.org/Graphics/SVG/1.1/DTD/svg11.dtd">
<svg version="1.1" id="Layer_1" xmlns="http://www.w3.org/2000/svg" xmlns:xlink="http://www.w3.org/1999/xlink" x="0px" y="0px"
	 width="36.85px" height="14.173px" viewBox="0 0 36.85 14.173" enable-background="new 0 0 36.85 14.173" xml:space="preserve">
<g>
	<path fill="#2B7FFF" d="M2.552,12.924c-0.256,0-0.512-0.098-0.707-0.293c-0.391-0.391-0.391-1.023,0-1.414l3.969-3.969L1.521,2.956
		c-0.391-0.391-0.391-1.023,0-1.414s1.023-0.391,1.414,0l5,5c0.391,0.391,0.391,1.023,0,1.414l-4.676,4.676
		C3.063,12.827,2.808,12.924,2.552,12.924z"/>
	<path fill="#2B7FFF" d="M16.249,12.924c-0.256,0-0.512-0.098-0.707-0.293c-0.391-0.391-0.391-1.023,0-1.414l3.969-3.969
		l-4.293-4.293c-0.391-0.391-0.391-1.023,0-1.414s1.023-0.391,1.414,0l5,5c0.391,0.391,0.391,1.023,0,1.414l-4.676,4.676
		C16.761,12.827,16.505,12.924,16.249,12.924z"/>
	<path fill="#2B7FFF" d="M29.947,12.924c-0.256,0-0.512-0.098-0.707-0.293c-0.391-0.391-0.391-1.023,0-1.414l3.969-3.969
		l-4.293-4.293c-0.391-0.391-0.391-1.023,0-1.414s1.023-0.391,1.414,0l5,5c0.391,0.391,0.391,1.023,0,1.414l-4.676,4.676
		C30.458,12.827,30.203,12.924,29.947,12.924z"/>
</g>
<g>
</g>
<g>
</g>
<g>
</g>
<g>
</g>
<g>
</g>
<g>
</g>
</svg>
