<?xml version="1.0" encoding="UTF-8"?>
<svg id="Layer_3" xmlns="http://www.w3.org/2000/svg" version="1.1" xmlns:xlink="http://www.w3.org/1999/xlink" viewBox="0 0 100 100">
  <!-- Generator: Adobe Illustrator 29.3.1, SVG Export Plug-In . SVG Version: 2.1.0 Build 151)  -->
  <defs>
    <style>
      .st0 {
        fill: #1f4b74;
      }
    </style>
  </defs>
  <circle class="st0" cx="50.9" cy="54.9" r="12.5"/>
  <path class="st0" d="M74.9,29.1h-5.2c-1.4,0-2.7-.2-3.8-1.8-2.3-3.7-3.3-6.6-6.9-6.6h-15.9c-3.4,0-4.5,1.8-6.9,5.4-1.1,1.9-2.7,2.9-4.3,2.9h-6.3c-5.7,0-10.7,5.6-10.7,11.4v29.3c0,5.7,4.9,9.5,10.7,9.5h49.1c5.7,0,10.2-3.8,10.2-9.5v-29.3c0-5.7-4.5-11.4-10.2-11.4h.1ZM50.9,74c-10.6,0-19-8.6-19-19s8.6-19,19-19,19,8.6,19,19-8.6,19-19,19ZM75.5,42.5c-1.7,0-2.9-1.4-2.9-2.9s1.4-2.9,2.9-2.9,2.9,1.4,2.9,2.9-1.4,2.9-2.9,2.9Z"/>
</svg>