<?xml version="1.0" encoding="utf-8"?>
<!-- Generator: Adobe Illustrator 16.0.0, SVG Export Plug-In . SVG Version: 6.00 Build 0)  -->
<!DOCTYPE svg PUBLIC "-//W3C//DTD SVG 1.1//EN" "http://www.w3.org/Graphics/SVG/1.1/DTD/svg11.dtd">
<svg version="1.1" id="Layer_3" xmlns="http://www.w3.org/2000/svg" xmlns:xlink="http://www.w3.org/1999/xlink" x="0px" y="0px"
	 width="264.755px" height="277.967px" viewBox="0 0 264.755 277.967" enable-background="new 0 0 264.755 277.967"
	 xml:space="preserve">
<g>
	<path fill="#1D56BC" d="M115.026,243.159l-17.341-17.34l1.571-0.815c3.985-2.065,6.461-6.128,6.461-10.602
		c0-6.585-5.357-11.942-11.942-11.942c-4.474,0-8.537,2.475-10.602,6.46l-0.814,1.571L64.91,193.042l14.886-14.885
		c-3.84-2.705-6.165-7.118-6.165-11.882c0-8.014,6.52-14.533,14.532-14.533c4.765,0,9.178,2.324,11.883,6.166l14.887-14.887
		l16.914,16.915l-1.513,0.83c-3.826,2.102-6.202,6.115-6.202,10.473c0,6.585,5.357,11.942,11.942,11.942
		c4.357,0,8.37-2.376,10.473-6.203l0.83-1.512l17.67,17.671l-14.739,14.739c4.084,2.671,6.557,7.179,6.557,12.138
		c0,8.013-6.519,14.532-14.532,14.532c-4.958,0-9.466-2.473-12.137-6.558L115.026,243.159z M101.943,226.413l13.083,13.084
		l15.812-15.813l0.8,1.616c2.036,4.104,6.133,6.655,10.696,6.655c6.585,0,11.942-5.357,11.942-11.942
		c0-4.563-2.55-8.661-6.655-10.696l-1.616-0.801l15.38-15.379l-13.473-13.473c-2.708,3.804-7.106,6.106-11.838,6.106
		c-8.013,0-14.532-6.519-14.532-14.532c0-4.733,2.303-9.13,6.106-11.838l-12.716-12.716l-15.436,15.435l-0.827-1.525
		c-2.094-3.862-6.12-6.262-10.507-6.262c-6.585,0-11.942,5.357-11.942,11.943c0,4.386,2.399,8.412,6.261,10.506l1.525,0.827
		l-15.434,15.435l13.19,13.191c2.689-3.964,7.15-6.363,12.012-6.363c8.013,0,14.532,6.519,14.532,14.532
		C108.307,219.264,105.907,223.725,101.943,226.413z"/>
	<path fill="#1D56BC" d="M115.088,146.843l-17.34-17.34l1.57-0.815c3.985-2.065,6.461-6.128,6.461-10.602
		c0-6.585-5.358-11.943-11.942-11.943c-4.475,0-8.537,2.477-10.603,6.461l-0.814,1.571L64.972,96.727L79.857,81.84
		c-3.84-2.704-6.164-7.119-6.164-11.882c0-8.013,6.519-14.532,14.532-14.532c4.765,0,9.178,2.324,11.882,6.165l14.887-14.886
		l16.914,16.915l-1.513,0.831c-3.826,2.102-6.202,6.114-6.202,10.473c0,6.585,5.357,11.942,11.942,11.942
		c4.357,0,8.37-2.376,10.472-6.203l0.831-1.511l17.67,17.671l-14.739,14.739c4.085,2.671,6.557,7.179,6.557,12.137
		c0,8.014-6.519,14.533-14.532,14.533c-4.959,0-9.466-2.473-12.137-6.557L115.088,146.843z M102.005,130.097l13.083,13.083
		l15.811-15.812l0.801,1.616c2.035,4.105,6.133,6.655,10.695,6.655c6.585,0,11.943-5.357,11.943-11.943
		c0-4.563-2.551-8.66-6.655-10.695l-1.616-0.801l15.381-15.379l-13.473-13.473c-2.709,3.804-7.106,6.106-11.838,6.106
		c-8.013,0-14.532-6.519-14.532-14.532c0-4.733,2.302-9.131,6.106-11.839l-12.715-12.717L99.559,65.803l-0.827-1.526
		c-2.093-3.861-6.12-6.261-10.506-6.261c-6.585,0-11.942,5.357-11.942,11.942c0,4.387,2.399,8.413,6.26,10.507l1.525,0.827
		L68.634,96.727l13.191,13.19c2.688-3.964,7.149-6.364,12.012-6.364c8.013,0,14.532,6.52,14.532,14.533
		C108.369,122.948,105.969,127.409,102.005,130.097z"/>
	<path fill="#1D56BC" d="M194.23,194.901l-14.886-14.886c-2.704,3.84-7.117,6.165-11.882,6.165c-8.013,0-14.532-6.519-14.532-14.533
		c0-4.765,2.324-9.177,6.165-11.882l-14.886-14.887l16.915-16.914l0.83,1.512c2.102,3.826,6.114,6.202,10.472,6.202
		c6.585,0,11.943-5.357,11.943-11.942c0-4.357-2.376-8.37-6.203-10.473l-1.512-0.831l17.671-17.67l14.739,14.739
		c2.67-4.084,7.179-6.557,12.138-6.557c8.012,0,14.534,6.52,14.534,14.533c0,4.959-2.474,9.466-6.559,12.137l15.171,15.171
		l-17.34,17.34l-0.815-1.571c-2.065-3.985-6.128-6.461-10.601-6.461c-6.587,0-11.943,5.358-11.943,11.943
		c0,4.474,2.475,8.536,6.461,10.602l1.57,0.815L194.23,194.901z M178.796,175.804l15.434,15.435l13.191-13.191
		c-3.964-2.688-6.363-7.149-6.363-12.011c0-8.013,6.518-14.533,14.533-14.533c4.859,0,9.321,2.4,12.011,6.364l13.082-13.083
		l-15.812-15.812l1.617-0.801c4.105-2.035,6.655-6.132,6.655-10.695c0-6.585-5.359-11.943-11.943-11.943
		c-4.562,0-8.661,2.55-10.696,6.655l-0.801,1.616l-15.38-15.38l-13.473,13.473c3.804,2.708,6.106,7.106,6.106,11.838
		c0,8.013-6.519,14.532-14.532,14.532c-4.732,0-9.13-2.302-11.839-6.106l-12.716,12.715l15.436,15.437l-1.526,0.827
		c-3.862,2.094-6.261,6.12-6.261,10.506c0,6.586,5.357,11.943,11.942,11.943c4.387,0,8.413-2.399,10.507-6.261L178.796,175.804z"/>
	<path fill="#1D56BC" d="M66.803,195.127l-14.886-14.885c-2.705,3.84-7.118,6.165-11.883,6.165c-8.013,0-14.533-6.52-14.533-14.533
		c0-4.765,2.325-9.178,6.166-11.882l-14.887-14.887l16.915-16.914l0.831,1.512c2.102,3.826,6.115,6.202,10.472,6.202
		c6.585,0,11.942-5.357,11.942-11.943c0-4.356-2.376-8.369-6.203-10.472l-1.511-0.831l17.671-17.67l14.739,14.739
		c2.67-4.084,7.178-6.557,12.137-6.557c8.013,0,14.532,6.519,14.532,14.533c0,4.958-2.473,9.466-6.557,12.137l15.17,15.171
		l-17.341,17.34l-0.814-1.571c-2.065-3.985-6.128-6.461-10.602-6.461c-6.585,0-11.942,5.357-11.942,11.943
		c0,4.474,2.476,8.537,6.461,10.602l1.57,0.815L66.803,195.127z M51.369,176.03l15.435,15.436l13.19-13.191
		c-3.964-2.688-6.364-7.15-6.364-12.012c0-8.014,6.52-14.533,14.533-14.533c4.862,0,9.323,2.4,12.012,6.364l13.083-13.083
		L97.445,129.2l1.616-0.801c4.105-2.035,6.655-6.132,6.655-10.695c0-6.586-5.357-11.943-11.942-11.943
		c-4.563,0-8.661,2.55-10.696,6.655l-0.801,1.616l-15.379-15.38l-13.473,13.473c3.804,2.708,6.106,7.105,6.106,11.837
		c0,8.014-6.52,14.533-14.532,14.533c-4.733,0-9.13-2.302-11.839-6.106l-12.716,12.715l15.436,15.437l-1.526,0.827
		c-3.862,2.094-6.261,6.12-6.261,10.506c0,6.585,5.357,11.943,11.942,11.943c4.387,0,8.413-2.398,10.507-6.261L51.369,176.03z"/>
</g>
<g>
</g>
<g>
</g>
<g>
</g>
<g>
</g>
<g>
</g>
<g>
</g>
<g>
</g>
<g>
</g>
<g>
</g>
<g>
</g>
<g>
</g>
<g>
</g>
<g>
</g>
<g>
</g>
<g>
</g>
</svg>
