<?xml version="1.0" encoding="utf-8"?>
<!-- Generator: Adobe Illustrator 16.0.0, SVG Export Plug-In . SVG Version: 6.00 Build 0)  -->
<!DOCTYPE svg PUBLIC "-//W3C//DTD SVG 1.1//EN" "http://www.w3.org/Graphics/SVG/1.1/DTD/svg11.dtd">
<svg version="1.1" id="Layer_1" xmlns="http://www.w3.org/2000/svg" xmlns:xlink="http://www.w3.org/1999/xlink" x="0px" y="0px"
	 width="226.771px" height="467.716px" viewBox="0 0 226.771 467.716" enable-background="new 0 0 226.771 467.716"
	 xml:space="preserve">
<path fill="none" stroke="#0BB2C0" stroke-miterlimit="10" d="M218.492,447.351c0,7.727-6.346,13.989-14.174,13.989H17.996
	c-7.826,0-14.172-6.263-14.172-13.989V19.984c0-7.726,6.346-13.989,14.172-13.989h186.322c7.828,0,14.174,6.263,14.174,13.989
	V447.351z"/>
<g>
	<path fill="#0BB2C0" d="M73.069,240.622h-5.484v8.227h-2.531v-8.227h-5.643v8.227h-2.584v-8.227h-5.379v-2.057h21.621V240.622z
		 M70.617,231.34c0,3.137-3.428,5.141-8.411,5.116c-5.01,0.025-8.411-1.979-8.411-5.116c0-3.19,3.401-5.221,8.411-5.221
		C67.189,226.119,70.617,228.149,70.617,231.34z M56.378,231.34c-0.026,1.925,2.32,3.137,5.827,3.137s5.854-1.212,5.854-3.137
		c0-1.978-2.347-3.19-5.854-3.217C58.699,228.149,56.352,229.362,56.378,231.34z"/>
	<path fill="#0BB2C0" d="M94.505,242.651H92v-6.143h-5.854c-1.121,1.331-2.834,2.135-4.799,2.135c-3.56,0-6.196-2.479-6.196-5.958
		c0-3.507,2.637-5.985,6.196-6.012c1.951,0.013,3.652,0.817,4.772,2.136H92v-3.56h2.505V242.651z M77.551,232.685
		c0,2.242,1.582,3.744,3.797,3.744c2.136,0,3.744-1.502,3.744-3.744c0-2.241-1.608-3.771-3.744-3.771
		C79.133,228.914,77.551,230.443,77.551,232.685z M95.138,248.346H79.16v-7.514h2.505v5.484h13.474V248.346z M87.492,232.685
		c0,0.633-0.092,1.239-0.264,1.792H92v-3.638h-4.772C87.386,231.406,87.492,232.025,87.492,232.685z"/>
	<path fill="#0BB2C0" d="M112.25,236.192l-1.371,1.951c-2.597-0.937-4.509-2.756-5.537-5.116c-1.028,2.703-3.085,4.799-5.933,5.827
		l-1.345-2.004c3.771-1.291,5.959-4.429,5.985-7.989v-2.32h2.479v2.215C106.529,232.078,108.665,235.032,112.25,236.192z
		 M117.919,244.338c0,2.848-3.031,4.482-7.989,4.457c-4.957,0.025-8.016-1.609-7.989-4.457c-0.026-2.873,3.032-4.508,7.989-4.508
		C114.888,239.831,117.919,241.465,117.919,244.338z M104.419,244.338c0,1.582,2.057,2.479,5.511,2.479
		c3.454,0,5.51-0.896,5.51-2.479c0-1.635-2.057-2.557-5.51-2.557C106.476,241.782,104.419,242.704,104.419,244.338z M117.841,239.17
		h-2.506v-7.092h-4.983v-2.057h4.983v-4.799h2.506V239.17z"/>
	<path fill="#0BB2C0" d="M140.542,236.428H129.31v-9.703h11.232V236.428z M148.188,242.151h-6.908
		c0.172,2.057,3.455,4.205,7.752,4.693l-0.844,1.924c-3.704-0.435-6.75-2.029-8.174-4.113c-1.449,2.109-4.561,3.652-8.279,4.113
		l-0.869-1.924c4.297-0.409,7.659-2.584,7.83-4.693h-6.881v-1.898h6.934v-2.215h2.479v2.215h6.961V242.151z M131.763,234.477h6.301
		v-5.748h-6.301V234.477z M147.636,238.723h-2.479v-13.5h2.479V238.723z"/>
	<path fill="#0BB2C0" d="M61.125,262.5H54.77v10.942c2.9-0.026,5.089-0.158,7.62-0.633l0.185,2.057
		c-2.848,0.58-5.273,0.686-8.728,0.712h-1.582V260.47h8.859V262.5z M71.75,281.248h-2.399V269.04h-3.059v10.995h-2.294v-21.938
		h2.294v8.886h3.059v-9.36h2.399V281.248z"/>
	<path fill="#0BB2C0" d="M96.351,270.964H74.809v-2.004h21.542V270.964z M94.004,262.738c0,2.821-3.27,4.509-8.438,4.509
		s-8.438-1.688-8.438-4.509s3.27-4.535,8.438-4.562C90.735,258.203,94.004,259.917,94.004,262.738z M93.714,277.002
		c0,2.742-3.059,4.245-8.147,4.245c-5.142,0-8.2-1.503-8.2-4.245s3.059-4.271,8.2-4.245
		C90.656,272.731,93.714,274.26,93.714,277.002z M79.713,262.738c-0.026,1.635,2.215,2.558,5.854,2.558
		c3.612,0,5.854-0.923,5.854-2.558s-2.241-2.558-5.854-2.558C81.928,260.18,79.687,261.103,79.713,262.738z M79.898,277.002
		c0,1.477,2.057,2.294,5.669,2.294c3.56,0,5.643-0.817,5.643-2.294c0-1.529-2.083-2.347-5.643-2.347
		C81.955,274.656,79.898,275.473,79.898,277.002z"/>
	<path fill="#0BB2C0" d="M109.403,265.928h-7.805v3.27c4.113,0.014,6.354-0.079,9.018-0.58l0.237,2.03
		c-2.874,0.501-5.3,0.58-10.02,0.58H99.12v-7.198h7.778v-2.979h-7.805v-2.004h10.31V265.928z M117.841,281.274h-2.506v-5.88h-13.526
		v-2.03h16.032V281.274z M117.841,272.177h-2.506v-4.166h-4.429v-2.004h4.429v-2.927h-4.429v-2.004h4.429v-3.428h2.506V272.177z"/>
	<path fill="#0BB2C0" d="M129.073,271.834l-1.029-2.03c5.524-1.569,8.939-4.641,9.387-8.464h-8.332v-2.03h11.049
		C140.147,265.427,136.007,269.831,129.073,271.834z M146.897,276.554c0,2.9-3.033,4.667-7.805,4.667
		c-4.746,0-7.857-1.767-7.832-4.667c-0.025-2.874,3.086-4.641,7.832-4.641C143.864,271.914,146.897,273.68,146.897,276.554z
		 M133.739,276.554c-0.025,1.661,2.057,2.689,5.354,2.689c3.27,0,5.352-1.028,5.352-2.689s-2.082-2.663-5.352-2.663
		C135.796,273.891,133.714,274.893,133.739,276.554z M146.634,263.582h3.428v2.03h-3.428v6.038h-2.506v-14.027h2.506V263.582z"/>
	<path fill="#0BB2C0" d="M157.392,274.735v-2.399c-2.664-0.369-4.404-1.978-4.377-4.271c-0.027-2.663,2.268-4.43,5.643-4.43
		c3.348,0,5.668,1.767,5.695,4.43c-0.027,2.294-1.793,3.915-4.457,4.298v2.268c2.097-0.079,4.206-0.25,6.17-0.527l0.158,1.846
		c-5.115,0.923-10.652,0.949-14.713,0.949l-0.395-2.083C152.975,274.814,155.137,274.814,157.392,274.735z M165.724,262.421h-14.16
		v-2.004h5.828v-2.742h2.504v2.742h5.828V262.421z M155.36,268.064c0,1.503,1.318,2.426,3.297,2.426
		c1.977,0,3.295-0.923,3.295-2.426s-1.318-2.479-3.295-2.479C156.679,265.585,155.36,266.561,155.36,268.064z M169.915,267.51h3.561
		v2.109h-3.561v11.628h-2.504v-23.625h2.504V267.51z"/>
</g>
<g>
	<rect x="18.162" y="306.604" fill="none" width="185.991" height="141.395"/>
	<path d="M43.174,325.145H41.4v-5.367h-4.717v1.953h-9.052v-10.039h1.752v3.549h5.57v-3.549h1.729v2.336H41.4v-3.662h1.774V325.145z
		 M34.954,320.272v-3.639h-5.57v3.639H34.954z M43.624,329.885H30.259v-6.199h1.774v4.717h11.59V329.885z M41.4,318.317v-2.807
		h-4.717v2.807H41.4z"/>
	<path d="M64.714,321.641H46.499v-1.414h8.243v-2.336h-5.93v-6.604h13.634v1.414H50.542v3.752h12.039v1.438h-6.132v2.336h8.266
		V321.641z M62.468,326.696c-0.022,2.313-2.583,3.594-6.873,3.615c-4.313-0.021-6.896-1.303-6.896-3.615
		c0-2.291,2.583-3.594,6.896-3.594C59.885,323.102,62.446,324.405,62.468,326.696z M50.497,326.696
		c-0.022,1.393,1.887,2.201,5.099,2.201c3.167,0,5.099-0.809,5.099-2.201c0-1.371-1.932-2.201-5.099-2.201
		C52.383,324.495,50.474,325.325,50.497,326.696z"/>
	<path d="M79.471,329.301h-1.685v-9.703h-2.561c-0.191,3.885-1.842,6.311-4.313,6.311c-2.605,0-4.29-2.695-4.29-6.939
		c0-4.246,1.685-6.941,4.29-6.941c2.426,0,4.065,2.348,4.29,6.109h2.583v-7.367h1.685V329.301z M68.286,318.969
		c-0.022,3.234,1.011,5.277,2.628,5.256c1.617,0.021,2.65-2.021,2.65-5.256c0-3.258-1.033-5.279-2.65-5.279
		S68.263,315.711,68.286,318.969z M83.492,330.311h-1.707v-19.967h1.707V330.311z"/>
	<path d="M104.515,321.979H86.232v-1.438h18.283V321.979z M102.516,329.817H88.613v-5.795h1.752v4.336h12.151V329.817z
		 M102.404,317.823H88.725v-6.738h1.752v5.324h11.927V317.823z"/>
	<path d="M130.165,323.192h-4.828v7.119h-1.775v-7.119h-5.121v7.119h-1.818v-7.119h-4.74v-1.461h18.283V323.192z M128.009,315.51
		c0,2.65-2.83,4.334-7.029,4.313c-4.201,0.021-7.031-1.662-7.031-4.313c0-2.674,2.83-4.357,7.031-4.357
		C125.179,311.153,128.009,312.836,128.009,315.51z M115.769,315.51c-0.023,1.773,2.088,2.896,5.211,2.896
		c3.1,0,5.232-1.123,5.232-2.896c0-1.775-2.133-2.92-5.232-2.92C117.856,312.59,115.745,313.735,115.769,315.51z"/>
	<path d="M148.337,325.124h-1.775v-5.391h-5.166c-0.92,1.179-2.402,1.887-4.109,1.887c-2.988,0-5.189-2.066-5.189-4.986
		s2.201-4.986,5.189-5.01c1.695,0.012,3.145,0.708,4.088,1.865h5.188v-3.123h1.775V325.124z M133.782,316.633
		c0,1.998,1.459,3.414,3.504,3.414c1.953,0,3.459-1.416,3.459-3.414c0-2-1.506-3.414-3.459-3.438
		C135.241,313.219,133.782,314.633,133.782,316.633z M148.897,329.885h-13.387v-6.313h1.775v4.83h11.611V329.885z M142.452,316.633
		c0,0.584-0.102,1.134-0.27,1.639h4.379v-3.324h-4.379C142.351,315.465,142.452,316.026,142.452,316.633z"/>
	<path d="M163.431,315.016h-11.883v-1.461h5.145v-2.965h1.752v2.965h4.986V315.016z M162.487,321.26
		c-0.023,2.695-2.066,4.582-4.896,4.582c-2.854,0-4.92-1.887-4.896-4.582c-0.023-2.695,2.043-4.582,4.896-4.582
		C160.421,316.678,162.464,318.565,162.487,321.26z M154.378,321.26c-0.021,1.818,1.348,3.1,3.213,3.076
		c1.842,0.023,3.189-1.258,3.211-3.076c-0.021-1.797-1.369-3.1-3.211-3.1C155.726,318.161,154.356,319.463,154.378,321.26z
		 M167.114,318.586h3.346v1.461h-3.346v10.264h-1.752v-19.967h1.752V318.586z"/>
	<path d="M184.431,329.301h-1.684v-9.322h-4.223c-1.225,2.325-3.145,4.381-5.93,6.02l-1.033-1.279
		c4.346-2.572,6.524-6.178,6.85-10.355h-5.996v-1.459h7.748c-0.011,1.965-0.325,3.863-0.988,5.637h3.572v-7.658h1.684V329.301z
		 M188.632,330.311h-1.686v-19.967h1.686V330.311z"/>
	<path d="M192.944,333.096h-1.662l1.234-6.109h2.18L192.944,333.096z"/>
	<path d="M57.667,354.252h-5.728v9.613c2.751-0.012,4.661-0.113,6.873-0.563l0.157,1.482c-2.403,0.494-4.447,0.584-7.502,0.584
		h-1.28v-12.578h7.479V354.252z M66.517,370.311h-1.685v-10.467H61.89v9.434h-1.617v-18.484h1.617v7.592h2.942v-8.041h1.685V370.311
		z"/>
	<path d="M87.518,361.506H69.324v-1.438h18.193V361.506z M85.474,354.657c0,2.381-2.718,3.773-7.053,3.773s-7.075-1.393-7.075-3.773
		c0-2.359,2.74-3.797,7.075-3.797S85.474,352.297,85.474,354.657z M85.294,366.741c-0.022,2.313-2.583,3.57-6.873,3.57
		c-4.335,0-6.896-1.258-6.896-3.57c0-2.291,2.561-3.549,6.896-3.527C82.711,363.192,85.271,364.45,85.294,366.741z M73.165,354.657
		c-0.022,1.504,2.021,2.381,5.256,2.381c3.189,0,5.256-0.877,5.256-2.381c0-1.482-2.066-2.381-5.256-2.359
		C75.187,352.276,73.143,353.174,73.165,354.657z M73.322,366.741c-0.022,1.393,1.887,2.178,5.099,2.156
		c3.167,0.021,5.099-0.764,5.099-2.156s-1.932-2.18-5.099-2.18C75.209,364.561,73.3,365.348,73.322,366.741z"/>
	<path d="M107.396,362.315H89.202v-1.438h18.193V362.315z M105.352,355.016c0,2.492-2.763,3.975-7.053,3.975
		c-4.335,0-7.075-1.482-7.075-3.975c0-2.494,2.74-3.977,7.075-3.953C102.589,351.04,105.352,352.522,105.352,355.016z
		 M105.374,369.885H91.561v-5.818h1.774v4.336h12.039V369.885z M93.043,355.016c-0.022,1.572,2.044,2.537,5.256,2.537
		c3.189,0,5.256-0.965,5.256-2.537s-2.066-2.539-5.256-2.539C95.087,352.477,93.021,353.444,93.043,355.016z"/>
	<path d="M116.784,357.374h2.516v-5.166h1.505v13.275h-5.548v-13.275h1.527V357.374z M119.3,364v-5.211h-2.516V364H119.3z
		 M123.388,357.374h2.448v-5.166h1.505v13.275h-5.458v-13.275h1.505V357.374z M125.836,364v-5.211h-2.448V364H125.836z
		 M130.845,358.161h2.718v1.504h-2.718v10.646h-1.752v-19.967h1.752V358.161z"/>
	<path d="M153.014,367.795H134.73v-1.482h18.283V367.795z M150.7,357.913h-11.927v3.279h12.398v1.416h-14.15v-6.133h11.949v-3.145
		h-11.994v-1.459H150.7V357.913z"/>
	<path d="M167.501,369.301h-1.685v-9.322h-4.223c-1.224,2.325-3.145,4.381-5.93,6.02l-1.033-1.279
		c4.347-2.572,6.524-6.178,6.851-10.355h-5.997v-1.459h7.749c-0.012,1.965-0.326,3.863-0.988,5.637h3.571v-7.658h1.685V369.301z
		 M171.701,370.311h-1.685v-19.967h1.685V370.311z"/>
</g>
<g>
	<path fill="none" stroke="#173067" stroke-width="2" stroke-miterlimit="10" d="M76.946,113.653
		c-0.969,3.616-0.472,7.391,1.399,10.631c2.495,4.323,7.149,7.007,12.144,7.007c2.445,0,4.864-0.649,6.994-1.877l1.063-0.613
		c1.063,0.708,2.177,1.35,3.328,1.925v1.222c0,7.726,6.285,14.011,14.011,14.011c7.725,0,14.01-6.285,14.01-14.011v-1.222
		c1.151-0.575,2.263-1.218,3.329-1.925l1.062,0.613c2.126,1.229,4.547,1.877,6.994,1.877c4.994,0,9.647-2.684,12.144-7.007
		c3.862-6.689,1.563-15.275-5.129-19.137l-1.054-0.608c0.041-0.638,0.067-1.279,0.067-1.927s-0.026-1.289-0.067-1.927l1.054-0.606
		c6.691-3.862,8.991-12.449,5.129-19.139c-2.496-4.321-7.148-7.005-12.144-7.005c-2.446,0-4.865,0.649-6.994,1.877l-1.062,0.612
		c-1.066-0.708-2.178-1.349-3.329-1.926v-1.222c0-7.724-6.285-14.009-14.01-14.009c-7.726,0-14.011,6.285-14.011,14.009v1.222
		c-1.151,0.577-2.265,1.219-3.328,1.927l-1.063-0.614c-2.128-1.229-4.546-1.879-6.993-1.879c-4.995,0-9.648,2.686-12.145,7.007
		c-1.871,3.241-2.368,7.017-1.399,10.631c0.968,3.615,3.287,6.635,6.527,8.508l1.053,0.608c-0.038,0.638-0.063,1.279-0.063,1.926
		c0,0.648,0.025,1.289,0.063,1.927l-1.053,0.608C80.233,107.018,77.914,110.039,76.946,113.653z M85.618,111.038
		c0.286-0.222,0.582-0.431,0.901-0.616l3.464-2c-0.419-1.871-0.648-3.814-0.648-5.81c0-1.996,0.229-3.938,0.648-5.81l-3.464-2
		c-0.319-0.184-0.615-0.393-0.901-0.615c-1.357-1.053-2.336-2.505-2.788-4.194c-0.549-2.042-0.268-4.176,0.791-6.008
		c1.411-2.444,4.042-3.961,6.869-3.961c1.021,0,2.037,0.204,2.984,0.592c0.329,0.134,0.651,0.291,0.963,0.47l3.476,2.007
		c2.848-2.625,6.269-4.638,10.053-5.822v-3.994c0-0.374,0.034-0.736,0.085-1.097c0.537-3.847,3.841-6.822,7.834-6.822
		c3.992,0,7.296,2.975,7.833,6.822c0.051,0.36,0.085,0.723,0.085,1.097v3.994c3.784,1.185,7.205,3.198,10.053,5.822l3.474-2.005
		c0.312-0.18,0.636-0.336,0.966-0.471c0.947-0.386,1.961-0.59,2.984-0.59c2.826,0,5.457,1.516,6.867,3.96
		c1.998,3.46,1.072,7.812-1.997,10.199c-0.283,0.222-0.579,0.433-0.901,0.618l-3.462,2c0.419,1.871,0.647,3.814,0.647,5.81
		c0,1.997-0.229,3.939-0.647,5.811l3.462,1.999c0.322,0.186,0.618,0.396,0.901,0.618c3.069,2.389,3.995,6.74,1.997,10.201
		c-1.41,2.442-4.042,3.961-6.867,3.961c-1.023,0-2.037-0.204-2.984-0.592c-0.33-0.136-0.653-0.292-0.965-0.471l-3.475-2.005
		c-2.848,2.624-6.269,4.637-10.053,5.822v3.992c0,0.374-0.034,0.738-0.085,1.099c-0.537,3.847-3.841,6.82-7.833,6.82
		c-3.993,0-7.297-2.973-7.834-6.82c-0.051-0.36-0.085-0.725-0.085-1.099v-3.992c-3.784-1.185-7.205-3.198-10.053-5.824l-3.476,2.007
		c-0.312,0.179-0.634,0.335-0.963,0.471c-0.949,0.388-1.963,0.592-2.985,0.592c-2.826,0-5.457-1.519-6.868-3.961
		c-1.059-1.833-1.34-3.966-0.791-6.01C83.282,113.543,84.261,112.089,85.618,111.038z"/>
	<path fill="none" stroke="#173067" stroke-width="2" stroke-miterlimit="10" d="M159.808,136.4c-1.938,0-3.507,1.57-3.507,3.506
		v11.921c0,0.958-2.61,3.31-5.79,4.909H80.95c-3.274,0-4.784-2.706-5.259-3.797v-13.032c0-1.937-1.569-3.506-3.507-3.506
		c-1.936,0-3.506,1.57-3.506,3.506v13.674c0,0.358,0.055,0.714,0.163,1.056c1.068,3.384,4.82,9.112,12.108,9.112h70.355
		c0.501,0,0.993-0.106,1.45-0.313c1.762-0.801,10.558-5.12,10.558-11.608v-11.921C163.313,137.97,161.744,136.4,159.808,136.4z"/>
	<path fill="none" stroke="#173067" stroke-width="2" stroke-miterlimit="10" d="M113.492,119.044
		c0.67,0.616,1.521,0.923,2.371,0.923c0.849,0,1.697-0.307,2.368-0.92l12.639-11.571c1.428-1.307,1.526-3.525,0.218-4.953
		c-1.307-1.427-3.522-1.53-4.954-0.219l-6.765,6.194V88.762c0-1.937-1.569-3.506-3.506-3.506s-3.506,1.57-3.506,3.506v19.723
		l-6.729-6.177c-1.427-1.308-3.643-1.213-4.954,0.212c-1.309,1.427-1.214,3.645,0.213,4.954L113.492,119.044z"/>
</g>
<g>
</g>
<g>
</g>
<g>
</g>
<g>
</g>
<g>
</g>
<g>
</g>
</svg>
