<?xml version="1.0" encoding="utf-8"?>
<!-- Generator: Adobe Illustrator 16.0.0, SVG Export Plug-In . SVG Version: 6.00 Build 0)  -->
<!DOCTYPE svg PUBLIC "-//W3C//DTD SVG 1.1//EN" "http://www.w3.org/Graphics/SVG/1.1/DTD/svg11.dtd">
<svg version="1.1" id="Layer_1" xmlns="http://www.w3.org/2000/svg" xmlns:xlink="http://www.w3.org/1999/xlink" x="0px" y="0px"
	 width="226.771px" height="467.716px" viewBox="0 0 226.771 467.716" enable-background="new 0 0 226.771 467.716"
	 xml:space="preserve">
<path fill="none" stroke="#0BB2C0" stroke-miterlimit="10" d="M220.72,447.542c0,7.727-6.346,13.989-14.173,13.989H20.226
	c-7.828,0-14.173-6.263-14.173-13.989V20.174c0-7.726,6.346-13.989,14.173-13.989h186.321c7.827,0,14.173,6.263,14.173,13.989
	V447.542z"/>
<g>
	<path fill="#0BB2C0" d="M72.297,239.282h-9.36v4.588h-2.531v-4.588h-9.729v-2.03h21.621V239.282z M69.845,230.765
		c0,2.953-3.296,4.772-8.385,4.772c-5.063,0-8.411-1.819-8.411-4.772s3.349-4.799,8.411-4.799
		C66.549,225.966,69.845,227.812,69.845,230.765z M69.898,248.537H53.392v-6.935h2.505v4.878h14.001V248.537z M55.739,230.765
		c-0.026,1.714,2.268,2.742,5.722,2.742c3.48,0,5.748-1.028,5.748-2.742c0-1.74-2.268-2.795-5.748-2.795
		C58.006,227.97,55.712,229.025,55.739,230.765z"/>
	<path fill="#0BB2C0" d="M85.323,228.735h5.906v-3.322h2.505v13.948h-2.505v-3.19h-5.933c-1.094,1.213-2.769,1.938-4.72,1.925
		c-3.56,0.026-6.196-2.347-6.196-5.643c0-3.322,2.637-5.695,6.196-5.669C82.541,226.771,84.215,227.509,85.323,228.735z
		 M76.78,232.453c0,2.057,1.582,3.533,3.797,3.507c2.162,0.026,3.744-1.45,3.744-3.507c0-2.109-1.582-3.533-3.744-3.507
		C78.362,228.919,76.78,230.343,76.78,232.453z M93.813,244.45c0,2.874-3.085,4.562-7.989,4.535
		c-4.931,0.026-8.016-1.661-7.989-4.535c-0.026-2.9,3.059-4.562,7.989-4.562C90.728,239.888,93.813,241.549,93.813,244.45z
		 M80.287,244.45c-0.026,1.635,2.083,2.558,5.537,2.558c3.48,0,5.537-0.923,5.537-2.558c0-1.688-2.057-2.637-5.537-2.637
		C82.37,241.813,80.26,242.762,80.287,244.45z M86.72,232.453c0,0.58-0.092,1.147-0.237,1.661h4.746v-3.375h-4.772
		C86.628,231.266,86.72,231.846,86.72,232.453z"/>
	<path fill="#0BB2C0" d="M125.585,246.427h-21.621v-2.03h5.537v-4.219c-1.714-0.752-2.663-1.965-2.663-3.56
		c0-2.821,3.006-4.482,7.883-4.456c4.852-0.026,7.857,1.635,7.857,4.456c0,1.595-0.962,2.808-2.662,3.56v4.219h5.668V246.427z
		 M124.425,230.792h-19.432v-2.03h8.491v-3.006h2.479v3.006h8.463V230.792z M109.396,236.619c-0.026,1.582,1.951,2.505,5.326,2.505
		c3.322,0,5.301-0.923,5.301-2.505c0-1.608-1.979-2.531-5.301-2.531C111.347,234.087,109.37,235.01,109.396,236.619z
		 M117.464,244.397v-3.533c-0.83,0.145-1.753,0.211-2.742,0.211c-0.988,0-1.898-0.066-2.715-0.211v3.533H117.464z"/>
	<path fill="#0BB2C0" d="M148.841,237.12h-5.801v2.109h3.086v5.537h-13.764v2.109h14.422v1.925h-16.875v-5.854h13.738v-1.846
		h-13.764v-1.872h3.137v-2.109H127.3v-2.004h21.541V237.12z M146.495,229.737c0,2.637-3.111,4.087-8.438,4.087
		s-8.438-1.45-8.438-4.087c0-2.61,3.111-4.061,8.438-4.061S146.495,227.126,146.495,229.737z M132.229,229.737
		c-0.025,1.477,2.057,2.215,5.828,2.215c3.77,0,5.854-0.738,5.854-2.215c0-1.397-2.084-2.162-5.854-2.188
		C134.286,227.575,132.204,228.339,132.229,229.737z M140.536,239.229v-2.109h-5.037v2.109H140.536z"/>
	<path fill="#0BB2C0" d="M164.741,236.381l-1.371,1.951c-2.598-0.936-4.51-2.756-5.537-5.115c-1.029,2.703-3.086,4.799-5.934,5.827
		l-1.344-2.004c3.77-1.292,5.959-4.43,5.984-7.989v-2.32h2.479v2.215C159.019,232.268,161.155,235.221,164.741,236.381z
		 M170.409,244.529c0,2.848-3.031,4.482-7.988,4.456c-4.957,0.026-8.016-1.608-7.99-4.456c-0.025-2.874,3.033-4.509,7.99-4.509
		S170.409,241.655,170.409,244.529z M156.909,244.529c0,1.582,2.057,2.479,5.512,2.479c3.453,0,5.51-0.896,5.51-2.479
		c0-1.635-2.057-2.558-5.51-2.558C158.966,241.971,156.909,242.894,156.909,244.529z M170.331,239.361h-2.506v-7.093h-4.982v-2.057
		h4.982v-4.799h2.506V239.361z"/>
	<path fill="#0BB2C0" d="M69.582,260.555c0,1.779,0,4.047-0.554,7.092h3.296v2.057H50.703v-2.057h15.794
		c0.567-2.887,0.606-4.996,0.606-6.697H53.418v-2.029h16.163V260.555z M69.713,281.491h-2.505v-6.539H52.997v-1.979h16.717V281.491z
		"/>
	<path fill="#0BB2C0" d="M83.688,262.69h-6.354v10.943c2.9-0.027,5.089-0.158,7.62-0.633l0.185,2.057
		c-2.848,0.58-5.273,0.686-8.728,0.711h-1.582v-15.107h8.859V262.69z M94.314,281.438h-2.399v-12.209h-3.059v10.996h-2.294v-21.938
		h2.294v8.885h3.059v-9.359h2.399V281.438z"/>
	<path fill="#0BB2C0" d="M103.358,274.924v-2.398c-2.663-0.369-4.403-1.979-4.377-4.271c-0.026-2.664,2.268-4.43,5.643-4.43
		c3.349,0,5.669,1.766,5.695,4.43c-0.026,2.293-1.793,3.915-4.456,4.297v2.268c2.096-0.078,4.206-0.25,6.17-0.527l0.158,1.846
		c-5.115,0.924-10.652,0.949-14.713,0.949l-0.396-2.082C98.941,275.004,101.104,275.004,103.358,274.924z M111.69,262.612H97.531
		v-2.004h5.827v-2.742h2.505v2.742h5.827V262.612z M101.328,268.254c0,1.502,1.318,2.426,3.296,2.426s3.296-0.924,3.296-2.426
		c0-1.504-1.318-2.479-3.296-2.479S101.328,266.75,101.328,268.254z M115.882,267.7h3.561v2.109h-3.561v11.629h-2.504v-23.625h2.504
		V267.7z"/>
</g>
<g>
	<rect x="20.391" y="306.793" fill="none" width="185.991" height="141.395"/>
	<path d="M45.023,326.584l-0.921,1.348c-1.92-0.742-3.302-2.168-4.021-3.887c-0.741,1.91-2.167,3.605-4.133,4.447l-0.966-1.369
		c2.628-1.146,4.245-3.729,4.245-5.953v-2.717h1.685v2.717C40.913,323.372,42.463,325.618,45.023,326.584z M52.031,333.569
		c0,2.246-2.583,3.549-6.716,3.549c-4.155,0-6.716-1.303-6.693-3.549c-0.022-2.268,2.538-3.57,6.693-3.57
		C49.448,329.999,52.031,331.301,52.031,333.569z M40.374,333.569c-0.022,1.371,1.887,2.18,4.941,2.18
		c3.032,0,4.941-0.809,4.964-2.18c-0.022-1.393-1.932-2.223-4.964-2.223C42.261,331.346,40.352,332.176,40.374,333.569z
		 M51.919,329.549h-1.685v-5.504h-2.65v4.875h-1.662V317.6h1.662v4.986h2.65v-5.369h1.685V329.549z"/>
	<path d="M66.563,327.28l-0.898,1.416c-2.269-0.82-4.032-2.516-4.919-4.65c-0.842,2.393-2.65,4.234-5.009,5.145l-0.966-1.416
		c3.032-1.078,5.031-3.773,5.054-6.873v-2.471h1.729v2.539C61.532,323.709,63.621,326.247,66.563,327.28z M71.37,336.737H57.983
		v-6.199h1.797v4.717h11.59V336.737z M70.449,323.327h3.01v1.506h-3.01v7.119h-1.752v-14.756h1.752V323.327z"/>
	<path d="M86.531,326.696l-0.988,1.371c-2.201-0.832-3.931-2.449-4.784-4.561c-0.865,2.393-2.695,4.257-5.099,5.166l-0.966-1.438
		c3.077-1.078,5.121-3.729,5.144-6.828v-2.066h1.752v2C81.567,323.192,83.589,325.708,86.531,326.696z M91.338,333.389
		c0,2.381-2.538,3.729-6.693,3.729s-6.693-1.348-6.693-3.729c0-2.402,2.538-3.773,6.693-3.773S91.338,330.987,91.338,333.389z
		 M79.703,333.389c-0.022,1.438,1.887,2.314,4.941,2.314s4.941-0.877,4.941-2.314c0-1.482-1.887-2.381-4.941-2.381
		S79.681,331.907,79.703,333.389z M91.271,329.032h-1.774v-6.086h-4.447v-1.461h4.447v-4.289h1.774V329.032z"/>
	<path d="M112.788,329.167H94.595v-1.438h18.193V329.167z M110.744,321.868c0,2.492-2.763,3.975-7.053,3.975
		c-4.335,0-7.075-1.482-7.075-3.975c0-2.494,2.74-3.977,7.075-3.953C107.981,317.891,110.744,319.374,110.744,321.868z
		 M110.767,336.737H96.953v-5.818h1.774v4.336h12.039V336.737z M98.436,321.868c-0.022,1.572,2.044,2.537,5.256,2.537
		c3.189,0,5.256-0.965,5.256-2.537s-2.066-2.539-5.256-2.539C100.479,319.329,98.413,320.295,98.436,321.868z"/>
	<path d="M136.417,323.776h-6.199v2.539h8.221v1.459h-18.193v-1.459h8.221v-2.539h-5.728v-6.131h1.752v4.717h11.927V323.776z
		 M136.439,331.188h-3.1v4.268h3.257v1.438h-14.487v-1.438h3.257v-4.268h-3.077v-1.414h14.15V331.188z M131.61,335.456v-4.268
		h-4.492v4.268H131.61z"/>
	<path d="M153.016,336.153h-1.685v-9.322h-4.223c-1.225,2.325-3.145,4.381-5.93,6.02l-1.033-1.279
		c4.346-2.572,6.525-6.178,6.851-10.355h-5.997v-1.459h7.749c-0.011,1.965-0.325,3.863-0.988,5.637h3.571v-7.658h1.685V336.153z
		 M157.216,337.163h-1.685v-19.967h1.685V337.163z"/>
	<path fill="#EB6100" d="M177.064,322.461l-5.566,5.566l-2.402-2.344l9.697-9.668l9.668,9.668l-2.373,2.344l-5.566-5.566v14.883
		h-3.457V322.461z"/>
	<path d="M47.819,364.18h5.952v-5.277h1.729v13.477h-9.434v-13.477h1.752V364.18z M53.771,370.897v-5.301h-5.952v5.301H53.771z
		 M61.363,377.208h-1.774v-20.012h1.774V377.208z"/>
	<path d="M82.971,368.538H64.777v-1.459h4.515v-2.809c-1.595-0.617-2.493-1.639-2.493-2.986c0-2.359,2.695-3.707,7.075-3.707
		c4.335,0,7.053,1.348,7.053,3.707c0,1.336-0.887,2.357-2.471,2.965v2.83h4.515V368.538z M80.747,373.592
		c-0.022,2.268-2.583,3.525-6.873,3.525c-4.335,0-6.896-1.258-6.896-3.525c0-2.291,2.561-3.527,6.896-3.527
		C78.164,370.065,80.725,371.301,80.747,373.592z M68.618,361.284c-0.022,1.459,1.999,2.313,5.256,2.313
		c3.234,0,5.256-0.854,5.256-2.313c0-1.438-2.021-2.314-5.256-2.314C70.617,358.969,68.596,359.846,68.618,361.284z M68.775,373.592
		c-0.022,1.348,1.887,2.156,5.099,2.156c3.167,0,5.099-0.809,5.099-2.156c0-1.371-1.932-2.156-5.099-2.18
		C70.662,371.436,68.753,372.221,68.775,373.592z M76.704,367.079v-2.336c-0.842,0.146-1.786,0.225-2.83,0.225
		s-1.988-0.079-2.83-0.225v2.336H76.704z"/>
	<path d="M102.849,369.167H84.655v-1.438h18.193V369.167z M100.805,361.868c0,2.492-2.763,3.975-7.053,3.975
		c-4.335,0-7.075-1.482-7.075-3.975c0-2.494,2.74-3.977,7.075-3.953C98.042,357.891,100.805,359.374,100.805,361.868z
		 M100.827,376.737H87.014v-5.818h1.774v4.336h12.039V376.737z M88.496,361.868c-0.022,1.572,2.044,2.537,5.256,2.537
		c3.189,0,5.256-0.965,5.256-2.537s-2.066-2.539-5.256-2.539C90.54,359.329,88.474,360.295,88.496,361.868z"/>
	<path d="M113.046,365.438c2.842-0.011,5.772-0.213,9.007-0.875l0.225,1.482c-3.392,0.674-6.401,0.898-9.411,0.898h-1.595v-8.648
		h1.774V365.438z M126.275,370.987h-5.66c0.079,2.189,3.1,4.188,6.424,4.738l-0.696,1.371c-2.908-0.528-5.525-2.021-6.648-4.066
		c-1.101,2.066-3.74,3.516-6.648,4.021l-0.696-1.348c3.347-0.528,6.323-2.482,6.424-4.717h-5.66v-1.461h13.162V370.987z
		 M125.916,362.092h3.01v1.504h-3.01v4.92h-1.752v-11.344h1.752V362.092z"/>
	<path d="M143.076,376.153h-1.685v-9.322h-4.223c-1.225,2.325-3.145,4.381-5.93,6.02l-1.033-1.279
		c4.346-2.572,6.525-6.178,6.851-10.355h-5.997v-1.459h7.749c-0.011,1.965-0.325,3.863-0.988,5.637h3.571v-7.658h1.685V376.153z
		 M147.276,377.163h-1.685v-19.967h1.685V377.163z"/>
	<path fill="#EA5514" d="M170.582,371.016l5.566-5.566l2.402,2.344l-9.697,9.668l-9.668-9.668l2.373-2.344l5.566,5.566v-14.883
		h3.457V371.016z"/>
</g>
<g>
	<path fill="#173067" d="M94.031,165.438c-7.273,0-12.122-0.757-12.65-0.844l-5.921-0.967c-0.545-0.089-0.915-0.603-0.826-1.148
		l1.935-11.843c0.088-0.545,0.6-0.916,1.148-0.826l5.916,0.966c0.46,0.073,4.706,0.721,10.813,0.721c0.001,0,0.002,0,0.003,0
		c17.813-0.001,48.813-5.293,57.666-40.491l-5.223-0.504c-0.355-0.035-0.666-0.256-0.813-0.581s-0.111-0.705,0.097-0.996
		l14.598-20.453c0.207-0.291,0.553-0.45,0.91-0.415c0.355,0.035,0.666,0.256,0.814,0.581l10.416,22.868
		c0.148,0.325,0.111,0.705-0.096,0.996c-0.209,0.291-0.553,0.444-0.91,0.415l-5.714-0.552
		c-7.265,32.458-29.571,45.019-47.087,49.834C111.293,164.349,102.857,165.438,94.031,165.438z M76.768,161.814l4.935,0.806
		c0.205,0.033,5.091,0.817,12.328,0.817c8.647,0,16.905-1.065,24.544-3.166c17.139-4.711,39.005-17.07,45.853-49.195
		c0.106-0.498,0.563-0.836,1.074-0.787l4.873,0.471l-8.981-19.715l-12.585,17.633l4.646,0.448c0.287,0.028,0.549,0.178,0.717,0.413
		s0.227,0.53,0.161,0.811c-8.791,37.54-41.292,43.146-59.883,43.147c-0.001,0-0.003,0-0.004,0c-6.132,0-10.348-0.622-11.131-0.747
		l-4.933-0.806L76.768,161.814z"/>
	<path fill="#173067" d="M105.958,147.175h-14c-0.552,0-1-0.448-1-1v-10.848c-3.248-0.8-6.339-2.082-9.209-3.818l-7.673,7.672
		c-0.391,0.391-1.023,0.391-1.414,0l-9.899-9.899c-0.188-0.188-0.293-0.442-0.293-0.707s0.105-0.52,0.293-0.707l7.673-7.673
		c-1.736-2.87-3.018-5.961-3.818-9.209H55.77c-0.552,0-1-0.448-1-1v-14c0-0.552,0.448-1,1-1h10.848
		c0.8-3.249,2.082-6.339,3.818-9.209l-7.673-7.673c-0.391-0.391-0.391-1.023,0-1.414l9.899-9.899c0.391-0.391,1.023-0.391,1.414,0
		l7.673,7.673c2.87-1.736,5.961-3.018,9.209-3.818V59.797c0-0.552,0.448-1,1-1h14c0.552,0,1,0.448,1,1v10.848
		c3.247,0.8,6.337,2.082,9.208,3.818l7.674-7.673c0.391-0.391,1.023-0.391,1.414,0l9.899,9.899c0.391,0.391,0.391,1.023,0,1.414
		l-7.673,7.673c1.735,2.87,3.018,5.96,3.817,9.209h10.849c0.552,0,1,0.448,1,1v14c0,0.552-0.448,1-1,1h-10.849
		c-0.8,3.249-2.082,6.339-3.817,9.209l7.672,7.673c0.391,0.391,0.391,1.023,0,1.414l-9.898,9.899c-0.375,0.375-1.039,0.375-1.414,0
		l-7.674-7.673c-2.869,1.736-5.961,3.018-9.208,3.818v10.848C106.958,146.727,106.511,147.175,105.958,147.175z M92.958,145.175h12
		v-10.641c0-0.469,0.326-0.875,0.784-0.977c3.567-0.788,6.942-2.187,10.033-4.159c0.396-0.251,0.914-0.196,1.245,0.136l7.527,7.527
		l8.484-8.485l-7.526-7.527c-0.332-0.332-0.388-0.85-0.136-1.245c1.971-3.089,3.371-6.465,4.159-10.033
		c0.102-0.458,0.507-0.784,0.977-0.784h10.642v-12h-10.642c-0.47,0-0.875-0.326-0.977-0.784c-0.788-3.568-2.188-6.943-4.159-10.033
		c-0.252-0.396-0.196-0.914,0.136-1.245l7.527-7.527l-8.485-8.485l-7.527,7.527c-0.331,0.332-0.85,0.39-1.245,0.136
		c-3.091-1.972-6.466-3.372-10.033-4.159c-0.458-0.101-0.784-0.507-0.784-0.977V60.797h-12v10.642c0,0.469-0.326,0.875-0.784,0.977
		c-3.567,0.788-6.942,2.187-10.033,4.159c-0.395,0.254-0.913,0.197-1.245-0.136l-7.527-7.527l-8.485,8.485l7.527,7.527
		c0.332,0.332,0.388,0.85,0.136,1.245c-1.971,3.089-3.371,6.465-4.159,10.033c-0.102,0.458-0.507,0.784-0.977,0.784H56.77v12h10.641
		c0.469,0,0.875,0.326,0.977,0.784c0.788,3.567,2.187,6.942,4.159,10.033c0.252,0.396,0.196,0.914-0.136,1.245l-7.527,7.527
		l8.485,8.485l7.527-7.526c0.332-0.332,0.849-0.388,1.245-0.136c3.09,1.972,6.466,3.371,10.033,4.159
		c0.458,0.102,0.784,0.507,0.784,0.977V145.175z M98.958,124.486c-11.855,0-21.5-9.645-21.5-21.5s9.645-21.5,21.5-21.5
		s21.5,9.645,21.5,21.5S110.813,124.486,98.958,124.486z M98.958,83.486c-10.752,0-19.5,8.748-19.5,19.5s8.748,19.5,19.5,19.5
		s19.5-8.748,19.5-19.5S109.711,83.486,98.958,83.486z"/>
</g>
<g>
</g>
<g>
</g>
<g>
</g>
<g>
</g>
<g>
</g>
<g>
</g>
</svg>
