<?xml version="1.0" encoding="utf-8"?>
<!-- Generator: Adobe Illustrator 16.0.0, SVG Export Plug-In . SVG Version: 6.00 Build 0)  -->
<!DOCTYPE svg PUBLIC "-//W3C//DTD SVG 1.1//EN" "http://www.w3.org/Graphics/SVG/1.1/DTD/svg11.dtd">
<svg version="1.1" id="Layer_1" xmlns="http://www.w3.org/2000/svg" xmlns:xlink="http://www.w3.org/1999/xlink" x="0px" y="0px"
	 width="226.771px" height="467.716px" viewBox="0 0 226.771 467.716" enable-background="new 0 0 226.771 467.716"
	 xml:space="preserve">
<path fill="none" stroke="#0BB2C0" stroke-miterlimit="10" d="M219.271,447.351c0,7.727-6.346,13.989-14.174,13.989H18.775
	c-7.827,0-14.173-6.263-14.173-13.989V19.984c0-7.726,6.346-13.989,14.173-13.989h186.321c7.828,0,14.174,6.263,14.174,13.989
	V447.351z"/>
<g>
	<path fill="#0BB2C0" d="M59.354,241.227l-1.477,1.979c-2.228-1.253-3.744-3.494-4.562-6.17c-0.883,2.926-2.505,5.432-4.799,6.775
		l-1.582-1.818c3.375-1.979,5.168-6.17,5.168-10.205v-4.403h2.426v4.245C54.529,235.559,56.138,239.514,59.354,241.227z
		 M67.581,248.848h-2.399v-12.182h-2.848v11.021h-2.399v-22.017h2.399v8.964h2.848v-9.413h2.399V248.848z"/>
	<path fill="#0BB2C0" d="M92.208,246.026H70.587v-2.109h9.519v-4.139h-6.882v-7.515h13.869v-3.322H73.171v-2.057h16.4v7.382H75.702
		v3.455h14.423v2.057h-7.541v4.139h9.624V246.026z"/>
	<path fill="#0BB2C0" d="M115.517,239.092h-9.36v4.588h-2.531v-4.588h-9.729v-2.031h21.621V239.092z M113.064,230.575
		c0,2.953-3.296,4.773-8.385,4.773c-5.063,0-8.411-1.82-8.411-4.773s3.349-4.799,8.411-4.799
		C109.769,225.776,113.064,227.622,113.064,230.575z M113.117,248.346H96.611v-6.934h2.505v4.877h14.001V248.346z M98.958,230.575
		c-0.026,1.714,2.268,2.742,5.722,2.742c3.48,0,5.748-1.028,5.748-2.742c0-1.74-2.268-2.795-5.748-2.795
		C101.226,227.78,98.932,228.835,98.958,230.575z"/>
	<path fill="#0BB2C0" d="M145.391,237.008h-9.545v2.057h6.829v5.537h-13.764v2.084h14.423v1.924h-16.875v-5.826h13.737v-1.793
		h-13.764v-1.926h6.908v-2.057h-9.492v-2.004h21.542V237.008z M142.622,233.265h-16.005v-7.277h16.005V233.265z M129.069,231.287
		h11.048v-3.322h-11.048V231.287z"/>
	<path fill="#0BB2C0" d="M168.778,241.227h-5.432v7.621h-2.531v-7.621h-5.695v7.621h-2.505v-7.621h-5.458v-1.977h21.621V241.227z
		 M166.221,232.395h-13.922v2.61h14.423v2.031h-16.928v-6.513h13.869v-2.399h-13.948v-2.057h16.506V232.395z"/>
	<path fill="#0BB2C0" d="M68.873,278.453H47.252v-2.057h5.801v-5.247H49.15v-2.03h3.533v-7.356h-3.586v-2.057h17.798v2.057h-3.612
		v7.356h3.533v2.03H62.94v5.247h5.933V278.453z M60.831,269.119v-7.356h-5.669v7.356H60.831z M60.436,276.396v-5.247h-4.878v5.247
		H60.436z"/>
	<path fill="#0BB2C0" d="M92.182,271.676h-9.387v4.588h-2.479v-4.588h-9.756v-2.03h21.621V271.676z M90.204,260.76h-7.198
		c0.145,2.57,3.546,4.838,7.937,5.379l-0.949,1.978c-4.047-0.527-7.37-2.413-8.648-5.063c-1.279,2.637-4.588,4.535-8.622,5.063
		l-0.949-1.978c4.417-0.541,7.778-2.809,7.91-5.379h-7.119v-2.004h17.64V260.76z M89.782,280.747H73.25v-6.75h2.505v4.72h14.027
		V280.747z"/>
	<path fill="#0BB2C0" d="M112.59,274.208l-1.503,1.846c-2.254-1.345-3.81-3.73-4.614-6.592c-0.857,3.085-2.465,5.709-4.772,7.146
		l-1.529-1.872c3.349-2.03,5.063-6.328,5.063-10.521v-1.898h-4.351v-2.03h10.811v2.03h-4.061v1.898
		C107.633,268.249,109.268,272.283,112.59,274.208z M115.991,280.061h-2.373v-12.023h-3.665v-2.057h3.665v-7.857h2.373V280.061z
		 M120.79,281.248h-2.399v-23.625h2.399V281.248z"/>
	<path fill="#0BB2C0" d="M138.772,273.917l-1.503,1.978c-2.716-1.292-4.864-3.941-5.959-7.172c-1.107,3.454-3.282,6.314-6.117,7.699
		l-1.529-2.109c3.718-1.661,6.328-6.17,6.328-10.679V259.6h2.531v4.034C132.497,267.958,135.107,272.283,138.772,273.917z
		 M143.413,281.3h-2.505v-23.678h2.505V281.3z"/>
</g>
<g>
	<rect x="18.939" y="306.604" fill="none" width="185.992" height="141.395"/>
	<path d="M55.531,322.135H37.337v-1.459h8.221v-2.404h-5.795v-7.457h1.752v2.314h9.883v-2.314h1.752v7.457h-5.84v2.404h8.221
		V322.135z M53.285,330.311H51.51v-4.783H39.359v-1.416h13.926V330.311z M51.398,316.858v-2.381h-9.883v2.381H51.398z"/>
	<path d="M68.895,319.709l-0.854,1.371c-2.302-0.742-4.065-2.314-4.919-4.313c-0.876,2.212-2.718,3.919-5.121,4.738l-0.921-1.393
		c3.01-1.01,5.099-3.436,5.121-6.244v-0.719h-4.537v-1.459h10.759v1.459h-4.447v0.697C63.954,316.43,65.93,318.766,68.895,319.709z
		 M61.932,324.696h9.142v-2.447h1.752v7.793H60.18v-7.793h1.752V324.696z M71.074,328.604v-2.516h-9.142v2.516H71.074z
		 M72.826,314.971h3.01v1.482h-3.01v4.828h-1.752v-10.938h1.752V314.971z"/>
	<path d="M89.042,313.938H77.138v-1.461h5.076v-2.291h1.752v2.291h5.076V313.938z M87.897,318.475
		c-0.022,2.178-1.932,3.57-4.807,3.57c-2.897,0-4.829-1.393-4.807-3.57c-0.022-2.135,1.909-3.549,4.807-3.549
		C85.965,314.926,87.875,316.34,87.897,318.475z M79.968,318.475c-0.022,1.369,1.235,2.201,3.122,2.223
		c1.864-0.021,3.122-0.854,3.145-2.223c-0.022-1.303-1.28-2.18-3.145-2.18C81.204,316.295,79.946,317.172,79.968,318.475z
		 M92.704,330.042H80.103v-6.514h12.601V330.042z M81.833,328.604h9.119v-3.66h-9.119V328.604z M92.704,315.667h3.01v1.506h-3.01
		v5.211h-1.752v-12.039h1.752V315.667z"/>
	<path d="M115.165,322.315H96.971v-1.438h18.194V322.315z M113.12,315.016c0,2.492-2.762,3.975-7.052,3.975
		c-4.335,0-7.075-1.482-7.075-3.975c0-2.494,2.74-3.977,7.075-3.953C110.358,311.04,113.12,312.522,113.12,315.016z
		 M113.144,329.885H99.33v-5.818h1.774v4.336h12.04V329.885z M100.812,315.016c-0.022,1.572,2.044,2.537,5.256,2.537
		c3.189,0,5.256-0.965,5.256-2.537s-2.066-2.539-5.256-2.539C102.856,312.477,100.79,313.444,100.812,315.016z"/>
	<path d="M125.542,317.329h5.951v-5.277h1.73v13.477h-9.434v-13.477h1.752V317.329z M131.493,324.045v-5.301h-5.951v5.301H131.493z
		 M139.085,330.356h-1.773v-20.012h1.773V330.356z"/>
	<path d="M160.761,323.282h-8.334v7.029h-1.729v-7.029h-8.221v-1.482h18.283V323.282z M158.604,315.555
		c0,2.65-2.83,4.334-7.031,4.334c-4.199,0-7.029-1.684-7.029-4.334c0-2.719,2.83-4.402,7.029-4.402
		C155.774,311.153,158.604,312.836,158.604,315.555z M146.362,315.555c-0.021,1.773,2.09,2.92,5.211,2.92
		c3.1,0,5.234-1.146,5.234-2.92c0-1.797-2.135-2.965-5.234-2.965C148.452,312.59,146.341,313.758,146.362,315.555z"/>
	<path d="M180.571,327.481h-18.193v-1.459h7.143v-7.143h1.729v7.143h9.322V327.481z M178.392,314.364
		c-0.021,2.449-0.021,5.189-0.74,9.209l-1.797-0.201c0.764-3.818,0.764-6.627,0.764-9.008v-0.539H164.31v-1.459h14.082V314.364z"/>
	<path d="M183.782,333.096h-1.662l1.236-6.109h2.178L183.782,333.096z"/>
	<path d="M52.796,364.36l-1.078,1.393c-2.269-1.112-4.234-3.459-5.188-6.313c-0.932,3.021-2.897,5.537-5.233,6.717l-1.123-1.482
		c2.965-1.371,5.436-5.166,5.458-8.963v-3.639h1.752v3.639C47.361,359.35,49.854,363.034,52.796,364.36z M56.75,370.356h-1.774
		v-20.012h1.774V370.356z"/>
	<path d="M78.447,367.594H60.164v-1.461h18.283V367.594z M77.503,360.407l-0.809,1.482c-3.01-0.697-6.188-2.842-7.479-5.795
		c-1.292,2.941-4.458,5.087-7.479,5.795l-0.809-1.482c3.459-0.674,7.345-3.684,7.345-7.121v-1.527h1.842v1.527
		C70.114,356.7,74.022,359.754,77.503,360.407z"/>
	<path d="M88.599,353.129h-5.93v2.471h5.099v1.393h-5.099v2.717c2.886-0.011,4.683-0.111,6.828-0.516l0.18,1.414
		c-2.313,0.428-4.2,0.539-7.435,0.539h-1.258v-9.5h7.614V353.129z M97,370.042H83.815v-6.738H97V370.042z M85.544,368.604h9.726
		v-3.863h-9.726V368.604z M93.114,362.204h-1.707v-5.369h-2.695v-1.459h2.695v-4.672h1.707V362.204z M97,362.383h-1.685v-12.039H97
		V362.383z"/>
	<path d="M118.112,362.315H99.919v-1.438h18.193V362.315z M116.069,355.016c0,2.492-2.764,3.975-7.053,3.975
		c-4.335,0-7.075-1.482-7.075-3.975c0-2.494,2.74-3.977,7.075-3.953C113.306,351.04,116.069,352.522,116.069,355.016z
		 M116.091,369.885h-13.813v-5.818h1.774v4.336h12.039V369.885z M103.76,355.016c-0.022,1.572,2.044,2.537,5.256,2.537
		c3.189,0,5.256-0.965,5.256-2.537s-2.067-2.539-5.256-2.539C105.804,352.477,103.738,353.444,103.76,355.016z"/>
	<path d="M135.79,364.405l-1.033,1.324c-1.988-1.089-3.426-3.133-4.156-5.547c-0.719,2.561-2.145,4.783-4.133,5.951l-1.055-1.303
		c2.695-1.572,4.313-5.053,4.334-8.355v-0.92h-3.863v-1.461h3.863v-3.01h1.686v3.01h3.818v1.461h-3.842v0.92
		C131.409,359.665,133.05,362.944,135.79,364.405z M142.729,370.311h-1.707v-10.377h-2.717v9.367h-1.686V350.77h1.686v7.66h2.717
		v-8.086h1.707V370.311z"/>
	<path d="M163.708,363.282h-8.332v7.029h-1.73v-7.029h-8.221v-1.482h18.283V363.282z M161.552,355.555
		c0,2.65-2.83,4.334-7.029,4.334c-4.201,0-7.031-1.684-7.031-4.334c0-2.719,2.83-4.402,7.031-4.402
		C158.722,351.153,161.552,352.836,161.552,355.555z M149.312,355.555c-0.023,1.773,2.088,2.92,5.211,2.92
		c3.1,0,5.232-1.146,5.232-2.92c0-1.797-2.133-2.965-5.232-2.965C151.399,352.59,149.288,353.758,149.312,355.555z"/>
	<path d="M183.519,367.481h-18.193v-1.459h7.143v-7.143h1.73v7.143h9.32V367.481z M181.341,354.364
		c-0.023,2.449-0.023,5.189-0.742,9.209l-1.797-0.201c0.764-3.818,0.764-6.627,0.764-9.008v-0.539h-12.309v-1.459h14.084V354.364z"
		/>
</g>
<g>
	<path fill="#173067" d="M100.56,121.828h61.604c2.031,0,3.684-1.652,3.684-3.683V70.787c0-2.031-1.652-3.683-3.684-3.683h-23.382
		h-14.84H100.56c-2.031,0-3.684,1.652-3.684,3.683v47.358C96.876,120.176,98.528,121.828,100.56,121.828z M123.126,70.856
		c0-0.415,0.366-0.752,0.816-0.752h14.84c0.45,0,0.816,0.337,0.816,0.752v30.579c0,0.415-0.366,0.751-0.816,0.751h-14.84
		c-0.45,0-0.816-0.337-0.816-0.751V70.856z M99.876,70.787c0-0.376,0.307-0.683,0.684-0.683h19.644
		c-0.051,0.243-0.077,0.495-0.077,0.752v30.579c0,2.068,1.712,3.751,3.816,3.751h14.84c2.104,0,3.816-1.683,3.816-3.751V70.856
		c0-0.257-0.026-0.509-0.077-0.752h19.643c0.377,0,0.684,0.307,0.684,0.683v47.358c0,0.376-0.307,0.683-0.684,0.683H100.56
		c-0.377,0-0.684-0.306-0.684-0.683V70.787z"/>
	<path fill="#173067" d="M166.268,131.871H86.075V64.268c0-2.083-1.694-3.778-3.777-3.778H63.284c-2.083,0-3.778,1.695-3.778,3.778
		v3.454h-9.347c-2.083,0-3.777,1.695-3.777,3.778v6.292c0,2.083,1.694,3.777,3.777,3.777h9.347v50.301h-1.98
		c-2.083,0-3.778,1.694-3.778,3.777v15.936c0,2.083,1.695,3.777,3.778,3.777h7.115c-0.135,0.749-0.217,1.516-0.217,2.303
		c0,7.141,5.81,12.951,12.95,12.951s12.95-5.81,12.95-12.951c0-0.787-0.082-1.554-0.217-2.303h45.751
		c-0.135,0.749-0.217,1.516-0.217,2.303c0,7.141,5.81,12.951,12.95,12.951s12.95-5.81,12.95-12.951c0-0.787-0.082-1.554-0.217-2.303
		h4.942c2.083,0,3.777-1.694,3.777-3.777v-15.936C170.045,133.565,168.351,131.871,166.268,131.871z M77.374,167.614
		c-5.486,0-9.95-4.464-9.95-9.951c0-0.794,0.104-1.562,0.279-2.303c0.258-1.079,0.689-2.088,1.267-3
		c1.765-2.788,4.868-4.647,8.404-4.647s6.64,1.86,8.404,4.647c0.577,0.912,1.009,1.921,1.267,3c0.176,0.741,0.279,1.509,0.279,2.303
		C87.324,163.15,82.86,167.614,77.374,167.614z M148.592,167.614c-5.486,0-9.95-4.464-9.95-9.951c0-0.794,0.104-1.562,0.28-2.303
		c0.257-1.079,0.688-2.088,1.266-3c1.765-2.788,4.868-4.647,8.404-4.647s6.64,1.86,8.404,4.647c0.577,0.912,1.009,1.921,1.266,3
		c0.177,0.741,0.28,1.509,0.28,2.303C158.542,163.15,154.078,167.614,148.592,167.614z M167.045,151.583
		c0,0.429-0.349,0.777-0.777,0.777h-5.873c-2.031-4.501-6.553-7.647-11.803-7.647s-9.771,3.146-11.802,7.647H89.176
		c-2.03-4.501-6.552-7.647-11.802-7.647s-9.771,3.146-11.802,7.647h-8.047c-0.429,0-0.778-0.349-0.778-0.777v-15.936
		c0-0.429,0.35-0.777,0.778-0.777h4.98V78.569H50.159c-0.429,0-0.777-0.349-0.777-0.777V71.5c0-0.429,0.349-0.778,0.777-0.778
		h12.347v-6.454c0-0.429,0.35-0.778,0.778-0.778h19.014c0.429,0,0.777,0.349,0.777,0.778v70.603h83.192
		c0.429,0,0.777,0.349,0.777,0.777V151.583z"/>
</g>
<g>
</g>
<g>
</g>
<g>
</g>
<g>
</g>
<g>
</g>
<g>
</g>
</svg>
