<?xml version="1.0" encoding="utf-8"?>
<!-- Generator: Adobe Illustrator 16.0.0, SVG Export Plug-In . SVG Version: 6.00 Build 0)  -->
<!DOCTYPE svg PUBLIC "-//W3C//DTD SVG 1.1//EN" "http://www.w3.org/Graphics/SVG/1.1/DTD/svg11.dtd">
<svg version="1.1" id="Layer_1" xmlns="http://www.w3.org/2000/svg" xmlns:xlink="http://www.w3.org/1999/xlink" x="0px" y="0px"
	 width="226.771px" height="467.716px" viewBox="0 0 226.771 467.716" enable-background="new 0 0 226.771 467.716"
	 xml:space="preserve">
<path fill="none" stroke="#0BB2C0" stroke-miterlimit="10" d="M218.714,447.351c0,7.727-6.346,13.989-14.174,13.989H18.219
	c-7.828,0-14.173-6.263-14.173-13.989V19.984c0-7.726,6.346-13.989,14.173-13.989H204.54c7.828,0,14.174,6.263,14.174,13.989
	V447.351z"/>
<g>
	<path fill="#0BB2C0" d="M61.643,232.711c-0.026,3.428-2.742,5.879-6.302,5.879s-6.302-2.451-6.275-5.879
		c-0.026-3.454,2.716-5.88,6.275-5.88S61.616,229.257,61.643,232.711z M51.518,232.711c-0.026,2.188,1.661,3.692,3.823,3.692
		c2.188,0,3.85-1.504,3.85-3.692c0-2.188-1.661-3.691-3.85-3.691C53.179,229.02,51.491,230.522,51.518,232.711z M68.261,248.346
		H52.282v-7.594h2.505v5.564h13.474V248.346z M67.259,232.263h3.428v2.109h-3.428v8.201h-2.505v-17.376h2.505V232.263z"/>
	<path fill="#0BB2C0" d="M86.19,237.114l-1.292,2.004c-2.65-0.936-4.614-2.834-5.643-5.167c-1.028,2.597-3.098,4.693-5.906,5.695
		l-1.292-2.029c3.639-1.24,5.88-4.351,5.88-7.594v-0.923h-5.115v-2.057h12.735v2.057h-5.063v0.923
		C80.495,232.975,82.631,235.928,86.19,237.114z M92.36,248.346H76.382v-7.355h2.505v5.326H92.36V248.346z M91.728,242.545h-2.505
		v-8.885h-4.509v-2.03h4.509v-6.381h2.505V242.545z"/>
	<path fill="#0BB2C0" d="M109.473,236.192l-1.371,1.951c-2.597-0.937-4.509-2.756-5.537-5.116c-1.028,2.703-3.085,4.799-5.933,5.827
		l-1.345-2.004c3.771-1.291,5.959-4.429,5.985-7.989v-2.32h2.479v2.215C103.751,232.078,105.887,235.032,109.473,236.192z
		 M115.142,244.338c0,2.848-3.032,4.482-7.989,4.457c-4.957,0.025-8.016-1.609-7.989-4.457c-0.026-2.873,3.032-4.508,7.989-4.508
		S115.142,241.465,115.142,244.338z M101.642,244.338c0,1.582,2.057,2.479,5.511,2.479s5.511-0.896,5.511-2.479
		c0-1.635-2.057-2.557-5.511-2.557S101.642,242.704,101.642,244.338z M115.063,239.17h-2.505v-7.092h-4.983v-2.057h4.983v-4.799
		h2.505V239.17z"/>
	<path fill="#0BB2C0" d="M134.442,241.86c2.162-0.118,4.351-0.303,6.407-0.605l0.185,1.846c-5.353,0.975-11.074,1.027-15.293,1.027
		l-0.316-2.057c1.898-0.013,4.14-0.025,6.513-0.105v-4.191h2.505V241.86z M139.742,230.259h-5.3
		c0.132,2.769,2.373,5.167,5.906,6.117l-1.16,1.951c-2.821-0.804-4.931-2.518-5.985-4.772c-1.042,2.374-3.111,4.167-5.959,4.983
		l-1.187-1.898c3.52-1.002,5.734-3.48,5.854-6.38h-5.221v-2.03h5.247v-2.821h2.505v2.821h5.3V230.259z M144.831,248.901h-2.505
		v-23.678h2.505V248.901z"/>
	<path fill="#0BB2C0" d="M170.17,245.657h-21.542v-2.082h8.2v-8.332h2.479v8.332h10.863V245.657z M167.744,229.811
		c0,2.927,0,6.196-0.896,11.022l-2.531-0.264c0.923-4.563,0.923-7.911,0.923-10.758v-0.29h-14.344v-2.03h16.849V229.811z"/>
	<path fill="#0BB2C0" d="M70.238,272.836h-9.598v8.411h-2.452v-8.411h-9.492v-2.057h21.542V272.836z M69.263,266.403l-0.976,2.057
		c-3.863-0.619-7.264-2.623-8.78-5.405c-1.556,2.795-4.944,4.786-8.78,5.405l-1.002-2.057c4.641-0.606,8.438-3.533,8.464-6.697
		v-1.292h2.61v1.292C60.772,262.843,64.622,265.796,69.263,266.403z"/>
	<path fill="#0BB2C0" d="M93.626,271.676h-9.387v4.588h-2.479v-4.588h-9.756v-2.03h21.621V271.676z M91.648,260.76H84.45
		c0.145,2.57,3.546,4.838,7.937,5.379l-0.949,1.978c-4.047-0.527-7.37-2.413-8.648-5.063c-1.279,2.637-4.588,4.535-8.622,5.063
		l-0.949-1.978c4.417-0.541,7.778-2.809,7.91-5.379h-7.119v-2.004h17.64V260.76z M91.227,280.747H74.694v-6.75h2.505v4.72h14.027
		V280.747z"/>
	<path fill="#0BB2C0" d="M107.97,270.833v-1.582c-2.689-0.277-4.403-1.543-4.377-3.454c-0.026-2.162,2.215-3.507,5.616-3.48
		c3.375-0.026,5.616,1.318,5.616,3.48c0,1.898-1.688,3.164-4.351,3.454v1.503c2.109-0.105,4.245-0.276,6.223-0.554l0.211,1.793
		c-5.089,0.896-10.679,0.923-14.845,0.923l-0.264-2.004C103.632,270.912,105.755,270.912,107.97,270.833z M116.038,261.525h-13.632
		v-1.872h5.563v-2.215h2.505v2.215h5.563V261.525z M120.547,281.248h-2.505v-4.641h-13.289v-1.951h15.794V281.248z M105.966,265.796
		c0,1.107,1.213,1.819,3.243,1.819c2.004,0,3.217-0.712,3.217-1.819c0-1.134-1.213-1.793-3.217-1.767
		C107.179,264.003,105.966,264.663,105.966,265.796z M120.547,264.663h3.375v2.057h-3.375v6.829h-2.505v-15.899h2.505V264.663z"/>
	<path fill="#0BB2C0" d="M146.914,278.321h-21.621v-2.083h9.519v-4.852h-7.04v-12.155h2.505v4.061h11.602v-4.061h2.479v12.155
		h-7.066v4.852h9.624V278.321z M141.878,269.356v-4.034h-11.602v4.034H141.878z"/>
</g>
<g>
	<rect x="18.385" y="306.604" fill="none" width="185.991" height="141.395"/>
	<path d="M43.826,323.339c-0.022,2.897-2.269,4.919-5.256,4.919s-5.256-2.021-5.233-4.919c-0.022-2.897,2.246-4.919,5.233-4.919
		S43.803,320.442,43.826,323.339z M35.066,323.339c-0.022,1.977,1.527,3.369,3.504,3.369c2.021,0,3.526-1.393,3.526-3.369
		s-1.505-3.369-3.526-3.369C36.593,319.97,35.043,321.363,35.066,323.339z M49.486,336.546H36.077v-6.334h1.729v4.852h11.68V336.546
		z M48.565,323.092h3.01v1.482h-3.01v7.165h-1.752v-14.734h1.752V323.092z"/>
	<path d="M64.692,326.753l-0.921,1.415c-2.246-0.809-3.987-2.482-4.829-4.56c-0.876,2.347-2.729,4.223-5.099,5.121l-0.921-1.415
		c2.965-1.078,5.076-3.773,5.076-6.626v-0.741h-4.515v-1.482h10.759v1.482h-4.47v0.719
		C59.773,323.272,61.772,325.743,64.692,326.753z M69.454,333.245c0,2.358-2.538,3.706-6.693,3.729
		c-4.155-0.022-6.693-1.37-6.693-3.729s2.538-3.706,6.693-3.706S69.454,330.886,69.454,333.245z M57.819,333.245
		c-0.022,1.438,1.887,2.313,4.941,2.313s4.941-0.876,4.941-2.313c0-1.46-1.887-2.336-4.941-2.336S57.796,331.785,57.819,333.245z
		 M69.386,328.91h-1.774v-5.233h-4.021v-1.46h4.021v-5.211h1.774V328.91z"/>
	<path d="M84.525,326.506l-0.988,1.37c-2.201-0.831-3.931-2.448-4.784-4.56c-0.865,2.393-2.695,4.256-5.099,5.166l-0.966-1.438
		c3.077-1.078,5.121-3.729,5.144-6.828v-2.066h1.752v1.999C79.561,323.002,81.583,325.518,84.525,326.506z M89.332,333.2
		c0,2.381-2.538,3.729-6.693,3.729s-6.693-1.348-6.693-3.729c0-2.403,2.538-3.773,6.693-3.773S89.332,330.796,89.332,333.2z
		 M77.697,333.2c-0.022,1.438,1.887,2.313,4.941,2.313s4.941-0.876,4.941-2.313c0-1.482-1.887-2.381-4.941-2.381
		S77.674,331.717,77.697,333.2z M89.264,328.842H87.49v-6.087h-4.447v-1.46h4.447v-4.29h1.774V328.842z"/>
	<path d="M110.782,328.977H92.588v-1.438h18.193V328.977z M108.738,321.677c0,2.493-2.763,3.976-7.053,3.976
		c-4.335,0-7.075-1.482-7.075-3.976s2.74-3.976,7.075-3.953C105.975,317.702,108.738,319.184,108.738,321.677z M108.76,336.546
		H94.947v-5.817h1.774v4.335h12.039V336.546z M96.429,321.677c-0.022,1.572,2.044,2.538,5.256,2.538
		c3.189,0,5.256-0.966,5.256-2.538s-2.066-2.538-5.256-2.538C98.473,319.139,96.407,320.105,96.429,321.677z"/>
	<path d="M134.411,323.586h-6.199v2.538h8.221v1.46h-18.193v-1.46h8.221v-2.538h-5.729v-6.132h1.752v4.717h11.928V323.586z
		 M134.433,330.999h-3.1v4.268h3.258v1.438h-14.488v-1.438h3.258v-4.268h-3.078v-1.415h14.15V330.999z M129.604,335.266v-4.268
		h-4.492v4.268H129.604z"/>
	<path d="M151.009,335.962h-1.684v-9.321h-4.223c-1.225,2.324-3.145,4.38-5.93,6.02l-1.033-1.28
		c4.346-2.571,6.524-6.177,6.85-10.354h-5.996v-1.46h7.748c-0.011,1.966-0.325,3.863-0.988,5.638h3.572v-7.659h1.684V335.962z
		 M155.21,336.973h-1.686v-19.968h1.686V336.973z"/>
	<path fill="#EB6100" d="M175.058,322.271l-5.566,5.566l-2.402-2.344l9.697-9.668l9.668,9.668l-2.373,2.344l-5.566-5.566v14.883
		h-3.457V322.271z"/>
	<path d="M53.158,370.796l-1.056,1.37c-2.021-1.101-3.403-3.077-4.11-5.525c-0.685,2.785-2.089,4.964-4.2,6.199l-1.101-1.348
		c2.875-1.572,4.402-4.986,4.402-9.029v-1.595h-3.931v-1.482h9.344v1.482H48.8v1.595C48.8,366.125,50.305,369.336,53.158,370.796z
		 M60.053,376.973h-1.707v-10.377h-2.718v9.366h-1.685v-18.53h1.685v7.659h2.718v-8.086h1.707V376.973z"/>
	<path d="M72.744,361.902H62.726v-1.438h4.155v-2.853h1.752v2.853h4.11V361.902z M72.07,367.787
		c-0.022,2.673-1.819,4.582-4.335,4.582c-2.493,0-4.29-1.909-4.29-4.582c0-2.65,1.797-4.537,4.29-4.537
		C70.25,363.25,72.047,365.136,72.07,367.787z M65.017,367.787c0,1.774,1.146,3.055,2.718,3.032
		c1.595,0.022,2.763-1.258,2.763-3.032c0-1.752-1.168-3.032-2.763-3.055C66.163,364.754,65.017,366.035,65.017,367.787z
		 M79.774,376.973h-1.685v-10.085h-2.65v9.097h-1.662V357.5h1.662v7.929h2.65v-8.423h1.685V376.973z"/>
	<path d="M100.91,368.64H82.626v-1.438h18.283V368.64z M98.911,376.479H85.007v-5.795h1.752v4.335h12.151V376.479z M98.798,364.485
		H85.12v-6.738h1.752v5.323h11.927V364.485z"/>
	<path d="M111.04,365.249c2.841-0.012,5.772-0.213,9.006-0.876l0.225,1.482c-3.391,0.674-6.4,0.898-9.411,0.898h-1.595v-8.647h1.774
		V365.249z M124.269,370.796h-5.66c0.079,2.19,3.1,4.188,6.424,4.739l-0.695,1.37c-2.909-0.528-5.525-2.021-6.648-4.065
		c-1.102,2.066-3.74,3.516-6.649,4.021l-0.696-1.348c3.347-0.528,6.323-2.481,6.423-4.717h-5.66v-1.46h13.162V370.796z
		 M123.909,361.902h3.01v1.505h-3.01v4.919h-1.752v-11.343h1.752V361.902z"/>
	<path d="M141.069,375.962h-1.684v-9.321h-4.223c-1.225,2.324-3.145,4.38-5.93,6.02l-1.033-1.28
		c4.346-2.571,6.524-6.177,6.85-10.354h-5.996v-1.46h7.748c-0.011,1.966-0.325,3.863-0.988,5.638h3.572v-7.659h1.684V375.962z
		 M145.271,376.973h-1.686v-19.968h1.686V376.973z"/>
	<path fill="#EB6100" d="M168.575,371.826l5.566-5.566l2.402,2.344l-9.697,9.668l-9.668-9.668l2.373-2.344l5.566,5.566v-14.883
		h3.457V371.826z"/>
</g>
<path fill="none" stroke="#6AF2F7" stroke-width="3" stroke-linecap="round" stroke-linejoin="round" stroke-miterlimit="10" d="
	M117.161,107.417"/>
<g>
	<path fill="#173067" d="M99.755,127.944c-1.146,0-2.265-0.4-3.154-1.125l-9.738-7.968c-2.125-1.742-2.44-4.887-0.702-7.013
		c0.95-1.164,2.357-1.831,3.858-1.831c1.145,0,2.266,0.401,3.155,1.128l6.282,5.138l19.386-19.004
		c0.939-0.918,2.178-1.424,3.489-1.424c1.349,0,2.612,0.53,3.558,1.492c0.934,0.952,1.439,2.208,1.426,3.541
		c-0.014,1.331-0.545,2.577-1.497,3.509l-22.572,22.132C102.306,127.438,101.067,127.944,99.755,127.944z M90.019,112.007
		c-0.898,0-1.74,0.399-2.31,1.096c-1.041,1.273-0.852,3.157,0.421,4.2l9.737,7.967c1.142,0.933,2.925,0.851,3.979-0.18
		l22.572-22.132c0.57-0.559,0.889-1.305,0.896-2.102c0.008-0.797-0.295-1.55-0.854-2.119c-1.115-1.135-3.08-1.155-4.219-0.04
		l-20.026,19.63c-0.366,0.357-0.94,0.382-1.333,0.06l-6.976-5.705C91.367,112.241,90.714,112.007,90.019,112.007z"/>
	<path fill="#173067" d="M138.541,137.651c-0.333,0-0.665-0.111-0.94-0.336l-3.631-2.971c-0.636-0.521-0.729-1.456-0.21-2.091
		s1.454-0.729,2.091-0.209l2.602,2.128l7.469-7.322c0.587-0.574,1.526-0.565,2.102,0.02c0.574,0.586,0.564,1.528-0.021,2.102
		l-8.419,8.254C139.294,137.507,138.919,137.651,138.541,137.651z"/>
	<path fill="#173067" d="M140.936,151.626c-10.802,0-19.589-8.787-19.589-19.588s8.787-19.588,19.589-19.588
		s19.589,8.787,19.589,19.588S151.737,151.626,140.936,151.626z M140.936,114.45c-9.698,0-17.589,7.89-17.589,17.588
		s7.891,17.588,17.589,17.588s17.589-7.89,17.589-17.588S150.634,114.45,140.936,114.45z"/>
	<path fill="#173067" d="M106.175,165.248c-5.227,0-34.86-21.031-37.851-29.673c-2.922-8.44-1.32-54.83,0.087-57.175
		c1.365-2.274,31.574-14.152,37.764-14.152c6.378,0,36.871,13.511,38.166,14.086c0.361,0.161,0.595,0.519,0.595,0.914v28.333
		c0,0.552-0.448,1-1,1s-1-0.448-1-1V79.899c-9.149-4.042-31.924-13.651-36.76-13.651c-5.865,0-33.736,11.172-36.063,13.222
		c-1.025,3.233-2.68,47.415,0.101,55.451c2.921,8.439,32.389,28.327,35.961,28.327c2.978,0,13.562-7.234,19.533-11.795
		c0.439-0.336,1.066-0.251,1.402,0.188c0.335,0.439,0.251,1.066-0.188,1.402C125.286,154.292,110.807,165.248,106.175,165.248z"/>
	<path fill="#173067" d="M106.132,159.418c-4.627,0-30.857-18.61-33.504-26.257c-2.582-7.459-1.157-48.466,0.087-50.541
		c1.209-2.016,27.942-12.542,33.417-12.542c5.652,0,32.576,11.929,33.718,12.437c0.361,0.161,0.595,0.519,0.595,0.914v24.996
		c0,0.552-0.448,1-1,1s-1-0.448-1-1V84.08c-8.11-3.581-28.079-12.002-32.313-12.002c-5.013,0-29.29,9.695-31.685,11.593
		c-0.614,2.896-2.511,41.378,0.07,48.835c2.569,7.422,28.474,24.912,31.615,24.912c2.598,0,11.906-6.368,17.162-10.381
		c0.438-0.336,1.065-0.25,1.401,0.188c0.335,0.439,0.251,1.066-0.188,1.402C123.062,149.731,110.257,159.418,106.132,159.418z"/>
</g>
<g>
</g>
<g>
</g>
<g>
</g>
<g>
</g>
<g>
</g>
<g>
</g>
</svg>
