<?xml version="1.0" encoding="utf-8"?>
<!-- Generator: Adobe Illustrator 16.0.0, SVG Export Plug-In . SVG Version: 6.00 Build 0)  -->
<!DOCTYPE svg PUBLIC "-//W3C//DTD SVG 1.1//EN" "http://www.w3.org/Graphics/SVG/1.1/DTD/svg11.dtd">
<svg version="1.1" id="Layer_1" xmlns="http://www.w3.org/2000/svg" xmlns:xlink="http://www.w3.org/1999/xlink" x="0px" y="0px"
	 width="311.811px" height="388.347px" viewBox="0 0 311.811 388.347" enable-background="new 0 0 311.811 388.347"
	 xml:space="preserve">
<g>
	<path fill="#BEDEFC" stroke="#5EB1FC" stroke-width="2" stroke-miterlimit="10" d="M304.232,365.986
		c0,8.627-6.994,15.621-15.62,15.621H23.083c-8.626,0-15.62-6.994-15.62-15.621V22.359c0-8.626,6.993-15.62,15.62-15.62h265.53
		c8.626,0,15.62,6.993,15.62,15.62V365.986z"/>
	<g>
		<path d="M36.334,43.879c-1.688,0-2.795,0.879-2.795,2.092c0,1.336,1.494,1.828,2.461,2.074l1.266,0.352
			c1.371,0.352,3.604,1.143,3.604,3.516c0,2.074-1.67,3.691-4.623,3.691c-2.742,0-4.447-1.424-4.588-3.533h1.617
			c0.141,1.424,1.459,2.092,2.971,2.092c1.758,0,3.076-0.896,3.076-2.285c0-1.23-1.178-1.705-2.514-2.092l-1.564-0.422
			c-2.004-0.58-3.234-1.6-3.234-3.322c0-2.145,1.916-3.568,4.377-3.568s4.236,1.441,4.307,3.375h-1.547
			C39.006,44.6,37.863,43.879,36.334,43.879z"/>
		<path d="M42.434,42.649h9.598v1.406h-3.99v11.32h-1.6v-11.32h-4.008V42.649z"/>
		<path d="M54.141,42.649h7.717v1.406h-6.135v4.254h5.73v1.389h-5.73v4.271h6.223v1.406h-7.805V42.649z"/>
		<path d="M64.354,42.649h4.324c2.988,0,4.342,1.775,4.342,4.043c0,2.25-1.354,4.061-4.324,4.061h-2.76v4.623h-1.582V42.649z
			 M68.625,49.346c2.021,0,2.83-1.143,2.83-2.654c0-1.529-0.809-2.637-2.848-2.637h-2.672v5.291H68.625z"/>
		<path d="M79.26,49.012c0-4.131,1.652-6.539,4.447-6.539s4.447,2.408,4.447,6.539c0,4.166-1.635,6.539-4.447,6.539
			C80.877,55.551,79.26,53.178,79.26,49.012z M86.607,49.012c0-3.287-1.072-5.168-2.9-5.168s-2.918,1.881-2.918,5.168
			s1.072,5.133,2.918,5.133C85.535,54.145,86.607,52.299,86.607,49.012z"/>
		<path d="M94.764,55.375h-1.6V44.301h-0.07L90,46.358v-1.6l3.164-2.109h1.6V55.375z"/>
		<path d="M97.374,54.338c-0.018-0.615,0.51-1.125,1.125-1.125s1.125,0.51,1.125,1.125c0,0.633-0.51,1.143-1.125,1.143
			S97.356,54.971,97.374,54.338z"/>
		<path d="M113.941,51.965l-0.826,1.072c-1.582-0.861-2.663-2.408-3.217-4.324c-0.536,2.18-1.635,3.885-3.287,4.852l-0.861-1.055
			c2.25-1.23,3.445-3.902,3.445-7.066v-1.248h-3.076v-1.16h7.313v1.16h-2.9v1.248C110.531,48.309,111.709,50.823,113.941,51.965z
			 M119.338,56.799h-1.336v-8.121h-2.127v7.33h-1.318V41.506h1.318V47.5h2.127v-6.328h1.336V56.799z"/>
		<path d="M135.703,54.584h-14.238v-1.143h5.59v-5.59h1.354v5.59h7.295V54.584z M133.998,44.319
			c-0.018,1.916-0.018,4.061-0.58,7.207l-1.406-0.158c0.598-2.988,0.598-5.186,0.598-7.049v-0.422h-9.633v-1.143h11.021V44.319z"/>
		<path d="M148.043,44.249h-4.553v7.629c2.25-0.009,3.674-0.105,5.361-0.475l0.141,1.178c-1.811,0.369-3.34,0.439-5.854,0.457
			h-0.984v-9.932h5.889V44.249z M151.717,55.991h-1.318v-7.682h-3.41v-1.16h3.41v-5.59h1.318V55.991z M154.916,56.799h-1.336V41.172
			h1.336V56.799z"/>
		<path d="M165.656,47.834c0,3.322-1.67,5.432-3.99,5.432c-2.338,0-3.99-2.109-3.99-5.432s1.652-5.432,3.99-5.449
			C163.986,42.403,165.656,44.512,165.656,47.834z M159.012,47.834c0,2.549,1.09,4.201,2.654,4.201s2.654-1.652,2.654-4.201
			s-1.09-4.201-2.654-4.219C160.102,43.633,159.012,45.286,159.012,47.834z M169.98,56.834h-1.389V41.172h1.389V56.834z"/>
		<path d="M180.668,43.756h-5.906v3.252h5.221v1.125h-5.221v3.779c2.874,0,4.702-0.097,6.855-0.475l0.158,1.143
			c-2.268,0.369-4.184,0.475-7.207,0.475h-1.195V42.614h7.295V43.756z M185.607,56.834h-1.371v-8.613h-3.305v-1.143h3.305v-5.906
			h1.371V56.834z"/>
		<path d="M197.367,49.206c1.731-0.07,3.524-0.193,5.15-0.422l0.088,1.02c-3.27,0.563-7.049,0.633-9.826,0.633l-0.141-1.143
			c1.011-0.009,2.153-0.018,3.357-0.053v-3.393h1.371V49.206z M201.393,43.211c-0.018,1.02-0.018,2.584-0.404,4.623l-1.389-0.105
			c0.378-1.872,0.413-3.199,0.439-4.184h-6.434v-1.16h7.787V43.211z M205.488,56.465h-10.441v-4.588h1.389v3.428h9.053V56.465z
			 M204.979,46.27h2.285v1.178h-2.285v5.484h-1.406v-11.76h1.406V46.27z"/>
		<path d="M216.439,48.186h-5.836v3.691c2.593,0,4.904-0.114,7.699-0.563l0.141,1.16c-2.883,0.457-5.256,0.563-7.945,0.563h-1.301
			v-5.977h5.854v-3.287h-5.889v-1.143h7.277V48.186z M221.186,56.834h-1.371V41.172h1.371V56.834z"/>
		<path d="M231.855,42.104h1.336c-1.195,1.74-2.303,5.291-2.303,8.42s1.107,6.697,2.303,8.438h-1.336
			c-1.617-2.355-2.514-5.115-2.531-8.438C229.342,47.202,230.238,44.442,231.855,42.104z"/>
		<path d="M236.848,55.375h-1.582V42.649h1.582V55.375z"/>
		<path d="M240.979,55.375h-1.512v-9.545h1.459v1.494h0.123c0.457-0.967,1.336-1.617,2.795-1.617c1.934,0,3.217,1.178,3.217,3.604
			v6.064h-1.512v-5.959c0-1.477-0.809-2.355-2.162-2.355c-1.389,0-2.408,0.932-2.408,2.584V55.375z"/>
		<path d="M249.486,45.831h1.459v1.512h0.176c0.316-0.51,0.914-1.635,2.76-1.635c2.391,0,4.061,1.898,4.061,4.922
			s-1.67,4.939-4.043,4.939c-1.828,0-2.461-1.125-2.777-1.652h-0.123v5.045h-1.512V45.831z M253.688,54.215
			c1.811,0,2.742-1.582,2.742-3.621c0-1.986-0.914-3.533-2.742-3.533c-1.793,0-2.725,1.424-2.725,3.533
			C250.963,52.739,251.93,54.215,253.688,54.215z"/>
		<path d="M265.939,45.831h1.494v9.545h-1.494v-1.617h-0.105c-0.457,0.967-1.389,1.74-2.83,1.74c-1.811,0-3.094-1.178-3.094-3.604
			v-6.064h1.512v5.959c0,1.371,0.861,2.25,2.074,2.25c1.072,0,2.443-0.809,2.443-2.584V45.831z"/>
		<path d="M274.025,47.096h-2.004v5.537c0,1.23,0.598,1.424,1.248,1.424c0.281,0,0.668-0.018,0.896-0.035v1.406
			c-0.229,0.035-0.615,0.07-1.055,0.07c-1.266,0-2.619-0.791-2.619-2.479v-5.924h-1.441v-1.266h1.441v-2.285h1.529v2.285h2.004
			V47.096z"/>
		<path d="M276.768,58.961h-1.336c1.195-1.74,2.303-5.309,2.303-8.438s-1.107-6.68-2.303-8.42h1.336
			c1.617,2.338,2.514,5.098,2.531,8.42C279.281,53.846,278.385,56.606,276.768,58.961z"/>
	</g>
	<g>
		<polygon fill="#60A5FA" points="138.127,110.607 125.684,118.184 125.684,131.592 139.184,139.215 152.638,131.087 
			152.316,117.816 		"/>
		<polygon fill="#60A5FA" points="170.84,110.607 158.396,118.184 158.396,131.592 171.896,139.215 185.35,131.087 185.027,117.816 
					"/>
		<polygon fill="#BFDBFE" points="152.579,86.416 140.136,93.992 140.136,107.399 153.636,115.023 167.089,106.895 166.768,93.625 
					"/>
		<g>
			<path d="M168.257,94.188l-14.846-7.773l-13.095,7.795v14.018l14.122,8.25l13.818-8.405V94.188z M153.836,114.746l-12.327-7.202
				V95.065l12.327,6.73V114.746z M142.544,94.271l10.904-6.491l12.926,6.767l-11.936,6.217L142.544,94.271z M167.065,107.402
				l-12.037,7.322v-12.92l12.037-6.272V107.402z"/>
			<path d="M125.671,117.606v14.018l14.122,8.25l13.819-8.406v-13.884l-14.846-7.773L125.671,117.606z M139.19,138.142
				l-12.327-7.202v-12.479l12.327,6.73V138.142z M152.42,130.798l-12.037,7.322v-12.917l12.037-6.152V130.798z M151.847,118.005
				l-12.051,6.157l-6.542-3.571l10.925-6.601L151.847,118.005z M142.915,113.33l-10.873,6.601l-4.143-2.263l10.904-6.49
				L142.915,113.33z"/>
			<path d="M171.179,109.812l-13.096,7.795v14.018l14.122,8.25l13.819-8.406v-13.884L171.179,109.812z M171.216,111.177l4.111,2.152
				l-10.873,6.601l-4.144-2.263L171.216,111.177z M171.603,138.142l-12.327-7.202v-12.479l12.327,6.73V138.142z M165.666,120.591
				l10.924-6.601l7.668,4.015l-12.051,6.157L165.666,120.591z M184.832,130.798l-12.037,7.322v-12.917l12.037-6.152V130.798z"/>
		</g>
	</g>
	<g>
		<path d="M64.297,200.095h-2.74v-10.242h-1.729v9.299h-2.718v-5.862l-1.617,2.156c-1.898-1-3.122-2.695-3.841-4.807
			c-0.685,2.426-1.898,4.391-3.841,5.548l-1.774-2.201c3.1-1.752,4.155-5.368,4.155-9.276v-0.651h-3.459v-2.291h9.366v2.291h-3.122
			v0.651c0,3.56,1.056,6.952,4.133,8.535v-13.297h2.718v7.569h1.729v-7.861h2.74V200.095z"/>
		<path d="M84.983,197.602H66.341v-2.336h6.671v-7.03h2.853v7.03h9.119V197.602z M83.187,183.361c0,2.561,0,5.436-0.831,9.771
			l-2.875-0.292c0.775-3.863,0.809-6.738,0.831-9.142H68.272v-2.269h14.914V183.361z"/>
		<path d="M102.548,189.493h-9.995v-8.603h9.995V189.493z M108.972,194.502h-5.728c0.314,1.393,2.471,2.999,6.514,3.392
			l-0.966,2.156c-3.403-0.314-5.817-1.55-7.053-3.167c-1.269,1.64-3.695,2.841-7.12,3.167l-0.988-2.156
			c4.099-0.326,6.255-1.965,6.559-3.392h-5.728v-2.134h5.817v-1.685h2.875v1.685h5.817V194.502z M95.383,187.247h4.313v-4.133
			h-4.313V187.247z M108.612,191.245h-2.853v-11.59h2.853V191.245z"/>
		<path d="M135.296,191.088h-18.553v-2.313h6.963v-3.571h2.83v3.571h8.76V191.088z M133.207,196.254
			c-0.022,2.403-2.83,3.841-7.3,3.841c-4.425,0-7.277-1.438-7.277-3.841c0-2.448,2.853-3.863,7.277-3.863
			C130.377,192.391,133.185,193.806,133.207,196.254z M133.095,182.238c0,1.617,0,3.369-0.584,5.48l-2.808-0.27
			c0.449-1.853,0.505-3.234,0.539-4.627h-11.41v-2.246h14.263V182.238z M121.482,196.254c0,1.101,1.617,1.662,4.425,1.662
			s4.447-0.562,4.447-1.662c0-1.146-1.64-1.729-4.447-1.729S121.482,195.108,121.482,196.254z"/>
		<path d="M137.632,192.301l-1.19-2.269c4.571-1.28,7.165-3.65,7.637-6.514h-6.738v-2.336h9.883
			C147.223,186.708,143.764,190.571,137.632,192.301z M153.489,199.735h-13.993v-6.94h2.897v4.649h11.096V199.735z M152.793,185.383
			h2.763v2.358h-2.763v6.559h-2.897v-14.645h2.897V185.383z"/>
		<path d="M166.494,189.448v-0.898c-2.235-0.258-3.616-1.19-3.594-2.65c-0.022-1.662,1.954-2.628,5.009-2.628
			c3.032,0,4.986,0.966,5.009,2.628c-0.022,1.46-1.37,2.381-3.571,2.65v0.809c1.673-0.079,3.358-0.213,4.941-0.427l0.202,1.774
			c-4.357,0.741-9.097,0.764-12.668,0.764l-0.292-1.977C163.024,189.504,164.72,189.504,166.494,189.448z M173.771,182.845h-11.702
			v-1.909h4.425v-1.46h2.853v1.46h4.425V182.845z M178.106,196.995h-10.961v1.056h11.635v1.909h-14.51v-4.694h10.961v-0.943h-10.983
			v-1.909h13.858V196.995z M165.641,185.899c-0.022,0.606,0.809,0.921,2.269,0.943c1.438-0.022,2.246-0.337,2.269-0.943
			c-0.022-0.584-0.831-0.854-2.269-0.854C166.449,185.046,165.618,185.315,165.641,185.899z M178.106,184.484h2.605v2.381h-2.605
			v4.829h-2.875v-12.039h2.875V184.484z"/>
		<path d="M200.275,191.627h-18.643v-2.291h4.2v-2.448c-1.494-0.663-2.336-1.673-2.336-2.987c0-2.471,2.897-3.953,7.457-3.953
			c4.515,0,7.412,1.482,7.435,3.953c-0.011,1.325-0.887,2.358-2.403,3.01v2.426h4.29V191.627z M198.052,196.366
			c-0.022,2.403-2.695,3.706-7.12,3.706c-4.492,0-7.165-1.303-7.165-3.706c0-2.358,2.673-3.661,7.165-3.661
			C195.356,192.705,198.029,194.008,198.052,196.366z M186.484,183.9c-0.022,1.123,1.572,1.685,4.47,1.685
			c2.853,0,4.47-0.562,4.47-1.685c0-1.146-1.617-1.752-4.47-1.752C188.057,182.148,186.462,182.755,186.484,183.9z M186.687,196.366
			c-0.022,1.056,1.415,1.572,4.245,1.572c2.763,0,4.223-0.517,4.245-1.572c-0.022-1.011-1.482-1.505-4.245-1.505
			C188.102,194.861,186.664,195.355,186.687,196.366z M193.133,189.336v-1.707c-0.674,0.079-1.404,0.112-2.179,0.112
			c-0.797,0-1.539-0.034-2.224-0.135v1.729H193.133z"/>
		<path d="M223.298,181.991c0,1.505,0,3.414-0.404,5.975h2.628v2.291h-18.71v-2.291h13.185c0.371-2.145,0.438-3.796,0.449-5.144
			h-11.343v-2.269h14.195V181.991z M223.365,200.117h-2.875v-5.211h-11.702v-2.246h14.577V200.117z"/>
		<path d="M234.888,184.327h-4.739v8.715c1.977-0.011,3.729-0.112,5.705-0.472l0.202,2.336c-2.493,0.472-4.672,0.539-7.367,0.562
			h-1.415v-13.454h7.614V184.327z M244.366,200.095h-2.718V189.83h-1.977v9.276h-2.628v-19.114h2.628v7.547h1.977v-7.884h2.718
			V200.095z"/>
		<path d="M251.374,194.277v-1.752c-2.179-0.427-3.594-1.808-3.571-3.706c-0.022-2.291,2.044-3.841,5.031-3.841
			c2.92,0,5.009,1.55,5.031,3.841c-0.022,1.898-1.46,3.291-3.616,3.706v1.64c1.617-0.079,3.246-0.213,4.762-0.427l0.18,2.089
			c-4.357,0.809-9.029,0.831-12.488,0.831l-0.382-2.336C247.814,194.322,249.555,194.322,251.374,194.277z M258.854,184.17h-12.129
			v-2.246h4.649v-2.156h2.875v2.156h4.604V184.17z M250.521,188.819c-0.022,1.078,0.921,1.662,2.313,1.662
			c1.348,0,2.269-0.584,2.269-1.662c0-1.056-0.921-1.662-2.269-1.662C251.441,187.157,250.498,187.764,250.521,188.819z
			 M262.919,187.966h2.673v2.381h-2.673v9.748h-2.897v-20.439h2.897V187.966z"/>
	</g>
	<g>
		<path d="M51.838,226.029h1.6l2.654,10.301h0.123l2.689-10.301h1.775l2.707,10.301h0.105l2.654-10.301h1.6l-3.48,12.727h-1.635
			l-2.777-10.072h-0.105l-2.795,10.072h-1.635L51.838,226.029z"/>
		<path d="M71.332,226.029l4.289,10.477h0.158l4.289-10.477h1.898v12.727h-1.494v-9.615H80.35l-3.955,9.615h-1.406l-3.955-9.615
			h-0.105v9.615h-1.494v-12.727H71.332z"/>
		<path d="M88.91,227.26c-1.688,0-2.795,0.879-2.795,2.092c0,1.336,1.494,1.828,2.461,2.074l1.266,0.352
			c1.371,0.352,3.604,1.143,3.604,3.516c0,2.074-1.67,3.691-4.623,3.691c-2.742,0-4.447-1.424-4.588-3.533h1.617
			c0.141,1.424,1.459,2.092,2.971,2.092c1.758,0,3.076-0.896,3.076-2.285c0-1.23-1.178-1.705-2.514-2.092l-1.564-0.422
			c-2.004-0.58-3.234-1.6-3.234-3.322c0-2.145,1.916-3.568,4.377-3.568s4.236,1.441,4.307,3.375h-1.547
			C91.582,227.98,90.439,227.26,88.91,227.26z"/>
		<path d="M98.438,225.484h1.336c-1.195,1.74-2.303,5.291-2.303,8.42s1.107,6.697,2.303,8.438h-1.336
			c-1.617-2.355-2.514-5.115-2.531-8.438C95.924,230.582,96.82,227.822,98.438,225.484z"/>
		<path d="M110.285,232.234l-0.65,1.107c-1.802-0.563-3.19-1.731-3.885-3.234c-0.677,1.705-2.118,3.006-3.955,3.639l-0.703-1.09
			c2.338-0.721,3.955-2.584,3.955-4.729v-0.316h-3.533v-1.143h3.533v-1.986h1.389v1.986h3.498v1.143H106.4v0.316
			C106.4,229.844,107.982,231.566,110.285,232.234z M113.432,237.332c0,1.793-1.934,2.795-5.15,2.795
			c-3.234,0-5.186-1.002-5.186-2.795c0-1.775,1.951-2.795,5.186-2.795C111.498,234.537,113.432,235.557,113.432,237.332z
			 M104.484,237.332c-0.018,1.09,1.424,1.723,3.797,1.723s3.814-0.633,3.814-1.723s-1.441-1.705-3.814-1.705
			S104.467,236.242,104.484,237.332z M113.291,228.631h2.355v1.143h-2.355v4.377h-1.371v-9.598h1.371V228.631z"/>
		<path d="M130.869,237.965h-14.238v-1.143h5.59v-5.59h1.354v5.59h7.295V237.965z M129.164,227.699
			c-0.018,1.916-0.018,4.061-0.58,7.207l-1.406-0.158c0.598-2.988,0.598-5.186,0.598-7.049v-0.422h-9.633v-1.143h11.021V227.699z"/>
		<path d="M141.346,232.586c1.731-0.07,3.524-0.193,5.15-0.422l0.088,1.02c-3.27,0.563-7.049,0.633-9.826,0.633l-0.141-1.143
			c1.011-0.009,2.153-0.018,3.357-0.053v-3.393h1.371V232.586z M145.371,226.592c-0.018,1.02-0.018,2.584-0.404,4.623l-1.389-0.105
			c0.378-1.872,0.413-3.199,0.439-4.184h-6.434v-1.16h7.787V226.592z M149.467,239.846h-10.441v-4.588h1.389v3.428h9.053V239.846z
			 M148.957,229.65h2.285v1.178h-2.285v5.484h-1.406v-11.76h1.406V229.65z"/>
		<path d="M160.418,231.566h-5.836v3.691c2.593,0,4.904-0.114,7.699-0.563l0.141,1.16c-2.883,0.457-5.256,0.563-7.945,0.563h-1.301
			v-5.977h5.854v-3.287h-5.889v-1.143h7.277V231.566z M165.164,240.215h-1.371v-15.662h1.371V240.215z"/>
		<path d="M182.127,235.521l-0.844,1.09c-1.775-0.87-3.313-2.707-4.061-4.939c-0.729,2.364-2.268,4.333-4.096,5.256l-0.879-1.16
			c2.32-1.072,4.254-4.043,4.271-7.014v-2.848h1.371v2.848C177.873,231.602,179.824,234.484,182.127,235.521z M185.221,240.215
			h-1.389v-15.662h1.389V240.215z"/>
		<path d="M202.201,238.053h-14.309v-1.143h14.309V238.053z M201.463,232.428l-0.633,1.16c-2.355-0.545-4.843-2.224-5.854-4.535
			c-1.011,2.303-3.489,3.981-5.854,4.535l-0.633-1.16c2.707-0.527,5.748-2.883,5.748-5.572v-1.195h1.441v1.195
			C195.68,229.527,198.738,231.918,201.463,232.428z"/>
		<path d="M210.146,226.732h-4.641v1.934h3.99v1.09h-3.99v2.127c2.259-0.009,3.665-0.088,5.344-0.404l0.141,1.107
			c-1.811,0.334-3.287,0.422-5.818,0.422h-0.984v-7.436h5.959V226.732z M216.721,239.969h-10.318v-5.273h10.318V239.969z
			 M207.756,238.844h7.611v-3.023h-7.611V238.844z M213.68,233.834h-1.336v-4.201h-2.109v-1.143h2.109v-3.656h1.336V233.834z
			 M216.721,233.975h-1.318v-9.422h1.318V233.975z"/>
		<path d="M220.377,242.342h-1.336c1.195-1.74,2.303-5.309,2.303-8.438s-1.107-6.68-2.303-8.42h1.336
			c1.617,2.338,2.514,5.098,2.531,8.42C222.891,237.227,221.994,239.986,220.377,242.342z"/>
		<path d="M242.279,233.008h-4.834v4.043h6.521v1.16h-14.309v-1.16h6.434v-4.043h-4.605v-7.172h10.635v1.125h-9.246v4.922h9.404
			V233.008z"/>
		<path d="M253.775,228.912c0,2.127-1.723,3.586-4.096,3.586s-4.096-1.459-4.096-3.586c0-2.145,1.723-3.604,4.096-3.586
			C252.053,225.309,253.775,226.768,253.775,228.912z M246.938,228.912c-0.018,1.424,1.143,2.443,2.742,2.443
			c1.582,0,2.742-1.02,2.742-2.443s-1.16-2.443-2.742-2.426C248.08,226.469,246.92,227.488,246.938,228.912z M249.363,235.627h7.383
			v-1.898h1.371v6.24h-10.125v-6.24h1.371V235.627z M256.746,238.844v-2.109h-7.383v2.109H256.746z M258.117,232.938h-1.371v-8.385
			h1.371V232.938z"/>
	</g>
	<g>
		<rect x="30.075" y="268.932" fill="none" width="251.545" height="99.777"/>
		<path d="M37.296,280.365l-0.688,0.894c-1.318-0.718-2.219-2.007-2.681-3.604c-0.447,1.816-1.362,3.237-2.739,4.043l-0.718-0.879
			c1.875-1.025,2.871-3.252,2.871-5.889v-1.04h-2.563v-0.967h6.094v0.967h-2.417v1.04C34.455,277.318,35.436,279.413,37.296,280.365
			z M41.793,284.394H40.68v-6.768h-1.772v6.108h-1.099v-12.085h1.099v4.995h1.772v-5.273h1.113V284.394z"/>
		<path d="M55.431,282.548H43.566v-0.952h4.658v-4.658h1.128v4.658h6.079V282.548z M54.01,273.993
			c-0.015,1.597-0.015,3.384-0.483,6.006l-1.172-0.132c0.498-2.49,0.498-4.321,0.498-5.874v-0.352h-8.027v-0.952h9.185V273.993z"/>
		<path d="M68.029,277.729l-0.601,0.923c-1.465-0.527-2.6-1.619-3.149-2.974c-0.571,1.531-1.78,2.754-3.325,3.34l-0.601-0.923
			c1.934-0.703,3.311-2.461,3.311-4.321v-0.483h-2.944v-0.967h7.017v0.967h-2.915v0.469
			C64.821,275.458,66.125,277.069,68.029,277.729z M71.134,281.962c0,1.538-1.655,2.417-4.365,2.432
			c-2.71-0.015-4.365-0.894-4.365-2.432s1.655-2.417,4.365-2.417S71.134,280.424,71.134,281.962z M63.546,281.962
			c-0.015,0.938,1.23,1.509,3.223,1.509s3.223-0.571,3.223-1.509c0-0.952-1.23-1.523-3.223-1.523S63.532,281.01,63.546,281.962z
			 M71.09,279.135h-1.157v-3.413h-2.622v-0.952h2.622v-3.398h1.157V279.135z"/>
		<path d="M76.73,278.739v-0.952c-1.516-0.132-2.49-0.842-2.49-1.919c0-1.187,1.216-1.919,3.047-1.919
			c1.846,0,3.047,0.732,3.062,1.919c-0.015,1.069-0.967,1.78-2.476,1.919v0.908c1.216-0.059,2.446-0.154,3.589-0.322l0.103,0.835
			c-2.827,0.498-5.947,0.513-8.232,0.513l-0.132-0.938C74.24,278.783,75.456,278.783,76.73,278.739z M81.066,273.451h-7.544v-0.879
			h3.208v-1.304h1.143v1.304h3.193V273.451z M83.424,284.394h-1.157v-2.71h-7.471v-0.923h8.628V284.394z M75.338,275.868
			c0,0.674,0.747,1.143,1.948,1.128c1.201,0.015,1.963-0.454,1.963-1.128c0-0.688-0.762-1.113-1.963-1.099
			C76.085,274.755,75.338,275.18,75.338,275.868z M83.424,275.326h1.948v0.967h-1.948v3.823h-1.157v-8.73h1.157V275.326z"/>
		<path d="M96.74,278.417h-4.028v3.369h5.435v0.967H86.222v-0.967h5.361v-3.369h-3.838v-5.977h8.862v0.938h-7.705v4.102h7.837
			V278.417z"/>
		<path d="M111.095,278.329H99.171v-0.908h11.924V278.329z M109.601,282.138h-7.822v1.245h8.247v0.835h-9.404v-2.871h7.837v-1.113
			h-7.852v-0.864h8.994V282.138z M109.557,274.462h-7.69v1.143h7.925v0.835h-9.067v-2.769h7.676v-1.069h-7.72v-0.835h8.877V274.462z
			"/>
		<path d="M126.461,275.663h-4.043v1.655h5.361v0.952h-11.865v-0.952h5.361v-1.655h-3.735v-3.999h1.143v3.076h7.778V275.663z
			 M126.476,280.497h-2.021v2.783h2.124v0.938h-9.448v-0.938h2.124v-2.783h-2.007v-0.923h9.229V280.497z M123.327,283.28v-2.783
			h-2.93v2.783H123.327z"/>
		<path d="M136.012,276.923c0,2.769-1.392,4.526-3.325,4.526c-1.948,0-3.325-1.758-3.325-4.526s1.377-4.526,3.325-4.541
			C134.621,272.396,136.012,274.154,136.012,276.923z M130.475,276.923c0,2.124,0.908,3.501,2.212,3.501s2.212-1.377,2.212-3.501
			s-0.908-3.501-2.212-3.516C131.383,273.422,130.475,274.799,130.475,276.923z M139.616,284.423h-1.157v-13.052h1.157V284.423z"/>
		<path d="M153.708,282.548h-11.865v-0.952h4.658v-4.658h1.128v4.658h6.079V282.548z M152.287,273.993
			c-0.015,1.597-0.015,3.384-0.483,6.006l-1.172-0.132c0.498-2.49,0.498-4.321,0.498-5.874v-0.352h-8.027v-0.952h9.185V273.993z"/>
		<path d="M155.802,286.21h-1.084l0.806-3.984h1.421L155.802,286.21z"/>
		<path d="M174.281,278.622h-5.376v1.538h3.926v4.058h-8.965v-4.058h3.911v-1.538h-5.361v-0.952h11.865V278.622z M173.153,272.748
			h-2.007v2.739h1.963v0.952h-9.536v-0.952h1.963v-2.739h-2.007v-0.952h9.624V272.748z M165.009,283.28h6.694v-2.212h-6.694V283.28z
			 M170.004,275.487v-2.739h-3.325v2.739H170.004z"/>
		<path d="M185.736,276.322h-3.853v1.67h5.361v0.938H175.38v-0.938h5.361v-1.67h-3.823v-4.395h8.818V276.322z M185.78,284.394
			h-1.157v-3.179h-7.925v-0.923h9.082V284.394z M178.046,275.399h6.548v-2.549h-6.548V275.399z"/>
		<path d="M193.69,275.795h2.827v-3.179h1.069v8.525h-4.995v-8.525h1.099V275.795z M196.518,280.189v-3.457h-2.827v3.457H196.518z
			 M203.271,284.394h-1.113v-6.899h-1.816v6.24h-1.099v-12.085h1.099v4.893h1.816v-5.171h1.113V284.394z"/>
		<path d="M213.363,280.746l-0.645,0.894c-1.501-0.667-2.776-2.08-3.384-3.809c-0.586,1.831-1.853,3.333-3.354,4.043l-0.645-0.894
			c1.934-0.879,3.413-3.076,3.413-5.361v-1.04h-3.062v-0.938h3.047v-2.021h1.143v2.021h3.032v0.938h-3.032v1.04
			C209.877,277.802,211.4,279.911,213.363,280.746z M215.81,284.394h-1.157v-13.022h1.157V284.394z"/>
		<path d="M229.945,278.329h-11.924v-0.908h11.924V278.329z M228.451,282.138h-7.822v1.245h8.247v0.835h-9.404v-2.871h7.837v-1.113
			h-7.852v-0.864h8.994V282.138z M228.407,274.462h-7.69v1.143h7.925v0.835h-9.067v-2.769h7.676v-1.069h-7.72v-0.835h8.877V274.462z
			"/>
		<path d="M37.252,301.57l-0.659,0.864c-1.296-0.703-2.234-2.051-2.71-3.618c-0.469,1.67-1.399,3.12-2.695,3.911l-0.688-0.879
			c1.772-1.025,2.813-3.311,2.827-5.464v-0.645h-2.476v-0.952h2.476v-1.934h1.099v1.934h2.432v0.952h-2.446v0.645
			C34.411,298.479,35.48,300.618,37.252,301.57z M39.098,304.72h-1.084v-6.226h-2.051v-0.981h2.051v-4.819h1.084V304.72z
			 M41.735,305.394h-1.099v-13.022h1.099V305.394z"/>
		<path d="M52.077,304.734h-1.099v-4.512h-2.417v-0.952h2.417v-2.314h-2.197c-0.637,2.205-2.065,4.153-4.526,5.625l-0.703-0.835
			c2.834-1.677,4.255-4.028,4.482-6.753h-3.896v-0.952h5.039c0,0.667-0.059,1.326-0.176,1.963h1.978v-3.281h1.099V304.734z
			 M54.713,305.394h-1.099v-13.022h1.099V305.394z"/>
		<path d="M59.958,301.878v-1.45c-1.516-0.168-2.505-1.055-2.49-2.344c-0.015-1.465,1.23-2.417,3.076-2.417
			c1.816,0,3.076,0.952,3.091,2.417c-0.015,1.289-1.018,2.175-2.52,2.358v1.392c1.216-0.059,2.439-0.154,3.574-0.322l0.073,0.879
			c-2.842,0.483-5.918,0.513-8.203,0.513l-0.19-0.981C57.431,301.922,58.668,301.922,59.958,301.878z M64.455,294.905h-7.852v-0.938
			h3.354V292.4h1.157v1.567h3.34V294.905z M58.537,298.084c0,0.908,0.806,1.494,2.007,1.479c1.187,0.015,1.992-0.571,1.992-1.479
			s-0.806-1.523-1.992-1.523C59.342,296.561,58.537,297.176,58.537,298.084z M66.637,297.923h2.08v0.967h-2.08v6.504H65.48v-13.022
			h1.157V297.923z"/>
		<path d="M77.169,295.418H69.42v-0.952h3.354v-1.934h1.143v1.934h3.252V295.418z M76.554,299.49
			c-0.015,1.758-1.348,2.988-3.193,2.988c-1.86,0-3.208-1.23-3.193-2.988c-0.015-1.758,1.333-2.988,3.193-2.988
			C75.207,296.502,76.54,297.732,76.554,299.49z M71.266,299.49c-0.015,1.187,0.879,2.021,2.095,2.007
			c1.201,0.015,2.08-0.82,2.095-2.007c-0.015-1.172-0.894-2.021-2.095-2.021C72.145,297.469,71.251,298.318,71.266,299.49z
			 M79.572,297.747h2.183v0.952h-2.183v6.694h-1.143v-13.022h1.143V297.747z"/>
		<path d="M88.683,295.286h3.428v-2.915h1.143v13.052h-1.143v-5.054h-3.34c-0.549,1.318-1.553,2.08-2.813,2.08
			c-1.919,0-3.267-1.758-3.267-4.526s1.348-4.526,3.267-4.541C87.152,293.389,88.119,294.085,88.683,295.286z M83.791,297.923
			c0,2.124,0.879,3.501,2.168,3.501c1.274,0,2.168-1.377,2.168-3.501s-0.894-3.501-2.168-3.516
			C84.669,294.422,83.791,295.799,83.791,297.923z M89.21,297.923c0,0.535-0.059,1.04-0.146,1.494h3.047v-3.164H89.02
			C89.137,296.758,89.21,297.315,89.21,297.923z"/>
		<path d="M106.862,298.772l-0.542,0.923c-1.501-0.469-2.659-1.443-3.237-2.695c-0.564,1.421-1.765,2.505-3.296,3.032l-0.586-0.908
			c1.948-0.601,3.296-2.153,3.296-3.94v-0.264h-2.944v-0.952h2.944v-1.655h1.157v1.655h2.915v0.952h-2.944v0.264
			C103.625,296.78,104.943,298.216,106.862,298.772z M109.484,303.021c0,1.494-1.611,2.329-4.292,2.329
			c-2.695,0-4.321-0.835-4.321-2.329c0-1.479,1.626-2.329,4.321-2.329C107.873,300.691,109.484,301.541,109.484,303.021z
			 M102.028,303.021c-0.015,0.908,1.187,1.436,3.164,1.436s3.179-0.527,3.179-1.436s-1.201-1.421-3.179-1.421
			S102.013,302.112,102.028,303.021z M109.367,295.77h1.963v0.952h-1.963v3.647h-1.143v-7.998h1.143V295.77z"/>
		<path d="M124.015,303.548H112.15v-0.952h4.658v-4.658h1.128v4.658h6.079V303.548z M122.594,294.993
			c-0.015,1.597-0.015,3.384-0.483,6.006l-1.172-0.132c0.498-2.49,0.498-4.321,0.498-5.874v-0.352h-8.027v-0.952h9.185V294.993z"/>
		<path d="M140.744,299.388h-11.851v-0.938h4.907v-2.52h1.128v2.52h5.815V299.388z M139.337,302.991c0,1.494-1.772,2.373-4.57,2.373
			c-2.783,0-4.556-0.879-4.556-2.373c0-1.509,1.772-2.388,4.556-2.388C137.565,300.604,139.337,301.482,139.337,302.991z
			 M139.235,294.144c0,1.055,0,2.109-0.366,3.457l-1.128-0.132c0.352-1.348,0.352-2.3,0.352-3.325v-0.161h-7.793v-0.938h8.936
			V294.144z M131.354,302.991c-0.015,0.908,1.333,1.465,3.413,1.465s3.413-0.557,3.428-1.465c-0.015-0.923-1.348-1.494-3.428-1.509
			C132.687,301.497,131.339,302.068,131.354,302.991z"/>
		<path d="M142.355,300.398l-0.498-0.923c3.12-0.974,5.156-2.834,5.405-5.127h-4.863v-0.967h6.108
			C148.507,296.736,146.105,299.227,142.355,300.398z M152.624,305.115h-8.76v-4.175h1.143v3.208h7.617V305.115z M152.023,296.341
			h1.963v0.967h-1.963v4.6h-1.157v-9.536h1.157V296.341z"/>
		<path d="M162.042,298.846v-0.806c-1.523-0.11-2.49-0.718-2.49-1.714c0-1.069,1.201-1.685,3.047-1.685
			c1.86,0,3.047,0.615,3.062,1.685c-0.015,0.989-0.952,1.597-2.476,1.714v0.776c1.216-0.059,2.446-0.154,3.589-0.322l0.103,0.776
			c-2.813,0.454-5.947,0.483-8.232,0.483l-0.132-0.864C159.552,298.89,160.768,298.89,162.042,298.846z M166.378,294.202h-7.544
			v-0.835h3.208v-1.113h1.143v1.113h3.193V294.202z M168.737,303.27h-7.31v1.157h7.808v0.82h-8.95v-2.754h7.31v-1.025h-7.339v-0.82
			h8.481V303.27z M160.651,296.326c0,0.586,0.747,0.967,1.948,0.967s1.963-0.381,1.963-0.967c0-0.571-0.762-0.908-1.963-0.923
			C161.398,295.418,160.651,295.755,160.651,296.326z M168.737,295.711h1.948v0.981h-1.948v3.369h-1.157v-7.69h1.157V295.711z"/>
		<path d="M183.4,299.769h-11.865v-0.952h2.944v-1.831c-1.04-0.403-1.626-1.069-1.626-1.948c0-1.538,1.758-2.417,4.614-2.417
			c2.827,0,4.6,0.879,4.6,2.417c0,0.872-0.579,1.538-1.611,1.934v1.846h2.944V299.769z M181.95,303.064
			c-0.015,1.479-1.685,2.3-4.482,2.3c-2.827,0-4.497-0.82-4.497-2.3c0-1.494,1.67-2.3,4.497-2.3
			C180.265,300.765,181.935,301.57,181.95,303.064z M174.04,295.037c-0.015,0.952,1.304,1.509,3.428,1.509
			c2.109,0,3.428-0.557,3.428-1.509c0-0.938-1.318-1.509-3.428-1.509C175.343,293.528,174.025,294.1,174.04,295.037z
			 M174.142,303.064c-0.015,0.879,1.23,1.406,3.325,1.406c2.065,0,3.325-0.527,3.325-1.406c0-0.894-1.26-1.406-3.325-1.421
			C175.373,301.658,174.127,302.171,174.142,303.064z M179.313,298.816v-1.523c-0.549,0.095-1.165,0.146-1.846,0.146
			s-1.296-0.051-1.846-0.146v1.523H179.313z"/>
		<path d="M195.016,299.417h-4.028v3.369h5.435v0.967h-11.924v-0.967h5.361v-3.369h-3.838v-5.977h8.862v0.938h-7.705v4.102h7.837
			V299.417z"/>
		<path d="M209.372,299.329h-11.924v-0.908h11.924V299.329z M207.877,303.138h-7.822v1.245h8.247v0.835h-9.404v-2.871h7.837v-1.113
			h-7.852v-0.864h8.994V303.138z M207.833,295.462h-7.69v1.143h7.925v0.835H199v-2.769h7.676v-1.069h-7.72v-0.835h8.877V295.462z"/>
		<path d="M40.958,314.909c0,0.981,0,2.249-0.322,3.955h1.89v0.952H30.602v-0.952h8.877c0.33-1.707,0.337-2.944,0.337-3.911h-7.705
			v-0.938h8.848V314.909z M41.061,326.438h-1.157v-3.75h-8.042v-0.923h9.199V326.438z"/>
		<path d="M48.927,315.92h-3.735v6.27c1.794-0.007,3.04-0.073,4.482-0.366l0.103,0.967c-1.567,0.322-2.9,0.381-4.893,0.381h-0.835
			v-8.203h4.878V315.92z M54.699,326.394H53.6v-6.826h-1.919v6.152h-1.055v-12.056h1.055v4.951H53.6v-5.244h1.099V326.394z"/>
		<path d="M59.958,322.878v-1.45c-1.516-0.168-2.505-1.055-2.49-2.344c-0.015-1.465,1.23-2.417,3.076-2.417
			c1.816,0,3.076,0.952,3.091,2.417c-0.015,1.289-1.018,2.175-2.52,2.358v1.392c1.216-0.059,2.439-0.154,3.574-0.322l0.073,0.879
			c-2.842,0.483-5.918,0.513-8.203,0.513l-0.19-0.981C57.431,322.922,58.668,322.922,59.958,322.878z M64.455,315.905h-7.852v-0.938
			h3.354V313.4h1.157v1.567h3.34V315.905z M58.537,319.084c0,0.908,0.806,1.494,2.007,1.479c1.187,0.015,1.992-0.571,1.992-1.479
			s-0.806-1.523-1.992-1.523C59.342,317.561,58.537,318.176,58.537,319.084z M66.637,318.923h2.08v0.967h-2.08v6.504H65.48v-13.022
			h1.157V318.923z"/>
		<path d="M77.287,315.671h-7.764v-0.952h3.311v-1.465h1.143v1.465h3.311V315.671z M76.54,318.557
			c-0.015,1.392-1.26,2.285-3.135,2.285c-1.89,0-3.149-0.894-3.135-2.285c-0.015-1.392,1.245-2.285,3.135-2.285
			C75.28,316.271,76.525,317.165,76.54,318.557z M71.369,318.557c-0.015,0.85,0.806,1.406,2.036,1.406
			c1.216,0,2.036-0.557,2.051-1.406c-0.015-0.835-0.835-1.406-2.051-1.392C72.174,317.15,71.354,317.722,71.369,318.557z
			 M72.584,322.907h5.947v-1.392h1.143v4.702h-8.232v-4.702h1.143V322.907z M78.532,325.295v-1.479h-5.947v1.479H78.532z
			 M79.674,316.711h1.963v0.981h-1.963v3.252h-1.143v-7.573h1.143V316.711z"/>
		<path d="M84.435,322.043c1.985-0.007,4.043-0.168,6.226-0.63l0.161,0.981c-2.314,0.483-4.38,0.645-6.46,0.645h-1.055v-8.379h1.128
			V322.043z M93.195,326.394h-1.143v-13.022h1.143V326.394z"/>
		<path d="M102.072,315.598h-4.937v6.592c2.358,0,4.028-0.11,5.962-0.469l0.146,0.996c-2.036,0.366-3.75,0.439-6.226,0.439h-1.025
			v-8.511h6.079V315.598z M105.5,318.527h2.183v0.967H105.5v6.929h-1.143v-13.052h1.143V318.527z"/>
		<path d="M108.825,324.343c-0.015-0.513,0.425-0.938,0.938-0.938s0.938,0.425,0.938,0.938c0,0.527-0.425,0.952-0.938,0.952
			S108.81,324.87,108.825,324.343z"/>
		<path d="M119.804,319.567c1.45-0.044,2.937-0.146,4.292-0.322l0.073,0.85c-2.725,0.439-5.845,0.513-8.188,0.513l-0.117-0.967
			c0.85,0,1.802-0.007,2.798-0.029v-2.593h1.143V319.567z M123.158,314.895c-0.015,0.82-0.015,1.992-0.352,3.53l-1.143-0.103
			c0.3-1.377,0.337-2.38,0.337-3.164h-5.332v-0.967h6.489V314.895z M126.249,323.991c0,1.509-1.641,2.358-4.336,2.358
			s-4.336-0.85-4.336-2.358c0-1.45,1.641-2.314,4.336-2.314S126.249,322.541,126.249,323.991z M118.734,323.991
			c-0.015,0.923,1.216,1.45,3.179,1.45s3.179-0.527,3.179-1.45c0-0.879-1.216-1.421-3.179-1.421S118.72,323.112,118.734,323.991z
			 M126.146,316.945h1.904v0.967h-1.904v3.604h-1.172v-8.145h1.172V316.945z"/>
		<path d="M130.702,316.198h3.633v-2.08h1.128v2.563h3.076v-3.311h1.157v7.559h-1.157v-3.281h-3.076v2.549h-5.903v-6.079h1.143
			V316.198z M134.335,319.26v-2.139h-3.633v2.139H134.335z M139.696,326.218h-8.511v-4.644h8.511V326.218z M132.328,325.28h6.24
			v-2.783h-6.24V325.28z"/>
		<path d="M150.521,319.978l0.073,0.864c-1.245,0.227-2.542,0.366-3.794,0.439v4.717h-1.143v-4.644
			c-1.326,0.059-2.578,0.066-3.662,0.073l-0.161-0.981C144.281,320.446,147.621,320.402,150.521,319.978z M149.496,316.667
			c0,1.582-1.392,2.681-3.34,2.666c-1.948,0.015-3.34-1.084-3.34-2.666c0-1.597,1.392-2.666,3.34-2.651
			C148.104,314.001,149.496,315.07,149.496,316.667z M143.944,316.667c-0.015,1.025,0.908,1.729,2.212,1.714
			c1.318,0.015,2.241-0.688,2.241-1.714c0-1.011-0.923-1.729-2.241-1.714C144.853,314.938,143.93,315.656,143.944,316.667z
			 M152.602,326.408h-1.128v-13.022h1.128V326.408z"/>
		<path d="M162.621,315.92h-7.764v-0.938h3.311v-1.597h1.143v1.597h3.311V315.92z M161.874,319.069
			c-0.015,1.465-1.274,2.402-3.135,2.402c-1.875,0-3.149-0.938-3.135-2.402c-0.015-1.479,1.26-2.432,3.135-2.432
			C160.6,316.638,161.859,317.59,161.874,319.069z M156.703,319.069c-0.015,0.923,0.806,1.509,2.036,1.494
			c1.216,0.015,2.036-0.571,2.051-1.494c-0.015-0.923-0.835-1.523-2.051-1.523C157.509,317.546,156.688,318.146,156.703,319.069z
			 M165.609,326.115h-8.745v-3.75h1.128v2.783h7.617V326.115z M165.009,317.678h1.963v0.967h-1.963v4.497h-1.143v-9.756h1.143
			V317.678z"/>
		<path d="M175.424,320.065c1.443-0.059,2.937-0.161,4.292-0.352l0.073,0.85c-2.725,0.469-5.874,0.527-8.188,0.527l-0.117-0.952
			c0.842-0.007,1.794-0.015,2.798-0.044v-2.827h1.143V320.065z M178.778,315.07c-0.015,0.85-0.015,2.153-0.337,3.853l-1.157-0.088
			c0.315-1.56,0.344-2.666,0.366-3.486h-5.361v-0.967h6.489V315.07z M182.191,326.115h-8.701v-3.823h1.157v2.856h7.544V326.115z
			 M181.767,317.619h1.904v0.981h-1.904v4.57h-1.172v-9.8h1.172V317.619z"/>
		<path d="M191.317,319.216h-4.863v3.076c2.161,0,4.087-0.095,6.416-0.469l0.117,0.967c-2.402,0.381-4.38,0.469-6.621,0.469h-1.084
			v-4.98h4.878v-2.739h-4.907v-0.952h6.064V319.216z M195.272,326.423h-1.143v-13.052h1.143V326.423z"/>
		<path d="M198.48,328.21h-1.084l0.806-3.984h1.421L198.48,328.21z"/>
		<path d="M215.641,317.663h-4.043v1.655h5.361v0.952h-11.865v-0.952h5.361v-1.655h-3.735v-3.999h1.143v3.076h7.778V317.663z
			 M215.656,322.497h-2.021v2.783h2.124v0.938h-9.448v-0.938h2.124v-2.783h-2.007v-0.923h9.229V322.497z M212.506,325.28v-2.783
			h-2.93v2.783H212.506z"/>
		<path d="M229.923,321.179h-11.865v-0.938h11.865V321.179z M228.59,316.418c0,1.626-1.802,2.593-4.6,2.593
			c-2.827,0-4.614-0.967-4.614-2.593s1.787-2.593,4.614-2.578C226.789,313.825,228.59,314.792,228.59,316.418z M228.605,326.115
			h-9.009v-3.794h1.157v2.827h7.852V326.115z M220.563,316.418c-0.015,1.025,1.333,1.655,3.428,1.655c2.08,0,3.428-0.63,3.428-1.655
			s-1.348-1.655-3.428-1.655C221.896,314.763,220.548,315.393,220.563,316.418z"/>
		<path d="M242.462,319.772l-0.542,0.923c-1.501-0.469-2.659-1.443-3.237-2.695c-0.564,1.421-1.765,2.505-3.296,3.032l-0.586-0.908
			c1.948-0.601,3.296-2.153,3.296-3.94v-0.264h-2.944v-0.952h2.944v-1.655h1.157v1.655h2.915v0.952h-2.944v0.264
			C239.225,317.78,240.543,319.216,242.462,319.772z M245.084,324.021c0,1.494-1.611,2.329-4.292,2.329
			c-2.695,0-4.321-0.835-4.321-2.329c0-1.479,1.626-2.329,4.321-2.329C243.473,321.691,245.084,322.541,245.084,324.021z
			 M237.628,324.021c-0.015,0.908,1.187,1.436,3.164,1.436s3.179-0.527,3.179-1.436s-1.201-1.421-3.179-1.421
			S237.614,323.112,237.628,324.021z M244.967,316.77h1.963v0.952h-1.963v3.647h-1.143v-7.998h1.143V316.77z"/>
		<path d="M259.616,324.548H247.75v-0.952h4.658v-4.658h1.128v4.658h6.079V324.548z M258.195,315.993
			c-0.015,1.597-0.015,3.384-0.483,6.006l-1.172-0.132c0.498-2.49,0.498-4.321,0.498-5.874v-0.352h-8.027v-0.952h9.185V315.993z"/>
		<path d="M37.663,338.033c0,1.802-1.421,3.032-3.398,3.018c-1.978,0.015-3.398-1.216-3.398-3.018c0-1.772,1.421-2.988,3.398-2.988
			S37.663,336.26,37.663,338.033z M31.994,338.033c-0.015,1.201,0.952,2.036,2.271,2.051c1.333-0.015,2.285-0.85,2.3-2.051
			c-0.015-1.187-0.967-2.036-2.3-2.021C32.946,335.997,31.979,336.846,31.994,338.033z M33.678,343.687h5.962v-1.626h1.143v5.156
			h-8.247v-5.156h1.143V343.687z M39.64,346.28v-1.685h-5.962v1.685H39.64z M40.783,337.359h1.963v0.967h-1.963v3.091H39.64v-7.046
			h1.143V337.359z"/>
		<path d="M45.25,337.242h3.794v-2.051h1.143v6.152h-6.064v-6.152h1.128V337.242z M53.747,347.393h-1.143v-3.516h-7.383v-0.938
			h8.525V347.393z M49.044,340.406v-2.241H45.25v2.241H49.044z M53.747,337.769h1.963v0.952h-1.963v3.53h-1.143v-7.881h1.143
			V337.769z"/>
		<path d="M57.526,349.209h-1.084l0.806-3.984h1.421L57.526,349.209z"/>
		<path d="M76.005,341.387H64.154v-0.938h4.907v-2.52h1.128v2.52h5.815V341.387z M74.599,344.991c0,1.494-1.772,2.373-4.57,2.373
			c-2.783,0-4.556-0.879-4.556-2.373c0-1.509,1.772-2.388,4.556-2.388C72.826,342.603,74.599,343.482,74.599,344.991z
			 M74.496,336.143c0,1.055,0,2.109-0.366,3.457l-1.128-0.132c0.352-1.348,0.352-2.3,0.352-3.325v-0.161h-7.793v-0.938h8.936
			V336.143z M66.615,344.991c-0.015,0.908,1.333,1.465,3.413,1.465s3.413-0.557,3.428-1.465c-0.015-0.923-1.348-1.494-3.428-1.509
			C67.948,343.497,66.601,344.068,66.615,344.991z"/>
		<path d="M77.616,342.398l-0.498-0.923c3.12-0.974,5.156-2.835,5.405-5.127H77.66v-0.967h6.108
			C83.769,338.736,81.366,341.226,77.616,342.398z M87.885,347.115h-8.76v-4.175h1.143v3.208h7.617V347.115z M87.284,338.34h1.963
			v0.967h-1.963v4.6h-1.157v-9.536h1.157V338.34z"/>
		<path d="M97.304,340.845v-0.806c-1.523-0.11-2.49-0.718-2.49-1.714c0-1.069,1.201-1.685,3.047-1.685
			c1.86,0,3.047,0.615,3.062,1.685c-0.015,0.988-0.952,1.597-2.476,1.714v0.776c1.216-0.059,2.446-0.154,3.589-0.322l0.103,0.776
			c-2.813,0.454-5.947,0.483-8.232,0.483l-0.132-0.864C94.813,340.889,96.029,340.889,97.304,340.845z M101.64,336.202h-7.544
			v-0.835h3.208v-1.113h1.143v1.113h3.193V336.202z M103.998,345.269h-7.31v1.157h7.808v0.82h-8.95v-2.754h7.31v-1.025h-7.339v-0.82
			h8.481V345.269z M95.912,338.326c0,0.586,0.747,0.967,1.948,0.967s1.963-0.381,1.963-0.967c0-0.571-0.762-0.908-1.963-0.923
			C96.659,337.417,95.912,337.754,95.912,338.326z M103.998,337.71h1.948v0.981h-1.948v3.369h-1.157v-7.69h1.157V337.71z"/>
		<path d="M118.661,341.768h-11.865v-0.952h2.944v-1.831c-1.04-0.403-1.626-1.069-1.626-1.948c0-1.538,1.758-2.417,4.614-2.417
			c2.827,0,4.6,0.879,4.6,2.417c0,0.871-0.579,1.538-1.611,1.934v1.846h2.944V341.768z M117.211,345.064
			c-0.015,1.479-1.685,2.3-4.482,2.3c-2.827,0-4.497-0.82-4.497-2.3c0-1.494,1.67-2.3,4.497-2.3
			C115.526,342.764,117.196,343.57,117.211,345.064z M109.301,337.037c-0.015,0.952,1.304,1.509,3.428,1.509
			c2.109,0,3.428-0.557,3.428-1.509c0-0.938-1.318-1.509-3.428-1.509C110.604,335.528,109.286,336.099,109.301,337.037z
			 M109.403,345.064c-0.015,0.879,1.23,1.406,3.325,1.406c2.065,0,3.325-0.527,3.325-1.406c0-0.894-1.26-1.406-3.325-1.421
			C110.634,343.658,109.389,344.17,109.403,345.064z M114.574,340.816v-1.523c-0.549,0.096-1.165,0.146-1.846,0.146
			s-1.296-0.051-1.846-0.146v1.523H114.574z"/>
		<path d="M125.429,338.926h3.882v-3.442h1.128v8.789h-6.152v-8.789h1.143V338.926z M129.311,343.306v-3.457h-3.882v3.457H129.311z
			 M134.262,347.422h-1.157v-13.052h1.157V347.422z"/>
		<path d="M148.412,345.899h-11.924v-0.952h3.149v-2.417c-0.967-0.41-1.501-1.077-1.494-1.963c-0.015-1.553,1.626-2.446,4.277-2.446
			c2.637,0,4.277,0.894,4.277,2.446c0,0.886-0.542,1.56-1.509,1.963v2.417h3.223V345.899z M147.738,337.271h-10.664v-0.952h4.775
			v-1.729h1.128v1.729h4.761V337.271z M139.301,340.567c-0.015,0.952,1.172,1.523,3.12,1.523c1.919,0,3.105-0.571,3.105-1.523
			c0-0.967-1.187-1.538-3.105-1.538C140.473,339.029,139.286,339.6,139.301,340.567z M144.062,344.947v-2.095
			c-0.491,0.103-1.04,0.146-1.641,0.146c-0.593,0-1.143-0.044-1.626-0.132v2.08H144.062z"/>
		<path d="M161.317,340.787h-3.311v1.289h1.787v2.915h-7.734v1.348h8.13v0.908h-9.272v-3.105h7.749v-1.187h-7.778v-0.879h1.802
			v-1.289h-3.237v-0.938h11.865V340.787z M159.984,336.788c0,1.465-1.699,2.256-4.6,2.271c-2.9-0.015-4.614-0.806-4.614-2.271
			c0-1.45,1.714-2.256,4.614-2.256S159.984,335.337,159.984,336.788z M151.972,336.788c-0.015,0.894,1.245,1.377,3.413,1.392
			c2.153-0.015,3.428-0.498,3.428-1.392c0-0.864-1.274-1.362-3.428-1.377C153.217,335.425,151.957,335.923,151.972,336.788z
			 M156.864,342.076v-1.289h-3.047v1.289H156.864z"/>
		<path d="M178.09,341.988h-5.303v2.666h-1.143v-2.666h-5.479v-0.952h11.924V341.988z M176.757,347.115h-9.067v-3.75h1.157v2.783
			h7.91V347.115z M176.537,339.542h-8.818v-4.526h8.818V339.542z M168.847,338.619h6.548v-2.695h-6.548V338.619z"/>
		<path d="M185.78,343.628l-0.703,0.85c-1.282-0.77-2.19-2.176-2.637-3.838c-0.476,1.795-1.421,3.325-2.725,4.146l-0.732-0.864
			c1.816-1.084,2.871-3.457,2.871-5.83v-1.23h-2.505v-0.952h6.006v0.952h-2.388v1.23
			C182.968,340.347,183.979,342.588,185.78,343.628z M187.641,346.719h-1.084v-6.709h-2.197v-0.938h2.197v-4.38h1.084V346.719z
			 M190.277,347.393h-1.099v-13.022h1.099V347.393z"/>
		<path d="M204.018,341.329h-11.924v-0.908h11.924V341.329z M202.523,345.137h-7.822v1.245h8.247v0.835h-9.404v-2.871h7.837v-1.113
			h-7.852v-0.864h8.994V345.137z M202.479,337.461h-7.69v1.143h7.925v0.835h-9.067v-2.769h7.676v-1.069h-7.72v-0.835h8.877V337.461z
			"/>
		<path d="M215.341,337.564h-6.533v-0.938h2.71v-1.86h1.143v1.86h2.681V337.564z M214.901,341.402
			c-0.015,1.743-1.187,2.988-2.827,2.988c-1.626,0-2.798-1.245-2.798-2.988c0-1.729,1.172-2.959,2.798-2.959
			C213.715,338.443,214.887,339.673,214.901,341.402z M210.302,341.402c0,1.157,0.747,1.992,1.772,1.978
			c1.04,0.015,1.802-0.82,1.802-1.978c0-1.143-0.762-1.978-1.802-1.992C211.049,339.424,210.302,340.259,210.302,341.402z
			 M219.926,347.393h-1.099v-6.577h-1.729v5.933h-1.084v-12.056h1.084v5.171h1.729v-5.493h1.099V347.393z"/>
		<path d="M232.597,341.036h-1.157v-1.362h-3.472v-0.908h3.472v-1.567h-3.281c-0.82,2.058-2.842,3.442-5.728,4.131l-0.41-0.952
			c3.193-0.74,5.054-2.3,5.273-4.395h-4.614v-0.952h5.874c0,0.433-0.044,0.85-0.117,1.245h3.003v-1.904h1.157V341.036z
			 M232.597,344.8h-7.266v1.523h7.705v0.952h-8.848v-3.354h7.251v-1.362h-7.28v-0.938h8.438V344.8z"/>
		<path d="M242.558,336.67h-7.764v-0.952h3.311v-1.465h1.143v1.465h3.311V336.67z M241.811,339.556
			c-0.015,1.392-1.26,2.285-3.135,2.285c-1.89,0-3.149-0.894-3.135-2.285c-0.015-1.392,1.245-2.285,3.135-2.285
			C240.551,337.271,241.796,338.165,241.811,339.556z M236.64,339.556c-0.015,0.85,0.806,1.406,2.036,1.406
			c1.216,0,2.036-0.557,2.051-1.406c-0.015-0.835-0.835-1.406-2.051-1.392C237.445,338.15,236.625,338.721,236.64,339.556z
			 M237.855,343.907h5.947v-1.392h1.143v4.702h-8.232v-4.702h1.143V343.907z M243.803,346.294v-1.479h-5.947v1.479H243.803z
			 M244.945,337.71h1.963v0.981h-1.963v3.252h-1.143v-7.573h1.143V337.71z"/>
		<path d="M249.706,343.042c1.985-0.008,4.043-0.168,6.226-0.63l0.161,0.981c-2.314,0.483-4.38,0.645-6.46,0.645h-1.055v-8.379
			h1.128V343.042z M258.466,347.393h-1.143v-13.022h1.143V347.393z"/>
		<path d="M267.343,336.597h-4.937v6.592c2.358,0,4.028-0.109,5.962-0.469l0.146,0.996c-2.036,0.366-3.75,0.439-6.226,0.439h-1.025
			v-8.511h6.079V336.597z M270.771,339.527h2.183v0.967h-2.183v6.929h-1.143v-13.052h1.143V339.527z"/>
		<path d="M274.096,345.342c-0.015-0.513,0.425-0.938,0.938-0.938s0.938,0.425,0.938,0.938c0,0.527-0.425,0.952-0.938,0.952
			S274.081,345.87,274.096,345.342z"/>
	</g>
</g>
<g>
</g>
<g>
</g>
<g>
</g>
<g>
</g>
<g>
</g>
<g>
</g>
</svg>
