<?xml version="1.0" encoding="utf-8"?>
<!-- Generator: Adobe Illustrator 16.0.0, SVG Export Plug-In . SVG Version: 6.00 Build 0)  -->
<!DOCTYPE svg PUBLIC "-//W3C//DTD SVG 1.1//EN" "http://www.w3.org/Graphics/SVG/1.1/DTD/svg11.dtd">
<svg version="1.1" id="Layer_1" xmlns="http://www.w3.org/2000/svg" xmlns:xlink="http://www.w3.org/1999/xlink" x="0px" y="0px"
	 width="311.812px" height="388.346px" viewBox="0 0 311.812 388.346" enable-background="new 0 0 311.812 388.346"
	 xml:space="preserve">
<path fill="#FFFFFF" d="M181.662,113.042h-13.274c-0.343,0-0.622-0.279-0.622-0.622c0-0.344,0.279-0.622,0.622-0.622h13.274
	c0.343,0,0.622,0.278,0.622,0.622C182.284,112.764,182.005,113.042,181.662,113.042z"/>
<path fill="#FFFFFF" d="M181.662,120.164h-13.274c-0.343,0-0.622-0.279-0.622-0.622c0-0.344,0.279-0.623,0.622-0.623h13.274
	c0.343,0,0.622,0.278,0.622,0.623C182.284,119.885,182.005,120.164,181.662,120.164z"/>
<path fill="#FFFFFF" d="M181.662,127.284h-13.274c-0.343,0-0.622-0.279-0.622-0.622c0-0.343,0.279-0.622,0.622-0.622h13.274
	c0.343,0,0.622,0.279,0.622,0.622C182.284,127.005,182.005,127.284,181.662,127.284z"/>
<path fill="#FFFFFF" d="M181.662,134.406h-13.274c-0.343,0-0.622-0.279-0.622-0.622c0-0.344,0.279-0.623,0.622-0.623h13.274
	c0.343,0,0.622,0.278,0.622,0.623C182.284,134.127,182.005,134.406,181.662,134.406z"/>
<path fill="#FFFFFF" d="M164.17,135.581c-0.002,0-0.004,0-0.007,0c-0.186-0.002-0.36-0.087-0.477-0.231l-1.453-1.798
	c-0.214-0.268-0.173-0.659,0.095-0.875c0.267-0.216,0.658-0.174,0.874,0.093l0.98,1.212l1.033-1.223
	c0.223-0.263,0.615-0.295,0.878-0.073c0.263,0.222,0.295,0.615,0.073,0.876l-1.521,1.798
	C164.527,135.5,164.354,135.581,164.17,135.581z"/>
<path fill="#FFFFFF" d="M164.17,128.66c-0.002,0-0.004,0-0.007,0c-0.186-0.003-0.36-0.088-0.477-0.231l-1.453-1.798
	c-0.214-0.268-0.173-0.659,0.095-0.875c0.267-0.216,0.658-0.175,0.874,0.092l0.98,1.212l1.033-1.223
	c0.223-0.263,0.615-0.296,0.878-0.074c0.263,0.222,0.295,0.615,0.073,0.877l-1.521,1.798
	C164.527,128.579,164.354,128.66,164.17,128.66z"/>
<path fill="#FFFFFF" d="M164.17,121.738c-0.002,0-0.004,0-0.007,0c-0.186-0.002-0.36-0.087-0.477-0.231l-1.453-1.798
	c-0.214-0.268-0.173-0.659,0.095-0.875c0.267-0.216,0.658-0.174,0.874,0.093l0.98,1.212l1.033-1.223
	c0.223-0.263,0.615-0.295,0.878-0.074s0.295,0.615,0.073,0.877l-1.521,1.798C164.527,121.657,164.354,121.738,164.17,121.738z"/>
<path fill="#FFFFFF" d="M164.17,114.817c-0.002,0-0.004,0-0.007,0c-0.186-0.002-0.36-0.087-0.477-0.231l-1.453-1.797
	c-0.214-0.268-0.173-0.659,0.095-0.875c0.267-0.216,0.658-0.175,0.874,0.093l0.98,1.212l1.033-1.223
	c0.223-0.263,0.615-0.296,0.878-0.074s0.295,0.615,0.073,0.877l-1.521,1.798C164.527,114.736,164.354,114.817,164.17,114.817z"/>
<g>
	<path fill="#3DA1FC" stroke="#0687FC" stroke-width="2" stroke-miterlimit="10" d="M304.29,365.986
		c0,8.627-6.992,15.621-15.619,15.621H23.142c-8.627,0-15.62-6.994-15.62-15.621V22.359c0-8.626,6.993-15.62,15.62-15.62h265.529
		c8.627,0,15.619,6.993,15.619,15.62V365.986z"/>
	<g>
		<g>
			<path fill="#FFFFFF" d="M166.93,91.496h-1.851c-0.22-0.844-0.539-1.596-0.951-2.314l1.386-1.387
				c0.181-0.183,0.282-0.434,0.282-0.69c0-0.256-0.102-0.505-0.282-0.687l-2.266-2.262c-0.375-0.375-0.984-0.377-1.362-0.002
				l-1.426,1.4c-0.722-0.407-1.521-0.73-2.365-0.951v-2.078c0-0.534-0.401-0.919-0.935-0.919h-3.137
				c-0.533,0-0.993,0.385-0.993,0.919v2.119c-0.725,0.222-1.535,0.541-2.235,0.944l-1.497-1.498c-0.377-0.376-0.983-0.376-1.359,0
				l-2.269,2.266c-0.183,0.182-0.282,0.429-0.281,0.685c0,0.258,0.104,0.504,0.287,0.685l1.508,1.516
				c-0.397,0.706-0.707,1.411-0.919,2.257h-2.133c-0.531,0-0.992,0.385-0.992,0.917v3.137c0,0.533,0.461,1.012,0.992,1.012h2.154
				c0.219,0.725,0.533,1.543,0.928,2.245l-1.55,1.559c-0.372,0.377-0.372,0.977,0.002,1.352l2.265,2.278
				c0.376,0.378,0.986,0.378,1.362,0.004l1.542-1.537c0.695,0.398,1.471,0.712,2.195,0.929v1.93c0,0.534,0.461,1.011,0.993,1.011
				h3.136c0.534,0,0.936-0.479,0.936-1.011v-1.889c0.845-0.214,1.608-0.532,2.323-0.93l1.451,1.437
				c0.377,0.375,0.99,0.375,1.366-0.001l2.271-2.266c0.372-0.373,0.379-0.978,0.011-1.356l-1.424-1.443
				c0.434-0.739,0.756-1.588,0.972-2.312h1.864c0.532,0,0.935-0.479,0.935-1.011v-3.137
				C167.865,91.883,167.462,91.496,166.93,91.496z M165.935,94.633h-1.643c-0.47,0-0.868,0.313-0.951,0.773
				c-0.194,1.108-0.608,2.092-1.262,3.027c-0.265,0.38-0.226,0.886,0.1,1.218l1.293,1.331l-0.916,0.913l-1.299-1.295
				c-0.326-0.325-0.84-0.374-1.224-0.115c-0.877,0.596-1.972,1.031-3.061,1.227c-0.458,0.083-0.808,0.482-0.808,0.95v1.742h-1.208
				v-1.773c0-0.461-0.312-0.858-0.765-0.947c-1.047-0.202-2.056-0.63-2.938-1.238c-0.384-0.264-0.894-0.218-1.224,0.108
				l-1.412,1.397l-0.914-0.921l1.413-1.432c0.325-0.328,0.369-0.844,0.109-1.224c-0.586-0.853-1.021-1.896-1.229-2.98
				c-0.086-0.455-0.484-0.762-0.947-0.762h-1.984v-1.206h1.965c0.468,0,0.865-0.356,0.951-0.814
				c0.189-1.049,0.612-2.088,1.222-2.986c0.263-0.384,0.212-0.906-0.119-1.233l-1.364-1.353l0.902-0.901l1.369,1.363
				c0.331,0.33,0.849,0.374,1.233,0.107c0.875-0.61,1.891-1.046,2.968-1.257c0.452-0.089,0.763-0.486,0.763-0.946v-1.869h1.208
				v1.839c0,0.466,0.348,0.865,0.806,0.949c1.111,0.202,2.213,0.646,3.09,1.247c0.384,0.263,0.902,0.216,1.229-0.11l1.271-1.26
				l0.9,0.897l-1.242,1.236c-0.331,0.329-0.38,0.848-0.113,1.231c0.619,0.899,1.052,1.969,1.253,3.048
				c0.086,0.457,0.485,0.813,0.95,0.813h1.625V94.633z"/>
			<path fill="#FFFFFF" d="M155.672,87.754c-3.454,0-6.265,2.81-6.265,6.263c0,3.454,2.811,6.264,6.265,6.264
				c3.452,0,6.262-2.81,6.262-6.264C161.934,90.563,159.124,87.754,155.672,87.754z M155.672,98.351
				c-2.39,0-4.335-1.943-4.335-4.333c0-2.389,1.944-4.334,4.335-4.334c2.39,0,4.334,1.945,4.334,4.334
				C160.006,96.407,158.062,98.351,155.672,98.351z"/>
		</g>
		<g>
			<path fill="#FFFFFF" d="M158.028,120.116h-2.863c-0.34-1.306-0.834-2.469-1.471-3.58l2.144-2.146
				c0.279-0.28,0.438-0.669,0.438-1.066s-0.158-0.783-0.438-1.063l-3.505-3.499c-0.581-0.579-1.523-0.582-2.107-0.003l-2.202,2.166
				c-1.118-0.629-2.354-1.13-3.661-1.472v-3.214c0-0.825-0.622-1.422-1.446-1.422h-4.852c-0.824,0-1.537,0.597-1.537,1.422v3.277
				c-1.12,0.344-2.372,0.839-3.456,1.462l-2.316-2.317c-0.583-0.581-1.521-0.58-2.103,0l-3.509,3.504
				c-0.283,0.281-0.438,0.663-0.437,1.061c0,0.397,0.16,0.778,0.444,1.059l2.333,2.345c-0.615,1.09-1.095,2.183-1.421,3.489h-3.298
				c-0.824,0-1.538,0.597-1.538,1.42v4.852c0,0.824,0.714,1.564,1.538,1.564h3.329c0.34,1.119,0.824,2.388,1.434,3.472l-2.396,2.413
				c-0.575,0.582-0.574,1.51,0.003,2.09l3.505,3.524c0.581,0.584,1.524,0.585,2.107,0.006l2.382-2.378
				c1.076,0.617,2.277,1.101,3.397,1.437v2.984c0,0.826,0.713,1.564,1.537,1.564h4.852c0.824,0,1.446-0.74,1.446-1.564v-2.92
				c1.307-0.333,2.487-0.824,3.595-1.439l2.244,2.222c0.582,0.581,1.531,0.581,2.112-0.001l3.514-3.505
				c0.576-0.575,0.586-1.511,0.019-2.097l-2.202-2.234c0.669-1.144,1.167-2.455,1.502-3.575h2.883c0.825,0,1.446-0.739,1.446-1.563
				v-4.852C159.477,120.713,158.854,120.116,158.028,120.116z M156.489,124.967h-2.542c-0.723,0-1.344,0.484-1.471,1.197
				c-0.302,1.715-0.94,3.235-1.952,4.683c-0.41,0.587-0.346,1.37,0.153,1.885l2.002,2.059l-1.416,1.413l-2.011-2.004
				c-0.507-0.505-1.299-0.579-1.893-0.179c-1.355,0.922-3.052,1.595-4.733,1.896c-0.711,0.129-1.251,0.747-1.251,1.47v2.695h-1.865
				v-2.741c0-0.715-0.484-1.33-1.187-1.466c-1.617-0.313-3.18-0.976-4.544-1.917c-0.591-0.407-1.381-0.336-1.892,0.168l-2.186,2.161
				l-1.411-1.423l2.185-2.216c0.504-0.507,0.572-1.304,0.168-1.892c-0.904-1.319-1.578-2.934-1.899-4.612
				c-0.133-0.702-0.748-1.176-1.465-1.176h-3.069v-1.866h3.041c0.721,0,1.339-0.552,1.469-1.261
				c0.294-1.621,0.948-3.229,1.892-4.617c0.405-0.595,0.327-1.403-0.186-1.909l-2.109-2.091l1.396-1.396l2.118,2.108
				c0.513,0.51,1.314,0.578,1.906,0.165c1.354-0.944,2.927-1.616,4.592-1.942c0.7-0.139,1.182-0.752,1.182-1.465v-2.891h1.865v2.844
				c0,0.722,0.538,1.339,1.248,1.469c1.72,0.313,3.424,0.999,4.78,1.929c0.592,0.407,1.395,0.334,1.902-0.17l1.964-1.95l1.394,1.389
				l-1.924,1.912c-0.509,0.509-0.587,1.313-0.175,1.905c0.96,1.392,1.63,3.046,1.939,4.715c0.135,0.708,0.75,1.257,1.471,1.257
				h2.514V124.967z"/>
			<path fill="#FFFFFF" d="M140.612,114.327c-5.341,0-9.688,4.346-9.688,9.688c0,5.343,4.347,9.689,9.688,9.689
				c5.342,0,9.688-4.347,9.688-9.689C150.301,118.673,145.954,114.327,140.612,114.327z M140.612,130.719
				c-3.695,0-6.701-3.007-6.701-6.703c0-3.694,3.004-6.703,6.701-6.703c3.696,0,6.704,3.009,6.704,6.703
				C147.316,127.712,144.309,130.719,140.612,130.719z"/>
		</g>
		<path fill="#FFFFFF" d="M188.424,105.376h-4.278v-0.143c0-0.992-0.807-1.799-1.798-1.799h-3.457v-0.739
			c0-0.992-0.806-1.798-1.798-1.798h-2.488c-0.991,0-1.798,0.806-1.798,1.798v0.739h-3.454c-0.993,0-1.8,0.807-1.8,1.799v0.143
			h-4.278c-1.191,0-2.161,0.876-2.161,1.954v35.398c0,1.077,0.97,1.954,2.161,1.954h25.149c1.191,0,2.16-0.877,2.16-1.954V107.33
			C190.584,106.252,189.615,105.376,188.424,105.376z M182.901,107.947c0,0.307-0.248,0.555-0.554,0.555h-12.995
			c-0.307,0-0.555-0.248-0.555-0.555v-2.714c0-0.306,0.248-0.554,0.555-0.554h4.699v-1.984c0-0.306,0.248-0.554,0.553-0.554h2.488
			c0.305,0,0.554,0.248,0.554,0.554v1.984h4.701c0.306,0,0.554,0.248,0.554,0.554V107.947z M189.34,142.729
			c0,0.385-0.42,0.71-0.916,0.71h-25.149c-0.497,0-0.917-0.325-0.917-0.71V107.33c0-0.385,0.42-0.71,0.917-0.71h4.278v1.327
			c0,0.992,0.807,1.799,1.8,1.799h12.995c0.991,0,1.798-0.807,1.798-1.799v-1.327h4.278c0.496,0,0.916,0.325,0.916,0.71V142.729z"/>
		<g>
			<path fill="#FFFFFF" d="M185.321,117.351h-13.274c-0.344,0-0.622-0.278-0.622-0.622s0.278-0.622,0.622-0.622h13.274
				c0.344,0,0.622,0.278,0.622,0.622S185.665,117.351,185.321,117.351z"/>
			<path fill="#FFFFFF" d="M185.321,124.472h-13.274c-0.344,0-0.622-0.278-0.622-0.622s0.278-0.622,0.622-0.622h13.274
				c0.344,0,0.622,0.278,0.622,0.622S185.665,124.472,185.321,124.472z"/>
			<path fill="#FFFFFF" d="M185.321,131.593h-13.274c-0.344,0-0.622-0.278-0.622-0.622s0.278-0.622,0.622-0.622h13.274
				c0.344,0,0.622,0.278,0.622,0.622S185.665,131.593,185.321,131.593z"/>
			<path fill="#FFFFFF" d="M185.321,138.714h-13.274c-0.344,0-0.622-0.278-0.622-0.623c0-0.343,0.278-0.621,0.622-0.621h13.274
				c0.344,0,0.622,0.278,0.622,0.621C185.943,138.436,185.665,138.714,185.321,138.714z"/>
			<path fill="#FFFFFF" d="M167.831,139.889c-0.004,0-0.007,0-0.01,0c-0.184-0.002-0.359-0.087-0.476-0.231l-1.452-1.797
				c-0.216-0.268-0.174-0.659,0.094-0.875c0.267-0.216,0.658-0.175,0.875,0.093l0.979,1.212l1.033-1.223
				c0.222-0.263,0.615-0.296,0.877-0.073c0.264,0.222,0.297,0.615,0.075,0.877l-1.521,1.798
				C168.187,139.809,168.013,139.889,167.831,139.889z"/>
			<path fill="#FFFFFF" d="M167.831,132.968c-0.004,0-0.007,0-0.01,0c-0.184-0.002-0.359-0.087-0.476-0.231l-1.452-1.798
				c-0.216-0.267-0.174-0.658,0.094-0.875c0.267-0.216,0.658-0.175,0.875,0.094l0.979,1.212l1.033-1.224
				c0.222-0.263,0.615-0.296,0.877-0.073c0.264,0.223,0.297,0.615,0.075,0.878l-1.521,1.798
				C168.187,132.887,168.013,132.968,167.831,132.968z"/>
			<path fill="#FFFFFF" d="M167.831,126.047c-0.004,0-0.007,0-0.01,0c-0.184-0.003-0.359-0.087-0.476-0.231l-1.452-1.798
				c-0.216-0.268-0.174-0.659,0.094-0.875c0.267-0.216,0.658-0.175,0.875,0.093l0.979,1.213l1.033-1.224
				c0.222-0.263,0.615-0.296,0.877-0.073c0.264,0.222,0.297,0.614,0.075,0.877l-1.521,1.798
				C168.187,125.966,168.013,126.047,167.831,126.047z"/>
			<path fill="#FFFFFF" d="M167.831,119.125c-0.004,0-0.007,0-0.01,0c-0.184-0.002-0.359-0.087-0.476-0.231l-1.452-1.798
				c-0.216-0.267-0.174-0.659,0.094-0.875c0.267-0.216,0.658-0.175,0.875,0.094l0.979,1.212l1.033-1.224
				c0.222-0.262,0.615-0.295,0.877-0.072c0.264,0.222,0.297,0.614,0.075,0.877l-1.521,1.798
				C168.187,119.045,168.013,119.125,167.831,119.125z"/>
		</g>
	</g>
	<g>
		<path fill="#FFFFFF" d="M45.111,226.58h-4.553v7.629c2.25-0.009,3.674-0.105,5.361-0.475l0.141,1.178
			c-1.811,0.369-3.34,0.439-5.854,0.457h-0.984v-9.932h5.889V226.58z M48.785,238.322h-1.318v-7.682h-3.41v-1.16h3.41v-5.59h1.318
			V238.322z M51.984,239.13h-1.336v-15.627h1.336V239.13z"/>
		<path fill="#FFFFFF" d="M62.724,230.166c0,3.322-1.67,5.432-3.99,5.432c-2.338,0-3.99-2.109-3.99-5.432s1.652-5.432,3.99-5.449
			C61.054,224.734,62.724,226.843,62.724,230.166z M56.08,230.166c0,2.549,1.09,4.201,2.654,4.201s2.654-1.652,2.654-4.201
			s-1.09-4.201-2.654-4.219C57.169,225.964,56.08,227.617,56.08,230.166z M67.048,239.166H65.66v-15.662h1.389V239.166z"/>
		<path fill="#FFFFFF" d="M77.736,226.087H71.83v3.252h5.221v1.125H71.83v3.779c2.874,0,4.702-0.097,6.855-0.475l0.158,1.143
			c-2.268,0.369-4.184,0.475-7.207,0.475h-1.195v-10.441h7.295V226.087z M82.675,239.166h-1.371v-8.613H78v-1.143h3.305v-5.906
			h1.371V239.166z"/>
		<path fill="#FFFFFF" d="M90.744,236.195l-0.756-1.125c4.228-2.004,6.381-5.001,6.697-8.736h-5.977v-1.125h7.383
			C98.074,229.708,95.982,233.681,90.744,236.195z M102.714,239.13h-1.389v-15.627h1.389V239.13z"/>
		<path fill="#FFFFFF" d="M107.373,227.283h4.553v-2.637h1.371v7.717h-7.277v-7.717h1.354V227.283z M111.925,231.238v-2.865h-4.553
			v2.865H111.925z M118.289,238.796h-10.494v-4.922h1.354v3.762h9.141V238.796z M117.568,228.25h2.355v1.16h-2.355V235h-1.371
			v-11.479h1.371V228.25z"/>
		<path fill="#FFFFFF" d="M134.566,231.185l-0.703,1.072c-1.784-0.633-3.146-1.916-3.814-3.533
			c-0.668,1.775-2.101,3.155-3.938,3.832l-0.738-1.072c2.338-0.826,3.973-2.848,3.99-5.08v-0.668h-3.568v-1.125h8.438v1.125h-3.516
			v0.668C130.716,228.478,132.246,230.376,134.566,231.185z M137.642,239.13h-1.371v-4.254h-8.859v-1.125h10.23V239.13z
			 M137.642,227.634h2.355v1.178h-2.355v4.113h-1.371v-9.422h1.371V227.634z"/>
		<path fill="#FFFFFF" d="M149.279,227.248h3.27v-3.744h1.389v8.385h-1.389v-3.498h-3.252c-0.281,1.846-1.89,3.076-4.008,3.076
			c-2.373,0-4.061-1.477-4.061-3.621c0-2.127,1.688-3.621,4.061-3.604C147.389,224.224,148.98,225.446,149.279,227.248z
			 M142.546,227.845c0,1.424,1.143,2.461,2.742,2.461c1.582,0,2.707-1.037,2.707-2.461c0-1.441-1.125-2.443-2.707-2.426
			C143.689,225.402,142.546,226.404,142.546,227.845z M145.253,234.666h7.295v-1.986h1.389v6.24h-10.072v-6.24h1.389V234.666z
			 M152.548,237.794v-2.021h-7.295v2.021H152.548z"/>
		<path fill="#FFFFFF" d="M175.365,237.126h-14.309v-1.178h14.309V237.126z M173.994,226.228h-2.479v5.467h2.443v1.125h-11.602
			v-1.125h2.443v-5.467h-2.479v-1.143h11.672V226.228z M170.162,231.695v-5.467h-3.99v5.467H170.162z"/>
		<path fill="#FFFFFF" d="M190.922,237.197h-14.309v-1.16h6.434v-2.953h-4.641v-4.816h9.352v-2.461h-9.387v-1.143h10.74v4.729
			h-9.334v2.549h9.703v1.143h-5.08v2.953h6.521V237.197z"/>
		<path fill="#FFFFFF" d="M200.098,234.349l-0.791,1.072c-1.504-0.914-2.584-2.584-3.129-4.482c-0.58,2.074-1.74,3.858-3.305,4.816
			l-0.879-1.037c2.162-1.266,3.48-4.043,3.48-6.715v-3.023h1.336v2.971C196.811,230.429,198.023,233.119,200.098,234.349z
			 M202.33,238.339h-1.301v-8.051h-2.654v-1.178h2.654v-5.273h1.301V238.339z M205.564,239.13h-1.336v-15.627h1.336V239.13z"/>
		<path fill="#FFFFFF" d="M222.035,237.003h-14.309v-1.143h14.309V237.003z M221.297,231.378l-0.633,1.16
			c-2.355-0.545-4.844-2.224-5.854-4.535c-1.012,2.303-3.49,3.981-5.854,4.535l-0.633-1.16c2.707-0.527,5.748-2.883,5.748-5.572
			v-1.195h1.441v1.195C215.514,228.478,218.572,230.869,221.297,231.378z"/>
		<path fill="#FFFFFF" d="M242.109,237.214h-14.309v-1.143h3.99v-3.727h-2.689v-1.143h2.443v-5.098h-2.479v-1.143h11.672v1.143
			h-2.479v5.098h2.443v1.143h-2.689v3.727h4.096V237.214z M236.906,231.203v-5.098h-3.99v5.098H236.906z M236.643,236.072v-3.727
			h-3.463v3.727H236.643z"/>
		<path fill="#FFFFFF" d="M257.648,232.697h-6.363v3.199h-1.371v-3.199h-6.574v-1.143h14.309V232.697z M256.752,229.322l-0.545,1.09
			c-2.523-0.36-4.879-1.626-5.73-3.463c-0.844,1.837-3.191,3.103-5.73,3.463l-0.51-1.09c2.76-0.387,5.344-1.951,5.344-3.867v-0.035
			h-4.922v-1.125h11.672v1.125h-4.957v0.035C251.355,227.371,253.992,228.935,256.752,229.322z M256.049,238.796h-10.881v-4.465
			h1.389v3.305h9.492V238.796z"/>
		<path fill="#FFFFFF" d="M263.027,234.912v-1.74c-1.82-0.202-3.006-1.266-2.988-2.813c-0.018-1.758,1.477-2.9,3.691-2.9
			c2.18,0,3.691,1.143,3.709,2.9c-0.018,1.547-1.223,2.61-3.023,2.83v1.67c1.459-0.07,2.926-0.185,4.289-0.387l0.088,1.055
			c-3.41,0.58-7.102,0.615-9.844,0.615l-0.229-1.178C259.994,234.964,261.48,234.964,263.027,234.912z M268.424,226.544h-9.422
			v-1.125h4.025v-1.881h1.389v1.881h4.008V226.544z M261.322,230.359c0,1.09,0.967,1.793,2.408,1.775
			c1.424,0.018,2.391-0.686,2.391-1.775s-0.967-1.828-2.391-1.828C262.289,228.531,261.322,229.269,261.322,230.359z
			 M271.043,230.166h2.496v1.16h-2.496v7.805h-1.389v-15.627h1.389V230.166z"/>
	</g>
	<g>
		<path fill="#FFFFFF" d="M32.964,43.879c-1.688,0-2.795,0.879-2.795,2.092c0,1.336,1.494,1.828,2.461,2.074l1.266,0.352
			c1.371,0.352,3.604,1.143,3.604,3.516c0,2.074-1.67,3.691-4.623,3.691c-2.742,0-4.447-1.424-4.588-3.533h1.617
			c0.141,1.424,1.459,2.092,2.971,2.092c1.758,0,3.076-0.896,3.076-2.285c0-1.23-1.178-1.705-2.514-2.092l-1.564-0.422
			c-2.004-0.58-3.234-1.6-3.234-3.322c0-2.145,1.916-3.568,4.377-3.568s4.236,1.441,4.307,3.375h-1.547
			C35.636,44.6,34.494,43.879,32.964,43.879z"/>
		<path fill="#FFFFFF" d="M39.064,42.648h9.598v1.406h-3.99v11.32h-1.6v-11.32h-4.008V42.648z"/>
		<path fill="#FFFFFF" d="M50.771,42.648h7.717v1.406h-6.135v4.254h5.73v1.389h-5.73v4.271h6.223v1.406h-7.805V42.648z"/>
		<path fill="#FFFFFF" d="M60.984,42.648h4.324c2.988,0,4.342,1.775,4.342,4.043c0,2.25-1.354,4.061-4.324,4.061h-2.76v4.623h-1.582
			V42.648z M65.255,49.346c2.021,0,2.83-1.143,2.83-2.654c0-1.529-0.809-2.637-2.848-2.637h-2.672v5.291H65.255z"/>
		<path fill="#FFFFFF" d="M75.89,49.012c0-4.131,1.652-6.539,4.447-6.539s4.447,2.408,4.447,6.539c0,4.166-1.635,6.539-4.447,6.539
			C77.507,55.551,75.89,53.178,75.89,49.012z M83.238,49.012c0-3.287-1.072-5.168-2.9-5.168s-2.918,1.881-2.918,5.168
			s1.072,5.133,2.918,5.133C82.166,54.145,83.238,52.299,83.238,49.012z"/>
		<path fill="#FFFFFF" d="M86.876,54.215l4.342-4.57c1.512-1.6,2.232-2.461,2.232-3.639c0-1.301-1.107-2.162-2.531-2.162
			c-1.512,0-2.479,0.967-2.479,2.391h-1.494c-0.018-2.25,1.723-3.762,4.025-3.762s3.955,1.547,3.955,3.533
			c0,1.424-0.668,2.531-2.918,4.852l-2.918,3.006v0.105h6.064v1.406h-8.262L86.876,54.215z"/>
		<path fill="#FFFFFF" d="M97.423,54.338c-0.018-0.615,0.51-1.125,1.125-1.125s1.125,0.51,1.125,1.125
			c0,0.633-0.51,1.143-1.125,1.143S97.406,54.971,97.423,54.338z"/>
		<path fill="#FFFFFF" d="M120.249,51.227h-3.779v5.572h-1.389v-5.572h-4.008v5.572h-1.424v-5.572h-3.709v-1.143h14.309V51.227z
			 M118.561,45.215c0,2.074-2.215,3.393-5.502,3.375c-3.287,0.018-5.502-1.301-5.502-3.375c0-2.092,2.215-3.41,5.502-3.41
			S118.561,43.123,118.561,45.215z M108.981,45.215c-0.018,1.389,1.635,2.268,4.078,2.268c2.426,0,4.096-0.879,4.096-2.268
			s-1.67-2.285-4.096-2.285C110.616,42.93,108.963,43.826,108.981,45.215z"/>
		<path fill="#FFFFFF" d="M134.469,52.738h-1.389V48.52h-4.043c-0.721,0.923-1.881,1.477-3.217,1.477
			c-2.338,0-4.061-1.617-4.061-3.902s1.723-3.902,4.061-3.92c1.327,0.009,2.461,0.554,3.199,1.459h4.061v-2.443h1.389V52.738z
			 M123.079,46.094c0,1.564,1.143,2.672,2.742,2.672c1.529,0,2.707-1.107,2.707-2.672s-1.178-2.672-2.707-2.689
			C124.221,43.422,123.079,44.529,123.079,46.094z M134.909,56.465h-10.477v-4.939h1.389v3.779h9.088V56.465z M129.864,46.094
			c0,0.457-0.079,0.888-0.211,1.283h3.428v-2.602h-3.428C129.785,45.18,129.864,45.619,129.864,46.094z"/>
		<path fill="#FFFFFF" d="M155.897,54.795h-14.309v-1.178h14.309V54.795z M154.526,43.896h-2.479v5.467h2.443v1.125h-11.602v-1.125
			h2.443v-5.467h-2.479v-1.143h11.672V43.896z M150.694,49.363v-5.467h-3.99v5.467H150.694z"/>
		<path fill="#FFFFFF" d="M171.453,54.865h-14.309v-1.16h6.434v-2.953h-4.641v-4.816h9.352v-2.461h-9.387v-1.143h10.74v4.729h-9.334
			v2.549h9.703v1.143h-5.08v2.953h6.521V54.865z"/>
		<path fill="#FFFFFF" d="M180.629,52.018l-0.791,1.072c-1.502-0.914-2.584-2.584-3.129-4.482c-0.58,2.074-1.74,3.858-3.305,4.816
			l-0.879-1.037c2.162-1.266,3.48-4.043,3.48-6.715v-3.023h1.336v2.971C177.342,48.098,178.555,50.787,180.629,52.018z
			 M182.861,56.008h-1.301v-8.051h-2.654v-1.178h2.654v-5.273h1.301V56.008z M186.096,56.799h-1.336V41.172h1.336V56.799z"/>
		<path fill="#FFFFFF" d="M202.566,54.672h-14.309v-1.143h14.309V54.672z M201.828,49.047l-0.633,1.16
			c-2.355-0.545-4.842-2.224-5.854-4.535c-1.01,2.303-3.488,3.981-5.854,4.535l-0.633-1.16c2.707-0.527,5.748-2.883,5.748-5.572
			v-1.195h1.441v1.195C196.045,46.146,199.104,48.537,201.828,49.047z"/>
		<path fill="#FFFFFF" d="M211.83,42.104h1.336c-1.195,1.74-2.303,5.291-2.303,8.42s1.107,6.697,2.303,8.438h-1.336
			c-1.617-2.355-2.514-5.115-2.531-8.438C209.316,47.201,210.213,44.441,211.83,42.104z"/>
		<path fill="#FFFFFF" d="M215.24,42.648h4.324c2.988,0,4.342,1.775,4.342,4.043c0,2.25-1.354,4.061-4.324,4.061h-2.76v4.623h-1.582
			V42.648z M219.512,49.346c2.021,0,2.83-1.143,2.83-2.654c0-1.529-0.809-2.637-2.848-2.637h-2.672v5.291H219.512z"/>
		<path fill="#FFFFFF" d="M225.928,45.83h1.459v1.459h0.105c0.352-0.967,1.336-1.617,2.461-1.617c0.229,0,0.615,0.018,0.791,0.035
			v1.529c-0.105-0.035-0.527-0.105-0.914-0.105c-1.371,0-2.391,0.949-2.391,2.232v6.012h-1.512V45.83z"/>
		<path fill="#FFFFFF" d="M231.457,50.646c0-2.971,1.758-4.939,4.359-4.939c2.584,0,4.324,1.969,4.324,4.939
			s-1.74,4.922-4.324,4.922C233.215,55.568,231.457,53.617,231.457,50.646z M238.629,50.646c0-1.898-0.896-3.604-2.813-3.604
			c-1.951,0-2.848,1.705-2.848,3.604s0.896,3.586,2.848,3.586C237.732,54.232,238.629,52.545,238.629,50.646z"/>
		<path fill="#FFFFFF" d="M241.67,50.646c0-2.9,1.723-4.939,4.324-4.939c2.039,0,3.551,1.195,3.797,3.006h-1.512
			c-0.211-0.879-0.984-1.67-2.25-1.67c-1.705,0-2.848,1.406-2.848,3.551c0,2.215,1.107,3.621,2.848,3.621
			c1.125,0,1.986-0.598,2.25-1.652h1.512c-0.246,1.705-1.635,3.006-3.762,3.006C243.322,55.568,241.67,53.512,241.67,50.646z"/>
		<path fill="#FFFFFF" d="M251.197,50.682c0-2.936,1.723-4.975,4.324-4.975c2.004,0,4.113,1.23,4.113,4.764v0.633h-6.926
			c0.07,2.021,1.248,3.129,2.953,3.129c1.143,0,1.863-0.492,2.215-1.09h1.617c-0.457,1.441-1.863,2.426-3.832,2.426
			C252.902,55.568,251.197,53.617,251.197,50.682z M258.105,49.82c0-1.6-1.02-2.777-2.584-2.777c-1.652,0-2.707,1.301-2.795,2.777
			H258.105z"/>
		<path fill="#FFFFFF" d="M264.979,46.99c-1.178,0-2.021,0.633-2.021,1.441c0,0.633,0.51,1.072,1.635,1.336l1.424,0.352
			c1.705,0.404,2.549,1.248,2.549,2.584c0,1.652-1.354,2.865-3.744,2.865c-2.145,0-3.428-0.949-3.674-2.689h1.582
			c0.176,0.932,0.861,1.371,2.057,1.371c1.354,0,2.215-0.563,2.215-1.459c0-0.668-0.475-1.125-1.564-1.371l-1.441-0.334
			c-1.67-0.387-2.549-1.301-2.549-2.566c0-1.635,1.424-2.813,3.533-2.813c1.969,0,3.217,1.055,3.41,2.602h-1.477
			C266.701,47.518,266.104,46.99,264.979,46.99z"/>
		<path fill="#FFFFFF" d="M273.908,46.99c-1.178,0-2.021,0.633-2.021,1.441c0,0.633,0.51,1.072,1.635,1.336l1.424,0.352
			c1.705,0.404,2.549,1.248,2.549,2.584c0,1.652-1.354,2.865-3.744,2.865c-2.145,0-3.428-0.949-3.674-2.689h1.582
			c0.176,0.932,0.861,1.371,2.057,1.371c1.354,0,2.215-0.563,2.215-1.459c0-0.668-0.475-1.125-1.564-1.371l-1.441-0.334
			c-1.67-0.387-2.549-1.301-2.549-2.566c0-1.635,1.424-2.813,3.533-2.813c1.969,0,3.217,1.055,3.41,2.602h-1.477
			C275.631,47.518,275.033,46.99,273.908,46.99z"/>
		<path fill="#FFFFFF" d="M280.254,58.961h-1.336c1.195-1.74,2.303-5.309,2.303-8.438s-1.107-6.68-2.303-8.42h1.336
			c1.617,2.338,2.514,5.098,2.531,8.42C282.768,53.846,281.871,56.605,280.254,58.961z"/>
	</g>
	<g>
		<path fill="#FFFFFF" d="M60.671,186.124c0,3.055-2.448,5.188-5.593,5.188s-5.593-2.134-5.593-5.188
			c0-2.987,2.448-5.144,5.593-5.144S60.671,183.136,60.671,186.124z M52.293,186.124c-0.022,1.707,1.19,2.695,2.785,2.695
			c1.55,0,2.763-0.988,2.763-2.695c0-1.662-1.213-2.673-2.763-2.65C53.484,183.451,52.271,184.461,52.293,186.124z M66.826,199.735
			h-14.24v-6.851h2.897v4.56h11.343V199.735z M66.287,194.367h-2.875v-14.689h2.875V194.367z"/>
		<path fill="#FFFFFF" d="M78.865,187.224h-6.177v2.179c3.043,0,4.84-0.101,6.918-0.494l0.27,2.291
			c-2.381,0.427-4.537,0.494-8.49,0.494h-1.527v-6.604h6.132v-1.999h-6.177v-2.246h9.052V187.224z M86.277,200.094h-2.853v-4.627
			h-11.23v-2.291h14.083V200.094z M86.277,192.255h-2.853v-3.145h-3.392v-2.269h3.392v-2.066h-3.392v-2.269h3.392v-2.83h2.853
			V192.255z"/>
		<path fill="#FFFFFF" d="M105.256,189.493h-9.995v-8.603h9.995V189.493z M111.68,194.501h-5.728
			c0.314,1.393,2.471,2.998,6.514,3.392l-0.966,2.156c-3.402-0.314-5.817-1.55-7.053-3.167c-1.27,1.64-3.695,2.842-7.12,3.167
			l-0.988-2.156c4.099-0.325,6.255-1.966,6.559-3.392H97.17v-2.134h5.817v-1.685h2.875v1.685h5.817V194.501z M98.091,187.247h4.313
			v-4.133h-4.313V187.247z M111.321,191.245h-2.853v-11.59h2.853V191.245z"/>
		<path fill="#FFFFFF" d="M138.117,197.713h-18.71v-2.381h18.71V197.713z M136.544,183.743h-2.875v6.199h2.785v2.246h-15.498v-2.246
			h2.74v-6.199h-2.83v-2.291h15.678V183.743z M130.839,189.942v-6.199h-4.268v6.199H130.839z"/>
		<path fill="#FFFFFF" d="M157.994,197.826h-18.709v-2.358h7.884v-3.077h-5.728v-6.873h11.567v-2.246h-11.59v-2.291h14.42v6.783
			h-11.522v2.291h11.994v2.336h-6.289v3.077h7.973V197.826z"/>
		<path fill="#FFFFFF" d="M169.428,193.311l-1.551,2.224c-1.764-1.066-2.887-2.819-3.525-4.919
			c-0.742,2.313-1.967,4.245-3.818,5.368l-1.752-2.111c3.031-1.887,4.154-5.48,4.154-8.939v-3.526h2.785v3.392
			C165.721,188.1,166.643,191.514,169.428,193.311z M172.594,199.151h-2.672v-10.265h-2.65v-2.336h2.65v-6.604h2.672V199.151z
			 M176.885,200.094h-2.74v-20.439h2.74V200.094z"/>
		<path fill="#FFFFFF" d="M197.75,197.579h-18.709v-2.358h18.709V197.579z M197.076,189.335l-1.258,2.381
			c-3.561-0.708-6.211-2.707-7.523-5.346c-1.359,2.617-4.01,4.627-7.547,5.346l-1.236-2.381c4.537-0.809,7.211-4.021,7.232-6.985
			v-1.482h3.055v1.482C189.799,185.337,192.449,188.549,197.076,189.335z"/>
		<path fill="#FFFFFF" d="M212.418,193.783c1.672-0.101,3.369-0.258,4.963-0.494l0.225,2.089c-4.537,0.876-9.389,0.921-12.959,0.921
			l-0.338-2.313c1.539-0.011,3.348-0.022,5.256-0.09v-3.189h2.854V193.783z M216.641,184.372h-4.178
			c0.189,1.977,1.729,3.83,4.807,4.582l-1.303,2.224c-2.393-0.606-4.043-1.932-4.965-3.639c-0.91,1.786-2.537,3.178-4.941,3.796
			l-1.348-2.156c3.088-0.82,4.582-2.74,4.785-4.807h-4.133v-2.313h4.199v-2.224h2.854v2.224h4.223V184.372z M221.402,200.139h-2.854
			v-20.484h2.854V200.139z"/>
		<path fill="#FFFFFF" d="M235.889,183.069h-4.064c0.021,2.415,1.459,4.885,4.693,5.952l-1.414,2.201
			c-2.27-0.719-3.818-2.201-4.695-4.043c-0.92,2.044-2.549,3.695-4.963,4.47l-1.461-2.269c3.357-1.078,4.885-3.762,4.92-6.312
			h-4.111V180.8h11.096V183.069z M241.324,200.094h-2.852v-5.076h-11.186v-2.291h14.037V200.094z M241.324,191.829h-2.852v-4.919
			h-3.168v-2.336h3.168v-4.919h2.852V191.829z"/>
		<path fill="#FFFFFF" d="M248.781,194.277v-1.752c-2.178-0.427-3.594-1.808-3.57-3.706c-0.023-2.291,2.043-3.841,5.031-3.841
			c2.92,0,5.008,1.55,5.031,3.841c-0.023,1.898-1.461,3.291-3.617,3.706v1.64c1.617-0.079,3.246-0.213,4.762-0.427l0.18,2.089
			c-4.357,0.809-9.029,0.831-12.488,0.831l-0.381-2.336C245.221,194.322,246.963,194.322,248.781,194.277z M256.262,184.169h-12.129
			v-2.246h4.648v-2.156h2.875v2.156h4.605V184.169z M247.928,188.819c-0.021,1.078,0.922,1.662,2.314,1.662
			c1.348,0,2.268-0.584,2.268-1.662c0-1.056-0.92-1.662-2.268-1.662C248.85,187.157,247.906,187.763,247.928,188.819z
			 M260.326,187.965H263v2.381h-2.674v9.748h-2.896v-20.439h2.896V187.965z"/>
	</g>
	<g>
		<rect x="28.55" y="269.539" fill="none" width="254.711" height="77.693"/>
		<path fill="#FFFFFF" d="M39.874,281.631h-1.157v-5.01H35.64v2.783h-5.903v-6.548h1.143v2.314h3.633v-2.314h1.128v2.798h3.076
			v-3.662h1.157V281.631z M34.512,278.453v-2.373h-3.633v2.373H34.512z M40.167,284.722h-8.716v-4.043h1.157v3.076h7.559V284.722z"
			/>
		<path fill="#FFFFFF" d="M42.686,282.525l-0.63-0.923c3.53-1.706,5.164-4.212,5.391-7.266h-4.819v-0.938h5.977
			C48.604,277.09,47.037,280.372,42.686,282.525z M52.823,285H51.68v-6.826h-3.105v-0.952h3.105v-5.244h1.143V285z"/>
		<path fill="#FFFFFF" d="M66.929,283.389H55.005v-0.967h5.361v-2.461H56.5v-4.014h7.792v-2.051H56.47v-0.952h8.951v3.94h-7.779
			v2.124h8.085v0.952h-4.233v2.461h5.434V283.389z"/>
		<path fill="#FFFFFF" d="M79.879,279.551h-5.288v2.666h-1.157v-2.666h-5.479v-0.952h11.924V279.551z M78.487,274.937
			c0,1.611-1.802,2.593-4.585,2.593s-4.6-0.981-4.6-2.593s1.816-2.607,4.6-2.622C76.686,272.33,78.487,273.326,78.487,274.937z
			 M78.546,284.722h-9.053v-3.809h1.157v2.827h7.896V284.722z M70.533,274.937c-0.015,1.011,1.348,1.655,3.369,1.655
			s3.369-0.645,3.369-1.655c0-1.04-1.348-1.685-3.369-1.685S70.519,273.897,70.533,274.937z"/>
		<path fill="#FFFFFF" d="M92.315,278.379l-0.586,0.894c-1.486-0.527-2.622-1.597-3.179-2.944c-0.557,1.479-1.751,2.63-3.281,3.193
			l-0.615-0.894c1.948-0.688,3.311-2.373,3.325-4.233v-0.557h-2.974v-0.938h7.031v0.938h-2.93v0.557
			C89.107,276.124,90.382,277.706,92.315,278.379z M94.879,285h-1.143v-3.545h-7.383v-0.938h8.525V285z M94.879,275.42h1.963v0.981
			h-1.963v3.428h-1.143v-7.852h1.143V275.42z"/>
		<path fill="#FFFFFF" d="M104.576,275.098h2.725v-3.12h1.157v6.987h-1.157v-2.915h-2.71c-0.234,1.538-1.574,2.563-3.34,2.563
			c-1.978,0-3.384-1.23-3.384-3.018c0-1.772,1.406-3.018,3.384-3.003C103.001,272.579,104.327,273.597,104.576,275.098z
			 M98.966,275.596c0,1.187,0.952,2.051,2.285,2.051c1.318,0,2.256-0.864,2.256-2.051c0-1.201-0.938-2.036-2.256-2.021
			C99.918,273.56,98.966,274.395,98.966,275.596z M101.222,281.28h6.079v-1.655h1.157v5.2h-8.394v-5.2h1.157V281.28z
			 M107.301,283.887v-1.685h-6.079v1.685H107.301z"/>
		<path fill="#FFFFFF" d="M126.314,283.331h-11.924v-0.981h11.924V283.331z M125.172,274.249h-2.065v4.556h2.036v0.938h-9.668
			v-0.938h2.036v-4.556h-2.065v-0.952h9.727V274.249z M121.979,278.804v-4.556h-3.325v4.556H121.979z"/>
		<path fill="#FFFFFF" d="M139.278,283.389h-11.924v-0.967h5.361v-2.461h-3.867v-4.014h7.793v-2.051h-7.822v-0.952h8.95v3.94h-7.778
			v2.124h8.086v0.952h-4.233v2.461h5.435V283.389z"/>
		<path fill="#FFFFFF" d="M146.925,281.016l-0.659,0.894c-1.253-0.762-2.153-2.153-2.607-3.735c-0.483,1.729-1.45,3.216-2.754,4.014
			l-0.732-0.864c1.802-1.055,2.9-3.369,2.9-5.596v-2.52h1.113v2.476C144.186,277.75,145.196,279.991,146.925,281.016z
			 M148.785,284.341h-1.084v-6.709h-2.212v-0.981h2.212v-4.395h1.084V284.341z M151.48,285h-1.113v-13.022h1.113V285z"/>
		<path fill="#FFFFFF" d="M165.206,283.228h-11.924v-0.952h11.924V283.228z M164.591,278.541l-0.527,0.967
			c-1.963-0.454-4.035-1.854-4.878-3.779c-0.843,1.919-2.907,3.318-4.878,3.779l-0.527-0.967c2.256-0.439,4.79-2.402,4.79-4.644
			v-0.996h1.201v0.996C159.771,276.124,162.32,278.116,164.591,278.541z"/>
		<path fill="#FFFFFF" d="M178.155,278.936h-11.924v-0.908h11.924V278.936z M176.661,282.745h-7.822v1.245h8.247v0.835h-9.404
			v-2.871h7.837v-1.113h-7.852v-0.864h8.994V282.745z M176.617,275.069h-7.69v1.143h7.925v0.835h-9.067v-2.769h7.676v-1.069h-7.72
			v-0.835h8.877V275.069z"/>
		<path fill="#FFFFFF" d="M194.898,283.404h-11.924v-0.952h3.325v-3.105h-2.241v-0.952h2.036v-4.248h-2.065v-0.952h9.727v0.952
			h-2.065v4.248h2.036v0.952h-2.241v3.105h3.413V283.404z M190.563,278.394v-4.248h-3.325v4.248H190.563z M190.343,282.452v-3.105
			h-2.886v3.105H190.343z"/>
		<path fill="#FFFFFF" d="M207.848,279.639h-5.303v2.666h-1.143v-2.666h-5.479v-0.952h11.924V279.639z M207.101,276.827
			l-0.454,0.908c-2.103-0.3-4.065-1.354-4.775-2.886c-0.703,1.531-2.659,2.586-4.775,2.886l-0.425-0.908
			c2.3-0.322,4.453-1.626,4.453-3.223v-0.029h-4.102v-0.938h9.727v0.938h-4.131v0.029
			C202.604,275.201,204.801,276.504,207.101,276.827z M206.515,284.722h-9.067v-3.721h1.157v2.754h7.91V284.722z"/>
		<path fill="#FFFFFF" d="M212.33,281.485v-1.45c-1.517-0.168-2.505-1.055-2.49-2.344c-0.015-1.465,1.23-2.417,3.076-2.417
			c1.816,0,3.076,0.952,3.091,2.417c-0.015,1.289-1.018,2.176-2.52,2.358v1.392c1.216-0.059,2.439-0.154,3.574-0.322l0.073,0.879
			c-2.842,0.483-5.918,0.513-8.203,0.513l-0.19-0.981C209.804,281.529,211.041,281.529,212.33,281.485z M216.827,274.512h-7.852
			v-0.938h3.354v-1.567h1.157v1.567h3.34V274.512z M210.909,277.691c0,0.908,0.806,1.494,2.007,1.479
			c1.187,0.015,1.992-0.571,1.992-1.479s-0.806-1.523-1.992-1.523C211.715,276.167,210.909,276.783,210.909,277.691z M219.01,277.53
			h2.08v0.967h-2.08V285h-1.157v-13.022h1.157V277.53z"/>
		<path fill="#FFFFFF" d="M229.542,275.025h-7.749v-0.952h3.354v-1.934h1.143v1.934h3.252V275.025z M228.927,279.097
			c-0.015,1.758-1.348,2.988-3.193,2.988c-1.86,0-3.208-1.23-3.193-2.988c-0.015-1.758,1.333-2.988,3.193-2.988
			C227.579,276.109,228.912,277.339,228.927,279.097z M223.639,279.097c-0.015,1.187,0.879,2.021,2.095,2.007
			c1.201,0.015,2.08-0.82,2.095-2.007c-0.015-1.172-0.894-2.021-2.095-2.021C224.518,277.076,223.624,277.925,223.639,279.097z
			 M231.944,277.354h2.183v0.952h-2.183V285h-1.143v-13.022h1.143V277.354z"/>
		<path fill="#FFFFFF" d="M246.695,283.155H234.83v-0.952h4.658v-4.658h1.128v4.658h6.079V283.155z M245.274,274.6
			c-0.015,1.597-0.015,3.384-0.483,6.006l-1.172-0.132c0.498-2.49,0.498-4.321,0.498-5.874v-0.352h-8.027v-0.952h9.185V274.6z"/>
		<path fill="#FFFFFF" d="M248.79,286.817h-1.084l0.806-3.984h1.421L248.79,286.817z"/>
		<path fill="#FFFFFF" d="M28.785,294.208h1.333l2.212,8.584h0.103l2.241-8.584h1.479l2.256,8.584h0.088l2.212-8.584h1.333
			l-2.9,10.605h-1.362l-2.314-8.394h-0.088l-2.329,8.394h-1.362L28.785,294.208z"/>
		<path fill="#FFFFFF" d="M45.03,294.208l3.574,8.73h0.132l3.574-8.73h1.582v10.605h-1.245v-8.013h-0.103l-3.296,8.013h-1.172
			l-3.296-8.013h-0.088v8.013h-1.245v-10.605H45.03z"/>
		<path fill="#FFFFFF" d="M59.678,295.234c-1.406,0-2.329,0.732-2.329,1.743c0,1.113,1.245,1.523,2.051,1.729l1.055,0.293
			c1.143,0.293,3.003,0.952,3.003,2.93c0,1.729-1.392,3.076-3.853,3.076c-2.285,0-3.706-1.187-3.823-2.944h1.348
			c0.117,1.187,1.216,1.743,2.476,1.743c1.465,0,2.563-0.747,2.563-1.904c0-1.025-0.981-1.421-2.095-1.743l-1.304-0.352
			c-1.67-0.483-2.695-1.333-2.695-2.769c0-1.787,1.597-2.974,3.647-2.974s3.531,1.201,3.589,2.813h-1.29
			C61.905,295.834,60.953,295.234,59.678,295.234z"/>
		<path fill="#FFFFFF" d="M73.887,295.542h-3.794v6.357c1.875-0.007,3.062-0.088,4.468-0.396l0.117,0.981
			c-1.509,0.308-2.783,0.366-4.878,0.381h-0.82v-8.276h4.907V295.542z M76.948,305.327H75.85v-6.401h-2.842v-0.967h2.842V293.3
			h1.099V305.327z M79.614,306h-1.113v-13.022h1.113V306z"/>
		<path fill="#FFFFFF" d="M88.564,298.53c0,2.769-1.392,4.526-3.325,4.526c-1.948,0-3.325-1.758-3.325-4.526
			s1.377-4.526,3.325-4.541C87.173,294.003,88.564,295.761,88.564,298.53z M83.027,298.53c0,2.124,0.908,3.501,2.212,3.501
			s2.212-1.377,2.212-3.501s-0.908-3.501-2.212-3.516C83.936,295.029,83.027,296.406,83.027,298.53z M92.168,306.03h-1.157v-13.052
			h1.157V306.03z"/>
		<path fill="#FFFFFF" d="M101.074,295.131h-4.922v2.71h4.351v0.938h-4.351v3.149c2.396,0,3.919-0.081,5.713-0.396l0.132,0.952
			c-1.89,0.308-3.486,0.396-6.006,0.396h-0.996v-8.701h6.079V295.131z M105.19,306.03h-1.143v-7.178h-2.754V297.9h2.754v-4.922
			h1.143V306.03z"/>
		<path fill="#FFFFFF" d="M119.268,299.936h-11.924v-0.908h11.924V299.936z M117.773,303.745h-7.822v1.245h8.247v0.835h-9.404
			v-2.871h7.837v-1.113h-7.852v-0.864h8.994V303.745z M117.729,296.069h-7.69v1.143h7.925v0.835h-9.067v-2.769h7.676v-1.069h-7.72
			v-0.835h8.877V296.069z"/>
		<path fill="#FFFFFF" d="M127.559,299.453v-0.806c-1.523-0.11-2.49-0.718-2.49-1.714c0-1.069,1.201-1.685,3.047-1.685
			c1.86,0,3.047,0.615,3.062,1.685c-0.015,0.988-0.952,1.597-2.476,1.714v0.776c1.216-0.059,2.446-0.154,3.589-0.322l0.103,0.776
			c-2.813,0.454-5.947,0.483-8.232,0.483l-0.132-0.864C125.068,299.497,126.284,299.497,127.559,299.453z M131.895,294.809h-7.544
			v-0.835h3.208v-1.113h1.143v1.113h3.193V294.809z M134.253,303.876h-7.31v1.157h7.808v0.82h-8.95V303.1h7.31v-1.025h-7.339v-0.82
			h8.481V303.876z M126.167,296.933c0,0.586,0.747,0.967,1.948,0.967s1.963-0.381,1.963-0.967c0-0.571-0.762-0.908-1.963-0.923
			C126.914,296.025,126.167,296.362,126.167,296.933z M134.253,296.318h1.948v0.981h-1.948v3.369h-1.157v-7.69h1.157V296.318z"/>
		<path fill="#FFFFFF" d="M148.916,300.375h-11.865v-0.952h2.944v-1.831c-1.04-0.403-1.626-1.069-1.626-1.948
			c0-1.538,1.758-2.417,4.614-2.417c2.827,0,4.6,0.879,4.6,2.417c0,0.871-0.578,1.538-1.611,1.934v1.846h2.944V300.375z
			 M147.466,303.671c-0.015,1.479-1.685,2.3-4.482,2.3c-2.827,0-4.497-0.82-4.497-2.3c0-1.494,1.67-2.3,4.497-2.3
			C145.781,301.372,147.451,302.177,147.466,303.671z M139.556,295.644c-0.015,0.952,1.304,1.509,3.428,1.509
			c2.109,0,3.428-0.557,3.428-1.509c0-0.938-1.318-1.509-3.428-1.509C140.859,294.135,139.541,294.707,139.556,295.644z
			 M139.658,303.671c-0.015,0.879,1.23,1.406,3.325,1.406c2.065,0,3.325-0.527,3.325-1.406c0-0.894-1.26-1.406-3.325-1.421
			C140.889,302.265,139.644,302.778,139.658,303.671z M144.829,299.423V297.9c-0.549,0.096-1.164,0.146-1.846,0.146
			s-1.297-0.051-1.846-0.146v1.523H144.829z"/>
		<path fill="#FFFFFF" d="M157.69,296.025h-7.749v-0.952h3.354v-1.934h1.143v1.934h3.252V296.025z M157.075,300.097
			c-0.015,1.758-1.348,2.988-3.193,2.988c-1.86,0-3.208-1.23-3.193-2.988c-0.015-1.758,1.333-2.988,3.193-2.988
			C155.728,297.109,157.061,298.339,157.075,300.097z M151.787,300.097c-0.015,1.187,0.879,2.021,2.095,2.007
			c1.201,0.015,2.08-0.82,2.095-2.007c-0.015-1.172-0.894-2.021-2.095-2.021C152.666,298.076,151.772,298.925,151.787,300.097z
			 M160.093,298.354h2.183v0.952h-2.183V306h-1.143v-13.022h1.143V298.354z"/>
		<path fill="#FFFFFF" d="M169.204,295.893h3.428v-2.915h1.143v13.052h-1.143v-5.054h-3.34c-0.549,1.318-1.553,2.08-2.813,2.08
			c-1.919,0-3.267-1.758-3.267-4.526s1.348-4.526,3.267-4.541C167.673,293.996,168.64,294.692,169.204,295.893z M164.312,298.53
			c0,2.124,0.879,3.501,2.168,3.501c1.274,0,2.168-1.377,2.168-3.501s-0.894-3.501-2.168-3.516
			C165.19,295.029,164.312,296.406,164.312,298.53z M169.731,298.53c0,0.534-0.059,1.04-0.146,1.494h3.047v-3.164h-3.091
			C169.658,297.365,169.731,297.921,169.731,298.53z"/>
		<path fill="#FFFFFF" d="M187.324,299.379l-0.586,0.894c-1.487-0.527-2.622-1.597-3.179-2.944c-0.557,1.479-1.75,2.63-3.281,3.193
			l-0.615-0.894c1.948-0.688,3.311-2.373,3.325-4.233v-0.557h-2.974v-0.938h7.031v0.938h-2.93v0.557
			C184.116,297.124,185.391,298.706,187.324,299.379z M189.888,306h-1.143v-3.545h-7.383v-0.938h8.525V306z M189.888,296.42h1.963
			v0.981h-1.963v3.428h-1.143v-7.852h1.143V296.42z"/>
		<path fill="#FFFFFF" d="M199.585,296.098h2.725v-3.12h1.157v6.987h-1.157v-2.915h-2.71c-0.234,1.538-1.575,2.563-3.34,2.563
			c-1.978,0-3.384-1.23-3.384-3.018c0-1.772,1.406-3.018,3.384-3.003C198.011,293.579,199.336,294.597,199.585,296.098z
			 M193.975,296.596c0,1.187,0.952,2.051,2.285,2.051c1.318,0,2.256-0.864,2.256-2.051c0-1.201-0.938-2.036-2.256-2.021
			C194.927,294.56,193.975,295.395,193.975,296.596z M196.23,302.28h6.079v-1.655h1.157v5.2h-8.394v-5.2h1.157V302.28z
			 M202.31,304.887v-1.685h-6.079v1.685H202.31z"/>
		<path fill="#FFFFFF" d="M212.095,297.314h-4.746v1.816c2.314,0,3.992-0.08,6.021-0.425l0.117,0.967
			c-2.095,0.352-3.838,0.425-6.255,0.425h-1.011v-3.691h4.746v-1.655h-4.775v-0.952h5.903V297.314z M215.933,303.627
			c0,1.494-1.641,2.344-4.292,2.344c-2.695,0-4.321-0.85-4.321-2.344s1.626-2.373,4.321-2.373
			C214.292,301.254,215.933,302.133,215.933,303.627z M208.447,303.627c-0.015,0.908,1.201,1.45,3.193,1.45
			c1.978,0,3.179-0.542,3.179-1.45c0-0.923-1.201-1.465-3.179-1.465C209.648,302.163,208.433,302.705,208.447,303.627z
			 M217.793,295.996h-1.978v1.772h1.978v0.981h-1.978v2.124h-1.143v-7.881h1.143v2.036h1.978V295.996z"/>
		<path fill="#FFFFFF" d="M233.159,302.631h-1.157v-3.501h-3.076v1.274h-5.903v-6.548h1.143v2.314h3.633v-2.314h1.128v1.523h3.076
			v-2.388h1.157V302.631z M227.798,299.453v-2.373h-3.633v2.373H227.798z M233.452,305.722h-8.716v-4.043h1.157v3.076h7.559V305.722
			z M232.002,298.178v-1.831h-3.076v1.831H232.002z"/>
		<path fill="#FFFFFF" d="M247.207,300.346h-11.88v-0.923h5.376V297.9h-3.867v-4.307h8.892v0.923h-7.764v2.446h7.852v0.938h-3.999
			v1.523h5.391V300.346z M245.742,303.642c-0.015,1.509-1.685,2.344-4.482,2.358c-2.813-0.015-4.497-0.85-4.497-2.358
			c0-1.494,1.685-2.344,4.497-2.344C244.058,301.298,245.728,302.148,245.742,303.642z M237.935,303.642
			c-0.015,0.908,1.23,1.436,3.325,1.436c2.065,0,3.325-0.527,3.325-1.436c0-0.894-1.26-1.436-3.325-1.436
			C239.165,302.207,237.92,302.749,237.935,303.642z"/>
		<path fill="#FFFFFF" d="M256.831,305.341h-1.099v-6.328h-1.67c-0.124,2.534-1.201,4.116-2.813,4.116
			c-1.699,0-2.798-1.758-2.798-4.526s1.099-4.526,2.798-4.526c1.582,0,2.651,1.53,2.798,3.984h1.685v-4.805h1.099V305.341z
			 M249.536,298.603c-0.015,2.109,0.659,3.442,1.714,3.428c1.055,0.015,1.729-1.318,1.729-3.428c0-2.124-0.674-3.442-1.729-3.442
			S249.521,296.479,249.536,298.603z M259.453,306h-1.113v-13.022h1.113V306z"/>
		<path fill="#FFFFFF" d="M32.784,316.307h-2.168v6.299c0.645-0.015,1.436-0.073,2.3-0.264l0.117,0.967
			c-1.23,0.264-2.212,0.278-2.988,0.278h-0.571v-8.232h3.311V316.307z M37.002,316.307h-2.329v6.313
			c1.018-0.015,1.831-0.08,2.754-0.308l0.117,0.967c-1.143,0.278-2.065,0.308-3.384,0.308h-0.63v-8.232h3.472V316.307z
			 M39.375,319.105h1.904v0.981h-1.904V327h-1.143v-13.037h1.143V319.105z"/>
		<path fill="#FFFFFF" d="M53.951,322.152H42.027V321.2h11.924V322.152z M52.413,317.64h-7.69v1.45h7.969v0.908H43.58v-3.223h7.676
			v-1.421h-7.72v-0.923h8.877V317.64z M52.691,326.722h-9.082v-3.545h1.157v2.578h7.925V326.722z"/>
		<path fill="#FFFFFF" d="M65.903,318.094c0,1.904-1.465,3.208-3.413,3.208c-1.948,0-3.413-1.304-3.413-3.208
			c0-1.875,1.465-3.193,3.413-3.193C64.438,314.901,65.903,316.219,65.903,318.094z M60.206,318.094
			c-0.015,1.304,0.967,2.197,2.285,2.197c1.29,0,2.286-0.894,2.286-2.197c0-1.274-0.996-2.183-2.286-2.183
			C61.172,315.912,60.191,316.82,60.206,318.094z M69.933,326.722h-8.819v-4.175h1.143v3.208h7.676V326.722z M69.522,323.514H68.38
			v-9.521h1.143V323.514z"/>
		<path fill="#FFFFFF" d="M77.915,318.431h-4.482v2.021c2.446,0,3.706-0.037,5.244-0.322l0.117,0.952
			c-1.626,0.264-2.944,0.308-5.581,0.308H72.29v-3.838h4.482v-1.846h-4.512v-0.923h5.654V318.431z M82.529,327.03h-1.157v-3.398
			h-7.617v-0.938h8.774V327.03z M82.529,321.991h-1.157v-2.417h-2.593v-0.952h2.593v-1.758h-2.593v-0.938h2.593v-1.934h1.157
			V321.991z"/>
		<path fill="#FFFFFF" d="M90.044,318.402h2.827v-3.179h1.069v8.525h-4.995v-8.525h1.099V318.402z M92.871,322.796v-3.457h-2.827
			v3.457H92.871z M99.624,327h-1.113v-6.899h-1.816v6.24h-1.099v-12.085h1.099v4.893h1.816v-5.171h1.113V327z"/>
		<path fill="#FFFFFF" d="M109.717,323.353l-0.645,0.894c-1.501-0.667-2.776-2.08-3.384-3.809c-0.586,1.831-1.854,3.333-3.354,4.043
			l-0.645-0.894c1.934-0.879,3.413-3.076,3.413-5.361v-1.04h-3.062v-0.938h3.047v-2.021h1.143v2.021h3.032v0.938h-3.032v1.04
			C106.23,320.409,107.754,322.518,109.717,323.353z M112.163,327h-1.157v-13.022h1.157V327z"/>
		<path fill="#FFFFFF" d="M126.299,320.936h-11.924v-0.908h11.924V320.936z M124.805,324.745h-7.822v1.245h8.247v0.835h-9.404
			v-2.871h7.837v-1.113h-7.852v-0.864h8.994V324.745z M124.761,317.069h-7.69v1.143h7.925v0.835h-9.067v-2.769h7.676v-1.069h-7.72
			v-0.835h8.877V317.069z"/>
		<path fill="#FFFFFF" d="M143.027,322.357h-3.149V327h-1.157v-4.644h-3.34V327h-1.187v-4.644h-3.091v-0.952h11.924V322.357z
			 M141.621,317.347c0,1.729-1.846,2.827-4.585,2.813c-2.739,0.015-4.585-1.084-4.585-2.813c0-1.743,1.846-2.842,4.585-2.842
			S141.621,315.604,141.621,317.347z M133.638,317.347c-0.015,1.157,1.362,1.89,3.398,1.89c2.021,0,3.413-0.732,3.413-1.89
			s-1.392-1.904-3.413-1.904C135,315.443,133.623,316.19,133.638,317.347z"/>
		<path fill="#FFFFFF" d="M154.878,323.617h-1.157v-3.516h-3.369c-0.601,0.77-1.567,1.23-2.681,1.23
			c-1.948,0-3.384-1.348-3.384-3.252s1.436-3.252,3.384-3.267c1.105,0.007,2.051,0.462,2.666,1.216h3.384v-2.036h1.157V323.617z
			 M145.386,318.08c0,1.304,0.952,2.227,2.285,2.227c1.274,0,2.256-0.923,2.256-2.227s-0.981-2.227-2.256-2.241
			C146.338,315.853,145.386,316.776,145.386,318.08z M155.244,326.722h-8.73v-4.116h1.157v3.149h7.573V326.722z M151.04,318.08
			c0,0.381-0.066,0.74-0.176,1.069h2.856v-2.168h-2.856C150.974,317.318,151.04,317.684,151.04,318.08z"/>
		<path fill="#FFFFFF" d="M160.474,323.485v-1.45c-1.516-0.168-2.505-1.055-2.49-2.344c-0.015-1.465,1.23-2.417,3.076-2.417
			c1.816,0,3.076,0.952,3.091,2.417c-0.015,1.289-1.019,2.176-2.52,2.358v1.392c1.216-0.059,2.438-0.154,3.574-0.322l0.073,0.879
			c-2.842,0.483-5.918,0.513-8.203,0.513l-0.19-0.981C157.946,323.529,159.185,323.529,160.474,323.485z M164.971,316.512h-7.852
			v-0.938h3.354v-1.567h1.157v1.567h3.34V316.512z M159.053,319.691c0,0.908,0.806,1.494,2.007,1.479
			c1.187,0.015,1.992-0.571,1.992-1.479s-0.806-1.523-1.992-1.523C159.858,318.167,159.053,318.783,159.053,319.691z
			 M167.153,319.53h2.08v0.967h-2.08V327h-1.157v-13.022h1.157V319.53z"/>
		<path fill="#FFFFFF" d="M177.686,317.025h-7.749v-0.952h3.354v-1.934h1.143v1.934h3.252V317.025z M177.07,321.097
			c-0.015,1.758-1.348,2.988-3.193,2.988c-1.86,0-3.208-1.23-3.193-2.988c-0.015-1.758,1.333-2.988,3.193-2.988
			C175.723,318.109,177.056,319.339,177.07,321.097z M171.782,321.097c-0.015,1.187,0.879,2.021,2.095,2.007
			c1.201,0.015,2.08-0.82,2.095-2.007c-0.015-1.172-0.894-2.021-2.095-2.021C172.661,319.076,171.768,319.925,171.782,321.097z
			 M180.088,319.354h2.183v0.952h-2.183V327h-1.143v-13.022h1.143V319.354z"/>
		<path fill="#FFFFFF" d="M189.199,316.893h3.428v-2.915h1.143v13.052h-1.143v-5.054h-3.34c-0.55,1.318-1.553,2.08-2.813,2.08
			c-1.919,0-3.267-1.758-3.267-4.526s1.348-4.526,3.267-4.541C187.669,314.996,188.636,315.692,189.199,316.893z M184.307,319.53
			c0,2.124,0.879,3.501,2.168,3.501c1.274,0,2.168-1.377,2.168-3.501s-0.894-3.501-2.168-3.516
			C185.186,316.029,184.307,317.406,184.307,319.53z M189.727,319.53c0,0.534-0.059,1.04-0.146,1.494h3.047v-3.164h-3.091
			C189.653,318.365,189.727,318.921,189.727,319.53z"/>
		<path fill="#FFFFFF" d="M206.836,318.094c0,1.904-1.465,3.208-3.413,3.208s-3.413-1.304-3.413-3.208
			c0-1.875,1.465-3.193,3.413-3.193S206.836,316.219,206.836,318.094z M201.138,318.094c-0.015,1.304,0.967,2.197,2.285,2.197
			c1.289,0,2.285-0.894,2.285-2.197c0-1.274-0.996-2.183-2.285-2.183C202.104,315.912,201.123,316.82,201.138,318.094z
			 M210.864,326.722h-8.818v-4.175h1.143v3.208h7.676V326.722z M210.454,323.514h-1.143v-9.521h1.143V323.514z"/>
		<path fill="#FFFFFF" d="M218.848,318.431h-4.482v2.021c2.446,0,3.706-0.037,5.244-0.322l0.117,0.952
			c-1.626,0.264-2.944,0.308-5.581,0.308h-0.923v-3.838h4.482v-1.846h-4.512v-0.923h5.654V318.431z M223.462,327.03h-1.157v-3.398
			h-7.617v-0.938h8.774V327.03z M223.462,321.991h-1.157v-2.417h-2.593v-0.952h2.593v-1.758h-2.593v-0.938h2.593v-1.934h1.157
			V321.991z"/>
		<path fill="#FFFFFF" d="M232.866,320.453v-0.806c-1.523-0.11-2.49-0.718-2.49-1.714c0-1.069,1.201-1.685,3.047-1.685
			c1.86,0,3.047,0.615,3.062,1.685c-0.015,0.988-0.952,1.597-2.476,1.714v0.776c1.216-0.059,2.446-0.154,3.589-0.322l0.103,0.776
			c-2.813,0.454-5.947,0.483-8.232,0.483l-0.132-0.864C230.376,320.497,231.592,320.497,232.866,320.453z M237.202,315.809h-7.544
			v-0.835h3.208v-1.113h1.143v1.113h3.193V315.809z M239.561,324.876h-7.31v1.157h7.808v0.82h-8.95V324.1h7.31v-1.025h-7.339v-0.82
			h8.481V324.876z M231.475,317.933c0,0.586,0.747,0.967,1.948,0.967s1.963-0.381,1.963-0.967c0-0.571-0.762-0.908-1.963-0.923
			C232.222,317.025,231.475,317.362,231.475,317.933z M239.561,317.318h1.948v0.981h-1.948v3.369h-1.157v-7.69h1.157V317.318z"/>
		<path fill="#FFFFFF" d="M254.224,321.375h-11.865v-0.952h2.944v-1.831c-1.04-0.403-1.626-1.069-1.626-1.948
			c0-1.538,1.758-2.417,4.614-2.417c2.827,0,4.6,0.879,4.6,2.417c0,0.871-0.579,1.538-1.611,1.934v1.846h2.944V321.375z
			 M252.773,324.671c-0.015,1.479-1.685,2.3-4.482,2.3c-2.827,0-4.497-0.82-4.497-2.3c0-1.494,1.67-2.3,4.497-2.3
			C251.089,322.372,252.759,323.177,252.773,324.671z M244.863,316.644c-0.015,0.952,1.304,1.509,3.428,1.509
			c2.109,0,3.428-0.557,3.428-1.509c0-0.938-1.318-1.509-3.428-1.509C246.167,315.135,244.849,315.707,244.863,316.644z
			 M244.966,324.671c-0.015,0.879,1.23,1.406,3.325,1.406c2.065,0,3.325-0.527,3.325-1.406c0-0.894-1.26-1.406-3.325-1.421
			C246.196,323.265,244.951,323.778,244.966,324.671z M250.137,320.423V318.9c-0.55,0.096-1.165,0.146-1.846,0.146
			s-1.296-0.051-1.846-0.146v1.523H250.137z"/>
		<path fill="#FFFFFF" d="M41.001,346.505H29.078v-0.951h3.149v-2.418c-0.967-0.41-1.501-1.076-1.494-1.963
			c-0.015-1.553,1.626-2.445,4.277-2.445c2.637,0,4.277,0.893,4.277,2.445c0,0.887-0.542,1.561-1.509,1.963v2.418h3.223V346.505z
			 M40.328,337.878H29.664v-0.953h4.775v-1.729h1.128v1.729h4.761V337.878z M31.89,341.173c-0.015,0.953,1.172,1.523,3.12,1.523
			c1.919,0,3.105-0.57,3.105-1.523c0-0.967-1.187-1.537-3.105-1.537C33.062,339.636,31.875,340.207,31.89,341.173z M36.651,345.554
			v-2.096c-0.491,0.104-1.04,0.146-1.641,0.146c-0.593,0-1.143-0.043-1.626-0.131v2.08H36.651z"/>
		<path fill="#FFFFFF" d="M53.907,341.394h-3.311v1.289h1.787v2.914h-7.734v1.348h8.13v0.908h-9.272v-3.105h7.749v-1.186h-7.778
			v-0.879h1.802v-1.289h-3.237v-0.938h11.865V341.394z M52.574,337.394c0,1.465-1.699,2.256-4.6,2.271
			c-2.9-0.016-4.614-0.807-4.614-2.271c0-1.449,1.714-2.256,4.614-2.256S52.574,335.945,52.574,337.394z M44.561,337.394
			c-0.015,0.895,1.245,1.377,3.413,1.393c2.153-0.016,3.428-0.498,3.428-1.393c0-0.863-1.274-1.361-3.428-1.377
			C45.806,336.033,44.546,336.531,44.561,337.394z M49.454,342.683v-1.289h-3.047v1.289H49.454z"/>
		<path fill="#FFFFFF" d="M66.87,341.554H55.005v-0.938H66.87V341.554z M65.538,337.453c0,1.48-1.699,2.271-4.6,2.285
			c-2.9-0.014-4.614-0.805-4.614-2.285c0-1.449,1.714-2.24,4.614-2.24C63.839,335.212,65.538,336.003,65.538,337.453z
			 M65.347,345.597h-7.734v1.348h8.13v0.908H56.47v-3.105h7.75v-1.186h-7.779v-0.879h8.906V345.597z M57.525,337.453
			c-0.015,0.908,1.245,1.406,3.413,1.406c2.153,0,3.428-0.498,3.428-1.406c0-0.85-1.275-1.377-3.428-1.377
			C58.77,336.076,57.51,336.603,57.525,337.453z"/>
		<path fill="#FFFFFF" d="M82.281,339.269h-4.043v1.656H83.6v0.951H71.734v-0.951h5.361v-1.656H73.36v-3.998h1.143v3.076h7.778
			V339.269z M82.296,344.103h-2.021v2.783h2.124v0.938H72.95v-0.938h2.124v-2.783h-2.007v-0.922h9.229V344.103z M79.146,346.886
			v-2.783h-2.93v2.783H79.146z"/>
		<path fill="#FFFFFF" d="M91.832,338.611c0,1.771-1.436,2.988-3.413,2.988s-3.413-1.217-3.413-2.988
			c0-1.787,1.436-3.004,3.413-2.988C90.396,335.607,91.832,336.824,91.832,338.611z M86.134,338.611
			c-0.015,1.186,0.952,2.035,2.285,2.035c1.318,0,2.285-0.85,2.285-2.035c0-1.188-0.967-2.037-2.285-2.021
			C87.086,336.574,86.119,337.423,86.134,338.611z M88.155,344.207h6.152v-1.582h1.143v5.199h-8.438v-5.199h1.143V344.207z
			 M94.308,346.886v-1.758h-6.152v1.758H94.308z M95.45,341.964h-1.143v-6.986h1.143V341.964z"/>
		<path fill="#FFFFFF" d="M99.64,343.65c1.984-0.008,4.043-0.168,6.226-0.631l0.161,0.982c-2.314,0.482-4.38,0.645-6.46,0.645
			h-1.055v-8.379h1.128V343.65z M108.399,348h-1.143v-13.021h1.143V348z"/>
		<path fill="#FFFFFF" d="M117.276,337.205h-4.937v6.592c2.358,0,4.028-0.109,5.962-0.469l0.146,0.996
			c-2.036,0.365-3.75,0.439-6.226,0.439h-1.025v-8.512h6.079V337.205z M120.704,340.134h2.183v0.967h-2.183v6.928h-1.143v-13.051
			h1.143V340.134z"/>
		<path fill="#FFFFFF" d="M124.029,345.949c-0.015-0.512,0.425-0.938,0.938-0.938s0.938,0.426,0.938,0.938
			c0,0.527-0.425,0.953-0.938,0.953S124.015,346.476,124.029,345.949z"/>
	</g>
</g>
<g>
</g>
<g>
</g>
<g>
</g>
<g>
</g>
<g>
</g>
<g>
</g>
</svg>
