<?xml version="1.0" encoding="utf-8"?>
<!-- Generator: Adobe Illustrator 16.0.0, SVG Export Plug-In . SVG Version: 6.00 Build 0)  -->
<!DOCTYPE svg PUBLIC "-//W3C//DTD SVG 1.1//EN" "http://www.w3.org/Graphics/SVG/1.1/DTD/svg11.dtd">
<svg version="1.1" id="Layer_1" xmlns="http://www.w3.org/2000/svg" xmlns:xlink="http://www.w3.org/1999/xlink" x="0px" y="0px"
	 width="311.812px" height="388.346px" viewBox="0 0 311.812 388.346" enable-background="new 0 0 311.812 388.346"
	 xml:space="preserve">
<g>
	<path fill="#0864F7" stroke="#173067" stroke-width="2" stroke-miterlimit="10" d="M304.315,365.986
		c0,8.627-6.993,15.621-15.619,15.621H23.165c-8.625,0-15.619-6.994-15.619-15.621V22.359c0-8.626,6.994-15.62,15.619-15.62h265.531
		c8.626,0,15.619,6.993,15.619,15.62V365.986z"/>
	<g>
		<path fill="#FFFFFF" d="M152.309,118.046h-3.085c-0.519,0-0.938,0.42-0.938,0.938v5.563c0,0.518,0.419,0.937,0.938,0.937h3.085
			c0.52,0,0.939-0.419,0.939-0.937v-5.563C153.248,118.466,152.828,118.046,152.309,118.046z"/>
		<path fill="#FFFFFF" d="M158.715,114.739h-3.086c-0.517,0-0.938,0.42-0.938,0.938v8.869c0,0.518,0.421,0.937,0.938,0.937h3.086
			c0.519,0,0.938-0.419,0.938-0.937v-8.869C159.653,115.159,159.233,114.739,158.715,114.739z"/>
		<path fill="#FFFFFF" d="M164.982,110.332h-3.085c-0.519,0-0.938,0.42-0.938,0.937v13.278c0,0.518,0.42,0.937,0.938,0.937h3.085
			c0.52,0,0.938-0.419,0.938-0.937v-13.278C165.921,110.752,165.502,110.332,164.982,110.332z"/>
		<path fill="#FFFFFF" d="M157.983,99.93c-9.914,0-17.978,8.064-17.978,17.979c0,9.912,8.063,17.977,17.978,17.977
			c9.912,0,17.976-8.064,17.976-17.977C175.959,107.994,167.896,99.93,157.983,99.93z M157.983,132.579
			c-8.091,0-14.672-6.582-14.672-14.671c0-8.091,6.581-14.672,14.672-14.672c8.089,0,14.67,6.581,14.67,14.672
			C172.653,125.997,166.072,132.579,157.983,132.579z"/>
		<path fill="#FFFFFF" d="M176.153,129.094l-5.454,5.455l13.845,13.845c0.753,0.753,1.74,1.13,2.727,1.13
			c0.987,0,1.974-0.377,2.727-1.13c1.507-1.507,1.507-3.948,0-5.455L176.153,129.094z"/>
		<path fill="#FFFFFF" d="M137.854,117.236c0-11.196,9.079-20.273,20.275-20.273c11.197,0,20.273,9.077,20.273,20.273
			c0,0.15-0.019,0.294-0.022,0.443c7.433-1.485,12.993-7.417,12.993-14.522c0-8.224-7.44-14.889-16.622-14.889
			c-1.462,0-2.871,0.186-4.222,0.503c-1.5-6.843-8.227-12.006-16.305-12.006c-9.181,0-16.623,6.666-16.623,14.889
			c0,0.427,0.032,0.847,0.071,1.264c-8.489,0.982-14.994,6.448-14.994,13.063c0,6.686,6.645,12.198,15.269,13.094
			C137.892,118.469,137.854,117.857,137.854,117.236z"/>
		<path fill="#FFFFFF" d="M131.667,145.85h-3.818c-0.519,0-0.938,0.42-0.938,0.938v1.798c0,0.519,0.42,0.938,0.938,0.938h3.818
			c0.519,0,0.938-0.42,0.938-0.938v-1.798C132.605,146.27,132.186,145.85,131.667,145.85z"/>
		<path fill="#FFFFFF" d="M141.464,145.85h-3.819c-0.519,0-0.938,0.42-0.938,0.938v1.798c0,0.519,0.42,0.938,0.938,0.938h3.819
			c0.518,0,0.938-0.42,0.938-0.938v-1.798C142.401,146.27,141.981,145.85,141.464,145.85z"/>
		<path fill="#FFFFFF" d="M151.26,145.85h-3.819c-0.519,0-0.938,0.42-0.938,0.938v1.798c0,0.519,0.419,0.938,0.938,0.938h3.819
			c0.518,0,0.937-0.42,0.937-0.938v-1.798C152.196,146.27,151.777,145.85,151.26,145.85z"/>
		<path fill="#FFFFFF" d="M161.056,145.85h-3.82c-0.518,0-0.938,0.42-0.938,0.938v1.798c0,0.519,0.42,0.938,0.938,0.938h3.82
			c0.517,0,0.937-0.42,0.937-0.938v-1.798C161.992,146.27,161.572,145.85,161.056,145.85z"/>
		<path fill="#FFFFFF" d="M131.667,139.888h-3.818c-0.519,0-0.938,0.42-0.938,0.938v1.798c0,0.519,0.42,0.938,0.938,0.938h3.818
			c0.519,0,0.938-0.419,0.938-0.938v-1.798C132.605,140.308,132.186,139.888,131.667,139.888z"/>
		<path fill="#FFFFFF" d="M141.464,139.888h-3.819c-0.519,0-0.938,0.42-0.938,0.938v1.798c0,0.519,0.42,0.938,0.938,0.938h3.819
			c0.518,0,0.938-0.419,0.938-0.938v-1.798C142.401,140.308,141.981,139.888,141.464,139.888z"/>
		<path fill="#FFFFFF" d="M131.667,133.925h-3.818c-0.519,0-0.938,0.42-0.938,0.938v1.798c0,0.519,0.42,0.938,0.938,0.938h3.818
			c0.519,0,0.938-0.42,0.938-0.938v-1.798C132.605,134.345,132.186,133.925,131.667,133.925z"/>
		<path fill="#FFFFFF" d="M141.464,133.925h-3.819c-0.519,0-0.938,0.42-0.938,0.938v1.798c0,0.519,0.42,0.938,0.938,0.938h3.819
			c0.518,0,0.938-0.42,0.938-0.938v-1.798C142.401,134.345,141.981,133.925,141.464,133.925z"/>
		<path fill="#FFFFFF" d="M131.667,127.963h-3.818c-0.519,0-0.938,0.419-0.938,0.938v1.798c0,0.518,0.42,0.938,0.938,0.938h3.818
			c0.519,0,0.938-0.42,0.938-0.938V128.9C132.605,128.382,132.186,127.963,131.667,127.963z"/>
		<path fill="#FFFFFF" d="M141.464,127.963h-3.819c-0.519,0-0.938,0.419-0.938,0.938v1.798c0,0.518,0.42,0.938,0.938,0.938h3.819
			c0.518,0,0.938-0.42,0.938-0.938V128.9C142.401,128.382,141.981,127.963,141.464,127.963z"/>
		<path fill="#FFFFFF" d="M151.26,139.888h-3.819c-0.519,0-0.938,0.42-0.938,0.938v1.798c0,0.519,0.419,0.938,0.938,0.938h3.819
			c0.518,0,0.937-0.419,0.937-0.938v-1.798C152.196,140.308,151.777,139.888,151.26,139.888z"/>
		<path fill="#FFFFFF" d="M161.056,139.888h-3.82c-0.518,0-0.938,0.42-0.938,0.938v1.798c0,0.519,0.42,0.938,0.938,0.938h3.82
			c0.517,0,0.937-0.419,0.937-0.938v-1.798C161.992,140.308,161.572,139.888,161.056,139.888z"/>
	</g>
	<g>
		<path fill="#FFFFFF" d="M36.141,43.879c-1.688,0-2.795,0.879-2.795,2.092c0,1.336,1.494,1.828,2.461,2.074l1.266,0.352
			c1.371,0.352,3.604,1.143,3.604,3.516c0,2.074-1.67,3.691-4.623,3.691c-2.742,0-4.447-1.424-4.588-3.533h1.617
			c0.141,1.424,1.459,2.092,2.971,2.092c1.758,0,3.076-0.896,3.076-2.285c0-1.23-1.178-1.705-2.514-2.092l-1.564-0.422
			c-2.004-0.58-3.234-1.6-3.234-3.322c0-2.145,1.916-3.568,4.377-3.568s4.236,1.441,4.307,3.375h-1.547
			C38.813,44.6,37.67,43.879,36.141,43.879z"/>
		<path fill="#FFFFFF" d="M42.24,42.648h9.598v1.406h-3.99v11.32h-1.6v-11.32H42.24V42.648z"/>
		<path fill="#FFFFFF" d="M53.947,42.648h7.717v1.406h-6.135v4.254h5.73v1.389h-5.73v4.271h6.223v1.406h-7.805V42.648z"/>
		<path fill="#FFFFFF" d="M64.16,42.648h4.324c2.988,0,4.342,1.775,4.342,4.043c0,2.25-1.354,4.061-4.324,4.061h-2.76v4.623H64.16
			V42.648z M68.432,49.346c2.021,0,2.83-1.143,2.83-2.654c0-1.529-0.809-2.637-2.848-2.637h-2.672v5.291H68.432z"/>
		<path fill="#FFFFFF" d="M79.066,49.012c0-4.131,1.652-6.539,4.447-6.539s4.447,2.408,4.447,6.539c0,4.166-1.635,6.539-4.447,6.539
			C80.684,55.551,79.066,53.178,79.066,49.012z M86.414,49.012c0-3.287-1.072-5.168-2.9-5.168s-2.918,1.881-2.918,5.168
			s1.072,5.133,2.918,5.133C85.342,54.145,86.414,52.299,86.414,49.012z"/>
		<path fill="#FFFFFF" d="M90.035,52.176h1.6c0.088,1.213,1.301,1.969,2.813,1.969c1.67,0,2.9-0.914,2.9-2.232
			c0-1.389-1.107-2.373-3.094-2.373h-1.037V48.15h1.037c1.547,0,2.619-0.861,2.619-2.18c0-1.266-0.932-2.127-2.373-2.127
			c-1.354,0-2.602,0.756-2.672,2.004h-1.529c0.088-2.021,1.951-3.375,4.219-3.375c2.426,0,3.902,1.582,3.885,3.41
			c0.018,1.441-0.826,2.514-2.162,2.883v0.088c1.652,0.264,2.672,1.441,2.654,3.059c0.018,2.092-1.898,3.639-4.43,3.639
			S90.123,54.197,90.035,52.176z"/>
		<path fill="#FFFFFF" d="M100.749,54.338c-0.018-0.615,0.51-1.125,1.125-1.125s1.125,0.51,1.125,1.125
			c0,0.633-0.51,1.143-1.125,1.143S100.731,54.971,100.749,54.338z"/>
		<path fill="#FFFFFF" d="M118.494,49.188l-0.773,1.072c-1.714-0.686-3.076-2.048-3.744-3.744c-0.668,1.89-2.092,3.393-3.938,4.131
			l-0.738-1.125c2.338-0.861,3.955-3.041,3.973-5.449v-1.934h1.354v1.986C114.627,46.305,116.209,48.361,118.494,49.188z
			 M122.59,56.465h-10.459v-4.904h1.389v3.744h9.07V56.465z M122.238,52.896h-1.389v-6.873h-3.48v-1.16h3.48v-3.674h1.389V52.896z"
			/>
		<path fill="#FFFFFF" d="M132.803,52.281l-0.844,1.02c-1.538-0.923-2.628-2.61-3.164-4.605c-0.571,2.153-1.705,3.99-3.27,4.975
			l-0.879-1.037c2.18-1.301,3.445-4.148,3.445-6.996V44.16h-3.006v-1.143h7.207v1.143h-2.865v1.477
			C129.428,48.344,130.641,51.033,132.803,52.281z M135.035,55.99h-1.301v-8.051h-2.637v-1.125h2.637v-5.256h1.301V55.99z
			 M138.199,56.799h-1.318V41.172h1.318V56.799z"/>
		<path fill="#FFFFFF" d="M151.348,44.23h-4.482v7.523c2.153-0.009,3.647-0.088,5.379-0.439l0.123,1.16
			c-1.881,0.387-3.48,0.457-5.871,0.457h-1.002v-9.844h5.854V44.23z M158.273,56.799h-1.318v-8.191h-2.303v7.383h-1.266V41.523
			h1.266v5.941h2.303v-6.293h1.318V56.799z"/>
		<path fill="#FFFFFF" d="M174.709,49.908h-14.238v-1.125h14.238V49.908z M173.109,44.547c0,1.863-2.127,2.953-5.52,2.953
			s-5.537-1.09-5.537-2.953c0-1.846,2.145-2.971,5.537-2.971S173.109,42.701,173.109,44.547z M172.969,54.004
			c-0.018,1.811-2.021,2.795-5.379,2.795c-3.393,0-5.396-0.984-5.396-2.795c0-1.793,2.004-2.777,5.396-2.76
			C170.947,51.227,172.951,52.211,172.969,54.004z M163.477,44.547c-0.018,1.178,1.582,1.863,4.113,1.863
			c2.496,0,4.113-0.686,4.113-1.863c0-1.16-1.617-1.863-4.113-1.846C165.059,42.684,163.459,43.387,163.477,44.547z M163.6,54.004
			c-0.018,1.09,1.477,1.705,3.99,1.688c2.479,0.018,3.99-0.598,3.99-1.688s-1.512-1.705-3.99-1.705
			C165.076,52.299,163.582,52.914,163.6,54.004z"/>
		<path fill="#FFFFFF" d="M182.566,44.547h4.553v-2.391h1.371v7.207h-7.277v-7.207h1.354V44.547z M187.119,48.238v-2.602h-4.553
			v2.602H187.119z M192.902,53.881c0,1.846-1.934,2.9-5.15,2.918c-3.217-0.018-5.186-1.072-5.186-2.918
			c0-1.828,1.969-2.883,5.186-2.883S192.902,52.053,192.902,53.881z M183.955,53.881c-0.018,1.125,1.441,1.793,3.797,1.793
			c2.373,0,3.814-0.668,3.814-1.793s-1.441-1.775-3.814-1.793C185.396,52.105,183.938,52.756,183.955,53.881z M192.762,45.109h2.355
			v1.178h-2.355v4.289h-1.371v-9.404h1.371V45.109z"/>
		<path fill="#FFFFFF" d="M204.609,46.129c-0.018,2.268-1.775,3.85-4.113,3.85s-4.113-1.582-4.096-3.85
			c-0.018-2.268,1.758-3.85,4.096-3.85S204.592,43.861,204.609,46.129z M197.754,46.129c-0.018,1.547,1.195,2.637,2.742,2.637
			c1.582,0,2.76-1.09,2.76-2.637s-1.178-2.637-2.76-2.637C198.949,43.492,197.736,44.582,197.754,46.129z M209.039,56.465h-10.494
			v-4.957h1.354v3.797h9.141V56.465z M208.318,45.936h2.355v1.16h-2.355v5.607h-1.371V41.172h1.371V45.936z"/>
		<path fill="#FFFFFF" d="M219.674,42.104h1.336c-1.195,1.74-2.303,5.291-2.303,8.42s1.107,6.697,2.303,8.438h-1.336
			c-1.617-2.355-2.514-5.115-2.531-8.438C217.16,47.201,218.057,44.441,219.674,42.104z"/>
		<path fill="#FFFFFF" d="M228.217,55.551c-3.27,0-5.625-2.514-5.625-6.539s2.355-6.539,5.625-6.539
			c3.252,0,5.625,2.514,5.625,6.539S231.469,55.551,228.217,55.551z M228.217,43.949c-2.303,0-4.096,1.775-4.096,5.063
			s1.793,5.063,4.096,5.063s4.096-1.775,4.096-5.063S230.52,43.949,228.217,43.949z"/>
		<path fill="#FFFFFF" d="M241.998,45.83h1.494v9.545h-1.494v-1.617h-0.105c-0.457,0.967-1.389,1.74-2.83,1.74
			c-1.811,0-3.094-1.178-3.094-3.604V45.83h1.512v5.959c0,1.371,0.861,2.25,2.074,2.25c1.072,0,2.443-0.809,2.443-2.584V45.83z"/>
		<path fill="#FFFFFF" d="M250.084,47.096h-2.004v5.537c0,1.23,0.598,1.424,1.248,1.424c0.281,0,0.668-0.018,0.896-0.035v1.406
			c-0.229,0.035-0.615,0.07-1.055,0.07c-1.266,0-2.619-0.791-2.619-2.479v-5.924h-1.441V45.83h1.441v-2.285h1.529v2.285h2.004
			V47.096z"/>
		<path fill="#FFFFFF" d="M252.035,45.83h1.459v1.512h0.176c0.316-0.51,0.914-1.635,2.76-1.635c2.391,0,4.061,1.898,4.061,4.922
			s-1.67,4.939-4.043,4.939c-1.828,0-2.461-1.125-2.777-1.652h-0.123v5.045h-1.512V45.83z M256.236,54.215
			c1.811,0,2.742-1.582,2.742-3.621c0-1.986-0.914-3.533-2.742-3.533c-1.793,0-2.725,1.424-2.725,3.533
			C253.512,52.738,254.479,54.215,256.236,54.215z"/>
		<path fill="#FFFFFF" d="M268.488,45.83h1.494v9.545h-1.494v-1.617h-0.105c-0.457,0.967-1.389,1.74-2.83,1.74
			c-1.811,0-3.094-1.178-3.094-3.604V45.83h1.512v5.959c0,1.371,0.861,2.25,2.074,2.25c1.072,0,2.443-0.809,2.443-2.584V45.83z"/>
		<path fill="#FFFFFF" d="M276.574,47.096h-2.004v5.537c0,1.23,0.598,1.424,1.248,1.424c0.281,0,0.668-0.018,0.896-0.035v1.406
			c-0.229,0.035-0.615,0.07-1.055,0.07c-1.266,0-2.619-0.791-2.619-2.479v-5.924H271.6V45.83h1.441v-2.285h1.529v2.285h2.004V47.096
			z"/>
		<path fill="#FFFFFF" d="M279.316,58.961h-1.336c1.195-1.74,2.303-5.309,2.303-8.438s-1.107-6.68-2.303-8.42h1.336
			c1.617,2.338,2.514,5.098,2.531,8.42C281.83,53.846,280.934,56.605,279.316,58.961z"/>
	</g>
	<g>
		<path fill="#FFFFFF" d="M36.77,184.057h-4.133c0.022,2.1,1.505,4.167,4.784,5.031l-1.303,2.246
			c-2.313-0.606-3.931-1.909-4.852-3.549c-0.898,1.875-2.538,3.358-4.941,4.065l-1.37-2.246c3.302-0.91,4.807-3.223,4.829-5.548
			h-4.11v-2.246h4.11v-2.246h2.897v2.246h4.088V184.057z M41.531,196.253c0,2.426-2.628,3.818-6.896,3.818
			c-4.357,0-7.008-1.393-7.008-3.818c0-2.471,2.65-3.886,7.008-3.886C38.903,192.368,41.531,193.783,41.531,196.253z
			 M30.503,196.253c-0.022,1.101,1.415,1.662,4.133,1.662c2.65,0,4.065-0.562,4.065-1.662c0-1.168-1.415-1.685-4.065-1.685
			C31.918,194.569,30.48,195.085,30.503,196.253z M41.329,184.506h2.763v2.313h-2.763v5.166h-2.875v-12.331h2.875V184.506z"/>
		<path fill="#FFFFFF" d="M63.633,197.601H44.99v-2.336h6.671v-7.03h2.853v7.03h9.119V197.601z M61.836,183.361
			c0,2.561,0,5.436-0.831,9.771l-2.875-0.292c0.774-3.863,0.809-6.738,0.831-9.142H46.922v-2.269h14.914V183.361z"/>
		<path fill="#FFFFFF" d="M81.444,185.405c0,2.897-2.358,4.896-5.525,4.896c-3.189,0-5.57-1.999-5.57-4.896
			c0-2.808,2.381-4.807,5.57-4.807C79.086,180.598,81.444,182.597,81.444,185.405z M75.829,193.536h7.682v-1.932h2.875v8.266H72.954
			v-8.266h2.875V193.536z M73.156,185.405c0,1.572,1.146,2.493,2.763,2.516c1.572-0.022,2.718-0.943,2.74-2.516
			c-0.022-1.505-1.168-2.448-2.74-2.448C74.302,182.957,73.156,183.9,73.156,185.405z M83.511,197.579v-1.842h-7.682v1.842H83.511z
			 M86.386,183.967h2.763v2.336h-2.763v4.447h-2.875v-11.096h2.875V183.967z"/>
		<path fill="#FFFFFF" d="M93.506,183.653h4.178v-2.718h2.875v9.928h-9.905v-9.928h2.853V183.653z M106.264,200.094h-2.875v-4.986
			H92.495v-2.269h13.769V200.094z M97.684,188.594v-2.718h-4.178v2.718H97.684z M106.264,184.664h2.763v2.313h-2.763v4.964h-2.875
			v-12.286h2.875V184.664z"/>
		<path fill="#FFFFFF" d="M125.086,185.045h-9.883v-2.269h3.549v-2.561h2.83v2.561h3.504V185.045z M124.682,190.818
			c-0.022,2.853-1.887,4.874-4.492,4.874s-4.515-2.021-4.515-4.874c0-2.83,1.909-4.852,4.515-4.852S124.659,187.988,124.682,190.818
			z M118.19,190.818c0,1.55,0.809,2.448,1.999,2.448c1.146,0,1.954-0.898,1.977-2.448c-0.022-1.55-0.831-2.471-1.977-2.471
			C118.999,188.347,118.19,189.268,118.19,190.818z M132.902,200.094h-2.718v-9.838h-1.662v8.962h-2.673v-19.159h2.673v7.906h1.662
			v-8.311h2.718V200.094z"/>
		<path fill="#FFFFFF" d="M153.813,197.646h-18.71v-2.291h7.816v-4.627h2.853v4.627h8.041V197.646z M153.162,188.999l-1.213,2.381
			c-3.594-0.651-6.267-2.572-7.614-5.121c-1.348,2.538-3.998,4.481-7.569,5.121l-1.213-2.381c4.627-0.719,7.232-3.818,7.255-6.716
			v-1.46h3.055v1.46C145.862,185.203,148.49,188.28,153.162,188.999z"/>
		<path fill="#FFFFFF" d="M171.311,189.493h-9.995v-8.603h9.995V189.493z M177.734,194.501h-5.728
			c0.314,1.393,2.471,2.998,6.514,3.392l-0.966,2.156c-3.402-0.314-5.817-1.55-7.053-3.167c-1.27,1.64-3.695,2.841-7.12,3.167
			l-0.988-2.156c4.099-0.326,6.255-1.966,6.559-3.392h-5.728v-2.134h5.817v-1.685h2.875v1.685h5.817V194.501z M164.146,187.247
			h4.313v-4.133h-4.313V187.247z M177.375,191.245h-2.853v-11.59h2.853V191.245z"/>
		<path fill="#FFFFFF" d="M193.659,184.327h-4.739v8.715c1.977-0.011,3.729-0.112,5.705-0.472l0.202,2.336
			c-2.493,0.472-4.672,0.539-7.367,0.562h-1.415v-13.454h7.614V184.327z M203.138,200.094h-2.718V189.83h-1.977v9.276h-2.628
			v-19.114h2.628v7.547h1.977v-7.884h2.718V200.094z"/>
		<path fill="#FFFFFF" d="M223.981,191.469h-18.643v-2.246h18.643V191.469z M222.095,184.102c-0.022,2.493-2.942,3.998-7.435,3.998
			c-4.515,0-7.457-1.505-7.457-3.998c0-2.471,2.942-3.998,7.457-4.021C219.152,180.104,222.072,181.631,222.095,184.102z
			 M221.758,196.366c-0.022,2.403-2.695,3.751-7.12,3.751c-4.492,0-7.165-1.348-7.165-3.751s2.673-3.751,7.165-3.751
			C219.063,192.615,221.735,193.962,221.758,196.366z M210.19,184.102c-0.022,1.19,1.617,1.774,4.47,1.774
			c2.83,0,4.47-0.584,4.47-1.774c0-1.213-1.64-1.774-4.47-1.774C211.808,182.328,210.168,182.889,210.19,184.102z M210.393,196.366
			c-0.022,1.056,1.415,1.572,4.245,1.572c2.763,0,4.223-0.517,4.245-1.572c-0.022-1.078-1.482-1.595-4.245-1.595
			C211.808,194.771,210.37,195.288,210.393,196.366z"/>
		<path fill="#FFFFFF" d="M235.032,187.224h-6.177v2.179c3.043,0,4.84-0.101,6.918-0.494l0.27,2.291
			c-2.381,0.427-4.537,0.494-8.49,0.494h-1.527v-6.604h6.132v-1.999h-6.177v-2.246h9.052V187.224z M242.444,200.094h-2.853v-4.627
			h-11.23v-2.291h14.083V200.094z M242.444,192.255h-2.853v-3.145H236.2v-2.269h3.392v-2.066H236.2v-2.269h3.392v-2.83h2.853
			V192.255z"/>
		<path fill="#FFFFFF" d="M251.406,191.963l-1.146-2.313c4.503-1.202,7.087-3.515,7.524-6.356h-6.559v-2.291h9.681
			C260.93,186.46,257.493,190.279,251.406,191.963z M266.837,195.939c0,2.583-2.74,4.178-6.896,4.178s-6.94-1.595-6.918-4.178
			c-0.022-2.561,2.763-4.178,6.918-4.178S266.837,193.378,266.837,195.939z M255.854,195.939c-0.022,1.235,1.505,1.954,4.088,1.932
			c2.538,0.022,4.065-0.696,4.065-1.932c0-1.258-1.527-1.954-4.065-1.954C257.358,193.985,255.831,194.681,255.854,195.939z
			 M266.612,184.461h2.763v2.336h-2.763v4.717h-2.875v-11.859h2.875V184.461z"/>
		<path fill="#FFFFFF" d="M275.08,194.277v-1.752c-2.179-0.427-3.594-1.808-3.571-3.706c-0.022-2.291,2.044-3.841,5.031-3.841
			c2.92,0,5.009,1.55,5.031,3.841c-0.022,1.898-1.46,3.291-3.616,3.706v1.64c1.617-0.079,3.246-0.213,4.762-0.427l0.18,2.089
			c-4.357,0.809-9.029,0.831-12.488,0.831l-0.382-2.336C271.52,194.322,273.261,194.322,275.08,194.277z M282.56,184.169h-12.129
			v-2.246h4.649v-2.156h2.875v2.156h4.604V184.169z M274.227,188.819c-0.022,1.078,0.921,1.662,2.313,1.662
			c1.348,0,2.269-0.584,2.269-1.662c0-1.056-0.921-1.662-2.269-1.662C275.147,187.157,274.204,187.763,274.227,188.819z
			 M286.625,187.965h2.673v2.381h-2.673v9.748h-2.897v-20.439h2.897V187.965z"/>
	</g>
	<g>
		<g>
			<path fill="#FFFFFF" d="M39.557,280.284h-5.391V285h-1.128v-4.717h-5.347v-0.967h11.865V280.284z M38.971,276.944l-0.469,0.938
				c-2.021-0.337-4.021-1.458-4.863-3.062c-0.835,1.611-2.842,2.725-4.863,3.062l-0.469-0.938c2.344-0.322,4.731-1.89,4.731-3.75
				v-0.747h1.187v0.747C34.225,275.025,36.627,276.622,38.971,276.944z"/>
			<path fill="#FFFFFF" d="M52.579,283.331H40.655v-0.967h2.959v-3.516c-1.113-0.579-1.787-1.517-1.787-2.695
				c0-2.021,1.978-3.34,4.761-3.354c2.783,0.015,4.761,1.333,4.761,3.354c0,1.157-0.652,2.087-1.729,2.666v3.545h2.959V283.331z
				 M42.94,276.153c0,1.45,1.509,2.432,3.647,2.432c2.124,0,3.647-0.981,3.647-2.432s-1.523-2.417-3.647-2.402
				C44.449,273.736,42.94,274.703,42.94,276.153z M48.463,282.364v-3.105c-0.563,0.153-1.194,0.234-1.875,0.234
				c-0.667,0-1.289-0.073-1.846-0.22v3.091H48.463z"/>
			<path fill="#FFFFFF" d="M65.953,284.341h-1.099v-4.277h-2.08c-0.454,1.304-1.318,2.065-2.432,2.065
				c-1.699,0-2.798-1.758-2.798-4.526s1.099-4.526,2.798-4.526c1.113,0,1.978,0.762,2.432,2.065h2.08v-2.886h1.099V284.341z
				 M58.614,277.603c0,2.109,0.659,3.442,1.729,3.428c1.055,0.015,1.743-1.318,1.743-3.428c0-2.124-0.688-3.442-1.743-3.442
				C59.273,274.161,58.614,275.479,58.614,277.603z M63.155,277.603c0,0.534-0.044,1.04-0.117,1.494h1.816v-3.003h-1.831
				C63.111,276.555,63.155,277.061,63.155,277.603z M68.546,285h-1.113v-13.022h1.113V285z"/>
			<path fill="#FFFFFF" d="M82.213,279.493H70.348v-0.938h11.865V279.493z M76.837,273.296h4.175v0.923H76.91
				c0.081,1.479,2.139,2.497,4.6,2.71l-0.381,0.908c-2.146-0.234-4.065-1.025-4.849-2.344c-0.791,1.318-2.71,2.109-4.849,2.344
				l-0.381-0.908c2.446-0.213,4.505-1.23,4.6-2.71h-4.072v-0.923h4.131v-1.348h1.128V273.296z M80.748,285h-1.157v-3.164h-7.925
				v-0.938h9.082V285z"/>
			<path fill="#FFFFFF" d="M94.811,278.335l-0.601,0.923c-1.465-0.527-2.6-1.619-3.149-2.974c-0.571,1.53-1.78,2.754-3.325,3.34
				l-0.601-0.923c1.934-0.703,3.311-2.461,3.311-4.321v-0.483h-2.944v-0.967h7.017v0.967h-2.915v0.469
				C91.603,276.065,92.906,277.676,94.811,278.335z M97.916,282.569c0,1.538-1.655,2.417-4.365,2.432
				c-2.71-0.015-4.365-0.894-4.365-2.432s1.655-2.417,4.365-2.417S97.916,281.031,97.916,282.569z M90.328,282.569
				c-0.015,0.938,1.23,1.509,3.223,1.509s3.223-0.571,3.223-1.509c0-0.952-1.23-1.523-3.223-1.523S90.313,281.617,90.328,282.569z
				 M97.872,279.742h-1.157v-3.413h-2.622v-0.952h2.622v-3.398h1.157V279.742z"/>
			<path fill="#FFFFFF" d="M103.512,279.346v-0.952c-1.517-0.132-2.49-0.843-2.49-1.919c0-1.187,1.216-1.919,3.047-1.919
				c1.846,0,3.047,0.732,3.062,1.919c-0.015,1.069-0.967,1.779-2.476,1.919v0.908c1.216-0.059,2.446-0.154,3.589-0.322l0.103,0.835
				c-2.827,0.498-5.947,0.513-8.232,0.513l-0.132-0.938C101.021,279.39,102.237,279.39,103.512,279.346z M107.848,274.058h-7.544
				v-0.879h3.208v-1.304h1.143v1.304h3.193V274.058z M110.206,285h-1.157v-2.71h-7.471v-0.923h8.628V285z M102.12,276.475
				c0,0.674,0.747,1.143,1.948,1.128c1.201,0.015,1.963-0.454,1.963-1.128c0-0.688-0.762-1.113-1.963-1.099
				C102.867,275.362,102.12,275.787,102.12,276.475z M110.206,275.933h1.948v0.967h-1.948v3.823h-1.157v-8.73h1.157V275.933z"/>
			<path fill="#FFFFFF" d="M123.521,279.024h-4.028v3.369h5.435v0.967h-11.924v-0.967h5.361v-3.369h-3.838v-5.977h8.862v0.938
				h-7.705v4.102h7.837V279.024z"/>
			<path fill="#FFFFFF" d="M137.877,278.936h-11.924v-0.908h11.924V278.936z M136.383,282.745h-7.822v1.245h8.247v0.835h-9.404
				v-2.871h7.837v-1.113h-7.852v-0.864h8.994V282.745z M136.339,275.069h-7.69v1.143h7.925v0.835h-9.067v-2.769h7.676v-1.069h-7.72
				v-0.835h8.877V275.069z"/>
			<path fill="#FFFFFF" d="M153.243,276.27H149.2v1.655h5.361v0.952h-11.865v-0.952h5.361v-1.655h-3.735v-3.999h1.143v3.076h7.778
				V276.27z M153.258,281.104h-2.021v2.783h2.124v0.938h-9.448v-0.938h2.124v-2.783h-2.007v-0.923h9.229V281.104z M150.108,283.887
				v-2.783h-2.93v2.783H150.108z"/>
			<path fill="#FFFFFF" d="M161.886,274.893h3.428v-2.915h1.143v13.052h-1.143v-5.054h-3.34c-0.549,1.318-1.553,2.08-2.813,2.08
				c-1.919,0-3.267-1.758-3.267-4.526s1.348-4.526,3.267-4.541C160.354,272.996,161.321,273.692,161.886,274.893z M156.993,277.53
				c0,2.124,0.879,3.501,2.168,3.501c1.274,0,2.168-1.377,2.168-3.501s-0.894-3.501-2.168-3.516
				C157.872,274.029,156.993,275.406,156.993,277.53z M162.413,277.53c0,0.534-0.059,1.04-0.146,1.494h3.047v-3.164h-3.091
				C162.34,276.365,162.413,276.921,162.413,277.53z"/>
			<path fill="#FFFFFF" d="M180.899,284.341h-1.099v-4.512h-2.417v-0.952h2.417v-2.314h-2.197c-0.638,2.204-2.065,4.152-4.526,5.625
				l-0.703-0.835c2.834-1.678,4.256-4.028,4.482-6.753h-3.896v-0.952h5.039c0,0.666-0.059,1.325-0.176,1.963h1.978v-3.281h1.099
				V284.341z M183.536,285h-1.099v-13.022h1.099V285z"/>
			<path fill="#FFFFFF" d="M193.058,277.647l-0.571,0.908c-1.472-0.491-2.622-1.502-3.179-2.769
				c-0.586,1.398-1.795,2.549-3.325,3.076l-0.571-0.908c1.904-0.659,3.296-2.285,3.296-3.97v-0.366h-2.944v-0.952h7.017v0.952
				h-2.915V274C189.864,275.552,191.183,277.046,193.058,277.647z M196.134,282.481h-7.266v1.45h7.764v0.923h-8.906v-3.252h7.266
				v-1.304h-7.295v-0.938h8.438V282.481z M196.134,278.716h-1.143v-2.871h-2.622v-0.952h2.622v-2.915h1.143V278.716z"/>
			<path fill="#FFFFFF" d="M206.051,278.35l-0.601,0.908c-1.473-0.527-2.607-1.619-3.164-2.959
				c-0.564,1.501-1.766,2.702-3.311,3.267l-0.601-0.908c1.919-0.688,3.311-2.432,3.311-4.263v-0.571h-2.944v-0.938h7.017v0.938
				h-2.915v0.557C202.843,276.08,204.146,277.691,206.051,278.35z M209.112,285h-1.157v-3.574h-7.603v-0.952h8.76V285z
				 M209.112,279.786h-1.157v-3.428h-2.607v-0.967h2.607v-3.413h1.157V279.786z"/>
			<path fill="#FFFFFF" d="M225.841,281.631h-1.157v-3.501h-3.076v1.274h-5.903v-6.548h1.143v2.314h3.633v-2.314h1.128v1.523h3.076
				v-2.388h1.157V281.631z M220.479,278.453v-2.373h-3.633v2.373H220.479z M226.134,284.722h-8.716v-4.043h1.157v3.076h7.559
				V284.722z M224.684,277.178v-1.831h-3.076v1.831H224.684z"/>
			<path fill="#FFFFFF" d="M239.889,279.346h-11.88v-0.923h5.376V276.9h-3.867v-4.307h8.892v0.923h-7.764v2.446h7.852v0.938h-3.999
				v1.523h5.391V279.346z M238.424,282.642c-0.015,1.509-1.685,2.344-4.482,2.358c-2.813-0.015-4.497-0.85-4.497-2.358
				c0-1.494,1.685-2.344,4.497-2.344C236.739,280.298,238.409,281.148,238.424,282.642z M230.616,282.642
				c-0.015,0.908,1.23,1.436,3.325,1.436c2.065,0,3.325-0.527,3.325-1.436c0-0.894-1.26-1.436-3.325-1.436
				C231.847,281.207,230.602,281.749,230.616,282.642z"/>
			<path fill="#FFFFFF" d="M249.513,284.341h-1.099v-6.328h-1.67c-0.124,2.534-1.201,4.116-2.813,4.116
				c-1.699,0-2.798-1.758-2.798-4.526s1.099-4.526,2.798-4.526c1.582,0,2.651,1.53,2.798,3.984h1.685v-4.805h1.099V284.341z
				 M242.218,277.603c-0.015,2.109,0.659,3.442,1.714,3.428c1.055,0.015,1.729-1.318,1.729-3.428c0-2.124-0.674-3.442-1.729-3.442
				S242.203,275.479,242.218,277.603z M252.135,285h-1.113v-13.022h1.113V285z"/>
			<path fill="#FFFFFF" d="M35.367,299.658l-0.645,0.894c-1.429-0.571-2.563-1.707-3.12-3.12c-0.557,1.574-1.743,2.827-3.281,3.442
				l-0.615-0.938c1.948-0.718,3.296-2.534,3.311-4.541v-1.611h1.128v1.655C32.145,297.255,33.463,298.969,35.367,299.658z
				 M38.78,305.722h-8.716v-4.087h1.157v3.12h7.559V305.722z M38.487,302.749H37.33v-5.728h-2.9v-0.967h2.9v-3.062h1.157V302.749z"
				/>
			<path fill="#FFFFFF" d="M47.291,302.236l-0.703,0.85c-1.282-0.77-2.19-2.176-2.637-3.838c-0.476,1.794-1.421,3.325-2.725,4.146
				l-0.732-0.864c1.816-1.084,2.871-3.457,2.871-5.83v-1.23H40.86v-0.952h6.006v0.952h-2.388v1.23
				C44.479,298.955,45.489,301.196,47.291,302.236z M49.151,305.327h-1.084v-6.709H45.87v-0.938h2.197v-4.38h1.084V305.327z
				 M51.788,306h-1.099v-13.022h1.099V306z"/>
			<path fill="#FFFFFF" d="M61.354,299.35l-0.601,0.908c-1.473-0.527-2.607-1.619-3.164-2.959c-0.564,1.501-1.766,2.702-3.311,3.267
				l-0.601-0.908c1.919-0.688,3.311-2.432,3.311-4.263v-0.571h-2.944v-0.938h7.017v0.938h-2.915v0.557
				C58.146,297.08,59.449,298.691,61.354,299.35z M64.415,306h-1.157v-3.574h-7.603v-0.952h8.76V306z M64.415,300.786h-1.157v-3.428
				H60.65v-0.967h2.607v-3.413h1.157V300.786z"/>
			<path fill="#FFFFFF" d="M78.507,304.272H66.583v-0.967h11.924V304.272z M77.276,297.402c0,2.168-2.036,3.589-4.761,3.574
				c-2.725,0.015-4.761-1.406-4.761-3.574c0-2.153,2.036-3.574,4.761-3.574S77.276,295.249,77.276,297.402z M68.854,297.402
				c-0.015,1.582,1.567,2.637,3.662,2.637c2.08,0,3.647-1.055,3.647-2.637c0-1.553-1.567-2.651-3.647-2.637
				C70.421,294.75,68.839,295.849,68.854,297.402z"/>
			<path fill="#FFFFFF" d="M91.471,304.389H79.547v-0.967h5.361v-2.461h-3.867v-4.014h7.793v-2.051h-7.822v-0.952h8.95v3.94h-7.778
				v2.124h8.086v0.952h-4.233v2.461h5.435V304.389z"/>
			<path fill="#FFFFFF" d="M101.637,295.527h-3.735v6.27c1.795-0.008,3.039-0.073,4.482-0.366l0.103,0.967
				c-1.567,0.322-2.9,0.381-4.893,0.381h-0.835v-8.203h4.878V295.527z M107.408,306h-1.099v-6.826h-1.919v6.152h-1.055v-12.056
				h1.055v4.951h1.919v-5.244h1.099V306z"/>
			<path fill="#FFFFFF" d="M121.104,300.258h-11.865v-0.938h11.865V300.258z M119.771,295.791c0,1.553-1.772,2.461-4.6,2.461
				s-4.614-0.908-4.614-2.461c0-1.538,1.787-2.476,4.614-2.476S119.771,294.252,119.771,295.791z M119.654,303.671
				c-0.015,1.509-1.685,2.329-4.482,2.329c-2.827,0-4.497-0.82-4.497-2.329c0-1.494,1.67-2.314,4.497-2.3
				C117.97,301.357,119.64,302.177,119.654,303.671z M111.744,295.791c-0.015,0.981,1.318,1.553,3.428,1.553
				c2.08,0,3.428-0.571,3.428-1.553c0-0.967-1.348-1.553-3.428-1.538C113.063,294.238,111.729,294.824,111.744,295.791z
				 M111.847,303.671c-0.015,0.908,1.23,1.421,3.325,1.406c2.065,0.015,3.325-0.498,3.325-1.406s-1.26-1.421-3.325-1.421
				C113.077,302.25,111.832,302.763,111.847,303.671z"/>
			<path fill="#FFFFFF" d="M129.996,295.087h-7.764v-0.923h3.311v-1.318h1.143v1.318h3.311V295.087z M129.249,297.812
				c-0.015,1.318-1.245,2.139-3.135,2.139c-1.904,0-3.149-0.82-3.135-2.139c-0.015-1.318,1.23-2.139,3.135-2.139
				C128.004,295.673,129.234,296.494,129.249,297.812z M124.078,297.812c-0.015,0.791,0.806,1.274,2.036,1.274
				s2.036-0.483,2.051-1.274c-0.015-0.776-0.82-1.289-2.051-1.289S124.063,297.036,124.078,297.812z M132.384,303.701h-7.148v1.274
				h7.632v0.879h-8.76v-3.003h7.134v-1.172h-7.163v-0.864h8.306V303.701z M132.384,296.098h1.978v0.952h-1.978v3.091h-1.143v-7.207
				h1.143V296.098z"/>
			<path fill="#FFFFFF" d="M150.797,301.284h-5.391V306h-1.128v-4.717h-5.347v-0.967h11.865V301.284z M150.211,297.944l-0.469,0.938
				c-2.021-0.337-4.021-1.458-4.863-3.062c-0.835,1.611-2.842,2.725-4.863,3.062l-0.469-0.938c2.344-0.322,4.731-1.89,4.731-3.75
				v-0.747h1.187v0.747C145.465,296.025,147.867,297.622,150.211,297.944z"/>
			<path fill="#FFFFFF" d="M162.794,296.801c0,1.787-1.436,3.018-3.413,3.018s-3.413-1.23-3.413-3.018
				c0-1.816,1.436-3.047,3.413-3.047S162.794,294.985,162.794,296.801z M161.93,304.799c1.23-0.77,1.89-2.065,1.89-3.076v-0.718
				h1.128v0.718c0,1.333,0.981,2.681,2.651,3.252l-0.571,0.85c-1.304-0.462-2.22-1.37-2.666-2.461
				c-0.403,1.055-1.201,2.051-2.402,2.563c-1.267-0.483-2.073-1.443-2.461-2.534c-0.462,1.055-1.362,1.963-2.607,2.432l-0.586-0.85
				c1.641-0.615,2.637-2.007,2.651-3.252v-0.718h1.113v0.718C160.069,302.873,160.685,304.096,161.93,304.799z M157.096,296.801
				c-0.015,1.201,0.952,2.051,2.285,2.065c1.318-0.015,2.285-0.864,2.285-2.065c0-1.216-0.967-2.08-2.285-2.065
				C158.048,294.721,157.081,295.585,157.096,296.801z M166.412,300.434h-1.143v-7.441h1.143V300.434z"/>
			<path fill="#FFFFFF" d="M180.533,300.566h-11.924v-0.938h11.924V300.566z M179.229,305.678h-9.067v-3.779h1.143v2.827h7.925
				V305.678z M179.156,297.856h-8.921v-4.395h1.143v3.472h7.778V297.856z"/>
			<path fill="#FFFFFF" d="M197.262,301.357h-3.149V306h-1.157v-4.644h-3.34V306h-1.187v-4.644h-3.091v-0.952h11.924V301.357z
				 M195.855,296.347c0,1.729-1.846,2.827-4.585,2.813c-2.739,0.015-4.585-1.084-4.585-2.813c0-1.743,1.846-2.842,4.585-2.842
				S195.855,294.604,195.855,296.347z M187.872,296.347c-0.015,1.157,1.362,1.89,3.398,1.89c2.021,0,3.413-0.732,3.413-1.89
				s-1.392-1.904-3.413-1.904C189.234,294.443,187.857,295.19,187.872,296.347z"/>
			<path fill="#FFFFFF" d="M209.112,302.617h-1.157v-3.516h-3.369c-0.601,0.769-1.567,1.23-2.681,1.23
				c-1.948,0-3.384-1.348-3.384-3.252s1.436-3.252,3.384-3.267c1.105,0.007,2.051,0.461,2.666,1.216h3.384v-2.036h1.157V302.617z
				 M199.62,297.08c0,1.304,0.952,2.227,2.285,2.227c1.274,0,2.256-0.923,2.256-2.227s-0.981-2.227-2.256-2.241
				C200.572,294.853,199.62,295.776,199.62,297.08z M209.479,305.722h-8.73v-4.116h1.157v3.149h7.573V305.722z M205.274,297.08
				c0,0.381-0.066,0.739-0.176,1.069h2.856v-2.168h-2.856C205.208,296.318,205.274,296.684,205.274,297.08z"/>
			<path fill="#FFFFFF" d="M219.073,295.527h-7.764v-0.938h3.311v-1.597h1.143v1.597h3.311V295.527z M218.326,298.676
				c-0.015,1.465-1.274,2.402-3.135,2.402c-1.875,0-3.149-0.938-3.135-2.402c-0.015-1.479,1.26-2.432,3.135-2.432
				C217.052,296.245,218.312,297.197,218.326,298.676z M213.155,298.676c-0.015,0.923,0.806,1.509,2.036,1.494
				c1.216,0.015,2.036-0.571,2.051-1.494c-0.015-0.923-0.835-1.523-2.051-1.523C213.961,297.153,213.141,297.753,213.155,298.676z
				 M222.062,305.722h-8.745v-3.75h1.128v2.783h7.617V305.722z M221.461,297.285h1.963v0.967h-1.963v4.497h-1.143v-9.756h1.143
				V297.285z"/>
			<path fill="#FFFFFF" d="M239.918,300.551h-5.288v2.666h-1.157v-2.666h-5.479v-0.952h11.924V300.551z M238.526,295.937
				c0,1.611-1.802,2.593-4.585,2.593s-4.6-0.981-4.6-2.593s1.816-2.607,4.6-2.622C236.725,293.33,238.526,294.326,238.526,295.937z
				 M238.585,305.722h-9.053v-3.809h1.157v2.827h7.896V305.722z M230.572,295.937c-0.015,1.011,1.348,1.655,3.369,1.655
				s3.369-0.645,3.369-1.655c0-1.04-1.348-1.685-3.369-1.685S230.558,294.897,230.572,295.937z"/>
			<path fill="#FFFFFF" d="M247.198,294.868h3.413v-1.89h1.157v7.72h-1.157v-1.86h-3.398c-0.615,0.695-1.553,1.105-2.651,1.099
				c-1.948,0.015-3.384-1.26-3.384-3.076c0-1.831,1.436-3.105,3.384-3.091C245.66,293.761,246.598,294.171,247.198,294.868z
				 M242.276,296.86c0,1.216,0.952,2.095,2.285,2.095c1.289,0,2.256-0.879,2.256-2.095c0-1.23-0.967-2.109-2.256-2.095
				C243.229,294.75,242.276,295.629,242.276,296.86z M251.813,303.481c0,1.582-1.67,2.49-4.365,2.49c-2.71,0-4.365-0.908-4.365-2.49
				c0-1.567,1.655-2.476,4.365-2.476C250.143,301.005,251.813,301.914,251.813,303.481z M244.21,303.481
				c0,0.981,1.245,1.567,3.237,1.567c2.007,0,3.237-0.586,3.237-1.567s-1.23-1.582-3.237-1.582
				C245.455,301.899,244.21,302.5,244.21,303.481z M247.931,296.86c0,0.366-0.066,0.71-0.176,1.025h2.856v-2.08h-2.856
				C247.864,296.127,247.931,296.479,247.931,296.86z"/>
			<path fill="#FFFFFF" d="M35.851,323.119l-0.703,0.908c-1.479-0.726-2.762-2.256-3.384-4.116c-0.608,1.97-1.89,3.61-3.413,4.38
				l-0.732-0.967c1.934-0.894,3.545-3.369,3.56-5.845v-2.373h1.143v2.373C32.306,319.852,33.932,322.254,35.851,323.119z
				 M38.429,327.03h-1.157v-13.052h1.157V327.03z"/>
			<path fill="#FFFFFF" d="M52.579,325.228H40.655v-0.952h11.924V325.228z M51.964,320.541l-0.527,0.967
				c-1.963-0.454-4.035-1.854-4.878-3.779c-0.843,1.919-2.907,3.317-4.878,3.779l-0.527-0.967c2.256-0.439,4.79-2.402,4.79-4.644
				v-0.996h1.201v0.996C47.145,318.124,49.693,320.116,51.964,320.541z"/>
			<path fill="#FFFFFF" d="M59.2,315.794h-3.867v1.611h3.325v0.908h-3.325v1.772c1.883-0.008,3.055-0.073,4.453-0.337l0.117,0.923
				c-1.509,0.278-2.739,0.352-4.849,0.352h-0.82v-6.196H59.2V315.794z M64.679,326.825H56.08v-4.395h8.599V326.825z M57.208,325.887
				h6.343v-2.52h-6.343V325.887z M62.145,321.712h-1.113v-3.501h-1.758v-0.952h1.758v-3.047h1.113V321.712z M64.679,321.83H63.58
				v-7.852h1.099V321.83z"/>
			<path fill="#FFFFFF" d="M78.448,320.555H66.583v-0.938h11.865V320.555z M77.115,316.454c0,1.479-1.699,2.271-4.6,2.285
				c-2.9-0.015-4.614-0.806-4.614-2.285c0-1.45,1.714-2.241,4.614-2.241S77.115,315.003,77.115,316.454z M76.925,324.598H69.19
				v1.348h8.13v0.908h-9.272v-3.105h7.749v-1.187h-7.778v-0.879h8.906V324.598z M69.103,316.454
				c-0.015,0.908,1.245,1.406,3.413,1.406c2.153,0,3.428-0.498,3.428-1.406c0-0.85-1.274-1.377-3.428-1.377
				C70.348,315.077,69.088,315.604,69.103,316.454z"/>
			<path fill="#FFFFFF" d="M93.609,315.97c0,1.237,0,2.578-0.366,4.453h1.934v0.952h-5.376v5.654h-1.157v-5.654h-5.332v-0.952h8.76
				c0.396-1.875,0.396-3.245,0.396-4.453v-0.19h-7.661v-0.952h8.804V315.97z"/>
			<path fill="#FFFFFF" d="M108.141,321.478h-5.376v1.494h3.911v3.984h-1.157v-3.047h-7.925v-0.938h4.043v-1.494h-5.361v-0.938
				h11.865V321.478z M102.765,315.267h4.175v0.923h-4.102c0.081,1.479,2.139,2.497,4.6,2.739l-0.381,0.879
				c-2.146-0.234-4.065-1.019-4.849-2.344c-0.791,1.325-2.71,2.109-4.849,2.344l-0.381-0.879c2.446-0.242,4.505-1.26,4.6-2.739
				h-4.072v-0.923h4.131v-1.348h1.128V315.267z"/>
			<path fill="#FFFFFF" d="M117.032,316.278h-7.764v-0.952h3.311v-1.465h1.143v1.465h3.311V316.278z M116.285,319.164
				c-0.015,1.392-1.26,2.285-3.135,2.285c-1.89,0-3.149-0.894-3.135-2.285c-0.015-1.392,1.245-2.285,3.135-2.285
				C115.025,316.878,116.271,317.772,116.285,319.164z M111.114,319.164c-0.015,0.85,0.806,1.406,2.036,1.406
				c1.216,0,2.036-0.557,2.051-1.406c-0.015-0.835-0.835-1.406-2.051-1.392C111.92,317.757,111.1,318.329,111.114,319.164z
				 M112.33,323.514h5.947v-1.392h1.143v4.702h-8.232v-4.702h1.143V323.514z M118.277,325.902v-1.479h-5.947v1.479H118.277z
				 M119.42,317.318h1.963v0.981h-1.963v3.252h-1.143v-7.573h1.143V317.318z"/>
			<path fill="#FFFFFF" d="M124.181,322.65c1.984-0.008,4.043-0.169,6.226-0.63l0.161,0.981c-2.314,0.483-4.38,0.645-6.46,0.645
				h-1.055v-8.379h1.128V322.65z M132.94,327h-1.143v-13.022h1.143V327z"/>
			<path fill="#FFFFFF" d="M141.817,316.205h-4.937v6.592c2.358,0,4.028-0.11,5.962-0.469l0.146,0.996
				c-2.036,0.366-3.75,0.439-6.226,0.439h-1.025v-8.511h6.079V316.205z M145.245,319.134h2.183v0.967h-2.183v6.929h-1.143v-13.052
				h1.143V319.134z"/>
			<path fill="#FFFFFF" d="M148.57,324.95c-0.015-0.513,0.425-0.938,0.938-0.938s0.938,0.425,0.938,0.938
				c0,0.527-0.425,0.952-0.938,0.952S148.556,325.477,148.57,324.95z"/>
			<path fill="#FFFFFF" d="M166.229,318.27h-4.043v1.655h5.361v0.952h-11.865v-0.952h5.361v-1.655h-3.735v-3.999h1.143v3.076h7.778
				V318.27z M166.244,323.104h-2.021v2.783h2.124v0.938h-9.448v-0.938h2.124v-2.783h-2.007v-0.923h9.229V323.104z M163.095,325.887
				v-2.783h-2.93v2.783H163.095z"/>
			<path fill="#FFFFFF" d="M180.511,321.786h-11.865v-0.938h11.865V321.786z M179.178,317.025c0,1.626-1.802,2.593-4.6,2.593
				c-2.827,0-4.614-0.967-4.614-2.593s1.787-2.593,4.614-2.578C177.376,314.432,179.178,315.399,179.178,317.025z M179.192,326.722
				h-9.009v-3.794h1.157v2.827h7.852V326.722z M171.15,317.025c-0.015,1.025,1.333,1.655,3.428,1.655c2.08,0,3.428-0.63,3.428-1.655
				s-1.348-1.655-3.428-1.655C172.483,315.37,171.136,316,171.15,317.025z"/>
			<path fill="#FFFFFF" d="M193.05,320.379l-0.542,0.923c-1.501-0.469-2.659-1.443-3.237-2.695
				c-0.564,1.421-1.766,2.505-3.296,3.032l-0.586-0.908c1.948-0.601,3.296-2.153,3.296-3.94v-0.264h-2.944v-0.952h2.944v-1.655
				h1.157v1.655h2.915v0.952h-2.944v0.264C189.813,318.387,191.131,319.823,193.05,320.379z M195.672,324.627
				c0,1.494-1.611,2.329-4.292,2.329c-2.695,0-4.321-0.835-4.321-2.329c0-1.479,1.626-2.329,4.321-2.329
				C194.061,322.298,195.672,323.148,195.672,324.627z M188.216,324.627c-0.015,0.908,1.187,1.436,3.164,1.436
				s3.179-0.527,3.179-1.436s-1.201-1.421-3.179-1.421S188.201,323.719,188.216,324.627z M195.555,317.376h1.963v0.952h-1.963v3.647
				h-1.143v-7.998h1.143V317.376z"/>
			<path fill="#FFFFFF" d="M210.204,325.155h-11.865v-0.952h4.658v-4.658h1.128v4.658h6.079V325.155z M208.783,316.6
				c-0.015,1.597-0.015,3.384-0.483,6.006l-1.172-0.132c0.498-2.49,0.498-4.321,0.498-5.874v-0.352h-8.027v-0.952h9.185V316.6z"/>
			<path fill="#FFFFFF" d="M222.128,317.64c0,1.802-1.421,3.032-3.398,3.018c-1.978,0.015-3.398-1.216-3.398-3.018
				c0-1.772,1.421-2.988,3.398-2.988S222.128,315.868,222.128,317.64z M216.459,317.64c-0.015,1.201,0.952,2.036,2.271,2.051
				c1.333-0.015,2.285-0.85,2.3-2.051c-0.015-1.187-0.967-2.036-2.3-2.021C217.411,315.604,216.444,316.454,216.459,317.64z
				 M218.144,323.294h5.962v-1.626h1.143v5.156h-8.247v-5.156h1.143V323.294z M224.105,325.887v-1.685h-5.962v1.685H224.105z
				 M225.248,316.966h1.963v0.967h-1.963v3.091h-1.143v-7.046h1.143V316.966z"/>
			<path fill="#FFFFFF" d="M229.715,316.849h3.794v-2.051h1.143v6.152h-6.064v-6.152h1.128V316.849z M238.211,327h-1.143v-3.516
				h-7.383v-0.938h8.525V327z M233.509,320.013v-2.241h-3.794v2.241H233.509z M238.211,317.376h1.963v0.952h-1.963v3.53h-1.143
				v-7.881h1.143V317.376z"/>
			<path fill="#FFFFFF" d="M256.668,321.595h-5.303v2.666h-1.143v-2.666h-5.479v-0.952h11.924V321.595z M255.335,326.722h-9.067
				v-3.75h1.157v2.783h7.91V326.722z M255.115,319.149h-8.818v-4.526h8.818V319.149z M247.425,318.226h6.548v-2.695h-6.548V318.226z
				"/>
			<path fill="#FFFFFF" d="M264.359,323.236l-0.703,0.85c-1.282-0.77-2.19-2.176-2.637-3.838c-0.476,1.794-1.421,3.325-2.725,4.146
				l-0.732-0.864c1.816-1.084,2.871-3.457,2.871-5.83v-1.23h-2.505v-0.952h6.006v0.952h-2.388v1.23
				C261.547,319.955,262.558,322.196,264.359,323.236z M266.22,326.327h-1.084v-6.709h-2.197v-0.938h2.197v-4.38h1.084V326.327z
				 M268.856,327h-1.099v-13.022h1.099V327z"/>
			<path fill="#FFFFFF" d="M282.596,320.936h-11.924v-0.908h11.924V320.936z M281.102,324.745h-7.822v1.245h8.247v0.835h-9.404
				v-2.871h7.837v-1.113h-7.852v-0.864h8.994V324.745z M281.058,317.069h-7.69v1.143h7.925v0.835h-9.067v-2.769h7.676v-1.069h-7.72
				v-0.835h8.877V317.069z"/>
			<path fill="#FFFFFF" d="M34.195,338.17h-6.533v-0.938h2.71v-1.86h1.143v1.86h2.681V338.17z M33.756,342.008
				c-0.015,1.743-1.187,2.988-2.827,2.988c-1.626,0-2.798-1.245-2.798-2.988c0-1.729,1.172-2.959,2.798-2.959
				C32.569,339.049,33.741,340.28,33.756,342.008z M29.156,342.008c0,1.157,0.747,1.992,1.772,1.978
				c1.04,0.015,1.802-0.82,1.802-1.978c0-1.143-0.762-1.978-1.802-1.992C29.903,340.031,29.156,340.866,29.156,342.008z M38.78,348
				h-1.099v-6.577h-1.729v5.933h-1.084v-12.056h1.084v5.171h1.729v-5.493h1.099V348z"/>
			<path fill="#FFFFFF" d="M51.451,341.642h-1.157v-1.362h-3.472v-0.908h3.472v-1.567h-3.281c-0.82,2.058-2.842,3.442-5.728,4.131
				l-0.41-0.952c3.193-0.74,5.054-2.3,5.273-4.395h-4.614v-0.952h5.874c0,0.433-0.044,0.85-0.117,1.245h3.003v-1.904h1.157V341.642z
				 M51.451,345.407h-7.266v1.523h7.705v0.952h-8.848v-3.354h7.251v-1.362h-7.28v-0.938h8.438V345.407z"/>
			<path fill="#FFFFFF" d="M61.412,337.277h-7.764v-0.952h3.311v-1.465h1.143v1.465h3.311V337.277z M60.665,340.163
				c-0.015,1.392-1.26,2.285-3.135,2.285c-1.89,0-3.149-0.894-3.135-2.285c-0.015-1.392,1.245-2.285,3.135-2.285
				C59.405,337.877,60.65,338.771,60.665,340.163z M55.494,340.163c-0.015,0.85,0.806,1.406,2.036,1.406
				c1.216,0,2.036-0.557,2.051-1.406c-0.015-0.835-0.835-1.406-2.051-1.392C56.3,338.756,55.479,339.328,55.494,340.163z
				 M56.71,344.513h5.947v-1.392H63.8v4.702h-8.232v-4.702h1.143V344.513z M62.657,346.901v-1.479H56.71v1.479H62.657z
				 M63.8,338.317h1.963v0.981H63.8v3.252h-1.143v-7.573H63.8V338.317z"/>
			<path fill="#FFFFFF" d="M68.561,343.649c1.985-0.008,4.043-0.168,6.226-0.63L74.947,344c-2.314,0.483-4.38,0.645-6.46,0.645
				h-1.055v-8.379h1.128V343.649z M77.32,348h-1.143v-13.022h1.143V348z"/>
			<path fill="#FFFFFF" d="M86.197,337.204h-4.937v6.592c2.358,0,4.028-0.109,5.962-0.469l0.146,0.996
				c-2.036,0.366-3.75,0.439-6.226,0.439h-1.025v-8.511h6.079V337.204z M89.625,340.133h2.183v0.967h-2.183v6.929h-1.143v-13.052
				h1.143V340.133z"/>
			<path fill="#FFFFFF" d="M92.95,345.949c-0.015-0.513,0.425-0.938,0.938-0.938s0.938,0.425,0.938,0.938
				c0,0.527-0.425,0.952-0.938,0.952S92.936,346.476,92.95,345.949z"/>
		</g>
	</g>
	<g>
		<path fill="#FFFFFF" d="M77.301,233.47h-6.469v5.66h-1.354v-5.66h-6.416v-1.16h14.238V233.47z M76.598,229.462l-0.563,1.125
			c-2.426-0.404-4.825-1.749-5.836-3.674c-1.002,1.934-3.41,3.27-5.836,3.674l-0.563-1.125c2.813-0.387,5.678-2.268,5.678-4.5
			v-0.896h1.424v0.896C70.902,227.16,73.785,229.076,76.598,229.462z"/>
		<path fill="#FFFFFF" d="M92.928,237.126H78.619v-1.16h3.551v-4.219c-1.336-0.694-2.145-1.819-2.145-3.234
			c0-2.426,2.373-4.008,5.713-4.025c3.34,0.018,5.713,1.6,5.713,4.025c0,1.389-0.782,2.505-2.074,3.199v4.254h3.551V237.126z
			 M81.361,228.513c0,1.74,1.811,2.918,4.377,2.918c2.549,0,4.377-1.178,4.377-2.918s-1.828-2.9-4.377-2.883
			C83.172,225.613,81.361,226.773,81.361,228.513z M87.988,235.966v-3.727c-0.677,0.185-1.433,0.281-2.25,0.281
			c-0.8,0-1.547-0.088-2.215-0.264v3.709H87.988z"/>
		<path fill="#FFFFFF" d="M108.977,238.339h-1.318v-5.133h-2.496c-0.545,1.564-1.582,2.479-2.918,2.479
			c-2.039,0-3.357-2.109-3.357-5.432s1.318-5.432,3.357-5.432c1.336,0,2.373,0.914,2.918,2.479h2.496v-3.463h1.318V238.339z
			 M100.17,230.253c0,2.531,0.791,4.131,2.074,4.113c1.266,0.018,2.092-1.582,2.092-4.113c0-2.549-0.826-4.131-2.092-4.131
			C100.961,226.123,100.17,227.705,100.17,230.253z M105.619,230.253c0,0.642-0.053,1.248-0.141,1.793h2.18v-3.604h-2.197
			C105.566,228.997,105.619,229.603,105.619,230.253z M112.088,239.13h-1.336v-15.627h1.336V239.13z"/>
		<path fill="#FFFFFF" d="M128.488,232.521H114.25v-1.125h14.238V232.521z M122.037,225.085h5.01v1.107h-4.922
			c0.097,1.775,2.566,2.997,5.52,3.252l-0.457,1.09c-2.575-0.281-4.878-1.23-5.818-2.813c-0.949,1.582-3.252,2.531-5.818,2.813
			l-0.457-1.09c2.936-0.255,5.405-1.477,5.52-3.252h-4.887v-1.107h4.957v-1.617h1.354V225.085z M126.73,239.13h-1.389v-3.797h-9.51
			v-1.125h10.898V239.13z"/>
		<path fill="#FFFFFF" d="M135.273,236.195l-0.756-1.125c4.228-2.004,6.381-5.001,6.697-8.736h-5.977v-1.125h7.383
			C142.604,229.708,140.512,233.681,135.273,236.195z M147.244,239.13h-1.389v-15.627h1.389V239.13z"/>
		<path fill="#FFFFFF" d="M151.902,227.283h4.553v-2.637h1.371v7.717h-7.277v-7.717h1.354V227.283z M156.455,231.238v-2.865h-4.553
			v2.865H156.455z M162.818,238.796h-10.494v-4.922h1.354v3.762h9.141V238.796z M162.098,228.25h2.355v1.16h-2.355V235h-1.371
			v-11.479h1.371V228.25z"/>
		<path fill="#FFFFFF" d="M175.844,234.015l0.105,1.02c-3.568,0.668-7.418,0.686-10.23,0.686l-0.193-1.178
			C168.408,234.542,172.381,234.525,175.844,234.015z M174.754,228.32c0,2.18-1.74,3.674-4.201,3.674s-4.236-1.494-4.219-3.674
			c-0.018-2.18,1.758-3.674,4.219-3.674S174.754,226.14,174.754,228.32z M167.688,228.32c-0.018,1.459,1.195,2.461,2.865,2.461
			c1.652,0,2.848-1.002,2.848-2.461s-1.195-2.461-2.848-2.461C168.883,225.859,167.67,226.861,167.688,228.32z M178.252,239.166
			h-1.371v-15.662h1.371V239.166z"/>
		<path fill="#FFFFFF" d="M194.723,231.185l-0.65,1.107c-1.802-0.563-3.19-1.731-3.885-3.234c-0.677,1.705-2.118,3.006-3.955,3.639
			l-0.703-1.09c2.338-0.721,3.955-2.584,3.955-4.729v-0.316h-3.533v-1.143h3.533v-1.986h1.389v1.986h3.498v1.143h-3.533v0.316
			C190.838,228.794,192.42,230.517,194.723,231.185z M197.869,236.283c0,1.793-1.934,2.795-5.15,2.795
			c-3.234,0-5.186-1.002-5.186-2.795c0-1.775,1.951-2.795,5.186-2.795C195.936,233.488,197.869,234.507,197.869,236.283z
			 M188.922,236.283c-0.018,1.09,1.424,1.723,3.797,1.723s3.814-0.633,3.814-1.723s-1.441-1.705-3.814-1.705
			S188.904,235.193,188.922,236.283z M197.729,227.582h2.355v1.143h-2.355v4.377h-1.371v-9.598h1.371V227.582z"/>
		<path fill="#FFFFFF" d="M215.307,236.916h-14.238v-1.143h5.59v-5.59h1.354v5.59h7.295V236.916z M213.602,226.65
			c-0.018,1.916-0.018,4.061-0.58,7.207l-1.406-0.158c0.598-2.988,0.598-5.186,0.598-7.049v-0.422h-9.633v-1.143h11.021V226.65z"/>
		<path fill="#FFFFFF" d="M235.434,232.591h-6.346v3.199h-1.389v-3.199h-6.574v-1.143h14.309V232.591z M233.764,227.054
			c0,1.934-2.162,3.111-5.502,3.111s-5.52-1.178-5.52-3.111s2.18-3.129,5.52-3.146C231.602,223.925,233.764,225.121,233.764,227.054
			z M233.834,238.796h-10.863v-4.57h1.389v3.393h9.475V238.796z M224.219,227.054c-0.018,1.213,1.617,1.986,4.043,1.986
			s4.043-0.773,4.043-1.986c0-1.248-1.617-2.021-4.043-2.021S224.201,225.806,224.219,227.054z"/>
		<path fill="#FFFFFF" d="M244.17,225.771h4.096v-2.268h1.389v9.264h-1.389v-2.232h-4.078c-0.738,0.835-1.863,1.327-3.182,1.318
			c-2.338,0.018-4.061-1.512-4.061-3.691c0-2.197,1.723-3.727,4.061-3.709C242.324,224.444,243.449,224.936,244.17,225.771z
			 M238.264,228.162c0,1.459,1.143,2.514,2.742,2.514c1.547,0,2.707-1.055,2.707-2.514c0-1.477-1.16-2.531-2.707-2.514
			C239.406,225.63,238.264,226.685,238.264,228.162z M249.707,236.107c0,1.898-2.004,2.988-5.238,2.988
			c-3.252,0-5.238-1.09-5.238-2.988c0-1.881,1.986-2.971,5.238-2.971C247.703,233.136,249.707,234.226,249.707,236.107z
			 M240.584,236.107c0,1.178,1.494,1.881,3.885,1.881c2.408,0,3.885-0.703,3.885-1.881s-1.477-1.898-3.885-1.898
			C242.078,234.208,240.584,234.929,240.584,236.107z M245.049,228.162c0,0.439-0.079,0.853-0.211,1.23h3.428v-2.496h-3.428
			C244.97,227.283,245.049,227.705,245.049,228.162z"/>
	</g>
</g>
<g>
</g>
<g>
</g>
<g>
</g>
<g>
</g>
<g>
</g>
<g>
</g>
</svg>
